<?xml version="1.0" encoding="utf-8"?>
<svg version="1.1" xmlns:xlink="http://www.w3.org/1999/xlink" width="184px" height="35px" xmlns="http://www.w3.org/2000/svg">
  <g transform="matrix(1 0 0 1 -88 -504 )">
    <path d="M 3.5187587355818777 2.169257385744898  C 3.5187587355818777 2.169257385744898  3.5187587355818777 0.795451751150455  3.5187587355818777 0.795451751150455  L 5.084014892116861 0.795451751150455  C 5.084014892116861 0.795451751150455  5.084014892116861 2.169257385744898  5.084014892116861 2.169257385744898  C 5.084014892116861 3.1366742563209153  4.932794321633017 4.047797600620894  4.63035909002954 4.902575789510662  C 4.328057356335751 5.757186123680489  3.874142825569894 6.503514194478475  3.2686047235881266 7.141576211051393  C 2.663266883393529 7.77943681396716  1.9096099108524267 8.259531570066327  1.0076452068594093 8.581835985527102  C 1.0076452068594093 8.581835985527102  0 7.072570871535461  0 7.072570871535461  C 0.8019541465518172 6.793072501403764  1.4627056469126596 6.401777995031802  1.9822533669621227 5.898680928794745  C 2.5020681425215114 5.395416007837748  2.8880527111135286 4.820742891440089  3.1402156084864803 4.174623247971335  C 3.3925787974918755 3.5283357497826433  3.5187587355818777 2.8598617718268082  3.5187587355818777 2.169257385744898  Z M 3.8996092604849824 2.342001264622194  C 3.8996092604849824 2.342001264622194  3.8996092604849824 0.795451751150455  3.8996092604849824 0.795451751150455  L 5.438024726627673 0.795451751150455  C 5.438024726627673 0.795451751150455  5.438024726627673 2.342001264622194  5.438024726627673 2.342001264622194  C 5.438024726627673 2.800109994069339  5.509026797137055 3.2493345802198053  5.651031161995371 3.689649418625075  C 5.793102290731168 4.129796402310405  6.003670322461833 4.541388542579181  6.2827386147806665 4.924460779147785  C 6.562007198731944 5.30736516099645  6.912514660517537 5.648305742792641  7.334254941546863 5.947276671233357  C 7.756195514208635 6.246079714937197  8.250503712959679 6.48681141915008  8.817185894843318 6.669450591913444  C 8.817185894843318 6.669450591913444  7.825761236148679 8.162824498542172  7.825761236148679 8.162824498542172  C 6.966524697457162 7.861872752331647  6.2458166087339615 7.423011664273544  5.663645446036838 6.846221062985212  C 5.081607811094677 6.269262546943062  4.642046529093276 5.5938508740658035  4.344952318152488 4.819984543506516  C 4.048058368998868 4.04595035822729  3.8996092604849824 3.2199450858120806  3.8996092604849824 2.342001264622194  Z M 9.836352809961076 8.83111585344434  L 9.836352809961076 0.010850282783573962  L 11.73939061245201 0.010850282783573962  L 11.73939061245201 8.83111585344434  L 9.836352809961076 8.83111585344434  Z M 11.219347460857534 5.132952190255383  L 11.219347460857534 3.5481346822636737  L 13.756797414226241 3.5481346822636737  L 13.756797414226241 5.132952190255383  L 11.219347460857534 5.132952190255383  Z M 4.328227504241662 9.521322935328625  C 5.07276567120827 9.297254218992194  5.950863467890015 9.185240805142795  6.962519402023209 9.185240805142795  C 7.984790583759022 9.185240805142795  8.863717780599554 9.297254218992194  9.599309707364755 9.521322935328625  C 10.334834900097746 9.745257355882332  10.902989349337735 10.066898171875824  11.3037661309812 10.48622966944181  C 11.704676440379629 10.905359723333707  11.905133594712185 11.412327563837623  11.905133594712185 12.007113499841923  C 11.905133594712185 12.594849057337772  11.704676440379629 13.099185552981302  11.3037661309812 13.52012856992307  C 10.902989349337735 13.94134014841335  10.334834900097746 14.263928719222175  9.599309707364755 14.48786313977588  C 8.863717780599554 14.711931856112313  7.984790583759022 14.82394526996171  6.962519402023209 14.82394526996171  C 5.950863467890015 14.82394526996171  5.07276567120827 14.711931856112313  4.328227504241662 14.48786313977588  C 3.583822865030018 14.263928719222175  3.0111655399513504 13.94134014841335  2.6102552305529234 13.52012856992307  C 2.2094784489094588 13.099185552981302  2.0090864169643234 12.594849057337772  2.0090864169643234 12.007113499841923  C 2.0090864169643234 11.412327563837623  2.2094784489094588 10.905359723333707  2.6102552305529234 10.48622966944181  C 3.0111655399513504 10.066898171875824  3.583822865030018 9.745257355882332  4.328227504241662 9.521322935328625  Z M 8.629117692735068 10.828182632521868  C 8.17599892650443 10.728133970347656  7.620466282314905 10.67812291425159  6.962519402023209 10.67812291425159  C 6.311582639331233 10.67812291425159  5.758585828675048 10.728133970347656  5.303530939842724 10.828182632521868  C 4.848609578765363 10.928097006417588  4.501141679044237 11.075429333128602  4.261129598455977 11.27015491621878  C 4.021251045622679 11.46488049930896  3.901313067475441 11.710526276519193  3.901313067475441 12.007113499841923  C 3.901313067475441 12.296717462530626  4.021251045622679 12.54062952140856  4.261129598455977 12.738846734815752  C 4.501141679044237 12.937131096114305  4.848609578765363 13.086303078437725  5.303530939842724 13.186351740611936  C 5.758585828675048 13.286400402786148  6.311582639331233 13.336411458882214  6.962519402023209 13.336411458882214  C 7.620466282314905 13.336411458882214  8.17599892650443 13.286400402786148  8.629117692735068 13.186351740611936  C 9.08243675059815 13.086303078437725  9.42810044382777 12.937131096114305  9.666109637936861 12.738846734815752  C 9.9043191236784 12.54062952140856  10.023420120967307 12.296717462530626  10.023420120967307 12.007113499841923  C 10.023420120967307 11.710526276519193  9.9043191236784 11.46488049930896  9.666109637936861 11.27015491621878  C 9.42810044382777 11.075429333128602  9.08243675059815 10.928097006417588  8.629117692735068 10.828182632521868  Z M 26 14.823760845891734  L 26 0  L 28 0  L 28 14.823760845891734  L 26 14.823760845891734  Z M 23.61548308442548 7.326153967752134  L 23.61548308442548 5.773795096076158  L 26.17636611420556 5.773795096076158  L 26.17636611420556 7.326153967752134  L 23.61548308442548 7.326153967752134  Z M 23 14.10964010960059  L 23 0.27900288052833105  L 25 0.27900288052833105  L 25 14.10964010960059  L 23 14.10964010960059  Z M 15.377331793074983 11.403800892261215  L 15.377331793074983 9.81916780833948  C 15.377331793074983 9.81916780833948  16.387582372955677 9.81916780833948  16.387582372955677 9.81916780833948  C 17.02763683253511 9.81916780833948  17.629739982265157 9.810200814540499  18.193885196495053 9.792272631468014  C 18.75803041072495 9.774277300504169  19.311653554297013 9.735833815705535  19.85476847541829 9.676946113043174  C 20.397883396539566 9.617856970458838  20.956187532544327 9.534659386049665  21.529679510549965 9.427358871675976  C 21.529679510549965 9.427358871675976  21.69041039690996 10.99053728879053  21.69041039690996 10.99053728879053  C 21.097757514365178 11.105559683099003  20.522198452696433 11.194306952929804  19.963728078516635 11.256753433800542  C 19.405257704336837 11.319065622640668  18.835842948874994 11.359192693732236  18.25547438102459 11.377120876804723  C 17.675306134651912 11.394914765970537  17.05267283891151 11.403800892261215  16.387582372955677 11.403800892261215  C 16.387582372955677 11.403800892261215  15.377331793074983 11.403800892261215  15.377331793074983 11.403800892261215  Z M 15.377331793074983 10.568636491375978  L 15.377331793074983 1.7454816102855937  L 20.825969021540086 1.7454816102855937  L 20.825969021540086 3.292553658622264  L 17.258838976287386 3.292553658622264  L 17.258838976287386 10.568636491375978  L 15.377331793074983 10.568636491375978  Z M 33.810659174655164 9.46796290441564  C 34.55519734162177 9.240335409870832  35.43502664170806 9.126501738855517  36.450154178089186 9.126501738855517  C 37.465482035948035 9.126501738855517  38.341743094789834 9.240335409870832  39.07893735461459 9.46796290441564  C 39.81633187622651 9.695388955286356  40.38542101975124 10.020815027288998  40.78619780139471 10.44424245617733  C 41.187108110793126 10.867401293500203  41.3875576247356 11.379520130696838  41.3875576247356 11.980617908455404  C 41.3875576247356 12.578291173771385  41.187108110793126 13.0904909066172  40.78619780139471 13.517208522148453  C 40.38542101975124 13.94406043346243  39.81633187622651 14.27119515965375  39.07893735461459 14.498621210524467  C 38.341743094789834 14.726315852960637  37.465482035948035 14.840174588119577  36.450154178089186 14.840174588119577  C 35.43502664170806 14.840174588119577  34.55519734162177 14.726315852960637  33.810659174655164 14.498621210524467  C 33.06625453544352 14.27119515965375  32.493597210364854 13.94395450368656  32.09268690096643 13.516901148698494  C 31.691910119322962 13.090049237384516  31.491518087377827 12.577668382331955  31.491518087377827 11.979726525450522  C 31.491518087377827 11.381918964351815  31.691910119322962 10.870742178752208  32.09268690096643 10.446240383602067  C 32.493597210364854 10.02147002690341  33.06625453544352 9.695388955286356  33.810659174655164 9.46796290441564  Z M 38.111549363148576 10.788408508097094  C 37.65843059691793 10.690172808972752  37.1046293964424 10.641053676186461  36.450154178089186 10.641053676186461  C 35.79574575345873 10.641053676186461  35.24105006028226 10.690172808972752  34.78606193532742 10.788408508097094  C 34.33107381037257 10.886577066834308  33.983573349457735 11.034801316855097  33.74356126886948 11.233085678153651  C 33.50368271603618 11.431168610786585  33.38374473788895 11.679258892423684  33.38374473788895 11.977390487230828  C 33.38374473788895 12.283445383134143  33.50368271603618 12.537322315161525  33.74356126886948 12.739031158885728  C 33.983573349457735 12.940807150501294  34.33107381037257 13.0925853760203  34.78606193532742 13.19431271296589  C 35.24105006028226 13.296107190298608  35.79574575345873 13.346985105560824  36.450154178089186 13.346985105560824  C 37.1046293964424 13.346985105560824  37.65843059691793 13.296107190298608  38.111549363148576 13.19431271296589  C 38.56486842101165 13.0925853760203  38.91053211424127 12.940807150501294  39.14854130835037 12.739031158885728  C 39.3867507940919 12.537322315161525  39.505851791380806 12.283445383134143  39.505851791380806 11.977390487230828  C 39.505851791380806 11.679258892423684  39.3867507940919 11.431168610786585  39.14854130835037 11.233085678153651  C 38.91053211424127 11.034801316855097  38.56486842101165 10.886577066834308  38.111549363148576 10.788408508097094  Z M 39.31878448037458 8.783350019320617  L 39.31878448037458 0.010850282783573962  L 41.22182228286551 0.010850282783573962  L 41.22182228286551 8.783350019320617  L 39.31878448037458 8.783350019320617  Z M 40.701771490880944 5.112573330523062  L 40.701771490880944 3.527725085186356  L 43.239229084639746 3.527725085186356  L 43.239229084639746 5.112573330523062  L 40.701771490880944 5.112573330523062  Z M 30.144578437324302 7.87788931042962  L 30.144578437324302 0.9405012821863913  L 32.03159434179285 0.9405012821863913  L 32.03159434179285 2.8874047142305126  L 35.27396196580593 2.8874047142305126  L 35.27396196580593 0.9405012821863913  L 37.15566779916072 0.9405012821863913  L 37.15566779916072 7.87788931042962  L 30.144578437324302 7.87788931042962  Z M 35.27396196580593 4.36974391400569  L 32.03159434179285 4.36974391400569  L 32.03159434179285 6.368531984402993  L 35.27396196580593 6.368531984402993  L 35.27396196580593 4.36974391400569  Z M 50.32491921533193 7.094732497277549  L 50.32491921533193 5.54240436294657  L 52.84875399355716 5.54240436294657  L 52.84875399355716 7.094732497277549  L 50.32491921533193 7.094732497277549  Z M 56 14.823760845891734  L 56 0  L 57 0  L 57 14.823760845891734  L 56 14.823760845891734  Z M 53 14.142068008571329  L 53 0.25736378965117507  L 54 0.25736378965117507  L 54 14.142068008571329  L 53 14.142068008571329  Z M 46.05017444173248 1.7394570906663858  C 46.53039889454144 1.309549995320788  47.088630178232854 1.09458759265114  47.72487918633167 1.09458759265114  C 48.37267813631785 1.09458759265114  48.93605393938928 1.309549995320788  49.4150098785261 1.7394570906663858  C 49.8940325815404 2.169364186011983  50.26359923517204 2.7820599084576  50.5237068847389 3.5775810587698036  C 50.783681036396075 4.3729343543620685  50.91367239502145 5.3207088608081285  50.91367239502145 6.420908420276109  C 50.91367239502145 7.5209401250241505  50.783681036396075 8.47055707115366  50.5237068847389 9.269737766536691  C 50.26359923517204 10.068784166136997  49.89353652324465 10.682352360916257  49.41351236206812 11.110412934274773  C 48.93355496476909 11.538540655524653  48.369675463011795 11.752577545930375  47.72187651302562 11.752577545930375  C 47.085627504926805 11.752577545930375  46.52792484072486 11.538540655524653  46.048768609955594 11.110412934274773  C 45.56967914306381 10.682352360916257  45.20014508047117 10.068784166136997  44.940170928813984 9.269737766536691  C 44.68026354103429 8.47055707115366  44.55031238399272 7.5209401250241505  44.55031238399272 6.420908420276109  C 44.55031238399272 5.3207088608081285  44.68026354103429 4.3729343543620685  44.940170928813984 3.5775810587698036  C 45.20014508047117 2.7820599084576  45.57015028055595 2.169364186011983  46.05017444173248 1.7394570906663858  Z M 48.509211071589625 3.30011504549127  C 48.29109716974933 3.0338781587767745  48.03039042107892 2.900744721958759  47.727087259068185 2.900744721958759  C 47.43039360154701 2.900744721958759  47.17285667463856 3.0338781587767745  46.954475732210966 3.30011504549127  C 46.73636183037068 3.566351932205767  46.57055244983762 3.9597509561509816  46.45705577567814 4.4803061439561604  C 46.34355910151867 5.000693477041398  46.28681260365393 5.647389625830457  46.28681260365393 6.420416622756174  C 46.28681260365393 7.183371616079034  46.34355910151867 7.827810010823936  46.45705577567814 8.353703410967086  C 46.57055244983762 8.879462515327505  46.73636183037068 9.276381895799851  46.954475732210966 9.54449889345558  C 47.17285667463856 9.81241444743722  47.43039360154701 9.946389679277761  47.727087259068185 9.946389679277761  C 48.03039042107892 9.946389679277761  48.29109716974933 9.81241444743722  48.509211071589625 9.54449889345558  C 48.727592014017205 9.276381895799851  48.89349909305404 8.879462515327505  49.006929003336026 8.353703410967086  C 49.1204256774955 7.827810010823936  49.17717217536024 7.183371616079034  49.17717217536024 6.420416622756174  C 49.17717217536024 5.647389625830457  49.1204256774955 5.000693477041398  49.006929003336026 4.4803061439561604  C 48.89349909305404 3.9597509561509816  48.727592014017205 3.566351932205767  48.509211071589625 3.30011504549127  Z M 70 14.823760845891734  L 70 0  L 72 0  L 72 14.823760845891734  L 70 14.823760845891734  Z M 63.99298877942277 7.314320089928689  L 63.99298877942277 5.788887132469174  L 67.28974070010888 5.788887132469174  L 67.28974070010888 7.314320089928689  L 63.99298877942277 7.314320089928689  Z M 67 14.142068008571329  L 67 0.33792637088558686  L 69 0.33792637088558686  L 69 14.142068008571329  L 67 14.142068008571329  Z M 63.699062972593424 2.165753328415358  C 63.699062972593424 2.165753328415358  63.699062972593424 1.7827660097656937  63.699062972593424 1.7827660097656937  C 63.699062972593424 1.7827660097656937  65.5322064865251 1.7827660097656937  65.5322064865251 1.7827660097656937  C 65.5322064865251 3.1555814455938016  65.36323490223623 4.44655701942161  65.02528188471814 5.655702216601679  C 64.68726210332258 6.864813794810658  64.12217213695067 7.977087967948633  63.33003213116225 8.992548389363122  C 62.537892125373816 10.007941572835433  61.46135196910293 10.916879623980728  60.100393397042005 11.719350475989742  C 60.100393397042005 11.719350475989742  59.017834165333056 10.371610109951874  59.017834165333056 10.371610109951874  C 60.146658704812694 9.691279201163848  61.0534630587139 8.941346996563455  61.738248540228724 8.12182088031756  C 62.42323434322127 7.302294764071666  62.92131373107862 6.4003530609455686  63.23249491125105 5.415981662978185  C 63.54354256366853 4.431610265010803  63.699062972593424 3.3482077040410827  63.699062972593424 2.165753328415358  Z M 59.78353877954734 3.3242745986580955  L 59.78353877954734 1.7827660097656937  L 64.30954542170386 1.7827660097656937  L 64.30954542170386 3.3242745986580955  L 59.78353877954734 3.3242745986580955  Z M 88.42145521195023 7.477934977342185  L 88.42145521195023 0  L 90.33419630985769 0  L 90.33419630985769 7.477934977342185  L 88.42145521195023 7.477934977342185  Z M 83.58449233344987 1.63092352548565  C 83.58449233344987 1.63092352548565  83.58449233344987 0.6111198932096813  83.58449233344987 0.6111198932096813  C 83.58449233344987 0.6111198932096813  85.65847622385347 0.6111198932096813  85.65847622385347 0.6111198932096813  C 85.65847622385347 1.9011769487202286  85.40143535524076 3.026234075242276  84.88736221345424 3.986264797836091  C 84.37328907166768 4.9462955204299055  83.61419458869372 5.742400560229279  82.61008282348955 6.3745872413671965  C 81.60597105828538 7.006606067785177  80.3663528639421 7.489039413543807  78.89122991179501 7.821885867846981  C 78.89122991179501 7.821885867846981  78.24830636635504 6.274875294200302  78.24830636635504 6.274875294200302  C 79.49443309862664 6.013842294024111  80.50973140966443 5.655363535484892  81.29419371876887 5.199437067481645  C 82.07865602787331 4.7433427447584595  82.65649040368044 4.211447427750773  83.02769126512402 3.603769276706362  C 83.39889212656763 2.9960911256619505  83.58449233344987 2.338482438958926  83.58449233344987 1.63092352548565  Z M 79.07169592576199 2.142085572768469  L 79.07169592576199 0.6111198932096813  L 84.39264695501387 0.6111198932096813  L 84.39264695501387 2.142085572768469  L 79.07169592576199 2.142085572768469  Z M 85.09767159111954 3.3977983278884323  L 85.09767159111954 1.9318113956511047  L 88.67782086108856 1.9318113956511047  L 88.67782086108856 3.3977983278884323  L 85.09767159111954 3.3977983278884323  Z M 84.99050747969275 6.256494361892718  L 84.99050747969275 4.801326975093968  L 88.60872117309884 4.801326975093968  L 88.60872117309884 6.256494361892718  L 84.99050747969275 6.256494361892718  Z M 80.66328086655311 9.571701443777005  L 80.66328086655311 8.062712965890329  L 90.33419630985769 8.062712965890329  L 90.33419630985769 12.025955492324446  L 82.59306003436515 12.025955492324446  L 82.59306003436515 14.00418027891945  L 80.69032784747787 14.00418027891945  L 80.69032784747787 10.597744757087154  L 88.42645202707024 10.597744757087154  L 88.42645202707024 9.571701443777005  L 80.66328086655311 9.571701443777005  Z M 80.69032784747787 14.689592334984367  L 80.69032784747787 13.174671549513471  L 90.67969474980629 13.174671549513471  L 90.67969474980629 14.689592334984367  L 80.69032784747787 14.689592334984367  Z M 103 14.823760845891734  L 103 0  L 105 0  L 105 14.823760845891734  L 103 14.823760845891734  Z M 98.59909660691937 6.697636737274739  L 98.59909660691937 5.1397758808444864  L 101.14877118443486 5.1397758808444864  L 101.14877118443486 6.697636737274739  L 98.59909660691937 6.697636737274739  Z M 100 14.131309937822742  L 100 0.27322425966909053  L 102 0.27322425966909053  L 102 14.131309937822742  L 100 14.131309937822742  Z M 95.52367150641086 4.011438683387782  C 95.52367150641086 4.011438683387782  95.52367150641086 2.3865704148663367  95.52367150641086 2.3865704148663367  L 96.96073719798659 2.3865704148663367  C 96.96073719798659 2.3865704148663367  96.96073719798659 4.011438683387782  96.96073719798659 4.011438683387782  C 96.96073719798659 4.835497237275288  96.89597708741996 5.647986482635047  96.76645735873376 6.448879404222433  C 96.63627000619536 7.2498058847470315  96.438657046765 8.003261297483709  96.17360892995507 8.709242280535356  C 95.90856081314513 9.415156085678703  95.56774091831674 10.05212146342146  95.15114136631767 10.620183018934206  C 94.73454181431859 11.188244574446948  94.24115299922683 11.651456153417499  93.6709991554047 12.009818386201566  C 93.6709991554047 12.009818386201566  92.52935678711631 10.597529595672182  92.52935678711631 10.597529595672182  C 93.24238294112664 10.14596768057367  93.81755120878032 9.570923824968933  94.25484720465532 8.872396107773914  C 94.69281083930515 8.173935568487195  95.01360436142222 7.403939862110074  95.21723074061124 6.56242315663751  C 95.42152474365245 5.720906451164945  95.52367150641086 4.870581395165345  95.52367150641086 4.011438683387782  Z M 95.94227319875728 4.011438683387782  C 95.94227319875728 4.011438683387782  95.94227319875728 2.3865704148663367  95.94227319875728 2.3865704148663367  L 97.3683214478207 2.3865704148663367  C 97.3683214478207 2.3865704148663367  97.3683214478207 4.011438683387782  97.3683214478207 4.011438683387782  C 97.3683214478207 4.842211906343859  97.46679466028604 5.65956509641372  97.66374477110803 6.463479643095514  C 97.86069488193002 7.267360570806219  98.1744822260235 7.997912098946258  98.60510195353147 8.655144553342467  C 99.03572168103946 9.312309829830372  99.60220980895289 9.846964634008787  100.30455392163783 10.25911142726666  C 100.30455392163783 10.25911142726666  99.18393790688192 11.65006850036885  99.18393790688192 11.65006850036885  C 98.42150731920304 11.187763102753847  97.80261274091104 10.563282310026741  97.32726199146768 9.776658060210067  C 96.8519112420243 8.990033810393394  96.50241117761043 8.100423485828987  96.27875597839763 7.107826606245829  C 96.05443314041003 6.115061811908856  95.94227319875728 5.082933044594399  95.94227319875728 4.011438683387782  Z M 93.0380998017651 3.1084984367864545  L 93.0380998017651 1.5561395651104788  L 99.65560974880557 1.5561395651104788  L 99.65560974880557 3.1084984367864545  L 93.0380998017651 3.1084984367864545  Z M 109.06615597856371 2.8347823795974287  L 109.06615597856371 1.293273790705027  L 118.37155515987932 1.293273790705027  L 118.37155515987932 2.8347823795974287  L 109.06615597856371 2.8347823795974287  Z M 107.53395214956562 13  L 107.53395214956562 12  L 120.86213896042527 12  L 120.86213896042527 13  L 107.53395214956562 13  Z M 117.60545324538026 2.630071661924333  C 117.60545324538026 2.630071661924333  117.60545324538026 1.293273790705027  117.60545324538026 1.293273790705027  L 119.48615054724294 1.293273790705027  C 119.48615054724294 1.293273790705027  119.48615054724294 2.630071661924333  119.48615054724294 2.630071661924333  C 119.48615054724294 3.2246561842714807  119.47813694013706 3.8640409872890102  119.46211388001431 4.548266413742228  C 119.44609081989158 5.232491840195445  119.39269223613353 5.9911819668662405  119.30189489979047 6.824305336003092  C 119.21109756344742 7.657428705139943  119.05519603037617 8.606123050648558  118.83421134149471 9.670399058559033  C 118.83421134149471 9.670399058559033  116.94750869301991 9.460401517546634  116.94750869301991 9.460401517546634  C 117.27531378023248 7.976961896807048  117.46691271926804 6.682619022821381  117.5223258011821 5.577383461551973  C 117.57773888309617 4.471980045562626  117.60545324538026 3.4895501431756504  117.60545324538026 2.630071661924333  Z M 108.62752118339677 5.171742719640285  L 117.9639709100452 4.85548617697685  L 117.9639709100452 6.310868725190571  L 108.88489536402722 6.8049100713106405  L 108.62752118339677 5.171742719640285  Z M 112.38593603498634 12.056262514490461  L 112.38593603498634 7.860676397231883  L 114.2946888492659 7.860676397231883  L 114.2946888492659 12.056262514490461  L 112.38593603498634 12.056262514490461  Z M 123.8764715017602 9  L 123.8764715017602 7  L 134.1722944506684 7  L 134.1722944506684 9  L 123.8764715017602 9  Z M 122.28517689579256 13  L 122.28517689579256 12  L 135.6353985916768 12  L 135.6353985916768 13  L 122.28517689579256 13  Z M 123.8764715017602 7.564552815540802  L 123.8764715017602 1.2615221133242  L 134.05010933232126 1.2615221133242  L 134.05010933232126 2.8194137070994487  L 125.76919477762729 2.8194137070994487  L 125.76919477762729 7.564552815540802  L 123.8764715017602 7.564552815540802  Z M 137.02139591587928 8.120837285277691  L 137.02139591587928 7  L 150.37160233098336 7  L 150.37160233098336 8.120837285277691  L 137.02139591587928 8.120837285277691  Z M 138.54357555307703 10.302112972916008  L 138.54357555307703 9  L 148.76429346738342 9  L 148.76429346738342 12.412723504408614  L 140.4573404632568 12.412723504408614  L 140.4573404632568 13.8113034390698  L 138.5696140025097 13.8113034390698  L 138.5696140025097 11.184520673060034  L 146.88758444914865 11.184520673060034  L 146.88758444914865 10.302112972916008  L 138.54357555307703 10.302112972916008  Z M 138.5696140025097 15  L 138.5696140025097 14  L 149.19090228854597 14  L 149.19090228854597 15  L 138.5696140025097 15  Z M 138.6717660180363 1.6142946218428356  L 138.6717660180363 1  L 148.72123222882635 1  L 148.72123222882635 3.693153475954614  L 140.57449820492357 3.693153475954614  L 140.57449820492357 5.011601152211332  L 138.69879771818088 5.011601152211332  L 138.69879771818088 2.4701759932553484  L 146.8455317420837 2.4701759932553484  L 146.8455317420837 1.6142946218428356  L 138.6717660180363 1.6142946218428356  Z M 138.69879771818088 6  L 138.69879771818088 5  L 148.988615320477 5  L 148.988615320477 6  L 138.69879771818088 6  Z M 165.57348784638165 8.6609846488917  L 165.57348784638165 0.010850282783573962  L 167.4762200332689 0.010850282783573962  L 167.4762200332689 8.6609846488917  L 165.57348784638165 8.6609846488917  Z M 166.95546632539592 5.005545895247129  L 166.95546632539592 3.4209742860153862  L 169.493114928907 3.4209742860153862  L 169.493114928907 5.005545895247129  L 166.95546632539592 5.005545895247129  Z M 156.39927416294128 7.878104471844591  L 156.39927416294128 0.8546211402676783  L 158.28599209219624 0.8546211402676783  L 158.28599209219624 2.8340139459725298  L 161.52866533181302 2.8340139459725298  L 161.52866533181302 0.8546211402676783  L 163.40936263367567 0.8546211402676783  L 163.40936263367567 7.878104471844591  L 156.39927416294128 7.878104471844591  Z M 161.52866533181302 4.321670706432009  L 158.28599209219624 4.321670706432009  L 158.28599209219624 6.369054519267924  L 161.52866533181302 6.369054519267924  L 161.52866533181302 4.321670706432009  Z M 158.0015862114212 14.204833667053078  L 158.0015862114212 9.35816910809007  L 167.5773635173034 9.35816910809007  L 167.5773635173034 10.872690308076018  L 159.90431839830848 10.872690308076018  L 159.90431839830848 14.204833667053078  L 158.0015862114212 14.204833667053078  Z M 158.0015862114212 14.652031299399304  L 158.0015862114212 13.121372993290477  L 167.8597676158744 13.121372993290477  L 167.8597676158744 14.652031299399304  L 158.0015862114212 14.652031299399304  Z M 172.0498033845267 2.8667492183932275  L 172.0498033845267 1.3252406295008257  L 181.42329372233993 1.3252406295008257  L 181.42329372233993 2.8667492183932275  L 172.0498033845267 2.8667492183932275  Z M 170.67181318914035 13  L 170.67181318914035 12  L 184 12  L 184 13  L 170.67181318914035 13  Z M 175.51277963204876 12.180041802789194  L 175.51277963204876 6.258523026662452  L 177.42153244632834 6.258523026662452  L 177.42153244632834 12.180041802789194  L 175.51277963204876 12.180041802789194  Z M 180.73229684244268 2.7539431622580532  C 180.73229684244268 2.7539431622580532  180.73229684244268 1.3252406295008257  180.73229684244268 1.3252406295008257  L 182.64104965672226 1.3252406295008257  C 182.64104965672226 1.3252406295008257  182.64104965672226 2.7539431622580532  182.64104965672226 2.7539431622580532  C 182.64104965672226 3.3701825043581164  182.63370257572205 4.0222722167196885  182.61901477169766 4.710190747180946  C 182.60499459432344 5.397941362888388  182.5585869040781 6.157442547236713  182.47980686422613 6.988719394386482  C 182.4016944482263 7.819996241536253  182.2645015220311 8.755255365587786  182.06821904998392 9.794485720307726  C 182.06821904998392 9.794485720307726  180.1604747671965 9.57904766923104  180.1604747671965 9.57904766923104  C 180.44888982329107 8.117061394553343  180.61646323111577 6.837048486926749  180.66319715445297 5.7390311588857275  C 180.70926345020735 4.641013830844706  180.73229684244268 3.6459878004987134  180.73229684244268 2.7539431622580532  Z M 17 34.96778726244423  L 17 20.143995679207507  L 18 20.143995679207507  L 18 34.96778726244423  L 17 34.96778726244423  Z M 14.163678748171913 27.496368602241194  L 14.163678748171913 25.949511715319492  L 16.724668743413275 25.949511715319492  L 16.724668743413275 27.496368602241194  L 14.163678748171913 27.496368602241194  Z M 13 34.25369726349808  L 13 20.422967822390838  L 15 20.422967822390838  L 15 34.25369726349808  L 13 34.25369726349808  Z M 6.090865498406729 30.388844978396037  L 6.090865498406729 21.829846840200936  L 7.993803975826469 21.829846840200936  L 7.993803975826469 30.388844978396037  L 6.090865498406729 30.388844978396037  Z M 6.090865498406729 31.300022833456282  L 6.090865498406729 29.656005199002355  C 6.090865498406729 29.656005199002355  7.090503576449993 29.656005199002355  7.090503576449993 29.656005199002355  C 7.816548477652274 29.656005199002355  8.593499328247768 29.62918508698977  9.421357381737973 29.57553482980293  C 10.249215435228178 29.52175028058548  11.127646543927675 29.403632445778776  12.056650170621538 29.221194716689503  C 12.056650170621538 29.221194716689503  12.238713026117678 30.865150876453438  12.238713026117678 30.865150876453438  C 11.270452896060798 31.0477900492168  10.358975249807536 31.166013813799374  9.504278535403657 31.219798363016825  C 8.649715348754741 31.27331432817306  7.845122879999368 31.300022833456282  7.090503576449993 31.300022833456282  C 7.090503576449993 31.300022833456282  6.090865498406729 31.300022833456282  6.090865498406729 31.300022833456282  Z M 30.07557807440577 25.643798081989672  L 30.07557807440577 24.118211437805176  L 33.13428600139354 24.118211437805176  L 33.13428600139354 25.643798081989672  L 30.07557807440577 25.643798081989672  Z M 29.98494776713752 29.356131661221767  L 29.98494776713752 27.819879158323673  L 33.09122476283648 27.819879158323673  L 33.09122476283648 29.356131661221767  L 29.98494776713752 29.356131661221767  Z M 36 34.96778726244423  L 36 20.143995679207507  L 37 20.143995679207507  L 37 34.96778726244423  L 36 34.96778726244423  Z M 33 34.28609442512383  L 33 20.481891312748093  L 34 20.481891312748093  L 34 34.28609442512383  L 33 34.28609442512383  Z M 28.884166205059763 22.30977974496786  C 28.884166205059763 22.30977974496786  28.884166205059763 21.9267309516282  28.884166205059763 21.9267309516282  C 28.884166205059763 21.9267309516282  30.706788901835104 21.9267309516282  30.706788901835104 21.9267309516282  C 30.706788901835104 23.29954638745631  30.53954876126023 24.588760327199036  30.20506740568063 25.79438033512488  C 29.870719577855994 26.99986598723412  29.30924563501192 28.110331339659737  28.520644084884733 29.12572452313205  C 27.731975741034788 30.141184944546534  26.660832983148786 31.053721306208175  25.307218258539173 31.86337689254224  C 25.307218258539173 31.86337689254224  24.224659026830224 30.51566726384937  24.224659026830224 30.51566726384937  C 25.346139599477464 29.83533635506134  26.249278118088874 29.085373413115956  26.934063599603697 28.26584729687006  C 27.61904940259624 27.446321180624164  28.115259461574652 26.54437947749807  28.422701924298682 25.560008079530682  C 28.73034467865516 24.5756366815633  28.884166205059763 23.492234120593583  28.884166205059763 22.30977974496786  Z M 25.011596285109462 23.468270277865596  L 25.011596285109462 21.9267309516282  L 29.53761056765607 21.9267309516282  L 29.53761056765607 23.468270277865596  L 25.011596285109462 23.468270277865596  Z M 42.58037532585848 22.743883268345805  C 42.58037532585848 22.743883268345805  42.58037532585848 21.911731127270173  42.58037532585848 21.911731127270173  L 44.13461403988117 21.911731127270173  C 44.13461403988117 21.911731127270173  44.13461403988117 22.743883268345805  44.13461403988117 22.743883268345805  C 44.13461403988117 23.61813398552765  43.97811873508775 24.44050726842155  43.66513498991385 25.211016264446553  C 43.352217978772174 25.981390964688828  42.8894854529464 26.649728305540734  42.27693723336492 27.216044015878033  C 41.664522541538396 27.782292608340907  40.905598475077795 28.205170937373758  40.000162109146295 28.484635718551303  C 40.000162109146295 28.484635718551303  39.06752261181752 26.99123107457758  39.06752261181752 26.99123107457758  C 39.85165107168928 26.751315726031866  40.503421771021664 26.413823174949556  41.02283596331616 25.978712193065657  C 41.54245041739784 25.543601211181752  41.93194574523701 25.046890969011265  42.191319021996854 24.4885657076615  C 42.45069229875669 23.93010615052901  42.58037532585848 23.348539794295807  42.58037532585848 22.743883268345805  Z M 42.96643659680416 22.743883268345805  C 42.96643659680416 22.743883268345805  42.96643659680416 21.911731127270173  42.96643659680416 21.911731127270173  L 44.51015449367052 21.911731127270173  C 44.51015449367052 21.911731127270173  44.51015449367052 22.743883268345805  44.51015449367052 22.743883268345805  C 44.51015449367052 23.302007116038414  44.636236748179385 23.843259583259236  44.88839964555234 24.367675729792392  C 45.140762834557734 24.891957580542822  45.5231466604021 25.359060345298392  46.03555073509688 25.76899128815822  C 46.547954809791655 26.178922231018042  47.18196685492892 26.498567340840246  47.937587646485795 26.72787350265219  C 47.937587646485795 26.72787350265219  47.04250066645795 28.210274177117363  47.04250066645795 28.210274177117363  C 46.15475639976099 27.941687144222094  45.408178368020984 27.537690520081366  44.802773793794174 26.998300663926653  C 44.19743595359958 26.45877651198921  43.74004325462555 25.82262219192398  43.43059793526763 25.089849650472477  C 43.1211526159097 24.357144286929273  42.96643659680416 23.575160115495574  42.96643659680416 22.743883268345805  Z M 39.57575372033016 22.930704851231248  L 39.57575372033016 21.367526434116698  L 47.52549556649756 21.367526434116698  L 47.52549556649756 22.930704851231248  L 39.57575372033016 22.930704851231248  Z M 42.60190594513701 31.104164471142024  L 42.60190594513701 27.844837882460393  L 44.50464577241437 27.844837882460393  L 44.50464577241437 31.104164471142024  L 42.60190594513701 31.104164471142024  Z M 50.09018351054332 27.67412266835283  L 50.09018351054332 26.07842414023255  L 52.722672276263225 26.07842414023255  L 52.722672276263225 27.67412266835283  L 50.09018351054332 27.67412266835283  Z M 49 34.96778726244423  L 49 20.143995679207507  L 51 20.143995679207507  L 51 34.96778726244423  L 49 34.96778726244423  Z M 41.916119811282364 32.061018020866264  C 40.930034054235975 32.073440170649896  40.022164761275185 32.079644851933814  39.19250411293825 32.079644851933814  C 39.19250411293825 32.079644851933814  38.96236792298487 30.521814732848565  38.96236792298487 30.521814732848565  C 39.8097874642791 30.521814732848565  40.742567115013614 30.51734376895891  41.76069899603613 30.508413250430323  C 42.778964464504156 30.499482731901736  43.819458573514254 30.466402136178584  44.88218800840775 30.409193100783362  C 45.94505091136566 30.351984065388145  46.97136230750577 30.255379269077597  47.961120047968365 30.11933993747146  C 47.961120047968365 30.11933993747146  48.10582903630597 31.510081849158674  48.10582903630597 31.510081849158674  C 47.073142809064166 31.70366594811262  46.02987726792938 31.840709946649437  44.97602727951454 31.92128605051463  C 43.922377612577414 32.001795006488464  42.902405889806474 32.04839443116066  41.916119811282364 32.061018020866264  Z M 53.86912044991932 33  L 53.86912044991932 31.724567042540485  L 67.2188378800575 31.724567042540485  L 67.2188378800575 33  L 53.86912044991932 33  Z M 59.571028969535604 32.360461235816906  L 59.571028969535604 28.815584712122806  L 61.46875670091278 28.815584712122806  L 61.46875670091278 32.360461235816906  L 59.571028969535604 32.360461235816906  Z M 55.411845096073755 22.6731566375101  L 55.411845096073755 21  L 65.67631952443554 21  L 65.67631952443554 25.960085361998104  L 57.325296750259724 25.960085361998104  L 57.325296750259724 28.57810798468402  L 55.43857882100477 28.57810798468402  L 55.43857882100477 24.45610707134577  L 63.78940294503819 24.45610707134577  L 63.78940294503819 22.6731566375101  L 55.411845096073755 22.6731566375101  Z M 55.43857882100477 29  L 55.43857882100477 27.818157867003897  L 66.0128023040759 27.818157867003897  L 66.0128023040759 29  L 55.43857882100477 29  Z M 78.47453831697155 29.810429620262056  L 78.47453831697155 27.645936522991533  L 80.37186110767385 27.645936522991533  L 80.37186110767385 29.810429620262056  L 78.47453831697155 29.810429620262056  Z M 72.79406109156261 28  L 72.79406109156261 26  L 86.06907078738372 26  L 86.06907078738372 28  L 72.79406109156261 28  Z M 78.4692206054677 21.90155706607651  L 78.4692206054677 20.112551375276635  L 80.36686429255386 20.112551375276635  L 80.36686429255386 21.90155706607651  L 78.4692206054677 21.90155706607651  Z M 78.36187312467871 22.28863245161064  C 78.36187312467871 22.28863245161064  78.36187312467871 22.008922612147398  78.36187312467871 22.008922612147398  L 80.03948885790287 22.008922612147398  C 80.03948885790287 22.008922612147398  80.03948885790287 22.28863245161064  80.03948885790287 22.28863245161064  C 80.03948885790287 22.83634852622664  79.89905335462953 23.328693735221375  79.61818246746398 23.76568482804651  C 79.33724481642093 24.202474477197555  78.9315594721321 24.582120550391956  78.40112944897008 24.90462640952682  C 77.87089968759524 25.226930824987598  77.22624052010295 25.485671701725078  76.46714806660759 25.6808673200548  C 75.7081891408672 25.87606293838452  74.84701301752224 26.004145616323733  73.88362656098568 26.0651148698493  C 73.88362656098568 26.0651148698493  73.3478518461923 24.641945059191343  73.3478518461923 24.641945059191343  C 74.20041211651677 24.60266420686861  74.93924470280129 24.514103743702275  75.56434429258708 24.376251449046265  C 76.18937714834067 24.23846630228162  76.70986362163211 24.064157805494904  77.12579553485638 23.853316998629992  C 77.54172744808064 23.64227474809099  77.85167081044504 23.402833652164677  78.05563100902148 23.1349852460744  C 78.25979148430773 22.866868248418672  78.36187312467871 22.584749639693822  78.36187312467871 22.28863245161064  Z M 78.80169982069997 22.28863245161064  C 78.80169982069997 22.28863245161064  78.80169982069997 22.008922612147398  78.80169982069997 22.008922612147398  L 80.47401312320046 22.008922612147398  C 80.47401312320046 22.008922612147398  80.47401312320046 22.28863245161064  80.47401312320046 22.28863245161064  C 80.47401312320046 22.584749639693822  80.57615988595887 22.866868248418672  80.78045388900007 23.1349852460744  C 80.98408026818912 23.402833652164677  81.29385318419486 23.64227474809099  81.70978509741913 23.853316998629992  C 82.1257170106434 24.064157805494904  82.64813793520119 24.23846630228162  83.27704303615815 24.376251449046265  C 83.90528049834029 24.514103743702275  84.64234904987181 24.60266420686861  85.48823305182925 24.641945059191343  C 85.48823305182925 24.641945059191343  84.95245833703588 26.0651148698493  84.95245833703588 26.0651148698493  C 83.98907188049931 26.004145616323733  83.12783063476694 25.87606293838452  82.36873818127158 25.6808673200548  C 81.60964572777623 25.485671701725078  80.96571818732575 25.226930824987598  80.4369572312555 24.90462640952682  C 79.90859685845014 24.582120550391956  79.5039840637657 24.202474477197555  79.22311317660014 23.76568482804651  C 78.9421755255571 23.328693735221375  78.80169982069997 22.83634852622664  78.80169982069997 22.28863245161064  Z M 74.06438290977613 22.747602487090315  L 74.06438290977613 21  L 84.78721198013167 21  L 84.78721198013167 22.747602487090315  L 74.06438290977613 22.747602487090315  Z M 74.31023538214822 30.344214353461904  L 74.31023538214822 29  L 84.4457323853713 29  L 84.4457323853713 32.50849228931746  L 76.21298284981567 32.50849228931746  L 76.21298284981567 34.02052376435873  L 74.33677809732694 34.02052376435873  L 74.33677809732694 31.209900937928126  L 82.57003189862864 31.209900937928126  L 82.57003189862864 30.344214353461904  L 74.31023538214822 30.344214353461904  Z M 74.33677809732694 34.86069835247831  L 74.33677809732694 33  L 84.85131485300138 33  L 84.85131485300138 34.86069835247831  L 74.33677809732694 34.86069835247831  Z M 89.16952580583278 22.372514666104614  L 89.16952580583278 20.84157972389082  L 98.54301614364597 20.84157972389082  L 98.54301614364597 22.372514666104614  L 89.16952580583278 22.372514666104614  Z M 87.5141436077756 27.73879404222433  L 87.5141436077756 26  L 100.86335677216773 26  L 100.86335677216773 27.73879404222433  L 87.5141436077756 27.73879404222433  Z M 97.37533532592492 22.002867355183195  C 97.37533532592492 22.002867355183195  97.37533532592492 20.84157972389082  97.37533532592492 20.84157972389082  L 99.25202906337952 20.84157972389082  C 99.25202906337952 20.84157972389082  99.25202906337952 22.002867355183195  99.25202906337952 22.002867355183195  C 99.25202906337952 22.63686699937098  99.23400226432199 23.31998299977825  99.19795038231017 24.05221835809885  C 99.16256612788118 24.78445371641945  99.0310463293635 25.640986275295187  98.8033853571924 26.621798925071136  C 98.8033853571924 26.621798925071136  96.9106620813253 26.58485263638599  96.9106620813253 26.58485263638599  C 97.14232881153212 25.607330203269903  97.2775221566122 24.756054570862755  97.31624454895538 24.03107106474163  C 97.35563456888138 23.30588608492948  97.37533532592492 22.629816620862535  97.37533532592492 22.002867355183195  Z M 89.09941758635094 34.806907998735376  L 89.09941758635094 29  L 99.21899201662283 29  L 99.21899201662283 34.806907998735376  L 89.09941758635094 34.806907998735376  Z M 97.35330044090034 33.286946288685144  L 97.35330044090034 30.920355148066182  L 90.96510916207345 30.920355148066182  L 90.96510916207345 33.286946288685144  L 97.35330044090034 33.286946288685144  Z M 111.8972414039383 28.180735588576248  L 111.8972414039383 20.128473319984543  L 113.80096684153749 20.128473319984543  L 113.80096684153749 28.180735588576248  L 111.8972414039383 28.180735588576248  Z M 113.03987702293861 24.96545561527383  L 113.03987702293861 23.39705184950996  L 115.82288911385594 23.39705184950996  L 115.82288911385594 24.96545561527383  L 113.03987702293861 24.96545561527383  Z M 104.17612295048612 30.21456423226894  L 104.17612295048612 28.81859697193241  L 113.80096684153749 28.81859697193241  L 113.80096684153749 32.459865809533845  L 106.08487576476568 32.459865809533845  L 106.08487576476568 33.92277900727158  L 104.20315465063071 33.92277900727158  L 104.20315465063071 31.134041170478095  L 111.92427310408289 31.134041170478095  L 111.92427310408289 30.21456423226894  L 104.17612295048612 30.21456423226894  Z M 104.20315465063071 34.86069835247831  L 104.20315465063071 33  L 114.25862620803287 33  L 114.25862620803287 34.86069835247831  L 104.20315465063071 34.86069835247831  Z M 102.26037153888254 22.75242825025468  L 102.26037153888254 21.307803772789544  L 110.94086321459447 21.307803772789544  L 110.94086321459447 22.75242825025468  L 102.26037153888254 22.75242825025468  Z M 103.98485342492943 23.84323514947132  C 104.64046359935455 23.407922723913327  105.51305106313536 23.190281729722134  106.60261915894253 23.190281729722134  C 107.6901842787347 23.190281729722134  108.56143879289725 23.407922723913327  109.21638132854758 23.84323514947132  C 109.87132386419788 24.278480427137946  110.19878268654386 24.872824063553853  110.19878268654386 25.626277795341977  C 110.19878268654386 26.368719453048158  109.87132386419788 26.9560975088068  109.21638132854758 27.388388309270383  C 108.56143879289725 27.820410518168515  107.6901842787347 28.036423753820213  106.60261915894253 28.036423753820213  C 105.51305106313536 28.036423753820213  104.64046359935455 27.820410518168515  103.98485342492943 27.388388309270383  C 103.3292432505043 26.9560975088068  103.00142825466085 26.368719453048158  103.00142825466085 25.626277795341977  C 103.00142825466085 24.872824063553853  103.3292432505043 24.278480427137946  103.98485342492943 23.84323514947132  Z M 107.89748191013075 24.82928917694172  C 107.5816941119479 24.64564280081638  107.15007370225483 24.55382109108793  106.60261915894253 24.55382109108793  C 106.0598380273634 24.55382109108793  105.62854322960742 24.64564280081638  105.30874965846625 24.82928917694172  C 104.98895608732509 25.012935553067063  104.82905540694627 25.27788109608  104.82905540694627 25.624156918537256  C 104.82905540694627 25.966941110677496  104.98895608732509 26.228369088738578  105.30874965846625 26.408389538764183  C 105.62854322960742 26.588342840898424  106.0598380273634 26.67829416517371  106.60261915894253 26.67829416517371  C 107.15007370225483 26.67829416517371  107.5816941119479 26.588342840898424  107.89748191013075 26.408389538764183  C 108.21326970831358 26.228369088738578  108.37115553425843 25.966941110677496  108.37115553425843 25.624156918537256  C 108.37115553425843 25.27788109608  108.21326970831358 25.012935553067063  107.89748191013075 24.82928917694172  Z M 105.64923600251468 22.326900446130608  L 105.64923600251468 20.026456071942953  L 107.55198347018214 20.026456071942953  L 107.55198347018214 22.326900446130608  L 105.64923600251468 22.326900446130608  Z M 126.82271288659751 21.340354621140268  C 126.82271288659751 21.340354621140268  126.82271288659751 20.600045666912564  126.82271288659751 20.600045666912564  L 128.4901057778789 20.600045666912564  C 128.4901057778789 20.600045666912564  128.4901057778789 21.340354621140268  128.4901057778789 21.340354621140268  C 128.4901057778789 21.906401739912113  128.39764658207773 22.4491817691318  128.2127137752081 22.968696209646257  C 128.02778096833848 23.48827776803514  127.76006038633176 23.971207233752843  127.40955596876408 24.41753170337584  C 127.05905155119642 24.86378902510747  126.6371186786153 25.26441846915809  126.14374198070469 25.619423367407876  C 125.65103289172364 25.974428265657657  125.09356582611304 26.27298407484777  124.4713369935231 26.515048125900165  C 123.84910816093318 26.756977881169835  123.17413365658273 26.935333614300454  122.44641968828869 27.05015456493484  C 122.44641968828869 27.05015456493484  121.70134412732212 25.513686900621774  121.70134412732212 25.513686900621774  C 122.34026363082964 25.427537611824246  122.92510421450561 25.285911047358564  123.45586802720975 25.088835318087607  C 123.9866318399139 24.891826736708023  124.4609864436538 24.656251732406165  124.87892124335721 24.382091544595497  C 125.29752368183546 24.10793135678483  125.65069725177452 23.804355499796092  125.93844469893956 23.471374749710193  C 126.22619214610461 23.138259703841562  126.44550543996293 22.791008480968646  126.59638925129991 22.42962465310711  C 126.74727306263688 22.06817367735421  126.82271288659751 21.70509578353609  126.82271288659751 21.340354621140268  Z M 127.17722698685436 21.340354621140268  C 127.17722698685436 21.340354621140268  127.17722698685436 20.600045666912564  127.17722698685436 20.600045666912564  L 128.83861453152366 20.600045666912564  C 128.83861453152366 20.600045666912564  128.83861453152366 21.340354621140268  128.83861453152366 21.340354621140268  C 128.83861453152366 21.70160415321908  128.91472088998398 22.062106533682368  129.0669399490253 22.421878842168123  C 129.21982664684145 22.781449706979792  129.44115479513374 23.12772814091069  129.73090512877795 23.460708890996592  C 130.02065546242216 23.79382393686522  130.3734881396439 24.098372582795978  130.78942005286817 24.374345733656515  C 131.20601960486727 24.650117440842962  131.67970767410745 24.887481964965737  132.2104714868116 25.086437805177926  C 132.74123529951575 25.285125053824657  133.32440192147507 25.427537611824246  133.95998329079904 25.513686900621774  C 133.95998329079904 25.513686900621774  133.21490772983248 27.05015456493484  133.21490772983248 27.05015456493484  C 132.49053189572197 26.935333614300454  131.81823875045987 26.756055220515066  131.1980128341944 26.512312502195524  C 130.5777869179289 26.268368340201892  130.01997889991048 25.96805374853586  129.5245993155207 25.611370183018938  C 129.02988736990574 25.25461946961065  128.60728796282493 24.853148230537496  128.25678354525726 24.406958056697228  C 127.9062791276896 23.960633587074234  127.63855854568288 23.478571010539618  127.45362573881326 22.960735237292305  C 127.26936055579583 22.442832346170565  127.17722698685436 21.902708695937953  127.17722698685436 21.340354621140268  Z M 126.82871823320961 34.97854533319282  L 126.82871823320961 29.48375311764499  L 128.72544507348476 29.48375311764499  L 128.72544507348476 34.97854533319282  L 126.82871823320961 34.97854533319282  Z M 121.15855553442452 29.844671022587555  L 121.15855553442452 28  L 134.48674234528417 28  L 134.48674234528417 29.844671022587555  L 121.15855553442452 29.844671022587555  Z M 143.47268153608383 29.763278533038257  C 143.47268153608383 29.763278533038257  143.47268153608383 29.18572382056416  143.47268153608383 29.18572382056416  L 144.91375079206762 29.18572382056416  C 144.91375079206762 29.18572382056416  144.91375079206762 29.763278533038257  144.91375079206762 29.763278533038257  C 144.91375079206762 30.48060729961172  144.79357723025166 31.169061092119826  144.55323134519864 31.828643692696808  C 144.3135530839978 32.48815911536549  143.95069191725625 33.07321794238998  143.4646591264875 33.58386904134612  C 142.97862633571873 34.09431866661123  142.35773218377298 34.48753371674054  141.60197786446113 34.76350686760108  C 141.60197786446113 34.76350686760108  140.66963634234594 33.36206835985527  140.66963634234594 33.36206835985527  C 141.31055870248736 33.13645525702595  141.83766061947784 32.83212417386524  142.2509220372934 32.44898478940528  C 142.66351581633415 32.06591255283667  142.9702817165465 31.640770856592173  143.1712375854042 31.17363087083289  C 143.3721934542619 30.706289471416465  143.47268153608383 30.236193117387018  143.47268153608383 29.763278533038257  Z M 143.9393412821073 29.763278533038257  C 143.9393412821073 29.763278533038257  143.9393412821073 29.18572382056416  143.9393412821073 29.18572382056416  L 145.31132613088155 29.18572382056416  C 145.31132613088155 29.18572382056416  145.31132613088155 29.763278533038257  145.31132613088155 29.763278533038257  C 145.31132613088155 30.243042082238315  145.40011177638965 30.722866355704905  145.57770069104006 31.202831348579057  C 145.75528960569045 31.68259489777912  146.03203120523207 32.12124976946991  146.40790547840885 32.518758562546104  C 146.78311211281078 32.916267355622296  147.2681311491645 33.2385939085752  147.8629872098209 33.48569396142902  C 147.8629872098209 33.48569396142902  147.09188848020185 34.90883303474198  147.09188848020185 34.90883303474198  C 146.3327960267065 34.61486454916548  145.72157416093776 34.19998609443885  145.2582407005241 33.664154986475566  C 144.79557484904 33.12832387851229  144.46010245129875 32.51991235362712  144.2518026752992 31.838909965925456  C 144.04350289929968 31.157840460349373  143.9393412821073 30.46596929943004  143.9393412821073 29.763278533038257  Z M 148.86143338700984 29.763278533038257  C 148.86143338700984 29.763278533038257  148.86143338700984 29.18572382056416  148.86143338700984 29.18572382056416  L 150.23340295500392 29.18572382056416  C 150.23340295500392 29.18572382056416  150.23340295500392 29.763278533038257  150.23340295500392 29.763278533038257  C 150.23340295500392 30.416146404512794  150.12659051043826 31.08129768748134  149.91294971377604 31.758808444865984  C 149.6999765558886 32.43611778859348  149.3644888475219 33.05336527958909  148.90649640777093 33.61054905680261  C 148.44850396802 34.167867129798864  147.84363702655534 34.60062943633198  147.09188848020185 34.90883303474198  C 147.09188848020185 34.90883303474198  146.30975702729032 33.48569396142902  146.30975702729032 33.48569396142902  C 146.9046130879467 33.21354815032537  147.3896474050806 32.86892827231284  147.76485403948254 32.4518126251449  C 148.1407283126593 32.034629830085606  148.41745463142072 31.590612072133414  148.59504354607114 31.119779042399973  C 148.77263246072152 30.648878864775167  148.86143338700984 30.196710847655012  148.86143338700984 29.763278533038257  Z M 149.29105252186852 29.763278533038257  C 149.29105252186852 29.763278533038257  149.29105252186852 29.18572382056416  149.29105252186852 29.18572382056416  L 150.73313030934443 29.18572382056416  C 150.73313030934443 29.18572382056416  150.73313030934443 29.763278533038257  150.73313030934443 29.763278533038257  C 150.73313030934443 30.268423564936484  150.83326220274625 30.757351495570806  151.03355044775176 31.230064636245476  C 151.23450631660947 31.702576363263  151.54128749760199 32.12413334666429  151.95388127664276 32.49478343344926  C 152.36714269445832 32.865299224451505  152.89422933066862 33.154383443850556  153.53515169081 33.36206835985527  C 153.53515169081 33.36206835985527  152.60281016869484 34.76350686760108  152.60281016869484 34.76350686760108  C 151.847055849383 34.494785568940024  151.22349558928377 34.112251836247616  150.73212177785234 33.615835880141915  C 150.24074796642088 33.11968851560167  149.87788679967935 32.54003702992445  149.64354955914118 31.876962799030455  C 149.40854469475084 31.21368715447931  149.29105252186852 30.509144703187022  149.29105252186852 29.763278533038257  Z M 150.3455638815507 28.568026135525347  L 150.3455638815507 20.160102047985387  L 152.25931351095025 20.160102047985387  L 152.25931351095025 28.568026135525347  L 150.3455638815507 28.568026135525347  Z M 142.23590103037304 21.389903221273755  C 142.83409522521296 21.088951475063233  143.51106936290773 20.938463835318085  144.26682368221955 20.938463835318085  C 145.0252484969401 20.938463835318085  145.70288913928928 21.088951475063233  146.29974811627014 21.389903221273755  C 146.89660709325096 21.690922115375642  147.36761374371227 22.106567172693932  147.71277714061722 22.636825095724873  C 148.058608176297 23.16694872297309  148.23152906628619 23.777723901661354  148.23152906628619 24.469201180314048  C 148.23152906628619 25.15691823708428  148.058608176297 25.765017645843212  147.71277714061722 26.293462605824285  C 147.36761374371227 26.82190756580536  146.89660709325096 27.23662996246888  146.29974811627014 27.53764885657077  C 145.70288913928928 27.838667750672652  145.0252484969401 27.989180454561424  144.26682368221955 27.989180454561424  C 143.51106936290773 27.989180454561424  142.83409522521296 27.838667750672652  142.23590103037304 27.53764885657077  C 141.6370391967583 27.23662996246888  141.16502508923477 26.82190756580536  140.8198616923298 26.293462605824285  C 140.47403065665 25.765017645843212  140.30110976666083 25.15691823708428  140.30110976666083 24.469201180314048  C 140.30110976666083 23.777723901661354  140.47403065665 23.16694872297309  140.8198616923298 22.636825095724873  C 141.16502508923477 22.106567172693932  141.6370391967583 21.690922115375642  142.23590103037304 21.389903221273755  Z M 145.35137705574246 22.764323602768116  C 145.03692450526398 22.607133045585815  144.67541168830198 22.528537429304105  144.26682368221955 22.528537429304105  C 143.86891771746252 22.528537429304105  143.51073751330838 22.607133045585815  143.19227921971685 22.764323602768116  C 142.87448853505487 22.921379864167694  142.62412823252865 23.143784561502958  142.44119831213817 23.43150841325043  C 142.2582683917477 23.719299412889267  142.16680134238334 24.06517916184337  142.16680134238334 24.469201180314048  C 142.16680134238334 24.86603849447661  142.2582683917477 25.210084268523918  142.44119831213817 25.5012997505884  C 142.62412823252865 25.792582380544246  142.87448853505487 26.01592912947654  143.19227921971685 26.171373871500336  C 143.51073751330838 26.326617169850042  143.86891771746252 26.40423999718973  144.26682368221955 26.40423999718973  C 144.67541168830198 26.40423999718973  145.03692450526398 26.326617169850042  145.35137705574246 26.171373871500336  C 145.66582960622094 26.01592912947654  145.9145159470305 25.792582380544246  146.09744586742096 25.5012997505884  C 146.28037578781144 25.210084268523918  146.3718428371758 24.86603849447661  146.3718428371758 24.469201180314048  C 146.3718428371758 24.06517916184337  146.28037578781144 23.719299412889267  146.09744586742096 23.43150841325043  C 145.9145159470305 23.143784561502958  145.66582960622094 22.921379864167694  145.35137705574246 22.764323602768116  Z M 156.85994384313284 21.846475743843747  C 157.43009768695495 21.416535059544  158.0783653271208 21.20154477113851  158.80474401786523 21.20154477113851  C 159.53512848156797 21.20154477113851  160.18438823832534 21.416535059544  160.75253922551357 21.846475743843747  C 161.3206902127018 22.2764164281435  161.76599736650493 22.884591029333308  162.08846143305482 23.67101380545895  C 162.4109254996047 24.457302285801873  162.57215924898287 25.38603902929269  162.57215924898287 26.45723117996276  C 162.57215924898287 27.53574230070674  162.4109254996047 28.470003661723442  162.08846143305482 29.259985246074404  C 161.76599736650493 30.049966830425358  161.3206902127018 30.65990585727553  160.75253922551357 31.089779393683912  C 160.18438823832534 31.519518634309573  159.53512848156797 31.7343415182492  158.80474401786523 31.7343415182492  C 158.0783653271208 31.7343415182492  157.43009768695495 31.519518634309573  156.85994384313284 31.089779393683912  C 156.2897899993107 30.65990585727553  155.8434753884453 30.049966830425358  155.52101132189546 29.259985246074404  C 155.19854725534557 28.470003661723442  155.0373135059674 27.53574230070674  155.0373135059674 26.45723117996276  C 155.0373135059674 25.38603902929269  155.19854725534557 24.457302285801873  155.52101132189546 23.67101380545895  C 155.8434753884453 22.884591029333308  156.2897899993107 22.2764164281435  156.85994384313284 21.846475743843747  Z M 159.83321692811472 23.34790283486142  C 159.54213134676615 23.07448124383881  159.19931184843875 22.93777444058032  158.80474401786523 22.93777444058032  C 158.41752009443354 22.93777444058032  158.07736670425962 23.07448124383881  157.78427823643187 23.34790283486142  C 157.49118976860413 23.621257277992665  157.26318105422538 24.019941144159247  157.1002799538587 24.543954403344223  C 156.9367112296398 25.067900544654776  156.85493174723265 25.705657529098936  156.85493174723265 26.45723117996276  C 156.85493174723265 27.208871948701017  156.9367112296398 27.84933550045338  157.1002799538587 28.378653353005234  C 157.26318105422538 28.907904087682667  157.49118976860413 29.311139752416175  157.78427823643187 29.588321565321248  C 158.07736670425962 29.865301934552235  158.41752009443354 30.003767520286647  158.80474401786523 30.003767520286647  C 159.19931184843875 30.003767520286647  159.54213134676615 29.865301934552235  159.83321692811472 29.588321565321248  C 160.1249701482381 29.311139752416175  160.35229704733698 28.907904087682667  160.51519814770367 28.378653353005234  C 160.67876687192256 27.84933550045338  160.76056163510992 27.208871948701017  160.76056163510992 26.45723117996276  C 160.76056163510992 25.705657529098936  160.67876687192256 25.067900544654776  160.51519814770367 24.543954403344223  C 160.35229704733698 24.019941144159247  160.1249701482381 23.621257277992665  159.83321692811472 23.34790283486142  Z M 165 35  L 165 20.133206871113924  L 167 20.133206871113924  L 167 35  L 165 35  Z M 161.99934392302472 27.109785014227  L 161.99934392302472 25.568061263919628  L 166.01410914297244 25.568061263919628  L 166.01410914297244 27.109785014227  L 161.99934392302472 27.109785014227  Z M 172.57055709239972 31.93960550813222  L 172.57055709239972 27.702831348579057  L 174.4682771833868 27.702831348579057  L 174.4682771833868 31.93960550813222  L 172.57055709239972 31.93960550813222  Z M 177.94327940491328 31.93960550813222  L 177.94327940491328 27.702831348579057  L 179.84702012329265 27.702831348579057  L 179.84702012329265 31.93960550813222  L 177.94327940491328 31.93960550813222  Z M 169.5441985770604 33  L 169.5441985770604 31  L 182.89440499216445 31  L 182.89440499216445 33  L 169.5441985770604 33  Z M 173.38772737427198 21.421408999894613  C 174.21224729357866 21.095277214660012  175.14993583525657 20.932224154283904  176.20078147903004 20.932224154283904  C 177.25496525698702 20.932224154283904  178.19330502253914 21.095277214660012  179.01582208521194 21.421408999894613  C 179.83900678665952 21.747406489346492  180.48660786248044 22.203334698332167  180.9586204777403 22.78919011486985  C 181.43063309300015 23.37504553140753  181.66664014676192 24.069260895153818  181.66664014676192 24.871798925071133  C 181.66664014676192 25.66366059034639  181.43063309300015 26.353455119428304  180.9586204777403 26.94119067692416  C 180.48660786248044 27.52872476072898  179.83900678665952 27.984627905571035  179.01582208521194 28.308879579864403  C 178.19330502253914 28.633198402049135  177.25496525698702 28.795359539115466  176.20078147903004 28.795359539115466  C 175.14993583525657 28.795359539115466  174.21224729357866 28.633198402049135  173.38772737427198 28.308879579864403  C 172.56253981619048 27.984627905571035  171.9139465640875 27.52872476072898  171.44193394882765 26.94119067692416  C 170.9699213335678 26.353455119428304  170.73391427980604 25.66366059034639  170.73391427980604 24.871798925071133  C 170.73391427980604 24.069260895153818  170.9699213335678 23.37504553140753  171.44193394882765 22.78919011486985  C 171.9139465640875 22.203334698332167  172.56253981619048 21.747406489346492  173.38772737427198 21.421408999894613  Z M 178.08147878089272 22.72304334843854  C 177.5427034222719 22.528116321674272  176.91581048967427 22.43063898549197  176.20078147903004 22.43063898549197  C 175.48909060256932 22.43063898549197  174.86284895353646 22.528116321674272  174.32207067859122 22.72304334843854  C 173.78196004242076 22.91790322731145  173.36069370433933 23.19683580816988  173.05825847273584 23.559898303298556  C 172.7564908500619 23.92282650264451  172.60559592136048 24.360140637761486  172.60559592136048 24.871798925071133  C 172.60559592136048 25.372713729864294  172.7564908500619 25.80474017115075  173.05825847273584 26.167869814170793  C 173.36069370433933 26.530798013516748  173.78196004242076 26.81154517833972  174.32207067859122 27.01016527909509  C 174.86284895353646 27.208583936176375  175.48909060256932 27.307794990690976  176.20078147903004 27.307794990690976  C 176.91581048967427 27.307794990690976  177.5427034222719 27.208583936176375  178.08147878089272 27.01016527909509  C 178.62025413951352 26.81154517833972  179.04052833115819 26.530798013516748  179.3422959538321 26.167869814170793  C 179.6447311854356 25.80474017115075  179.79595175591945 25.372713729864294  179.79595175591945 24.871798925071133  C 179.79595175591945 24.360140637761486  179.6447311854356 23.92282650264451  179.3422959538321 23.559898303298556  C 179.04052833115819 23.19683580816988  178.62025413951352 22.91790322731145  178.08147878089272 22.72304334843854  Z " fill-rule="nonzero" fill="#4c4c57" stroke="none" transform="matrix(1 0 0 1 88 504 )" />
  </g>
</svg>