<?xml version="1.0" encoding="utf-8"?>
<svg version="1.1" xmlns:xlink="http://www.w3.org/1999/xlink" width="85px" height="22px" xmlns="http://www.w3.org/2000/svg">
  <g transform="matrix(1 0 0 1 -137 -215 )">
    <path d="M 16 11.03968165757607  L 16 0  L 19 0  L 19 11.03968165757607  L 16 11.03968165757607  Z M 7.781638202841065 2.55135398442592  C 7.781638202841065 2.55135398442592  7.781638202841065 0.8375863606737333  7.781638202841065 0.8375863606737333  C 7.781638202841065 0.8375863606737333  11.281817470182528 0.8375863606737333  11.281817470182528 0.8375863606737333  C 11.281817470182528 2.779858409660046  10.90144138337709 4.465190452300092  10.140703419586611 5.893578950979384  C 9.380233703629191 7.321736679273439  8.243553296866807 8.50047990956571  6.730661180029645 9.429789715618675  C 5.217769063192483 10.35916549818188  3.331683414123269 11.066424549114954  1.0724042328220038 11.551588624747005  C 1.0724042328220038 11.551588624747005  0 9.011358787005591  0 9.011358787005591  C 1.8740147364097433 8.644105996578162  3.3806381040431353 8.14038335949024  4.519867344875965 7.500180439779082  C 5.659029553729054 6.859911543557682  6.487395470318095 6.1173862496140785  7.004970910476752 5.27261912112792  C 7.522747506531678 4.42760135265514  7.781638202841065 3.5205082962419816  7.781638202841065 2.55135398442592  Z M 1.2855558556135416 3.3459229529004153  L 1.2855558556135416 0.8375863606737333  L 9.125635392348089 0.8375863606737333  L 9.125635392348089 3.3459229529004153  L 1.2855558556135416 3.3459229529004153  Z M 10.41229637627163 5.141302871256561  L 10.41229637627163 2.7438756817947927  L 15.634196480076044 2.7438756817947927  L 15.634196480076044 5.141302871256561  L 10.41229637627163 5.141302871256561  Z M 10.265237566019904 9.397141779012726  L 10.265237566019904 7.018295084216665  L 15.532294440491324 7.018295084216665  L 15.532294440491324 9.397141779012726  L 10.265237566019904 9.397141779012726  Z M 3.672986032315794 14  L 3.672986032315794 11.85132173853384  L 18.449342010757487 11.85132173853384  L 18.449342010757487 18  L 6.923091647008655 18  L 6.923091647008655 20.630462076772666  L 3.7076901310507013 20.630462076772666  L 3.7076901310507013 15.575616616925664  L 15.228614390305497 15.575616616925664  L 15.228614390305497 14  L 3.672986032315794 14  Z M 3.7076901310507013 21.78643751500806  L 3.7076901310507013 19  L 18.892943584192945 19  L 18.892943584192945 21.78643751500806  L 3.7076901310507013 21.78643751500806  Z M 38 21.981494974443414  L 38 0  L 42 0  L 42 21.981494974443414  L 38 21.981494974443414  Z M 30.725890077473647 10.075624163836576  L 30.725890077473647 7.516889300538575  L 34.42975830645226 7.516889300538575  L 34.42975830645226 10.075624163836576  L 30.725890077473647 10.075624163836576  Z M 34 20.992910020239442  L 34 0.363142259270694  L 37 0.363142259270694  L 37 20.992910020239442  L 34 20.992910020239442  Z M 25.915220497024233 5.846848478611368  C 25.915220497024233 5.846848478611368  25.915220497024233 3.5862920654523003  25.915220497024233 3.5862920654523003  L 28.323770903650956 3.5862920654523003  C 28.323770903650956 3.5862920654523003  28.323770903650956 5.846848478611368  28.323770903650956 5.846848478611368  C 28.323770903650956 7.078124635518508  28.231739622868304 8.2954478512744  28.04765766519795 9.498828856642996  C 27.863776893402385 10.702143944461596  27.578329361834896 11.836480384463655  27.19132136598554 12.901836643682891  C 26.804581587990715 13.96719290290213  26.297371792108887 14.929174701339576  25.669682475147933 15.787790470309767  C 25.041993158186973 16.646406239279955  24.286139115661022 17.34661623958012  23.402143371076534 17.88842784124044  C 23.402143371076534 17.88842784124044  21.490808609924645 15.567798017220678  21.490808609924645 15.567798017220678  C 22.587521348659223 14.881301048849096  23.457636736830576 14.019750887619635  24.101152376156783 12.983147061850365  C 24.744735107419782 11.94621353041062  25.207957984577998 10.810094958148948  25.49082052797505 9.574796061884669  C 25.773750133330367 8.339563201090872  25.915220497024233 7.096919273781346  25.915220497024233 5.846848478611368  Z M 26.633032032378814 5.846848478611368  C 26.633032032378814 5.846848478611368  26.633032032378814 3.5862920654523003  26.633032032378814 3.5862920654523003  L 29.022687814705375 3.5862920654523003  C 29.022687814705375 3.5862920654523003  29.022687814705375 5.846848478611368  29.022687814705375 5.846848478611368  C 29.022687814705375 7.063550607183287  29.159260047314323 8.26330025127783  29.432398786634124 9.446106137010737  C 29.705470463995663 10.628714152173167  30.158856727890686 11.706300357406265  30.792581501181374 12.678870707694418  C 31.42617215055554 13.651309163922337  32.28348628926489 14.448104530076156  33.36450670963666 15.069249082364243  C 33.36450670963666 15.069249082364243  31.490485377951625 17.35279338616171  31.490485377951625 17.35279338616171  C 30.30599000479611 16.656206669582517  29.359665131450228 15.714624937823745  28.651502843583625 14.528060100854173  C 27.94360880355008 13.341297393314123  27.430227268968252 12.000711660834963  27.111353053553486 10.506311275770987  C 26.792478838138724 9.011647102586533  26.633032032378814 7.458500619618539  26.633032032378814 5.846848478611368  Z M 22.323706979562438 4.754402936434428  L 22.323706979562438 2.2089657301636305  L 32.29420529040451 2.2089657301636305  L 32.29420529040451 4.754402936434428  L 22.323706979562438 4.754402936434428  Z M 58 22  L 58 0.018550307022057563  L 61 0.018550307022057563  L 61 22  L 58 22  Z M 60.96674394438893 11.201819491612637  L 60.96674394438893 8.587388425782992  L 64.90689474564758 8.587388425782992  L 64.90689474564758 11.201819491612637  L 60.96674394438893 11.201819491612637  Z M 44.049301633847335 6  L 44.049301633847335 3.256899591780728  L 57.072855042107285 3.256899591780728  L 57.072855042107285 6  L 44.049301633847335 6  Z M 47.703776766970606 7.689698466604919  C 48.558802285198134 7.238377834915612  49.528842449423 7.012725463963501  50.613886587290644 7.012725463963501  C 51.69893072515829 7.012725463963501  52.66595049312965 7.238377834915612  53.5149404950704 7.689698466604919  C 54.36393049701115 8.140768517267848  55.03520825815425 8.756907669333813  55.52877590697492 9.53810298102981  C 56.022343555795594 10.31910042215533  56.269135129654394 11.221000319457307  56.269135129654394 12.243821481252787  C 56.269135129654394 13.266642643048268  56.022343555795594 14.172611917258415  55.52877590697492 14.96172069568797  C 55.03520825815425 15.750565744957292  54.36460003736692 16.3698037588762  53.51695121463443 16.819423004356626  C 52.66930239190193 17.26877846171658  51.69859268732128 17.493452711742307  50.60483067475036 17.493452711742307  C 49.52582205316949 17.493452711742307  48.558802285198134 17.26877846171658  47.703776766970606 16.819423004356626  C 46.84875124874307 16.3698037588762  46.173456515271994 15.750565744957292  45.677877037681895 14.96172069568797  C 45.182297560091804 14.172611917258415  44.93450941015853 13.266642643048268  44.93450941015853 12.243821481252787  C 44.93450941015853 11.221000319457307  45.182297560091804 10.31910042215533  45.677877037681895 9.53810298102981  C 46.173456515271994 8.756907669333813  46.84875124874307 8.140768517267848  47.703776766970606 7.689698466604919  Z M 51.9426959370373 9.895388837432678  C 51.5490488972553 9.682911102963878  51.10309260069251 9.576682789612706  50.60483067475036 9.576682789612706  C 50.10120388208259 9.576682789612706  49.653239054388024 9.682911102963878  49.26093325377131 9.895388837432678  C 48.86795683357197 10.107536836750883  48.559478885496326 10.411688342595452  48.33549573717521 10.807825460533087  C 48.11151258885408 11.203764737380364  47.99952138193044 11.682423935928442  47.99952138193044 12.243821481252787  C 47.99952138193044 12.805153109027135  48.11151258885408 13.286886553527323  48.33549573717521 13.689024733285308  C 48.559478885496326 14.091096966013172  48.86795683357197 14.398371979091628  49.26093325377131 14.610849713560427  C 49.653239054388024 14.82326150099911  50.10120388208259 14.929480292271277  50.60483067475036 14.929480292271277  C 51.108457467418134 14.929480292271277  51.55542568905969 14.82326150099911  51.9457196908855 14.610849713560427  C 52.33735490189808 14.398371979091628  52.64482090990568 14.091096966013172  52.86813345363341 13.689024733285308  C 53.09211660195453 13.286886553527323  53.20410780887817 12.805153109027135  53.20410780887817 12.243821481252787  C 53.20410780887817 11.682423935928442  53.09211660195453 11.203764737380364  52.86813345363341 10.807825460533087  C 52.64482090990568 10.411688342595452  52.336342976819296 10.107536836750883  51.9426959370373 9.895388837432678  Z M 48.978281339484134 4.2183911358100925  L 48.978281339484134 0.36982882233885633  L 52.20424297040432 0.36982882233885633  L 52.20424297040432 4.2183911358100925  L 48.978281339484134 4.2183911358100925  Z M 81 21.981494974443414  L 81 0  L 85 0  L 85 21.981494974443414  L 81 21.981494974443414  Z M 75.17927727317173 2.8473740180439777  C 75.17927727317173 2.8473740180439777  75.17927727317173 2.276118143459916  75.17927727317173 2.276118143459916  C 75.17927727317173 2.276118143459916  78.36298309523868 2.276118143459916  78.36298309523868 2.276118143459916  C 78.36298309523868 3.9599679256286233  78.19768196339125 5.562699264176185  77.86707211512982 7.084315460876128  C 77.53646226686837 8.605951468217214  76.986221717287 10.040409805838564  76.21636344708661 11.387684813556994  C 75.44650517688622 12.734959821275428  74.40036123176256 13.984306584679771  73.07792183871682 15.135722273678434  C 71.75548244567106 16.28687417455662  70.10041657903062 17.333921804783714  68.11273383192317 18.276882439710473  C 68.11273383192317 18.276882439710473  66.42985365085548 15.778885115433432  66.42985365085548 15.778885115433432  C 68.58116481810482 14.760548351686047  70.29623557853827 13.626444568796954  71.57508547815354 12.376571644197455  C 72.85460593739438 11.126764637147954  73.77502618825106 9.716053008473123  74.3363253057138 8.144430036705431  C 74.89829498280213 6.572642212102501  75.17927727317173 4.8069567939350275  75.17927727317173 2.8473740180439777  Z M 67.62687644963445 4.784832081232205  L 67.62687644963445 2.276118143459916  L 76.691154197271 2.276118143459916  L 76.691154197271 4.784832081232205  L 67.62687644963445 4.784832081232205  Z " fill-rule="nonzero" fill="#53abd7" stroke="none" transform="matrix(1 0 0 1 137 215 )" />
  </g>
</svg>