<?xml version="1.0" encoding="utf-8"?>
<svg version="1.1" xmlns:xlink="http://www.w3.org/1999/xlink" width="40px" height="22px" xmlns="http://www.w3.org/2000/svg">
  <g transform="matrix(1 0 0 1 -160 -470 )">
    <path d="M 14 12.845473946731634  L 14 0.01855081698852728  L 17 0.01855081698852728  L 17 12.845473946731634  L 14 12.845473946731634  Z M 15.988670493569687 7.597465948511458  L 15.988670493569687 4.994157893435801  L 19.8142193094927 4.994157893435801  L 19.8142193094927 7.597465948511458  L 15.988670493569687 7.597465948511458  Z M 0 11.767441860465116  L 0 1.2834506607046234  L 3.1672369856914964 1.2834506607046234  L 3.1672369856914964 4.0608161370684  L 7.529203872314722 4.0608161370684  L 7.529203872314722 1.2834506607046234  L 11 1.2834506607046234  L 11 11.767441860465116  L 0 11.767441860465116  Z M 7.529203872314722 6.497015773962388  L 3.1672369856914964 6.497015773962388  L 3.1672369856914964 9.293687393739306  L 7.529203872314722 9.293687393739306  L 7.529203872314722 6.497015773962388  Z M 2.41053653261815 21.027320843438687  L 2.41053653261815 13.815977763190059  L 17.00261397280338 13.815977763190059  L 17.00261397280338 16  L 5.601706298811532 16  L 5.601706298811532 21.027320843438687  L 2.41053653261815 21.027320843438687  Z M 2.41053653261815 21.759836410029635  L 2.41053653261815 19  L 17.42900539976678 19  L 17.42900539976678 21.759836410029635  L 2.41053653261815 21.759836410029635  Z M 36 22  L 36 0  L 40 0  L 40 22  L 36 22  Z M 30.227911242526734 2.8497861739557955  C 30.227911242526734 2.8497861739557955  30.227911242526734 2.278034283579753  30.227911242526734 2.278034283579753  C 30.227911242526734 2.278034283579753  33.395850785910056 2.278034283579753  33.395850785910056 2.278034283579753  C 33.395850785910056 3.963301607334632  33.231368254730235 5.567382198260827  32.90239564536415 7.090279360911445  C 32.57342303599806 8.613196350880711  32.0259226486845 10.04886228098967  31.25987685385502 11.397271486290139  C 30.494498357580483 12.745680691590609  29.453519890401 13.99607921211214  28.136962094721575 15.148464215380642  C 26.82107165725723 16.300585208459793  25.174201971781617 17.34852939769069  23.19636258391555 18.292283859910295  C 23.19636258391555 18.292283859910295  21.52181632545527 15.792183607493936  21.52181632545527 15.792183607493936  C 23.66247381636211 14.772989561388812  25.369051240701612 13.637915931653945  26.641568047676177 12.386990806990752  C 27.914752093545555 11.136131655369958  28.83061425926746 9.724247531799243  29.389133723456492 8.151301496095648  C 29.948320426540338 6.578190468776178  30.227911242526734 4.811018616049725  30.227911242526734 2.8497861739557955  Z M 22.712926526974776 4.788860171225634  L 22.712926526974776 2.278034283579753  L 31.73230108262613 2.278034283579753  L 31.73230108262613 4.788860171225634  L 22.712926526974776 4.788860171225634  Z " fill-rule="nonzero" fill="#49a37a" stroke="none" transform="matrix(1 0 0 1 160 470 )" />
  </g>
</svg>