<?xml version="1.0" encoding="utf-8"?>
<svg version="1.1" xmlns:xlink="http://www.w3.org/1999/xlink" width="188px" height="35px" xmlns="http://www.w3.org/2000/svg">
  <g transform="matrix(1 0 0 1 -86 -249 )">
    <path d="M 9.89468612115257 8.321454094353802  L 9.89468612115257 1.2294211224969973  L 16.80063849474327 1.2294211224969973  L 16.80063849474327 8.321454094353802  L 9.89468612115257 8.321454094353802  Z M 14.93319808145641 6.807339477731969  L 14.93319808145641 2.7435357391188306  L 11.767633380731702 2.7435357391188306  L 11.767633380731702 6.807339477731969  L 14.93319808145641 6.807339477731969  Z M 20 10.822869770120594  L 20 0.026932957107438597  L 22 0.026932957107438597  L 22 10.822869770120594  L 20 10.822869770120594  Z M 16.27503296133914 5.514234894190857  L 16.27503296133914 3.9784725099909397  L 20.143447162102742 3.9784725099909397  L 20.143447162102742 5.514234894190857  L 16.27503296133914 5.514234894190857  Z M 11.90517451527873 15  L 11.90517451527873 13  L 21.91835726088424 13  L 21.91835726088424 15  L 11.90517451527873 15  Z M 11.90517451527873 13.79237808946544  L 11.90517451527873 9.80742200394721  L 13.81542301009035 9.80742200394721  L 13.81542301009035 13.79237808946544  L 11.90517451527873 13.79237808946544  Z M 35 14.862198779314365  L 35 0  L 37 0  L 37 14.862198779314365  L 35 14.862198779314365  Z M 31.69013363215243 6.792482564142184  L 31.69013363215243 5.24590397811475  L 34.905321136688585 5.24590397811475  L 34.905321136688585 6.792482564142184  L 31.69013363215243 6.792482564142184  Z M 27.520976788252323 3.856144954663258  C 27.520976788252323 3.856144954663258  27.520976788252323 2.290177097746156  27.520976788252323 2.290177097746156  L 29.03925255301886 2.290177097746156  C 29.03925255301886 2.290177097746156  29.03925255301886 3.856144954663258  29.03925255301886 3.856144954663258  C 29.03925255301886 4.72727266990743  28.949455509924466 5.581277833049796  28.769875988555395 6.418171306864075  C 28.590229648275006 7.255064780678353  28.32764677300475 8.03817546150207  27.9821216264464 8.767499508354462  C 27.63679698143681 9.496823555206856  27.21006966368043 10.14284891242904  26.701940479844197 10.705566217630409  C 26.1938781597341 11.26801501427034  25.611361975134816 11.717715121466627  24.95439634777622 12.054687664613462  C 24.95439634777622 12.054687664613462  23.833110661898843 10.540127494223166  23.833110661898843 10.540127494223166  C 24.425582729838823 10.256990017414457  24.95172433823765 9.877224387407466  25.411533425613147 9.400831144340106  C 25.871342512988644 8.924437901272748  26.25786967355215 8.388109214186366  26.571114638414677 7.7918289389586946  C 26.884426407250242 7.195414409450305  27.12101442552631 6.560560124668907  27.280878289909424 5.88728630977883  C 27.440942655841287 5.213844692041685  27.520976788252323 4.5368026349621875  27.520976788252323 3.856144954663258  Z M 27.961073236173732 3.856144954663258  C 27.961073236173732 3.856144954663258  27.961073236173732 2.290177097746156  27.961073236173732 2.290177097746156  L 29.45277846758007 2.290177097746156  C 29.45277846758007 2.290177097746156  29.45277846758007 3.856144954663258  29.45277846758007 3.856144954663258  C 29.45277846758007 4.501058047878044  29.532739760954314 5.143205995035697  29.69267045918701 5.782581174190014  C 29.85273482511888 6.4219563533443305  30.090225862216478 7.029101502827621  30.405141643442114 7.604035707513046  C 30.720257896339966 8.178835657917753  31.10772073079768 8.694636133295367  31.567529818173178 9.151428581462154  C 32.027338905548675 9.608019648207863  32.553578329782795 9.972471978090551  33.14625086939498 10.244802165347417  C 33.14625086939498 10.244802165347417  32.03549702705157 11.748592225679348  32.03549702705157 11.748592225679348  C 31.371513994869147 11.42960945607213  30.7854508061167 10.999505492588773  30.277321622280464 10.458268512210369  C 29.769259302170372 9.917098688979983  29.343369812596357 9.296217412090375  28.99964915010029 8.595623301189079  C 28.655995321453812 7.894962093155087  28.39695180193909 7.14053015521074  28.2225184122968 6.332333068781211  C 28.048218690353686 5.524135982351681  27.961073236173732 4.6987441453850725  27.961073236173732 3.856144954663258  Z M 24.416262739057174 3.0123736646556023  L 24.416262739057174 1.4602487024069561  L 32.56781785357322 1.4602487024069561  L 32.56781785357322 3.0123736646556023  L 24.416262739057174 3.0123736646556023  Z M 53.324888308984846 7.486440240484903  L 53.324888308984846 0.010831565750567148  L 55.24034536258124 0.010831565750567148  L 55.24034536258124 7.486440240484903  L 53.324888308984846 7.486440240484903  Z M 48.483062542086536 1.6412357159412554  C 48.483062542086536 1.6412357159412554  48.483062542086536 0.6217626019286552  48.483062542086536 0.6217626019286552  C 48.483062542086536 0.6217626019286552  50.559717224093816 0.6217626019286552  50.559717224093816 0.6217626019286552  C 50.559717224093816 1.9114209855111621  50.30234177229931 3.036115066825932  49.787596186736764 3.9958491069609985  C 49.27278373744809 4.955583147096065  48.51283608096593 5.751442163101541  47.50773887654478 6.3834334768470065  C 46.50250794467133 7.015256987745405  45.26165569521656 7.4975412450344345  43.78518726694763 7.830284838353971  C 43.78518726694763 7.830284838353971  43.14158990333402 6.283752344095689  43.14158990333402 6.283752344095689  C 44.389022642898105 6.022800012079885  45.405279636249126 5.664432035786472  46.19036357227687 5.208646464717408  C 46.97551437203075 4.752693090801279  47.55388151005264 4.220977511633782  47.92547140980147 3.613487154004453  C 48.297194977249475 3.0059967963751237  48.483062542086536 2.3485759694141604  48.483062542086536 1.6412357159412554  Z M 43.96583477052691 2.1522244326761673  L 43.96583477052691 0.6217626019286552  L 49.29286723455748 0.6217626019286552  L 49.29286723455748 2.1522244326761673  L 43.96583477052691 2.1522244326761673  Z M 49.99782004394412 3.4075644933592737  L 49.99782004394412 1.942045965346013  L 53.58202743724327 1.942045965346013  L 53.58202743724327 3.4075644933592737  L 49.99782004394412 3.4075644933592737  Z M 49.89105606145276 6.265377092127351  L 49.89105606145276 4.810674765941607  L 53.51255704158678 4.810674765941607  L 53.51255704158678 6.265377092127351  L 49.89105606145276 6.265377092127351  Z M 45.55909542563984 9.579559661185991  L 45.55909542563984 8.07103751255452  L 55.24034536258124 8.07103751255452  L 55.24034536258124 12.033039897035376  L 47.49059116906246 12.033039897035376  L 47.49059116906246 14.010684072089283  L 45.585658310602405 14.010684072089283  L 45.585658310602405 10.605270527957071  L 53.330104516167246 10.605270527957071  L 53.330104516167246 9.579559661185991  L 45.55909542563984 9.579559661185991  Z M 45.585658310602405 15  L 45.585658310602405 13.181400961518202  L 55.58650419083371 13.181400961518202  L 55.58650419083371 15  L 45.585658310602405 15  Z M 69 14.829980632677572  L 69 0.010831565750567148  L 71 0.010831565750567148  L 71 14.829980632677572  L 69 14.829980632677572  Z M 63.51339527342046 6.706398503290513  L 63.51339527342046 5.1489883515125126  L 66.06624684015402 5.1489883515125126  L 66.06624684015402 6.706398503290513  L 63.51339527342046 6.706398503290513  Z M 66 14.137743715716503  L 66 0.28394066189536377  L 68 0.28394066189536377  L 68 14.137743715716503  L 66 14.137743715716503  Z M 60.43555769349062 4.021015212917635  C 60.43555769349062 4.021015212917635  60.43555769349062 2.396649084485774  60.43555769349062 2.396649084485774  L 61.87333407322088 2.396649084485774  C 61.87333407322088 2.396649084485774  61.87333407322088 4.021015212917635  61.87333407322088 4.021015212917635  C 61.87333407322088 4.844819104415525  61.808433251566846 5.657041898776219  61.67864411159631 6.457687316949831  C 61.54878813777618 7.258366283689791  61.35119625159763 8.011588852831833  61.08587035022175 8.717351663517794  C 60.82054444884589 9.423047317055733  60.47936735658603 10.059846578470799  60.06233118603213 10.62773258345683  C 59.64529501547824 11.19561858844286  59.15139675098509 11.658687019129786  58.58064535551867 12.016938505678505  C 58.58064535551867 12.016938505678505  57.43780648512517 10.605070796957415  57.43780648512517 10.605070796957415  C 58.15124572945819 10.15364842999637  58.727009185618755 9.578782282688831  59.1650976602738 8.88047043454442  C 59.60318613492884 8.182225743548031  59.92442131506508 7.4124833562072885  60.12879576142077 6.571226708292656  C 60.33330387547562 5.729970060378023  60.43555769349062 4.879892420096077  60.43555769349062 4.021015212917635  Z M 60.85429981523424 4.021015212917635  C 60.85429981523424 4.021015212917635  60.85429981523424 2.396649084485774  60.85429981523424 2.396649084485774  L 62.281345493092196 2.396649084485774  C 62.281345493092196 2.396649084485774  62.281345493092196 4.021015212917635  62.281345493092196 4.021015212917635  C 62.281345493092196 4.851531698420787  62.38002736003208 5.668632298288701  62.577384371687394 6.4722984077708094  C 62.77487505104187 7.275930908671244  63.08904116979374 8.006256671303463  63.519911708199636 8.66328601830326  C 63.95104958200388 9.32024820815504  64.5178956040611 9.85473778564002  65.22044114004737 10.266757211386512  C 65.22044114004737 10.266757211386512  64.09915545416999 11.657269067067475  64.09915545416999 11.657269067067475  C 63.33572532688966 11.195106537694947  62.716182114063486 10.57083409489922  62.24053364334838 9.784452938986789  C 61.764818368660244 8.998071783074355  61.41485422357536 8.108736378647615  61.19063045253453 7.116446245583969  C 60.96640668149371 6.123988249657933  60.85429981523424 5.092178445573741  60.85429981523424 4.021015212917635  Z M 57.947075041195575 3.1183386419345553  L 57.947075041195575 1.5664748663777666  L 64.57153578847982 1.5664748663777666  L 64.57153578847982 3.1183386419345553  L 57.947075041195575 3.1183386419345553  Z M 82 14.840750742735938  L 82 0.021647767578083846  L 84 0.021647767578083846  L 84 14.840750742735938  L 82 14.840750742735938  Z M 83.53846053703468 7.474149102044542  L 83.53846053703468 5.884274980860941  L 86.17400657892381 5.884274980860941  L 86.17400657892381 7.474149102044542  L 83.53846053703468 7.474149102044542  Z M 72.3882593516307 3.7849024434783223  L 72.3882593516307 2.2546864354996172  L 81.01318909214822 2.2546864354996172  L 81.01318909214822 3.7849024434783223  L 72.3882593516307 3.7849024434783223  Z M 74.84415983002982 5.183726181529579  C 75.40234670078638 4.882833861168683  76.03621799150677 4.732380214076514  76.74578093231689 4.732380214076514  C 77.45541073685314 4.732380214076514  78.08747593017738 4.882833861168683  78.64198696908322 5.183726181529579  C 79.19656487171522 5.484618501890476  79.63431672724496 5.895678072545921  79.95524743542718 6.416911465173937  C 80.27637864515816 6.937977054954887  80.4369435180481 7.540537033652808  80.4369435180481 8.224584559520716  C 80.4369435180481 8.908732791102995  80.27637864515816 9.514104307703821  79.95524743542718 10.040707811545241  C 79.63431672724496 10.567109963973246  79.19690612170626 10.979945928216075  78.64299655757014 11.279193648642003  C 78.08928746510622 11.578239987646858  77.45514017478703 11.727758746022939  76.74056472513449 11.727758746022939  C 76.03447708474978 11.727758746022939  75.40234670078638 11.578239987646858  74.84415983002982 11.279193648642003  C 74.28610662697243 10.979945928216075  73.84567057227041 10.567109963973246  73.52286854617631 10.040707811545241  C 73.19999968623263 9.514104307703821  73.03857200836181 8.908732791102995  73.03857200836181 8.224584559520716  C 73.03857200836181 7.540537033652808  73.19999968623263 6.937977054954887  73.52286854617631 6.416911465173937  C 73.84567057227041 5.895678072545921  74.28610662697243 5.484618501890476  74.84415983002982 5.183726181529579  Z M 77.70615962889325 6.530942502054376  C 77.42198691057602 6.373699831441304  77.10012474109361 6.295075555383869  76.74056472513449 6.295075555383869  C 76.37786357799791 6.295075555383869  76.05423555483652 6.373699831441304  75.76966183342181 6.530942502054376  C 75.48528861355584 6.688017354816552  75.26215821979548 6.910378377861366  75.10028936980133 7.198013313058808  C 74.93848735365675 7.48548041540152  74.85759041626486 7.827668500293725  74.85759041626486 8.224584559520716  C 74.85759041626486 8.621567745888065  74.93848735365675 8.965663207813192  75.10028936980133 9.25685582143434  C 75.26215821979548 9.54804843505549  75.48528861355584 9.772248537694042  75.76966183342181 9.929457644736935  C 76.05423555483652 10.086532497499109  76.377758113765 10.165063404715582  76.74025878922936 10.165063404715582  C 77.10302677021552 10.165063404715582  77.42576704147409 10.086532497499109  77.70846944497694 9.929457644736935  C 77.9911718484798 9.772248537694042  78.21339919354207 9.54804843505549  78.37513437583705 9.25685582143434  C 78.5370032258312 8.965663207813192  78.61792511014505 8.621567745888065  78.61792511014505 8.224584559520716  C 78.61792511014505 7.827668500293725  78.5370032258312 7.48548041540152  78.37513437583705 7.198013313058808  C 78.21339919354207 6.910378377861366  77.99039918106003 6.688017354816552  77.70615962889325 6.530942502054376  Z M 75.76935589751669 2.862851965528624  L 75.76935589751669 0.2424119778899978  L 77.68521831618736 0.2424119778899978  L 77.68521831618736 2.862851965528624  L 75.76935589751669 2.862851965528624  Z M 88.60404017654454 2.87669486019708  L 88.60404017654454 1.3356472864678077  L 97.98836402076589 1.3356472864678077  L 97.98836402076589 2.87669486019708  L 88.60404017654454 2.87669486019708  Z M 87.22561536240875 13  L 87.22561536240875 12  L 100.5677708240644 12  L 100.5677708240644 13  L 87.22561536240875 13  Z M 92.07165539640017 12.187093953462238  L 92.07165539640017 6.26738976604696  L 93.98139909696835 6.26738976604696  L 93.98139909696835 12.187093953462238  L 92.07165539640017 12.187093953462238  Z M 97.29664293927596 2.7639236650067773  C 97.29664293927596 2.7639236650067773  97.29664293927596 1.3356472864678077  97.29664293927596 1.3356472864678077  L 99.20638663984413 1.3356472864678077  C 99.20638663984413 1.3356472864678077  99.20638663984413 2.7639236650067773  99.20638663984413 2.7639236650067773  C 99.20638663984413 3.379972567989749  99.1993731208395 4.031845398315741  99.18533824957144 4.719551338329389  C 99.17063505194487 5.4070894154806455  99.1241787267654 6.166371251806358  99.04598444478654 6.997391205866034  C 98.9677901628077 7.828411159925709  98.83045345110703 8.763365892869999  98.63396526455807 9.80227508972531  C 98.63396526455807 9.80227508972531  96.72422156398991 9.586903616404104  96.72422156398991 9.586903616404104  C 97.01293889444933 8.125369145686863  97.18034666695024 6.84576716992477  97.22646124264004 5.748089166941754  C 97.273244145622 4.650411163958738  97.29664293927596 3.655692630823256  97.29664293927596 2.7639236650067773  Z M 109.47689972364876 2.1794185764754634  C 109.47689972364876 2.1794185764754634  109.47689972364876 0.8060221310727004  109.47689972364876 0.8060221310727004  L 111.04379635213742 0.8060221310727004  C 111.04379635213742 0.8060221310727004  111.04379635213742 2.1794185764754634  111.04379635213742 2.1794185764754634  C 111.04379635213742 3.1465364820193815  110.89241729442855 4.057347530073782  110.58966509456837 4.911861563151869  C 110.28691289470818 5.76620779338289  109.83244976838577 6.512320587102689  109.22627703016951 7.1501854206027575  C 108.62077263044911 7.787848902689411  107.86656157095362 8.267779929100433  106.96365155983375 8.589984741429564  C 106.96365155983375 8.589984741429564  105.9541548536894 7.081216770029288  105.9541548536894 7.081216770029288  C 106.75748410201221 6.801804774491355  107.41912373686509 6.4106158276350556  107.9390823029423 5.907674235666776  C 108.45904086901949 5.404564840851431  108.84533983246936 4.830053954256773  109.09796751155965 4.184133983944261  C 109.35059519064993 3.538046210784684  109.47689972364876 2.8698095420881504  109.47689972364876 2.1794185764754634  Z M 109.85785111271166 2.3520937076394697  C 109.85785111271166 2.3520937076394697  109.85785111271166 0.8060221310727004  109.85785111271166 0.8060221310727004  L 111.39868200208363 0.8060221310727004  C 111.39868200208363 0.8060221310727004  111.39868200208363 2.3520937076394697  111.39868200208363 2.3520937076394697  C 111.39868200208363 2.81006086575871  111.46951502251834 3.2591466260866135  111.61120037857941 3.6993253920873164  C 111.75355407313634 4.139336355240952  111.96442327883184 4.550816663328215  112.24378404960848 4.93377051742181  C 112.52314482038513 5.31655656866834  112.87400433589391 5.6573764241945135  113.29638712478507 5.9562549603522985  C 113.71876991367624 6.254965663655357  114.21366901282619 6.495622973505408  114.7810787755664 6.678205704492938  C 114.7810787755664 6.678205704492938  113.78862269933758 8.17111810730515  113.78862269933758 8.17111810730515  C 112.92848563491586 7.870259365518264  112.20701455727045 7.431518536682903  111.62423324813777 6.854906183496161  C 111.04145193900509 6.278125967447029  110.6013571342941 5.602923019968929  110.30395155277118 4.829295840678752  C 110.00654597124826 4.0555008585415075  109.85785111271166 3.2297662140418355  109.85785111271166 2.3520937076394697  Z M 115.80061017939886 8.839187573307862  L 115.80061017939886 0.021647767578083846  L 117.70634611960986 0.021647767578083846  L 117.70634611960986 8.839187573307862  L 115.80061017939886 8.839187573307862  Z M 117.18506193086564 5.142197497524214  L 117.18506193086564 3.557854388638774  L 119.72537012548905 3.557854388638774  L 119.72537012548905 5.142197497524214  L 117.18506193086564 5.142197497524214  Z M 110.28691092285565 9.529212085349666  C 111.03276407633679 9.305212613940636  111.91196046962301 9.193218452159376  112.92447614171863 9.193218452159376  C 113.94768511024188 9.193218452159376  114.8275334099197 9.305212613940636  115.56402994396493 9.529212085349666  C 116.30052647801011 9.753077302477974  116.86926876490115 10.074603356491796  117.27026508044325 10.493805266226058  C 117.67126139598533 10.912805794539244  117.87176566351151 11.41961696457222  117.87176566351151 12.014219091298576  C 117.87176566351151 12.601773018325538  117.67126139598533 13.105953656674044  117.27026508044325 13.526766587769265  C 116.86926876490115 13.947847997418256  116.30052647801011 14.27032151335863  115.56402994396493 14.49418673048694  C 114.8275334099197 14.71818620189597  113.94768511024188 14.830180363677227  112.92447614171863 14.830180363677227  C 111.91196046962301 14.830180363677227  111.03276407633679 14.71818620189597  110.28691092285565 14.49418673048694  C 109.5417261078704 14.27032151335863  108.96863923236104 13.947847997418256  108.56764291681897 13.526766587769265  C 108.16664660127687 13.105953656674044  107.96614233375068 12.601773018325538  107.96614233375068 12.014219091298576  C 107.96614233375068 11.41961696457222  108.16664660127687 10.912805794539244  108.56764291681897 10.493805266226058  C 108.96863923236104 10.074603356491796  109.5417261078704 9.753077302477974  110.28691092285565 9.529212085349666  Z M 114.5926069612135 10.835652554098568  C 114.1388128007946 10.735634810396432  113.58277844606894 10.685623845510925  112.92447614171863 10.685623845510925  C 112.27285716257386 10.685623845510925  111.71913510368582 10.735634810396432  111.26333595765587 10.835652554098568  C 110.80820515012176 10.935536051021902  110.46034047524752 11.082807483061824  110.21974269488524 11.277472889260354  C 109.97981323808055 11.472138295458885  109.85985499289025 11.717723523612046  109.85985499289025 12.014219091298576  C 109.85985499289025 12.303733556418411  109.97981323808055 12.547570238094716  110.21974269488524 12.745726195576596  C 110.46034047524752 12.943949280198833  110.80820515012176 13.093059799334407  111.26333595765587 13.193077543036543  C 111.71913510368582 13.29309528673868  112.27285716257386 13.343106251624187  112.92447614171863 13.343106251624187  C 113.58277844606894 13.343106251624187  114.1388128007946 13.29309528673868  114.5926069612135 13.193077543036543  C 115.04640112163241 13.093059799334407  115.3926053622458 12.943949280198833  115.63119817193534 12.745726195576596  C 115.86912264312899 12.547570238094716  115.98808770206008 12.303733556418411  115.98808770206008 12.014219091298576  C 115.98808770206008 11.717723523612046  115.86912264312899 11.472138295458885  115.63119817193534 11.277472889260354  C 115.3926053622458 11.082807483061824  115.04640112163241 10.935536051021902  114.5926069612135 10.835652554098568  Z M 131 14.829980632677572  L 131 0.010831565750567148  L 133 0.010831565750567148  L 133 14.829980632677572  L 131 14.829980632677572  Z M 129.59489301844502 7.334690772515609  L 129.59489301844502 5.782826996958821  L 132.15825348351967 5.782826996958821  L 132.15825348351967 7.334690772515609  L 129.59489301844502 7.334690772515609  Z M 128 14.116095948138419  L 128 0.2897328608853834  L 130 0.2897328608853834  L 130 14.116095948138419  L 128 14.116095948138419  Z M 121.34840599256836 11.411092928030117  L 121.34840599256836 9.826949550144333  C 121.34840599256836 9.826949550144333  122.35891228719962 9.826949550144333  122.35891228719962 9.826949550144333  C 122.99983802966985 9.826949550144333  123.60267003145648 9.817985327454343  124.16740649996632 9.800062684806045  C 124.73214296847615 9.782072915017388  125.28617568376471 9.743641310575628  125.82952567892548 9.68477180623547  C 126.37354401258212 9.625700924225193  126.93260387622419 9.542529050726433  127.50669690441684 9.435261695896164  C 127.50669690441684 9.435261695896164  127.66809339116607 10.997957037203522  127.66809339116607 10.997957037203522  C 127.07461884535884 11.11294388564252  126.49819586428562 11.201663729519547  125.9388059842365 11.264090912283413  C 125.38008444268324 11.326383844517517  124.8099924227467 11.366483151043187  124.22854779060575 11.384405793691485  C 123.64843977570341 11.402194183934546  123.02523447424102 11.411092928030117  122.35891228719962 11.411092928030117  C 122.35891228719962 11.411092928030117  121.34840599256836 11.411092928030117  121.34840599256836 11.411092928030117  Z M 121.34840599256836 10.57617125769952  L 121.34840599256836 1.755773762282359  L 126.80194295336854 1.755773762282359  L 126.80194295336854 3.302352348309793  L 123.23107436553286 3.302352348309793  L 123.23107436553286 10.57617125769952  L 121.34840599256836 10.57617125769952  Z M 139.8002417544578 9.475853180595454  C 140.5460949079389 9.248296030762717  141.42695172054775 9.134512902183609  142.44280902536957 9.134512902183609  C 143.45933472844038 9.134512902183609  144.33651409586463 9.248296030762717  145.07434730690156 9.475853180595454  C 145.81284885643436 9.703208949007113  146.3825995965033 10.028534453179047  146.78359591204537 10.451831028452231  C 147.18459222758747 10.874859095163975  147.38509649511366 11.386819670054814  147.38509649511366 11.9877316879596  C 147.38509649511366 12.585220251713736  147.18459222758747 13.097261697254226  146.78359591204537 13.523847442389679  C 146.3825995965033 13.95056744180585  145.81284885643436 14.277601072133645  145.07434730690156 14.504956840545304  C 144.33651409586463 14.7325811175184  143.45933472844038 14.846404666418502  142.44280902536957 14.846404666418502  C 141.42695172054775 14.846404666418502  140.5460949079389 14.7325811175184  139.8002417544578 14.504956840545304  C 139.05505693947254 14.277601072133645  138.4819700639632 13.950461544765918  138.0809737484211 13.52354016392867  C 137.679977432879 13.096820164512497  137.47947316535283 12.584582288815195  137.47947316535283 11.986825216499623  C 137.47947316535283 11.38920239846477  137.679977432879 10.878214311890765  138.0809737484211 10.453843702371838  C 138.4819700639632 10.029204614299138  139.05505693947254 9.703208949007113  139.8002417544578 9.475853180595454  Z M 144.10593779281564 10.795875357320952  C 143.65214363239673 10.697670016400851  143.0977696372406 10.64856606311324  142.44280902536957 10.64856606311324  C 141.78784841349858 10.64856606311324  141.23246593528796 10.697670016400851  140.776666789258 10.795875357320952  C 140.3215359817239 10.89401357860261  139.97367130684967 11.042192022240432  139.73307352648737 11.24041510686267  C 139.49314406968267 11.438436825067662  139.37318582449237 11.686481166134929  139.37318582449237 11.984520628042057  C 139.37318582449237 12.290480942473247  139.49314406968267 12.544279417811024  139.73307352648737 12.745925926576252  C 139.97367130684967 12.947639562481838  140.3215359817239 13.09934015547131  140.776666789258 13.201036055176678  C 141.23246593528796 13.302799074520488  141.78784841349858 13.353676630682896  142.44280902536957 13.353676630682896  C 143.0977696372406 13.353676630682896  143.65214363239673 13.302799074520488  144.10593779281564 13.201036055176678  C 144.55973195323458 13.09934015547131  144.90593619384794 12.947639562481838  145.14452900353746 12.745925926576252  C 145.3824534747311 12.544279417811024  145.50140323686696 12.290480942473247  145.50140323686696 11.984520628042057  C 145.50140323686696 11.686481166134929  145.3824534747311 11.438436825067662  145.14452900353746 11.24041510686267  C 144.90593619384794 11.042192022240432  144.55973195323458 10.89401357860261  144.10593779281564 10.795875357320952  Z M 145.31495059948793 8.791467228313165  L 145.31495059948793 0.021647767578083846  L 147.21967695121202 0.021647767578083846  L 147.21967695121202 8.791467228313165  L 145.31495059948793 8.791467228313165  Z M 146.69837746567254 5.121809571636266  L 146.69837746567254 3.5374664627508268  L 149.23870095709117 3.5374664627508268  L 149.23870095709117 5.121809571636266  L 146.69837746567254 5.121809571636266  Z M 136.13112185069093 7.886270973949809  L 136.13112185069093 0.9510114728997956  L 138.0198171609864 0.9510114728997956  L 138.0198171609864 2.897328608853834  L 141.26487930665812 2.897328608853834  L 141.26487930665812 0.9510114728997956  L 143.14855726810953 0.9510114728997956  L 143.14855726810953 7.886270973949809  L 136.13112185069093 7.886270973949809  Z M 141.26487930665812 4.379225078838874  L 138.0198171609864 4.379225078838874  L 138.0198171609864 6.3773954550881795  L 141.26487930665812 6.3773954550881795  L 141.26487930665812 4.379225078838874  Z M 156.33231441488618 7.103356183144986  L 156.33231441488618 5.5514924075881975  L 158.85859544825956 5.5514924075881975  L 158.85859544825956 7.103356183144986  L 156.33231441488618 7.103356183144986  Z M 161 14.829980632677572  L 161 0.010831565750567148  L 163 0.010831565750567148  L 163 14.829980632677572  L 161 14.829980632677572  Z M 158 14.148513825774868  L 158 0.2680850933072995  L 160 0.2680850933072995  L 160 14.148513825774868  L 158 14.148513825774868  Z M 152.0526841156451 1.7497203766004816  C 152.53387967636965 1.3199461373094652  153.09259826014411 1.1050655293266562  153.72884575264953 1.1050655293266562  C 154.37779143756393 1.1050655293266562  154.9418631527643 1.3199461373094652  155.42105372787782 1.7497203766004816  C 155.90091264148722 2.1794946158914983  156.27082634709336 2.792031722166278  156.53080563013197 3.5873070291264866  C 156.79145322178988 4.382414533239628  156.92177642008775 5.329896144818583  156.92177642008775 6.429755704844114  C 156.92177642008775 7.529447462022577  156.79145322178988 8.478755579984803  156.53080563013197 9.277689301090751  C 156.27082634709336 10.07648876791598  155.90058668829144 10.689851985131344  155.42005943618616 11.117780273073977  C 154.9395321840809 11.545775688156972  154.3751192188895 11.759777161660077  153.72684187247094 11.759777161660077  C 153.08992604146968 11.759777161660077  152.53154873756282 11.545775688156972  152.0516898239534 11.117780273073977  C 151.571830910344 10.689851985131344  151.2019019079426 10.07648876791598  150.94192262490404 9.277689301090751  C 150.68194334186543 8.478755579984803  150.55196142343516 7.529447462022577  150.55196142343516 6.429755704844114  C 150.55196142343516 5.329896144818583  150.68194334186543 4.382414533239628  150.94192262490404 3.5873070291264866  C 151.2019019079426 2.792031722166278  151.57215686353982 2.1794946158914983  152.0526841156451 1.7497203766004816  Z M 154.51481038971352 3.3099113984506143  C 154.2962674062579 3.0437567880761365  154.03527975967106 2.910664494061624  153.731859221315 2.910664494061624  C 153.43445363979208 2.910664494061624  153.17647614557333 3.0437567880761365  152.9579331621177 3.3099113984506143  C 152.74005850221968 3.5760660088250926  152.5743111602451 3.9693280950403502  152.4606955355164 4.489722413417709  C 152.3470799107877 5.009948928948002  152.29027393956594 5.656460590343928  152.29027393956594 6.429248695383448  C 152.29027393956594 7.191967909415078  152.3470799107877 7.836191786644274  152.4606955355164 8.361922667668686  C 152.5743111602451 8.887519294412382  152.74005850221968 9.284331377089822  152.9579331621177 9.552365517386693  C 153.17647614557333 9.820198276262486  153.43445363979208 9.954116741232905  153.731859221315 9.954116741232905  C 154.03527975967106 9.954116741232905  154.2962674062579 9.820198276262486  154.51481038971352 9.552365517386693  C 154.73335337316914 9.284331377089822  154.8994266832778 8.887519294412382  155.0130423080065 8.361922667668686  C 155.1266579327352 7.836191786644274  155.18346390395698 7.191967909415078  155.18346390395698 6.429248695383448  C 155.18346390395698 5.656460590343928  155.1266579327352 5.009948928948002  155.0130423080065 4.489722413417709  C 154.8994266832778 3.9693280950403502  154.73335337316914 3.5760660088250926  154.51481038971352 3.3099113984506143  Z M 176 14.829980632677572  L 176 0.010831565750567148  L 177 0.010831565750567148  L 177 14.829980632677572  L 176 14.829980632677572  Z M 170.01431877675108 7.322860551766763  L 170.01431877675108 5.797929733317414  L 173.3145105725265 5.797929733317414  L 173.3145105725265 7.322860551766763  L 170.01431877675108 7.322860551766763  Z M 173 14.148513825774868  L 173 0.3486381418608081  L 174 0.3486381418608081  L 174 14.148513825774868  L 173 14.148513825774868  Z M 169.7205897142396 2.1759002380969106  C 169.7205897142396 2.1759002380969106  169.7205897142396 1.7930312756797  169.7205897142396 1.7930312756797  C 169.7205897142396 1.7930312756797  171.5551343693278 1.7930312756797  171.5551343693278 1.7930312756797  C 171.5551343693278 3.1654224643984983  171.38605088444362 4.455999082444567  171.04787734183358 5.664770612239164  C 170.70970379922355 6.87350853345209  170.1439716647006 7.985454339600424  169.35066731455646 9.000600948875888  C 168.5580313029082 10.015680340988006  167.48034751857503 10.924322135141397  166.11762844995621 11.726544996101953  C 166.11762844995621 11.726544996101953  165.0339422868188 10.379221128115804  165.0339422868188 10.379221128115804  C 166.16408350258126 9.699100464939747  167.07200124229504 8.949415379064746  167.75770494695104 8.130142524529601  C 168.44340865160703 7.310869669994456  168.9419851063119 6.409191333902384  169.25342558711216 5.425124140498248  C 169.5648660679124 4.441056947094112  169.7205897142396 3.357989194717532  169.7205897142396 2.1759002380969106  Z M 165.80084711699345 3.3340634854859212  L 165.80084711699345 1.7930312756797  L 170.33110010971382 1.7930312756797  L 170.33110010971382 3.3340634854859212  L 165.80084711699345 3.3340634854859212  Z M 10.18329840565083 27.624241461170538  L 10.18329840565083 20.148586694667053  L 12.098862536814016 20.148586694667053  L 12.098862536814016 27.624241461170538  L 10.18329840565083 27.624241461170538  Z M 5.3415720679216765 21.779036936626888  C 5.3415720679216765 21.779036936626888  5.3415720679216765 20.75956382261429  5.3415720679216765 20.75956382261429  C 5.3415720679216765 20.75956382261429  7.418226749928968 20.75956382261429  7.418226749928968 20.75956382261429  C 7.418226749928968 22.049188597615125  7.16082638108906 23.173882738945217  6.646013931800377 24.133650327646635  C 6.131268346237834 25.093350819215352  5.3713131011111654 25.889197292018025  4.3661489732107555 26.521188605763488  C 3.360984845310344 27.153045665228237  2.1201325958555777 27.635342465720072  0.6435973636136108 27.968086059039607  C 0.6435973636136108 27.968086059039607  0 26.42150747301217  0 26.42150747301217  C 1.247432739564087 26.16058868956272  2.2637222983581333 25.802233256472107  3.048873098112017 25.346447685403042  C 3.833957034139762 24.89052786005326  4.412291606718621 24.35878437375991  4.783881506467453 23.751226918997883  C 5.1556719077650435 23.143736561368556  5.3415720679216765 22.48634364153345  5.3415720679216765 21.779036936626888  Z M 0.8243442963620641 22.290025653361802  L 0.8243442963620641 20.75956382261429  L 6.1512849796210896 20.75956382261429  L 6.1512849796210896 22.290025653361802  L 0.8243442963620641 22.290025653361802  Z M 6.856337218176889 23.54542716973711  L 6.856337218176889 22.0798010942625  L 10.440437533909252 22.0798010942625  L 10.440437533909252 23.54542716973711  L 6.856337218176889 23.54542716973711  Z M 6.749565587287908 26.403178312812983  L 6.749565587287908 24.94842989485809  L 10.371066567421927 24.94842989485809  L 10.371066567421927 26.403178312812983  L 6.749565587287908 26.403178312812983  Z M 2.4175055223058193 29.717360881871624  L 2.4175055223058193 28.208838733240157  L 12.098862536814016 28.208838733240157  L 12.098862536814016 32.170948665182365  L 4.349100694897607 32.170948665182365  L 4.349100694897607 34.14837774531357  L 2.4440684072683863 34.14837774531357  L 2.4440684072683863 30.743087112565757  L 10.188614042002396 30.743087112565757  L 10.188614042002396 29.717360881871624  L 2.4175055223058193 29.717360881871624  Z M 2.4440684072683863 34.83357798551753  L 2.4440684072683863 33  L 12.444921935897316 33  L 12.444921935897316 34.83357798551753  L 2.4440684072683863 34.83357798551753  Z M 26 34.967797217286254  L 26 20.148586694667053  L 28 20.148586694667053  L 28 34.967797217286254  L 26 34.967797217286254  Z M 20.371912447653227 26.844199723976146  L 20.371912447653227 25.286743480428996  L 22.92475636598917 25.286743480428996  L 22.92475636598917 26.844199723976146  L 20.371912447653227 26.844199723976146  Z M 23 34.27556030032519  L 23 20.421741882580996  L 25 20.421741882580996  L 25 34.27556030032519  L 23 34.27556030032519  Z M 17.29396779015661 24.15881643360327  C 17.29396779015661 24.15881643360327  17.29396779015661 22.534404213402254  17.29396779015661 22.534404213402254  L 18.731835950658397 22.534404213402254  C 18.731835950658397 22.534404213402254  18.731835950658397 24.15881643360327  18.731835950658397 24.15881643360327  C 18.731835950658397 24.982586776534813  18.66691018208241 25.794809570895506  18.537054208262287 26.595488537635465  C 18.40726506829175 27.396167504375427  18.209705777432767 28.14940543744052  17.944379876056903 28.855168248126482  C 17.679053974681036 29.56086390166442  17.337876882421185 30.197632435233384  16.920840711867285 30.765518440219413  C 16.50380454131339 31.333404445205446  16.009906276820246 31.79647287589237  15.439154881353826 32.154724362441094  C 15.439154881353826 32.154724362441094  14.296316010960316 30.74287201764305  14.296316010960316 30.74287201764305  C 15.009755255293344 30.291449650682004  15.585518711453908 29.716583503374466  16.023607186108947 29.018271655230055  C 16.46169566076399 28.320026964233666  16.78289824558065 27.550297120095724  16.98720585808675 26.709074020747444  C 17.191713972141606 25.86778382426646  17.29396779015661 25.01769364078171  17.29396779015661 24.15881643360327  Z M 17.712809341069388 24.15881643360327  C 17.712809341069388 24.15881643360327  17.712809341069388 22.534404213402254  17.712809341069388 22.534404213402254  L 19.139855018927346 22.534404213402254  C 19.139855018927346 22.534404213402254  19.139855018927346 24.15881643360327  19.139855018927346 24.15881643360327  C 19.139855018927346 24.98936646767277  19.238496642150025 25.806467127556008  19.435786819955744 26.610099628456446  C 19.63327749931022 27.41373212935688  19.947491510176924 28.144057891989096  20.378428882432413 28.801087238988895  C 20.809499922387072 29.458116585988694  21.376313349124697 29.992606133466015  22.07885888511098 30.404558432072147  C 22.07885888511098 30.404558432072147  20.95756555083597 31.79508565167616  20.95756555083597 31.79508565167616  C 20.19420222752868 31.33292312230363  19.574666663100125 30.708635315584857  19.098951388411994 29.922254159672423  C 18.623302917696893 29.135873003759993  18.273363749410507 28.246565506459103  18.04913997836968 27.254308921961808  C 17.824916207328858 26.261783828903074  17.712809341069388 25.229946057677704  17.712809341069388 24.15881643360327  Z M 14.80558456703072 23.25613986262019  L 14.80558456703072 21.70422999529425  L 21.430045314314967 21.70422999529425  L 21.430045314314967 23.25613986262019  L 14.80558456703072 23.25613986262019  Z M 30.8501483626408 22.982477665245575  L 30.8501483626408 21.441430091516303  L 40.16529245031552 21.441430091516303  L 40.16529245031552 22.982477665245575  L 30.8501483626408 22.982477665245575  Z M 29.316139843953163 33  L 29.316139843953163 31  L 42.65878480305702 31  L 42.65878480305702 33  L 29.316139843953163 33  Z M 39.39818876180254 22.777876301982737  C 39.39818876180254 22.777876301982737  39.39818876180254 21.441430091516303  39.39818876180254 21.441430091516303  L 41.281568435746465 21.441430091516303  C 41.281568435746465 21.441430091516303  41.281568435746465 22.777876301982737  41.281568435746465 22.777876301982737  C 41.281568435746465 23.372277077295678  41.27354642995282 24.011479652376973  41.257506576808304 24.695493629678534  C 41.24146672366378 25.379507606980095  41.187931687906875 26.13796045162965  41.096905523412396 26.970859905604055  C 41.0060130266171 27.803692262445768  40.84996339721756 28.752080885622615  40.6287471045933 29.816027995701614  C 40.6287471045933 29.816027995701614  38.74005179429781 29.60609535114027  38.74005179429781 29.60609535114027  C 39.06820043872918 28.123080555600062  39.25991004611295 26.82912519482003  39.31518070234422 25.724231189290556  C 39.370518192425074 24.619202869465038  39.39818876180254 23.63708917487064  39.39818876180254 22.777876301982737  Z M 30.411359790713806 25.318761896066132  L 39.75707452370824 25.002587723610926  L 39.75707452370824 26.457551236488527  L 30.668498918972222 26.951424542945237  L 30.411359790713806 25.318761896066132  Z M 34.173201218926756 32.20115413789955  L 34.173201218926756 28.006864600818943  L 36.08364857207671 28.006864600818943  L 36.08364857207671 32.20115413789955  L 34.173201218926756 32.20115413789955  Z M 45.67598588659086 28  L 45.67598588659086 27  L 55.98289004631023 27  L 55.98289004631023 28  L 45.67598588659086 28  Z M 44.083528313228896 33  L 44.083528313228896 31  L 57.447229311003056 31  L 57.447229311003056 33  L 44.083528313228896 33  Z M 45.67598588659086 27.710832531482875  L 45.67598588659086 21  L 55.86028623233098 21  L 55.86028623233098 22.967159833964278  L 47.570188043178625 22.967159833964278  L 47.570188043178625 27.710832531482875  L 45.67598588659086 27.710832531482875  Z M 58.83497752184756 28  L 58.83497752184756 26.86615477001524  L 72.19868616801935 26.86615477001524  L 72.19868616801935 28  L 58.83497752184756 28  Z M 60.358262987060534 30.447546688767304  L 60.358262987060534 29  L 70.58967746219007 29  L 70.58967746219007 32.557597152669985  L 62.27372768905455 32.557597152669985  L 62.27372768905455 33.95565269456872  L 60.38483352042073 33.95565269456872  L 60.38483352042073 31.32958951109363  L 68.71152164382616 31.32958951109363  L 68.71152164382616 30.447546688767304  L 60.358262987060534 30.447546688767304  Z M 60.38483352042073 34.839416276276694  L 60.38483352042073 33  L 71.01694754728906 33  L 71.01694754728906 34.839416276276694  L 60.38483352042073 34.839416276276694  Z M 60.48678666080398 21.762428535809356  L 60.48678666080398 20  L 70.54707588740126 20  L 70.54707588740126 23.840644951151507  L 62.39151301252808 23.840644951151507  L 62.39151301252808 25.158669817880448  L 60.513349545766545 25.158669817880448  L 60.513349545766545 22.617983954796706  L 68.66890477224212 22.617983954796706  L 68.66890477224212 21.762428535809356  L 60.48678666080398 21.762428535809356  Z M 60.513349545766545 26  L 60.513349545766545 24.749359543893412  L 70.81444857168616 24.749359543893412  L 70.81444857168616 26  L 60.513349545766545 26  Z M 85.64167810400454 25.60340929842182  L 85.64167810400454 24.056615617471678  L 89.15239969289242 24.056615617471678  L 89.15239969289242 25.60340929842182  L 85.64167810400454 25.60340929842182  Z M 89 30.982026843846352  L 89 20.164688086023922  L 90 20.164688086023922  L 90 30.982026843846352  L 89 30.982026843846352  Z M 80.39354650990597 34  L 80.39354650990597 33  L 90.40652274877552 33  L 90.40652274877552 34  L 80.39354650990597 34  Z M 80.39354650990597 34.04316560026408  L 80.39354650990597 30.05837851789941  L 82.30338199124567 30.05837851789941  L 82.30338199124567 34.04316560026408  L 80.39354650990597 34.04316560026408  Z M 81.2631999138172 23.07993102915458  C 81.2631999138172 23.07993102915458  81.2631999138172 22.07254932258268  81.2631999138172 22.07254932258268  L 82.8196641279411 22.07254932258268  C 82.8196641279411 22.07254932258268  82.8196641279411 23.07993102915458  82.8196641279411 23.07993102915458  C 82.8196641279411 24.000564185202872  82.66361449854155 24.875561568534728  82.351505709122 25.70490337409309  C 82.04006522832177 26.53424517965145  81.57779099666229 27.258882269728264  80.96466765759524 27.87879093827039  C 80.35167798622734 28.498699606812515  79.58828114142734 28.967970801323787  78.67447736220761 29.286617935229213  C 78.67447736220761 29.286617935229213  77.714083368836 27.761779300318164  77.714083368836 27.761779300318164  C 78.3064217690768 27.557514863086595  78.8244838014312 27.29333103593528  79.26825306367145 26.96924669368376  C 79.71202232591169 26.645229478572595  80.0824978003483 26.273863833432138  80.37970291019903 25.855131813680387  C 80.67710849172195 25.43626553964792  80.89866863359738 24.990651845883445  81.04436396088056 24.518286141214645  C 81.1902597897125 24.04592043654585  81.2631999138172 23.566460320377853  81.2631999138172 23.07993102915458  Z M 81.66039649944231 23.074599747856073  C 81.66039649944231 23.074599747856073  81.66039649944231 22.07254932258268  81.66039649944231 22.07254932258268  L 83.19460387646829 22.07254932258268  C 83.19460387646829 22.07254932258268  83.19460387646829 23.074599747856073  83.19460387646829 23.074599747856073  C 83.19460387646829 23.66853060317884  83.3192479901445 24.254542856552206  83.56853403650857 24.832632006826852  C 83.81782008287263 25.41058690282077  84.19609707227272 25.930579658662467  84.70335738618778 26.392607933754274  C 85.2112860385987 26.85443482742501  85.84318057705084 27.217824105866317  86.59905862871065 27.482770457721994  C 86.59905862871065 27.482770457721994  85.66072261409863 28.975775044072513  85.66072261409863 28.975775044072513  C 84.77919907632783 28.671157242440838  84.04171458442025 28.222414259638338  83.44824003861301 27.629557378545993  C 82.8547654928058 27.03649914604023  82.40830910349104 26.34585473571254  82.10889853635706 25.557594079885376  C 81.80988894244406 24.769199169777497  81.66039649944231 23.94153209184696  81.66039649944231 23.074599747856073  Z M 78.2502207457741 22.746149800883554  L 78.2502207457741 21.215979884674002  L 86.16498146972259 21.215979884674002  L 86.16498146972259 22.746149800883554  L 78.2502207457741 22.746149800883554  Z M 93.05910942058019 27.16458361134718  L 93.05910942058019 25.650530450417545  C 93.05910942058019 25.650530450417545  94.26310487840838 25.650530450417545  94.26310487840838 25.650530450417545  C 95.28297221420542 25.650530450417545  96.17084248793303 25.637096646457014  96.92672053959282 25.610246244179265  C 97.68259859125263 25.583395841901524  98.37933642405557 25.53422641564593  99.01692053379956 25.462737218971895  C 99.65517298203945 25.391113775519067  100.28941049954939 25.289081392395445  100.9196430053451 25.156641780037784  C 100.9196430053451 25.156641780037784  101.12315156943492 26.65439381861089  101.12315156943492 26.65439381861089  C 100.47487422301637 26.794015899952495  99.821908528358 26.901424890948384  99.16427456250352 26.976606012824927  C 98.50664059664906 27.051787134701467  97.78651928192572 27.101954115049228  97.00390816845612 27.127126366950183  C 96.22129705498654 27.152097241181014  95.30770032028072 27.16458361134718  94.26310487840838 27.16458361134718  C 94.26310487840838 27.16458361134718  93.05910942058019 27.16458361134718  93.05910942058019 27.16458361134718  Z M 93.05910942058019 26.506884793403522  L 93.05910942058019 20.943116611298016  L 99.63745033016669 20.943116611298016  L 99.63745033016669 22.451638759929487  L 94.95883372025546 22.451638759929487  L 94.95883372025546 26.506884793403522  L 93.05910942058019 26.506884793403522  Z M 102.17275647274127 27.53864904585648  L 102.17275647274127 20.148586694667053  L 104.07748282446538 20.148586694667053  L 104.07748282446538 27.53864904585648  L 102.17275647274127 27.53864904585648  Z M 103.55719292741281 24.598332180307487  L 103.55719292741281 23.035636839000134  L 106.0975011220362 23.035636839000134  L 106.0975011220362 24.598332180307487  L 103.55719292741281 24.598332180307487  Z M 94.4435458752517 29.696220123754205  L 94.4435458752517 28.192614430498878  L 104.07748282446538 28.192614430498878  L 104.07748282446538 32.16560201996081  L 96.35328957581986 32.16560201996081  L 96.35328957581986 34.08424873050099  L 94.46961161436843 34.08424873050099  L 94.46961161436843 30.743363663180666  L 102.19981650354967 30.743363663180666  L 102.19981650354967 29.696220123754205  L 94.4435458752517 29.696220123754205  Z M 94.46961161436843 34.80699839864025  L 94.46961161436843 33  L 104.5366314308785 33  L 104.5366314308785 34.80699839864025  L 94.46961161436843 34.80699839864025  Z M 116.92942188854235 28.182842975438792  L 116.92942188854235 20.133069132386094  L 118.83414824026644 20.133069132386094  L 118.83414824026644 28.182842975438792  L 116.92942188854235 28.182842975438792  Z M 118.07325505062751 24.968556634054178  L 118.07325505062751 23.40063755890967  L 120.85918388668134 23.40063755890967  L 120.85918388668134 24.968556634054178  L 118.07325505062751 24.968556634054178  Z M 109.20021129105277 30.21607382408923  L 109.20021129105277 28.820507237724666  L 118.83414824026644 28.820507237724666  L 118.83414824026644 32.46062007037555  L 111.10995499162092 32.46062007037555  L 111.10995499162092 33.92314263339397  L 109.22627703016951 33.92314263339397  L 109.22627703016951 31.13526661235154  L 116.95648191935074 31.13526661235154  L 116.95648191935074 30.21607382408923  L 109.20021129105277 30.21607382408923  Z M 109.22627703016951 34.860741401470726  L 109.22627703016951 33  L 119.29329684667958 33  L 119.29329684667958 34.860741401470726  L 109.22627703016951 34.860741401470726  Z M 107.28144248128339 22.756228534404652  L 107.28144248128339 21.312035131585418  L 115.97103177534932 21.312035131585418  L 115.97103177534932 22.756228534404652  L 107.28144248128339 22.756228534404652  Z M 109.00874130482964 23.84668297291033  C 109.66437025519653 23.411505073839564  110.53787229694235 23.19391597426587  111.62925059698183 23.19391597426587  C 112.71795554303786 23.19391597426587  113.59012317841001 23.411505073839564  114.24575212877687 23.84668297291033  C 114.90138107914373 24.28179374484074  115.22919839259974 24.875969072587512  115.22919839259974 25.629189961300472  C 115.22919839259974 26.371402179040512  114.90138107914373 26.958583350887533  114.24575212877687 27.3907405586498  C 113.59012317841001 27.822629257850636  112.71795554303786 28.03857573799507  111.62925059698183 28.03857573799507  C 110.53787229694235 28.03857573799507  109.66437025519653 27.822629257850636  109.00874130482964 27.3907405586498  C 108.35244401596694 26.958583350887533  108.02430074931515 26.371402179040512  108.02430074931515 25.629189961300472  C 108.02430074931515 24.875969072587512  108.35244401596694 24.28179374484074  109.00874130482964 23.84668297291033  Z M 112.92447614171863 24.832432275827195  C 112.60835738107697 24.648842652738107  112.17661056336469 24.557049319070927  111.62925059698183 24.557049319070927  C 111.08523226332521 24.557049319070927  110.6535007424082 24.648842652738107  110.33404034904032 24.832432275827195  C 110.01391161717659 25.01602189891628  109.85384335235453 25.28090092858179  109.85384335235453 25.62706973991951  C 109.85384335235453 25.96974799997388  110.01391161717659 26.231064459966746  110.33404034904032 26.411029277491764  C 110.6535007424082 26.590926967876424  111.08523226332521 26.680881221949868  111.62925059698183 26.680881221949868  C 112.17661056336469 26.680881221949868  112.60835738107697 26.590926967876424  112.92447614171863 26.411029277491764  C 113.24126324085614 26.231064459966746  113.39965578956036 25.96974799997388  113.39965578956036 25.62706973991951  C 113.39965578956036 25.28090092858179  113.24126324085614 25.01602189891628  112.92447614171863 24.832432275827195  Z M 110.67387395245431 22.330816869060744  L 110.67387395245431 20.03106804725416  L 112.57861560097366 20.03106804725416  L 112.57861560097366 22.330816869060744  L 110.67387395245431 22.330816869060744  Z M 131.8705360615439 21.344560556683216  C 131.8705360615439 21.344560556683216  131.8705360615439 20.6044957472661  131.8705360615439 20.6044957472661  L 133.53969176632094 20.6044957472661  C 133.53969176632094 20.6044957472661  133.53969176632094 21.344560556683216  133.53969176632094 21.344560556683216  C 133.53969176632094 21.91043274745848  133.4471203715549 22.453045039011197  133.26199374523804 22.972398931724484  C 133.07686711892123 23.491819921570464  132.8088659514625 23.974630873346566  132.45799418656688 24.42081741338259  C 132.10712242167125 24.86693682627826  131.6847473409308 25.26744246207388  131.19085355792066 25.622337651619972  C 130.6969597749105 25.97723284116606  130.1389084241994 26.275665658513244  129.5166958010948 26.517654903461885  C 128.8938148394943 26.75950989412981  128.21813292585546 26.937841237060628  127.48965627450131 27.05262670407855  C 127.48965627450131 27.05262670407855  126.74379983459933 25.516618497109825  126.74379983459933 25.516618497109825  C 127.38338895983094 25.430495831400727  127.96884248763807 25.288928398329677  128.50016256913256 25.091913572226243  C 129.03148265062705 24.894965873263164  129.50633440329705 24.659448305803746  129.92470722096613 24.385372842905202  C 130.3430800386352 24.111297380006665  130.69662378319282 23.807815338381904  130.98534111365225 23.47493749078165  C 131.27339013549238 23.141925388900674  131.49293328138236 22.79478147857951  131.6439752270028 22.433509330729954  C 131.79501717262326 22.072170055740038  131.8705360615439 21.709189001535407  131.8705360615439 21.344560556683216  Z M 132.22442741979842 21.344560556683216  C 132.22442741979842 21.344560556683216  132.22442741979842 20.6044957472661  132.22442741979842 20.6044957472661  L 133.88855047893614 20.6044957472661  C 133.88855047893614 20.6044957472661  133.88855047893614 21.344560556683216  133.88855047893614 21.344560556683216  C 133.88855047893614 21.705698450252058  133.96475189771544 22.066104787023928  134.11713049045105 22.425765913512524  C 134.27017742168255 22.78522565858005  134.49172223688618 23.13139708058438  134.78177624433732 23.464274928184633  C 135.07183025178853 23.797287030065604  135.42503271647854 24.101726196084154  135.84140054853657 24.377614061764724  C 136.25843671909047 24.653300546024223  136.73262123869705 24.890591716358443  137.26394132019155 25.08948607238427  C 137.79526140168602 25.288111919848664  138.37871326017952 25.430495831400727  139.01429241418904 25.516618497109825  C 139.01429241418904 25.516618497109825  138.269445562774 27.05262670407855  138.269445562774 27.05262670407855  C 137.54431054414607 26.937841237060628  136.8712975030077 26.758618246454965  136.25042155689482 26.514950853005008  C 135.62954561078192 26.271082078133972  135.07116827699846 25.970860293988945  134.5752695083773 25.614286955941537  C 134.08003907825193 25.25764649075377  133.65698146765286 24.856299320079184  133.30610970275723 24.41024703432388  C 132.95523793786163 23.964060494287857  132.68723677040288 23.48213152771937  132.50211014408603 22.964455783507397  C 132.31698351776922 22.44671294216273  132.22442741979842 21.906740844761714  132.22442741979842 21.344560556683216  Z M 131.87555341038797 34.97855196342157  L 131.87555341038797 29.485457827348135  L 133.77527771006325 29.485457827348135  L 133.77527771006325 34.97855196342157  L 131.87555341038797 34.97855196342157  Z M 126.20045766709553 29.8462334684188  L 126.20045766709553 28  L 139.54259783195593 28  L 139.54259783195593 29.8462334684188  L 126.20045766709553 29.8462334684188  Z M 148.5369451779131 29.764896859789715  C 148.5369451779131 29.764896859789715  148.5369451779131 29.18752063155381  148.5369451779131 29.18752063155381  L 149.98053433984074 29.18752063155381  C 149.98053433984074 29.18752063155381  149.98053433984074 29.764896859789715  149.98053433984074 29.764896859789715  C 149.98053433984074 30.48200394714273  149.86023482972112 31.170244983788866  149.61963704935886 31.82962375069357  C 149.37970759255415 32.488935360450256  149.01648142474758 33.07381338420749  148.52993924568574 33.58430667443935  C 148.04339706662387 34.09459855324247  147.42185218448407 34.4876920864191  146.6653057943284 34.763579952099676  C 146.6653057943284 34.763579952099676  145.73198712856046 33.362605264821354  145.73198712856046 33.362605264821354  C 146.37358120952655 33.1370618841879  146.90087901065903 32.83276339408978  147.31390520999082 32.44974241285583  C 147.7275997478185 32.066788558762234  148.0350437018456 31.64183970159256  148.23621018317425 31.1748440781295  C 148.4367083409453 30.707647103253024  148.5369451779131 30.237665297293006  148.5369451779131 29.764896859789715  Z M 149.00410930504054 29.764896859789715  C 149.00410930504054 29.764896859789715  149.00410930504054 29.18752063155381  149.00410930504054 29.18752063155381  L 150.3775167703323 29.18752063155381  C 150.3775167703323 29.18752063155381  150.3775167703323 29.764896859789715  150.3775167703323 29.764896859789715  C 150.3775167703323 30.244512145578987  150.46675202965793 30.724218864715006  150.6451953905223 31.204035531925353  C 150.8229704278291 31.683650817714625  151.09998677053508 32.122139402141464  151.47625498000187 32.51952535135097  C 151.8518548509728 32.91691130056048  152.33739750994616 33.23913824354049  152.9328770114879 33.486161933993074  C 152.9328770114879 33.486161933993074  152.16095483246917 34.90889193631083  152.16095483246917 34.90889193631083  C 151.40106680958726 34.61501429709064  150.78921964749165 34.20023332620649  150.32540058889407 33.6645678084549  C 149.8615815302965 33.128902290703316  149.5254009629231 32.52067878587092  149.31688287764612 31.839886851291272  C 149.10836479236917 31.159027819578927  149.00410930504054 30.46737047060574  149.00410930504054 29.764896859789715  Z M 153.93235431673935 29.764896859789715  C 153.93235431673935 29.764896859789715  153.93235431673935 29.18752063155381  153.93235431673935 29.18752063155381  L 155.30576178203108 29.18752063155381  C 155.30576178203108 29.18752063155381  155.30576178203108 29.764896859789715  155.30576178203108 29.764896859789715  C 155.30576178203108 30.41756297267384  155.1988373923254 31.08253942890213  154.9849726887112 31.75984081219843  C 154.77110798509696 32.43694084408131  154.43526869759117 33.0539975844072  153.97746456595019 33.61100917270103  C 153.51899212568986 34.16815501527558  152.91349125140275 34.60078358339581  152.16095483246917 34.90889193631083  C 152.16095483246917 34.90889193631083  151.377009372379 33.486161933993074  151.377009372379 33.486161933993074  C 151.97248887392072 33.21410022528998  152.45835748608988 32.86955611880719  152.83462569555667 32.45256937469711  C 153.2102255665276 32.035515503446675  153.48725722096714 31.59163496222834  153.66570058183152 31.12094743606852  C 153.84347561913827 30.65019278276834  153.93235431673935 30.19819522893809  153.93235431673935 29.764896859789715  Z M 154.36242371537026 29.764896859789715  C 154.36242371537026 29.764896859789715  154.36242371537026 29.18752063155381  154.36242371537026 29.18752063155381  L 155.80500328881098 29.18752063155381  C 155.80500328881098 29.18752063155381  155.80500328881098 29.764896859789715  155.80500328881098 29.764896859789715  C 155.80500328881098 30.269885784527453  155.9055966875034 30.758662619642436  156.10676316883203 31.231229675724652  C 156.30792965016067 31.703595380393452  156.61501705740147 32.125022088211466  157.02804325673327 32.495557631392266  C 157.44173779456094 32.86595892029235  157.96939214247973 33.15498453058716  158.61098622344582 33.362605264821354  C 158.61098622344582 33.362605264821354  157.67766755767786 34.763579952099676  157.67766755767786 34.763579952099676  C 156.92112116752222 34.49494169754723  156.2968920862101 34.112495453067545  155.80500328881098 33.61623290653818  C 155.31311449141188 33.120238868570254  154.94954705867596 32.54079724295224  154.71429589665095 31.877927924764187  C 154.4797130581835 31.21485725516272  154.36242371537026 30.510532531680408  154.36242371537026 29.764896859789715  Z M 155.41804025921235 28.570013836310128  L 155.41804025921235 20.164688086023922  L 157.33381089711148 20.164688086023922  L 157.33381089711148 28.570013836310128  L 155.41804025921235 28.570013836310128  Z M 147.2998780487408 21.39410920852092  C 147.89869918300874 21.09325046673403  148.57604157572328 20.942809332837005  149.3319196273831 20.942809332837005  C 150.09180765026497 20.942809332837005  150.77049974614846 21.09325046673403  151.3679842631778 21.39410920852092  C 151.9654687802071 21.695035077448164  152.43696907076483 22.1105363222483  152.78249421732318 22.640630377373068  C 153.12868770237742 23.170590178217115  153.3017898226841 23.781207334248514  153.3017898226841 24.472470922678202  C 153.3017898226841 25.15997545126311  153.12868770237742 25.767871572500816  152.78249421732318 26.296153224843554  C 152.43696907076483 26.824434877186285  151.9654687802071 27.239029110388525  151.3679842631778 27.53995497931577  C 150.77049974614846 27.840880848243017  150.09180765026497 27.991347038537985  149.3319196273831 27.991347038537985  C 148.57604157572328 27.991347038537985  147.89869918300874 27.840880848243017  147.2998780487408 27.53995497931577  C 146.700388575977 27.239029110388525  146.22755381929244 26.824434877186285  145.88136033423822 26.296153224843554  C 145.53583518767988 25.767871572500816  145.36305902056898 25.15997545126311  145.36305902056898 24.472470922678202  C 145.36305902056898 23.781207334248514  145.53583518767988 23.170590178217115  145.88136033423822 22.640630377373068  C 146.22755381929244 22.1105363222483  146.700388575977 21.695035077448164  147.2998780487408 21.39410920852092  Z M 150.4176249674943 22.76810484692265  C 150.10284285396784 22.610962867020117  149.7409358554928 22.53239153948265  149.3319196273831 22.53239153948265  C 148.9335966359479 22.53239153948265  148.5753823196996 22.610962867020117  148.2572585734469 22.76810484692265  C 147.9391348271942 22.925112572544464  147.688512133715 23.147433175268286  147.5053904930092 23.43506811046573  C 147.32226885230344 23.72277017280353  147.2307059405918 24.06857376088452  147.2307059405918 24.472470922678202  C 147.2307059405918 24.869185600484116  147.32226885230344 25.213109688650373  147.5053904930092 25.504235175131164  C 147.688512133715 25.795427788752313  147.9391348271942 26.018720879792966  148.2572585734469 26.17411758405383  C 148.5753823196996 26.32931290689361  148.9335966359479 26.406911746114247  149.3319196273831 26.406911746114247  C 149.7409358554928 26.406911746114247  150.10284285396784 26.32931290689361  150.4176249674943 26.17411758405383  C 150.73240708102077 26.018720879792966  150.98135405838218 25.795427788752313  151.16447569908794 25.504235175131164  C 151.34759733979374 25.213109688650373  151.43916025150534 24.869185600484116  151.43916025150534 24.472470922678202  C 151.43916025150534 24.06857376088452  151.34759733979374 23.72277017280353  151.16447569908794 23.43506811046573  C 150.98135405838218 23.147433175268286  150.73240708102077 22.925112572544464  150.4176249674943 22.76810484692265  Z M 161.93924763851655 21.850525270580633  C 162.50999903398298 21.420717452715607  163.15894609321882 21.205808967614605  163.88608606758123 21.205808967614605  C 164.61723601316575 21.205808967614605  165.2671915255795 21.420717452715607  165.83593796531142 21.850525270580633  C 166.40468440504335 22.280333088445662  166.85045826449945 22.888319742800245  167.17326029059356 23.67449948728394  C 167.49606231668764 24.460544977486915  167.6574650476365 25.389010073356147  167.6574650476365 26.459871188869144  C 167.6574650476365 27.538049012642972  167.49606231668764 28.47199092697242  167.17326029059356 29.261728379887483  C 166.85045826449945 30.05146583280255  166.40468440504335 30.661216367549375  165.83593796531142 31.090957058274043  C 165.2671915255795 31.52056349471799  164.61723601316575 31.735381446702114  163.88608606758123 31.735381446702114  C 163.15894609321882 31.735381446702114  162.50999903398298 31.52056349471799  161.93924763851655 31.090957058274043  C 161.36849624305012 30.661216367549375  160.9217291674583 30.05146583280255  160.5989271413642 29.261728379887483  C 160.2761251152701 28.47199092697242  160.11472238432123 27.538049012642972  160.11472238432123 26.459871188869144  C 160.11472238432123 25.389010073356147  160.2761251152701 24.460544977486915  160.5989271413642 23.67449948728394  C 160.9217291674583 22.888319742800245  161.36849624305012 22.280333088445662  161.93924763851655 21.850525270580633  Z M 164.91565216910183 23.35150373299433  C 164.62426151453548 23.07816663863208  164.28106742629018 22.94148671854698  163.88608606758123 22.94148671854698  C 163.49845631282062 22.94148671854698  163.1579464237476 23.07816663863208  162.8645507835702 23.35150373299433  C 162.57115514339282 23.624773700216224  162.34258149558374 24.023334359378183  162.17884134261598 24.54718568047254  C 162.01576951320584 25.070969904434204  161.93423028967248 25.708529800070917  161.93423028967248 26.459871188869144  C 161.93423028967248 27.21127967480007  162.01576951320584 27.851545301322744  162.17884134261598 28.380699576482485  C 162.34258149558374 28.90978675450953  162.57115514339282 29.312897805576355  162.8645507835702 29.589993959783392  C 163.1579464237476 29.866888732569354  163.49845631282062 30.005342255529257  163.88608606758123 30.005342255529257  C 164.28106742629018 30.005342255529257  164.62426151453548 29.866888732569354  164.91565216910183 29.589993959783392  C 165.2070428236682 29.312897805576355  165.4346079884228 28.90978675450953  165.59834814139055 28.380699576482485  C 165.7620882943583 27.851545301322744  165.84395348602573 27.21127967480007  165.84395348602573 26.459871188869144  C 165.84395348602573 25.708529800070917  165.7620882943583 25.070969904434204  165.59834814139055 24.54718568047254  C 165.4346079884228 24.023334359378183  165.2070428236682 23.624773700216224  164.91565216910183 23.35150373299433  Z M 170 35  L 170 20.13780122068564  L 172 20.13780122068564  L 172 35  L 170 35  Z M 167.08403408386354 27.112223361591248  L 167.08403408386354 25.57099142078537  L 171.10302228873255 25.57099142078537  L 171.10302228873255 27.112223361591248  L 167.08403408386354 27.112223361591248  Z M 177.6663264485821 31.940582002963918  L 177.6663264485821 27.705086424262003  L 179.5650411597705 27.705086424262003  L 179.5650411597705 31.940582002963918  L 177.6663264485821 31.940582002963918  Z M 183.0446949574928 31.940582002963918  L 183.0446949574928 27.705086424262003  L 184.9494213092169 27.705086424262003  L 184.9494213092169 31.940582002963918  L 183.0446949574928 31.940582002963918  Z M 174.63679614807165 33  L 174.63679614807165 31  L 188 31  L 188 33  L 174.63679614807165 33  Z M 178.48335887681165 21.425620614697394  C 179.30941127547527 21.099589615383117  180.24840851796347 20.93657158007852  181.30035550403105 20.93657158007852  C 182.3556441228248 20.93657158007852  183.29498261530406 21.099589615383117  184.11836171973732 21.425620614697394  C 184.94240916266645 21.75151735973095  185.5906736621671 22.20730467124442  186.0631809718282 22.79297903834133  C 186.53568828148926 23.378653405438236  186.77194268323365 24.072638868876158  186.77194268323365 24.874928886984737  C 186.77194268323365 25.666545839814532  186.53568828148926 26.35612719870085  186.0631809718282 26.943681125727814  C 185.5906736621671 27.531033641326033  184.94240916266645 27.98679589644156  184.11836171973732 28.310947365833446  C 183.29498261530406 28.635165962365686  182.3556441228248 28.797246258226284  181.30035550403105 28.797246258226284  C 180.24840851796347 28.797246258226284  179.30941127547527 28.635165962365686  178.48335887681165 28.310947365833446  C 177.6579748166439 27.98679589644156  177.00902775740803 27.531033641326033  176.53652044774697 26.943681125727814  C 176.06401313808587 26.35612719870085  175.8277587363415 25.666545839814532  175.8277587363415 24.874928886984737  C 175.8277587363415 24.072638868876158  176.06401313808587 23.378653405438236  176.53652044774697 22.79297903834133  C 177.00902775740803 22.20730467124442  177.6579748166439 21.75151735973095  178.48335887681165 21.425620614697394  Z M 183.18202958530387 22.726821985686094  C 182.64268956136522 22.53195519806648  182.01546556472718 22.434523349651283  181.30035550403105 22.434523349651283  C 180.58791873756525 22.434523349651283  179.9610207538761 22.53195519806648  179.41967571444985 22.726821985686094  C 178.87899901351943 22.92162164616534  178.4572911658424 23.200498755124418  178.1545389659822 23.56344905147529  C 177.851786766122 23.92626509354544  177.70040770841314 24.363428719655154  177.70040770841314 24.874928886984737  C 177.70040770841314 25.37568889190284  177.851786766122 25.807566458260997  178.1545389659822 26.170583881752226  C 178.4572911658424 26.53339992382238  178.87899901351943 26.814091055977247  179.41967571444985 27.01264977630128  C 179.9610207538761 27.211007115204236  180.58791873756525 27.31018751009629  181.30035550403105 27.31018751009629  C 182.01546556472718 27.31018751009629  182.64268956136522 27.211007115204236  183.18202958530387 27.01264977630128  C 183.72136960924254 26.814091055977247  184.14241025373275 26.53339992382238  184.44516245359293 26.170583881752226  C 184.74791465345314 25.807566458260997  184.89929371116202 25.37568889190284  184.89929371116202 24.874928886984737  C 184.89929371116202 24.363428719655154  184.74791465345314 23.92626509354544  184.44516245359293 23.56344905147529  C 184.14241025373275 23.200498755124418  183.72136960924254 22.92162164616534  183.18202958530387 22.726821985686094  Z " fill-rule="nonzero" fill="#4c4c57" stroke="none" transform="matrix(1 0 0 1 86 249 )" />
  </g>
</svg>