<?xml version="1.0" encoding="utf-8"?>
<svg version="1.1" xmlns:xlink="http://www.w3.org/1999/xlink" width="29px" height="29px" xmlns="http://www.w3.org/2000/svg">
  <g transform="matrix(1 0 0 1 -444 -237 )">
    <path d="M 29 14.499946899478882  C 29 6.495986823484974  22.50396426333059 0  14.499969656829201 0  C 6.49600539349861 0  0 6.495986823484974  0 14.499946899478882  C 0 22.503937318627713  6.49600539349861 29  14.499969656829201 29  C 22.50396426333059 29  29 22.503937318627713  29 14.499946899478882  Z M 15.95000910295124 13.049984069843664  L 15.95000910295124 21.749973449739443  L 13.049990897048762 21.749973449739443  L 13.049990897048762 13.049984069843664  L 15.95000910295124 13.049984069843664  Z M 15.95000910295124 7.249996207105634  L 15.95000910295124 10.149952209530994  L 13.049990897048762 10.149952209530994  L 13.049990897048762 7.249996207105634  L 15.95000910295124 7.249996207105634  Z " fill-rule="nonzero" fill="#3578ff" stroke="none" transform="matrix(1 0 0 1 444 237 )" />
  </g>
</svg>