<?xml version="1.0" encoding="utf-8"?>
<svg version="1.1" xmlns:xlink="http://www.w3.org/1999/xlink" width="22px" height="35px" xmlns="http://www.w3.org/2000/svg">
  <g transform="matrix(1 0 0 1 -562 -388 )">
    <path d="M 22 31  L 22 35  L 0 35  L 0 31.71948752528658  C 0 31.71948752528658  8.97906336986778 22.349966284558327  8.97906336986778 22.349966284558327  C 10.647825895454124 20.61925708430353  12.052476122384281 19.077365401086446  13.193050843771747 17.724269147561248  C 14.333625565159213 16.371105791719128  15.202480748866114 15.037634625116555  15.799582463465555 13.723870532703978  C 16.39661888488897 12.410092995820031  16.69513852644398 10.966509327938864  16.69513852644398 9.393122049898853  C 16.69513852644398 7.4421218251292425  16.132531056573345 5.951333177789031  15.007306889352819 4.920768712070128  C 13.882017312152733 3.8901975241155404  12.400775269659011 3.3749157113958193  10.56361451809325 3.3749157113958193  C 8.956123389215543 3.3749157113958193  7.532360716669114 3.658125421443021  6.292275574112734 4.224544841537424  C 5.052190431556356 4.790964261631828  3.78148430789106 5.593395134550074  2.480167014613779 6.631827376938638  C 2.480167014613779 6.631827376938638  0.4363256784968685 3.9885367498314226  0.4363256784968685 3.9885367498314226  C 1.3242899789192981 3.2175773437115875  2.2926292445979852 2.533155558323105  3.34133611691023 1.935266351989211  C 4.39004953022043 1.3373825474518501  5.515305584805993 0.8653663640398475  6.717118997912317 0.519217801753203  C 7.918925870020687 0.17307596170224349  9.201078156090977 0  10.56361451809325 0  C 12.630444892347066 0  14.414040710831486 0.3697476908983234  15.914405010438413 1.1092380310182064  C 17.41470401686932 1.8487283711380893  18.574459221932155 2.9028978474248954  19.393587987125958 4.271746459878624  C 20.21265140074197 5.640595072332354  20.62218923973556 7.269049224544841  20.62218923973556 9.157113958192852  C 20.62218923973556 10.982243200719262  20.26999615461526 12.677551547337929  19.565702200765486 14.243057604236906  C 18.861473598493497 15.808624041217127  17.874034969194447 17.35843295755213  16.603340292275572 18.892447741065407  C 15.332645615356698 20.426529746935536  13.847623693669265 22.05107575937667  12.148225469728601 23.766076295234885  C 12.148225469728601 23.766076295234885  4.845511482254697 31.247440611654305  4.845511482254697 31.247440611654305  L 4.845511482254697 31  L 22 31  Z " fill-rule="nonzero" fill="#3d3d3d" stroke="none" transform="matrix(1 0 0 1 562 388 )" />
  </g>
</svg>