<?xml version="1.0" encoding="utf-8"?>
<svg version="1.1" xmlns:xlink="http://www.w3.org/1999/xlink" width="46px" height="24px" xmlns="http://www.w3.org/2000/svg">
  <g transform="matrix(1 0 0 1 -931 -524 )">
    <path d="M 11.499984685717635 19.439987664473684  C 7.56701304202572 19.439987664473684  4.370022358852254 16.103949617084705  4.370022358852254 12  C 4.370022358852254 7.895999787983142  7.56701304202572 4.560012335526316  11.499984685717635 4.560012335526316  C 11.499984685717635 4.560012335526316  20.70000918856942 4.560012335526316  20.70000918856942 4.560012335526316  L 20.70000918856942 0  C 20.70000918856942 0  11.499984685717635 0  11.499984685717635 0  C 5.152012209311617 0  0 5.37600017346834  0 12  C 0 18.623999826531662  5.152012209311617 24  11.499984685717635 24  C 11.499984685717635 24  20.70000918856942 24  20.70000918856942 24  L 20.70000918856942 19.439987664473684  C 20.70000918856942 19.439987664473684  11.499984685717635 19.439987664473684  11.499984685717635 19.439987664473684  Z M 13.800006125712947 10  L 13.800006125712947 14  L 32.19999387428705 14  L 32.19999387428705 10  L 13.800006125712947 10  Z M 46 12  C 46 5.37600017346834  40.84801794068179 0  34.500015314282365 0  C 34.500015314282365 0  25.29999081143058 0  25.29999081143058 0  L 25.29999081143058 4.560012335526316  C 25.29999081143058 4.560012335526316  34.500015314282365 4.560012335526316  34.500015314282365 4.560012335526316  C 38.43296685797868 4.560012335526316  41.630038898277206 7.895999787983142  41.630038898277206 12  C 41.630038898277206 16.103949617084705  38.43296685797868 19.439987664473684  34.500015314282365 19.439987664473684  C 34.500015314282365 19.439987664473684  25.29999081143058 19.439987664473684  25.29999081143058 19.439987664473684  L 25.29999081143058 24  C 25.29999081143058 24  34.500015314282365 24  34.500015314282365 24  C 40.84801794068179 24  46 18.623999826531662  46 12  Z " fill-rule="nonzero" fill="#000000" stroke="none" transform="matrix(1 0 0 1 931 524 )" />
  </g>
</svg>