<?xml version="1.0" encoding="utf-8"?>
<svg version="1.1" xmlns:xlink="http://www.w3.org/1999/xlink" width="315px" height="47px" xmlns="http://www.w3.org/2000/svg">
  <g transform="matrix(1 0 0 1 -481 -230 )">
    <path d="M 5.394391302276601 2.764093533552353  C 5.394391302276601 2.764093533552353  5.394391302276601 0.9345786660185142  5.394391302276601 0.9345786660185142  L 6.764850038517206 0.9345786660185142  C 6.764850038517206 0.9345786660185142  6.764850038517206 2.764093533552353  6.764850038517206 2.764093533552353  C 6.764850038517206 3.9100202257574614  6.5603951887855345 4.978376546823517  6.151463537626216 5.969156527211941  C 5.742531886466899 6.959936507600365  5.165061487638899 7.822026771148389  4.419030210735011 8.555418806830712  C 3.673212136327452 9.288546409685345  2.7973632950552063 9.847982485849164  1.7914814232427032 10.233717342210017  C 1.7914814232427032 10.233717342210017  0.9094809840419866 8.920432094492904  0.9094809840419866 8.920432094492904  C 1.8204174519042657 8.587649025311547  2.6121455475143818 8.112593470373584  3.2846723597510885 7.49528549560324  C 3.9572058438736826 6.877845304419052  4.476904740230138 6.162251241140888  4.843773903808846 5.348479604927461  C 5.210856269883884 4.534536093286471  5.394391302276601 3.6730660116027605  5.394391302276601 2.764093533552353  Z M 5.69579279408729 2.8877417090943625  C 5.69579279408729 2.8877417090943625  5.69579279408729 0.9345786660185142  5.69579279408729 0.9345786660185142  L 7.038465984988941 0.9345786660185142  C 7.038465984988941 0.9345786660185142  7.038465984988941 2.8877417090943625  7.038465984988941 2.8877417090943625  C 7.038465984988941 3.492211688766493  7.145693258589431 4.079222777646547  7.360150009895571 4.648774975734524  C 7.574819978590645 5.218122259067561  7.87672312771405 5.7478137794203805  8.265879487816054 6.237832573846725  C 8.655235736427818 6.727626594459101  9.118612925158892 7.161150000860157  9.656010756157233 7.538423154495834  C 10.1933952433838 7.915431875303822  10.787646179847284 8.216327043579165  11.438738665116425 8.441091149660444  C 11.438738665116425 8.441091149660444  10.559818730942311 9.734434119432825  10.559818730942311 9.734434119432825  C 9.596232505293997 9.37520821076518  8.748505782175531 8.856364583199195  8.016633081109218 8.177907551351865  C 7.284966910653347 7.499516598159284  6.715204386707329 6.706362743419348  6.30731879194241 5.798421577038662  C 5.899633085687251 4.890275436798695  5.69579279408729 3.920043494759784  5.69579279408729 2.8877417090943625  Z M 14 10.884398465681453  L 14 0.007746924360928639  L 15 0.007746924360928639  L 15 10.884398465681453  L 14 10.884398465681453  Z M 14.569721274084873 6.022462024328252  L 14.569721274084873 4.638546614664235  L 17.69012036578371 4.638546614664235  L 17.69012036578371 6.022462024328252  L 14.569721274084873 6.022462024328252  Z M 6.090554938238851 11.756124155537277  C 6.982129235835111 11.498901466572395  8.040290635337339 11.370291008655089  9.265000118127176 11.370291008655089  C 10.502815448474305 11.370291008655089  11.562830976978564 11.498901466572395  12.445057307172876 11.756124155537277  C 13.327483496091745 12.01308241167447  14.007386316457975 12.385763542087524  14.48477863548006 12.87416270022036  C 14.962437472515159 13.36229742552551  15.201255304588022 13.952009050912029  15.201255304588022 14.643290897589228  C 15.201255304588022 15.329548579644685  14.962437472515159 15.916009673066972  14.48477863548006 16.402690047372005  C 14.007386316457975 16.889436529883962  13.327483496091745 17.26139318882062  12.445057307172876 17.518549769578577  C 11.562830976978564 17.77577245854346  10.502815448474305 17.904382916460765  9.265000118127176 17.904382916460765  C 8.040290635337339 17.904382916460765  6.982129235835111 17.77577245854346  6.090554938238851 17.518549769578577  C 5.1991938431389215 17.26139318882062  4.514693080699706 16.889436529883962  4.037047587436381 16.402690047372005  C 3.559408766058942 15.916009673066972  3.320601418378187 15.329548579644685  3.320601418378187 14.643290897589228  C 3.320601418378187 13.952009050912029  3.559408766058942 13.36229742552551  4.037047587436381 12.87416270022036  C 4.514693080699706 12.385763542087524  5.1991938431389215 12.01308241167447  6.090554938238851 11.756124155537277  Z M 11.573640385241772 12.911944087191532  C 10.929877026189715 12.757451822981642  10.160345580080145 12.680202107675939  9.265000118127176 12.680202107675939  C 8.374678467106168 12.680202107675939  7.608335408035173 12.757451822981642  6.965997866739376 12.911944087191532  C 6.323660325443579 13.066502459608344  5.82770637310628 13.289512614778117  5.478113938890681 13.580978763885245  C 5.128521504675083 13.872246588371606  4.953726583223695 14.226353499500204  4.953726583223695 14.643290897589228  C 4.953726583223695 15.05520416060868  5.128521504675083 15.408144736197452  5.478113938890681 15.702122967615448  C 5.82770637310628 15.996035090826524  6.323660325443579 16.220276034821463  6.965997866739376 16.374834407238275  C 7.608335408035173 16.5291283468274  8.374678467106168 16.606273772521018  9.265000118127176 16.606273772521018  C 10.160345580080145 16.606273772521018  10.929877026189715 16.5291283468274  11.573640385241772 16.374834407238275  C 12.217470403582286 16.220276034821463  12.712096799554132 15.996035090826524  13.057498306521047 15.702122967615448  C 13.40309970199772 15.408144736197452  13.57590765243344 15.05520416060868  13.57590765243344 14.643290897589228  C 13.57590765243344 14.226353499500204  13.40309970199772 13.872246588371606  13.057498306521047 13.580978763885245  C 12.712096799554132 13.289512614778117  12.217470403582286 13.066502459608344  11.573640385241772 12.911944087191532  Z M 34 17.937201430013214  L 34 0  L 35 0  L 35 17.937201430013214  L 34 17.937201430013214  Z M 30.07832558018841 8.555116192597863  L 30.07832558018841 7.194441556016631  L 33.55853375900429 7.194441556016631  L 33.55853375900429 8.555116192597863  L 30.07832558018841 8.555116192597863  Z M 29 17.01967507601573  L 29 0.3984975525269093  L 31 0.3984975525269093  L 31 17.01967507601573  L 29 17.01967507601573  Z M 20.036580694611036 13.523073530429633  L 20.036580694611036 12.1390824672074  C 20.036580694611036 12.1390824672074  21.212815113926887 12.1390824672074  21.212815113926887 12.1390824672074  C 22.100838121548655 12.1390824672074  22.90694973086339 12.12721234634946  23.63113356000841 12.103479902712744  C 24.355517247877994 12.079549136302271  25.049899311597233 12.028525940436856  25.714317459235474 11.95038736231455  C 26.378935525168675 11.872116567778393  27.05591760834713 11.761380541120124  27.745254773209375 11.618192588204806  C 27.745254773209375 11.618192588204806  27.912059545392403 12.986614149146964  27.912059545392403 12.986614149146964  C 27.192073345167152 13.13535510278723  26.492809486372686 13.250011210175996  25.81426612232631 13.33059574762617  C 25.135856017286436 13.41118028507634  24.427304476344645 13.463434284543004  23.688595653771955 13.487365050953477  C 22.949820231481215 13.511163602797115  22.124557807714094 13.523073530429633  21.212815113926887 13.523073530429633  C 21.212815113926887 13.523073530429633  20.036580694611036 13.523073530429633  20.036580694611036 13.523073530429633  Z M 20 12.76726422246653  L 20 2.186796361546745  L 26.74964164862161 2.186796361546745  L 26.74964164862161 3.535396690237311  L 21.67842887369029 3.535396690237311  L 21.67842887369029 12.76726422246653  L 20 12.76726422246653  Z M 42.86946695208258 11.651404500259959  C 43.761021234021186 11.38611675781143  44.82040513747135 11.253481914775461  46.04763313804264 11.253481914775461  C 47.27479453889589 11.253481914775461  48.33156741171833 11.38611675781143  49.21799131126201 11.651404500259959  C 50.104348611087644 11.916626134501564  50.78623733020217 12.296219961035398  51.26362964922425 12.790172119893185  C 51.74128848625935 13.283925954130202  51.98013681838198 13.88146819562642  51.98013681838198 14.582798312442756  C 51.98013681838198 15.281682455155147  51.74128848625935 15.880673639604156  51.26362964922425 16.379782149945353  C 50.78623733020217 16.87889066028655  50.104348611087644 17.26105992898626  49.21799131126201 17.526281563227865  C 48.33156741171833 17.79156930567639  47.27479453889589 17.924219279424  46.04763313804264 17.924219279424  C 44.82040513747135 17.924219279424  43.761021234021186 17.79156930567639  42.86946695208258 17.526281563227865  C 41.9780459291505 17.26105992898626  41.29355180881196 16.87880147183394  40.815959601280106 16.379494666424147  C 40.33830076424501 15.880187861014354  40.099452432122376 15.281092357401091  40.099452432122376 14.5822082146887  C 40.099452432122376 13.883125776907717  40.33830076424501 13.286179011660707  40.815959601280106 12.791367446112936  C 41.29355180881196 12.296621988772086  41.9780459291505 11.916626134501564  42.86946695208258 11.651404500259959  Z M 48.35252189903573 12.812777403086987  C 47.70875853998368 12.65683078787698  46.94045335075786 12.578856601094884  46.04763313804264 12.578856601094884  C 45.15481292532743 12.578856601094884  44.38724354980227 12.65683078787698  43.74487938053334 12.812777403086987  C 43.102515211264404 12.968724018296994  42.60650302885162 13.19649816077347  42.25690395253534 13.496095471571163  C 41.90737150572231 13.79542837909334  41.73260809701765 14.156834883367768  41.73260809701765 14.580316875733395  C 41.73260809701765 15.015169302376608  41.90737150572231 15.383617468446833  42.25690395253534 15.685660753348474  C 42.60650302885162 15.987704038250117  43.102515211264404 16.217949318504296  43.74487938053334 16.37640800124909  C 44.38724354980227 16.534800590563044  45.15481292532743 16.614005566170302  46.04763313804264 16.614005566170302  C 46.94045335075786 16.614005566170302  47.70875853998368 16.534800590563044  48.35252189903573 16.37640800124909  C 48.996351917376245 16.217949318504296  49.49094781329833 15.987704038250117  49.83634932026524 15.685660753348474  C 50.182017345245164 15.383617468446833  50.35485016632694 15.015169302376608  50.35485016632694 14.580316875733395  C 50.35485016632694 14.156834883367768  50.182017345245164 13.79542837909334  49.83634932026524 13.496095471571163  C 49.49094781329833 13.19649816077347  48.996351917376245 12.968724018296994  48.35252189903573 12.812777403086987  Z M 51 10.775623779683961  L 51 0.007746924360928639  L 52 0.007746924360928639  L 52 10.775623779683961  L 51 10.775623779683961  Z M 51.34860278787884 5.891687283602654  L 51.34860278787884 4.50778700465028  L 54.46900187957767 4.50778700465028  L 54.46900187957767 5.891687283602654  L 51.34860278787884 5.891687283602654  Z M 38.52003785491891 9.40602202323369  L 38.52003785491891 1.1295076241080526  L 40.15752452688129 1.1295076241080526  L 40.15752452688129 3.825437301711219  L 45.260182853123766 3.825437301711219  L 45.260182853123766 1.1295076241080526  L 46.885530505278346 1.1295076241080526  L 46.885530505278346 9.40602202323369  L 38.52003785491891 9.40602202323369  Z M 45.260182853123766 5.12754095352457  L 40.15752452688129 5.12754095352457  L 40.15752452688129 8.076274561249605  L 45.260182853123766 8.076274561249605  L 45.260182853123766 5.12754095352457  Z M 63.49878561389144 8.331015222461703  L 63.49878561389144 6.970340585880471  L 66.9099721800816 6.970340585880471  L 66.9099721800816 8.331015222461703  L 63.49878561389144 8.331015222461703  Z M 70 17.937201430013214  L 70 0  L 72 0  L 72 17.937201430013214  L 70 17.937201430013214  Z M 67 17.042976371945084  L 67 0.3833214487495432  L 68 0.3833214487495432  L 68 17.042976371945084  L 67 17.042976371945084  Z M 58.21025998436073 2.2571390399724427  C 58.78992683355013 1.7501836007230547  59.463932838630186 1.4967148649583986  60.23229128380228 1.4967148649583986  C 61.014508427369506 1.4967148649583986  61.69514140224747 1.7501836007230547  62.274208615692785 2.2571390399724427  C 62.8532758291381 2.7641010989081742  63.30127825254709 3.4848800906192805  63.61816280868471 4.419469040793365  C 63.93504736482233 5.353846456526166  64.09347558427444 6.460933853136323  64.09347558427444 7.7407207691552395  C 64.09347558427444 9.02055402297856  63.93504736482233 10.129004956766808  63.61816280868471 11.066072920372214  C 63.30127825254709 12.003074805322871  62.85286098080493 12.725783494707471  62.27292761360252 13.234213114463834  C 61.693260764413125 13.742642734220196  61.01241750598891 13.996861504089317  60.23040028071665 13.996861504089317  C 59.46210849483302 13.996861504089317  58.788412196313004 13.742642734220196  58.20934498286769 13.234213114463834  C 57.63027776942237 12.725783494707471  57.182275346013384 12.003074805322871  56.86539078987577 11.066072920372214  C 56.548506233738145 10.129004956766808  56.39007801428603 9.02055402297856  56.39007801428603 7.7407207691552395  C 56.39007801428603 6.460933853136323  56.548506233738145 5.353846456526166  56.86539078987577 4.419469040793365  C 57.182275346013384 3.4848800906192805  57.63059313517134 2.7641010989081742  58.21025998436073 2.2571390399724427  Z M 61.474375310567964 3.6029401870091577  C 61.12371016219963 3.221588242707681  60.710253274652366 3.0309085026551177  60.234060286688845 3.0309085026551177  C 59.7679281750054 3.0309085026551177  59.359538435863165 3.221588242707681  59.00887328749483 3.6029401870091577  C 58.6584746571395 3.984298750996977  58.38915212880635 4.525864185967714  58.20092696913163 5.227630611039302  C 58.0127018094569 5.9291920622516106  57.91861850847591 6.766786353798291  57.91861850847591 7.7404181549223905  C 57.91861850847591 8.70121858063462  58.0127018094569 9.535725320441108  58.20092696913163 10.243930572568663  C 58.38915212880635 10.952069686937126  58.6584746571395 11.49889605852507  59.00887328749483 11.88443259026516  C 59.359538435863165 12.269903013798324  59.7679281750054 12.462637604969311  60.234060286688845 12.462637604969311  C 60.710253274652366 12.462637604969311  61.12371016219963 12.269903013798324  61.474375310567964 11.88443259026516  C 61.824973829433056 11.49889605852507  62.094401469754125 10.952069686937126  62.28262662942885 10.243930572568663  C 62.47085178910356 9.535725320441108  62.56493509008455 8.70121858063462  62.56493509008455 7.7404181549223905  C 62.56493509008455 6.766786353798291  62.47085178910356 5.9291920622516106  62.28262662942885 5.227630611039302  C 62.094401469754125 4.525864185967714  61.824973829433056 3.984298750996977  61.474375310567964 3.6029401870091577  Z M 89 17.937201430013214  L 89 0  L 90 0  L 90 17.937201430013214  L 89 17.937201430013214  Z M 80.48243332689121 8.662604768105748  L 80.48243332689121 7.329498288137039  L 85.03145474973886 7.329498288137039  L 85.03145474973886 8.662604768105748  L 80.48243332689121 8.662604768105748  Z M 85 17.026211543445264  L 85 0.4657384350659071  L 87 0.4657384350659071  L 87 17.026211543445264  L 85 17.026211543445264  Z M 80.70331468731348 2.570738169473628  C 80.70331468731348 2.570738169473628  80.70331468731348 2.271709915284111  80.70331468731348 2.271709915284111  C 80.70331468731348 2.271709915284111  82.30182229567194 2.271709915284111  82.30182229567194 2.271709915284111  C 82.30182229567194 3.8351425893516815  82.07606742046137 5.335871111990606  81.62466019071536 6.773898556626688  C 81.17325296096934 8.211926001262771  80.44972708699949 9.547491103664692  79.45403264880248 10.78058665310268  C 78.45833821060546 12.013483848367734  77.14888773504767 13.110764475181607  75.52568723874045 14.072424278031656  C 75.52568723874045 14.072424278031656  74.55584665620692 12.891517626474238  74.55584665620692 12.891517626474238  C 75.97129987602335 12.050503262157283  77.1322846874479 11.096174407306686  78.03883033955172 10.028544892338548  C 78.94564250966857 8.960717141406159  79.61647347148183 7.8007366186762885  80.0512236232665 6.548602260270775  C 80.48597377505114 5.296302646124043  80.70331468731348 3.9703508650058836  80.70331468731348 2.570738169473628  Z M 75.3373189313712 3.6246376275044145  L 75.3373189313712 2.271709915284111  L 81.31355968307835 2.271709915284111  L 81.31355968307835 3.6246376275044145  L 75.3373189313712 3.6246376275044145  Z M 111.34201768189551 9.152854956032405  L 111.34201768189551 0  L 113.00707639884848 0  L 113.00707639884848 9.152854956032405  L 111.34201768189551 9.152854956032405  Z M 105.6322863650641 1.690372843269972  C 105.6322863650641 1.690372843269972  105.6322863650641 0.8853130689107336  105.6322863650641 0.8853130689107336  C 105.6322863650641 0.8853130689107336  107.43124030050005 0.8853130689107336  107.43124030050005 0.8853130689107336  C 107.43124030050005 2.3840863016959277  107.09580837816033 3.70943037196601  106.42486065834406 4.861346343599146  C 105.75324664349525 6.0130243611499665  104.79113240267071 6.9797582126867  103.53851894856743 7.7615406283752355  C 102.28590549446415 8.542992532581332  100.77888433421647 9.144132425844422  99.01749657140711 9.56497014903751  C 99.01749657140711 9.56497014903751  98.43342061834349 8.216384951058586  98.43342061834349 8.216384951058586  C 99.99518972534779 7.857952311321837  101.31012216785858 7.3649331736124415  102.37817505518089 6.737312495875272  C 103.44622794250319 6.109526562396883  104.25575537868075 5.367995208624747  104.80677201803434 4.512734747357357  C 105.35712242192581 3.6574742860899665  105.6322863650641 2.7166853495073666  105.6322863650641 1.690372843269972  Z M 99.36568513956242 2.2304938567701083  L 99.36568513956242 0.8853130689107336  L 106.3788665832934 0.8853130689107336  L 106.3788665832934 2.2304938567701083  L 99.36568513956242 2.2304938567701083  Z M 106.78165024053405 3.892678184250217  L 106.78165024053405 2.593978942556414  L 111.61188212224576 2.593978942556414  L 111.61188212224576 3.892678184250217  L 106.78165024053405 3.892678184250217  Z M 106.62073197795631 7.316213523314978  L 106.62073197795631 6.025246075270461  L 111.51989397214444 6.025246075270461  L 111.51989397214444 7.316213523314978  L 106.62073197795631 7.316213523314978  Z M 101.37374741621007 11.307422901780756  L 101.37374741621007 10  L 113.00707639884848 10  L 113.00707639884848 14.38328474872556  L 103.05875316571151 14.38328474872556  L 103.05875316571151 17.234152913547298  L 101.41772848797602 17.234152913547298  L 101.41772848797602 13.119885457293567  L 111.35403470150423 13.119885457293567  L 111.35403470150423 11.307422901780756  L 101.37374741621007 11.307422901780756  Z M 101.41772848797602 18  L 101.41772848797602 17  L 113.60072936753934 17  L 113.60072936753934 18  L 101.41772848797602 18  Z M 131 17.937201430013214  L 131 0  L 132 0  L 132 17.937201430013214  L 131 17.937201430013214  Z M 123.68593682403659 7.798035904856797  L 123.68593682403659 6.441718913228588  L 127.15891649105738 6.441718913228588  L 127.15891649105738 7.798035904856797  L 123.68593682403659 7.798035904856797  Z M 127 17.018479749795976  L 127 0.4195746338448265  L 129 0.4195746338448265  L 129 17.018479749795976  L 127 17.018479749795976  Z M 120.22588917811758 5.069908072878522  C 120.22588917811758 5.069908072878522  120.22588917811758 2.7870316924022904  120.22588917811758 2.7870316924022904  L 121.50219426072333 2.7870316924022904  C 121.50219426072333 2.7870316924022904  121.50219426072333 5.069908072878522  121.50219426072333 5.069908072878522  C 121.50219426072333 6.047050139999324  121.40925597747987 7.003425364495222  121.2233628057412 7.939039006652684  C 121.03746963400256 8.874652648810146  120.76595656767117 9.750074251402005  120.40882847662806 10.565306887854064  C 120.05236668061747 11.380275091478433  119.61428264106854 12.114154087837404  119.0945813321105 12.766961608233682  C 118.57488002315245 13.419769128629962  117.98550909465189 13.951931771984402  117.32655444713963 14.363448385762322  C 117.32655444713963 14.363448385762322  116.30516878049764 13.136347671560541  116.30516878049764 13.136347671560541  C 117.14535257919857 12.62481105473535  117.85525940653154 11.94759728272942  118.43492625572092 11.104731888618646  C 119.01459310491033 10.261866494507874  119.4579986287285 9.317998635419064  119.76515542631711 8.27310998900609  C 120.07231222390571 7.228221342593113  120.22588917811758 6.16048993173876  120.22588917811758 5.069908072878522  Z M 120.56273172775907 5.069908072878522  C 120.56273172775907 5.069908072878522  120.56273172775907 2.7870316924022904  120.56273172775907 2.7870316924022904  L 121.83196079881857 2.7870316924022904  C 121.83196079881857 2.7870316924022904  121.83196079881857 5.069908072878522  121.83196079881857 5.069908072878522  C 121.83196079881857 6.106943170696962  121.98021626876118 7.121978804830721  122.27671252454044 8.115039444477532  C 122.57254251507234 9.108100084124343  123.00499533400678 10.00447801786269  123.57400164138681 10.804175432553242  C 124.14300794876685 11.603674552175201  124.84091092155163 12.242236005173215  125.66776905788348 12.719859702890771  C 125.66776905788348 12.719859702890771  124.66236541732007 13.931406045524126  124.66236541732007 13.931406045524126  C 123.7855359875337 13.395938612419176  123.04227842804643 12.673850104898891  122.43262877895617 11.76514205967617  C 121.8229791298659 10.856169581625762  121.35890714166125 9.825097343594317  121.04042350723074 8.67192528647749  C 120.72193987280023 7.518753229360663  120.56273172775907 6.318089178241393  120.56273172775907 5.069908072878522  Z M 116.79987958774002 3.4532671874421528  L 116.79987958774002 2.092607681572564  L 125.0551450582367 2.092607681572564  L 125.0551450582367 3.4532671874421528  L 116.79987958774002 3.4532671874421528  Z M 148 11.043755120699618  L 148 0.019836362963237198  L 150 0.019836362963237198  L 150 11.043755120699618  L 148 11.043755120699618  Z M 135.8539316791139 9.951696007906602  L 135.8539316791139 8.59102137132537  C 135.8539316791139 8.59102137132537  137.3081130519686 8.59102137132537  137.3081130519686 8.59102137132537  C 138.40348349949124 8.59102137132537  139.42054423524795 8.577067013408788  140.35933803079286 8.549169822922384  C 141.29813182633777 8.521074309662223  142.215262127549 8.464691646546877  143.11074752039437 8.38000846675992  C 144.00556661820718 8.295126962352194  144.93371059461649 8.178500456562181  145.89515806384523 8.030156152163451  C 145.89515806384523 8.030156152163451  146.0840753721103 9.375669815678958  146.0840753721103 9.375669815678958  C 145.0959765781434 9.529170471561104  144.14450530585734 9.649588092406596  143.22969771449087 9.736915556142185  C 142.3148901231244 9.824309128084693  141.37907359708606 9.881962399728854  140.4222901335147 9.909859590215259  C 139.46550666994332 9.937756780701662  138.42746976324008 9.951696007906602  137.3081130519686 9.951696007906602  C 137.3081130519686 9.951696007906602  135.8539316791139 9.951696007906602  135.8539316791139 9.951696007906602  Z M 135.8089746057554 2.488926411622962  L 135.8089746057554 1.1434430095307386  L 144.01220699134728 1.1434430095307386  L 144.01220699134728 6.08908254768991  L 137.4709833177315 6.08908254768991  L 137.4709833177315 9.353367146718004  L 135.8539316791139 9.353367146718004  L 135.8539316791139 4.813624079078894  L 142.3861883380978 4.813624079078894  L 142.3861883380978 2.488926411622962  L 135.8089746057554 2.488926411622962  Z M 139.3369153624587 12.267103418414075  C 140.41496249655785 11.706250906685762  141.89646583782317 11.42582072038284  143.78138261470053 11.42582072038284  C 145.66696562703999 11.42582072038284  147.15007867991633 11.705719854169718  148.2307908750048 12.265514693691621  C 149.31150307009324 12.825177316799676  149.8518685201918 13.62228726159069  149.8518685201918 14.656863145932494  C 149.8518685201918 15.6854232721009  149.31150307009324 16.485123819321597  148.2307908750048 17.055958522534297  C 147.15007867991633 17.626727147092247  145.66696562703999 17.912114710110053  143.78138261470053 17.912114710110053  C 141.89646583782317 17.912114710110053  140.41496249655785 17.62640467380037  139.3369153624587 17.05497502627754  C 138.25886822835957 16.483611457409463  137.71986372384112 15.683017725367122  137.71986372384112 14.653201513715024  C 137.71986372384112 13.623319223408178  138.25886822835957 12.827955930142389  139.3369153624587 12.267103418414075  Z M 146.1489794780173 12.965885074196825  C 145.48802600497785 12.812384418314682  144.69885532662673 12.735625904422191  143.78138261470053 12.735625904422191  C 142.86457619780685 12.735625904422191  142.07367392678646 12.812384418314682  141.40872274312218 12.965885074196825  C 140.7437715594579 13.119187405458202  140.2357667813044 13.337642167321526  139.8846352561985 13.621241587565775  C 139.53350373109257 13.904907116016947  139.35789939669934 14.24938176292006  139.35789939669934 14.654684323455985  C 139.35789939669934 15.070762344407191  139.53350373109257 15.422680710394959  139.8846352561985 15.71044485901879  C 140.2357667813044 15.998209007642618  140.7437715594579 16.21874802503469  141.40872274312218 16.372050356296068  C 142.07367392678646 16.525352687557444  142.86457619780685 16.60200691183785  143.78138261470053 16.60200691183785  C 144.69885532662673 16.60200691183785  145.48802600497785 16.525352687557444  146.1489794780173 16.372050356296068  C 146.80993295105677 16.21874802503469  147.31601843018007 15.998209007642618  147.66714995528596 15.71044485901879  C 148.01828148039186 15.422680710394959  148.19382481468557 15.070762344407191  148.19382481468557 14.654684323455985  C 148.19382481468557 14.24938176292006  148.01828148039186 13.904907116016947  147.66714995528596 13.621241587565775  C 147.31601843018007 13.337642167321526  146.80993295105677 13.119187405458202  146.1489794780173 12.965885074196825  Z M 155.25678233963848 4  L 155.25678233963848 2  L 166.72516705312972 2  L 166.72516705312972 4  L 155.25678233963848 4  Z M 153.3078901595414 16  L 153.3078901595414 14  L 169.64450981675571 14  L 169.64450981675571 16  L 153.3078901595414 16  Z M 166.0195789017891 4.029641386037572  C 166.0195789017891 4.029641386037572  166.0195789017891 1.8261104574142901  166.0195789017891 1.8261104574142901  L 167.63663054040666 1.8261104574142901  C 167.63663054040666 1.8261104574142901  167.63663054040666 4.029641386037572  167.63663054040666 4.029641386037572  C 167.63663054040666 4.904324125245673  167.62530713258647 5.780228433001531  167.60265348496475 6.6573769462682675  C 167.5806661212061 7.534551879176036  167.5184178801064 8.466862534265427  167.41581018008392 9.454304124084713  C 167.31386876764768 10.441613497490154  167.13393309855007 11.547255792929773  166.87608129938346 12.771228468916851  C 166.87608129938346 12.771228468916851  165.22206360044663 12.614761779822391  165.22206360044663 12.614761779822391  C 165.48791082086288 11.461193132568374  165.6761384154781 10.39861443828038  165.7867415218576 9.427038581705038  C 165.89667834065085 8.455462725129697  165.9629481987254 7.527915998242665  165.98560184634712 6.644394795679055  C 166.00825549396887 5.760615720869758  166.0195789017891 4.889033536357169  166.0195789017891 4.029641386037572  Z M 154.7700625454354 7.268809003739217  L 166.42034955574496 6.782326363011527  L 166.42034955574496 8.021440862257407  L 155.0158929465682 8.62948364032045  L 154.7700625454354 7.268809003739217  Z M 171.68532914685457 10  L 171.68532914685457 9  L 188.06989488230468 9  L 188.06989488230468 10  L 171.68532914685457 10  Z M 173.6331843252595 13  L 173.6331843252595 11  L 186.02608654732853 11  L 186.02608654732853 15  L 175.3152620699832 15  L 175.3152620699832 16.963252652301076  L 173.67820239871756 16.963252652301076  L 173.67820239871756 14  L 184.39604188750963 14  L 184.39604188750963 13  L 173.6331843252595 13  Z M 173.67820239871756 18  L 173.67820239871756 17  L 186.6027814883482 17  L 186.6027814883482 18  L 173.67820239871756 18  Z M 173.7601255323953 2  L 173.7601255323953 1  L 185.96112144132198 1  L 185.96112144132198 5  L 175.43415126398017 5  L 175.43415126398017 6.2006412846296115  L 173.80514360585337 6.2006412846296115  L 173.80514360585337 4  L 184.33205278309563 4  L 184.33205278309563 2  L 173.7601255323953 2  Z M 173.80514360585337 7  L 173.80514360585337 6  L 186.28893597623204 6  L 186.28893597623204 7  L 173.80514360585337 7  Z M 200.04305541946184 11.71735927230935  C 200.98851204619132 11.45332755624017  202.10018167265383 11.321297764356872  203.37811386143022 11.321297764356872  C 204.66404147145627 11.321297764356872  205.77738163091811 11.45332755624017  206.71817431156063 11.71735927230935  C 207.65963322766527 11.981390988378527  208.38859698648494 12.35901439434699  208.90496687985072 12.850256175825308  C 209.42133677321647 13.34129963268286  209.67948514366782 13.932862258311026  209.67948514366782 14.624937344366948  C 209.67948514366782 15.308749052318461  209.42133677321647 15.89627216211632  208.90496687985072 16.387513943594637  C 208.38859698648494 16.87855740045219  207.65963322766527 17.254151517930296  206.71817431156063 17.51428290889541  C 205.77738163091811 17.7743481916536  204.66404147145627 17.904382916460765  203.37811386143022 17.904382916460765  C 202.10018167265383 17.904382916460765  200.98851204619132 17.7743481916536  200.04305541946184 17.51428290889541  C 199.0982650281945 17.254151517930296  198.36967203560485 16.87855740045219  197.8572998528639 16.387513943594637  C 197.34492767012293 15.89627216211632  197.08875959880137 15.308749052318461  197.08875959880137 14.624937344366948  C 197.08875959880137 13.932862258311026  197.34492767012293 13.34129963268286  197.8572998528639 12.850256175825308  C 198.36967203560485 12.35901439434699  199.0982650281945 11.981390988378527  200.04305541946184 11.71735927230935  Z M 205.84770289117233 12.84034555969951  C 205.1527689076072 12.680234186557751  204.32956708388213 12.600175773799082  203.37811386143022 12.600175773799082  C 202.43465606022795 12.600175773799082  201.61578554142207 12.680234186557751  200.92151785288945 12.84034555969951  C 200.22658386932432 13.000258608220504  199.68825980781068 13.23196794736303  199.30647921755659 13.535465583264788  C 198.92469862730243 13.838897110959625  198.73381028310632 14.202050296311446  198.73381028310632 14.624937344366948  C 198.73381028310632 15.031495931282223  198.92469862730243 15.38526526795947  199.30647921755659 15.68625085110253  C 199.68825980781068 15.98723643424559  200.22658386932432 16.219050048224112  200.92151785288945 16.381673488900656  C 201.61578554142207 16.544032496749512  202.43465606022795 16.62520229278571  203.37811386143022 16.62520229278571  C 204.32956708388213 16.62520229278571  205.1527689076072 16.544032496749512  205.84770289117233 16.381673488900656  C 206.54197057970495 16.219050048224112  207.0793044916537 15.98723643424559  207.45975252162793 15.68625085110253  C 207.84020055160218 15.38526526795947  208.03046945289302 15.031495931282223  208.03046945289302 14.624937344366948  C 208.03046945289302 14.202050296311446  207.84020055160218 13.838897110959625  207.45975252162793 13.535465583264788  C 207.0793044916537 13.23196794736303  206.54197057970495 13.000258608220504  205.84770289117233 12.84034555969951  Z M 197.21862881071493 3  L 197.21862881071493 1  L 208.8579968032075 1  L 208.8579968032075 3  L 197.21862881071493 3  Z M 195.2947466714279 10  L 195.2947466714279 9  L 211.59141126344568 9  L 211.59141126344568 10  L 195.2947466714279 10  Z M 201.98792159298952 8.738273457029583  L 201.98792159298952 4.900080965403789  L 203.63297227729444 4.900080965403789  L 203.63297227729444 8.738273457029583  L 201.98792159298952 8.738273457029583  Z M 207.89352422943318 2.4260280433253443  C 207.89352422943318 2.4260280433253443  207.89352422943318 0.906707895173142  207.89352422943318 0.906707895173142  L 209.52655789412938 0.906707895173142  C 209.52655789412938 0.906707895173142  209.52655789412938 2.4260280433253443  209.52655789412938 2.4260280433253443  C 209.52655789412938 3.1532126454520135  209.50657182062363 3.8963901733673723  209.46659479628485 4.65558379597362  C 209.42661777194604 5.414784038266213  209.2817034945892 6.256842598999522  209.031847086887 7.1817468889486245  C 209.031847086887 7.1817468889486245  207.4058284336375 6.997303514027297  207.4058284336375 6.997303514027297  C 207.65102085057498 6.07760188381384  207.79358410724987 5.260253607427248  207.83356113158862 4.5452657773886  C 207.87353815592743 3.830073032595014  207.89352422943318 3.1236693399267286  207.89352422943318 2.4260280433253443  Z M 217.86478349999592 17.937201430013214  L 217.86478349999592 11.101070256401176  L 219.55784126263623 11.101070256401176  L 219.55784126263623 17.937201430013214  L 217.86478349999592 17.937201430013214  Z M 224.08020564198634 17.937201430013214  L 224.08020564198634 11.101070256401176  L 225.7612463850179 11.101070256401176  L 225.7612463850179 17.937201430013214  L 224.08020564198634 17.937201430013214  Z M 213.65620363266243 12  L 213.65620363266243 11  L 230.04076936811254 11  L 230.04076936811254 12  L 213.65620363266243 12  Z M 218.50741954861476 1.1998351718221079  C 219.4615378916264 0.8802536781009508  220.56256448998 0.7204639655663635  221.8105139384259 0.7204639655663635  C 223.07245540384392 0.7204639655663635  224.17719383442613 0.8802536781009508  225.12464934625322 1.1998351718221079  C 226.0721048580803 1.5192183409224984  226.81028963975882 1.9700964962644045  227.3393189600316 2.552460269809562  C 227.86901451576645 3.134612508913438  228.13390625659625 3.82718312577565  228.13390625659625 4.630179331125967  C 228.13390625659625 5.419742537963599  227.86901451576645 6.1076809702025585  227.3393189600316 6.693978137731327  C 226.81028963975882 7.280281924946439  226.0721048580803 7.733214901854598  225.12464934625322 8.052776566068896  C 224.17719383442613 8.372338230283193  223.07245540384392 8.532117510901356  221.8105139384259 8.532117510901356  C 220.56256448998 8.532117510901356  219.4615378916264 8.372338230283193  218.50741954861476 8.052776566068896  C 217.5533012056031 7.733214901854598  216.81140447255515 7.280281924946439  216.28170891682026 6.693978137731327  C 215.75267959654752 6.1076809702025585  215.48815862194772 5.419742537963599  215.48815862194772 4.630179331125967  C 215.48815862194772 3.82718312577565  215.75267959654752 3.134612508913438  216.28170891682026 2.552460269809562  C 216.81140447255515 1.9700964962644045  217.5533012056031 1.5192183409224984  218.50741954861476 1.1998351718221079  Z M 224.2361218964021 2.3631296750277264  C 223.5445193879996 2.148691496509876  222.73598207160177 2.041465876221121  221.8105139384259 2.041465876221121  C 220.89370752153226 2.041465876221121  220.08752121092377 2.148691496509876  219.39192099189648 2.3631296750277264  C 218.6963207728692 2.5773563043282084  218.15465549643093 2.876587360292425  217.76687834023957 3.2608347967736173  C 217.3784349188009 3.645082233254809  217.1842053894653 4.101527574363826  217.1842053894653 4.630179331125967  C 217.1842053894653 5.1505677097836955  217.3784349188009 5.6049477383056905  217.76687834023957 5.993320273704916  C 218.15465549643093 6.381686189417798  218.6963207728692 6.679691140575981  219.39192099189648 6.887333501810051  C 220.08752121092377 7.094975863044122  220.89370752153226 7.198799200969653  221.8105139384259 7.198799200969653  C 222.73598207160177 7.198799200969653  223.5445193879996 7.094975863044122  224.2361218964021 6.887333501810051  C 224.92705816934242 6.679691140575981  225.4667431168657 6.381686189417798  225.85518653830437 5.993320273704916  C 226.24296369449573 5.6049477383056905  226.43688348748609 5.1505677097836955  226.43688348748609 4.630179331125967  C 226.43688348748609 4.101527574363826  226.24296369449573 3.645082233254809  225.85518653830437 3.2608347967736173  C 225.4667431168657 2.876587360292425  224.92705816934242 2.5773563043282084  224.2361218964021 2.3631296750277264  Z M 232.0256516069363 4.415126526551984  L 232.0256516069363 3.06994573869261  L 240.99150723693563 3.06994573869261  L 240.99150723693563 4.415126526551984  L 232.0256516069363 4.415126526551984  Z M 234.521226679081 6.133082657146122  C 235.10822265448746 5.784784254814464  235.77184565629696 5.610634314844355  236.5120869276593 5.610634314844355  C 237.2676526869179 5.610634314844355  237.93690693912714 5.7841593741549335  238.51990520390882 6.1312215796141025  C 239.10290346869047 6.478290404759615  239.56233444541593 6.958103268213594  239.89814145284032 7.570651570294228  C 240.2332821950174 8.182935439547173  240.40084327312206 8.892131635078623  240.40084327312206 9.69824145718411  C 240.40084327312206 10.504549633462535  240.2332821950174 11.21540335117094  239.89814145284032 11.830794217492713  C 239.56233444541593 12.44598678874589  239.10290346869047 12.927215408064427  238.51990520390882 13.274475938144365  C 237.93690693912714 13.621538143603532  237.26728198025833 13.79506320291411  236.51104992596717 13.79506320291411  C 235.76880982907764 13.79506320291411  235.10456735457765 13.621667109278548  234.5182376742037 13.274869336647066  C 233.9325742292919 12.928005455808663  233.47215316257197 12.44664787081511  233.13701242039488 11.830794217492713  C 232.80187167821776 11.214940564170314  232.63431060011317 10.503555853050207  232.63431060011317 9.696652732461654  C 232.63431060011317 8.89160064166692  232.80218141456305 8.18342659663213  233.13798842198744 7.5721343800351875  C 233.4731291641645 6.960842163438246  233.9342307036745 6.481162905350155  234.521226679081 6.133082657146122  Z M 237.7563669580083 7.349622134621483  C 237.39657371662025 7.118049001435908  236.98311685885818 7.002266387446017  236.5160519341292 7.002266387446017  C 236.05898128596223 7.002266387446017  235.64855584720917 7.118049001435908  235.2847649249815 7.349622134621483  C 234.92164026800114 7.5812613760139795  234.636513769544 7.89837347553553  234.42929952907923 8.300965629139819  C 234.2227515687544 8.70362389095103  234.11948002353247 9.168853733150987  234.11948002353247 9.696652732461654  C 234.11948002353247 10.22471616460001  234.2227515687544 10.693350180502147  234.42929952907923 11.102553066142136  C 234.636513769544 11.511822059989047  234.92164026800114 11.831018370711087  235.2847649249815 12.0601455445688  C 235.64855584720917 12.289008285598822  236.05898128596223 12.403446261024092  236.5160519341292 12.403446261024092  C 236.98311685885818 12.403446261024092  237.39657371662025 12.289008285598822  237.7563669580083 12.0601455445688  C 238.11616019939638 11.831018370711087  238.39930638383117 11.511822059989047  238.605854344156 11.102553066142136  C 238.81240230448083 10.693350180502147  238.91567384970273 10.22471616460001  238.91567384970273 9.696652732461654  C 238.91567384970273 9.168853733150987  238.81240230448083 8.70362389095103  238.605854344156 8.300965629139819  C 238.39930638383117 7.89837347553553  238.11616019939638 7.5812613760139795  237.7563669580083 7.349622134621483  Z M 245 17.937201430013214  L 245 0  L 247 0  L 247 17.937201430013214  L 245 17.937201430013214  Z M 242.87939931749605 8.911111576121161  L 242.87939931749605 7.550421808828288  L 246.2904638834871 7.550421808828288  L 246.2904638834871 8.911111576121161  L 242.87939931749605 8.911111576121161  Z M 241 17.065884269371736  L 241 0.406244476887838  L 243 0.406244476887838  L 243 17.065884269371736  L 241 17.065884269371736  Z M 235.70054160342343 3.8898941333080086  L 235.70054160342343 0.5243094198337875  L 237.34260328285106 0.5243094198337875  L 237.34260328285106 3.8898941333080086  L 235.70054160342343 3.8898941333080086  Z M 257.6849164763399 2.533244266023665  C 257.6849164763399 2.533244266023665  257.6849164763399 1.778070447949547  257.6849164763399 1.778070447949547  L 259.13006983446314 1.778070447949547  C 259.13006983446314 1.778070447949547  259.13006983446314 2.533244266023665  259.13006983446314 2.533244266023665  C 259.13006983446314 3.1730352962078254  259.00347103804233 3.777600256558117  258.75028321474787 4.346947539891156  C 258.4977616864859 4.916089908469255  258.1436435691043 5.440930203506059  257.6879054812172 5.921449393403332  C 257.2321673933301 6.401961993166432  256.7057861266947 6.828335606377354  256.1087959045114 7.2005846249434615  C 255.51180568232812 7.5726353188888025  254.86853943834504 7.885916496580299  254.17893575546978 8.140428778613543  C 253.4893320725945 8.39494106064679  252.77837412538236 8.584271448563427  252.04612827526964 8.708420562959052  C 252.04612827526964 8.708420562959052  251.41050723809752 7.402973023872721  251.41050723809752 7.402973023872721  C 252.04547568143133 7.3133318098350735  252.66776563532704 7.161487442326737  253.27741528441732 6.947432688453818  C 253.88639863847504 6.733245718167055  254.4560932223688 6.472643369025985  254.98645507313623 6.165628817889009  C 255.5168169239036 5.858640715945235  255.98590071960268 5.5136388583083304  256.39366636934767 5.130627618699628  C 256.8007657538453 4.747622969225098  257.11757243656484 4.336631793050698  257.3441089202285 3.897641057668937  C 257.57131168403214 3.458650322287176  257.6849164763399 3.003847402195643  257.6849164763399 2.533244266023665  Z M 258.1086841678212 2.533244266023665  C 258.1086841678212 2.533244266023665  258.1086841678212 1.778070447949547  258.1086841678212 1.778070447949547  L 259.5408445047431 1.778070447949547  C 259.5408445047431 1.778070447949547  259.5408445047431 2.533244266023665  259.5408445047431 2.533244266023665  C 259.5408445047431 3.003847402195643  259.65444929705086 3.458650322287176  259.8816520608545 3.897641057668937  C 260.10885482465807 4.336631793050698  260.4259712288303 4.747622969225098  260.8330706133279 5.130627618699628  C 261.2401699978256 5.5136388583083304  261.7089440571794 5.858640715945235  262.2393059079468 6.165628817889009  C 262.7696677587142 6.472643369025985  263.33967204916803 6.733245718167055  263.9493216982583 6.947432688453818  C 264.55830505231603 7.161487442326737  265.18028529965164 7.3133318098350735  265.8152537429855 7.402973023872721  C 265.8152537429855 7.402973023872721  265.1925647269152 8.708420562959052  265.1925647269152 8.708420562959052  C 264.4596525817699 8.584271448563427  263.7464046288679 8.39494106064679  263.05280323536783 8.140428778613543  C 262.3598681369003 7.885916496580299  261.7146215937874 7.5726353188888025  261.1169650765716 7.2005846249434615  C 260.5206410898504 6.828335606377354  259.9965498884753 6.401961993166432  259.544809511213 5.921449393403332  C 259.0930691339507 5.440930203506059  258.7406216091388 4.916089908469255  258.48743378584436 4.346947539891156  C 258.2349122575824 3.777600256558117  258.1086841678212 3.1730352962078254  258.1086841678212 2.533244266023665  Z M 257.75585959210105 17.928576924377026  L 257.75585959210105 11.099784145911569  L 259.40091027640597 11.099784145911569  L 259.40091027640597 17.928576924377026  L 257.75585959210105 17.928576924377026  Z M 250.44707166601538 12  L 250.44707166601538 11  L 266.7836913232297 11  L 266.7836913232297 12  L 250.44707166601538 12  Z M 251.9792111660779 3  L 251.9792111660779 2  L 265.2115967579706 2  L 265.2115967579706 3  L 251.9792111660779 3  Z M 275.9563982907578 7.792180319451173  L 275.9563982907578 6.423758758509013  L 279.42840195618606 6.423758758509013  L 279.42840195618606 7.792180319451173  L 275.9563982907578 7.792180319451173  Z M 272.59334080310214 5.107704590561333  C 272.59334080310214 5.107704590561333  272.59334080310214 1.6922490515136346  272.59334080310214 1.6922490515136346  L 273.8856279117865 1.6922490515136346  C 273.8856279117865 1.6922490515136346  273.8856279117865 5.107704590561333  273.8856279117865 5.107704590561333  C 273.8856279117865 6.043714822855986  273.78996788630883 6.96124235894032  273.59874444366557 7.860298783265433  C 273.4068547208823 8.759355207590547  273.1290300058241 9.60562778972496  272.7652390835965 10.399111151173516  C 272.4021144266161 11.192660650381164  271.9593894053732 11.905816718641601  271.437022916285 12.538593777414356  C 270.9146564271968 13.17110640335942  270.32565626492624 13.685096884718263  269.6700330330063 14.080549470183646  C 269.6700330330063 14.080549470183646  268.62863933371625 12.842236898654816  268.62863933371625 12.842236898654816  C 269.25094835014306 12.478449582813885  269.80591733725447 12.017452704956757  270.29363705056966 11.459244462400987  C 270.7820230291322 10.900837865672278  271.1988211018189 10.276215669431375  271.5439560907728 9.585396609754802  C 271.88909107972665 8.894379195905291  272.15027088407965 8.167631020242558  272.32750236932134 7.4051518463492325  C 272.504733854563 6.642633013442189  272.59334080310214 5.876820886579219  272.59334080310214 5.107704590561333  Z M 272.91017532009556 5.046031809906753  C 272.91017532009556 5.046031809906753  272.91017532009556 1.6922490515136346  272.91017532009556 1.6922490515136346  L 274.18739540419443 1.6922490515136346  C 274.18739540419443 1.6922490515136346  274.18739540419443 5.046031809906753  274.18739540419443 5.046031809906753  C 274.18739540419443 5.7643316108735085  274.27006144045157 6.484173739653974  274.4352998087114 7.205547498362182  C 274.60053817697127 7.926974155456794  274.8427220648297 8.615303326503051  275.1618719942927 9.270556761898936  C 275.4803556287232 9.925876335053916  275.8701145435194 10.524247337638611  276.3311829023111 11.06566439115787  C 276.79225126110293 11.606949228263284  277.3206127970829 12.055455821868264  277.91627048877154 12.411178054673377  C 277.91627048877154 12.411178054673377  276.96582793789065 13.68816472516028  276.96582793789065 13.68816472516028  C 276.3142024165955 13.29277821834965  275.73584516329305 12.787486950515731  275.23080210676915 12.172294379262556  C 274.72575905024524 11.55683737518169  274.3013494578143 10.862295332980285  273.95754702914024 10.088644078982314  C 273.6137446004662 9.314794529915751  273.3532452391181 8.498990945516562  273.1760137538764 7.6412514708178465  C 272.9987822686347 6.783307081364194  272.91017532009556 5.918235476579188  272.91017532009556 5.046031809906753  Z M 282 17.937201430013214  L 282 0  L 284 0  L 284 17.937201430013214  L 282 17.937201430013214  Z M 279 17.042976371945084  L 279 0.3833214487495432  L 280 0.3833214487495432  L 280 17.042976371945084  L 279 17.042976371945084  Z M 291.2366182241961 14.599548010230935  L 291.2366182241961 9.235559425869976  L 292.881668908501 9.235559425869976  L 292.881668908501 14.599548010230935  L 291.2366182241961 14.599548010230935  Z M 297.91076111470227 14.599548010230935  L 297.91076111470227 9.235559425869976  L 299.568865820308 9.235559425869976  L 299.568865820308 14.599548010230935  L 297.91076111470227 14.599548010230935  Z M 287.22592267975955 16  L 287.22592267975955 15  L 303.61152541690177 15  L 303.61152541690177 16  L 287.22592267975955 16  Z M 291.9921654570573 1.710511820466058  C 292.98359566661645 1.3277121152986384  294.11432210542483 1.13631644434715  295.38425899209244 1.13631644434715  C 296.66219118086883 1.13631644434715  297.7948370378483 1.3277121152986384  298.7822695367827 1.710511820466058  C 299.76970203571705 2.0933115256334776  300.5446398539297 2.628578742778707  301.1069833301252 3.3163039856547973  C 301.6699931013532 4.003817694089606  301.95146870811084 4.8174536267329895  301.95146870811084 5.757205518524659  C 301.95146870811084 6.683498051266955  301.6699931013532 7.492478098445802  301.1069833301252 8.184156535260193  C 300.5446398539297 8.87576889341983  299.76970203571705 9.411038001904016  298.7822695367827 9.789963831160573  C 297.7948370378483 10.168625227589445  296.66219118086883 10.357955615506082  295.38425899209244 10.357955615506082  C 294.11432210542483 10.357955615506082  292.98359566661645 10.168625227589445  291.9921654570573 9.789963831160573  C 291.0007352474981 9.411038001904016  290.22356842369516 8.87576889341983  289.6605586524671 8.184156535260193  C 289.09821517627165 7.492478098445802  288.81698827597455 6.683498051266955  288.81698827597455 5.757205518524659  C 288.81698827597455 4.8174536267329895  289.09821517627165 4.003817694089606  289.6605586524671 3.3163039856547973  C 290.22356842369516 2.628578742778707  291.0007352474981 2.0933115256334776  291.9921654570573 1.710511820466058  Z M 297.9567551897529 2.8542725749412883  C 297.21184997230364 2.579306762401952  296.35436811803294 2.4418245062800503  295.38425899209244 2.4418245062800503  C 294.4221452278312 2.4418245062800503  293.5666437322607 2.579306762401952  292.8177408041866 2.8542725749412883  C 292.0688378761125 3.1292383874806236  291.4815082468413 3.5142078426080032  291.05575292906985 4.0091846638969955  C 290.630663906331 4.503956540878877  290.41811888861304 5.086635074599237  290.41811888861304 5.757205518524659  C 290.41811888861304 6.414376062369115  290.630663906331 6.990431127067998  291.05575292906985 7.485374879477443  C 291.4815082468413 7.980120336818294  292.0688378761125 8.366353767859069  292.8177408041866 8.64406964634376  C 293.5666437322607 8.921454983793842  294.4221452278312 9.060149085799184  295.38425899209244 9.060149085799184  C 296.35436811803294 9.060149085799184  297.21184997230364 8.921454983793842  297.9567551897529 8.64406964634376  C 298.70166040720216 8.366353767859069  299.28663903068406 7.980120336818294  299.7117280534229 7.485374879477443  C 300.1374833711944 6.990431127067998  300.35039909557185 6.414376062369115  300.35039909557185 5.757205518524659  C 300.35039909557185 5.086635074599237  300.1374833711944 4.503956540878877  299.7117280534229 4.0091846638969955  C 299.28663903068406 3.5142078426080032  298.70166040720216 3.1292383874806236  297.9567551897529 2.8542725749412883  Z M 14.202439674774581 33.94301291100405  L 14.202439674774581 24.790188216394935  L 15.867772892175449 24.790188216394935  L 15.867772892175449 33.94301291100405  L 14.202439674774581 33.94301291100405  Z M 8.493257358838992 26.480591321088188  C 8.493257358838992 26.480591321088188  8.493257358838992 25.675501285305664  8.493257358838992 25.675501285305664  C 8.493257358838992 25.675501285305664  10.29218079422517 25.675501285305664  10.29218079422517 25.675501285305664  C 10.29218079422517 27.1742811377772  9.956451734681858 28.499633719072584  9.284977650725436 29.65154969070572  C 8.613696753607684 30.8032674263746  7.651737395848381 31.769942469090694  6.399123941745098 32.55159266836539  C 5.146510487641815 33.333110651226235  3.639467286342552 33.934290380816066  1.8779795643857018 34.355128104009154  C 1.8779795643857018 34.355128104009154  1.2939341113718514 33.006542906030234  1.2939341113718514 33.006542906030234  C 2.8559497207314988 32.64811026629348  4.17094530787658 32.15509112858409  5.23887154850786 31.527470450846916  C 6.306804461025027 30.899717556695904  7.116135016998513 30.158186202923766  7.66685851036595 29.302892702329004  C 8.217795206229717 28.44766528038899  8.493257358838992 27.506903827325583  8.493257358838992 26.480591321088188  Z M 2.2262291326405528 27.02062155031847  L 2.2262291326405528 25.675501285305664  L 9.239380076321774 25.675501285305664  L 9.239380076321774 27.02062155031847  L 2.2262291326405528 27.02062155031847  Z M 9.642255233711715 28.682851269933504  L 9.642255233711715 27.38413689752806  L 14.472578615572726 27.38413689752806  L 14.472578615572726 28.682851269933504  L 9.642255233711715 28.682851269933504  Z M 9.481428471283282 32.106371478286626  L 9.481428471283282 30.815388899530465  L 14.380132964724902 30.815388899530465  L 14.380132964724902 32.106371478286626  L 9.481428471283282 32.106371478286626  Z M 4.233803408491911 36.0975808567524  L 4.233803408491911 34  L 15.867772892175449 34  L 15.867772892175449 39.173442703697205  L 5.919083658441271 39.173442703697205  L 5.919083658441271 42.024310868518945  L 4.2781504808550705 42.024310868518945  L 4.2781504808550705 37.91004341226521  L 14.214639694681916 37.91004341226521  L 14.214639694681916 36.0975808567524  L 4.233803408491911 36.0975808567524  Z M 4.2781504808550705 42  L 4.2781504808550705 41  L 16.46115136041841 41  L 16.46115136041841 42  L 4.2781504808550705 42  Z M 34 42.72735938498486  L 34 24.790188216394935  L 35 24.790188216394935  L 35 42.72735938498486  L 34 42.72735938498486  Z M 26.546633317363572 32.58819385982844  L 26.546633317363572 31.231861737488593  L 30.018941983289455 31.231861737488593  L 30.018941983289455 32.58819385982844  L 26.546633317363572 32.58819385982844  Z M 30 41.80863770476763  L 30 25.209747719528114  L 31 25.209747719528114  L 31 41.80863770476763  L 30 41.80863770476763  Z M 23.086128170698032 29.860081158561808  C 23.086128170698032 29.860081158561808  23.086128170698032 27.577204778085576  23.086128170698032 27.577204778085576  L 24.36289075405031 27.577204778085576  C 24.36289075405031 27.577204778085576  24.36289075405031 29.860081158561808  24.36289075405031 29.860081158561808  C 24.36289075405031 30.837210045414267  24.26982247328026 31.793583319466865  24.0836627984212 32.72919696162433  C 23.897702997179298 33.66481060378179  23.62629504283584 34.54019242915125  23.269433469805723 35.355358927844215  C 22.912771785285372 36.170393210123336  22.474582633748525 36.904312042809046  21.95488132479048 37.557119563205326  C 21.43518001583243 38.209927083601606  20.845814686950394 38.742089726956046  20.186793439720088 39.153606340733965  C 20.186793439720088 39.153606340733965  19.165895773874375 37.92650562653219  19.165895773874375 37.92650562653219  C 20.006212831581838 37.414969009706994  20.716094758483543 36.737755237701066  21.295561748948376 35.89488984359029  C 21.87522859813777 35.052024449479525  22.318504109536764 34.108156590390706  22.62539441889756 33.063267943977735  C 22.932551216486164 32.018379297564756  23.086128170698032 30.950649778049364  23.086128170698032 29.860081158561808  Z M 23.423428221086052 29.860081158561808  C 23.423428221086052 29.860081158561808  23.423428221086052 27.577204778085576  23.423428221086052 27.577204778085576  L 24.692413291747403 27.577204778085576  C 24.692413291747403 27.577204778085576  24.692413291747403 29.860081158561808  24.692413291747403 29.860081158561808  C 24.692413291747403 30.897103017007563  24.84053874927084 31.91213675980237  25.13676851682228 32.90519739944918  C 25.43306491387697 33.898258039095985  25.865642086041646 34.794635972834335  26.43451513441517 35.59433338752489  C 27.00332158307065 36.39383250714685  27.7012550559052 37.03239396014486  28.528313050961614 37.51001765786242  C 28.528313050961614 37.51001765786242  27.522878910348446 38.721564000495775  27.522878910348446 38.721564000495775  C 26.646116139850523 38.18609656739082  25.90291392127388 37.46398335425543  25.293264272183606 36.55520923037796  C 24.6838145413883 35.64623675232755  24.219822764740314 34.61518921991121  23.901272500806556 33.462083241449136  C 23.582722236872804 32.30891118433231  23.423428221086052 31.108249142760677  23.423428221086052 29.860081158561808  Z M 19.66060658111677 28.243470534548724  L 19.66060658111677 26.882780767255852  L 27.915841551563673 26.882780767255852  L 27.915841551563673 28.243470534548724  L 19.66060658111677 28.243470534548724  Z M 39.72747382514777 27  L 39.72747382514777 26  L 51.19585853863901 26  L 51.19585853863901 27  L 39.72747382514777 27  Z M 37.77107863280767 40  L 37.77107863280767 39  L 54.10733228942475 39  L 54.10733228942475 40  L 37.77107863280767 40  Z M 50.51406042611765 28.2490235057215  C 50.51406042611765 28.2490235057215  50.51406042611765 26.536907829821345  50.51406042611765 26.536907829821345  L 52.139408078272226 26.536907829821345  C 52.139408078272226 26.536907829821345  52.139408078272226 28.2490235057215  52.139408078272226 28.2490235057215  C 52.139408078272226 28.973292786161597  52.12944554156912 29.743531296327742  52.10945702939973 30.559755526331465  C 52.08946851723032 31.375781402162243  52.02830428259917 32.271434834872025  51.92602973009296 33.24671269193066  C 51.823821799643696 34.221990548989304  51.648018500082046 35.32567755457519  51.398561869399366 36.55778145135718  C 51.398561869399366 36.55778145135718  49.74448317036301 36.36590889701941  49.74448317036301 36.36590889701941  C 50.12719654387748 34.62914351872345  50.35117571453039 33.106629962953896  50.416338266659906 31.798370712093142  C 50.48150081878942 30.489847028404693  50.51406042611765 29.306736966964344  50.51406042611765 28.2490235057215  Z M 39.225565006160046 31.304352976967515  L 50.88323302851358 30.837706699203064  L 50.88323302851358 32.09585563369513  L 39.47889841953584 32.73137578410084  L 39.225565006160046 31.304352976967515  Z M 44.1262520028366 39.427199868652544  L 44.1262520028366 34.29156398439927  L 45.77929370018083 34.29156398439927  L 45.77929370018083 39.427199868652544  L 44.1262520028366 39.427199868652544  Z M 58.24240703681656 34  L 58.24240703681656 33  L 70.6559882926285 33  L 70.6559882926285 34  L 58.24240703681656 34  Z M 56.16834265247023 40  L 56.16834265247023 39  L 72.55327438851758 39  L 72.55327438851758 40  L 56.16834265247023 40  Z M 58.24240703681656 33.9882386081033  L 58.24240703681656 26  L 70.4748179970046 26  L 70.4748179970046 27  L 59.89215472878581 27  L 59.89215472878581 33.9882386081033  L 58.24240703681656 33.9882386081033  Z M 76.75618124659417 31  L 76.75618124659417 30  L 89.04294329546939 30  L 89.04294329546939 31  L 76.75618124659417 31  Z M 74.54553763938523 35  L 74.54553763938523 34  L 90.93053037553211 34  L 90.93053037553211 35  L 74.54553763938523 35  Z M 76.75618124659417 30.856347735946546  L 76.75618124659417 25.444652017776974  L 78.40153693139676 25.444652017776974  L 78.40153693139676 30.856347735946546  L 76.75618124659417 30.856347735946546  Z M 76.64156205956476 42  L 76.64156205956476 41  L 89.14286145851044 41  L 89.14286145851044 42  L 76.64156205956476 42  Z M 76.64156205956476 41.3047093535162  L 76.64156205956476 37.05597526289611  L 78.29472575710805 37.05597526289611  L 78.29472575710805 41.3047093535162  L 76.64156205956476 41.3047093535162  Z M 107.78504087781273 30.132176746027785  L 107.78504087781273 28.78666308251228  L 112.43239446111349 28.78666308251228  L 112.43239446111349 30.132176746027785  L 107.78504087781273 30.132176746027785  Z M 102.70696559168354 27.523263791080286  C 102.70696559168354 27.523263791080286  102.70696559168354 26.320644568315966  102.70696559168354 26.320644568315966  L 104.06921981453645 26.320644568315966  C 104.06921981453645 26.320644568315966  104.06921981453645 27.523263791080286  104.06921981453645 27.523263791080286  C 104.06921981453645 28.519431546004608  103.85698453316378 29.46757217621082  103.43256177567224 30.367686272742343  C 103.00747275293334 31.26753593644618  102.41612152530301 32.055857538363995  101.65855688094678 32.73266189459045  C 100.90032594155802 33.40920181798921  100.01737612873787 33.91934626158244  99.00968855866641 34.263103115799844  C 99.00968855866641 34.263103115799844  98.20546324637495 32.969654231045965  98.20546324637495 32.969654231045965  C 98.86674989671587 32.74779884174101  99.47146020571515 32.44847202196609  100.01954520649599 32.07166162577887  C 100.56723043025731 31.694851229591645  101.04225515313091 31.262239123493167  101.44469053197122 30.77383996536033  C 101.8464596455642 30.285308590813646  102.15726441590223 29.764822571782346  102.37713805348876 29.21236565457229  C 102.59701169107528 28.659776520948387  102.70696559168354 28.09674276346553  102.70696559168354 27.523263791080286  Z M 103.02081110379972 27.535353229682592  C 103.02081110379972 27.535353229682592  103.02081110379972 26.320644568315966  103.02081110379972 26.320644568315966  L 104.37598931510637 26.320644568315966  C 104.37598931510637 26.320644568315966  104.37598931510637 27.535353229682592  104.37598931510637 27.535353229682592  C 104.37598931510637 28.243095694809522  104.55988558246354 28.928760264789467  104.92767421531603 29.592343216048853  C 105.29679540844838 30.255860029549154  105.8082023718409 30.846360638801745  106.46182671866327 31.36384693514558  C 107.11545106548566 31.881134877316487  107.87566325713075 32.274578772154825  108.74249844014032 32.544163488948946  C 108.74249844014032 32.544163488948946  107.94595914039047 33.84573756585481  107.94595914039047 33.84573756585481  C 106.9585266414561 33.51804473994995  106.09535259625653 33.04081580013497  105.35644391495927 32.41405449953562  C 104.61686893862951 31.787293198936265  104.04253331347134 31.054436353073946  103.63343510344649 30.21547131361941  C 103.22500315866897 29.376307919991937  103.02081110379972 28.482932250427766  103.02081110379972 27.535353229682592  Z M 98.70798206635803 27.065938031687573  L 98.70798206635803 25.72042436817206  L 108.35874681395511 25.72042436817206  L 108.35874681395511 27.065938031687573  L 98.70798206635803 27.065938031687573  Z M 111.34201768189551 34.04991138875788  L 111.34201768189551 24.79793514075586  L 112.99505937923975 24.79793514075586  L 112.99505937923975 34.04991138875788  L 111.34201768189551 34.04991138875788  Z M 101.36075439500875 36.264866004671205  L 101.36075439500875 35  L 112.99505937923975 35  L 112.99505937923975 39.25703988552168  L 103.03081512012372 39.25703988552168  L 103.03081512012372 42.03789824757386  L 101.40571146836729 42.03789824757386  L 101.40571146836729 38.0169267593074  L 111.35799970797412 38.0169267593074  L 111.35799970797412 36.264866004671205  L 101.36075439500875 36.264866004671205  Z M 101.40571146836729 42  L 101.40571146836729 41  L 113.6666704751385 41  L 113.6666704751385 42  L 101.40571146836729 42  Z M 131 42.72735938498486  L 131 24.790188216394935  L 132 24.790188216394935  L 132 42.72735938498486  L 131 42.72735938498486  Z M 127.21790358730934 33.345274147569505  L 127.21790358730934 31.984599510988275  L 130.69789826577684 31.984599510988275  L 130.69789826577684 33.345274147569505  L 127.21790358730934 33.345274147569505  Z M 127 41.80983303098738  L 127 25.188625246075272  L 128 25.188625246075272  L 128 41.80983303098738  L 127 41.80983303098738  Z M 117.17564020088592 38.31323148540128  L 117.17564020088592 36.92924042217905  C 117.17564020088592 36.92924042217905  118.35196612035107 36.92924042217905  118.35196612035107 36.92924042217905  C 119.24012238697934 36.92924042217905  120.04636963811697 36.91737030132111  120.77062006698004 36.89363785768439  C 121.49487049584313 36.86964098491401  122.1891225769284 36.81861778720158  122.85340746556012 36.7405453172862  C 123.51835864922438 36.662274522750046  124.19559509805228 36.55153849609177  124.88519878092752 36.408350543176454  C 124.88519878092752 36.408350543176454  125.05111905166727 37.77677210411861  125.05111905166727 37.77677210411861  C 124.33153256889113 37.92551305775888  123.63226876966709 38.040169165147645  122.95332562860118 38.12075370259781  C 122.27504878256781 38.20133824004799  121.56644184114501 38.25359223951465  120.82753315984776 38.27752300592512  C 120.08929077358306 38.30132155776876  119.2641085911578 38.31323148540128  118.35196612035107 38.31323148540128  C 118.35196612035107 38.31323148540128  117.17564020088592 38.31323148540128  117.17564020088592 38.31323148540128  Z M 118 37.55742217743818  L 118 26.976984577941675  L 123.88882315509555 26.976984577941675  L 123.88882315509555 28.325569775920602  L 118.81770188031355 28.325569775920602  L 118.81770188031355 37.55742217743818  L 118 37.55742217743818  Z M 140.94402398485184 34.69882221896715  L 140.94402398485184 26.351284259391907  L 149.18727243573977 26.351284259391907  L 149.18727243573977 34.69882221896715  L 140.94402398485184 34.69882221896715  Z M 147.56521878896018 33.373432401936086  L 147.56521878896018 27.676658945711328  L 142.56205162506203 27.676658945711328  L 142.56205162506203 33.373432401936086  L 147.56521878896018 33.373432401936086  Z M 154 37.90011766542777  L 154 24.81002457935817  L 155 24.81002457935817  L 155 37.90011766542777  L 154 37.90011766542777  Z M 148.7055546496987 31.120605614781738  L 148.7055546496987 29.779752210452102  L 153.7836299358279 29.779752210452102  L 153.7836299358279 31.120605614781738  L 148.7055546496987 31.120605614781738  Z M 143.43856205530443 42  L 143.43856205530443 41  L 155.47961570324594 41  L 155.47961570324594 42  L 143.43856205530443 42  Z M 143.43856205530443 41.57778843723894  L 143.43856205530443 36.69997987937282  L 145.09160375264867 36.69997987937282  L 145.09160375264867 41.57778843723894  L 143.43856205530443 41.57778843723894  Z M 171 42.750660680914216  L 171 24.782456422745643  L 173 24.782456422745643  L 173 42.750660680914216  L 171 42.750660680914216  Z M 167.83054985683376 32.666616338271204  L 167.83054985683376 31.31803114029228  L 172.20206099002968 31.31803114029228  L 172.20206099002968 32.666616338271204  L 167.83054985683376 32.666616338271204  Z M 163.0782761023299 30.040348457069825  C 163.0782761023299 30.040348457069825  163.0782761023299 27.351605867496815  163.0782761023299 27.351605867496815  L 164.42149829412736 27.351605867496815  C 164.42149829412736 27.351605867496815  164.42149829412736 30.040348457069825  164.42149829412736 30.040348457069825  C 164.42149829412736 31.00161161067834  164.29093889944699 31.94922124747285  164.02975565490286 32.88318221400943  C 163.7685724103588 33.817143180546005  163.40678180291854 34.69330441487808  162.9443808838469 35.51164404839896  C 162.48197996477523 36.32965317043741  161.942604723812 37.056297086040225  161.3262922435372 37.69158619757168  C 160.70997976326237 38.32680923044838  160.04666646801292 38.83137602680591  159.33640799655146 39.205277720992896  C 159.33640799655146 39.205277720992896  158.34802338375877 37.89635011822881  158.34802338375877 37.89635011822881  C 159.0003152000865 37.577449536083726  159.61295236479384 37.139622092368164  160.18595638279868 36.58286817126034  C 160.75896040080352 36.02591595508392  161.2620144013474 35.39426719820669  161.6950988453359 34.687912975872955  C 162.12884955457176 33.98162483219397  162.46762264715832 33.22975193253594  162.7114825038159 32.4323021377764  C 162.95600864061342 31.634720126603014  163.0782761023299 30.837401602587832  163.0782761023299 30.040348457069825  Z M 163.43006367635786 30.040348457069825  C 163.43006367635786 30.040348457069825  163.43006367635786 27.351605867496815  163.43006367635786 27.351605867496815  L 164.74632382416013 27.351605867496815  C 164.74632382416013 27.351605867496815  164.74632382416013 30.040348457069825  164.74632382416013 30.040348457069825  C 164.74632382416013 30.789672304650843  164.86822056432442 31.541247436632098  165.11208042098204 32.29506658317948  C 165.35660655777954 33.04888572972686  165.6947601925682 33.76571909285549  166.12651207627684 34.44556436749601  C 166.55826395998548 35.12547577989563  167.06063751752453 35.73263512535352  167.63364153552936 36.267044827147714  C 168.2066455535342 36.801520607596665  168.81928271824154 37.221627298731356  169.4715745345692 37.52737258411629  C 169.4715745345692 37.52737258411629  168.49118093481587 38.8285683932311  168.49118093481587 38.8285683932311  C 167.77559216266454 38.47297837683983  167.10961815506568 37.99079200120563  166.49330567479083 37.382011837367386  C 165.87699319451605 36.77323167352914  165.33965925278207 36.07550355264884  164.88125604433526 35.28882918875241  C 164.42285283588842 34.50215482485598  164.0663836829322 33.660412945188995  163.8118632993579 32.763604199899234  C 163.55734291578355 31.866597100436536  163.43006367635786 30.95884033960399  163.43006367635786 30.040348457069825  Z M 159.0126194682108 27.98535572464036  L 159.0126194682108 26.624363343114645  L 168.83497749580457 26.624363343114645  L 168.83497749580457 27.98535572464036  L 159.0126194682108 27.98535572464036  Z M 194.44623528687282 33.9197116150747  L 194.44623528687282 24.79793514075586  L 196.10427899237908 24.79793514075586  L 196.10427899237908 33.9197116150747  L 194.44623528687282 33.9197116150747  Z M 195.3817328133672 30.018439186611577  L 195.3817328133672 28.65428448635258  L 198.7637613319788 28.65428448635258  L 198.7637613319788 30.018439186611577  L 195.3817328133672 30.018439186611577  Z M 184.62991626913322 36.08211726945383  L 184.62991626913322 34  L 196.10427899237908 34  L 196.10427899237908 39.16997777073109  L 186.29991599414862 39.16997777073109  L 186.29991599414862 41.86039986929641  L 184.67389734089917 41.86039986929641  L 184.67389734089917 37.929864644516805  L 194.47423433256014 37.929864644516805  L 194.47423433256014 36.08211726945383  L 184.62991626913322 36.08211726945383  Z M 184.67389734089917 42  L 184.67389734089917 41  L 196.7549060540372 41  L 196.7549060540372 42  L 184.67389734089917 42  Z M 184.67987535065376 25.938578968632747  C 185.38147216540344 25.603283817140518  186.17936645369238 25.435634113638084  187.0735192564727 25.435634113638084  C 187.9809977216221 25.435634113638084  188.78551338009044 25.603283817140518  189.4871101948401 25.938578968632747  C 190.18804071455727 26.273874120124972  190.739358780184 26.74157511487872  191.14112789377694 27.341695251371018  C 191.5428970073699 27.94181538786332  191.74380887719926 28.635012806276183  191.74380887719926 29.421290520931084  C 191.74380887719926 30.20069310027477  191.5428970073699 30.89214380805807  191.14112789377694 31.495635433551225  C 190.739358780184 32.099060921285286  190.18804071455727 32.57046385741799  189.4871101948401 32.90985765863505  C 188.78551338009044 33.249251459852104  187.9809977216221 33.418960713268184  187.0735192564727 33.418960713268184  C 186.17936645369238 33.418960713268184  185.38147216540344 33.249251459852104  184.67987535065376 32.90985765863505  C 183.97894483093657 32.57046385741799  183.42558543629536 32.099060921285286  183.0198186418628 31.495635433551225  C 182.61405184743023 30.89214380805807  182.4111596486859 30.199348417381888  182.4111596486859 29.41723549021091  C 182.4111596486859 28.635320858108535  182.61405184743023 27.943870091220887  183.0198186418628 27.342890577590776  C 183.42558543629536 26.741977142615404  183.97894483093657 26.273874120124972  184.67987535065376 25.938578968632747  Z M 188.65159183148634 27.123843265143183  C 188.18919091241472 26.897426483441027  187.66379982512942 26.784219311617004  187.07547125965786 26.784219311617004  C 186.48780898921888 26.784219311617004  185.96513964416772 26.897426483441027  185.5074027009682 27.123843265143183  C 185.05033205280125 27.350260046845346  184.68854144536104 27.659606013094706  184.42202792991222 28.051885463732166  C 184.15484814921615 28.44423102257655  184.02125727595632 28.900697227518418  184.02125727595632 29.421290520931084  C 184.02125727595632 29.941685519275158  184.15484814921615 30.40142693224419  184.42202792991222 30.800515409985948  C 184.68854144536104 31.199471671313862  185.05033205280125 31.512157357980062  185.5074027009682 31.73857413968222  C 185.96513964416772 31.96492481317746  186.48780898921888 32.07810730893855  187.07547125965786 32.07810730893855  C 187.66379982512942 32.07810730893855  188.18919091241472 31.96492481317746  188.65159183148634 31.73857413968222  C 189.113992750558 31.512157357980062  189.4770832439084 31.199471671313862  189.74093160901222 30.800515409985948  C 190.00544626914856 30.40142693224419  190.13773725649824 29.941685519275158  190.13773725649824 29.421290520931084  C 190.13773725649824 28.900697227518418  190.00544626914856 28.44423102257655  189.74093160901222 28.051885463732166  C 189.4770832439084 27.659606013094706  189.113992750558 27.350260046845346  188.65159183148634 27.123843265143183  Z M 213 42.750660680914216  L 213 24.782456422745643  L 215 24.782456422745643  L 215 42.750660680914216  L 213 42.750660680914216  Z M 210.1182588596351 30.233416337627343  L 210.1182588596351 28.880564278965252  L 214.12096339103232 28.880564278965252  L 214.12096339103232 30.233416337627343  L 210.1182588596351 30.233416337627343  Z M 201.14441221659644 38.579365572480135  L 201.14441221659644 37.1954804242394  C 201.14441221659644 37.1954804242394  202.4886104099865 37.1954804242394  202.4886104099865 37.1954804242394  C 203.42940309062902 37.1954804242394  204.32122585640417 37.18154119703446  205.1640747756649 37.153644006548056  C 206.00692369492555 37.12574681606166  206.8501116889583 37.07398402354924  207.69362690325153 36.99835751296171  C 208.5378084125773 36.922731002374185  209.4213392156033 36.813354744992175  210.3441422282194 36.670232900283786  C 210.3441422282194 36.670232900283786  210.4860284597417 38.03865446122594  210.4860284597417 38.03865446122594  C 209.54190436350686 38.18699876562467  208.64073851510338 38.30029510373718  207.782565048376 38.37856589827333  C 206.92372528661608 38.45663836818871  206.06593378535564 38.509631964302386  205.20909284912292 38.537529154788785  C 204.35225191289018 38.56542634527519  203.4453938735579 38.579365572480135  202.4886104099865 38.579365572480135  C 202.4886104099865 38.579365572480135  201.14441221659644 38.579365572480135  201.14441221659644 38.579365572480135  Z M 201.09945514323795 27.768093836166585  L 201.09945514323795 26.410778217569977  L 208.98987901840576 26.410778217569977  L 208.98987901840576 32.83054246820539  L 202.78147188786207 32.83054246820539  L 202.78147188786207 37.51676595525494  L 201.14441221659644 37.51676595525494  L 201.14441221659644 31.488796351888844  L 207.35983435858688 31.488796351888844  L 207.35983435858688 27.768093836166585  L 201.09945514323795 27.768093836166585  Z M 209.9963196606613 35.13354269516606  L 209.9963196606613 33.78059985223411  L 213.99902419205853 33.78059985223411  L 213.99902419205853 35.13354269516606  L 209.9963196606613 35.13354269516606  Z M 226.09906493625198 27.323447613130238  C 226.09906493625198 27.323447613130238  226.09906493625198 26.568243533632835  226.09906493625198 26.568243533632835  L 227.54421829437524 26.568243533632835  C 227.54421829437524 26.568243533632835  227.54421829437524 27.323447613130238  227.54421829437524 27.323447613130238  C 227.54421829437524 27.96323202362806  227.41761949795443 28.567791250857137  227.16443167465994 29.137105494862798  C 226.91124385136547 29.70622144379987  226.55681602742382 30.231044657681736  226.10107793953668 30.711577086951692  C 225.64533985164962 31.192109516221652  225.1189585850142 31.618493561349  224.5219683628309 31.990742579915107  C 223.92497814064762 32.36279327386045  223.281650896565 32.67607445155195  222.59204721368974 32.93058673358519  C 221.90310982584703 33.185099015618434  221.19221287873438 33.37446921030965  220.45930073358915 33.49868443291219  C 220.45930073358915 33.49868443291219  219.82465569800962 32.19313097884437  219.82465569800962 32.19313097884437  C 220.45895784631088 32.10348976480672  221.08093809364655 31.951645397298385  221.69058774273682 31.737590643425467  C 222.3002373918271 31.52333756493178  222.8702416822809 31.262737107129666  223.40060353304833 30.955801903572297  C 223.9309653838157 30.64880059180801  224.39967844307 30.30379492194102  224.80677782756763 29.92077044295963  C 225.21387721206528 29.53781207218516  225.53105461633697 29.126816197215547  225.7582573801406 28.687799012640586  C 225.98546014394424 28.24878182806562  226.09906493625198 27.79399785091581  226.09906493625198 27.323447613130238  Z M 226.52179562604113 27.323447613130238  C 226.52179562604113 27.323447613130238  226.52179562604113 26.568243533632835  226.52179562604113 26.568243533632835  L 227.9549929646552 26.568243533632835  C 227.9549929646552 26.568243533632835  227.9549929646552 27.323447613130238  227.9549929646552 27.323447613130238  C 227.9549929646552 27.79399785091581  228.0682880355103 28.24878182806562  228.29482451917397 28.687799012640586  C 228.5220272829776 29.126816197215547  228.8391436871498 29.53781207218516  229.24624307164743 29.92077044295963  C 229.65400872139242 30.30379492194102  230.1230925170915 30.64880059180801  230.65345436785887 30.955801903572297  C 231.18381621862628 31.262737107129666  231.7534498024205 31.52333756493178  232.36243315647823 31.737590643425467  C 232.97208280556848 31.951645397298385  233.59443375956377 32.10348976480672  234.22940220289755 32.19313097884437  C 234.22940220289755 32.19313097884437  233.60677418692677 33.49868443291219  233.60677418692677 33.49868443291219  C 232.87386204178154 33.37446921030965  232.16055308878 33.185099015618434  231.4669516952799 32.93058673358519  C 230.77335030177983 32.67607445155195  230.12810375866698 32.36279327386045  229.53111353648367 31.990742579915107  C 228.9341233143004 31.618493561349  228.40972234679478 31.192109516221652  227.95798196953248 30.711577086951692  C 227.50690785751755 30.231044657681736  227.15477006905093 29.70622144379987  226.90158224575643 29.137105494862798  C 226.64839442246196 28.567791250857137  226.52179562604113 27.96323202362806  226.52179562604113 27.323447613130238  Z M 226.16903205042055 42.71873487934867  L 226.16903205042055 35.88994210088321  L 227.81408273472547 35.88994210088321  L 227.81408273472547 42.71873487934867  L 226.16903205042055 42.71873487934867  Z M 218.86122012592747 36  L 218.86122012592747 35  L 235.1968027814496 35  L 235.1968027814496 36  L 218.86122012592747 36  Z M 220.39335962599 27  L 220.39335962599 26  L 233.62470821619056 26  L 233.62470821619056 27  L 220.39335962599 27  Z M 242.03192493463305 30.269109686391854  C 242.03192493463305 30.269109686391854  242.03192493463305 27.363710436810766  242.03192493463305 27.363710436810766  L 243.38313813946985 27.363710436810766  C 243.38313813946985 27.363710436810766  243.38313813946985 30.269109686391854  243.38313813946985 30.269109686391854  C 243.38313813946985 31.215432621653335  243.24917655955045 32.14950511808394  242.9813304838218 33.07130235185987  C 242.71348440809314 33.99290129056721  242.34272142468416 34.85860152913749  241.8689936687706 35.668413351726265  C 241.39459964760974 36.47802687924646  240.8445814083228 37.1934112994223  240.21894097630368 37.81455349108978  C 239.59330054428457 38.435761820516355  238.92268546563608 38.92567446354384  238.20709669348477 39.28430542790135  C 238.20709669348477 39.28430542790135  237.2416481181179 37.9753929558489  237.2416481181179 37.9753929558489  C 237.89460616990772 37.66158261698032  238.51095528598452 37.232012463621906  239.0906221351739 36.68669511455076  C 239.6702889843633 36.14104719489282  240.17996435508658 35.51735807890465  240.61971163025962 34.815631312846776  C 241.05945890543268 34.113838468134155  241.40491435340556 33.373642222351435  241.65610332138766 32.59503294149083  C 241.9066260241224 31.81642366063021  242.03192493463305 31.041108264768944  242.03192493463305 30.269109686391854  Z M 242.3566894645663 30.269109686391854  C 242.3566894645663 30.269109686391854  242.3566894645663 27.363710436810766  242.3566894645663 27.363710436810766  L 243.70094865805592 27.363710436810766  C 243.70094865805592 27.363710436810766  243.70094865805592 30.269109686391854  243.70094865805592 30.269109686391854  C 243.70094865805592 31.020416721076195  243.82618656846705 31.76762995259178  244.0767092712018 32.5107397469308  C 244.32723197393653 33.253651187096885  244.67540913435838 33.95220806906566  245.12115297546868 34.60640383225514  C 245.56689681657895 35.260467379030764  246.07892316330637 35.84035332123145  246.6572574820011 36.34607253405618  C 247.23559180069583 36.8517917468809  247.85924264060125 37.24834210684898  248.5281915348903 37.53570960623128  C 248.5281915348903 37.53570960623128  247.59373101008805 38.84462207828373  247.59373101008805 38.84462207828373  C 246.8621514550079 38.504368899928856  246.1795325218112 38.044925254636595  245.5458966685425 37.46628990121577  C 244.91226081527378 36.887654547794945  244.35624067849793 36.21666883676015  243.87784894671225 35.453330285729  C 243.39945721492654 34.68999173469786  243.026343195943 33.868610591719474  242.75849712021434 32.989187979776354  C 242.4906510444857 32.10956707276464  242.3566894645663 31.202872298755498  242.3566894645663 30.269109686391854  Z M 237.83029907864676 28  L 237.83029907864676 26  L 247.93252556291472 26  L 247.93252556291472 28  L 237.83029907864676 28  Z M 250 42.73509117863414  L 250 24.79793514075586  L 252 24.79793514075586  L 252 42.73509117863414  L 250 42.73509117863414  Z M 261 38.179354948788976  L 261 26.584705747899807  L 269 26.584705747899807  L 269 38.179354948788976  L 261 38.179354948788976  Z M 268.214875658559 36.853980262469555  L 268.214875658559 27.910277133470583  L 263.16577541970975 27.910277133470583  L 263.16577541970975 36.853980262469555  L 268.214875658559 36.853980262469555  Z M 273 42.73509117863414  L 273 24.79793514075586  L 274 24.79793514075586  L 274 42.73509117863414  L 273 42.73509117863414  Z M 274.34233565701754 33.33932777789403  L 274.34233565701754 31.955442629653298  L 277.6823961071479 31.955442629653298  L 277.6823961071479 33.33932777789403  L 274.34233565701754 33.33932777789403  Z M 286.34142123647786 32.58233827442282  L 286.34142123647786 31.21391671348066  L 289.81342490190605 31.21391671348066  L 289.81342490190605 32.58233827442282  L 286.34142123647786 32.58233827442282  Z M 282.9783637488221 29.89786254553298  C 282.9783637488221 29.89786254553298  282.9783637488221 26.482376745061995  282.9783637488221 26.482376745061995  L 284.2706508575065 26.482376745061995  C 284.2706508575065 26.482376745061995  284.2706508575065 29.89786254553298  284.2706508575065 29.89786254553298  C 284.2706508575065 30.833872777827633  284.1746811105762 31.751400313911965  283.98279138779293 32.650456738237075  C 283.7915679451496 33.54951316256219  283.51405295154416 34.3957857446966  283.1502620293165 35.18926910614516  C 282.78713737233613 35.98281860535281  282.3444123510932 36.69597467361325  281.822045862005 37.328751732386  C 281.29967937291684 37.961264358331064  280.7103695040862 38.47525483968991  280.05407997713365 38.870707425155295  C 280.05407997713365 38.870707425155295  279.01366227943623 37.632394853626465  279.01366227943623 37.632394853626465  C 279.63530500083056 37.268607537785535  280.19033501782667 36.8076106599284  280.6787209963892 36.249402417372636  C 281.1664407097044 35.69099582064393  281.58317778229156 35.06637362440302  281.92897903649276 34.37555456472645  C 282.2741140254467 33.68453715087694  282.53529382979957 32.95778897521421  282.7125253150413 32.195309801320874  C 282.889756800283 31.432764548772802  282.9783637488221 30.666952421909834  282.9783637488221 29.89786254553298  Z M 283.2951982658156 29.836174634166756  C 283.2951982658156 29.836174634166756  283.2951982658156 26.482376745061995  283.2951982658156 26.482376745061995  L 284.5724793500139 26.482376745061995  C 284.5724793500139 26.482376745061995  284.5724793500139 29.836174634166756  284.5724793500139 29.836174634166756  C 284.5724793500139 30.5544942350882  284.65508438617155 31.274344933998307  284.8203227544314 31.99570545333383  C 284.9855611226913 32.717132110428444  285.22743530398964 33.4054612814747  285.54591893842013 34.060714716870585  C 285.8650688678831 34.71603429002556  286.25513748923936 35.31440529261025  286.7162058480311 35.855822346129514  C 287.17660791179037 36.39710718323493  287.70465974121026 36.84561377683991  288.3003174328989 37.201336009645026  C 288.3003174328989 37.201336009645026  287.34987488201807 38.47832268013193  287.34987488201807 38.47832268013193  C 286.6989156557554 38.08293617332129  286.1209291091125 37.577644905487375  285.6158860525887 36.9624523342342  C 285.1108429960648 36.346995330153334  284.6863724035342 35.65245328795193  284.3425699748602 34.87880203395396  C 283.9987675461862 34.1049524848874  283.7382681848381 33.28914890048821  283.5610366995964 32.43140942578949  C 283.3838052143547 31.573471656022182  283.2951982658156 30.708391540211878  283.2951982658156 29.836174634166756  Z M 293 42.72735938498486  L 293 24.790188216394935  L 294 24.790188216394935  L 294 42.72735938498486  L 293 42.72735938498486  Z M 289 41.83313432691673  L 289 25.173449142297905  L 290 25.173449142297905  L 290 41.83313432691673  L 289 41.83313432691673  Z M 301.6206651683235 39.38970596520258  L 301.6206651683235 34.02571738084162  L 303.266691854221 34.02571738084162  L 303.266691854221 39.38970596520258  L 301.6206651683235 39.38970596520258  Z M 308.2958450605218 39.38970596520258  L 308.2958450605218 34.02571738084162  L 309.953888766028 34.02571738084162  L 309.953888766028 39.38970596520258  L 308.2958450605218 39.38970596520258  Z M 297.61094562547953 40  L 297.61094562547953 39  L 313.9955723610292 39  L 313.9955723610292 40  L 297.61094562547953 40  Z M 302.3772494028768 26.500715167572633  C 303.368679612436 26.117889013212007  304.49934505114487 25.926474399318796  305.7692819378124 25.926474399318796  C 307.0465478911267 25.926474399318796  308.1788839819757 26.117889013212007  309.16631648091004 26.500715167572633  C 310.15441527487695 26.88347521372633  310.9296627996497 27.41870448588377  311.49200627584514 28.106416548491513  C 312.0550160470732 28.793930256926327  312.3364916538308 29.60758510295926  312.3364916538308 30.547363473496304  C 312.3364916538308 31.47372208489335  312.0550160470732 32.2827021320722  311.49200627584514 32.97431449023184  C 310.9296627996497 33.66592684839148  310.15441527487695 34.20119595687566  309.16631648091004 34.58012178613222  C 308.1788839819757 34.95878318256109  307.0465478911267 35.148113570477726  305.7692819378124 35.148113570477726  C 304.49934505114487 35.148113570477726  303.368679612436 34.95878318256109  302.3772494028768 34.58012178613222  C 301.3858191933176 34.20119595687566  300.60859136941514 33.66592684839148  300.04558159818714 32.97431449023184  C 299.48323812199163 32.2827021320722  299.202072221794 31.47372208489335  299.202072221794 30.547363473496304  C 299.202072221794 29.60758510295926  299.48323812199163 28.793930256926327  300.04558159818714 28.106416548491513  C 300.60859136941514 27.41870448588377  301.3858191933176 26.88347521372633  302.3772494028768 26.500715167572633  Z M 308.3417781354729 27.644430529912935  C 307.5968729180236 27.36949113701463  306.7393910637529 27.232027853386626  305.7692819378124 27.232027853386626  C 304.8071681735512 27.232027853386626  303.95129597132103 27.36949113701463  303.20172674821447 27.644430529912935  C 302.4534901151729 27.91936992281124  301.8665311925613 28.304347888963918  301.44077587478984 28.79935774958028  C 301.015686852051 29.294103206921132  300.803141834333 29.87677317051185  300.803141834333 30.547363473496304  C 300.803141834333 31.20453401734076  301.015686852051 31.780589082039647  301.44077587478984 32.275532834449095  C 301.8665311925613 32.77034439999686  302.4534901151729 33.156538024263064  303.20172674821447 33.43412168633391  C 303.95129597132103 33.71157313199091  304.8071681735512 33.85030704077083  305.7692819378124 33.85030704077083  C 306.7393910637529 33.85030704077083  307.5968729180236 33.71157313199091  308.3417781354729 33.43412168633391  C 309.08668335292214 33.156538024263064  309.67172297650353 32.77034439999686  310.09681199924245 32.275532834449095  C 310.52256731701385 31.780589082039647  310.7354220412918 31.20453401734076  310.7354220412918 30.547363473496304  C 310.7354220412918 29.87677317051185  310.52256731701385 29.294103206921132  310.09681199924245 28.79935774958028  C 309.67172297650353 28.304347888963918  309.08668335292214 27.91936992281124  308.3417781354729 27.644430529912935  Z M 0 47  L 0 45  L 18.389425506872097 45  L 18.389425506872097 47  L 0 47  Z M 0 47  L 0 45  L 18.389425506872097 45  L 18.389425506872097 47  L 0 47  Z M 0 47  L 0 45  L 18.389425506872097 45  L 18.389425506872097 47  L 0 47  Z M 18.389425506872097 47  L 18.389425506872097 45  L 36.778851013744195 45  L 36.778851013744195 47  L 18.389425506872097 47  Z M 18.389425506872097 47  L 18.389425506872097 45  L 36.778851013744195 45  L 36.778851013744195 47  L 18.389425506872097 47  Z M 18.389425506872097 47  L 18.389425506872097 45  L 36.778851013744195 45  L 36.778851013744195 47  L 18.389425506872097 47  Z M 36.778851013744195 47  L 36.778851013744195 45  L 55.16830702066606 45  L 55.16830702066606 47  L 36.778851013744195 47  Z M 36.778851013744195 47  L 36.778851013744195 45  L 55.16830702066606 45  L 55.16830702066606 47  L 36.778851013744195 47  Z M 36.778851013744195 47  L 36.778851013744195 45  L 55.16830702066606 45  L 55.16830702066606 47  L 36.778851013744195 47  Z M 55.16830702066606 47  L 55.16830702066606 45  L 73.55770202748839 45  L 73.55770202748839 47  L 55.16830702066606 47  Z M 55.16830702066606 47  L 55.16830702066606 45  L 73.55770202748839 45  L 73.55770202748839 47  L 55.16830702066606 47  Z M 55.16830702066606 47  L 55.16830702066606 45  L 73.55770202748839 45  L 73.55770202748839 47  L 55.16830702066606 47  Z M 73.55770202748839 47  L 73.55770202748839 45  L 91.94715803441025 45  L 91.94715803441025 47  L 73.55770202748839 47  Z M 73.55770202748839 47  L 73.55770202748839 45  L 91.94715803441025 45  L 91.94715803441025 47  L 73.55770202748839 47  Z M 73.55770202748839 47  L 73.55770202748839 45  L 91.94715803441025 45  L 91.94715803441025 47  L 73.55770202748839 47  Z M 91.94715803441025 47  L 91.94715803441025 45.58338712247667  L 97.13948650697164 45.58338712247667  L 97.13948650697164 47  L 91.94715803441025 47  Z M 91.94715803441025 47  L 91.94715803441025 45.58338712247667  L 97.13948650697164 45.58338712247667  L 97.13948650697164 47  L 91.94715803441025 47  Z M 91.94715803441025 47  L 91.94715803441025 45.58338712247667  L 97.13948650697164 45.58338712247667  L 97.13948650697164 47  L 91.94715803441025 47  Z M 97.13948650697164 47  L 97.13948650697164 45  L 115.52857651329629 45  L 115.52857651329629 47  L 97.13948650697164 47  Z M 97.13948650697164 47  L 97.13948650697164 45  L 115.52857651329629 45  L 115.52857651329629 47  L 97.13948650697164 47  Z M 97.13948650697164 47  L 97.13948650697164 45  L 115.52857651329629 45  L 115.52857651329629 47  L 97.13948650697164 47  Z M 115.52857651329629 47  L 115.52857651329629 45  L 133.91803252021816 45  L 133.91803252021816 47  L 115.52857651329629 47  Z M 115.52857651329629 47  L 115.52857651329629 45  L 133.91803252021816 45  L 133.91803252021816 47  L 115.52857651329629 47  Z M 115.52857651329629 47  L 115.52857651329629 45  L 133.91803252021816 45  L 133.91803252021816 47  L 115.52857651329629 47  Z M 133.91803252021816 47  L 133.91803252021816 45.58338712247667  L 139.11103199387443 45.58338712247667  L 139.11103199387443 47  L 133.91803252021816 47  Z M 133.91803252021816 47  L 133.91803252021816 45.58338712247667  L 139.11103199387443 45.58338712247667  L 139.11103199387443 47  L 133.91803252021816 47  Z M 133.91803252021816 47  L 133.91803252021816 45.58338712247667  L 139.11103199387443 45.58338712247667  L 139.11103199387443 47  L 133.91803252021816 47  Z M 139.11103199387443 47  L 139.11103199387443 45  L 157.50048800079628 45  L 157.50048800079628 47  L 139.11103199387443 47  Z M 139.11103199387443 47  L 139.11103199387443 45  L 157.50048800079628 45  L 157.50048800079628 47  L 139.11103199387443 47  Z M 139.11103199387443 47  L 139.11103199387443 45  L 157.50048800079628 45  L 157.50048800079628 47  L 139.11103199387443 47  Z M 157.50048800079628 47  L 157.50048800079628 45  L 175.88994400771816 45  L 175.88994400771816 47  L 157.50048800079628 47  Z M 157.50048800079628 47  L 157.50048800079628 45  L 175.88994400771816 45  L 175.88994400771816 47  L 157.50048800079628 47  Z M 157.50048800079628 47  L 157.50048800079628 45  L 175.88994400771816 45  L 175.88994400771816 47  L 157.50048800079628 47  Z M 175.88994400771816 47  L 175.88994400771816 45.58338712247667  L 181.08190647968232 45.58338712247667  L 181.08190647968232 47  L 175.88994400771816 47  Z M 175.88994400771816 47  L 175.88994400771816 45.58338712247667  L 181.08190647968232 45.58338712247667  L 181.08190647968232 47  L 175.88994400771816 47  Z M 175.88994400771816 47  L 175.88994400771816 45.58338712247667  L 181.08190647968232 45.58338712247667  L 181.08190647968232 47  L 175.88994400771816 47  Z M 181.08190647968232 47  L 181.08190647968232 45  L 199.4713624866042 45  L 199.4713624866042 47  L 181.08190647968232 47  Z M 181.08190647968232 47  L 181.08190647968232 45  L 199.4713624866042 45  L 199.4713624866042 47  L 181.08190647968232 47  Z M 181.08190647968232 47  L 181.08190647968232 45  L 199.4713624866042 45  L 199.4713624866042 47  L 181.08190647968232 47  Z M 199.4713624866042 47  L 199.4713624866042 45  L 217.86081849352604 45  L 217.86081849352604 47  L 199.4713624866042 47  Z M 199.4713624866042 47  L 199.4713624866042 45  L 217.86081849352604 45  L 217.86081849352604 47  L 199.4713624866042 47  Z M 199.4713624866042 47  L 199.4713624866042 45  L 217.86081849352604 45  L 217.86081849352604 47  L 199.4713624866042 47  Z M 217.86081849352604 47  L 217.86081849352604 45  L 236.2502135003484 45  L 236.2502135003484 47  L 217.86081849352604 47  Z M 217.86081849352604 47  L 217.86081849352604 45  L 236.2502135003484 45  L 236.2502135003484 47  L 217.86081849352604 47  Z M 217.86081849352604 47  L 217.86081849352604 45  L 236.2502135003484 45  L 236.2502135003484 47  L 217.86081849352604 47  Z M 236.2502135003484 47  L 236.2502135003484 45  L 254.63966950727024 45  L 254.63966950727024 47  L 236.2502135003484 47  Z M 236.2502135003484 47  L 236.2502135003484 45  L 254.63966950727024 45  L 254.63966950727024 47  L 236.2502135003484 47  Z M 236.2502135003484 47  L 236.2502135003484 45  L 254.63966950727024 45  L 254.63966950727024 47  L 236.2502135003484 47  Z M 254.63966950727024 47  L 254.63966950727024 45.58338712247667  L 259.8316929793339 45.58338712247667  L 259.8316929793339 47  L 254.63966950727024 47  Z M 254.63966950727024 47  L 254.63966950727024 45.58338712247667  L 259.8316929793339 45.58338712247667  L 259.8316929793339 47  L 254.63966950727024 47  Z M 254.63966950727024 47  L 254.63966950727024 45.58338712247667  L 259.8316929793339 45.58338712247667  L 259.8316929793339 47  L 254.63966950727024 47  Z M 259.8316929793339 47  L 259.8316929793339 45  L 278.22108798615625 45  L 278.22108798615625 47  L 259.8316929793339 47  Z M 259.8316929793339 47  L 259.8316929793339 45  L 278.22108798615625 45  L 278.22108798615625 47  L 259.8316929793339 47  Z M 259.8316929793339 47  L 259.8316929793339 45  L 278.22108798615625 45  L 278.22108798615625 47  L 259.8316929793339 47  Z M 278.22108798615625 47  L 278.22108798615625 45  L 296.6105439930781 45  L 296.6105439930781 47  L 278.22108798615625 47  Z M 278.22108798615625 47  L 278.22108798615625 45  L 296.6105439930781 45  L 296.6105439930781 47  L 278.22108798615625 47  Z M 278.22108798615625 47  L 278.22108798615625 45  L 296.6105439930781 45  L 296.6105439930781 47  L 278.22108798615625 47  Z M 296.6105439930781 47  L 296.6105439930781 45  L 315 45  L 315 47  L 296.6105439930781 47  Z M 296.6105439930781 47  L 296.6105439930781 45  L 315 45  L 315 47  L 296.6105439930781 47  Z M 296.6105439930781 47  L 296.6105439930781 45  L 315 45  L 315 47  L 296.6105439930781 47  Z " fill-rule="nonzero" fill="#55565d" stroke="none" transform="matrix(1 0 0 1 481 230 )" />
  </g>
</svg>