<?xml version="1.0" encoding="utf-8"?>
<svg version="1.1" xmlns:xlink="http://www.w3.org/1999/xlink" width="23px" height="35px" xmlns="http://www.w3.org/2000/svg">
  <g transform="matrix(1 0 0 1 -658 -388 )">
    <path d="M 21.759398232192254 8.081381365273108  C 22.586473581042362 10.693780655411812  23 13.829440058632581  23 17.488341832188137  C 23 20.24804353936351  22.78526121485118 22.713141831885327  22.355809128630707 24.883647591971915  C 21.92635704241023 27.054219591648337  21.25036277085089 28.891417435027886  20.327800829875518 30.39526596195674  C 19.405238888900143 31.899180728475432  18.21227584142408 33.04260462489142  16.74896265560166 33.82555314653733  C 15.285581512240123 34.60850166818324  13.527982814678019 35  11.476141078838175 35  C 8.883473344858256 35  6.740149475561962 34.31005955101346  5.046161825726141 32.93017557763085  C 3.3521809716442315 31.550357843838086  2.08765645112899 29.554230406275252  1.2525933609958506 26.941844127484554  C 0.4175302708627112 24.329391845673978  0 21.17824136808924  0 17.488341832188137  C 0 13.860451068896095  0.37776710119814627 10.740292202837844  1.133298755186722 8.12789291269914  C 1.8888304091752977 5.515493622560436  3.1096093268809972 3.507743384395315  4.795643153526971 2.1046475210279607  C 6.481676980172945 0.7015450337016219  8.708509621943346 0  11.476141078838175 0  C 14.100630901331394 0  16.263839753336928 0.6937947651203624  17.96576763485477 2.0813917473149446  C 19.667695516372618 3.4689854175300345  20.932255047155778 5.468985150543932  21.759398232192254 8.081381365273108  Z M 4.712136929460581 9.662773977758206  C 4.227001285157263 11.763551214179794  3.9844398340248963 14.372079746572195  3.9844398340248963 17.488341832188137  C 3.9844398340248963 20.65116017695325  4.2309769225483285 23.286811692255515  4.724066390041494 25.39533517556898  C 5.217149061780748 27.503858658882443  6.016422071232671 29.081365727998506  7.121887966804979 30.127854845212408  C 8.227374249639023 31.17434396242631  9.678794502057805 31.69758928988564  11.476141078838175 31.69758928988564  C 13.273487655618545 31.69758928988564  14.72487295844578 31.178232344634907  15.830332058264178 30.139482732068913  C 16.935858994268944 29.100733119502927  17.739100906034395 27.527084151640103  18.240083095608576 25.418560668326638  C 18.741133151707313 23.310037185013176  18.991701244813278 20.66663918624907  18.991701244813278 17.488341832188137  C 18.991701244813278 14.372079746572195  18.74517877929603 11.763551214179794  18.252136821403873 9.662773977758206  C 17.75902699698716 7.56200312872564  16.96370144075048 5.980610634525523  15.866182572614107 4.918596140302913  C 14.768663704477735 3.8565849580597953  13.305316539885757 3.3255756409613078  11.476141078838175 3.3255756409613078  C 9.646965617790592 3.3255756409613078  8.183618453198614 3.8565849580597953  7.086099585062241 4.918596140302913  C 5.9885875126797785 5.980610634525523  5.197265778009987 7.56200312872564  4.712136929460581 9.662773977758206  Z " fill-rule="nonzero" fill="#3d3d3d" stroke="none" transform="matrix(1 0 0 1 658 388 )" />
  </g>
</svg>