<?xml version="1.0" encoding="utf-8"?>
<svg version="1.1" xmlns:xlink="http://www.w3.org/1999/xlink" width="285px" height="35px" xmlns="http://www.w3.org/2000/svg">
  <g transform="matrix(1 0 0 1 -442 -168 )">
    <path d="M 14.697042027089616 5.725853158936132  C 16.24223920606361 6.798297220424035  17.014819814375276 8.312670259529684  17.014819814375276 10.268976831852378  C 17.014819814375276 11.459277723911336  16.76897365337689 12.49048545959571  16.27730487957497 13.362595123653625  C 15.78563610577305 14.23470478771154  15.121333818641919 14.947717638927008  14.284371433430634 15.501636015041779  C 13.447409048219349 16.055487315951048  12.508001595864304 16.46204179525331  11.466127284609962 16.72130134112459  C 11.466127284609962 16.72130134112459  11.466127284609962 16.827397892098855  11.466127284609962 16.827397892098855  C 13.526434646677655 17.08665743797014  15.092121910806084 17.723079785437164  16.163231350619373 18.736652436572903  C 17.23434079043266 19.750158072445238  17.769893902750784 21.105421171389402  17.769893902750784 22.80244137375282  C 17.769893902750784 24.310933613697014  17.404061948761136 25.660328501319903  16.67238583501712 26.85062939337886  C 15.940776287346026 28.04093028543782  14.814071256395756 28.977837115581405  13.292248771789833 29.661351682072493  C 11.770492972337461 30.344933323769087  9.809729992314661 30.686716382115943  7.409962808737219 30.686716382115943  C 5.993526444707947 30.686716382115943  4.673658637746324 30.57181415740238  3.4503736775281126 30.341986989920848  C 2.2270820487945464 30.112159822439317  1.0769630864081818 29.761546604006924  0 29.290159532840214  C 0 29.290159532840214  0 24.640885600831623  0 24.640885600831623  C 1.1003777918683824 25.206603698442397  2.2534292338821817 25.633847881538085  3.4591532543157157 25.922606821062526  C 4.664883824183974 26.21129871535251  5.788669652997202 26.35564003197058  6.830510740755399 26.35564003197058  C 8.7737579125528 26.35564003197058  10.134588325430169 26.0168362756248  10.913013946990953 25.339221569881715  C 11.691439568551736 24.661539788933126  12.080667175100572 23.70987695305735  12.080667175100572 22.484243791889593  C 12.080667175100572 21.765329941026295  11.89920803054959 21.15841975487889  11.536333414269166 20.66350022601253  C 11.173458797988744 20.168513651911713  10.54428452307948 19.791390591925662  9.648785374217695 19.532131046054385  C 8.753252942319449 19.27280445494864  7.503616152868979 19.1431384919725  5.899875601269445 19.1431384919725  C 5.899875601269445 19.1431384919725  3.950809554421503 19.1431384919725  3.950809554421503 19.1431384919725  L 3.950809554421503 14.95355234261658  C 3.950809554421503 14.95355234261658  5.934993908419858 14.95355234261658  5.934993908419858 14.95355234261658  C 7.515319754559192 14.95355234261658  8.71812493009758 14.80330244367553  9.543399968124831 14.502810797918492  C 10.368708289188541 14.202252106927  10.930601203595156 13.789764019476646  11.229078711344672 13.26534506698608  C 11.527556219094189 12.740926114495513  11.676776158229195 12.142830773228104  11.676776158229195 11.47104891296961  C 11.676776158229195 10.551807258306892  11.395857387272676 9.832926195770145  10.833997755902523 9.314407104027582  C 10.272071558459448 8.79588801228502  9.335583308241443 8.536629155747843  8.024533183869453 8.536629155747843  C 7.205105183462055 8.536629155747843  6.4588405611126145 8.639737248565856  5.785741103030601 8.845964898127757  C 5.112635035973548 9.052192547689659  4.506846916943123 9.299690000715742  3.96836870799671 9.588448940240184  C 3.4298904990502965 9.877140834530165  2.9557946028663453 10.157016325445657  2.5460772684049684 10.428075622783993  C 2.5460772684049684 10.428075622783993  0.03511830715041336 6.6627682610889725  0.03511830715041336 6.6627682610889725  C 1.041843945693349 5.932094849934038  2.2212351897956406 5.325164523242353  3.573287752554559 4.84197098709383  C 4.925346983828834 4.358784164460067  6.537858181168621 4.117187606183141  8.410834562524 4.117187606183141  C 11.056429419831812 4.117187606183141  13.151844848115621 4.653409097448229  14.697042027089616 5.725853158936132  Z M 28.006849952454658 13.945980374834436  C 28.47507740627527 13.863449084871899  29.130646796226284 13.822183162658435  29.97353612216105 13.822183162658435  C 31.542108114583748 13.822183162658435  32.93802450422012 14.122707956394597  34.16130279592297 14.723758323114176  C 35.384581087625826 15.324808689833755  36.347409080392005 16.208680371809244  37.04978355904448 17.375381820876193  C 37.75215803769694 18.54215028520655  38.10333277355688 19.979945138664498  38.10333277355688 21.688765182408115  C 38.10333277355688 23.550780919462156  37.719974175004374 25.1564880900056  36.953269183664084 26.505884656007176  C 36.186497626250876 27.855281222008752  35.04513543671121 28.889435591251846  33.52917326721553 29.608349442115145  C 32.01327778287341 30.327263292978444  30.12569949634158 30.686716382115943  27.86640720849463 30.686716382115943  C 26.52019507438052 30.686716382115943  25.253002941935048 30.57181415740238  24.064819974820757 30.341986989920848  C 22.876637007706464 30.112159822439317  21.83770904897311 29.761546604006924  20.94807021522157 29.290159532840214  C 20.94807021522157 29.290159532840214  20.94807021522157 24.57019037226083  20.94807021522157 24.57019037226083  C 21.83770904897311 25.041644488661994  22.90589607147231 25.439416851468717  24.15261574269679 25.763508030130915  C 25.399335413921268 26.087599208793105  26.572851100592498 26.249643224644178  27.673195549884102 26.249643224644178  C 28.75016530480764 26.249643224644178  29.657394491259797 26.105261537024404  30.394864354041143 25.816502597499962  C 31.132334216822482 25.527743657975524  31.6913078993219 25.07992327144532  32.071763520473375 24.473040059241153  C 32.45221914162486 23.86608983177357  32.6424360116676 23.09119437900975  32.6424360116676 22.148353221412922  C 32.6424360116676 20.887387791136362  32.22103013921587 19.92101690320526  31.37820743889434 19.249235042946765  C 30.535384738572805 18.57752019795168  29.241852804038842 18.241663075164624  27.497604014132037 18.241663075164624  C 26.830391545221694 18.241663075164624  26.136799798993565 18.30645952194514  25.416844315470048 18.43605577226355  C 24.696955457559763 18.565719067816417  24.097040157105877 18.695352332379155  23.61709204329461 18.82494858269757  C 23.61709204329461 18.82494858269757  21.457316153544184 17.65827782398381  21.457316153544184 17.65827782398381  L 22.423069600180558 5  L 36.34744790067783 5  L 36.34744790067783 9.119906990692494  L 27.181539249778318 9.119906990692494  C 27.181539249778318 9.119906990692494  26.707442103247736 14.19347505553858  26.707442103247736 14.19347505553858  C 27.105478729270278 14.110943765576039  27.53862249863404 14.028444619562519  28.006849952454658 13.945980374834436  Z M 42.63365536524344 26.125846012468173  C 42.63365536524344 26.125846012468173  47.550218366301316 26.125846012468173  47.550218366301316 26.125846012468173  C 47.550218366301316 26.125846012468173  47.81354470064617 26.532439484103932  47.81354470064617 26.532439484103932  C 47.602839025565785 27.38094958528564  47.330683576890685 28.29428544493285  46.99704405939906 29.272458871638477  C 46.6634711377505 30.2506322983441  46.30058330352 31.22880494580248  45.908407022377865 32.206978372508104  C 45.51623074123573 33.185151799213735  45.1211646708725 34.11615762970949  44.723194640693045 35  C 44.723194640693045 35  40.860150369505945 35  40.860150369505945 35  C 41.094297394337794 34.045426136170576  41.322567120184345 33.043690190804114  41.54492687429738 31.99478527055958  C 41.7673532242535 30.945947365578444  41.97514652944806 29.914780030866822  42.16833779550047 28.90127439499449  C 42.36146246570979 27.88776875912216  42.51658185282752 26.962623407417286  42.63365536524344 26.125846012468173  Z M 68.28751776933716 10.224828758790046  C 68.93135548433912 12.210607900677907  69.25327121597353 14.605926308570895  69.25327121597353 17.410783143279666  C 69.25327121597353 19.49672612712514  69.09231335015632 21.358778308973594  68.77039449265534 22.996933814499613  C 68.44847563515435 24.635022304762224  67.93342377179987 26.02565040119964  67.22518897803715 27.168819302653795  C 66.51702075034737 28.311988204107948  65.58932082934336 29.184098527528917  64.44209362100852 29.785148894248497  C 63.29493309782722 30.386199260968073  61.90188059737463 30.686716382115943  60.2629845854677 30.686716382115943  C 58.202743908553565 30.686716382115943  56.51122664197901 30.159318367392686  55.188389202232976 29.104513586400138  C 53.865618328559854 28.049775820671005  52.88815806505623 26.529522102288098  52.25604103981508 24.543742960400238  C 51.62392401457393 22.557896683364774  51.307877231395544 20.180240813500426  51.307877231395544 17.410783143279666  C 51.307877231395544 14.617726030066901  51.59758421248544 12.228308561879643  52.17702484872665 10.242529419991783  C 52.75646548496786 8.256716710530123  53.70174182623861 6.733485668235309  55.012858635764154 5.672827901213892  C 56.32390876013614 4.612163420677714  58.07394963195143 4.081824646721152  60.2629845854677 4.081824646721152  C 62.3115713173149 4.081824646721152  64.00019968777309 4.609210073604236  65.32883087655645 5.663981406907171  C 66.65746206533981 6.718746026695346  67.6436800543352 8.239029476357905  68.28751776933716 10.224828758790046  Z M 57.02338172012532 12.478720624399621  C 56.806815700164535 13.79861776677699  56.69853737898399 15.442636568372409  56.69853737898399 17.410783143279666  C 56.69853737898399 19.378862702923517  56.806815700164535 21.01993487096022  57.02338172012532 22.333999167852994  C 57.239881144243036 23.64806346474577  57.60568821038073 24.63505101702624  58.12079833393411 25.29496608058322  C 58.63584189141458 25.954948219345706  59.34990443173486 26.28494480339979  60.2629845854677 26.28494480339979  C 61.164344049439734 26.28494480339979  61.87551227547493 25.957902465550625  62.39648271413856 25.30382024747824  C 62.91738658672928 24.649738029405853  63.28906261620807 23.6656971106841  63.51148896616419 22.351699829054734  C 63.7339153161203 21.037635532161957  63.84511288409311 19.390662424419528  63.84511288409311 17.410783143279666  C 63.84511288409311 15.442636568372409  63.7339153161203 13.79861776677699  63.51148896616419 12.478720624399621  C 63.28906261620807 11.158756346874648  62.91738658672928 10.16586797477264  62.39648271413856 9.500053050467656  C 61.87551227547493 8.834171050957167  61.164344049439734 8.501227833344368  60.2629845854677 8.501227833344368  C 59.34990443173486 8.501227833344368  58.63584189141458 8.834171050957167  58.12079833393411 9.500053050467656  C 57.60568821038073 10.16586797477264  57.239881144243036 11.158756346874648  57.02338172012532 12.478720624399621  Z M 88.84931709054581 10.224828758790046  C 89.49315480554776 12.210607900677907  89.81507053718217 14.605926308570895  89.81507053718217 17.410783143279666  C 89.81507053718217 19.49672612712514  89.65411267136497 21.358778308973594  89.332193813864 22.996933814499613  C 89.010274956363 24.635022304762224  88.4952230930085 26.02565040119964  87.78698829924579 27.168819302653795  C 87.07882007155601 28.311988204107948  86.15108966591038 29.184098527528917  85.00386245757555 29.785148894248497  C 83.8566352492407 30.386199260968073  82.46361323342973 30.686716382115943  80.82478390667634 30.686716382115943  C 78.76454322976221 30.686716382115943  77.07302596318766 30.159318367392686  75.75018852344161 29.104513586400138  C 74.4274176497685 28.049775820671005  73.44992690162326 26.529522102288098  72.81780987638211 24.543742960400238  C 72.18569285114096 22.557896683364774  71.86967655260419 20.180240813500426  71.86967655260419 17.410783143279666  C 71.86967655260419 14.617726030066901  72.15935304905246 12.228308561879643  72.73879368529367 10.242529419991783  C 73.31823432153487 8.256716710530123  74.26348589403432 6.733485668235309  75.5745360184063 5.672827901213892  C 76.88565282793185 4.612163420677714  78.63574895316007 4.081824646721152  80.82478390667634 4.081824646721152  C 82.87337063852355 4.081824646721152  84.56196852434012 4.609210073604236  85.89059971312346 5.663981406907171  C 87.21923090190684 6.718746026695346  88.20547937554385 8.239029476357905  88.84931709054581 10.224828758790046  Z M 77.58505910276747 12.478720624399621  C 77.36849308280668 13.79861776677699  77.26021476162616 15.442636568372409  77.26021476162616 17.410783143279666  C 77.26021476162616 19.378862702923517  77.36849308280668 21.01993487096022  77.58505910276747 22.333999167852994  C 77.80162512272827 23.64806346474577  78.16745704694776 24.63505101702624  78.68256717050113 25.29496608058322  C 79.1976107279816 25.954948219345706  79.91170375294351 26.28494480339979  80.82478390667634 26.28494480339979  C 81.72614337064839 26.28494480339979  82.43725622419001 25.957902465550625  82.95816009678072 25.30382024747824  C 83.47913053544436 24.649738029405853  83.85086193741672 23.6656971106841  84.07328828737283 22.351699829054734  C 84.29564804148586 21.037635532161957  84.40679026673527 19.390662424419528  84.40679026673527 17.410783143279666  C 84.40679026673527 15.442636568372409  84.29564804148586 13.79861776677699  84.07328828737283 12.478720624399621  C 83.85086193741672 11.158756346874648  83.47913053544436 10.16586797477264  82.95816009678072 9.500053050467656  C 82.43725622419001 8.834171050957167  81.72614337064839 8.501227833344368  80.82478390667634 8.501227833344368  C 79.91170375294351 8.501227833344368  79.1976107279816 8.834171050957167  78.68256717050113 9.500053050467656  C 78.16745704694776 10.16586797477264  77.80162512272827 11.158756346874648  77.58505910276747 12.478720624399621  Z M 109.41072011141334 10.224828758790046  C 110.05469101810147 12.210607900677907  110.37665646589944 14.605926308570895  110.37665646589944 17.410783143279666  C 110.37665646589944 19.49672612712514  110.21579803240942 21.358778308973594  109.89414555828075 22.996933814499613  C 109.5718271257213 24.635022304762224  109.05671994941355 26.02565040119964  108.34881810509607 27.168819302653795  C 107.64025030234781 28.311988204107948  106.71263617893871 29.184098527528917  105.56587517127555 29.785148894248497  C 104.41844826472195 30.386199260968073  103.02526584730055 30.686716382115943  101.38636983539364 30.686716382115943  C 99.32619560547177 30.686716382115943  97.63472823368176 30.159318367392686  96.31195736000865 29.104513586400138  C 94.98918648633553 28.049775820671005  94.01175670747352 26.529522102288098  93.37963968223238 24.543742960400238  C 92.747456031378 22.557896683364774  92.43132345060472 20.180240813500426  92.43132345060472 17.410783143279666  C 92.43132345060472 14.617726030066901  92.72111628882982 12.228308561879643  93.30062349114394 10.242529419991783  C 93.88006412738515 8.256716710530123  94.82531569988458 6.733485668235309  96.13636582425657 5.672827901213892  C 97.44748263378213 4.612163420677714  99.19746801402322 4.081824646721152  101.38636983539364 4.081824646721152  C 103.43482319693373 4.081824646721152  105.12331617271407 4.609210073604236  106.45188079542453 5.663981406907171  C 107.78111131702543 6.718746026695346  108.76741516315602 8.239029476357905  109.41072011141334 10.224828758790046  Z M 98.14688890861774 12.478720624399621  C 97.93032288865696 13.79861776677699  97.82204456747642 15.442636568372409  97.82204456747642 17.410783143279666  C 97.82204456747642 19.378862702923517  97.93032288865696 21.01993487096022  98.14688890861774 22.333999167852994  C 98.36345492857853 23.64806346474577  98.72939194145518 24.63505101702624  99.24470182276764 25.29496608058322  C 99.7594789968758 25.954948219345706  100.47335630727402 26.28494480339979  101.38636983539364 26.28494480339979  C 102.28806230835121 26.28494480339979  102.99928019100969 25.957902465550625  103.52005087191424 25.30382024747824  C 104.0408215528188 24.649738029405853  104.412447866134 23.6656971106841  104.63487421609011 22.351699829054734  C 104.85730056604622 21.037635532161957  104.96849813401904 19.390662424419528  104.96849813401904 17.410783143279666  C 104.96849813401904 15.442636568372409  104.85730056604622 13.79861776677699  104.63487421609011 12.478720624399621  C 104.412447866134 11.158756346874648  104.0408215528188 10.16586797477264  103.52005087191424 9.500053050467656  C 102.99928019100969 8.834171050957167  102.28806230835121 8.501227833344368  101.38636983539364 8.501227833344368  C 100.47335630727402 8.501227833344368  99.7594789968758 8.834171050957167  99.24470182276764 9.500053050467656  C 98.72939194145518 10.16586797477264  98.36345492857853 11.158756346874648  98.14688890861774 12.478720624399621  Z M 121.82924856962853 24.542837594981165  L 121.82924856962853 17.225137196839597  L 126.6071064512989 17.225137196839597  L 126.6071064512989 24.542837594981165  L 121.82924856962853 24.542837594981165  Z M 137 25.398147048004535  L 137 0.007910438534456717  L 142 0.007910438534456717  L 142 25.398147048004535  L 137 25.398147048004535  Z M 117.20326517252703 33  L 117.20326517252703 29  L 141.93454038252344 29  L 141.93454038252344 33  L 117.20326517252703 33  Z M 117.20326517252703 30.141356478536263  L 117.20326517252703 22.992207500108513  L 121.98112305419741 22.992207500108513  L 121.98112305419741 30.141356478536263  L 117.20326517252703 30.141356478536263  Z M 120.11412166260027 18.56065860621076  C 117.78197465369179 18.615366592171373  115.6169663610002 18.652143360896844  113.61912488755445 18.67098275333681  C 113.61912488755445 18.67098275333681  113.03875828032393 14.83790341921225  113.03875828032393 14.83790341921225  C 115.06590144840153 14.819064026772283  117.27618062471052 14.791542508745792  119.66959461844459 14.755338696545627  C 122.0636747492304 14.719134884345458  124.50673798323504 14.629927018939538  126.99871215759597 14.487726489326114  C 129.4906863319569 14.34552595971269  131.8940464163432 14.129646763522771  134.20887862513197 13.8400833111559  C 134.20887862513197 13.8400833111559  134.52159007890708 17.266369686348973  134.52159007890708 17.266369686348973  C 132.16347110798034 17.666153645957785  129.75572123520024 17.968057497527234  127.2983761847562 18.172072699308636  C 124.84103113431212 18.376087901090035  122.44626867150872 18.50561540157063  120.11412166260027 18.56065860621076  Z M 130.13930090694484 22.76713979499721  L 130.13930090694484 19.478223440677958  L 137.47140594097533 19.478223440677958  L 137.47140594097533 22.76713979499721  L 130.13930090694484 22.76713979499721  Z M 119.42187642061104 1.9080499481113815  C 120.67785270563228 1.4049644475550092  122.11995499445729 1.1534201987244213  123.74819579055233 1.1534201987244213  C 125.38109823612254 1.1534201987244213  126.81955141808068 1.4049644475550092  128.06354068950913 1.9080499481113815  C 129.30819597890863 2.4111287351529938  130.28083222649627 3.1140862398102547  130.9814086471558 4.01692222231478  C 131.68198506781528 4.91937601401475  132.0322752132053 5.963443367337879  132.0322752132053 7.149118288074562  C 132.0322752132053 8.334390877462408  131.68198506781528 9.3797758179993  130.9814086471558 10.285273409395721  C 130.28083222649627 11.190771000792141  129.30819597890863 11.88900279047926  128.06354068950913 12.379966740425814  C 126.81955141808068 12.870662509434544  125.38109823612254 13.11600580836856  123.74819579055233 13.11600580836856  C 122.11995499445729 13.11600580836856  120.67785270563228 12.870662509434544  119.42187642061104 12.379966740425814  C 118.16590013558981 11.88900279047926  117.18726490349673 11.190771000792141  116.48602252440644 10.285273409395721  C 115.78544610374692 9.3797758179993  115.43521692764016 8.334390877462408  115.43521692764016 7.149118288074562  C 115.43521692764016 5.963443367337879  115.78544610374692 4.91937601401475  116.48602252440644 4.01692222231478  C 117.18726490349673 3.1140862398102547  118.16590013558981 2.4111287351529938  119.42187642061104 1.9080499481113815  Z M 125.70610238347113 4.95539485989196  C 125.1527002753211 4.766833329898937  124.50005011727728 4.672552564902424  123.74819579055233 4.672552564902424  C 122.62873866176902 4.672552564902424  121.71936971545229 4.878461936919706  121.02012521165433 5.290280321301692  C 120.32154666628718 5.702098705683678  119.97230710976717 6.321713619093587  119.97230710976717 7.149118288074562  C 119.97230710976717 7.957670148825196  120.32154666628718 8.57125626603845  121.02012521165433 8.98987963681913  C 121.71936971545229 9.408100736193068  122.62873866176902 9.617213473766544  123.74819579055233 9.617213473766544  C 124.86165947207954 9.617213473766544  125.76335968527816 9.408100736193068  126.45328094966611 8.98987963681913  C 127.14320221405407 8.57125626603845  127.48817356350486 7.957670148825196  127.48817356350486 7.149118288074562  C 127.48817356350486 6.60002710889858  127.32935539801193 6.144268980209161  127.01169861492764 5.781855380917703  C 126.69404183184334 5.419441781626245  126.25883853319036 5.143956389884986  125.70610238347113 4.95539485989196  Z M 178 16.8353466935748  L 178 0  L 183 0  L 183 16.8353466935748  L 178 16.8353466935748  Z M 167.56188114840458 3.890769525531524  C 167.56188114840458 3.890769525531524  167.56188114840458 1.2773094819599913  167.56188114840458 1.2773094819599913  C 167.56188114840458 1.2773094819599913  172.776218128842 1.2773094819599913  172.776218128842 1.2773094819599913  C 172.776218128842 4.239237386374447  172.20953174270133 6.809319732702369  171.07608966549256 8.98756251515336  C 169.9433136062549 11.165490002179014  168.25012099427798 12.963047725526964  165.99655577031479 14.380225854693453  C 163.74299054635165 15.797471119007543  160.9336807791393 16.87604180219289  157.56864980848158 17.615940481759626  C 157.56864980848158 17.615940481759626  155.97137652597021 13.742135048953307  155.97137652597021 13.742135048953307  C 158.7623609748253 13.182115706358209  161.00628364466553 12.413921300398492  162.70311702786512 11.43755806505215  C 164.40061630995515 10.461194829705807  165.6346100722693 9.328887076407362  166.4051109373546 8.04063468527262  C 167.17627776087065 6.752006816848083  167.56188114840458 5.368716472159246  167.56188114840458 3.890769525531524  Z M 157.88629977419973 5.102470704961797  L 157.88629977419973 1.2773094819599913  L 169.56472210307658 1.2773094819599913  L 169.56472210307658 5.102470704961797  L 157.88629977419973 5.102470704961797  Z M 171.48062085983804 7.840387803302896  L 171.48062085983804 4.184368789313794  L 179.2592039550881 4.184368789313794  L 179.2592039550881 7.840387803302896  L 171.48062085983804 7.840387803302896  Z M 171.2618630715469 14.330446101820947  L 171.2618630715469 10.702723593472074  L 179.10739043980246 10.702723593472074  L 179.10739043980246 14.330446101820947  L 171.2618630715469 14.330446101820947  Z M 161.4424551581618 21.842232293529552  L 161.4424551581618 18  L 183.45267125683364 18  L 183.45267125683364 27  L 166.28323334014337 27  L 166.28323334014337 31.461080028603412  L 161.4934254789565 31.461080028603412  L 161.4934254789565 23.752484274482242  L 178.6548764195414 23.752484274482242  L 178.6548764195414 21.842232293529552  L 161.4424551581618 21.842232293529552  Z M 161.4934254789565 33  L 161.4934254789565 29  L 184.1129685944013 29  L 184.1129685944013 33  L 161.4934254789565 33  Z M 212 33.521277402649105  L 212 0  L 217 0  L 217 33.521277402649105  L 212 33.521277402649105  Z M 201.73894450404697 15.36517135958703  L 201.73894450404697 11.463000367845805  L 207.25696948433892 11.463000367845805  L 207.25696948433892 15.36517135958703  L 201.73894450404697 15.36517135958703  Z M 206 32.01379794436014  L 206 0.5537997507066453  L 210 0.5537997507066453  L 210 32.01379794436014  L 206 32.01379794436014  Z M 194.57371239826418 8.916360895754956  C 194.57371239826418 8.916360895754956  194.57371239826418 5.4690362834508415  194.57371239826418 5.4690362834508415  L 198.16077920883262 5.4690362834508415  C 198.16077920883262 5.4690362834508415  198.16077920883262 8.916360895754956  198.16077920883262 8.916360895754956  C 198.16077920883262 10.793997902697988  198.02397729563558 12.65038567635181  197.75027302472895 14.485516783896507  C 197.4759027953915 16.320580876177797  197.0506569893612 18.050420335214287  196.4746127113468 19.67503300309052  C 195.89856843333243 21.29971268623016  195.143069405724 22.766735065964532  194.20807960663046 24.07610637627162  C 193.27308980753693 25.385477686578714  192.14695416062546 26.453290921434558  190.82971065261734 27.2795424243713  C 190.82971065261734 27.2795424243713  187.98281094067048 23.740622452974705  187.98281094067048 23.740622452974705  C 189.61637928513116 22.693728829821772  190.9126508482101 21.37982985322996  191.87161473402952 19.798929958914385  C 192.8299127209585 18.217694868397572  193.51979445057685 16.485210644198187  193.94133899242377 14.601472610832731  C 194.36288353427068 12.717734577467276  194.57371239826418 10.822692783508714  194.57371239826418 8.916360895754956  Z M 195.64250393358842 8.916360895754956  C 195.64250393358842 8.916360895754956  195.64250393358842 5.4690362834508415  195.64250393358842 5.4690362834508415  L 199.2026832902448 5.4690362834508415  C 199.2026832902448 5.4690362834508415  199.2026832902448 8.916360895754956  199.2026832902448 8.916360895754956  C 199.2026832902448 10.771806379658521  199.40615306053184 12.60140734930379  199.81304678483298 14.405161766659491  C 200.21927455070335 16.208580987813956  200.89449909196213 17.85190542016847  201.83881219000597 19.335121996346096  C 202.782459329619 20.817936361059072  204.0594349481146 22.033004907620395  205.6696951642801 22.98033800601268  C 205.6696951642801 22.98033800601268  202.878704285071 26.462741692011782  202.878704285071 26.462741692011782  C 201.113944332738 25.400360949380868  199.70412539847305 23.964443242603515  198.64926510620955 22.15499001029004  C 197.59507071283653 20.345201581775324  196.83060390150266 18.300831198892343  196.35578357829792 16.02186819194799  C 195.88029729666243 13.742569988802407  195.64250393358842 11.374063560598321  195.64250393358842 8.916360895754956  Z M 189.22347488546865 7.250373435833267  L 189.22347488546865 4  L 204.07540937664788 4  L 204.07540937664788 7.250373435833267  L 189.22347488546865 7.250373435833267  Z M 229.3231553850317 18.661929099146064  L 229.3231553850317 13.584340598032222  L 234.0999767888869 13.584340598032222  L 234.0999767888869 18.661929099146064  L 229.3231553850317 18.661929099146064  Z M 227.38024723579176 2.2140864775234816  C 228.6368895387841 1.6412348508854386  230.06699397767883 1.3548026237621373  231.67059472861715 1.3548026237621373  C 233.27952302792113 1.3548026237621373  234.71197740399478 1.6412348508854386  235.967953689016 2.2140864775234816  C 237.22459599200835 2.786562626871728  238.20923008952624 3.587945772584702  238.92179352377855 4.618245984934544  C 239.63502291646165 5.648546197284386  239.99162153691796 6.830825997699539  239.99162153691796 8.165084067453888  C 239.99162153691796 9.499697473953756  239.63502291646165 10.682171486760183  238.92179352377855 11.712505266683824  C 238.20923008952624 12.74243671525863  237.22459599200835 13.543816983750991  235.967953689016 14.116641756329996  C 234.71197740399478 14.689131332707762  233.27952302792113 14.975373183733936  231.67059472861715 14.975373183733936  C 230.06699397767883 14.975373183733936  228.6368895387841 14.689131332707762  227.38024723579176 14.116641756329996  C 226.12360493279942 13.543816983750991  225.13897083528153 12.74243671525863  224.42640740102922 11.712505266683824  C 223.7138439667769 10.682171486760183  223.35755489642173 9.499697473953756  223.35755489642173 8.165084067453888  C 223.35755489642173 6.830825997699539  223.7138439667769 5.648546197284386  224.42640740102922 4.618245984934544  C 225.13897083528153 3.587945772584702  226.12360493279942 2.786562626871728  227.38024723579176 2.2140864775234816  Z M 233.68843412696802 5.3400600741741995  C 233.11372170627487 5.091158852185723  232.44474464102896 4.966711927630394  231.68156919960168 4.966711927630394  C 230.9330446054903 4.966711927630394  230.2654276792156 5.091158852185723  229.67872824492966 5.3400600741741995  C 229.09269476907448 5.588579135329168  228.63621625689447 5.953253181034556  228.30923620463005 6.434086766889669  C 227.98225615236558 6.914544905426032  227.81873832090596 7.491545664012097  227.81873832090596 8.165084067453888  C 227.81873832090596 8.83864261143996  227.98225615236558 9.41583956050647  228.30923620463005 9.896679829905294  C 228.63621625689447 10.377117857868427  229.09269476907448 10.741777442543139  229.67872824492966 10.990645141914385  C 230.2654276792156 11.23917761511335  230.9330446054903 11.36344086210079  231.68156919960168 11.36344086210079  C 232.44474464102896 11.36344086210079  233.11372170627487 11.23917761511335  233.68843412696802 10.990645141914385  C 234.26248058923034 10.741777442543139  234.71296017644525 10.377117857868427  235.0399402287097 9.896679829905294  C 235.3669202809741 9.41583956050647  235.53043811243379 8.83864261143996  235.53043811243379 8.165084067453888  C 235.53043811243379 7.491545664012097  235.3669202809741 6.914544905426032  235.0399402287097 6.434086766889669  C 234.71296017644525 5.953253181034556  234.26248058923034 5.588579135329168  233.68843412696802 5.3400600741741995  Z M 243 25.591035917797203  L 243 0.03619927158638874  L 248 0.03619927158638874  L 248 25.591035917797203  L 243 25.591035917797203  Z M 246.49460528806918 14.48662163661131  L 246.49460528806918 10.548351116931562  L 252.36326461631603 10.548351116931562  L 252.36326461631603 14.48662163661131  L 246.49460528806918 14.48662163661131  Z M 225.96575986445566 33  L 225.96575986445566 29  L 249.2935831433837 29  L 249.2935831433837 33  L 225.96575986445566 33  Z M 225.96575986445566 30.765866802990292  L 225.96575986445566 23.414782973167426  L 230.76257919321594 23.414782973167426  L 230.76257919321594 30.765866802990292  L 225.96575986445566 30.765866802990292  Z M 228.24527942650369 21.174172357900378  C 226.03899659618253 21.224321342845546  224.01889014077219 21.24939441356654  222.18487170244424 21.24939441356654  C 222.18487170244424 21.24939441356654  221.63242902694094 17.444573222140722  221.63242902694094 17.444573222140722  C 223.50573835774156 17.444573222140722  225.57785542234197 17.42439704977711  227.8487352082636 17.38403650047548  C 230.12028089307566 17.343675951173854  232.43841806570668 17.253162119828048  234.80319650186064 17.112503600636078  C 237.16797493801457 16.971442810037374  239.43954205734028 16.749695432497226  241.61785522897176 16.44725950491199  C 241.61785522897176 16.44725950491199  241.94946716055352 19.882100816056493  241.94946716055352 19.882100816056493  C 239.7092208670447 20.292410697648723  237.41637856396213 20.597890140205454  235.0709126245993 20.798553125220586  C 232.72611258412692 20.998746808580048  230.45089635793434 21.12395632772075  228.24527942650369 21.174172357900378  Z M 262.48130007904615 27.460055409240514  L 262.48130007904615 19.560289445105262  L 267.1742277491531 19.560289445105262  L 267.1742277491531 27.460055409240514  L 262.48130007904615 27.460055409240514  Z M 273.00996366444645 27.44416547887693  L 273.00996366444645 19.544399514741674  L 277.69587986697996 19.544399514741674  L 277.69587986697996 27.44416547887693  L 273.00996366444645 27.44416547887693  Z M 254.8485555093235 29.846690724980675  L 254.8485555093235 26  L 285 26  L 285 29.846690724980675  L 254.8485555093235 29.846690724980675  Z M 258.2598478762901 6  L 258.2598478762901 2.171089292705736  L 281 2.171089292705736  L 281 13.288477920702265  L 263.0527042016393 13.288477920702265  L 263.0527042016393 18.967344148906086  L 258.31179370561676 18.967344148906086  L 258.31179370561676 10  L 276.87279454314216 10  L 276.87279454314216 6  L 258.2598478762901 6  Z M 258.31179370561676 20.81384459369699  L 258.31179370561676 17  L 282.3688096121819 17  L 282.3688096121819 20.81384459369699  L 258.31179370561676 20.81384459369699  Z " fill-rule="nonzero" fill="#4c4c57" stroke="none" transform="matrix(1 0 0 1 442 168 )" />
  </g>
</svg>