<?xml version="1.0" encoding="utf-8"?>
<svg version="1.1" xmlns:xlink="http://www.w3.org/1999/xlink" width="179px" height="22px" xmlns="http://www.w3.org/2000/svg">
  <g transform="matrix(1 0 0 1 -442 -485 )">
    <path d="M 16 11.089783948869325  L 16 0  L 19 0  L 19 11.089783948869325  L 16 11.089783948869325  Z M 8.000158709517553 2.418620648692104  C 8.000158709517553 2.418620648692104  8.000158709517553 0.9062875976070138  8.000158709517553 0.9062875976070138  C 8.000158709517553 0.9062875976070138  11.110455851278601 0.9062875976070138  11.110455851278601 0.9062875976070138  C 11.110455851278601 2.8194387117566295  10.72495170972281 4.487862232008056  9.953934477202317 5.911579406836669  C 9.182917244681823 7.3353032292329985  8.044678916380265 8.515910958722575  6.5392333340500866 9.453433874485635  C 5.033767824369402 10.390717774577352  3.1753266493587966 11.106188187332602  0.9639205483089587 11.599830927316702  C 0.9639205483089587 11.599830927316702  0 9.305591968495017  0 9.305591968495017  C 1.8683188166121338 8.918478074012292  3.3904063617739513 8.386859293178802  4.566304399393696 7.710722716655455  C 5.742195754788121 7.034333888678622  6.608422765559847 6.245524007043314  7.164964549754751 5.344340554376068  C 7.721759900535423 4.443157101708822  8.000158709517553 3.4679235433020836  8.000158709517553 2.418620648692104  Z M 1.234569765802775 3.176671284855701  L 1.234569765802775 0.9062875976070138  L 9.213009333826186 0.9062875976070138  L 9.213009333826186 3.176671284855701  L 1.234569765802775 3.176671284855701  Z M 10.268846755209513 5.038901911598745  L 10.268846755209513 2.8648509770715895  L 15.636957098257575 2.8648509770715895  L 15.636957098257575 5.038901911598745  L 10.268846755209513 5.038901911598745  Z M 10.108992651919992 9.278333142251732  L 10.108992651919992 7.1203275368845045  L 15.532974035464239 7.1203275368845045  L 15.532974035464239 9.278333142251732  L 10.108992651919992 9.278333142251732  Z M 3.620773335162759 14  L 3.620773335162759 12  L 18.1207898887361 12  L 18.1207898887361 17.834444139020842  L 6.513695778087915 17.834444139020842  L 6.513695778087915 20.768004375998864  L 3.6605459402617373 20.768004375998864  L 3.6605459402617373 15.716399912148507  L 15.25969774881642 15.716399912148507  L 15.25969774881642 14  L 3.620773335162759 14  Z M 3.6605459402617373 21.78451244493742  L 3.6605459402617373 19.538014418142712  L 18.63917783691556 19.538014418142712  L 18.63917783691556 21.78451244493742  L 3.6605459402617373 21.78451244493742  Z M 38 21.98346844874432  L 38 0  L 41 0  L 41 21.98346844874432  L 38 21.98346844874432  Z M 30.511544837486575 9.932544972090575  L 30.511544837486575 7.622199906346995  L 34.33506070724374 7.622199906346995  L 34.33506070724374 9.932544972090575  L 30.511544837486575 9.932544972090575  Z M 34 20.956597771389973  L 34 0.405144561288157  L 37 0.405144561288157  L 37 20.956597771389973  L 34 20.956597771389973  Z M 25.901649418525874 5.948927341566878  C 25.901649418525874 5.948927341566878  25.901649418525874 3.539241023884279  25.901649418525874 3.539241023884279  L 28.055143536546364 3.539241023884279  C 28.055143536546364 3.539241023884279  28.055143536546364 5.948927341566878  28.055143536546364 5.948927341566878  C 28.055143536546364 7.171005150656331  27.9579586386645 8.375907306661105  27.763569407767754 9.563623956936194  C 27.56911344411191 10.751360549914427  27.273190186001262 11.868728127775576  26.875803317609147 12.915760640597611  C 26.47841644921703 13.962593963801318  25.967424889187583 14.90724342827499  25.342816824301053 15.749675736826765  C 24.718208759414523 16.59210804537854  23.978478123476897 17.27904561366719  23.123645977430485 17.810528089685878  C 23.123645977430485 17.810528089685878  21.41198823433443 15.716096023338661  21.41198823433443 15.716096023338661  C 22.480495035597222 15.046398862566631  23.342837764251346 14.19362697467294  23.99900985739694 13.157747299878858  C 24.65511524761479 12.121867625084777  25.136211456339062 10.97994369466979  25.44230943167999 9.732008746472474  C 25.74854087253912 8.484047208004293  25.901649418525874 7.223031508434986  25.901649418525874 5.948927341566878  Z M 26.528969094649238 5.948927341566878  C 26.528969094649238 5.948927341566878  26.528969094649238 3.539241023884279  26.528969094649238 3.539241023884279  L 28.666242588009545 3.539241023884279  C 28.666242588009545 3.539241023884279  28.666242588009545 5.948927341566878  28.666242588009545 5.948927341566878  C 28.666242588009545 7.180956322113159  28.814021403014376 8.393056488181488  29.109575781405457 9.585260840197307  C 29.405397090832945 10.777478487348557  29.875988960681124 11.860897708479811  30.521350525840468 12.835503605916992  C 31.166979022036223 13.810109503354171  32.01594190706892 14.60298734031161  33.06823297601507 15.214132487233215  C 33.06823297601507 15.214132487233215  31.38880265102917 17.27699050623732  31.38880265102917 17.27699050623732  C 30.245422946971868 16.591360846896674  29.317513746185423 15.665274299795291  28.60508686188961 14.498747839972152  C 27.892659977593798 13.332155023178426  27.368524062722706 12.0128585542628  27.03266378395573 10.540839202761521  C 26.696870237947856 9.06857424737447  26.528969094649238 7.537944478392125  26.528969094649238 5.948927341566878  Z M 22.17472416115194 4.609841300975621  L 22.17472416115194 2.3077012330979114  L 32.096400672928354 2.3077012330979114  L 32.096400672928354 4.609841300975621  L 22.17472416115194 4.609841300975621  Z M 60 13.408668290169613  L 60 0.023885660453982254  L 63 0.023885660453982254  L 63 13.408668290169613  L 60 13.408668290169613  Z M 45.06110913719704 12.40045638573988  L 45.06110913719704 10.098346706743154  C 45.06110913719704 10.098346706743154  46.94435115282839 10.098346706743154  46.94435115282839 10.098346706743154  C 48.3549242899605 10.098346706743154  49.6355418670641 10.083777464059105  50.786195412032086 10.054647495887142  C 51.93684895700008 10.025524166008942  53.036551249863045 9.963168699178482  54.08530551240818 9.867573544545266  C 55.13405977495332 9.771978389912048  56.20258411705757 9.63929056418123  57.290910279291204 9.469509592526546  C 57.290910279291204 9.469509592526546  57.612237493604695 11.7395590020844  57.612237493604695 11.7395590020844  C 56.49188020362964 11.920260399148455  55.38992850666865 12.061003281513528  54.306406983764866 12.161842892247934  C 53.22281875793334 12.26268250298234  52.08681933309003 12.327674707886342  50.89839570276063 12.356817952645835  C 49.710239003467635 12.38589481261289  48.39209715143401 12.40045638573988  46.943954037723714 12.40045638573988  C 46.943954037723714 12.40045638573988  45.06110913719704 12.40045638573988  45.06110913719704 12.40045638573988  Z M 45.020969964309124 3.607950283790709  L 45.020969964309124 1.337961651994823  L 55.162251128970766 1.337961651994823  L 55.162251128970766 7.852973068544883  L 47.86584147956863 7.852973068544883  L 47.86584147956863 11.385133483159727  L 45.06110913719704 11.385133483159727  L 45.06110913719704 5.7271188992594775  L 52.34129816193901 5.7271188992594775  L 52.34129816193901 3.607950283790709  L 45.020969964309124 3.607950283790709  Z M 49.32184873720128 14.886327628051147  C 50.6624204331219 14.176865548151529  52.49683387711609 13.82213940484758  54.82510040510177 13.82213940484758  C 57.153633983449325 13.82213940484758  58.99079250946967 14.175614380942234  60.33656930093748 14.882620184571012  C 61.68241279533302 15.589559631229202  62.355349756525946 16.596420714287195  62.355349756525946 17.903153398927273  C 62.355349756525946 19.197936605772647  61.68241279533302 20.20442839270273  60.33656930093748 20.92265339133005  C 58.99079250946967 21.640878389957372  57.153633983449325 22  54.82510040510177 22  C 52.49683387711609 22  50.6624204331219 21.64012608709315  49.32184873720128 20.920374225256197  C 47.98127704128064 20.200954326332035  47.3110105837063 19.192718146409483  47.3110105837063 17.895677734205034  C 47.3110105837063 16.5989028685895  47.98127704128064 15.595789707950768  49.32184873720128 14.886327628051147  Z M 57.384415612784274 16.246655496450717  C 56.68620259735752 16.106515658281005  55.83308163795731 16.036455606679475  54.82510040510177 16.036455606679475  C 53.81738610328265 16.036455606679475  52.96306854824853 16.106515658281005  52.262119519529975 16.246655496450717  C 51.56143742184783 16.38686172126766  51.03254233064414 16.593354731414955  50.67546139245928 16.866132835324038  C 50.31858065255173 17.138778165938657  50.14015023135752 17.482949692955753  50.14015023135752 17.898655844541537  C 50.14015023135752 18.325647518419807  50.31858065255173 18.676785637049363  50.67546139245928 18.952086403876514  C 51.03254233064414 19.2274535573509  51.56143742184783 19.435222514703213  52.262119519529975 19.575362352872922  C 52.96306854824853 19.715502191042635  53.81738610328265 19.785562242644165  54.82510040510177 19.785562242644165  C 55.83308163795731 19.785562242644165  56.68620259735752 19.715502191042635  57.384415612784274 19.575362352872922  C 58.08256192528329 19.435222514703213  58.61004417330244 19.2274535573509  58.96685821028226 18.952086403876514  C 59.323738950189814 18.676785637049363  59.50216937138403 18.325647518419807  59.50216937138403 17.898655844541537  C 59.50216937138403 17.482949692955753  59.323738950189814 17.138778165938657  58.96685821028226 16.866132835324038  C 58.61004417330244 16.593354731414955  58.08256192528329 16.38686172126766  57.384415612784274 16.246655496450717  Z M 68.3067305463942 4.29951004835976  L 68.3067305463942 2  L 82.25830059309577 2  L 82.25830059309577 4.29951004835976  L 68.3067305463942 4.29951004835976  Z M 66.02521262808968 19  L 66.02521262808968 17  L 86.00896111480296 17  L 86.00896111480296 19  L 66.02521262808968 19  Z M 81.06096800518519 4.60163630310975  C 81.06096800518519 4.60163630310975  81.06096800518519 2.013445698522962  81.06096800518519 2.013445698522962  L 83.86600582071422 2.013445698522962  C 83.86600582071422 2.013445698522962  83.86600582071422 4.60163630310975  83.86600582071422 4.60163630310975  C 83.86600582071422 5.6693611510444795  83.85126868736407 6.745058688094741  83.82177330751658 7.828722741519084  C 83.79247812221749 8.912386794943428  83.7095786996627 10.075952238175617  83.5731792519901 11.319432722470781  C 83.4370467204382 12.562634365041598  83.20060402317215 13.97093476197909  82.86380948577775 15.54433806801308  C 82.86380948577775 15.54433806801308  80.03506695323121 15.28852446788379  80.03506695323121 15.28852446788379  C 80.37713328910051 13.827179923067785  80.61885589897226 12.485456341278876  80.76026022899906 11.263365237053991  C 80.90186474238749 10.041074943210779  80.98731811742549 8.884122880202886  81.01661330272458 7.79249919538531  C 81.04617541533116 6.700868981706583  81.06096800518519 5.637250431314913  81.06096800518519 4.60163630310975  Z M 67.6817324662674 8.545292555138552  L 81.66305559850383 8.052384905566553  L 81.66305559850383 10.155113136422594  L 68.05068294582613 10.847432623016262  L 67.6817324662674 8.545292555138552  Z M 100.11620028253708 14.23737307462266  C 101.28600580122217 13.907968110279523  102.66135394556127 13.74324986981127  104.24222622010927 13.74324986981127  C 105.82843699605996 13.74324986981127  107.20477685423167 13.907968110279523  108.37124579462441 14.23737307462266  C 109.53838200294545 14.566711652318569  110.44224628985039 15.039566824847125  111.08286991860761 15.655956427869917  C 111.72416087495587 16.272346030892713  112.0448048913932 17.010866231815015  112.0448048913932 17.871488184941203  C 112.0448048913932 18.726865681966203  111.72416087495587 19.462704479614587  111.08286991860761 20.07902766631351  C 110.44224628985039 20.695483626306896  109.53838200294545 21.167013291638984  108.37124579462441 21.493630076151774  C 107.20477685423167 21.82044602060625  105.82843699605996 21.983863504197117  104.24222622010927 21.983863504197117  C 102.66135394556127 21.983863504197117  101.28600580122217 21.82044602060625  100.11620028253708 21.493630076151774  C 98.94712885403345 21.167013291638984  98.0434196902163 20.695483626306896  97.40506491560579 20.07902766631351  C 96.76697707203168 19.462704479614587  96.44795641870779 18.726865681966203  96.44795641870779 17.871488184941203  C 96.44795641870779 17.010866231815015  96.76697707203168 16.272346030892713  97.40506491560579 15.655956427869917  C 98.0434196902163 15.039566824847125  98.94712885403345 14.566711652318569  100.11620028253708 14.23737307462266  Z M 106.9178045115143 16.115618641644645  C 106.17975266536261 15.967512539352306  105.28791083539848 15.89344553276543  104.24222622010927 15.89344553276543  C 103.20254737415102 15.89344553276543  102.31368068568474 15.967512539352306  101.57562883953308 16.115618641644645  C 100.83757699338142 16.263724743936987  100.27270062466914 16.4861543925444  99.88098595130654 16.782897690306914  C 99.48927127794397 17.07944182812774  99.29337778565068 17.44230578138101  99.29337778565068 17.871488184941203  C 99.29337778565068 18.29018167629902  99.48927127794397 18.645166837330738  99.88098595130654 18.936466519050374  C 100.27270062466914 19.227699814122783  100.83757699338142 19.450129462730196  101.57562883953308 19.603745567712643  C 102.31368068568474 19.757096126106173  103.20254737415102 19.833759007885913  104.24222622010927 19.833759007885913  C 105.28791083539848 19.833759007885913  106.17975266536261 19.757096126106173  106.9178045115143 19.603745567712643  C 107.65585635766597 19.450129462730196  108.22209572135513 19.227699814122783  108.61647964541905 18.936466519050374  C 109.01086356948295 18.645166837330738  109.20805896212167 18.29018167629902  109.20805896212167 17.871488184941203  C 109.20805896212167 17.44230578138101  109.01086356948295 17.07944182812774  108.61647964541905 16.782897690306914  C 108.22209572135513 16.4861543925444  107.65585635766597 16.263724743936987  106.9178045115143 16.115618641644645  Z M 96.66484236049176 3.2730040375772327  L 96.66484236049176 1  L 110.72754354187082 1  L 110.72754354187082 3.2730040375772327  L 96.66484236049176 3.2730040375772327  Z M 94.39951451953168 12  L 94.39951451953168 10  L 114.30304575510064 10  L 114.30304575510064 12  L 94.39951451953168 12  Z M 101.99302736186213 10.523304818433342  L 101.99302736186213 5.991866830398274  L 104.83881529659395 5.991866830398274  L 104.83881529659395 10.523304818433342  L 101.99302736186213 10.523304818433342  Z M 109.06393672644042 2.8432140938104755  C 109.06393672644042 2.8432140938104755  109.06393672644042 1.0190607349412735  109.06393672644042 1.0190607349412735  L 111.90068265571196 1.0190607349412735  C 111.90068265571196 1.0190607349412735  111.90068265571196 2.8432140938104755  111.90068265571196 2.8432140938104755  C 111.90068265571196 3.7194963513486448  111.87663776420395 4.631857451716212  111.8285909905556 5.580340604103328  C 111.78054421690723 6.528578152604673  111.60169268873463 7.571035002120315  111.29205793682405 8.707721124001829  C 111.29205793682405 8.707721124001829  108.4713188010025 8.41237158971143  108.4713188010025 8.41237158971143  C 108.77027649044503 7.286141142193718  108.9437982876357 6.28884151693524  108.99184506128405 5.420525479004737  C 109.03989183493243 4.552196205292086  109.06393672644042 3.693108119062945  109.06393672644042 2.8432140938104755  Z M 121.14869921338102 21.98346844874432  L 121.14869921338102 13.818735850177292  L 124.05851432191272 13.818735850177292  L 124.05851432191272 21.98346844874432  L 121.14869921338102 21.98346844874432  Z M 128.77410345334843 21.98346844874432  L 128.77410345334843 13.818735850177292  L 131.67591516515517 13.818735850177292  L 131.67591516515517 21.98346844874432  L 128.77410345334843 21.98346844874432  Z M 116.461091423167 14.618267308885018  L 116.461091423167 12  L 136.4766091182543 12  L 136.4766091182543 14.618267308885018  L 116.461091423167 14.618267308885018  Z M 122.29477340547278 1.3857329729027872  C 123.48793497220429 0.9871702158922796  124.86160993505368 0.7878925172905825  126.41578958326294 0.7878925172905825  C 127.98598485500564 0.7878925172905825  129.36399789466705 0.9871702158922796  130.54981891756015 1.3857329729027872  C 131.7356399404532 1.7840467725670248  132.66255748706976 2.3485320778380108  133.33054106975675 3.0791837546567504  C 133.99785738451547 3.809842731929321  134.33151551206345 4.674560358360878  134.33151551206345 5.673330579916541  C 134.33151551206345 6.6561682435503045  133.99785738451547 7.514181145054762  133.33054106975675 8.24732957708347  C 132.66255748706976 8.98047136154446  131.7356399404532 9.54631745953876  130.54981891756015 9.944882857770368  C 129.36399789466705 10.343441638110903  127.98598485500564 10.542723313382574  126.41578958326294 10.542723313382574  C 124.86160993505368 10.542723313382574  123.48793497220429 10.343441638110903  122.29477340547278 9.944882857770368  C 121.10094457081298 9.54631745953876  120.17006028819142 8.98047136154446  119.50207670550442 8.24732957708347  C 118.83476039074571 7.514181145054762  118.50110226319774 6.6561682435503045  118.50110226319774 5.673330579916541  C 118.50110226319774 4.674560358360878  118.83476039074571 3.809842731929321  119.50207670550442 3.0791837546567504  C 120.17006028819142 2.3485320778380108  121.10094457081298 1.7840467725670248  122.29477340547278 1.3857329729027872  Z M 129.05135089104303 3.3562695714753388  C 128.3079605434887 3.1469095454993203  127.42944307081073 3.0422308753793432  126.41578958326294 3.0422308753793432  C 125.40814198437155 3.0422308753793432  124.53129763352057 3.1469095454993203  123.78523803526491 3.3562695714753388  C 123.03851110941825 3.5653839638889444  122.46031035358844 3.8647488219776185  122.05057816341346 4.254352171216481  C 121.64017864564748 4.643703269001857  121.43498865653588 5.1166879503942955  121.43498865653588 5.673330579916541  C 121.43498865653588 6.224741989119744  121.64017864564748 6.696508741141468  122.05057816341346 7.088601545136466  C 122.46031035358844 7.480694349131466  123.03851110941825 7.777307262569169  123.78523803526491 7.978448758130753  C 124.53129763352057 8.179603533989445  125.40814198437155 8.28017995742794  126.41578958326294 8.28017995742794  C 127.42944307081073 8.28017995742794  128.3079605434887 8.179603533989445  129.05135089104303 7.978448758130753  C 129.79540856618834 7.777307262569169  130.37230742167276 7.480694349131466  130.7820396118477 7.088601545136466  C 131.19310645720472 6.696508741141468  131.3986677274606 6.224741989119744  131.3986677274606 5.673330579916541  C 131.3986677274606 5.1166879503942955  131.19310645720472 4.643703269001857  130.7820396118477 4.254352171216481  C 130.37230742167276 3.8647488219776185  129.79540856618834 3.5653839638889444  129.05135089104303 3.3562695714753388  Z M 153 21.999604944547198  L 153 0.016045329159927013  L 155 0.016045329159927013  L 155 21.999604944547198  L 153 21.999604944547198  Z M 155.15079417901273 11.071489842516533  L 155.15079417901273 8.712978400412183  L 159.09762956242932 8.712978400412183  L 159.09762956242932 11.071489842516533  L 155.15079417901273 11.071489842516533  Z M 138.4505155670145 6  L 138.4505155670145 3.328646078660237  L 151.36812007040558 3.328646078660237  L 151.36812007040558 6  L 138.4505155670145 6  Z M 142.1281069094615 7.673739448497063  C 142.9642542409359 7.2273764655296855  143.9138535871316 7.004211622641927  144.97688848113626 7.004211622641927  C 146.03925598788717 7.004211622641927  146.98581927694173 7.2273764655296855  147.81662804735072 7.673739448497063  C 148.6474368177597 8.120095783896724  149.30310198655332 8.729894323529697  149.78356970812126 9.503119694895636  C 150.26470475728019 10.276099462375804  150.50528058989426 11.169948985961028  150.50528058989426 12.184664941867451  C 150.50528058989426 13.199633267933928  150.26470475728019 14.097693491487313  149.78356970812126 14.87885196332891  C 149.30310198655332 15.659811245552174  148.64780809890402 16.2722189258368  147.81766665608603 16.716072541021536  C 146.98885980878734 17.159660609617355  146.0392604029289 17.381437090181766  144.96888508441128 17.381437090181766  C 143.91118881113474 17.381437090181766  142.9642542409359 17.159660609617355  142.1281069094615 16.716072541021536  C 141.29262690557815 16.2722189258368  140.63299500077952 15.659811245552174  140.14919070091926 14.87885196332891  C 139.66605369881864 14.097693491487313  139.4244861822033 13.199633267933928  139.4244861822033 12.184664941867451  C 139.4244861822033 11.169948985961028  139.66605369881864 10.276099462375804  140.14919070091926 9.503119694895636  C 140.63299500077952 8.729894323529697  141.29262690557815 8.120095783896724  142.1281069094615 7.673739448497063  Z M 146.41530048490023 9.672264206456532  C 145.9895527010232 9.43900538811263  145.50740932196246 9.322397019679563  144.96888508441128 9.322397019679563  C 144.42568961338574 9.322397019679563  143.9408813986654 9.43900538811263  143.51446628719734 9.672264206456532  C 143.0887185033203 9.905277391238023  142.75468904988097 10.235124389157592  142.51245323615532 10.661817337961653  C 142.26955010975436 11.0882646532033  142.14814594858973 11.595891709265777  142.14814594858973 12.184664941867451  C 142.14814594858973 12.773637304734173  142.26955010975436 13.284056428267046  142.51245323615532 13.715960654687002  C 142.75468904988097 14.147931267754185  143.0887185033203 14.4805368282158  143.51446628719734 14.713749172938979  C 143.9408813986654 14.946828744367696  144.42531833224146 15.06337324866807  144.96784647567597 15.06337324866807  C 145.5117092742925 15.06337324866807  145.99521558866746 14.946828744367696  146.4182941218432 14.713749172938979  C 146.8420399826099 14.4805368282158  147.1750166275851 14.147931267754185  147.41725244131075 13.715960654687002  C 147.6594882550364 13.284056428267046  147.78058221477255 12.773637304734173  147.78058221477255 12.184664941867451  C 147.78058221477255 11.595891709265777  147.6594882550364 11.0882646532033  147.41725244131075 10.661817337961653  C 147.1750166275851 10.235124389157592  146.84104826877729 9.905277391238023  146.41530048490023 9.672264206456532  Z M 143.51446628719734 4.2308007884533305  L 143.51446628719734 0.3435462995321494  L 146.3832258033688 0.3435462995321494  L 146.3832258033688 4.2308007884533305  L 143.51446628719734 4.2308007884533305  Z M 176 21.98346844874432  L 176 0  L 179 0  L 179 21.98346844874432  L 176 21.98346844874432  Z M 169.6268616370426 2.806230825652083  C 169.6268616370426 2.806230825652083  169.6268616370426 2.3021096789967253  169.6268616370426 2.3021096789967253  C 169.6268616370426 2.3021096789967253  172.45560416958915 2.3021096789967253  172.45560416958915 2.3021096789967253  C 172.45560416958915 3.9600880897687545  172.28480833997875 5.543633803537957  171.94314240066404 7.052742665574509  C 171.602143759109 8.56160592372529  171.04327861886713 9.986832333838434  170.26652242872663 11.328397442361272  C 169.49043356617716 12.669716946998339  168.44942501704315 13.912805818331126  167.14348705630024 15.057690527923928  C 165.83821636348563 16.202641594487318  164.21863586687158 17.24012493563946  162.2847532032871 18.170119718377954  C 162.2847532032871 18.170119718377954  160.78225293109173 15.915872526932144  160.78225293109173 15.915872526932144  C 162.91232656532168 14.895925291353395  164.62567085435808 13.745017054464471  165.9222664674777 12.46317903609232  C 167.2188620805973 11.181374136852181  168.16046680048876 9.740109163853393  168.7470378489775 8.139388271825778  C 169.3336088974662 6.538667379798163  169.6268616370426 4.760952623216553  169.6268616370426 2.806230825652083  Z M 161.92038482109 4.572128699673596  L 161.92038482109 2.3021096789967253  L 170.9451615953003 2.3021096789967253  L 170.9451615953003 4.572128699673596  L 161.92038482109 4.572128699673596  Z " fill-rule="nonzero" fill="#26262c" stroke="none" transform="matrix(1 0 0 1 442 485 )" />
  </g>
</svg>