<?xml version="1.0" encoding="utf-8"?>
<svg version="1.1" xmlns:xlink="http://www.w3.org/1999/xlink" width="559px" height="56px" xmlns="http://www.w3.org/2000/svg">
  <g transform="matrix(1 0 0 1 -441 -1011 )">
    <path d="M 0 8.029562664227907  C 0 3.594957437486736  3.581721782684326 0  8 0  C 8 0  551 0  551 0  C 555.4182782173157 0  559 3.594957437486736  559 8.029562664227907  C 559 8.029562664227907  559 47.9704373357721  559 47.9704373357721  C 559 52.40504256251326  555.4182782173157 56  551 56  C 551 56  8 56  8 56  C 3.581721782684326 56  0 52.40504256251326  0 47.9704373357721  C 0 47.9704373357721  0 8.029562664227907  0 8.029562664227907  Z " fill-rule="nonzero" fill="#3578ff" stroke="none" transform="matrix(1 0 0 1 441 1011 )" />
  </g>
</svg>