<?xml version="1.0" encoding="utf-8"?>
<svg version="1.1" xmlns:xlink="http://www.w3.org/1999/xlink" width="293px" height="20px" xmlns="http://www.w3.org/2000/svg">
  <g transform="matrix(1 0 0 1 -443 -529 )">
    <path d="M 0 0  L 2.299590560969173 0  C 2.299590560969173 0  2.299590560969173 3.6661220616883368  2.299590560969173 3.6661220616883368  C 2.299590560969173 4.089151480988023  2.2881986018026943 4.5040695385330904  2.265414055816765 4.910902930646005  C 2.2426295098308358 5.31766967133776  2.2198455914978776 5.633354921004629  2.1970610455119486 5.857966411449825  C 2.1970610455119486 5.857966411449825  2.299590560969173 5.857966411449825  2.299590560969173 5.857966411449825  C 2.5892769099214736 5.39254740337266  2.9961421723324575 4.997962319761686  3.5201800306980338 4.674175198048575  C 4.044217889063609 4.350321424914305  4.717986196709605 4.188393659394588  5.541476192569027 4.188393659394588  C 6.823910093812116 4.188393659394588  7.854895829593304 4.659482686290752  8.634449908861958 5.601651205682198  C 9.413977347335058 6.543819725073644  9.803744106125464 7.9342719378936755  9.803744106125464 9.773020238863438  C 9.803744106125464 10.996652972406682  9.624718079193267 12.025845722810558  9.266684739444766 12.860640620208963  C 8.908651399696264 13.695368895981213  8.405786358297439 14.325098763283329  7.758066669596637 14.749794438317004  C 7.110340305797172 15.174490113350679  6.3519470044780375 15.386844967590665  5.4828878980220415 15.386844967590665  C 4.65939790216262 15.386844967590665  3.996213559437096 15.236349485037476  3.4933270623639987 14.93535676202593  C 2.9904472403895634 14.634297387593227  2.594159267800389 14.280347741767617  2.3044729188480884 13.873514349654704  C 2.3044729188480884 13.873514349654704  2.1384727509649637 13.873514349654704  2.1384727509649637 13.873514349654704  L 1.7234723312571507 15.191580437545099  L 0 15.191580437545099  L 0 0  Z M 6.803565704268668 6.985588562380153  C 6.375545564218589 6.367273786327974  5.751418415749724 6.05811255474653  4.931181457704596 6.05811255474653  C 4.283455093905132 6.05811255474653  3.7691809083132206 6.187470002391228  3.3883563679673165 6.446139788046454  C 3.007531827621412 6.704876225122841  2.7324887975628607 7.093772846808112  2.563237886430607 7.612845355068716  C 2.3939803150994647 8.13191786332932  2.306096621697987 8.788474227465635  2.299590560969173 9.582545791820552  C 2.299590560969173 9.582545791820552  2.299590560969173 9.787604058451217  2.299590560969173 9.787604058451217  C 2.299590560969173 10.99177493455587  2.4900018924563754 11.91278435397188  2.8708264328022794 12.550627668678807  C 3.2516442980495213 13.188470983385734  3.9449445701727246 13.507393355819264  4.950710889220258 13.507393355819264  C 5.7546760426943475 13.507393355819264  6.371477866371984 13.183618092517248  6.80112452532921 12.536043849091028  C 7.230771184286437 11.888402924448645  7.445595765346049 10.959248087589872  7.445595765346049 9.748612172607743  C 7.445595765346049 8.524912817438343  7.231585844318747 7.603903338432331  6.803565704268668 6.985588562380153  Z M 16.54631085164443 4.4130393991954495  C 16.9596723558333 4.260076979799274  17.444669171297015 4.183573066309089  18.001284014297976 4.183573066309089  C 19.28369789024508 4.183573066309089  20.313078145599725 4.652210739148708  21.089405887448734 5.58944717255435  C 21.865666937910216 6.526750227586149  22.253787212096583 7.918013162431104  22.253787212096583 9.763226502278341  C 22.253787212096583 10.990125125663404  22.073145185497545 12.02096410955942  21.71184548753697 12.855759006957825  C 21.350545789576397 13.690487282730073  20.84685938324705 14.32102221100659  20.20078623874938 14.747384141774253  C 19.554646402864186 15.173679421120758  18.801949046672565 15.386844967590665  17.942695719750994 15.386844967590665  C 17.39587998118579 15.386844967590665  16.92064579551157 15.316060011211503  16.51701670437094 15.174494791166111  C 16.11338761323031 15.032929571120718  15.768366305540791 14.845785445613107  15.481926319304122 14.613109267285108  C 15.195552994655436 14.380433088957105  14.953067013334927 14.129033671308775  14.754485510082464 13.858900019984103  C 14.754485510082464 13.858900019984103  14.617810004209577 13.858900019984103  14.617810004209577 13.858900019984103  C 14.65360666979066 14.115970201326501  14.685321376579145 14.402372013539612  14.712985468111683 14.718094462267416  C 14.740649559644224 15.033750259574063  14.754485510082464 15.323389209451337  14.754485510082464 15.586991110887372  C 14.754485510082464 15.586991110887372  14.754485510082464 19.985294140080942  14.754485510082464 19.985294140080942  L 13 19.985294140080942  L 13 4.3837497196886135  L 14.329720374616821 4.3837497196886135  L 14.647104151483068 5.88237447770552  C 14.647104151483068 5.88237447770552  14.754485510082464 5.88237447770552  14.754485510082464 5.88237447770552  C 14.956266724858791 5.573183778866352  15.202015205349957 5.289208382292482  15.491721549798696 5.030471945216095  C 15.781427894247438 4.771735508139709  16.13294934745557 4.565935167170465  16.54631085164443 4.4130393991954495  Z M 19.282872442776537 7.022200661763697  C 18.871110786899717 6.379491882697121  18.23721150258567 6.05811255474653  17.381224563675715 6.05811255474653  C 16.749750038750395 6.05811255474653  16.244422779931508 6.183397293669844  15.865191412798984 6.433935754918608  C 15.486026707254444 6.684540867588529  15.209368720513215 7.059603669495332  15.035251602856848 7.559147609306186  C 14.861067823612492 8.05869154911704  14.767484299967485 8.687610753984234  14.754485510082464 9.445891130871475  C 14.754485510082464 9.445891130871475  14.754485510082464 9.763226502278341  14.754485510082464 9.763226502278341  C 14.754485510082464 10.567095676568714  14.837470709149999 11.247247060925584  15.00345524717041 11.803710331171693  C 15.169439785190816 12.360240282633965  15.446122669454068 12.783328636449099  15.833486601322777 13.072990796633517  C 16.220850533191488 13.362586305396775  16.746544382216786 13.507393355819264  17.41054922568595 13.507393355819264  C 17.970363765311003 13.507393355819264  18.434188806792136 13.354446549004532  18.80202122117685 13.048521710212182  C 19.169786973973583 12.742663522840992  19.444767946474258 12.30660176933691  19.62701764376659 11.740340889155343  C 19.809334002646906 11.174013327757615  19.90049071445934 10.505183508137039  19.90049071445934 9.733906312688687  C 19.90049071445934 8.568859135519686  19.694634098653356 7.664976062456428  19.282872442776537 7.022200661763697  Z M 27.036026239757515 4.447119161704965  C 27.708163677762414 4.271428995028382  28.408810223758813 4.183573066309089  29.1379423361041 4.183573066309089  C 30.50821469503541 4.183573066309089  31.543259427195302 4.48623517352991  32.24306091762083 5.091553131020974  C 32.942862408046366 5.696871088512038  33.292767861587656 6.639024174092059  33.292767861587656 7.917976693347733  C 33.292767861587656 7.917976693347733  33.292767861587656 15.191580437545099  33.292767861587656 15.191580437545099  L 31.662121359503384 15.191580437545099  L 31.21776576304859 13.658753876687397  C 31.21776576304859 13.658753876687397  31.139648036985946 13.658753876687397  31.139648036985946 13.658753876687397  C 30.83367653326528 14.049257938771223  30.517967997566508 14.372253019926136  30.192531637949838 14.627723596955704  C 29.867028616745177 14.883194173985272  29.491908603796492 15.073569791004026  29.067148146859825 15.198872347338988  C 28.642387689923154 15.32417490367395  28.12402965512984 15.386844967590665  27.512086647688513 15.386844967590665  C 26.864346933691724 15.386844967590665  26.286602304270748 15.268059353027974  25.77884960067353 15.030517710340325  C 25.27109689707632 14.792909416231517  24.871567478696868 14.430844892840963  24.580261256136534 13.944297741796222  C 24.288888401787766 13.457817242172638  24.143198681763373 12.84030547123967  24.143198681763373 12.091756023071724  C 24.143198681763373 10.978762741773338  24.55823545691926 10.14156142118254  25.388291485097042 9.580166005360622  C 26.218280881486386 9.018770589538702  27.47301812960377 8.710420039014053  29.15252838026736 8.655100294269749  C 29.15252838026736 8.655100294269749  31.022471447891974 8.58678821883662  31.022471447891974 8.58678821883662  C 31.022471447891974 8.58678821883662  31.022471447891974 8.020429551456017  31.022471447891974 8.020429551456017  C 31.022471447891974 7.271946784504234  30.848354419634244 6.738243082601473  30.50012018432151 6.419321425248009  C 30.151819287420786 6.100399767894546  29.663559987686185 5.940953836719189  29.03535179117339 5.940953836719189  C 28.49180238102071 5.940953836719189  27.9661639293544 6.019048609688896  27.458411225757185 6.175210252608231  C 26.950658522159973 6.331438532051223  26.45589904710721 6.521814163967478  25.974143915830147 6.746359002991513  C 25.974143915830147 6.746359002991513  25.23199500349826 5.125663403613308  25.23199500349826 5.125663403613308  C 25.762545612591087 4.849064683616161  26.363888801752616 4.622875979802706  27.036026239757515 4.447119161704965  Z M 31.012767761607627 10.969015485392536  C 31.012767761607627 10.969015485392536  31.012767761607627 10.026864127922675  31.012767761607627 10.026864127922675  C 31.012767761607627 10.026864127922675  29.62129576611673 10.080531363602388  29.62129576611673 10.080531363602388  C 28.472269433158434 10.119588433463134  27.667496384149338 10.314847458881943  27.2069392802563 10.666294443656268  C 26.74638217636326 11.017808079851752  26.516085640389765 11.499468910034917  26.516085640389765 12.11125196599346  C 26.516085640389765 12.644987488959163  26.675586407742966 13.033073478004518  26.994556712523476 13.275547236472974  C 27.31352701730399 13.518020994941429  27.73341736397581 13.639257933765661  28.254235560020405 13.639257933765661  C 29.048428249854286 13.639257933765661  29.706731307484606 13.413069229952207  30.2291493220417 12.960713691857318  C 30.751567336598793 12.508291502341267  31.012767761607627 11.844400412992108  31.012767761607627 10.969015485392536  Z M 39.18580433617533 15.162290758038264  L 34.87471284382974 4.3837497196886135  L 37.37448007783445 4.3837497196886135  C 37.37448007783445 4.3837497196886135  39.5861576822464 10.558929462214026  39.5861576822464 10.558929462214026  C 39.68708162042855 10.838794042257991  39.77821344961875 11.112977787896956  39.859539208728926 11.381511805113796  C 39.940931629427084 11.649979170909475  40.012563077935575 11.914376896869054  40.074423984874684 12.174712938258272  C 40.136218230225815 12.435048979647487  40.18506190880983 12.695429385795801  40.220925235978896 12.955832078606178  C 40.220925235978896 12.955832078606178  40.28430434419456 12.955832078606178  40.28430434419456 12.955832078606178  C 40.34943161307069 12.617381882597964  40.441399140773804 12.23902655411688  40.56018807909003 11.820795977550683  C 40.67897701740627 11.402632052405643  40.813232695715556 10.980379269647731  40.96295208936382 10.554017338880065  C 40.96295208936382 10.554017338880065  43.09166012457094 4.3837497196886135  43.09166012457094 4.3837497196886135  L 45.56210269656542 4.3837497196886135  C 45.56210269656542 4.3837497196886135  40.923954255805974 16.675621375974224  40.923954255805974 16.675621375974224  C 40.66031214526537 17.381781235364695  40.33400528126418 17.983032741084955  39.94504150108343 18.479377472270148  C 39.55607772090268 18.975655552034183  39.098752824940156 19.35314479937523  38.57306842237144 19.611881236451616  C 38.047384019802735 19.870617673528002  37.44439428643807 20  36.76412431349653 20  C 36.44188765050395 20  36.16035115002544 19.982093460327025  35.919506915180904 19.94630225423747  C 35.678662680336366 19.910444396726753  35.47199524863971 19.871399822145285  35.29947797929539 19.82914353621013  C 35.29947797929539 19.82914353621013  35.29947797929539 17.998477546867303  35.29947797929539 17.998477546867303  C 35.439398283407655 18.031002889185665  35.612704495774715 18.06031683113568  35.81941857866314 18.086377095470624  C 36.026132661551564 18.112437359805572  36.24178242188379 18.125460511562558  36.46636151235618 18.125460511562558  C 36.87645665833297 18.125460511562558  37.23043541203581 18.04326815104417  37.52827435102028 17.87890853229721  C 37.826113290004756 17.714548913550253  38.07916706999117 17.485128718225656  38.28748100119164 17.19060106388659  C 38.49579493239211 16.89607340954752  38.66829596098298 16.56005520084406  38.80494990688319 16.18254792752635  C 38.80494990688319 16.18254792752635  39.18580433617533 15.162290758038264  39.18580433617533 15.162290758038264  Z M 47.288046721498766 15.111003308818482  C 47.00973929999829 14.878327130490481  46.8706051228515 14.503264328583676  46.8706051228515 13.985791454430903  C 46.8706051228515 13.452122553091357  47.00973929999829 13.075438366724711  47.288046721498766 12.855759006957825  C 47.566354142999245 12.636079647190936  47.90407015119352 12.526250112505931  48.30116649611046 12.526250112505931  C 48.69826284102741 12.526250112505931  49.037594848888524 12.636079647190936  49.319168628601076 12.855759006957825  C 49.60067574672565 13.075438366724711  49.74143155565378 13.452122553091357  49.74143155565378 13.985791454430903  C 49.74143155565378 14.503264328583676  49.60067574672565 14.878327130490481  49.319168628601076 15.111003308818482  C 49.037594848888524 15.343746138567642  48.69826284102741 15.46009967644057  48.30116649611046 15.46009967644057  C 47.90407015119352 15.46009967644057  47.566354142999245 15.343746138567642  47.288046721498766 15.111003308818482  Z M 58.76897230324192 15.218459820509182  C 58.30021594322516 15.33069891431062  57.72409294558552 15.386844967590665  57.04055658463236 15.386844967590665  C 56.0185184014147 15.386844967590665  55.13318135168086 15.189159504186364  54.384584413239104 14.793789977742895  C 53.63592078340982 14.398353799878265  53.059822668392435 13.790547780887263  52.656260238839785 12.970415898193956  C 52.25263114769915 12.15035069671681  52.05081734711753 11.108939849943784  52.05081734711753 9.846183417464886  C 52.05081734711753 8.531439710741532  52.272156407278146 7.457508333543091  52.71484853338677 6.624379691878674  C 53.1574739979074 5.791251050214257  53.770170963702576 5.176165665125526  54.5529647305882 4.779129882948067  C 55.33582518886136 4.382094100770608  56.23502308096804 4.183573066309089  57.25052848816247 4.183573066309089  C 57.89500181414764 4.183573066309089  58.47924655928769 4.247023312372907  59.00326445195637 4.373925473020696  C 59.527348976413485 4.500827633668487  59.971648758315624 4.655420688872859  60.336148152900286 4.837709241961737  C 60.336148152900286 4.837709241961737  59.65261804985212 6.668283701056107  59.65261804985212 6.668283701056107  C 59.255521704935184 6.508856198089954  58.84949214103711 6.372974739808583  58.43453078853621 6.260668994585986  C 58.01950277444732 6.1483632493633875  57.61832684166428 6.0922228273388646  57.23102957138355 6.0922228273388646  C 56.59955504645823 6.0922228273388646  56.074696866146304 6.232982047867269  55.65646915543332 6.514512883645223  C 55.23817478313236 6.796043719423176  54.925703863981994 7.213418732485306  54.719056442681556 7.7666161724796  C 54.51234235979314 8.319880234100053  54.40899620263368 9.006555591849843  54.40899620263368 9.82668747454315  C 54.40899620263368 10.620759038898067  54.51393346193796 11.289533499403529  54.72384725635024 11.833000010678528  C 54.93382769745073 12.376533143579687  55.24309149988966 12.786598340051272  55.6515867975544 13.06319706004842  C 56.06008209521915 13.339795780045566  56.56538450121535 13.47810367631243  57.16752840422091 13.47810367631243  C 57.759939894178245 13.47810367631243  58.290487374318566 13.406508027703346  58.75917707274734 13.263343203345126  C 59.22786677117611 13.120111727565746  59.66890403900782 12.932998112140954  60.082265543196684 12.70198818954694  C 60.082265543196684 12.70198818954694  60.082265543196684 14.698506989097222  60.082265543196684 14.698506989097222  C 59.67543675543197 14.932849423159212  59.237662001670685 15.106154075286584  58.76897230324192 15.218459820509182  Z M 71.54118999974797 6.739067093197625  C 71.97081666320875 7.570596160344215  72.18566123976481 8.580266569453915  72.18566123976481 9.768108115529479  C 72.18566123976481 10.663088262999965  72.06766832186385 11.458788064665358  71.83169029354345 12.155216995336533  C 71.59571226522301 12.851645926007711  71.25395347160394 13.43987427438442  70.8063951389712 13.919889675540524  C 70.35883680633846 14.399905076696628  69.81933190998436 14.764426570501746  69.18792401684746 15.01343206396134  C 68.55644949192215 15.26237090599977  67.84361344097964 15.386844967590665  67.04942075114576 15.386844967590665  C 66.30728983774063 15.386844967590665  65.62700424983615 15.26237090599977  65.0085951577591 15.01343206396134  C 64.39018606568207 14.764426570501746  63.854760101604015 14.399905076696628  63.40226890085918 13.919889675540524  C 62.94984436170233 13.43987427438442  62.59993892306082 12.851645926007711  62.352561956892366 12.155216995336533  C 62.105184990723906 11.458788064665358  61.98147224335805 10.663088262999965  61.98147224335805 9.768108115529479  C 61.98147224335805 8.577000679612095  62.18819507241369 7.565684037010256  62.601623238190534 6.734154969863666  C 63.014984742379404 5.902692583933238  63.604949331884136 5.269731180427478  64.37147796929739 4.835237925253348  C 65.13800660671063 4.400811321500379  66.05182070012275 4.183573066309089  67.1129219183084 4.183573066309089  C 68.11216219603045 4.183573066309089  68.99258458517579 4.40161638247478  69.75424701606491 4.837709241961737  C 70.51590944695405 5.273802101448695  71.11156333628719 5.907604707267197  71.54118999974797 6.739067093197625  Z M 64.99391756938562 7.024671978472085  C 64.55775818950069 7.662515293179013  64.33968161361095 8.577000679612095  64.33968161361095 9.768108115529479  C 64.33968161361095 10.555647959790761  64.43569194163864 11.22933072986983  64.62774072846696 11.789126511583916  C 64.81978951529528 12.348855671671846  65.11761364390459 12.776796886560462  65.52124273504522 13.072990796633517  C 65.92487182618586 13.369118055285414  66.44730319094027 13.517187092404361  67.08851012891382 13.517187092404361  C 67.72318435046324 13.517187092404361  68.24232268641047 13.369118055285414  68.6459517775511 13.072990796633517  C 69.04958086869175 12.776796886560462  69.34659981352489 12.348855671671846  69.53698209045318 11.789126511583916  C 69.72736436738147 11.22933072986983  69.82253899689624 10.555647959790761  69.82253899689624 9.768108115529479  C 69.82253899689624 8.980568271268197  69.72736436738147 8.311793810762737  69.53698209045318 7.761795579394101  C 69.34659981352489 7.211797348025463  69.04958086869175 6.7919710107017925  68.6459517775511 6.502308850517374  C 68.24232268641047 6.2126466903329565  67.71827535178876 6.067814761083169  67.0738020258036 6.067814761083169  C 66.12335719609776 6.067814761083169  65.43007694927054 6.386762042139001  64.99391756938562 7.024671978472085  Z M 85.11170372419343 4.600889979115848  C 85.71544750531059 4.322691654805872  86.35746290501056 4.183573066309089  87.0377328779521 4.183573066309089  C 88.24535382296146 4.183573066309089  89.15760731406573 4.495996314381995  89.77441652803117 5.120842810527809  C 90.39122574199662 5.745689306673622  90.69962334608564 6.7480555304483  90.69962334608564 8.127916573229538  C 90.69962334608564 8.127916573229538  90.69962334608564 15.191580437545099  90.69962334608564 15.191580437545099  L 88.4048541135219 15.191580437545099  C 88.4048541135219 15.191580437545099  88.4048541135219 8.53791106615959  88.4048541135219 8.53791106615959  C 88.4048541135219 7.714579974840623  88.24451201554129 7.095421940620515  87.92394186244873 6.680457224101135  C 87.6033050477682 6.2655591590029145  87.1191190779947 6.05811255474653  86.4713793639979 6.05811255474653  C 85.55999756926005 6.05811255474653  84.90420726908253 6.348562226648726  84.50391119774196 6.929419499909233  C 84.10354846481339 7.5103434543859  83.90332014916186 8.354068867549628  83.90332014916186 9.460596990790531  C 83.90332014916186 9.460596990790531  83.90332014916186 15.191580437545099  83.90332014916186 15.191580437545099  L 81.60867297554509 15.191580437545099  C 81.60867297554509 15.191580437545099  81.60867297554509 8.53791106615959  81.60867297554509 8.53791106615959  C 81.60867297554509 7.9879128347909525  81.53787722182457 7.529066812886239  81.39629040781227 7.161357149503981  C 81.254636932212 6.793580834700567  81.0414139725375 6.517750840671962  80.75664049620087 6.333862683270254  C 80.47186701986422 6.1500411772897055  80.10974160623918 6.05811255474653  79.67031586814218 6.05811255474653  C 79.03884134321686 6.05811255474653  78.53680708340559 6.200493159734775  78.16410846249676 6.4852232041383875  C 77.79140984158792 6.770019899963159  77.52367877122352 7.190656959311753  77.36096059141518 7.747120229557863  C 77.19824241160683 8.303650181020135  77.11690372694288 8.985447798869144  77.11690372694288 9.792516181785176  C 77.11690372694288 9.792516181785176  77.11690372694288 15.191580437545099  77.11690372694288 15.191580437545099  L 75 15.191580437545099  L 75 4.3837497196886135  L 76.60913850753568 4.3837497196886135  L 76.93131309807062 5.838378938279628  C 76.93131309807062 5.838378938279628  77.05825440292242 5.838378938279628  77.05825440292242 5.838378938279628  C 77.27630076207089 5.464137554803736  77.55056247779089 5.15497630832479  77.88093170551967 4.910902930646005  C 78.21130093324844 4.66682955296722  78.57827431607447 4.484568813513412  78.98190340721511 4.364131736435598  C 79.38553249835573 4.243761310778945  79.80545338956384 4.183573066309089  80.24161276944878 4.183573066309089  C 81.04880426034251 4.183573066309089  81.72902887837259 4.324307408010194  82.28237733336194 4.605771592366987  C 82.83572578835128 4.887302428144941  83.24912168121807 5.319346832042758  83.52249623460645 5.901870420627256  C 83.52249623460645 5.901870420627256  83.69826111824742 5.901870420627256  83.69826111824742 5.901870420627256  C 84.03676294051193 5.312815111949122  84.50789325168876 4.879154954846984  85.11170372419343 4.600889979115848  Z M 97.75456945164497 0.9177738012969837  L 99.90292897731474 0.9177738012969837  L 94.58598021770234 15.191580437545099  L 92.43273833415365 15.191580437545099  L 97.75456945164497 0.9177738012969837  Z M 103.83560721930765 4.447119161704965  C 104.50754464274904 4.271428995028382  105.208135821186 4.183573066309089  105.93740125670726 4.183573066309089  C 107.3079402619905 4.183573066309089  108.34282443418792 4.48623517352991  109.04209263190958 5.091553131020974  C 109.74202744551108 5.696871088512038  110.09198266429686 6.639024174092059  110.09198266429686 7.917976693347733  C 110.09198266429686 7.917976693347733  110.09198266429686 15.191580437545099  110.09198266429686 15.191580437545099  L 108.46115307379213 15.191580437545099  L 108.01722468365175 13.658753876687397  C 108.01722468365175 13.658753876687397  107.93922901653607 13.658753876687397  107.93922901653607 13.658753876687397  C 107.6332575128154 14.049257938771223  107.31759874236113 14.372253019926136  106.99229570592043 14.627723596955704  C 106.66632605359989 14.883194173985272  106.29105111280322 15.073569791004026  105.86642397904252 15.198872347338988  C 105.44179684528181 15.32417490367395  104.92345806099624 15.386844967590665  104.31151505355493 15.386844967590665  C 103.66357538459373 15.386844967590665  103.08599131513523 15.268059353027974  102.57870521285435 15.030517710340325  C 102.07075249469364 14.792909416231517  101.671148458247 14.430844892840963  101.37984223568667 13.944297741796222  C 101.08853601312633 13.457817242172638  100.94287120552373 12.84030547123967  100.94287120552373 12.091756023071724  C 100.94287120552373 10.978762741773338  101.35782770069838 10.14156142118254  102.18775040570019 9.580166005360622  C 103.017673110702 9.018770589538702  104.27257097838095 8.710420039014053  105.95241450718491 8.655100294269749  C 105.95241450718491 8.655100294269749  107.82223551586256 8.58678821883662  107.82223551586256 8.58678821883662  C 107.82223551586256 8.58678821883662  107.82223551586256 8.020429551456017  107.82223551586256 8.020429551456017  C 107.82223551586256 7.271946784504234  107.64790816239785 6.738243082601473  107.29927395755723 6.419321425248009  C 106.95130636859642 6.100399767894546  106.46299161190375 5.940953836719189  105.83438350546214 5.940953836719189  C 105.2911007416614 5.940953836719189  104.76551771715363 6.019048609688896  104.2575649989929 6.175210252608231  C 103.75027889671203 6.331438532051223  103.25564949668454 6.521814163967478  102.77369438064353 6.746359002991513  C 102.77369438064353 6.746359002991513  102.03175907146884 5.125663403613308  102.03175907146884 5.125663403613308  C 102.56237631235011 4.849064683616161  103.16366979586624 4.622875979802706  103.83560721930765 4.447119161704965  Z M 107.81222668221078 10.969015485392536  C 107.81222668221078 10.969015485392536  107.81222668221078 10.026864127922675  107.81222668221078 10.026864127922675  C 107.81222668221078 10.026864127922675  106.42032748040549 10.080531363602388  106.42032748040549 10.080531363602388  C 105.27176780836261 10.119588433463134  104.46717454002419 10.314847458881943  104.00655077454317 10.666294443656268  C 103.54592700906214 11.017808079851752  103.31563610520314 11.499468910034917  103.31563610520314 12.11125196599346  C 103.31563610520314 12.644987488959163  103.47498194470838 13.033073478004518  103.79361894154897 13.275547236472974  C 104.1129225542694 13.518020994941429  104.53283218124852 13.639257933765661  105.05345036272962 13.639257933765661  C 105.8480430220914 13.639257933765661  106.50635168203667 13.413069229952207  107.02830309527742 12.960713691857318  C 107.550921124398 12.508291502341267  107.81222668221078 11.844400412992108  107.81222668221078 10.969015485392536  Z M 121.70290102456613 4.0859102912034855  C 122.05086861352694 5.182640864098938  122.22488611129567 6.502308135437309  122.22488611129567 8.044929147960172  C 122.22488611129567 9.200245277229866  122.13623649502199 10.231894983150806  121.95891966584176 11.139871949182405  C 121.78160283666153 12.047848915214006  121.49993067374258 12.817502402192302  121.11396660542196 13.448813996805596  C 120.72866915298118 14.080192213045045  120.2267344236589 14.561042380793292  119.60812537661745 14.89136122260004  C 118.98951632957602 15.221680064406783  118.24255800865775 15.386844967590665  117.36730619861574 15.386844967590665  C 116.26340901573325 15.386844967590665  115.3545038613965 15.09637044665617  114.64057035271495 14.515446492179503  C 113.92597022815357 13.934522537702836  113.39537298276875 13.095705434112714  113.04873859576806 11.99897486121726  C 112.70210420876737 10.902244288321807  112.52876748166356 9.58421764901506  112.52876748166356 8.044929147960172  C 112.52876748166356 6.512105685782759  112.68644192414294 5.1972913053128735  113.0017459011835 4.100494110791264  C 113.31771649410386 3.003763537895811  113.83067020214249 2.161709326436529  114.54060407514416 1.5743202734923825  C 115.24987139186509 0.9868645989220788  116.19208224897424 0.693128061496123  117.36730619861574 0.693128061496123  C 118.47386984501756 0.693128061496123  119.38580787811091 0.9844381534878365  120.10307440659253 1.5670283636984932  C 120.82100755095395 2.149551952282993  121.3542668197255 2.9891797183080326  121.70290102456613 4.0859102912034855  Z M 115.08254579970377 5.040265681801194  C 114.92256070030342 5.8457344901993995  114.84257790995507 6.847290051539158  114.84257790995507 8.044929147960172  C 114.84257790995507 9.25229917310048  114.92324145606858 10.258738135391543  115.08455977232883 11.064206943789749  C 115.24587808858905 11.869675752187954  115.51114619654473 12.473353673547454  115.88044513606552 12.875254949879562  C 116.24974407558632 13.27715622621167  116.74536413177424 13.47810367631243  117.36730619861574 13.47810367631243  C 117.98524862977735 13.47810367631243  118.47987805960437 13.27877197941599  118.85117681696512 12.8801365631307  C 119.22247557432586 12.481434525219253  119.490156864546 11.879347448441774  119.65414159962624 11.073878640043569  C 119.81879293568655 10.268476512861525  119.90106684935239 9.258830952784121  119.90106684935239 8.044929147960172  C 119.90106684935239 6.847290051539158  119.81978356204743 5.8457344901993995  119.65713204382708 5.040265681801194  C 119.49448052560673 4.2347968734029875  119.22816076181668 3.6286676277819474  118.85819520641604 3.2218342356690326  C 118.48889626689527 2.8150674949772774  117.99191472897654 2.611663089359456  117.36730619861574 2.611663089359456  C 116.73869809217413 2.611663089359456  116.24078689776891 2.8150674949772774  115.87348777608807 3.2218342356690326  C 115.50552203852737 3.6286676277819474  115.24186429812407 4.2347968734029875  115.08254579970377 5.040265681801194  Z M 125 0  L 127.0344358283418 0  C 127.0344358283418 0  127.0344358283418 3.6661220616883368  127.0344358283418 3.6661220616883368  C 127.0344358283418 4.089151480988023  127.02273607151062 4.5040695385330904  126.99940491056059 4.910902930646005  C 126.97674035431554 5.31766967133776  126.95408263334173 5.633354921004629  126.93141807709668 5.857966411449825  C 126.93141807709668 5.857966411449825  127.0344358283418 5.857966411449825  127.0344358283418 5.857966411449825  C 127.32374223306218 5.39254740337266  127.73034174310766 4.997962319761686  128.25429294438882 4.674175198048575  C 128.77824414567 4.350321424914305  129.45221509023963 4.188393659394588  130.2761383715212 4.188393659394588  C 131.55868563024336 4.188393659394588  132.589607177799 4.659482686290752  133.3688679699202 5.601651205682198  C 134.14879531832207 6.543819725073644  134.5387419471818 7.9342719378936755  134.5387419471818 9.773020238863438  C 134.5387419471818 10.996652972406682  134.3594004026396 12.025845722810558  134.0007671383988 12.860640620208963  C 133.64280046023828 13.695368895981213  133.1401849900506 14.325098763283329  132.49291193696925 14.749794438317004  C 131.84497226800806 15.174490113350679  131.08637525698154 15.386844967590665  130.2171228706598 15.386844967590665  C 129.3938662052581 15.386844967590665  128.73060438370882 15.236349485037476  128.2273179171078 14.93535676202593  C 127.72469806638664 14.634297387593227  127.32874664988807 14.280347741767617  127.03944024516768 13.873514349654704  C 127.03944024516768 13.873514349654704  126.87344007728457 13.873514349654704  126.87344007728457 13.873514349654704  L 126.45746318600096 15.191580437545099  L 125 15.191580437545099  L 125 0  Z M 131.53798376532689 6.985588562380153  C 131.11002361176614 6.367273786327974  130.4857625739299 6.05811255474653  129.66517231244842 6.05811255474653  C 129.01789925936706 6.05811255474653  128.50395492496753 6.187470002391228  128.1233236942869 6.446139788046454  C 127.74202587752602 6.704876225122841  127.46672940231511 7.093772846808112  127.29741182959488 7.612845355068716  C 127.12809425687463 8.13191786332932  127.04043526975556 8.788474227465635  127.0344358283418 9.582545791820552  C 127.0344358283418 9.582545791820552  127.0344358283418 9.787604058451217  127.0344358283418 9.787604058451217  C 127.0344358283418 10.99177493455587  127.22473532212685 11.91278435397188  127.60536655280748 12.550627668678807  C 127.98599778348809 13.188470983385734  128.6792836028307 13.507393355819264  129.68518997975195 13.507393355819264  C 130.48911514223317 13.507393355819264  131.1060708507746 13.183618092517248  131.53603082217532 12.536043849091028  C 131.9653241776962 11.888402924448645  132.1799527969308 10.959248087589872  132.1799527969308 9.748612172607743  C 132.1799527969308 8.524912817438343  131.96594391888763 7.603903338432331  131.53798376532689 6.985588562380153  Z M 139.04729430099277 1.1130383313425505  C 139.71589870463413 0.8526356385321752  140.45381923995876 0.7224482510857776  141.26107742224002 0.7224482510857776  C 142.08500070352156 0.7224482510857776  142.82960682694952 0.8509893752450342  143.4948782107908 1.1081262080085916  C 144.16081621051194 1.3651963893509893  144.68813169131857 1.7475690376433404  145.0767621635594 2.2552443018606576  C 145.4660592516801 2.762986247294137  145.6606921658777 3.3927409934235513  145.6606921658777 4.144489650217156  C 145.6606921658777 4.720548140334177  145.54170862161587 5.224157697655758  145.3037307754555 5.65531844136191  C 145.06641954517494 6.08654583648922  144.74580764291622 6.4632549016831655  144.34184524383565 6.785442419083446  C 143.93854946063496 7.107629936483728  143.48620260889868 7.392385500307198  142.98491593033808 7.639724738032801  C 143.54486379313911 7.913057597983131  144.06153118039884 8.22629153828596  144.5348204389998 8.579404778794272  C 145.00877631348058 8.932518019302586  145.3897462160197 9.346655924495554  145.6777193889804 9.82180586129201  C 145.96569256194113 10.296955798088467  146.10962497284396 10.855090061474002  146.10962497284396 11.496199206432747  C 146.10962497284396 12.293536660629485  145.90700598848616 12.983449126248434  145.5017103874455 13.565972714832935  C 145.09641478640484 14.148496303417435  144.53245071937548 14.59763654358518  143.80985132345432 14.913358992312984  C 143.0872519275332 15.22901478961963  142.24433870574575 15.386844967590665  141.28109508954358 15.386844967590665  C 140.2425250709025 15.386844967590665  139.35962049864023 15.234703221750332  138.63235491075847 14.93044463869197  C 137.90442270699685 14.62611940421245  137.35110670371486 14.18919723061885  136.97247529087417 13.619670460595465  C 136.59317726215366 13.05014369057208  136.40355853903355 12.366755257936052  136.40355853903355 11.569484425365474  C 136.40355853903355 10.915311780629454  136.53455171817217 10.346580835129615  136.79652731881276 9.863299573926694  C 137.05850291945333 9.380018312723772  137.40913890890405 8.963453962096562  137.84843132382508 8.613606581635066  C 138.28772373874614 8.26375920117357  138.76935290733547 7.966785540980953  139.29330410861664 7.722712163302168  C 138.84467922037572 7.459110261866134  138.43467588680508 7.1597101711367745  138.06337712944435 6.824525835175379  C 137.6920783720836 6.489274847792824  137.3974669625007 6.101188888542472  137.17948726494018 5.660230564695868  C 136.9615075673797 5.219272240849263  136.85249134599982 4.709108110666936  136.85249134599982 4.129783790298099  C 136.85249134599982 3.391031952065609  137.05114782491404 2.7686672604691536  137.44844415459494 2.262658251985825  C 137.84507389819555 1.756582562286334  138.3780232814716 1.373374372731766  139.04729430099277 1.1130383313425505  Z M 138.8933169393865 10.319791433073846  C 138.69466877454605 10.65824162908206  138.59537104982567 11.047113401735032  138.59537104982567 11.486405469847647  C 138.59537104982567 12.108052757367805  138.81600448649866 12.620612763311549  139.2572967192596 13.024113643956488  C 139.69792236594031 13.427681176022583  140.35951279046378 13.629464197180564  141.24209725598573 13.629464197180564  C 142.11068302642764 13.629464197180564  142.77295422161603 13.430943162719043  143.2289117653369 13.033907380541585  C 143.68486930905775 12.636871598364126  143.91286907469944 12.114550451568295  143.91286907469944 11.46690952692591  C 143.91286907469944 11.047079346046884  143.79784805078094 10.678510037245184  143.5678694610806 10.361254635625707  C 143.33855748726003 10.043932582585073  143.03026506067425 9.759177033659105  142.64296779039356 9.506972316676354  C 142.25567052011283 9.254700948272443  141.8260423964742 9.022823812328285  141.35408633983334 8.811342428389022  C 141.35408633983334 8.811342428389022  141.04613161662078 8.679477850442625  141.04613161662078 8.679477850442625  C 140.5388455143399 8.897557605896683  140.1029027175669 9.14084217577507  139.73826999980628 9.409309541570751  C 139.37363728204568 9.67777690736643  139.09196510422692 9.981274585644472  138.8933169393865 10.319791433073846  Z M 142.82398120875433 2.953376016939198  C 142.41668578987372 2.64418531810003  141.8893703090671 2.489592247998157  141.24209725598573 2.489592247998157  C 140.610156070145 2.489592247998157  140.09088771877154 2.6449960103299515  139.68425891577078 2.9557863134819478  C 139.27763011277003 3.2665766166339445  139.07433035774727 3.70999794438317  139.07433035774727 4.286056434500192  C 139.07433035774727 4.696089035238764  139.17362808246764 5.047587356802833  139.3722762473081 5.340515406829072  C 139.5702578111685 5.633376805434151  139.83787808681492 5.886391976286801  140.17518000049574 6.099606267381212  C 140.51181532809628 6.312753907054464  140.88510901617116 6.510439355561264  141.29507083897195 6.692661257228982  C 141.69236716865285 6.5169710905524  142.05204088409812 6.322522764812264  142.3740109007388 6.109308473717851  C 142.6966475332593 5.896160834044599  142.95392955615497 5.641524278732107  143.14591168139532 5.3453970200802114  C 143.33789380663566 5.049203110007154  143.43390976677784 4.694473282034442  143.43390976677784 4.281174821249053  C 143.43390976677784 3.7051830123481935  143.2306100117551 3.2625667157783655  142.82398120875433 2.953376016939198  Z M 148.2824573173818 11.87208342677046  C 148.02848095830146 11.087742791134838  147.9015113438794 10.166733312128827  147.9015113438794 9.109059816542871  C 147.9015113438794 8.269399454784821  147.96149843664068 7.443605448948242  148.08148726119094 6.631671601672563  C 148.20214269417116 5.819671073180722  148.4090951138413 5.058973606490104  148.70240112444202 4.34954791684782  C 148.99504054896246 3.6400555459893735  149.4000296914556 3.0143734787863394  149.91731485313665 2.47250660161917  C 150.4352666306975 1.9306397244520008  151.0871995582354 1.5051498040299243  151.8731263899567 1.1960257566119163  C 152.65905322167794 0.8868350577727486  153.60695907032908 0.7322419876708754  154.716855736531 0.7322419876708754  C 155.00349570753158 0.7322419876708754  155.32509826595077 0.7452651394278607  155.68173171235165 0.7713254037628086  C 156.0376985726722 0.7973190185387845  156.3330517674938 0.83960071961129  156.56769657895433 0.8981863281267877  C 156.56769657895433 0.8981863281267877  156.56769657895433 2.802015496071064  156.56769657895433 2.802015496071064  C 156.31705323967404 2.730433083891954  156.04039525293283 2.6759084076230018  155.73775676901218 2.6384509420750826  C 155.4351182850916 2.6010601279483225  155.13214992017902 2.582373409852621  154.82884482037858 2.582373409852621  C 153.63162296389638 2.582373409852621  152.6977080028438 2.8085621136660768  152.02710375156298 3.2609176517609657  C 151.35649950028213 3.713273189855855  150.87889392620895 4.331620561641046  150.59425377304825 5.11596119727667  C 150.30894700400776 5.900235211286137  150.14359635451402 6.795167865522234  150.09826724202395 7.800787465237574  C 150.09826724202395 7.800787465237574  150.21526074269744 7.800787465237574  150.21526074269744 7.800787465237574  C 150.4072428679378 7.478599947837293  150.65053400323492 7.18977169018994  150.9451732455953 6.934301113160371  C 151.2398124879557 6.678830536130803  151.5978147765756 6.475456640595802  152.01910889053624 6.324160476933614  C 152.4410695905772 6.172797661850269  152.93334685271344 6.097104440590004  153.49596111943467 6.097104440590004  C 154.32921684423656 6.097104440590004  155.05450803329248 6.270414731421647  155.67178390817335 6.6169962518363254  C 156.28839316717438 6.963644423672163  156.76500811488668 7.4656325965339025  157.10164344248722 8.123004449895578  C 157.438945356168 8.780376303257256  157.60757777768984 9.579313272381816  157.60757777768984 10.519815536039271  C 157.60757777768984 11.525435135754613  157.41727828390475 12.392755509548895  157.03664705322416 13.12177641906209  C 156.65534923646325 13.850730647359125  156.1147236089234 14.410511174031802  155.41478879532195 14.801081887536785  C 154.71552059760026 15.191585949620608  153.88393621022513 15.386844967590665  152.92002597814312 15.386844967590665  C 152.20742564162214 15.386844967590665  151.54682587325914 15.257462641118666  150.93821588561784 14.998726204042281  C 150.3296058979766 14.739989766965895  149.7983278819268 14.3502824232557  149.3443701560459 13.82961034047727  C 148.88974581428516 13.308871576482675  148.53576706058234 12.656357440779928  148.2824573173818 11.87208342677046  Z M 151.71713505572532 13.204763844331456  C 152.0504373635258 13.400049201083949  152.43840268006466 13.497691149482625  152.88102814458526 13.497691149482625  C 153.62029263950672 13.497691149482625  154.21589116128038 13.255217271834159  154.66784906932136 12.77026975489725  C 155.12047359324217 12.285388859586497  155.34680196185803 11.54178722916581  155.34680196185803 10.539433519292288  C 155.34680196185803 9.7225675264408  155.14746474207843 9.077363177533595  154.74883518063785 8.603812845049967  C 154.3502056191973 8.1303291639875  153.74891219528027 7.893568627092038  152.94498703279908 7.893568627092038  C 152.39770463331843 7.893568627092038  151.92009905924525 8.010732857194888  151.51213705428435 8.245075291256878  C 151.10350843344366 8.479351073897709  150.78685905152824 8.774678455905685  150.56221329946789 9.131057586255817  C 150.3375675474075 9.487436716605952  150.22526957634923 9.851122624456348  150.22526957634923 10.222098147885424  C 150.22526957634923 10.602871281249953  150.27993261488714 10.9852687785746  150.3892557716073 11.369307771985948  C 150.4979123198975 11.753280113976135  150.66289206932203 12.106369309917227  150.88420480158237 12.428556827317507  C 151.1055175338427 12.750744344717791  151.38316616184457 13.009478487578965  151.71713505572532 13.204763844331456  Z M 168.5805550516053 4.2518546316593975  C 168.83253159284573 5.036195267295022  168.95851058090688 5.953942789399576  168.95851058090688 7.005084505301889  C 168.95851058090688 7.848010756901762  168.8985234881456 8.6762865672877  168.77853466359534 9.489886670297366  C 168.65787923061512 10.303486773307034  168.4502460700796 11.065830473489788  168.1556068277192 11.776922478456068  C 167.86096758535882 12.488014483422347  167.45498781650483 13.11447670297748  166.93770265482374 13.656343580144647  C 166.41975087726289 14.198143835685661  165.76614655269915 14.622853544165633  164.97688670117785 14.93044463869197  C 164.18762684965648 15.237969081797152  163.2380496039795 15.391726580841805  162.12815293777763 15.391726580841805  C 161.8481790063771 15.391726580841805  161.52453416576265 15.377057169522052  161.15723504408183 15.347731041415912  C 160.78926930652113 15.318471562868742  160.4863009416086 15.276189861796237  160.24832309544823 15.220870117051932  C 160.24832309544823 15.220870117051932  160.24832309544823 13.30724721252256  160.24832309544823 13.30724721252256  C 160.49896643472852 13.382095492197237  160.77896721552142 13.440662352207251  161.0882717390421 13.482985289563569  C 161.39757626256284 13.525308226919886  161.70518793338346 13.546476771911198  162.0111594371041 13.546476771911198  C 163.21571388946717 13.546476771911198  164.15396236033095 13.321098760327663  164.82589978377237 12.870342826545603  C 165.4978372072138 12.419653544184701  165.97649446692088 11.801361591104634  166.2618012359614 11.015421321361176  C 166.5464413891221 10.229481051617721  166.7080783668446 9.335273250208612  166.7467414322847 8.332852799528926  C 166.7467414322847 8.332852799528926  166.62974793161115 8.332852799528926  166.62974793161115 8.332852799528926  C 166.43776580637083 8.64530935841491  166.19843717651725 8.9300954472187  165.91179720551665 9.187165628561099  C 165.6258238205963 9.444302461324657  165.27122535550157 9.649347498974098  164.847931423701 9.802309918370273  C 164.4246374919004 9.955272337766448  163.91032227233143 10.031745741173815  163.3050453044902 10.031745741173815  C 162.48512165888857 10.031745741173815  161.77053959285303 9.858410571514872  161.16126298933193 9.511762399679034  C 160.55265300169063 9.165180879264357  160.08068133008686 8.662406863204993  159.74537920444646 8.003435435325489  C 159.41074369468586 7.344397326229823  159.24341178502044 6.54786195350721  159.24341178502044 5.613824728727225  C 159.24341178502044 4.604939239170065  159.43538267583133 3.7360279909987626  159.81934692631202 3.007073762701729  C 160.20331117679268 2.278119534404695  160.74696971288867 1.7167232545276965  161.45023754629023 1.3228866809758955  C 162.15283876381196 0.9291167588452544  162.9810803571354 0.7322419876708754  163.93499152981727 0.7322419876708754  C 164.6509248861383 0.7322419876708754  165.31319605152714 0.861593804060053  165.92180603916844 1.1203302411364395  C 166.5304160268097 1.379066678212826  167.06268466922035 1.7696095929802402  167.51864221294122 2.29194793149266  C 167.97459975666206 2.8142862700050797  168.3285785103649 3.46758061764993  168.5805550516053 4.2518546316593975  Z M 165.13885892381086 2.926496633975113  C 164.80489002993008 2.7296116729097926  164.41327203384407 2.631159032281193  163.96398052972333 2.631159032281193  C 163.23804811400214 2.631159032281193  162.6480835244974 2.8736329099296594  162.19412579861648 3.3585804268665687  C 161.74016807273557 3.8434613221773217  161.51321996292825 4.585447169598686  161.51321996292825 5.584535049220392  C 161.51321996292825 6.401401042071879  161.70853364779077 7.047416083209005  162.09916393787157 7.522566020005462  C 162.48979422795236 7.997715956801917  163.08873551397815 8.235281554671781  163.89599369625944 8.235281554671781  C 164.4526085392604 8.235281554671781  164.9352283044111 8.118952895626151  165.3438569252518 7.886276717298149  C 165.75181893021266 7.653600538970148  166.06809742695864 7.359083849192093  166.29274317901903 7.002704718841959  C 166.51738893107938 6.646325588491826  166.62974793161115 6.2809934173542885  166.62974793161115 5.906752033878396  C 166.62974793161115 5.525978900513866  166.5753947562191 5.143581403189219  166.46673820792887 4.759542409777872  C 166.3574150512087 4.375570067787684  166.19212543863836 4.023291564076513  165.97081270637804 3.7027036509890605  C 165.74949997411773 3.382115737901608  165.47216123161132 3.1233815950404336  165.13885892381086 2.926496633975113  Z M 180.0144879387639 4.2518546316593975  C 180.2671310660846 5.036195267295022  180.3934809691147 5.953942789399576  180.3934809691147 7.005084505301889  C 180.3934809691147 7.848010756901762  180.3331229837341 8.6762865672877  180.21246755075393 9.489886670297366  C 180.09247872620367 10.303486773307034  179.88515542881396 11.065830473489788  179.59051618645358 11.776922478456068  C 179.2958769440932 12.488014483422347  178.8895873195432 13.11447670297748  178.37163554198236 13.656343580144647  C 177.8543503803013 14.198143835685661  177.201116940907 14.622853544165633  176.41185708938568 14.93044463869197  C 175.62259723786437 15.237969081797152  174.6730199921874 15.391726580841805  173.5631233259855 15.391726580841805  C 173.283149394585 15.391726580841805  172.9591336688011 15.377057169522052  172.59116793124042 15.347731041415912  C 172.22320219367973 15.318471562868742  171.92060471393663 15.276189861796237  171.68329348365606 15.220870117051932  C 171.68329348365606 15.220870117051932  171.68329348365606 13.30724721252256  171.68329348365606 13.30724721252256  C 171.9339368229364 13.382095492197237  172.21387657425578 13.440662352207251  172.5231810977765 13.482985289563569  C 172.83248562129722 13.525308226919886  173.14015832159134 13.546476771911198  173.446129825312 13.546476771911198  C 174.6500177213943 13.546476771911198  175.588266132659 13.321098760327663  176.26087017198023 12.870342826545603  C 176.93280759542162 12.419653544184701  177.41109396995932 11.801361591104634  177.69573412311996 11.015421321361176  C 177.98037427628066 10.229481051617721  178.14232112087396 9.335273250208612  178.18165079101902 8.332852799528926  C 178.18165079101902 8.332852799528926  178.06465729034554 8.332852799528926  178.06465729034554 8.332852799528926  C 177.8726751651052 8.64530935841491  177.63340756472513 8.9300954472187  177.34676759372448 9.187165628561099  C 177.06012762272388 9.444302461324657  176.7054680983561 9.649347498974098  176.28284078243533 9.802309918370273  C 175.85954685063476 9.955272337766448  175.34529266053926 10.031745741173815  174.74001569269808 10.031745741173815  C 173.9194254312166 10.031745741173815  173.20478233570756 9.858410571514872  172.5961723480663 9.511762399679034  C 171.98756236042502 9.165180879264357  171.51559068882125 8.662406863204993  171.18028856318082 8.003435435325489  C 170.84498643754037 7.344397326229823  170.67734467217903 6.54786195350721  170.67734467217903 5.613824728727225  C 170.67734467217903 4.604939239170065  170.8693765924634 3.7360279909987626  171.25334084294408 3.007073762701729  C 171.63730509342477 2.278119534404695  172.18090260004726 1.7167232545276965  172.88417043344882 1.3228866809758955  C 173.58743826685037 0.9291167588452544  174.41567986017384 0.7322419876708754  175.36892441697586 0.7322419876708754  C 176.08552432957765 0.7322419876708754  176.74810541026153 0.861593804060053  177.35671539790278 1.1203302411364395  C 177.96532538554408 1.379066678212826  178.4972841722588 1.7696095929802402  178.95257510009978 2.29194793149266  C 179.40853264382065 2.8142862700050797  179.7625113975235 3.46758061764993  180.0144879387639 4.2518546316593975  Z M 176.57279181096942 2.926496633975113  C 176.23948950316895 2.7296116729097926  175.84824242205195 2.631159032281193  175.39895091793116 2.631159032281193  C 174.67301850220997 2.631159032281193  174.08305391270528 2.8736329099296594  173.6290961868243 3.3585804268665687  C 173.17513846094343 3.8434613221773217  172.9481293216626 4.585447169598686  172.9481293216626 5.584535049220392  C 172.9481293216626 6.401401042071879  173.14344300652516 7.047416083209005  173.53407329660595 7.522566020005462  C 173.92403697080692 7.997715956801917  174.52266840113677 8.235281554671781  175.32992658341803 8.235281554671781  C 175.88654142641897 8.235281554671781  176.36916119156967 8.118952895626151  176.7777898124104 7.886276717298149  C 177.1864184332511 7.653600538970148  177.50306781516653 7.359083849192093  177.72771356722689 7.002704718841959  C 177.95235931928727 6.646325588491826  178.06465729034554 6.2809934173542885  178.06465729034554 5.906752033878396  C 178.06465729034554 5.525978900513866  178.0099942518076 5.143581403189219  177.90067109508746 4.759542409777872  C 177.79201454679722 4.375570067787684  177.62703479737274 4.023291564076513  177.4057220651124 3.7027036509890605  C 177.18440933285208 3.382115737901608  176.90676070485017 3.1233815950404336  176.57279181096942 2.926496633975113  Z M 189 0.9177738012969837  L 189 15.191580437545099  L 186.6278858036488 15.191580437545099  C 186.6278858036488 15.191580437545099  186.6278858036488 6.004323278735541  186.6278858036488 6.004323278735541  C 186.6278858036488 5.6984650913643495  186.63054782796678 5.392596356562185  186.63588066467554 5.086671517769835  C 186.64054689667927 4.780746678977485  186.64853296963318 4.481321709420827  186.6598652477557 4.188393659394588  C 186.67119752587826 3.8955322607895093  186.68487854288105 3.617300715051463  186.7008770539386 3.3536988136154293  C 186.56422310803842 3.500129512917969  186.39757196903793 3.6612217073804656  186.20092360713767 3.8369785254782074  C 186.00427524523738 4.01266869215479  185.79360916124594 4.1949294465061  185.56896340918553 4.3837497196886135  C 185.56896340918553 4.3837497196886135  183.93312940185493 5.696812153996592  183.93312940185493 5.696812153996592  L 182.7812591192718 4.237270812071619  L 187.01383619397708 0.9177738012969837  L 189 0.9177738012969837  Z M 200.44556889571436 15.218459820509182  C 199.97627927279328 15.33069891431062  199.39999568539164 15.386844967590665  198.7167259707904 15.386844967590665  C 197.69482117034784 15.386844967590665  196.8096253704696 15.189159504186364  196.06102843202785 14.793789977742895  C 195.3124314935861 14.398353799878265  194.73614790618444 13.790547780887263  194.3321855071039 12.970415898193956  C 193.92888972390318 12.15035069671681  193.7272003364328 11.108939849943784  193.7272003364328 9.846183417464886  C 193.7272003364328 8.531439710741532  193.94851451397116 7.457508333543091  194.3911399784918 6.624379691878674  C 194.83376544301242 5.791251050214257  195.44638773114133 5.176165665125526  196.22898154306256 4.779129882948067  C 197.0122419708636 4.382094100770608  197.91148962821475 4.183573066309089  198.92672838905725 4.183573066309089  C 199.5713350382184 4.183573066309089  200.15560469578023 4.247023312372907  200.6795558970614 4.373925473020696  C 201.20350709834256 4.500827633668487  201.6478068802447 4.655420688872859  202.0124395980053 4.837709241961737  C 202.0124395980053 4.837709241961737  201.32848228864276 6.668283701056107  201.32848228864276 6.668283701056107  C 200.93185254504215 6.508856198089954  200.5259338056616 6.372974739808583  200.11063914522077 6.260668994585986  C 199.69601110065977 6.1483632493633875  199.2950454930837 6.0922228273388646  198.90774822280298 6.0922228273388646  C 198.27580703696225 6.0922228273388646  197.7508437536459 6.232982047867269  197.3328826594853 6.514512883645223  C 196.91425497924445 6.796043719423176  196.60162913224613 7.213418732485306  196.39498171094567 7.7666161724796  C 196.18833428964524 8.319880234100053  196.08501301510802 9.006555591849843  196.08501301510802 9.82668747454315  C 196.08501301510802 10.620759038898067  196.19000568667107 11.289533499403529  196.39998612777157 11.833000010678528  C 196.60996656887204 12.376533143579687  196.91924962181872 12.786598340051272  197.3278782426594 13.06319706004842  C 197.73650686350015 13.339795780045566  198.24178435707455 13.47810367631243  198.8437283051157 13.47810367631243  C 199.43633980963654 13.47810367631243  199.9669980546953 13.406508027703346  200.4356210915361 13.263343203345126  C 200.90424412837686 13.120111727565746  201.34520111622734 12.932998112140954  201.75849595882823 12.70198818954694  C 201.75849595882823 12.70198818954694  201.75849595882823 14.698506989097222  201.75849595882823 14.698506989097222  C 201.35186715582748 14.932849423159212  200.91419193255516 15.106154075286584  200.44556889571436 15.218459820509182  Z M 203.95024744014685 11.87208342677046  C 203.69693769694632 11.087742791134838  203.57027793822024 10.166733312128827  203.57027793822024 9.109059816542871  C 203.57027793822024 8.269399454784821  203.630326060455 7.443605448948242  203.75031488500528 6.631671601672563  C 203.87097031798547 5.819671073180722  204.07761285216012 5.058973606490104  204.37025227668056 4.34954791684782  C 204.6635582872813 3.6400555459893735  205.0688573152699 3.0143734787863394  205.58614247695098 2.47250660161917  C 206.1040942545118 1.9306397244520008  206.7560271820497 1.5051498040299243  207.541954013771 1.1960257566119163  C 208.32788084549227 0.8868350577727486  209.27578669414342 0.7322419876708754  210.38568336034533 0.7322419876708754  C 210.67232333134592 0.7322419876708754  210.9936160042696 0.7452651394278607  211.34958286459016 0.7713254037628086  C 211.706216310991 0.7973190185387845  212.0018793913081 0.83960071961129  212.23652420276866 0.8981863281267877  C 212.23652420276866 0.8981863281267877  212.23652420276866 2.802015496071064  212.23652420276866 2.802015496071064  C 211.98588086348838 2.730433083891954  211.70922287674713 2.6759084076230018  211.40658439282652 2.6384509420750826  C 211.10327929302608 2.6010601279483225  210.80031092811353 2.582373409852621  210.49767244419292 2.582373409852621  C 209.29978403142997 2.582373409852621  208.36586901077828 2.8085621136660768  207.6959313753773 3.2609176517609657  C 207.02532712409644 3.713273189855855  206.5473506648538 4.331620561641046  206.26204389581332 5.11596119727667  C 205.97740374265263 5.900235211286137  205.81242397832833 6.795167865522234  205.76709486583826 7.800787465237574  C 205.76709486583826 7.800787465237574  205.88408836651178 7.800787465237574  205.88408836651178 7.800787465237574  C 206.07607049175212 7.478599947837293  206.31936162704923 7.18977169018994  206.61400086940964 6.934301113160371  C 206.90864011177004 6.678830536130803  207.26664240038994 6.475456640595802  207.68793651435058 6.324160476933614  C 208.10989721439148 6.172797661850269  208.60217447652778 6.097104440590004  209.164788743249 6.097104440590004  C 209.99804446805086 6.097104440590004  210.72327462763332 6.270414731421647  211.34055050251416 6.6169962518363254  C 211.95715976151521 6.963644423672163  212.43383573870102 7.4656325965339025  212.77047106630152 8.123004449895578  C 213.10777297998234 8.780376303257256  213.27640540150418 9.579313272381816  213.27640540150418 10.519815536039271  C 213.27640540150418 11.525435135754613  213.0857349927501 12.392755509548895  212.70443717598923 13.12177641906209  C 212.3238059453086 13.850730647359125  211.78355123273775 14.410511174031802  211.08361641913626 14.801081887536785  C 210.38368160553478 15.191585949620608  209.55209721815964 15.386844967590665  208.58885360195745 15.386844967590665  C 207.87625326543647 15.386844967590665  207.21565349707345 15.257462641118666  206.60704350943217 14.998726204042281  C 205.99843352179093 14.739989766965895  205.46678462057173 14.3502824232557  205.01216027881097 13.82961034047727  C 204.55820255293006 13.308871576482675  204.2042237992272 12.656357440779928  203.95024744014685 11.87208342677046  Z M 207.38596267953966 13.204763844331456  C 207.71926498734013 13.400049201083949  208.10723030387896 13.497691149482625  208.5498557683996 13.497691149482625  C 209.2884536474412 13.497691149482625  209.8840521692149 13.255217271834159  210.3366766931357 12.77026975489725  C 210.7893012170565 12.285388859586497  211.01562958567237 11.54178722916581  211.01562958567237 10.539433519292288  C 211.01562958567237 9.7225675264408  210.81629236589276 9.077363177533595  210.4176628044522 8.603812845049967  C 210.01903324301165 8.1303291639875  209.4177398190946 7.893568627092038  208.6138146566134 7.893568627092038  C 208.06653225713276 7.893568627092038  207.5886168273636 8.010732857194888  207.17998820652292 8.245075291256878  C 206.77202620156203 8.479351073897709  206.45568667534258 8.774678455905685  206.23104092328222 9.131057586255817  C 206.0063951712218 9.487436716605952  205.89409720016354 9.851122624456348  205.89409720016354 10.222098147885424  C 205.89409720016354 10.602871281249953  205.94838934608214 10.9852687785746  206.05704589437235 11.369307771985948  C 206.16636905109252 11.753280113976135  206.33171969313636 12.106369309917227  206.55303242539668 12.428556827317507  C 206.77434515765702 12.750744344717791  207.0519937856589 13.009478487578965  207.38596267953966 13.204763844331456  Z M 224.64735587202475 13.180386288158578  L 224.64735587202475 15.191580437545099  L 214.98022624229867 15.191580437545099  L 214.98022624229867 13.46351985672465  C 214.98022624229867 13.46351985672465  218.68087042609613 9.714440879849768  218.68087042609613 9.714440879849768  C 219.39680378241715 8.985419970336572  219.98577771576146 8.356500795264378  220.44773471300215 7.827697358284479  C 220.9103582963231 7.2988272996784245  221.2546795977397 6.7959978947089414  221.48065855176017 6.319248353599656  C 221.7073041216605 5.84249881249037  221.82059271907966 5.324250314825917  221.82059271907966 4.76445453311183  C 221.82059271907966 4.077756590749953  221.62193624016544 3.557051137568438  221.22463991048454 3.2023382927472954  C 220.82734358080367 2.847625447926153  220.30176049669677 2.670242448373126  219.6478214040153 2.670242448373126  C 219.0292123569739 2.670242448373126  218.45794293085018 2.792290064529779  217.93399172956904 3.0363634422085637  C 217.41004052828788 3.280436819887349  216.8680533892177 3.6270268765703157  216.3081055264167 4.0761165546183875  C 216.3081055264167 4.0761165546183875  215.05321749258846 2.5579958536797447  215.05321749258846 2.5579958536797447  C 215.4471808024693 2.222811517718349  215.87049425297357 1.9152411605139272  216.32311877689435 1.6353099290488025  C 216.77507668493533 1.3554453490048375  217.28103494917465 1.131713600708444  217.8409828119757 0.9640881070171665  C 218.4009306747767 0.7965292647470485  219.03887271471604 0.7127460447491385  219.75480607103705 0.7127460447491385  C 220.6627215227989 0.7127460447491385  221.44465700311451 0.8738382392116348  222.10059594343548 1.1960257566119163  C 222.75653488375642 1.5182132740121979  223.26280300369172 1.9664874628349054  223.61943645009256 2.540879697217938  C 223.97606989649344 3.115271931600971  224.15435978520125 3.7816199466721887  224.15435978520125 4.539900323559428  C 224.15435978520125 5.3111775190077815  224.00138964830387 6.021478347470943  223.69541814458321 6.670785527847315  C 223.38944664086253 7.3200260270075255  222.95251321772867 7.962748571365372  222.38456608356788 8.598992251964468  C 221.8159523931264 9.235235932563564  221.14136167756567 9.92434339679812  220.36076771328396 10.666294443656268  C 220.36076771328396 10.666294443656268  217.88998947918532 13.077811389719018  217.88998947918532 13.077811389719018  L 217.88998947918532 13.180386288158578  L 224.64735587202475 13.180386288158578  Z M 233 0.9177738012969837  L 233 15.191580437545099  L 230.86278054030456 15.191580437545099  C 230.86278054030456 15.191580437545099  230.86278054030456 6.004323278735541  230.86278054030456 6.004323278735541  C 230.86278054030456 5.6984650913643495  230.86507166827823 5.392596356562185  230.86973790028202 5.086671517769835  C 230.87440413228578 4.780746678977485  230.88245123471316 4.481321709420827  230.89378351283565 4.188393659394588  C 230.9051157909582 3.8955322607895093  230.9191066748318 3.617300715051463  230.93577179059432 3.3536988136154293  C 230.79911784469414 3.500129512917969  230.63209580562446 3.6612217073804656  230.43478084274412 3.8369785254782074  C 230.23813248084386 4.01266869215479  230.0275274263259 4.1949294465061  229.80288167426548 4.3837497196886135  C 229.80288167426548 4.3837497196886135  228.16698663746138 5.696812153996592  228.16698663746138 5.696812153996592  L 227.01511635487827 4.237270812071619  L 231.24775445905703 0.9177738012969837  L 233 0.9177738012969837  Z M 240.4538674460665 1.1130383313425505  C 241.12247184970786 0.8526356385321752  241.86039238503247 0.7224482510857776  242.66765056731373 0.7224482510857776  C 243.49157384859527 0.7224482510857776  244.23617997202322 0.8509893752450342  244.9014513558645 1.1081262080085916  C 245.56738935558565 1.3651963893509893  246.09470483639228 1.7475690376433404  246.48333530863314 2.2552443018606576  C 246.87263239675377 2.762986247294137  247.0672653109514 3.3927409934235513  247.0672653109514 4.144489650217156  C 247.0672653109514 4.720548140334177  246.94828176668955 5.224157697655758  246.71030392052919 5.65531844136191  C 246.47299269024867 6.08654583648922  246.15231975851643 6.4632549016831655  245.74835735943591 6.785442419083446  C 245.34506157623517 7.107629936483728  244.89277575397242 7.392385500307198  244.3914890754118 7.639724738032801  C 244.95143693821282 7.913057597983131  245.46804329599908 8.22629153828596  245.94133255460002 8.579404778794272  C 246.41528842908082 8.932518019302586  246.7962583316199 9.346655924495554  247.08423150458066 9.82180586129201  C 247.37220467754136 10.296955798088467  247.5161981179177 10.855090061474002  247.5161981179177 11.496199206432747  C 247.5161981179177 12.293536660629485  247.31357913355987 12.983449126248434  246.90828353251925 13.565972714832935  C 246.50298793147857 14.148496303417435  245.9390238644492 14.59763654358518  245.21642446852806 14.913358992312984  C 244.49382507260694 15.22901478961963  243.65091185081945 15.386844967590665  242.68766823461732 15.386844967590665  C 241.6490982159762 15.386844967590665  240.76619364371393 15.234703221750332  240.03892805583217 14.93044463869197  C 239.31099585207056 14.62611940421245  238.7576798487886 14.18919723061885  238.3790484359479 13.619670460595465  C 237.9997504072274 13.05014369057208  237.81013168410726 12.366755257936052  237.81013168410726 11.569484425365474  C 237.81013168410726 10.915311780629454  237.9411248632459 10.346580835129615  238.20310046388647 9.863299573926694  C 238.46507606452707 9.380018312723772  238.8157120539778 8.963453962096562  239.25500446889882 8.613606581635066  C 239.69429688381985 8.26375920117357  240.1758650229357 7.966785540980953  240.69981622421685 7.722712163302168  C 240.25119133597596 7.459110261866134  239.84124903187882 7.1597101711367745  239.46995027451808 6.824525835175379  C 239.09865151715735 6.489274847792824  238.8040401075744 6.101188888542472  238.5860604100139 5.660230564695868  C 238.36808071245343 5.219272240849263  238.25906449107356 4.709108110666936  238.25906449107356 4.129783790298099  C 238.25906449107356 3.391031952065609  238.45772096998778 2.7686672604691536  238.85501729966867 2.262658251985825  C 239.25164704326926 1.756582562286334  239.7845964265453 1.373374372731766  240.4538674460665 1.1130383313425505  Z M 240.29989008446023 10.319791433073846  C 240.10124191961978 10.65824162908206  240.0018831654259 11.047113401735032  240.0018831654259 11.486405469847647  C 240.0018831654259 12.108052757367805  240.22257763157236 12.620612763311549  240.66386986433335 13.024113643956488  C 241.10449551101405 13.427681176022583  241.76608593553752 13.629464197180564  242.64867040105943 13.629464197180564  C 243.51725617150134 13.629464197180564  244.17952736668977 13.430943162719043  244.63548491041058 13.033907380541585  C 245.09144245413145 12.636871598364126  245.31944221977318 12.114550451568295  245.31944221977318 11.46690952692591  C 245.31944221977318 11.047079346046884  245.20442119585468 10.678510037245184  244.97444260615433 10.361254635625707  C 244.74513063233377 10.043932582585073  244.436838205748 9.759177033659105  244.04954093546726 9.506972316676354  C 243.66224366518654 9.254700948272443  243.23261554154791 9.022823812328285  242.76065948490708 8.811342428389022  C 242.76065948490708 8.811342428389022  242.4527047616945 8.679477850442625  242.4527047616945 8.679477850442625  C 241.9454186594136 8.897557605896683  241.50941483316717 9.14084217577507  241.1447821154065 9.409309541570751  C 240.7801493976459 9.67777690736643  240.49853824930065 9.981274585644472  240.29989008446023 10.319791433073846  Z M 244.23049332435457 2.953376016939198  C 243.823197905474 2.64418531810003  243.29594345414083 2.489592247998157  242.64867040105943 2.489592247998157  C 242.0167292152187 2.489592247998157  241.49746086384528 2.6449960103299515  241.0908320608445 2.9557863134819478  C 240.68420325784373 3.2665766166339445  240.48084247334754 3.70999794438317  240.48084247334754 4.286056434500192  C 240.48084247334754 4.696089035238764  240.58020122754138 5.047587356802833  240.77884939238183 5.340515406829072  C 240.9768309562422 5.633376805434151  241.24445123188863 5.886391976286801  241.58175314556945 6.099606267381212  C 241.91838847316998 6.312753907054464  242.29168216124486 6.510439355561264  242.7016439840457 6.692661257228982  C 243.09894031372656 6.5169710905524  243.45861402917186 6.322522764812264  243.7805840458125 6.109308473717851  C 244.103220678333 5.896160834044599  244.3605027012287 5.641524278732107  244.55248482646903 5.3453970200802114  C 244.74446695170937 5.049203110007154  244.84048291185158 4.694473282034442  244.84048291185158 4.281174821249053  C 244.84048291185158 3.7051830123481935  244.63712212735533 3.2625667157783655  244.23049332435457 2.953376016939198  Z M 250 0  L 252.32477136338804 0  C 252.32477136338804 0  252.32477136338804 3.6661220616883368  252.32477136338804 3.6661220616883368  C 252.32477136338804 4.089151480988023  252.31344250290113 4.5040695385330904  252.29077794665605 4.910902930646005  C 252.26811339041103 5.31766967133776  252.24545566943723 5.633354921004629  252.2227911131922 5.857966411449825  C 252.2227911131922 5.857966411449825  252.32477136338804 5.857966411449825  252.32477136338804 5.857966411449825  C 252.6147443541887 5.39254740337266  253.02171477920317 4.997962319761686  253.5456659804843 4.674175198048575  C 254.06961718176547 4.350321424914305  254.74352709686167 4.188393659394588  255.5674503781432 4.188393659394588  C 256.84933096138644 4.188393659394588  257.8802526281403 4.659482686290752  258.6601799765422 5.601651205682198  C 259.43944076866336 6.543819725073644  259.82907748222806 7.9342719378936755  259.82907748222806 9.773020238863438  C 259.82907748222806 10.996652972406682  259.6501068526548 12.025845722810558  259.2921401744943 12.860640620208963  C 258.9341734963338 13.695368895981213  258.43118714097665 14.325098763283329  257.7832474720155 14.749794438317004  C 257.1359744189341 15.174490113350679  256.37774829307705 15.386844967590665  255.5084959067553 15.386844967590665  C 254.6852392413536 15.386844967590665  254.0219163903308 15.236349485037476  253.51862992372983 14.93535676202593  C 253.01601007300866 14.634297387593227  252.6197487710146 14.280347741767617  252.32977578021394 13.873514349654704  C 252.32977578021394 13.873514349654704  252.16377561233077 13.873514349654704  252.16377561233077 13.873514349654704  L 251.74883622209646 15.191580437545099  L 250 15.191580437545099  L 250 0  Z M 256.82935680142236 6.985588562380153  C 256.40139664786165 6.367273786327974  255.7771356100254 6.05811255474653  254.95654534854393 6.05811255474653  C 254.30927229546253 6.05811255474653  253.79495704609405 6.187470002391228  253.41365922933312 6.446139788046454  C 253.03302799865253 6.704876225122841  252.75804140893715 7.093772846808112  252.5887238362169 7.612845355068716  C 252.41940626349665 8.13191786332932  252.33143740950678 8.788474227465635  252.32477136338804 9.582545791820552  C 252.32477136338804 9.582545791820552  252.32477136338804 9.787604058451217  252.32477136338804 9.787604058451217  C 252.32477136338804 10.99177493455587  252.51544177214208 11.91278435397188  252.89673958890296 12.550627668678807  C 253.27737081958358 13.188470983385734  253.97059560945272 13.507393355819264  254.97650198637396 13.507393355819264  C 255.78042714885518 13.507393355819264  256.3970730017007 13.183618092517248  256.82636635722156 12.536043849091028  C 257.25632632862227 11.888402924448645  257.4712648035528 10.959248087589872  257.4712648035528 9.748612172607743  C 257.4712648035528 8.524912817438343  257.25731695498314 7.603903338432331  256.82935680142236 6.985588562380153  Z M 269.6671506671896 1.6548974022189982  C 270.4617433265514 2.28294310699047  270.85905628437985 3.1242172256876595  270.85905628437985 4.178691453057949  C 270.85905628437985 4.826332377700333  270.72874387590616 5.387703719160028  270.46810147722573 5.862787004535324  C 270.20745907854524 6.33793694133178  269.85013753079073 6.726022900582133  269.3961798049098 7.027082275014836  C 268.9422220790289 7.328141649447538  268.4206015599647 7.5437585201789865  267.8313230752439 7.6739265408735955  C 267.8313230752439 7.6739265408735955  267.8313230752439 7.742208106223904  267.8313230752439 7.742208106223904  C 268.9705503633656 7.8854395820032845  269.8314779480695 8.243406532742659  270.4140903931902 8.816132511391702  C 270.99670283831085 9.388925111666902  271.2879714240426 10.147226643006098  271.2879714240426 11.090994796505376  C 271.2879714240426 11.920924229544134  271.08968586009735 12.659672969096336  270.69305611649673 13.30724721252256  C 270.29575978681584 13.954888137164943  269.68617040724314 14.463405944470125  268.86424691400197 14.83278186358637  C 268.04232342076085 15.202157782702614  266.9867018625862 15.386844967590665  265.69748856426395 15.386844967590665  C 264.92622704350254 15.386844967590665  264.2103444656106 15.325010467282418  263.54973933332906 15.201374174130196  C 262.88913420104745 15.077671229556815  262.26252099552045 14.880771601901388  261.6699094909996 14.610637950576717  C 261.6699094909996 14.610637950576717  261.6699094909996 12.565211488266586  261.6699094909996 12.565211488266586  C 262.2718534390408 12.867870467012118  262.9147486405841 13.100583188910997  263.59868497106515 13.263343203345126  C 264.2819546856664 13.426036566358095  264.9312256196171 13.507393355819264  265.5465016468585 13.507393355819264  C 266.7377240200213 13.507393355819264  267.58633223335073 13.28449717858009  268.0922851038719 12.838673360578838  C 268.59890459027304 12.392782891156424  268.85222410772514 11.776051272575554  268.85222410772514 10.988511428314272  C 268.85222410772514 10.480836164096953  268.7212309285865 10.063461121239822  268.4592553279459 9.736408139479895  C 268.1972797273054 9.409288506298806  267.7909901027554 9.165198890343522  267.24037468347467 9.00410513164338  C 266.69042588007386 8.84301137294324  265.9807969756423 8.76246527571199  265.1115445893206 8.76246527571199  C 265.1115445893206 8.76246527571199  263.8576940565416 8.76246527571199  263.8576940565416 8.76246527571199  L 263.8576940565416 6.912425383778704  C 263.8576940565416 6.912425383778704  265.12655783979824 6.912425383778704  265.12655783979824 6.912425383778704  C 265.953147525 6.912425383778704  266.6164093465493 6.813947864322806  267.1163627933502 6.6169962518363254  C 267.6156496242714 6.420111290771004  267.9776144630342 6.14592191387652  268.2022602150945 5.794474929102194  C 268.4269059671549 5.442961292906711  268.5392649676867 5.032896096435126  268.5392649676867 4.5642778797323045  C 268.5392649676867 3.9492289935219467  268.34060848877243 3.47167135234798  267.94331215909153 3.1315549006057775  C 267.5466824154909 2.791505100284735  266.9593798493729 2.6214568259445543  266.1814522890114 2.6214568259445543  C 265.69949717297044 2.6214568259445543  265.2608923230112 2.6759566233862078  264.86559581117024 2.784929849692077  C 264.47029929932927 2.893969727419106  264.1066630486409 3.0339487658004094  263.77469397260006 3.2048401195385043  C 263.44272489655924 3.37566482185544  263.1284276376353 3.55870574345635  262.8317886072345 3.7539911002088417  C 262.8317886072345 3.7539911002088417  261.72385954556165 2.1576730570035134  261.72385954556165 2.1576730570035134  C 262.2638092895623 1.7541055249374162  262.9091176584704 1.4123988543082524  263.6597144445516 1.1325342742642874  C 264.409644614753 0.8526696942203225  265.28258189393284 0.7127460447491385  266.27848915185484 0.7127460447491385  C 267.7436860624975 0.7127460447491385  268.87322456410857 1.026785016231364  269.6671506671896 1.6548974022189982  Z M 273.57279285242805 11.87208342677046  C 273.3194831092275 11.087742791134838  273.19282335050144 10.166733312128827  273.19282335050144 9.109059816542871  C 273.19282335050144 8.269399454784821  273.25281044326266 7.443605448948242  273.3727992678129 6.631671601672563  C 273.49345470079317 5.819671073180722  273.7000972349678 5.058973606490104  273.99273665948823 4.34954791684782  C 274.286042670089 3.6400555459893735  274.6913416980776 3.0143734787863394  275.2086268597586 2.47250660161917  C 275.7259120214397 1.9306397244520008  276.37784494897755 1.5051498040299243  277.1644383965787 1.1960257566119163  C 277.9503652283 0.8868350577727486  278.8982710769511 0.7322419876708754  280.00816774315297 0.7322419876708754  C 280.2948077141536 0.7322419876708754  280.6161003870773 0.7452651394278607  280.9720672473979 0.7713254037628086  C 281.32870069379874 0.7973190185387845  281.6243637741158 0.83960071961129  281.85900858557636 0.8981863281267877  C 281.85900858557636 0.8981863281267877  281.85900858557636 2.802015496071064  281.85900858557636 2.802015496071064  C 281.60836524629605 2.730433083891954  281.3313974038589 2.6759084076230018  281.0280923040584 2.6384509420750826  C 280.72545382013783 2.6010601279483225  280.42279531092123 2.582373409852621  280.1201568270006 2.582373409852621  C 278.92226841423764 2.582373409852621  277.98804353789006 2.8085621136660768  277.3174392866092 3.2609176517609657  C 276.6475016512082 3.713273189855855  276.169896077135 4.331620561641046  275.88458930809446 5.11596119727667  C 275.5999491549338 5.900235211286137  275.4349693906095 6.795167865522234  275.38964027811943 7.800787465237574  C 275.38964027811943 7.800787465237574  275.50663377879295 7.800787465237574  275.50663377879295 7.800787465237574  C 275.6986159040333 7.478599947837293  275.94190703933043 7.18977169018994  276.2365462816908 6.934301113160371  C 276.5311855240512 6.678830536130803  276.8891267831976 6.475456640595802  277.3104208971582 6.324160476933614  C 277.7317150111189 6.172797661850269  278.22399224345565 6.097104440590004  278.7872731260567 6.097104440590004  C 279.6205288508586 6.097104440590004  280.3458200399145 6.270414731421647  280.96309591479536 6.6169962518363254  C 281.57970517379636 6.963644423672163  282.0563201215087 7.4656325965339025  282.39295544910925 8.123004449895578  C 282.73025736279004 8.780376303257256  282.89888978431185 9.579313272381816  282.89888978431185 10.519815536039271  C 282.89888978431185 11.525435135754613  282.7082804050313 12.392755509548895  282.32698258827037 13.12177641906209  C 281.9463513575898 13.850730647359125  281.4060356155454 14.410511174031802  280.70610080194393 14.801081887536785  C 280.00616598834245 15.191585949620608  279.1745816009673 15.386844967590665  278.2113379847651 15.386844967590665  C 277.4987376482441 15.386844967590665  276.8381378798811 15.257462641118666  276.22952789223984 14.998726204042281  C 275.62091790459857 14.739989766965895  275.0893300328529 14.3502824232557  274.6347056910921 13.82961034047727  C 274.1807479652112 13.308871576482675  273.8267692115084 12.656357440779928  273.57279285242805 11.87208342677046  Z M 277.00747059077156 13.204763844331456  C 277.3414394846523 13.400049201083949  277.72971468668663 13.497691149482625  278.17234015120727 13.497691149482625  C 278.9109380302489 13.497691149482625  279.50653655202257 13.255217271834159  279.95916107594337 12.77026975489725  C 280.4117855998642 12.285388859586497  280.63811396848 11.54178722916581  280.63811396848 10.539433519292288  C 280.63811396848 9.7225675264408  280.43883777817393 9.077363177533595  280.04020821673333 8.603812845049967  C 279.6415786552928 8.1303291639875  279.03991428660726 7.893568627092038  278.2353225678453 7.893568627092038  C 277.6887067842445 7.893568627092038  277.2111012101713 8.010732857194888  276.8024725893306 8.245075291256878  C 276.3945105843697 8.479351073897709  276.07823208762375 8.774678455905685  275.85358633556336 9.131057586255817  C 275.628940583503 9.487436716605952  275.51658158297124 9.851122624456348  275.51658158297124 10.222098147885424  C 275.51658158297124 10.602871281249953  275.5709347583633 10.9852687785746  275.67959130665355 11.369307771985948  C 275.7889144633737 11.753280113976135  275.954204075944 12.106369309917227  276.17551680820435 12.428556827317507  C 276.3968295404647 12.750744344717791  276.67416828297104 13.009478487578965  277.00747059077156 13.204763844331456  Z M 291.43312929770906 15.218459820509182  C 290.9645062608683 15.33069891431062  290.38822270326614 15.386844967590665  289.70428637278513 15.386844967590665  C 288.6823815723425 15.386844967590665  287.7971247429908 15.189159504186364  287.04852780454905 14.793789977742895  C 286.2999308661073 14.398353799878265  285.72364727870564 13.790547780887263  285.3196848796251 12.970415898193956  C 284.9163890964244 12.15035069671681  284.71476073842746 11.108939849943784  284.71476073842746 9.846183417464886  C 284.71476073842746 8.531439710741532  284.93607491596583 7.457508333543091  285.37870038048646 6.624379691878674  C 285.8213258450071 5.791251050214257  286.43394813313597 5.176165665125526  287.2165419450572 4.779129882948067  C 287.99980237285826 4.382094100770608  288.8990500302095 4.183573066309089  289.91428879105194 4.183573066309089  C 290.55889544021306 4.183573066309089  291.14316509777495 4.247023312372907  291.6671162990561 4.373925473020696  C 292.1910675003372 4.500827633668487  292.6353672822394 4.655420688872859  293 4.837709241961737  C 293 4.837709241961737  292.3160426906374 6.668283701056107  292.3160426906374 6.668283701056107  C 291.91941294703685 6.508856198089954  291.51343317818277 6.372974739808583  291.098138517742 6.260668994585986  C 290.68351047318095 6.1483632493633875  290.2825448656049 6.0922228273388646  289.8952475953242 6.0922228273388646  C 289.26330640948345 6.0922228273388646  288.73834312616714 6.232982047867269  288.32038203200653 6.514512883645223  C 287.90175435176565 6.796043719423176  287.5891285047673 7.213418732485306  287.38248108346687 7.7666161724796  C 287.17583366216644 8.319880234100053  287.0725123876292 9.006555591849843  287.0725123876292 9.82668747454315  C 287.0725123876292 10.620759038898067  287.17750505919224 11.289533499403529  287.38748550029277 11.833000010678528  C 287.59746594139324 12.376533143579687  287.9068100238134 12.786598340051272  288.31543864465414 13.06319706004842  C 288.72406726549485 13.339795780045566  289.22934475906925 13.47810367631243  289.8312887071104 13.47810367631243  C 290.42390021163123 13.47810367631243  290.9544974272165 13.406508027703346  291.42312046405726 13.263343203345126  C 291.8917435008981 13.120111727565746  292.3327004887485 12.932998112140954  292.74599533134943 12.70198818954694  C 292.74599533134943 12.70198818954694  292.74599533134943 14.698506989097222  292.74599533134943 14.698506989097222  C 292.33936652834865 14.932849423159212  291.9017523345498 15.106154075286584  291.43312929770906 15.218459820509182  Z " fill-rule="nonzero" fill="#55565d" stroke="none" transform="matrix(1 0 0 1 443 529 )" />
  </g>
</svg>