<?xml version="1.0" encoding="utf-8"?>
<svg version="1.1" xmlns:xlink="http://www.w3.org/1999/xlink" width="13px" height="34px" xmlns="http://www.w3.org/2000/svg">
  <g transform="matrix(1 0 0 1 -469 -389 )">
    <path d="M 13 0  L 13 34  L 9.056157693123604 34  C 9.056157693123604 34  9.056157693123604 9.906976744186046  9.056157693123604 9.906976744186046  C 9.056157693123604 8.992249718008116  9.060228095403307 8.205430496570676  9.068329948087477 7.546511627906977  C 9.07643180077165 6.887599383213723  9.092675860692902 6.282944908437803  9.117050666523618 5.732558139534883  C 9.141356224576128 5.1821713706319645  9.177883048117701 4.620156694752302  9.226632659779133 4.046511627906977  C 8.723486816152652 4.542635658914729  8.252811896507792 4.965118763058684  7.814619385388905 5.313953488372094  C 7.3764268742700185 5.662794837655947  6.832724151636256 6.093028223791788  6.183537220229547 6.604651162790698  C 6.183537220229547 6.604651162790698  2.1179723637143906 9.720930232558139  2.1179723637143906 9.720930232558139  L 0 7.093023255813953  L 9.640425931389641 0  L 13 0  Z " fill-rule="nonzero" fill="#3d3d3d" stroke="none" transform="matrix(1 0 0 1 469 389 )" />
  </g>
</svg>