<?xml version="1.0" encoding="utf-8"?>
<svg version="1.1" xmlns:xlink="http://www.w3.org/1999/xlink" width="127px" height="24px" xmlns="http://www.w3.org/2000/svg">
  <g transform="matrix(1 0 0 1 -442 -605 )">
    <path d="M 16 11.084825304574759  L 16 0  L 18 0  L 18 11.084825304574759  L 16 11.084825304574759  Z M 7.9767488487142675 2.4175021958745404  C 7.9767488487142675 2.4175021958745404  7.9767488487142675 0.9058495060231508  7.9767488487142675 0.9058495060231508  C 7.9767488487142675 0.9058495060231508  11.077944718139447 0.9058495060231508  11.077944718139447 0.9058495060231508  C 11.077944718139447 2.81813994080631  10.693568628991189 4.485812878582692  9.924807527473291 5.908889558268512  C 9.156046425955395 7.3319728825314705  8.021138781680742 8.512079861014431  6.520098395898396 9.44918100840634  C 5.01903814107645 10.386043247654147  3.1660350893328655 11.101222163176892  0.9610999485332948 11.594642825502014  C 0.9610999485332948 11.594642825502014  0 9.301375237622736  0 9.301375237622736  C 1.862851789641654 8.914435496106279  3.3804854409675573 8.383055877413247  4.552942595677468 7.7072234780121445  C 5.7253930877154176 7.031138940639247  6.589085367054618 6.242744675478853  7.143998612845188 5.341966642957128  C 7.6991646832414355 4.441188610435403  7.9767488487142675 3.4663330350656483  7.9767488487142675 2.4175021958745404  Z M 1.2309571991751898 3.175242179016299  L 1.2309571991751898 0.9058495060231508  L 9.18605046039438 0.9058495060231508  L 9.18605046039438 3.175242179016299  L 1.2309571991751898 3.175242179016299  Z M 10.238798317187433 5.036635034260705  L 10.238798317187433 2.86353177626633  L 15.591200632373756 2.86353177626633  L 15.591200632373756 5.036635034260705  L 10.238798317187433 5.036635034260705  Z M 10.079411974906503 9.274159049660938  L 10.079411974906503 7.117154652849321  L 15.487521842172287 7.117154652849321  L 15.487521842172287 9.274159049660938  L 10.079411974906503 9.274159049660938  Z M 3.610178320381918 14  L 3.610178320381918 12  L 18.067765294556953 12  L 18.067765294556953 17.82642086371909  L 6.494635567282525 17.82642086371909  L 6.494635567282525 20.75866136450505  L 3.649834543896111 20.75866136450505  L 3.649834543896111 15.709329492556808  L 15.215045209639287 15.709329492556808  L 15.215045209639287 14  L 3.610178320381918 14  Z M 3.649834543896111 21.774712131605657  L 3.649834543896111 19.5292551239182  L 18.58463634911598 19.5292551239182  L 18.58463634911598 21.774712131605657  L 3.649834543896111 21.774712131605657  Z M 38 21.973548254817633  L 38 0  L 41 0  L 41 21.973548254817633  L 38 21.973548254817633  Z M 30.42226273153422 9.928076565778783  L 30.42226273153422 7.618770867136302  L 34.234590326465835 7.618770867136302  L 34.234590326465835 9.928076565778783  L 30.42226273153422 9.928076565778783  Z M 34 20.947169916392234  L 34 0.4049622967708621  L 37 0.4049622967708621  L 37 20.947169916392234  L 34 20.947169916392234  Z M 25.825856671221764 5.946251066296426  C 25.825856671221764 5.946251066296426  25.825856671221764 3.537679182096851  25.825856671221764 3.537679182096851  L 27.97304928956281 3.537679182096851  C 27.97304928956281 3.537679182096851  27.97304928956281 5.946251066296426  27.97304928956281 5.946251066296426  C 27.97304928956281 7.167779092806391  27.876148771655668 8.372139193133178  27.682328357578964 9.559321519064241  C 27.488441406014857 10.746523778726722  27.19338407101053 11.863388680551513  26.79716002595879 12.909950159343287  C 26.400935980907047 13.956312538127216  25.891439671375284 14.900506652961964  25.26865931871129 15.742559972054806  C 24.64587896604729 16.58461329114765  23.908312911069622 17.27130257363457  23.055982153092582 17.802545948832957  C 23.055982153092582 17.802545948832957  21.349333019320877 15.70902574045902  21.349333019320877 15.70902574045902  C 22.414713183176442 15.03962985987536  23.274532546485514 14.187211237751828  23.92878456555242 13.151797579602036  C 24.582970076875995 12.116383921452238  25.062658514118702 10.975034464788804  25.367860793354705 9.72766093165831  C 25.673196147565505 8.480260820219257  25.825856671221764 7.2197820452135  25.825856671221764 5.946251066296426  Z M 26.45134070047481 5.946251066296426  C 26.45134070047481 5.946251066296426  26.45134070047481 3.537679182096851  26.45134070047481 3.537679182096851  L 28.58236015853472 3.537679182096851  C 28.58236015853472 3.537679182096851  28.58236015853472 5.946251066296426  28.58236015853472 5.946251066296426  C 28.58236015853472 7.177725787477314  28.729706546932206 8.389280659660962  29.02439608162341 9.58094866842674  C 29.31935176626422 10.772629966346798  29.78856660215991 11.85559215917749  30.43203972673242 12.829759605527276  C 31.07577900125453 13.80392705187706  31.922257672700052 14.59641781749688  32.97146955430217 15.207288025332925  C 32.97146955430217 15.207288025332925  31.296953535589967 17.269218015536918  31.296953535589967 17.269218015536918  C 30.156919560122454 16.583896804021677  29.23172558362308 15.658257255561828  28.521383384744077 14.492255587140148  C 27.811041185865076 13.326187591600242  27.288438984168263 12.007484641534555  26.953561491201018 10.536127515130651  C 26.61875053572117 9.06452489533209  26.45134070047481 7.5345533436144985  26.45134070047481 5.946251066296426  Z M 22.109837047681765 4.607737072184155  L 22.109837047681765 2.3066934306015052  L 32.00248100216659 2.3066934306015052  L 32.00248100216659 4.607737072184155  L 22.109837047681765 4.607737072184155  Z M 60 13.402636061955302  L 60 0.02387491488613093  L 62 0.02387491488613093  L 62 13.402636061955302  L 60 13.402636061955302  Z M 44.929252466492684 12.394847351914525  L 44.929252466492684 10.093803710331875  C 44.929252466492684 10.093803710331875  46.80698378726839 10.093803710331875  46.80698378726839 10.093803710331875  C 48.2134293411872 10.093803710331875  49.49029960772975 10.079241021989752  50.63758613957981 10.05012415866997  C 51.78487267142987 10.02101393065755  52.88135704343205 9.958686516009317  53.92704246794603 9.863134367271723  C 54.97272789246001 9.76758221853413  56.03812554582947 9.634923710564435  57.123267075746234 9.465219119169541  C 57.123267075746234 9.465219119169541  57.44365403054331 11.734247289645344  57.44365403054331 11.734247289645344  C 56.32657510155591 11.91486739362032  55.22784790760473 12.055607709663304  54.1474969578045 12.156401955151003  C 53.06707950026093 12.2571962006387  51.934404208022194 12.322159167157231  50.74945811267323 12.351289301091736  C 49.564778167273865 12.380353080098676  48.250493428379556 12.394847351914525  46.80658783419183 12.394847351914525  C 46.80658783419183 12.394847351914525  44.929252466492684 12.394847351914525  44.929252466492684 12.394847351914525  Z M 44.889230747830894 3.6063271561969223  L 44.889230747830894 1.3373597361406777  L 55.00083675365483 1.3373597361406777  L 55.00083675365483 7.849440210196452  L 47.72577767246742 7.849440210196452  L 47.72577767246742 11.380011593205065  L 44.929252466492684 11.380011593205065  L 44.929252466492684 5.724512034911241  L 52.18813838739896 5.724512034911241  L 52.18813838739896 3.6063271561969223  L 44.889230747830894 3.6063271561969223  Z M 49.17752439871971 14.879600262239311  C 50.5141733478627 14.170457351781634  52.343218977924835 13.815921166205555  54.664672591653186 13.815921166205555  C 56.98639247430742 13.815921166205555  58.81817515380655 14.16926749786108  60.16001396747861 14.875955237065856  C 61.501919288893994 15.582576649152404  62.17288711907803 16.58892401989323  62.17288711907803 17.89506883781916  C 62.17288711907803 19.189269553724884  61.501919288893994 20.195369295314116  60.16001396747861 20.913271182279104  C 58.81817515380655 21.631173069244085  56.98639247430742 21.990072368937298  54.664672591653186 21.990072368937298  C 52.343218977924835 21.990072368937298  50.5141733478627 21.63039072961254  49.17752439871971 20.910962666335916  C 47.84087544957672 20.191866416630173  47.172570308651544 19.18405344201752  47.172570308651544 17.88759653621358  C 47.172570308651544 16.59140505753571  47.84087544957672 15.58874317269699  49.17752439871971 14.879600262239311  Z M 57.21649879631224 16.23937690319674  C 56.52032887404096 16.099300110474005  55.66970429547933 16.029241201947052  54.664672591653186 16.029241201947052  C 53.65990703777664 16.029241201947052  52.80808936502878 16.099300110474005  52.10919143551816 16.23937690319674  C 51.41055965595716 16.37952005270099  50.88321220410842 16.58588979154063  50.52717614707679 16.858545179327646  C 50.17133970250735 17.13106785355162  49.993431399870396 17.475114921521218  49.993431399870396 17.890634057191455  C 49.993431399870396 18.317433638076846  50.17133970250735 18.668383413142088  50.52717614707679 18.94356032896352  C 50.88321220410842 19.218803601566478  51.41055965595716 19.426479088803823  52.10919143551816 19.566555881526558  C 52.80808936502878 19.706632674249292  53.65990703777664 19.776691582776245  54.664672591653186 19.776691582776245  C 55.66970429547933 19.776691582776245  56.52032887404096 19.706632674249292  57.21649879631224 19.566555881526558  C 57.91260221084019 19.426479088803823  58.43854095373016 19.218803601566478  58.79431089055627 18.94356032896352  C 59.1501473351257 18.668383413142088  59.32805563776265 18.317433638076846  59.32805563776265 17.890634057191455  C 59.32805563776265 17.475114921521218  59.1501473351257 17.13106785355162  58.79431089055627 16.858545179327646  C 58.43854095373016 16.58588979154063  57.91260221084019 16.37952005270099  57.21649879631224 16.23937690319674  Z M 68.10685312994791 4.297606180342683  L 68.10685312994791 2  L 82.01759844746104 2  L 82.01759844746104 4.297606180342683  L 68.10685312994791 4.297606180342683  Z M 65.83201133130888 19  L 65.83201133130888 17  L 85.7572838818079 17  L 85.7572838818079 19  L 65.83201133130888 19  Z M 80.82376946369583 4.599535765543881  C 80.82376946369583 4.599535765543881  80.82376946369583 2.012539899103678  80.82376946369583 2.012539899103678  L 83.62059924896023 2.012539899103678  C 83.62059924896023 2.012539899103678  83.62059924896023 4.599535765543881  83.62059924896023 4.599535765543881  C 83.62059924896023 5.666780270478586  83.60590523903463 6.742024253022967  83.57649616781696 7.825200792792975  C 83.54728670534348 8.908377332562985  83.46462986096911 10.07141931648184  83.32862954188877 11.314340389663315  C 83.19289535788599 12.556982746564438  82.95714453322294 13.96464958398619  82.6213355154321 15.537345054789284  C 82.6213355154321 15.537345054789284  79.8008703772898 15.281646538871408  79.8008703772898 15.281646538871408  C 80.14193576735303 13.820959416821285  80.38295105467587 12.479809068075909  80.52394161095104 11.258267752411665  C 80.66513176481638 10.036527336739576  80.7503350883632 8.880126133058607  80.77954455083668 7.788993542736655  C 80.80902015954175 6.697854426490727  80.82376946369583 5.634683996567601  80.82376946369583 4.599535765543881  Z M 67.48368390329631 8.541448239376903  L 81.42409524362266 8.048762336764888  L 81.42409524362266 10.150544602198659  L 67.85155476935194 10.84255263137911  L 67.48368390329631 8.541448239376903  Z M 109.58513087076581 6.757572919487975  C 110.17331232486316 8.069782575197628  110.4673752412052 9.614331142626797  110.4673752412052 11.39118967040366  C 110.4673752412052 12.724739334820875  110.2970791900045 13.938707137731324  109.95641302486567 15.033177322880885  C 109.61508148485281 16.127713953801837  109.10042564974466 17.06380987159513  108.41243968970326 17.841365466930256  C 107.72445372966185 18.618987448710193  106.85981463704641 19.206094601929713  105.81852062721269 19.602702381163322  C 105.81852062721269 19.602702381163322  109.88855275912863 24  109.88855275912863 24  L 106.14588244774308 24  C 106.14588244774308 24  102.92416455339803 20.162578247806024  102.92416455339803 20.162578247806024  C 102.84631700931502 20.162578247806024  102.77111776579642 20.164500909456102  102.69859313147322 20.168349537663996  C 102.62673386458799 20.172264521494682  102.5538823949738 20.174181577941525  102.48002703321066 20.174181577941525  C 101.11935843778913 20.174181577941525  99.9370521882523 19.965211525367096  98.93301845750494 19.547237248107244  C 97.9289847267576 19.129262970847392  97.09753989868781 18.531446094127713  96.43869682273437 17.753824112347775  C 95.77985374678094 16.97626851701265  95.2876588496412 16.04709767243627  94.96209642644554 14.966230360528428  C 94.63660054073729 13.885296721502357  94.47379490925695 12.685823233048733  94.47379490925695 11.36780075887399  C 94.47379490925695 9.61431263273334  94.76327848787655 8.081446655752686  95.34221137994564 6.769237000043031  C 95.92114427201471 5.457027344333378  96.80610629875667 4.437390819314331  97.99710721622684 3.7103318744795084  C 99.18790849149072 2.983272929644686  100.69185404020081 2.619740342581741  102.50896206572868 2.619740342581741  C 104.28282149779234 2.619740342581741  105.75826282711246 2.9813293315049143  106.93529105069302 3.7044998342019797  C 108.11298458965945 4.4276703368990455  108.9962841012826 5.445363263778322  109.58513087076581 6.757572919487975  Z M 97.95909572087683 7.973553317352597  C 97.60046473158066 8.926121972445888  97.42114777947309 10.065343918566594  97.42114777947309 11.39118967040366  C 97.42114777947309 12.709212144578403  97.59953124364836 13.847413732822186  97.95623267555399 14.805788502476847  C 98.31266795751002 15.764229658576316  98.86447871820414 16.502929843232277  99.61168203073325 17.021963807937546  C 100.3582200278765 17.540997772642818  101.31431000402368 17.80054118498756  102.48002703321066 17.80054118498756  C 103.65705525679122 17.80054118498756  104.61685199858648 17.540997772642818  105.35939780597388 17.021963807937546  C 106.10194361336127 16.502929843232277  106.64786567257215 15.764229658576316  106.99718156235265 14.805788502476847  C 107.34583210700323 13.847413732822186  107.52020511856288 12.709212144578403  107.52020511856288 11.39118967040366  C 107.52020511856288 9.396604842567818  107.12159333844698 7.832613767816959  106.32448774320177 6.6992525167126935  C 105.52738214795656 5.565891265608428  104.25554154437528 4.999212775813233  102.50896206572868 4.999212775813233  C 101.33526065702999 4.999212775813233  100.37317701257211 5.256792715613364  99.62264688516113 5.771958112585716  C 98.87211675775016 6.287123509558066  98.3175936351982 7.020991306836448  97.95909572087683 7.973553317352597  Z M 114 2.8880141953480365  C 114 2.8880141953480365  118.9477764033071 2.8880141953480365  118.9477764033071 2.8880141953480365  C 120.42488363857015 2.8880141953480365  121.6451901996862 3.0678368907397378  122.60863671748903 3.427477921019392  C 123.57141786041788 3.7871189512990466  124.28868566884817 4.332417831893464  124.76042848310401 5.063365218866043  C 125.23217129735983 5.794319250415761  125.46802708885033 6.721608315150395  125.46802708885033 7.845248431246979  C 125.46802708885033 8.685058908922464  125.31200515795733 9.401427678365764  124.99994963649542 9.994355273516106  C 124.68789411503349 10.587276283415894  124.27871498025796 11.078161001347269  123.77237326743548 11.466945443591971  C 123.26536617973902 11.855789598041053  122.72142171459375 12.164909090319421  122.14055926513412 12.394300598138505  C 122.14055926513412 12.394300598138505  127 19.940899966840398  127 19.940899966840398  L 123.83024333247155 19.940899966840398  L 119.69631046558422 13.111580801854913  L 116.952721140153 13.111580801854913  L 116.952721140153 19.940899966840398  L 114 19.940899966840398  L 114 2.8880141953480365  Z M 121.66645114284385 5.844858616054817  C 121.03901328503814 5.432730261492587  120.07025649870577 5.226662346636831  118.76015556087437 5.226662346636831  C 118.76015556087437 5.226662346636831  116.952721140153 5.226662346636831  116.952721140153 5.226662346636831  L 116.952721140153 10.80209285195376  C 116.952721140153 10.80209285195376  118.89490143862152 10.80209285195376  118.89490143862152 10.80209285195376  C 120.19302586667347 10.80209285195376  121.13651000798156 10.56006172693509  121.72535677746477 10.076003837401501  C 122.314203546948 9.591945947867913  122.60863671748903 8.879464404367448  122.60863671748903 7.93856107568743  C 122.60863671748903 6.9548848834920864  122.29455437552357 6.256986970617048  121.66645114284385 5.844858616054817  Z " fill-rule="nonzero" fill="#26262c" stroke="none" transform="matrix(1 0 0 1 442 605 )" />
  </g>
</svg>