<?xml version="1.0" encoding="utf-8"?>
<svg version="1.1" xmlns:xlink="http://www.w3.org/1999/xlink" width="86px" height="22px" xmlns="http://www.w3.org/2000/svg">
  <g transform="matrix(1 0 0 1 -442 -323 )">
    <path d="M 16 11.098123457814086  L 16 0  L 19 0  L 19 11.098123457814086  L 16 11.098123457814086  Z M 7.996394272588164 2.4204394495476254  C 7.996394272588164 2.4204394495476254  7.996394272588164 0.9069539193121419  7.996394272588164 0.9069539193121419  C 7.996394272588164 0.9069539193121419  11.105227878706115 0.9069539193121419  11.105227878706115 0.9069539193121419  C 11.105227878706115 2.8215437216185952  10.719905134305003 4.491237100932396  9.949250700304974 5.916024909974357  C 9.178596266304945 7.340819371583001  8.040893530677618 8.522314917171226  6.536156328662266 9.460542849441184  C 5.031399208673131 10.398531586300205  3.1738325143877613 11.11454003225199  0.9634669800435272 11.608553991194421  C 0.9634669800435272 11.608553991194421  0 9.31258976645171  0 9.31258976645171  C 1.8674396880092523 8.925184762620006  3.388811022059163 8.393166204874863  4.564155746406166 7.7165211741693795  C 5.73949379167214 7.0396237023175114  6.605313203411524 6.2502206362618455  7.161593109496101 5.348359494335814  C 7.718126462851884 4.446498352409785  7.996394272588164 3.4705314191220684  7.996394272588164 2.4204394495476254  Z M 1.233988844825199 3.1790601392027975  L 1.233988844825199 0.9069539193121419  L 9.208674195758762 0.9069539193121419  L 9.208674195758762 3.1790601392027975  L 1.233988844825199 3.1790601392027975  Z M 10.26401479782577 5.0426911619355685  L 10.26401479782577 2.8670053427886177  L 15.629599201883101 2.8670053427886177  L 15.629599201883101 5.0426911619355685  L 10.26401479782577 5.0426911619355685  Z M 10.10423591313023 9.285310441592191  L 10.10423591313023 7.125682017680276  L 15.525665067829285 7.125682017680276  L 15.525665067829285 9.285310441592191  L 10.10423591313023 9.285310441592191  Z M 3.619069597355705 14  L 3.619069597355705 12  L 18.112263236562843 12  L 18.112263236562843 17.847855627207444  L 6.510630789276546 17.847855627207444  L 6.510630789276546 20.78362189921275  L 3.6588234876430343 20.78362189921275  L 3.6588234876430343 15.728218632716114  L 15.252517370048604 15.728218632716114  L 15.252517370048604 14  L 3.619069597355705 14  Z M 3.6588234876430343 21.800894381432254  L 3.6588234876430343 19.552706989860454  L 18.630407259739478 19.552706989860454  L 18.630407259739478 21.800894381432254  L 3.6588234876430343 21.800894381432254  Z M 38 22  L 38 0  L 41 0  L 41 22  L 38 22  Z M 30.49718777404203 9.940014238220638  L 30.49718777404203 7.627931794776094  L 34.31890450644919 7.627931794776094  L 34.31890450644919 9.940014238220638  L 30.49718777404203 9.940014238220638  Z M 34 20.972357116691203  L 34 0.4054492296846165  L 37 0.4054492296846165  L 37 20.972357116691203  L 34 20.972357116691203  Z M 25.889461519617416 5.953400930322572  C 25.889461519617416 5.953400930322572  25.889461519617416 3.5419025303944536  25.889461519617416 3.5419025303944536  L 28.041942321142642 3.5419025303944536  C 28.041942321142642 3.5419025303944536  28.041942321142642 5.953400930322572  28.041942321142642 5.953400930322572  C 28.041942321142642 7.1763977409784285  27.944803153155878 8.382205982471783  27.75050539119444 9.570815794748446  C 27.55614092787469 10.759445564725153  27.260356915056732 11.877653402139881  26.86315703518034 12.925473282601033  C 26.465957155303943 13.973093823653416  25.955206039941793 14.918453663793104  25.330891881432777 15.761519480788769  C 24.70657772292376 16.604585297784435  23.967195163746215 17.292039442592667  23.112765254932313 17.82392159302189  C 23.112765254932313 17.82392159302189  21.40191292431026 15.727914515382116  21.40191292431026 15.727914515382116  C 22.46991694473981 15.05771374286361  23.331853902092217 14.204300571170368  23.987717236555742 13.167641915662735  C 24.64351389947828 12.130983260155102  25.124383730651743 10.988200603828423  25.430337673034796 9.739327209516107  C 25.736425018134483 8.490427204937069  25.889461519617416 7.22846322253786  25.889461519617416 5.953400930322572  Z M 26.516486013427397 5.953400930322572  C 26.516486013427397 5.953400930322572  26.516486013427397 3.5419025303944536  26.516486013427397 3.5419025303944536  L 28.65275382283083 3.5419025303944536  C 28.65275382283083 3.5419025303944536  28.65275382283083 5.953400930322572  28.65275382283083 5.953400930322572  C 28.65275382283083 7.18635639570849  28.800463101211598 8.399368060163395  29.095878407884598 9.592468948929023  C 29.39156051999087 10.785583142828015  29.861930955055335 11.869817094374865  30.506988848375542 12.845155894692462  C 31.152313547129015 13.820494695010057  32.000876956682276 14.613968775487105  33.05267287503151 15.2255735030861  C 33.05267287503151 15.2255735030861  31.374032798060092 17.2899827897236  31.374032798060092 17.2899827897236  C 30.231191105927117 16.603837537409888  29.303718528436466 15.677054573941984  28.591626873249236 14.509650887124089  C 27.87953521806201 13.342180793435213  27.35564593287235 12.021892214596251  27.019943691574685 10.548765905682156  C 26.68430815163533 9.075393808188359  26.516486013427397 7.543613006804625  26.516486013427397 5.953400930322572  Z M 22.16428994933662 4.613307898065399  L 22.16428994933662 2.3094518285054706  L 32.08129786304911 2.3094518285054706  L 32.08129786304911 4.613307898065399  L 22.16428994933662 4.613307898065399  Z M 46.18348664893862 4.20709837504579  L 46.18348664893862 2  L 60.12849185018976 2  L 60.12849185018976 4.20709837504579  L 46.18348664893862 4.20709837504579  Z M 43.886920894828215 19  L 43.886920894828215 17  L 63.861266122990955 17  L 63.861266122990955 19  L 43.886920894828215 19  Z M 58.98002577548347 3.903285158382925  C 58.98002577548347 3.903285158382925  58.98002577548347 1.9192997007208963  58.98002577548347 1.9192997007208963  L 61.79965135640819 1.9192997007208963  C 61.79965135640819 1.9192997007208963  61.79965135640819 3.903285158382925  61.79965135640819 3.903285158382925  C 61.79965135640819 4.785713974839474  61.787634567759305 5.734661686745323  61.76362248502643 6.750127521927551  C 61.73961040229356 7.765593357109779  61.659449767638435 8.891545851303903  61.52311450208227 10.127989162364097  C 61.38704602705072 11.364439125990973  61.153427993265666 12.772402475100394  60.82226135488154 14.351905225979912  C 60.82226135488154 14.351905225979912  57.99481934084349 14.040306605566728  57.99481934084349 14.040306605566728  C 58.486066525810536 11.838689081496534  58.77307331672735 9.917733010467856  58.8558483009838 8.277435184993191  C 58.938623285240254 6.636898223505505  58.98002577548347 5.1788456803243  58.98002577548347 3.903285158382925  Z M 45.52653987211668 7.675404510613004  L 59.51728342025754 7.206029817322246  L 59.51728342025754 9.36602318203496  L 45.91143813706451 10.099219662567993  L 45.52653987211668 7.675404510613004  Z M 51.15809673262019 17.89268252223858  L 51.15809673262019 11.666153814253425  L 54.018117395611064 11.666153814253425  L 54.018117395611064 17.89268252223858  L 51.15809673262019 17.89268252223858  Z M 68.37815687541494 12.539122621491417  L 68.37815687541494 10.267001195734064  L 83.80779584112929 10.267001195734064  L 83.80779584112929 12.539122621491417  L 68.37815687541494 12.539122621491417  Z M 65.99414477584915 19  L 65.99414477584915 17  L 86 17  L 86 19  L 65.99414477584915 19  Z M 68.37815687541494 11.22670426662796  L 68.37815687541494 2  L 83.62429286061712 2  L 83.62429286061712 4.184289574996026  L 71.21387331669406 4.184289574996026  L 71.21387331669406 11.22670426662796  L 68.37815687541494 11.22670426662796  Z " fill-rule="nonzero" fill="#26262c" stroke="none" transform="matrix(1 0 0 1 442 323 )" />
  </g>
</svg>