<?xml version="1.0" encoding="utf-8"?>
<svg version="1.1" xmlns:xlink="http://www.w3.org/1999/xlink" width="23px" height="35px" xmlns="http://www.w3.org/2000/svg">
  <g transform="matrix(1 0 0 1 -754 -388 )">
    <path d="M 6.180370160825323 0.943112138375786  C 7.750330877638012 0.314369883695268  9.523553754733939 0  11.50003113097478 0  C 13.524317172099472 0  15.317424472913684 0.3104895928809172  16.87940131074939 0.9314687786427516  C 18.441446125987056 1.5524479644045859  19.6648013795167 2.4645128016856015  20.549431927386323 3.6676583159058347  C 21.43406247525595 4.870805488319388  21.876358596344954 6.349510516221436  21.876358596344954 8.10377837419194  C 21.876358596344954 9.485458720705342  21.56950769186747 10.692487842126567  20.955815672144816 11.724863251165637  C 20.342191629824118 12.757238660204703  19.517358151459636 13.65764142385663  18.4812767489517 14.42609238798031  C 17.445263445451086 15.194583089522514  16.297651191216598 15.881553750221453  15.038439986248232 16.486967060727398  C 16.53676249303783 17.154577662966428  17.887630340865563 17.90753417258942  19.091008020963326 18.74583949143468  C 20.294385701061092 19.58414481027994  21.246731773723663 20.56993008001128  21.948084362234606 21.70319222112681  C 22.649368973343595 22.83652068997519  23 24.17937988821855  23 25.731794688756704  C 23 27.641297394007744  22.52585397318371 29.2907829500204  21.57750123847139 30.68025289654563  C 20.629148503759065 32.069722843070856  19.30225430343429 33.137062442714495  17.59678349354506 33.8822374656287  C 15.891244706253875 34.6274124885429  13.89082773201374 35  11.59560322354476 35  C 9.125057577499208 35  7.0251139040492605 34.63903245590586  5.295752381519571 33.917106902329195  C 3.5663636193869497 33.19524755804299  2.2513929472184473 32.1551212204292  1.3508352575885134 30.79671681512528  C 0.4502775679585796 29.438312409821357  0 27.804334751519526  0 25.894832046268494  C 0 24.326851311253254  0.3426846629361382 22.964590658938143  1.0280693110850634 21.80801277997342  C 1.713447149333256 20.6514349010087  2.6219769222192593 19.653974647428843  3.753648414891975 18.81566932858358  C 4.885319907564692 17.97736400973832  6.12059868925061 17.27102221621693  7.45947965252418 16.696608178420625  C 6.295926636727918 16.075628992658793  5.231990186510068 15.3692568778881  4.267683070434507 14.577516707008368  C 3.3033691444582125 13.785743431483398  2.5382943083018863 12.858151094277645  1.9724585619655286 11.794723409563842  C 1.4066160057284378 10.73129572485004  1.123703665604604 9.49321764414072  1.123703665604604 8.08049165472587  C 1.123703665604604 6.357276072430101  1.5739812335631835 4.894093865978778  2.474538923193118 3.690945035371903  C 3.375096612823051 2.487794546571706  4.610368584608237 1.5718477602830185  6.180370160825323 0.943112138375786  Z M 4.709991960087383 22.727838198883138  C 4.168067356093686 23.643774206915236  3.8970999466712866 24.707195614182893  3.8970999466712866 25.918088444485257  C 3.8970999466712866 27.656830164618395  4.52669448306678 29.088975848231534  5.785878448432217 30.21448818597495  C 7.0450624137976545 31.340066733008836  8.949781677120358 31.902835989763545  11.50003113097478 31.902835989763545  C 13.92276811213648 31.902835989763545  15.795616067186735 31.340066733008836  17.1185494589978 30.21448818597495  C 18.441482850808864 29.088975848231534  19.10296231527827 27.610270465002348  19.10296231527827 25.778398448938148  C 19.10296231527827 24.645136307822625  18.800103167881225 23.64770637549207  18.194435947342633 22.786085318797618  C 17.58876872680404 21.924464262103157  16.728087748574065 21.152131052865858  15.61237063726459 20.469087053173073  C 14.496585548553155 19.785976844189822  13.181621564680015 19.164997658427986  11.667453513333532 18.60614949588757  C 11.667453513333532 18.60614949588757  10.806682060708107 18.30339182157937  10.806682060708107 18.30339182157937  C 9.340322674245481 18.8933054661199  8.09308534205666 19.549199629677375  7.064987940131075 20.271058973963576  C 6.03691777780842 20.992984527540248  5.251916564081082 21.81190219085104  4.709991960087383 22.727838198883138  Z M 16.15025161948745 4.471050137485208  C 14.962787461348526 3.6016792774186395  13.396796187030835 3.1669938473853554  11.452213953715008 3.1669938473853554  C 9.571422006249204 3.1669938473853554  8.033284077166241 3.605560871099171  6.837856348147165 4.482693497218242  C 5.642428619128089 5.359823458383761  5.044712200905776 6.621187251798916  5.044712200905776 8.266785410454421  C 5.044712200905776 9.446645863401905  5.3356059878991875 10.444092851435192  5.917375685896586 11.25912886184426  C 6.499152193794717 12.074164872253329  7.292100804887969 12.772769772622034  8.296280254570163 13.35493361379045  C 9.300398475948445 13.937104087732154  10.424155951929375 14.476577268072763  11.667453513333532 14.973360616682232  C 12.878787954410717 14.476577268072763  13.954654742685575 13.929336873330165  14.895050716418476 13.33164689432438  C 15.835446690151377 12.733950282545312  16.576604425301902 12.02371114250684  17.1185494589978 11.200912063179087  C 17.660494492693694 10.37811961662462  17.931441472413898 9.392313501034387  17.931441472413898 8.243498690988352  C 17.931441472413898 6.5979071651061325  17.33771577762637 5.340422300417957  16.15025161948745 4.471050137485208  Z " fill-rule="nonzero" fill="#3d3d3d" stroke="none" transform="matrix(1 0 0 1 754 388 )" />
  </g>
</svg>