<?xml version="1.0" encoding="utf-8"?>
<svg version="1.1" xmlns:xlink="http://www.w3.org/1999/xlink" width="75px" height="88px" xmlns="http://www.w3.org/2000/svg">
  <g transform="matrix(1 0 0 1 -441 -360 )">
    <path d="M 0 10  C 0 4.477152347564697  4.452865964350928 0  9.945754842970713 0  C 9.945754842970713 0  65.05427550906434 0  65.05427550906434 0  C 70.54716438768412 0  75 4.477152347564697  75 10  C 75 10  75 78  75 78  C 75 83.5228476524353  70.54716438768412 88  65.05427550906434 88  C 65.05427550906434 88  9.945754842970713 88  9.945754842970713 88  C 4.452865964350928 88  0 83.5228476524353  0 78  C 0 78  0 10  0 10  Z " fill-rule="nonzero" fill="#d8d8d8" stroke="none" transform="matrix(1 0 0 1 441 360 )" />
  </g>
</svg>