<?xml version="1.0" encoding="utf-8"?>
<svg version="1.1" xmlns:xlink="http://www.w3.org/1999/xlink" width="110px" height="15px" xmlns="http://www.w3.org/2000/svg">
  <g transform="matrix(1 0 0 1 -73 -639 )">
    <path d="M 7.906558191970031 5.516300302684464  L 7.906558191970031 3.9549942936535505  L 11.408595421338092 3.9549942936535505  L 11.408595421338092 5.516300302684464  L 7.906558191970031 5.516300302684464  Z M 11 10.944772490448072  L 11 0.027043120130997866  L 13 0.027043120130997866  L 13 10.944772490448072  L 11 10.944772490448072  Z M 2.6725431191357534 14.696819332109364  L 2.6725431191357534 13.14146777154766  L 12.659671735328843 13.14146777154766  L 12.659671735328843 14.696819332109364  L 2.6725431191357534 14.696819332109364  Z M 2.6725431191357534 14.034386939909691  L 2.6725431191357534 10.012653202997072  L 4.577840803174349 10.012653202997072  L 4.577840803174349 14.034386939909691  L 2.6725431191357534 14.034386939909691  Z M 3.5398746593521695 2.9692849699796557  C 3.5398746593521695 2.9692849699796557  3.5398746593521695 1.9525628938619561  3.5398746593521695 1.9525628938619561  L 5.091941626055231 1.9525628938619561  C 5.091941626055231 1.9525628938619561  5.091941626055231 2.9692849699796557  5.091941626055231 2.9692849699796557  C 5.091941626055231 3.898454169354438  4.936484308857316 4.7814869325829275  4.625686843670386 5.618518334739245  C 4.314889378483457 6.455549736895561  3.853897674856639 7.187076179240528  3.2423015809610045 7.812732595643328  C 2.6308721224204525 8.438389012046128  1.8692920510050774 8.912011254770148  0.9578972597267716 9.233612861608695  C 0.9578972597267716 9.233612861608695  0 7.69463603433732  0 7.69463603433732  C 0.5907651249682376 7.488477672175049  1.1074984705912807 7.221810492263481  1.5501140670909785 6.8947551233067035  C 1.9927296635906766 6.567699754349927  2.362162927710848 6.192937353222458  2.658628709399661 5.7703567707041135  C 2.9552611264435575 5.34760679919708  3.176321564163623 4.897709190949006  3.321638127701881 4.420929886369275  C 3.4671213414946647 3.9441505817895446  3.5398746593521695 3.4602914353147636  3.5398746593521695 2.9692849699796557  Z M 3.9360691681535336 2.9640748275690965  C 3.9360691681535336 2.9640748275690965  3.9360691681535336 1.9525628938619561  3.9360691681535336 1.9525628938619561  L 5.466654239123681 1.9525628938619561  C 5.466654239123681 1.9525628938619561  5.466654239123681 2.9640748275690965  5.466654239123681 2.9640748275690965  C 5.466654239123681 3.563478706741087  5.590865162528267 4.154769359129224  5.839169840128536 4.738252369374287  C 6.087641167983331 5.321566020916551  6.465088469265132 5.846429477582432  6.971363390233726 6.312707785441374  C 7.4776383112023215 6.778816704311625  8.107845536017198 7.145603467458319  8.86225843963321 7.413040242147571  C 8.86225843963321 7.413040242147571  7.925843075639353 8.919763806877388  7.925843075639353 8.919763806877388  C 7.0466112322051035 8.612321611255924  6.310920728538354 8.159510954576398  5.718822401533914 7.561157147819182  C 5.126890709884558 6.962600122732968  4.681826211361229 6.2654407164100885  4.3835272917720784 5.4699052250285325  C 4.085228372182928 4.674200374944177  3.9360691681535336 3.839045304882492  3.9360691681535336 2.9640748275690965  Z M 0.5348503812592652 2.6323624274301594  L 0.5348503812592652 1.0879273557286757  L 8.429447063105288 1.0879273557286757  L 8.429447063105288 2.6323624274301594  L 0.5348503812592652 2.6323624274301594  Z M 18.151713669409602 4.202352007145338  C 18.151713669409602 4.202352007145338  18.151713669409602 2.3165285565424503  18.151713669409602 2.3165285565424503  L 19.660816844646835 2.3165285565424503  C 19.660816844646835 2.3165285565424503  19.660816844646835 4.202352007145338  19.660816844646835 4.202352007145338  C 19.660816844646835 5.023293121100146  19.56768657364699 5.838784652389688  19.38130808766744 6.648886021932218  C 19.195062921891505 7.458851892398155  18.925079616331164 8.220942613712134  18.571587086007476 8.935146132089516  C 18.218094555683784 9.649349650466895  17.78706473518931 10.28388298268248  17.278523430356937 10.839081030119585  C 16.769915435623872 11.394143578480096  16.191741411584758 11.831025855331712  15.543616237472593 12.149307795365454  C 15.543616237472593 12.149307795365454  14.462930414636094 10.620751252915198  14.462930414636094 10.620751252915198  C 15.04666306275722 10.335056295656587  15.565908573433013 9.958043622537588  16.020856080175406 9.489902247804297  C 16.476003537424344 9.021760873071008  16.862626913118643 8.495873874430917  17.18039022484976 7.912221505483055  C 17.498220196682684 7.328569136535193  17.73940265809896 6.719819394813273  17.904183643578065 6.085694437552722  C 18.069164609362602 5.4515694802921715  18.151713669409602 4.823774153119263  18.151713669409602 4.202352007145338  Z M 18.54278181672925 4.202352007145338  C 18.54278181672925 4.202352007145338  18.54278181672925 2.3165285565424503  18.54278181672925 2.3165285565424503  L 20.046514518033252 2.3165285565424503  C 20.046514518033252 2.3165285565424503  20.046514518033252 4.202352007145338  20.046514518033252 4.202352007145338  C 20.046514518033252 4.776858339852472  20.126229793680682 5.360330810607446  20.285744720513435 5.952959857093237  C 20.445392967549807 6.545419544876228  20.67876132741156 7.118103999520853  20.985859231445232 7.671066342480027  C 21.293157085985456 8.22389324693439  21.673559795808778 8.72170152968463  22.1268408298048 9.164640500173672  C 22.580121863800823 9.60737625233371  23.096821834674635 9.96816752962881  23.676954896895776 10.246613407433136  C 23.676954896895776 10.246613407433136  22.6226332188224 11.77492184786384  22.6226332188224 11.77492184786384  C 21.971241729520422 11.46395673682268  21.393930621542204 11.04253140961876  20.890655375356182 10.510842058254354  C 20.387380129170165 9.979220426142353  19.960800056714533 9.373598005531123  19.610773792087205 8.693742867066938  C 19.26081418756169 8.01388772860275  18.995347290142004 7.290663739288971  18.814234862808803 6.524090706098347  C 18.633255755679222 5.7573483142049255  18.54278181672925 4.983490979068718  18.54278181672925 4.202352007145338  Z M 15.017798016919214 3.0727435121321887  L 15.017798016919214 1.4737259961296085  L 23.057153382510897 1.4737259961296085  L 23.057153382510897 3.0727435121321887  L 15.017798016919214 3.0727435121321887  Z M 25 14.97816702227956  L 25 0.021832977720438643  L 27 0.021832977720438643  L 27 14.97816702227956  L 25 14.97816702227956  Z M 25.809033048387526 7.413040242147571  L 25.809033048387526 5.814022726144991  L 28.43763592625141 5.814022726144991  L 28.43763592625141 7.413040242147571  L 25.809033048387526 7.413040242147571  Z M 44 15  L 44 0  L 46 0  L 46 15  L 44 15  Z M 41.26403646596185 7.386245224036124  L 41.26403646596185 5.819977174614201  L 44.47069762900234 5.819977174614201  L 44.47069762900234 7.386245224036124  L 41.26403646596185 7.386245224036124  Z M 37.13243322414849 4.720389023966655  C 37.13243322414849 4.720389023966655  37.13243322414849 3.8083660000992405  37.13243322414849 3.8083660000992405  L 38.6198103912013 3.8083660000992405  C 38.6198103912013 3.8083660000992405  38.6198103912013 4.720389023966655  38.6198103912013 4.720389023966655  C 38.6198103912013 5.508133469873437  38.53283409617174 6.281597088425886  38.35885418053669 7.040887212821913  C 38.185074230307634 7.800007917943358  37.92675756002219 8.513984655568494  37.5837971469912 9.183000049620404  C 37.240836733960215 9.85181216477153  36.82041063747487 10.443935860879117  36.32246811003702 10.959162407581998  C 35.82465890280278 11.474388954284876  35.25343508089415 11.882112247798482  34.60904281288558 12.182305363965662  C 34.60904281288558 12.182305363965662  33.58181761692986 10.691708430506624  33.58181761692986 10.691708430506624  C 34.161950679151005 10.416988716736885  34.67340464602689 10.062677196691403  35.115820262221156 9.629087480772093  C 35.558435858720856 9.195362265776186  35.92978414807251 8.710288291639273  36.22994949091458 8.173721034089217  C 36.53004820345372 7.637119916912959  36.75549169931194 7.073581074506587  36.906140981598355 6.483153872872525  C 37.05699024419021 5.892557251963883  37.13243322414849 5.305057666274872  37.13243322414849 4.720389023966655  Z M 37.53399820688308 4.720389023966655  C 37.53399820688308 4.720389023966655  37.53399820688308 3.8083660000992405  37.53399820688308 3.8083660000992405  L 39.02161948638741 3.8083660000992405  C 39.02161948638741 3.8083660000992405  39.02161948638741 4.720389023966655  39.02161948638741 4.720389023966655  C 39.02161948638741 5.276264566786738  39.09872256213104 5.836585472696373  39.25303809041925 6.401776410459981  C 39.40735361870746 6.966967348223589  39.635520106717365 7.508142846385308  39.937285292002876 8.024859822358954  C 40.2391171373902 8.541441299256004  40.61290014449706 9.007458663877587  41.05898200669312 9.42316280454523  C 41.50513052899099 9.838731446136277  42.01828875359719 10.178530784905627  42.59835512591764 10.442614002877983  C 42.59835512591764 10.442614002877983  41.59261182569483 11.916588101027141  41.59261182569483 11.916588101027141  C 40.94122033639285 11.630960893306828  40.36366511596312 11.239391185507044  39.8603898697771 10.742321242494913  C 39.357247943794704 10.245048050867892  38.9317307677054 9.674771324562409  38.58343763592625 9.031161613655534  C 38.23534448445253 8.38755190274866  37.97324191074964 7.699718491431177  37.797395542062795 6.9676971170545325  C 37.62174915368138 6.235506383975091  37.53399820688308 5.486453981048882  37.53399820688308 4.720389023966655  Z M 34.05222231099039 4.026199573264527  L 34.05222231099039 2.4978911328338214  L 42.0429992987315 2.4978911328338214  L 42.0429992987315 4.026199573264527  L 34.05222231099039 4.026199573264527  Z M 37.12706275021526 3.302485982235895  L 37.12706275021526 0.3366744405299459  L 39.02674584786912 0.3366744405299459  L 39.02674584786912 3.302485982235895  L 37.12706275021526 3.302485982235895  Z M 52.488082873958085 9.563588547610777  C 53.23146375421614 9.33392150451875  54.10997124639656 9.219222944474769  55.12352090046426 9.219222944474769  C 56.13727056463626 9.219222944474769  57.0121695908495 9.33392150451875  57.74821797910398 9.563588547610777  C 58.484466317865 9.79305234208791  59.052701401181196 10.121332215049016  59.452855228001035 10.54855356522602  C 59.85314237502448 10.975503917249837  60.05312774626508 11.492211353167797  60.05312774626508 12.098694983377165  C 60.05312774626508 12.701723417419243  59.85314237502448 13.218543486566052  59.452855228001035 13.649084503547858  C 59.052701401181196 14.079761019606263  58.484466317865 14.409795869096529  57.74821797910398 14.639259663573661  C 57.0121695908495 14.868994456203986  56.13727056463626 14.98387336872922  55.12352090046426 14.98387336872922  C 54.10997124639656 14.98387336872922  53.23146375421614 14.868994456203986  52.488082873958085 14.639259663573661  C 51.74483531390365 14.409795869096529  51.17299182421802 14.079716166201605  50.772704677194575 13.648836401528309  C 50.37255085037474 13.218159885469905  50.17243215893052 12.701250109513781  50.17243215893052 12.097950677318515  C 50.17243215893052 11.494786744199839  50.37255085037474 10.979091826191741  50.772704677194575 10.550786483401975  C 51.17299182421802 10.122210172744907  51.74483531390365 9.79305234208791  52.488082873958085 9.563588547610777  Z M 56.78226500847736 10.895896392596637  C 56.32985055580487 10.79678049893413  55.776978823123464 10.747283282885922  55.12352090046426 10.747283282885922  C 54.47012966770574 10.747283282885922  53.91612834875732 10.79678049893413  53.46184744303303 10.895896392596637  C 53.00756653730874 10.994944544292316  52.660590963152096 11.144403849370674  52.42095194979272 11.34446484394383  C 52.18144625663698 11.54432260504504  52.061862533620946 11.79466679511115  52.061862533620946 12.09546965712301  C 52.061862533620946 12.404266813224535  52.18144625663698 12.660573553235714  52.42095194979272 12.86408971369027  C 52.660590963152096 13.06767362368312  53.00756653730874 13.220687735224459  53.46184744303303 13.323326551878132  C 53.91612834875732 13.426033110498631  54.47012966770574 13.477397906018956  55.12352090046426 13.477397906018956  C 55.776978823123464 13.477397906018956  56.32985055580487 13.426033110498631  56.78226500847736 13.323326551878132  C 57.234879441455284 13.220687735224459  57.57990667522898 13.06767362368312  57.81754591533293 12.86408971369027  C 58.055385135742306 12.660573553235714  58.17443831944112 12.404266813224535  58.17443831944112 12.09546965712301  C 58.17443831944112 11.79466679511115  58.055385135742306 11.54432260504504  57.81754591533293 11.34446484394383  C 57.57990667522898 11.144403849370674  57.234879441455284 10.994944544292316  56.78226500847736 10.895896392596637  Z M 57.98769229403567 8.872872525182355  L 57.98769229403567 0.021832977720438643  L 59.887619504141036 0.021832977720438643  L 59.887619504141036 8.872872525182355  L 57.98769229403567 8.872872525182355  Z M 59.36839231977844 5.1692055773334  L 59.36839231977844 3.570188061330819  L 61.90203545400477 3.570188061330819  L 61.90203545400477 5.1692055773334  L 59.36839231977844 5.1692055773334  Z M 48.82761666355978 7.959360889197638  L 48.82761666355978 0.9596586116210986  L 50.71167656431697 0.9596586116210986  L 50.71167656431697 2.9241304024214756  L 53.94909589624777 2.9241304024214756  L 53.94909589624777 0.9596586116210986  L 55.82778532307174 0.9596586116210986  L 55.82778532307174 7.959360889197638  L 48.82761666355978 7.959360889197638  Z M 53.94909589624777 4.419689376271523  L 50.71167656431697 4.419689376271523  L 50.71167656431697 6.436510693197042  L 53.94909589624777 6.436510693197042  L 53.94909589624777 4.419689376271523  Z M 70.93566083459828 5.516300302684464  L 70.93566083459828 3.9549942936535505  L 74.43745395151483 3.9549942936535505  L 74.43745395151483 5.516300302684464  L 70.93566083459828 5.516300302684464  Z M 73 10.944772490448072  L 73 0.027043120130997866  L 75 0.027043120130997866  L 75 10.944772490448072  L 73 10.944772490448072  Z M 65.701645761764 14.696819332109364  L 65.701645761764 13.14146777154766  L 75.68853026550558 13.14146777154766  L 75.68853026550558 14.696819332109364  L 65.701645761764 14.696819332109364  Z M 65.701645761764 14.034386939909691  L 65.701645761764 10.012653202997072  L 67.60669933335109 10.012653202997072  L 67.60669933335109 14.034386939909691  L 65.701645761764 14.034386939909691  Z M 66.56897730198042 2.9692849699796557  C 66.56897730198042 2.9692849699796557  66.56897730198042 1.9525628938619561  66.56897730198042 1.9525628938619561  L 68.12104426868348 1.9525628938619561  C 68.12104426868348 1.9525628938619561  68.12104426868348 2.9692849699796557  68.12104426868348 2.9692849699796557  C 68.12104426868348 3.898454169354438  67.96555360653521 4.7814869325829275  67.65478948629864 5.618518334739245  C 67.34395870596025 6.455549736895561  66.88275620503337 7.187076179240528  66.27116011113773 7.812732595643328  C 65.65976402734643 8.438389012046128  64.89842806838256 8.912011254770148  63.98699990235502 9.233612861608695  C 63.98699990235502 9.233612861608695  63.029102642628246 7.69463603433732  63.029102642628246 7.69463603433732  C 63.61990114234571 7.488477672175049  64.13660111321953 7.221810492263481  64.57921670971923 6.8947551233067035  C 65.02183230621893 6.567699754349927  65.39129888549056 6.192937353222458  65.68773135202791 5.7703567707041135  C 65.9843637690718 5.34760679919708  66.20542420679186 4.897709190949006  66.35074077033013 4.420929886369275  C 66.49625731417382 3.9441505817895446  66.56897730198042 3.4602914353147636  66.56897730198042 2.9692849699796557  Z M 66.96517181078178 2.9640748275690965  C 66.96517181078178 2.9640748275690965  66.96517181078178 1.9525628938619561  66.96517181078178 1.9525628938619561  L 68.49575688175193 1.9525628938619561  C 68.49575688175193 1.9525628938619561  68.49575688175193 2.9640748275690965  68.49575688175193 2.9640748275690965  C 68.49575688175193 3.563478706741087  68.6199678051565 4.154769359129224  68.86827248275678 4.738252369374287  C 69.11671048056067 5.321566020916551  69.49394699944187 5.846429477582432  70.00022192041047 6.312707785441374  C 70.50649684137906 6.778816704311625  71.13691480389622 7.145603467458319  71.89136108226145 7.413040242147571  C 71.89136108226145 7.413040242147571  70.9549457182676 8.919763806877388  70.9549457182676 8.919763806877388  C 70.07571387483334 8.612321611255924  69.34005668631806 8.159510954576398  68.74792504416216 7.561157147819182  C 68.1559933525128 6.962600122732968  67.71092885398949 6.2654407164100885  67.41262993440033 5.4699052250285325  C 67.11433101481119 4.674200374944177  66.96517181078178 3.839045304882492  66.96517181078178 2.9640748275690965  Z M 63.56370891143601 2.6323624274301594  L 63.56370891143601 1.0879273557286757  L 71.45830559328203 1.0879273557286757  L 71.45830559328203 2.6323624274301594  L 63.56370891143601 2.6323624274301594  Z M 82.4201752283561 7.199672505334194  L 82.4201752283561 0.6616880861410213  L 84.30399101666178 0.6616880861410213  L 84.30399101666178 2.5341140276881853  L 87.54141034859258 2.5341140276881853  L 87.54141034859258 0.6616880861410213  L 89.42034388786806 0.6616880861410213  L 89.42034388786806 7.199672505334194  L 82.4201752283561 7.199672505334194  Z M 87.54141034859258 3.991713392547015  L 84.30399101666178 3.991713392547015  L 84.30399101666178 5.687738798193817  L 87.54141034859258 5.687738798193817  L 87.54141034859258 3.991713392547015  Z M 91.58000674638048 7.647992854661838  L 91.58000674638048 0.021832977720438643  L 93.47993395648584 0.021832977720438643  L 93.47993395648584 7.647992854661838  L 91.58000674638048 7.647992854661838  Z M 92.70438869803733 4.566813873864933  L 92.70438869803733 2.9841710911526818  L 95.48360895848313 2.9841710911526818  L 95.48360895848313 4.566813873864933  L 92.70438869803733 4.566813873864933  Z M 83.87069141523085 9.749665062273607  L 83.87069141523085 8.25956433285367  L 93.47993395648584 8.25956433285367  L 93.47993395648584 12.21505483054632  L 85.77598909926944 12.21505483054632  L 85.77598909926944 14.113779586165832  L 83.89705555999396 14.113779586165832  L 83.89705555999396 10.817744256438248  L 91.60661500359511 10.817744256438248  L 91.60661500359511 9.749665062273607  L 83.87069141523085 9.749665062273607  Z M 83.89705555999396 14.859574256934453  L 83.89705555999396 13.347640549794075  L 93.93764480306783 13.347640549794075  L 93.93764480306783 14.859574256934453  L 83.89705555999396 14.859574256934453  Z M 98.28553167691939 14.804991812633356  L 98.28553167691939 8.54289683918027  L 100.16422110374336 8.54289683918027  L 100.16422110374336 10.21460824691113  L 106.46842516399919 10.21460824691113  L 106.46842516399919 8.54289683918027  L 108.35834376359263 8.54289683918027  L 108.35834376359263 14.804991812633356  L 98.28553167691939 14.804991812633356  Z M 106.46842516399919 11.710415322780728  L 100.16422110374336 11.710415322780728  L 100.16422110374336 13.255098496501763  L 106.46842516399919 13.255098496501763  L 106.46842516399919 11.710415322780728  Z M 98.3233691069035 2.178087629633305  L 98.3233691069035 0.633900659951372  L 107.6833728351664 0.633900659951372  L 107.6833728351664 2.178087629633305  L 98.3233691069035 2.178087629633305  Z M 96.67072781017816 7.478291073289336  L 96.67072781017816 6  L 110 6  L 110 7.478291073289336  L 96.67072781017816 7.478291073289336  Z M 106.51749176675277 1.799980151838436  C 106.51749176675277 1.799980151838436  106.51749176675277 0.633900659951372  106.51749176675277 0.633900659951372  L 108.39032249474049 0.633900659951372  C 108.39032249474049 0.633900659951372  108.39032249474049 1.799980151838436  108.39032249474049 1.799980151838436  C 108.39032249474049 2.4217410152179575  108.37236948705707 3.085005724275697  108.33637364295669 3.789758348632958  C 108.2997112090128 4.494510972990218  108.17720451726451 5.324930298838883  107.96922851588506 6.281198828958468  C 107.96922851588506 6.281198828958468  106.05856035791324 6.385401677169652  106.05856035791324 6.385401677169652  C 106.28986699264131 5.4062680261623575  106.42426099156948 4.554350563404797  106.46159001535689 3.829950875800129  C 106.49891903914431 3.1055511881954607  106.51749176675277 2.4290239845843358  106.51749176675277 1.799980151838436  Z " fill-rule="nonzero" fill="#747483" stroke="none" transform="matrix(1 0 0 1 73 639 )" />
  </g>
</svg>