<?xml version="1.0" encoding="utf-8"?>
<svg version="1.1" xmlns:xlink="http://www.w3.org/1999/xlink" width="30px" height="30px" xmlns="http://www.w3.org/2000/svg">
  <defs>
    <mask fill="white" id="clip2420">
      <path d="M 0 15  C 0 6.715728759765625  6.715728759765625 0  15 0  C 23.284271240234375 0  30 6.715728759765625  30 15  C 30 23.284271240234375  23.284271240234375 30  15 30  C 6.715728759765625 30  0 23.284271240234375  0 15  Z " fill-rule="evenodd" />
    </mask>
  </defs>
  <g transform="matrix(1 0 0 1 -25 -435 )">
    <path d="M 0 15  C 0 6.715728759765625  6.715728759765625 0  15 0  C 23.284271240234375 0  30 6.715728759765625  30 15  C 30 23.284271240234375  23.284271240234375 30  15 30  C 6.715728759765625 30  0 23.284271240234375  0 15  Z " fill-rule="nonzero" fill="#ffffff" stroke="none" fill-opacity="0" transform="matrix(1 0 0 1 25 435 )" />
    <path d="M 0 15  C 0 6.715728759765625  6.715728759765625 0  15 0  C 23.284271240234375 0  30 6.715728759765625  30 15  C 30 23.284271240234375  23.284271240234375 30  15 30  C 6.715728759765625 30  0 23.284271240234375  0 15  Z " stroke-width="4" stroke="#fc4a36" fill="none" transform="matrix(1 0 0 1 25 435 )" mask="url(#clip2420)" />
  </g>
</svg>