<?xml version="1.0" encoding="utf-8"?>
<svg version="1.1" xmlns:xlink="http://www.w3.org/1999/xlink" width="93px" height="22px" xmlns="http://www.w3.org/2000/svg">
  <g transform="matrix(1 0 0 1 -169 -120 )">
    <path d="M 5.318283320050815 4.427752843261144  C 5.318283320050815 4.427752843261144  5.318283320050815 2.5869101050154693  5.318283320050815 2.5869101050154693  L 7.96128080294793 2.5869101050154693  C 7.96128080294793 2.5869101050154693  7.96128080294793 4.427752843261144  7.96128080294793 4.427752843261144  C 7.96128080294793 5.799857826304387  7.730588002927415 7.099711780231438  7.269038056386261 8.32729094949671  C 6.8081560362370475 9.55481780975274  6.112483541847698 10.630600564022398  5.182036249437794 11.554337879646171  C 4.250921000776485 12.477813416178945  3.0679983682784377 13.168284117367758  1.6332525861456766 13.625735326158003  C 1.6332525861456766 13.625735326158003  0 11.170399581681119  0 11.170399581681119  C 1.2457173280883826 10.772371202602102  2.257683291348741 10.221559266139387  3.035839126352252 9.518170726393308  C 3.813994961355764 8.814782186647227  4.388708789968686 8.01949122302272  4.760086165402855 7.1323369209987355  C 5.132131497088428 6.244933887880463  5.318283320050815 5.343388230594198  5.318283320050815 4.427752843261144  Z M 5.982396061010155 4.427752843261144  C 5.982396061010155 4.427752843261144  5.982396061010155 2.5869101050154693  5.982396061010155 2.5869101050154693  L 8.587479188530217 2.5869101050154693  C 8.587479188530217 2.5869101050154693  8.587479188530217 4.427752843261144  8.587479188530217 4.427752843261144  C 8.587479188530217 5.078341406318086  8.689272302335576 5.722552483053455  8.89299551024595 6.360386073467254  C 9.096718718156325 6.99797099129796  9.412391184786003 7.601236459658169  9.83987595969479 8.17007277005534  C 10.26802866099552 8.73897455448086  10.810423439820948 9.250818268437962  11.467013327231266 9.705586300056646  C 12.122935258390179 10.160354331675332  12.903653334159586 10.529843904150406  13.809386663300009 10.81426205934899  C 13.809386663300009 10.81426205934899  12.18127086078606 13.233169201272387  12.18127086078606 13.233169201272387  C 10.783930031542692 12.794827544313614  9.628424420321043 12.135501387332374  8.714675735601618 11.254760556015512  C 7.800927050882194 10.373692471579304  7.11685555617081 9.342810916580651  6.662652979097788 8.162403590570396  C 6.2091183582761715 6.981943838528504  5.982396061010155 5.737031897665749  5.982396061010155 4.427752843261144  Z M 0.8536845178446024 4.192165235957994  L 0.8536845178446024 2  L 12.971846322583698 2  L 12.971846322583698 4.192165235957994  L 0.8536845178446024 4.192165235957994  Z M 16 15.914266416837336  L 16 0.17015991982221446  L 19 0.17015991982221446  L 19 15.914266416837336  L 16 15.914266416837336  Z M 3.590856367323428 21.597368077040393  L 3.590856367323428 19  L 18.984329259151128 19  L 18.984329259151128 21.597368077040393  L 3.590856367323428 21.597368077040393  Z M 3.590856367323428 20.338663994073816  L 3.590856367323428 14.498104492570482  L 6.780065176394467 14.498104492570482  L 6.780065176394467 20.338663994073816  L 3.590856367323428 20.338663994073816  Z M 27.152059842345718 18.016340581288947  L 27.152059842345718 12.875354045927928  L 30.28990081509946 12.875354045927928  L 30.28990081509946 18.016340581288947  L 27.152059842345718 18.016340581288947  Z M 34.19238872274782 18.006035121356053  L 34.19238872274782 12.865048585995034  L 37.325337520614205 12.865048585995034  L 37.325337520614205 18.006035121356053  L 34.19238872274782 18.006035121356053  Z M 22.04829839110571 19.569349426990282  L 22.04829839110571 17  L 42.209684928156044 17  L 42.209684928156044 19.569349426990282  L 22.04829839110571 19.569349426990282  Z M 24.32951954108243 4  L 24.32951954108243 1.5594797158917602  L 39.94534178154072 1.5594797158917602  L 39.94534178154072 9  L 27.534627918537396 9  L 27.534627918537396 12.489738114950542  L 24.36376476529396 12.489738114950542  L 24.36376476529396 6.346485685650791  L 36.77447862829729 6.346485685650791  L 36.77447862829729 4  L 24.32951954108243 4  Z M 24.36376476529396 13.691163013638938  L 24.36376476529396 11  L 40.45045883866081 11  L 40.45045883866081 13.691163013638938  L 24.36376476529396 13.691163013638938  Z M 65 16.784478626519675  L 65 0.17015991982221446  L 69 0.17015991982221446  L 69 16.784478626519675  L 65 16.784478626519675  Z M 62.938563752140325 8.071811407904484  L 62.938563752140325 5.582204017604253  L 67.03820630774936 5.582204017604253  L 67.03820630774936 8.071811407904484  L 62.938563752140325 8.071811407904484  Z M 62.938563752140325 12.740424419364679  L 62.938563752140325 10.25632925181925  L 67.03820630774936 10.25632925181925  L 67.03820630774936 12.740424419364679  L 62.938563752140325 12.740424419364679  Z M 50.47354674788729 5  L 50.47354674788729 2.443352651531657  L 62.69199813781729 2.443352651531657  L 62.69199813781729 5  L 50.47354674788729 5  Z M 54.0323593696985 6.2237788138916725  C 54.82320619432192 5.860573022057742  55.71904953089739 5.679027408601682  56.71963103532624 5.679027408601682  C 57.73757916341591 5.679027408601682  58.641363445781444 5.860573022057742  59.43087435790204 6.2237788138916725  C 60.22038527002266 6.586749010394823  60.838398071211046 7.089477703957688  61.28525324895647 7.731970891977864  C 61.73277635309383 8.374235008665615  61.95670425224685 9.11917018379239  61.95670425224685 9.966338402544773  C 61.95670425224685 10.79681852605744  61.73277635309383 11.53627605854626  61.28525324895647 12.184888230423983  C 60.838398071211046 12.833304038727857  60.22038527002266 13.339909859672705  59.43087435790204 13.704823739596495  C 58.641363445781444 14.069475840429288  57.73757916341591 14.251732101616629  56.71963103532624 14.251732101616629  C 55.71904953089739 14.251732101616629  54.82320619432192 14.069475840429288  54.0323593696985 13.704823739596495  C 53.24084458882367 13.339909859672705  52.62165574271272 12.833304038727857  52.17480056496729 12.184888230423983  C 51.727277460829924 11.53627605854626  51.50359417042127 10.79681852605744  51.50359417042127 9.966338402544773  C 51.50359417042127 9.11917018379239  51.727277460829924 8.374235008665615  52.17480056496729 7.731970891977864  C 52.62165574271272 7.089477703957688  53.24084458882367 6.586749010394823  54.0323593696985 6.2237788138916725  Z M 58.321573702192794 8.564795851671096  C 57.908115769687804 8.235745092846843  57.37756656942524 8.07109242232777  56.72965999384533 8.07109242232777  C 56.08242131479789 8.07109242232777  55.553114119018 8.235745092846843  55.141660025407745 8.564795851671096  C 54.72953800540556 8.893912055268101  54.52328911964524 9.360680294356849  54.52328911964524 9.965379755109154  C 54.52328911964524 10.570079215861462  54.72953800540556 11.03389202518356  55.141660025407745 11.35685650790884  C 55.553114119018 11.679559211543122  56.08242131479789 11.840973462895988  56.72965999384533 11.840973462895988  C 57.37756656942524 11.840973462895988  57.908115769687804 11.679559211543122  58.321573702192794 11.35685650790884  C 58.735031634697805 11.03389202518356  58.94190147791025 10.570079215861462  58.94190147791025 9.965379755109154  C 58.94190147791025 9.360680294356849  58.735031634697805 8.893912055268101  58.321573702192794 8.564795851671096  Z M 55.14043698168591 3.9489084491698985  L 55.14043698168591 0.09658372913852456  L 58.34872527281765 0.09658372913852456  L 58.34872527281765 3.9489084491698985  L 55.14043698168591 3.9489084491698985  Z M 54.30387507594707 21.597368077040393  L 54.30387507594707 19  L 69.52196349806286 19  L 69.52196349806286 21.597368077040393  L 54.30387507594707 21.597368077040393  Z M 54.30387507594707 20.256699638328467  L 54.30387507594707 15.421042311211817  L 57.51216336707882 15.421042311211817  L 57.51216336707882 20.256699638328467  L 54.30387507594707 20.256699638328467  Z M 87 14.881084143099917  L 87 0.17015991982221446  L 90 0.17015991982221446  L 90 14.881084143099917  L 87 14.881084143099917  Z M 89.07549730535851 8.912305547082662  L 89.07549730535851 6.3361802257178965  L 93 6.3361802257178965  L 93 8.912305547082662  L 89.07549730535851 8.912305547082662  Z M 77.15277788736951 15.984247679637456  C 78.47931654834252 15.39499289269821  80.34240616221702 15.100374743997559  82.74233230492453 15.100374743997559  C 85.14225844763203 15.100374743997559  87.00652416614803 15.39499289269821  88.33506663615633 15.984247679637456  C 89.66294120963215 16.573502466576702  90.32691564154561 17.428799119191606  90.32691564154561 18.550307202928234  C 90.32691564154561 19.671880702182012  89.66294120963215 20.52737371837076  88.33506663615633 21.116366726219006  C 87.00652416614803 21.705556039129906  85.14225844763203 22  82.74233230492453 22  C 80.34240616221702 22  78.47931654834252 21.704664621058516  77.15277788736951 21.11397010762996  C 75.8262392263965 20.523275594201408  75.16288575193516 19.6718691169652  75.16288575193516 18.559654015425508  C 75.16288575193516 17.43199418156156  75.8262392263965 16.573502466576702  77.15277788736951 15.984247679637456  Z M 86.05360087743524 17.642228419538977  C 85.35025482877265 17.453488883787657  84.24654434282482 17.35918776417273  82.74233230492453 17.35918776417273  C 81.23812026702423 17.35918776417273  80.1344097810764 17.453488883787657  79.43106373241382 17.642228419538977  C 78.72771768375122 17.830706176199296  78.37606621795427 18.133365606335992  78.37606621795427 18.550307202928234  C 78.37606621795427 18.967248799520473  78.72771768375122 19.270125774283976  79.43106373241382 19.458865310035296  C 80.1344097810764 19.647343066695615  81.23812026702423 19.741666303542637  82.74233230492453 19.741666303542637  C 84.24654434282482 19.741666303542637  85.35025482877265 19.647343066695615  86.05360087743524 19.458865310035296  C 86.75694692609783 19.270125774283976  87.10884300063914 18.967248799520473  87.10884300063914 18.550307202928234  C 87.10884300063914 18.133365606335992  86.75694692609783 17.830706176199296  86.05360087743524 17.642228419538977  Z M 77.57448336266008 12.966665214170552  L 77.57448336266008 9.777005534010197  L 80.76369217173112 9.777005534010197  L 80.76369217173112 12.966665214170552  L 77.57448336266008 12.966665214170552  Z M 76.83698799839031 14.268029108022136  C 75.32208889934326 14.299442068684506  73.92069530451693 14.315242494226327  72.63289750893611 14.315242494226327  C 72.63289750893611 14.315242494226327  72.26329369619594 11.962002701642774  72.26329369619594 11.962002701642774  C 73.59584390371268 11.962002701642774  75.0386734793202 11.952592490436132  76.59164542778913 11.933482940433134  C 78.1452853922284 11.914307947485861  79.73072317961902 11.858952958743096  81.3478178532821 11.767397272212296  C 82.96558054291552 11.675907030454248  84.52422220676294 11.538529909817013  86.02375861062232 11.355418536755415  C 86.02375861062232 11.355418536755415  86.24610795925291 13.456294391912502  86.24610795925291 13.456294391912502  C 84.69781152538704 13.723239114598368  83.12149090786585 13.917623144977  81.5170871043848 14.039152032768312  C 79.9120154043713 14.160353696695875  78.35188709743738 14.236616147359767  76.83698799839031 14.268029108022136  Z M 72.83029676564115 4  L 72.83029676564115 2  L 85.46556145597437 2  L 85.46556145597437 4  L 72.83029676564115 4  Z M 75.20985063085385 5.336310950368207  C 76.19707324913031 4.782906207276189  77.51193458963061 4.5061222711229245  79.15441124253351 4.5061222711229245  C 80.80623904408037 4.5061222711229245  82.12351852356431 4.782906207276189  83.10606550779987 5.336310950368207  C 84.08861249203542 5.889473515619893  84.57983319261756 6.65481558207193  84.57983319261756 7.632511220532485  C 84.57983319261756 8.593813192091703  84.08861249203542 9.352222969061494  83.10606550779987 9.90738158525426  C 82.12351852356431 10.462474727418678  80.80927814051613 10.739966883088588  79.16346176607513 10.739966883088588  C 77.51831340760448 10.739966883088588  76.20127859658383 10.462474727418678  75.21205210955316 9.90738158525426  C 74.22349357877387 9.352222969061494  73.72923390119385 8.593813192091703  73.72923390119385 7.632511220532485  C 73.72923390119385 6.65481558207193  74.22262801257737 5.889473515619893  75.20985063085385 5.336310950368207  Z M 80.92195402933727 6.803760512440629  C 80.50515637529418 6.618476413881562  79.91586846984654 6.525752756111378  79.15441124253351 6.525752756111378  C 78.39362197147189 6.525752756111378  77.8048891534947 6.618476413881562  77.3880914994516 6.803760512440629  C 76.97129384540851 6.98880247704276  76.76287154884679 7.26261046062737  76.76287154884679 7.625561026624254  C 76.76287154884679 7.997346490664421  76.97129384540851 8.272970018150387  77.3880914994516 8.45215477798597  C 77.8048891534947 8.631077758730552  78.39362197147189 8.72057605995904  79.15441124253351 8.72057605995904  C 79.91586846984654 8.72057605995904  80.50515637529418 8.631077758730552  80.92195402933727 8.45215477798597  C 81.33875168338037 8.272970018150387  81.54717397994209 7.997346490664421  81.54717397994209 7.625561026624254  C 81.54717397994209 7.26261046062737  81.33875168338037 6.98880247704276  80.92195402933727 6.803760512440629  Z M 77.57448336266008 2.6973942219704563  L 77.57448336266008 0  L 80.76369217173112 0  L 80.76369217173112 2.6973942219704563  L 77.57448336266008 2.6973942219704563  Z " fill-rule="nonzero" fill="#26262c" stroke="none" transform="matrix(1 0 0 1 169 120 )" />
  </g>
</svg>