<?xml version="1.0" encoding="utf-8"?>
<svg version="1.1" xmlns:xlink="http://www.w3.org/1999/xlink" width="62px" height="15px" xmlns="http://www.w3.org/2000/svg">
  <g transform="matrix(1 0 0 1 -73 -544 )">
    <path d="M 5.72572451286681 9.312757405845284  L 5.72572451286681 7.167667344812187  L 7.630780561396007 7.167667344812187  L 7.630780561396007 9.312757405845284  L 5.72572451286681 9.312757405845284  Z M 0 7.574802758894457  L 0 6  L 13.383509734744544 6  L 13.383509734744544 7.574802758894457  L 0 7.574802758894457  Z M 1.6782169004826786 5.123802907755669  L 1.6782169004826786 0.47114573512628394  L 11.678042676866667 0.47114573512628394  L 11.678042676866667 5.123802907755669  L 1.6782169004826786 5.123802907755669  Z M 9.794099362895913 3.6334540763161813  L 9.794099362895913 1.9669528109958814  L 3.5513583502607413 1.9669528109958814  L 3.5513583502607413 3.6334540763161813  L 9.794099362895913 3.6334540763161813  Z M 1.554731953007139 10.09576737954647  L 1.554731953007139 8.654542747977969  L 11.732051997830125 8.654542747977969  L 11.732051997830125 12.36143502208108  L 3.4654344305461513 12.36143502208108  L 3.4654344305461513 13.820522999057212  L 1.5814911165753973 13.820522999057212  L 1.5814911165753973 11.007542301394334  L 9.848108683859369 11.007542301394334  L 9.848108683859369 10.09576737954647  L 1.554731953007139 10.09576737954647  Z M 1.5814911165753973 14.859574256934453  L 1.5814911165753973 13.391306505234953  L 12.139331377277282 13.391306505234953  L 12.139331377277282 14.859574256934453  L 1.5814911165753973 14.859574256934453  Z M 26 15  L 26 0  L 27 0  L 27 15  L 26 15  Z M 15.621950591766351 11.482905770852975  L 15.621950591766351 9.895052845730165  C 15.621950591766351 9.895052845730165  16.91007289674479 9.895052845730165  16.91007289674479 9.895052845730165  C 17.775990137371856 9.895052845730165  18.597723447665107 9.88146347176885  19.375352901813116 9.854364114523893  C 20.153116432278367 9.827264757278936  20.92337840178416 9.776574667053874  21.686460845222115 9.702525678559024  C 22.449543288660074 9.628341190987578  23.233074378326087 9.52450937522775  24.03684829478636 9.390909542003671  C 24.03684829478636 9.390909542003671  24.230299862600923 10.951719346995485  24.230299862600923 10.951719346995485  C 22.9978242039478 11.16851420495514  21.80165727507954 11.311426919393787  20.64138048457923 11.380191534759094  C 19.48110369407892 11.44875290908098  18.2373388934239 11.482905770852975  16.91007289674479 11.482905770852975  C 16.91007289674479 11.482905770852975  15.621950591766351 11.482905770852975  15.621950591766351 11.482905770852975  Z M 15.595191428198092 2.8663226318662236  L 15.595191428198092 1.3109710713045204  L 22.54275407940637 1.3109710713045204  L 22.54275407940637 6.974147769562844  L 17.55965772978709 6.974147769562844  L 17.55965772978709 10.492978712846723  L 15.621950591766351 10.492978712846723  L 15.621950591766351 5.44062918672158  L 20.59424507719294 5.44062918672158  L 20.59424507719294 2.8663226318662236  L 15.595191428198092 2.8663226318662236  Z M 44 14.967498635438893  L 44 0.010916488860219321  L 46 0.010916488860219321  L 46 14.967498635438893  L 44 14.967498635438893  Z M 37.55513583502607 4.720389023966655  C 37.55513583502607 4.720389023966655  37.55513583502607 3.808614102118791  37.55513583502607 3.808614102118791  L 39.07819868619555 3.808614102118791  C 39.07819868619555 3.808614102118791  39.07819868619555 4.720389023966655  39.07819868619555 4.720389023966655  C 39.07819868619555 5.511690244919335  38.98710021178749 6.289574755561362  38.804960621503156 7.054284721877637  C 38.622955107536065 7.818791469864909  38.35413466869919 8.533837481159752  37.99850326075336 9.199126680891183  C 37.64300592912477 9.864415880622612  37.20846266699111 10.453749216443427  36.69516014713976 10.967349774227161  C 36.18199170360566 11.480679333857706  35.5979559849184 11.885702912756475  34.94280317878906 12.182305363965662  C 34.94280317878906 12.182305363965662  33.90975216690622 10.691708430506624  33.90975216690622 10.691708430506624  C 34.503834259406716 10.42051163215658  35.02615873089233 10.06885500360717  35.47651346867341 9.637026745397709  C 35.92700228277174 9.205130737649947  36.30677956481496 8.721856593446851  36.615619147175394 8.18711854314494  C 36.92465981404382 7.652414352469235  37.158505648381755 7.089089813027993  37.3172493258734 6.496799483947799  C 37.475925965206415 5.904509154867607  37.55513583502607 5.312340575069468  37.55513583502607 4.720389023966655  Z M 37.96487018360793 4.720389023966655  C 37.96487018360793 4.720389023966655  37.96487018360793 3.808614102118791  37.96487018360793 3.808614102118791  L 39.46608380947856 3.808614102118791  C 39.46608380947856 3.808614102118791  39.46608380947856 4.720389023966655  39.46608380947856 4.720389023966655  C 39.46608380947856 5.279821341832636  39.54636260378633 5.843945125938911  39.70691628159288 6.4126928993202  C 39.86746995939943 6.98144067270149  40.10400981669027 7.523155320295831  40.416402361521925 8.038009229395128  C 40.72879490635357 8.552896998120627  41.1136921416039 9.0174074882326  41.57121984248601 9.431350171190394  C 42.02888158971749 9.845292854148187  42.55487934473236 10.182256948940216  43.149028505359354 10.442614002877983  C 43.149028505359354 10.442614002877983  42.126533860755735 11.927504589887363  42.126533860755735 11.927504589887363  C 41.47144806281714 11.641945131705343  40.88538591574989 11.251410837949065  40.368530463395224 10.755966853570188  C 39.8518090873578 10.260590618729609  39.413993811674295 9.692045972819647  39.054876479415874 9.05026546916092  C 38.695893223474705 8.408349466425594  38.42444576987566 7.718501982780945  38.24056321743503 6.981094626110257  C 38.05674770315302 6.243483990538785  37.96487018360793 5.490010756094781  37.96487018360793 4.720389023966655  Z M 34.38257922224994 4.026199573264527  L 34.38257922224994 2.4978911328338214  L 42.58512209511817 2.4978911328338214  L 42.58512209511817 4.026199573264527  L 34.38257922224994 4.026199573264527  Z M 37.5499803998432 3.302485982235895  L 37.5499803998432 0.3369225425494964  L 39.47123924466143 0.3369225425494964  L 39.47123924466143 3.302485982235895  L 37.5499803998432 3.302485982235895  Z M 52.08437966493631 12.314791842405597  L 52.08437966493631 8.749069617426686  L 53.96292204681072 8.749069617426686  L 53.96292204681072 12.314791842405597  L 52.08437966493631 12.314791842405597  Z M 56.77778965666069 12.304123455564929  L 56.77778965666069 8.738401230586017  L 58.65068560952528 8.738401230586017  L 58.65068560952528 12.304123455564929  L 56.77778965666069 12.304123455564929  Z M 48.595623027610486 13  L 48.595623027610486 11.69528109958815  L 62 11.69528109958815  L 62 13  L 48.595623027610486 13  Z M 50.144463054694334 2.5626457599364856  L 50.144463054694334 1  L 60.451159972916145 1  L 60.451159972916145 5.857192477546767  L 52.06596739642604 5.857192477546767  L 52.06596739642604 8.520567657420731  L 50.171467715176064 8.520567657420731  L 50.171467715176064 4.340048627995832  L 58.55666029166617 4.340048627995832  L 58.55666029166617 2.5626457599364856  L 50.144463054694334 2.5626457599364856  Z M 50.171467715176064 9  L 50.171467715176064 7.710266461568996  L 60.788963725851225 7.710266461568996  L 60.788963725851225 9  L 50.171467715176064 9  Z " fill-rule="nonzero" fill="#747483" stroke="none" transform="matrix(1 0 0 1 73 544 )" />
  </g>
</svg>