<?xml version="1.0" encoding="utf-8"?>
<svg version="1.1" xmlns:xlink="http://www.w3.org/1999/xlink" width="33px" height="12px" xmlns="http://www.w3.org/2000/svg">
  <g transform="matrix(1 0 0 1 -73 -338 )">
    <path d="M 4.365999642665714 6.298023314749113  C 4.525195635832568 6.531161076757912  4.604788279435412 6.830168888886689  4.604788279435412 7.195134313228586  C 4.604788279435412 7.620858116555926  4.501609893575276 7.978674786621342  4.295247453993211 8.26862645717182  C 4.0888850144111455 8.558508925672358  3.7940867473254016 8.776508468573793  3.4108450955869216 8.922453117080588  C 3.0276101613142714 9.068466967637322  2.5706657939922475 9.141409021794221  2.0400214400571737 9.141409021794221  C 1.5879923084580048 9.141409021794221  1.196892871076302 9.104937994715772  0.8667143112381632 9.031931069437405  C 0.5365397698840478 8.958924144159038  0.24763224051214658 8.855508842023568  0 8.721743537759757  C 0 8.721743537759757  0 7.791180942726813  0 7.791180942726813  C 0.2633552789815903 7.925015449040563  0.577806781866262 8.046631663690288  0.943362515633375 8.15610745058287  C 1.3089142309164647 8.26558323747545  1.682329399704571 8.320324379118095  2.063605502948008 8.320324379118095  C 2.6217608183478593 8.320324379118095  3.0266214043237447 8.227112961008775  3.2781847418259784 8.040547389761784  C 3.5297480793282117 7.854051020564732  3.6555297480793283 7.600614707239134  3.6555297480793283 7.280283831728333  C 3.6555297480793283 7.097801119557385  3.60541759543447 6.936611185204361  3.505181347150259 6.796756208819057  C 3.4049518088347064 6.656832030383814  3.2369109524005606 6.521013417463887  3.001072002858674 6.389254941713126  C 2.765233053316788 6.257496465962367  2.438989369043265 6.112508194735373  2.0223333928890477 5.954384186517993  C 1.6096152311907466 5.792177334692172  1.2529085890957556 5.631022001364118  0.9522065392174379 5.470856563608718  C 0.6515112068049499 5.310698055338872  0.41959840611983823 5.115057116284687  0.25647668393782386 4.883933096806893  C 0.09335362725924952 4.652816006814654  0.011792031445417187 4.352760125463286  0.011792031445417187 3.983781044095286  C 0.011792031445417187 3.420167562385169  0.2328950801193022 2.9873265586887827  0.6750938002501341 2.685250886974151  C 1.1172951893740857 2.383175215259519  1.6980495892487746 2.232133806386214  2.4173664463105236 2.232133806386214  C 2.8065047435341337 2.232133806386214  3.1710777780254418 2.271665995578988  3.5110773628729675 2.3507349214394324  C 3.8510836651863234 2.429796925548122  4.168485215163048 2.536238796506747  4.463283902090406 2.670045615813482  C 4.463283902090406 2.670045615813482  4.1331070216187245 3.4789660415610744  4.1331070216187245 3.4789660415610744  C 3.865819296156144 3.3613799105304425  3.5808456227335097 3.262039238706918  3.2781847418259784 3.180942726811961  C 2.9755238609184467 3.0998462149170045  2.666964445238521 3.0593005575266092  2.352510273360729 3.0593005575266092  C 1.9004811417615604 3.0593005575266092  1.5535990933296784 3.136337999516916  1.3118634983026622 3.2904206791687787  C 1.0701279032756457 3.4444964293350857  0.9492585313560836 3.655346320839141  0.9492585313560836 3.9229599594526103  C 0.9492585313560836 4.129752946516251  1.0052721501674655 4.300050251144355  1.1172949794532785 4.43385707045109  C 1.2293178087390915 4.567663889757824  1.4091481775689685 4.6933616642050495  1.656780418081115 4.810947795235681  C 1.9044126585932615 4.928533926266313  2.230656342866784 5.066393319084991  2.6355190280507417 5.2245311708058795  C 3.040374995768869 5.378613850457742  3.3902111397655132 5.537763004912016  3.685009826692871 5.701976685250887  C 3.979815231086059 5.866183451571805  4.20681036696469 6.064885552740314  4.365999642665714 6.298023314749113  Z M 7.520368054314812 8.00405473897618  C 7.707075008946443 8.210826968518358  7.955690968349743 8.314242270653827  8.266214043237449 8.314242270653827  C 8.427368867433517 8.314242270653827  8.592455628302899 8.300039872383625  8.761479363944972 8.271667511403953  C 8.93049638212121 8.243295150424283  9.068074280733889 8.208823380467859  9.174200464534572 8.168271667511403  C 9.174200464534572 8.168271667511403  9.174200464534572 8.952863659401926  9.174200464534572 8.952863659401926  C 9.060212086753715 9.005594728202066  8.902002541448509 9.05013198195166  8.69957119885653 9.086670045615815  C 8.497146573730383 9.123138907230027  8.29962521884108 9.141409021794221  8.107021618724316 9.141409021794221  C 7.765049767915917 9.141409021794221  7.4545254335033695 9.079566681016477  7.175451134536359 8.955904713634059  C 6.896370118103517 8.832242746251644  6.673304819690132 8.622447845721934  6.506253350008933 8.32640648758236  C 6.339195162861905 8.03043433149273  6.2556726817938175 7.620909994891979  6.2556726817938175 7.097820577800304  C 6.2556726817938175 7.097820577800304  6.2556726817938175 3.144450076026356  6.2556726817938175 3.144450076026356  L 5.335894229051278 3.144450076026356  L 5.335894229051278 2.651799290420679  L 6.261568697516526 2.2564622402432843  L 6.650705735215294 0.8089204257475925  L 7.2403073074861535 0.8089204257475925  L 7.2403073074861535 2.3537759756715664  L 9.132928354475613 2.3537759756715664  L 9.132928354475613 3.144450076026356  L 7.2403073074861535 3.144450076026356  C 7.2403073074861535 3.144450076026356  7.2403073074861535 7.067410035478966  7.2403073074861535 7.067410035478966  C 7.2403073074861535 7.4851065247541015  7.33366109968318 7.797282509433999  7.520368054314812 8.00405473897618  Z M 11.46480257280686 2.657881398884947  C 11.891252734095833 2.37405400148093  12.39344394200611 2.232133806386214  12.971234589958906 2.232133806386214  C 13.52158810859368 2.232133806386214  13.993235809069905 2.3578315808334387  14.38627836340897 2.6092245311708058  C 14.779320917748034 2.860617481508173  15.080007238560157 3.212367170423768  15.288368768983386 3.6644703497212365  C 15.496663214714374 4.116573529018705  15.600857602286938 4.644701331748131  15.600857602286938 5.24885960466295  C 15.600857602286938 5.24885960466295  15.600857602286938 5.8753167764825145  15.600857602286938 5.8753167764825145  C 15.600857602286938 5.8753167764825145  11.137573700196533 5.8753167764825145  11.137573700196533 5.8753167764825145  C 11.149380406418379 6.657909488049608  11.338052899236443 7.253925862918937  11.70359120957656 7.6634566649771925  C 12.069129519916675 8.072987467035446  12.584085922145793 8.27774961986822  13.248347328926211 8.27774961986822  C 13.657154516043228 8.27774961986822  14.018726522675024 8.239279335667744  14.333214221904592 8.162189559047137  C 14.647634866430607 8.085168984476468  14.973918795521735 7.971618992630987  15.311952831874219 7.821591485048151  C 15.311952831874219 7.821591485048151  15.311952831874219 8.70957932083122  15.311952831874219 8.70957932083122  C 14.985725491434968 8.859606828414059  14.662449307669181 8.969089103965548  14.342058245488655 9.038013177901671  C 14.021734268000367 9.106937251837799  13.643386679971902 9.141409021794221  13.20707521886725 9.141409021794221  C 12.586015634160182 9.141409021794221  12.044526081586152 9.01062314883743  11.582722887261033 8.749113025848962  C 11.120852608243675 8.487533700810552  10.762221292233667 8.103380716578101  10.506700017866715 7.596553471870248  C 10.251245828192 7.089726227162396  10.123458995890656 6.4693451314424415  10.123458995890656 5.735428281804359  C 10.123458995890656 5.0177390499279335  10.240418652753776 4.396351353625507  10.474271931391817 3.8712620375063356  C 10.708125210029856 3.346172721387164  11.038285326825651 2.941715725774518  11.46480257280686 2.657881398884947  Z M 13.867428979810612 3.311708058793715  C 13.631563190394093 3.1434322769002625  13.32893877572964 3.0593005575266092  12.959442558513489 3.0593005575266092  C 12.43666039855859 3.0593005575266092  12.020017017652803 3.2356786713404393  11.709487225299268 3.588443993917892  C 11.398957432945734 3.9412023870097883  11.21416111002655 4.433851873336923  11.15526174736466 5.066396350734921  C 11.15526174736466 5.066396350734921  14.574950866535643 5.066396350734921  14.574950866535643 5.066396350734921  C 14.570992936699524 4.669031064883743  14.511042770922813 4.319315241848945  14.395122386993032 4.017232640648759  C 14.279134918371012 3.7151569689341266  14.103227684534893 3.4799769112016126  13.867428979810612 3.311708058793715  Z M 19.371359656959086 2.3811454637607703  C 19.632717179596074 2.2818075993069526  19.942292611982772 2.232133806386214  20.29998213328569 2.232133806386214  C 21.105789841595175 2.232133806386214  21.748398936729846 2.5179942034853333  22.227979274611396 3.0897110998479476  C 22.707492527800714 3.661427996210562  22.947293192781846 4.5210360620327545  22.947293192781846 5.668525088697415  C 22.947293192781846 6.426772970749651  22.83721746894873 7.063383416602651  22.617116312310163 7.578307146477446  C 22.3970151556716 8.09330007840218  22.087506837965826 8.482555020115306  21.68849383598356 8.746071971616828  C 21.28954791869354 9.009658125168288  20.81883571530019 9.141409021794221  20.276398070394855 9.141409021794221  C 19.934406097177654 9.141409021794221  19.633719791359876 9.094803312739561  19.37430766482044 9.001520527116067  C 19.114895538281008 8.908306943542511  18.892805996762444 8.782623012598794  18.708057888154368 8.624429802331475  C 18.52330977954629 8.466305794114096  18.36999240116667 8.29394695206578  18.248168661783097 8.107450582868728  C 18.248168661783097 8.107450582868728  18.177416473110593 8.107450582868728  18.177416473110593 8.107450582868728  C 18.189156095577346 8.265574591086107  18.203926532166715 8.456134345648678  18.221636591030908 8.679168778509883  C 18.2393466498951 8.902134009321149  18.248168661783097 9.096761480177712  18.248168661783097 9.263051191079574  C 18.248168661783097 9.263051191079574  18.248168661783097 12  18.248168661783097 12  L 17.263534036090764 12  L 17.263534036090764 2.3537759756715664  L 18.071288190101843 2.3537759756715664  L 18.20100053600143 3.33907754688292  C 18.20100053600143 3.33907754688292  18.248168661783097 3.33907754688292  18.248168661783097 3.33907754688292  C 18.373950330534218 3.136346645906258  18.52726770141667 2.950840404295885  18.708057888154368 2.782564622402433  C 18.888848074892067 2.6142957699945355  19.10993504962986 2.4804902422325417  19.371359656959086 2.3811454637607703  Z M 21.493925317134178 3.780030410542321  C 21.197147676768804 3.3157617150377754  20.742208443008323 3.08362899138368  20.12899767732714 3.08362899138368  C 19.68094660500149 3.08362899138368  19.32031012544126 3.1728349812309933  19.04707879221011 3.3512417638114544  C 18.773914543671204 3.5296554758774707  18.574414865106306 3.796253047736236  18.44863319635519 4.151039026862646  C 18.322851527604076 4.50583193547461  18.256017437700248 4.950841487028003  18.248168661783097 5.486061834769387  C 18.248168661783097 5.486061834769387  18.248168661783097 5.68068930562595  18.248168661783097 5.68068930562595  C 18.248168661783097 6.244330443407882  18.30811882802838 6.720729853015713  18.42799714132571 7.10998479472884  C 18.54787545462304 7.499239736441966  18.74637254391565 7.795283260045775  19.023494729319278 7.99797263051191  C 19.300616914722905 8.200731203027988  19.673083151496478 8.302078053725293  20.140789708772555 8.302078053725293  C 20.54174813684106 8.302078053725293  20.875851496045073 8.190596521051777  21.143112381633017 7.967562088190572  C 21.410440351913206 7.7445968573793085  21.60987296078021 7.433385896368554  21.74155797748794 7.033958438925495  C 21.873175909503434 6.634600183532374  21.93907450419868 6.175388249176381  21.93907450419868 5.6563608717688805  C 21.93907450419868 4.869740644204574  21.790635902795998 4.244299106046867  21.493925317134178 3.780030410542321  Z M 33 8.095286365940193  L 33 9.01976685250887  L 27.35161693764517 9.01976685250887  L 27.35161693764517 8.174353775975671  C 27.35161693764517 8.174353775975671  29.656959085224226 5.759756715661429  29.656959085224226 5.759756715661429  C 30.085354672599436 5.313729364981944  30.445991152159674 4.916366677687849  30.738877970341257 4.567663456664977  C 31.031697703830595 4.218953306156552  31.254789827124274 3.8753182923074787  31.40807575486868 3.5367460719716166  C 31.56136168261309 3.1981807811213097  31.638020368054317 2.8261547987677393  31.638020368054317 2.4206791687785096  C 31.638020368054317 1.9178932681037761  31.493525009059855 1.533705667378754  31.204663212435236 1.2681196147997973  C 30.915734331118372 1.0025335622208407  30.535448664231918 0.8697415103902686  30.063784170091118 0.8697415103902686  C 29.651019046109383 0.8697415103902686  29.28550379706937 0.9427250795900912  28.967125245667322 1.0886974151039026  C 28.648746694265274 1.2346628211321593  28.32246273518546 1.4414588398457298  27.988386635697694 1.7090724784591993  C 27.988386635697694 1.7090724784591993  27.463641236376628 1.0278763304612266  27.463641236376628 1.0278763304612266  C 27.691591167058053 0.8291936875356374  27.94021382893284 0.652808644236252  28.209487225299267 0.49873289406994425  C 28.478760621665696 0.3446502144180816  28.767684254962376 0.22301324224689556  29.076201536537432 0.1338063862138875  C 29.384785902804722 0.04460645193263352  29.71394340783672 0  30.063784170091118 0  C 30.594415089094532 0  31.05236203819167 0.0952867990330398  31.43755583348222 0.28585909782057783  C 31.822749628772772 0.47643139660811584  32.1204952589631 0.7481032389405411  32.33080221547257 1.100861632032438  C 32.54110917198204 1.4536269546098897  32.646239056637484 1.8732928717372022  32.646239056637484 2.3598580841358334  C 32.646239056637484 2.830209537743918  32.55587960482283 3.2671044142307872  32.37502233339289 3.6705524581855045  C 32.19423214665519 4.074000502140221  31.94066364560273 4.4733901258295585  31.61443630516348 4.868727825646224  C 31.28820896472423 5.26406552546289  30.906920716062665 5.682745661399598  30.470609254958013 6.124683223517486  C 30.470609254958013 6.124683223517486  28.59567625513668 8.05271160669032  28.59567625513668 8.05271160669032  L 28.59567625513668 8.095286365940193  L 33 8.095286365940193  Z " fill-rule="nonzero" fill="#747483" stroke="none" transform="matrix(1 0 0 1 73 338 )" />
  </g>
</svg>