<?xml version="1.0" encoding="utf-8"?>
<svg version="1.1" xmlns:xlink="http://www.w3.org/1999/xlink" width="129px" height="15px" xmlns="http://www.w3.org/2000/svg">
  <g transform="matrix(1 0 0 1 -73 -733 )">
    <path d="M 6.379666045285077 3.6588194650083903  L 6.379666045285077 2.1172638436482085  L 10.773216559061561 2.1172638436482085  L 10.773216559061561 3.6588194650083903  L 6.379666045285077 3.6588194650083903  Z M 6.379666045285077 7.000542888165038  L 6.379666045285077 5.453805152502221  L 10.773216559061561 5.453805152502221  L 10.773216559061561 7.000542888165038  L 6.379666045285077 7.000542888165038  Z M 1.8961819132490678 1.4013917678412793  C 2.4800987191619552 1.0885618309809466  3.1350546636786953 0.9320402724311518  3.8612803491861416 0.9320402724311518  C 4.594679887006205 0.9320402724311518  5.251586316032302 1.0885618309809466  5.8319996362644355 1.4013917678412793  C 6.41241295649657 1.714221704701612  6.872767514420215 2.1410212857080064  7.212773938346822 2.6821143026354752  C 7.5529471835602715 3.2232073195629445  7.723049468036738 3.8462158901977843  7.723049468036738 4.550883427104925  C 7.723049468036738 5.251844814858942  7.5529471835602715 5.872962205363643  7.212773938346822 6.414223669923996  C 6.872767514420215 6.955316686851464  6.41241295649657 7.381221194008874  5.8319996362644355 7.692231763893001  C 5.251586316032302 8.003208626176772  4.594679887006205 8.15886881847794  3.8612803491861416 8.15886881847794  C 3.1350546636786953 8.15886881847794  2.4800987191619552 8.003208626176772  1.8961819132490678 7.692231763893001  C 1.3122651073361806 7.381221194008874  0.850204390071138 6.955316686851464  0.5100311448576884 6.414223669923996  C 0.17002472093108134 5.872962205363643  0 5.251844814858942  0 4.550883427104925  C 0 3.8462158901977843  0.17002472093108134 3.2232073195629445  0.5100311448576884 2.6821143026354752  C 0.850204390071138 2.1410212857080064  1.3122651073361806 1.714221704701612  1.8961819132490678 1.4013917678412793  Z M 4.921177366554515 2.799575560161879  C 4.612368790509539 2.640044084601101  4.259011114858829 2.560458000197414  3.8612803491861416 2.560458000197414  C 3.4707234059939376 2.560458000197414  3.1211116915997064 2.640044084601101  2.8121362644357553 2.799575560161879  C 2.503327688390779 2.9589385730282904  2.2590607975009918 3.187673484193009  2.079714922251523 3.4853420195439737  C 1.9003690470020542 3.7830105548949384  1.8108916068018552 4.138156814432111  1.8108916068018552 4.550883427104925  C 1.8108916068018552 4.956366279473276  1.9003690470020542 5.307898536014152  2.079714922251523 5.605567071365117  C 2.2590607975009918 5.903235606716082  2.503327688390779 6.132663436496544  2.8121362644357553 6.294047971572401  C 3.1211116915997064 6.455264043953892  3.4707234059939376 6.535879972362057  3.8612803491861416 6.535879972362057  C 4.259011114858829 6.535879972362057  4.612368790509539 6.455264043953892  4.921177366554515 6.294047971572401  C 5.230152793718466 6.132663436496544  5.472546689063948 5.903235606716082  5.648222242429754 5.605567071365117  C 5.824064617082402 5.307898536014152  5.911913476402655 4.956366279473276  5.911913476402655 4.550883427104925  C 5.911913476402655 4.138156814432111  5.824064617082402 3.7830105548949384  5.648222242429754 3.4853420195439737  C 5.472546689063948 3.187673484193009  5.230152793718466 2.9589385730282904  4.921177366554515 2.799575560161879  Z M 10.167875329635354 8.857960714638239  L 10.167875329635354 0.12387720856776231  L 12.080675411475857 0.12387720856776231  L 12.080675411475857 8.857960714638239  L 10.167875329635354 8.857960714638239  Z M 4.464422115122306 9.5180633698549  C 5.212169297903334 9.28612786329648  6.100577254268032 9.170368176882835  7.129438710557425 9.170368176882835  C 8.15846698813366 9.170368176882835  9.0458216912163 9.28612786329648  9.791767072838047 9.5180633698549  C 10.53784592342212 9.749864106257828  11.114715484594164 10.081614595141536  11.522256069837228 10.513276083308655  C 11.929996858523783 10.944668061287755  12.133951304901338 11.46611524044779  12.133951304901338 12.077287533313593  C 12.133951304901338 12.688459826179393  11.929996858523783 13.212412844616384  11.522256069837228 13.649195538446351  C 11.114715484594164 14.086180357386594  10.53784592342212 14.41882592011929  9.791767072838047 14.647122692725299  C 9.0458216912163 14.87535208025356  8.15846698813366 14.989389004046984  7.129438710557425 14.989389004046984  C 6.100577254268032 14.989389004046984  5.212169297903334 14.87535208025356  4.464422115122306 14.647122692725299  C 3.7166749323412778 14.41882592011929  3.1389856736551818 14.086180357386594  2.731244884968628 13.649195538446351  C 2.3235040962820737 13.212412844616384  2.119549649904519 12.688459826179393  2.119549649904519 12.077287533313593  C 2.119549649904519 11.46611524044779  2.3235040962820737 10.944668061287755  2.731244884968628 10.513276083308655  C 3.1389856736551818 10.081614595141536  3.7166749323412778 9.749864106257828  4.464422115122306 9.5180633698549  Z M 8.838177457488406 10.824449708814528  C 8.374547510371704 10.716972332247364  7.805113906631408 10.663063863389596  7.129438710557425 10.663063863389596  C 6.4611041880829 10.663063863389596  5.892279279181077 10.716972332247364  5.423143811948713 10.824449708814528  C 4.9540083447163505 10.931927085381695  4.598711908584487 11.089623273978075  4.357137173774666 11.297502714440824  C 4.1157292751677526 11.505382154903575  3.994958852414295 11.765299894863615  3.994958852414295 12.077287533313593  C 3.994958852414295 12.385703822888905  4.1157292751677526 12.646449251620183  4.357137173774666 12.859786793011548  C 4.598711908584487 13.072989564247422  4.9540083447163505 13.233438359468503  5.423143811948713 13.340983121113414  C 5.892279279181077 13.44825834997808  6.4611041880829 13.501875431842858  7.129438710557425 13.501875431842858  C 7.805113906631408 13.501875431842858  8.374547510371704 13.44825834997808  8.838177457488406 13.340983121113414  C 9.3020076080486 13.233438359468503  9.654789046221367 13.072989564247422  9.89636378103119 12.859786793011548  C 10.137938515841013 12.646449251620183  10.258786487223787 12.385703822888905  10.258786487223787 12.077287533313593  C 10.258786487223787 11.765299894863615  10.137938515841013 11.505382154903575  9.89636378103119 11.297502714440824  C 9.654789046221367 11.089623273978075  9.3020076080486 10.931927085381695  8.838177457488406 10.824449708814528  Z M 20.210136855506047 1.3135425920442207  C 20.210136855506047 1.3135425920442207  20.210136855506047 0.5707728753331359  20.210136855506047 0.5707728753331359  L 21.876597026461763 0.5707728753331359  C 21.876597026461763 0.5707728753331359  21.876597026461763 1.3135425920442207  21.876597026461763 1.3135425920442207  C 21.876597026461763 1.8815891581030684  21.78407162233321 2.4264995381787644  21.599220241884147 2.9478827361563518  C 21.414502330397415 3.469265934133939  21.147010542364935 3.9539012206693873  20.796660452850777 4.401835949067219  C 20.446377097817784 4.8496021997092  20.024750555083024 5.251495418561762  19.531724561243976 5.607787977494818  C 19.038698567404925 5.964080536427873  18.481398169404866 6.2638423318348  17.85964353914704 6.5067614253282  C 17.23802237785154 6.749512056127234  16.563419766281697 6.928500641534859  15.835892743475494 7.043727174020334  C 15.835892743475494 7.043727174020334  15.091252159679913 5.501678017964663  15.091252159679913 5.501678017964663  C 15.729690111907296 5.415258116717871  16.31436083548132 5.2732826679483145  16.844957715740655 5.075510808409831  C 17.375621300649023 4.877738948871348  17.849771042265566 4.641149609548508  18.26752182413385 4.3660546836442595  C 18.685472809445635 4.090959757740012  19.038198312369325 3.7862527501064185  19.325952532508868 3.45202842759846  C 19.613706752648405 3.117804105090502  19.83319677443269 2.769415993502693  19.9840808856961 2.4067219425525614  C 20.134831527997182 2.04402789160243  20.210136855506047 1.6796058366357745  20.210136855506047 1.3135425920442207  Z M 20.5640060925707 1.3135425920442207  C 20.5640060925707 1.3135425920442207  20.5640060925707 0.5707728753331359  20.5640060925707 0.5707728753331359  L 22.224845412385196 0.5707728753331359  C 22.224845412385196 0.5707728753331359  22.224845412385196 1.3135425920442207  22.224845412385196 1.3135425920442207  C 22.224845412385196 1.6760681652385006  22.30110390637044 2.037815933295316  22.45358961534964 2.398825387424736  C 22.606275527772336 2.759666363798305  22.827427497677146 3.1071931091374867  23.11685005001364 3.4414174316454447  C 23.406472805793626 3.7756417541534026  23.75919830871732 4.081456925506336  24.17528075838865 4.358404895864179  C 24.591563411503472 4.635184418589139  25.06511528734577 4.873171448531078  25.595645403291808 5.072796367584641  C 26.126308988200172 5.272252823943836  26.708895758302514 5.415258116717871  27.343730108211332 5.501678017964663  C 27.343730108211332 5.501678017964663  26.599333909247978 7.043727174020334  26.599333909247978 7.043727174020334  C 25.875277019798013 6.928500641534859  25.203111872474008 6.748403907469378  24.583159043375467 6.503800217155266  C 23.963206214276923 6.259028064146786  23.405905816276864 5.957621810773015  22.91107802127853 5.599644655019247  C 22.416450429723685 5.241667499265482  21.99404837086362 4.838991203756185  21.643698281349458 4.391224953114204  C 21.293481660797624 3.9432902247163715  21.025989872765148 3.459438014837658  20.841138492316084 2.939739413680782  C 20.65642058082935 2.4200408125239057  20.5640060925707 1.8778830691958779  20.5640060925707 1.3135425920442207  Z M 20.215757706647267 15  L 20.215757706647267 9.485736847300364  L 22.112428389560787 9.485736847300364  L 22.112428389560787 15  L 20.215757706647267 15  Z M 14.548229062471583 9.84799131378936  L 14.548229062471583 8  L 27.871112576157135 8  L 27.871112576157135 9.84799131378936  L 14.548229062471583 9.84799131378936  Z M 29.272170819314358 8.565294640213207  L 29.272170819314358 7  L 42.59505433299991 7  L 42.59505433299991 8.565294640213207  L 29.272170819314358 8.565294640213207  Z M 32.17375193234518 10.232948376270853  C 33.07985738386748 9.754657197499862  34.325168743863735 9.515595696377455  35.909418477766664 9.515595696377455  C 37.49727181398816 9.515595696377455  38.7432252211474 9.754657197499862  39.64752887151041 10.232948376270853  C 40.55189922652245 10.711037399808601  41.00410907520233 11.385145367174392  41.00410907520233 12.25520679103741  C 41.00410907520233 13.125200799699714  40.55189922652245 13.798593105609484  39.64752887151041 14.274997532326523  C 38.7432252211474 14.751334573965813  37.49727181398816 14.989389004046984  35.909418477766664 14.989389004046984  C 34.325168743863735 14.989389004046984  33.07985738386748 14.751334573965813  32.17375193234518 14.274997532326523  C 31.267713245136193 13.798593105609484  30.814727880331 13.125200799699714  30.814727880331 12.25520679103741  C 30.814727880331 11.385145367174392  31.267713245136193 10.711037399808601  32.17375193234518 10.232948376270853  Z M 37.649927252887146 11.14031191392755  C 37.17925692242016 11.049006677382248  36.59904091191463 11.003356035929325  35.909418477766664 11.003356035929325  C 35.22319941266164 11.003356035929325  34.64382568259472 11.049006677382248  34.17135355096845 11.14031191392755  C 33.69888141934217 11.231414995239607  33.34178956612745 11.369149996255114  33.100214831317636 11.553647221399665  C 32.85877356547014 11.73807706146647  32.73803650995726 11.97185732866249  32.73803650995726 12.25520679103741  C 32.73803650995726 12.531144015352014  32.85877356547014 12.762306446078828  33.100214831317636 12.948623038199585  C 33.34178956612745 13.13500701539809  33.69888141934217 13.273861084647079  34.17135355096845 13.36516632119238  C 34.64382568259472 13.456269402504438  35.22319941266164 13.501875431842858  35.909418477766664 13.501875431842858  C 36.59904091191463 13.501875431842858  37.17925692242016 13.456269402504438  37.649927252887146 13.36516632119238  C 38.12073105231647 13.273861084647079  38.47669208870375 13.13500701539809  38.71813335455124 12.948623038199585  C 38.95970808936106 12.762306446078828  39.08055606074384 12.531144015352014  39.08055606074384 12.25520679103741  C 39.08055606074384 11.97185732866249  38.95970808936106 11.73807706146647  38.71813335455124 11.553647221399665  C 38.47669208870375 11.369149996255114  38.12073105231647 11.231414995239607  37.649927252887146 11.14031191392755  Z M 34.64423820132763 1.979814430954496  C 34.64423820132763 1.979814430954496  34.64423820132763 1.5973250419504492  34.64423820132763 1.5973250419504492  L 36.33220423751933 1.5973250419504492  C 36.33220423751933 1.5973250419504492  36.33220423751933 1.979814430954496  36.33220423751933 1.979814430954496  C 36.33220423751933 2.432297576792842  36.24708142358194 2.8632593084306524  36.07657770300991 3.273122100483664  C 35.90607398243788 3.6828164449037915  35.65717565292466 4.061224623689434  35.329982040556516 4.408251900108578  C 35.00285516266954 4.755110728894836  34.60449860834626 5.063431709401759  34.134695826134404 5.333135919455138  C 33.665026512884864 5.602840129508516  33.13008711820864 5.828419042332553  32.52982063289988 6.010018754318429  C 31.92955414759112 6.191618466304304  31.270929865027554 6.3166321165269155  30.554213649177047 6.384858355542395  C 30.554213649177047 6.384858355542395  29.88997567518414 4.881058138387128  29.88997567518414 4.881058138387128  C 30.50325517549486 4.827150987409178  31.060999236974517 4.7320007950776475  31.563034236609983 4.595548317046688  C 32.06500253159642 4.458927391382845  32.50712882105498 4.2953344512086975  32.88931072110576 4.10497482973053  C 33.2715593556377 3.9146152082523624  33.592328200548835 3.705618401503777  33.85145380558334 3.4776922317638927  C 34.11071287958017 3.2497660620240088  34.30753077872723 3.0076050431245216  34.44213194507593 2.7512091600039486  C 34.57693331486813 2.4946448292504906  34.64423820132763 2.237557985507045  34.64423820132763 1.979814430954496  Z M 35.5455294625807 1.979814430954496  C 35.5455294625807 1.979814430954496  35.5455294625807 1.5973250419504492  35.5455294625807 1.5973250419504492  L 37.227874647631175 1.5973250419504492  C 37.227874647631175 1.5973250419504492  37.227874647631175 1.979814430954496  37.227874647631175 1.979814430954496  C 37.227874647631175 2.244801775934477  37.29347340458143 2.504641196179656  37.42460443757388 2.7593524824795184  C 37.55593567400984 3.0140637687793808  37.751091625036366 3.2563030923322445  38.01015049558971 3.4860823215872077  C 38.26940956958654 3.7156930881478027  38.591951278488104 3.9254729715531225  38.97767004637629 4.11583259303129  C 39.36352228322679 4.3061922145094575  39.80742146650791 4.468062377001901  40.30932299718105 4.600977198697069  C 40.81129129216749 4.733892020392236  41.368968589333846 4.827150987409178  41.982381558606896 4.881058138387128  C 41.982381558606896 4.881058138387128  41.31838796944621 6.384858355542395  41.31838796944621 6.384858355542395  C 40.60147157998435 6.3166321165269155  39.942803086199916 6.19358799627227  39.34253660089115 6.015694403316553  C 38.74247028919375 5.837632347666467  38.207464189868496 5.612053419780947  37.73766140765664 5.338811568453262  C 37.26785862544477 5.065401239369725  36.87038850311671 4.755110728894836  36.545063426389014 4.408251900108578  C 36.21973834966133 4.061224623689434  35.97190410249437 3.6839245785001635  35.80140038192234 3.2760833086565984  C 35.630829941785215 2.868073561057182  35.5455294625807 2.436003695823  35.5455294625807 1.979814430954496  Z M 30.489696053469128 2.355147566873951  L 30.489696053469128 1  L 41.39879057924889 1  L 41.39879057924889 2.355147566873951  L 30.489696053469128 2.355147566873951  Z M 51.65513321815041 9.031438160102654  L 51.65513321815041 6.970190504392459  L 53.552048285896156 6.970190504392459  L 53.552048285896156 9.031438160102654  L 51.65513321815041 9.031438160102654  Z M 58 10.213453755799032  L 58 0.12930609021814232  L 60 0.12930609021814232  L 60 10.213453755799032  L 58 10.213453755799032  Z M 59.093229971810494 6.025811864574079  L 59.093229971810494 4.440578422663113  L 61.72452146039829 4.440578422663113  L 61.72452146039829 6.025811864574079  L 59.093229971810494 6.025811864574079  Z M 51.05028075838865 9.839847991313789  C 50.03960413497893 9.859524100780629  49.10524419312956 9.873040371263102  48.24718673274529 9.880317836343895  C 48.24718673274529 9.880317836343895  48.02235268709648 8.376517619188629  48.02235268709648 8.376517619188629  C 48.908771794828986 8.376517619188629  49.86990333134623 8.370296713418897  50.90560493771028 8.357763300760045  C 51.941440072700935 8.345162504906128  52.99496351455226 8.309268448739  54.0662339729017 8.250172737143421  C 55.13750443125114 8.190807489002227  56.17320997545673 8.098409899530024  57.17334272983541 7.97280623827855  C 57.17334272983541 7.97280623827855  57.31801855051378 9.29819366301451  57.31801855051378 9.29819366301451  C 56.285853841819254 9.477771852790939  55.23594283259781 9.607965651792572  54.16814244794035 9.688826374494127  C 53.10047559190948 9.769687097195682  52.061157615073995 9.81996973037908  51.05028075838865 9.839847991313789  Z M 49.875767254705835 12.341081828052513  L 49.875767254705835 10.84838614154575  L 59.78337273801946 10.84838614154575  L 59.78337273801946 15  L 57.881569973629176 15  L 57.881569973629176 12.341081828052513  L 49.875767254705835 12.341081828052513  Z M 48.39601709557152 2.6710097719869705  L 48.39601709557152 1.275787187839305  L 56.78428207693007 1.275787187839305  L 56.78428207693007 2.6710097719869705  L 48.39601709557152 2.6710097719869705  Z M 50.01799922706193 3.6748593426117857  C 50.666180294210655 3.2811686981113817  51.52412660006795 3.0840983121113417  52.59186028007638 3.0840983121113417  C 53.67160592803719 3.0840983121113417  54.532721062709044 3.2811686981113817  55.175496726379926 3.6748593426117857  C 55.81833909469984 4.068549987112189  56.13983927434755 4.6067686403813175  56.13983927434755 5.289704866252098  C 56.13983927434755 5.972641092122878  55.81833909469984 6.512750955645112  55.175496726379926 6.909979271542789  C 54.532721062709044 7.307207587440468  53.67160592803719 7.505675648998124  52.59186028007638 7.505675648998124  C 51.52412660006795 7.505675648998124  50.666180294210655 7.307207587440468  50.01799922706193 6.909979271542789  C 49.37001839318882 6.512750955645112  49.045836364463035 5.972641092122878  49.045836364463035 5.289704866252098  C 49.045836364463035 4.6067686403813175  49.37001839318882 4.068549987112189  50.01799922706193 3.6748593426117857  Z M 53.86828225879785 4.591353272135031  C 53.55783870288044 4.43030566244791  53.13271064338569 4.34976803869312  52.59283781940529 4.34976803869312  C 52.05309846438721 4.34976803869312  51.62779275454142 4.43030566244791  51.3171489951805 4.591353272135031  C 51.00670543926309 4.752400881822154  50.85159588978812 4.986539009869152  50.85159588978812 5.294146678511499  C 50.85159588978812 5.588446020221041  51.00670543926309 5.819765075316093  51.3171489951805 5.988056460369164  C 51.62779275454142 6.156179382727867  52.05309846438721 6.24025268976409  52.59283781940529 6.24025268976409  C 53.13271064338569 6.24025268976409  53.55783870288044 6.156179382727867  53.86828225879785 5.988056460369164  C 54.17879254919643 5.819765075316093  54.334079749022465 5.588446020221041  54.334079749022465 5.294146678511499  C 54.334079749022465 4.986539009869152  54.17879254919643 4.752400881822154  53.86828225879785 4.591353272135031  Z M 51.65513321815041 1.9242917777119732  L 51.65513321815041 0  L 53.552048285896156 0  L 53.552048285896156 1.9242917777119732  L 51.65513321815041 1.9242917777119732  Z M 73 10.863192182410423  L 73 0.12930609021814232  L 75 0.12930609021814232  L 75 10.863192182410423  L 73 10.863192182410423  Z M 65.38882763480949 14.719919060309941  L 65.38882763480949 13  L 75.49927252887151 13  L 75.49927252887151 14.719919060309941  L 65.38882763480949 14.719919060309941  Z M 65.38882763480949 13.785164347053598  L 65.38882763480949 9.7850656401145  L 67.28574270255525 9.7850656401145  L 67.28574270255525 13.785164347053598  L 65.38882763480949 13.785164347053598  Z M 65.1016754569428 1.571167703089527  C 65.69993996748092 1.2529470503783253  66.37137380990048 1.0936728852038298  67.11565085932527 1.0936728852038298  C 67.86333133745727 1.0936728852038298  68.53536301581894 1.2529470503783253  69.13182572519777 1.571167703089527  C 69.72842190353894 1.8893883558007292  70.20199537784542 2.329704202582883  70.55267913976539 2.8923600829138287  C 70.90356310512885 3.455015963244775  71.07908406838229 4.103165885300994  71.07908406838229 4.83664001579311  C 71.07908406838229 5.555626625676297  70.90356310512885 6.19905441113985  70.55267913976539 6.767100977198696  C 70.20199537784542 7.335147543257545  69.72842190353894 7.780219264355691  69.13182572519777 8.102112328496693  C 68.53536301581894 8.423870622482202  67.86333133745727 8.584789260685026  67.11565085932527 8.584789260685026  C 66.37137380990048 8.584789260685026  65.69993996748092 8.423870622482202  65.1016754569428 8.102112328496693  C 64.50341094640468 7.780219264355691  64.028951040103 7.335147543257545  63.6781338092207 6.767100977198696  C 63.32745004730072 6.19905441113985  63.152217650268256 5.555626625676297  63.152217650268256 4.83664001579311  C 63.152217650268256 4.103165885300994  63.32745004730072 3.455015963244775  63.6781338092207 2.8923600829138287  C 64.028951040103 2.329704202582883  64.50341094640468 1.8893883558007292  65.1016754569428 1.571167703089527  Z M 68.19143289078839 3.0073536669627874  C 67.87184686011224 2.8388938192153494  67.51338162499796 2.754663902872372  67.11565085932527 2.754663902872372  C 66.71792009365258 2.754663902872372  66.35987507396148 2.8388938192153494  66.04182390651997 3.0073536669627874  C 65.72403967700308 3.1758135147102258  65.473923077765 3.414282241021524  65.2910737019187 3.7227322080742273  C 65.10822432607242 4.031013727494046  65.01662953532781 4.402350539716819  65.01662953532781 4.83664001579311  C 65.01662953532781 5.263685731564937  65.10822432607242 5.631486860506274  65.2910737019187 5.939936827558977  C 65.473923077765 6.248218346978796  65.72403967700308 6.486608753575235  66.04182390651997 6.655068601322673  C 66.35987507396148 6.8235284490701105  66.71792009365258 6.9077583654130885  67.11565085932527 6.9077583654130885  C 67.51338162499796 6.9077583654130885  67.87184686011224 6.8235284490701105  68.19143289078839 6.655068601322673  C 68.51115239042689 6.486608753575235  68.76251072236232 6.248218346978796  68.9453600982086 5.939936827558977  C 69.12814275448979 5.631486860506274  69.21955987996726 5.263685731564937  69.21955987996726 4.83664001579311  C 69.21955987996726 4.402350539716819  69.12814275448979 4.031013727494046  68.9453600982086 3.7227322080742273  C 68.76251072236232 3.414282241021524  68.51115239042689 3.1758135147102258  68.19143289078839 3.0073536669627874  Z M 82.55515140492862 7.258414766558089  L 82.55515140492862 1.0290198400947586  L 89.61665113212695 1.0290198400947586  L 89.61665113212695 7.258414766558089  L 82.55515140492862 7.258414766558089  Z M 87.75737132854414 5.754614549402823  L 87.75737132854414 2.538495706248149  L 84.41467559334365 2.538495706248149  L 84.41467559334365 5.754614549402823  L 87.75737132854414 5.754614549402823  Z M 92.0871374011094 8.582815121903069  L 92.0871374011094 0.12387720856776231  L 93.9945610166409 0.12387720856776231  L 93.9945610166409 8.582815121903069  L 92.0871374011094 8.582815121903069  Z M 88.13616781849595 10.675155463429078  C 88.13616781849595 10.675155463429078  88.13616781849595 10.449610107590564  88.13616781849595 10.449610107590564  L 89.7649927252887 10.449610107590564  C 89.7649927252887 10.449610107590564  89.7649927252887 10.675155463429078  89.7649927252887 10.675155463429078  C 89.7649927252887 11.20715164547552  89.63284296970795 11.710607189614873  89.36811175775212 12.18512486427796  C 89.1033138113151 12.659709924018792  88.72093561583024 13.089228434172497  88.22096935527871 13.473990721547725  C 87.72113656368951 13.858753008922953  87.11654227120536 14.178912104699915  86.40763390015458 14.434162471621756  C 85.69879223375285 14.689345453465847  84.902100842899 14.8634889629207  84.01755024097481 14.956815714144703  C 84.01755024097481 14.956815714144703  83.39656838228608 13.50730431349324  83.39656838228608 13.50730431349324  C 84.00284085157104 13.449825813640624  84.55524379781912 13.353645777304614  85.05374192961717 13.219080051327609  C 85.55237353037755 13.084244800101098  85.99376851493167 12.922655082433788  86.3778189506229 12.734182213009573  C 86.76206958975762 12.545641958507613  87.08363557909037 12.338334221840375  87.3428946530872 12.112328496693317  C 87.60215372708404 11.886053231235271  87.79926019245207 11.65016958266629  87.93406156224424 11.404352976014213  C 88.06886293203644 11.158603754439884  88.13616781849595 10.915379198997044  88.13616781849595 10.675155463429078  Z M 88.45264617622989 10.675155463429078  C 88.45264617622989 10.675155463429078  88.45264617622989 10.449610107590564  88.45264617622989 10.449610107590564  L 90.09760048194963 10.449610107590564  C 90.09760048194963 10.449610107590564  90.09760048194963 10.675155463429078  90.09760048194963 10.675155463429078  C 90.09760048194963 10.958370155648504  90.2012283767127 11.251720714258449  90.40870237337455 11.554881058138387  C 90.616443293045 11.858108787096073  90.91950512634816 12.14255228551869  91.31756956442666 12.408449313986774  C 91.71563400250515 12.674076802143867  92.20644922647583 12.905709075852426  92.79023256342639 13.103346165235415  C 93.37414936933928 13.300713714307417  94.04403128454422 13.435473033064222  94.800053423661 13.50730431349324  C 94.800053423661 13.50730431349324  94.17907156497226 14.956815714144703  94.17907156497226 14.956815714144703  C 93.2873138180752 14.859917614046037  92.48873858769677 14.6819470418475  91.78336705465126 14.423057940973251  C 91.07819575488139 14.164303610254494  90.47734739382159 13.839960524694856  89.98078453214512 13.44980752146876  C 89.48448860839332 13.059654518242661  89.10565614088932 12.628211090235492  88.84439506228972 12.155512782548612  C 88.58313398369012 11.682612319628491  88.45264617622989 11.18909274586896  88.45264617622989 10.675155463429078  Z M 83.9730722015095 10.887868917184878  L 83.9730722015095 9.438357516533413  L 94.24432231517687 9.438357516533413  L 94.24432231517687 10.887868917184878  L 83.9730722015095 10.887868917184878  Z M 88.14692075111394 10.109317935050834  L 88.14692075111394 8.167752442996743  L 90.08684754933164 8.167752442996743  L 90.08684754933164 10.109317935050834  L 88.14692075111394 10.109317935050834  Z M 106.3655656088024 1.3135425920442207  C 106.3655656088024 1.3135425920442207  106.3655656088024 0.5707728753331359  106.3655656088024 0.5707728753331359  L 108.0310482404292 0.5707728753331359  C 108.0310482404292 0.5707728753331359  108.0310482404292 1.3135425920442207  108.0310482404292 1.3135425920442207  C 108.0310482404292 1.8815891581030684  107.93876722113289 2.4264995381787644  107.75391584068382 2.9478827361563518  C 107.56973179013033 3.469265934133939  107.30243929566129 3.9539012206693873  106.95208920614714 4.401835949067219  C 106.60107177182134 4.8496021997092  106.17940107752997 5.251495418561762  105.6869089297081 5.607787977494818  C 105.19374946690672 5.964080536427873  104.63604961664794 6.2638423318348  104.01409475311448 6.5067614253282  C 103.39280723439268 6.749512056127234  102.71816041160196 6.928500641534859  101.9900995726107 7.043727174020334  C 101.9900995726107 7.043727174020334  101.24643652814405 5.501678017964663  101.24643652814405 5.501678017964663  C 101.88440736883541 5.415258116717871  102.4689446234471 5.2732826679483145  103.00014208420478 5.075510808409831  C 103.53067220015082 4.877738948871348  104.00471102589746 4.641149609548508  104.42246180776576 4.3660546836442595  C 104.84021258963405 4.090959757740012  105.19302738013133 3.7862527501064185  105.48064813130854 3.45202842759846  C 105.76826888248574 3.117804105090502  105.98778054748242 2.769415993502693  106.13926525416022 2.4067219425525614  C 106.29008263094248 2.04402789160243  106.3655656088024 1.6796058366357745  106.3655656088024 1.3135425920442207  Z M 106.7189460762026 1.3135425920442207  C 106.7189460762026 1.3135425920442207  106.7189460762026 0.5707728753331359  106.7189460762026 0.5707728753331359  L 108.37954101118487 0.5707728753331359  C 108.37954101118487 0.5707728753331359  108.37954101118487 1.3135425920442207  108.37954101118487 1.3135425920442207  C 108.37954101118487 1.6760681652385006  108.45595460242875 2.037815933295316  108.60877398381378 2.398825387424736  C 108.76159336519879 2.759666363798305  108.98234585301273 3.1071931091374867  109.27130126398109 3.4414174316454447  C 109.56092401976107 3.7756417541534026  109.91404900477562 4.081456925506336  110.33046512685279 4.358404895864179  C 110.74688124892992 4.635184418589139  111.21998940162835 4.873171448531078  111.74985223242703 5.072796367584641  C 112.2810496931847 5.272252823943836  112.86403591554577 5.415258116717871  113.49867009184324 5.501678017964663  C 113.49867009184324 5.501678017964663  112.75378512321542 7.043727174020334  112.75378512321542 7.043727174020334  C 112.02972823376547 6.928500641534859  111.35780747127367 6.748403907469378  110.73785464217514 6.503800217155266  C 110.1179018130766 6.259028064146786  109.56075651233517 5.957621810773015  109.06626238974266 5.599644655019247  C 108.57176826715013 5.241667499265482  108.14923273932774 4.838991203756185  107.79888264981359 4.391224953114204  C 107.44853256029943 3.9432902247163715  107.18092985639704 3.459438014837658  106.99607847594798 2.939739413680782  C 106.81122709549892 2.4200408125239057  106.7189460762026 1.8778830691958779  106.7189460762026 1.3135425920442207  Z M 106.37045330544694 15  L 106.37045330544694 9.485736847300364  L 108.26736837319268 9.485736847300364  L 108.26736837319268 15  L 106.37045330544694 15  Z M 100.70292466127127 9.84799131378936  L 100.70292466127127 8  L 114.02605255978904 8  L 114.02605255978904 9.84799131378936  L 100.70292466127127 9.84799131378936  Z M 125.07615713376374 7.9212318625999405  L 125.07615713376374 0.11844832691738229  L 126.98406951895971 0.11844832691738229  L 126.98406951895971 7.9212318625999405  L 125.07615713376374 7.9212318625999405  Z M 126.46352982631626 4.80678116671602  L 126.46352982631626 3.227223373803178  L 129 3.227223373803178  L 129 4.80678116671602  L 126.46352982631626 4.80678116671602  Z M 116.05615736109849 6.8105320304017365  L 116.05615736109849 0.7597966637054585  L 117.958204510321 0.7597966637054585  L 117.958204510321 6.8105320304017365  L 116.05615736109849 6.8105320304017365  Z M 116.05615736109849 7.416592636462344  L 116.05615736109849 5.831605961899122  C 116.05615736109849 5.831605961899122  117.26830612894425 5.831605961899122  117.26830612894425 5.831605961899122  C 118.2899937925853 5.831605961899122  119.34819371958065 5.7894126915435145  120.44262071474039 5.705014312506169  C 121.53704770990011 5.620447470774456  122.66776024420457 5.459853919634237  123.83492657088297 5.222830915013326  C 123.83492657088297 5.222830915013326  124.05413976539056 6.780673181324647  124.05413976539056 6.780673181324647  C 122.8482681556085 7.021402289914233  121.68074467863572 7.187501069365338  120.55161634991362 7.279143223768631  C 119.42382271081478 7.370785378171925  118.32936636083633 7.416592636462344  117.26830612894425 7.416592636462344  C 117.26830612894425 7.416592636462344  116.05615736109849 7.416592636462344  116.05615736109849 7.416592636462344  Z M 117.42251295807947 14.827756391274306  L 117.42251295807947 8.637597473102359  L 119.30843070837501 8.637597473102359  L 119.30843070837501 10.256391274306583  L 125.09717422933528 10.256391274306583  L 125.09717422933528 8.637597473102359  L 126.97820428298627 8.637597473102359  L 126.97820428298627 14.827756391274306  L 117.42251295807947 14.827756391274306  Z M 125.09717422933528 11.759697956766361  L 119.30843070837501 11.759697956766361  L 119.30843070837501 13.291629651564504  L 125.09717422933528 13.291629651564504  L 125.09717422933528 11.759697956766361  Z " fill-rule="nonzero" fill="#747483" stroke="none" transform="matrix(1 0 0 1 73 733 )" />
  </g>
</svg>