<?xml version="1.0" encoding="utf-8"?>
<svg version="1.1" xmlns:xlink="http://www.w3.org/1999/xlink" width="43px" height="3px" xmlns="http://www.w3.org/2000/svg">
  <g transform="matrix(1 0 0 1 -19 -589 )">
    <path d="M 1.35302734375 0.007080078125  C 1.4019178114831448 0.0022667446173727512  1.4508731327950954 0  1.5 0  C 1.5 0  41.5 0  41.5 0  C 41.54913333430886 0  41.59810598939657 0.0022667446173727512  41.64697265625 0.007080078125  C 41.69590599089861 0.011900078039616346  41.744347136467695 0.019228593446314335  41.79248046875 0.02880859375  C 41.840680468827486 0.03839526046067476  41.888302735984325 0.05019312538206577  41.935302734375 0.064453125  C 41.982302732765675 0.07871312461793423  42.028574608266354 0.09521367214620113  42.073974609375 0.114013671875  C 42.119374610483646 0.13281367160379887  42.16369791701436 0.15384195372462273  42.20703125 0.177001953125  C 42.25036458298564 0.20016195252537727  42.292629428207874 0.22539221309125423  42.33349609375 0.252685546875  C 42.374296095222235 0.27997888065874577  42.413660157471895 0.30917203053832054  42.45166015625 0.34033203125  C 42.489593490958214 0.37149869836866856  42.52599101513624 0.40446898341178894  42.560791015625 0.439208984375  C 42.59552434831858 0.47394898533821106  42.62829049490392 0.5103665105998516  42.659423828125 0.54833984375  C 42.690623827278614 0.5863151773810387  42.720047786831856 0.6256559044122696  42.747314453125 0.66650390625  C 42.774581119418144 0.707351241260767  42.79979804717004 0.7493986077606678  42.822998046875 0.792724609375  C 42.84613138064742 0.8360506109893322  42.8669421877712 0.8803939148783684  42.8857421875 0.92578125  C 42.9045421872288 0.9711685851216316  42.921036067418754 1.0174417905509472  42.935302734375 1.064453125  C 42.949569401331246 1.1114644594490528  42.961591405794024 1.1590920574963093  42.97119140625 1.207275390625  C 42.980791406705976 1.2554580569267273  42.98811992164701 1.3038932047784328  42.992919921875 1.352783203125  C 42.99771992210299 1.4016736708581448  43 1.4508731327950954  43 1.5  C 43 1.5491268672049046  42.99771992210299 1.5980821885168552  42.992919921875 1.64697265625  C 42.98811992164701 1.6958626545965672  42.980791406705976 1.7442978024482727  42.97119140625 1.79248046875  C 42.961591405794024 1.8406638018786907  42.949569401331246 1.8882913999259472  42.935302734375 1.935302734375  C 42.921036067418754 1.9823140688240528  42.9045421872288 2.0285872742533684  42.8857421875 2.073974609375  C 42.8669421877712 2.1193619444966316  42.84613138064742 2.163705248385668  42.822998046875 2.20703125  C 42.79979804717004 2.250357251614332  42.774581119418144 2.292404618114233  42.747314453125 2.333251953125  C 42.720047786831856 2.3740999549627304  42.690623827278614 2.4134406819939613  42.659423828125 2.451416015625  C 42.62829049490392 2.4893893487751484  42.59552434831858 2.525806874036789  42.560791015625 2.560546875  C 42.52599101513624 2.595286875963211  42.489593490958214 2.6282571610063314  42.45166015625 2.659423828125  C 42.413660157471895 2.6905838288366795  42.374296095222235 2.7197769787162542  42.33349609375 2.7470703125  C 42.292629428207874 2.7743636462837458  42.25036458298564 2.7995939068496227  42.20703125 2.82275390625  C 42.16369791701436 2.8459139056503773  42.119374610483646 2.866942187771201  42.073974609375 2.8857421875  C 42.028574608266354 2.904542187228799  41.982302732765675 2.9210427347570658  41.935302734375 2.935302734375  C 41.888302735984325 2.9495627339929342  41.840680468827486 2.9613605989143252  41.79248046875 2.970947265625  C 41.744347136467695 2.9805272659286857  41.69590599089861 2.9878557813353837  41.64697265625 2.99267578125  C 41.59810598939657 2.9974891147576272  41.54913333430886 3  41.5 3  C 41.5 3  1.5 3  1.5 3  C 1.4508731327950954 3  1.4019178114831448 2.9974891147576272  1.35302734375 2.99267578125  C 1.3041373454034328 2.9878557813353837  1.2554580569267273 2.9805272659286857  1.207275390625 2.970947265625  C 1.1590920574963093 2.9613605989143252  1.1114644594490528 2.9495627339929342  1.064453125 2.935302734375  C 1.0174417905509472 2.9210427347570658  0.9714127257466316 2.904542187228799  0.926025390625 2.8857421875  C 0.8806380555033684 2.866942187771201  0.8362947516143322 2.8459139056503773  0.7929687500000001 2.82275390625  C 0.7496427483856678 2.7995939068496227  0.707595381885767 2.7743636462837458  0.666748046875 2.7470703125  C 0.6259000450372696 2.7197769787162542  0.5863151773810387 2.6905838288366795  0.54833984375 2.659423828125  C 0.5103665105998516 2.6282571610063314  0.4741931259632111 2.595286875963211  0.43945312500000006 2.560546875  C 0.4047131240367889 2.525806874036789  0.37174283899366856 2.4893893487751484  0.340576171875 2.451416015625  C 0.30941617116332054 2.4134406819939613  0.27997888065874577 2.3740999549627304  0.252685546875 2.333251953125  C 0.2253922130912542 2.292404618114233  0.20016195252537727 2.250357251614332  0.177001953125 2.20703125  C 0.15384195372462273 2.163705248385668  0.13305781222879887 2.1193619444966316  0.1142578125 2.073974609375  C 0.09545781277120113 2.0285872742533684  0.07895726524293423 1.9823140688240528  0.064697265625 1.935302734375  C 0.05043726600706577 1.8882913999259472  0.03839526046067476 1.8406638018786907  0.02880859375 1.79248046875  C 0.019228593446314335 1.7442978024482727  0.012144218664616346 1.6958626545965672  0.00732421875 1.64697265625  C 0.0025108852423727512 1.5980821885168552  0 1.5491268672049046  0 1.5  C 0 1.4508731327950954  0.0025108852423727512 1.4016736708581448  0.00732421875 1.352783203125  C 0.012144218664616346 1.3038932047784328  0.019228593446314335 1.2554580569267273  0.02880859375 1.207275390625  C 0.03839526046067476 1.1590920574963093  0.05043726600706577 1.1114644594490528  0.064697265625 1.064453125  C 0.07895726524293423 1.0174417905509472  0.09545781277120113 0.9711685851216316  0.1142578125 0.92578125  C 0.13305781222879887 0.8803939148783684  0.15384195372462273 0.8360506109893322  0.177001953125 0.792724609375  C 0.20016195252537727 0.7493986077606678  0.2253922130912542 0.707351241260767  0.252685546875 0.66650390625  C 0.27997888065874577 0.6256559044122696  0.30941617116332054 0.5863151773810387  0.340576171875 0.54833984375  C 0.37174283899366856 0.5103665105998516  0.4047131240367889 0.47394898533821106  0.43945312500000006 0.439208984375  C 0.4741931259632111 0.40446898341178894  0.5103665105998516 0.37149869836866856  0.54833984375 0.34033203125  C 0.5863151773810387 0.30917203053832054  0.6259000450372696 0.27997888065874577  0.666748046875 0.252685546875  C 0.707595381885767 0.22539221309125423  0.7496427483856678 0.20016195252537727  0.7929687500000001 0.177001953125  C 0.8362947516143322 0.15384195372462273  0.8806380555033684 0.13281367160379887  0.926025390625 0.114013671875  C 0.9714127257466316 0.09521367214620113  1.0174417905509472 0.07871312461793423  1.064453125 0.064453125  C 1.1114644594490528 0.05019312538206577  1.1590920574963093 0.03839526046067476  1.207275390625 0.02880859375  C 1.2554580569267273 0.019228593446314335  1.3041373454034328 0.011900078039616346  1.35302734375 0.007080078125  Z " fill-rule="nonzero" fill="#b8b8c1" stroke="none" transform="matrix(1 0 0 1 19 589 )" />
  </g>
</svg>