<?xml version="1.0" encoding="utf-8"?>
<svg version="1.1" xmlns:xlink="http://www.w3.org/1999/xlink" width="81px" height="15px" xmlns="http://www.w3.org/2000/svg">
  <g transform="matrix(1 0 0 1 -73 -262 )">
    <path d="M 3.5262556145365456 2.1950734013436177  C 3.5262556145365456 2.1950734013436177  3.5262556145365456 0.8049265986563823  3.5262556145365456 0.8049265986563823  L 5.094732543895468 0.8049265986563823  C 5.094732543895468 0.8049265986563823  5.094732543895468 2.1950734013436177  5.094732543895468 2.1950734013436177  C 5.094732543895468 3.1739756177687237  4.943076833816098 4.095760469799702  4.640016333197224 4.960686737994526  C 4.337123072395621 5.8254431586682  3.8824127234649346 6.580538462809468  3.27562270314414 7.226175665588455  C 2.6689999226406185 7.871609063491386  1.9137110531403123 8.357621306120148  1.0098815843201308 8.683752177158496  C 1.0098815843201308 8.683752177158496  0 7.15650659368002  0 7.15650659368002  C 0.8036455807855246 6.873689968985211  1.4657881525303695 6.4777188420918606  1.9864434463046141 5.968648917641204  C 2.5072659798961308 5.459409145669398  2.894036110083197 4.877975611937049  3.146753777051858 4.224185120676785  C 3.399638713744768 3.570224781895372  3.5262556145365456 2.8938767660254414  3.5262556145365456 2.1950734013436177  Z M 3.9077174356880358 2.3697437173426223  C 3.9077174356880358 2.3697437173426223  3.9077174356880358 0.8049265986563823  3.9077174356880358 0.8049265986563823  L 5.44948958758677 0.8049265986563823  C 5.44948958758677 0.8049265986563823  5.44948958758677 2.3697437173426223  5.44948958758677 2.3697437173426223  C 5.44948958758677 2.833291195434965  5.520551406903966 3.287724647037898  5.662882809309922 3.7332669818362776  C 5.805214211715878 4.178639469113508  6.016312282277205 4.5952114115665434  6.295957533687219 4.98283155013685  C 6.5757700249145055 5.3702818411860065  6.926803111601674 5.715394539511538  7.349448754593712 6.017914904205027  C 7.772261667309999 6.3202653910040585  8.267786038306452 6.563637389149586  8.835606369946916 6.748444886787758  C 8.835606369946916 6.748444886787758  7.84213964883626 8.259766110972878  7.84213964883626 8.259766110972878  C 6.981126683563444 7.955241411887285  6.258752476297723 7.5109834730343366  5.67537770518579 6.927345110724061  C 5.092170173891129 6.343536840146025  4.651812153477823 5.660137661537385  4.354103715802369 4.877083851704404  C 4.056562517944187 4.093860194350273  3.9077174356880358 3.2581106443611594  3.9077174356880358 2.3697437173426223  Z M 9.857002858309514 8.935804926598657  L 9.857002858309514 0.010947997014182632  L 11.763821968150266 0.010947997014182632  L 11.763821968150266 8.935804926598657  L 9.857002858309514 8.935804926598657  Z M 11.242711310739077 5.1938293107738245  L 11.242711310739077 3.5901965663100275  L 13.785300122498978 3.5901965663100275  L 13.785300122498978 5.1938293107738245  L 11.242711310739077 5.1938293107738245  Z M 4.337198856676194 9.634237372480715  C 5.083309753343202 9.407508472329676  5.963337873877093 9.29410301069918  6.977051857901184 9.29410301069918  C 8.001470027626072 9.29410301069918  8.88227555012888 9.407508472329676  9.619354838709677 9.634237372480715  C 10.35646756329114 9.860830382465515  10.925697141610733 10.1862897756652  11.327235606369948 10.61059965165464  C 11.728974776854074 11.034705692394718  11.929930583911801 11.547692345635575  11.929930583911801 12.149539686489176  C 11.929930583911801 12.74425294548162  11.728974776854074 13.254577014066  11.327235606369948 13.680517541677034  C 10.925697141610733 14.106729819247247  10.35646756329114 14.433272628233665  9.619354838709677 14.659865638218461  C 8.88227555012888 14.886594538369502  8.001470027626072 15  6.977051857901184 15  C 5.963337873877093 15  5.083309753343202 14.886594538369502  4.337198856676194 14.659865638218461  C 3.59125519982646 14.433272628233665  3.0175823717907817 14.106729819247247  2.615843201306656 13.680517541677034  C 2.214271300546779 13.254577014066  2.0133932217231525 12.74425294548162  2.0133932217231525 12.149539686489176  C 2.0133932217231525 11.547692345635575  2.214271300546779 11.034705692394718  2.615843201306656 10.61059965165464  C 3.0175823717907817 10.1862897756652  3.59125519982646 9.860830382465515  4.337198856676194 9.634237372480715  Z M 8.6472029399755 10.956705648171186  C 8.193113938405983 10.855469190412922  7.636359008938598 10.804926598656383  6.977051857901184 10.804926598656383  C 6.324769317514803 10.804926598656383  5.77066949958848 10.855469190412922  5.31474071049408 10.956705648171186  C 4.8588119213996785 11.057806223356536  4.510577709093635 11.206794398968182  4.2700694160882 11.403831798954965  C 4.029728377853524 11.600869198941744  3.9094324213964886 11.84943132668652  3.9094324213964886 12.149539686489176  C 3.9094324213964886 12.442581879140489  4.029728377853524 12.689451910067802  4.2700694160882 12.890022393630256  C 4.510577709093635 13.09066082227583  4.8588119213996785 13.241634903276818  5.31474071049408 13.342871361035083  C 5.77066949958848 13.444107818793348  6.324769317514803 13.494650410549887  6.977051857901184 13.494650410549887  C 7.636359008938598 13.494650410549887  8.193113938405983 13.444107818793348  8.6472029399755 13.342871361035083  C 9.101459211269267 13.241634903276818  9.447704564721889 13.09066082227583  9.686239281339322 12.890022393630256  C 9.924874350819213 12.689451910067802  10.044181298489178 12.442581879140489  10.044181298489178 12.149539686489176  C 10.044181298489178 11.84943132668652  9.924874350819213 11.600869198941744  9.686239281339322 11.403831798954965  C 9.447704564721889 11.206794398968182  9.101459211269267 11.057806223356536  8.6472029399755 10.956705648171186  Z M 24.62841976316864 8.43145060960438  L 24.62841976316864 0  L 26.53548387096774 0  L 26.53548387096774 8.43145060960438  L 24.62841976316864 8.43145060960438  Z M 26.014373213556553 5.031599900472755  L 26.014373213556553 3.4550883304304554  L 28.556962025316455 3.4550883304304554  L 28.556962025316455 5.031599900472755  L 26.014373213556553 5.031599900472755  Z M 15.548305430788076 7.825329684000995  L 15.548305430788076 6.265488927593929  C 15.548305430788076 6.265488927593929  16.753450387913436 6.265488927593929  16.753450387913436 6.265488927593929  C 17.810348850934055 6.265488927593929  18.718859180405268 6.253846230451133  19.479052674561046 6.230405573525752  C 20.239179296715495 6.2067950576892335  20.9258942186224 6.160607118931656  21.53924050632911 6.091813884050759  C 22.152720597852436 6.023020649169861  22.7606750164289 5.92509380339627  23.363250306247448 5.7982085095794975  C 23.363250306247448 5.7982085095794975  23.55655369538587 7.3364020900721565  23.55655369538587 7.3364020900721565  C 22.936249728843407 7.470421503716721  22.309477122358615 7.573684468379688  21.676194365046957 7.646180641950734  C 21.043179215368518 7.718608878031985  20.33486894363771 7.766669784739529  19.551327072274397 7.7902463299328195  C 18.767919004727695 7.813686986858199  17.835302873940893 7.825329684000995  16.753450387913436 7.825329684000995  C 16.753450387913436 7.825329684000995  15.548305430788076 7.825329684000995  15.548305430788076 7.825329684000995  Z M 15.548305430788076 7.159990047275441  L 15.548305430788076 0.9562080119432695  L 22.090485912617392 0.9562080119432695  L 22.090485912617392 2.4998755909430206  L 17.44973458554512 2.4998755909430206  L 17.44973458554512 7.159990047275441  L 15.548305430788076 7.159990047275441  Z M 17.02539812168232 14.831550136849962  L 17.02539812168232 9.126150783777058  L 26.53548387096774 9.126150783777058  L 26.53548387096774 14.831550136849962  L 17.02539812168232 14.831550136849962  Z M 24.671539403838302 13.293356556357303  L 24.671539403838302 10.658870365762628  L 18.900122498979176 10.658870365762628  L 18.900122498979176 13.293356556357303  L 24.671539403838302 13.293356556357303  Z M 34.657656186198444 7.204528489674049  L 34.657656186198444 0.9236128390146803  L 41.73687219273173 0.9236128390146803  L 41.73687219273173 7.204528489674049  L 34.657656186198444 7.204528489674049  Z M 39.87292772560229 5.688479721323712  L 39.87292772560229 2.445384423986066  L 36.52160065332789 2.445384423986066  L 36.52160065332789 5.688479721323712  L 39.87292772560229 5.688479721323712  Z M 44.21355655369538 8.53993530729037  L 44.21355655369538 0.010947997014182632  L 46.125765618619845 0.010947997014182632  L 46.125765618619845 8.53993530729037  L 44.21355655369538 8.53993530729037  Z M 40.252674561045325 10.649912913660115  C 40.252674561045325 10.649912913660115  40.252674561045325 10.422244339387907  40.252674561045325 10.422244339387907  L 41.88558595345039 10.422244339387907  C 41.88558595345039 10.422244339387907  41.88558595345039 10.649912913660115  41.88558595345039 10.649912913660115  C 41.88558595345039 11.186330263280666  41.75285965532807 11.693720969195152  41.487464271131074 12.172182134859417  C 41.22200198502578 12.650711245606804  40.83866445806962 13.084048098193735  40.33744385463454 13.472007962179648  C 39.83635705501608 13.859967826165557  39.2304909210392 14.182538793999985  38.51980400163332 14.439910425478974  C 37.809183954228764 14.697214111874844  37.010493780146234 14.873053663433652  36.12372396896692 14.967156008957453  C 36.12372396896692 14.967156008957453  35.50118415679869 13.50534958945011  35.50118415679869 13.50534958945011  C 36.108977675837075 13.447393413087152  36.66276652101304 13.350662888268033  37.1625153123724 13.214978850460314  C 37.66239790754836 13.079023047506764  38.104655290185406 12.916090434450036  38.48966925275623 12.726051256531475  C 38.87488392105196 12.535944133529796  39.197501670803135 12.326913560733002  39.4574111882401 12.099029609355561  C 39.71732070567706 11.870873877645636  39.91492168259845 11.632781094002706  40.05006124948959 11.384921622294103  C 40.18520081638073 11.13713009566862  40.252674561045325 10.892133034589605  40.252674561045325 10.649912913660115  Z M 40.56994691710903 10.649912913660115  C 40.56994691710903 10.649912913660115  40.56994691710903 10.422244339387907  40.56994691710903 10.422244339387907  L 42.21878317680686 10.422244339387907  C 42.21878317680686 10.422244339387907  42.21878317680686 10.649912913660115  42.21878317680686 10.649912913660115  C 42.21878317680686 10.935481268661357  42.32284916994181 11.23102090631026  42.5309105757452 11.536700671808909  C 42.73917268727351 11.842448382390677  43.04274986083287 12.12950457373375  43.4418129848918 12.397611346105997  C 43.84087610895072 12.66544633814576  44.332989589181814 12.899003597657222  44.918170681910986 13.098283155013686  C 45.5035524504581 13.297290932037665  46.17529312825388 13.432921353368862  46.93327888934258 13.50534958945011  C 46.93327888934258 13.50534958945011  46.31073907717436 14.967156008957453  46.31073907717436 14.967156008957453  C 45.41681091134136 14.86945263477486  44.61616529945258 14.690003033685697  43.9090240914659 14.428962428464791  C 43.20201668729584 14.168057713410128  42.59966091469094 13.840770348413395  42.101919150673744 13.447374968897737  C 41.60437809238146 13.053979589382076  41.22459518912375 12.619199458091643  40.96267864434463 12.142572779298334  C 40.70076209956551 11.66574226525566  40.56994691710903 11.16812128473734  40.56994691710903 10.649912913660115  Z M 36.079134340547164 10.864145309778552  L 36.079134340547164 9.40283652649913  L 46.3761535320539 9.40283652649913  L 46.3761535320539 10.864145309778552  L 36.079134340547164 10.864145309778552  Z M 40.26345447121274 10.079124160238866  L 40.26345447121274 8.121672057725801  L 42.208003266639444 8.121672057725801  L 42.208003266639444 10.079124160238866  L 40.26345447121274 10.079124160238866  Z M 56.525683952633734 3.0097039064443893  C 56.525683952633734 3.0097039064443893  56.525683952633734 1.6693207265488927  56.525683952633734 1.6693207265488927  L 58.10469579420171 1.6693207265488927  C 58.10469579420171 1.6693207265488927  58.10469579420171 3.0097039064443893  58.10469579420171 3.0097039064443893  C 58.10469579420171 3.9451219986315005  57.94597512895889 4.827387232423333  57.628664761126984 5.656133366509082  C 57.311421295203395 6.484709653073681  56.84325812991272 7.210021076643755  56.22409146590446 7.83204777307788  C 55.60505860571279 8.453870664635948  54.836383851667776 8.920533471868003  53.918170681910986 9.232396118437421  C 53.918170681910986 9.232396118437421  52.9406288280931 7.710624533466036  52.9406288280931 7.710624533466036  C 53.7444416486959 7.4386789398307265  54.41020577595447 7.059901472643615  54.93785218456512 6.574272207016671  C 55.46569932880767 6.088642941389727  55.862300689934024 5.536124733200889  56.127562270314414 4.916645931823837  C 56.39302455641971 4.297167130446784  56.525683952633734 3.6614561059576385  56.525683952633734 3.0097039064443893  Z M 56.917680685994284 3.0097039064443893  C 56.917680685994284 3.0097039064443893  56.917680685994284 1.6693207265488927  56.917680685994284 1.6693207265488927  L 58.47562270314414 1.6693207265488927  C 58.47562270314414 1.6693207265488927  58.47562270314414 3.0097039064443893  58.47562270314414 3.0097039064443893  C 58.47562270314414 3.4732513845367317  58.54945084309763 3.9288021789079997  58.697100857492856 4.376212988305548  C 58.84481777379638 4.823453919808643  59.06721253214003 5.2445384545479286  59.36472029399755 5.639462552873849  C 59.662428731673 6.03438665119977  60.03156944639394 6.387813889882434  60.47211106574112 6.699676536451854  C 60.912652685088304 7.011369335500125  61.42596192801909 7.263225675963976  62.0116782360147 7.455337148544414  C 62.0116782360147 7.455337148544414  61.03952633728052 8.955461557601394  61.03952633728052 8.955461557601394  C 60.142855223114026 8.658003025667144  59.38931022946228 8.21390393919896  58.779175173540224 7.622791739238616  C 58.16904011761817 7.031543649112031  57.706453885833504 6.337889045588144  57.39101674152715 5.5419258522020405  C 57.0755795972208 4.745792811294787  56.917680685994284 3.901637874393506  56.917680685994284 3.0097039064443893  Z M 53.45095957533687 2.6675789997511816  L 53.45095957533687 1.1184374222443394  L 61.501837484687634 1.1184374222443394  L 61.501837484687634 2.6675789997511816  L 53.45095957533687 2.6675789997511816  Z M 63 10.882806668325454  L 63 0.01617317740731525  L 65 0.01617317740731525  L 65 10.882806668325454  L 63 10.882806668325454  Z M 55.33327888934259 14.728290619557104  L 55.33327888934259 13  L 65.4690894242548 13  L 65.4690894242548 14.728290619557104  L 55.33327888934259 14.728290619557104  Z M 55.33327888934259 13.927096292610102  L 55.33327888934259 9.894003483453595  L 57.23495304205798 9.894003483453595  L 57.23495304205798 13.927096292610102  L 55.33327888934259 13.927096292610102  Z M 71.10477746018783 12.339387907439662  L 71.10477746018783 8.76337397362528  L 72.97925683952634 8.76337397362528  L 72.97925683952634 12.339387907439662  L 71.10477746018783 12.339387907439662  Z M 75.78840342997142 12.328688728539438  L 75.78840342997142 8.752674794725056  L 77.65773785218457 8.752674794725056  L 77.65773785218457 12.328688728539438  L 75.78840342997142 12.328688728539438  Z M 67.62262147815434 13  L 67.62262147815434 11.718089076884796  L 81 11.718089076884796  L 81 13  L 67.62262147815434 13  Z M 69.16855859534503 2.5590943020651906  L 69.16855859534503 1  L 79.45455287872602 1  L 79.45455287872602 5.8631500373227174  L 71.08615761535322 5.8631500373227174  L 71.08615761535322 8.53421249066932  L 69.19550837076358 8.53421249066932  L 69.19550837076358 4.34162727046529  L 77.56341363821969 4.34162727046529  L 77.56341363821969 2.5590943020651906  L 69.16855859534503 2.5590943020651906  Z M 69.19550837076358 9  L 69.19550837076358 7.721572530480219  L 79.79167006941609 7.721572530480219  L 79.79167006941609 9  L 69.19550837076358 9  Z " fill-rule="nonzero" fill="#26262c" stroke="none" transform="matrix(1 0 0 1 73 262 )" />
  </g>
</svg>