<?xml version="1.0" encoding="utf-8"?>
<svg version="1.1" xmlns:xlink="http://www.w3.org/1999/xlink" width="47px" height="15px" xmlns="http://www.w3.org/2000/svg">
  <g transform="matrix(1 0 0 1 -73 -450 )">
    <path d="M 11 15  L 11 0.00547209232912148  L 13 0.00547209232912148  L 13 15  L 11 15  Z M 0.3818396725525315 2.9922395781514277  L 0.3818396725525315 1.4438861804795542  L 8.618077742966125 1.4438861804795542  L 8.618077742966125 2.9922395781514277  L 0.3818396725525315 2.9922395781514277  Z M 3.045013703862373 11.445129837827082  C 2.0258533279449114 11.468698173100147  1.074523037068093 11.48430723323714  0.19116242819021273 11.491642622624614  C 0.19116242819021273 11.491642622624614  0 9.899761217789274  0 9.899761217789274  C 0.8891569328139758 9.899761217789274  1.8550065511107612 9.891437668667992  2.897517820182615 9.875136802308228  C 3.9400290892544683 9.858835935948465  5.00366457042682 9.820987628165934  6.088571856241065 9.7612177892747  C 7.173479142055308 9.701447950383464  8.221209690869511 9.608021224627933  9.231592693338014 9.481146154611482  C 9.231592693338014 9.481146154611482  9.343427565667566 10.887971346134712  9.343427565667566 10.887971346134712  C 8.315291170480984 11.061983086697298  7.263348074676695 11.192468808855113  6.187549357131428 11.279474679136404  C 5.111750639586162 11.366344706571681  4.064174079779836 11.421493583028678  3.045013703862373 11.445129837827082  Z M 1.7464191885042402 10.324594567704706  L 1.7464191885042402 2.6489901502338076  L 3.575804811578344 2.6489901502338076  L 3.575804811578344 10.324594567704706  L 1.7464191885042402 10.324594567704706  Z M 5.418775581833479 10.324594567704706  L 5.418775581833479 2.6489901502338076  L 7.253740818928363 2.6489901502338076  L 7.253740818928363 10.324594567704706  L 5.418775581833479 10.324594567704706  Z M 24.321294924667466 1.7853944881106358  C 24.321294924667466 1.7853944881106358  24.321294924667466 0.8849865685006467  24.321294924667466 0.8849865685006467  C 24.321294924667466 0.8849865685006467  26.304969005011845 0.8849865685006467  26.304969005011845 0.8849865685006467  C 26.304969005011845 2.186169262347963  26.04188162792885 3.3504586812335218  25.515574917028406 4.37792259476669  C 24.98926820612796 5.405386508299858  24.22977061021141 6.282348025557936  23.23690906932451 7.008755347726594  C 22.244246233484315 7.735162669895253  21.037440005277666 8.303142498647523  19.616709937493873 8.71256591383942  C 19.616709937493873 8.71256591383942  18.872437945504565 7.202019699532385  18.872437945504565 7.202019699532385  C 20.05919498256532 6.865304937980363  21.056745370288976 6.43011176447384  21.865051795954393 5.896428216097901  C 22.673424436893196 5.3625748793458055  23.285044611749708 4.747363094215594  23.699531849221387 4.050840712366929  C 24.114085331579716 3.354318330518263  24.321294924667466 2.5992491394474118  24.321294924667466 1.7853944881106358  Z M 19.657222787123015 2.428116605312904  L 19.657222787123015 0.8849865685006467  L 25.629835708497428 0.8849865685006467  L 25.629835708497428 2.428116605312904  L 19.657222787123015 2.428116605312904  Z M 29.066877945298103 8.428017112725101  L 29.066877945298103 0  L 30.965644855761038 0  L 30.965644855761038 8.428017112725101  L 29.066877945298103 8.428017112725101  Z M 26.369255862207794 5.21440652671376  L 26.369255862207794 3.6332205750671576  L 29.353621587583422 3.6332205750671576  L 29.353621587583422 5.21440652671376  L 26.369255862207794 5.21440652671376  Z M 21.380595743802292 14.820913341956024  L 21.380595743802292 9.047109740324345  L 30.965644855761038 9.047109740324345  L 30.965644855761038 14.820913341956024  L 21.380595743802292 14.820913341956024  Z M 29.10399450813199 13.283504128942393  L 29.10399450813199 10.573823500149238  L 23.242246091431344 10.573823500149238  L 23.242246091431344 13.283504128942393  L 29.10399450813199 13.283504128942393  Z M 36.778389705844404 3.5110934235399465  C 36.778389705844404 3.5110934235399465  36.778389705844404 1.1944085165655158  36.778389705844404 1.1944085165655158  L 38.31011505050557 1.1944085165655158  C 38.31011505050557 1.1944085165655158  38.31011505050557 3.5110934235399465  38.31011505050557 3.5110934235399465  C 38.31011505050557 4.410357822080048  38.22473679271311 5.2878718802661115  38.05369539746362 6.14366729678639  C 37.88258775732748 6.999462713306667  37.62651742242724 7.797929230358763  37.28589198982146 8.539448811063576  C 36.94520031232902 9.280798603392231  36.523103471126966 9.939069959515066  36.01931960710433 10.513879215998408  C 35.515734507354935 11.088416786789715  34.934913673963806 11.544180678296547  34.276781889223244 11.881404835339767  C 34.276781889223244 11.881404835339767  33.13854062898405 10.32160979007064  33.13854062898405 10.32160979007064  C 33.73294595806426 10.031590232587243  34.25711912164731 9.64644843767489  34.71102141518832 9.16625211421749  C 35.16512241377603 8.686055790760093  35.5457515846603 8.139842516058724  35.85265896222276 7.527609193115113  C 36.15969879994526 6.9152739728556245  36.39073364636484 6.266837772380391  36.54574406036925 5.582031638642921  C 36.70088696414698 4.897055655803839  36.778389705844404 4.206766802782373  36.778389705844404 3.5110934235399465  Z M 37.14567386356011 3.5110934235399465  C 37.14567386356011 3.5110934235399465  37.14567386356011 1.1944085165655158  37.14567386356011 1.1944085165655158  L 38.66672516400762 1.1944085165655158  C 38.66672516400762 1.1944085165655158  38.66672516400762 3.5110934235399465  38.66672516400762 3.5110934235399465  C 38.66672516400762 4.181466512971346  38.73971815992975 4.84450767151978  38.88578566230173 5.50044771664511  C 39.031985654447034 6.156217973394283  39.253208765483784 6.777689095670673  39.549517138860644 7.364690080588996  C 39.84595800201082 7.951691065507319  40.209493415782866 8.476216638162947  40.64021038396622 8.938414088150433  C 41.07112608680956 9.400407773868894  41.56973654204623 9.774700237285934  42.1357895334493 10.061187941498359  C 42.1357895334493 10.061187941498359  40.987116820910394 11.610038802109242  40.987116820910394 11.610038802109242  C 40.35382642446738 11.276346498336997  39.79856832903589 10.832108359184565  39.32148073975049 10.277335588498657  C 38.84452564023841 9.722494866027011  38.44543940609661 9.086058015740814  38.12428964442219 8.36807282857427  C 37.80320612763444 7.650189477998147  37.55989612148516 6.878766982238242  37.39408798344181 6.053875236294896  C 37.228478565251805 5.228813701975394  37.14567386356011 4.381321945091751  37.14567386356011 3.5110934235399465  Z M 43 15  L 43 0.00547209232912148  L 44 0.00547209232912148  L 44 15  L 43 15  Z M 44.38777027061902 7.464680131330216  L 44.38777027061902 5.850661625708885  L 47 5.850661625708885  L 47 7.464680131330216  L 44.38777027061902 7.464680131330216  Z " fill-rule="nonzero" fill="#26262c" stroke="none" transform="matrix(1 0 0 1 73 450 )" />
  </g>
</svg>