<?xml version="1.0" encoding="utf-8"?>
<svg version="1.1" xmlns:xlink="http://www.w3.org/1999/xlink" width="33px" height="12px" xmlns="http://www.w3.org/2000/svg">
  <g transform="matrix(1 0 0 1 -73 -715 )">
    <path d="M 4.355882352941176 6.297769893563102  C 4.514709442737056 6.5309076555719  4.594117647058824 6.830168888886689  4.594117647058824 7.195134313228586  C 4.594117647058824 7.620858116555926  4.491178355497472 7.978674786621342  4.285294117647059 8.26862645717182  C 4.079409879796645 8.558508925672358  3.785294745950138 8.776255047387782  3.402941176470588 8.922199695894577  C 3.0205943088905487 9.068213546451311  2.5647088144339767 9.141409021794221  2.0352941176470587 9.141409021794221  C 1.584312468884038 9.141409021794221  1.194119322533701 9.104684573529761  0.8647058823529412 9.031677648251392  C 0.5352964513442096 8.958670722973027  0.2470584046606924 8.855508842023568  0 8.721743537759757  C 0 8.721743537759757  0 7.7909275215408  0 7.7909275215408  C 0.26274500828163294 7.924762027854552  0.5764678356694241 8.046631663690288  0.9411764705882353 8.15610745058287  C 1.3058810963350185 8.26558323747545  1.6784309536803002 8.320324379118095  2.0588235294117645 8.320324379118095  C 2.615685436772365 8.320324379118095  3.019607843137255 8.226859539822764  3.2705882352941176 8.040293968575773  C 3.5215686274509803 7.853797599378722  3.6470588235294117 7.600361286053124  3.6470588235294117 7.280030410542322  C 3.6470588235294117 7.097547698371372  3.597062795302447 6.936611185204361  3.4970588235294118 6.796756208819057  C 3.397061546176088 6.656832030383814  3.229410089231005 6.520759996277876  2.9941176470588236 6.389001520527116  C 2.758825204886642 6.257243044776356  2.433337522020527 6.112508194735373  2.0176470588235293 5.954384186517993  C 1.605885285022212 5.792177334692172  1.250005235858992 5.630768580178108  0.9500000000000001 5.470603142422706  C 0.6500014660405178 5.31044463415286  0.4186260746974571 5.114803695098676  0.2558823529411765 4.883679675620882  C 0.09313729978075214 4.652562585628643  0.011764705882352941 4.352760125463286  0.011764705882352941 3.983781044095286  C 0.011764705882352941 3.420167562385169  0.2323553945503983 2.987073137502772  0.6735294117647058 2.68499746578814  C 1.1147060917873008 2.382921794073508  1.694114714977788 2.232133806386214  2.4117647058823533 2.232133806386214  C 2.800001256606158 2.232133806386214  3.1637294694489126 2.271665995578988  3.5029411764705882 2.3507349214394324  C 3.842159585391774 2.429796925548122  4.158825623755361 2.5359853753207364  4.452941176470588 2.6697921946274707  C 4.452941176470588 2.6697921946274707  4.123529411764705 3.4789660415610744  4.123529411764705 3.4789660415610744  C 3.8568610696231613 3.3613799105304425  3.572547763001685 3.262039238706918  3.2705882352941176 3.180942726811961  C 2.9686287075865505 3.0998462149170045  2.66078431372549 3.059047136340598  2.347058823529412 3.059047136340598  C 1.896077174766391 3.059047136340598  1.5499989528282017 3.136337999516916  1.3088235294117645 3.2904206791687787  C 1.0676481059953278 3.4444964293350857  0.9470588235294117 3.65509289965313  0.9470588235294117 3.922706538266599  C 0.9470588235294117 4.129499525330239  1.002942642511106 4.2997968299583444  1.114705882352941 4.433603649265079  C 1.2264691221947763 4.567410468571813  1.4058827718098958 4.693108243019038  1.6529411764705881 4.810694374049671  C 1.8999995811312806 4.928280505080303  2.2254872639973957 5.066393319084991  2.6294117647058823 5.2245311708058795  C 3.033329563514859 5.378613850457742  3.3823550355200673 5.537509583726004  3.676470588235294 5.701723264064876  C 3.9705928428500306 5.865930030385794  4.197061965044807 6.064632131554303  4.355882352941176 6.297769893563102  Z M 7.502941176470588 8.00405473897618  C 7.68921547684015 8.210826968518358  7.937255320829504 8.313988849467815  8.24705882352941 8.313988849467815  C 8.407840205173866 8.313988849467815  8.572544412051931 8.300039872383625  8.741176470588236 8.271667511403953  C 8.90980182722503 8.243295150424283  9.047060917873008 8.208823380467859  9.152941176470588 8.168271667511403  C 9.152941176470588 8.168271667511403  9.152941176470588 8.952610238215915  9.152941176470588 8.952610238215915  C 9.039216942880667 9.005341307016055  8.881374015060127 9.05013198195166  8.679411764705883 9.086670045615815  C 8.477456216251149 9.123138907230027  8.280392575731465 9.141409021794221  8.088235294117647 9.141409021794221  C 7.747055891448376 9.141409021794221  7.43725113214231 9.079566681016477  7.158823529411764 8.955904713634059  C 6.88038922478171 8.832242746251644  6.657840833476945 8.622194424535921  6.491176470588235 8.326153066396351  C 6.324505405800015 8.030180910306719  6.241176470588235 7.620656573705968  6.241176470588235 7.097567156614293  C 6.241176470588235 7.097567156614293  6.241176470588235 3.1441966548403446  6.241176470588235 3.1441966548403446  L 5.323529411764706 3.1441966548403446  L 5.323529411764706 2.651545869234668  L 6.247058823529412 2.2564622402432843  L 6.635294117647059 0.8086670045615814  L 7.223529411764706 0.8086670045615814  L 7.223529411764706 2.353522554485555  L 9.111764705882353 2.353522554485555  L 9.111764705882353 3.1441966548403446  L 7.223529411764706 3.1441966548403446  C 7.223529411764706 3.1441966548403446  7.223529411764706 7.067156614292955  7.223529411764706 7.067156614292955  C 7.223529411764706 7.484853103568091  7.316666876101027 7.797282509433999  7.502941176470588 8.00405473897618  Z M 11.438235294117646 2.6576279776989358  C 11.863697246476715 2.373800580294919  12.364724731445314 2.232133806386214  12.941176470588236 2.232133806386214  C 13.490254660213694 2.232133806386214  13.960809415929457 2.3578315808334387  14.352941176470589 2.6092245311708058  C 14.745072937011718 2.860617481508173  15.045062480253332 3.2121137492377563  15.25294117647059 3.6642169285352257  C 15.46075294345033 4.116320107832695  15.564705882352943 4.644701331748131  15.564705882352943 5.24885960466295  C 15.564705882352943 5.24885960466295  15.564705882352943 5.875063355296502  15.564705882352943 5.875063355296502  C 15.564705882352943 5.875063355296502  11.111764705882353 5.875063355296502  11.111764705882353 5.875063355296502  C 11.123544052535411 6.657656066863597  11.311779336368335 7.253925862918937  11.676470588235293 7.6634566649771925  C 12.041161840102252 8.072987467035446  12.55492493872549 8.27774961986822  13.217647058823529 8.27774961986822  C 13.62550692090801 8.27774961986822  13.98624106014476 8.239025914481733  14.3 8.161936137861124  C 14.613692040536918 8.084915563290457  14.939219874961703 7.971365571444975  15.276470588235295 7.8213380638621395  C 15.276470588235295 7.8213380638621395  15.276470588235295 8.70957932083122  15.276470588235295 8.70957932083122  C 14.95099921133004 8.859606828414059  14.62847215241077 8.969089103965548  14.308823529411764 9.038013177901671  C 13.989241835650276 9.106937251837799  13.611770988913143 9.141409021794221  13.176470588235293 9.141409021794221  C 12.556850179036458 9.141409021794221  12.016615415086934 9.01062314883743  11.555882352941175 8.749113025848962  C 11.095082361557905 8.487533700810552  10.737282098508349 8.10312729539209  10.48235294117647 7.5963000506842375  C 10.227490713082107 7.089472805976385  10.1 6.4693451314424415  10.1 5.735428281804359  C 10.1 5.0177390499279335  10.21668862735524 4.396351353625507  10.45 3.8712620375063356  C 10.683311372644761 3.346172721387164  11.012706412521062 2.9414623045885073  11.438235294117646 2.6576279776989358  Z M 13.83529411764706 3.311708058793715  C 13.599974897796033 3.1434322769002625  13.29805175182866 3.059047136340598  12.929411764705883 3.059047136340598  C 12.407841042911306 3.059047136340598  11.992163145775889 3.2356786713404393  11.68235294117647 3.588443993917892  C 11.372542736577053 3.9412023870097883  11.188174640431123 4.433851873336923  11.129411764705884 5.066396350734921  C 11.129411764705884 5.066396350734921  14.541176470588235 5.066396350734921  14.541176470588235 5.066396350734921  C 14.537227712425532 4.669031064883743  14.4774164686016 4.3190618206629345  14.361764705882353 4.016979219462747  C 14.24604601392559 3.714903547748115  14.07054640826057 3.4799769112016126  13.83529411764706 3.311708058793715  Z M 19.326470588235296 2.380892042574759  C 19.58722246955423 2.2815541781209414  19.896080525716144 2.232133806386214  20.25294117647059 2.232133806386214  C 21.05688159419041 2.232133806386214  21.69800157733992 2.5179942034853333  22.176470588235293 3.0897110998479476  C 22.654872669893155 3.661427996210562  22.894117647058824 4.520782640846743  22.894117647058824 5.668271667511404  C 22.894117647058824 6.42651954956364  22.784297000660615 7.063129995416641  22.564705882352943 7.578053725291434  C 22.345114764045267 8.093046657216167  22.036323667040058 8.482301598929297  21.63823529411765 8.745818550430815  C 21.24021385043275 9.009404703982277  20.770592423981313 9.141409021794221  20.229411764705883 9.141409021794221  C 19.88821228625728 9.141409021794221  19.58822275797526 9.094549891553552  19.32941176470588 9.001267105930054  C 19.070600771436503 8.9080535223565  18.849025875914332 8.782369591412785  18.66470588235294 8.624176381145464  C 18.480385888791552 8.466052372928084  18.32742379132439 8.29394695206578  18.205882352941174 8.107450582868728  C 18.205882352941174 8.107450582868728  18.13529411764706 8.107450582868728  18.13529411764706 8.107450582868728  C 18.147006535997576 8.265574591086107  18.16174274519378 8.456134345648678  18.179411764705883 8.679168778509883  C 18.197080784217984 8.902134009321149  18.205882352941174 9.096761480177712  18.205882352941174 9.263051191079574  C 18.205882352941174 9.263051191079574  18.205882352941174 12  18.205882352941174 12  L 17.22352941176471 12  L 17.22352941176471 2.353522554485555  L 18.029411764705884 2.353522554485555  L 18.158823529411766 3.3388241256969082  C 18.158823529411766 3.3388241256969082  18.205882352941174 3.3388241256969082  18.205882352941174 3.3388241256969082  C 18.33137254901961 3.136093224720247  18.48433463900697 2.950586983109874  18.66470588235294 2.7823112012164217  C 18.84507712569891 2.6140423488085247  19.065651777678845 2.4802368210465304  19.326470588235296 2.380892042574759  Z M 21.44411764705882 3.780030410542321  C 21.14802772671569 3.3157617150377754  20.694142719343596 3.08362899138368  20.08235294117647 3.08362899138368  C 19.6353401333678 3.08362899138368  19.27553935331457 3.172581560044982  19.002941176470586 3.3509883426254437  C 18.730409928864123 3.52940205469146  18.531372549019608 3.795999626550225  18.405882352941177 4.150785605676635  C 18.280392156862746 4.505578514288599  18.213712940964044 4.950588065841992  18.205882352941174 5.485808413583375  C 18.205882352941174 5.485808413583375  18.205882352941174 5.680435884439939  18.205882352941174 5.680435884439939  C 18.205882352941174 6.244077022221871  18.265693597232595 6.720729853015713  18.38529411764706 7.10998479472884  C 18.504894638061522 7.499239736441966  18.702931751924403 7.7950298388597625  18.97941176470588 7.9977192093259  C 19.255891777487363 8.200477781841975  19.6274949017693 8.302078053725293  20.094117647058823 8.302078053725293  C 20.494146937949985 8.302078053725293  20.827476082596124 8.190343099865766  21.094117647058823 7.967308667004562  C 21.360826140759038 7.744343436193297  21.559796606325634 7.433132475182542  21.691176470588236 7.033705017739482  C 21.822489405613318 6.634346762346363  21.88823529411765 6.175388249176381  21.88823529411765 5.6563608717688805  C 21.88823529411765 4.869740644204574  21.74014066808364 4.244299106046867  21.44411764705882 3.780030410542321  Z M 27.594117647058823 6.9242270653826665  C 27.44901751349954 6.43566885250689  27.376470588235293 5.866960806829701  27.376470588235293 5.218195641155601  C 27.376470588235293 4.682968363928662  27.412744050867417 4.159907902187341  27.485294117647058 3.649011657374557  C 27.5578441844267 3.1381154125617714  27.68033359004002 2.662948306780205  27.852941176470587 2.2230106436898125  C 28.02548183366364 1.78307298059942  28.26079269109988 1.396858443479156  28.558823529411768 1.0643689812468322  C 28.85685436772365 0.7318795190145083  29.228457521924785 0.4713627563414692  29.673529411764704 0.282818043588444  C 30.118668230842143 0.09427333083541878  30.65296834309896 0  31.276470588235295 0  C 31.452959995643766 0  31.64312889248717 0.008874716277782288  31.847058823529412 0.027116066903193105  C 32.050988754571655 0.045364339280358074  32.219620394239236 0.07500834786462952  32.35294117647059 0.11556006082108464  C 32.35294117647059 0.11556006082108464  32.35294117647059 0.9853015712113533  32.35294117647059 0.9853015712113533  C 32.207841042911305 0.9325843420478214  32.042143264471314 0.8940656191192178  31.855882352941176 0.8697415103902686  C 31.669554512173523 0.8454104818430155  31.482319476557713 0.8329954384186519  31.294117647058826 0.8329954384186519  C 30.564668244006587 0.8329954384186519  29.991160792930454 0.9972119338610301  29.573529411764703 1.3256462240243283  C 29.15589803059896 1.6540805141876267  28.854908228855507 2.0990900348058164  28.670588235294115 2.6606690319310697  C 28.48626824173273 3.222254896671471  28.38038170010436 3.854030696136119  28.352941176470587 4.5554992397364416  C 28.352941176470587 4.5554992397364416  28.417647058823526 4.5554992397364416  28.417647058823526 4.5554992397364416  C 28.539188497206744 4.352761424741827  28.69415111167758 4.169282104059095  28.88235294117647 4.005068423720223  C 29.070621699912877 3.8408478138957967  29.298997647154565 3.710082706194267  29.56764705882353 3.6127724277749618  C 29.836229541254976 3.5154552353377033  30.149021702186733 3.466548403446528  30.50588235294118 3.466548403446528  C 31.007843137254902 3.466548403446528  31.446058565027574 3.5722233056417894  31.820588235294117 3.783071464774455  C 32.195117905560664 3.993919623907121  32.48530562157725 4.299802893258205  32.69117647058823 4.701216421692854  C 32.897047319599224 5.1026368796130575  33 5.589452048454922  33 6.161175874303091  C 33 6.773465217942221  32.890179353601795 7.3026065198044705  32.67058823529412 7.748606183476939  C 32.45099711698644 8.194605847149408  32.138271885292205 8.538220103477018  31.73235294117647 8.7795235681703  C 31.326500926298255 9.02075783081364  30.84314353793275 9.141409021794221  30.28235294117647 9.141409021794221  C 29.86271371280446 9.141409021794221  29.476441297344135 9.058263083611173  29.123529411764707 8.89204257475925  C 28.770550596947764 8.725752863857387  28.46369305778952 8.478199281610333  28.20294117647059 8.14977192093259  C 27.94212236591414 7.821344560254847  27.739217780618105 7.412854480308383  27.594117647058823 6.9242270653826665  Z M 29.429411764705883 8.07704004054739  C 29.66861280553481 8.218971047495684  29.948998694326363 8.289913836796757  30.270588235294117 8.289913836796757  C 30.803871364219514 8.289913836796757  31.231351635502836 8.113303059318376  31.55294117647059 7.760516979219462  C 31.874530717438343 7.4077308991205495  32.03529411764706 6.874775348553124  32.03529411764706 6.161175874303091  C 32.03529411764706 5.577286532247846  31.892200784122245 5.115048021334896  31.605882352941176 4.7744551444500765  C 31.319630850997626 4.4338553380797014  30.888216445025275 4.263558033451597  30.311764705882354 4.263558033451597  C 29.919566016103705 4.263558033451597  29.578435561236212 4.347443261124794  29.288235294117648 4.515712113532691  C 28.998101956236596 4.683987895426144  28.77259294098499 4.896097746828275  28.611764705882354 5.151545869234668  C 28.451003400017235 5.406993991641061  28.370588235294118 5.666271551937484  28.370588235294118 5.929802331474912  C 28.370588235294118 6.197471344102413  28.408862222409716 6.469361991128278  28.485294117647058 6.745058286872782  C 28.561792942121915 7.020754582617286  28.67841464771944 7.276190160798713  28.83529411764706 7.511403953370502  C 28.99210667329676 7.746548543892351  29.190143794639436 7.935109033599096  29.429411764705883 8.07704004054739  Z " fill-rule="nonzero" fill="#747483" stroke="none" transform="matrix(1 0 0 1 73 715 )" />
  </g>
</svg>