<?xml version="1.0" encoding="utf-8"?>
<svg version="1.1" xmlns:xlink="http://www.w3.org/1999/xlink" width="13px" height="13px" viewBox="179 583  13 13" xmlns="http://www.w3.org/2000/svg">
  <path d="M 185.5 583.5  C 188.86 583.5  191.5 586.14  191.5 589.5  C 191.5 592.86  188.86 595.5  185.5 595.5  C 182.14 595.5  179.5 592.86  179.5 589.5  C 179.5 586.14  182.14 583.5  185.5 583.5  Z " fill-rule="nonzero" fill="#ffffff" stroke="none" />
  <path d="M 185.5 583.5  C 188.86 583.5  191.5 586.14  191.5 589.5  C 191.5 592.86  188.86 595.5  185.5 595.5  C 182.14 595.5  179.5 592.86  179.5 589.5  C 179.5 586.14  182.14 583.5  185.5 583.5  Z " stroke-width="1" stroke="#fc4a36" fill="none" stroke-opacity="0.9921568627450981" />
  <path d="M 185.5 592.75  C 183.68 592.75  182.25 591.32  182.25 589.5  C 182.25 587.68  183.68 586.25  185.5 586.25  C 187.32 586.25  188.75 587.68  188.75 589.5  C 188.75 591.32  187.32 592.75  185.5 592.75  " fill-rule="nonzero" fill="#fc4a36" stroke="none" fill-opacity="0.9921568627450981" />
</svg>