<?xml version="1.0" encoding="utf-8"?>
<svg version="1.1" xmlns:xlink="http://www.w3.org/1999/xlink" width="13px" height="13px" viewBox="321 583  13 13" xmlns="http://www.w3.org/2000/svg">
  <path d="M 327.5 583.5  C 330.86 583.5  333.5 586.14  333.5 589.5  C 333.5 592.86  330.86 595.5  327.5 595.5  C 324.14 595.5  321.5 592.86  321.5 589.5  C 321.5 586.14  324.14 583.5  327.5 583.5  Z " fill-rule="nonzero" fill="#f0f0f0" stroke="none" />
  <path d="M 327.5 583.5  C 330.86 583.5  333.5 586.14  333.5 589.5  C 333.5 592.86  330.86 595.5  327.5 595.5  C 324.14 595.5  321.5 592.86  321.5 589.5  C 321.5 586.14  324.14 583.5  327.5 583.5  Z " stroke-width="1" stroke="#fc4a36" fill="none" stroke-opacity="0.9921568627450981" />
  <path d="M 327.5 592.75  C 325.68 592.75  324.25 591.32  324.25 589.5  C 324.25 587.68  325.68 586.25  327.5 586.25  C 329.32 586.25  330.75 587.68  330.75 589.5  C 330.75 591.32  329.32 592.75  327.5 592.75  " fill-rule="nonzero" fill="#fc4a36" stroke="none" fill-opacity="0.9921568627450981" />
</svg>