<?xml version="1.0" encoding="utf-8"?>
<svg version="1.1" xmlns:xlink="http://www.w3.org/1999/xlink" width="16px" height="14px" xmlns="http://www.w3.org/2000/svg">
  <defs>
    <mask fill="white" id="clip2171">
      <path d="M 13.47563055725449 0.49383191274784444  C 13.47563055725449 0.49383191274784444  13.512922802917604 0.44634806446927094  13.512922802917604 0.44634806446927094  C 13.789409857652862 0.15689279480980714  14.157341343469854 -0.00312984242627057  14.539080066580594 4.6393975337574554E-05  C 14.920818789691333 0.003222630376945719  15.286505730807189 0.16934974058298366  15.55897796822494 0.4633725956198228  C 15.831450205642692 0.7573954506566618  15.98939537335824 1.1563167536241856  15.999485249833993 1.5759600098329847  C 16.00957512630975 1.995603266041784  15.871021039711103 2.4031457336416726  15.613058556575021 2.712590734205511  C 15.613058556575021 2.712590734205511  7.781709429146746 13.482638268630147  7.781709429146746 13.482638268630147  C 7.64704748078929 13.64213476720982  7.4845190203696 13.770131465770099  7.303843452307695 13.858976943209074  C 7.12316788424579 13.947822420648048  6.928055007138648 13.995692451423883  6.730171238662042 13.999722124083506  C 6.532287470185436 14.003751796743126  6.335696645911316 13.963858257066319  6.152153597705899 13.882429670561194  C 5.968610549500482 13.80100108405607  5.8018846085722755 13.679708286708253  5.661944847795396 13.525803719332385  C 5.661944847795396 13.525803719332385  0.4685235245505412 7.814873183459709  0.4685235245505412 7.814873183459709  C 0.3238951940584728 7.666678049563213  0.2078927637357572 7.48796826456713  0.12743602591345926 7.2894036503485875  C 0.04697928809116133 7.090839036130044  0.003716464566500552 6.87648848084869  0.0002290911431276656 6.659138875766971  C -0.0032582822802452206 6.441789270685253  0.03310131652034503 6.225893432637951  0.10713802300371696 6.024331344535702  C 0.18117472948708888 5.822769256433453  0.2913721964249197 5.639670350580901  0.43115640613600914 5.485957048028574  C 0.5709406158470985 5.332243745476246  0.7374475539774045 5.211065419176555  0.9207446188719578 5.129651168688766  C 1.1040416837665112 5.048236918200975  1.3003736121048646 5.008254192495965  1.4980275709548005 5.012089072610448  C 1.6956815298047365 5.015923952724931  1.8906082048134756 5.063497789563246  2.07117941897809 5.151971808973687  C 2.2517506331427044 5.240445828384128  2.4142662101846595 5.3680075659069475  2.549032293085642 5.527047691887655  C 2.549032293085642 5.527047691887655  6.659019662988387 10.044423978662659  6.659019662988387 10.044423978662659  L 13.47563055725449 0.49383191274784444  Z " fill-rule="evenodd" />
    </mask>
  </defs>
  <g transform="matrix(1 0 0 1 -26 -467 )">
    <path d="M 13.47563055725449 0.49383191274784444  C 13.47563055725449 0.49383191274784444  13.512922802917604 0.44634806446927094  13.512922802917604 0.44634806446927094  C 13.789409857652862 0.15689279480980714  14.157341343469854 -0.00312984242627057  14.539080066580594 4.6393975337574554E-05  C 14.920818789691333 0.003222630376945719  15.286505730807189 0.16934974058298366  15.55897796822494 0.4633725956198228  C 15.831450205642692 0.7573954506566618  15.98939537335824 1.1563167536241856  15.999485249833993 1.5759600098329847  C 16.00957512630975 1.995603266041784  15.871021039711103 2.4031457336416726  15.613058556575021 2.712590734205511  C 15.613058556575021 2.712590734205511  7.781709429146746 13.482638268630147  7.781709429146746 13.482638268630147  C 7.64704748078929 13.64213476720982  7.4845190203696 13.770131465770099  7.303843452307695 13.858976943209074  C 7.12316788424579 13.947822420648048  6.928055007138648 13.995692451423883  6.730171238662042 13.999722124083506  C 6.532287470185436 14.003751796743126  6.335696645911316 13.963858257066319  6.152153597705899 13.882429670561194  C 5.968610549500482 13.80100108405607  5.8018846085722755 13.679708286708253  5.661944847795396 13.525803719332385  C 5.661944847795396 13.525803719332385  0.4685235245505412 7.814873183459709  0.4685235245505412 7.814873183459709  C 0.3238951940584728 7.666678049563213  0.2078927637357572 7.48796826456713  0.12743602591345926 7.2894036503485875  C 0.04697928809116133 7.090839036130044  0.003716464566500552 6.87648848084869  0.0002290911431276656 6.659138875766971  C -0.0032582822802452206 6.441789270685253  0.03310131652034503 6.225893432637951  0.10713802300371696 6.024331344535702  C 0.18117472948708888 5.822769256433453  0.2913721964249197 5.639670350580901  0.43115640613600914 5.485957048028574  C 0.5709406158470985 5.332243745476246  0.7374475539774045 5.211065419176555  0.9207446188719578 5.129651168688766  C 1.1040416837665112 5.048236918200975  1.3003736121048646 5.008254192495965  1.4980275709548005 5.012089072610448  C 1.6956815298047365 5.015923952724931  1.8906082048134756 5.063497789563246  2.07117941897809 5.151971808973687  C 2.2517506331427044 5.240445828384128  2.4142662101846595 5.3680075659069475  2.549032293085642 5.527047691887655  C 2.549032293085642 5.527047691887655  6.659019662988387 10.044423978662659  6.659019662988387 10.044423978662659  L 13.47563055725449 0.49383191274784444  Z " fill-rule="nonzero" fill="#d7d7d7" stroke="none" transform="matrix(1 0 0 1 26 467 )" />
    <path d="M 13.47563055725449 0.49383191274784444  C 13.47563055725449 0.49383191274784444  13.512922802917604 0.44634806446927094  13.512922802917604 0.44634806446927094  C 13.789409857652862 0.15689279480980714  14.157341343469854 -0.00312984242627057  14.539080066580594 4.6393975337574554E-05  C 14.920818789691333 0.003222630376945719  15.286505730807189 0.16934974058298366  15.55897796822494 0.4633725956198228  C 15.831450205642692 0.7573954506566618  15.98939537335824 1.1563167536241856  15.999485249833993 1.5759600098329847  C 16.00957512630975 1.995603266041784  15.871021039711103 2.4031457336416726  15.613058556575021 2.712590734205511  C 15.613058556575021 2.712590734205511  7.781709429146746 13.482638268630147  7.781709429146746 13.482638268630147  C 7.64704748078929 13.64213476720982  7.4845190203696 13.770131465770099  7.303843452307695 13.858976943209074  C 7.12316788424579 13.947822420648048  6.928055007138648 13.995692451423883  6.730171238662042 13.999722124083506  C 6.532287470185436 14.003751796743126  6.335696645911316 13.963858257066319  6.152153597705899 13.882429670561194  C 5.968610549500482 13.80100108405607  5.8018846085722755 13.679708286708253  5.661944847795396 13.525803719332385  C 5.661944847795396 13.525803719332385  0.4685235245505412 7.814873183459709  0.4685235245505412 7.814873183459709  C 0.3238951940584728 7.666678049563213  0.2078927637357572 7.48796826456713  0.12743602591345926 7.2894036503485875  C 0.04697928809116133 7.090839036130044  0.003716464566500552 6.87648848084869  0.0002290911431276656 6.659138875766971  C -0.0032582822802452206 6.441789270685253  0.03310131652034503 6.225893432637951  0.10713802300371696 6.024331344535702  C 0.18117472948708888 5.822769256433453  0.2913721964249197 5.639670350580901  0.43115640613600914 5.485957048028574  C 0.5709406158470985 5.332243745476246  0.7374475539774045 5.211065419176555  0.9207446188719578 5.129651168688766  C 1.1040416837665112 5.048236918200975  1.3003736121048646 5.008254192495965  1.4980275709548005 5.012089072610448  C 1.6956815298047365 5.015923952724931  1.8906082048134756 5.063497789563246  2.07117941897809 5.151971808973687  C 2.2517506331427044 5.240445828384128  2.4142662101846595 5.3680075659069475  2.549032293085642 5.527047691887655  C 2.549032293085642 5.527047691887655  6.659019662988387 10.044423978662659  6.659019662988387 10.044423978662659  L 13.47563055725449 0.49383191274784444  Z " stroke-width="2" stroke="#ffffff" fill="none" transform="matrix(1 0 0 1 26 467 )" mask="url(#clip2171)" />
  </g>
</svg>