<?xml version="1.0" encoding="utf-8"?>
<svg version="1.1" xmlns:xlink="http://www.w3.org/1999/xlink" width="30px" height="30px" xmlns="http://www.w3.org/2000/svg">
  <g transform="matrix(1 0 0 1 -353 -565 )">
    <path d="M 0 0  L 0 13.333333333333334  L 13.325929869513422 13.333333333333334  L 13.325929869513422 0  L 0 0  Z M 3.3314824673783554 10  L 3.3314824673783554 3.3333333333333335  L 9.994447402135066 3.3333333333333335  L 9.994447402135066 10  L 3.3314824673783554 10  Z M 0 16.666666666666668  L 0 30  L 13.325929869513422 30  L 13.325929869513422 16.666666666666668  L 0 16.666666666666668  Z M 3.3314824673783554 26.666666666666668  L 3.3314824673783554 20  L 9.994447402135066 20  L 9.994447402135066 26.666666666666668  L 3.3314824673783554 26.666666666666668  Z M 30 0  L 16.657412336891774 0  L 16.657412336891774 13.333333333333334  L 30 13.333333333333334  L 30 0  Z M 26.651859739026843 3.3333333333333335  L 26.651859739026843 10  L 19.98889480427013 10  L 19.98889480427013 3.3333333333333335  L 26.651859739026843 3.3333333333333335  Z M 16.67407013048658 20  L 16.67407013048658 16.666666666666668  L 20.005552597864934 16.666666666666668  L 20.005552597864934 20  L 16.67407013048658 20  Z M 20.005552597864934 23.333333333333332  L 20.005552597864934 20  L 23.337035065243292 20  L 23.337035065243292 23.333333333333332  L 20.005552597864934 23.333333333333332  Z M 16.67407013048658 26.666666666666668  L 16.67407013048658 23.333333333333332  L 20.005552597864934 23.333333333333332  L 20.005552597864934 26.666666666666668  L 16.67407013048658 26.666666666666668  Z M 23.337035065243292 26.666666666666668  L 23.337035065243292 23.333333333333332  L 26.668517532621646 23.333333333333332  L 26.668517532621646 26.666666666666668  L 23.337035065243292 26.666666666666668  Z M 26.668517532621646 30  L 26.668517532621646 26.666666666666668  L 30 26.666666666666668  L 30 30  L 26.668517532621646 30  Z M 20.005552597864934 30  L 20.005552597864934 26.666666666666668  L 23.337035065243292 26.666666666666668  L 23.337035065243292 30  L 20.005552597864934 30  Z M 23.337035065243292 20  L 23.337035065243292 16.666666666666668  L 26.668517532621646 16.666666666666668  L 26.668517532621646 20  L 23.337035065243292 20  Z M 26.668517532621646 23.333333333333332  L 26.668517532621646 20  L 30 20  L 30 23.333333333333332  L 26.668517532621646 23.333333333333332  Z " fill-rule="nonzero" fill="#111111" stroke="none" transform="matrix(1 0 0 1 353 565 )" />
  </g>
</svg>