<?xml version="1.0" encoding="utf-8"?>
<svg version="1.1" xmlns:xlink="http://www.w3.org/1999/xlink" width="699px" height="93px" xmlns="http://www.w3.org/2000/svg">
  <g transform="matrix(1 0 0 1 -100 -1547 )">
    <path d="M 0 15.5  C 0 6.939585953950882  7.495878820647736 0  16.742514970059883 0  C 16.742514970059883 0  682.2574850299402 0  682.2574850299402 0  C 691.5041211793523 0  699 6.939585953950882  699 15.5  C 699 15.5  699 77.5  699 77.5  C 699 86.06041404604912  691.5041211793523 93  682.2574850299402 93  C 682.2574850299402 93  16.742514970059883 93  16.742514970059883 93  C 7.495878820647736 93  0 86.06041404604912  0 77.5  C 0 77.5  0 15.5  0 15.5  Z " fill-rule="nonzero" fill="#fc4a36" stroke="none" transform="matrix(1 0 0 1 100 1547 )" />
  </g>
</svg>