<?xml version="1.0" encoding="utf-8"?>
<svg version="1.1" xmlns:xlink="http://www.w3.org/1999/xlink" width="23px" height="37px" xmlns="http://www.w3.org/2000/svg">
  <g transform="matrix(1 0 0 1 -57 -72 )">
    <path d="M 21.980002881684598 5.636951020831191  C 23.307303098862466 4.3456140105849865  23.307303098862466 2.226544753766644  21.980002881684598 0.9683195106230841  C 20.620761920536765 -0.3227732096793289  18.414309293398073 -0.3227732096793289  17.05506833225024 0.9683195106230841  C 17.05506833225024 0.9683195106230841  1.0215291647164313 16.16641172684926  1.0215291647164313 16.16641172684926  C -0.34050967993139575 17.45484828247441  -0.34050967993139575 19.546606799847115  1.0215291647164313 20.83504335547227  C 1.0215291647164313 20.83504335547227  17.05506833225024 36.03313569011335  17.05506833225024 36.03313569011335  C 18.415126659640894 37.32228735333451  20.619944554293944 37.32228735333451  21.980002881684598 36.03313569011335  C 23.339998248264255 34.74398402689219  23.339998248264255 32.65341321099124  21.980002881684598 31.364261547770084  C 21.980002881684598 31.364261547770084  8.42709568253082 18.484115351323318  8.42709568253082 18.484115351323318  C 8.42709568253082 18.484115351323318  21.980002881684598 5.636951020831191  21.980002881684598 5.636951020831191  Z " fill-rule="nonzero" fill="#000000" stroke="none" transform="matrix(1 0 0 1 57 72 )" />
  </g>
</svg>