<?xml version="1.0" encoding="utf-8"?>
<svg version="1.1" xmlns:xlink="http://www.w3.org/1999/xlink" width="119px" height="38px" xmlns="http://www.w3.org/2000/svg">
  <g transform="matrix(1 0 0 1 -387 -1574 )">
    <path d="M 0 34  L 0 30  L 37.75719179375728 30  L 37.75719179375728 34  L 0 34  Z M 16.12692597122992 31.886195086888502  L 16.12692597122992 22.62165658957338  L 21.49438515647472 22.62165658957338  L 21.49438515647472 31.886195086888502  L 16.12692597122992 31.886195086888502  Z M 4.36339441624513 7  L 4.36339441624513 3  L 34 3  L 34 15.158547207306245  L 9.775455652178966 15.158547207306245  L 9.775455652178966 22.00082871760179  L 5 22.00082871760179  L 5 11.22792270939918  L 28.05780165438132 11.22792270939918  L 28.05780165438132 7  L 4.36339441624513 7  Z M 4.439114176717212 24  L 4.439114176717212 20  L 34.34669080153525 20  L 34.34669080153525 24  L 4.439114176717212 24  Z M 45.61959979894066 8  L 45.61959979894066 4  L 72.13188853409729 4  L 72.13188853409729 8  L 45.61959979894066 8  Z M 41.69289057665097 33  L 41.69289057665097 29  L 79.39095872182045 29  L 79.39095872182045 33  L 41.69289057665097 33  Z M 69.29741092519255 8.076225106760814  C 69.29741092519255 8.076225106760814  69.29741092519255 3.6748382732231195  69.29741092519255 3.6748382732231195  L 74.6503485125386 3.6748382732231195  C 74.6503485125386 3.6748382732231195  74.6503485125386 8.076225106760814  74.6503485125386 8.076225106760814  C 74.6503485125386 9.837309485460446  74.62755375501804 11.647093426942837  74.58223530334682 13.505576931207983  C 74.5369168516756 15.36406043547313  74.41360165235713 17.369491792762464  74.21193455692857 19.522015982410892  C 74.01045629156938 21.674276887076655  73.6478146430198 24.10256212739419  73.12419772384557 26.80710329372965  C 73.12419772384557 26.80710329372965  67.72700383814143 26.35690668470678  67.72700383814143 26.35690668470678  C 68.26100624230843 23.830667663034863  68.63355575057578 21.505305198181365  68.84447537168376 19.380947951460826  C 69.0559614618969 17.256678414099827  69.1843250166605 15.265613190906304  69.2296434683317 13.407568390342902  C 69.27496192000292 11.549084886077756  69.29741092519255 9.771937769874953  69.29741092519255 8.076225106760814  Z M 112 27.954927910024946  L 112 0  L 117 0  L 117 27.954927910024946  L 112 27.954927910024946  Z M 90.39176063478965 38  L 90.39176063478965 34  L 119 34  L 119 38  L 90.39176063478965 38  Z M 90 35.564889433850574  L 90 25.147063549109976  L 95 25.147063549109976  L 95 35.564889433850574  L 90 35.564889433850574  Z M 89.57958840945211 3.75517314278466  C 91.27242136591647 2.9264017559379094  93.17194651769611 2.511910701450256  95.27793257538998 2.511910701450256  C 97.39373762786845 2.511910701450256  99.29545715894365 2.9264017559379094  100.98319178794631 3.75517314278466  C 102.6713040770878 4.5839445296314105  104.01131467522978 5.731021027453914  105.00359989191608 7.1963976153228195  C 105.99626276874118 8.661774203191724  106.49275518120037 10.349489467279396  106.49275518120037 12.259743774047609  C 106.49275518120037 14.13226689509693  105.99626276874118 15.808326542416284  105.00359989191608 17.28774259016532  C 104.01131467522978 18.76715863791436  102.6713040770878 19.925978618768763  100.98319178794631 20.764314405310557  C 99.29545715894365 21.602299197510145  97.39373762786845 22.0210731047313  95.27793257538998 22.0210731047313  C 93.17194651769611 22.0210731047313  91.27242136591647 21.602299197510145  89.57958840945211 20.764314405310557  C 87.88675545298776 19.925978618768763  86.54389087869622 18.76715863791436  85.55122800187112 17.28774259016532  C 84.55894278518484 15.808326542416284  84.06276421724868 14.13226689509693  84.06276421724868 12.259743774047609  C 84.06276421724868 10.349489467279396  84.55894278518484 8.661774203191724  85.55122800187112 7.1963976153228195  C 86.54389087869622 5.731021027453914  87.88675545298776 4.5839445296314105  89.57958840945211 3.75517314278466  Z M 98.32262760149574 7.495564669569997  C 97.41814684766237 7.056829155529233  96.40334071187618 6.837461418121855  95.27793257538998 6.837461418121855  C 94.15252443890381 6.837461418121855  93.13991268241318 7.056829155529233  92.24015259590269 7.495564669569997  C 91.3409589996004 7.934300183610762  90.63254438134757 8.555366275144285  90.11515877005145 9.35869096444125  C 89.59777315875534 10.161576950036467  89.33894478712988 11.128683648583834  89.33894478712988 12.259743774047609  C 89.33894478712988 13.37193830665194  89.59777315875534 14.329515359749589  90.11515877005145 15.132840049046552  C 90.63254438134757 15.93572603464177  91.3409589996004 16.556588150920547  92.24015259590269 16.99532366496131  C 93.13991268241318 17.434059179002077  94.15252443890381 17.653426916409455  95.27793257538998 17.653426916409455  C 96.40334071187618 17.653426916409455  97.41814684766237 17.434059179002077  98.32262760149574 16.99532366496131  C 99.22710835532912 16.556588150920547  99.93784236733117 15.93572603464177  100.45522797862728 15.132840049046552  C 100.9726135899234 14.329515359749589  101.23144196154885 13.37193830665194  101.23144196154885 12.259743774047609  C 101.23144196154885 11.128683648583834  100.9726135899234 10.161576950036467  100.45522797862728 9.35869096444125  C 99.93784236733117 8.555366275144285  99.22710835532912 7.934300183610762  98.32262760149574 7.495564669569997  Z " fill-rule="nonzero" fill="#ffffff" stroke="none" transform="matrix(1 0 0 1 387 1574 )" />
  </g>
</svg>