<?xml version="1.0" encoding="utf-8"?>
<svg version="1.1" xmlns:xlink="http://www.w3.org/1999/xlink" width="874px" height="716px" xmlns="http://www.w3.org/2000/svg">
  <g transform="matrix(1 0 0 1 -9 -24 )">
    <path d="M 0 23.866666666666667  C 0 10.685470459196303  11.452774306041437 0  25.58048780487805 0  C 25.58048780487805 0  848.4195121951219 0  848.4195121951219 0  C 862.5472256939586 0  874 10.685470459196303  874 23.866666666666667  C 874 23.866666666666667  874 692.1333333333333  874 692.1333333333333  C 874 705.3145295408037  862.5472256939586 716  848.4195121951219 716  C 848.4195121951219 716  25.58048780487805 716  25.58048780487805 716  C 11.452774306041437 716  0 705.3145295408037  0 692.1333333333333  C 0 692.1333333333333  0 23.866666666666667  0 23.866666666666667  Z " fill-rule="nonzero" fill="#ffffff" stroke="none" transform="matrix(1 0 0 1 9 24 )" />
  </g>
</svg>