<?xml version="1.0" encoding="utf-8"?>
<svg version="1.1" xmlns:xlink="http://www.w3.org/1999/xlink" width="95px" height="64px" xmlns="http://www.w3.org/2000/svg">
  <defs>
    <filter x="-1px" y="10px" width="95px" height="64px" filterUnits="userSpaceOnUse" id="filter2347">
      <feOffset dx="1" dy="1" in="SourceAlpha" result="shadowOffsetInner" />
      <feGaussianBlur stdDeviation="1" in="shadowOffsetInner" result="shadowGaussian" />
      <feComposite in2="shadowGaussian" operator="atop" in="SourceAlpha" result="shadowComposite" />
      <feColorMatrix type="matrix" values="0 0 0 0 0.7215686274509804  0 0 0 0 0.7215686274509804  0 0 0 0 0.7568627450980392  0 0 0 1 0  " in="shadowComposite" />
    </filter>
    <g id="widget2348">
      <path d="M 1 16  A 4 4 0 0 1 4.999999999999999 12 L 86 12  A 4 4 0 0 1 90 16 L 90 66  A 4 4 0 0 1 86 70 L 5 70  A 4 4 0 0 1 1 66 L 1 16  Z " fill-rule="nonzero" fill="#ffffff" stroke="none" />
      <path d="M 0.5 16  A 4.5 4.5 0 0 1 4.999999999999999 11.5 L 86 11.5  A 4.5 4.5 0 0 1 90.5 16 L 90.5 66  A 4.5 4.5 0 0 1 86 70.5 L 5 70.5  A 4.5 4.5 0 0 1 0.5 66 L 0.5 16  Z " stroke-width="1" stroke="#fc4a36" fill="none" stroke-opacity="0.9921568627450981" />
    </g>
  </defs>
  <g transform="matrix(1 0 0 1 1 -10 )">
    <use xlink:href="#widget2348" filter="url(#filter2347)" />
    <use xlink:href="#widget2348" />
  </g>
</svg>