<?xml version="1.0" encoding="utf-8"?>
<svg version="1.1" xmlns:xlink="http://www.w3.org/1999/xlink" width="95px" height="64px" xmlns="http://www.w3.org/2000/svg">
  <defs>
    <filter x="290px" y="10px" width="95px" height="64px" filterUnits="userSpaceOnUse" id="filter2351">
      <feOffset dx="1" dy="1" in="SourceAlpha" result="shadowOffsetInner" />
      <feGaussianBlur stdDeviation="1" in="shadowOffsetInner" result="shadowGaussian" />
      <feComposite in2="shadowGaussian" operator="atop" in="SourceAlpha" result="shadowComposite" />
      <feColorMatrix type="matrix" values="0 0 0 0 0.7215686274509804  0 0 0 0 0.7215686274509804  0 0 0 0 0.7568627450980392  0 0 0 1 0  " in="shadowComposite" />
    </filter>
    <g id="widget2352">
      <path d="M 292 16  A 4 4 0 0 1 296 12 L 377 12  A 4 4 0 0 1 381 16 L 381 66  A 4 4 0 0 1 377 70 L 296 70  A 4 4 0 0 1 292 66 L 292 16  Z " fill-rule="nonzero" fill="#ffffff" stroke="none" />
      <path d="M 291.5 16  A 4.5 4.5 0 0 1 296 11.5 L 377 11.5  A 4.5 4.5 0 0 1 381.5 16 L 381.5 66  A 4.5 4.5 0 0 1 377 70.5 L 296 70.5  A 4.5 4.5 0 0 1 291.5 66 L 291.5 16  Z " stroke-width="1" stroke="#fc4a36" fill="none" stroke-opacity="0.9921568627450981" />
    </g>
  </defs>
  <g transform="matrix(1 0 0 1 -290 -10 )">
    <use xlink:href="#widget2352" filter="url(#filter2351)" />
    <use xlink:href="#widget2352" />
  </g>
</svg>