<?xml version="1.0" encoding="utf-8"?>
<svg version="1.1" xmlns:xlink="http://www.w3.org/1999/xlink" width="6px" height="11px" xmlns="http://www.w3.org/2000/svg">
  <g transform="matrix(1 0 0 1 -392 -400 )">
    <path d="M 4.551474609375 5.5  C 4.551474609375 5.5  0.17572265625 1.0432454427083333  0.17572265625 1.0432454427083333  C 0.1194621777534485 0.9859424514902961  0.07612246870994568 0.9198323104116652  0.045673828124999996 0.8449625651041667  C 0.015225827693939209 0.7700928197966681  0 0.6921493311723074  0 0.611111111111111  C 0 0.5709850019878812  0.0038572087883949283 0.5312575068738725  0.01154296875 0.4919026692708333  C 0.019228728711605074 0.4525471140940984  0.03059734761714935 0.41433112422625223  0.045673828124999996 0.3772596571180556  C 0.06075030863285064 0.3401881900098589  0.07924481213092804 0.3049620419740677  0.1011328125 0.2715983072916667  C 0.12302017271518709 0.23823457260926564  0.14786537647247314 0.2073505868514379  0.17572265625 0.1789767795138889  C 0.20358057618141176 0.15060362418492634  0.23390303492546083 0.1252983240617646  0.26666015625 0.10300564236111111  C 0.2994172775745392 0.08071230865187115  0.3340029501914978 0.0618753143482738  0.370400390625 0.046519639756944446  C 0.4067978310585022 0.03116396516561508  0.444318984746933 0.0195848162803385  0.48295898437499996 0.011756727430555556  C 0.5215982794761658 0.003928638580772611  0.5606034564971923 0  0.6000000000000001 0  C 0.6795647978782653 0  0.7560911321640015 0.015507787466049194  0.829599609375 0.046519639756944446  C 0.9031080865859986 0.07753214405642615  0.9680162250995635 0.12167444030443827  1.0242773437500001 0.1789767795138889  C 1.0242773437500001 0.1789767795138889  5.824248046875 5.0678955078125  5.824248046875 5.0678955078125  C 5.852107247114182 5.096270619167222  5.877008484005928 5.127125417523914  5.898896484375 5.160487196180555  C 5.920784484744072 5.193848974837198  5.939254172444343 5.229077730907335  5.9543261718750005 5.266148546006945  C 5.969404571056366 5.303219361106555  5.98077063113451 5.3414327429400545  5.98845703125 5.380791558159722  C 5.99614343136549 5.420143853293524  6 5.45987200041612  6 5.5  C 6 5.54012799958388  5.99614343136549 5.579856146706476  5.98845703125 5.619208441840277  C 5.98077063113451 5.6585607369740805  5.969404571056366 5.696774122450087  5.9543261718750005 5.733851453993055  C 5.939254172444343 5.770922269092665  5.920784484744072 5.806151025162803  5.898896484375 5.839512803819445  C 5.877008484005928 5.8728745824760855  5.852107247114182 5.903729380832777  5.824248046875 5.9321044921875  C 5.824248046875 5.9321044921875  1.0242773437500001 10.820963541666668  1.0242773437500001 10.820963541666668  C 0.9680162250995635 10.878261320458519  0.9031080865859986 10.922422371970283  0.829599609375 10.953450520833332  C 0.7560911321640015 10.984478669696385  0.6795647978782653 11  0.6000000000000001 11  C 0.5606034564971923 11  0.5215982794761658 10.996095334572924  0.48295898437499996 10.988273111979167  C 0.444318984746933 10.98045088938541  0.4067978310585022 10.968834224508868  0.370400390625 10.953450520833332  C 0.3340029501914978 10.938132001625167  0.2994172775745392 10.919347370167573  0.26666015625 10.897054036458332  C 0.23390303492546083 10.874760702749093  0.20358057618141176 10.849384282694922  0.17572265625 10.820963541666668  C 0.14786537647247314 10.792607986927033  0.12302017271518709 10.761746668484477  0.1011328125 10.728371853298611  C 0.07924481213092804 10.694997038112746  0.06075030863285064 10.659795367717743  0.045673828124999996 10.622770182291667  C 0.03059734761714935 10.58567981057697  0.019228728711605074 10.547439343068334  0.01154296875 10.508067491319444  C 0.0038572087883949283 10.468760825859176  0 10.429042961531216  0 10.38888888888889  C 0 10.307850668827694  0.015225827693939209 10.229909139871598  0.045673828124999996 10.155037434895833  C 0.07612246870994568 10.080172250005933  0.1194615375995636 10.014088691936598  0.17572265625 9.956784396701389  C 0.17572265625 9.956784396701389  4.551474609375 5.5  4.551474609375 5.5  Z " fill-rule="nonzero" fill="#333333" stroke="none" transform="matrix(1 0 0 1 392 400 )" />
  </g>
</svg>