<?xml version="1.0" encoding="utf-8"?>
<svg version="1.1" xmlns:xlink="http://www.w3.org/1999/xlink" width="11px" height="19px" xmlns="http://www.w3.org/2000/svg">
  <g transform="matrix(1 0 0 1 -27 -43 )">
    <path d="M 10.512174952095002 2.894682509283743  C 11.14697114945925 2.2315624174294735  11.14697114945925 1.143362693023008  10.512174952095002 0.49724596889408235  C 9.86210273612493 -0.1657486765672782  8.806704396831536 -0.1657486765672782  8.156632180861465 0.49724596889408235  C 8.156632180861465 0.49724596889408235  0.48855776625836983 8.301661139775389  0.48855776625836983 8.301661139775389  C -0.16285256883763571 8.963291806545833  -0.16285256883763571 10.037455399113922  0.48855776625836983 10.699086065884368  C 0.48855776625836983 10.699086065884368  8.156632180861465 18.503501297573425  8.156632180861465 18.503501297573425  C 8.80709531139335 19.16549918235976  9.861711821563114 19.16549918235976  10.512174952095002 18.503501297573425  C 11.162607970913736 17.84150341278709  11.162607970913736 16.768062581162347  10.512174952095002 16.10606469637601  C 10.512174952095002 16.10606469637601  4.030238199727996 9.491870246754019  4.030238199727996 9.491870246754019  C 4.030238199727996 9.491870246754019  10.512174952095002 2.894682509283743  10.512174952095002 2.894682509283743  Z " fill-rule="nonzero" fill="#000000" stroke="none" transform="matrix(1 0 0 1 27 43 )" />
  </g>
</svg>