<?xml version="1.0" encoding="utf-8"?>
<svg version="1.1" xmlns:xlink="http://www.w3.org/1999/xlink" width="144px" height="26px" xmlns="http://www.w3.org/2000/svg">
  <g transform="matrix(1 0 0 1 -144 -120 )">
    <path d="M 10.301648652372362 8.73583706633785  L 10.301648652372362 5.727575773116571  L 14.72601225334363 5.727575773116571  L 14.72601225334363 8.73583706633785  L 10.301648652372362 8.73583706633785  Z M 10.301648652372362 16.77766752810066  L 10.301648652372362 13.769370558579372  L 14.72601225334363 13.769370558579372  L 14.72601225334363 16.77766752810066  L 10.301648652372362 16.77766752810066  Z M 19 25.978139347168305  L 19 0  L 23 0  L 23 25.978139347168305  L 19 25.978139347168305  Z M 14 24.822075602539257  L 14 0.41076353971329627  L 18 0.41076353971329627  L 18 24.822075602539257  L 14 24.822075602539257  Z M 2.7090087482351217 2.9635187534700775  C 3.577419897905657 2.2024730365213823  4.587395466111174 1.8219485057204716  5.738915046939129 1.8219485057204716  C 6.910315816849548 1.8219485057204716  7.929430745350643 2.2024730365213823  8.796251442555025 2.9635187534700775  C 9.66227687797596 3.7242682595762995  10.329870633782521 4.809432813722889  10.79906715828352 6.219007886692071  C 11.267468421001073 7.628559547089372  11.501674438240949 9.31170327575327  11.501674438240949 11.268444089663461  C 11.501674438240949 13.224795251484469  11.267468421001073 14.911411148174825  10.79906715828352 16.328288853163038  C 10.329870633782521 17.745166558151254  9.661076839676362 18.83147470494585  8.792665690005826 19.587220749336087  C 7.9242545403352915 20.34304469627205  6.903957775324188 20.72096004923329  5.731761743630322 20.72096004923329  C 4.581037424585815 20.72096004923329  3.5722618946798947 20.34304469627205  2.705441197475513 19.587220749336087  C 1.8394157620545775 18.83147470494585  1.1718038044584271 17.745166558151254  0.7026072799574281 16.328288853163038  C 0.23420601723987558 14.911411148174825  0 13.224795251484469  0 11.268444089663461  C 0 9.31170327575327  0.23420601723987558 7.628559547089372  0.7026072799574281 6.219007886692071  C 1.1718038044584271 4.809432813722889  1.8405975985645868 3.7242682595762995  2.7090087482351217 2.9635187534700775  Z M 7.014096022024166 6.000240815025074  C 6.668163012035933 5.566526613962366  6.2442842865151285 5.3496745652508375  5.7424825976987375 5.3496745652508375  C 5.25181439609875 5.3496745652508375  4.833511426205016 5.566526613962366  4.487578416216784 6.000240815025074  C 4.141645406228552 6.433955016087781  3.876845469097406 7.086863219852969  3.693143107778611 7.958967795449934  C 3.509440746459815 8.83109578361878  3.4175862151780176 9.93394351884266  3.4175862151780176 11.267507586788174  C 3.4175862151780176 12.583302209477855  3.509440746459815 13.68204835476513  3.693143107778611 14.563739054622646  C 3.876845469097406 15.44519597716271  4.141645406228552 16.103796606347707  4.487578416216784 16.539537144602733  C 4.833511426205016 16.975355620243622  5.25181439609875 17.193260746927937  5.7424825976987375 17.193260746927937  C 6.2442842865151285 17.193260746927937  6.668163012035933 16.975355620243622  7.014096022024166 16.539537144602733  C 7.360029032012397 16.103796606347707  7.6248471709331325 15.44519597716271  7.808549532251928 14.563739054622646  C 7.992251893570723 13.68204835476513  8.084106424852521 12.583302209477855  8.084106424852521 11.267507586788174  C 8.084106424852521 9.93394351884266  7.992251893570723 8.83109578361878  7.808549532251928 7.958967795449934  C 7.6248471709331325 7.086863219852969  7.360029032012397 6.433955016087781  7.014096022024166 6.000240815025074  Z M 45.82420661053606 6.438203073959199  L 45.82420661053606 3.3861312843245024  L 50.38335446342009 3.3861312843245024  L 50.38335446342009 6.438203073959199  L 45.82420661053606 6.438203073959199  Z M 45.82420661053606 12.07239167225967  L 45.82420661053606 9.020257449099953  L 50.38335446342009 9.020257449099953  L 50.38335446342009 12.07239167225967  L 45.82420661053606 12.07239167225967  Z M 44 15.339279383335155  L 44 0.02191862681921258  L 47 0.02191862681921258  L 47 15.339279383335155  L 44 15.339279383335155  Z M 29.287407521636748 19  L 29.287407521636748 16  L 47 16  L 47 26  L 43.17244249056098 26  L 43.17244249056098 19  L 29.287407521636748 19  Z M 29.827782250979926 2.2493773370763717  C 30.9164772174267 1.699343556079799  32.13796789027354 1.4243272230237003  33.49227574194413 1.4243272230237003  C 34.86805530626407 1.4243272230237003  36.09910966862631 1.699343556079799  37.18541884972274 2.2493773370763717  C 38.27172803081917 2.799122746261235  39.13019453320626 3.5496410629753585  39.760826462368435 4.500944307065914  C 40.39225365331405 5.451959144504623  40.70797478546537 6.545311270143173  40.70797478546537 7.780987653770428  C 40.70797478546537 9.01696017855988  40.39225365331405 10.114253002383622  39.760826462368435 11.072866613003566  C 39.13019453320626 12.031168474080053  38.27172803081917 12.780680677325705  37.18541884972274 13.32140109749218  C 36.09910966862631 13.861809768115197  34.86805530626407 14.13201122911543  33.49227574194413 14.13201122911543  C 32.13796789027354 14.13201122911543  30.9164772174267 13.861809768115197  29.827782250979926 13.32140109749218  C 28.7398825463166 12.780680677325705  27.880216076730655 12.031168474080053  27.248788885785036 11.072866613003566  C 26.618156956622858 10.114253002383622  26.302841880801033 9.01696017855988  26.302841880801033 7.780987653770428  C 26.302841880801033 6.545311270143173  26.618156956622858 5.451959144504623  27.248788885785036 4.500944307065914  C 27.880216076730655 3.5496410629753585  28.7398825463166 2.799122746261235  29.827782250979926 2.2493773370763717  Z M 35.291140405318465 4.951179213203799  C 34.770252753652684 4.70334252439367  34.17302260150342 4.579423248014948  33.499447247042525 4.579423248014948  C 32.83780067713185 4.579423248014948  32.242546201261234 4.70334252439367  31.713706073962467 4.951179213203799  C 31.18566117289678 5.199015902013927  30.769758244051868 5.56376211879316  30.46597339757891 6.045407010838906  C 30.16218855110595 6.526755761722452  30.010291595197256 7.105281945896891  30.010291595197256 7.780987653770428  C 30.010291595197256 8.456989502806163  30.16218855110595 9.035654350724787  30.46597339757891 9.516987493227077  C 30.769758244051868 9.998320635729367  31.18566117289678 10.366568199149567  31.713706073962467 10.621730880290405  C 32.242546201261234 10.876893561431245  32.83780067713185 11.00447514588262  33.499447247042525 11.00447514588262  C 34.17302260150342 11.00447514588262  34.770252753652684 10.876893561431245  35.291140405318465 10.621730880290405  C 35.812028056984246 10.366568199149567  36.224755235700535 9.998320635729367  36.529335343956944 9.516987493227077  C 36.8331201904299 9.035654350724787  36.9850171463386 8.456989502806163  36.9850171463386 7.780987653770428  C 36.9850171463386 7.105281945896891  36.8331201904299 6.526755761722452  36.529335343956944 6.045407010838906  C 36.224755235700535 5.56376211879316  35.812028056984246 5.199015902013927  35.291140405318465 4.951179213203799  Z M 62 13  L 62 2  L 74 2  L 74 13  L 62 13  Z M 70.35681524298757 9.639268011514526  L 70.35681524298757 4.479039058859206  L 64.96145897455668 4.479039058859206  L 64.96145897455668 9.639268011514526  L 70.35681524298757 9.639268011514526  Z M 78 14.743538687602708  L 78 0.02191862681921258  L 82 0.02191862681921258  L 82 14.743538687602708  L 78 14.743538687602708  Z M 71.02840667348391 18.426367461430576  C 71.02840667348391 18.426367461430576  71.02840667348391 18.071798553771988  71.02840667348391 18.071798553771988  L 74.28612657069435 18.071798553771988  C 74.28612657069435 18.071798553771988  74.28612657069435 18.426367461430576  74.28612657069435 18.426367461430576  C 74.28612657069435 19.35318317606031  74.05987814834079 20.23288617643714  73.60738183688922 21.0654771593638  C 73.15488552543763 21.898146114516464  72.48609173133147 22.653929786254366  71.60098036861152 23.332830892108177  C 70.71586900589156 24.011498150964265  69.62360250704371 24.574699935838403  68.32416679412133 25.022442622475623  C 67.02473108119894 25.4704970586563  65.52965257966126 25.773554197037978  63.83895461055122 25.931608532879054  C 63.83895461055122 25.931608532879054  62.611498727770744 23.13257090107185  62.611498727770744 23.13257090107185  C 63.7669945464152 23.034917011491114  64.79921853176023 22.870788350071464  65.70818739247989 22.640175527396053  C 66.61715625319954 22.409640642106506  67.40723486375835 22.135539907843658  68.0784244328689 21.817872488444223  C 68.748818740196 21.499815416955606  69.30072167251694 21.152450613409382  69.73413202111914 20.775785603275086  C 70.16754236972133 20.39873090621147  70.49160895129884 20.008860508732887  70.70632600669168 19.606164864641887  C 70.92104306208454 19.203391283165022  71.02840667348391 18.81012466915806  71.02840667348391 18.426367461430576  Z M 71.67254980527878 18.426367461430576  C 71.67254980527878 18.426367461430576  71.67254980527878 18.071798553771988  71.67254980527878 18.071798553771988  L 74.95891931930363 18.071798553771988  C 74.95891931930363 18.071798553771988  74.95891931930363 18.426367461430576  74.95891931930363 18.426367461430576  C 74.95891931930363 18.872083810875473  75.12710108218486 19.345114095873367  75.4634911285236 19.84546364696517  C 75.79988117486232 20.34581319805698  76.30885682175266 20.819858550438482  76.99038465184653 21.267601237075706  C 77.67111722015697 21.715110146395467  78.53754124632962 22.10775071798554  79.5896548106445 22.44552563453644  C 80.6417683749594 22.78314467631562  81.88870138131358 23.012159678060414  83.33048660714852 23.13257090107185  C 83.33048660714852 23.13257090107185  82.10303072436803 25.931608532879054  82.10303072436803 25.931608532879054  C 80.3980183275589 25.769423585267475  78.89778829296286 25.460682940540988  77.60232881785697 25.0053804319954  C 76.30686934275107 24.5503117356074  75.21857254045159 23.978799358718508  74.33743741554811 23.290857725145326  C 73.45709755242811 22.60252636980269  72.79266127385982 21.843203288574443  72.34414123577511 21.01287245499769  C 71.89641642392347 20.182307774423215  71.67254980527878 19.320138281896284  71.67254980527878 18.426367461430576  Z M 63.64213865971628 19  L 63.64213865971628 16  L 82.30581686218844 16  L 82.30581686218844 19  L 63.64213865971628 19  Z M 71.04986658341033 17.4347803789269  L 71.04986658341033 14.029834305884137  L 74.93625809126428 14.029834305884137  L 74.93625809126428 17.4347803789269  L 71.04986658341033 17.4347803789269  Z M 108.01699137058212 8.833099579242637  L 108.01699137058212 5.824900719546376  L 113.035406778397 5.824900719546376  L 113.035406778397 8.833099579242637  L 108.01699137058212 8.833099579242637  Z M 112 14.214780245140776  L 112 0.02191862681921258  L 115 0.02191862681921258  L 115 14.214780245140776  L 112 14.214780245140776  Z M 98 25.716391253063144  L 98 15.261183962611238  L 102.0347365986164 15.261183962611238  L 102.0347365986164 17.639018277414447  L 112.078720717555 17.639018277414447  L 112.078720717555 15.261183962611238  L 115 15.261183962611238  L 115 25.716391253063144  L 98 25.716391253063144  Z M 112.078720717555 20  L 102.0347365986164 20  L 102.0347365986164 22.73007088434858  L 112.078720717555 22.73007088434858  L 112.078720717555 20  Z M 99.79451494126764 3.6574852222076046  C 99.79451494126764 3.6574852222076046  99.79451494126764 2.013967271454278  99.79451494126764 2.013967271454278  L 102.89599067663889 2.013967271454278  C 102.89599067663889 2.013967271454278  102.89599067663889 3.6574852222076046  102.89599067663889 3.6574852222076046  C 102.89599067663889 5.287424578072008  102.62799680536472 6.841679729395265  102.09199942866604 8.320243847510573  C 101.55600205196737 9.798457195129293  100.73848705208113 11.092271593638024  99.63945389575179 12.201691502574267  C 98.54121593010512 13.311111411510511  97.13998599789416 14.14755982469558  95.43576879176774 14.711037578292755  C 95.43576879176774 14.711037578292755  93.52954997339252 11.743188613908853  93.52954997339252 11.743188613908853  C 94.62222117765579 11.381331463207701  95.56460283600313 10.917228893566449  96.35667013427611 10.350867491532453  C 97.1487374325491 9.784428152112595  97.799640360604 9.138057595484272  98.30939452505338 8.411771395188605  C 98.81914868950275 7.685539754547056  99.19410013362199 6.918380081364261  99.43426512170552 6.110284362408774  C 99.67443010978901 5.301892502291087  99.79451494126764 4.4842933695596425  99.79451494126764 3.6574852222076046  Z M 100.60090882546633 3.651357817680728  C 100.60090882546633 3.651357817680728  100.60090882546633 2.013967271454278  100.60090882546633 2.013967271454278  L 103.65822701929264 2.013967271454278  C 103.65822701929264 2.013967271454278  103.65822701929264 3.651357817680728  103.65822701929264 3.651357817680728  C 103.65822701929264 4.665204751302743  103.86540273908493 5.670282561870509  104.27972712483773 6.666593827554145  C 104.69325624880709 7.6629128974284075  105.34495308773135 8.564839027419465  106.23483595005125 9.37237361113279  C 107.1255140741546 10.179869173892977  108.26589558176839 10.818593191512608  109.65598971598888 11.28854768471962  C 109.65598971598888 11.28854768471962  107.79392843915863 14.190698742633401  107.79392843915863 14.190698742633401  C 106.15333118029757 13.650290072010382  104.80180414969202 12.848756527648018  103.73935239549455 11.786098283746993  C 102.67690064129708 10.723440039845968  101.8884098880274 9.486751410886177  101.37388422397808 8.076030654860785  C 100.85856329814531 6.664998149291936  100.60090882546633 5.190104091179704  100.60090882546633 3.651357817680728  Z M 94.56736141043645 4.1537514744345865  L 94.56736141043645 1.1954949752161204  L 108.81503063335909 1.1954949752161204  L 108.81503063335909 4.1537514744345865  L 94.56736141043645 4.1537514744345865  Z M 130.00402512352568 1.9872278845960887  C 130.00402512352568 1.9872278845960887  130.00402512352568 0.7535994042057899  130.00402512352568 0.7535994042057899  L 133.33571709362923 0.7535994042057899  C 133.33571709362923 0.7535994042057899  133.33571709362923 1.9872278845960887  133.33571709362923 1.9872278845960887  C 133.33571709362923 2.98061655057004  133.17944438484272 3.9395175226377273  132.86691180095332 4.863932821527079  C 132.5543792170639 5.788059713764586  132.09235505087022 6.650958131632168  131.48080912010778 7.452631907544868  C 130.8692631893454 8.25432122215855  130.12172393857654 8.97650360274886  129.23820302832274 9.61916441645837  C 128.35547737985237 10.26182523016788  127.33992609157018 10.803243184711814  126.19158748677526 11.2434260842808  C 125.04324888198035 11.683219296920466  123.77482496577684 12.007045163408604  122.38632135512323 12.214900652653313  C 122.38632135512323 12.214900652653313  120.90717112589445 9.22507508746268  120.90717112589445 9.22507508746268  C 122.1262867496028 9.069280883551443  123.21894110299053 8.814553686699652  124.18516781670797 8.460879822153645  C 125.15139453042543 8.1072838949935  125.99955803779653 7.688924438990183  126.72959598347177 7.205814344994281  C 127.46042919093045 6.722423683377298  128.0672048308055 6.19080207847894  128.54992055677252 5.610949948380854  C 129.03263628273953 5.031105622473393  129.3956604531993 4.433290823721173  129.63900643509103 3.8175023468316103  C 129.88235241698277 3.201417728779848  130.00402512352568 2.5913258929666405  130.00402512352568 1.9872278845960887  Z M 130.72092080831115 1.9872278845960887  C 130.72092080831115 1.9872278845960887  130.72092080831115 0.7535994042057899  130.72092080831115 0.7535994042057899  L 134.04664259142925 0.7535994042057899  C 134.04664259142925 0.7535994042057899  134.04664259142925 1.9872278845960887  134.04664259142925 1.9872278845960887  C 134.04664259142925 2.587234267309137  134.16953350251097 3.194254039226092  134.41526523420268 3.8082889423537885  C 134.66020172188612 4.4220354388296395  135.0252198237397 5.018832975269635  135.51032129950664 5.598677301177094  C 135.99542277527362 6.178529431275183  136.60179232326882 6.711178402125416  137.32944455469448 7.196618778666465  C 138.05789204790358 7.681770783395804  138.90524337151496 8.102177167112249  139.8714700852324 8.457838417577713  C 140.83769679894988 8.813538619316041  141.92835720316862 9.069280883551443  143.14349658906048 9.22507508746268  C 143.14349658906048 9.22507508746268  141.66434635983168 12.214900652653313  141.66434635983168 12.214900652653313  C 140.27981898699457 12.007045163408604  139.0145707853693 11.682204229536856  137.86861796592473 11.240384679704867  C 136.72266514648015 10.798175442943563  135.7067441343469 10.254689343043234  134.8208375098435 9.609924254755539  C 133.93572614712355 8.965237138693846  133.1874111161742 8.242048574954792  132.57586518541177 7.4403592603411095  C 131.96431925464935 6.638685484428411  131.50225868487647 5.776814432512705  131.18972610098706 4.854737255199264  C 130.87719351709768 3.9323639367236223  130.72092080831115 2.976524924912537  130.72092080831115 1.9872278845960887  Z M 130.01953304825625 26  L 130.01953304825625 16.47079783355668  L 133.81642635669692 16.47079783355668  L 133.81642635669692 26  L 130.01953304825625 26  Z M 120.02205450171968 17  L 120.02205450171968 14  L 144 14  L 144 17  L 120.02205450171968 17  Z " fill-rule="nonzero" fill="#26262c" stroke="none" transform="matrix(1 0 0 1 144 120 )" />
  </g>
</svg>