<?xml version="1.0" encoding="utf-8"?>
<svg version="1.1" xmlns:xlink="http://www.w3.org/1999/xlink" width="64px" height="22px" xmlns="http://www.w3.org/2000/svg">
  <g transform="matrix(1 0 0 1 -183 -120 )">
    <path d="M 12.074867161988417 7.4619204570424085  L 12.074867161988417 4.914348494836299  L 16.257354921169505 4.914348494836299  L 16.257354921169505 7.4619204570424085  L 12.074867161988417 7.4619204570424085  Z M 16 12.019512195121951  L 16 0  L 19 0  L 19 12.019512195121951  L 16 12.019512195121951  Z M 3.942912840818153 21.75998681608438  L 3.942912840818153 12.905844869259504  L 7.088699002908973 12.905844869259504  L 7.088699002908973 14.919490221929246  L 15.461199164097138 14.919490221929246  L 15.461199164097138 12.905844869259504  L 18.606742595774215 12.905844869259504  L 18.606742595774215 21.75998681608438  L 3.942912840818153 21.75998681608438  Z M 15.461199164097138 17.355636123928807  L 7.088699002908973 17.355636123928807  L 7.088699002908973 19.23102614809932  L 15.461199164097138 19.23102614809932  L 15.461199164097138 17.355636123928807  Z M 5.221616660408773 3.078839815425181  C 5.221616660408773 3.078839815425181  5.221616660408773 1.6871017358822238  5.221616660408773 1.6871017358822238  L 7.8076664884115194 1.6871017358822238  C 7.8076664884115194 1.6871017358822238  7.8076664884115194 3.078839815425181  7.8076664884115194 3.078839815425181  C 7.8076664884115194 4.45918435465763  7.5839175811724635 5.775426760602065  7.136516894416062 7.02757635684465  C 6.690441832168986 8.279428896550895  6.0092237557221795 9.375233046737668  5.09321227153948 10.314765985497692  C 4.177863555166176 11.254298924257718  3.0097477357803593 11.962645754796336  1.588670557938612 12.439837398373983  C 1.588670557938612 12.439837398373983  0 9.926587563172928  0 9.926587563172928  C 0.9113718132151539 9.620142087054184  1.696990486579663 9.226941998925374  2.35715504784444 8.74730828389365  C 3.0173196091092174 8.267608566133301  3.5594893961891323 7.72023271306272  3.983691550326738 7.105163700285652  C 4.408556501903917 6.490140892369123  4.721188756201004 5.840404543858837  4.921359138610444 5.1560536145902  C 5.121529521019885 4.471451892655804  5.221616660408773 3.7790377136377993  5.221616660408773 3.078839815425181  Z M 5.894708097714163 3.073764007910349  C 5.894708097714163 3.073764007910349  5.894708097714163 1.6871017358822238  5.894708097714163 1.6871017358822238  L 8.442891981173222 1.6871017358822238  C 8.442891981173222 1.6871017358822238  8.442891981173222 3.073764007910349  8.442891981173222 3.073764007910349  C 8.442891981173222 3.932359190244932  8.61524352331729 4.783633823181032  8.959907762442779 5.6273785981103055  C 9.305234828638017 6.471129982163948  9.84863702368897 7.23486741195273  10.59032795154494 7.91874313337728  C 11.332681706470662 8.602585809179988  12.28332269017359 9.143561580945466  13.441924852180971 9.541551307404966  C 13.441924852180971 9.541551307404966  11.889906586717336 11.999208965062625  11.889906586717336 11.999208965062625  C 10.522517512620086 11.541553804602525  9.395893008510734 10.862775281831945  8.51037103619338 9.962843331136014  C 7.624849063876026 9.062911380440081  6.967448375934417 8.015613659343414  6.537943694129337 6.820918479455065  C 6.109101839394008 5.6259592886522185  5.894708097714163 4.376879984738931  5.894708097714163 3.073764007910349  Z M 0.8658193858162 3.4991650186772136  L 0.8658193858162 1  L 12.739948495640334 1  L 12.739948495640334 3.4991650186772136  L 0.8658193858162 3.4991650186772136  Z M 30.401256129891113 1.664381454625357  C 30.401256129891113 1.664381454625357  30.401256129891113 0.6197319270490002  30.401256129891113 0.6197319270490002  L 33.17712114143977 0.6197319270490002  C 33.17712114143977 0.6197319270490002  33.17712114143977 1.664381454625357  33.17712114143977 1.664381454625357  C 33.17712114143977 2.5056511714887524  33.04681179883148 3.3179107270380133  32.78632517531583 4.100769061744671  C 32.52650134923976 4.883383153899898  32.14184742260124 5.6141221108684904  31.632142057974644 6.293034497912546  C 31.12243669334805 6.971960044195301  30.499506301983182 7.583568767295306  29.76311787216451 8.127818061964403  C 29.02672944234584 8.672067356633502  28.180115567173747 9.130584801288522  27.22367228360015 9.50336189848385  C 26.266566172956797 9.875808982036057  25.2094332055206 10.14985812377259  24.05215669765272 10.325884421006373  C 24.05215669765272 10.325884421006373  22.81932892625926 7.794023291584267  22.81932892625926 7.794023291584267  C 23.835425579424047 7.662086064693456  24.74618120346877 7.446252288516604  25.551502463334433 7.146736980883323  C 26.356823723200097 6.847287675978665  27.063773149465046 6.49309036164356  27.67223808819458 6.0839595693254225  C 28.28070302692411 5.6745911730852425  28.78631113061172 5.224369949813571  29.189303174079427 4.733311360140629  C 29.591632390477383 4.242259379592054  29.89429327522974 3.7359283427148564  30.09711492147292 3.214436387607119  C 30.299936567716095 2.692693639833622  30.401256129891113 2.175973118459542  30.401256129891113 1.664381454625357  Z M 30.99885840852287 1.664381454625357  C 30.99885840852287 1.664381454625357  30.99885840852287 0.6197319270490002  30.99885840852287 0.6197319270490002  L 33.77059700303792 0.6197319270490002  C 33.77059700303792 0.6197319270490002  33.77059700303792 1.664381454625357  33.77059700303792 1.664381454625357  C 33.77059700303792 2.17250804896932  33.8727754996122 2.686694915308792  34.07692278517979 3.2067018237749947  C 34.28173288300204 3.7264644896897656  34.58624239452605 4.231866059442636  34.99056006250308 4.72291803999121  C 35.39487773048011 5.213976629664153  35.90042044036607 5.665120769945822  36.5068969571467 6.076225005493298  C 37.11403630099709 6.487085027994363  37.820126748417515 6.8431215672250945  38.62544800828317 7.144319929685783  C 39.430769268148836 7.445551278758274  40.33998436000713 7.662086064693456  41.352766937083516 7.794023291584267  C 41.352766937083516 7.794023291584267  40.11872551362135 10.325884421006373  40.11872551362135 10.325884421006373  C 38.96542596817198 10.14985812377259  37.91130858241646 9.874866267157973  36.95619095298236 9.500703142166557  C 36.000410496478516 9.12621000353202  35.15373119787459 8.665873131849455  34.41601717317677 8.119841793012526  C 33.67830314847895 7.573876486409237  33.05451377826956 6.961566724045883  32.54480841364297 6.2826411777631295  C 32.03510304901637 5.603728790719073  31.650140998162456 4.873671045640725  31.38965437464681 4.0927927927927925  C 31.129167751131163 3.3116637472791006  30.99885840852287 2.5021861019985305  30.99885840852287 1.664381454625357  Z M 30.414120841819415 22  L 30.414120841819415 13.930191166776533  L 33.57883997618208 13.930191166776533  L 33.57883997618208 22  L 30.414120841819415 22  Z M 22.08167119889861 14.506657877389584  L 22.08167119889861 12  L 42.06663708389749 12  L 42.06663708389749 14.506657877389584  L 22.08167119889861 14.506657877389584  Z M 44.01527684541486 12.63223467369809  L 44.01527684541486 10.140254889035376  L 64 10.140254889035376  L 64 12.63223467369809  L 44.01527684541486 12.63223467369809  Z M 48.340004627048515 14.91538123489343  C 49.70407962505736 14.204081896063364  51.57852874079805 13.848494836299714  53.96334012219959 13.848494836299714  C 56.352128347498926 13.848494836299714  58.22774453666936 14.204081896063364  59.589831112729314 14.91538123489343  C 60.951917688789266 15.626482595042642  61.63289300519215 16.629899152916256  61.63289300519215 17.9255767963085  C 61.63289300519215 19.221254439700754  60.951917688789266 20.223728253191265  59.589831112729314 20.933113601406287  C 58.22774453666936 21.642696928302158  56.352128347498926 21.99758294880246  53.96334012219959 21.99758294880246  C 51.57852874079805 21.99758294880246  49.70407962505736 21.642696928302158  48.340004627048515 20.933113601406287  C 46.97659239684906 20.223728253191265  46.29500089127574 19.221254439700754  46.29500089127574 17.9255767963085  C 46.29500089127574 16.629899152916256  46.97659239684906 15.626482595042642  48.340004627048515 14.91538123489343  Z M 56.436034846985024 16.453109206767742  C 55.77520745865049 16.337276380116062  54.95093574470829 16.279564930784442  53.96334012219959 16.279564930784442  C 52.97972140284905 16.279564930784442  52.15661676233658 16.337276380116062  51.493800892792805 16.453109206767742  C 50.83098502324902 16.56894203341942  50.333256946735844 16.74764526206251  50.00052338745463 16.989211162381896  C 49.66778982817342 17.23051305178678  49.501226926388206 17.54270145866379  49.501226926388206 17.9255767963085  C 49.501226926388206 18.296373841150125  49.66778982817342 18.604550583298142  50.00052338745463 18.850340584486926  C 50.333256946735844 19.096064582947086  50.83098502324902 19.276894046562997  51.493800892792805 19.392726873214677  C 52.15661676233658 19.50855969986636  52.97972140284905 19.566512854317732  53.96334012219959 19.566512854317732  C 54.95093574470829 19.566512854317732  55.77520745865049 19.50855969986636  56.436034846985024 19.392726873214677  C 57.09686223531955 19.276894046562997  57.59366602807708 19.096064582947086  57.9263995873583 18.850340584486926  C 58.25913314663951 18.604550583298142  58.42545331801097 18.296373841150125  58.42545331801097 17.9255767963085  C 58.42545331801097 17.54270145866379  58.25913314663951 17.23051305178678  57.9263995873583 16.989211162381896  C 57.59366602807708 16.74764526206251  57.09686223531955 16.56894203341942  56.436034846985024 16.453109206767742  Z M 51.83168162872108 2.783717864205669  C 51.83168162872108 2.783717864205669  51.83168162872108 2.2514831905075807  51.83168162872108 2.2514831905075807  L 54.64638350646839 2.2514831905075807  C 54.64638350646839 2.2514831905075807  54.64638350646839 2.783717864205669  54.64638350646839 2.783717864205669  C 54.64638350646839 3.4383680376737256  54.52721257720439 4.068224494144488  54.28859887661331 4.672885080202153  C 54.05064798827688 5.277545666259819  53.6959735492591 5.838118376927804  53.22471147318398 6.3549110085695455  C 52.75477502161818 6.871452847545526  52.170871188848054 7.331820197913233  51.47292607721103 7.736014062843331  C 50.77564379264375 8.139943916858932  49.967374804203786 8.478434617627823  49.04804924393269 8.751417270929467  C 48.12872368366159 9.02439992423111  47.10095392578518 9.210248870279626  45.9648875285872 9.30878927708196  C 45.9648875285872 9.30878927708196  44.86726059764779 6.845330696550209  44.86726059764779 6.845330696550209  C 45.83696018557499 6.766128764679552  46.69964220968115 6.626673216244541  47.45525226896047 6.426939134256208  C 48.21152515530954 6.227198457896015  48.864061545908285 5.990542074801555  49.41287305578628 5.717051197539002  C 49.96234739273402 5.443553711152083  50.414709504554985 5.146410548076659  50.769978799015426 4.825642715886618  C 51.125910920545614 4.504630670650166  51.39201010709057 4.168472430187905  51.568319129811464 3.817007251153593  C 51.74396532546261 3.465304468197237  51.83168162872108 3.120821091432515  51.83168162872108 2.783717864205669  Z M 53.37981620756484 2.783717864205669  C 53.37981620756484 2.783717864205669  53.37981620756484 2.2514831905075807  53.37981620756484 2.2514831905075807  L 56.188449824968615 2.2514831905075807  C 56.188449824968615 2.2514831905075807  56.188449824968615 2.783717864205669  56.188449824968615 2.783717864205669  C 56.188449824968615 3.133196381761907  56.27339317325452 3.482988744210579  56.44307402898353 3.8327180839375963  C 56.6134176969672 4.182440814540246  56.87619311835573 4.518605664126875  57.231462412816164 4.8413535486706225  C 57.586731707276606 5.164101433214369  58.04241761388418 5.4621716144975005  58.59852010300872 5.735662491760053  C 59.15395976506351 6.009159978146973  59.80951185586365 6.242815907293298  60.56512191514297 6.436365633926609  C 61.32073197442228 6.629915360559922  62.183413998528444 6.766128764679552  63.153113586455646 6.845330696550209  C 63.153113586455646 6.845330696550209  62.0564575771712 9.30878927708196  62.0564575771712 9.30878927708196  C 60.92039117997322 9.210248870279626  59.892313327511594 9.027622285430915  58.97232494017074 8.760843770599868  C 58.052999379899646 8.493999253040197  57.24473039145968 8.155508581776326  56.5474481068924 7.745440562513733  C 55.85016582232513 7.335042529608018  55.266878178725435 6.871452847545526  54.79760455422939 6.3549110085695455  C 54.32899375680309 5.838118376927804  53.975243616356046 5.27961656456857  53.73662991576496 4.6794111184355085  C 53.49867902742854 4.0792056723024475  53.37981620756484 3.4472782585128954  53.37981620756484 2.783717864205669  Z M 45.836725870131644 3.5081081081081082  L 45.836725870131644 1  L 62.20743589451846 1  L 62.20743589451846 3.5081081081081082  L 45.836725870131644 3.5081081081081082  Z " fill-rule="nonzero" fill="#26262c" stroke="none" transform="matrix(1 0 0 1 183 120 )" />
  </g>
</svg>