<?xml version="1.0" encoding="utf-8"?>
<svg version="1.1" xmlns:xlink="http://www.w3.org/1999/xlink" width="10px" height="10px" xmlns="http://www.w3.org/2000/svg">
  <g transform="matrix(1 0 0 1 -397 -56 )">
    <path d="M 8.886709296104756 9.808934235163743  C 8.886709296104756 9.808934235163743  0.1910681986090235 1.1132765231125887  0.1910681986090235 1.1132765231125887  C 0.12991498528725112 1.0521233929266955  0.08277436115178498 0.9816032123080984  0.049677731638346115 0.9017030328505738  C 0.01658179795025619 0.8218028533930494  0 0.7386542527283595  0 0.6521711439744227  C 0 0.6093489958996491  0.004128964452097511 0.5669204000742968  0.01248312230912287 0.5249213445934757  C 0.020837280166148227 0.4829215233257962  0.033290113664306904 0.4422015223737016  0.049677731638346115 0.40263925509827153  C 0.06606534961238532 0.3630769878228415  0.08600901801780578 0.32538849214754534  0.10980052480065217 0.2897830766683226  C 0.13359133575814966 0.2541776611890998  0.16078828954454916 0.2213459840202844  0.1910681986090235 0.19106576483625665  C 0.22134880349884684 0.16078624146871456  0.2543082776726958 0.133717011285991  0.289914146689425 0.10992650336912632  C 0.3255200157061542 0.0861352996357759  0.3629542338548367 0.06606450809061513  0.40251700506967625 0.04967709885742673  C 0.44207977628451567 0.033289689624238325  0.4830550535212377 0.020837014746756758  0.5250554097775966 0.012482963302635434  C 0.5670550002373425 0.0041289118585141095  0.6093567577139805 0  0.6521794512521335 0  C 0.7386636616175236 0  0.821940700218176 0.016581586735995676  0.901841897434591 0.04967709885742673  C 0.981743094651006 0.08277330679534348  1.0521367947481224 0.1299133304668493  1.1132907038952438 0.19106576483625665  C 1.1132907038952438 0.19106576483625665  9.809186558989122 8.886596099710854  9.809186558989122 8.886596099710854  C 9.870334905420744 8.94775062152972  9.917222855546818 9.018267319178644  9.950322268361655 9.09816958997287  C 9.983414722922998 9.178064902602237  10 9.26134574727164  10 9.347828856025577  C 10 9.390653021579435  9.995871731373251 9.433075355056417  9.987516877690878 9.475078655406525  C 9.979162024008502 9.517074997591775  9.96670501555825 9.557799173442783  9.950322268361655 9.597360744901728  C 9.933932564855215 9.636922316360673  9.913990981982195 9.674486218125354  9.89019947519935 9.71008954615512  C 9.866407968416501 9.745699828462499  9.8394615992198 9.778652624346744  9.809186558989122 9.808934235163743  C 9.7789045624486 9.839208889759506  9.7459513468156 9.866282292897523  9.71034061090872 9.890073496630873  C 9.674736829368038 9.913864700364224  9.637045070319814 9.933933406403549  9.597482994930324 9.950322901142574  C 9.557920919540834 9.966712395881597  9.517196224950164 9.9790349122602  9.47519934782055 9.987389659520806  C 9.433195512437445 9.995737450560178  9.390645259790801 10  9.347820548747865 10  C 9.261336338382476 10  9.17830919048982 9.983414934181576  9.098412860163554 9.950322901142574  C 9.0185095715838 9.917223909938714  8.947864596902576 9.870081802704995  8.886709296104756 9.808934235163743  Z " fill-rule="nonzero" fill="#b8b8c1" stroke="none" transform="matrix(1 0 0 1 397 56 )" />
  </g>
</svg>