<?xml version="1.0" encoding="utf-8"?>
<svg version="1.1" xmlns:xlink="http://www.w3.org/1999/xlink" width="10px" height="10px" xmlns="http://www.w3.org/2000/svg">
  <g transform="matrix(1 0 0 1 -397 -56 )">
    <path d="M 1.1132907038952438 9.808934235163743  C 1.1132907038952438 9.808934235163743  9.809186558989122 1.1132765231125887  9.809186558989122 1.1132765231125887  C 9.870334905420744 1.0521240887431813  9.917222855546818 0.9816032123080984  9.950322268361655 0.9017030328505738  C 9.983414722922998 0.8218028533930494  10 0.7386542527283595  10 0.6521711439744227  C 10 0.6093489958996491  9.995871731373251 0.5669204000742968  9.987516877690878 0.5249213445934757  C 9.979162024008502 0.4829215233257962  9.96670501555825 0.4422015223737016  9.950322268361655 0.40263925509827153  C 9.933932564855215 0.3630769878228415  9.913990981982195 0.32538849214754534  9.89019947519935 0.2897830766683226  C 9.866407968416501 0.2541776611890998  9.8394615992198 0.2213459840202844  9.809186558989122 0.19106576483625665  C 9.7789045624486 0.16078624146871456  9.7459513468156 0.133717011285991  9.71034061090872 0.10992650336912632  C 9.674736829368038 0.0861352996357759  9.637045070319814 0.06606450809061513  9.597482994930324 0.04967709885742673  C 9.557920919540834 0.033289689624238325  9.517196224950164 0.020837014746756758  9.47519934782055 0.012482963302635434  C 9.433195512437445 0.0041289118585141095  9.390645259790801 0  9.347820548747865 0  C 9.261336338382476 0  9.17830919048982 0.016581586735995676  9.098412860163554 0.04967709885742673  C 9.0185095715838 0.08277330679534348  8.947864596902576 0.1299133304668493  8.886709296104756 0.19106576483625665  C 8.886709296104756 0.19106576483625665  0.1910681986090235 8.886596099710854  0.1910681986090235 8.886596099710854  C 0.12991498528725112 8.94775062152972  0.08277436115178498 9.018267319178644  0.049677731638346115 9.09816958997287  C 0.01658179795025619 9.178064902602237  0 9.26134574727164  0 9.347828856025577  C 0 9.390653021579435  0.004128964452097511 9.433075355056417  0.01248312230912287 9.475078655406525  C 0.020837280166148227 9.517074997591775  0.033290113664306904 9.557799173442783  0.049677731638346115 9.597360744901728  C 0.06606534961238532 9.636922316360673  0.08600901801780578 9.674486218125354  0.10980052480065217 9.71008954615512  C 0.13359133575814966 9.745699828462499  0.16078828954454916 9.778652624346744  0.1910681986090235 9.808934235163743  C 0.22134880349884684 9.839208889759506  0.2543082776726958 9.866282292897523  0.289914146689425 9.890073496630873  C 0.3255200157061542 9.913864700364224  0.3629542338548367 9.933933406403549  0.40251700506967625 9.950322901142574  C 0.44207977628451567 9.966712395881597  0.4830550535212377 9.9790349122602  0.5250554097775966 9.987389659520806  C 0.5670550002373425 9.995737450560178  0.6093567577139805 10  0.6521794512521335 10  C 0.7386636616175236 10  0.821940700218176 9.983414934181576  0.901841897434591 9.950322901142574  C 0.981743094651006 9.917223909938714  1.0521374905734713 9.870081802704995  1.1132907038952438 9.808934235163743  Z " fill-rule="nonzero" fill="#b8b8c1" stroke="none" transform="matrix(1 0 0 1 397 56 )" />
  </g>
</svg>