<?xml version="1.0" encoding="utf-8"?>
<svg version="1.1" xmlns:xlink="http://www.w3.org/1999/xlink" width="38px" height="13px" xmlns="http://www.w3.org/2000/svg">
  <g transform="matrix(1 0 0 1 -81 -395 )">
    <path d="M 10 13  L 10 0  L 11 0  L 11 13  L 10 13  Z M 0.32785862785862785 2.367897426009833  L 0.32785862785862785 1.3928660946688518  L 7.579261954261954 1.3928660946688518  L 7.579261954261954 2.367897426009833  L 0.32785862785862785 2.367897426009833  Z M 2.6757016632016635 9.749060059770558  C 1.7628606435414906 9.767197813988192  0.9160979146025533 9.778199309809947  0.1347972972972973 9.78189530511906  C 0.1347972972972973 9.78189530511906  0 8.772524824062469  0 8.772524824062469  C 0.7922144550791401 8.772524824062469  1.652628477100523 8.765342177248824  2.5813929313929314 8.750968861467271  C 3.5103124099065264 8.736595545685718  4.458302037482945 8.703160076827215  5.424974012474013 8.650457919598958  C 6.391639236799149 8.597755762370701  7.326188830972462 8.516725582783655  8.22856029106029 8.407577364311193  C 8.22856029106029 8.407577364311193  8.304106029106029 9.28560686397378  8.304106029106029 9.28560686397378  C 7.388608863497474 9.43098267978428  6.449634810544845 9.540200361124773  5.4876819126819125 9.612956714547384  C 4.525877288374237 9.685576176935275  3.588542682861836 9.730922305552925  2.6757016632016635 9.749060059770558  Z M 1.745452182952183 9.038715897040394  L 1.745452182952183 2.1257688229056204  L 2.8830821205821207 2.1257688229056204  L 2.8830821205821207 9.038715897040394  L 1.745452182952183 9.038715897040394  Z M 5.01564449064449 9.038715897040394  L 5.01564449064449 2.1257688229056204  L 6.161668399168399 2.1257688229056204  L 6.161668399168399 9.038715897040394  L 5.01564449064449 9.038715897040394  Z M 18.364033264033264 1.34022944182011  C 18.364033264033264 1.34022944182011  18.364033264033264 0.835920177383592  18.364033264033264 0.835920177383592  C 18.364033264033264 0.835920177383592  19.599922037422036 0.835920177383592  19.599922037422036 0.835920177383592  C 19.599922037422036 1.9242471063699027  19.358509845693987 2.905279796971404  18.87655925155925 3.779061023811819  C 18.394743489921712 4.652684798424998  17.711391539385314 5.403215995515702  16.825961538461538 6.030405861370866  C 15.94073375614666 6.65743833619282  14.885424995025824 7.149956858212125  13.659953222453224 7.508242552781259  C 13.659953222453224 7.508242552781259  13.179521829521828 6.5710594813458005  13.179521829521828 6.5710594813458005  C 14.259983752720569 6.258138722995548  15.186963318886232 5.847520112122518  15.960888773388774 5.3393618046852405  C 16.734814227891317 4.831059783079419  17.32874842463313 4.238847045251193  17.74287941787942 3.563000096404126  C 18.15694299487711 2.887153147557059  18.364033264033264 2.1463328915438518  18.364033264033264 1.34022944182011  Z M 13.834745322245322 1.802178733249783  L 13.834745322245322 0.835920177383592  L 19.160966735966735 0.835920177383592  L 19.160966735966735 1.802178733249783  L 13.834745322245322 1.802178733249783  Z M 22.392151767151766 7.41048876891931  L 22.392151767151766 0.003258459462064976  L 23.571257796257793 0.003258459462064976  L 23.571257796257793 7.41048876891931  L 22.392151767151766 7.41048876891931  Z M 19.62115384615385 4.331745878723609  L 19.62115384615385 3.3396702978887496  L 22.6118762993763 3.3396702978887496  L 22.6118762993763 4.331745878723609  L 19.62115384615385 4.331745878723609  Z M 15.313565488565489 12.818278222307914  L 15.313565488565489 7.9684372891159745  L 23.571257796257793 7.9684372891159745  L 23.571257796257793 12.818278222307914  L 15.313565488565489 12.818278222307914  Z M 22.41733367983368 11.848761206979658  L 22.41733367983368 8.92040875349465  L 16.46798336798337 8.92040875349465  L 16.46798336798337 11.848761206979658  L 22.41733367983368 11.848761206979658  Z M 29.1991683991684 3.4449436035862337  C 29.1991683991684 3.4449436035862337  29.1991683991684 1.120910054950352  29.1991683991684 1.120910054950352  L 30.159043659043657 1.120910054950352  C 30.159043659043657 1.120910054950352  30.159043659043657 3.4449436035862337  30.159043659043657 3.4449436035862337  C 30.159043659043657 4.162856488148318  30.070341973096568 4.867613819945713  29.892905405405404 5.5591824930107006  C 29.71567108646004 6.250751166075689  29.466468249537098 6.897940402103116  29.145841995841998 7.500723030945725  C 28.825283158395493 8.103498806057493  28.448782426354295 8.63943399951346  28.016112266112266 9.108647450110865  C 27.583576938367433 9.577765070864565  27.11380686611247 9.949058748806246  26.606912681912682 10.222288633953534  C 26.606912681912682 10.222288633953534  25.887006237006236 9.265554805745685  25.887006237006236 9.265554805745685  C 26.3528446189579 9.028531987340932  26.787174086858233 8.705612155844802  27.19004677754678 8.297040393328835  C 27.593121716981123 7.888297532317977  27.945197364347145 7.420818198011062  28.246205821205823 6.894398920273787  C 28.5472816943131 6.367829105234142  28.781214750928342 5.8106230521471005  28.948336798336797 5.222809216234455  C 29.115526261993853 4.635002234052648  29.1991683991684 4.042332835810217  29.1991683991684 3.4449436035862337  Z M 29.40753638253638 3.4449436035862337  C 29.40753638253638 3.4449436035862337  29.40753638253638 1.120910054950352  29.40753638253638 1.120910054950352  L 30.361486486486488 1.120910054950352  C 30.361486486486488 1.120910054950352  30.361486486486488 3.4449436035862337  30.361486486486488 3.4449436035862337  C 30.361486486486488 4.017330058542912  30.44394254069814 4.585973764520872  30.608367983367984 5.150872457341174  C 30.772928258535025 5.715777942698292  31.005048475047406 6.248958303520859  31.304573804573806 6.750525402487227  C 31.604099134100203 7.2519419335542095  31.950129560125593 7.698373705228567  32.34295738045738 8.089752241395932  C 32.73598744953497 8.481123923832454  33.15825013222169 8.79251972707088  33.60945945945946 9.023676853369324  C 33.60945945945946 9.023676853369324  32.88362785862786 9.974645714836594  32.88362785862786 9.974645714836594  C 32.385699884807245 9.707233606873764  31.926407870730838 9.349214810046213  31.505535343035344 8.900356695266558  C 31.084797647837046 8.451354866318358  30.71839416408737 7.936467266091958  30.405925155925157 7.355846910247759  C 30.093590950123236 6.7750760171011875  29.848888351218367 6.151905558413369  29.672193347193346 5.486243131206016  C 29.495700591914122 4.820430105502266  29.40753638253638 4.139954991323629  29.40753638253638 3.4449436035862337  Z M 34 13  L 34 0  L 36 0  L 36 13  L 34 13  Z M 35.634381496881495 6.2672707991902055  L 35.634381496881495 5.258652270317169  L 38 5.258652270317169  L 38 6.2672707991902055  L 35.634381496881495 6.2672707991902055  Z " fill-rule="nonzero" fill="#26262c" stroke="none" transform="matrix(1 0 0 1 81 395 )" />
  </g>
</svg>