<?xml version="1.0" encoding="utf-8"?>
<svg version="1.1" xmlns:xlink="http://www.w3.org/1999/xlink" width="36px" height="13px" xmlns="http://www.w3.org/2000/svg">
  <g transform="matrix(1 0 0 1 -81 -263 )">
    <path d="M 3.205640231477708 2.7584401586018403  C 3.205640231477708 2.7584401586018403  3.205640231477708 1.4302652346306348  3.205640231477708 1.4302652346306348  L 4.171978156328959 1.4302652346306348  C 4.171978156328959 1.4302652346306348  4.171978156328959 2.7584401586018403  4.171978156328959 2.7584401586018403  C 4.171978156328959 3.5494084770677548  4.022958690666008 4.2860874373243645  3.724997962344119 4.968395118758902  C 3.427037234022231 5.650559301670408  3.010466248299831 6.245741356968875  2.475018338902926 6.754224891249952  C 1.9395637434476627 7.262701583540999  1.3154097487188239 7.648838881867705  0.6024940907979461 7.912499518805097  C 0.6024940907979461 7.912499518805097  0 6.971166801401241  0 6.971166801401241  C 0.639011371552541 6.7399410305514404  1.198177326764228 6.411928957455904  1.6773983209715542 5.9872964545559535  C 2.1566126291205223 5.562663951656002  2.531087027327512 5.071801046358317  2.8007172548699977 4.5147438118335455  C 3.0704877105471615 3.957536236795711  3.205640231477708 3.3721405791737045  3.205640231477708 2.7584401586018403  Z M 3.4340207025837475 2.7584401586018403  C 3.4340207025837475 2.7584401586018403  3.4340207025837475 1.4302652346306348  3.4340207025837475 1.4302652346306348  L 4.3900888417963975 1.4302652346306348  C 4.3900888417963975 1.4302652346306348  4.3900888417963975 2.7584401586018403  4.3900888417963975 2.7584401586018403  C 4.3900888417963975 3.1957746632688293  4.467268446078849 3.617819977599625  4.622381612193333 4.024810409208146  C 4.777641677576616 4.431807682806696  4.998549403921977 4.81061840105099  5.28453826717744 5.160815336643955  C 5.570667358567579 5.511012272236918  5.908825535346325 5.819943272196017  6.298801858342163 6.087635215767795  C 6.688778181338002 6.355183691361138  7.118325075122641 6.568020254771648  7.587904474692314 6.726450321438196  C 7.587904474692314 6.726450321438196  6.994213057298883 7.656773299457211  6.994213057298883 7.656773299457211  C 6.292254356603787 7.408513584996765  5.675052250750112 7.045049389299759  5.1422283804711055 6.566308657658698  C 4.6094045101921 6.087574768007667  4.1912648677242945 5.521272935891907  3.888336457739017 4.867806136197405  C 3.585408047753739 4.214195837979871  3.4340207025837475 3.5111452587189507  3.4340207025837475 2.7584401586018403  Z M 0.31200586844893635 2.055318166069985  L 0.31200586844893635 1.0822073372598837  L 7.252913847909365 1.0822073372598837  L 7.252913847909365 2.055318166069985  L 0.31200586844893635 2.055318166069985  Z M 9.05452767136686 9.513165492551103  L 9.05452767136686 0.01976748662278169  L 10.222838047110603 0.01976748662278169  L 10.222838047110603 9.513165492551103  L 9.05452767136686 9.513165492551103  Z M 2.0779199608770074 12.70048504446241  L 2.0779199608770074 11.721368903260576  L 10.611133751732009 11.721368903260576  L 10.611133751732009 12.70048504446241  L 2.0779199608770074 12.70048504446241  Z M 2.0779199608770074 12.151999846017631  L 2.0779199608770074 8.623128151826615  L 3.2320482516912543 8.623128151826615  L 3.2320482516912543 12.151999846017631  L 2.0779199608770074 12.151999846017631  Z M 15.937240198875214 10.799053008430535  L 15.937240198875214 7.612233899218539  L 17.08354389110767 7.612233899218539  L 17.08354389110767 10.799053008430535  L 15.937240198875214 10.799053008430535  Z M 19.987937077186405 10.781537513954653  L 19.987937077186405 7.594718404742657  L 21.125438096014346 7.594718404742657  L 21.125438096014346 10.781537513954653  L 19.987937077186405 10.781537513954653  Z M 12.731599967397505 11.386822958771221  L 12.731599967397505 10.396947299534204  L 24.22544624663787 10.396947299534204  L 24.22544624663787 11.386822958771221  L 12.731599967397505 11.386822958771221  Z M 14.132692150949547 1.9399661238788157  L 14.132692150949547 0.9666050737190591  L 22.80088026734045 0.9666050737190591  L 22.80088026734045 4.891577164414675  L 15.312250387154618 4.891577164414675  L 15.312250387154618 7.494880086230126  L 14.163501507865352 7.494880086230126  L 14.163501507865352 3.938233822227355  L 21.65213138805119 3.938233822227355  L 21.65213138805119 1.9399661238788157  L 14.132692150949547 1.9399661238788157  Z M 14.163501507865352 7.946779843707895  L 14.163501507865352 6.976671671093659  L 23.095280788980357 6.976671671093659  L 23.095280788980357 7.946779843707895  L 14.163501507865352 7.946779843707895  Z M 34.840492297660774 13  L 34.840492297660774 0  L 36 0  L 36 13  L 34.840492297660774 13  Z M 26.348357649360178 9.871482465257728  L 26.348357649360178 1.1029757092812873  L 27.505909202053957 1.1029757092812873  L 27.505909202053957 4.5287562074142516  L 31.168310375743744 4.5287562074142516  L 31.168310375743744 1.1029757092812873  L 32.32537289102616 1.1029757092812873  L 32.32537289102616 9.871482465257728  L 26.348357649360178 9.871482465257728  Z M 31.168310375743744 5.476344458559495  L 27.505909202053957 5.476344458559495  L 27.505909202053957 8.892366324055896  L 31.168310375743744 8.892366324055896  L 31.168310375743744 5.476344458559495  Z " fill-rule="nonzero" fill="#26262c" stroke="none" transform="matrix(1 0 0 1 81 263 )" />
  </g>
</svg>