<?xml version="1.0" encoding="utf-8"?>
<svg version="1.1" xmlns:xlink="http://www.w3.org/1999/xlink" width="57px" height="15px" xmlns="http://www.w3.org/2000/svg">
  <g transform="matrix(1 0 0 1 -187 -875 )">
    <path d="M 9 15  L 9 0  L 11 0  L 11 15  L 9 15  Z M 10.482910382457405 7.239368828462264  L 10.482910382457405 5.640351312459683  L 13.115740979049777 5.640351312459683  L 13.115740979049777 7.239368828462264  L 10.482910382457405 7.239368828462264  Z M 0 11.369275045898874  L 0 9.759341041036075  C 0 9.759341041036075  1.2191022803314975 9.759341041036075  1.2191022803314975 9.759341041036075  C 2.0767139025009893 9.759341041036075  2.8737521991129853 9.746651582041668  3.6108508776445154 9.721381432044856  C 4.3479495561760455 9.696179029693475  5.063726091259708 9.647401381809528  5.758094404694497 9.575249342529649  C 6.4526296214926795 9.502894062206348  7.161399617850238 9.403516960304938  7.884310495701858 9.27703071503002  C 7.884310495701858 9.27703071503002  8.076980491069131 10.88150647546271  8.076980491069131 10.88150647546271  C 7.332704430669139 11.015174058225085  6.602604470999406 11.118105959018004  5.886704071652854 11.190393489803007  C 5.1708036723063024 11.262545529082887  4.432766072815259 11.310220017170767  3.6724661553508007 11.33379645710316  C 2.912166237886342 11.357372897035555  2.0945738756436354 11.369275045898874  1.2191022803314975 11.369275045898874  C 1.2191022803314975 11.369275045898874  0 11.369275045898874  0 11.369275045898874  Z M 0 10.521014241055921  L 0 1.4089713690269439  L 6.865213362845525 1.4089713690269439  L 6.865213362845525 2.9697811740187565  L 1.8978483553816854 2.9697811740187565  L 1.8978483553816854 10.521014241055921  L 0 10.521014241055921  Z M 14.160266639213466 9  L 14.160266639213466 7.375576837195455  L 27.510732485715756 7.375576837195455  L 27.510732485715756 9  L 14.160266639213466 9  Z M 19.97997632161425 11.60472386245224  L 19.97997632161425 8.370714037612267  L 21.91547845781644 8.370714037612267  L 21.91547845781644 11.60472386245224  L 19.97997632161425 11.60472386245224  Z M 15.756395737890564 14.696819332109364  L 15.756395737890564 13  L 26.047125135121224 13  L 26.047125135121224 14.696819332109364  L 15.756395737890564 14.696819332109364  Z M 15.756395737890564 13.532972758398254  L 15.756395737890564 10.245620999354935  L 17.675760539455396 10.245620999354935  L 17.675760539455396 13.532972758398254  L 15.756395737890564 13.532972758398254  Z M 18.059633499768363 0.6907160224284226  C 18.850478941397604 0.4393694905118422  19.77157431129396 0.3136009527117551  20.822540793740668 0.3136009527117551  C 21.87671210729389 0.3136009527117551  22.798361374296444 0.4393694905118422  23.587404128275082 0.6907160224284226  C 24.376580416883154 0.9418931804992587  24.98991858003781 1.298015524257012  25.428038297215217 1.7590433186126135  C 25.86642505380469 2.2199017542654165  26.085756936222783 2.764664949367805  26.085756936222783 3.393539423410907  C 26.085756936222783 4.018857061836327  25.86642505380469 4.562045693462589  25.428038297215217 5.023073487818191  C 24.98991858003781 5.483931923470994  24.376580416883154 5.840054252085801  23.587404128275082 6.091400784002381  C 22.798361374296444 6.342577942073218  21.87671210729389 6.468267751699499  20.822540793740668 6.468267751699499  C 19.77157431129396 6.468267751699499  18.850478941397604 6.342577942073218  18.059633499768363 6.091400784002381  C 17.268854795607034 5.840054252085801  16.654251724630388 5.483931923470994  16.216065269985073 5.023073487818191  C 15.777945552807667 4.562045693462589  15.558835641118032 4.018857061836327  15.558835641118032 3.393539423410907  C 15.558835641118032 2.764664949367805  15.777945552807667 2.2199017542654165  16.216065269985073 1.7590433186126135  C 16.654251724630388 1.298015524257012  17.268854795607034 0.9418931804992587  18.059633499768363 0.6907160224284226  Z M 22.53407628558192 2.0364213764700043  C 22.05422771302856 1.9175229507693878  21.48385985347893 1.8580360244132388  20.822540793740668 1.8580360244132388  C 20.17170405317925 1.8580360244132388  19.603530322197763 1.9175229507693878  19.11834045400731 2.0364213764700043  C 18.633083818502136 2.1553198021706215  18.25912095431827 2.3283243205348225  17.996062181499976 2.555450801369523  C 17.733203710625837 2.7824079083584796  17.601430998095434 3.061741677630967  17.601430998095434 3.393539423410907  C 17.601430998095434 3.7180542301103587  17.733203710625837 3.995734632018186  17.996062181499976 4.226417903041731  C 18.25912095431827 4.457101174065275  18.633083818502136 4.630893004453431  19.11834045400731 4.747928348136754  C 19.603530322197763 4.864963691820076  20.17170405317925 4.923584577978465  20.822540793740668 4.923584577978465  C 21.48385985347893 4.923584577978465  22.05422771302856 4.864963691820076  22.53407628558192 4.747928348136754  C 23.01399162545 4.630893004453431  23.385538390337263 4.457101174065275  23.64853039584084 4.226417903041731  C 23.911655935973855 3.995734632018186  24.043161579245382 3.7180542301103587  24.043161579245382 3.393539423410907  C 24.043161579245382 3.061741677630967  23.911655935973855 2.7824079083584796  23.64853039584084 2.555450801369523  C 23.385538390337263 2.3283243205348225  23.01399162545 2.1553198021706215  22.53407628558192 2.0364213764700043  Z M 28.907834457198742 13  L 28.907834457198742 11.69528109958815  L 42.25781129356051 11.69528109958815  L 42.25781129356051 13  L 28.907834457198742 13  Z M 34.60969269573274 12.336624820126035  L 34.60969269573274 8.760234208306455  L 36.50754105111442 8.760234208306455  L 36.50754105111442 12.336624820126035  L 34.60969269573274 12.336624820126035  Z M 30.450661450558503 2.5626457599364856  L 30.450661450558503 1  L 40.71547331034128 1  L 40.71547331034128 5.879025455267206  L 32.36415813043702 5.879025455267206  L 32.36415813043702 8.520567657420731  L 30.47706799814691 8.520567657420731  L 30.47706799814691 4.36163350369672  L 38.82838317805117 4.36163350369672  L 38.82838317805117 2.5626457599364856  L 30.450661450558503 2.5626457599364856  Z M 30.47706799814691 9.303577631121916  L 30.47706799814691 7.753684314990324  L 41.051912287023214 7.753684314990324  L 41.051912287023214 9.303577631121916  L 30.47706799814691 9.303577631121916  Z M 45.240284140629015 8.535453778593759  L 45.240284140629015 7  L 55.536881659546 7  L 55.536881659546 8.535453778593759  L 45.240284140629015 8.535453778593759  Z M 43.64953415349771 13  L 43.64953415349771 11.532526174763063  L 57 11.532526174763063  L 57 13  L 43.64953415349771 13  Z M 45.240284140629015 7.643278916290378  L 45.240284140629015 1.2836798491539723  L 55.414629124414475 1.2836798491539723  L 55.414629124414475 2.8556542450255544  L 47.13275338446492 2.8556542450255544  L 47.13275338446492 7.643278916290378  L 45.240284140629015 7.643278916290378  Z " fill-rule="nonzero" fill="#ffffff" stroke="none" transform="matrix(1 0 0 1 187 875 )" />
  </g>
</svg>