<?xml version="1.0" encoding="utf-8"?>
<svg version="1.1" xmlns:xlink="http://www.w3.org/1999/xlink" width="35px" height="13px" xmlns="http://www.w3.org/2000/svg">
  <g transform="matrix(1 0 0 1 -81 -413 )">
    <path d="M 9 13  L 9 0  L 10 0  L 10 13  L 9 13  Z M 0 9.871482465257728  L 0 1.1029757092812873  L 1.140597249184255 1.1029757092812873  L 1.140597249184255 4.5287562074142516  L 4.748874478542811 4.5287562074142516  L 4.748874478542811 1.1029757092812873  L 5.8894717277270665 1.1029757092812873  L 5.8894717277270665 9.871482465257728  L 0 9.871482465257728  Z M 4.748874478542811 5.476344458559495  L 1.140597249184255 5.476344458559495  L 1.140597249184255 8.892366324055896  L 4.748874478542811 8.892366324055896  L 4.748874478542811 5.476344458559495  Z M 13.468395908196 12.815837086653579  L 13.468395908196 7.43457674096316  L 14.603692536450374 7.43457674096316  L 14.603692536450374 9.138584132116874  L 20.717235967122384 9.138584132116874  L 20.717235967122384 7.43457674096316  L 21.857833216306638 7.43457674096316  L 21.857833216306638 12.815837086653579  L 13.468395908196 12.815837086653579  Z M 20.717235967122384 10.080917734919352  L 14.603692536450374 10.080917734919352  L 14.603692536450374 11.845728914039343  L 20.717235967122384 11.845728914039343  L 20.717235967122384 10.080917734919352  Z M 13.447193424476477 1.5686376409901066  L 13.447193424476477 0.5950263694806944  L 21.48389850343508 0.5950263694806944  L 21.48389850343508 1.5686376409901066  L 13.447193424476477 1.5686376409901066  Z M 12.004460782289042 6.282057204450091  L 12.004460782289042 5.294433537359972  L 23.32996021092341 5.294433537359972  L 23.32996021092341 6.282057204450091  L 12.004460782289042 6.282057204450091  Z M 20.736029077691956 1.5481194903183586  C 20.736029077691956 1.5481194903183586  20.736029077691956 0.5950263694806944  20.736029077691956 0.5950263694806944  L 21.86265196260653 0.5950263694806944  C 21.86265196260653 0.5950263694806944  21.86265196260653 1.5481194903183586  21.86265196260653 1.5481194903183586  C 21.86265196260653 2.075283642779249  21.845740604966537 2.6599672447246  21.812055126457672 3.301920930053509  C 21.778501230398767 3.9437311168593854  21.66501680655417 4.69999661753817  21.47185163768535 5.5709281287292605  C 21.47185163768535 5.5709281287292605  20.332218137761075 5.5826885321630675  20.332218137761075 5.5826885321630675  C 20.536831093745697 4.707862401415194  20.65560355783945 3.9493794850748376  20.687841614693045 3.3074257997459293  C 20.720079671546642 2.66547211441702  20.736029077691956 2.079021140922138  20.736029077691956 1.5481194903183586  Z M 30.341717951895145 3.8814335758555645  L 30.341717951895145 2.8970627863109675  L 34.12106067489984 2.8970627863109675  L 34.12106067489984 3.8814335758555645  L 30.341717951895145 3.8814335758555645  Z M 30.341717951895145 7.987565923701736  L 30.341717951895145 7.003195134157139  L 34.12106067489984 7.003195134157139  L 34.12106067489984 7.987565923701736  L 30.341717951895145 7.987565923701736  Z M 26.43467845194333 1.5593794510528545  C 26.90555143472524 1.1887048669255496  27.443039526344666 1.0033876121184124  28.04654908925695 1.0033876121184124  C 28.655453565705542 1.0033876121184124  29.193748909093113 1.1887048669255496  29.66179284898049 1.5593794510528545  C 30.129902581931056 1.9300540351801594  30.495677543225124 2.4542456484191546  30.759503256095712 3.131770412287793  C 31.023328968966304 3.809151738722596  31.155604201946772 4.607227724134571  31.155604201946772 5.526138507140932  C 31.155604201946772 6.448943970793274  31.023328968966304 7.2499425855534465  30.759503256095712 7.929264349232012  C 30.495677543225124 8.608449456377576  30.129902581931056 9.133596535197452  29.66179284898049 9.504407745313163  C 29.193748909093113 9.875082329440467  28.655453565705542 10.060399584247603  28.04654908925695 10.060399584247603  C 27.443039526344666 10.060399584247603  26.90555143472524 9.875082329440467  26.43467845194333 9.504407745313163  C 25.9639370552878 9.133596535197452  25.596588472155176 8.608449456377576  25.332631173158205 7.929264349232012  C 25.068805460287614 7.2499425855534465  24.937012101937135 6.448943970793274  24.937012101937135 5.526138507140932  C 24.937012101937135 4.607227724134571  25.068805460287614 3.809151738722596  25.332631173158205 3.131770412287793  C 25.596588472155176 2.4542456484191546  25.9639370552878 1.9300540351801594  26.43467845194333 1.5593794510528545  Z M 29.107637024493 2.4964584055125685  C 28.80196762930536 2.2127779224808544  28.448472118268704 2.071082111098279  28.04654908925695 2.071082111098279  C 27.6481788268348 2.071082111098279  27.29723842190657 2.2127779224808544  26.994134897360702 2.4964584055125685  C 26.691162958941216 2.7799954205658493  26.453401151876665 3.180566446662853  26.2809604449768 3.698021326558109  C 26.108717117266504 4.215469364463336  26.022675643302634 4.824849557045054  26.022675643302634 5.526138507140932  C 26.022675643302634 6.227584639739902  26.108717117266504 6.839531372742293  26.2809604449768 7.361762328213419  C 26.453401151876665 7.883842943171483  26.691162958941216 8.287599557063851  26.994134897360702 8.573083881895524  C 27.29723842190657 8.858547711301705  27.6481788268348 9.001212611156024  28.04654908925695 9.001212611156024  C 28.448472118268704 9.001212611156024  28.80196762930536 8.858547711301705  29.107637024493 8.573083881895524  C 29.413503798870206 8.287599557063851  29.651724363288185 7.883842943171483  29.82225710076687 7.361762328213419  C 29.992789838245553 6.839531372742293  30.078132529291093 6.227584639739902  30.078132529291093 5.526138507140932  C 30.078132529291093 4.824849557045054  29.992789838245553 4.215469364463336  29.82225710076687 3.698021326558109  C 29.651724363288185 3.180566446662853  29.413503798870206 2.7799954205658493  29.107637024493 2.4964584055125685  Z M 33.86277587322567 13  L 33.86277587322567 0  L 35 0  L 35 13  L 33.86277587322567 13  Z " fill-rule="nonzero" fill="#91929f" stroke="none" transform="matrix(1 0 0 1 81 413 )" />
  </g>
</svg>