<?xml version="1.0" encoding="utf-8"?>
<svg version="1.1" xmlns:xlink="http://www.w3.org/1999/xlink" width="24px" height="24px" xmlns="http://www.w3.org/2000/svg">
  <g transform="matrix(1 0 0 1 -40 -267 )">
    <path d="M 3.5146484375 20.4853515625  C 5.686248540878296 22.656851530075073  8.686320066452026 24  12 24  C 15.313699960708618 24  18.313751459121704 22.656851530075073  20.4853515625 20.4853515625  C 22.656851530075073 18.313751459121704  24 15.313699960708618  24 12  C 24 8.686320066452026  22.656851530075073 5.686248540878296  20.4853515625 3.5146484375  C 18.313751459121704 1.343078374862671  15.313699960708618 0  12 0  C 8.686320066452026 0  5.686248540878296 1.343078374862671  3.5146484375 3.5146484375  C 1.343078374862671 5.686248540878296  0 8.686320066452026  0 12  C 0 15.313699960708618  1.343078374862671 18.313751459121704  3.5146484375 20.4853515625  Z " fill-rule="nonzero" fill="#fc4a36" stroke="none" transform="matrix(1 0 0 1 40 267 )" />
  </g>
</svg>