<?xml version="1.0" encoding="utf-8"?>
<svg version="1.1" xmlns:xlink="http://www.w3.org/1999/xlink" width="32px" height="32px" xmlns="http://www.w3.org/2000/svg">
  <g transform="matrix(1 0 0 1 -24 -245 )">
    <path d="M 4.686279296875 27.313720703125  C 7.581749200820923 30.209120750427246  11.581799983978271 32  16 32  C 20.41820001602173 32  24.41822075843811 30.209120750427246  27.313720703125 27.313720703125  C 30.209120750427246 24.41822075843811  32 20.41820001602173  32 16  C 32 11.581799983978271  30.209120750427246 7.581749200820923  27.313720703125 4.686279296875  C 24.41822075843811 1.790849208831787  20.41820001602173 0  16 0  C 11.581799983978271 0  7.581749200820923 1.790849208831787  4.686279296875 4.686279296875  C 1.790849208831787 7.581749200820923  0 11.581799983978271  0 16  C 0 20.41820001602173  1.790849208831787 24.41822075843811  4.686279296875 27.313720703125  Z " fill-rule="nonzero" fill="#fc4a36" stroke="none" transform="matrix(1 0 0 1 24 245 )" />
  </g>
</svg>