<?xml version="1.0" encoding="utf-8"?>
<svg version="1.1" xmlns:xlink="http://www.w3.org/1999/xlink" width="410px" height="360px" xmlns="http://www.w3.org/2000/svg">
  <g transform="matrix(1 0 0 1 -10 -12 )">
    <path d="M 0 12  C 0 5.372582912445068  5.372582912445068 0  12 0  C 12 0  398 0  398 0  C 404.62741708755493 0  410 5.372582912445068  410 12  C 410 12  410 348  410 348  C 410 354.62741708755493  404.62741708755493 360  398 360  C 398 360  12 360  12 360  C 5.372582912445068 360  0 354.62741708755493  0 348  C 0 348  0 12  0 12  Z " fill-rule="nonzero" fill="#000000" stroke="none" transform="matrix(1 0 0 1 10 12 )" />
  </g>
</svg>