<?xml version="1.0" encoding="utf-8"?>
<svg version="1.1" xmlns:xlink="http://www.w3.org/1999/xlink" width="48px" height="48px" xmlns="http://www.w3.org/2000/svg">
  <g transform="matrix(1 0 0 1 -23 -1872 )">
    <path d="M 22.24442580650593 0.7271828487001617  C 22.710033367420067 0.2615752877860234  23.34153147401481 0  24 0  C 24.658468525985192 0  25.28996663257994 0.2615752877860234  25.755574193494077 0.7271828487001617  C 26.221181754408214 1.1927904096142998  26.482758620689655 1.8242900947044638  26.482758620689655 2.4827586206896552  C 26.482758620689655 2.4827586206896552  26.482758620689655 21.517241379310345  26.482758620689655 21.517241379310345  C 26.482758620689655 21.517241379310345  45.51724137931035 21.517241379310345  45.51724137931035 21.517241379310345  C 46.175709905295534 21.51724140706271  46.80721116888112 21.778818245591793  47.27281872979526 22.24442580650593  C 47.7384262907094 22.710033367420067  48 23.34153147401481  48 24  C 48 24.658468525985192  47.7384262907094 25.28996663257994  47.27281872979526 25.755574193494077  C 46.80721116888112 26.221181754408214  46.175709905295534 26.482758592937284  45.51724137931035 26.482758620689655  C 45.51724137931035 26.482758620689655  26.482758620689655 26.482758620689655  26.482758620689655 26.482758620689655  C 26.482758620689655 26.482758620689655  26.482758620689655 45.51724137931035  26.482758620689655 45.51724137931035  C 26.48275859293728 46.175709905295534  26.221181754408214 46.80721116888112  25.755574193494077 47.27281872979526  C 25.28996663257994 47.7384262907094  24.658468525985192 48  24 48  C 23.34153147401481 48  22.710033367420067 47.7384262907094  22.24442580650593 47.27281872979526  C 21.778818245591793 46.80721116888112  21.517241407062716 46.175709905295534  21.517241379310345 45.51724137931035  C 21.517241379310345 45.51724137931035  21.517241379310345 26.482758620689655  21.517241379310345 26.482758620689655  C 21.517241379310345 26.482758620689655  2.4827586206896552 26.482758620689655  2.4827586206896552 26.482758620689655  C 1.8242900947044638 26.48275859293728  1.1927904096142998 26.221181754408214  0.7271828487001617 25.755574193494077  C 0.2615752877860234 25.28996663257994  0 24.658468525985192  0 24  C 0 23.34153147401481  0.2615752877860234 22.710033367420067  0.7271828487001617 22.24442580650593  C 1.1927904096142998 21.778818245591793  1.8242900947044638 21.517241407062716  2.4827586206896552 21.517241379310345  C 2.4827586206896552 21.517241379310345  21.517241379310345 21.517241379310345  21.517241379310345 21.517241379310345  C 21.517241379310345 21.517241379310345  21.517241379310345 2.4827586206896552  21.517241379310345 2.4827586206896552  C 21.517241379310345 1.8242900947044638  21.778818245591793 1.1927904096142998  22.24442580650593 0.7271828487001617  Z " fill-rule="nonzero" fill="#8a8a8a" stroke="none" transform="matrix(1 0 0 1 23 1872 )" />
  </g>
</svg>