<?xml version="1.0" encoding="utf-8"?>
<svg version="1.1" xmlns:xlink="http://www.w3.org/1999/xlink" width="25px" height="9px" xmlns="http://www.w3.org/2000/svg">
  <g transform="matrix(1 0 0 1 -759 -1902 )">
    <path d="M 20.835007917260317 0  C 20.473967944522737 0.5081059662575891  20.06262535871792 0.9821232217374182  19.606613164309124 1.4155568750745082  C 18.68836695653499 2.2867486221802413  17.603843129385783 2.9830778464204943  16.411274650162888 3.4671573858271585  C 14.264215642377104 4.329965986668185  11.868927267525587 4.455919483042204  9.635088757260364 3.823476911043576  C 7.401250246995141 3.191034339044948  5.467646487523081 1.8394887171628018  4.164992082739683 0  C 4.164992082739683 0  0 2.6756881560899424  0 2.6756881560899424  C 1.086303896088402 4.20156729016682  2.468337307295877 5.516268086675419  4.0720466855791635 6.5493423723900674  C 5.7040106249116 7.599828367168776  7.537644389142449 8.33356802029759  9.4679465950031 8.708544515838387  C 11.469547685298583 9.097151685530623  13.532965388434476 9.097151685530623  15.534566478729959 8.708544515838387  C 17.464693200652626 8.333027536505272  19.298219458511912 7.599330889766945  20.930466388153896 6.5493423723900674  C 21.716740514260653 6.042419990456644  22.467847479518806 5.45419657490661  23.156151333706674 4.801414438732676  C 23.839431136652948 4.1534145989288085  24.462419592121666 3.4360717111746717  25 2.6756881560899424  C 25 2.6756881560899424  20.835007917260317 0  20.835007917260317 0  Z " fill-rule="nonzero" fill="#8a8a8a" stroke="none" transform="matrix(1 0 0 1 759 1902 )" />
  </g>
</svg>