<?xml version="1.0" encoding="utf-8"?>
<svg version="1.1" xmlns:xlink="http://www.w3.org/1999/xlink" width="50px" height="50px" xmlns="http://www.w3.org/2000/svg">
  <g transform="matrix(1 0 0 1 -747 -1872 )">
    <path d="M 50 25  C 50 11.215000152587889  38.78499984741211 0  25 0  C 11.215000152587889 0  0 11.215000152587889  0 25  C 0 38.78499984741211  11.215000152587889 50  25 50  C 38.78499984741211 50  50 38.78499984741211  50 25  Z M 45 25  C 45 36.02749943733215  36.02749943733215 45  25 45  C 13.972500562667845 45  5 36.02749943733215  5 25  C 5 13.972500562667845  13.972500562667845 5  25 5  C 36.02749943733215 5  45 13.972500562667845  45 25  Z " fill-rule="nonzero" fill="#8a8a8a" stroke="none" transform="matrix(1 0 0 1 747 1872 )" />
  </g>
</svg>