<?xml version="1.0" encoding="utf-8"?>
<svg version="1.1" xmlns:xlink="http://www.w3.org/1999/xlink" width="45px" height="45px" xmlns="http://www.w3.org/2000/svg">
  <g transform="matrix(1 0 0 1 -830 -1874 )">
    <path d="M 44.26776885986329 28.214947915258076  C 43.7989279255271 27.747520775574525  43.16304124891758 27.484922448648433  42.50000000000001 27.484922448648433  C 42.50000000000001 27.484922448648433  31.749999523162842 27.484922448648433  31.749999523162842 27.484922448648433  L 33.57500076293945 17.5150787398497  C 33.57500076293945 17.5150787398497  42.50000000000001 17.5150787398497  42.50000000000001 17.5150787398497  C 43.16304124891758 17.5150787398497  43.7989279255271 17.252480412923603  44.26776885986329 16.785053273240052  C 44.73660979419947 16.3176261335565  45 15.683659356747313  45 15.022617515525486  C 45 14.361575674303657  44.73660979419947 13.727608897494466  44.26776885986329 13.260181757810916  C 43.7989279255271 12.792754618127365  43.16304124891758 12.530156291201266  42.50000000000001 12.530156291201267  C 42.50000000000001 12.530156291201267  34.47500228881837 12.530156291201267  34.47500228881837 12.530156291201267  C 34.47500228881837 12.530156291201267  36.19999885559082 3.0338788720212544  36.19999885559082 3.0338788720212544  C 36.268162564374514 2.7006490299134946  36.267202738672495 2.357036913853853  36.19718074798584 2.024190288110962  C 36.127158757299185 1.6913436623680715  35.98955864086747 1.376304824032024  35.79284191131592 1.098463154392351  C 35.596125181764364 0.8206214847526783  35.344454012811184 0.5858552584056398  35.053324699401855 0.4086137156130516  C 34.76219538599253 0.23137217282046346  34.43776462227106 0.1154050855268673  34.099998474121094 0.06784989566851726  C 33.76415278762579 -0.011915487604169219  33.41537784785033 -0.02146439688295765  33.07564735412598 0.03980431111337264  C 32.73591686040163 0.10107301910970293  32.41259755566716 0.23183137878433654  32.126061916351325 0.42384015936888325  C 31.839526277035482 0.61584893995343  31.59598577767611 0.8649452224844724  31.410787105560306 1.1554338121167227  C 31.2255884334445 1.445922401748973  31.102745835669342 1.7715057811718231  31.050000190734867 2.1116679100117812  C 31.050000190734867 2.1116679100117812  29.175000190734867 12.530156291201267  29.175000190734867 12.530156291201267  L 19.474999904632572 12.530156291201267  C 19.474999904632572 12.530156291201267  21.19999885559082 3.0338788720212544  21.19999885559082 3.0338788720212544  C 21.26816256437451 2.7006490299134946  21.267205122858286 2.357036913853853  21.19718313217163 2.024190288110962  C 21.127161141484972 1.6913436623680715  20.98955625668168 1.376304824032024  20.792839527130127 1.098463154392351  C 20.596122797578573 0.8206214847526783  20.34445639699698 0.5858552584056398  20.05332708358765 0.4086137156130516  C 19.76219777017832 0.23137217282046346  19.437767006456852 0.1154050855268673  19.100000858306885 0.06784989566851726  C 18.764155171811584 -0.011915487604169219  18.415377847850326 -0.02146439688295765  18.075647354125977 0.03980431111337264  C 17.73591686040163 0.10107301910970293  17.412597555667162 0.23183137878433654  17.126061916351322 0.42384015936888325  C 16.83952627703548 0.61584893995343  16.595985777676105 0.8649452224844724  16.410787105560303 1.1554338121167227  C 16.2255884334445 1.445922401748973  16.10274583566934 1.7715057811718231  16.050000190734863 2.1116679100117812  C 16.050000190734863 2.1116679100117812  14.175000190734865 12.530156291201267  14.175000190734865 12.530156291201267  C 14.175000190734865 12.530156291201267  2.5 12.530156291201267  2.5 12.530156291201267  C 1.8369587510824203 12.530156291201266  1.2010738626122475 12.792754618127365  0.7322329282760621 13.260181757810916  C 0.26339199393987656 13.727608897494466  0 14.361575674303657  0 15.022617515525486  C 0 15.683659356747313  0.26339199393987656 16.3176261335565  0.7322329282760621 16.785053273240052  C 1.2010738626122475 17.252480412923603  1.8369587510824203 17.5150787398497  2.5 17.5150787398497  C 2.5 17.5150787398497  13.25000047683716 17.5150787398497  13.25000047683716 17.5150787398497  L 11.425000429153442 27.484922448648433  C 11.425000429153442 27.484922448648433  2.5 27.484922448648433  2.5 27.484922448648433  C 1.8369587510824203 27.484922448648433  1.2010738626122475 27.747520775574525  0.7322329282760621 28.214947915258076  C 0.26339199393987656 28.682375054941627  0 29.31634183175082  0 29.977383672972646  C 0 30.63842551419447  0.26339199393987656 31.272392291003666  0.7322329282760621 31.739819430687213  C 1.2010738626122475 32.20724657037076  1.8369587510824203 32.46984489729686  2.5 32.46984489729686  C 2.5 32.46984489729686  10.525000095367433 32.46984489729686  10.525000095367433 32.46984489729686  C 10.525000095367433 32.46984489729686  8.799999952316284 41.966120830854216  8.799999952316284 41.966120830854216  C 8.731836243532598 42.29935067296197  8.732794877141714 42.64296516601788  8.802816867828371 42.97581179176077  C 8.872838858515026 43.30865841750366  9.010442551225424 43.62369606734157  9.207159280776978 43.90153773698124  C 9.403876010328531 44.17937940662092  9.655543603003027 44.41414804710478  9.946672916412355 44.59138958989737  C 10.237802229821684 44.76863113268996  10.562234185636042 44.88459582905958  10.90000033378601 44.93215101891793  C 11.235846020281315 45.01191640219062  11.584622152149679 45.02146352872222  11.924352645874023 44.96019482072588  C 12.264083139598371 44.89892611272955  12.587402444332838 44.76817133247702  12.873938083648682 44.57616255189247  C 13.160473722964525 44.38415377130793  13.404014222323896 44.135054480391005  13.589212894439697 43.84456589075875  C 13.774411566555502 43.554077301126505  13.897254164330661 43.228495704450836  13.949999809265137 42.88833357561088  C 13.949999809265137 42.88833357561088  15.824999809265138 32.46984489729686  15.824999809265138 32.46984489729686  L 25.52500009536743 32.46984489729686  C 25.52500009536743 32.46984489729686  23.80000114440918 41.966120830854216  23.80000114440918 41.966120830854216  C 23.731837435625497 42.29935067296197  23.73279487714171 42.64296516601788  23.80281686782837 42.97581179176077  C 23.872838858515028 43.30865841750366  24.01044374331832 43.62369606734157  24.207160472869873 43.90153773698124  C 24.403877202421427 44.17937940662092  24.655543603003025 44.41414804710478  24.946672916412354 44.59138958989737  C 25.237802229821682 44.76863113268996  25.562232993543155 44.88459582905958  25.899999141693115 44.93215101891793  C 26.23584482818842 45.01191640219062  26.58462215214968 45.02146352872222  26.924352645874027 44.96019482072588  C 27.26408313959837 44.89892611272955  27.587402444332838 44.76817133247702  27.87393808364868 44.57616255189247  C 28.160473722964525 44.38415377130793  28.404014222323895 44.135054480391005  28.5892128944397 43.84456589075875  C 28.7744115665555 43.554077301126505  28.897254164330665 43.228495704450836  28.94999980926514 42.88833357561088  C 28.94999980926514 42.88833357561088  30.82499980926514 32.46984489729686  30.82499980926514 32.46984489729686  C 30.82499980926514 32.46984489729686  42.50000000000001 32.46984489729686  42.50000000000001 32.46984489729686  C 43.16304124891758 32.46984489729686  43.7989279255271 32.20724657037076  44.26776885986329 31.739819430687213  C 44.73660979419947 31.272392291003666  45 30.63842551419447  45 29.977383672972646  C 45 29.31634183175082  44.73660979419947 28.682375054941627  44.26776885986329 28.214947915258076  Z M 26.424999237060547 27.484922448648433  L 16.749999523162842 27.484922448648433  L 18.575000762939457 17.5150787398497  L 28.250000476837158 17.5150787398497  L 26.424999237060547 27.484922448648433  Z " fill-rule="nonzero" fill="#8a8a8a" stroke="none" transform="matrix(1 0 0 1 830 1874 )" />
  </g>
</svg>