<?xml version="1.0" encoding="utf-8"?>
<svg version="1.1" xmlns:xlink="http://www.w3.org/1999/xlink" width="100px" height="35px" xmlns="http://www.w3.org/2000/svg">
  <g transform="matrix(1 0 0 1 -36 -228 )">
    <path d="M 0 31  L 0 27  L 31.848595712715788 27  L 31.848595712715788 31  L 0 31  Z M 13.35491040722863 29.210746482338994  L 13.35491040722863 20.783437353197773  L 18.3929098600736 20.783437353197773  L 18.3929098600736 29.210746482338994  L 13.35491040722863 29.210746482338994  Z M 3.6033404278010397 7  L 3.6033404278010397 2.2692884146477863  L 29 2.2692884146477863  L 29 14.146880522560007  L 8.666070051299647 14.146880522560007  L 8.666070051299647 20.123257946893943  L 3.6579013668056195 20.123257946893943  L 3.6579013668056195 10.148692481488938  L 23.26320784317362 10.148692481488938  L 23.26320784317362 7  L 3.6033404278010397 7  Z M 3.6579013668056195 22  L 3.6579013668056195 18  L 29.069079094813926 18  L 29.069079094813926 22  L 3.6579013668056195 22  Z M 38.20409500713311 8  L 38.20409500713311 3.238731181352482  L 60.47732320632845 3.238731181352482  L 60.47732320632845 8  L 38.20409500713311 8  Z M 34.946822404916354 31  L 34.946822404916354 26.804286065812136  L 66.76203238724973 26.804286065812136  L 66.76203238724973 31  L 34.946822404916354 31  Z M 57.830113001423534 7.47180278728497  C 57.830113001423534 7.47180278728497  57.830113001423534 3.238731181352482  57.830113001423534 3.238731181352482  L 62.85899320383997 3.238731181352482  C 62.85899320383997 3.238731181352482  62.85899320383997 7.47180278728497  62.85899320383997 7.47180278728497  C 62.85899320383997 9.134966516858489  62.83994478904498 10.823440020978738  62.801959247770036 12.537145158043083  C 62.76397370649509 14.250508215332303  62.66137383506164 16.08565411927052  62.49406862313229 18.042659329351498  C 62.32667899745821 19.99932245965735  62.02486382285643 22.20313081092153  61.588789813642705 24.65400532402747  C 61.588789813642705 24.65400532402747  56.534406622739695 24.21320716730421  56.534406622739695 24.21320716730421  C 56.97605186363571 21.930290918324832  57.283347309109885 19.823341453768485  57.4562237338539 17.89233384784019  C 57.629522227321615 15.961326241911895  57.73509350407865 14.141175573891852  57.77307904535359 12.43191732098517  C 57.811064586628525 10.72257358636445  57.830113001423534 9.069202788752992  57.830113001423534 7.47180278728497  Z M 94 25.596827953381204  L 94 0  L 99 0  L 99 25.596827953381204  L 94 25.596827953381204  Z M 75.68205037844889 35  L 75.68205037844889 31  L 100 31  L 100 35  L 75.68205037844889 35  Z M 75.68205037844889 32.58038610384091  L 75.68205037844889 23.040198644386283  L 80.71989526772728 23.040198644386283  L 80.71989526772728 32.58038610384091  L 75.68205037844889 32.58038610384091  Z M 75.10166418592142 3.4034628548419565  C 76.54587445448722 2.6333944878210076  78.16444540708567 2.2483054828534996  79.95727863019584 2.2483054828534996  C 81.75568308498832 2.2483054828534996  83.37536103875604 2.6333944878210076  84.81644803650174 3.4034628548419565  C 86.25787268922637 4.173129350763651  87.40368501157488 5.23734763588993  88.25363263022366 6.596313446524841  C 89.10391790385141 7.954860259133895  89.52893661811825 9.519693868420465  89.52893661811825 11.290696373845154  C 89.52893661811825 13.021248595766783  89.10391790385141 14.572407424592589  88.25363263022366 15.944209560879584  C 87.40368501157488 17.315584135677415  86.25787268922637 18.391338935061686  84.81644803650174 19.171353153032236  C 83.37536103875604 19.951110772941693  81.75568308498832 20.340916716998862  79.95727863019584 20.340916716998862  C 78.16444540708567 20.340916716998862  76.54587445448722 19.951110772941693  75.10166418592142 19.171353153032236  C 73.65779157233459 18.391338935061686  72.51067602553893 17.315584135677415  71.66030637590168 15.944209560879584  C 70.81044320873288 14.572407424592589  70.38562064227345 13.021248595766783  70.38562064227345 11.290696373845154  C 70.38562064227345 9.519693868420465  70.81044320873288 7.954860259133895  71.66030637590168 6.596313446524841  C 72.51067602553893 5.23734763588993  73.65779157233459 4.173129350763651  75.10166418592142 3.4034628548419565  Z M 82.3230285803491 7.214526989240095  C 81.61953635603157 6.848935422792164  80.8309460960286 6.666152159810303  79.95727863019584 6.666152159810303  C 79.08361116436309 6.666152159810303  78.29621235700938 6.848935422792164  77.59508364207406 7.214526989240095  C 76.8942925821177 7.580118555688027  76.3422428044743 8.103902444501768  75.9390895896801 8.785741449119747  C 75.53585196114118 9.467238373962598  75.33428235363216 10.302188050071443  75.33428235363216 11.290696373845154  C 75.33428235363216 12.258765775122754  75.53585196114118 13.083818304979532  75.9390895896801 13.765742791311546  C 76.3422428044743 14.447239716154396  76.8942925821177 14.9707393285703  77.59508364207406 15.33633089501823  C 78.29621235700938 15.701922461466163  79.08361116436309 15.884705724448024  79.95727863019584 15.884705724448024  C 80.8309460960286 15.884705724448024  81.61953635603157 15.701922461466163  82.3230285803491 15.33633089501823  C 83.02694291112557 14.9707393285703  83.58057647476828 14.447239716154396  83.9838141033072 13.765742791311546  C 84.38705173184611 13.083818304979532  84.58862133935513 12.258765775122754  84.58862133935513 11.290696373845154  C 84.58862133935513 10.302188050071443  84.38705173184611 9.467238373962598  83.9838141033072 8.785741449119747  C 83.58057647476828 8.103902444501768  83.02694291112557 7.580118555688027  82.3230285803491 7.214526989240095  Z " fill-rule="nonzero" fill="#4c4c57" stroke="none" transform="matrix(1 0 0 1 36 228 )" />
  </g>
</svg>