<?xml version="1.0" encoding="utf-8"?>
<svg version="1.1" xmlns:xlink="http://www.w3.org/1999/xlink" width="57px" height="20px" xmlns="http://www.w3.org/2000/svg">
  <g transform="matrix(1 0 0 1 -185 -815 )">
    <path d="M 0 18  L 0 16  L 18.08537758188374 16  L 18.08537758188374 18  L 0 18  Z M 7.724662019832818 16.782207940467632  L 7.724662019832818 11.906135047143884  L 10.295629864866042 11.906135047143884  L 10.295629864866042 16.782207940467632  L 7.724662019832818 16.782207940467632  Z M 2.0900292582014486 3.4567671557228024  L 2.0900292582014486 1.3508096909221599  L 15.995845161065382 1.3508096909221599  L 15.995845161065382 8  L 4.682361110707572 8  L 4.682361110707572 11.57938353557989  L 2.1262983871670684 11.57938353557989  L 2.1262983871670684 6  L 13.439451212602817 6  L 13.439451212602817 3.4567671557228024  L 2.0900292582014486 3.4567671557228024  Z M 2.1262983871670684 12.647245359604245  L 2.1262983871670684 10.534015475032767  L 16.45177626628159 10.534015475032767  L 16.45177626628159 12.647245359604245  L 2.1262983871670684 12.647245359604245  Z M 21.851404945711074 4  L 21.851404945711074 2  L 34.55056845750878 2  L 34.55056845750878 4  L 21.851404945711074 4  Z M 19.9705442257908 17.62936028074923  L 19.9705442257908 15.479091793158853  L 38.02760207683837 15.479091793158853  L 38.02760207683837 17.62936028074923  L 19.9705442257908 17.62936028074923  Z M 33.19287750198299 4.2506447930320075  C 33.19287750198299 4.2506447930320075  33.19287750198299 1.9341254069595366  33.19287750198299 1.9341254069595366  L 35.756889623652945 1.9341254069595366  C 35.756889623652945 1.9341254069595366  35.756889623652945 4.2506447930320075  35.756889623652945 4.2506447930320075  C 35.756889623652945 5.177531308137077  35.74597112635318 6.130049172075177  35.724263968829995 7.1081983848463075  C 35.7025568113068 8.086347597617436  35.64348986709543 9.141837785664453  35.54689302306662 10.27474525390047  C 35.45038662705424 11.407514151092977  35.2766843248078 12.685559014417995  35.02587622066552 14.109001733541922  C 35.02587622066552 14.109001733541922  32.440665703983704 13.872056149845672  32.440665703983704 13.872056149845672  C 32.69644836816454 12.542456664755191  32.87489645195647 11.31858168325335  32.9759251780334 10.200498921821488  C 33.077225238051454 9.082462323210436  33.138710302097884 8.034533258371738  33.160417459621065 7.056614942285738  C 33.182124617144254 6.078465729514608  33.19287750198299 5.143125142039448  33.19287750198299 4.2506447930320075  Z M 53 14.713119952644709  L 53 0  L 56 0  L 56 14.713119952644709  L 53 14.713119952644709  Z M 43.29689374943706 20  L 43.29689374943706 17.87949769565769  L 57 17.87949769565769  L 57 20  L 43.29689374943706 20  Z M 43.29689374943706 18.718362859921356  L 43.29689374943706 13.235296604794724  L 45.867861594470284 13.235296604794724  L 45.867861594470284 18.718362859921356  L 43.29689374943706 18.718362859921356  Z M 42.90787007847706 1.9764069172550844  C 43.71872283913646 1.5402114504936364  44.62857942444267 1.3220582639211873  45.63732904871621 1.3220582639211873  C 46.650781888979004 1.3220582639211873  47.56168956352763 1.5402114504936364  48.37010026817597 1.9764069172550844  C 49.17869186885718 2.412602384016532  49.82054568477393 3.0163268565546915  50.295841965035436 3.787577692275168  C 50.77131914132981 4.558828527995645  51.00913483469262 5.447099719620735  51.00913483469262 6.452496723182952  C 51.00913483469262 7.438035207945752  50.77131914132981 8.320171864429623  50.295841965035436 9.098811889560695  C 49.82054568477393 9.877451914691768  49.17869186885718 10.487357167773032  48.37010026817597 10.92858652911082  C 47.56168956352763 11.369631156584287  46.650781888979004 11.590038476174369  45.63732904871621 11.590038476174369  C 44.62857942444267 11.590038476174369  43.71872283913646 11.369631156584287  42.90787007847706 10.92858652911082  C 42.09701731781767 10.487357167773032  41.45379647130827 9.877451914691768  40.978319295013904 9.098811889560695  C 40.5030230147524 8.320171864429623  40.26535765027878 7.438035207945752  40.26535765027878 6.452496723182952  C 40.26535765027878 5.447099719620735  40.5030230147524 4.558828527995645  40.978319295013904 3.787577692275168  C 41.45379647130827 3.0163268565546915  42.09701731781767 2.412602384016532  42.90787007847706 1.9764069172550844  Z M 47.095712380548385 3.9450340366157874  C 46.6624737001408 3.71412060817328  46.17639008888187 3.5986639042746607  45.63732904871621 3.5986639042746607  C 45.09826800855056 3.5986639042746607  44.613235486534045 3.71412060817328  44.18225796610465 3.9450340366157874  C 43.751551789724566 4.175947465058296  43.41222714064548 4.502824355339098  43.16440378061288 4.9256268233901315  C 42.91658042058029 5.348198394756035  42.792603805600024 5.857201920307281  42.792603805600024 6.452496723182952  C 42.792603805600024 7.037862266658915  42.91658042058029 7.541850189341889  43.16440378061288 7.964652657392922  C 43.41222714064548 8.387224228758827  43.751551789724566 8.713993763642394  44.18225796610465 8.944907192084901  C 44.613235486534045 9.175820620527409  45.09826800855056 9.291277324426028  45.63732904871621 9.291277324426028  C 46.17639008888187 9.291277324426028  46.6624737001408 9.175820620527409  47.095712380548385 8.944907192084901  C 47.52895106095596 8.713993763642394  47.86938668015022 8.387224228758827  48.11721004018281 7.964652657392922  C 48.3650334002154 7.541850189341889  48.489010015195674 7.037862266658915  48.489010015195674 6.452496723182952  C 48.489010015195674 5.857201920307281  48.3650334002154 5.348198394756035  48.11721004018281 4.9256268233901315  C 47.86938668015022 4.502824355339098  47.52895106095596 4.175947465058296  47.095712380548385 3.9450340366157874  Z " fill-rule="nonzero" fill="#ffffff" stroke="none" transform="matrix(1 0 0 1 185 815 )" />
  </g>
</svg>