<?xml version="1.0" encoding="utf-8"?>
<svg version="1.1" xmlns:xlink="http://www.w3.org/1999/xlink" width="334px" height="48px" xmlns="http://www.w3.org/2000/svg">
  <g transform="matrix(1 0 0 1 -48 -801 )">
    <path d="M 0 8  C 0 3.581721782684326  3.581721782684326 0  8 0  C 8 0  326 0  326 0  C 330.4182782173157 0  334 3.581721782684326  334 8  C 334 8  334 40  334 40  C 334 44.418278217315674  330.4182782173157 48  326 48  C 326 48  8 48  8 48  C 3.581721782684326 48  0 44.418278217315674  0 40  C 0 40  0 8  0 8  Z " fill-rule="nonzero" fill="#fc4a36" stroke="none" transform="matrix(1 0 0 1 48 801 )" />
  </g>
</svg>