<?xml version="1.0" encoding="utf-8"?>
<svg version="1.1" xmlns:xlink="http://www.w3.org/1999/xlink" width="167px" height="27px" xmlns="http://www.w3.org/2000/svg">
  <g transform="matrix(1 0 0 1 -96 -363 )">
    <path d="M 32.60596216764634 4.181143046161008  L 32.60596216764634 3.3000642278610557  L 35.23284158979575 3.3000642278610557  L 35.23284158979575 4.181143046161008  L 32.60596216764634 4.181143046161008  Z M 32.513480815650574 7.1602809308728785  L 32.513480815650574 6.274080043488827  L 35.21234409873622 6.274080043488827  L 35.21234409873622 7.1602809308728785  L 32.513480815650574 7.1602809308728785  Z M 37 11.86040902689475  L 37 0.005122069084099198  L 38 0.005122069084099198  L 38 11.86040902689475  L 37 11.86040902689475  Z M 35 11.25826121046752  L 35 0.3129411848084272  L 36 0.3129411848084272  L 36 11.25826121046752  L 35 11.25826121046752  Z M 32.015929447269265 1.7042020751783473  C 32.015929447269265 1.7042020751783473  32.015929447269265 1.5065683845712672  32.015929447269265 1.5065683845712672  C 32.015929447269265 1.5065683845712672  33.0606005248692 1.5065683845712672  33.0606005248692 1.5065683845712672  C 33.0606005248692 2.5398850627744585  32.913230305416654 3.5309482168412645  32.61848327689747 4.479757245787376  C 32.32373624837829 5.4284251035188795  31.850247292092213 6.310260260573976  31.198021011742213 7.125263257838545  C 30.545996692532285 7.940118352864225  29.688849662798567 8.667037483631859  28.626575710002385 9.30602089053517  C 28.626575710002385 9.30602089053517  27.989593644263476 8.525508623261222  27.989593644263476 8.525508623261222  C 28.91556645486536 7.9696750617616  29.676195497504324 7.3389419674769725  30.27147818447802 6.633310963064982  C 30.866895492152057 5.927545518462665  31.306457203534542 5.160883295221728  31.590165515163513 4.33332381255472  C 31.87400844749282 3.5056231586731066  32.015929447269265 2.6292492061486947  32.015929447269265 1.7042020751783473  Z M 28.512888197583145 2.4007551514772496  L 28.512888197583145 1.5065683845712672  L 32.437152503396206 1.5065683845712672  L 32.437152503396206 2.4007551514772496  L 28.512888197583145 2.4007551514772496  Z M 43.12114041800975 2.1234470476374177  C 43.12114041800975 2.1234470476374177  43.12114041800975 1.4281238256321394  43.12114041800975 1.4281238256321394  L 44.0159818456289 1.4281238256321394  C 44.0159818456289 1.4281238256321394  44.0159818456289 2.1234470476374177  44.0159818456289 2.1234470476374177  C 44.0159818456289 2.8148746893400802  43.87547818458036 3.456193401078303  43.594462226778994 4.047404324722276  C 43.31364820002813 4.638615248366248  42.92298073302572 5.148656329516902  42.42246945443161 5.577526726796201  C 41.92202548618764 6.006255952860892  41.33896129774016 6.330603970134409  40.673273188073026 6.550571289453418  C 40.673273188073026 6.550571289453418  40.129785409344656 5.695495619919501  40.129785409344656 5.695495619919501  C 40.72304878581331 5.505158419731432  41.24412477554844 5.2330359691157815  41.693009888160866 4.879128147875689  C 42.14182772051268 4.525220326635596  42.49203349774793 4.112055873039491  42.743635329003574 3.639634306299926  C 42.9953044706094 3.167078329419249  43.12114041800975 2.6616827067450135  43.12114041800975 2.1234470476374177  Z M 43.32730928242476 2.1234470476374177  C 43.32730928242476 2.1234470476374177  43.32730928242476 1.4281238256321394  43.32730928242476 1.4281238256321394  L 44.21690501616508 1.4281238256321394  C 44.21690501616508 1.4281238256321394  44.21690501616508 2.1234470476374177  44.21690501616508 2.1234470476374177  C 44.21690501616508 2.621398367801401  44.33920149829918 3.0940249002401656  44.58380317349558 3.541326735101358  C 44.82840484869198 3.988494129772225  45.17157995905214 4.381315084152405  45.61333029490498 4.719789417946606  C 46.055215251458165 5.058136042574762  46.562328300310796 5.318104847571504  47.134658549041454 5.499696854610161  C 47.134658549041454 5.499696854610161  46.614587671034975 6.349449245512722  46.614587671034975 6.349449245512722  C 45.96101524386074 6.138220388318845  45.387513217317576 5.827321919133617  44.89406940513286 5.416755250270167  C 44.40069290329832 5.006181850382436  44.0161871767999 4.518807703842482  43.74055595674331 3.95463229981364  C 43.465059357387055 3.3903157245701903  43.32730928242476 2.7799208408395533  43.32730928242476 2.1234470476374177  Z M 40.48730140053066 2.003632411498783  L 40.48730140053066 1.099201266030878  L 46.84509008458829 1.099201266030878  L 46.84509008458829 2.003632411498783  L 40.48730140053066 2.003632411498783  Z M 43.13143923257067 8.809642466509414  L 43.13143923257067 6.0559573553641775  L 44.219832128755314 6.0559573553641775  L 44.219832128755314 8.809642466509414  L 43.13143923257067 8.809642466509414  Z M 48.879710640206476 5.843572384651612  L 48.879710640206476 4.92378560925528  L 51.072849748441755 4.92378560925528  L 51.072849748441755 5.843572384651612  L 48.879710640206476 5.843572384651612  Z M 49 11.86040902689475  L 49 0.005122069084099198  L 50 0.005122069084099198  L 50 11.86040902689475  L 49 11.86040902689475  Z M 42.33836888795736 9.369543489824544  C 41.52076387557341 9.380903493404329  40.76969699483876 9.386583558579284  40.085162348199276 9.386583558579284  C 40.085162348199276 9.386583558579284  39.9370427482054 8.47902609272659  39.9370427482054 8.47902609272659  C 40.63362579707718 8.47902609272659  41.401998027419125 8.474186803663407  42.24215161594512 8.464507273352524  C 43.08243982517145 8.454827743041639  43.94153707977588 8.425452619675697  44.819451142865425 8.376382780316177  C 45.69736520595496 8.32738016105182  46.54415438540714 8.245138294013348  47.35980742772578 8.129656123722068  C 47.35980742772578 8.129656123722068  47.445317630000055 8.930636474259567  47.445317630000055 8.930636474259567  C 46.6018659245845 9.080669187505004  45.74421874615142 9.188455438179709  44.87236255439789 9.253993919142804  C 44.0006409833447 9.319532400105903  43.15597390034132 9.358049047932507  42.33836888795736 9.369543489824544  Z M 52.15154465843926 10.40222781233591  L 52.15154465843926 10  L 62.910655377095686 10  L 62.910655377095686 10.40222781233591  L 52.15154465843926 10.40222781233591  Z M 56.96570511217954 9.875399196037913  L 56.96570511217954 6.959158886932183  L 58.04601763702956 6.959158886932183  L 58.04601763702956 9.875399196037913  L 56.96570511217954 9.875399196037913  Z M 53.46306826620655 1.7722010460082962  L 53.46306826620655 0.883126011256267  L 61.577224642468835 0.883126011256267  L 61.577224642468835 4.478728360647284  L 54.56740622308011 4.478728360647284  L 54.56740622308011 6.84672481891764  L 53.49224695697449 6.84672481891764  L 53.49224695697449 3.607893680515529  L 60.50196523830091 3.607893680515529  L 60.50196523830091 1.7722010460082962  L 53.46306826620655 1.7722010460082962  Z M 53.49224695697449 7.2800960477989625  L 53.49224695697449 6.393894198840013  L 61.85285851040689 6.393894198840013  L 61.85285851040689 7.2800960477989625  L 53.49224695697449 7.2800960477989625  Z M 76.26987784355657 6.368697090231624  L 76.26987784355657 0.01023404163177693  L 77.36332386042331 0.01023404163177693  L 77.36332386042331 6.368697090231624  L 76.26987784355657 6.368697090231624  Z M 69.72228131387779 11.707653238712465  L 69.72228131387779 6.962647480659524  L 70.79240286515706 6.962647480659524  L 70.79240286515706 8.399372112960407  L 76.28805675332752 8.399372112960407  L 76.28805675332752 6.962647480659524  L 77.36332386042331 6.962647480659524  L 77.36332386042331 11.707653238712465  L 69.72228131387779 11.707653238712465  Z M 76.28805675332752 9.26286637072003  L 70.79240286515706 9.26286637072003  L 70.79240286515706 10.821472544401255  L 76.28805675332752 10.821472544401255  L 76.28805675332752 9.26286637072003  Z M 69.40233250190913 0.9171253764743793  C 69.87060269447437 0.6877406780789342  70.40183174493214 0.5730483964919468  70.99603746630315 0.5730483964919468  C 71.59542599436843 0.5730483964919468  72.12801443105771 0.6877406780789342  72.5937941707563 0.9171253764743793  C 73.05890080695319 1.146510074869824  73.425060325716 1.4658741743276882  73.69227790244938 1.875217449478855  C 73.95949547918276 2.2845607246300217  74.09310745704303 2.759919782483923  74.09310745704303 3.3012945629421284  C 74.09310745704303 3.8372044127669227  73.95949547918276 4.312015583273881  73.69227790244938 4.725728104512222  C 73.425060325716 5.139440625750563  73.05890080695319 5.460988612046233  72.5937941707563 5.690373310441677  C 72.12801443105771 5.919758008837123  71.59542599436843 6.034450771211558  70.99603746630315 6.034450771211558  C 70.40183174493214 6.034450771211558  69.87060269447437 5.919758008837123  69.40233250190913 5.690373310441677  C 68.93419693004422 5.460988612046233  68.56654674429095 5.139440625750563  68.29939647790773 4.725728104512222  C 68.03224621152451 4.312015583273881  67.89867476430425 3.8372044127669227  67.89867476430425 3.3012945629421284  C 67.89867476430425 2.759919782483923  68.03224621152451 2.2845607246300217  68.29939647790773 1.875217449478855  C 68.56654674429095 1.4658741743276882  68.93419693004422 1.146510074869824  69.40233250190913 0.9171253764743793  Z M 72.04757955556228 1.7093243846561708  C 71.74266884470508 1.5562668122022145  71.39215216707058 1.4797378006061197  70.99603746630315 1.4797378006061197  C 70.60537481363066 1.4797378006061197  70.25652067456471 1.5562668122022145  69.94945606259168 1.7093243846561708  C 69.642526071319 1.8622475169198007  69.40148997912867 2.0762727240626213  69.22635141181291 2.3513999159369856  C 69.05121284449716 2.626520376787069  68.96363535391126 2.9431519658544043  68.96363535391126 3.3012945629421284  C 68.96363535391126 3.6573869922012  69.05121284449716 3.9729962769066463  69.22635141181291 4.248123468781011  C 69.40148997912867 4.523243929631095  69.642526071319 4.737813673633324  69.94945606259168 4.891832475418584  C 70.25652067456471 5.045844546179564  70.60537481363066 5.122850844490689  70.99603746630315 5.122850844490689  C 71.39215216707058 5.122850844490689  71.74266884470508 5.045844546179564  72.04757955556228 4.891832475418584  C 72.35316336992116 4.737813673633324  72.59446208380852 4.523243929631095  72.77148531083942 4.248123468781011  C 72.94783544941343 3.9729962769066463  73.03601925971819 3.6573869922012  73.03601925971819 3.3012945629421284  C 73.03601925971819 2.9431519658544043  72.94783544941343 2.626520376787069  72.77148531083942 2.3513999159369856  C 72.59446208380852 2.0762727240626213  72.35316336992116 1.8622475169198007  72.04757955556228 1.7093243846561708  Z M 81.08283664054929 1.5202809233939634  L 81.08283664054929 0.63121622557208  L 88.71771684479955 0.63121622557208  L 88.71771684479955 1.5202809233939634  L 81.08283664054929 1.5202809233939634  Z M 79.71174629157068 6  L 79.71174629157068 5  L 90.47044105212217 5  L 90.47044105212217 6  L 79.71174629157068 6  Z M 88.00692147275552 1.5096336449500793  C 88.00692147275552 1.5096336449500793  88.00692147275552 0.63121622557208  88.00692147275552 0.63121622557208  L 89.07715086502496 0.63121622557208  C 89.07715086502496 0.63121622557208  89.07715086502496 1.5096336449500793  89.07715086502496 1.5096336449500793  C 89.07715086502496 2.0107308174889535  89.06132075398521 2.563371229148426  89.0296854234959 3.1675553607159475  C 88.99805009300658 3.771598381167292  88.88397183001297 4.4847374825741255  88.68742893241847 5.306973205822329  C 88.68742893241847 5.306973205822329  87.61518137304736 5.251064356569636  87.61518137304736 5.251064356569636  C 87.80970499022636 4.441391849748153  87.92347037443203 3.7380127936471665  87.95645188935755 3.140926947872954  C 87.99010649650116 2.5438478331230217  88.00692147275552 2.0000833287005606  88.00692147275552 1.5096336449500793  Z M 81.03235165129556 11.707653238712465  L 81.03235165129556 7.495757104186569  L 89.11551144581281 7.495757104186569  L 89.11551144581281 11.707653238712465  L 81.03235165129556 11.707653238712465  Z M 88.05135196070418 10.823488966960856  L 88.05135196070418 8.366602602035917  L 82.09751251702716 8.366602602035917  L 82.09751251702716 10.823488966960856  L 88.05135196070418 10.823488966960856  Z M 92.72698295964754 6.005785261948672  L 92.72698295964754 5.11158791771882  L 98.79693633802255 5.11158791771882  L 98.79693633802255 6.005785261948672  L 92.72698295964754 6.005785261948672  Z M 95.15617829242971 8.547287333109773  L 95.15617829242971 5.818990683977484  L 96.2496089034407 5.818990683977484  L 96.2496089034407 8.547287333109773  L 95.15617829242971 8.547287333109773  Z M 92.72698295964754 5.42575943760832  L 92.72698295964754 1.125618372790194  L 98.74241501456545 1.125618372790194  L 98.74241501456545 2.014894857483204  L 93.81234090225178 2.014894857483204  L 93.81234090225178 5.42575943760832  L 92.72698295964754 5.42575943760832  Z M 100 11.875734607607638  L 100 0  L 101 0  L 101 11.875734607607638  L 100 11.875734607607638  Z M 94.41712858096201 9.284947976661224  C 93.56095542999162 9.30161827855029  92.7549232844023 9.309953731865054  91.99904087016702 9.309953731865054  C 91.99904087016702 9.309953731865054  91.85062085598625 8.3946325102917  91.85062085598625 8.3946325102917  C 92.62938842820397 8.389322212451939  93.45628281052325 8.380517193661982  94.33130255864512 8.368216124713557  C 95.20632230676698 8.355780617452883  96.09378757916026 8.325968711836383  96.9937117355905 8.278781005092217  C 97.89363589202073 8.23139164181871  98.76023886750492 8.158660580623943  99.59352692067202 8.060588122000064  C 99.59352692067202 8.060588122000064  99.68137111009062 8.866510005934698  99.68137111009062 8.866510005934698  C 98.81712083745829 8.995704835245538  97.93773473281715 9.093542541885311  97.04319534422123 9.160022089156085  C 96.14865595562534 9.226501636426857  95.27330173193242 9.268143236459908  94.41712858096201 9.284947976661224  Z M 112 11.86040902689475  L 112 0.005122069084099198  L 113 0.005122069084099198  L 113 11.86040902689475  L 112 11.86040902689475  Z M 109.03061494087565 1.4596630014755545  C 109.03061494087565 1.4596630014755545  109.03061494087565 1.2822957037973235  109.03061494087565 1.2822957037973235  C 109.03061494087565 1.2822957037973235  110.10588204797145 1.2822957037973235  110.10588204797145 1.2822957037973235  C 110.10588204797145 2.1403053787365733  110.00391488633491 2.9672530593751842  109.79996797058017 3.763138986106881  C 109.59669415832711 4.558883741623971  109.27529083197669 5.3142800932699155  108.83576167750027 6.029328461733735  C 108.39690562652552 6.744249121031509  107.82814029883059 7.405909709328017  107.12947071937228 8.014308483768758  C 106.43147418323653 8.622572818019174  105.58471780140692 9.168322854407661  104.58921457257422 9.651559945148918  C 104.58921457257422 9.651559945148918  104.00665754369405 8.778486478262566  104.00665754369405 8.778486478262566  C 105.15629882653043 8.226417181993648  106.10166249428104 7.582358943373068  106.84273693237493 6.846311341711809  C 107.58448441379139 6.110230145027575  108.13440338505137 5.290383935399119  108.49248839994412 4.386772953220165  C 108.85124648824902 3.4831619710412105  109.03061494087565 2.507458713891438  109.03061494087565 1.4596630014755545  Z M 104.55590711246846 2.171370498155628  L 104.55590711246846 1.2822957037973235  L 109.49303710671018 1.2822957037973235  L 109.49303710671018 2.171370498155628  L 104.55590711246846 2.171370498155628  Z M 124 11.86040902689475  L 124 0.005122069084099198  L 125 0.005122069084099198  L 125 11.86040902689475  L 124 11.86040902689475  Z M 124.90616440870943 5.799127431324321  L 124.90616440870943 4.887325573875022  L 127.02742749699863 4.887325573875022  L 127.02742749699863 5.799127431324321  L 124.90616440870943 5.799127431324321  Z M 118.48386370374853 1.4012934820607161  C 118.48386370374853 1.4012934820607161  118.48386370374853 1.2880327000282348  118.48386370374853 1.2880327000282348  C 118.48386370374853 1.2880327000282348  119.48844874471796 1.2880327000282348  119.48844874471796 1.2880327000282348  C 119.48844874471796 1.9996730667607918  119.44605219832386 2.7052367609299726  119.36124259388853 3.4047239628310706  C 119.27643298945323 4.104211164732169  119.13036621221404 4.78847363108773  118.92305383913002 5.457510640716586  C 118.71574146604598 6.126413210155114  118.43540611909202 6.773674514856974  118.0820327685319 7.399294795215887  C 117.7286594179718 8.024807499383167  117.28609886048329 8.623815773770772  116.75435612102324 9.196319618378702  C 116.75435612102324 9.196319618378702  115.8820303515653 8.579149117331227  115.8820303515653 8.579149117331227  C 116.36934904224297 8.070846082807412  116.77959274818551 7.5374734084475286  117.11277335476993 6.9790317553343195  C 117.44662703476645 6.4205833711968285  117.71417929769783 5.839472529781755  117.91543384458019 5.235698389711063  C 118.11736147991945 4.631789809450045  118.26241257647129 4.00931141496957  118.35058764575831 3.368264408238261  C 118.4394358035022 2.7272174015069517  118.48386370374853 2.0715605863769198  118.48386370374853 1.4012934820607161  Z M 116.26366420990931 2.1875533228894426  L 116.26366420990931 1.2880327000282348  L 118.89074775964724 1.2880327000282348  L 118.89074775964724 2.1875533228894426  L 116.26366420990931 2.1875533228894426  Z M 121.71975586054435 1.3881857738484107  C 121.71975586054435 1.3881857738484107  121.71975586054435 1.2880327000282348  121.71975586054435 1.2880327000282348  C 121.71975586054435 1.2880327000282348  122.73343035639925 1.2880327000282348  122.73343035639925 1.2880327000282348  C 122.73343035639925 2.002267756424246  122.69976959217902 2.7347295250966774  122.6324603778918 3.4854174050612174  C 122.56582425958388 4.236105285025757  122.43996318739924 4.987612546999644  122.2548628537512 5.739940573246793  C 122.06976252010314 6.492127428279334  121.80792983156233 7.226219186599521  121.46936448723316 7.942215367419904  C 121.13147224640566 8.658231681214701  120.68823975890838 9.337647930284822  120.1396696726228 9.980462792464786  C 120.1396696726228 9.980462792464786  119.25927123475812 9.381642986757049  119.25927123475812 9.381642986757049  C 119.76678266941148 8.80147617149738  120.18005801908262 8.186980110731405  120.49910369284821 7.538155826132442  C 120.81882244002591 6.889183699393025  121.06685638642398 6.222875699421089  121.24320652499799 5.539232006511927  C 121.42022975202889 4.855581582578485  121.5437311857176 4.163602657967524  121.61373276135481 3.463295412974338  C 121.6844074329713 2.762853727790825  121.71975586054435 2.0711505347816597  121.71975586054435 1.3881857738484107  Z M 119.87413434312106 2.1875533228894426  L 119.87413434312106 1.2880327000282348  L 122.15894599592583 1.2880327000282348  L 122.15894599592583 2.1875533228894426  L 119.87413434312106 2.1875533228894426  Z M 131.15280754654458 3.626324667359191  C 131.15280754654458 3.626324667359191  131.15280754654458 1.7060473374062322  131.15280754654458 1.7060473374062322  L 132.04027727219307 1.7060473374062322  C 132.04027727219307 1.7060473374062322  132.04027727219307 3.626324667359191  132.04027727219307 3.626324667359191  C 132.04027727219307 4.251803776503498  131.9520934618883 4.869162806329271  131.77574332331432 5.4784018169349435  C 131.60006628824198 6.087499656326009  131.35675161883574 6.6596647861763705  131.0457830667321 7.194895704025252  C 130.73414141112676 7.73001237475665  130.37302947656664 8.202856824106512  129.96244329122953 8.613430223994243  C 129.55185710589245 9.024003623881974  129.1113125189676 9.347798179679067  128.6408211450259 9.584812223654058  C 128.6408211450259 9.584812223654058  128.00777912689205 8.719703481641897  128.00777912689205 8.719703481641897  C 128.43586570237724 8.512265783726633  128.84038986401876 8.228332909631975  129.22136000680442 7.867904859357919  C 129.60165704608838 7.507295311822001  129.9361871394384 7.095082246439111  130.22494366715085 6.631264731683565  C 130.51437326827542 6.1674404859037395  130.7412012498322 5.678224052008238  130.90543572095808 5.16361585068608  C 131.07034328054087 4.649000978438072  131.15280754654458 4.136570323569241  131.15280754654458 3.626324667359191  Z M 131.3658397196909 3.626324667359191  C 131.3658397196909 3.626324667359191  131.3658397196909 1.7060473374062322  131.3658397196909 1.7060473374062322  L 132.2482563246573 1.7060473374062322  C 132.2482563246573 1.7060473374062322  132.2482563246573 3.626324667359191  132.2482563246573 3.626324667359191  C 132.2482563246573 4.1229114225962835  132.33072059066103 4.6167697691607685  132.49562815024382 5.107898354837947  C 132.65986262136968 5.598892500324799  132.8883628604235 6.060599568525317  133.18115791887737 6.49301910870127  C 133.47395297733124 6.925297507711831  133.81017076412363 7.308559686431852  134.18979469990592 7.642805945353485  C 134.5694186356882 7.977052204275118  134.9789903815324 8.239121990323993  135.41851953600883 8.429015543893827  C 135.41851953600883 8.429015543893827  134.80465780826887 9.294123324331093  134.80465780826887 9.294123324331093  C 134.32407003224978 9.069275907236122  133.8757899605498 8.765614686441465  133.45981903746795 8.383138805544483  C 133.0438481143861 8.000730144742665  132.6787042687882 7.5572695311531755  132.36437025935527 7.052757625858758  C 132.05070932333444 6.54824572056434  131.80570702066495 6.005368058640114  131.62935688209097 5.424125721857837  C 131.45367984701863 4.842742213860952  131.3658397196909 4.243475335924409  131.3658397196909 3.626324667359191  Z M 128.39346472529513 2.1320473735187115  L 128.39346472529513 1.2173723302763324  L 135.02677943630067 1.2173723302763324  L 135.02677943630067 2.1320473735187115  L 128.39346472529513 2.1320473735187115  Z M 136 11.865550567870521  L 136 0.01023404163177693  L 137 0.01023404163177693  L 137 11.865550567870521  L 136 11.865550567870521  Z M 3.422372337577539 16.61124289040012  L 3.422372337577539 25.9684243733452  L 2.3841601649957926 25.9684243733452  C 2.3841601649957926 25.9684243733452  2.3841601649957926 19.337744279199182  2.3841601649957926 19.337744279199182  C 2.3841601649957926 19.086009289801794  2.385202893848584 18.86946295347516  2.387289479442592 18.688106201744965  C 2.3894433742113947 18.506816670109934  2.3937185534809715 18.340418042260396  2.4001129286125855 18.188906516970587  C 2.4065073037441995 18.03746221177594  2.4161312940566053 17.88279010999562  2.4289873537297026 17.724892780837564  C 2.296522826271088 17.861414480324328  2.1726081876723704 17.977703952840304  2.0572402033056356 18.07375984617081  C 1.9418722189389006 18.16974851940615  1.7987385797247615 18.288153441671543  1.6278404892456981 18.428977152125707  C 1.6278404892456981 18.428977152125707  0.557624577100035 19.286523107570744  0.557624577100035 19.286523107570744  L 0 18.56338224496826  L 2.537927936849645 16.61124289040012  L 3.422372337577539 16.61124289040012  Z M 10.023484958626513 22.921893550382393  L 6.844640685628845 22.921893550382393  L 6.844640685628845 21.974711506162485  L 10.023484958626513 21.974711506162485  L 10.023484958626513 22.921893550382393  Z M 17.32953102361118 24.995631743311073  L 17.32953102361118 25.9684243733452  L 11.189819930454092 25.9684243733452  L 11.189819930454092 25.07881566452518  C 11.189819930454092 25.07881566452518  13.69574412773982 22.53793861704731  13.69574412773982 22.53793861704731  C 14.161456557088233 22.06854862551594  14.55346412291292 21.650379745514574  14.87176938282666 21.283431466206554  C 15.190074642740397 20.916483186898535  15.432520340641199 20.554877748261188  15.599110643933404 20.198617283788813  C 15.765768242530998 19.842356819316443  15.84909761353147 19.450874888029944  15.84909761353147 19.024168935745998  C 15.84909761353147 18.49508855143229  15.692066718948658 18.09080018536849  15.37800195091639 17.811303747406953  C 15.064004493234293 17.531807309445416  14.650659606585414 17.392059015341605  14.137965365237784 17.392059015341605  C 13.689349463936471 17.392059015341605  13.291987310108127 17.46888982623398  12.94588335700792 17.622552364519795  C 12.599779403907716 17.776147682710448  12.24516133843682 17.993735359577013  11.882028137550122 18.27531556039018  C 11.882028137550122 18.27531556039018  11.311583962744027 17.55852686155914  11.311583962744027 17.55852686155914  C 11.559416474569378 17.349408691314014  11.829660534671467 17.163782111326263  12.122320972424996 17.001649991295967  C 12.414981410178521 16.83951787126567  12.729014223095955 16.71153464886232  13.064416011056792 16.617696981110683  C 13.399817799017626 16.523792100776184  13.757668325953821 16.47683779755757  14.137965365237784 16.47683779755757  C 14.71473797672129 16.47683779755757  15.21248971149589 16.577129368212173  15.63122029875552 16.777710736617657  C 16.049883575664985 16.978224884927975  16.373503690315772 17.264106390551976  16.602085772978203 17.635356695852007  C 16.830667855640634 18.006539781056876  16.944958498285153 18.44813472900113  16.944958498285153 18.96014150963555  C 16.944958498285153 19.455074686590688  16.84668723754767 19.91481960111487  16.650144339953176 20.339374540402815  C 16.453601442358686 20.763929479690756  16.178039503518566 21.18421571756672  15.82345456665542 21.60023385501502  C 15.468802349531666 22.016251992463317  15.054343306581476 22.456805584843032  14.580082613209514 22.921893550382393  C 14.580082613209514 22.921893550382393  12.542130541287971 24.95076273545408  12.542130541287971 24.95076273545408  L 12.542130541287971 24.995631743311073  L 17.32953102361118 24.995631743311073  Z M 18.6908270998043 22  L 18.6908270998043 21  L 29.44993396699678 21  L 29.44993396699678 22  L 18.6908270998043 22  Z M 23.605845839597922 24.56509427565204  L 23.605845839597922 21.836877437236225  L 24.691407909790687 21.836877437236225  L 24.691407909790687 24.56509427565204  L 23.605845839597922 24.56509427565204  Z M 20.055654968425376 26.72645309637089  L 20.055654968425376 25.83200381951795  L 28.25321094472582 25.83200381951795  L 28.25321094472582 26.72645309637089  L 20.055654968425376 26.72645309637089  Z M 20.055654968425376 26.166249176963113  L 20.055654968425376 23.510125454896155  L 21.13606763133769 23.510125454896155  L 21.13606763133769 26.166249176963113  L 20.055654968425376 26.166249176963113  Z M 20.12208886983196 20.24792299822187  L 20.12208886983196 15.506668343843227  L 21.200283089517985 15.506668343843227  L 21.200283089517985 17.01032147371966  L 26.943405089873337 17.01032147371966  L 26.943405089873337 15.506668343843227  L 28.02664857877752 15.506668343843227  L 28.02664857877752 20.24792299822187  L 20.12208886983196 20.24792299822187  Z M 26.943405089873337 17.855566963078658  L 21.200283089517985 17.855566963078658  L 21.200283089517985 19.374243739150227  L 26.943405089873337 19.374243739150227  L 26.943405089873337 17.855566963078658  Z M 40.524552759705365 19.10715092623168  L 40.524552759705365 18.20271857879515  L 43.19827753769039 18.20271857879515  L 43.19827753769039 19.10715092623168  L 40.524552759705365 19.10715092623168  Z M 42.85803151078678 22.19855075705148  L 42.85803151078678 15.134510011348008  L 43.95146982472564 15.134510011348008  L 43.95146982472564 22.19855075705148  L 42.85803151078678 22.19855075705148  Z M 37.935236665309354 22.820560864556974  C 38.52762503731538 22.647001523668845  39.231944894903 22.560222153716936  40.0482037002836 22.560222153716936  C 40.86796258369381 22.560222153716936  41.57185565093419 22.647001523668845  42.15986894044798 22.820560864556974  C 42.747949510222355 22.99405300037455  43.201474132397784 23.24535078871044  43.5204524958132 23.574454815524348  C 43.83943085922863 23.90335718205277  43.99891986039896 24.30256999521812  43.99891986039896 24.772094426939823  C 43.99891986039896 25.471776528052914  43.64679658069166 26.013998606241703  42.94254033243807 26.398759910275803  C 42.23828408418449 26.78365565450023  41.27350061312654 26.976102940652737  40.0482037002836 26.976102940652737  C 38.82304146832012 26.976102940652737  37.85695451743682 26.78365565450023  37.14993857491591 26.398759910275803  C 36.44312453335594 26.013998606241703  36.089715285948365 25.471776528052914  36.089715285948365 24.772094426939823  C 36.089715285948365 24.30256999521812  36.249171459406575 23.90335718205277  36.568082512471825 23.574454815524348  C 36.887060875887244 23.24535078871044  37.34278101304272 22.99405300037455  37.935236665309354 22.820560864556974  Z M 41.582557605446624 23.571731635415244  C 41.15642300002674 23.46431574132207  40.644967154781874 23.410608222476807  40.0482037002836 23.410608222476807  C 39.45150752604593 23.410608222476807  38.938715463532276 23.46431574132207  38.50982116384506 23.571731635415244  C 38.081061484858175 23.67921474960358  37.75053816271687 23.833248545947395  37.518254070974315 24.033829914352882  C 37.286104599932095 24.234411282758366  37.17002781079838 24.480498582193427  37.17002781079838 24.772094426939823  C 37.17002781079838 25.054884589465924  37.286104599932095 25.297444862226975  37.518254070974315 25.499773923057482  C 37.75053816271687 25.702170203983158  38.081061484858175 25.857075637922144  38.50982116384506 25.964491532015316  C 38.938715463532276 26.071840206013324  39.45150752604593 26.125514941164436  40.0482037002836 26.125514941164436  C 40.644967154781874 26.125514941164436  41.15642300002674 26.071840206013324  41.582557605446624 25.964491532015316  C 42.00875952121668 25.857075637922144  42.3379311901439 25.702170203983158  42.57008066118612 25.499773923057482  C 42.802364752928675 25.297444862226975  42.918507197486655 25.054884589465924  42.918507197486655 24.772094426939823  C 42.918507197486655 24.480498582193427  42.802364752928675 24.234411282758366  42.57008066118612 24.033829914352882  C 42.3379311901439 23.833248545947395  42.00875952121668 23.67921474960358  41.582557605446624 23.571731635415244  Z M 37.21062224066824 17.28870894538169  C 37.21062224066824 17.28870894538169  37.21062224066824 16.329528369593493  37.21062224066824 16.329528369593493  L 38.105463668287385 16.329528369593493  C 38.105463668287385 16.329528369593493  38.105463668287385 17.28870894538169  38.105463668287385 17.28870894538169  C 38.105463668287385 18.01467371306377  37.96633678523719 18.695367414384933  37.688080521703164 19.330788246392242  C 37.4098915685193 19.966141828255175  37.0223541982923 20.522142222999477  36.525477618428134 20.998791834562393  C 36.02860103856397 21.47544144612531  35.45088758665621 21.838558735919516  34.79233425374865 22.08814272734551  C 34.79233425374865 22.08814272734551  34.23370251882974 21.223034946908243  34.23370251882974 21.223034946908243  C 34.67666444098561 21.064263771537675  35.07971331140284 20.84906152159754  35.442846512289535 20.57742971457323  C 35.805979713176235 20.305730687453757  36.12010712767656 19.996020093808042  36.38523811364429 19.648296431175314  C 36.65030178926186 19.300371108257092  36.854153035254264 18.925222608372696  36.99678126009568 18.52284993989801  C 37.13934217458693 18.12047727142332  37.21062224066824 17.709096298867948  37.21062224066824 17.28870894538169  Z M 37.42163624671288 17.280643255143286  C 37.42163624671288 17.280643255143286  37.42163624671288 16.329528369593493  37.42163624671288 16.329528369593493  L 38.3061788597711 16.329528369593493  C 38.3061788597711 16.329528369593493  38.3061788597711 17.280643255143286  38.3061788597711 17.280643255143286  C 38.3061788597711 17.788482449976026  38.425820238955346 18.281129542711305  38.665104486757144 18.75858579541618  C 38.90452335525928 19.235907607930727  39.2410694041282 19.659790316217823  39.67474264840867 20.030233980375893  C 40.108550513389474 20.400677644533967  40.61161624534861 20.68884622600194  41.18394649407926 20.894737891777666  C 41.18394649407926 20.894737891777666  40.63268646113103 21.754703169664264  40.63268646113103 21.754703169664264  C 39.98968154830626 21.519167937733645  39.42714367671869 21.177897359162756  38.94507510308547 20.73089129873012  C 38.46307383980242 20.28388523829749  38.088630453997254 19.762366378483854  37.82174942901471 19.16633586115941  C 37.5550030247325 18.57023815378902  37.42163624671288 17.941674492669524  37.42163624671288 17.280643255143286  Z M 34.56879913845289 16.886807178163732  L 34.56879913845289 15.997802338379204  L 40.90579376872803 15.997802338379204  L 40.90579376872803 16.886807178163732  L 34.56879913845289 16.886807178163732  Z M 47.625943585601306 21.555466774097138  L 47.625943585601306 20.669185114421715  L 55.77715874784157 20.669185114421715  L 55.77715874784157 21.555466774097138  L 47.625943585601306 21.555466774097138  Z M 46.264042829570464 25  L 46.264042829570464 24.59070486146626  L 57.02305341016458 24.59070486146626  L 57.02305341016458 25  L 46.264042829570464 25  Z M 51.078103145248434 24.949956935690157  L 51.078103145248434 21.05082072910455  L 52.15851580816075 21.05082072910455  L 52.15851580816075 24.949956935690157  L 51.078103145248434 24.949956935690157  Z M 47.625943585601306 21.062213468487553  L 47.625943585601306 16.07866694094107  L 55.6582255415435 16.07866694094107  L 55.6582255415435 16.97281428327626  L 48.71433648178595 16.97281428327626  L 48.71433648178595 21.062213468487553  L 47.625943585601306 21.062213468487553  Z M 61.7487611431846 25  L 61.7487611431846 24.546239715066125  L 72.50796814843939 24.546239715066125  L 72.50796814843939 25  L 61.7487611431846 25  Z M 66.53465570310942 24.845699139027207  L 66.53465570310942 21.67404049783083  L 67.61496052503156 21.67404049783083  L 67.61496052503156 24.845699139027207  L 66.53465570310942 24.845699139027207  Z M 66.50385939748897 16.83729953300225  C 66.50385939748897 16.83729953300225  66.50385939748897 15.9213744423934  66.50385939748897 15.9213744423934  L 67.45766673794566 15.9213744423934  C 67.45766673794566 15.9213744423934  67.45766673794566 16.83729953300225  67.45766673794566 16.83729953300225  C 67.45766673794566 17.345609298550347  67.36887659287727 17.826157645583507  67.1913148980898 18.27894454405252  C 67.0138205136525 18.731664222426378  66.76758041667149 19.151582147067465  66.45257330373687 19.538696124383062  C 66.13770081150258 19.925810101698655  65.77594201153883 20.273097239377233  65.36730779626706 20.58055675613919  C 64.95874089134544 20.887881832710825  64.52163343508654 21.146002265385874  64.0559883160883 21.354918790370117  C 63.590343197090064 21.563700875164038  63.11716124460496 21.718606309103023  62.63643884788553 21.81963639932795  C 62.63643884788553 21.81963639932795  62.17048874108697 20.91359245236358  62.17048874108697 20.91359245236358  C 62.58706545732035 20.838777756026353  63.00270043044261 20.712877199678257  63.417392486960836 20.53588967901063  C 63.832151853829224 20.35883493824784  64.22493374444213 20.14154811412726  64.59574017480018 19.884032286693483  C 64.96654660515824 19.62651645925971  65.29528764731907 19.33650048206955  65.58195758426588 19.01398393443398  C 65.86869483156285 18.69133294660809  66.09400697621052 18.345694549287767  66.25790491063034 17.97706579764988  C 66.42187015540034 17.60836982591684  66.50385939748897 17.2284466559292  66.50385939748897 16.83729953300225  Z M 66.69972944734306 16.83729953300225  C 66.69972944734306 16.83729953300225  66.69972944734306 15.9213744423934  66.69972944734306 15.9213744423934  L 67.64555655452742 15.9213744423934  C 67.64555655452742 15.9213744423934  67.64555655452742 16.83729953300225  67.64555655452742 16.83729953300225  C 67.64555655452742 17.231874820684087  67.72882410652278 17.61300708095741  67.89534709946481 17.980694781312227  C 68.06200469806241 18.348248041476715  68.28870135372586 18.692544260535726  68.57543860102284 19.01358199612692  C 68.86210853796965 19.334418071432623  69.19131301956422 19.624972079827028  69.56306179482463 19.88524387106406  C 69.93481057008505 20.145314002015603  70.3289112861999 20.363001968139034  70.74535338173294 20.53830900145219  C 71.16186278761614 20.713683254860513  71.57843237262333 20.838777756026353  71.99507639920687 20.91359245236358  C 71.99507639920687 20.91359245236358  71.5205452307622 21.81963639932795  71.5205452307622 21.81963639932795  C 71.04547681318822 21.72048843420607  70.57508127450149 21.566053533420927  70.10936884515307 21.356330382319328  C 69.64372372615482 21.146472791027406  69.20527617107365 20.888217362251545  68.79401688223487 20.581564486631546  C 68.3827575933961 20.274911611011543  68.01962971836187 19.928027493411786  67.70462260542726 19.540913516096193  C 67.38975011319297 19.153866758875765  67.14349461035621 18.733144687177607  66.96586560521858 18.278744536473887  C 66.78843853113146 17.824209945579845  66.69972944734306 17.343727135885775  66.69972944734306 16.83729953300225  Z M 76.45767522500391 24.778648521439703  L 76.45767522500391 21.233521882738007  L 77.5379954527818 21.233521882738007  L 77.5379954527818 24.778648521439703  L 76.45767522500391 24.778648521439703  Z M 80.84051793564485 24.778648521439703  L 80.84051793564485 21.233521882738007  L 81.9289108318295 21.233521882738007  L 81.9289108318295 24.778648521439703  L 80.84051793564485 24.778648521439703  Z M 73.82453717396089 25  L 73.82453717396089 24.567311667365175  L 84.58324734036812 24.567311667365175  L 84.58324734036812 25  L 73.82453717396089 25  Z M 76.9534048509442 16.25995650262531  C 77.6049580277925 16.00694436146904  78.34738757940012 15.880438275866295  79.1806756325672 15.880438275866295  C 80.02002149689118 15.880438275866295  80.76377962301882 16.00694436146904  81.41196734253786 16.25995650262531  C 82.06082810537944 16.512968643781587  82.56969453318827 16.866742896258607  82.93854899348102 17.321277487152646  C 83.30807655727544 17.775677637856365  83.49283627708179 18.313427761739263  83.49283627708179 18.93453092382133  C 83.49283627708179 19.546761213637154  83.30807655727544 20.081422007719596  82.93854899348102 20.53851093218062  C 82.56969453318827 20.995667046687597  82.06082810537944 21.349439376014818  81.41196734253786 21.59982999355816  C 80.76377962301882 21.850153391006337  80.02002149689118 21.975315375197976  79.1806756325672 21.975315375197976  C 78.34738757940012 21.975315375197976  77.6049580277925 21.850153391006337  76.9534048509442 21.59982999355816  C 76.30252477759755 21.349439376014818  75.79232983544782 20.995667046687597  75.4228022716534 20.53851093218062  C 75.05327470785896 20.081422007719596  74.86849958219688 19.546761213637154  74.86849958219688 18.93453092382133  C 74.86849958219688 18.313427761739263  75.05327470785896 17.775677637856365  75.4228022716534 17.321277487152646  C 75.79232983544782 16.866742896258607  76.30252477759755 16.512968643781587  76.9534048509442 16.25995650262531  Z M 80.87080584802594 17.015867837727185  C 80.3814678769328 16.83410778045062  79.81809387659669 16.743226737651312  79.1806756325672 16.743226737651312  C 78.54931525987372 16.743226737651312  77.98761345685557 16.83410778045062  77.49558313193482 17.015867837727185  C 77.0042258804262 17.197627895003748  76.6185480451301 17.452051613084627  76.33854174258126 17.779139067092853  C 76.05920851344453 18.10615930100592  75.91953327821666 18.491289128619403  75.91953327821666 18.93453092382133  C 75.91953327821666 19.368832596612634  76.05920851344453 19.749561836807136  76.33854174258126 20.07671651091053  C 76.6185480451301 20.40373674482359  77.0042258804262 20.65900123995528  77.49558313193482 20.842508989656874  C 77.98761345685557 21.02588229916814  78.54931525987372 21.117567489024513  79.1806756325672 21.117567489024513  C 79.81809387659669 21.117567489024513  80.3814678769328 21.02588229916814  80.87080584802594 20.842508989656874  C 81.35947071561739 20.65900123995528  81.74347629341644 20.40373674482359  82.02280952255316 20.07671651091053  C 82.30214275168989 19.749561836807136  82.44180258106202 19.368832596612634  82.44180258106202 18.93453092382133  C 82.44180258106202 18.491289128619403  82.30214275168989 18.10615930100592  82.02280952255316 17.779139067092853  C 81.74347629341644 17.452051613084627  81.35947071561739 17.197627895003748  80.87080584802594 17.015867837727185  Z M 87.03666067837057 19.083353870673733  L 87.03666067837057 18.2379083737361  L 92.73303746095262 18.2379083737361  L 92.73303746095262 19.083353870673733  L 87.03666067837057 19.083353870673733  Z M 87.03666067837057 18.623778764266568  L 87.03666067837057 15.633207754026007  L 92.60381314302151 15.633207754026007  L 92.60381314302151 16.478653250963642  L 88.15030377210995 16.478653250963642  L 88.15030377210995 18.623778764266568  L 87.03666067837057 18.623778764266568  Z M 89.30229204078142 20.697718887923674  L 89.30229204078142 18.71966701302357  L 90.39573805764815 18.71966701302357  L 90.39573805764815 20.697718887923674  L 89.30229204078142 20.697718887923674  Z M 94.54433473179144 21.50767265540261  L 94.54433473179144 15.137333195246429  L 95.62969267439567 15.137333195246429  L 95.62969267439567 21.50767265540261  L 94.54433473179144 21.50767265540261  Z M 88.50770421937791 21.198634022314806  C 87.660281233392 21.219673555266436  86.86200003861265 21.230192910443613  86.11284853903595 21.230192910443613  C 86.11284853903595 21.230192910443613  85.97048302616025 20.360750350369404  85.97048302616025 20.360750350369404  C 86.7398273298918 20.35544005252964  87.55898616725683 20.34528902420339  88.42794810422181 20.33029919652226  C 89.2969100411868 20.31524214968501  90.17495216545215 20.28227250816791  91.0620875358878 20.231387756288203  C 91.94989600982514 20.18043578806948  92.80405965948769 20.109284076081977  93.6245589266602 20.017933514289858  C 93.6245589266602 20.017933514289858  93.68613613204535 20.78080088219867  93.68613613204535 20.78080088219867  C 92.85015572505066 20.903139381999733  91.9902879369428 20.998120174496638  91.10651802383644 21.06574244836058  C 90.22207500722841 21.133163061939026  89.35580024868638 21.177460051050925  88.50770421937791 21.198634022314806  Z M 87.80499692159636 22.911306610763315  L 87.80499692159636 22.04781235300369  L 95.62969267439567 22.04781235300369  L 95.62969267439567 24.814746043083684  L 88.89642477136142 24.814746043083684  L 88.89642477136142 26.334834411104467  L 87.82621078494773 26.334834411104467  L 87.82621078494773 23.987145453089816  L 94.56251364156238 23.987145453089816  L 94.56251364156238 22.911306610763315  L 87.80499692159636 22.911306610763315  Z M 87.82621078494773 26.857529216919048  L 87.82621078494773 25.983548023329657  L 96.03254039609101 25.983548023329657  L 96.03254039609101 26.857529216919048  L 87.82621078494773 26.857529216919048  Z M 106.18546150316503 16.216097148410466  C 106.18546150316503 16.216097148410466  106.18546150316503 15.5480064486774  106.18546150316503 15.5480064486774  L 107.13956155488074 15.5480064486774  C 107.13956155488074 15.5480064486774  107.13956155488074 16.216097148410466  107.13956155488074 16.216097148410466  C 107.13956155488074 16.666665813788317  107.05340909090582 17.091657338128837  106.88109751316279 17.49107238251478  C 106.70945902387665 17.890420206805558  106.47119192362831 18.25693145032276  106.16628121277111 18.590606353460117  C 105.86204357532603 18.924214036502306  105.5093391157289 19.220717098441693  105.10817622896754 19.48011505849082  C 104.70634023870451 19.73951301853995  104.27220262221387 19.956662938434526  103.80574977901361 20.13156666620131  C 103.33929693581335 20.306335953777772  102.85937203284487 20.4355321202787  102.36599553101033 20.519152506348533  C 102.36599553101033 20.519152506348533  101.92882356273053 19.643759720809935  101.92882356273053 19.643759720809935  C 102.36094869904669 19.581111651352728  102.78399090991233 19.475711781667048  103.19794255257871 19.32756120103696  C 103.6118941952451 19.179410620406877  103.99993168408189 18.99751547688185  104.36205522971606 18.781877062578154  C 104.72417877535024 18.56630586836962  105.04153479985195 18.32307449145331  105.31413711433008 18.05218210547579  C 105.58673942880824 17.78128971949827  105.80011232110972 17.49093818271818  105.95425042024775 17.181126022723937  C 106.10838851938578 16.871179422539374  106.18546150316503 16.54950317116717  106.18546150316503 16.216097148410466  Z M 106.37627843233703 16.216097148410466  C 106.37627843233703 16.216097148410466  106.37627843233703 15.5480064486774  106.37627843233703 15.5480064486774  L 107.32230581564596 15.5480064486774  C 107.32230581564596 15.5480064486774  107.32230581564596 16.216097148410466  107.32230581564596 16.216097148410466  C 107.32230581564596 16.544192873796927  107.40072276475621 16.86183492783523  107.55755323276662 17.169025564216536  C 107.71438370077702 17.476283420693004  107.9304445387853 17.7653583466001  108.20573920709106 18.036250732577617  C 108.4810338753968 18.307143118555132  108.79840530575423 18.551753288701896  109.15783649756081 18.770080461738292  C 109.51726768936736 18.988273194584366  109.90396119782841 19.17278902034429  110.31791284049478 19.32362835970708  C 110.73186448316116 19.4744004789747  111.1525470404861 19.581111651352728  111.57996054255919 19.643759720809935  C 111.57996054255919 19.643759720809935  111.14278857427938 20.519152506348533  111.14278857427938 20.519152506348533  C 110.65479681018961 20.4355321202787  110.17857551104804 20.30499186739127  109.71414194826326 20.12753382108211  C 109.25038148898017 19.949874114487457  108.81657214961082 19.730034083645478  108.4127168789323 19.468014599983416  C 108.00818853484165 19.20599511632136  107.65381181774747 18.908215443508972  107.34957418030238 18.574674980561944  C 107.04533654285731 18.240932857329422  106.807054051798 17.875765715223327  106.63474247405496 17.479173854735805  C 106.46243089631193 17.08238036401201  106.37627843233703 16.661355516418073  106.37627843233703 16.216097148410466  Z M 106.18344333606333 26.98981692183778  L 106.18344333606333 22.476432440317538  L 107.26374815798548 22.476432440317538  L 107.26374815798548 26.98981692183778  L 106.18344333606333 26.98981692183778  Z M 101.38362573401523 22.707633508620127  L 101.38362573401523 21.8032011611836  L 112.11103120156265 21.8032011611836  L 112.11103120156265 22.707633508620127  L 101.38362573401523 22.707633508620127  Z M 119.82768568807073 23.06345660676031  C 119.82768568807073 23.06345660676031  119.82768568807073 22.42854024098349  119.82768568807073 22.42854024098349  L 120.67477666582964 22.42854024098349  C 120.67477666582964 22.42854024098349  120.67477666582964 23.06345660676031  120.67477666582964 23.06345660676031  C 120.67477666582964 23.578353821437535  120.56910588532143 24.08326928769666  120.35775496645121 24.578202464651792  C 120.146404047581 25.073001201416606  119.84148740908009 25.517081850519553  119.44301687614632 25.910447176488454  C 119.04521944671426 26.303678062267032  118.55991868242181 26.60760929028792  117.98711729132953 26.822239418188783  C 117.98711729132953 26.822239418188783  117.44393762971592 26.016318495829044  117.44393762971592 26.016318495829044  C 117.94741053362789 25.832810746127453  118.37617228879454 25.58097492658732  118.73021874285634 25.260811022184033  C 119.08426519691814 24.940647117780745  119.35552106367643 24.588722214224926  119.54398685465378 24.205036401664223  C 119.73312573408802 23.82121614891319  119.82768568807073 23.440689380333  119.82768568807073 23.06345660676031  Z M 120.06696943939474 23.06345660676031  C 120.06696943939474 23.06345660676031  120.06696943939474 22.42854024098349  120.06696943939474 22.42854024098349  L 120.87468304988712 22.42854024098349  C 120.87468304988712 22.42854024098349  120.87468304988712 23.06345660676031  120.87468304988712 23.06345660676031  C 120.87468304988712 23.458569625154244  120.95377198918524 23.853715517389976  121.11194863410945 24.24889575587907  C 121.26945219057676 24.644008774272997  121.50637531044933 25.00322686283412  121.82272860029774 25.326550051611644  C 122.13908189014617 25.649873240389166  122.53216693309611 25.908398631317443  123.00198523362565 26.102123670213146  C 123.00198523362565 26.102123670213146  122.54664976143063 26.92942040253947  122.54664976143063 26.92942040253947  C 121.97654072416597 26.70262364775859  121.5077266627678 26.386593734134014  121.14021837938884 25.981330631616526  C 120.77338316942203 25.57606752909904  120.50279929285162 25.119078307935172  120.32846843469311 24.610365221816096  C 120.1541375765346 24.101584945651073  120.06696943939474 23.585949541944895  120.06696943939474 23.06345660676031  Z M 124.21356335229207 23.06345660676031  C 124.21356335229207 23.06345660676031  124.21356335229207 22.42854024098349  124.21356335229207 22.42854024098349  L 125.02126155692869 22.42854024098349  C 125.02126155692869 22.42854024098349  125.02126155692869 23.06345660676031  125.02126155692869 23.06345660676031  C 125.02126155692869 23.525923018637528  124.93174918714867 24.010706141518327  124.7527066797023 24.517805945353484  C 124.5743372757576 25.024771308998318  124.30375338414241 25.493219047278004  123.94095673500655 25.92315150403135  C 123.57816008587069 26.353083960784694  123.11339334136602 26.688507653143446  122.54664976143063 26.92942040253947  C 122.54664976143063 26.92942040253947  122.0862457626978 26.102123670213146  122.0862457626978 26.102123670213146  C 122.55606406322734 25.885611409696935  122.94914910617727 25.604703199490892  123.2655023960257 25.259399430234822  C 123.5818556858741 24.913961220788423  123.81879421160242 24.546744181296614  123.97629776806973 24.157748071365667  C 124.13447441299394 23.768617521244394  124.21356335229207 23.40385339921712  124.21356335229207 23.06345660676031  Z M 124.42861369254008 23.06345660676031  C 124.42861369254008 23.06345660676031  124.42861369254008 22.42854024098349  124.42861369254008 22.42854024098349  L 125.27570467029899 22.42854024098349  C 125.27570467029899 22.42854024098349  125.27570467029899 23.06345660676031  125.27570467029899 23.06345660676031  C 125.27570467029899 23.466904796757614  125.36993633211563 23.86272367122458  125.55840212309297 24.25091314001357  C 125.74754100252721 24.63896816861223  126.01912516145158 24.987329445549502  126.37317161551339 25.295998893975185  C 126.72789114298732 25.604735562496028  127.15665292824352 25.844842932817148  127.65945272865382 26.016318495829044  C 127.65945272865382 26.016318495829044  127.11627306704018 26.822239418188783  127.11627306704018 26.822239418188783  C 126.54347167594793 26.611037455042812  126.05615497118137 26.315845680771165  125.65431898091832 25.93666355448796  C 125.2511368137415 25.55734698801443  124.9462201601958 25.1194159709702  124.73958089061344 24.622869541780357  C 124.53226851752942 24.126255892495358  124.42861369254008 23.606451340428283  124.42861369254008 23.06345660676031  Z M 125.50186263253418 21.91138987602664  L 125.50186263253418 15.142475697797096  L 126.59529324354519 15.142475697797096  L 126.59529324354519 21.91138987602664  L 125.50186263253418 21.91138987602664  Z M 118.63530326565396 16.173949397512782  C 119.10310228576802 15.940161858007192  119.63417490059302 15.823268801923263  120.22851524266437 15.823268801923263  C 120.82824029239092 15.823268801923263  121.36065691768124 15.940161858007192  121.82576355387815 16.173949397512782  C 122.29154329357674 16.407669716923213  122.65804649531657 16.732271304502067  122.92526407204996 17.14775168118906  C 123.19248164878334 17.563097617685727  123.3260936266436 18.04583084318081  123.3260936266436 18.595950786739213  C 123.3260936266436 19.140625992737046  123.19248164878334 19.61932505094744  122.92526407204996 20.032049433781964  C 122.65804649531657 20.444841036711647  122.29154329357674 20.768096629778814  121.82576355387815 21.001816949189244  C 121.36065691768124 21.235604488694836  120.82824029239092 21.352499467928556  120.22851524266437 21.352499467928556  C 119.63417490059302 21.352499467928556  119.10310228576802 21.235604488694836  118.63530326565396 21.001816949189244  C 118.16683117212779 20.768096629778814  117.79898399001216 20.444841036711647  117.53176641327877 20.032049433781964  C 117.26454883654539 19.61932505094744  117.13095226454087 19.140625992737046  117.13095226454087 18.595950786739213  C 117.13095226454087 18.04583084318081  117.26454883654539 17.563097617685727  117.53176641327877 17.14775168118906  C 117.79898399001216 16.732271304502067  118.16683117212779 16.407669716923213  118.63530326565396 16.173949397512782  Z M 121.28056572516286 16.97261235254783  C 120.97498191080398 16.814244482723634  120.62429339168096 16.735061043623592  120.22851524266437 16.735061043623592  C 119.84148728872182 16.735061043623592  119.49450237342573 16.814244482723634  119.18757238215304 16.97261235254783  C 118.88064239088035 17.131047427442585  118.6386716868051 17.348635104309153  118.46164845977421 17.625375548418216  C 118.2846252327433 17.902115992527282  118.19611313027247 18.225641562771465  118.19611313027247 18.595950786739213  C 118.19611313027247 18.96269740576174  118.2846252327433 19.285347492111168  118.46164845977421 19.563902848740423  C 118.6386716868051 19.842458205369674  118.88064239088035 20.05961004841405  119.18757238215304 20.21535637960071  C 119.49450237342573 20.371035490692204  119.84148728872182 20.448874843405747  120.22851524266437 20.448874843405747  C 120.62429339168096 20.448874843405747  120.97498191080398 20.371035490692204  121.28056572516286 20.21535637960071  C 121.58614953952173 20.05961004841405  121.82710455538728 19.842458205369674  122.00345469396129 19.563902848740423  C 122.18047792099219 19.285347492111168  122.26899002346303 18.96269740576174  122.26899002346303 18.595950786739213  C 122.26899002346303 18.225641562771465  122.18047792099219 17.902115992527282  122.00345469396129 17.625375548418216  C 121.82710455538728 17.348635104309153  121.58614953952173 17.131047427442585  121.28056572516286 16.97261235254783  Z M 130.29764390037892 26.831918631104827  L 130.29764390037892 22.24009079261408  L 131.37593055519937 22.24009079261408  L 131.37593055519937 23.60944267973687  L 137.185386318899 23.60944267973687  L 137.185386318899 22.24009079261408  L 138.2636883795752 22.24009079261408  L 138.2636883795752 26.831918631104827  L 130.29764390037892 26.831918631104827  Z M 137.185386318899 24.457813287512035  L 131.37593055519937 24.457813287512035  L 131.37593055519937 25.952896861903884  L 137.185386318899 25.952896861903884  L 137.185386318899 24.457813287512035  Z M 128.93866255401045 21  L 128.93866255401045 20  L 139.66606802155786 20  L 139.66606802155786 21  L 128.93866255401045 21  Z M 133.74858639742274 15.791507983066026  C 133.74858639742274 15.791507983066026  133.74858639742274 15.260443629345499  133.74858639742274 15.260443629345499  L 134.68654111232493 15.260443629345499  C 134.68654111232493 15.260443629345499  134.68654111232493 15.791507983066026  134.68654111232493 15.791507983066026  C 134.68654111232493 16.20376185528362  134.60037324249427 16.590908766539446  134.42806166475123 16.9529500690482  C 134.2557500870082 17.314924151461792  134.01917066515745 17.646716711639286  133.71829848504166 17.9483281702697  C 133.41809940842754 18.249805188709786  133.0687548696803 18.518581899568773  132.67028433674653 18.75465487723609  C 132.27248690731446 18.99059341471308  131.84272485474906 19.18741042774021  131.38098367588145 19.345106096612778  C 130.91924249701384 19.50266732529502  130.44336488084932 19.619828442918475  129.95335383634406 19.69659249196622  C 129.95335383634406 19.69659249196622  129.54948932817 18.83864459821412  129.54948932817 18.83864459821412  C 129.97555662323973 18.779424697267956  130.3932229727814 18.68440920168325  130.80246298120468 18.5536011051131  C 131.2123760630401 18.422793008542953  131.59569427488506 18.261737942545256  131.95243308277446 18.070432797026214  C 132.30984499416556 17.879127651507165  132.62284083050818 17.664563691978927  132.89140458415537 17.426743021886583  C 133.16064144130422 17.18885513169908  133.3706390219449 16.93147326366818  133.52141164870886 16.654598379368792  C 133.6728573789745 16.377656274974235  133.74858639742274 16.0899601573222  133.74858639742274 15.791507983066026  Z M 133.92627753750588 15.791507983066026  C 133.92627753750588 15.791507983066026  133.92627753750588 15.260443629345499  133.92627753750588 15.260443629345499  L 134.85716096462428 15.260443629345499  C 134.85716096462428 15.260443629345499  134.85716096462428 15.791507983066026  134.85716096462428 15.791507983066026  C 134.85716096462428 16.084649859951956  134.9338902654265 16.368381224007205  135.08735526106284 16.64270177473961  C 135.24082025669918 16.916887915330907  135.45352118890236 17.174269768337197  135.7254503998788 17.414846417257408  C 135.9973796108553 17.65528862598729  136.3103754471979 17.872506051444578  136.66442190125971 18.066499955696326  C 137.01846835532152 18.260426654877524  137.40044258679072 18.424139018079245  137.81035566862613 18.557635873382097  C 138.22026875046154 18.69119994878011  138.63523176348548 18.78486943107237  139.0552412473983 18.83864459821412  C 139.0552412473983 18.83864459821412  138.65137673922425 19.69659249196622  138.65137673922425 19.69659249196622  C 138.16675043246377 19.619828442918475  137.69492013319274 19.50266732529502  137.23587130815272 19.345106096612778  C 136.7774955866144 19.18741042774021  136.34773353404898 18.989247405176783  135.94657064728764 18.75062010896709  C 135.5460808339384 18.511925592662237  135.19539234490495 18.24046264720465  134.89452016478916 17.93622963491209  C 134.59364798467334 17.632063842714697  134.35705315696686 17.30030409628057  134.1847415792238 16.940951537479908  C 134.0124300014808 16.581531758584084  133.92627753750588 16.198384337818215  133.92627753750588 15.791507983066026  Z M 149 26.98467441928711  L 149 15.129367508797342  L 150 15.129367508797342  L 150 26.98467441928711  L 149 26.98467441928711  Z M 141.7681354135974 23.63404361190894  L 141.7681354135974 16.290809594779518  L 142.8484556413753 16.290809594779518  L 142.8484556413753 23.63404361190894  L 141.7681354135974 23.63404361190894  Z M 141.7681354135974 23.931387571096  L 141.7681354135974 22.98844030272372  C 141.7681354135974 22.98844030272372  142.74143116156276 22.98844030272372  142.74143116156276 22.98844030272372  C 143.64674002564823 22.98844030272372  144.57022575341438 22.948646104047086  145.51188160479938 22.869058856076315  C 146.45353745618442 22.789337175427516  147.4248110050468 22.645354120500684  148.42569894153468 22.43710979646807  C 148.42569894153468 22.43710979646807  148.56097776077087 23.36493341485589  148.56097776077087 23.36493341485589  C 147.53047369146282 23.578084730712373  146.53800968892833 23.72579919956502  145.58356505154873 23.8080752062685  C 144.62912041416914 23.890283992876814  143.68174086612356 23.931387571096  142.74143116156276 23.931387571096  C 142.74143116156276 23.931387571096  141.7681354135974 23.931387571096  141.7681354135974 23.931387571096  Z M 161 27  L 161 15.124225006246675  L 162 15.124225006246675  L 162 27  L 161 27  Z M 161.96595176730995 20.717985040458796  L 161.96595176730995 19.803269611070736  L 164.15888289649274 19.803269611070736  L 164.15888289649274 20.717985040458796  L 161.96595176730995 20.717985040458796  Z M 153.60009451999875 24.047340041659698  L 153.60009451999875 23.12758403666008  C 153.60009451999875 23.12758403666008  154.53197932774012 23.12758403666008  154.53197932774012 23.12758403666008  C 155.26632279099633 23.12758403666008  155.93705529537257 23.116156413893986  156.54418436325938 23.093301968422164  C 157.15198653464788 23.070380304733256  157.73658195081538 23.029207307191946  158.29794076291643 22.96978574971644  C 158.85929957501747 22.910296972145776  159.43478471432263 22.82714875691203  160.02441339206132 22.720337836163022  C 160.02441339206132 22.720337836163022  160.14961678164477 23.643018952000176  160.14961678164477 23.643018952000176  C 159.542487713758 23.753190824921212  158.9511724558907 23.83805337043843  158.37567871097085 23.89760936810426  C 157.80018496605095 23.95716536577009  157.20247820378435 23.99702705874098  156.58256034990296 24.0171927454801  C 155.961969452699 24.03729121400213  155.27843847348922 24.047340041659698  154.53197932774012 24.047340041659698  C 154.53197932774012 24.047340041659698  153.60009451999875 24.047340041659698  153.60009451999875 24.047340041659698  Z M 153.60009451999875 23.539568878250943  L 153.60009451999875 16.27830719796505  L 159.10563896755306 16.27830719796505  L 159.10563896755306 17.169631356401823  L 154.6803993419209 17.169631356401823  L 154.6803993419209 23.539568878250943  L 153.60009451999875 23.539568878250943  Z M 165.69252042936395 25.94604083288626  C 165.5471325403448 25.811602911275735  165.47443513553557 25.597173947848308  165.47443513553557 25.30275491920349  C 165.47443513553557 25.004101084661826  165.5471325403448 24.79185698467171  165.69252042936395 24.6660231000206  C 165.83790831838314 24.540121995274323  166.0152762363914 24.477171713344124  166.22460787484616 24.477171713344124  C 166.44268972341973 24.477171713344124  166.62643375501636 24.540121995274323  166.77586020486652 24.6660231000206  C 166.92528665471667 24.79185698467171  167 25.004101084661826  167 25.30275491920349  C 167 25.597173947848308  166.92528665471667 25.811602911275735  166.77586020486652 25.94604083288626  C 166.62643375501636 26.080411534401623  166.44268972341973 26.147596547105632  166.22460787484616 26.147596547105632  C 166.0152762363914 26.147596547105632  165.83790831838314 26.080411534401623  165.69252042936395 25.94604083288626  Z " fill-rule="nonzero" fill="#55565d" stroke="none" transform="matrix(1 0 0 1 96 363 )" />
  </g>
</svg>