<?xml version="1.0" encoding="utf-8"?>
<svg version="1.1" xmlns:xlink="http://www.w3.org/1999/xlink" width="479px" height="77px" xmlns="http://www.w3.org/2000/svg">
  <g transform="matrix(1 0 0 1 -210 -864 )">
    <path d="M 93.5224902892371 11.924000539051764  L 93.5224902892371 9.411294279455603  L 101.05707258390518 9.411294279455603  L 101.05707258390518 11.924000539051764  L 93.5224902892371 11.924000539051764  Z M 93.25722940536902 20.420060432489322  L 93.25722940536902 17.89274679069036  L 100.99828037900988 17.89274679069036  L 100.99828037900988 20.420060432489322  L 93.25722940536902 20.420060432489322  Z M 107 33.82412944707021  L 107 0.014607382202801417  L 110 0.014607382202801417  L 110 33.82412944707021  L 107 33.82412944707021  Z M 100 32.10689308170367  L 100 0.8924618974166257  L 103 0.8924618974166257  L 103 32.10689308170367  L 100 32.10689308170367  Z M 91.83012098947292 4.860131844027139  C 91.83012098947292 4.860131844027139  91.83012098947292 4.296509837481021  91.83012098947292 4.296509837481021  C 91.83012098947292 4.296509837481021  94.82651288270867 4.296509837481021  94.82651288270867 4.296509837481021  C 94.82651288270867 7.243375919764197  94.40381626523698 10.069741210991754  93.55840412954424 12.77560399724548  C 92.7129919938515 15.481064184109398  91.35490091564174 17.995927409785043  89.48414409954803 20.320195216798812  C 87.61396656121536 22.644041228538715  85.1554430447935 24.717106897764932  82.10856146761164 26.53939291004474  C 82.10856146761164 26.53939291004474  80.2815290754623 24.313487555226448  80.2815290754623 24.313487555226448  C 82.93746306515274 22.72833258354234  85.11914756469803 20.929575240582476  86.82657515188606 18.91722015392606  C 88.53438886671158 16.904481663763896  89.79516766762303 14.718074582669372  90.6089178548702 12.357997539507908  C 91.42305416975485 9.997517896956637  91.83012098947292 7.498229217535166  91.83012098947292 4.860131844027139  Z M 81.78247572839716 7  L 81.78247572839716 5  L 93.03829969536996 5  L 93.03829969536996 7  L 81.78247572839716 7  Z M 123.68279197740523 6.055756395114117  C 123.68279197740523 6.055756395114117  123.68279197740523 4.072797576802768  123.68279197740523 4.072797576802768  L 126.24943295842061 4.072797576802768  C 126.24943295842061 4.072797576802768  126.24943295842061 6.055756395114117  126.24943295842061 6.055756395114117  C 126.24943295842061 8.027605595525413  125.84643143960474 9.856551551223308  125.04040363249784 11.542597518652416  C 124.23495501684717 13.228643486081523  123.11441779113365 14.683205087881536  121.67881957289065 15.906279924566942  C 120.24341441846636 17.128952161862543  118.57103270429664 18.0539446555685  116.6616638148921 18.681258862515303  C 116.6616638148921 18.681258862515303  115.10279767111432 16.24270973088154  115.10279767111432 16.24270973088154  C 116.80443334373997 15.699896234048897  118.29901657178266 14.923843319330192  119.58653734388656 13.91455064394178  C 120.87386513847649 12.905257968553366  121.87834757737282 11.726974156445955  122.60000791971684 10.379697836484974  C 123.32186132587964 9.032038198714154  123.68279197740523 7.590724756272817  123.68279197740523 6.055756395114117  Z M 124.27413860048777 6.055756395114117  C 124.27413860048777 6.055756395114117  124.27413860048777 4.072797576802768  124.27413860048777 4.072797576802768  L 126.82573354935971 4.072797576802768  C 126.82573354935971 4.072797576802768  126.82573354935971 6.055756395114117  126.82573354935971 6.055756395114117  C 126.82573354935971 7.475839789655847  127.17651208194795 8.823700641425658  127.87809413236158 10.099339207511282  C 128.5796761827752 11.37459437009116  129.5639928166825 12.49486153628649  130.8310491692185 13.460140191921802  C 132.09849164939197 14.425054639935432  133.553025484125 15.166447157889104  135.19461943108297 15.68432065944379  C 135.19461943108297 15.68432065944379  133.70291912829794 18.1076885890548  133.70291912829794 18.1076885890548  C 131.8283012084389 17.505295181501893  130.18334629398274 16.618658806418093  128.76801943148885 15.447783491511217  C 127.35288563281374 14.276888980720281  126.2500219023183 12.886970118365596  125.45943894179668 11.278025447616677  C 124.66924210891256 9.66867817747795  124.27413860048777 7.927922397949836  124.27413860048777 6.055756395114117  Z M 116.12824772966579 6  L 116.12824772966579 4  L 134.36406078154366 4  L 134.36406078154366 6  L 116.12824772966579 6  Z M 123.71233169102607 25.123795182267592  L 123.71233169102607 17.270693198631175  L 126.83412927948382 17.270693198631175  L 126.83412927948382 25.123795182267592  L 123.71233169102607 25.123795182267592  Z M 140.1998886027479 16.66500272659904  L 140.1998886027479 14.041907107876167  L 146.49038939822515 14.041907107876167  L 146.49038939822515 16.66500272659904  L 140.1998886027479 16.66500272659904  Z M 138 33.82412944707021  L 138 0.014607382202801417  L 141 0.014607382202801417  L 141 33.82412944707021  L 138 33.82412944707021  Z M 121.43759699000944 26.720549952462587  C 119.09249039760277 26.75294699970864  116.93823269777107 26.76914570409648  114.97480697477518 26.76914570409648  C 114.97480697477518 26.76914570409648  114.54996093646939 24.180926264442498  114.54996093646939 24.180926264442498  C 116.54794465149682 24.180926264442498  118.75183865349557 24.167125328966012  121.16162050321982 24.139520742523864  C 123.57178848058157 24.11191615608171  126.03590575576435 24.028142656112173  128.55399459540442 23.888202743864653  C 131.07208343504445 23.748454533370005  133.50089790784443 23.513912912556584  135.84040573581225 23.184574871355526  C 135.84040573581225 23.184574871355526  136.085671525569 25.468852167332837  136.085671525569 25.468852167332837  C 133.66642980764058 25.896723238440195  131.20647173297323 26.20411365703102  128.7057584644107 26.391019695333185  C 126.2054313234857 26.57792573363535  123.78270358241612 26.687769507066783  121.43759699000944 26.720549952462587  Z M 149.58437060714016 30  L 149.58437060714016 27  L 180.44433488400497 27  L 180.44433488400497 30  L 149.58437060714016 30  Z M 163.39265119002394 28.163175484997012  L 163.39265119002394 19.846490159028818  L 166.49127214453387 19.846490159028818  L 166.49127214453387 28.163175484997012  L 163.39265119002394 28.163175484997012  Z M 153.3461658653469 5  L 153.3461658653469 3  L 176.61970421402737 3  L 176.61970421402737 13  L 156.51369808895433 13  L 156.51369808895433 19.525844853950307  L 153.42985803826815 19.525844853950307  L 153.42985803826815 11  L 173.53557694099484 11  L 173.53557694099484 5  L 153.3461658653469 5  Z M 153.42985803826815 21  L 153.42985803826815 19  L 177.41029476937067 19  L 177.41029476937067 21  L 153.42985803826815 21  Z M 219 18.162580590660557  L 219 0.029185970579511986  L 222 0.029185970579511986  L 222 18.162580590660557  L 219 18.162580590660557  Z M 200 34  L 200 19.856439111510493  L 203.05126330784572 19.856439111510493  L 203.05126330784572 24  L 218.81424661583165 24  L 218.81424661583165 19.856439111510493  L 222 19.856439111510493  L 222 34  L 200 34  Z M 218.81424661583165 27  L 203.05126330784572 27  L 203.05126330784572 31  L 218.81424661583165 31  L 218.81424661583165 27  Z M 199.0641752599669 2.6155057032787856  C 200.4072975488217 1.9613345263732571  201.9310024300748 1.634249130736293  203.63534099616294 1.634249130736293  C 205.3545452173801 1.634249130736293  206.88214917650686 1.9613345263732571  208.21812819037285 2.6155057032787856  C 209.55217656605134 3.269676880184313  210.6024185390297 4.180455978638222  211.36886895373206 5.347842355921179  C 212.1353193684344 6.515228733204136  212.5185537240935 7.870882342639336  212.5185537240935 9.414803012834959  C 212.5185537240935 10.943138510483447  212.1353193684344 12.297229626373662  211.36886895373206 13.477076446201524  C 210.6024185390297 14.656923266029382  209.55217656605134 15.573930486205924  208.21812819037285 16.22810166311145  C 206.88214917650686 16.882272840016977  205.3545452173801 17.20935960678852  203.63534099616294 17.20935960678852  C 201.9310024300748 17.20935960678852  200.4072975488217 16.882272840016977  199.0641752599669 16.22810166311145  C 197.7214390987496 15.573930486205924  196.666921500092 14.656923266029382  195.90066414920838 13.477076446201524  C 195.1344067983248 12.297229626373662  194.75128869521996 10.943138510483447  194.75128869521996 9.414803012834959  C 194.75128869521996 7.870882342639336  195.1344067983248 6.515228733204136  195.90066414920838 5.347842355921179  C 196.666921500092 4.180455978638222  197.7214390987496 3.269676880184313  199.0641752599669 2.6155057032787856  Z M 206.65144076116366 4.874739911797228  C 205.77687650666905 4.438242390354464  204.7715023235138 4.219992986913749  203.63534099616294 4.219992986913749  C 202.5148175792161 4.219992986913749  201.51421199470954 4.438242390354464  200.63346978431986 4.874739911797228  C 199.75311370156768 5.310854029734246  199.0617586826505 5.921222213067476  198.55941512729572 6.705844204709181  C 198.05707157194098 7.490447000466826  197.80587625463167 8.3934333841033  197.80587625463167 9.414803012834959  C 197.80587625463167 10.430325866647868  198.05707157194098 11.330396789696731  198.55941512729572 12.115018781338438  C 199.0617586826505 12.899621577096084  199.75311370156768 13.511542698880222  200.63346978431986 13.950781503971516  C 201.51421199470954 14.390001113178755  202.5148175792161 14.609611667621593  203.63534099616294 14.609611667621593  C 204.7715023235138 14.609611667621593  205.77687650666905 14.390001113178755  206.65144076116366 13.950781503971516  C 207.52793565384573 13.511542698880222  208.22004394098374 12.899621577096084  208.7277931969586 12.115018781338438  C 209.2336118578984 11.330396789696731  209.48654625991026 10.430325866647868  209.48654625991026 9.414803012834959  C 209.48654625991026 8.3934333841033  209.2336118578984 7.490447000466826  208.7277931969586 6.705844204709181  C 208.22004394098374 5.921222213067476  207.52793565384573 5.310854029734246  206.65144076116366 4.874739911797228  Z M 232.56693862768327 5  L 232.56693862768327 2  L 254.46578663867658 2  L 254.46578663867658 5  L 232.56693862768327 5  Z M 228.6342902614512 17  L 228.6342902614512 15  L 259.49306146087736 15  L 259.49306146087736 17  L 228.6342902614512 17  Z M 252.42703823622693 4.305251505968744  C 252.42703823622693 4.305251505968744  252.42703823622693 1.8001351618166728  252.42703823622693 1.8001351618166728  L 255.496738109862 1.8001351618166728  C 255.496738109862 1.8001351618166728  255.496738109862 4.305251505968744  255.496738109862 4.305251505968744  C 255.496738109862 5.73430640543146  255.45133318059234 7.310354986830697  255.36059471769184 9.033398621301036  C 255.26985625479134 10.756039827773389  254.94264973997733 12.789806894748432  254.37891292591885 15.13470136475257  C 254.37891292591885 15.13470136475257  251.3034244173035 14.975257609476369  251.3034244173035 14.975257609476369  C 251.86136940310433 12.666191571503992  252.18767849911944 10.660258707808586  252.28227817366627 8.957458332822867  C 252.37880845403626 7.254677153721209  252.42703823622693 5.70394134481271  252.42703823622693 4.305251505968744  Z M 233 34  L 233 22  L 255 22  L 255 34  L 233 34  Z M 252.5544765819 31  L 252.5544765819 24  L 235.47729638117372 24  L 235.47729638117372 31  L 252.5544765819 31  Z M 265.9654181896478 18  L 265.9654181896478 15  L 283.37564374798086 15  L 283.37564374798086 18  L 265.9654181896478 18  Z M 272.9329904315798 24.375597209238983  L 272.9329904315798 16.59489935800986  L 276.0692375134617 16.59489935800986  L 276.0692375134617 24.375597209238983  L 272.9329904315798 24.375597209238983  Z M 266 15.473462099845948  L 266 4  L 283.21926222740626 4  L 283.21926222740626 6  L 269.0785107316084 6  L 269.0785107316084 15.473462099845948  L 266 15.473462099845948  Z M 287 33.867835732806974  L 287 0  L 291 0  L 291 33.867835732806974  L 287 33.867835732806974  Z M 270.81320113940603 26.479296081589418  C 268.3574709638682 26.52683731290268  266.04555840256705 26.55060879087441  263.8774884838922 26.55060879087441  C 263.8774884838922 26.55060879087441  263.4517807785474 23.940248270091143  263.4517807785474 23.940248270091143  C 265.68549135993834 23.925104087362936  268.0572423128182 23.899993478221205  270.56702949455695 23.864912651960886  C 273.0768166762957 23.829448427550815  275.6223009007052 23.74442928931117  278.2035204871129 23.60985694044817  C 280.78474007352054 23.474709497038546  283.2703857337417 23.267291285483093  285.66047541917305 22.987603162740925  C 285.66047541917305 22.987603162740925  285.9124356990024 25.28597297988784  285.9124356990024 25.28597297988784  C 283.4335382104342 25.654417493107644  280.9112271677809 25.93343613796922  278.3454525142633 26.123025957963648  C 275.7796778607457 26.312615777958072  273.26893131494387 26.431371452126402  270.81320113940603 26.479296081589418  Z M 322 33.82412944707021  L 322 0.014607382202801417  L 325 0.014607382202801417  L 325 33.82412944707021  L 322 33.82412944707021  Z M 312.7285302795176 4.162742633837692  C 312.7285302795176 4.162742633837692  312.7285302795176 3.656917377496071  312.7285302795176 3.656917377496071  C 312.7285302795176 3.656917377496071  315.8126796465768 3.656917377496071  315.8126796465768 3.656917377496071  C 315.8126796465768 6.103833857878375  315.52021096140373 8.462166132292191  314.93523747250237 10.731914886304809  C 314.35219462178856 13.00126104092762  313.4303252006996 15.15553952525124  312.16963978157264 17.19475153901843  C 310.91088500063313 19.233599345163935  309.2795161864662 21.120557319194717  307.275547751972 22.855620490747942  C 305.27350978305566 24.59030025879542  302.84478938247855 26.146698510718142  299.9894238339105 27.5248191028321  C 299.9894238339105 27.5248191028321  298.3184967870027 25.03494291948954  298.3184967870027 25.03494291948954  C 301.6159708856771 23.46052307457448  304.32752296263845 21.623764394063933  306.45311970423705 19.524665678215158  C 308.5806469114136 17.4254711543379  310.157959409818 15.087391223175265  311.18504157828283 12.510426570294545  C 312.21405429863046 9.933461917413823  312.7285302795176 7.15090077665336  312.7285302795176 4.162742633837692  Z M 299.89388926270897 7  L 299.89388926270897 4  L 314.05487888691124 4  L 314.05487888691124 7  L 299.89388926270897 7  Z M 356 33.82412944707021  L 356 0.014607382202801417  L 359 0.014607382202801417  L 359 33.82412944707021  L 356 33.82412944707021  Z M 358.26378893276535 16.53825230414714  L 358.26378893276535 13.937928488458395  L 364.34813036564276 13.937928488458395  L 364.34813036564276 16.53825230414714  L 358.26378893276535 16.53825230414714  Z M 339.84293840775774 3.996281411802783  C 339.84293840775774 3.996281411802783  339.84293840775774 3.673278440821262  339.84293840775774 3.673278440821262  C 339.84293840775774 3.673278440821262  342.72435298634673 3.673278440821262  342.72435298634673 3.673278440821262  C 342.72435298634673 5.702771338540036  342.6027485209409 7.714934466355848  342.35949223037494 9.709768338444164  C 342.1162359398089 11.70460221053248  341.6972779380271 13.656017392361305  341.10265143079806 15.564011827228782  C 340.50802492356905 17.47162285859051  339.7039492876951 19.317516209036555  338.6903814139328 21.101692564134197  C 337.6768135401706 22.885562127870514  336.40743325851196 24.593844984457387  334.88225498185705 26.226541133894816  C 334.88225498185705 26.226541133894816  332.38019484071725 24.46646229757424  332.38019484071725 24.46646229757424  C 333.77795324092443 23.01685734726558  334.9546402777297 21.495757498165176  335.91029004152574 19.90316463558306  C 336.86787035720437 18.310552577116884  337.6352807401033 16.65331054789612  338.21253180571205 14.931436148435253  C 338.79171346635576 13.209178345468645  339.2077582283219 11.433962183431737  339.4606675587918 9.605791090160967  C 339.7155074842968 7.777619996890196  339.84293840775774 5.907783894482327  339.84293840775774 3.996281411802783  Z M 333.474821296686 6.238577994906929  L 333.474821296686 3.673278440821262  L 341.0099890830601 3.673278440821262  L 341.0099890830601 6.238577994906929  L 333.474821296686 6.238577994906929  Z M 349.1243296838368 3.9589001698639863  C 349.1243296838368 3.9589001698639863  349.1243296838368 3.673278440821262  349.1243296838368 3.673278440821262  C 349.1243296838368 3.673278440821262  352.0318152138637 3.673278440821262  352.0318152138637 3.673278440821262  C 352.0318152138637 5.710171009061739  351.93526727337576 7.799043460460895  351.7422067126358 9.93989408110051  C 351.5510767685071 12.080744701740121  351.1900740524805 14.223932078480468  350.6591575266277 16.369460153333446  C 350.1282410007749 18.514585628796617  349.3772358641818 20.60810656919123  348.4061412538005 22.65002160338269  C 347.4369772816067 24.691994053834517  346.1656697276474 26.629588541923383  344.5922261867444 28.462801297029205  C 344.5922261867444 28.462801297029205  342.06701150568347 26.755055925196025  342.06701150568347 26.755055925196025  C 343.5226880158569 25.100506118714755  344.7080706056322 23.348054389863634  345.6231776579299 21.49770365230363  C 346.5402152621102 19.64693129086159  347.25164197064123 17.74671958723792  347.75746063158107 15.79706905560809  C 348.2652098875559 13.847399328094198  348.61944453867505 11.873977950499977  348.82022750113146 9.87680543700089  C 349.02294108019913 7.8792495199960575  349.1243296838368 5.90661448808103  349.1243296838368 3.9589001698639863  Z M 343.8306009003293 6.238577994906929  L 343.8306009003293 3.673278440821262  L 350.3840427068771 3.673278440821262  L 350.3840427068771 6.238577994906929  L 343.8306009003293 6.238577994906929  Z M 376.1808072742207 10.34174071802436  C 376.1808072742207 10.34174071802436  376.1808072742207 4.865394258528884  376.1808072742207 4.865394258528884  L 378.72630427173937 4.865394258528884  C 378.72630427173937 4.865394258528884  378.72630427173937 10.34174071802436  378.72630427173937 10.34174071802436  C 378.72630427173937 12.125514473732196  378.4733698697275 13.886130966198293  377.96755120878777 15.623590366814469  C 377.4636631860354 17.360647168040842  376.76577260731926 18.992377353169648  375.8738328680519 20.51877663740535  C 374.9799624905971 22.044850105787482  373.94419831901445 23.393332424303757  372.7665289610715 24.56422693509469  C 371.58885960312864 25.73512144588563  370.3252616562005 26.658535549455117  368.97576843393665 27.33446448968009  C 368.97576843393665 27.33446448968009  367.16003713641487 24.867302521719484  367.16003713641487 24.867302521719484  C 368.38790222418385 24.275720938775954  369.5481841009879 23.465986445987483  370.64090684586415 22.438099043354065  C 371.7316989525529 21.4096940374183  372.691219399946 20.234123443548572  373.5194492009896 18.911384605171648  C 374.34960955391574 17.588626570910666  375.00021196808154 16.19345377794942  375.47127970262824 14.725867426030671  C 375.94427803221 13.258262049619686  376.1808072742207 11.796885737586353  376.1808072742207 10.34174071802436  Z M 376.7918396750416 10.34174071802436  C 376.7918396750416 10.34174071802436  376.7918396750416 4.865394258528884  376.7918396750416 4.865394258528884  L 379.3228429910829 4.865394258528884  C 379.3228429910829 4.865394258528884  379.3228429910829 10.34174071802436  379.3228429910829 10.34174071802436  C 379.3228429910829 11.757932575552365  379.5593722330936 13.166343415754785  380.03237056267534 14.566969382315627  C 380.50343829722203 15.967211945370721  381.1588371864842 17.28393210283146  381.99865055773813 18.517128569259174  C 382.83846392899204 19.749922521993  383.80282512583966 20.842929476120464  384.8916865943409 21.796150288600682  C 385.9805480628422 22.749371101080893  387.15530774104207 23.496755305738795  388.415993160169 24.03830358814166  C 388.415993160169 24.03830358814166  386.6552759889868 26.505462813833116  386.6552759889868 26.505462813833116  C 385.276823625435 25.864231291006718  383.99103827008 24.998234476147882  382.79792406555185 23.907469926923156  C 381.6048098610236 22.8168970794513  380.55748110628474 21.55221310736276  379.6558883486897 20.113419895967567  C 378.75622614297725 18.674626684572377  378.05349498741623 17.12642001908477  377.5476763264765 15.468802984557534  C 377.0437883037241 13.810783350640495  376.7918396750416 12.101762995043687  376.7918396750416 10.34174071802436  Z M 368.2662850503974 6  L 368.2662850503974 4  L 387.29237934124563 4  L 387.29237934124563 6  L 368.2662850503974 6  Z M 391 33.83879236022334  L 391 0.029185970579511986  L 395 0.029185970579511986  L 395 33.83879236022334  L 391 33.83879236022334  Z M 10 47.372803798548496  L 10 74.05809913879928  L 6.8383995151675725 74.05809913879928  C 6.8383995151675725 74.05809913879928  6.8383995151675725 55.14838183327174  6.8383995151675725 55.14838183327174  C 6.8383995151675725 54.430470937582896  6.841390336248334 53.81291286731805  6.847375213491027 53.29571027905046  C 6.8535531511811865 52.77869939253574  6.865815491720871 52.30415515755743  6.884156244343884 51.872066733582784  C 6.902496996966895 51.440170011361005  6.930101136844993 50.999068091469  6.966975703212739 50.54876830090713  C 6.587032537627851 50.93810796240641  6.231612705958476 51.269748309951986  5.900706930439517 51.54368548722786  C 5.569801154920559 51.81743096275086  5.15925616579737 52.155104259581805  4.669075415261613 52.55671261902516  C 4.669075415261613 52.55671261902516  1.5994142061731542 55.00230664010916  1.5994142061731542 55.00230664010916  L 0 52.94001603194651  L 7.279445998508861 47.372803798548496  L 10 47.372803798548496  Z M 28.74999577953353 65.36984456960904  L 19.632232864767765 65.36984456960904  L 19.632232864767765 62.66862170275968  L 28.74999577953353 62.66862170275968  L 28.74999577953353 65.36984456960904  Z M 49.705660840178176 71  L 49.705660840178176 74  L 32.09535177657192 74  L 32.09535177657192 71.52106689512736  C 32.09535177657192 71.52106689512736  39.28300261788847 64.27486198194974  39.28300261788847 64.27486198194974  C 40.61878856793571 62.93623126536027  41.743169550151435 61.74367557054156  42.65615290044293 60.697193440663135  C 43.56913625073443 59.650711310784715  44.26453439022236 58.61946617096709  44.74235927212037 57.603464105619956  C 45.22037717468472 56.58746204027282  45.45938776575793 55.47101356956688  45.45938776575793 54.2541114093497  C 45.45938776575793 52.74525253556616  45.00898178668507 51.592282010124954  44.108161284364975 50.79519957593835  C 43.20753384586363 49.998117141751734  42.02195180571505 49.599575710418655  40.551409640412565 49.599575710418655  C 39.26466103727886 49.599575710418655  38.124921685878995 49.81868580074134  37.13220435932212 50.25690859511201  C 36.139487032765246 50.6949396877298  35.12234898869004 51.31546750694186  34.08078729273358 52.1184925240757  C 34.08078729273358 52.1184925240757  32.44460310272089 50.074317345927916  32.44460310272089 50.074317345927916  C 33.155452043824745 49.47794330485849  33.93058321022534 48.94856379896749  34.770010453841756 48.48618701221442  C 35.609437697458155 48.023810225461354  36.5101665440896 47.65882103564439  37.472187241294634 47.391209909093426  C 38.43420793849966 47.123407102213555  39.460617533723834 46.98950038562715  40.551409640412565 46.98950038562715  C 42.20574545418861 46.98950038562715  43.6334285736918 47.2755170871236  44.83445822217901 47.84754543405776  C 46.03529480684747 48.41938207923904  46.96352256084584 49.23467378046305  47.619156199141074 50.2934246511335  C 48.27478983743631 51.35198382005109  48.60260551304544 52.61134719011433  48.60260551304544 54.07151467562731  C 48.60260551304544 55.48299077286975  48.32073764542116 56.794115158735  47.75700083136271 58.00488294855617  C 47.19326401730425 59.215650738377335  46.40287977356523 60.41424482417175  45.38583675106555 61.600666919857645  C 44.3686007510519 62.787089015543536  43.179823017081006 64.0434825938116  41.81951839357699 65.36984456960904  C 41.81951839357699 65.36984456960904  35.97413490584993 71.1558789122209  35.97413490584993 71.1558789122209  L 35.97413490584993 71  L 49.705660840178176 71  Z M 53.61021665153449 63  L 53.61021665153449 61  L 84.47016988138598 61  L 84.47016988138598 63  L 53.61021665153449 63  Z M 67.7077853722599 70.05600960093359  L 67.7077853722599 62.27553935804406  L 70.82146340592658 62.27553935804406  L 70.82146340592658 70.05600960093359  L 67.7077853722599 70.05600960093359  Z M 57.524902574106314 76  L 57.524902574106314 73  L 81.03765294924351 73  L 81.03765294924351 76  L 57.524902574106314 76  Z M 57.524902574106314 74.62226617133925  L 57.524902574106314 67.04739481581497  L 60.6238107509626 67.04739481581497  L 60.6238107509626 74.62226617133925  L 57.524902574106314 74.62226617133925  Z M 58 57  L 58 44.2227208324418  L 60.80799760406655 44.2227208324418  L 60.80799760406655 48  L 77.280784658978 48  L 77.280784658978 44.2227208324418  L 81 44.2227208324418  L 81 57  L 58 57  Z M 77.280784658978 51  L 60.80799760406655 51  L 60.80799760406655 55  L 77.280784658978 55  L 77.280784658978 51  Z M 116.2350944425082 54.49076375258664  L 116.2350944425082 51.91145668767506  L 123.90404156020176 51.91145668767506  L 123.90404156020176 54.49076375258664  L 116.2350944425082 54.49076375258664  Z M 123 63.30697808492459  L 123 43.16138040273321  L 126 43.16138040273321  L 126 63.30697808492459  L 123 63.30697808492459  Z M 108.80825366876155 65.08085876188471  C 110.5073795980483 64.5858932341667  112.5275545189134 64.33841132726681  114.86879983494516 64.33841132726681  C 117.22008429694212 64.33841132726681  119.23903507064357 64.5858932341667  120.92561211062623 65.08085876188471  C 122.6123821281228 65.5756326306978  123.91321023603915 66.29229669372978  124.8281242245181 67.23085262205092  C 125.74303821299708 68.16883344511345  126.2004946894078 69.30732924562206  126.2004946894078 70.64634336571727  C 126.2004946894078 72.64173306148423  125.19051234821139 74.1880700992819  123.17051987567565 75.28535233671248  C 121.15052740313995 76.3830179776488  118.38327421369827 76.93184912704669  114.86879983494516 76.93184912704669  C 111.35471175643914 76.93184912704669  108.58371984342656 76.3830179776488  106.55581184062707 75.28535233671248  C 104.52848294297901 74.1880700992819  103.5148121076004 72.64173306148423  103.5148121076004 70.64634336571727  C 103.5148121076004 69.30732924562206  103.97217442548353 68.16883344511345  104.88689535014373 67.23085262205092  C 105.80180933862269 66.29229669372978  107.10893476196085 65.5756326306978  108.80825366876155 65.08085876188471  Z M 119.26973109586189 67.22308651581385  C 118.0474647725318 66.9167522993259  116.58047465353603 66.76358641224867  114.86879983494516 66.76358641224867  C 113.15731799386826 66.76358641224867  111.68649525168837 66.9167522993259  110.45631339809451 67.22308651581385  C 109.22651767213813 67.52961243405466  108.27848970024779 67.96889400140553  107.61223772453113 68.54092234833969  C 106.94637187645193 69.11295069527385  106.61343306211032 69.81475521588496  106.61343306211032 70.64634336571727  C 106.61343306211032 71.45281901440282  106.94637187645193 72.14456497746211  107.61223772453113 72.72157748427504  C 108.27848970024779 73.29878169284086  109.22651767213813 73.74054904148167  110.45631339809451 74.0468832579696  C 111.68649525168837 74.35302577270467  113.15731799386826 74.50609816554302  114.86879983494516 74.50609816554302  C 116.58047465353603 74.50609816554302  118.0474647725318 74.35302577270467  119.26973109586189 74.0468832579696  C 120.49219048301072 73.74054904148167  121.43634155735883 73.29878169284086  122.10220740543802 72.72157748427504  C 122.76845938115471 72.14456497746211  123.10158651255153 71.45281901440282  123.10158651255153 70.64634336571727  C 123.10158651255153 69.81475521588496  122.76845938115471 69.11295069527385  122.10220740543802 68.54092234833969  C 121.43634155735883 67.96889400140553  120.49219048301072 67.52961243405466  119.26973109586189 67.22308651581385  Z M 106.72986858251551 49.30483662201445  C 106.72986858251551 49.30483662201445  106.72986858251551 46.56939572069255  106.72986858251551 46.56939572069255  L 109.29650956353089 46.56939572069255  C 109.29650956353089 46.56939572069255  109.29650956353089 49.30483662201445  109.29650956353089 49.30483662201445  C 109.29650956353089 51.37518058910779  108.89745700675817 53.31641818176443  108.09934472991505 55.128544258229724  C 107.30142551689067 56.94047854724624  106.18986623342522 58.526109302628136  104.7646932887849 59.8854433800483  C 103.33952034414456 61.24477745746847  101.68248595214565 62.280334172807514  99.79358148230901 62.9921107409483  C 99.79358148230901 62.9921107409483  98.19127848215236 60.524951515256845  98.19127848215236 60.524951515256845  C 99.46180998342578 60.072159644755594  100.61786033629916 59.45843470974114  101.65942203225562 58.68378103785699  C 102.70098372821207 57.90893566421997  103.60198391710821 57.0256869341933  104.36244943973423 56.03403056298145  C 105.1227218985415 55.04179908651097  105.70742098135803 53.97193114239621  106.11651630889719 52.8244239026721  C 106.5254185726176 51.67691666294799  106.72986858251551 50.50371907454934  106.72986858251551 49.30483662201445  Z M 107.3351123483561 49.28183446837159  C 107.3351123483561 49.28183446837159  107.3351123483561 46.56939572069255  107.3351123483561 46.56939572069255  L 109.87221361575065 46.56939572069255  C 109.87221361575065 46.56939572069255  109.87221361575065 49.28183446837159  109.87221361575065 49.28183446837159  C 109.87221361575065 50.730116616598295  110.21537661353061 52.135073140324835  110.90170688117769 53.496707638779476  C 111.58842327646224 54.857958733728374  112.55372601543357 56.0668094203249  113.79761514124402 57.12325986996088  C 115.04189039469196 58.179710319596865  116.48481545821546 59.00152442230183  118.12640940517345 59.58869695062519  C 118.12640940517345 59.58869695062519  116.54525038851355 62.041190520894375  116.54525038851355 62.041190520894375  C 114.70094288406406 61.36947893353669  113.08743605477996 60.39622580205675  111.7047363735206 59.121430740822944  C 110.32222975607999 57.84663567958914  109.2482274698484 56.35934115345396  108.48274237423979 54.659550418862025  C 107.71764340626866 52.95956806821313  107.3351123483561 51.166997627242715  107.3351123483561 49.28183446837159  Z M 99.15242387616128 48  L 99.15242387616128 45  L 117.32859410311812 45  L 117.32859410311812 48  L 99.15242387616128 48  Z M 136.60375435630553 61  L 136.60375435630553 59  L 159.98358706716235 59  L 159.98358706716235 61  L 136.60375435630553 61  Z M 132.6974641638578 72  L 132.6974641638578 70  L 163.55714121837624 70  L 163.55714121837624 72  L 132.6974641638578 72  Z M 147 71.15358089067193  L 147 60.03382207929816  L 150 60.03382207929816  L 150 71.15358089067193  L 147 71.15358089067193  Z M 137 60.06631248420525  L 137 45  L 159.6424552958044 45  L 159.6424552958044 48  L 140 48  L 140 60.06631248420525  L 137 60.06631248420525  Z M 177.1117160933259 72  L 177.1117160933259 70  L 207.97195654552374 70  L 207.97195654552374 72  L 177.1117160933259 72  Z M 190.83892264544556 70.8562531001887  L 190.83892264544556 61.81115253085088  L 193.93752150592886 61.81115253085088  L 193.93752150592886 70.8562531001887  L 190.83892264544556 70.8562531001887  Z M 190.75059072692946 48.01748385337678  C 190.75059072692946 48.01748385337678  190.75059072692946 45.40540118756636  190.75059072692946 45.40540118756636  L 193.48636148189203 45.40540118756636  C 193.48636148189203 45.40540118756636  193.48636148189203 48.01748385337678  193.48636148189203 48.01748385337678  C 193.48636148189203 49.4671079995695  193.2316879520252 50.83756069296037  192.72239422865277 52.128841847853494  C 192.2132935690991 53.41993130099374  191.5070120933272 54.61747501200722  190.6034886975447 55.721466725092434  C 189.70035142939963 56.82545843817765  188.6627318774078 57.81586990489063  187.49066128390373 58.6926988971377  C 186.31878375421837 59.56914448587902  185.06504440363148 60.30526571980416  183.729451517403 60.90106469846293  C 182.39385863117448 61.49648027361596  181.03664812075314 61.938247622256775  179.6578096295639 62.2263704721575  C 179.6578096295639 62.2263704721575  178.321341957968 59.64246736414798  178.321341957968 59.64246736414798  C 179.51619373686495 59.42910693385293  180.70834434839526 59.070057199082434  181.8977904266721 58.565315010511796  C 183.08742956876767 58.06038112018828  184.2140315184897 57.440711288437  185.27760205825922 56.706314299088824  C 186.34117259802875 55.97191730974066  187.2840885213523 55.14483470812427  188.1063334303195 54.22506529449691  C 188.92877140310543 53.304912477363814  189.5750259976338 52.31920297389474  190.04512845623915 51.2679283858904  C 190.51542397866328 50.216462096133206  190.75059072692946 49.13297750024253  190.75059072692946 48.01748385337678  Z M 191.31239763639115 48.01748385337678  C 191.31239763639115 48.01748385337678  191.31239763639115 45.40540118756636  191.31239763639115 45.40540118756636  L 194.0252789797523 45.40540118756636  C 194.0252789797523 45.40540118756636  194.0252789797523 48.01748385337678  194.0252789797523 48.01748385337678  C 194.0252789797523 49.14275411824722  194.2641122576312 50.229686860508174  194.74174407571047 51.278277709668195  C 195.21976197827482 52.32648515532248  195.86998771517776 53.30836696523152  196.69242568796372 54.223919025991584  C 197.5146705969309 55.138895981493036  198.45891578665425 55.967512968395596  199.52518921988622 56.709769558219726  C 200.59146265311819 57.451451042785244  201.72184734185478 58.07226487210021  202.91631299311425 58.572214559696995  C 204.1109717081924 59.072355949046646  205.30580303285373 59.42910693385293  206.50084787556938 59.64246736414798  C 206.50084787556938 59.64246736414798  205.13976745829396 62.2263704721575  205.13976745829396 62.2263704721575  C 203.77714606896498 61.94361516421731  202.42792772746233 61.50318970642264  201.0921417774151 60.90509034957735  C 199.75654889118658 60.30660758922631  198.49896578409746 59.57010136642108  197.3193657879671 58.69557279520848  C 196.1397657918367 57.821044223995884  195.09821937182838 56.831782110841026  194.19469597604584 55.72779039775581  C 193.2915587079008 54.62399038642348  192.5852330440756 53.424153367136135  192.07574625688446 52.12827145586998  C 191.5668386611495 50.832006141098084  191.31239763639115 49.46174035048906  191.31239763639115 48.01748385337678  Z M 220 70.66503467225397  L 220 60.55485870262321  L 223 60.55485870262321  L 223 70.66503467225397  L 220 70.66503467225397  Z M 232 70.66503467225397  L 232 60.55485870262321  L 235 60.55485870262321  L 235 70.66503467225397  L 232 70.66503467225397  Z M 211.74822339118126 72  L 211.74822339118126 70  L 242.60703877866067 70  L 242.60703877866067 72  L 211.74822339118126 72  Z M 220.72264026109144 46.370987063042556  C 222.59146643899768 45.649433919745036  224.72095000318956 45.28865730524832  227.1110396886209 45.28865730524832  C 229.5185047725202 45.28865730524832  231.65179903847914 45.649433919745036  233.5109721980577 46.370987063042556  C 235.3720758232141 47.09254020634008  236.83163881076158 48.10145196340417  237.88961058609226 49.39771727817607  C 238.9495129996104 50.693599189442224  239.47945255522262 52.22718287607123  239.47945255522262 53.99847707904601  C 239.47945255522262 55.74446716481707  238.9495129996104 57.26924054053366  237.88961058609226 58.57279043621881  C 236.83163881076158 59.87653194796092  235.3720758232141 60.885438220486705  233.5109721980577 61.59951516681401  C 231.65179903847914 62.31340041138845  229.5185047725202 62.670343847786825  227.1110396886209 62.670343847786825  C 224.72095000318956 62.670343847786825  222.59146643899768 62.31340041138845  220.72264026109144 61.59951516681401  C 218.85574472137264 60.885438220486705  217.39237120466768 59.87653194796092  216.33246879114955 58.57279043621881  C 215.2725663776314 57.26924054053366  214.7425826339659 55.74446716481707  214.7425826339659 53.99847707904601  C 214.7425826339659 52.22718287607123  215.2725663776314 50.693599189442224  216.33246879114955 49.39771727817607  C 217.39237120466768 48.10145196340417  218.85574472137264 47.09254020634008  220.72264026109144 46.370987063042556  Z M 231.9587784503259 48.526734203888644  C 230.55522822186114 48.00838144795176  228.93932315502886 47.749202177746334  227.1110396886209 47.749202177746334  C 225.30013179329052 47.749202177746334  223.689023028945 48.00838144795176  222.27775042034 48.526734203888644  C 220.86840836361768 49.04508695982551  219.76218271627135 49.77066571138949  218.95905086644564 50.703470672820366  C 218.15784956850257 51.636083932498366  217.75722419320826 52.734417144581265  217.75722419320826 53.99847707904601  C 217.75722419320826 55.23704110885826  218.15784956850257 56.322824497561086  218.95905086644564 57.25582116074484  C 219.76218271627135 58.18843442042284  220.86840836361768 58.916410943576174  222.27775042034 59.43974785939182  C 223.689023028945 59.962701371701726  225.30013179329052 60.22417395018102  227.1110396886209 60.22417395018102  C 228.93932315502886 60.22417395018102  230.55522822186114 59.962701371701726  231.9587784503259 59.43974785939182  C 233.3603980406032 58.916410943576174  234.4618272128531 58.18843442042284  235.26302851079618 57.25582116074484  C 236.06422980873924 56.322824497561086  236.46481099598026 55.23704110885826  236.46481099598026 53.99847707904601  C 236.46481099598026 52.734417144581265  236.06422980873924 51.636083932498366  235.26302851079618 50.703470672820366  C 234.4618272128531 49.77066571138949  233.3603980406032 49.04508695982551  231.9587784503259 48.526734203888644  Z M 249.6440746403563 54  L 249.6440746403563 52  L 265.9827840945886 52  L 265.9827840945886 54  L 249.6440746403563 54  Z M 249.6440746403563 53.1122579573528  L 249.6440746403563 44  L 265.61213470363657 44  L 265.61213470363657 47  L 252.8382964481477 47  L 252.8382964481477 53.1122579573528  L 249.6440746403563 53.1122579573528  Z M 256.1425023205647 59.02682793963418  L 256.1425023205647 53.38571703714129  L 259.2787935904998 53.38571703714129  L 259.2787935904998 59.02682793963418  L 256.1425023205647 59.02682793963418  Z M 271 61.33669609133337  L 271 43.16943170496204  L 274 43.16943170496204  L 274 61.33669609133337  L 271 61.33669609133337  Z M 253.86341509629952 60.45536369326815  C 251.43278269936988 60.515365324278356  249.14310190715844 60.54536496682068  246.99433802513906 60.54536496682068  C 246.99433802513906 60.54536496682068  246.5859962247351 58.06584359179422  246.5859962247351 58.06584359179422  C 248.79267838933035 58.05069940906601  251.14224176117378 58.02175018013559  253.6346535444446 57.97900141230423  C 256.12706532771546 57.93606094539799  258.6455214805484 57.84203641218256  261.1900594592231 57.69692063830339  C 263.7365280760853 57.55161317338333  266.1864944724228 57.348699031789344  268.53990255012116 57.08818076297478  C 268.53990255012116 57.08818076297478  268.71652219910015 59.26376547886287  268.71652219910015 59.26376547886287  C 266.3187101335285 59.61265675607331  263.85238276524314 59.88352790504597  261.31749780489616 60.076376611991286  C 258.78068220636175 60.268650213677965  256.29597795880704 60.394978664108194  253.86341509629952 60.45536369326815  Z M 251.8478654218243 65  L 251.8478654218243 62  L 274.29115443733843 62  L 274.29115443733843 70  L 254.97836805677917 70  L 254.97836805677917 75.10304628352014  L 251.90871237119737 75.10304628352014  L 251.90871237119737 68  L 271.23020379825374 68  L 271.23020379825374 65  L 251.8478654218243 65  Z M 251.90871237119737 76  L 251.90871237119737 74  L 275.4466278426802 74  L 275.4466278426802 76  L 251.90871237119737 76  Z M 304.5678805988985 46.24590668250392  C 304.5678805988985 46.24590668250392  304.5678805988985 44.34061098326518  304.5678805988985 44.34061098326518  L 307.3044909268735 44.34061098326518  C 307.3044909268735 44.34061098326518  307.3044909268735 46.24590668250392  307.3044909268735 46.24590668250392  C 307.3044909268735 47.53086176524816  307.05738296134064 48.74287463096002  306.563147956916 49.88194716494955  C 306.0708435475264 51.02082799718622  305.38743072705364 52.06606376573528  304.51286647255904 53.01765515616403  C 303.6402327699471 53.96905484483992  302.6285834517015 54.81463765111149  301.477942596859 55.5544022038442  C 300.3253711038291 56.294166756576885  299.0801500361703 56.913446157757726  297.7422403841169 57.41224567768522  C 296.40433073206344 57.91066179410698  295.02777966307 58.27911012079482  293.6126458643949 58.51758307366063  C 293.6126458643949 58.51758307366063  292.3587214763349 56.02109253712463  292.3587214763349 56.02109253712463  C 293.59817022061895 55.842429524228145  294.81156674160485 55.541844710680095  295.9988891178755 55.11934120295726  C 297.1862114941461 54.69683769523443  298.29920524955224 54.17809969332973  299.3378709882275 53.56313088216733  C 300.37653672690277 52.948353772757805  301.2867974199346 52.254693920070544  302.0686926812222 51.482148967468  C 302.8505879425099 50.70960401486545  303.46259761563806 49.8815644470111  303.90470629520166 48.9980260648053  C 304.3468149747652 48.114104279093766  304.5678805988985 47.19673126592119  304.5678805988985 46.24590668250392  Z M 305.11519382688283 46.24590668250392  C 305.11519382688283 46.24590668250392  305.11519382688283 44.34061098326518  305.11519382688283 44.34061098326518  L 307.82864961493664 44.34061098326518  C 307.82864961493664 44.34061098326518  307.82864961493664 46.24590668250392  307.82864961493664 46.24590668250392  C 307.82864961493664 47.181587084531984  308.0535700857379 48.08745516456713  308.50340118859407 48.963517349802714  C 308.95323229145026 49.839771236791165  309.5729517010668 50.66417009956325  310.3625693424947 51.436715052165795  C 311.15218698392255 52.20926000476834  312.06249186500764 52.906851971483185  313.09343522354266 53.52948872421661  C 314.12437858207767 54.151742073444304  315.2335174476635 54.67795387283371  316.42083982393416 55.10812532212759  C 317.6081622002048 55.53810506966859  318.8147906131308 55.842429524228145  320.0407251490171 56.02109253712463  C 320.0407251490171 56.02109253712463  318.786800760957 58.51758307366063  318.786800760957 58.51758307366063  C 317.3871118088672 58.27911012079482  316.0211836514492 57.90682865885658  314.6890658276533 57.400744600863796  C 313.35887864204494 56.894085437612375  312.1145991596622 56.26713423854451  310.95623583837465 55.519893488841596  C 309.7959419652045 54.77265273913869  308.7794961718625 53.923429227784844  307.90686246925054 52.972221240861835  C 307.03422876663865 52.0204381486802  306.3507718012649 50.97903555822949  305.85653679684026 49.84801432646878  C 305.3623017924157 48.71641807514537  305.11519382688283 47.51571758385895  305.11519382688283 46.24590668250392  Z M 304 76.97095936968552  L 304 64.09945547794261  L 307 64.09945547794261  L 307 76.97095936968552  L 304 76.97095936968552  Z M 290.7949504586425 64  L 290.7949504586425 62  L 321.5639757218474 62  L 321.5639757218474 64  L 290.7949504586425 64  Z M 343.6973739196759 65.77356143409422  C 343.6973739196759 65.77356143409422  343.6973739196759 63.962874020582554  343.6973739196759 63.962874020582554  L 346.1270540295353 63.962874020582554  C 346.1270540295353 63.962874020582554  346.1270540295353 65.77356143409422  346.1270540295353 65.77356143409422  C 346.1270540295353 67.24197200928482  345.8239623896345 68.68191611676454  345.21775226904265 70.09339221400697  C 344.6115421484509 71.50448490774366  343.73696089191236 72.77093712925947  342.5940424172101 73.89275676257817  C 341.4530545806954 75.01419299239116  340.0610841250302 75.88095982785815  338.41813881764574 76.49305315557541  C 338.41813881764574 76.49305315557541  336.8601564349337 74.19468608069764  336.8601564349337 74.19468608069764  C 338.30424937489676 73.671349164882  339.5340510558837 72.95315071656384  340.5495495678334 72.0400906928952  C 341.5650480797832 71.12703066922657  342.34308137425757 70.12339298130813  342.8836509184381 69.0291778862276  C 343.42615105765367 67.93457938764132  343.6973739196759 66.84937341798671  343.6973739196759 65.77356143409422  Z M 344.3837027632939 65.77356143409422  C 344.3837027632939 65.77356143409422  344.3837027632939 63.962874020582554  344.3837027632939 63.962874020582554  L 346.7004382089577 63.962874020582554  C 346.7004382089577 63.962874020582554  346.7004382089577 65.77356143409422  346.7004382089577 65.77356143409422  C 346.7004382089577 66.90036522729173  346.927286124669 68.02726277181586  347.3809784175954 69.15425826676623  C 347.8327401154866 70.28106205996373  348.5122980461391 71.30549883104545  349.41968263199175 72.22756866570728  C 350.3270672178444 73.14963850036911  351.45453868834153 73.88691461523862  352.80210135872267 74.43938972616341  C 352.80210135872267 74.43938972616341  351.49607925583996 76.79871744427922  351.49607925583996 76.79871744427922  C 349.8608563285958 76.15192669916338  348.5161740806334 75.25065620475256  347.4620634953728 74.09490587535083  C 346.4098834619949 72.9391555459491  345.6337776124307 71.6358899892966  345.1337507797485 70.18511563258664  C 344.6337239470663 68.73414965981972  344.3837027632939 67.26363387887989  344.3837027632939 65.77356143409422  Z M 356.27722662124495 65.77356143409422  C 356.27722662124495 65.77356143409422  356.27722662124495 63.962874020582554  356.27722662124495 63.962874020582554  L 358.5939178788554 63.962874020582554  C 358.5939178788554 63.962874020582554  358.5939178788554 65.77356143409422  358.5939178788554 65.77356143409422  C 358.5939178788554 67.09244712722554  358.33717281822885 68.47497677395967  357.8236317339964 69.92115028860067  C 357.31202128795144 71.36694039973595  356.5359153952348 72.70288394964467  355.4953190183721 73.92898762260792  C 354.45472264150936 75.15509129557117  353.12164916475643 76.11166997377946  351.49607925583996 76.79871744427922  C 351.49607925583996 76.79871744427922  350.17551928342664 74.43938972616341  350.17551928342664 74.43938972616341  C 351.5230819538077 73.82192883506163  352.65055342430486 73.02082023558513  353.55793801015756 72.03606504178079  C 354.4653225960102 71.05092644447069  355.14492471471596 70.00367785036441  355.5966864126072 68.89431857389468  C 356.0503787055335 67.7845758939192  356.27722662124495 66.7443226570266  356.27722662124495 65.77356143409422  Z M 356.8940476570461 65.77356143409422  C 356.8940476570461 65.77356143409422  356.8940476570461 63.962874020582554  356.8940476570461 63.962874020582554  L 359.3237277669055 63.962874020582554  C 359.3237277669055 63.962874020582554  359.3237277669055 65.77356143409422  359.3237277669055 65.77356143409422  C 359.3237277669055 66.9241359018643  359.59400900049934 68.05295269201083  360.13457854467987 69.1600115474461  C 360.67707868389545 70.26668699937561  361.45605360679826 71.26016175212266  362.471552118748 72.14044129022552  C 363.48898118258035 73.02091253008126  364.71878294987215 73.70566317877483  366.1609452516478 74.19468608069764  C 366.1609452516478 74.19468608069764  364.6029628689356 76.49305315557541  364.6029628689356 76.49305315557541  C 362.96001756155124 75.89073644586283  361.5622648574603 75.0488932377548  360.4096933644304 73.96752198872493  C 359.2532606813304 72.8857673361893  358.3786793816394 71.63685295424834  357.78598351259785 70.22077610063288  C 357.1913570053688 68.80450754526454  356.8940476570461 67.32210197085104  356.8940476570461 65.77356143409422  Z M 360 62.4880377945945  L 360 43.18409736038431  L 363 43.18409736038431  L 363 62.4880377945945  L 360 62.4880377945945  Z M 340.2773069715464 46.12570754105497  C 341.61907781366995 45.45898011357607  343.1423339963117 45.12561843511449  344.84705869003733 45.12561843511449  C 346.5672281440434 45.12561843511449  348.0943393028103 45.45898011357607  349.42838767848883 46.12570754105497  C 350.7643666923548 46.792243266781014  351.8155944386625 47.717958905431814  352.58204485336483 48.902847387094724  C 353.3484952680672 50.08735246525188  353.73172962372627 51.464036108330454  353.73172962372627 53.03289668810813  C 353.73172962372627 54.58622968299084  353.3484952680672 55.9514084786279  352.58204485336483 57.12843727411893  C 351.8155944386625 58.305657771362846  350.7643666923548 59.227534833072916  349.42838767848883 59.89407055879896  C 348.0943393028103 60.56079798627786  346.5672281440434 60.89416514927774  344.84705869003733 60.89416514927774  C 343.1423339963117 60.89416514927774  341.61907781366995 60.56079798627786  340.2773069715464 59.89407055879896  C 338.93360557754016 59.227534833072916  337.87852294141214 58.305657771362846  337.11207252670977 57.12843727411893  C 336.34562211200745 55.9514084786279  335.96243194440166 54.58622968299084  335.96243194440166 53.03289668810813  C 335.96243194440166 51.464036108330454  336.34562211200745 50.08735246525188  337.11207252670977 48.902847387094724  C 337.87852294141214 47.717958905431814  338.93360557754016 46.792243266781014  340.2773069715464 46.12570754105497  Z M 347.86461666079646 48.40337596837715  C 346.9881217681144 47.95173426554518  345.98225469829447 47.72591482811172  344.84705869003733 47.72591482811172  C 343.7369605466931 47.72591482811172  342.74171638844865 47.95173426554518  341.86136030569645 48.40337596837715  C 340.98100422294425 48.85520933011404  340.2869684908961 49.4757371493261  339.77921923492124 50.26495989734084  C 339.27146997894636 51.05418264535558  339.0175939485061 51.976829641977886  339.0175939485061 53.03289668810813  C 339.0175939485061 54.07880371272793  339.27146997894636 54.9989539589837  339.77921923492124 55.7933525686301  C 340.2869684908961 56.587751178276484  340.98100422294425 57.20703606399562  341.86136030569645 57.65120152700943  C 342.74171638844865 58.095175288270354  343.7369605466931 58.31716159045343  344.84705869003733 58.31716159045343  C 345.98225469829447 58.31716159045343  346.9881217681144 58.095175288270354  347.86461666079646 57.65120152700943  C 348.7411115534785 57.20703606399562  349.4322340241348 56.587751178276484  349.93805268507464 55.7933525686301  C 350.44580194104947 54.9989539589837  350.6996779714898 54.07880371272793  350.6996779714898 53.03289668810813  C 350.6996779714898 51.976829641977886  350.44580194104947 51.05418264535558  349.93805268507464 50.26495989734084  C 349.4322340241348 49.4757371493261  348.7411115534785 48.85520933011404  347.86461666079646 48.40337596837715  Z M 373 76  L 373 63.42544411226979  L 376.8207828499431 63.42544411226979  L 376.8207828499431 67  L 393.4838326152851 67  L 393.4838326152851 63.42544411226979  L 396 63.42544411226979  L 396 76  L 373 76  Z M 393.4838326152851 69  L 376.8207828499431 69  L 376.8207828499431 74  L 393.4838326152851 74  L 393.4838326152851 69  Z M 369.8300560680898 61  L 369.8300560680898 58  L 400.5990813312947 58  L 400.5990813312947 61  L 369.8300560680898 61  Z M 383.6261849363203 45.03504128504015  C 383.6261849363203 45.03504128504015  383.6261849363203 43.52052442442976  383.6261849363203 43.52052442442976  L 386.3164861844529 43.52052442442976  C 386.3164861844529 43.52052442442976  386.3164861844529 45.03504128504015  386.3164861844529 45.03504128504015  C 386.3164861844529 46.21072825395699  386.0693340308668 47.31481388976064  385.57509902644216 48.347302048767084  C 385.0808640220175 49.37959850602067  384.40229190784686 50.32582173319352  383.5393112235626 51.185972930028406  C 382.6782611774658 52.04574072335754  381.67624899746625 52.812252083955386  380.53333052276406 53.48549724248811  C 379.39234268624926 54.15835899751507  378.1596718887713 54.71965196059246  376.8352765314205 55.169376645895696  C 375.51088117406965 55.6187179276932  374.14593878998096 55.95284407795268  372.7404580096335 56.17176377338515  C 372.7404580096335 56.17176377338515  371.58206819277507 53.72502348379582  371.58206819277507 53.72502348379582  C 372.8041414522864 53.556137099616016  374.0021185866005 53.28516698257815  375.1759267544733 52.91212167013736  C 376.35166547422875 52.539076357696565  377.45112309982005 52.07977116948092  378.47434399191 51.534197235963646  C 379.49949552218743 50.98862330244636  380.39725004678695 50.37671867712509  381.1675616515594 49.69848935871359  C 381.93980389451934 49.02006833854922  382.54213228450067 48.28605338157222  382.97458790258406 47.496447230051736  C 383.408974158855 46.70664937677838  383.6261849363203 45.88618267088183  383.6261849363203 45.03504128504015  Z M 384.1358499429061 45.03504128504015  C 384.1358499429061 45.03504128504015  384.1358499429061 43.52052442442976  384.1358499429061 43.52052442442976  L 386.80586887458105 43.52052442442976  C 386.80586887458105 43.52052442442976  386.80586887458105 45.03504128504015  386.80586887458105 45.03504128504015  C 386.80586887458105 45.87103848949262  387.025948725385 46.68019830550203  387.4661267667611 47.46251987610926  C 387.9063048081372 48.244458128906665  388.51638712266003 48.978473043035706  389.2963517457602 49.66456200477112  C 390.0763163688604 50.350267563000784  390.9740708934599 50.96973948004565  391.9895694054096 51.52298135513397  C 393.0050679173593 52.07603157131738  394.1006706531303 52.54291497748526  395.2764093728857 52.92362823149709  C 396.45214809264115 53.3045331872618  397.6423713455661 53.57166467379898  398.8470692066095 53.72502348379582  C 398.8470692066095 53.72502348379582  397.688679389751 56.17176377338515  397.688679389751 56.17176377338515  C 396.29864345598884 55.95284407795268  394.94530984310967 55.6187179276932  393.6286368658991 55.169376645895696  C 392.313894526876 54.71965196059246  391.081223729398 54.154520377726385  389.93058287455557 53.47399068112838  C 388.7818725715957 52.79326928277749  387.7760055880807 52.01909717906512  386.91302490379644 51.15146969956412  C 386.0500442195122 50.28403392181598  385.3714279172882 49.33790427457792  384.87719291286356 48.31308401429455  C 384.3829579084389 47.28807205225832  384.1358499429061 46.19539237081491  384.1358499429061 45.03504128504015  Z M 429 76.95629371426324  L 429 43.14671474731094  L 432 43.14671474731094  L 432 76.95629371426324  L 429 76.95629371426324  Z M 406 67.40079104136994  L 406 46.458975511037885  L 409 46.458975511037885  L 409 67.40079104136994  L 406 67.40079104136994  Z M 406.6283644497794 68.24877196201452  L 406.6283644497794 65.55962604850839  C 406.6283644497794 65.55962604850839  409.4200330921471 65.55962604850839  409.4200330921471 65.55962604850839  C 412.0166974388353 65.55962604850839  414.6654978196736 65.44613888931947  417.36641490238867 65.21916784881023  C 420.0673319851038 64.99181342621921  422.85320042764914 64.58119508439084  425.7240107364977 63.98731312326079  C 425.7240107364977 63.98731312326079  426.1120260323907 66.63332862755198  426.1120260323907 66.63332862755198  C 423.15626885156104 67.24120460240195  420.30962060477043 67.6624643839447  417.5720219143224 67.89710336602498  C 414.83442322387435 68.1315506463524  412.1170890710969 68.24877196201452  409.4200330921471 68.24877196201452  C 409.4200330921471 68.24877196201452  406.6283644497794 68.24877196201452  406.6283644497794 68.24877196201452  Z M 462 77  L 462 43.13204909188867  L 465 43.13204909188867  L 465 77  L 462 77  Z M 464.5610233325836 59.08462400427138  L 464.5610233325836 56.475991113053574  L 470.8509275893415 56.475991113053574  L 470.8509275893415 59.08462400427138  L 464.5610233325836 59.08462400427138  Z M 440.5655405693377 68.57945122991839  L 440.5655405693377 65.95644336380838  C 440.5655405693377 65.95644336380838  443.23843172447613 65.95644336380838  443.23843172447613 65.95644336380838  C 445.3447222568098 65.95644336380838  447.2685597993022 65.92385347666063  449.00996592815113 65.85867598401877  C 450.7533026951876 65.79330679498003  452.4300763738956 65.67588750569556  454.040201349922 65.50642602696911  C 455.6503263259483 65.33677284648981  457.3009693303026 65.09964645489728  458.9921797293256 64.79503753276121  C 458.9921797293256 64.79503753276121  459.3512960383704 67.42638738163014  459.3512960383704 67.42638738163014  C 457.60988990952137 67.74058124144199  455.91384195432124 67.98259664902812  454.2631742667966 68.1524415312603  C 452.6125065792719 68.32228641349249  450.8981261054653 68.43596605640946  449.12003836888334 68.49347560748028  C 447.34002016672355 68.55079346215422  445.3794732263553 68.57945122991839  443.23843172447613 68.57945122991839  C 443.23843172447613 68.57945122991839  440.5655405693377 68.57945122991839  440.5655405693377 68.57945122991839  Z M 440 67.13136309723417  L 440 46  L 456.3568926075324 46  L 456.3568926075324 49  L 443 49  L 443 67.13136309723417  L 440 67.13136309723417  Z M 475.24980410578047 73.99426459749044  C 474.83279333428237 73.61086756178635  474.62427802348225 72.99934792534518  474.62427802348225 72.15970847328403  C 474.62427802348225 71.30799198218372  474.83279333428237 70.70270325258228  475.24980410578047 70.3438436556143  C 475.6668148772786 69.98479235689344  476.17555279779333 69.80526747879621  476.77597109012754 69.80526747879621  C 477.40148729052726 69.80526747879621  477.9285135847475 69.98479235689344  478.3571080127609 70.3438436556143  C 478.7857024407742 70.70270325258228  479 71.30799198218372  479 72.15970847328403  C 479 72.99934792534518  478.7857024407742 73.61086756178635  478.3571080127609 73.99426459749044  C 477.9285135847475 74.37746993144167  477.40148729052726 74.56907163433829  476.77597109012754 74.56907163433829  C 476.17555279779333 74.56907163433829  475.6668148772786 74.37746993144167  475.24980410578047 73.99426459749044  Z " fill-rule="nonzero" fill="#55565d" stroke="none" transform="matrix(1 0 0 1 210 864 )" />
  </g>
</svg>