<?xml version="1.0" encoding="utf-8"?>
<svg version="1.1" xmlns:xlink="http://www.w3.org/1999/xlink" width="103px" height="25px" xmlns="http://www.w3.org/2000/svg">
  <g transform="matrix(1 0 0 1 -129 -312 )">
    <path d="M 16 14.597129484922311  L 16 0.02108047385059918  L 19 0.02108047385059918  L 19 14.597129484922311  L 16 14.597129484922311  Z M 17.88987118304819 8.633484032399384  L 17.88987118304819 5.675179424358865  L 22.17030362070014 5.675179424358865  L 22.17030362070014 8.633484032399384  L 17.88987118304819 8.633484032399384  Z M 0 13  L 0 1.4584666598916174  L 3.543726197259839 1.4584666598916174  L 3.543726197259839 4.614563792123182  L 8.424332411661757 4.614563792123182  L 8.424332411661757 1.4584666598916174  L 12 1.4584666598916174  L 12 13  L 0 13  Z M 8.424332411661757 7.382972470411804  L 3.543726197259839 7.382972470411804  L 3.543726197259839 10.561008401976483  L 8.424332411661757 10.561008401976483  L 8.424332411661757 7.382972470411804  Z M 2.697052323907319 23.89468277663487  L 2.697052323907319 15.699974730897795  L 19.02326408449857 15.699974730897795  L 19.02326408449857 18.525719551418504  L 6.267770576530167 18.525719551418504  L 6.267770576530167 23.89468277663487  L 2.697052323907319 23.89468277663487  Z M 2.697052323907319 24.727086829579132  L 2.697052323907319 21.87425325683021  L 19.50146521474428 21.87425325683021  L 19.50146521474428 24.727086829579132  L 2.697052323907319 24.727086829579132  Z M 42 25  L 42 0  L 45 0  L 45 25  L 42 25  Z M 33.822190331996715 3.2383933794952218  C 33.822190331996715 3.2383933794952218  33.822190331996715 2.588675322249719  33.822190331996715 2.588675322249719  C 33.822190331996715 2.588675322249719  37.366822245580856 2.588675322249719  37.366822245580856 2.588675322249719  C 37.366822245580856 4.503751826516627  37.18240113272973 6.326570679841849  36.813566283328605 8.05713563739937  C 36.44622468431933 9.787723126000808  35.83398942026295 11.419161682942807  34.97685902257464 12.951444870784249  C 34.11972862488632 14.483728058625692  32.954992451447986 15.90463546830925  31.48263962138104 17.214163881114366  C 30.0102867913141 18.523392282340676  28.167600521145673 19.71423795192124  25.954591491492792 20.786686204443516  C 25.954591491492792 20.786686204443516  24.080920751314835 17.94566319033402  24.080920751314835 17.94566319033402  C 26.47610733008051 16.787488137941832  28.385617815262986 15.497631740515846  29.809439790644973 14.076125917034945  C 31.23326176602696 12.654695062920407  32.258004955904816 11.050281286135503  32.88368024115713 9.2628426091996  C 33.50935552640946 7.475216441791112  33.822190331996715 5.467066609147415  33.822190331996715 3.2383933794952218  Z M 25.41365668904854 5.441886558210948  L 25.41365668904854 3  L 35.505472665210895 3  L 35.505472665210895 5.441886558210948  L 25.41365668904854 5.441886558210948  Z M 61.38513749210152 13.91795369711685  L 61.38513749210152 10.131124667313044  L 64.95552250947298 10.131124667313044  L 64.95552250947298 13.91795369711685  L 61.38513749210152 13.91795369711685  Z M 59.93257357576357 1.6512465632647682  C 60.871833178903366 1.2240222964635616  61.94100446469494 1.0104207580181335  63.140091037846545 1.0104207580181335  C 64.34291075366623 1.0104207580181335  65.41357285333389 1.2240222964635616  66.3520858145893 1.6512465632647682  C 67.2913454177291 2.07819331600274  68.0271407349961 2.675862482460119  68.55948738679272 3.44425416322192  C 69.09258068047372 4.212645843983722  69.3591323672304 5.094391877253963  69.3591323672304 6.08947596825981  C 69.3591323672304 7.084845050148525  69.09258068047372 7.966706286792122  68.55948738679272 8.735075436510007  C 68.0271407349961 9.503242075059362  67.2913454177291 10.100942456400498  66.3520858145893 10.528151702505761  C 65.41357285333389 10.955060937032213  64.34291075366623 11.168496845482187  63.140091037846545 11.168496845482187  C 61.94100446469494 11.168496845482187  60.871833178903366 10.955060937032213  59.93257357576357 10.528151702505761  C 58.99406061450816 10.100942456400498  58.2582482082539 9.503242075059362  57.725154914572904 8.735075436510007  C 57.19280826277628 7.966706286792122  56.926637807293794 7.084845050148525  56.926637807293794 6.08947596825981  C 56.926637807293794 5.094391877253963  57.19280826277628 4.212645843983722  57.725154914572904 3.44425416322192  C 58.2582482082539 2.675862482460119  58.99406061450816 2.07819331600274  59.93257357576357 1.6512465632647682  Z M 64.64752769224758 3.9825959058561144  C 64.21821588489597 3.796966876366669  63.71834251436927 3.704155119327842  63.14791779400752 3.704155119327842  C 62.58869250165 3.704155119327842  62.08994580271245 3.796966876366669  61.65167442625592 3.9825959058561144  C 61.21340304979938 4.167939927698524  60.871827705087135 4.439914841076316  60.62693330574762 4.798520109536065  C 60.38278554829248 5.156840387112947  60.26071630895794 5.587152580422523  60.26071630895794 6.08947596825981  C 60.26071630895794 6.5917993560970976  60.38278554829248 7.022246065103387  60.62693330574762 7.380843823215163  C 60.871827705087135 7.739171577611678  61.21340304979938 8.011161511685415  61.65167442625592 8.196768026895114  C 62.08994580271245 8.382172047700452  62.58869250165 8.47486548323038  63.14791779400752 8.47486548323038  C 63.71834251436927 8.47486548323038  64.21821588489597 8.382172047700452  64.64752769224758 8.196768026895114  C 65.07683949959919 8.011161511685415  65.41357832715012 7.739171577611678  65.65772608460526 7.380843823215163  C 65.90262048394477 7.022246065103387  66.02505386556625 6.5917993560970976  66.02505386556625 6.08947596825981  C 66.02505386556625 5.587152580422523  65.90262048394477 5.156840387112947  65.65772608460526 4.798520109536065  C 65.41357832715012 4.439914841076316  65.07683949959919 4.167939927698524  64.64752769224758 3.9825959058561144  Z M 71 19.08565676319281  L 71 0.026985753170311003  L 75 0.026985753170311003  L 75 19.08565676319281  L 71 19.08565676319281  Z M 74.21968465509322 10.803983179567183  L 74.21968465509322 7.866862044435168  L 78.6065131273701 7.866862044435168  L 78.6065131273701 10.803983179567183  L 74.21968465509322 10.803983179567183  Z M 58.87534629049105 24.577669529582703  L 58.87534629049105 21.703789816002484  L 76.31175265233941 21.703789816002484  L 76.31175265233941 24.577669529582703  L 58.87534629049105 24.577669529582703  Z M 58.87534629049105 22.945031462778886  L 58.87534629049105 17.462563275754572  L 62.4614019091717 17.462563275754572  L 62.4614019091717 22.945031462778886  L 58.87534629049105 22.945031462778886  Z M 60.57988732384551 15.79157522639193  C 58.93058337110262 15.82900103800117  57.420527695897654 15.847709712948493  56.04971642650694 15.847709712948493  C 56.04971642650694 15.847709712948493  55.63647053680242 13.010051334730457  55.63647053680242 13.010051334730457  C 57.03714694753772 13.010051334730457  58.58601464995947 12.99501339893353  60.28310288225679 12.964937747369405  C 61.98093782319236 12.934787095006095  63.713862329293676 12.867293869326554  65.4818804057921 12.762441599534169  C 67.2491517736523 12.657214323650356  68.94662717831703 12.491825019760798  70.57427898368972 12.266295137620475  C 70.57427898368972 12.266295137620475  70.82290665920503 14.827984706699882  70.82290665920503 14.827984706699882  C 69.14821728291615 15.133991353722626  67.43432603688882 15.361823878375667  65.68124053106267 15.511452121917923  C 63.928901733874774 15.660780353881373  62.22844470145789 15.75414941478269  60.57988732384551 15.79157522639193  Z M 86.16837289696576 20.4795430137799  L 86.16837289696576 14.587893902730437  L 89.67604133112593 14.587893902730437  L 89.67604133112593 20.4795430137799  L 86.16837289696576 20.4795430137799  Z M 94.03821039479958 20.467732455140478  L 94.03821039479958 14.576083344091012  L 97.5402736411414 14.576083344091012  L 97.5402736411414 20.467732455140478  L 94.03821039479958 20.467732455140478  Z M 80.46449617725162 22  L 80.46449617725162 19  L 103 19  L 103 22  L 80.46449617725162 22  Z M 83.01348951561597 4.471978762967582  L 83.01348951561597 2  L 100.46893300926199 2  L 100.46893300926199 10  L 86.59619569279542 10  L 86.59619569279542 14.145787613195965  L 83.05269165236986 14.145787613195965  L 83.05269165236986 7.105355676346747  L 96.9254289688364 7.105355676346747  L 96.9254289688364 4.471978762967582  L 83.01348951561597 4.471978762967582  Z M 83.05269165236986 15.52281635130644  L 83.05269165236986 12.654876250065234  L 101.03338225816367 12.654876250065234  L 101.03338225816367 15.52281635130644  L 83.05269165236986 15.52281635130644  Z " fill-rule="nonzero" fill="#3578ff" stroke="none" transform="matrix(1 0 0 1 129 312 )" />
  </g>
</svg>