<?xml version="1.0" encoding="utf-8"?>
<svg version="1.1" xmlns:xlink="http://www.w3.org/1999/xlink" width="296px" height="71px" xmlns="http://www.w3.org/2000/svg">
  <g transform="matrix(1 0 0 1 -305 -718 )">
    <path d="M 44 41  L 44 0  L 55 0  L 55 41  L 44 41  Z M 51.411668642546246 25  L 51.411668642546246 17  L 63.71271720123536 17  L 63.71271720123536 25  L 51.411668642546246 25  Z M 0 38  L 0 5  L 10.18391217853313 5  L 10.18391217853313 14  L 24.209731979144465 14  L 24.209731979144465 5  L 35 5  L 35 38  L 0 38  Z M 24.209731979144465 21  L 10.18391217853313 21  L 10.18391217853313 30  L 24.209731979144465 30  L 24.209731979144465 21  Z M 8 67  L 8 44  L 54.66879775739395 44  L 54.66879775739395 52  L 18 52  L 18 67  L 8 67  Z M 7.750752309481227 70  L 7.750752309481227 62  L 56.04304566567288 62  L 56.04304566567288 70  L 7.750752309481227 70  Z M 119 71  L 119 0  L 129 0  L 129 71  L 119 71  Z M 97.19775085700026 9.19703719776643  C 97.19775085700026 9.19703719776643  97.19775085700026 7.351837915189202  97.19775085700026 7.351837915189202  C 97.19775085700026 7.351837915189202  107.38426587079547 7.351837915189202  107.38426587079547 7.351837915189202  C 107.38426587079547 12.790655187307221  106.85427898337865 17.96746073075085  105.79432640645891 22.88226521021421  C 104.73866511221865 27.797133677842293  102.97923173201781 32.43041917955757  100.5160220454572 36.78210343302727  C 98.0528123588966 41.133787686496966  94.705609375035 45.16916472999827  90.47438182455134 48.8882254223648  C 86.2431542740677 52.60643408184752  80.94766751707883 55.988435783456325  74.58795224739677 59.03418882061958  C 74.58795224739677 59.03418882061958  69.20342274164264 50.96568346054861  69.20342274164264 50.96568346054861  C 76.08667737576535 47.6764663117548  81.5742026535713 44.013274143065004  85.665962893504 39.976197604379244  C 89.7577231334367 35.93933397869395  92.70261618395946 31.38279885262483  94.50067331439331 26.306473010126865  C 96.29873044482717 21.229614694686756  97.19775085700026 15.526469169978657  97.19775085700026 9.19703719776643  Z M 73.03342116464435 16  L 73.03342116464435 8  L 102.03514474662549 8  L 102.03514474662549 16  L 73.03342116464435 16  Z M 176 39  L 176 29  L 186 29  L 186 39  L 176 39  Z M 172.23341532452443 4.689540239671942  C 174.93264680539218 3.476223321956515  178.00521671407478 2.869594952771499  181.45113540973375 2.869594952771499  C 184.90778236005053 2.869594952771499  187.98463654938672 3.476223321956515  190.68172234095564 4.689540239671942  C 193.38095382182343 5.902069017447783  195.49547240348394 7.599449450186738  197.02532297563732 9.781681823550253  C 198.55731923708953 11.963914196913771  199.32333185145822 14.468072931401254  199.32333185145822 17.294111749857862  C 199.32333185145822 20.120959942421813  198.55731923708953 22.625445854489627  197.02532297563732 24.807614239688423  C 195.49547240348394 26.98920749316859  193.38095382182343 28.686676576177415  190.68172234095564 29.899950835116364  C 187.98463654938672 31.112373061171485  184.90778236005053 31.71853104116941  181.45113540973375 31.71853104116941  C 178.00521671407478 31.71853104116941  174.93264680539218 31.112373061171485  172.23341532452443 29.899950835116364  C 169.53632953295548 28.686676576177415  167.4217618411957 26.98920749316859  165.88976557974348 24.807614239688423  C 164.3599150075901 22.625445854489627  163.59499797047536 20.120959942421813  163.59499797047536 17.294111749857862  C 163.59499797047536 14.468072931401254  164.3599150075901 11.963914196913771  165.88976557974348 9.781681823550253  C 167.4217618411957 7.599449450186738  169.53632953295548 5.902069017447783  172.23341532452443 4.689540239671942  Z M 185.7831863777212 11.310572372631365  C 184.54943594106027 10.78338592888134  183.11290664323596 10.51980053889107  181.47362783520606 10.51980053889107  C 179.86653379114952 10.51980053889107  178.43324230682413 10.78338592888134  177.17374398225002 11.310572372631365  C 175.9142456576759 11.836949394663808  174.93263107481351 12.609358148656737  174.22885687865335 13.627797111082424  C 173.527228371792 14.645426699400769  173.17642745098593 15.867513328399964  173.17642745098593 17.294111749857862  C 173.17642745098593 18.720710171315755  173.527228371792 19.943178824893618  174.22885687865335 20.961596457931066  C 174.93263107481351 21.979247280417166  175.9142456576759 22.75169869318658  177.17374398225002 23.278821196382125  C 178.43324230682413 23.805368615469284  179.86653379114952 24.06861797237428  181.47362783520606 24.06861797237428  C 183.11290664323596 24.06861797237428  184.54943594106027 23.805368615469284  185.7831863777212 23.278821196382125  C 187.01693681438215 22.75169869318658  187.9846522799654 21.979247280417166  188.68628078682676 20.961596457931066  C 189.39005498298692 19.943178824893618  189.74190237094766 18.720710171315755  189.74190237094766 17.294111749857862  C 189.74190237094766 15.867513328399964  189.39005498298692 14.645426699400769  188.68628078682676 13.627797111082424  C 187.9846522799654 12.609358148656737  187.01693681438215 11.836949394663808  185.7831863777212 11.310572372631365  Z M 206 54  L 206 0  L 216 0  L 216 54  L 206 54  Z M 213.29152095055915 31  L 213.29152095055915 23  L 225.8983289873937 23  L 225.8983289873937 31  L 213.29152095055915 31  Z M 169.19516992218786 69  L 169.19516992218786 61  L 219.30367752516955 61  L 219.30367752516955 69  L 169.19516992218786 69  Z M 169 65  L 169 49  L 179 49  L 179 65  L 169 65  Z M 174.09365677532304 44.84807364295308  C 169.35390949365413 44.95436294792332  165.0143320192787 45.00749558477372  161.07491322568984 45.00749558477372  C 161.07491322568984 45.00749558477372  159.88733280479144 36.9485457906345  159.88733280479144 36.9485457906345  C 163.91257763564238 36.9485457906345  168.3636925862913 36.90583805297123  173.24076168104864 36.820423202529106  C 178.11997665694116 36.73479534981731  183.10003154826143 36.54311458888741  188.18093786518895 36.24533414267704  C 193.25969830098137 35.94648867916701  198.13788004642564 35.47678305612067  202.81540368128307 34.836278190842144  C 202.81540368128307 34.836278190842144  203.52990651577366 42.111476567027665  203.52990651577366 42.111476567027665  C 198.7172069489629 42.980535444572254  193.79184958173875 43.627579814586895  188.75385628344225 44.0525240262469  C 183.7180088662809 44.4766162050231  178.83125855952946 44.741784337982835  174.09365677532304 44.84807364295308  Z M 247 58  L 247 41  L 257 41  L 257 58  L 247 58  Z M 270 58  L 270 41  L 280 41  L 280 58  L 270 58  Z M 231.23777542200463 63  L 231.23777542200463 55  L 296 55  L 296 63  L 231.23777542200463 63  Z M 238.56303783128476 13  L 238.56303783128476 5  L 288 5  L 288 29  L 248 29  L 248 40.17403682147654  L 238 40.17403682147654  L 238 21  L 278.54298033762694 21  L 278.54298033762694 13  L 238.56303783128476 13  Z M 238.67569639904346 44  L 238.67569639904346 36  L 290.3483606642373 36  L 290.3483606642373 44  L 238.67569639904346 44  Z " fill-rule="nonzero" fill="#3578ff" stroke="none" transform="matrix(1 0 0 1 305 718 )" />
  </g>
</svg>