<?xml version="1.0" encoding="utf-8"?>
<svg version="1.1" xmlns:xlink="http://www.w3.org/1999/xlink" width="31px" height="17px" xmlns="http://www.w3.org/2000/svg">
  <g transform="matrix(1 0 0 1 -164 -435 )">
    <path d="M 4.098426998021588 10.235720513600883  L 4.098426998021588 7.899519218905514  L 6.238542411906719 7.899519218905514  L 6.238542411906719 10.235720513600883  L 4.098426998021588 10.235720513600883  Z M 11.123344212100948 11.575187336003882  L 11.123344212100948 0.14665057208426213  L 13.269129148259758 0.14665057208426213  L 13.269129148259758 11.575187336003882  L 11.123344212100948 11.575187336003882  Z M 12.490440081449005 6.829302147680817  L 12.490440081449005 5.032858858463639  L 15.459167376816163 5.032858858463639  L 15.459167376816163 6.829302147680817  L 12.490440081449005 6.829302147680817  Z M 3.416016414320394 11.151910786112047  C 2.2757442481365175 11.174210193415613  1.221571354633093 11.189493548873715  0.2535258713992919 11.197741274789633  C 0.2535258713992919 11.197741274789633  0 9.49355325606837  0 9.49355325606837  C 1.0000439131398227 9.49355325606837  2.0843177667799573 9.48643303734873  3.2528237823090222 9.472228619841577  C 4.4215180100374285 9.457947835341516  5.610148325527248 9.417338156472056  6.818746501367212 9.350363567568456  C 8.027344677207175 9.283083506425843  9.195855068198671 9.178262224450215  10.324268990731646 9.035912579273358  C 10.324268990731646 9.035912579273358  10.487461622743016 10.537901096460562  10.487461622743016 10.537901096460562  C 9.322908332659317 10.741421370801906  8.138316097789671 10.889008087725264  6.933670647395071 10.980649486316864  C 5.729025197000473 11.072290884908464  4.55647679270361 11.12938227569607  3.416016414320394 11.151910786112047  Z M 2.090985298376746 13.9864793169536  L 2.090985298376746 12  L 13.269129148259758 12  L 13.269129148259758 17  L 11.123344212100948 17  L 11.123344212100948 13.9864793169536  L 2.090985298376746 13.9864793169536  Z M 0.4215263961594671 3.02732925896375  L 0.4215263961594671 1.4459501698567938  L 9.885234282626714 1.4459501698567938  L 9.885234282626714 3.02732925896375  L 0.4215263961594671 3.02732925896375  Z M 2.2513690181370234 4.164841288773  C 2.9826263893254943 3.7186622284199875  3.9505701598864764 3.495562337032071  5.155215610281075 3.495562337032071  C 6.373413281435441 3.495562337032071  7.345132604870736 3.7186622284199875  8.070366781791488 4.164841288773  C 8.795600958712242 4.611020349126014  9.158208522127481 5.221101347351489  9.158208522127481 5.9950893701726535  C 9.158208522127481 6.769077392993818  8.795600958712242 7.381161911528978  8.070366781791488 7.831350299819862  C 7.345132604870736 8.281538688110745  6.373413281435441 8.506642099808346  5.155215610281075 8.506642099808346  C 3.9505701598864764 8.506642099808346  2.9826263893254943 8.281538688110745  2.2513690181370234 7.831350299819862  C 1.520299859147893 7.381161911528978  1.1547558892378025 6.769077392993818  1.1547558892378025 5.9950893701726535  C 1.1547558892378025 5.221101347351489  1.520299859147893 4.611020349126014  2.2513690181370234 4.164841288773  Z M 6.595429361110046 5.203525865118078  C 6.2451410804563245 5.021006742131336  5.765451796831093 4.929731519334062  5.15635296125391 4.929731519334062  C 4.547442337876066 4.929731519334062  4.067735855317741 5.021006742131336  3.717259328807277 5.203525865118078  C 3.3669710481535557 5.386044988104819  3.191837644538353 5.651609101051941  3.191837644538353 6.000228257919111  C 3.191837644538353 6.333764768325923  3.3669710481535557 6.595889249267287  3.717259328807277 6.786617916807186  C 4.067735855317741 6.977155661530585  4.547442337876066 7.072437959086311  5.15635296125391 7.072437959086311  C 5.765451796831093 7.072437959086311  6.2451410804563245 6.977155661530585  6.595429361110046 6.786617916807186  C 6.945717641763767 6.595889249267287  7.12085104537897 6.333764768325923  7.12085104537897 6.000228257919111  C 7.12085104537897 5.651609101051941  6.945717641763767 5.386044988104819  6.595429361110046 5.203525865118078  Z M 4.098426998021588 2.1810907849604764  L 4.098426998021588 0  L 6.238542411906719 0  L 6.238542411906719 2.1810907849604764  L 4.098426998021588 2.1810907849604764  Z M 28 12.311516537389059  L 28 0.14665057208426213  L 30 0.14665057208426213  L 30 12.311516537389059  L 28 12.311516537389059  Z M 19.593179674215097 16.682717379681343  L 19.593179674215097 15  L 31 15  L 31 16.682717379681343  L 19.593179674215097 16.682717379681343  Z M 19.593179674215097 15.623092709729956  L 19.593179674215097 11.089719756853906  L 21.73329508810023 11.089719756853906  L 21.73329508810023 15.623092709729956  L 19.593179674215097 15.623092709729956  Z M 19.269275903223996 1.7807120001974122  C 19.944329045875243 1.4200648936557152  20.701668952503784 1.2397654084377288  21.541306797367525 1.2397654084377288  C 22.38493499665354 1.2397654084377288  23.143218791500665 1.4200648936557152  23.81616383635265 1.7807120001974122  C 24.489259464427068 2.1413591067391096  25.02364377862486 2.64051946204004  25.41929449774503 3.2781908811989506  C 25.815095800087636 3.915862300357861  26.01299170556507 4.650321294548851  26.01299170556507 5.481585138147451  C 26.01299170556507 6.296429926778818  25.815095800087636 7.025746960705964  25.41929449774503 7.669527773436537  C 25.02364377862486 8.313308586167107  24.489259464427068 8.81761417908376  23.81616383635265 9.182423317677445  C 23.143218791500665 9.54707971801793  22.38493499665354 9.729417716104725  21.541306797367525 9.729417716104725  C 20.701668952503784 9.729417716104725  19.944329045875243 9.54707971801793  19.269275903223996 9.182423317677445  C 18.594373343795183 8.81761417908376  18.058988899857873 8.313308586167107  17.66311230590405 7.669527773436537  C 17.26746158678388 7.025746960705964  17.069621889169984 6.296429926778818  17.069621889169984 5.481585138147451  C 17.069621889169984 4.650321294548851  17.26746158678388 3.915862300357861  17.66311230590405 3.2781908811989506  C 18.058988899857873 2.64051946204004  18.594373343795183 2.1413591067391096  19.269275903223996 1.7807120001974122  Z M 22.755360030507244 3.4085158711226997  C 22.39471930476955 3.217596280766301  21.990037193645538 3.1221364941228726  21.541306797367525 3.1221364941228726  C 21.092576401089516 3.1221364941228726  20.68883817818408 3.217596280766301  20.330079709069402 3.4085158711226997  C 19.971547114788372 3.599435461479098  19.689134911623213 3.8696628364812193  19.482839397259575 4.219236590361347  C 19.276543882895933 4.568619438494515  19.173393769695878 4.989394447147368  19.173393769695878 5.481585138147451  C 19.173393769695878 5.965566301663919  19.276543882895933 6.382369193978361  19.482839397259575 6.731942947858489  C 19.689134911623213 7.081325795991657  19.971547114788372 7.351464409380386  20.330079709069402 7.542383999736784  C 20.68883817818408 7.733303590093183  21.092576401089516 7.82876337673661  21.541306797367525 7.82876337673661  C 21.990037193645538 7.82876337673661  22.39471930476955 7.733303590093183  22.755360030507244 7.542383999736784  C 23.116000756244937 7.351464409380386  23.39947562460497 7.081325795991657  23.605771138968613 6.731942947858489  C 23.812066653332256 6.382369193978361  23.915216766532307 5.965566301663919  23.915216766532307 5.481585138147451  C 23.915216766532307 4.989394447147368  23.812066653332256 4.568619438494515  23.605771138968613 4.219236590361347  C 23.39947562460497 3.8696628364812193  23.116000756244937 3.599435461479098  22.755360030507244 3.4085158711226997  Z " fill-rule="nonzero" fill="#ffffff" stroke="none" transform="matrix(1 0 0 1 164 435 )" />
  </g>
</svg>