<?xml version="1.0" encoding="utf-8"?>
<svg version="1.1" xmlns:xlink="http://www.w3.org/1999/xlink" width="721px" height="154px" xmlns="http://www.w3.org/2000/svg">
  <g transform="matrix(1 0 0 1 -90 -1016 )">
    <path d="M 0 25.666666666666664  C 0 11.491357386112213  11.528666988015175 0  25.75 0  C 25.75 0  695.25 0  695.25 0  C 709.4713330119848 0  721 11.491357386112213  721 25.666666666666664  C 721 25.666666666666664  721 128.33333333333334  721 128.33333333333334  C 721 142.5086426138878  709.4713330119848 154  695.25 154  C 695.25 154  25.75 154  25.75 154  C 11.528666988015175 154  0 142.5086426138878  0 128.33333333333334  C 0 128.33333333333334  0 25.666666666666664  0 25.666666666666664  Z " fill-rule="nonzero" fill="#3578ff" stroke="none" transform="matrix(1 0 0 1 90 1016 )" />
  </g>
</svg>