<?xml version="1.0" encoding="utf-8"?>
<svg version="1.1" xmlns:xlink="http://www.w3.org/1999/xlink" width="88px" height="48px" xmlns="http://www.w3.org/2000/svg">
  <g transform="matrix(1 0 0 1 -405 -1070 )">
    <path d="M 11.634244381480636 28.900857920755435  L 11.634244381480636 22.304524853380276  L 17.709410717670686 22.304524853380276  L 17.709410717670686 28.900857920755435  L 11.634244381480636 28.900857920755435  Z M 32 32.682881889893316  L 32 0.4140722035320342  L 38 0.4140722035320342  L 38 32.682881889893316  L 32 32.682881889893316  Z M 35.456733134435886 19.28273547580466  L 35.456733134435886 14.210425012132628  L 43.884088037413626 14.210425012132628  L 43.884088037413626 19.28273547580466  L 35.456733134435886 19.28273547580466  Z M 9.697078853554666 31.487748101963426  C 6.460177220516567 31.550711134349964  3.467686426055232 31.59386413799637  0.7196863446173448 31.617151834700138  C 0.7196863446173448 31.617151834700138  0 26.805326840663632  0 26.805326840663632  C 2.838834334074335 26.805326840663632  5.916773015375362 26.78522269369053  9.23382234978045 26.7451161030821  C 12.551405963977215 26.704793888023104  15.925582343432188 26.590131265332865  19.35644168130047 26.4010265437227  C 22.78730101916875 26.211059312261206  26.10436277424139 25.915093339624136  29.307602296270478 25.513164929713014  C 29.307602296270478 25.513164929713014  29.770858800044692 29.75407368412394  29.770858800044692 29.75407368412394  C 26.465030105613543 30.328719164617144  23.10231666469326 30.745434600636038  19.682677966798913 31.00418678489467  C 16.263039268904567 31.262938969153307  12.934514766384442 31.424138190200665  9.697078853554666 31.487748101963426  Z M 5.935700201843665 39  L 5.935700201843665 34  L 38 34  L 38 48  L 31.57594486015753 48  L 31.57594486015753 39  L 5.935700201843665 39  Z M 1.196591060065584 9  L 1.196591060065584 4  L 28.061310221650025 4  L 28.061310221650025 9  L 1.196591060065584 9  Z M 6.390983019227679 11.75955187418259  C 8.466810395504629 10.499752174362317  11.214521744193869 9.869823069267024  14.634160442088213 9.869823069267024  C 18.092269960203833 9.869823069267024  20.850699007374992 10.499752174362317  22.909428283795194 11.75955187418259  C 24.9681575602154 13.019351574002863  25.997495159587686 14.741933216051262  25.997495159587686 16.927311162840432  C 25.997495159587686 19.112689109629606  24.9681575602154 20.84092775019947  22.909428283795194 22.11204790537373  C 20.850699007374992 23.383168060547984  18.092269960203833 24.01875416416474  14.634160442088213 24.01875416416474  C 11.214521744193869 24.01875416416474  8.466810395504629 23.383168060547984  6.390983019227679 22.11204790537373  C 4.315689922742406 20.84092775019947  3.2780167178363424 19.112689109629606  3.2780167178363424 16.927311162840432  C 3.2780167178363424 14.741933216051262  4.315689922742406 13.019351574002863  6.390983019227679 11.75955187418259  Z M 18.72250915411884 14.692308325039278  C 17.728142421940532 14.176960213076711  16.366443810359232 13.919241936943234  14.637389051301422 13.919241936943234  C 12.908868572035285 13.919241936943234  11.547121137676168 14.176960213076711  10.552220030162593 14.692308325039278  C 9.557853297984288 15.207656437001845  9.060700410302422 15.957484520617243  9.060700410302422 16.941820963536312  C 9.060700410302422 17.883571110567313  9.557853297984288 18.62368729204881  10.552220030162593 19.162215294514407  C 11.547121137676168 19.700204220792237  12.908868572035285 19.969236590361348  14.637389051301422 19.969236590361348  C 16.366443810359232 19.969236590361348  17.728142421940532 19.700204220792237  18.72250915411884 19.162215294514407  C 19.716875886297142 18.62368729204881  20.21402877397901 17.883571110567313  20.21402877397901 16.941820963536312  C 20.21402877397901 15.957484520617243  19.716875886297142 15.207656437001845  18.72250915411884 14.692308325039278  Z M 11.634244381480636 6.158373981064875  L 11.634244381480636 0  L 17.709410717670686 0  L 17.709410717670686 6.158373981064875  L 11.634244381480636 6.158373981064875  Z M 80 34.76192904674558  L 80 0.4140722035320342  L 86 0.4140722035320342  L 86 34.76192904674558  L 80 34.76192904674558  Z M 55.61934875261059 47  L 55.61934875261059 42  L 88 42  L 88 47  L 55.61934875261059 47  Z M 55 44.11226176864929  L 55 31.312149901705148  L 61 31.312149901705148  L 61 44.11226176864929  L 55 44.11226176864929  Z M 54.69987998334554 5.0278927064397525  C 56.61615987216197 4.009594993851431  58.76602799420429 3.5005140944124107  61.14951606994653 3.5005140944124107  C 63.5443316034036 3.5005140944124107  65.69687915006641 4.009594993851431  67.60717476125915 5.0278927064397525  C 69.51789783450265 6.046190419028074  71.03485975867702 7.455584363407171  72.15799728392139 9.256068370444096  C 73.28156227121652 11.056552377481019  73.84333129321698 13.130318949314404  73.84333129321698 15.477416860651626  C 73.84333129321698 17.778155087375488  73.28156227121652 19.837403183169783  72.15799728392139 21.655137242644336  C 71.03485975867702 23.47287130211889  69.51789783450265 24.8967929762365  67.60717476125915 25.926842308736315  C 65.69687915006641 26.956460380285918  63.5443316034036 27.471297080766284  61.14951606994653 27.471297080766284  C 58.76602799420429 27.471297080766284  56.61615987216197 26.956460380285918  54.69987998334554 25.926842308736315  C 52.78402755657987 24.8967929762365  51.264226554435254 23.47287130211889  50.14044783611473 21.655137242644336  C 49.01731031087037 19.837403183169783  48.45570084667608 17.778155087375488  48.45570084667608 15.477416860651626  C 48.45570084667608 13.130318949314404  49.01731031087037 11.056552377481019  50.14044783611473 9.256068370444096  C 51.264226554435254 7.455584363407171  52.78402755657987 6.046190419028074  54.69987998334554 5.0278927064397525  Z M 64.5958607317625 9.62404481258174  C 63.572106413539366 9.08497773392838  62.42333138841314 8.815444218699875  61.14951606994653 8.815444218699875  C 59.87570075147992 8.815444218699875  58.729605150974166 9.08497773392838  57.71119401284217 9.62404481258174  C 56.69342406778634 10.1631118912351  55.89173781364009 10.92610683241756  55.30612474060782 11.913138608079096  C 54.72051166757555 12.899631355749221  54.42769844300765 14.087701968416097  54.42769844300765 15.477416860651626  C 54.42769844300765 16.843951910580476  54.72051166757555 18.020807135938902  55.30612474060782 19.007838911600437  C 55.89173781364009 19.99433165927056  56.69342406778634 20.757075979426972  57.71119401284217 21.296143058080332  C 58.729605150974166 21.835210136733693  59.87570075147992 22.104743651962195  61.14951606994653 22.104743651962195  C 62.42333138841314 22.104743651962195  63.572106413539366 21.835210136733693  64.5958607317625 21.296143058080332  C 65.61961504998563 20.757075979426972  66.42431790210443 19.99433165927056  67.00993097513671 19.007838911600437  C 67.59554404816899 18.020807135938902  67.88835727273687 16.843951910580476  67.88835727273687 15.477416860651626  C 67.88835727273687 14.087701968416097  67.59554404816899 12.899631355749221  67.00993097513671 11.913138608079096  C 66.42431790210443 10.92610683241756  65.61961504998563 10.1631118912351  64.5958607317625 9.62404481258174  Z " fill-rule="nonzero" fill="#ffffff" stroke="none" transform="matrix(1 0 0 1 405 1070 )" />
  </g>
</svg>