<?xml version="1.0" encoding="utf-8"?>
<svg version="1.1" xmlns:xlink="http://www.w3.org/1999/xlink" width="23px" height="23px" xmlns="http://www.w3.org/2000/svg">
  <defs>
    <mask fill="white" id="clip2074">
      <path d="M 0 11.5  C 0 17.85138231165269  5.1486176883473105 23  11.5 23  C 17.85138231165269 23  23 17.85138231165269  23 11.5  C 23 5.1486176883473105  17.85138231165269 0  11.5 0  C 5.1486176883473105 0  0 5.1486176883473105  0 11.5  Z " fill-rule="evenodd" />
    </mask>
  </defs>
  <g transform="matrix(1 0 0 1 -770 -19 )">
    <path d="M 0 11.5  C 0 17.85138231165269  5.1486176883473105 23  11.5 23  C 17.85138231165269 23  23 17.85138231165269  23 11.5  C 23 5.1486176883473105  17.85138231165269 0  11.5 0  C 5.1486176883473105 0  0 5.1486176883473105  0 11.5  Z " fill-rule="nonzero" fill="#ffffff" stroke="none" fill-opacity="0" transform="matrix(1 0 0 1 770 19 )" />
    <path d="M 0 11.5  C 0 17.85138231165269  5.1486176883473105 23  11.5 23  C 17.85138231165269 23  23 17.85138231165269  23 11.5  C 23 5.1486176883473105  17.85138231165269 0  11.5 0  C 5.1486176883473105 0  0 5.1486176883473105  0 11.5  Z " stroke-width="4" stroke="#fc4a36" fill="none" transform="matrix(1 0 0 1 770 19 )" mask="url(#clip2074)" />
  </g>
</svg>