<?xml version="1.0" encoding="utf-8"?>
<svg version="1.1" xmlns:xlink="http://www.w3.org/1999/xlink" width="60px" height="28px" xmlns="http://www.w3.org/2000/svg">
  <g transform="matrix(1 0 0 1 -743 -290 )">
    <path d="M 0 4  C 0 1.790860891342163  2.238576114177704 0  5 0  C 5 0  55 0  55 0  C 57.761423885822296 0  60 1.790860891342163  60 4  C 60 4  60 24  60 24  C 60 26.209139108657837  57.761423885822296 28  55 28  C 55 28  5 28  5 28  C 2.238576114177704 28  0 26.209139108657837  0 24  C 0 24  0 4  0 4  Z " fill-rule="nonzero" fill="#fc4a36" stroke="none" transform="matrix(1 0 0 1 743 290 )" />
  </g>
</svg>