<?xml version="1.0" encoding="utf-8"?>
<svg version="1.1" xmlns:xlink="http://www.w3.org/1999/xlink" width="355px" height="72px" xmlns="http://www.w3.org/2000/svg">
  <g transform="matrix(1 0 0 1 -3 -25 )">
    <path d="M 0 4  C 0 1.790860891342163  1.4958955680622774 0  3.341176470588235 0  C 3.341176470588235 0  351.6588235294118 0  351.6588235294118 0  C 353.5041044319377 0  355 1.790860891342163  355 4  C 355 4  355 68  355 68  C 355 70.20913910865784  353.5041044319377 72  351.6588235294118 72  C 351.6588235294118 72  3.341176470588235 72  3.341176470588235 72  C 1.4958955680622774 72  0 70.20913910865784  0 68  C 0 68  0 4  0 4  Z " fill-rule="nonzero" fill="#ffffff" stroke="none" transform="matrix(1 0 0 1 3 25 )" />
  </g>
</svg>