<?xml version="1.0" encoding="utf-8"?>
<svg version="1.1" xmlns:xlink="http://www.w3.org/1999/xlink" width="277px" height="13px" xmlns="http://www.w3.org/2000/svg">
  <g transform="matrix(1 0 0 1 -48 -44 )">
    <path d="M 3.130015320422759 2.6104684132925033  C 3.130015320422759 2.6104684132925033  3.130015320422759 1.452185172583267  3.130015320422759 1.452185172583267  L 4.508503011133782 1.452185172583267  C 4.508503011133782 1.452185172583267  4.508503011133782 2.6104684132925033  4.508503011133782 2.6104684132925033  C 4.508503011133782 3.4188209947018784  4.369931819514833 4.1811270306932515  4.09292771866903 4.897300669161846  C 3.815923617823226 5.613326661208461  3.407307027158726 6.240047686014647  2.866736149843619 6.777560394692072  C 2.326305464733532 7.3149858713916185  1.6550505054078595 7.718455547078797  0.8533960858790888 7.9879399644625915  C 0.8533960858790888 7.9879399644625915  0 6.672876261767041  0 6.672876261767041  C 0.7017815284810608 6.437869203739195  1.2830039078547253 6.11044697449485  1.743705035971223 5.690786737741484  C 2.204546326451914 5.271119781606053  2.5508066448130577 4.7937152751934  2.7823988110787132 4.2583834259574305  C 3.0141311546289757 3.723051576721461  3.130015320422759 3.173688157871808  3.130015320422759 2.6104684132925033  Z M 3.472253796570202 2.6104684132925033  C 3.472253796570202 2.6104684132925033  3.472253796570202 1.452185172583267  3.472253796570202 1.452185172583267  L 4.832162827147506 1.452185172583267  C 4.832162827147506 1.452185172583267  4.832162827147506 2.6104684132925033  4.832162827147506 2.6104684132925033  C 4.832162827147506 3.0110446450696866  4.896587859540554 3.4047204914275455  5.025527566170812 3.791359494915126  C 5.154460603376246 4.177850881977967  5.349024510951033 4.541647436127474  5.608799711947812 4.882925031189747  C 5.868715075308784 5.224209315636844  6.191000452673926 5.52965910553432  6.575623407064339 5.799156931685003  C 6.960246361454751 6.068513860793011  7.408031842531526 6.286192007440866  7.919398338051836 6.452204075460285  C 7.919398338051836 6.452204075460285  7.070646917206176 7.748591735662169  7.070646917206176 7.748591735662169  C 6.287830176189067 7.491588420477811  5.630084994767733 7.107646498958274  5.097397646161776 6.596820536085593  C 4.564710297555817 6.085853646172994  4.160786564860274 5.486479966420811  3.8853845284910444 4.79863710256701  C 3.609989176467052 4.110646592291229  3.472253796570202 3.3812435104429532  3.472253796570202 2.6104684132925033  Z M 0.4453989311004582 2.3148463196098445  L 0.4453989311004582 0.9760689576953612  L 7.474488319060159 0.9760689576953612  L 7.474488319060159 2.3148463196098445  L 0.4453989311004582 2.3148463196098445  Z M 8.91873468840237 9.414076972515216  L 8.91873468840237 0.023590790518316886  L 10.592769748872149 0.023590790518316886  L 10.592769748872149 9.414076972515216  L 8.91873468840237 9.414076972515216  Z M 2.0888769847713586 12.737183849381875  L 2.0888769847713586 11.389314203621792  L 10.937941697672285 11.389314203621792  L 10.937941697672285 12.737183849381875  L 2.0888769847713586 12.737183849381875  Z M 2.0888769847713586 12.04506445881063  L 2.0888769847713586 8.559525159729311  L 3.74922250619524 8.559525159729311  L 3.74922250619524 12.04506445881063  L 2.0888769847713586 12.04506445881063  Z M 15.858353160454953 10.672866810328532  L 15.858353160454953 7.582596121129636  L 17.494986444602905 7.582596121129636  L 17.494986444602905 10.672866810328532  L 15.858353160454953 10.672866810328532  Z M 19.947369582253728 10.663651657782314  L 19.947369582253728 7.573380968583419  L 21.579358201368247 7.573380968583419  L 21.579358201368247 10.663651657782314  L 19.947369582253728 10.663651657782314  Z M 12.818297668048094 11.502722014290576  L 12.818297668048094 10  L 24.497674578688375 10  L 24.497674578688375 11.502722014290576  L 12.818297668048094 11.502722014290576  Z M 14.168184000395366 2.220974632339042  L 14.168184000395366 0.8823201391251748  L 23.148277158449886 0.8823201391251748  L 23.148277158449886 5.076320365959699  L 15.842219060865146 5.076320365959699  L 15.842219060865146 7.384408907035652  L 14.191651781616905 7.384408907035652  L 14.191651781616905 3.761379531964765  L 21.497465423147254 3.761379531964765  L 21.497465423147254 2.220974632339042  L 14.168184000395366 2.220974632339042  Z M 14.191651781616905 8.025660655551775  L 14.191651781616905 6.682337151714491  L 23.442602247936684 6.682337151714491  L 23.442602247936684 8.025660655551775  L 14.191651781616905 8.025660655551775  Z M 35 13  L 35 0  L 37 0  L 37 13  L 35 13  Z M 26.373141427976364 9.94708139578844  L 26.373141427976364 1.0518789459755775  L 28.02835337225803 1.0518789459755775  L 28.02835337225803 4.281851347775131  L 30.98724945460707 4.281851347775131  L 30.98724945460707 1.0518789459755775  L 32.64295031099752 1.0518789459755775  L 32.64295031099752 9.94708139578844  L 26.373141427976364 9.94708139578844  Z M 30.98724945460707 5.587577029223848  L 28.02835337225803 5.587577029223848  L 28.02835337225803 8.599211750028354  L 30.98724945460707 8.599211750028354  L 30.98724945460707 5.587577029223848  Z M 45.21825866098093 3.642074023666402  C 45.21825866098093 3.642074023666402  45.21825866098093 2.0079203054704924  45.21825866098093 2.0079203054704924  L 46.54076591523641 2.0079203054704924  C 46.54076591523641 2.0079203054704924  46.54076591523641 3.642074023666402  46.54076591523641 3.642074023666402  C 46.54076591523641 4.353550454104701  46.45909830097518 5.06033711582856  46.2958209487366 5.762419190200748  C 46.13254359649801 6.4643268006171795  45.896075707675834 7.1247775035383825  45.58640947889382 7.743799856338135  C 45.27667649618192 8.362822209137887  44.89899735301911 8.91292308016917  44.453355666791396 9.394049374314772  C 44.00764722663379 9.875108594628689  43.5007050514807 10.253441241994336  42.932839008479185 10.529233299308155  C 42.932839008479185 10.529233299308155  41.986060709822716 9.204708706665155  41.986060709822716 9.204708706665155  C 42.497587390902105 8.95709976254553  42.95276680224023 8.630410830864882  43.35134777359663 8.224707950550073  C 43.750129006742696 7.818937966406338  44.08856999893388 7.363122264620785  44.36706267959136 6.857302181392008  C 44.64555536024884 6.351488817545296  44.857039837328166 5.823832902406808  45.001426140736086 5.274261842652452  C 45.14601270593368 4.724690782898095  45.21825866098093 4.180633516078373  45.21825866098093 3.642074023666402  Z M 45.56098604923716 3.642074023666402  C 45.56098604923716 3.642074023666402  45.56098604923716 2.0079203054704924  45.56098604923716 2.0079203054704924  L 46.878604182404814 2.0079203054704924  C 46.878604182404814 2.0079203054704924  46.878604182404814 3.642074023666402  46.878604182404814 3.642074023666402  C 46.878604182404814 4.139976005068187  46.948389418100355 4.645652731480497  47.08810302101793 5.159256738875658  C 47.22801688572517 5.672719819230901  47.432540437862635 6.169164534647349  47.701687717539414 6.648425390344411  C 47.97090175114608 7.1275185014677795  48.30408935527484 7.558952655455489  48.701268523944336 7.942847151336434  C 49.09844769261384 8.326540335730602  49.55138826606906 8.639034047847316  50.0597108181953 8.880335337038296  C 50.0597108181953 8.880335337038296  49.13591138865159 10.204982798381915  49.13591138865159 10.204982798381915  C 48.565108172734845 9.93549838099812  48.05929720364984 9.570402526336284  47.61832820299207 9.10960833238819  C 47.177359202334294 8.64888124226902  46.80342618706456 8.123906060602033  46.49676382544602 7.534677327889305  C 46.190101463827475 6.945475412710354  45.957513195837755 6.318651677349746  45.79884179015963 5.654294733658462  C 45.64023713841139 4.989783484157617  45.56098604923716 4.319052966599798  45.56098604923716 3.642074023666402  Z M 42.47228380200649 2.6631790858568674  L 42.47228380200649 1.2773430116063667  L 49.51652946533842 1.2773430116063667  L 49.51652946533842 2.6631790858568674  L 42.47228380200649 2.6631790858568674  Z M 51 12.981201088805715  L 51 0.018921779894900004  L 53 0.018921779894900004  L 53 12.981201088805715  L 51 12.981201088805715  Z M 51.92784398585155 6.424681486522249  L 51.92784398585155 5.038845412271748  L 54.23110893032385 5.038845412271748  L 54.23110893032385 6.424681486522249  L 51.92784398585155 6.424681486522249  Z M 55.1590641127922 7.523864882235076  L 55.1590641127922 6  L 66.81986236329877 6  L 66.81986236329877 7.523864882235076  L 55.1590641127922 7.523864882235076  Z M 60.15696814481682 6.712931458167933  L 60.15696814481682 4.203706854183207  L 61.812669001207276 4.203706854183207  L 61.812669001207276 6.712931458167933  L 60.15696814481682 6.712931458167933  Z M 56.58399845383752 5.004687913500435  L 56.58399845383752 3.6757400476352498  L 65.483421113943 3.6757400476352498  L 65.483421113943 5.004687913500435  L 56.58399845383752 5.004687913500435  Z M 56.58399845383752 4.510264262220709  L 56.58399845383752 0.5778514989981476  L 65.40910647340812 0.5778514989981476  L 65.40910647340812 1.9021303542399153  L 58.23481018914015 1.9021303542399153  L 58.23481018914015 4.510264262220709  L 56.58399845383752 4.510264262220709  Z M 57.67989494567251 8.864976749461269  C 58.47298498818439 8.451624152637926  59.56290555601397 8.244981286151752  60.94949467315254 8.244981286151752  C 62.33935470301499 8.244981286151752  63.42987328101669 8.451624152637926  64.2212945051221 8.864976749461269  C 65.01284917740566 9.27832934628461  65.40861756129934 9.862580846718933  65.40861756129934 10.61782163245246  C 65.40861756129934 11.3727269290386  65.01284917740566 11.956209930146485  64.2212945051221 12.368086272730709  C 63.42987328101669 12.780096792975543  62.33935470301499 12.98599296812975  60.94949467315254 12.98599296812975  C 59.56290555601397 12.98599296812975  58.47298498818439 12.780096792975543  57.67989494567251 12.368086272730709  C 56.88687168693134 11.956209930146485  56.490371785005756 11.3727269290386  56.490371785005756 10.61782163245246  C 56.490371785005756 9.862580846718933  56.88687168693134 9.27832934628461  57.67989494567251 8.864976749461269  Z M 62.472944804117446 9.646175947979282  C 62.06101328550933 9.563572529443816  61.551920690843595 9.522201429057501  60.94607228839108 9.522201429057501  C 60.34770020672312 9.522201429057501  59.841778229761864 9.563572529443816  59.428244646677165 9.646175947979282  C 59.014711063592465 9.728846462844364  58.702228547085205 9.849772534610725  58.49075567808756 10.009007220899022  C 58.279483070879586 10.168107699529466  58.17394063159678 10.369558508493226  58.17394063159678 10.61327549052966  C 58.17394063159678 10.856925368737167  58.279483070879586 11.06061539677545  58.49075567808756 11.224547276095421  C 58.702228547085205 11.388412051586469  59.014711063592465 11.510196359426798  59.428244646677165 11.58971305432687  C 59.841778229761864 11.669162645398012  60.34770020672312 11.708895693924616  60.94607228839108 11.708895693924616  C 61.551920690843595 11.708895693924616  62.06101328550933 11.669162645398012  62.472944804117446 11.58971305432687  C 62.88500983058536 11.510196359426798  63.196649851025285 11.388412051586469  63.407989212163145 11.224547276095421  C 63.6193953272309 11.06061539677545  63.725048714708315 10.856925368737167  63.725048714708315 10.61327549052966  C 63.725048714708315 10.369558508493226  63.6193953272309 10.168107699529466  63.407989212163145 10.009007220899022  C 63.196649851025285 9.849772534610725  62.88500983058536 9.728846462844364  62.472944804117446 9.646175947979282  Z M 80.75043507882604 6.5484102680427965  L 80.75043507882604 0.009460889947450002  L 82.42447013929582 0.009460889947450002  L 82.42447013929582 6.5484102680427965  L 80.75043507882604 6.5484102680427965  Z M 76.51890077731731 1.4355978980000756  C 76.51890077731731 1.4355978980000756  76.51890077731731 0.543939737628067  76.51890077731731 0.543939737628067  C 76.51890077731731 0.543939737628067  78.3339869811707 0.543939737628067  78.3339869811707 0.543939737628067  C 78.3339869811707 1.6719964380629513  78.10895769305618 2.6557710871192253  77.65904381499708 3.4952459264300026  C 77.20912993693794 4.33472076574078  76.54494937229862 5.030839808491704  75.66648251565579 5.5836452308041284  C 74.78801565901294 6.136296287312507  73.70359302482265 6.558134923733537  72.41326134381994 6.849192847151336  C 72.41326134381994 6.849192847151336  71.85076796266618 5.496408453366602  71.85076796266618 5.496408453366602  C 72.94097464434456 5.2681519295388615  73.8291869182534 4.954641925883444  74.51533895552842 4.555971418849949  C 75.20149099280343 4.157153265394474  75.70694748270506 3.6920472679730922  76.03169986091598 3.160674454651998  C 76.35658574698668 2.6293083607129693  76.51890077731731 2.0543115791862196  76.51890077731731 1.4355978980000756  Z M 72.57117995495653 1.8825942308419341  L 72.57117995495653 0.543939737628067  L 77.22660105477934 0.543939737628067  L 77.22660105477934 1.8825942308419341  L 72.57117995495653 1.8825942308419341  Z M 77.84287476789913 2.9806718082492156  L 77.84287476789913 1.6987826547200484  L 80.97509019281141 1.6987826547200484  L 80.97509019281141 2.9806718082492156  L 77.84287476789913 2.9806718082492156  Z M 77.74949255512175 5.480312653585876  L 77.74949255512175 4.207884390004159  L 80.91446509132244 4.207884390004159  L 80.91446509132244 5.480312653585876  L 77.74949255512175 5.480312653585876  Z M 73.96360164076786 8.37915390722468  L 73.96360164076786 7.059789800007561  L 82.42447013929582 7.059789800007561  L 82.42447013929582 10.525301500888435  L 75.65157069633793 10.525301500888435  L 75.65157069633793 12.255047068163774  L 73.986824965935 12.255047068163774  L 73.986824965935 9.276464027825035  L 80.75507974385947 9.276464027825035  L 80.75507974385947 8.37915390722468  L 73.96360164076786 8.37915390722468  Z M 73.986824965935 12.854400589769762  L 73.986824965935 11.529753128426147  L 82.72710673463192 11.529753128426147  L 82.72710673463192 12.854400589769762  L 73.986824965935 12.854400589769762  Z M 94 12.971740198858265  L 94 0.009460889947450002  L 96 0.009460889947450002  L 96 12.971740198858265  L 94 12.971740198858265  Z M 89.65474686001934 5.86612037352085  L 89.65474686001934 4.503875089788666  L 91.88589726844627 4.503875089788666  L 91.88589726844627 5.86612037352085  L 89.65474686001934 5.86612037352085  Z M 92 12.366366110922081  L 92 0.24844051264602474  L 93 0.24844051264602474  L 93 12.366366110922081  L 92 12.366366110922081  Z M 86.96475243750044 3.517239423840308  C 86.96475243750044 3.517239423840308  86.96475243750044 2.096385769914181  86.96475243750044 2.096385769914181  L 88.22150101312474 2.096385769914181  C 88.22150101312474 2.096385769914181  88.22150101312474 3.517239423840308  88.22150101312474 3.517239423840308  C 88.22150101312474 4.237814977495239  88.1648393628113 4.94819590867902  88.05135959926858 5.6485199047295005  C 87.93794658965572 6.348837181397915  87.76525644838898 7.007723648171087  87.53335722001398 7.625108691542853  C 87.301457991639 8.24231927095886  87.00311834110026 8.79936177361634  86.63864806094281 9.296123019923632  C 86.27417778078534 9.792817162402  85.84254126003022 10.197857793619274  85.34376434083352 10.511294469018184  C 85.34376434083352 10.511294469018184  84.34516135864615 9.276218290423802  84.34516135864615 9.276218290423802  C 84.96863250018181 8.881386050411463  85.47178342811148 8.378650853487049  85.85467749451077 7.767882121658917  C 86.23750480698018 7.1570463159991  86.51819811434164 6.483619106437375  86.69682860188786 5.7477978148274165  C 86.875525843364 5.0119563650712635  86.96475243750044 4.268494356125182  86.96475243750044 3.517239423840308  Z M 87.3309476069782 3.517239423840308  C 87.3309476069782 3.517239423840308  87.3309476069782 2.096385769914181  87.3309476069782 2.096385769914181  L 88.57791794042684 2.096385769914181  C 88.57791794042684 2.096385769914181  88.57791794042684 3.517239423840308  88.57791794042684 3.517239423840308  C 88.57791794042684 4.243686457535868  88.66430767158786 4.95833041667848  88.83679690202696 5.661298249593588  C 89.00935288639593 6.36425936312663  89.28399451881278 7.003116671842806  89.66061380532473 7.577804241805603  C 90.03736659969647 8.152471713616688  90.5326698974318 8.62000898745041  91.1466621599678 8.980350459339911  C 91.1466621599678 8.980350459339911  90.16663783791417 10.19662772674001  90.16663783791417 10.19662772674001  C 89.49944361832013 9.792333996835392  88.95814149154056 9.246221948979658  88.54247181254016 8.558419341423765  C 88.12673537960987 7.870549660036188  87.82077001018644 7.0927072128209945  87.62478378435623 6.224774110619636  C 87.4288643124559 5.356673263844585  87.3309476069782 4.45418087982112  87.3309476069782 3.517239423840308  Z M 84.79007137763783 2.7276851536803903  L 84.79007137763783 1.3702317492722391  L 90.57952411378061 1.3702317492722391  L 90.57952411378061 2.7276851536803903  L 84.79007137763783 2.7276851536803903  Z M 97.4810074413482 11.502722014290576  L 97.4810074413482 10  L 109.16038435198848 10  L 109.16038435198848 11.502722014290576  L 97.4810074413482 11.502722014290576  Z M 102.46962214330597 10.691788590223432  L 102.46962214330597 7.5920570110770855  L 104.12996766472985 7.5920570110770855  L 104.12996766472985 10.691788590223432  L 102.46962214330597 10.691788590223432  Z M 98.83064931764108 2.220974632339042  L 98.83064931764108 0.8823201391251748  L 107.81074247569559 0.8823201391251748  L 107.81074247569559 5.095242145854599  L 100.50517329021964 5.095242145854599  L 100.50517329021964 7.384408907035652  L 98.85411709886262 7.384408907035652  L 98.85411709886262 3.7800555744584323  L 106.15944182828417 3.7800555744584323  L 106.15944182828417 2.220974632339042  L 98.83064931764108 2.220974632339042  Z M 98.85411709886262 8.063258477940343  L 98.85411709886262 6.719934974103058  L 108.10506756518241 6.719934974103058  L 108.10506756518241 8.063258477940343  L 98.85411709886262 8.063258477940343  Z M 119.13614701957766 4.3010188650712635  L 119.13614701957766 2.9436883293637295  L 121.39027629711737 2.9436883293637295  L 121.39027629711737 4.3010188650712635  L 119.13614701957766 4.3010188650712635  Z M 119.13614701957766 8.294865978601944  L 119.13614701957766 6.937412574193793  L 121.39027629711737 6.937412574193793  L 121.39027629711737 8.294865978601944  L 119.13614701957766 8.294865978601944  Z M 124 12.971740198858265  L 124 0.009460889947450002  L 125 0.009460889947450002  L 125 12.971740198858265  L 124 12.971740198858265  Z M 121 12.375827000869533  L 121 0.23455634947639029  L 123 0.23455634947639029  L 123 12.375827000869533  L 121 12.375827000869533  Z M 115.4475496148714 1.5305754035764243  C 115.86742473177333 1.154652704584509  116.35561194718706 0.9666080677479112  116.91233029278246 0.9666080677479112  C 117.47906154881663 0.9666080677479112  117.97208184424518 1.154652704584509  118.39128942184819 1.5305754035764243  C 118.81049699945119 1.9064914131835162  119.13390845026221 2.442194088317195  119.3615355017262 3.1378208763373787  C 119.58916255319019 3.8333000179355814  119.70304060971047 4.6620244458872655  119.70304060971047 5.62406903330687  C 119.70304060971047 6.585979413068622  119.58916255319019 7.416424482784795  119.3615355017262 8.11523193830101  C 119.13390845026221 8.813972259991056  118.81018671453256 9.350513088045613  118.39031159763063 9.724811916373671  C 117.97043648072871 10.099110744701731  117.4771059003815 10.286199009489245  116.91037464434733 10.286199009489245  C 116.35365629875193 10.286199009489245  115.86577936825685 10.099110744701731  115.44657179065385 9.724811916373671  C 115.02736421305082 9.350513088045613  114.70395276223982 8.813972259991056  114.47632571077584 8.11523193830101  C 114.24936618369036 7.416424482784795  114.13579842700914 6.585979413068622  114.13579842700914 5.62406903330687  C 114.13579842700914 4.6620244458872655  114.24936618369036 3.8333000179355814  114.47632571077584 3.1378208763373787  C 114.70395276223982 2.442194088317195  115.02767449796947 1.9064914131835162  115.4475496148714 1.5305754035764243  Z M 117.60829667963372 2.895155192620317  C 117.4173836778732 2.66234910718426  117.18596984038942 2.5459623454689804  116.91428594121759 2.5459623454689804  C 116.64860980621353 2.5459623454689804  116.42047753462883 2.66234910718426  116.2295645328683 2.895155192620317  C 116.03865153110779 3.127961278056374  115.89216432903956 3.4719449992549607  115.79003254707322 3.9271294090960644  C 115.6872332332682 4.382166202512428  115.63578077675248 4.947741450472395  115.63578077675248 5.62370042720502  C 115.63578077675248 6.290848794188429  115.6872332332682 6.854389419258577  115.79003254707322 7.314250878983781  C 115.89216432903956 7.774038545495238  116.03865153110779 8.12105054820374  116.2295645328683 8.355440248005747  C 116.42047753462883 8.589695755148524  116.64860980621353 8.706844731768175  116.91428594121759 8.706844731768175  C 117.18596984038942 8.706844731768175  117.4173836778732 8.589695755148524  117.60829667963372 8.355440248005747  C 117.79920968139423 8.12105054820374  117.94569688346247 7.774038545495238  118.0478286654288 7.314250878983781  C 118.15062797923383 6.854389419258577  118.20208043574954 6.290848794188429  118.20208043574954 5.62370042720502  C 118.20208043574954 4.947741450472395  118.15062797923383 4.382166202512428  118.0478286654288 3.9271294090960644  C 117.94569688346247 3.4719449992549607  117.79920968139423 3.127961278056374  117.60829667963372 2.895155192620317  Z M 136.51477238229043 3.154776757022419  L 136.51477238229043 1.7784015727193678  L 138.734433356161 1.7784015727193678  L 138.734433356161 3.154776757022419  L 136.51477238229043 3.154776757022419  Z M 136.51477238229043 5.955077312767003  L 136.51477238229043 4.578702128463952  L 138.734433356161 4.578702128463952  L 138.734433356161 5.955077312767003  L 136.51477238229043 5.955077312767003  Z M 135.35213938760668 7.676467808400439  L 135.35213938760668 0.018921779894900004  L 137.01639620590083 0.018921779894900004  L 137.01639620590083 7.676467808400439  L 135.35213938760668 7.676467808400439  Z M 128.47632394575018 9.563976787267022  L 128.47632394575018 8.230114173377187  L 137.01639620590083 8.230114173377187  L 137.01639620590083 12.981201088805715  L 135.35213938760668 12.981201088805715  L 135.35213938760668 9.563976787267022  L 128.47632394575018 9.563976787267022  Z M 128.732513890752 1.1439076027371367  C 129.25652334783533 0.8727925953074199  129.84575375184818 0.7372122036974028  130.49993116399912 0.7372122036974028  C 131.1641215462705 0.7372122036974028  131.7573198850432 0.8727925953074199  132.27932678391144 1.1439076027371367  C 132.8013336827797 1.414874993742114  133.21339533723415 1.7853637524558974  133.51578550702126 2.2553778685115873  C 133.8181756768084 2.725244338145297  133.96949594397103 3.267166761291811  133.96949594397103 3.8811765150655932  C 133.96949594397103 4.495186268839375  133.8181756768084 5.038672928133919  133.51578550702126 5.5117670409436315  C 133.21339533723415 5.984861153753343  132.8013336827797 6.354724020026121  132.27932678391144 6.621148538807607  C 131.7573198850432 6.887405313015399  131.1641215462705 7.020471815810367  130.49993116399912 7.020471815810367  C 129.84575375184818 7.020471815810367  129.25652334783533 6.887405313015399  128.732513890752 6.621148538807607  C 128.2091719132859 6.354724020026121  127.79648968899413 5.984861153753343  127.49409951920701 5.5117670409436315  C 127.19170934941988 5.038672928133919  127.04038908225726 4.495186268839375  127.04038908225726 3.8811765150655932  C 127.04038908225726 3.267166761291811  127.19170934941988 2.725244338145297  127.49409951920701 2.2553778685115873  C 127.79648968899413 1.7853637524558974  128.2091719132859 1.414874993742114  128.732513890752 1.1439076027371367  Z M 131.4491540231995 2.362396506748327  C 131.17413248721473 2.2250037418097377  130.85834677020884 2.1562228271142865  130.50188681243426 2.1562228271142865  C 130.15276966758444 2.1562228271142865  129.83909017582647 2.2250037418097377  129.5607310030288 2.362396506748327  C 129.28237183023109 2.4997892716869163  129.06310647688733 2.6980775764842893  128.90289976066254 2.9574496238327477  C 128.7433605688162 3.216828360566029  128.6635772834137 3.52478070032132  128.6635772834137 3.8811765150655932  C 128.6635772834137 4.237719976231848  128.7433605688162 4.545647538265773  128.90289976066254 4.805026274999055  C 129.06310647688733 5.064398322347513  129.28237183023109 5.264398494716277  129.5607310030288 5.404871271407509  C 129.83909017582647 5.545350752482184  130.15276966758444 5.615591092964349  130.50188681243426 5.615591092964349  C 130.85834677020884 5.615591092964349  131.17413248721473 5.545350752482184  131.4491540231995 5.404871271407509  C 131.72417555918426 5.264398494716277  131.94188942825315 5.064398322347513  132.10209614447794 4.805026274999055  C 132.26230286070276 4.545647538265773  132.34239644594433 4.237719976231848  132.34239644594433 3.8811765150655932  C 132.34239644594433 3.52478070032132  132.26230286070276 3.216828360566029  132.10209614447794 2.9574496238327477  C 131.94188942825315 2.6980775764842893  131.72417555918426 2.4997892716869163  131.4491540231995 2.362396506748327  Z M 140.72210553441448 6.701258931609391  L 140.72210553441448 5.35326641714869  L 147.4206903368375 5.35326641714869  L 147.4206903368375 6.701258931609391  L 140.72210553441448 6.701258931609391  Z M 143.2072457833537 9.24009489244263  L 143.2072457833537 6.437459831386336  L 144.88152529987786 6.437459831386336  L 144.88152529987786 9.24009489244263  L 143.2072457833537 9.24009489244263  Z M 140.72210553441448 5.781709576197497  L 140.72210553441448 1.1786794450115308  L 147.35077590528167 1.1786794450115308  L 147.35077590528167 2.517333938225398  L 142.392229298014 2.517333938225398  L 142.392229298014 5.781709576197497  L 140.72210553441448 5.781709576197497  Z M 148 13  L 148 0  L 150 0  L 150 13  L 148 13  Z M 142.6344852479155 10.355005481834336  C 141.73465749179724 10.368962842022547  140.87954239524078 10.375893160939095  140.06916341313604 10.375893160939095  C 140.06916341313604 10.375893160939095  139.86797608037222 9.009224603984727  139.86797608037222 9.009224603984727  C 140.69971596195236 9.006137880114975  141.57981445533127 8.999820069479657  142.50834592384973 8.990425692790442  C 143.43620985306927 8.981031316101229  144.3768721548786 8.952975445580408  145.33010215968542 8.906137764167706  C 146.2833321644922 8.85916587884681  147.20211403802887 8.785582795773538  148.08658862899867 8.68546557786095  C 148.08658862899867 8.68546557786095  148.2088166561942 9.911080866507882  148.2088166561942 9.911080866507882  C 147.28028518767573 10.05521744626451  146.3439011652265 10.161692122025713  145.4000165912412 10.23053948811009  C 144.45679955655487 10.299386854194468  143.53498054333267 10.340913915863101  142.6344852479155 10.355005481834336  Z M 155.82460057469237 8.368832936372916  C 155.82460057469237 8.368832936372916  155.82460057469237 7.807200105856112  155.82460057469237 7.807200105856112  L 157.09430532119936 7.807200105856112  C 157.09430532119936 7.807200105856112  157.09430532119936 8.368832936372916  157.09430532119936 8.368832936372916  C 157.09430532119936 9.00228234241646  156.9910901083289 9.613721032633158  156.78482395634032 10.203016899172054  C 156.57789027997327 10.792379839542633  156.26179426312828 11.312675271573795  155.8365789213575 11.763940871800688  C 155.41136357958675 12.215139368198656  154.86806617575385 12.562953872106677  154.2065459506781 12.807341877433746  C 154.2065459506781 12.807341877433746  153.3815067671084 11.586641336811462  153.3815067671084 11.586641336811462  C 153.9422302888156 11.383051769534498  154.40177636804327 11.111449936874727  154.7602389138738 10.7717761143246  C 155.11803392040542 10.431968084116622  155.38478371344277 10.053044671079602  155.56034357989566 9.634994896223205  C 155.73657097072703 9.216945121366807  155.82460057469237 8.794867946882473  155.82460057469237 8.368832936372916  Z M 156.2321088173622 8.368832936372916  C 156.2321088173622 8.368832936372916  156.2321088173622 7.807200105856112  156.2321088173622 7.807200105856112  L 157.44167737448902 7.807200105856112  C 157.44167737448902 7.807200105856112  157.44167737448902 8.368832936372916  157.44167737448902 8.368832936372916  C 157.44167737448902 8.80097427532572  157.51811323528736 9.229926007604568  157.6709771535078 9.655759706627348  C 157.82317353242934 10.081593405650128  158.06525021356293 10.473196862591294  158.39701163504918 10.830384484518545  C 158.7287730565354 11.187303721127332  159.1578820592477 11.476989375743193  159.68456167352676 11.699434803977166  C 159.68456167352676 11.699434803977166  158.990795391165 12.934265245170314  158.990795391165 12.934265245170314  C 158.32660500889358 12.67726192998596  157.7918642533034 12.309748207678673  157.38667476225103 11.831641525840233  C 156.9814852711987 11.35373615548857  156.6876458262501 10.813830386884298  156.5054106861714 10.21198631431704  C 156.32317554609264 9.61014224174978  156.2321088173622 8.995773420996901  156.2321088173622 8.368832936372916  Z M 160.53966895178658 8.368832936372916  C 160.53966895178658 8.368832936372916  160.53966895178658 7.807200105856112  160.53966895178658 7.807200105856112  L 161.74923750891338 7.807200105856112  C 161.74923750891338 7.807200105856112  161.74923750891338 8.368832936372916  161.74923750891338 8.368832936372916  C 161.74923750891338 8.945916086030833  161.65755019542524 9.535370997943426  161.47397999166907 10.137282144342368  C 161.2897422635344 10.739126216909627  160.99590281858588 11.288391484785546  160.5927159155894 11.784951419606065  C 160.18886147329405 12.281712665913357  159.65498577343638 12.66478082778652  158.990795391165 12.934265245170314  C 158.990795391165 12.934265245170314  158.30582952676133 11.699434803977166  158.30582952676133 11.699434803977166  C 158.83250914104033 11.45518100630795  159.2603769742372 11.145940734994808  159.58946826836862 10.7717761143246  C 159.91789205304192 10.39747728599654  160.15817279384626 9.999734653632837  160.31036917276776 9.578598162640354  C 160.4632330909882 9.157461671647871  160.53966895178658 8.75420371649022  160.53966895178658 8.368832936372916  Z M 160.92419832534364 8.368832936372916  C 160.92419832534364 8.368832936372916  160.92419832534364 7.807200105856112  160.92419832534364 7.807200105856112  L 162.18583602205575 7.807200105856112  C 162.18583602205575 7.807200105856112  162.18583602205575 8.368832936372916  162.18583602205575 8.368832936372916  C 162.18583602205575 8.823051075075286  162.27200384190715 9.261518292280863  162.44422607154706 9.684265245170314  C 162.6171158255655 10.107012198059767  162.88393146238758 10.4827823910766  163.2450641057321 10.81158557332426  C 163.60619674907662 11.14038875557192  164.07057590831909 11.398753795527876  164.6379747036522 11.586641336811462  C 164.6379747036522 11.586641336811462  163.8029128218524 12.807341877433746  163.8029128218524 12.807341877433746  C 163.14206007639396 12.57234824317141  162.5978976765102 12.234561532076706  162.17067974668353 11.794166572152282  C 161.74412935615572 11.353972893717392  161.42982927964005 10.83919281447742  161.22756828884292 10.24982987410684  C 161.0253072980458 9.66046693373626  160.92419832534364 9.033485112913677  160.92419832534364 8.368832936372916  Z M 159.0037515620477 4.446986881403349  L 159.0037515620477 3.084741597671165  L 162.15576792736564 3.084741597671165  L 162.15576792736564 4.446986881403349  L 159.0037515620477 4.446986881403349  Z M 154.52482773349524 1.0875108691542854  C 155.03415162441067 0.8227102210366574  155.6099922703252 0.6902763600620014  156.25215421382225 0.6902763600620014  C 156.89364861802042 0.6902763600620014  157.4683139531246 0.8227102210366574  157.9763027654422 1.0875108691542854  C 158.48429157775982 1.3521705902319974  158.885934814778 1.717101700044274  159.18098220148119 2.1822709916449283  C 159.47536204888547 2.6474335638635176  159.6224698357114 3.180633719136623  159.6224698357114 3.782021473668292  C 159.6224698357114 4.383556874621942  159.47536204888547 4.916229198436053  159.18098220148119 5.379928925182413  C 158.885934814778 5.843481035504033  158.48429157775982 6.2076700435622705  157.9763027654422 6.472477411061964  C 157.4683139531246 6.737163979670695  156.89364861802042 6.869466182753015  156.25215421382225 6.869466182753015  C 155.6099922703252 6.869466182753015  155.03415162441067 6.737163979670695  154.52482773349524 6.472477411061964  C 154.01483636296254 6.2076700435622705  153.6134375521579 5.843481035504033  153.32039275351065 5.379928925182413  C 153.02801549416228 4.916229198436053  152.8818385919331 4.383556874621942  152.8818385919331 3.782021473668292  C 152.8818385919331 3.180633719136623  153.02801549416228 2.6474335638635176  153.32039275351065 2.1822709916449283  C 153.6134375521579 1.717101700044274  154.01483636296254 1.3521705902319974  154.52482773349524 1.0875108691542854  Z M 157.16519757697276 2.286832255869343  C 156.89818636337088 2.149439490930754  156.5939285457473 2.080781444935919  156.25215421382225 2.080781444935919  C 155.91037988189723 2.080781444935919  155.60494669378167 2.149439490930754  155.33593292196468 2.286832255869343  C 155.0669191501477 2.4242250208079326  154.8555898155277 2.620207017700477  154.70205837292875 2.8748818570186385  C 154.5478594059513 3.1295634157188648  154.47080294547482 3.4319400182361077  154.47080294547482 3.782021473668292  C 154.47080294547482 4.125942905595192  154.5478594059513 4.426111291186858  154.70205837292875 4.682403311784054  C 154.8555898155277 4.938695332381249  155.0669191501477 5.136357714740375  155.33593292196468 5.275367660957998  C 155.60494669378167 5.414223256370196  155.91037988189723 5.483630108502514  156.25215421382225 5.483630108502514  C 156.5939285457473 5.483630108502514  156.89818636337088 5.414223256370196  157.16519757697276 5.275367660957998  C 157.43287630003277 5.136357714740375  157.64358503497462 4.938695332381249  157.79711647757358 4.682403311784054  C 157.95131544455103 4.426111291186858  158.0283719050275 4.125942905595192  158.0283719050275 3.782021473668292  C 158.0283719050275 3.4319400182361077  157.95131544455103 3.1295634157188648  157.79711647757358 2.8748818570186385  C 157.64358503497462 2.620207017700477  157.43287630003277 2.4242250208079326  157.16519757697276 2.286832255869343  Z M 161.7712385538086 7.3047899890363315  L 161.7712385538086 0.018921779894900004  L 163.44551807033275 0.018921779894900004  L 163.44551807033275 7.3047899890363315  L 161.7712385538086 7.3047899890363315  Z M 166.9930643316554 12.831055536652679  L 166.9930643316554 7.780291860421156  L 168.6392314019246 7.780291860421156  L 168.6392314019246 8.98428225775963  L 174.1253141745681 8.98428225775963  L 174.1253141745681 7.780291860421156  L 175.77123678878291 7.780291860421156  L 175.77123678878291 12.831055536652679  L 166.9930643316554 12.831055536652679  Z M 174.1253141745681 10.247249631393897  L 168.6392314019246 10.247249631393897  L 168.6392314019246 11.51132282333371  L 174.1253141745681 11.51132282333371  L 174.1253141745681 10.247249631393897  Z M 165.59624243686503 7  L 165.59624243686503 5.739319874484897  L 177.25728514342597 5.739319874484897  L 177.25728514342597 7  L 165.59624243686503 7  Z M 170.57556780875595 0.5951759857850365  C 170.57556780875595 0.5951759857850365  170.57556780875595 0.15039128955427014  170.57556780875595 0.15039128955427014  L 172.00539127088908 0.15039128955427014  C 172.00539127088908 0.15039128955427014  172.00539127088908 0.5951759857850365  172.00539127088908 0.5951759857850365  C 172.00539127088908 1.0462469939072188  171.9246771008898 1.4762238219151096  171.76313532098757 1.885174473554875  C 171.60159354108535 2.2939775087699013  171.3707344744154 2.6723483426238017  171.07034686284337 3.020235529847643  C 170.76995925127136 3.3681227170714836  170.40699939441092 3.6807925129949894  169.98178405264014 3.9582151903519716  C 169.55656871086933 4.235644557093777  169.076627799098 4.467700756491662  168.54193789227693 4.654266379342936  C 168.0072479854559 4.840684370770851  167.42464660178715 4.977724180668271  166.7938326473267 5.06550792030547  C 166.7938326473267 5.06550792030547  166.1939374898511 3.7644512494801714  166.1939374898511 3.7644512494801714  C 166.7399753857088 3.6956105952785485  167.243037925109 3.587553632529326  167.70296471360692 3.440323617254546  C 168.16222396280594 3.292952689938471  168.57000730805947 3.1151211838709427  168.92646726583405 2.9068277191788594  C 169.28292722360865 2.698540958870219  169.58408208760284 2.4691835362845156  169.8297323868089 2.2187629957279498  C 170.075382686015 1.968342455171384  170.26086355315962 1.7055429530222157  170.38635882265726 1.4303145438735776  C 170.51252161653346 1.1549452076850237  170.57556780875595 0.8765644184389589  170.57556780875595 0.5951759857850365  Z M 170.85204760627218 0.5951759857850365  C 170.85204760627218 0.5951759857850365  170.85204760627218 0.15039128955427014  170.85204760627218 0.15039128955427014  L 172.2777153154807 0.15039128955427014  C 172.2777153154807 0.15039128955427014  172.2777153154807 0.5951759857850365  172.2777153154807 0.5951759857850365  C 172.2777153154807 0.8734843916876961  172.34162656343568 1.149558873028932  172.46912440606886 1.4233110279384522  C 172.59595472432352 1.697069872232796  172.7829212319584 1.9599674953584576  173.0299065948419 2.212005217194057  C 173.27755948210387 2.463888603222852  173.5784698900437 2.6947121559787144  173.93292725976235 2.9046160825677667  C 174.28805216877996 3.114379097115524  174.695525199274 3.29369477669389  175.1554519877719 3.442535253865638  C 175.6147112369709 3.591375731037387  176.11622229209627 3.6986906070311907  176.6595900904399 3.7644512494801714  C 176.6595900904399 3.7644512494801714  176.05969493296433 5.06550792030547  176.05969493296433 5.06550792030547  C 175.43221861531683 4.977724180668271  174.8517893454419 4.840684370770851  174.31843445753702 4.654266379342936  C 173.78507956963213 4.467700756491662  173.30513868770163 4.2348957659549145  172.87858829717382 3.9560035537408793  C 172.45203790664607 3.67695700572004  172.08845745010748 3.36282778400982  171.78806983853545 3.01347775131375  C 171.48768222696341 2.6639733828108754  171.25651286045445 2.2855044279804817  171.09430355617368 1.8781709576197496  C 170.93276177627146 1.4708374872590178  170.85204760627218 1.0431669971531972  170.85204760627218 0.5951759857850365  Z M 187 12.971740198858265  L 187 0.009460889947450002  L 189 0.009460889947450002  L 189 12.971740198858265  L 187 12.971740198858265  Z M 179.2117112982823 9.30238932365506  L 179.2117112982823 1.2542436958905145  L 180.87181236365177 1.2542436958905145  L 180.87181236365177 9.30238932365506  L 179.2117112982823 9.30238932365506  Z M 179.2117112982823 9.740661978753167  L 179.2117112982823 8.312436202790064  C 179.2117112982823 8.312436202790064  180.3342535000459 8.312436202790064  180.3342535000459 8.312436202790064  C 181.2901536023667 8.312436202790064  182.28140338702153 8.27103200794722  183.3080614017128 8.188093077766437  C 184.33471941640406 8.105221251414578  185.3841164993227 7.955692989993584  186.4561664701605 7.739622320517182  C 186.4561664701605 7.739622320517182  186.64341980782402 9.139588295338552  186.64341980782402 9.139588295338552  C 185.53732586987636 9.371360990808329  184.4574918596465 9.529434956340076  183.40413263108846 9.61398434841783  C 182.35077340253042 9.698399532837731  181.32753514660786 9.740661978753167  180.3342535000459 9.740661978753167  C 180.3342535000459 9.740661978753167  179.2117112982823 9.740661978753167  179.2117112982823 9.740661978753167  Z M 199 13  L 199 0  L 201 0  L 201 13  L 199 13  Z M 201.07390515458096 6.274044459566746  L 201.07390515458096 4.888331254016861  L 203.37692564299886 4.888331254016861  L 203.37692564299886 6.274044459566746  L 201.07390515458096 6.274044459566746  Z M 191.90313627410143 9.853332577218254  L 191.90313627410143 8.458035613020302  C 191.90313627410143 8.458035613020302  192.96945358335512 8.458035613020302  192.96945358335512 8.458035613020302  C 193.71975504314545 8.458035613020302  194.41740982398565 8.44710514696959  195.06224186499674 8.425229669955767  C 195.7070739060078 8.40342129489604  196.3331916901675 8.36121461947678  196.9406421869374 8.298674908321045  C 197.54809268370732 8.236000993257118  198.16782590357732 8.149872062688585  198.79997493663558 8.04015916222449  C 198.79997493663558 8.04015916222449  198.96913852627415 9.430664247098408  198.96913852627415 9.430664247098408  C 198.31829875093615 9.546416394674758  197.6796562942515 9.635654126848328  197.05284751590287 9.698395145741182  C 196.42670627685322 9.760867753067988  195.7811245149058 9.802339051739759  195.11626665301714 9.82273827076481  C 194.45074125182958 9.84320459174396  193.7351082082939 9.853332577218254  192.96945358335512 9.853332577218254  C 192.96945358335512 9.853332577218254  191.90313627410143 9.853332577218254  191.90313627410143 9.853332577218254  Z M 191.90313627410143 9.118209141431326  L 191.90313627410143 1.2211920154247475  L 197.90893261838025 1.2211920154247475  L 197.90893261838025 2.5739764092094815  L 193.56323733947093 2.5739764092094815  L 193.56323733947093 9.118209141431326  L 191.90313627410143 9.118209141431326  Z M 204.8908419878425 11.71589920985974  C 204.69592380997014 11.551900226710844  204.59847254679084 11.287540643031573  204.59847254679084 10.922904616082569  C 204.59847254679084 10.546726910541839  204.69592380997014 10.281275607260461  204.8908419878425 10.12646969868814  C 205.08576016571485 9.97166379011582  205.32238319699638 9.894247854523458  205.60074236979406 9.894247854523458  C 205.87910154259177 9.894247854523458  206.1172102143635 9.97166379011582  206.31479850467028 10.12646969868814  C 206.51238679497706 10.281275607260461  206.61107924259218 10.546726910541839  206.61107924259218 10.922904616082569  C 206.61107924259218 11.287540643031573  206.51238679497706 11.551900226710844  206.31479850467028 11.71589920985974  C 206.1172102143635 11.879898193008637  205.87910154259177 11.96188234849344  205.60074236979406 11.96188234849344  C 205.32238319699638 11.96188234849344  205.08576016571485 11.879898193008637  204.8908419878425 11.71589920985974  Z M 216.8943676266053 4.3010188650712635  L 216.8943676266053 2.9436883293637295  L 219.1482524480906 2.9436883293637295  L 219.1482524480906 4.3010188650712635  L 216.8943676266053 4.3010188650712635  Z M 216.8943676266053 8.294865978601944  L 216.8943676266053 6.937412574193793  L 219.1482524480906 6.937412574193793  L 219.1482524480906 8.294865978601944  L 216.8943676266053 8.294865978601944  Z M 221 12.971740198858265  L 221 0.009460889947450002  L 222 0.009460889947450002  L 222 12.971740198858265  L 221 12.971740198858265  Z M 218 12.375827000869533  L 218 0.23455634947639029  L 220 0.23455634947639029  L 220 12.375827000869533  L 218 12.375827000869533  Z M 213.20552576584464 1.5305754035764243  C 213.62540088274656 1.154652704584509  214.1138325542147 0.9666080677479112  214.67055089981008 0.9666080677479112  C 215.23728215584427 0.9666080677479112  215.7303024512728 1.154652704584509  216.14951002887582 1.5305754035764243  C 216.56871760647883 1.9064914131835162  216.89181875745075 2.442194088317195  217.11877828453626 3.1378208763373787  C 217.34640533600026 3.8333000179355814  217.46003893646613 4.6620244458872655  217.46003893646613 5.62406903330687  C 217.46003893646613 6.585979413068622  217.34640533600026 7.416424482784795  217.11877828453626 8.11523193830101  C 216.89181875745075 8.813972259991056  216.5684073215602 9.350513088045613  216.14853220465827 9.724811916373671  C 215.72798957829826 10.099110744701731  215.23434868319157 10.286199009489245  214.66761742715738 10.286199009489245  C 214.1115666208609 10.286199009489245  213.62375551923006 10.099110744701731  213.20454794162708 9.724811916373671  C 212.78534036402405 9.350513088045613  212.4619289132131 8.813972259991056  212.2343018617491 8.11523193830101  C 212.0066748102851 7.416424482784795  211.8930412098192 6.585979413068622  211.8930412098192 5.62406903330687  C 211.8930412098192 4.6620244458872655  212.0066748102851 3.8333000179355814  212.2343018617491 3.1378208763373787  C 212.4619289132131 2.442194088317195  212.78565064894272 1.9064914131835162  213.20552576584464 1.5305754035764243  Z M 215.36651728666135 2.895155192620317  C 215.17560428490083 2.66234910718426  214.94419044741704 2.5459623454689804  214.67250654824522 2.5459623454689804  C 214.40683041324115 2.5459623454689804  214.17845368560205 2.66234910718426  213.98754068384153 2.895155192620317  C 213.79662768208104 3.127961278056374  213.64983018763394 3.4719449992549607  213.5470308738289 3.9271294090960644  C 213.44489909186257 4.382166202512428  213.39375692772572 4.947741450472395  213.39375692772572 5.62370042720502  C 213.39375692772572 6.290848794188429  213.44489909186257 6.854389419258577  213.5470308738289 7.314250878983781  C 213.64983018763394 7.774038545495238  213.79662768208104 8.12105054820374  213.98754068384153 8.355440248005747  C 214.17845368560205 8.589695755148524  214.40683041324115 8.706844731768175  214.67250654824522 8.706844731768175  C 214.94419044741704 8.706844731768175  215.17560428490083 8.589695755148524  215.36651728666135 8.355440248005747  C 215.55743028842187 8.12105054820374  215.7039174904901 7.774038545495238  215.80604927245642 7.314250878983781  C 215.90884858626146 6.854389419258577  215.96030104277716 6.290848794188429  215.96030104277716 5.62370042720502  C 215.96030104277716 4.947741450472395  215.90884858626146 4.382166202512428  215.80604927245642 3.9271294090960644  C 215.7039174904901 3.4719449992549607  215.55743028842187 3.127961278056374  215.36651728666135 2.895155192620317  Z M 234.27274853326367 3.154776757022419  L 234.27274853326367 1.7784015727193678  L 236.49265396318862 1.7784015727193678  L 236.49265396318862 3.154776757022419  L 234.27274853326367 3.154776757022419  Z M 234.27274853326367 5.955077312767003  L 234.27274853326367 4.578702128463952  L 236.49265396318862 4.578702128463952  L 236.49265396318862 5.955077312767003  L 234.27274853326367 5.955077312767003  Z M 233.10938217041678 7.676467808400439  L 233.10938217041678 0.018921779894900004  L 234.77437235687407 0.018921779894900004  L 234.77437235687407 7.676467808400439  L 233.10938217041678 7.676467808400439  Z M 226.23332227250583 9.563976787267022  L 226.23332227250583 8.230114173377187  L 234.77437235687407 8.230114173377187  L 234.77437235687407 12.981201088805715  L 233.10938217041678 12.981201088805715  L 233.10938217041678 9.563976787267022  L 226.23332227250583 9.563976787267022  Z M 226.49073449777958 1.1439076027371367  C 227.01474395486295 0.8727925953074199  227.60341955822113 0.7372122036974028  228.2569294907548 0.7372122036974028  C 228.92111987302619 0.7372122036974028  229.51431821179887 0.8727925953074199  230.0363251106671 1.1439076027371367  C 230.55899954883427 1.414874993742114  230.97161594426177 1.7853637524558974  231.2740061140489 2.2553778685115873  C 231.57639628383603 2.725244338145297  231.72747209494426 3.267166761291811  231.72747209494426 3.8811765150655932  C 231.72747209494426 4.495186268839375  231.57639628383603 5.038672928133919  231.2740061140489 5.5117670409436315  C 230.97161594426177 5.984861153753343  230.55899954883427 6.354724020026121  230.0363251106671 6.621148538807607  C 229.51431821179887 6.887405313015399  228.92111987302619 7.020471815810367  228.2569294907548 7.020471815810367  C 227.60341955822113 7.020471815810367  227.01474395486295 6.887405313015399  226.49073449777958 6.621148538807607  C 225.9673925203135 6.354724020026121  225.55446583996738 5.984861153753343  225.25207567018026 5.5117670409436315  C 224.94968550039312 5.038672928133919  224.7986096892849 4.495186268839375  224.7986096892849 3.8811765150655932  C 224.7986096892849 3.267166761291811  224.94968550039312 2.725244338145297  225.25207567018026 2.2553778685115873  C 225.55446583996738 1.7853637524558974  225.9673925203135 1.414874993742114  226.49073449777958 1.1439076027371367  Z M 229.20737463022712 2.362396506748327  C 228.93235309424236 2.2250037418097377  228.61656737723646 2.1562228271142865  228.2601074194619 2.1562228271142865  C 227.9109902746121 2.1562228271142865  227.5973107828541 2.2250037418097377  227.3189516100564 2.362396506748327  C 227.0405924372587 2.4997892716869163  226.82108262786056 2.6980775764842893  226.66087591163577 2.9574496238327477  C 226.50066919541095 3.216828360566029  226.42057561016935 3.52478070032132  226.42057561016935 3.8811765150655932  C 226.42057561016935 4.237719976231848  226.50066919541095 4.545647538265773  226.66087591163577 4.805026274999055  C 226.82108262786056 5.064398322347513  227.0405924372587 5.264398494716277  227.3189516100564 5.404871271407509  C 227.5973107828541 5.545350752482184  227.9109902746121 5.615591092964349  228.2601074194619 5.615591092964349  C 228.61656737723646 5.615591092964349  228.93235309424236 5.545350752482184  229.20737463022712 5.404871271407509  C 229.48239616621188 5.264398494716277  229.69986557922638 5.064398322347513  229.86007229545118 4.805026274999055  C 230.01961148729745 4.545647538265773  230.09939477269998 4.237719976231848  230.09939477269998 3.8811765150655932  C 230.09939477269998 3.52478070032132  230.01961148729745 3.216828360566029  229.86007229545118 2.9574496238327477  C 229.69986557922638 2.6980775764842893  229.48239616621188 2.4997892716869163  229.20737463022712 2.362396506748327  Z M 250 12.971740198858265  L 250 0.009460889947450002  L 252 0.009460889947450002  L 252 12.971740198858265  L 250 12.971740198858265  Z M 248.80566096681048 6.438565649691883  L 248.80566096681048 5.086026993308382  L 251.04634516135866 5.086026993308382  L 251.04634516135866 6.438565649691883  L 248.80566096681048 6.438565649691883  Z M 247 12.347321462326565  L 247 0.25347812937129033  L 249 0.25347812937129033  L 249 12.347321462326565  L 247 12.347321462326565  Z M 241.74357001150796 8.96769498317644  L 241.74357001150796 1.483639559941023  L 243.40856019796527 1.483639559941023  L 243.40856019796527 8.96769498317644  L 241.74357001150796 8.96769498317644  Z M 241.74357001150796 9.764621375373332  L 241.74357001150796 8.327057578163396  C 241.74357001150796 8.327057578163396  242.6175004059559 8.327057578163396  242.6175004059559 8.327057578163396  C 243.2529870758271 8.327057578163396  243.93297381920885 8.30362569803119  244.65724172379467 8.256653812710296  C 245.38150962838046 8.209681927389397  246.14983626064623 8.106349155189076  246.96221786064768 7.946778949756153  C 246.96221786064768 7.946778949756153  247.12135875205624 9.384342746966087  247.12135875205624 9.384342746966087  C 246.27426570532762 9.544047160056863  245.47698762211633 9.64736859329995  244.72935625984002 9.694340478620846  C 243.9817248975637 9.741178160033547  243.27768561211545 9.764621375373332  242.6175004059559 9.764621375373332  C 242.6175004059559 9.764621375373332  241.74357001150796 9.764621375373332  241.74357001150796 9.764621375373332  Z M 259.85483016923064 3.1461759479792826  L 259.85483016923064 1.8028524441419984  L 263.70085727296475 1.8028524441419984  L 263.70085727296475 3.1461759479792826  L 259.85483016923064 3.1461759479792826  Z M 259.85483016923064 5.987883255831537  L 259.85483016923064 4.639645003969604  L 263.70085727296475 4.639645003969604  L 263.70085727296475 5.987883255831537  L 259.85483016923064 5.987883255831537  Z M 256.1038964706547 9.630325885599788  L 256.1038964706547 8.305678424256172  L 264.84515606356916 8.305678424256172  L 264.84515606356916 12.981201088805715  L 263.1711210030994 12.981201088805715  L 263.1711210030994 9.630325885599788  L 256.1038964706547 9.630325885599788  Z M 263.1711210030994 7.677205020604135  L 263.1711210030994 0.018921779894900004  L 264.84515606356916 0.018921779894900004  L 264.84515606356916 7.677205020604135  L 263.1711210030994 7.677205020604135  Z M 255.93082158414583 1.1086442856602774  C 256.4421480332764 0.8360597133762664  257.0171236532992 0.6997372500094514  257.65594795998334 0.6997372500094514  C 258.29477226666745 0.6997372500094514  258.86819640241544 0.8360597133762664  259.376185214733 1.1086442856602774  C 259.8841740270506 1.3812288579442884  260.28705846342507 1.757919276334366  260.5847759476423 2.2387905939283956  C 260.8824934318595 2.719668630904491  261.0313971590147 3.2687557151667237  261.0313971590147 3.88584552568901  C 261.0313971590147 4.50308964202086  260.8824934318595 5.052869332588885  260.5847759476423 5.5353578314619485  C 260.28705846342507 6.017846330335012  259.8841740270506 6.39537694145838  259.376185214733 6.667961513742392  C 258.86819640241544 6.940532647262272  258.29477226666745 7.076868549393217  257.65594795998334 7.076868549393217  C 257.0171236532992 7.076868549393217  256.4421480332764 6.940532647262272  255.93082158414583 6.667961513742392  C 255.4201626743142 6.39537694145838  255.01579258252912 6.017846330335012  254.7180750983119 5.5353578314619485  C 254.42035761409474 5.052869332588885  254.2716983429939 4.50308964202086  254.2716983429939 3.88584552568901  C 254.2716983429939 3.2687557151667237  254.42035761409474 2.719668630904491  254.7180750983119 2.2387905939283956  C 255.01579258252912 1.757919276334366  255.4201626743142 1.3812288579442884  255.93082158414583 1.1086442856602774  Z M 258.56825795497065 2.3435975955540433  C 258.2965740557988 2.199890471303365  257.990520297846 2.1280858946731693  257.65008101467794 2.1280858946731693  C 257.30897419221105 2.1280858946731693  257.00323074901763 2.199890471303365  256.7328818986028 2.3435975955540433  C 256.462533048188 2.487157103379982  256.2487872034014 2.6903037913854866  256.0919181239895 2.9529034819099467  C 255.93504904457765 3.2153622453944912  255.85675139966534 3.5263696841934737  255.85675139966534 3.88584552568901  C 255.85675139966534 4.245475702991351  255.93504904457765 4.558015910832176  256.0919181239895 4.823702317492723  C 256.2487872034014 5.089388724153269  256.46284336294747 5.293375619890685  256.7338597228204 5.435465577860951  C 257.0055436219922 5.577555535831215  257.31190766486367 5.6485199047295005  257.65301448733067 5.6485199047295005  C 257.99345377049866 5.6485199047295005  258.2988869287734 5.577555535831215  258.56923577918826 5.435465577860951  C 258.83958462960305 5.293375619890685  259.05308601833525 5.089388724153269  259.2099550977471 4.823702317492723  C 259.3674917015375 4.558015910832176  259.44634410234323 4.245475702991351  259.44634410234323 3.88584552568901  C 259.44634410234323 3.5263696841934737  259.3674917015375 3.2153622453944912  259.2099550977471 2.9529034819099467  C 259.05308601833525 2.6903037913854866  258.8392743148436 2.487157103379982  258.56825795497065 2.3435975955540433  Z M 267.59993134050166 11.71589920985974  C 267.4050131626293 11.551900226710844  267.3073174433956 11.287540643031573  267.3073174433956 10.922904616082569  C 267.3073174433956 10.546726910541839  267.4050131626293 10.281275607260461  267.59993134050166 10.12646969868814  C 267.7955170427526 9.97166379011582  268.03245037387313 9.894247854523458  268.3108095466708 9.894247854523458  C 268.5891687194685 9.894247854523458  268.82672263534675 9.97166379011582  269.0236434012751 10.12646969868814  C 269.22123169158186 10.281275607260461  269.319924139197 10.546726910541839  269.319924139197 10.922904616082569  C 269.319924139197 11.287540643031573  269.22123169158186 11.551900226710844  269.0236434012751 11.71589920985974  C 268.82672263534675 11.879898193008637  268.5891687194685 11.96188234849344  268.3108095466708 11.96188234849344  C 268.03245037387313 11.96188234849344  267.7955170427526 11.879898193008637  267.59993134050166 11.71589920985974  Z M 271.439847042876 11.71589920985974  C 271.24492886500366 11.551900226710844  271.14747760182433 11.287540643031573  271.14747760182433 10.922904616082569  C 271.14747760182433 10.546726910541839  271.24492886500366 10.281275607260461  271.439847042876 10.12646969868814  C 271.6354327451269 9.97166379011582  271.87236607624743 9.894247854523458  272.15072524904514 9.894247854523458  C 272.4290844218428 9.894247854523458  272.6666383377211 9.97166379011582  272.8635591036494 10.12646969868814  C 273.06114739395616 10.281275607260461  273.1600842976257 10.546726910541839  273.1600842976257 10.922904616082569  C 273.1600842976257 11.287540643031573  273.06114739395616 11.551900226710844  272.8635591036494 11.71589920985974  C 272.6666383377211 11.879898193008637  272.4290844218428 11.96188234849344  272.15072524904514 11.96188234849344  C 271.87236607624743 11.96188234849344  271.6354327451269 11.879898193008637  271.439847042876 11.71589920985974  Z M 275.2797627452503 11.71589920985974  C 275.08484456737796 11.551900226710844  274.98739330419863 11.287540643031573  274.98739330419863 10.922904616082569  C 274.98739330419863 10.546726910541839  275.08484456737796 10.281275607260461  275.2797627452503 10.12646969868814  C 275.4753484475012 9.97166379011582  275.71228177862173 9.894247854523458  275.99064095141944 9.894247854523458  C 276.26900012421714 9.894247854523458  276.5065540400954 9.97166379011582  276.7034748060237 10.12646969868814  C 276.90106309633046 10.281275607260461  277 10.546726910541839  277 10.922904616082569  C 277 11.287540643031573  276.90106309633046 11.551900226710844  276.7034748060237 11.71589920985974  C 276.5065540400954 11.879898193008637  276.26900012421714 11.96188234849344  275.99064095141944 11.96188234849344  C 275.71228177862173 11.96188234849344  275.4753484475012 11.879898193008637  275.2797627452503 11.71589920985974  Z " fill-rule="nonzero" fill="#fc4a36" stroke="none" transform="matrix(1 0 0 1 48 44 )" />
  </g>
</svg>