<?xml version="1.0" encoding="utf-8"?>
<svg version="1.1" xmlns:xlink="http://www.w3.org/1999/xlink" width="30px" height="32px" xmlns="http://www.w3.org/2000/svg">
  <g transform="matrix(1 0 0 1 -20 -35 )">
    <path d="M 29.999997710950414 23.102949512398393  C 29.99947107795813 22.581108712593743  29.859920627158 22.068586283442592  29.595357837965196 21.616843878416006  C 28.293226259732656 19.405238986344695  27.601657455022462 16.230779798800015  27.601657455022462 12.443054731190292  C 27.601657455022455 9.142951470390978  26.27402758121624 5.978011856309055  23.9108305312823 3.6444864673540405  C 21.547633481348363 1.310961078399026  18.34245103112527 0  15.000385704854832 0  C 11.658320378584385 0  8.453136211574105 1.310961078399026  6.089939161640168 3.6444864673540405  C 3.7267421117062303 5.978011856309055  2.399112237900011 9.142951470390978  2.3991122379000074 12.443054731190292  C 2.3991122379000096 16.232261148744076  1.7105426604066758 19.405238986344695  0.40841108217413313 21.616843878416006  C 0.14270627183753304 22.06793605614381  0.0018615434672406106 22.580116119131556  1.832680670295354E-05 23.10195723679215  C -0.0018248898538347034 23.62379835445274  0.1353983200932162 24.136934916594953  0.39791006720954775 24.5898462544951  C 0.658761108853006 25.043005060902253  1.0373707683675626 25.41920539970843  1.4946520934579268 25.679608983512956  C 1.9519334185482908 25.940012567317478  2.47131386906148 26.075182019044497  2.99917285193298 26.071162293922516  C 2.99917285193298 26.071162293922516  8.426721151642209 26.071162293922516  8.426721151642209 26.071162293922516  C 8.575577303908377 27.691176255568042  9.332530976944998 29.197677292449427  10.548875557803234 30.294707691555704  C 11.765220138661467 31.391738090661978  13.353033402727144 32  15.000385704854832 32  C 16.647738006982518 32  18.2355501265234 31.391738090661978  19.451894707381634 30.294707691555704  C 20.66823928823987 29.197677292449427  21.425193533538888 27.691176255568042  21.57404968580505 26.071162293922516  C 21.57404968580505 26.071162293922516  27.001596840989492 26.071162293922516  27.001596840989492 26.071162293922516  C 27.528694857940057 26.074389474784205  28.047141519288758 25.938844517377078  28.503561303342103 25.678481089372823  C 28.959981087395455 25.41811766136857  29.337880962707107 25.042343955866897  29.598358781969246 24.5898462544951  C 29.862009259720597 24.137584084373938  30.000524343942693 23.624790312203046  29.999997710950414 23.102949512398393  Z M 16.89831912037013 27.77367216211331  C 16.362515776320482 28.20557089151598  15.692047216073158 28.441407351717793  15.000385704854832 28.441267957006378  C 14.308724193636504 28.441407351717793  13.638255633389177 28.20557089151598  13.10245228933953 27.77367216211331  C 12.566648945289883 27.341773432710642  12.198421216511967 26.740340587582835  12.060088924998222 26.071162293922516  C 12.060088924998222 26.071162293922516  17.94068362923623 26.071162293922516  17.94068362923623 26.071162293922516  C 17.802351337722484 26.740340587582835  17.434122464419776 27.341773432710642  16.89831912037013 27.77367216211331  Z M 26.000996041775462 22.51600379929672  C 26.000996041775462 22.51600379929672  3.9982737514073836 22.51600379929672  3.9982737514073836 22.51600379929672  C 5.325907917181576 19.849634928327372  5.999475922097844 16.463346371783942  5.999475922097844 12.443054731190292  C 5.999475922097844 10.08583805578965  6.947783240509829 7.82516694323665  8.635781194633612 6.15836303343908  C 10.323779148757396 4.49155912364151  12.6131961247764 3.5551584946257995  15.000385704854832 3.5551584946257972  C 17.387575284933263 3.5551584946257986  19.676990544165072 4.49155912364151  21.36498849828886 6.15836303343908  C 23.05298645241264 7.82516694323665  24.001293770824624 10.08583805578965  24.001293770824628 12.443054731190292  C 24.001293770824628 16.46186502183988  24.673361876001273 19.849634928327372  26.000996041775462 22.51600379929672  Z " fill-rule="nonzero" fill="#555555" stroke="none" transform="matrix(1 0 0 1 20 35 )" />
  </g>
</svg>