<?xml version="1.0" encoding="utf-8"?>
<svg version="1.1" xmlns:xlink="http://www.w3.org/1999/xlink" width="13px" height="13px" xmlns="http://www.w3.org/2000/svg">
  <g transform="matrix(1 0 0 1 -28 -44 )">
    <path d="M 1.903832420852178 11.096286598428945  C 3.0801283362592238 12.272533813563735  4.705191565252321 13  6.500119019281124 13  C 8.295036710009521 13  9.919920364013032 12.272533813563735  11.096167579147822 11.096286598428945  C 12.27241479428261 9.920039383294156  13 8.294917690728399  13 6.5  C 13 4.7050725459711975  12.27241479428261 3.0801283362592238  11.096167579147822 1.903832420852178  C 9.919920364013032 0.7275589377901095  8.295036710009521 0  6.500119019281124 0  C 4.705191565252321 0  3.0801283362592238 0.7275589377901095  1.903832420852178 1.903832420852178  C 0.7275589377901095 3.0801283362592238  0 4.7050725459711975  0 6.5  C 0 8.294917690728399  0.7275589377901095 9.920039383294156  1.903832420852178 11.096286598428945  Z " fill-rule="nonzero" fill="#fc4a36" stroke="none" transform="matrix(1 0 0 1 28 44 )" />
  </g>
</svg>