<?xml version="1.0" encoding="utf-8"?>
<svg version="1.1" xmlns:xlink="http://www.w3.org/1999/xlink" width="23px" height="23px" xmlns="http://www.w3.org/2000/svg">
  <g transform="matrix(1 0 0 1 -390 -50 )">
    <path d="M 0 1.2777777777777777  C 0 0.5720805625120798  0.0969171776491053 0  0.2164705882352941 0  C 0.2164705882352941 0  22.783529411764707 0  22.783529411764707 0  C 22.903082822350896 0  23 0.5720805625120798  23 1.2777777777777777  C 23 1.2777777777777777  23 21.72222222222222  23 21.72222222222222  C 23 22.42791943748792  22.903082822350896 23  22.783529411764707 23  C 22.783529411764707 23  0.2164705882352941 23  0.2164705882352941 23  C 0.0969171776491053 23  0 22.42791943748792  0 21.72222222222222  C 0 21.72222222222222  0 1.2777777777777777  0 1.2777777777777777  Z " fill-rule="nonzero" fill="#ffffff" stroke="none" transform="matrix(1 0 0 1 390 50 )" />
  </g>
</svg>