<?xml version="1.0" encoding="utf-8"?>
<svg version="1.1" xmlns:xlink="http://www.w3.org/1999/xlink" width="30px" height="16px" xmlns="http://www.w3.org/2000/svg">
  <g transform="matrix(1 0 0 1 -380 -52 )">
    <path d="M 30 7.429520715939377  C 29.991835938730777 7.014586059234324  29.83194433725797 6.616676452097817  29.550000704251804 6.3096452792559985  C 27.695939678412213 4.32016355065391  25.445987628056454 2.7324626115930792  22.941856384277344 1.6465396013674176  C 20.437725140498234 0.5606165911417557  17.733670839896572 0  15 0  C 12.266329160103432 0  9.562273759108324 0.5606165911417557  7.058142515329214 1.6465396013674176  C 4.554011271550104 2.7324626115930792  2.3040608717845035 4.32016355065391  0.4499998459449181 6.3096452792559985  C 0.16281381822549382 6.622546042042845  0.0025445838064814988 7.029534338349332  0 7.452375850464081  C 0 7.452375850464081  0 14.308759277712578  0 14.308759277712578  C 0.0060674388749668235 14.759393469007993  0.19109078324758091 15.189529032420653  0.5150176928593563 15.506057953818669  C 0.8389446024711316 15.822586875216683  1.275711185657061 16.0000400616918  1.730769230769231 16  C 1.730769230769231 16  28.269230769230774 16  28.269230769230774 16  C 28.728259308980064 16  29.168486354442745 15.81940958431897  29.493068548349232 15.49795425458513  C 29.817650742255726 15.176498924851291  30 14.740510629225929  30 14.285904143187876  C 30 14.285904143187876  30 7.429520715939377  30 7.429520715939377  Z " fill-rule="nonzero" fill="#555555" stroke="none" transform="matrix(1 0 0 1 380 52 )" />
  </g>
</svg>