<?xml version="1.0" encoding="utf-8"?>
<svg version="1.1" xmlns:xlink="http://www.w3.org/1999/xlink" width="7px" height="5px" xmlns="http://www.w3.org/2000/svg">
  <g transform="matrix(1 0 0 1 -32 -48 )">
    <path d="M 2.961139547413793 4.825613839285714  C 2.961139547413793 4.825613839285714  6.823208512931035 1.0160900297619049  6.823208512931035 1.0160900297619049  C 6.87979425900969 0.9602754279261544  6.923408005258133 0.8959114977291651  6.9540342133620685 0.8229864211309523  C 6.984653983136703 0.7500613445327395  7 0.6741714264665332  7 0.5952380952380952  C 7 0.5561542227154687  6.996180197673625 0.5174295462313152  6.988449622844827 0.47909691220238093  C 6.98071904801603 0.4407635792380288  6.9691992700099945 0.4035983412038712  6.9540342133620685 0.3674897693452381  C 6.9388755932450294 0.33138119748660494  6.920417618905676 0.29698282125450315  6.898403825431035 0.2644856770833333  C 6.876390031956393 0.2319885329121635  6.851227823516418 0.2020229860430672  6.823208512931035 0.17438616071428573  C 6.795189202345651 0.14674997045880273  6.764691832764395 0.12204382213808242  6.7317483836206895 0.10033017113095238  C 6.698804934476984 0.07861588505052385  6.664165244534098 0.06029722768635977  6.627559267241379 0.04534040178571429  C 6.590946855216191 0.030383575885068802  6.553035842961279 0.019017991033338365  6.514176993534482 0.011393229166666668  C 6.475318144107687 0.0037684672999949683  6.436176551313236 0  6.3965517241379315 0  C 6.316529657306343 0  6.239477055853811 0.015134052151725405  6.165544181034482 0.04534040178571429  C 6.091617744544457 0.07554738649300166  6.026480681423483 0.11857219395183381  5.969894935344827 0.17438616071428573  C 5.969894935344827 0.17438616071428573  2.5344827586206895 3.5629417782738093  2.5344827586206895 3.5629417782738093  C 2.5344827586206895 3.5629417782738093  1.0301050646551724 2.0791480654761902  1.0301050646551724 2.0791480654761902  C 0.9735206062423771 2.023332193493843  0.9083867586892226 1.9803054808151155  0.8344558189655172 1.950102306547619  C 0.7605248792418118 1.9198927815471376  0.6834703426936577 1.9047619047619047  0.603448275862069 1.9047619047619047  C 0.5638253154425785 1.9047619047619047  0.5246843664810575 1.9085297369886012  0.48582300646551724 1.9161551339285716  C 0.4469609378740705 1.9237805308685416  0.40904735388426944 1.935143577201026  0.3724407327586207 1.950102306547619  C 0.33583411163297194 1.965054686935175  0.30119699702180663 1.9833777898124285  0.26825161637931033 2.005092075892857  C 0.23530623573681403 2.0268063619732857  0.20480950998848882 2.051509970000812  0.17679148706896552 2.0791480654761902  C 0.14877410798237242 2.106786160951569  0.12360932421067665 2.136752342893964  0.10159617456896552 2.169247581845238  C 0.07958238109432418 2.2017428207965124  0.061128913585481975 2.2361437373218083  0.045965786637931036 2.272251674107143  C 0.030802659690380096 2.3083596108924773  0.019280308151039583 2.345522308633441  0.011550377155172414 2.3838588169642856  C 0.0038204461593052434 2.4221889745621454  0 2.460914286119597  0 2.5  C 0 2.5789333312284377  0.015342797698645756 2.6548213405268535  0.045965786637931036 2.7277483258928568  C 0.07658941941014652 2.800668960525876  0.1202076724891005 2.865036062541462  0.17679148706896552 2.9208519345238093  C 0.17679148706896552 2.9208519345238093  2.1078259698275863 4.825613839285714  2.1078259698275863 4.825613839285714  C 2.13584528041297 4.853251934761093  2.1663426499942253 4.877955542788619  2.199286099137931 4.8996698288690474  C 2.2322295482816368 4.921384114949476  2.2668692382245226 4.939707217826729  2.303475215517241 4.954659598214286  C 2.34008119280996 4.969618327560879  2.3779922014680404 4.980981373893363  2.416857489224138 4.988606770833333  C 2.4557163386509337 4.996232167773304  2.494857931445385 5  2.5344827586206895 5  C 2.5741075857959945 5  2.6132491785904457 4.996232167773304  2.652108028017241 4.988606770833333  C 2.690973315773339 4.980981373893363  2.7288843244314194 4.969618327560879  2.765490301724138 4.954659598214286  C 2.8020962790168564 4.939707217826729  2.8367359689597427 4.921384114949476  2.8696794181034484 4.8996698288690474  C 2.902622867247154 4.877955542788619  2.9331202368284095 4.853251934761093  2.961139547413793 4.825613839285714  Z " fill-rule="nonzero" fill="#ffffff" stroke="none" transform="matrix(1 0 0 1 32 48 )" />
  </g>
</svg>