<?xml version="1.0" encoding="utf-8"?>
<svg version="1.1" xmlns:xlink="http://www.w3.org/1999/xlink" width="95px" height="64px" xmlns="http://www.w3.org/2000/svg">
  <defs>
    <filter x="96px" y="10px" width="95px" height="64px" filterUnits="userSpaceOnUse" id="filter209">
      <feOffset dx="1" dy="1" in="SourceAlpha" result="shadowOffsetInner" />
      <feGaussianBlur stdDeviation="1" in="shadowOffsetInner" result="shadowGaussian" />
      <feComposite in2="shadowGaussian" operator="atop" in="SourceAlpha" result="shadowComposite" />
      <feColorMatrix type="matrix" values="0 0 0 0 0.7215686274509804  0 0 0 0 0.7215686274509804  0 0 0 0 0.7568627450980392  0 0 0 1 0  " in="shadowComposite" />
    </filter>
    <g id="widget210">
      <path d="M 98 16  A 4 4 0 0 1 102 12 L 183 12  A 4 4 0 0 1 187 16 L 187 66  A 4 4 0 0 1 183 70 L 102 70  A 4 4 0 0 1 98 66 L 98 16  Z " fill-rule="nonzero" fill="#ffffff" stroke="none" />
      <path d="M 97.5 16  A 4.5 4.5 0 0 1 102 11.5 L 183 11.5  A 4.5 4.5 0 0 1 187.5 16 L 187.5 66  A 4.5 4.5 0 0 1 183 70.5 L 102 70.5  A 4.5 4.5 0 0 1 97.5 66 L 97.5 16  Z " stroke-width="1" stroke="#f2f2f2" fill="none" stroke-opacity="0.9921568627450981" />
    </g>
  </defs>
  <g transform="matrix(1 0 0 1 -96 -10 )">
    <use xlink:href="#widget210" filter="url(#filter209)" />
    <use xlink:href="#widget210" />
  </g>
</svg>