<?xml version="1.0" encoding="utf-8"?>
<svg version="1.1" xmlns:xlink="http://www.w3.org/1999/xlink" width="36px" height="19px" xmlns="http://www.w3.org/2000/svg">
  <g transform="matrix(1 0 0 1 -66 -581 )">
    <path d="M 18 7.6000000000000005  L 0 0  C 0 0  0 15.200000000000001  0 15.200000000000001  C 0 16.207822698354722  0.37928468585014347 17.174366822838785  1.0544156312942505 17.887005043029784  C 1.7295465767383575 18.599643263220788  2.645220601558685 19  3.6 19  C 3.6 19  32.4 19  32.4 19  C 33.354779398441316 19  34.270452779531475 18.599643263220788  34.945583724975585 17.887005043029784  C 35.620714670419694 17.174366822838785  36 16.207822698354722  36 15.200000000000001  C 36 15.200000000000001  36 0  36 0  L 18 7.6000000000000005  Z " fill-rule="nonzero" fill="#1d9ae4" stroke="none" transform="matrix(1 0 0 1 66 581 )" />
  </g>
</svg>