<?xml version="1.0" encoding="utf-8"?>
<svg version="1.1" xmlns:xlink="http://www.w3.org/1999/xlink" width="30px" height="30px" xmlns="http://www.w3.org/2000/svg">
  <g transform="matrix(1 0 0 1 -210 -565 )">
    <path d="M 30 2.343749856948852  C 30 1.0487498760223388  28.94999985694885 0  27.65625 0  C 27.65625 0  2.343749856948852 0  2.343749856948852 0  C 1.0487498760223388 0  0 1.05  0 2.343749856948852  C 0 2.343749856948852  0 27.65625  0 27.65625  C 0 28.951249980926516  1.05 30  2.343749856948852 30  C 2.343749856948852 30  27.65625 30  27.65625 30  C 28.951249980926516 30  30 28.94999985694885  30 27.65625  C 30 27.65625  30 2.343749856948852  30 2.343749856948852  Z M 27.1875 13.82874870300293  C 27.1875 19.13624839782715  21.73125 23.4375  15 23.4375  C 14.259999990463257 23.4375  13.538331985473633 23.387497705221175  12.83499870300293 23.287497711181643  C 12.13249876499176 23.782497704029083  8.068749475479125 26.636247865855694  7.684999465942383 26.689997863769534  C 7.684999465942383 26.689997863769534  7.528749310970307 26.75124755501747  7.394999313354492 26.67249755859375  C 7.261249315738678 26.59374756217003  7.284999847412109 26.386248779296874  7.284999847412109 26.386248779296874  C 7.324999849498272 26.111248791217804  8.338749808073043 22.613748908042908  8.524999809265138 21.969998931884767  C 5.093750095367431 20.26999897956848  2.8125 17.25874843597412  2.8125 13.82874870300293  C 2.8125 8.52124900817871  8.26875 4.218749713897704  15 4.218749713897704  C 21.73125 4.218749713897704  27.1875 8.52124900817871  27.1875 13.82874870300293  Z " fill-rule="nonzero" fill="#fae100" stroke="none" transform="matrix(1 0 0 1 210 565 )" />
  </g>
</svg>