<?xml version="1.0" encoding="utf-8"?>
<svg version="1.1" xmlns:xlink="http://www.w3.org/1999/xlink" width="381px" height="36px" xmlns="http://www.w3.org/2000/svg">
  <g transform="matrix(1 0 0 1 -24 -864 )">
    <path d="M 0 4  C 0 1.790860891342163  1.7861727738255606 0  3.9895287958115184 0  C 3.9895287958115184 0  377.0104712041885 0  377.0104712041885 0  C 379.21382722617443 0  381 1.790860891342163  381 4  C 381 4  381 32  381 32  C 381 34.20913910865784  379.21382722617443 36  377.0104712041885 36  C 377.0104712041885 36  3.9895287958115184 36  3.9895287958115184 36  C 1.7861727738255606 36  0 34.20913910865784  0 32  C 0 32  0 4  0 4  Z " fill-rule="nonzero" fill="#fc4a36" stroke="none" transform="matrix(1 0 0 1 24 864 )" />
  </g>
</svg>