<?xml version="1.0" encoding="utf-8"?>
<svg version="1.1" xmlns:xlink="http://www.w3.org/1999/xlink" width="20px" height="20px" xmlns="http://www.w3.org/2000/svg">
  <defs>
    <mask fill="white" id="clip138">
      <path d="M 0 4.666666666666667  C 0 2.0893378257751465  2.0893378257751465 0  4.666666666666667 0  C 4.666666666666667 0  15.333333333333334 0  15.333333333333334 0  C 17.910662174224854 0  20 2.0893378257751465  20 4.666666666666667  C 20 4.666666666666667  20 15.333333333333334  20 15.333333333333334  C 20 17.910662174224854  17.910662174224854 20  15.333333333333334 20  C 15.333333333333334 20  4.666666666666667 20  4.666666666666667 20  C 2.0893378257751465 20  0 17.910662174224854  0 15.333333333333334  C 0 15.333333333333334  0 4.666666666666667  0 4.666666666666667  Z " fill-rule="evenodd" />
    </mask>
  </defs>
  <g transform="matrix(1 0 0 1 -24 -528 )">
    <path d="M 0 4.666666666666667  C 0 2.0893378257751465  2.0893378257751465 0  4.666666666666667 0  C 4.666666666666667 0  15.333333333333334 0  15.333333333333334 0  C 17.910662174224854 0  20 2.0893378257751465  20 4.666666666666667  C 20 4.666666666666667  20 15.333333333333334  20 15.333333333333334  C 20 17.910662174224854  17.910662174224854 20  15.333333333333334 20  C 15.333333333333334 20  4.666666666666667 20  4.666666666666667 20  C 2.0893378257751465 20  0 17.910662174224854  0 15.333333333333334  C 0 15.333333333333334  0 4.666666666666667  0 4.666666666666667  Z " fill-rule="nonzero" fill="#ffffff" stroke="none" transform="matrix(1 0 0 1 24 528 )" />
    <path d="M 0 4.666666666666667  C 0 2.0893378257751465  2.0893378257751465 0  4.666666666666667 0  C 4.666666666666667 0  15.333333333333334 0  15.333333333333334 0  C 17.910662174224854 0  20 2.0893378257751465  20 4.666666666666667  C 20 4.666666666666667  20 15.333333333333334  20 15.333333333333334  C 20 17.910662174224854  17.910662174224854 20  15.333333333333334 20  C 15.333333333333334 20  4.666666666666667 20  4.666666666666667 20  C 2.0893378257751465 20  0 17.910662174224854  0 15.333333333333334  C 0 15.333333333333334  0 4.666666666666667  0 4.666666666666667  Z " stroke-width="2" stroke="#d7d7d7" fill="none" transform="matrix(1 0 0 1 24 528 )" mask="url(#clip138)" />
  </g>
</svg>