<?xml version="1.0" encoding="utf-8"?>
<svg version="1.1" xmlns:xlink="http://www.w3.org/1999/xlink" width="36px" height="15px" xmlns="http://www.w3.org/2000/svg">
  <g transform="matrix(1 0 0 1 -210 -572 )">
    <path d="M 32.4 0  C 32.4 0  3.6 0  3.6 0  C 2.645220601558685 0  1.7295465767383575 0.39508799090981483  1.0544156312942505 1.098349392414093  C 0.37928468585014347 1.8016107939183712  0 2.7554381266236305  0 3.75  C 0 3.75  0 7.5  0 7.5  L 18 15  L 36 7.5  C 36 7.5  36 3.75  36 3.75  C 36 2.7554381266236305  35.620714670419694 1.8016107939183712  34.945583724975585 1.098349392414093  C 34.270452779531475 0.39508799090981483  33.354779398441316 0  32.4 0  Z " fill-rule="nonzero" fill="#1d9ae4" stroke="none" transform="matrix(1 0 0 1 210 572 )" />
  </g>
</svg>