<?xml version="1.0" encoding="utf-8"?>
<svg version="1.1" xmlns:xlink="http://www.w3.org/1999/xlink" width="20px" height="20px" xmlns="http://www.w3.org/2000/svg">
  <g transform="matrix(1 0 0 1 -205 -837 )">
    <path d="M 2.2265814077904875 19.617868470327487  C 2.2265814077904875 19.617868470327487  19.618373117978244 2.2265530462251775  19.618373117978244 2.2265530462251775  C 19.74066981084149 2.1042481774863626  19.834445711093636 1.9632064246161969  19.90064453672331 1.8034060657011477  C 19.966829445845995 1.6436057067860987  20 1.477308505456719  20 1.3043422879488453  C 20 1.2186979917992982  19.991743462746502 1.1338408001485936  19.975033755381755 1.0498426891869514  C 19.958324048017005 0.9658430466515924  19.9334100311165 0.8844030447474032  19.90064453672331 0.8052785101965431  C 19.86786512971043 0.726153975645683  19.82798196396439 0.6507769842950907  19.7803989503987 0.5795661533366452  C 19.732815936833003 0.5083553223781996  19.6789231984396 0.4426919680405688  19.618373117978244 0.3821315296725133  C 19.5578091248972 0.3215724829374291  19.4919026936312 0.267434022571982  19.42068122181744 0.21985300673825264  C 19.349473658736077 0.1722705992715518  19.27409014063963 0.13212901618123027  19.19496598986065 0.09935419771485346  C 19.115841839081668 0.06657937924847665  19.034392449900327 0.041674029493513516  18.9503986956411 0.024965926605270868  C 18.86639102487489 0.008257823717028219  18.781290519581603 0  18.69564109749573 0  C 18.52267267676495 0  18.35661838097964 0.03316317347199135  18.19682572032711 0.09935419771485346  C 18.0370191431676 0.16554661359068695  17.895729193805153 0.2598266609336986  17.773418592209513 0.3821315296725133  C 17.773418592209513 0.3821315296725133  0.382136397218047 17.773192199421707  0.382136397218047 17.773192199421707  C 0.25982997057450224 17.89550124305944  0.16554872230356996 18.03653463835729  0.09935546327669223 18.19633917994574  C 0.03316359590051238 18.356129805204475  0 18.52269149454328  0 18.695657712051155  C 0 18.78130604315887  0.008257928904195022 18.866150710112834  0.02496624461824574 18.95015731081305  C 0.041674560332296454 19.03414999518355  0.06658022732861381 19.115598346885566  0.09935546327669223 19.194721489803456  C 0.13213069922477064 19.273844632721346  0.17201803603561155 19.34897243625071  0.21960104960130433 19.42017909231024  C 0.2671826715162993 19.491399656924997  0.3215765790890983 19.55730524869349  0.382136397218047 19.617868470327487  C 0.44269760699769367 19.678417779519012  0.5086165553453916 19.732564585795046  0.57982829337885 19.780146993261745  C 0.6510400314123084 19.827729400728447  0.7259084677096734 19.867866812807097  0.8050340101393525 19.900645802285148  C 0.8841595525690313 19.933424791763194  0.9661101070424754 19.9580698245204  1.0501108195551931 19.974779319041613  C 1.134110000474685 19.991474901120355  1.218713515427961 20  1.304358902504267 20  C 1.4773273232350472 20  1.643881400436352 19.966829868363153  1.803683794869182 19.900645802285148  C 1.963486189302012 19.83444781987743  2.1042749811469426 19.74016360540999  2.2265814077904875 19.617868470327487  Z " fill-rule="nonzero" fill="#f2f2f2" stroke="none" transform="matrix(1 0 0 1 205 837 )" />
  </g>
</svg>