<?xml version="1.0" encoding="utf-8"?>
<svg version="1.1" xmlns:xlink="http://www.w3.org/1999/xlink" width="431px" height="78px" xmlns="http://www.w3.org/2000/svg">
  <defs>
    <mask fill="white" id="clip2146">
      <path d="M 0 4  C 0 1.790860891342163  1.790860891342163 0  3.9999999999999996 0  C 3.9999999999999996 0  421 0  421 0  C 423.20913910865784 0  425 1.790860891342163  425 4  C 425 4  425 68  425 68  C 425 70.20913910865784  423.20913910865784 72  421 72  C 421 72  3.9999999999999996 72  3.9999999999999996 72  C 1.790860891342163 72  0 70.20913910865784  0 68  C 0 68  0 4  0 4  Z " fill-rule="evenodd" />
    </mask>
    <filter x="0px" y="51px" width="431px" height="78px" filterUnits="userSpaceOnUse" id="filter2147">
      <feOffset dx="0" dy="1" in="SourceAlpha" result="shadowOffsetInner" />
      <feGaussianBlur stdDeviation="1.5" in="shadowOffsetInner" result="shadowGaussian" />
      <feComposite in2="shadowGaussian" operator="atop" in="SourceAlpha" result="shadowComposite" />
      <feColorMatrix type="matrix" values="0 0 0 0 0  0 0 0 0 0  0 0 0 0 0  0 0 0 0.34901960784313724 0  " in="shadowComposite" />
    </filter>
    <g id="widget2148">
      <path d="M 0 4  C 0 1.790860891342163  1.790860891342163 0  3.9999999999999996 0  C 3.9999999999999996 0  421 0  421 0  C 423.20913910865784 0  425 1.790860891342163  425 4  C 425 4  425 68  425 68  C 425 70.20913910865784  423.20913910865784 72  421 72  C 421 72  3.9999999999999996 72  3.9999999999999996 72  C 1.790860891342163 72  0 70.20913910865784  0 68  C 0 68  0 4  0 4  Z " fill-rule="nonzero" fill="#ffffff" stroke="none" fill-opacity="0" transform="matrix(1 0 0 1 3 53 )" />
      <path d="M 0 4  C 0 1.790860891342163  1.790860891342163 0  3.9999999999999996 0  C 3.9999999999999996 0  421 0  421 0  C 423.20913910865784 0  425 1.790860891342163  425 4  C 425 4  425 68  425 68  C 425 70.20913910865784  423.20913910865784 72  421 72  C 421 72  3.9999999999999996 72  3.9999999999999996 72  C 1.790860891342163 72  0 70.20913910865784  0 68  C 0 68  0 4  0 4  Z " stroke-width="2" stroke="#f2f2f2" fill="none" transform="matrix(1 0 0 1 3 53 )" mask="url(#clip2146)" />
    </g>
  </defs>
  <g transform="matrix(1 0 0 1 0 -51 )">
    <use xlink:href="#widget2148" filter="url(#filter2147)" />
    <use xlink:href="#widget2148" />
  </g>
</svg>