<?xml version="1.0" encoding="utf-8"?>
<svg version="1.1" xmlns:xlink="http://www.w3.org/1999/xlink" width="15px" height="15px" xmlns="http://www.w3.org/2000/svg">
  <g transform="matrix(1 0 0 1 -28 -72 )">
    <path d="M 2.196775651649842 2.196650092913465  C 0.7323012209017629 3.661151989635126  0 5.428939297451786  0 7.5  C 0 9.571060702548214  0.7323012209017629 11.338896075818642  2.196775651649842 12.803349907086536  C 3.6612706818781073 14.267838070821405  5.4290648561881625 15  7.500125558736376 15  C 9.571186261284591 15  11.338770517082267 14.267838070821405  12.803224348350158 12.803349907086536  C 14.267712512085028 11.338896075818642  15 9.571060702548214  15 7.5  C 15 5.428939297451786  14.267712512085028 3.6611451231417305  12.803224348350158 2.196650092913465  C 11.338770517082267 0.732175662165386  9.571186261284591 0  7.500125558736376 0  C 5.4290648561881625 0  3.6612706818781073 0.7321825286587815  2.196775651649842 2.196650092913465  Z M 11.894179096981567 11.894304655717946  C 10.680718651122495 13.107682826272223  9.216141958669203 13.714278539500778  7.500125558736376 13.714278539500778  C 5.784109158803552 13.714278539500778  4.3192676158907135 13.107682826272223  3.105820903018432 11.894304655717946  C 1.8924015335037794 10.680851076352267  1.2857214604992215 9.216023266426221  1.2857214604992215 7.5  C 1.2857214604992215 5.783976733573779  1.8924015335037794 4.319254005519875  3.105820903018432 3.105820903018432  C 4.319260872013272 1.8923946670103837  5.784102292310155 1.2857214604992215  7.500125558736376 1.2857214604992215  C 9.216148825162598 1.2857214604992215  10.68072551761589 1.8924015335037794  11.894179096981567 3.105820903018432  C 13.107557267535848 4.3192676158907135  13.714278539500778 5.783983600067174  13.714278539500778 7.5  C 13.714278539500778 9.216016399932826  13.107557267535848 10.680844209858872  11.894179096981567 11.894304655717946  Z " fill-rule="nonzero" fill="#fc4a36" stroke="none" transform="matrix(1 0 0 1 28 72 )" />
  </g>
</svg>