<?xml version="1.0" encoding="utf-8"?>
<svg version="1.1" xmlns:xlink="http://www.w3.org/1999/xlink" width="114px" height="22px" xmlns="http://www.w3.org/2000/svg">
  <g transform="matrix(1 0 0 1 -158 -120 )">
    <path d="M 12.050800980143931 8.228801681850035  L 12.050800980143931 5.695120882971268  L 17.226681886648326 5.695120882971268  L 17.226681886648326 8.228801681850035  L 12.050800980143931 8.228801681850035  Z M 16 16.025687631394536  L 16 0.04215574632095305  L 19 0.04215574632095305  L 19 16.025687631394536  L 16 16.025687631394536  Z M 4.0487325503053295 21.5791652067274  L 4.0487325503053295 19  L 19.265724572689003 19  L 19.265724572689003 21.5791652067274  L 4.0487325503053295 21.5791652067274  Z M 4.0487325503053295 20.549119656622285  L 4.0487325503053295 14.678389978976874  L 7.2555283293352275 14.678389978976874  L 7.2555283293352275 20.549119656622285  L 4.0487325503053295 20.549119656622285  Z M 5.2619825170473815 4.287841625788367  C 5.2619825170473815 4.287841625788367  5.2619825170473815 2.9060967063770144  5.2619825170473815 2.9060967063770144  L 7.8670454496689235 2.9060967063770144  C 7.8670454496689235 2.9060967063770144  7.8670454496689235 4.287841625788367  7.8670454496689235 4.287841625788367  C 7.8670454496689235 5.6635310086823045  7.64163274444609 6.976274005165448  7.191441335124256 8.225911002102313  C 6.741249925802422 9.475515064862364  6.055254946985757 10.568540994153627  5.132830101232905 11.50490539593553  C 4.209737364125187 12.4410724867117  3.0325913920550245 13.146986867133437  1.6011964278817477 13.622569201121232  C 1.6011964278817477 13.622569201121232  0 11.117554309740713  0 11.117554309740713  C 0.9177492479579887 10.812208088779249  1.709375299430498 10.420574942082897  2.374643281679805 9.942492992291522  C 3.039911263929113 9.464476822637225  3.586338209353993 8.918881192437903  4.014487591566643 8.305886475122636  C 4.442636973779293 7.6928917578073674  4.757441433793834 7.044459689807958  4.959159239058135 6.360699894884373  C 5.160877044322436 5.676683566247823  5.2619825170473815 4.985678134803265  5.2619825170473815 4.287841625788367  Z M 5.940032700073382 4.282782936229853  C 5.940032700073382 4.282782936229853  5.940032700073382 2.9060967063770144  5.940032700073382 2.9060967063770144  L 8.506936964386101 2.9060967063770144  C 8.506936964386101 2.9060967063770144  8.506936964386101 4.282782936229853  8.506936964386101 4.282782936229853  C 8.506936964386101 5.138489127743887  8.6809313513655 5.987803560081861  9.028927978302944 6.830676243868256  C 9.376256654167053 7.673325269307469  9.924104242245802 8.43542659040423  10.67219678406365 9.116963034337772  C 11.420289325881498 9.798302167265584  12.377968850243212 10.337234831223892  13.544859608543216 10.733816573230554  C 13.544859608543216 10.733816573230554  11.981821848970291 13.183185879467413  11.981821848970291 13.183185879467413  C 10.60386213460511 12.727139922732142  9.468772834456617 12.050825663020584  8.576405309256009 11.153928696566222  C 7.684037784055402 10.257031730111862  7.021555041330879 9.213090839132029  6.588730061323366 8.022358969866854  C 6.156573032389185 6.831462664961731  5.940032700073382 5.584964177453109  5.940032700073382 4.282782936229853  Z M 0.8727572341402499 4  L 0.8727572341402499 1.5139935178696566  L 12.838435031133733 1.5139935178696566  L 12.838435031133733 4  L 0.8727572341402499 4  Z M 27.229634334218783 5.9507051506657325  C 27.229634334218783 5.9507051506657325  27.229634334218783 3.4888095655220743  27.229634334218783 3.4888095655220743  L 29.759847571311482 3.4888095655220743  C 29.759847571311482 3.4888095655220743  29.759847571311482 5.9507051506657325  29.759847571311482 5.9507051506657325  C 29.759847571311482 7.179371781005004  29.627599409793785 8.400296997840202  29.36309526363898 9.613196391030133  C 29.099259068557505 10.825832663671738  28.708413813224634 11.965562313857744  28.191428461079617 13.032629642606867  C 27.6744431089346 14.09949960153923  27.02926286690357 15.04841521810466  26.255120651255005 15.879467414155572  C 25.480310544251576 16.710453800663885  24.58167980576352 17.364924144143398  23.55906397112781 17.84247985283812  C 23.55906397112781 17.84247985283812  21.753376218206473 15.356013489838823  21.753376218206473 15.356013489838823  C 22.669789564017798 14.925818685893839  23.46966703575893 14.365018992968682  24.152969398395896 13.673878766643307  C 24.835603869677993 12.982475478580637  25.40572172885361 12.210000009409764  25.863260480545172 11.356517168885773  C 26.320799232236734 10.503034328361784  26.662710024668634 9.61460703239628  26.88914160161698 8.691069551506658  C 27.116241129638663 7.767532070617035  27.229634334218783 6.854028751236957  27.229634334218783 5.9507051506657325  Z M 27.90230316658585 5.9507051506657325  C 27.90230316658585 5.9507051506657325  27.90230316658585 3.4888095655220743  27.90230316658585 3.4888095655220743  L 30.427135053019608 3.4888095655220743  C 30.427135053019608 3.4888095655220743  30.427135053019608 5.9507051506657325  30.427135053019608 5.9507051506657325  C 30.427135053019608 6.782263827307205  30.537244667452953 7.6292718674807425  30.75833272539234 8.491371758934827  C 30.980088734405054 9.353471650388913  31.31281664775149 10.189711743831301  31.756328665776923 11.000240889978977  C 32.200508605016466 11.810572666309895  32.763306562458766 12.542481992490321  33.44460513159419 13.196193938332165  C 34.12590370072962 13.849576954083085  34.92032409879341 14.38527686393754  35.828054259806805 14.803170988086894  C 35.828054259806805 14.803170988086894  34.06688495324576 17.289637351086196  34.06688495324576 17.289637351086196  C 33.03959364025212 16.824645442735424  32.14282575967927 16.193221671646427  31.376698837473768 15.395519446391031  C 30.61057191526827 14.597751470404067  29.96942804454225 13.690013455108236  29.4531105837521 12.672017344078487  C 28.936793122961948 11.654021233048736  28.548921041175117 10.571611870897343  28.289760414029278 9.424820427470218  C 28.031267737956767 8.277765863494766  27.90230316658585 7.119644475133585  27.90230316658585 5.9507051506657325  Z M 22.614881537332582 5  L 22.614881537332582 2.1256131744919413  L 34.838374952258754 2.1256131744919413  L 34.838374952258754 5  L 22.614881537332582 5  Z M 37 21.962662053258583  L 37 0.036856166783461805  L 40 0.036856166783461805  L 40 21.962662053258583  L 37 21.962662053258583  Z M 38.98201495963987 10.986510161177295  L 38.98201495963987 8.392125087596357  L 42.906487231093394 8.392125087596357  L 42.906487231093394 10.986510161177295  L 38.98201495963987 10.986510161177295  Z M 66 22  L 66 0  L 69 0  L 69 22  L 66 22  Z M 62.16927652160479 10.968443412754029  L 62.16927652160479 8.429463034337772  L 66.81729584983714 8.429463034337772  L 66.81729584983714 10.968443412754029  L 62.16927652160479 10.968443412754029  Z M 55.75323889506366 6.848502102312543  C 55.75323889506366 6.848502102312543  55.75323889506366 5.718487210932025  55.75323889506366 5.718487210932025  L 58.24578267754381 5.718487210932025  C 58.24578267754381 5.718487210932025  58.24578267754381 6.848502102312543  58.24578267754381 6.848502102312543  C 58.24578267754381 8.002937097689783  58.1211649537971 9.141932668599033  57.872023413595855 10.265767344078487  C 57.62221393725089 11.38960201955794  57.24432437977614 12.44996994863295  56.738026065649045 13.446719516468114  C 56.23172775152195 14.443534835034846  55.599456193984494 15.326195180207261  54.84134456522206 16.094823055360898  C 54.083232936459616 16.86345093051453  53.1995524777574 17.469774889127308  52.19029554515142 17.913783286615278  C 52.19029554515142 17.913783286615278  50.48000446300214 15.488021198318151  50.48000446300214 15.488021198318151  C 51.38172312407401 15.07907299637878  52.16416632632029 14.556261700187099  52.82676256399473 13.919586545199719  C 53.48935880166918 13.282648269664012  54.03782737224556 12.574833469618094  54.4719882245405 11.79614138051857  C 54.90614907683545 11.017120420139156  55.227962977193734 10.204210368252001  55.437696060971476 9.357371233356693  C 55.64809708089294 8.510334728644624  55.75323889506366 7.6741078088729635  55.75323889506366 6.848502102312543  Z M 56.444497847888876 6.848502102312543  C 56.444497847888876 6.848502102312543  56.444497847888876 5.718487210932025  56.444497847888876 5.718487210932025  L 58.93606320297648 5.718487210932025  C 58.93606320297648 5.718487210932025  58.93606320297648 6.848502102312543  58.93606320297648 6.848502102312543  C 58.93606320297648 7.630167383034912  59.04324665722832 8.427052193784013  59.2569873877276 9.239094253679047  C 59.47006016715355 10.050938943757322  59.79435796764314 10.832567055908717  60.23052264329885 11.58415819901892  C 60.666687318954565 12.335749342129125  61.21812900335851 13.017350537006724  61.884064936681156 13.62883234057463  C 62.55000087000379 14.240379894874108  63.33350729986828 14.742460155954875  64.23522596094014 15.135358269096004  C 64.23522596094014 15.135358269096004  62.562115119707165 17.52980466012614  62.562115119707165 17.52980466012614  C 61.54083518721811 17.105003739205287  60.64859295136502 16.52098324621317  59.88513777373438 15.77781184302733  C 59.12235054717707 15.034574630298895  58.483380070403925 14.183436232675767  57.96839851176044 13.224378065872461  C 57.45408490419029 12.265319899069151  57.0713593301839 11.243661154711589  56.82021396662189 10.159293973370708  C 56.569736554133215 9.074926792029826  56.444497847888876 7.971363220000985  56.444497847888876 6.848502102312543  Z M 51.23143670046819 6  L 51.23143670046819 4  L 63.3668716500663 4  L 63.3668716500663 6  L 51.23143670046819 6  Z M 55.747368330708454 4.887657673440785  L 55.747368330708454 0.5241765942536791  L 58.942422981027946 0.5241765942536791  L 58.942422981027946 4.887657673440785  L 55.747368330708454 4.887657673440785  Z M 78.97865912533742 13.930667484232655  C 80.1134888293021 13.589274365666368  81.45185221294098 13.41853538892782  82.99412514429658 13.41853538892782  C 84.53573018429731 13.41853538892782  85.86770512501971 13.589274365666368  86.99051182910135 13.930667484232655  C 88.11331853318298 14.272060602798945  88.98080662766714 14.760094966768133  89.59263947954528 15.3947967764541  C 90.20447233142343 16.029498586140065  90.5104043737421 16.797605219134603  90.5104043737421 17.698909425367905  C 90.5104043737421 18.59409616706918  90.20447233142343 19.361241063289736  89.59263947954528 20.000613174491942  C 88.98080662766714 20.64024840624247  88.11331853318298 21.130598248680236  86.99051182910135 21.471728276103715  C 85.86770512501971 21.813121394670002  84.53573018429731 21.98386037140855  82.99412514429658 21.98386037140855  C 81.45185221294098 21.98386037140855  80.1134888293021 21.813121394670002  78.97865912533742 21.471728276103715  C 77.84382942137272 21.130598248680236  76.97026342000974 20.640270636811824  76.35843056813158 20.000372284512963  C 75.74659771625345 19.36080286230503  75.44066567393479 18.59293617831299  75.44066567393479 17.697223195515065  C 75.44066567393479 16.80157602225974  75.74659771625345 16.03552354092187  76.35843056813158 15.39865101611773  C 76.97026342000974 14.761449620033696  77.84382942137272 14.272060602798945  78.97865912533742 13.930667484232655  Z M 85.3775742725092 16.089041695865454  C 84.73434825765061 15.961298830958622  83.93992785958682 15.897293272599859  82.99412514429658 15.897293272599859  C 82.04832242900635 15.897293272599859  81.25123936357495 15.961298830958622  80.60333781063997 16.089041695865454  C 79.95610414905984 16.21658722036104  79.46451094054501 16.413081120341996  79.12786930269883 16.678499474421866  C 78.79189558606674 16.943654707953407  78.62397919554387 17.281921167514003  78.62397919554387 17.693368955851437  C 78.62397919554387 18.115670290374222  78.79189558606674 18.462434296851903  79.12786930269883 18.733772775052557  C 79.46451094054501 19.00511125325321  79.95610414905984 19.20761209713803  80.60333781063997 19.34153819201121  C 81.25123936357495 19.475530067021477  82.04832242900635 19.542681324456904  82.99412514429658 19.542681324456904  C 83.93992785958682 19.542681324456904  84.73434825765061 19.475530067021477  85.3775742725092 19.34153819201121  C 86.02080028736778 19.20761209713803  86.50959911943211 19.00511125325321  86.84423693391753 18.733772775052557  C 87.17820682718884 18.462434296851903  87.34519175889488 18.115670290374222  87.34519175889488 17.693368955851437  C 87.34519175889488 17.281921167514003  87.17820682718884 16.943654707953407  86.84423693391753 16.678499474421866  C 86.50959911943211 16.413081120341996  86.02080028736778 16.21658722036104  85.3775742725092 16.089041695865454  Z M 87 12.9406096706377  L 87 0.036856166783461805  L 90 0.036856166783461805  L 90 12.9406096706377  L 87 12.9406096706377  Z M 89.37542859840276 7.7185967063770144  L 89.37542859840276 5.124211632796076  L 93.20450419908423 5.124211632796076  L 93.20450419908423 7.7185967063770144  L 89.37542859840276 7.7185967063770144  Z M 73 11.72989663629993  L 73 1.4133015066573231  L 76.54188570423169 1.4133015066573231  L 76.54188570423169 4.133672039243168  L 80.90811794341428 4.133672039243168  L 80.90811794341428 1.4133015066573231  L 84 1.4133015066573231  L 84 11.72989663629993  L 73 11.72989663629993  Z M 80.90811794341428 6.556784337771548  L 76.54188570423169 6.556784337771548  L 76.54188570423169 9.264869481429573  L 80.90811794341428 9.264869481429573  L 80.90811794341428 6.556784337771548  Z M 106.78556562115119 8.228801681850035  L 106.78556562115119 5.695120882971268  L 111.9614465276556 5.695120882971268  L 111.9614465276556 8.228801681850035  L 106.78556562115119 8.228801681850035  Z M 110 16.025687631394536  L 110 0.04215574632095305  L 113 0.04215574632095305  L 113 16.025687631394536  L 110 16.025687631394536  Z M 98.78300797761632 21.5791652067274  L 98.78300797761632 19  L 114 19  L 114 21.5791652067274  L 98.78300797761632 21.5791652067274  Z M 98.78300797761632 20.549119656622285  L 98.78300797761632 14.678389978976874  L 101.99127139773502 14.678389978976874  L 101.99127139773502 20.549119656622285  L 98.78300797761632 20.549119656622285  Z M 99.99772558544718 4.287841625788367  C 99.99772558544718 4.287841625788367  99.99772558544718 2.9060967063770144  99.99772558544718 2.9060967063770144  L 102.60229930437245 2.9060967063770144  C 102.60229930437245 2.9060967063770144  102.60229930437245 4.287841625788367  102.60229930437245 4.287841625788367  C 102.60229930437245 5.6635310086823045  102.37737581284588 6.976274005165448  101.92718440352405 8.225911002102313  C 101.47699299420222 9.475515064862364  100.79019826565163 10.568540994153627  99.8671055285439 11.50490539593553  C 98.94468068279106 12.4410724867117  97.76784524675855 13.146986867133437  96.33645028258528 13.622569201121232  C 96.33645028258528 13.622569201121232  94.734275427311 11.117554309740713  94.734275427311 11.117554309740713  C 95.65269262634233 10.812208088779249  96.44462915413403 10.420574942082897  97.10989713638334 9.942492992291522  C 97.77516511863266 9.464476822637225  98.3220812777538 8.918881192437903  98.75023065996645 8.305886475122636  C 99.177712120965 7.6928917578073674  99.4922060748011 7.044459689807958  99.6939238800654 6.360699894884373  C 99.89630963640303 5.676683566247823  99.99772558544718 4.985678134803265  99.99772558544718 4.287841625788367  Z M 100.67479734108065 4.282782936229853  C 100.67479734108065 4.282782936229853  100.67479734108065 2.9060967063770144  100.67479734108065 2.9060967063770144  L 103.2426800327859 2.9060967063770144  C 103.2426800327859 2.9060967063770144  103.2426800327859 4.282782936229853  103.2426800327859 4.282782936229853  C 103.2426800327859 5.138489127743887  103.4163639434461 5.987803560081861  103.7636926193102 6.830676243868256  C 104.11168924624765 7.673325269307469  104.65953683432639 8.43542659040423  105.40696142507092 9.116963034337772  C 106.15505396688876 9.798302167265584  107.11255469415494 10.337234831223892  108.28011346324675 10.733816573230554  C 108.28011346324675 10.733816573230554  106.71609727628129 13.183185879467413  106.71609727628129 13.183185879467413  C 105.33813756191611 12.727139922732142  104.2030482617676 12.050825663020584  103.31068073656701 11.153928696566222  C 102.4183132113664 10.257031730111862  101.75583046864188 9.213090839132029  101.32300548863437 8.022358969866854  C 100.89084845970018 6.831462664961731  100.67479734108065 5.584964177453109  100.67479734108065 4.282782936229853  Z M 95.60703266145124 4  L 95.60703266145124 1.5139935178696566  L 107.57319967214099 1.5139935178696566  L 107.57319967214099 4  L 95.60703266145124 4  Z " fill-rule="nonzero" fill="#26262c" stroke="none" transform="matrix(1 0 0 1 158 120 )" />
  </g>
</svg>