<?xml version="1.0" encoding="utf-8"?>
<svg version="1.1" xmlns:xlink="http://www.w3.org/1999/xlink" width="355px" height="43px" xmlns="http://www.w3.org/2000/svg">
  <g transform="matrix(1 0 0 1 -491 -335 )">
    <path d="M 12.920862431431743 9.35087793490764  L 12.920862431431743 0.18402801272075242  L 14.587789814996208 0.18402801272075242  L 14.587789814996208 9.35087793490764  L 12.920862431431743 9.35087793490764  Z M 7.206214911791118 1.8770129914067257  C 7.206214911791118 1.8770129914067257  7.206214911791118 1.070708437648014  7.206214911791118 1.070708437648014  C 7.206214911791118 1.070708437648014  9.006860394658018 1.070708437648014  9.006860394658018 1.070708437648014  C 9.006860394658018 2.5717708543680717  8.670809953242738 3.899154371586866  7.99869309025976 5.052829747163769  C 7.32676959904656 6.206266805214008  6.3638893907074054 7.174446911107063  5.110076852862964 7.957423399192548  C 3.856264315018523 8.740068870981682  2.347778473139294 9.342157235995092  0.584604539621544 9.763637734848997  C 0.584604539621544 9.763637734848997  0 8.412977592078851  0 8.412977592078851  C 1.5635108731335452 8.053997492444454  2.8797652602883774 7.560210177397071  3.948713789948809 6.931630889550489  C 5.017668997881894 6.302886093555731  5.827774298137194 5.560252453366316  6.37902498014739 4.703685691408981  C 6.930489068745326 3.847118929451647  7.206214911791118 2.904893058399834  7.206214911791118 1.8770129914067257  Z M 0.9331874752003622 2.417943816676816  L 0.9331874752003622 1.070708437648014  L 7.953051866867718 1.070708437648014  L 7.953051866867718 2.417943816676816  L 0.9331874752003622 2.417943816676816  Z M 8.356312682777737 4.0826517637638995  L 8.356312682777737 2.7819992331461307  L 13.191259966938976 2.7819992331461307  L 13.191259966938976 4.0826517637638995  L 8.356312682777737 4.0826517637638995  Z M 8.19533196642574 7.51141611408079  L 8.19533196642574 6.218492032613844  L 13.098725821051833 6.218492032613844  L 13.098725821051833 7.51141611408079  L 8.19533196642574 7.51141611408079  Z M 2.942683532799676 11.50872155310463  L 2.942683532799676 11  L 14.587789814996208 11  L 14.587789814996208 14.589311692266055  L 4.629577043520258 14.589311692266055  L 4.629577043520258 17.444534192660758  L 2.9870730570886592 17.444534192660758  L 2.9870730570886592 13.323967566592236  L 12.933074129998175 13.323967566592236  L 12.933074129998175 11.50872155310463  L 2.942683532799676 11.50872155310463  Z M 2.9870730570886592 18  L 2.9870730570886592 17  L 15.181736304021072 17  L 15.181736304021072 18  L 2.9870730570886592 18  Z M 32 18.148641371766242  L 32 0.18402801272075242  L 34 0.18402801272075242  L 34 18.148641371766242  L 32 18.148641371766242  Z M 25.276872745673145 7.993974417529378  L 25.276872745673145 6.635616133252136  L 28.752505333158357 6.635616133252136  L 28.752505333158357 7.993974417529378  L 25.276872745673145 7.993974417529378  Z M 29 17.22853161580621  L 29 0.6042738006631031  L 30 0.6042738006631031  L 30 17.22853161580621  L 29 17.22853161580621  Z M 21.81305497655096 5.261679720098338  C 21.81305497655096 5.261679720098338  21.81305497655096 2.975331692491599  21.81305497655096 2.975331692491599  L 23.091039760774546 2.975331692491599  C 23.091039760774546 2.975331692491599  23.091039760774546 5.261679720098338  23.091039760774546 5.261679720098338  C 23.091039760774546 6.240314246433918  22.997882388942983 7.19816536527715  22.811544509835322 8.135208037305185  C 22.625406695676944 9.072250709333222  22.353738931841413 9.94900940617326  21.996535747511608 10.765487205945373  C 21.63953264303796 11.581700169002557  21.20092402811004 12.316715225249668  20.680725226978495 12.970519825427973  C 20.160526425846953 13.624324425606275  19.57059691782318 14.157284725340725  18.910944812238252 14.569429877980015  C 18.910944812238252 14.569429877980015  17.889069876199176 13.340454924780659  17.889069876199176 13.340454924780659  C 18.73019134049992 12.828137001364372  19.44075281293413 12.149904025978408  20.020774507202063 11.305751263053432  C 20.600996251512434 10.461598500128455  21.044696095299706 9.516258696267366  21.35188018018963 8.46977411642646  C 21.65933100840737 7.423289536585555  21.81305497655096 6.353927302909569  21.81305497655096 5.261679720098338  Z M 22.150677912666403 5.261679720098338  C 22.150677912666403 5.261679720098338  22.150677912666403 2.975331692491599  22.150677912666403 2.975331692491599  L 23.420877739053893 2.975331692491599  C 23.420877739053893 2.975331692491599  23.420877739053893 5.261679720098338  23.420877739053893 5.261679720098338  C 23.420877739053893 6.300298756056242  23.569144991978924 7.316899880791404  23.86565833008978 8.311477293231388  C 24.162238361486022 9.30605470567137  24.595229624887093 10.203816895588494  25.164647235847628 11.004735745539843  C 25.7339981833365 11.805455997552306  26.432569234613354 12.44497761746921  27.26041894381879 12.923330824142365  C 27.26041894381879 12.923330824142365  26.254052864959082 14.136727648465163  26.254052864959082 14.136727648465163  C 25.37645079964159 13.60044235751575  24.632537139164192 12.87725095238907  24.02230389345069 11.967154972145162  C 23.412270757407065 11.056794155186324  22.947834817403177 10.024162240341024  22.628979616267152 8.869228860770914  C 22.310124415131124 7.7142954812008036  22.150677912666403 6.511767262053279  22.150677912666403 5.261679720098338  Z M 18.38425425306802 3.6425847768229698  L 18.38425425306802 2.2798318842050658  L 26.647391675783876 2.2798318842050658  L 26.647391675783876 3.6425847768229698  L 18.38425425306802 3.6425847768229698  Z M 49 18.140882614971694  L 49 0.17626925592620157  L 51 0.17626925592620157  L 51 18.140882614971694  L 49 18.140882614971694  Z M 49.98382551925088 8.842194442564901  L 49.98382551925088 7.4683186446985586  L 53.314810537216694 7.4683186446985586  L 53.314810537216694 8.842194442564901  L 49.98382551925088 8.842194442564901  Z M 44.135276724829325 2.3726338893023886  C 44.135276724829325 2.3726338893023886  44.135276724829325 2.111624461510702  44.135276724829325 2.111624461510702  C 44.135276724829325 2.111624461510702  45.75869993225088 2.111624461510702  45.75869993225088 2.111624461510702  C 45.75869993225088 3.8135886715974734  45.480924932794274 5.444158846479626  44.92531256358468 7.003338774612627  C 44.36970019437509 8.562339935003319  43.49029034450126 9.999985619838009  42.28709720529259 11.316268015427296  C 41.08417083922544 12.632418051853735  39.50368165041902 13.775761362260745  37.545599944410974 14.746305286780792  C 37.545599944410974 14.746305286780792  36.62343352716682 13.473838864830729  36.62343352716682 13.473838864830729  C 38.29740660763561 12.631539958910235  39.69063977409938 11.652702513428753  40.80313159549969 10.537361571599341  C 41.91562341690001 9.421954450188506  42.74906498690408 8.17782958196949  43.30347687697677 6.805005554051921  C 43.85802215362022 5.4320424187852066  44.135276724829325 3.9545959311591825  44.135276724829325 2.3726338893023886  Z M 37.46304886210189 3.474377354128606  L 37.46304886210189 2.111624461510702  L 44.9906451509151 2.111624461510702  L 44.9906451509151 3.474377354128606  L 37.46304886210189 3.474377354128606  Z M 64.79789810868309 10.368123689018201  L 64.79789810868309 7.64458790062476  L 66.45691841742578 7.64458790062476  L 66.45691841742578 10.368123689018201  L 64.79789810868309 10.368123689018201  Z M 63.2719853143145 1.456797511108104  C 63.9449758384664 1.160728325359736  64.71464217047189 1.0126692999075264  65.58097327925557 1.0126692999075264  C 66.45530746303042 1.0126692999075264  67.22894378961868 1.160728325359736  67.90186765029893 1.456797511108104  C 68.57485817445082 1.7528733266535377  69.10048638143596 2.1680099384402416  69.47876428618235 2.702229514852155  C 69.85724227078491 3.236442461467003  70.0464861525358 3.8553851616948034  70.0464861525358 4.559057615535557  C 70.0464861525358 5.262723498773862  69.85724227078491 5.881672769604112  69.47876428618235 6.415885716218959  C 69.10048638143596 6.950078832637226  68.57485817445082 7.365309415877874  67.90186765029893 7.661590488756569  C 67.22894378961868 7.957672934099068  66.45530746303042 8.105718699957146  65.58097327925557 8.105718699957146  C 64.71464217047189 8.105718699957146  63.9449758384664 7.957672934099068  63.2719853143145 7.661590488756569  C 62.5989947901626 7.365309415877874  62.073261370569455 6.950078832637226  61.69478338596689 6.415885716218959  C 61.3165054812205 5.881672769604112  61.12736681207761 5.262723498773862  61.12736681207761 4.559057615535557  C 61.12736681207761 3.8553851616948034  61.3165054812205 3.236442461467003  61.69478338596689 2.702229514852155  C 62.073261370569455 2.1680099384402416  62.5989947901626 1.7528733266535377  63.2719853143145 1.456797511108104  Z M 67.09754412422083 2.5675423461217495  C 66.66111065847262 2.3767836835072105  66.15663942794987 2.28137757403523  65.58408726239001 2.28137757403523  C 65.02220584360924 2.28137757403523  64.52133921075121 2.3767836835072105  64.0814377537905 2.5675423461217495  C 63.641669683400536 2.7583076237347  63.2995379293913 3.025519966614016  63.055044489281826 3.369179522746239  C 62.810817807407034 3.712839078878462  62.68869353228885 4.109458549071555  62.68869353228885 4.559057615535557  C 62.68869353228885 5.008650052202493  62.810817807407034 5.405276152192653  63.055044489281826 5.748935708324875  C 63.2995379293913 6.092595264457098  63.641669683400536 6.359807607336415  64.0814377537905 6.550572884949365  C 64.52133921075121 6.741324917766838  65.02220584360924 6.836707349392156  65.58408726239001 6.836707349392156  C 66.15663942794987 6.836707349392156  66.66111065847262 6.741324917766838  67.09754412422083 6.550572884949365  C 67.53391089668365 6.359807607336415  67.87427086620008 6.092595264457098  68.11856424136026 5.748935708324875  C 68.36299098818435 5.405276152192653  68.4852204908174 5.008650052202493  68.4852204908174 4.559057615535557  C 68.4852204908174 4.109458549071555  68.36299098818435 3.712839078878462  68.11856424136026 3.369179522746239  C 67.87427086620008 3.025519966614016  67.53391089668365 2.7583076237347  67.09754412422083 2.5675423461217495  Z M 73 13.937515506236325  L 73 0.20390982700678892  L 75 0.20390982700678892  L 75 13.937515506236325  L 73 13.937515506236325  Z M 73.44622303343064 7.6439211324627285  L 73.44622303343064 6.265650726255723  L 76.78935869147007 6.265650726255723  L 76.78935869147007 7.6439211324627285  L 73.44622303343064 7.6439211324627285  Z M 62.7034086290614 18  L 62.7034086290614 17  L 74.78511366425431 17  L 74.78511366425431 18  L 62.7034086290614 18  Z M 62.7034086290614 16.98579769718294  L 62.7034086290614 12.774368755215734  L 64.35803272632019 12.774368755215734  L 64.35803272632019 16.98579769718294  L 62.7034086290614 16.98579769718294  Z M 63.737495263666915 11.236225528339762  C 62.49035193510596 11.263105999846164  61.34826093601143 11.27653469449895  60.31119793839009 11.27653469449895  C 60.31119793839009 11.27653469449895  60.097371096491855 9.924995630060671  60.097371096491855 9.924995630060671  C 61.15190743674652 9.924995630060671  62.31860500845241 9.912888913983048  63.59742708110993 9.888656765229943  C 64.87624915376745 9.864292199969208  66.18136632872385 9.809587918596522  67.51274187547955 9.724510566795226  C 68.84425074917857 9.639499416773338  70.12303382549399 9.505945987737121  71.34916909711 9.323873824345355  C 71.34916909711 9.323873824345355  71.47134714126716 10.533876192570538  71.47134714126716 10.533876192570538  C 70.21466688159238 10.758983597003777  68.92334236699826 10.925542664204709  67.59736894654492 11.03352800708212  C 66.27146218956325 11.141579559138263  64.98483870189773 11.209146432996826  63.737495263666915 11.236225528339762  Z M 83.10549342400031 15.125272063964635  L 83.10549342400031 10.71393390396283  L 84.7411283299883 10.71393390396283  L 84.7411283299883 15.125272063964635  L 83.10549342400031 15.125272063964635  Z M 88.88547353097135 15.101056256625391  L 88.88547353097135 10.689718096623587  L 90.50901885537857 10.689718096623587  L 90.50901885537857 15.101056256625391  L 88.88547353097135 15.101056256625391  Z M 78.531235374986 16  L 78.531235374986 15  L 94.93191290066196 15  L 94.93191290066196 16  L 78.531235374986 16  Z M 80.53047360578952 3  L 80.53047360578952 2  L 92.89921461578642 2  L 92.89921461578642 7  L 82.21391731166509 7  L 82.21391731166509 10.551272780070821  L 80.57480207158567 10.551272780070821  L 80.57480207158567 6  L 91.26022149269266 6  L 91.26022149269266 3  L 80.53047360578952 3  Z M 80.57480207158567 12  L 80.57480207158567 10  L 93.31941916345737 10  L 93.31941916345737 12  L 80.57480207158567 12  Z M 98.37170415285469 9.276987899497033  L 98.37170415285469 7.921993763673681  L 107.62444709814784 7.921993763673681  L 107.62444709814784 9.276987899497033  L 98.37170415285469 9.276987899497033  Z M 102.07435221668989 13.128119572817285  L 102.07435221668989 8.993944814714572  L 103.74198177292192 8.993944814714572  L 103.74198177292192 13.128119572817285  L 102.07435221668989 13.128119572817285  Z M 98.37170415285469 8.398096539008051  L 98.37170415285469 1.8819834449782349  L 107.54043061201078 1.8819834449782349  L 107.54043061201078 3.229521900444324  L 100.02657248408481 3.229521900444324  L 100.02657248408481 8.398096539008051  L 98.37170415285469 8.398096539008051  Z M 110 18.171978257437353  L 110 0.17626925592620157  L 112 0.17626925592620157  L 112 18.171978257437353  L 110 18.171978257437353  Z M 100.94690714654399 14.24598670410718  C 99.64174167336573 14.271278183071502  98.41304063324719 14.283901566411801  97.26086699275916 14.283901566411801  C 97.26086699275916 14.283901566411801  97.03488951078732 12.896932866454653  97.03488951078732 12.896932866454653  C 98.22234339241007 12.888855483536952  99.48300938831032 12.875500933841195  100.81685255681148 12.856896469089023  C 102.15069572531266 12.83809338050032  103.50355289009732 12.792876573657223  104.87541057536535 12.721239455759298  C 106.24726826063339 12.649469919503911  107.56810489686748 12.539305482200117  108.83792358469422 12.39073460089767  C 108.83792358469422 12.39073460089767  108.97298497083898 13.611981104946208  108.97298497083898 13.611981104946208  C 107.65514795232012 13.807692122378214  106.31430607333294 13.955916500592728  104.9504514630561 14.05668516137763  C 103.58659685277922 14.157453822162532  102.25207261972227 14.220562810485058  100.94690714654399 14.24598670410718  Z M 124.02573520875211 4.708625837336761  L 124.02573520875211 3.3489946320229156  L 129.07765384719244 3.3489946320229156  L 129.07765384719244 4.708625837336761  L 124.02573520875211 4.708625837336761  Z M 124.02573520875211 8.55111983219433  L 124.02573520875211 7.191731088030313  L 129.11667022411217 7.191731088030313  L 129.11667022411217 8.55111983219433  L 124.02573520875211 8.55111983219433  Z M 116.17971887981918 10.162062019306674  L 116.17971887981918 1.7475993526851163  L 124.4298813728082 1.7475993526851163  L 124.4298813728082 10.162062019306674  L 116.17971887981918 10.162062019306674  Z M 122.80627498990815 8.834465993414078  L 122.80627498990815 3.074952917427882  L 117.79831846630698 3.074952917427882  L 117.79831846630698 8.834465993414078  L 122.80627498990815 8.834465993414078  Z M 129 13.314026659449219  L 129 0.20390982700678892  L 131 0.20390982700678892  L 131 13.314026659449219  L 129 13.314026659449219  Z M 118.6036799867632 18  L 118.6036799867632 17  L 130.65626012087517 17  L 130.65626012087517 18  L 118.6036799867632 18  Z M 118.6036799867632 17.021439486207907  L 118.6036799867632 12.136301931795115  L 120.25830408402199 12.136301931795115  L 120.25830408402199 17.021439486207907  L 118.6036799867632 17.021439486207907  Z M 143.3481226749399 2.9523584985452334  C 143.3481226749399 2.9523584985452334  143.3481226749399 1.1200492816383607  143.3481226749399 1.1200492816383607  L 144.71961854093593 1.1200492816383607  C 144.71961854093593 1.1200492816383607  144.71961854093593 2.9523584985452334  144.71961854093593 2.9523584985452334  C 144.71961854093593 4.10003544683775  144.5152310200414 5.170038699017521  144.10640809742253 6.162331968784537  C 143.6969182717635 7.154625238551552  143.11868847134065 8.018001926793032  142.37173631606078 8.752514124771636  C 141.62545109363475 9.486761486035313  140.74875435165382 10.04705202907252  139.74170279580818 10.433376045966122  C 139.74170279580818 10.433376045966122  138.85940757438343 9.118084923427386  138.85940757438343 9.118084923427386  C 139.7710893420713 8.784793570778524  140.56336872267363 8.309027583215626  141.23629258335387 7.690776749667321  C 141.90988337688793 7.072393497761552  142.43007973329466 6.355706456307831  142.79688660165112 5.540691888264881  C 143.16436037304769 4.725505182276689  143.3481226749399 3.862719315504069  143.3481226749399 2.9523584985452334  Z M 143.65024009747344 3.076195530820759  C 143.65024009747344 3.076195530820759  143.65024009747344 1.1200492816383607  143.65024009747344 1.1200492816383607  L 144.99371011525952 1.1200492816383607  C 144.99371011525952 1.1200492816383607  144.99371011525952 3.076195530820759  144.99371011525952 3.076195530820759  C 144.99371011525952 3.6815887608794746  145.1011059817804 4.269496433929072  145.315854723442 4.839918549969552  C 145.53060346510358 5.410135438274079  145.8327247932341 5.940635994505242  146.22220699104264 6.431403229808061  C 146.6123560918913 6.921945347983731  147.07619128549354 7.356146059621963  147.61373004268762 7.733995449624467  C 148.15193573273555 8.111580002912046  148.74682636255682 8.412904442331316  149.39840872967892 8.638011846764554  C 149.39840872967892 8.638011846764554  148.51910537440295 9.933360539729797  148.51910537440295 9.933360539729797  C 147.55406987281972 9.57358595954793  146.70536821129264 9.053949864868878  145.9730883402874 8.374456576899656  C 145.2408084692822 7.695029468511857  144.6706295948666 6.90063386531618  144.26247360510152 5.991305935223402  C 143.85431761533647 5.081772718200058  143.65024009747344 4.110074025098253  143.65024009747344 3.076195530820759  Z M 152 11.085081309064664  L 152 0.19181707715903196  L 153 0.19181707715903196  L 153 11.085081309064664  L 152 11.085081309064664  Z M 152.53260222524668 6.2157037293908015  L 152.53260222524668 4.829674566389246  L 155.65580519210462 4.829674566389246  L 155.65580519210462 6.2157037293908015  L 152.53260222524668 6.2157037293908015  Z M 144.04534960459034 11.958123294314005  C 144.9376906772816 11.700507730673767  145.996787502602 11.571700836772898  147.2225893376048 11.571700836772898  C 148.4617295911746 11.571700836772898  149.52280867092435 11.700507730673767  150.40581280291678 11.958123294314005  C 151.28881693490916 12.215474021239313  151.9694260563552 12.588724374292529  152.4476088032243 13.077869499515076  C 152.9257915500934 13.5667497880227  153.1648629185237 14.157346968480137  153.1648629185237 14.849684659539436  C 153.1648629185237 15.53699051220975  152.9257915500934 16.12437765739777  152.4476088032243 16.611801373570607  C 151.9694260563552 17.099291298922175  151.28881693490916 17.47178576631798  150.40581280291678 17.729335120779485  C 149.52280867092435 17.98695068441972  148.4617295911746 18.11575757832059  147.2225893376048 18.11575757832059  C 145.996787502602 18.11575757832059  144.9376906772816 17.98695068441972  144.04534960459034 17.729335120779485  C 143.1530085318991 17.47178576631798  142.46775395629336 17.099291298922175  141.98957120942427 16.611801373570607  C 141.51138846255517 16.12437765739777  141.27231709412484 15.53699051220975  141.27231709412484 14.849684659539436  C 141.27231709412484 14.157346968480137  141.51138846255517 13.5667497880227  141.98957120942427 13.077869499515076  C 142.46775395629336 12.588724374292529  143.1530085318991 12.215474021239313  144.04534960459034 11.958123294314005  Z M 149.53347011582366 13.115693438888513  C 148.88922389083888 12.960965207554606  148.11893194779162 12.88362781085775  147.2225893376048 12.88362781085775  C 146.33158213062123 12.88362781085775  145.5646345114875 12.960965207554606  144.92172215221038 13.115693438888513  C 144.2788097929333 13.27048787940115  143.78227297641095 13.493853807809627  143.43213916107695 13.785765134086654  C 143.08200534574294 14.077477832827487  142.90691400573468 14.432110443036079  142.90691400573468 14.849684659539436  C 142.90691400573468 15.26222706725112  143.08200534574294 15.615721868135626  143.43213916107695 15.910149113607146  C 143.78227297641095 16.20451014989993  144.2788097929333 16.429093593183826  144.92172215221038 16.58388803369646  C 145.5646345114875 16.738417637494173  146.33158213062123 16.815680892933667  147.2225893376048 16.815680892933667  C 148.11893194779162 16.815680892933667  148.88922389083888 16.738417637494173  149.53347011582366 16.58388803369646  C 150.17771634080844 16.429093593183826  150.67289096859176 16.20451014989993  151.01902324643018 15.910149113607146  C 151.3644886212285 15.615721868135626  151.53722667509675 15.26222706725112  151.53722667509675 14.849684659539436  C 151.53722667509675 14.432110443036079  151.3644886212285 14.077477832827487  151.01902324643018 13.785765134086654  C 150.67289096859176 13.493853807809627  150.17771634080844 13.27048787940115  149.53347011582366 13.115693438888513  Z M 172 18.148641371766242  L 172 0.18402801272075242  L 173 0.18402801272075242  L 173 18.148641371766242  L 172 18.148641371766242  Z M 168.0555639164603 8.752241355978077  L 168.0555639164603 7.3894581557164445  L 171.53888987404235 7.3894581557164445  L 171.53888987404235 8.752241355978077  L 168.0555639164603 8.752241355978077  Z M 167 17.22971361391163  L 167 0.5831493729841892  L 169 0.5831493729841892  L 169 17.22971361391163  L 167 17.22971361391163  Z M 158.00472541135795 13.727756303989896  L 158.00472541135795 12.341666525700882  C 158.00472541135795 12.341666525700882  159.18217738713338 12.341666525700882  159.18217738713338 12.341666525700882  C 160.07051692232903 12.341666525700882  160.8771649046826 12.329793428577224  161.60210863355047 12.306024736675914  C 162.32771929527223 12.282057419088241  163.02294596300808 12.230925984189795  163.6878667486972 12.15266805940862  C 164.35278753438624 12.07427771626998  165.03042333381558 11.963387708351835  165.72068715055838 11.819981054198525  C 165.72068715055838 11.819981054198525  165.88774318694718 13.19049270361098  165.88774318694718 13.19049270361098  C 165.16680099557485 13.339460839985817  164.46686775555898 13.454292069876992  163.78794161844908 13.534999689875274  C 163.1090154813392 13.615707309873555  162.3997302148836 13.66805627444607  161.66011420174104 13.692023592033742  C 160.9204981885985 13.715858493113783  160.09452608767506 13.727756303989896  159.18217738713338 13.727756303989896  C 159.18217738713338 13.727756303989896  158.00472541135795 13.727756303989896  158.00472541135795 13.727756303989896  Z M 158 12.970822901865258  L 158 2.374179579132553  L 164.72427360603032 2.374179579132553  L 164.72427360603032 3.7248397219027  L 159.64835897990696 3.7248397219027  L 159.64835897990696 12.970822901865258  L 158 12.970822901865258  Z M 180.85946880487202 11.853258847012652  C 181.75180987756326 11.587565911553705  182.8122077735024 11.454713331980061  184.04067733992053 11.454713331980061  C 185.2691469063387 11.454713331980061  186.32688154292006 11.587565911553705  187.21388721240805 11.853258847012652  C 188.10089288189602 12.11888557329287  188.783484198144 12.499028873080091  189.26166694501313 12.993735480524167  C 189.73984969188226 13.488243460432049  189.97892106031256 14.086698371083092  189.97892106031256 14.789099679725735  C 189.97892106031256 15.489051278352623  189.73984969188226 16.088987652674756  189.26166694501313 16.58885848726797  C 188.783484198144 17.088729321861184  188.10089288189602 17.47146715129382  187.21388721240805 17.737093877574033  C 186.32688154292006 18.002786813032984  185.2691469063387 18.135639392606624  184.04067733992053 18.135639392606624  C 182.8122077735024 18.135639392606624  181.75180987756326 18.002786813032984  180.85946880487202 17.737093877574033  C 179.96712773218078 17.47146715129382  179.28187315657502 17.088624843362783  178.80369040970592 16.588555410830683  C 178.32550766283683 16.088485978298582  178.0863752359137 15.48847543312178  178.0863752359137 14.788523834494892  C 178.0863752359137 14.088373637929116  178.32550766283683 13.490515113040903  178.80369040970592 12.994947786273316  C 179.28187315657502 12.49944666868446  179.96712773218078 12.11888557329287  180.85946880487202 11.853258847012652  Z M 186.34752825761248 13.016405598033247  C 185.7032820326277 12.860220794364553  184.93435221869203 12.782127512010286  184.04067733992053 12.782127512010286  C 183.14700246114904 12.782127512010286  182.37869265327632 12.860220794364553  181.73578029399923 13.016405598033247  C 181.0928679347221 13.172590401701937  180.5963311181998 13.400697286153143  180.24619730286577 13.700752193427611  C 179.89606348753176 14.000542293584463  179.72103320601636 14.36251595377516  179.72103320601636 14.78664476058371  C 179.72103320601636 15.222161368550243  179.89606348753176 15.591157138128496  180.24619730286577 15.893661755418725  C 180.5963311181998 16.196166372708955  181.0928679347221 16.426763323105824  181.73578029399923 16.585464031170353  C 182.37869265327632 16.744098544854804  183.14700246114904 16.82340934208449  184.04067733992053 16.82340934208449  C 184.93435221869203 16.82340934208449  185.7032820326277 16.744098544854804  186.34752825761248 16.585464031170353  C 186.99177448259726 16.426763323105824  187.4870101688734 16.196166372708955  187.83314244671183 15.893661755418725  C 188.17860782151016 15.591157138128496  188.35128481688557 15.222161368550243  188.35128481688557 14.78664476058371  C 188.35128481688557 14.36251595377516  188.17860782151016 14.000542293584463  187.83314244671183 13.700752193427611  C 187.4870101688734 13.400697286153143  186.99177448259726 13.172590401701937  186.34752825761248 13.016405598033247  Z M 188 10.976125329859936  L 188 0.19181707715903196  L 189 0.19181707715903196  L 189 10.976125329859936  L 188 10.976125329859936  Z M 189.3466603670355 6.084714093195299  L 189.3466603670355 4.698715237837472  L 192.46986333389347 4.698715237837472  L 192.46986333389347 6.084714093195299  L 189.3466603670355 6.084714093195299  Z M 176.50575403196748 9.604431682342062  L 176.50575403196748 1.3152608148950087  L 178.14438080410426 1.3152608148950087  L 178.14438080410426 4.015308179398696  L 183.25235113896449 4.015308179398696  L 183.25235113896449 1.3152608148950087  L 184.87901044650616 1.3152608148950087  L 184.87901044650616 9.604431682342062  L 176.50575403196748 9.604431682342062  Z M 183.25235113896449 5.319415781401538  L 178.14438080410426 5.319415781401538  L 178.14438080410426 8.272653201614904  L 183.25235113896449 8.272653201614904  L 183.25235113896449 5.319415781401538  Z M 201.50835202783853 8.527782946523219  L 201.50835202783853 7.165030053905316  L 204.92262083002745 7.165030053905316  L 204.92262083002745 8.527782946523219  L 201.50835202783853 8.527782946523219  Z M 208 18.148641371766242  L 208 0.18402801272075242  L 209 0.18402801272075242  L 209 18.148641371766242  L 208 18.148641371766242  Z M 204 17.25305049958274  L 204 0.5679652434761034  L 206 0.5679652434761034  L 206 17.25305049958274  L 204 17.25305049958274  Z M 196.2143364653187 2.4446448508018133  C 196.79455820962906 1.9369151021226627  197.46909857005605 1.683044071542955  198.2380591517479 1.683044071542955  C 199.02169201771437 1.683044071542955  199.70329220674765 1.9369151021226627  200.2828470182042 2.4446448508018133  C 200.86240182966074 2.95238122927803  201.31056729126558 3.674230810834313  201.62735503036845 4.610247225793355  C 201.9448097023251 5.54605178321938  202.10355021596646 6.654830113873041  202.10355021596646 7.936571740307192  C 202.10355021596646 9.218359775320803  201.9448097023251 10.32851887960262  201.62735503036845 11.267018094368137  C 201.31056729126558 12.205451129552225  200.86178182359777 12.929263663791492  200.28089314643356 13.438469844599318  C 199.70067140212322 13.947676025407144  199.0193812161214 14.202283081850373  198.23708221586256 14.202283081850373  C 197.46745470131688 14.202283081850373  196.7928532823971 13.947676025407144  196.21329847094054 13.438469844599318  C 195.633743659484 12.929263663791492  195.18557819787918 12.205451129552225  194.8687904587763 11.267018094368137  C 194.55133578681964 10.32851887960262  194.39259527317827 9.218359775320803  194.39259527317827 7.936571740307192  C 194.39259527317827 6.654830113873041  194.55133578681964 5.54605178321938  194.8687904587763 4.610247225793355  C 195.18557819787918 3.674230810834313  195.6341147210083 2.95238122927803  196.2143364653187 2.4446448508018133  Z M 199.48157641676772 3.7924863827051896  C 199.13077566857987 3.410551972207142  198.7169229929865 3.2195809933013058  198.24007408201135 3.2195809933013058  C 197.77389591781528 3.2195809933013058  197.36505978771967 3.410551972207142  197.0135921364917 3.7924863827051896  C 196.66279138830384 4.174427423000303  196.39337168309345 4.716804875909582  196.20529980837955 5.419643159212396  C 196.01656100081178 6.1222761555846406  195.92223263560962 6.961149765012239  195.92223263560962 7.936268663869906  C 195.92223263560962 8.898536589035047  196.01656100081178 9.73433308470493  196.20529980837955 10.443620029546429  C 196.39337168309345 11.152840735611887  196.66279138830384 11.700502314366343  197.0135921364917 12.086627703723751  C 197.36505978771967 12.47268688390243  197.77389591781528 12.665715852448294  198.24007408201135 12.665715852448294  C 198.7169229929865 12.665715852448294  199.13077566857987 12.47268688390243  199.48157641676772 12.086627703723751  C 199.8330440679957 11.700502314366343  200.1027738060513 11.152840735611887  200.2908456807652 10.443620029546429  C 200.47958448833296 9.73433308470493  200.57397391202792 8.898536589035047  200.57397391202792 7.936268663869906  C 200.57397391202792 6.961149765012239  200.47958448833296 6.1222761555846406  200.2908456807652 5.419643159212396  C 200.1027738060513 4.716804875909582  199.8330440679957 4.174427423000303  199.48157641676772 3.7924863827051896  Z M 226 18.148641371766242  L 226 0.18402801272075242  L 228 0.18402801272075242  L 228 18.148641371766242  L 226 18.148641371766242  Z M 218.5078301927195 8.85989410650247  L 218.5078301927195 7.524721169677696  L 223.06157258814224 7.524721169677696  L 223.06157258814224 8.85989410650247  L 218.5078301927195 8.85989410650247  Z M 222 17.236260064957033  L 222 0.6504929573493922  L 224 0.6504929573493922  L 224 17.236260064957033  L 222 17.236260064957033  Z M 218.7289229952648 2.75869265511875  C 218.7289229952648 2.75869265511875  218.7289229952648 2.4592228274353247  218.7289229952648 2.4592228274353247  C 218.7289229952648 2.4592228274353247  220.3295103263671 2.4592228274353247  220.3295103263671 2.4592228274353247  C 220.3295103263671 4.025043444443446  220.1034454007627 5.528048983649907  219.65127258798742 6.968272830818504  C 219.19976667825227 8.4084966779871  218.4754928039825 9.746116838653734  217.47844506206206 10.981095783431444  C 216.4820642529955 12.215876071075654  215.17157065116098 13.314832653349628  213.54694976709197 14.277961268240972  C 213.54694976709197 14.277961268240972  212.57557020462508 13.095235779371631  212.57557020462508 13.095235779371631  C 213.99277848916984 12.252936873451139  215.15487467139002 11.297180711286039  216.06188802835592 10.22792052912917  C 216.9695682585482 9.158461808228031  217.6411963852651 7.99670956398666  218.07669617483162 6.742662730901956  C 218.51152903154437 5.488450389669076  218.7289229952648 4.1604430795799425  218.7289229952648 2.75869265511875  Z M 213.35785161479075 3.814216963258678  L 213.35785161479075 2.4592228274353247  L 219.34017956700754 2.4592228274353247  L 219.34017956700754 3.814216963258678  L 213.35785161479075 3.814216963258678  Z M 245.77325593295055 6.497504200780386  L 245.77325593295055 5.14684405801024  L 250.33798885708308 5.14684405801024  L 250.33798885708308 6.497504200780386  L 245.77325593295055 6.497504200780386  Z M 249 13.362488581771432  L 249 0.20390982700678892  L 251 0.20390982700678892  L 251 13.362488581771432  L 249 13.362488581771432  Z M 239.51286760437605 18  L 239.51286760437605 17  L 251.56648573286617 17  L 251.56648573286617 18  L 239.51286760437605 18  Z M 239.51286760437605 17.08669184315583  L 239.51286760437605 12.20173613460541  L 241.16749170163484 12.20173613460541  L 241.16749170163484 17.08669184315583  L 239.51286760437605 17.08669184315583  Z M 240.78837951963993 3.8815605476238804  C 240.78837951963993 3.8815605476238804  240.78837951963993 2.4278847238198344  240.78837951963993 2.4278847238198344  L 242.15285365896028 2.4278847238198344  C 242.15285365896028 2.4278847238198344  242.15285365896028 3.8815605476238804  242.15285365896028 3.8815605476238804  C 242.15285365896028 4.968200269231434  241.94078627358277 5.990378947526544  241.51662416364914 6.948118247738909  C 241.0924620537155 7.90588400794492  240.5015969018047 8.740020508979873  239.74397399974578 9.450499159843922  C 238.9870180305407 10.160977810707973  238.10363258110524 10.705349589447064  237.09391329384425 11.083596234521957  C 237.09391329384425 11.083596234521957  236.23860592625132 9.76451665651713  236.23860592625132 9.76451665651713  C 236.9135305258656 9.524115198172673  237.52774527425674 9.206011659896784  238.08129018143316 8.810219878431107  C 238.63483508860958 8.414428096965429  239.11570214332082 7.955644541767369  239.52385813308584 7.433858853779011  C 239.9320141228509 6.911828159272307  240.24478862257416 6.348530884876592  240.46220505093052 5.743965254753366  C 240.67962147928685 5.139194396894188  240.78837951963993 4.518396004628788  240.78837951963993 3.8815605476238804  Z M 241.1104630693296 3.869437490132395  C 241.1104630693296 3.869437490132395  241.1104630693296 2.4278847238198344  241.1104630693296 2.4278847238198344  L 242.45900094202074 2.4278847238198344  C 242.45900094202074 2.4278847238198344  242.45900094202074 3.869437490132395  242.45900094202074 3.869437490132395  C 242.45900094202074 4.638695685002086  242.6410299936496 5.387075760992776  243.00516916040445 6.114536814624355  C 243.37064216305322 6.842011068655447  243.88383980897396 7.487719917086569  244.54475905716743 8.051680171188849  C 245.20567830536092 8.615508006933666  245.97268698298748 9.053447628143845  246.84568730105465 9.365486219184879  C 246.84568730105465 9.365486219184879  246.0053392642056 10.660804604506394  246.0053392642056 10.660804604506394  C 245.0249645454939 10.303943168994099  244.1672819190514 9.786926317712915  243.43233437625827 9.10975032140199  C 242.69738683346512 8.432309488376138  242.12652686468 7.641968953199976  241.71970471080894 6.7386924295734945  C 241.31354948979165 5.835343037373907  241.1104630693296 4.878905071614143  241.1104630693296 3.869437490132395  Z M 236.76181615133012 3.0026388794911703  L 236.76181615133012 1.6554035004623677  L 246.42151395134962 1.6554035004623677  L 246.42151395134962 3.0026388794911703  L 236.76181615133012 3.0026388794911703  Z M 255.38990749552337 8.572486721023074  L 255.38990749552337 7.228676105735616  C 255.38990749552337 7.228676105735616  256.79046720410753 7.228676105735616  256.79046720410753 7.228676105735616  C 258.01093369553456 7.228676105735616  259.0850191286691 7.212136216024574  260.01270704633924 7.179032185307982  C 260.9403949640095 7.145928154591388  261.8087307471379 7.084374769347488  262.61770658453065 6.994398019712656  C 263.42668242192343 6.904156433362897  264.24101029857366 6.775575500112464  265.0606568827455 6.608612022689853  C 265.0606568827455 6.608612022689853  265.25873063349303 7.932601438978731  265.25873063349303 7.932601438978731  C 264.4090725479181 8.104742388345958  263.57139516422865 8.237152443764122  262.7457462439997 8.329843725330987  C 261.9200973237708 8.422535006897853  261.0320663605482 8.48613594503093  260.0817031432396 8.520630342603244  C 259.13133992593106 8.555190949354287  258.0342759280267 8.572486721023074  256.79046720410753 8.572486721023074  C 256.79046720410753 8.572486721023074  255.38990749552337 8.572486721023074  255.38990749552337 8.572486721023074  Z M 255.38990749552337 8.017614379637774  L 255.38990749552337 1.218761277262783  L 263.3769689428986 1.218761277262783  L 263.3769689428986 2.55078221913977  L 257.03653293022114 2.55078221913977  L 257.03653293022114 8.017614379637774  L 255.38990749552337 8.017614379637774  Z M 266.96537656664486 9.222979678372466  L 266.96537656664486 0.18402801272075242  L 268.6250074603159 0.18402801272075242  L 268.6250074603159 9.222979678372466  L 266.96537656664486 9.222979678372466  Z M 268.17183132651553 5.336478984820804  L 268.17183132651553 3.9659673354083496  L 271.2950342933735 3.9659673354083496  L 271.2950342933735 5.336478984820804  L 268.17183132651553 5.336478984820804  Z M 257.13959966612185 11.460259630782415  L 257.13959966612185 11  L 268.6250074603159 11  L 268.6250074603159 14.577188634774567  L 258.8112590828808 14.577188634774567  L 258.8112590828808 17.34858019261565  L 257.18362283945385 17.34858019261565  L 257.18362283945385 13.307480208403817  L 266.99334135636195 13.307480208403817  L 266.99334135636195 11.460259630782415  L 257.13959966612185 11.460259630782415  Z M 257.18362283945385 18  L 257.18362283945385 17  L 269.2762573448637 17  L 269.2762573448637 18  L 257.18362283945385 18  Z M 285.37237510829283 10.050348044522632  L 285.37237510829283 0.13129271263278977  L 287.03200600196385 0.13129271263278977  L 287.03200600196385 10.050348044522632  L 285.37237510829283 10.050348044522632  Z M 286.328734281523 5.826220199833096  L 286.328734281523 4.443615800572885  L 289.71406135810946 4.443615800572885  L 289.71406135810946 5.826220199833096  L 286.328734281523 5.826220199833096  Z M 275.5466592662627 12.206706588176917  L 275.5466592662627 11  L 287.03200600196385 11  L 287.03200600196385 14.979704451135621  L 277.2182576245288 14.979704451135621  L 277.2182576245288 17.149974203261383  L 275.5906824395947 17.149974203261383  L 275.5906824395947 13.779612682409725  L 285.4004009565028 13.779612682409725  L 285.4004009565028 12.206706588176917  L 275.5466592662627 12.206706588176917  Z M 275.5906824395947 18  L 275.5906824395947 17  L 287.6832558865117 17  L 287.6832558865117 18  L 275.5906824395947 18  Z M 273.04167353933036 3  L 273.04167353933036 2  L 283.7237347433316 2  L 283.7237347433316 3  L 273.04167353933036 3  Z M 275.22353772219486 4.676681580846697  C 276.0118389988834 4.151367005786293  277.0641860582563 3.888713151543857  278.38068921106753 3.888713151543857  C 279.6898562813688 3.888713151543857  280.73829995000324 4.151367005786293  281.5259342938379 4.676681580846697  C 282.31423557052636 5.202002785704166  282.70839306602556 5.92301855189021  282.70839306602556 6.839768421408756  C 282.70839306602556 7.743309781750164  282.31423557052636 8.458077378564145  281.5259342938379 8.984034215215283  C 280.73829995000324 9.50979239473292  279.6898562813688 9.772669412680154  278.38068921106753 9.772669412680154  C 277.0641860582563 9.772669412680154  276.0118389988834 9.50979239473292  275.22353772219486 8.984034215215283  C 274.4352364455064 8.458077378564145  274.0410789500072 7.743309781750164  274.0410789500072 6.839768421408756  C 274.0410789500072 5.92301855189021  274.4352364455064 5.202002785704166  275.22353772219486 4.676681580846697  Z M 280.37449323600896 5.574818295103413  C 279.8776366673696 5.263223308519611  279.2130073405799 5.107444121162912  278.38068921106753 5.107444121162912  C 277.54570340976716 5.107444121162912  276.8781618194537 5.263223308519611  276.37797064617257 5.574818295103413  C 275.8784464057453 5.886406651890149  275.6286608221362 6.307566197532534  275.6286608221362 6.838283346866048  C 275.6286608221362 7.372052689023664  275.8784464057453 7.793397454621572  276.37797064617257 8.102324243859531  C 276.8781618194537 8.411184823918758  277.54570340976716 8.565637193540384  278.38068921106753 8.565637193540384  C 279.2130073405799 8.565637193540384  279.8776366673696 8.411184823918758  280.37449323600896 8.102324243859531  C 280.8720167375021 7.793397454621572  281.1207501354036 7.372052689023664  281.1207501354036 6.838283346866048  C 281.1207501354036 6.307566197532534  280.8720167375021 5.886406651890149  280.37449323600896 5.574818295103413  Z M 277.5534076916845 2.6963195243250557  L 277.5534076916845 0  L 279.21206164947023 0  L 279.21206164947023 2.6963195243250557  L 277.5534076916845 2.6963195243250557  Z M 303.920479826876 1.830763527076708  C 303.920479826876 1.830763527076708  303.920479826876 0.8183973036064687  303.920479826876 0.8183973036064687  L 305.37403830723844 0.8183973036064687  C 305.37403830723844 0.8183973036064687  305.37403830723844 1.830763527076708  305.37403830723844 1.830763527076708  C 305.37403830723844 2.513534124997181  305.2426728381742 3.157512596394166  304.9799057360068 3.762693968919864  C 304.71780556669324 4.367875341445562  304.35461644385083 4.923283571695463  303.8904390484025 5.428947605837111  C 303.4269285559944 5.934406412242807  302.8890802429745 6.383709091261205  302.276846258327 6.776819445384216  C 301.6646122736794 7.169962889297939  301.0030172677718 7.49902978853172  300.29207889032466 7.7640606322033525  C 299.58047358002375 8.028892877936098  298.84889093260904 8.224620810229812  298.09727030697974 8.351210614159731  C 298.09727030697974 8.351210614159731  297.43002309730986 7.024796586372556  297.43002309730986 7.024796586372556  C 298.0896085394231 6.929854229725453  298.73485268915016 6.770120582999574  299.36576049556794 6.545602431377857  C 299.9966683019857 6.321110769347092  300.58821454826597 6.045530631061089  301.1404255897347 5.718840218102263  C 301.6919696983496 5.39214317534637  302.17581007507755 5.023555789428438  302.59196913983374 4.613065836660126  C 303.00746127173613 4.2025758838918135  303.3325611199158 3.762592509346913  303.5673175043347 3.293137644630895  C 303.8027408216075 2.82347092238186  303.920479826876 2.336010475949387  303.920479826876 1.830763527076708  Z M 304.2105687263215 1.830763527076708  C 304.2105687263215 1.830763527076708  304.2105687263215 0.8183973036064687  304.2105687263215 0.8183973036064687  L 305.65313667797426 0.8183973036064687  C 305.65313667797426 0.8183973036064687  305.65313667797426 1.830763527076708  305.65313667797426 1.830763527076708  C 305.65313667797426 2.3279463341274993  305.77254787501323 2.809309735044235  306.01130579692773 3.2748318278187516  C 306.25073063678917 3.740360550390334  306.58016595100395 4.178360076552571  306.9996596204019 4.588850029320883  C 307.4191532897999 4.999339982089196  307.90268360386887 5.370009065091128  308.4502262346156 5.700837477727406  C 308.9984357385888 6.031467292424797  309.5879997900671 6.311069394140952  310.2189075964849 6.539692440850757  C 310.8504823357565 6.768143349615322  311.49170103738675 6.929854229725453  312.142616471655 7.024796586372556  C 312.142616471655 7.024796586372556  311.47634619787044 8.351210614159731  311.47634619787044 8.351210614159731  C 310.73206171437846 8.224620810229812  310.00648670986254 8.026820592796147  309.299549869911 7.757817257595236  C 308.5919460971057 7.4886815040368635  307.9300410881666 7.1555936624800704  307.3138055660234 6.758543936215802  C 306.69757004388026 6.361480979954709  306.15767847756564 5.910220912547294  305.69416798515743 5.404762106141597  C 305.2306574927493 4.899098071999949  304.86752945821337 4.345734601393253  304.604762356046 3.7446912285450074  C 304.3419952538786 3.1434359981637443  304.2105687263215 2.5054633533782273  304.2105687263215 1.830763527076708  Z M 303.9154730304637 18.156400128560797  L 303.9154730304637 11.317268167670344  L 305.56313645953963 11.317268167670344  L 305.56313645953963 18.156400128560797  L 303.9154730304637 18.156400128560797  Z M 296.6006655891706 12  L 296.6006655891706 11  L 312.95194679414533 11  L 312.95194679414533 12  L 296.6006655891706 12  Z M 324.715414964697 12.206706588176917  C 324.715414964697 12.206706588176917  324.715414964697 11.244651053296344  324.715414964697 11.244651053296344  L 326.0059472691976 11.244651053296344  C 326.0059472691976 11.244651053296344  326.0059472691976 12.206706588176917  326.0059472691976 12.206706588176917  C 326.0059472691976 12.986902349950292  325.84485346941625 13.751990461660302  325.5227303569239 14.501995370683629  C 325.2006072444315 15.251801622573451  324.7360910160872 15.924771367813918  324.1291923750154 16.520908750028195  C 323.5222937339437 17.11678129552754  322.78235012767647 17.577329323858933  321.9093498096093 17.902543304689086  C 321.9093498096093 17.902543304689086  321.08103029584817 16.68129680064055  321.08103029584817 16.68129680064055  C 321.8479900789785 16.403222955939956  322.501595187558 16.02159822207895  323.04180167616744 15.53642555878837  C 323.58134123192303 15.05125289549779  323.99513284902355 14.517979219462758  324.28324295243095 13.936606276924463  C 324.57135305583836 13.354968497671246  324.715414964697 12.778346988622827  324.715414964697 12.206706588176917  Z M 325.07956781594805 12.206706588176917  C 325.07956781594805 12.206706588176917  325.07956781594805 11.244651053296344  325.07956781594805 11.244651053296344  L 326.3110565578799 11.244651053296344  C 326.3110565578799 11.244651053296344  326.3110565578799 12.206706588176917  326.3110565578799 12.206706588176917  C 326.3110565578799 12.80549227834584  326.43139779382705 13.404230257653738  326.67215648448934 14.002949709046622  C 326.9129151751516 14.601735399215544  327.27443209131667 15.146107148357325  327.7566163756814 15.636046783724654  C 328.2381337570059 16.125986419091983  328.8373598677692 16.51777477984118  329.5543005216459 16.811407515167918  C 329.5543005216459 16.811407515167918  328.8600043996514 18.06481042921262  328.8600043996514 18.06481042921262  C 327.990338686226 17.721190622265485  327.2757268414274 17.242368475839168  326.7161796578213 16.628288731759028  C 326.15663247421526 16.014208987678884  325.7438319545157 15.321687023777933  325.4777302477066 14.550760369443129  C 325.2122954737512 13.779833715108326  325.07956781594805 12.99848874904716  325.07956781594805 12.206706588176917  Z M 331.3999766429765 12.206706588176917  C 331.3999766429765 12.206706588176917  331.3999766429765 11.244651053296344  331.3999766429765 11.244651053296344  L 332.63146538490844 11.244651053296344  C 332.63146538490844 11.244651053296344  332.63146538490844 12.206706588176917  332.63146538490844 12.206706588176917  C 332.63146538490844 12.907452696948583  332.4953933733779 13.642049957591324  332.22328936032545 14.410526901910368  C 331.9511853472729 15.178739009514487  331.53869486041856 15.888606179988463  330.985816886096 16.54009348850847  C 330.43293891177336 17.1916469766099  329.724334769501 17.699871621881616  328.8600043996514 18.06481042921262  C 328.8600043996514 18.06481042921262  328.1577706735887 16.811407515167918  328.1577706735887 16.811407515167918  C 328.874044454239 16.483214180489465  329.47327053518853 16.057485698360356  329.9554548195532 15.534243408439902  C 330.43763910391795 15.010802520580564  330.79872390006585 14.454379043460367  331.0388156578743 13.864928699506056  C 331.2795743485366 13.275279757612857  331.3999766429765 12.722533568468666  331.3999766429765 12.206706588176917  Z M 331.7290819193419 12.206706588176917  C 331.7290819193419 12.206706588176917  331.7290819193419 11.244651053296344  331.7290819193419 11.244651053296344  L 333.0196142238425 11.244651053296344  C 333.0196142238425 11.244651053296344  333.0196142238425 12.206706588176917  333.0196142238425 12.206706588176917  C 333.0196142238425 12.818071785526373  333.16367613270114 13.417873432900992  333.45178623610855 14.006132011638135  C 333.73989633951595 14.594125753660352  334.15368795661647 15.122031809843412  334.69322751237206 15.589857934682094  C 335.2334340009815 16.057617850342044  335.887039109561 16.421430184118055  336.65399889269133 16.68129680064055  C 336.65399889269133 16.68129680064055  335.8256793789302 17.902543304689086  335.8256793789302 17.902543304689086  C 334.95267906086303 17.58249355100807  334.2093910710549 17.13519561607202  333.59582322069963 16.560642070956536  C 332.9822553703444 15.985823689126128  332.5177391420001 15.322187514261774  332.20228523879115 14.569732954417303  C 331.88683133558226 13.817212155796794  331.7290819193419 13.029540350718026  331.7290819193419 12.206706588176917  Z M 333 10.460986309402982  L 333 0.20390982700678892  L 335 0.20390982700678892  L 335 10.460986309402982  L 333 10.460986309402982  Z M 322.89672669719823 1.7668143988091212  C 323.6103327464332 1.4126013008487812  324.42032511232776 1.2355214042447618  325.3266715364398 1.2355214042447618  C 326.2403541026892 1.2355214042447618  327.0520186007268 1.4126013008487812  327.7616231720936 1.7668143988091212  C 328.4712277434605 2.1210274967694605  329.02976230416175 2.6129552721291613  329.4372513908867 3.2425541872476713  C 329.8440735447578 3.871947874630229  330.0474699682513 4.603440555213126  330.0474699682513 5.437039746712678  C 330.0474699682513 6.262362938857324  329.8440735447578 6.987751944127418  329.4372513908867 7.613219489365541  C 329.02976230416175 8.238687034603664  328.4712277434605 8.728533112879365  327.7616231720936 9.082746210839705  C 327.0520186007268 9.436959308800045  326.2403541026892 9.614069513047793  325.3266715364398 9.614069513047793  C 324.42032511232776 9.614069513047793  323.6103327464332 9.436959308800045  322.89672669719823 9.082746210839705  C 322.1831206479632 8.728533112879365  321.6226038328325 8.238687034603664  321.21511474610764 7.613219489365541  C 320.8082925922365 6.987751944127418  320.6048351102502 6.262362938857324  320.6048351102502 5.437039746712678  C 320.6048351102502 4.603440555213126  320.8082925922365 3.871947874630229  321.21511474610764 3.2425541872476713  C 321.6226038328325 2.6129552721291613  322.1831206479632 2.1210274967694605  322.89672669719823 1.7668143988091212  Z M 326.9292737978056 2.97718045875905  C 326.46442946950344 2.737176255486983  325.93023557286983 2.6171862665493832  325.3266715364398 2.6171862665493832  C 324.7364459782042 2.6171862665493832  324.20720753876174 2.737176255486983  323.7390286058179 2.97718045875905  C 323.270849672874 3.2171846620311166  322.90208502715 3.5468820875228806  322.63264871569913 3.966270411845637  C 322.3632124042482 4.385658736168393  322.22850255164303 4.875926457698546  322.22850255164303 5.437039746712678  C 322.22850255164303 5.9927703508448955  322.3632124042482 6.481678105654648  322.63264871569913 6.903747857320071  C 322.90208502715 7.32582423878256  323.270849672874 7.654891108419031  323.7390286058179 7.890989044139206  C 324.20720753876174 8.126822143144455  324.7364459782042 8.244739861740758  325.3266715364398 8.244739861740758  C 325.93023557286983 8.244739861740758  326.46442946950344 8.126822143144455  326.9292737978056 7.890989044139206  C 327.39478505896153 7.654891108419031  327.7626196359637 7.32582423878256  328.03272288026847 6.903747857320071  C 328.30215919171934 6.481678105654648  328.4368690443245 5.9927703508448955  328.4368690443245 5.437039746712678  C 328.4368690443245 4.875926457698546  328.30215919171934 4.385658736168393  328.03272288026847 3.966270411845637  C 327.7626196359637 3.5468820875228806  327.39478505896153 3.2171846620311166  326.9292737978056 2.97718045875905  Z M 340.8125707225043 7  L 340.8125707225043 6  L 353.1112776412227 6  L 353.1112776412227 7  L 340.8125707225043 7  Z M 338.5997498837739 11  L 338.5997498837739 10  L 355 10  L 355 11  L 338.5997498837739 11  Z M 340.8125707225043 6.259467966935065  L 340.8125707225043 0.8394914236416536  L 342.45919615720203 0.8394914236416536  L 342.45919615720203 6.259467966935065  L 340.8125707225043 6.259467966935065  Z M 340.6975365220085 18  L 340.6975365220085 17  L 353.2112914524818 17  L 353.2112914524818 18  L 340.6975365220085 18  Z M 340.6975365220085 16.723818424791936  L 340.6975365220085 12.468685860567923  L 342.3521606192673 12.468685860567923  L 342.3521606192673 16.723818424791936  L 340.6975365220085 16.723818424791936  Z M 12.920862431431743 34.178899677470284  L 12.920862431431743 25.012110370570852  L 14.587789814996208 25.012110370570852  L 14.587789814996208 34.178899677470284  L 12.920862431431743 34.178899677470284  Z M 7.206214911791118 26.7050650416131  C 7.206214911791118 26.7050650416131  7.206214911791118 25.89876048785439  7.206214911791118 25.89876048785439  C 7.206214911791118 25.89876048785439  9.006860394658018 25.89876048785439  9.006860394658018 25.89876048785439  C 9.006860394658018 27.39982953437151  8.670809953242738 28.72720642179324  7.99869309025976 29.880881797370144  C 7.32676959904656 31.03435863420277  6.3638893907074054 32.00251014909599  5.110076852862964 32.78535421882401  C 3.856264315018523 33.568065870194566  2.347778473139294 34.170178978557736  0.584604539621544 34.591659477411646  C 0.584604539621544 34.591659477411646  0 33.2409993346415  0 33.2409993346415  C 1.5635108731335452 32.8820192350071  2.8797652602883774 32.388231919959715  3.948713789948809 31.75965263211313  C 5.017668997881894 31.13094092590909  5.827774298137194 30.38830728571967  6.37902498014739 29.531707433971626  C 6.930489068745326 28.675173761805002  7.206214911791118 27.732945108606206  7.206214911791118 26.7050650416131  Z M 0.9331874752003622 27.245935251595732  L 0.9331874752003622 25.89876048785439  L 7.953051866867718 25.89876048785439  L 7.953051866867718 27.245935251595732  L 0.9331874752003622 27.245935251595732  Z M 8.356312682777737 28.910703813970272  L 8.356312682777737 27.610020975708778  L 13.191259966938976 27.610020975708778  L 13.191259966938976 28.910703813970272  L 8.356312682777737 28.910703813970272  Z M 8.19533196642574 32.339437856643436  L 8.19533196642574 31.04651377517649  L 13.098725821051833 31.04651377517649  L 13.098725821051833 32.339437856643436  L 8.19533196642574 32.339437856643436  Z M 2.942683532799676 36.336743295667276  L 2.942683532799676 35  L 14.587789814996208 35  L 14.587789814996208 39.4173334348287  L 4.629577043520258 39.4173334348287  L 4.629577043520258 42.2725559352234  L 2.9870730570886592 42.2725559352234  L 2.9870730570886592 38.15198930915488  L 12.933074129998175 38.15198930915488  L 12.933074129998175 36.336743295667276  L 2.942683532799676 36.336743295667276  Z M 2.9870730570886592 42  L 2.9870730570886592 41  L 15.181736304021072 41  L 15.181736304021072 42  L 2.9870730570886592 42  Z M 32 42.97666311432889  L 32 25.012110370570852  L 34 25.012110370570852  L 34 42.97666311432889  L 32 42.97666311432889  Z M 25.276872745673145 32.82199616009203  L 25.276872745673145 31.463607568171053  L 28.752505333158357 31.463607568171053  L 28.752505333158357 32.82199616009203  L 25.276872745673145 32.82199616009203  Z M 29 42.05655335836886  L 29 25.432295543225745  L 30 25.432295543225745  L 30 42.05655335836886  L 29 42.05655335836886  Z M 21.81305497655096 30.089731770304713  C 21.81305497655096 30.089731770304713  21.81305497655096 27.803353435054245  21.81305497655096 27.803353435054245  L 23.091039760774546 27.803353435054245  C 23.091039760774546 27.803353435054245  23.091039760774546 30.089731770304713  23.091039760774546 30.089731770304713  C 23.091039760774546 31.068353096240777  22.997882388942983 32.026187107839796  22.811544509835322 32.96322977986783  C 22.625406695676944 33.900272451895866  22.353738931841413 34.77700646458076  21.996535747511608 35.59341802557683  C 21.63953264303796 36.40969716821544  21.20092402811004 37.144736967812314  20.680725226978495 37.79854156799062  C 20.160526425846953 38.452346168168916  19.57059691782318 38.98530646790337  18.910944812238252 39.39745162054266  C 18.910944812238252 39.39745162054266  17.889069876199176 38.1684766673433  17.889069876199176 38.1684766673433  C 18.73019134049992 37.656158743927016  19.44075281293413 36.977925768541056  20.020774507202063 36.13377300561608  C 20.600996251512434 35.2896202426911  21.044696095299706 34.34428043883001  21.35188018018963 33.297795858989105  C 21.65933100840737 32.2513112791482  21.81305497655096 31.18196609352181  21.81305497655096 30.089731770304713  Z M 22.150677912666403 30.089731770304713  C 22.150677912666403 30.089731770304713  22.150677912666403 27.803353435054245  22.150677912666403 27.803353435054245  L 23.420877739053893 27.803353435054245  C 23.420877739053893 27.803353435054245  23.420877739053893 30.089731770304713  23.420877739053893 30.089731770304713  C 23.420877739053893 31.128337546668483  23.569144991978924 32.144921623354044  23.86565833008978 33.13949903579403  C 24.162238361486022 34.13407644823401  24.595229624887093 35.031838638151136  25.164647235847628 35.83275748810249  C 25.7339981833365 36.633477740114955  26.432569234613354 37.272999360031854  27.26041894381879 37.75135256670501  C 27.26041894381879 37.75135256670501  26.254052864959082 38.96474939102781  26.254052864959082 38.96474939102781  C 25.37645079964159 38.42846410007839  24.632537139164192 37.705247951601955  24.02230389345069 36.79508579177662  C 23.412270757407065 35.88472497481778  22.947834817403177 34.852117803322244  22.628979616267152 33.69725060333356  C 22.310124415131124 32.54231722376345  22.150677912666403 31.339806171054757  22.150677912666403 30.089731770304713  Z M 18.38425425306802 28.470636827029345  L 18.38425425306802 27.107883934411436  L 26.647391675783876 27.107883934411436  L 26.647391675783876 28.470636827029345  L 18.38425425306802 28.470636827029345  Z M 38.470330818354086 28  L 38.470330818354086 26  L 49.949693821757705 26  L 49.949693821757705 28  L 38.470330818354086 28  Z M 36.51206283624095 40  L 36.51206283624095 39  L 52.86395462614401 39  L 52.86395462614401 40  L 36.51206283624095 40  Z M 49.26724304737262 28.476213433475426  C 49.26724304737262 28.476213433475426  49.26724304737262 26.761497874235967  49.26724304737262 26.761497874235967  L 50.8941465888856 26.761497874235967  C 50.8941465888856 26.761497874235967  50.8941465888856 28.476213433475426  50.8941465888856 28.476213433475426  C 50.8941465888856 29.201588942372922  50.88417451538904 29.973003893100532  50.864166868905 30.790474800956314  C 50.84415922242096 31.607747051678583  50.78293643737345 32.50475332634099  50.680563980958695 33.48152079527257  C 50.5782582103759 34.45828826420415  50.402286620367214 35.56367616399413  50.15259119343898 36.79766194149356  C 50.15259119343898 36.79766194149356  48.49692910180205 36.60551148025351  48.49692910180205 36.60551148025351  C 48.88000883365492 34.866093415536646  49.1042024118579 33.34125441553295  49.16942734185549 32.03099696641631  C 49.234652271853086 30.720474680584747  49.26724304737262 29.535542416406408  49.26724304737262 28.476213433475426  Z M 37.96794153933104 31.536224682545054  L 49.63676904599287 31.06885050860455  L 49.63676904599287 32.328921104269575  L 38.22151746006301 32.9654119302163  L 37.96794153933104 31.536224682545054  Z M 42.87331979497418 39.671463027493964  L 42.87331979497418 34.527983117937616  L 44.52794389223296 34.527983117937616  L 44.52794389223296 39.671463027493964  L 42.87331979497418 39.671463027493964  Z M 57.002987738250674 35  L 57.002987738250674 33  L 69.42845208808866 33  L 69.42845208808866 35  L 57.002987738250674 35  Z M 54.9269379234643 40  L 54.9269379234643 39  L 71.32755439064742 39  L 71.32755439064742 40  L 54.9269379234643 40  Z M 57.002987738250674 34.22417929720098  L 57.002987738250674 26  L 69.24710836437713 26  L 69.24710836437713 28  L 58.65431467689651 28  L 58.65431467689651 34.22417929720098  L 57.002987738250674 34.22417929720098  Z M 86 42.96890435753434  L 86 25.0043516137763  L 88 25.0043516137763  L 88 42.96890435753434  L 86 42.96890435753434  Z M 86.7978836610397 33.67021618512755  L 86.7978836610397 32.29624946433002  L 90.12886867900554 32.29624946433002  L 90.12886867900554 33.67021618512755  L 86.7978836610397 33.67021618512755  Z M 80.94933486661816 27.200655631865033  C 80.94933486661816 27.200655631865033  80.94933486661816 26.939646204073348  80.94933486661816 26.939646204073348  C 80.94933486661816 26.939646204073348  82.5727580740397 26.939646204073348  82.5727580740397 26.939646204073348  C 82.5727580740397 28.64159052476892  82.2949830745831 30.272160699651074  81.7393707053735 31.83136051717527  C 81.18375833616392 33.39036167756597  80.30434848629008 34.828007362400655  79.10115534708142 36.144289757989945  C 77.89822898101427 37.460373496445726  76.31773979220785 38.60371692524197  74.3596580861998 39.574327029343436  C 74.3596580861998 39.574327029343436  73.43749166895564 38.30186060739337  73.43749166895564 38.30186060739337  C 75.11146474942444 37.4596278810543  76.50469791588822 36.48079043557282  77.61718973728853 35.36538331416199  C 78.72968155868884 34.24997619275115  79.56312312869291 33.00585132453214  80.1175350187656 31.633027296614564  C 80.67208029540905 30.260070791144916  80.94933486661816 28.78263093331596  80.94933486661816 27.200655631865033  Z M 74.27710700389072 28.30239909669125  L 74.27710700389072 26.939646204073348  L 81.80470329270392 26.939646204073348  L 81.80470329270392 28.30239909669125  L 74.27710700389072 28.30239909669125  Z M 100.71983061170118 28.539162409499966  C 100.71983061170118 28.539162409499966  100.71983061170118 26.13652395290615  100.71983061170118 26.13652395290615  L 102.04431143821647 26.13652395290615  C 102.04431143821647 26.13652395290615  102.04431143821647 28.539162409499966  102.04431143821647 28.539162409499966  C 102.04431143821647 29.43032286059973  101.87689996269116 30.313488190800626  101.54210533467192 31.18862631662043  C 101.20797763950651 32.06363202408277  100.72946384112157 32.853068361489484  100.10655910969494 33.55692621286961  C 99.4836543782683 34.26078406424974  98.72574878254284 34.80948456772115  97.83274083662519 35.203025266707265  C 97.83274083662519 35.203025266707265  96.93298288625044 33.92755838802806  96.93298288625044 33.92755838802806  C 97.7291538513593 33.57870814475305  98.40918142643754 33.110382091779385  98.9731303072515 32.522586947696055  C 99.53667902835313 31.9347256240313  99.96855469227019 31.29123248929629  100.26866940816433 30.592141580395605  C 100.56945102709858 29.892852073556032  100.71983061170118 29.208525900304416  100.71983061170118 28.539162409499966  Z M 100.99795204655169 28.539162409499966  C 100.99795204655169 28.539162409499966  100.99795204655169 26.13652395290615  100.99795204655169 26.13652395290615  L 102.31541114639126 26.13652395290615  C 102.31541114639126 26.13652395290615  102.31541114639126 28.539162409499966  102.31541114639126 28.539162409499966  C 102.31541114639126 29.196078752286727  102.46015411980571 29.84514286997924  102.74959808892078 30.486367903782394  C 103.03904205803585 31.12732810087062  103.45989350374266 31.704059711906023  104.01210454521141 32.21651005367977  C 104.56364865382632 32.72882797709605  105.22053708745393 33.136818200397535  105.9828284598623 33.44051455330762  C 105.9828284598623 33.44051455330762  105.0994952440594 34.70088822540993  105.0994952440594 34.70088822540993  C 104.23249720242187 34.352037982134924  103.49255359615468 33.86208742536082  102.87965267865327 33.231058427498475  C 102.26741869400571 32.60002942963614  101.8009202410457 31.880028910320384  101.48013096444727 31.071032658953015  C 101.15867478480872 30.26183775045215  100.99795204655169 29.417875771776657  100.99795204655169 28.539162409499966  Z M 111 36.11113319575073  L 111 25.031961877213163  L 113 25.031961877213163  L 113 36.11113319575073  L 111 36.11113319575073  Z M 107.7124934448118 31.186141089834678  L 107.7124934448118 29.83548094706453  L 111.12578531111537 29.83548094706453  L 111.12578531111537 31.186141089834678  L 107.7124934448118 31.186141089834678  Z M 107 35.53510611904279  L 107 25.369619335994766  L 109 25.369619335994766  L 109 35.53510611904279  L 107 35.53510611904279  Z M 103.01972086121027 36.886645183481065  C 103.92540035246847 36.6342600561687  104.99781365345997 36.5080724056657  106.23695390702976 36.5080724056657  C 107.48142950417537 36.5080724056657  108.55514393541304 36.6342600561687  109.45815575488334 36.886645183481065  C 110.36116757435366 37.13909651997216  111.05645527076864 37.507188121378285  111.54397492852286 37.99090418273677  C 112.03082768323696 38.474620244095256  112.27423450279554 39.05494937836071  112.27423450279554 39.73192677673275  C 112.27423450279554 40.408904175104794  112.03082768323696 40.98721604562648  111.54397492852286 41.466827226695536  C 111.05645527076864 41.94663703530078  110.36116757435366 42.312730492824315  109.45815575488334 42.56511562013668  C 108.55514393541304 42.81756695662778  107.48142950417537 42.94377932088323  106.23695390702976 42.94377932088323  C 104.99781365345997 42.94377932088323  103.92540035246847 42.81756695662778  103.01972086121027 42.56511562013668  C 102.11404136995203 42.312730492824315  101.41739148479803 41.94663703530078  100.92987182704383 41.466827226695536  C 100.44301907232972 40.98721604562648  100.19961225277116 40.408904175104794  100.19961225277116 39.73192677673275  C 100.19961225277116 39.05494937836071  100.44301907232972 38.474620244095256  100.92987182704383 37.99090418273677  C 101.41739148479803 37.507188121378285  102.11404136995203 37.13909651997216  103.01972086121027 36.886645183481065  Z M 109.44814216205889 38.297193230259154  C 108.66651009465387 37.95834039538876  107.5961400469572 37.78890373728488  106.23695390702976 37.78890373728488  C 104.87443316246056 37.78890373728488  103.79997660817429 37.95834039538876  103.01367607041988 38.297193230259154  C 102.22737553266549 38.636112274308275  101.83427022287381 39.11433803497176  101.83427022287381 39.73192677673275  C 101.83427022287381 40.33634015830194  102.22737553266549 40.81130639699648  103.01367607041988 41.15678003135079  C 103.79997660817429 41.50212124734764  104.87443316246056 41.67476797031824  106.23695390702976 41.67476797031824  C 107.1412995325803 41.67476797031824  107.92156356775772 41.5973755522252  108.57781440522922 41.44258111171256  C 109.23406524270074 41.28805150791486  109.73828186407859 41.066167043177465  110.0904164481604 40.776904024855085  C 110.44321796509604 40.48770721571144  110.61961040553676 40.13937116647403  110.61961040553676 39.73192677673275  C 110.61961040553676 39.11433803497176  110.22910729661001 38.636112274308275  109.44814216205889 38.297193230259154  Z M 119.90214989533199 27.874758243679096  C 119.90214989533199 27.874758243679096  119.90214989533199 26.030356276924465  119.90214989533199 26.030356276924465  L 121.27669868596965 26.030356276924465  C 121.27669868596965 26.030356276924465  121.27669868596965 27.874758243679096  121.27669868596965 27.874758243679096  C 121.27669868596965 29.032935843409746  121.0672335312708 30.10469693892578  120.64840679472667 31.09000524392719  C 120.23024696122268 32.07524736934718  119.64402732309908 32.932300000718044  118.88973902568189 33.66118450729639  C 118.1354507282647 34.39013525265077  117.24048199379403 34.95032131718958  116.20475286188037 35.341743352053584  C 116.20475286188037 35.341743352053584  115.32941830863847 34.00323657441866  115.32941830863847 34.00323657441866  C 116.25977389809657 33.67510944891893  117.06605081892582 33.206678947044175  117.74831156067744 32.59796205764937  C 118.43057230242907 31.989046570315672  118.96012074490298 31.27855821153449  119.33693142718465 30.466516397140083  C 119.71374210946634 29.654408343969642  119.90214989533199 28.790481915323266  119.90214989533199 27.874758243679096  Z M 120.19926052145328 27.812991265759972  C 120.19926052145328 27.812991265759972  120.19926052145328 26.030356276924465  120.19926052145328 26.030356276924465  L 121.55579705670546 26.030356276924465  C 121.55579705670546 26.030356276924465  121.55579705670546 27.812991265759972  121.55579705670546 27.812991265759972  C 121.55579705670546 28.655886024691743  121.73949830010481 29.456186882845188  122.10697207150139 30.21387187901753  C 122.47444584289795 30.97155687518986  122.99098784254595 31.63641062412425  123.65657556108884 32.208448220447934  C 124.32283021248558 32.78035339841415  125.0921310879456 33.21712499144844  125.96446447315896 33.518768889415156  C 125.96446447315896 33.518768889415156  125.0681257983828 34.809844204614656  125.0681257983828 34.809844204614656  C 124.09308648287436 34.43967496095578  123.2401103690844 33.915888761300174  122.50916436378685 33.23851410785574  C 121.77821835848928 32.56113945441131  121.21033168190715 31.758378882351895  120.80551029678382 30.830208121884652  C 120.40135581470065 29.901838704283918  120.19926052145328 28.896088899895968  120.19926052145328 27.812991265759972  Z M 129 35.64654732503327  L 129 25.019838819721677  L 131 25.019838819721677  L 131 35.64654732503327  L 129 35.64654732503327  Z M 119.8591036578853 37.062914439407265  C 120.93684890368885 36.466644698030144  122.40942734307828 36.16853587297291  124.27680773127796 36.16853587297291  C 126.14485499270405 36.16853587297291  127.61576124032298 36.466644698030144  128.68950500825838 37.062914439407265  C 129.7625817837125 37.65925041956043  130.29912899629986 38.493073544294795  130.29912899629986 39.564386122200425  C 130.29912899629986 40.63258695749759  129.7625817837125 41.462886641064635  128.68950500825838 42.055250129688524  C 127.61576124032298 42.647613618312405  126.14485499270405 42.94377932088323  124.27680773127796 42.94377932088323  C 122.40942734307828 42.94377932088323  120.93684890368885 42.647613618312405  119.8591036578853 42.055250129688524  C 118.78202528530817 41.462886641064635  118.24349593754629 40.63258695749759  118.24349593754629 39.564386122200425  C 118.24349593754629 38.493073544294795  118.78202528530817 37.65925041956043  119.8591036578853 37.062914439407265  Z M 126.61669129359211 37.72683368292848  C 125.96644279217769 37.56257149264242  125.18648876003176 37.48043253941403  124.27680773127796 37.48043253941403  C 123.36779363537799 37.48043253941403  122.58616741146159 37.56257149264242  121.93191737255157 37.72683368292848  C 121.27833426649539 37.89109587321454  120.77448867682814 38.12921246375197  120.42035332399855 38.44118484561427  C 120.0668849040228 38.753223436655304  119.89012137224405 39.127611569435295  119.89012137224405 39.564386122200425  C 119.89012137224405 39.99288467561064  120.0668849040228 40.36253188194521  120.42035332399855 40.67331249859034  C 120.77448867682814 40.98382827852055  121.27833426649539 41.22249187171187  121.93191737255157 41.38926996639376  C 122.58616741146159 41.55604806107565  123.36779363537799 41.63942925773056  124.27680773127796 41.63942925773056  C 125.18648876003176 41.63942925773056  125.96644279217769 41.55604806107565  126.61669129359211 41.38926996639376  C 127.26627292178013 41.22249187171187  127.76782625398651 40.98382827852055  128.12129467396227 40.67331249859034  C 128.47543002679186 40.36253188194521  128.6525035616021 39.99288467561064  128.6525035616021 39.564386122200425  C 128.6525035616021 39.127611569435295  128.47543002679186 38.753223436655304  128.12129467396227 38.44118484561427  C 127.76782625398651 38.12921246375197  127.26627292178013 37.89109587321454  126.61669129359211 37.72683368292848  Z M 124.63296191996797 30.18377638879491  L 124.63296191996797 28.813264739382458  L 128.91957340924998 28.813264739382458  L 128.91957340924998 30.18377638879491  L 124.63296191996797 30.18377638879491  Z M 138.90843754412765 34.07085292757742  L 138.90843754412765 31.107977676658322  L 140.5760671003597 31.107977676658322  L 140.5760671003597 34.07085292757742  L 138.90843754412765 34.07085292757742  Z M 147 35.36786854094774  L 147 25.024203120418612  L 149 25.024203120418612  L 149 35.36786854094774  L 147 35.36786854094774  Z M 137.5969011180928 34.88897746239033  C 136.31574475063314 34.91585793389673  135.13494457516092 34.931881156807556  134.05453159794203 34.93704538534407  C 134.05453159794203 34.93704538534407  133.82147133080167 33.59662922615423  133.82147133080167 33.59662922615423  C 134.9285611451545 33.59662922615423  136.13902859285102 33.586699229318995  137.45286413350172 33.5668368123689  C 138.76669967415242 33.54697439541881  140.11119588008464 33.49465574033986  141.48638816999443 33.40984321785416  C 142.8615804599042 33.324832067832276  144.18278821729 33.19076197338322  145.44993917370144 33.0076304779304  C 145.44993917370144 33.0076304779304  145.559966577785 34.178899677470284  145.559966577785 34.178899677470284  C 144.25280036567264 34.40917130905266  142.91895719717147 34.578294598255276  141.55843719153637 34.68627994113269  C 140.19791718590125 34.7942652840101  138.8773904930712 34.86183215786866  137.5969011180928 34.88897746239033  Z M 135.43909398140417 31.593021206892665  L 135.43909398140417 30.265697949793626  L 144.12240542254455 30.265697949793626  L 144.12240542254455 31.593021206892665  L 135.43909398140417 31.593021206892665  Z M 135.43909398140417 30.77804866702754  L 135.43909398140417 25.91118662178316  L 143.95736431641922 25.91118662178316  L 143.95736431641922 27.25872507724925  L 137.0987248750752 27.25872507724925  L 137.0987248750752 30.77804866702754  L 135.43909398140417 30.77804866702754  Z M 136.7306032217901 42  L 136.7306032217901 36.17229402079528  L 138.37423679033907 36.17229402079528  L 138.37423679033907 38.056338385547065  L 146.95051269354468 38.056338385547065  L 146.95051269354468 36.17229402079528  L 148.5780878784788 36.17229402079528  L 148.5780878784788 42  L 136.7306032217901 42  Z M 146.95051269354468 39.33747279360354  L 138.37423679033907 39.33747279360354  L 138.37423679033907 41.405363325213706  L 146.95051269354468 41.405363325213706  L 146.95051269354468 39.33747279360354  Z M 166 42.97666311432889  L 166 25.012110370570852  L 167 25.012110370570852  L 167 42.97666311432889  L 166 42.97666311432889  Z M 154 37.89934479103232  L 154 26.77201462660983  L 155 26.77201462660983  L 155 37.89934479103232  L 154 37.89934479103232  Z M 153.3009012405538 38.3500194532783  L 153.3009012405538 36.92110497440061  C 153.3009012405538 36.92110497440061  154.78450049938968 36.92110497440061  154.78450049938968 36.92110497440061  C 156.16436125964887 36.92110497440061  157.57221745812646 36.860799422774846  159.00809962406888 36.740168341340194  C 160.44331479753004 36.619338632369335  161.92388319387504 36.4011864918028  163.44979968514457 36.08570508266234  C 163.44979968514457 36.08570508266234  163.6548951625678 37.491555444662474  163.6548951625678 37.491555444662474  C 162.08429482599308 37.814518343013056  160.5713348992006 38.03840095163303  159.116112097889 38.163203137334506  C 157.66155616980376 38.28774050111971  156.21771493391677 38.3500194532783  154.78450049938968 38.3500194532783  C 154.78450049938968 38.3500194532783  153.3009012405538 38.3500194532783  153.3009012405538 38.3500194532783  Z M 182 43  L 182 25.0043516137763  L 184 25.0043516137763  L 184 43  L 182 43  Z M 184.0897073096648 33.48064187360444  L 184.0897073096648 32.09455209531542  L 187.43296508468984 32.09455209531542  L 187.43296508468984 33.48064187360444  L 184.0897073096648 33.48064187360444  Z M 171.3367862627679 38.52559163339874  L 171.3367862627679 37.13186432889009  C 171.3367862627679 37.13186432889009  172.757373157001 37.13186432889009  172.757373157001 37.13186432889009  C 173.8771345166944 37.13186432889009  174.89981424421566 37.114568557221304  175.82550136332435 37.08000795047026  C 176.75118848243304 37.045248719882686  177.64219276767233 36.98289561536774  178.49852006253076 36.89291886573291  C 179.3541804245354 36.802677279383154  180.23155823107209 36.6766682190386  181.13056851304682 36.514921933148386  C 181.13056851304682 36.514921933148386  181.32064360123334 37.9130438459977  181.32064360123334 37.9130438459977  C 180.39495648212466 38.08002056821579  179.49360904323095 38.20859385056202  178.61660718766817 38.29876922773305  C 177.73960533210544 38.3890108140828  176.82822480221617 38.44942081460967  175.88252999562957 38.48000893723076  C 174.936835189043 38.510398436015315  173.89514128635594 38.52559163339874  172.757373157001 38.52559163339874  C 172.757373157001 38.52559163339874  171.3367862627679 38.52559163339874  171.3367862627679 38.52559163339874  Z M 172 37.75632302027652  L 172 26.753132964566838  L 179.72903186857735 26.753132964566838  L 179.72903186857735 28.103793107336987  L 172.98341169746567 28.103793107336987  L 172.98341169746567 37.75632302027652  L 172 37.75632302027652  Z M 189.7698567808552 41.402756867853036  C 189.54843881500327 41.19910088216113  189.43769857984827 40.87423355980478  189.43769857984827 40.428123660825044  C 189.43769857984827 39.97552538071885  189.54843881500327 39.65384339467812  189.7698567808552 39.46309797685905  C 189.99127474670718 39.272352559039994  190.2616855344117 39.17699382005999  190.58114097511617 39.17699382005999  C 190.91326790153377 39.17699382005999  191.19340183682982 39.272352559039994  191.4214890119652 39.46309797685905  C 191.64890926915365 39.65384339467812  191.7626228114185 39.97552538071885  191.7626228114185 40.428123660825044  C 191.7626228114185 40.87423355980478  191.64890926915365 41.19910088216113  191.4214890119652 41.402756867853036  C 191.19340183682982 41.606412853544946  190.91326790153377 41.70825791663847  190.58114097511617 41.70825791663847  C 190.2616855344117 41.70825791663847  189.99127474670718 41.606412853544946  189.7698567808552 41.402756867853036  Z " fill-rule="nonzero" fill="#55565d" stroke="none" transform="matrix(1 0 0 1 491 335 )" />
  </g>
</svg>