<?xml version="1.0" encoding="utf-8"?>
<svg version="1.1" xmlns:xlink="http://www.w3.org/1999/xlink" width="559px" height="59px" xmlns="http://www.w3.org/2000/svg">
  <g transform="matrix(1 0 0 1 -10 -10 )">
    <path d="M 0 7.649334797273905  C 0 3.4247236333051427  3.581721782684326 0  8 0  C 8 0  551 0  551 0  C 555.4182782173157 0  559 3.4247236333051427  559 7.649334797273905  C 559 7.649334797273905  559 51.35066520272609  559 51.35066520272609  C 559 55.57527636669486  555.4182782173157 59  551 59  C 551 59  8 59  8 59  C 3.581721782684326 59  0 55.57527636669486  0 51.35066520272609  C 0 51.35066520272609  0 7.649334797273905  0 7.649334797273905  Z " fill-rule="nonzero" fill="#aaaaaa" stroke="none" transform="matrix(1 0 0 1 10 10 )" />
  </g>
</svg>