<?xml version="1.0" encoding="utf-8"?>
<svg version="1.1" xmlns:xlink="http://www.w3.org/1999/xlink" width="560px" height="59px" xmlns="http://www.w3.org/2000/svg">
  <g transform="matrix(1 0 0 1 -10 -10 )">
    <path d="M 0 7.649334797273905  C 0 3.4247236333051427  3.5881291561775 0  8.014311270125223 0  C 8.014311270125223 0  551.9856887298748 0  551.9856887298748 0  C 556.4118708438225 0  560 3.4247236333051427  560 7.649334797273905  C 560 7.649334797273905  560 51.35066520272609  560 51.35066520272609  C 560 55.57527636669486  556.4118708438225 59  551.9856887298748 59  C 551.9856887298748 59  8.014311270125223 59  8.014311270125223 59  C 3.5881291561775 59  0 55.57527636669486  0 51.35066520272609  C 0 51.35066520272609  0 7.649334797273905  0 7.649334797273905  Z " fill-rule="nonzero" fill="#3578ff" stroke="none" transform="matrix(1 0 0 1 10 10 )" />
  </g>
</svg>