<?xml version="1.0" encoding="utf-8"?>
<svg version="1.1" xmlns:xlink="http://www.w3.org/1999/xlink" width="61px" height="33px" xmlns="http://www.w3.org/2000/svg">
  <g transform="matrix(1 0 0 1 -689 -623 )">
    <path d="M 23 16.647192179240484  L 23 0  L 28 0  L 28 16.647192179240484  L 23 16.647192179240484  Z M 11.982722410461761 3.6306593236458538  C 11.982722410461761 3.6306593236458538  11.982722410461761 1.360432840112357  11.982722410461761 1.360432840112357  C 11.982722410461761 1.360432840112357  16.641416010272945 1.360432840112357  16.641416010272945 1.360432840112357  C 16.641416010272945 4.232297615073375  16.063941409953465 6.73686525273428  14.909100637258627 8.874046181408001  C 13.75432658945248 11.01121903199854  12.049481138202214 12.783436439049611  9.794573100725266 14.190785835932143  C 7.53965839075945 15.597756513267756  4.7560957326824065 16.67175608586372  1.443819831424491 17.412773980934688  C 1.443819831424491 17.412773980934688  0 13.968841925994736  0 13.968841925994736  C 2.7983982221676893 13.38774014154184  5.078248499643217 12.589681831950296  6.839522236045716 11.574718554398071  C 8.600809317425954 10.559383209838016  9.898267033145174 9.375368103563273  10.73186333142649 8.022582000751996  C 11.565792837120703 6.669794828782651  11.982722410461761 5.205796329232605  11.982722410461761 3.6306593236458538  Z M 1.8492021265956469 5  L 1.8492021265956469 2  L 13.799347539973677 2  L 13.799347539973677 5  L 1.8492021265956469 5  Z M 15.38091804446009 7.564035786167695  L 15.38091804446009 4.30050538561918  L 23.42127475727767 4.30050538561918  L 23.42127475727767 7.564035786167695  L 15.38091804446009 7.564035786167695  Z M 15.141410009720893 13.927907902594386  L 15.141410009720893 10.688524318227058  L 23.26558843413594 10.688524318227058  L 23.26558843413594 13.927907902594386  L 15.141410009720893 13.927907902594386  Z M 5.4232769414786155 21  L 5.4232769414786155 18  L 27.141580025362334 18  L 27.141580025362334 26.771702828832414  L 9.756322581677514 26.771702828832414  L 9.756322581677514 31.17536438634906  L 5.482879424907091 31.17536438634906  L 5.482879424907091 23  L 22.856301779763736 23  L 22.856301779763736 21  L 5.4232769414786155 21  Z M 5.482879424907091 32.70123637007055  L 5.482879424907091 29  L 27.917998455857937 29  L 27.917998455857937 32.70123637007055  L 5.482879424907091 32.70123637007055  Z M 57 33  L 57 0  L 61 0  L 61 33  L 57 33  Z M 45.700707465086786 14.910020348129962  L 45.700707465086786 11.441880653794263  L 51.42754833444677 11.441880653794263  L 51.42754833444677 14.910020348129962  L 45.700707465086786 14.910020348129962  Z M 50 31.45843562692146  L 50 0.6081713224072722  L 54 0.6081713224072722  L 54 31.45843562692146  L 50 31.45843562692146  Z M 38.795970229261094 8.930064362019772  C 38.795970229261094 8.930064362019772  38.795970229261094 5.312846968792162  38.795970229261094 5.312846968792162  L 42.021519979838146 5.312846968792162  C 42.021519979838146 5.312846968792162  42.021519979838146 8.930064362019772  42.021519979838146 8.930064362019772  C 42.021519979838146 10.764545377141944  41.87585671797821 12.573250179186573  41.584597782996035 14.35616415632672  C 41.293405453750964 16.139064828388683  40.850225504926144 17.816400634220244  40.254980458202155 19.38819034348528  C 39.65980201721528 20.95958137558611  38.89439813814433 22.377572459110212  37.958851214311714 23.64216596996439  C 37.0233042904791 24.90675948081857  35.91534037342373 25.937997185500784  34.634960416358304 26.735817132240726  C 34.634960416358304 26.735817132240726  32.07119955035863 23.59174352509234  32.07119955035863 23.59174352509234  C 33.671624482811794 22.58651291223279  34.96324132816313 21.306408174916506  35.946032034947216 19.75142658085064  C 36.9288227417313 18.196444986784773  37.64938788284538 16.482277754652284  38.10776591446413 14.608945436047154  C 38.56654372944499 12.735599931159179  38.795970229261094 10.842646542476722  38.795970229261094 8.930064362019772  Z M 39.73551766762542 8.930064362019772  C 39.73551766762542 8.930064362019772  39.73551766762542 5.312846968792162  39.73551766762542 5.312846968792162  L 42.93672617880845 5.312846968792162  C 42.93672617880845 5.312846968792162  42.93672617880845 8.930064362019772  42.93672617880845 8.930064362019772  C 42.93672617880845 10.779493276097307  43.158058979414385 12.599067376656741  43.60071126543642 14.388704576117489  C 44.043763364608445 16.178368385734608  44.74862259886503 17.804725071726466  45.715287806478194 19.26776037865216  C 46.68235282724135 20.73072927898226  47.95392640966719 21.920917466353707  49.53002976273817 22.838387189525136  C 49.53002976273817 22.838387189525136  47.01458534185145 25.934775396456768  47.01458534185145 25.934775396456768  C 45.30208130319864 24.905628192786782  43.91224560042337 23.51547465909625  42.84509574880889 21.76431004357154  C 41.77801250293152 20.013211834642412  40.99293616067366 18.032805355000225  40.48991307200262 15.823098445137461  C 39.98695664864449 13.613046078423242  39.73551766762542 11.315372644137195  39.73551766762542 8.930064362019772  Z M 33.21365165595235 7  L 33.21365165595235 4  L 48.07443584809803 4  L 48.07443584809803 7  L 33.21365165595235 7  Z " fill-rule="nonzero" fill="#ffffff" stroke="none" transform="matrix(1 0 0 1 689 623 )" />
  </g>
</svg>