<?xml version="1.0" encoding="utf-8"?>
<svg version="1.1" xmlns:xlink="http://www.w3.org/1999/xlink" width="61px" height="31px" xmlns="http://www.w3.org/2000/svg">
  <g transform="matrix(1 0 0 1 -258 -25 )">
    <path d="M 23 15.638271441104699  L 23 0  L 28 0  L 28 15.638271441104699  L 23 15.638271441104699  Z M 11.982722410461761 3.4106193646370144  C 11.982722410461761 3.4106193646370144  11.982722410461761 1.2779823649540323  11.982722410461761 1.2779823649540323  C 11.982722410461761 1.2779823649540323  16.641416010272945 1.2779823649540323  16.641416010272945 1.2779823649540323  C 16.641416010272945 3.9757947293113522  16.063941409953465 6.328570388932203  14.909100637258627 8.336225200716608  C 13.75432658945248 10.34387242399863  12.049481138202214 12.008682715470846  9.794573100725266 13.330738209512013  C 7.53965839075945 14.652437936706074  4.7560957326824065 15.661346626114403  1.443819831424491 16.357454345726524  C 1.443819831424491 16.357454345726524  0 13.12224544563142  0 13.12224544563142  C 2.7983982221676893 12.576361951145365  5.078248499643217 11.826670811832097  6.839522236045716 10.873220460192126  C 8.600809317425954 9.919420591059955  9.898267033145174 8.80716397607459  10.73186333142649 7.53636490979733  C 11.565792837120703 6.26556483915946  11.982722410461761 4.890293521400325  11.982722410461761 3.4106193646370144  Z M 1.8492021265956469 5  L 1.8492021265956469 1.2779823649540323  L 13.799347539973677 1.2779823649540323  L 13.799347539973677 5  L 1.8492021265956469 5  Z M 15.38091804446009 7.105609374884805  L 15.38091804446009 4.039868695581655  L 23.42127475727767 4.039868695581655  L 23.42127475727767 7.105609374884805  L 15.38091804446009 7.105609374884805  Z M 15.141410009720893 13.08379227213412  L 15.141410009720893 10.040734965607237  L 23.26558843413594 10.040734965607237  L 23.26558843413594 13.08379227213412  L 15.141410009720893 13.08379227213412  Z M 5.4232769414786155 20  L 5.4232769414786155 16.86094522961685  L 27.141580025362334 16.86094522961685  L 27.141580025362334 25  L 9.756322581677514 25  L 9.756322581677514 29.285948362933965  L 5.482879424907091 29.285948362933965  L 5.482879424907091 22  L 22.856301779763736 22  L 22.856301779763736 20  L 5.4232769414786155 20  Z M 5.482879424907091 30.719343256732945  L 5.482879424907091 27  L 27.917998455857937 27  L 27.917998455857937 30.719343256732945  L 5.482879424907091 30.719343256732945  Z M 57 31  L 57 0  L 61 0  L 61 31  L 57 31  Z M 45.700707465086786 14.006382751273602  L 45.700707465086786 10.748433341443095  L 51.42754833444677 10.748433341443095  L 51.42754833444677 14.006382751273602  L 45.700707465086786 14.006382751273602  Z M 50 29.5518637707444  L 50 0.5713124543825892  L 54 0.5713124543825892  L 54 29.5518637707444  L 50 29.5518637707444  Z M 38.795970229261094 8.38884834007918  C 38.795970229261094 8.38884834007918  38.795970229261094 4.990856243410818  38.795970229261094 4.990856243410818  L 42.021519979838146 4.990856243410818  C 42.021519979838146 4.990856243410818  42.021519979838146 8.38884834007918  42.021519979838146 8.38884834007918  C 42.021519979838146 10.11214868761819  41.87585671797821 11.81123501681163  41.584597782996035 13.48609360139783  C 41.293405453750964 15.160939687274217  40.850225504926144 16.73661877760084  40.254980458202155 18.213148504486174  C 39.65980201721528 19.689303716459683  38.89439813814433 21.021355946436863  37.958851214311714 22.209307426330184  C 37.0233042904791 23.397258906223506  35.91534037342373 24.36599735607649  34.634960416358304 25.115464578771594  C 34.634960416358304 25.115464578771594  32.07119955035863 22.161940887207955  32.07119955035863 22.161940887207955  C 33.671624482811794 21.21763334179444  34.96324132816313 20.01511070977005  35.946032034947216 18.554370424435447  C 36.9288227417313 17.09363013910085  37.64938788284538 15.483351830127903  38.10776591446413 13.723554803559448  C 38.56654372944499 11.963745389876806  38.795970229261094 10.185516448993283  38.795970229261094 8.38884834007918  Z M 39.73551766762542 8.38884834007918  C 39.73551766762542 8.38884834007918  39.73551766762542 4.990856243410818  39.73551766762542 4.990856243410818  L 42.93672617880845 4.990856243410818  C 42.93672617880845 4.990856243410818  42.93672617880845 8.38884834007918  42.93672617880845 8.38884834007918  C 42.93672617880845 10.12619065330353  43.158058979414385 11.835487535647243  43.60071126543642 13.516661874534611  C 44.043763364608445 15.1978612108416  44.74862259886503 16.725650824955167  45.715287806478194 18.10001732540051  C 46.68235282724135 19.47432144389243  47.95392640966719 20.59237701384742  49.53002976273817 21.4542425113721  C 49.53002976273817 21.4542425113721  47.01458534185145 24.362970826974543  47.01458534185145 24.362970826974543  C 45.30208130319864 23.396196181102734  43.91224560042337 22.09029437672678  42.84509574880889 20.445260950021748  C 41.77801250293152 18.800289905270148  40.99293616067366 16.939908060757784  40.48991307200262 14.864122781795796  C 39.98695664864449 12.788012982761227  39.73551766762542 10.629592483886455  39.73551766762542 8.38884834007918  Z M 33.21365165595235 7  L 33.21365165595235 3.2542355074867846  L 48.07443584809803 3.2542355074867846  L 48.07443584809803 7  L 33.21365165595235 7  Z " fill-rule="nonzero" fill="#ffffff" stroke="none" transform="matrix(1 0 0 1 258 25 )" />
  </g>
</svg>