<?xml version="1.0" encoding="utf-8"?>
<svg version="1.1" xmlns:xlink="http://www.w3.org/1999/xlink" width="127px" height="33px" xmlns="http://www.w3.org/2000/svg">
  <g transform="matrix(1 0 0 1 -447 -281 )">
    <path d="M 23 16.55952984267714  L 23 0  L 28 0  L 28 16.55952984267714  L 23 16.55952984267714  Z M 11.626596477745016 3.8270564580310764  C 11.626596477745016 3.8270564580310764  11.626596477745016 1.256405705995247  11.626596477745016 1.256405705995247  C 11.626596477745016 1.256405705995247  16.856351071734178 1.256405705995247  16.856351071734178 1.256405705995247  C 16.856351071734178 4.169807753351275  16.288035687828017 6.697776379856765  15.151403128357218 8.840332575290486  C 14.015171422610466 10.98257864084686  12.316844135094653 12.750686616614036  10.056404185332267 14.144646833143366  C 7.795977613286538 15.538673084931748  4.977929111253727 16.599573328967764  1.6022988123837991 17.327350100533682  C 1.6022988123837991 17.327350100533682  0 13.517017543538675  0 13.517017543538675  C 2.799999812275573 12.96617310980217  5.051042632751492 12.210541545725901  6.7531325225203105 11.250174264475843  C 8.455202345714147 10.289806983225787  9.692886772642712 9.176072694900638  10.466205690715137 7.908926000259796  C 11.239791804788958 6.641409979848669  11.626596477745016 5.280789904335206  11.626596477745016 3.8270564580310764  Z M 1.920764912858547 5  L 1.920764912858547 1.256405705995247  L 13.634721702562887 1.256405705995247  L 13.634721702562887 5  L 1.920764912858547 5  Z M 15.557198963153224 7.711952256107489  L 15.557198963153224 4.115830532599807  L 23.359236204308704 4.115830532599807  L 23.359236204308704 7.711952256107489  L 15.557198963153224 7.711952256107489  Z M 15.337376323084767 14.095682631915007  L 15.337376323084767 10.527393826738118  L 23.207020722007858 10.527393826738118  L 23.207020722007858 14.095682631915007  L 15.337376323084767 14.095682631915007  Z M 5.487829859280265 21  L 5.487829859280265 17.776933237952882  L 27.56537378634465 17.776933237952882  L 27.56537378634465 26.86824507897245  L 10.343864560806402 26.86824507897245  L 10.343864560806402 30.945677051792682  L 5.539689533443028 30.945677051792682  L 5.539689533443028 23  L 22.753340305997888 23  L 22.753340305997888 21  L 5.487829859280265 21  Z M 5.539689533443028 32.679498813537926  L 5.539689533443028 29  L 28.228205246737463 29  L 28.228205246737463 32.679498813537926  L 5.539689533443028 32.679498813537926  Z M 57 32.97210670657521  L 57 0  L 62 0  L 62 32.97210670657521  L 57 32.97210670657521  Z M 45.908012111633894 15.113455778902747  L 45.908012111633894 11.275229928482958  L 51.442686912433835 11.275229928482958  L 51.442686912433835 15.113455778902747  L 45.908012111633894 15.113455778902747  Z M 51 31.489324585653048  L 51 0.54473428555224  L 55 0.54473428555224  L 55 31.489324585653048  L 51 31.489324585653048  Z M 38.720310196895916 8.770297466258555  C 38.720310196895916 8.770297466258555  38.720310196895916 5.379451062327222  38.720310196895916 5.379451062327222  L 42.31896184344153 5.379451062327222  C 42.31896184344153 5.379451062327222  42.31896184344153 8.770297466258555  42.31896184344153 8.770297466258555  C 42.31896184344153 10.617172770706826  42.18147633203347 12.44315451919013  41.9064695059087 14.248220306888433  C 41.63179667478569 16.053220177247784  41.20530915536393 17.754696689906886  40.627039973881395 19.352693003624335  C 40.04917158640097 20.950755234680734  39.29131235185947 22.393758187228656  38.353470272998116 23.681677805566586  C 37.415628194136765 24.96959742390451  36.28634836218225 26.019908914151074  34.965620863290994 26.832623773516556  C 34.965620863290994 26.832623773516556  32.10982235596127 23.351697729347602  32.10982235596127 23.351697729347602  C 33.74837406381565 22.321955573736055  35.0484141780615 21.029559826115154  36.009969513854074 19.474560130849298  C 36.97145802078533 17.919230730968582  37.66355538635027 16.215145235976284  38.08625229392478 14.362268859441292  C 38.50894920149929 12.509392482906302  38.720310196895916 10.645397537548048  38.720310196895916 8.770297466258555  Z M 39.79291258503353 8.770297466258555  C 39.79291258503353 8.770297466258555  39.79291258503353 5.379451062327222  39.79291258503353 5.379451062327222  L 43.363310494004615 5.379451062327222  C 43.363310494004615 5.379451062327222  43.363310494004615 8.770297466258555  43.363310494004615 8.770297466258555  C 43.363310494004615 10.595344815826232  43.56734545759631 12.394986160753492  43.975413652843166 14.169189308851537  C 44.38348184809002 15.943062752334733  45.060957727683174 17.559449178178337  46.007817522286764 19.018365920637855  C 46.95467731689036 20.47688704114357  48.23536262234667 21.67204887676883  49.84986716785101 22.60386162760276  C 49.84986716785101 22.60386162760276  47.05045382511806 26.02921239775112  47.05045382511806 26.02921239775112  C 45.280711030568426 24.984236851236453  43.86680212131461 23.57183652445626  42.808723872371345 21.792027926225295  C 41.75104635770822 20.011889623379478  40.983981193701105 18.001005022338784  40.50751198667489 15.759378721987328  C 40.03110957864902 13.51742271702102  39.79291258503353 11.187735096956912  39.79291258503353 8.770297466258555  Z M 33.35427107003917 7.131596665099353  L 33.35427107003917 3.3134757209792474  L 48.251512870777944 3.3134757209792474  L 48.251512870777944 7.131596665099353  L 33.35427107003917 7.131596665099353  Z M 87 33  L 87 0.02783291833079331  L 92 0.02783291833079331  L 92 33  L 87 33  Z M 91.09188459854931 16.80269053373413  L 91.09188459854931 12.881056490962946  L 96.97875263461263 12.881056490962946  L 96.97875263461263 16.80269053373413  L 91.09188459854931 16.80269053373413  Z M 65.8140239160468 9  L 65.8140239160468 5  L 85.27375509286212 5  L 85.27375509286212 9  L 65.8140239160468 9  Z M 71.27543469603661 11.534571144730078  C 72.55294392850448 10.857572539374738  74.00237927543698 10.519092251314074  75.62369713981107 10.519092251314074  C 77.24461426990503 10.519092251314074  78.68913043931339 10.857572539374738  79.95722116203693 11.534571144730078  C 81.2257127384845 12.211174069171562  82.22872328903368 13.135387399849384  82.96630536899985 14.30717658617264  C 83.70428824296815 15.478636067881045  84.07327702232553 16.831484383004273  84.07327702232553 18.36571115457305  C 84.07327702232553 19.89993792614182  83.70428824296815 21.258879998554658  82.96630536899985 22.442539376453347  C 82.22872328903368 23.625869049737187  81.22659435390082 24.554700544464996  79.95997314946301 25.229061277061305  C 78.69375267930533 25.90309230504276  77.24364653543775 26.24010260106882  75.60957027102381 26.24010260106882  C 73.99767091639406 26.24010260106882  72.55294392850448 25.90309230504276  71.27543469603661 25.229061277061305  C 69.99792546356873 24.554700544464996  68.98889768773466 23.625869049737187  68.24830968261375 22.442539376453347  C 67.50812247149493 21.258879998554658  67.13803564437679 19.89993792614182  67.13803564437679 18.36571115457305  C 67.13803564437679 16.831484383004273  67.50812247149493 15.478636067881045  68.24830968261375 14.30717658617264  C 68.98889768773466 13.135387399849384  69.99792546356873 12.211174069171562  71.27543469603661 11.534571144730078  Z M 77.60806353985038 14.843005545360906  C 77.02004188348273 14.524355910914663  76.35389896044232 14.365046113764974  75.60957027102381 14.365046113764974  C 74.85735947872998 14.365046113764974  74.18775578816857 14.524355910914663  73.60080291580653 14.843005545360906  C 73.01431760658593 15.161259498893294  72.55366805714037 15.617502380628263  72.21887714097639 16.21173911373021  C 71.88408622481242 16.805646083257255  71.71673116862918 17.523650461923786  71.71673116862918 18.36571115457305  C 71.71673116862918 19.20770587092331  71.88408622481242 19.93030376833779  72.21887714097639 20.533509091940292  C 72.55366805714037 21.13664849820384  73.01431760658593 21.597539672575746  73.60080291580653 21.916189307021988  C 74.18775578816857 22.234838941468233  74.85735947872998 22.394148738617922  75.60957027102381 22.394148738617922  C 76.36178106331765 22.394148738617922  77.02980964718688 22.234838941468233  77.61368982525482 21.916189307021988  C 78.19797079732486 21.597539672575746  78.65736705180232 21.13664849820384  78.99182397296455 20.533509091940292  C 79.32654809012817 19.93030376833779  79.49390879003565 19.20770587092331  79.49390879003565 18.36571115457305  C 79.49390879003565 17.523650461923786  79.32654809012817 16.805646083257255  78.99182397296455 16.21173911373021  C 78.65736705180232 15.617502380628263  78.196085196218 15.161259498893294  77.60806353985038 14.843005545360906  Z M 73.17925959740568 6.327581538393986  L 73.17925959740568 0.5547565511550854  L 77.99927384128809 0.5547565511550854  L 77.99927384128809 6.327581538393986  L 73.17925959740568 6.327581538393986  Z M 122 32.97210670657521  L 122 0  L 127 0  L 127 32.97210670657521  L 122 32.97210670657521  Z M 112.32719806267791 4.2710548992559225  C 112.32719806267791 4.2710548992559225  112.32719806267791 3.414181377759645  112.32719806267791 3.414181377759645  C 112.32719806267791 3.414181377759645  117.08348850882732 3.414181377759645  117.08348850882732 3.414181377759645  C 117.08348850882732 5.939941360689959  116.83634618247218 8.344046236744923  116.34204194096253 10.626499543527698  C 115.84840568945637 12.908880211525515  115.02645936856395 15.06053630149721  113.87620005190975 17.081442342700008  C 112.7266086655371 19.10234838390281  111.16354585999396 20.976362528941166  109.18699694368081 22.703480532691284  C 107.21111595764918 24.430202796567492  104.73826713116688 26.000804265145916  101.76843386153193 27.41527361809643  C 101.76843386153193 27.41527361809643  99.25348428574249 23.668334909794122  99.25348428574249 23.668334909794122  C 102.46846564639982 22.14076861954177  105.03151121910395 20.439598581236744  106.94259830951408 18.564828214562105  C 108.85301735019875 16.690123765226417  110.2280559301078 14.574080254622812  111.06770515067072 12.216719144210487  C 111.90735437123362 9.858962529764463  112.32719806267791 7.210399841492509  112.32719806267791 4.2710548992559225  Z M 101.04300997601462 7.177240236158095  L 101.04300997601462 4  L 114.58560125507961 4  L 114.58560125507961 7.177240236158095  L 101.04300997601462 7.177240236158095  Z " fill-rule="nonzero" fill="#4c4c57" stroke="none" transform="matrix(1 0 0 1 447 281 )" />
  </g>
</svg>