<?xml version="1.0" encoding="utf-8"?>
<svg version="1.1" xmlns:xlink="http://www.w3.org/1999/xlink" width="31px" height="31px" xmlns="http://www.w3.org/2000/svg">
  <g transform="matrix(1 0 0 1 -450 -341 )">
    <path d="M 31 15.499943237373978  C 31 6.9439859147598  24.055961798732703 0  15.499967564196732 0  C 6.9440057654640315 0  0 6.9439859147598  0 15.499943237373978  C 0 24.05593299577445  6.9440057654640315 31  15.499967564196732 31  C 24.055961798732703 31  31 24.05593299577445  31 15.499943237373978  Z M 17.05000973074098 13.949982971212192  L 17.05000973074098 23.24997161868699  L 13.94999026925902 23.24997161868699  L 13.94999026925902 13.949982971212192  L 17.05000973074098 13.949982971212192  Z M 17.05000973074098 7.749995945526713  L 17.05000973074098 10.84994891363658  L 13.94999026925902 10.84994891363658  L 13.94999026925902 7.749995945526713  L 17.05000973074098 7.749995945526713  Z " fill-rule="nonzero" fill="#3578ff" stroke="none" transform="matrix(1 0 0 1 450 341 )" />
  </g>
</svg>