<?xml version="1.0" encoding="utf-8"?>
<svg version="1.1" xmlns:xlink="http://www.w3.org/1999/xlink" width="85px" height="22px" xmlns="http://www.w3.org/2000/svg">
  <g transform="matrix(1 0 0 1 -446 -434 )">
    <path d="M 16 11.08998309242806  L 16 0  L 19 0  L 19 11.08998309242806  L 16 11.08998309242806  Z M 8.01967218075667 2.418664080802723  C 8.01967218075667 2.418664080802723  8.01967218075667 0.9063038721654952  8.01967218075667 0.9063038721654952  C 8.01967218075667 0.9063038721654952  11.13755575874037 0.9063038721654952  11.13755575874037 0.9063038721654952  C 11.13755575874037 2.8194893415129236  10.751111320341483 4.487942822293683  9.978213472305983 5.911685563364718  C 9.205315624270481 7.3354349521228395  8.064300978437101 8.51606388224408  6.555183410320203 9.453603633470362  C 5.046045866247292 10.39090436473321  3.1830717013629957 11.106387625468619  0.9662716811525911 11.600039229987182  C 0.9662716811525911 11.600039229987182  0 9.305759072625204  0 9.305759072625204  C 1.872875899392265 8.918638226587882  3.3986760223433947 8.387009899269412  4.577442234629465 7.710861181098882  C 5.756201748391364 7.034460206945089  6.624541604229667 6.245636160344285  7.182440869256336 5.344436524775671  C 7.740594319352039 4.443236889207057  8.01967218075667 3.4679858181524335  8.01967218075667 2.418664080802723  Z M 1.2375810487650758 3.176728329576095  L 1.2375810487650758 0.9063038721654952  L 9.235481112098213 0.9063038721654952  L 9.235481112098213 3.176728329576095  L 1.2375810487650758 3.176728329576095  Z M 10.293893864034775 5.038992397117977  L 10.293893864034775 2.8649024223135746  L 15.675097755672422 2.8649024223135746  L 15.675097755672422 5.038992397117977  L 10.293893864034775 5.038992397117977  Z M 10.1336498549246 9.278499756884587  L 10.1336498549246 7.120455399372321  L 15.570861064097604 7.120455399372321  L 15.570861064097604 9.278499756884587  L 10.1336498549246 9.278499756884587  Z M 3.6296048919986252 14  L 3.6296048919986252 12  L 18.164988950925103 12  L 18.164988950925103 17.834764399062898  L 6.529583564798303 17.834764399062898  L 6.529583564798303 20.76837731512178  L 3.66947450787125 20.76837731512178  L 3.66947450787125 15.716682137647528  L 15.29691821955344 15.716682137647528  L 15.29691821955344 14  L 3.6296048919986252 14  Z M 3.66947450787125 21.784903637890643  L 3.66947450787125 19.538365269858108  L 18.68464131755985 19.538365269858108  L 18.68464131755985 21.784903637890643  L 3.66947450787125 21.784903637890643  Z M 38 21.983863214427796  L 38 0  L 41 0  L 41 21.983863214427796  L 38 21.983863214427796  Z M 30.58596663013663 9.932723334659418  L 30.58596663013663 7.622336781151924  L 34.418808573246324 7.622336781151924  L 34.418808573246324 9.932723334659418  L 30.58596663013663 9.932723334659418  Z M 34 20.95697409715776  L 34 0.40515183662644216  L 37 0.40515183662644216  L 37 20.95697409715776  L 34 20.95697409715776  Z M 25.964827051536172 5.949034168766299  C 25.964827051536172 5.949034168766299  25.964827051536172 3.5393045794103344  25.964827051536172 3.5393045794103344  L 28.123573833542643 3.5393045794103344  C 28.123573833542643 3.5393045794103344  28.123573833542643 5.949034168766299  28.123573833542643 5.949034168766299  C 28.123573833542643 7.1711339231817455  28.026151888524772 8.376057716082636  27.831288515951087 9.563795694647041  C 27.63635824784806 10.75155361627271  27.339713192808656 11.86894125913755  26.941357043992394 12.915992573929186  C 26.543000895176135 13.962844695525572  26.030762957484434 14.907511123436672  25.404631388883484 15.749958559872695  C 24.778499820282537 16.59240599630872  24.036964881078795 17.27935590020216  23.180047683585045 17.810847920258144  C 23.180047683585045 17.810847920258144  21.464214975297192 15.716378243380632  21.464214975297192 15.716378243380632  C 22.535328009447646 15.046669056596507  23.39977410887788 14.193881855146724  24.05754669468023 13.157983578658888  C 24.715252414857368 12.12208530217105  25.19752208243078 10.980140865784406  25.50436667221462 9.732183507934403  C 25.81134505305715 8.484199559336046  25.964827051536172 7.223161215217919  25.964827051536172 5.949034168766299  Z M 26.593676845361223 5.949034168766299  C 26.593676845361223 5.949034168766299  26.593676845361223 3.5393045794103344  26.593676845361223 3.5393045794103344  L 28.73616343840582 3.5393045794103344  C 28.73616343840582 3.5393045794103344  28.73616343840582 5.949034168766299  28.73616343840582 5.949034168766299  C 28.73616343840582 7.1810852733356265  28.884302705966785 8.393207205557536  29.180577981539003 9.585432966450073  C 29.477120839228593 10.777672022716786  29.948860546419894 11.8611106992279  30.595796235893246 12.835734098041815  C 31.242999507483976 13.810357496855731  32.09403312804102 14.603249571828517  33.14889087750622 15.214405693320957  C 33.14889087750622 15.214405693320957  31.46536419436861 17.277300755867923  31.46536419436861 17.277300755867923  C 30.31919563226728 16.59165878440912  29.389023135193913 15.665555607211825  28.67485854518232 14.499008199619857  C 27.96069395517073 13.3323944338657  27.43527960177465 12.013074273830837  27.098600114273445 10.541028488706184  C 26.76198752230158 9.068737095285357  26.593676845361223 7.538079840189602  26.593676845361223 5.949034168766299  Z M 22.22881131840285 4.6099240816867795  L 22.22881131840285 2.3077426733854924  L 32.1746881437338 2.3077426733854924  L 32.1746881437338 4.6099240816867795  L 22.22881131840285 4.6099240816867795  Z M 46.51880828504091 3.3047893736462894  L 46.51880828504091 1  L 60.607971113171786 1  L 60.607971113171786 3.3047893736462894  L 46.51880828504091 3.3047893736462894  Z M 44.03084626474982 11  L 44.03084626474982 9  L 64.09493954531273 9  L 64.09493954531273 11  L 44.03084626474982 11  Z M 58.85260562908397 2.7566248950183443  C 58.85260562908397 2.7566248950183443  58.85260562908397 1.0343649162356894  58.85260562908397 1.0343649162356894  L 61.67250823006573 1.0343649162356894  C 61.67250823006573 1.0343649162356894  61.67250823006573 2.7566248950183443  61.67250823006573 2.7566248950183443  C 61.67250823006573 3.696906401688133  61.645627788952005 4.71001153978045  61.59191158722645 5.795932237103832  C 61.53846296388026 6.881852934427215  61.34065607587496 8.152123372698  60.99849124467991 9.606735954559518  C 60.99849124467991 9.606735954559518  58.15421367116771 9.551822260531319  58.15421367116771 9.551822260531319  C 58.50213142817398 8.102182029903195  58.705467140471995 6.839752538553132  58.764200420924006 5.764539959333423  C 58.823134384226016 4.689075124130448  58.85260562908397 3.686450539567724  58.85260562908397 2.7566248950183443  Z M 46.41426537521823 21.745275825487337  L 46.41426537521823 13.751367524201033  L 61.622839630261275 13.751367524201033  L 61.622839630261275 21.745275825487337  L 46.41426537521823 21.745275825487337  Z M 58.81907473094223 19.491261658489147  L 58.81907473094223 15.981465212394465  L 49.21790778723812 15.981465212394465  L 49.21790778723812 19.491261658489147  L 58.81907473094223 19.491261658489147  Z M 68.73827994688374 2.0280687795606243  C 69.49833409251818 1.578962643646158  70.3681478030991 1.3543959687044158  71.34774936792951 1.3543959687044158  C 72.32735093275993 1.3543959687044158  73.19580400561838 1.578962643646158  73.95311546445383 2.0280687795606243  C 74.71069450540665 2.4769292775017404  75.3090164332079 3.102526252752315  75.74804434616641 3.9048893824868496  C 76.18700539349967 4.707252512221384  76.40647482273566 5.634835512048027  76.40647482273566 6.687649184458294  C 76.40647482273566 7.723036301292518  76.18568901388335 8.642172821129906  75.74418599624325 9.44503381514388  C 75.3029505607205 10.247649200861678  74.70468425459318 10.872028165516358  73.94937960182982 11.318146908013967  C 73.19400808344123 11.764000099154138  72.32413875118637 11.986927021173141  71.3397876934849 11.986927021173141  C 70.36225986016004 11.986927021173141  69.49422891394092 11.763710657671224  68.73564646995206 11.317326393493348  C 67.97726468264712 10.870988574093566  67.37993688760291 10.246637209211174  66.94371852706861 9.444274079476639  C 66.50750016653431 8.641910949742105  66.2893913750208 7.723036301292518  66.2893913750208 6.687649184458294  C 66.2893913750208 5.634835512048027  66.50750016653431 4.707252512221384  66.94371852706861 3.9048893824868496  C 67.37993688760291 3.102526252752315  67.9781589356241 2.4769292775017404  68.73827994688374 2.0280687795606243  Z M 72.61616659425506 4.102420655969588  C 72.24015319339024 3.8639330120126294  71.81467101208936 3.7447067144056936  71.3397876934849 3.7447067144056936  C 70.86470368829241 3.7447067144056936  70.43917721898126 3.8639330120126294  70.06316381811645 4.102420655969588  C 69.68708352172229 4.340669294801699  69.39510368972752 4.677138430356758  69.18719589826061 5.111805463466384  C 68.97922121126435 5.54622685860266  68.87522074733104 6.070282817429649  68.87522074733104 6.683941674402157  C 68.87522074733104 7.284907425777279  68.97922121126435 7.805306830256749  69.18719589826061 8.245198470583036  C 69.39510368972752 8.68509675859641  69.68708352172229 9.024294146480576  70.06316381811645 9.262788423286036  C 70.43917721898126 9.501037062118145  70.86470368829241 9.620168081156345  71.3397876934849 9.620168081156345  C 71.81467101208936 9.620168081156345  72.24015319339024 9.501037062118145  72.61616659425506 9.262788423286036  C 72.99224689064921 9.024294146480576  73.28684249633321 8.68509675859641  73.50003494490593 8.245198470583036  C 73.71349496064397 7.805306830256749  73.82027798852799 7.284907425777279  73.82027798852799 6.683941674402157  C 73.82027798852799 6.070282817429649  73.71349496064397 5.54622685860266  73.50003494490593 5.111805463466384  C 73.28684249633321 4.677138430356758  72.99224689064921 4.340669294801699  72.61616659425506 4.102420655969588  Z M 82 13.11574227556027  L 82 0.02388608937806657  L 85 0.02388608937806657  L 85 13.11574227556027  L 82 13.11574227556027  Z M 79.37005502561786 7.725782389603501  L 79.37005502561786 5.423600981302215  L 83.07376473360092 5.423600981302215  L 83.07376473360092 7.725782389603501  L 79.37005502561786 7.725782389603501  Z M 77 13.028433452680899  L 77 0.4141167174998895  L 80 0.4141167174998895  L 80 13.028433452680899  L 77 13.028433452680899  Z M 69.87012383465944 16.443809950050834  L 69.87012383465944 14  L 85 14  L 85 22  L 82.14782199569277 22  L 82.14782199569277 16.443809950050834  L 69.87012383465944 16.443809950050834  Z " fill-rule="nonzero" fill="#26262c" stroke="none" transform="matrix(1 0 0 1 446 434 )" />
  </g>
</svg>