<?xml version="1.0" encoding="utf-8"?>
<svg version="1.1" xmlns:xlink="http://www.w3.org/1999/xlink" width="192px" height="21px" xmlns="http://www.w3.org/2000/svg">
  <g transform="matrix(1 0 0 1 -469 -592 )">
    <path d="M 15 17.0874483500542  L 15 0.15043887172883677  L 16 0.15043887172883677  L 16 17.0874483500542  L 15 17.0874483500542  Z M 3.8849150821173604 2.1822479034400697  C 4.5806730029014044 1.6993222154363044  5.37235008533637 1.4578365294496376  6.2599922158209775 1.4578365294496376  C 7.155976839680601 1.4578365294496376  7.949793397832332 1.6993222154363044  8.641393438058017 2.1822479034400697  C 9.332986795219126 2.665173591443835  9.875341323600033 3.3479573423785256  10.26848670913489 4.230658266843791  C 10.661585372887952 5.113166037257235  10.858123949207435 6.153036920669962  10.858123949207435 7.350225344536719  C 10.858123949207435 8.552479786355653  10.661585372887952 9.59613341387295  10.26848670913489 10.48120227219012  C 9.875341323600033 11.366046777646984  9.332986795219126 12.05003703107554  8.641393438058017 12.53314968908159  C 7.949793397832332 13.016075377085354  7.155976839680601 13.257561063072021  6.2599922158209775 13.257561063072021  C 5.37235008533637 13.257561063072021  4.5806730029014044 13.016075377085354  3.8849150821173604 12.53314968908159  C 3.189143795204169 12.05003703107554  2.6446669761296846 11.366046777646984  2.2515282736594013 10.48120227219012  C 1.858596447839795 9.59613341387295  1.662135442805538 8.552479786355653  1.662135442805538 7.350225344536719  C 1.662135442805538 6.153036920669962  1.858596447839795 5.113166037257235  2.2515282736594013 4.230658266843791  C 2.6446669761296846 3.3479573423785256  3.189143795204169 2.665173591443835  3.8849150821173604 2.1822479034400697  Z M 7.82078948633011 3.403215947710288  C 7.370915086174935 3.033625112761408  6.850641283803975 2.8488113381309037  6.2599922158209775 2.8488113381309037  C 5.669343147837981 2.8488113381309037  5.1490932135547824 3.033625112761408  4.699225496464181 3.403215947710288  C 4.249564685859367 3.772613600751267  3.89783818972011 4.294381443190662  3.6440192459530065 4.968533263787581  C 3.390200302185903 5.642678844622802  3.263290785549687 6.436561051165536  3.263290785549687 7.350225344536719  C 3.263290785549687 8.26408903172142  3.390200302185903 9.061238923467922  3.6440192459530065 9.74161579775226  C 3.89783818972011 10.421824421319407  4.249564685859367 10.947828198412708  4.699225496464181 11.319712145785283  C 5.1490932135547824 11.691658407206592  5.669343147837981 11.877653808852415  6.2599922158209775 11.877653808852415  C 6.850641283803975 11.877653808852415  7.370915086174935 11.691658407206592  7.82078948633011 11.319712145785283  C 8.270657203420711 10.947828198412708  8.62251285574987 10.421824421319407  8.876331799516974 9.74161579775226  C 9.130150743284076 9.061238923467922  9.257029708767957 8.26408903172142  9.257029708767957 7.350225344536719  C 9.257029708767957 6.436561051165536  9.130150743284076 5.642678844622802  8.876331799516974 4.968533263787581  C 8.62251285574987 4.294381443190662  8.270657203420711 3.772613600751267  7.82078948633011 3.403215947710288  Z M 23.45326421559439 9.077106136054311  L 23.45326421559439 5.887710776603287  L 25.10128502602099 5.887710776603287  L 25.10128502602099 9.077106136054311  L 23.45326421559439 9.077106136054311  Z M 30.09587906326348 9.077106136054311  L 30.09587906326348 5.887710776603287  L 31.743991527147084 5.887710776603287  L 31.743991527147084 9.077106136054311  L 30.09587906326348 9.077106136054311  Z M 19.414126916488108 10  L 19.414126916488108 8.517738241742121  L 35.77772127229001 8.517738241742121  L 35.77772127229001 10  L 19.414126916488108 10  Z M 23.02970303961689 11.817809145809733  C 24.128577269433478 11.304848587725447  25.646199436649482 11.048385913725234  27.58252741409 11.048385913725234  C 29.519055525446404 11.048385913725234  31.036647141510073 11.304848587725447  32.13532123741078 11.817809145809733  C 33.23406204461678 12.330520447699081  33.783433701294385 13.06980440511895  33.783433701294385 14.03565578112648  C 33.783433701294385 14.996833687047172  33.23406204461678 15.738854448517127  32.13532123741078 16.261660459164965  C 31.036647141510073 16.78452881171761  29.519055525446404 17.045973545447875  27.58252741409 17.045973545447875  C 25.646199436649482 17.045973545447875  24.128577269433478 16.78452881171761  23.02970303961689 16.261660459164965  C 21.93096223241089 15.738854448517127  21.381590575733284 14.996833687047172  21.381590575733284 14.03565578112648  C 21.381590575733284 13.06980440511895  21.93096223241089 12.330520447699081  23.02970303961689 11.817809145809733  Z M 30.01638496488686 12.45601910334879  C 29.341910396970853 12.313820853687904  28.530636003387357 12.242769007587551  27.58252741409 12.242769007587551  C 26.64249435360604 12.242769007587551  25.833148083822177 12.313820853687904  25.15453568454153 12.45601910334879  C 24.47605670787147 12.597968096814743  23.956924993499925 12.80148596104555  23.597129591941624 13.066503125483898  C 23.23740093152373 13.331520289922251  23.057535139394407 13.654549521677698  23.057535139394407 14.03565578112648  C 23.057535139394407 14.424488871194  23.23740093152373 14.753379662661928  23.597129591941624 15.022322556458382  C 23.956924993499925 15.291016194059898  24.47605670787147 15.494534044362668  25.15453568454153 15.632806578593492  C 25.833148083822177 15.771079112824314  26.64249435360604 15.84018060162509  27.58252741409 15.84018060162509  C 28.530636003387357 15.84018060162509  29.341910396970853 15.771079112824314  30.01638496488686 15.632806578593492  C 30.690926244108162 15.494534044362668  31.20807437121114 15.291016194059898  31.567803031629033 15.022322556458382  C 31.927598433187335 14.753379662661928  32.10748913763326 14.424488871194  32.10748913763326 14.03565578112648  C 32.10748913763326 13.654549521677698  31.927598433187335 13.331520289922251  31.567803031629033 13.066503125483898  C 31.20807437121114 12.80148596104555  30.690926244108162 12.597968096814743  30.01638496488686 12.45601910334879  Z M 24.19999548097538 0.8482652953113666  C 25.1556456699629 0.5982343949608703  26.286903524552784 0.47322352711061844  27.593739686997075 0.47322352711061844  C 28.905648056771682 0.47322352711061844  30.038158150585993 0.5982343949608703  30.99127223590836 0.8482652953113666  C 31.944386321230727 1.098295554972046  32.67809259210934 1.4560166918082371  33.19239110821441 1.9214187333436565  C 33.706756395294995 2.386815788640934  33.96392990929172 2.951797267850303  33.96392990929172 3.616408994221726  C 33.96392990929172 4.268745047985041  33.706756395294995 4.829556778584221  33.19239110821441 5.298848420143275  C 32.67809259210934 5.767953091700048  31.944386321230727 6.126269401520261  30.99127223590836 6.373770384919439  C 30.038158150585993 6.621265128556919  28.905648056771682 6.744989853383427  27.593739686997075 6.744989853383427  C 26.286903524552784 6.744989853383427  25.1556456699629 6.621265128556919  24.19999548097538 6.373770384919439  C 23.24441200329316 6.126269401520261  22.509453552860336 5.767953091700048  21.99508826577975 5.298848420143275  C 21.480789749674678 4.829556778584221  21.22361056700711 4.268745047985041  21.22361056700711 3.616408994221726  C 21.22361056700711 2.951797267850303  21.480789749674678 2.386815788640934  21.99508826577975 1.9214187333436565  C 22.509453552860336 1.4560166918082371  23.24441200329316 1.098295554972046  24.19999548097538 0.8482652953113666  Z M 30.08497230187976 1.9120626563760685  C 29.390876196706138 1.7588100838910492  28.560468726281087 1.6822112289223399  27.593739686997075 1.6822112289223399  C 26.64042534841839 1.6822112289223399  25.813284345144005 1.7588100838910492  25.11231399201405 1.9120626563760685  C 24.41154389214043 2.06511583504757  23.872702805948308 2.284785099582776  23.495821970797554 2.5710385408431877  C 23.118941135646796 2.857092560434002  22.93050344798396 3.2055295725546755  22.93050344798396 3.616408994221726  C 22.93050344798396 4.015012743280669  23.118941135646796 4.359330844135338  23.495821970797554 4.649285661893546  C 23.872702805948308 4.939041085838237  24.41154389214043 5.160491927690331  25.11231399201405 5.313738274341692  C 25.813284345144005 5.466990846826711  26.64042534841839 5.543646751045224  27.593739686997075 5.543646751045224  C 28.560468726281087 5.543646751045224  29.390876196706138 5.466990846826711  30.08497230187976 5.313738274341692  C 30.77906840705337 5.160491927690331  31.314562709979498 4.939041085838237  31.691443545130255 4.649285661893546  C 32.06825763914061 4.359330844135338  32.25663986333451 4.015012743280669  32.25663986333451 3.616408994221726  C 32.25663986333451 3.2055295725546755  32.06825763914061 2.857092560434002  31.691443545130255 2.5710385408431877  C 31.314562709979498 2.284785099582776  30.77906840705337 2.06511583504757  30.08497230187976 1.9120626563760685  Z M 51.39559255073799 4.0317845820327465  L 51.39559255073799 2.7345987400265686  L 54.521219843864515 2.7345987400265686  L 54.521219843864515 4.0317845820327465  L 51.39559255073799 4.0317845820327465  Z M 51.39559255073799 7.647280788257635  L 51.39559255073799 6.350094946251457  L 54.521219843864515 6.350094946251457  L 54.521219843864515 7.647280788257635  L 51.39559255073799 7.647280788257635  Z M 51 10.203030130153788  L 51 0.1650434796782422  L 52 0.1650434796782422  L 52 10.203030130153788  L 51 10.203030130153788  Z M 40.12658615377222 12  L 40.12658615377222 11  L 51.887893819470065 11  L 51.887893819470065 17.07278669285499  L 50.227683099261654 17.07278669285499  L 50.227683099261654 12  L 40.12658615377222 12  Z M 40.4660705585228 1.6781036829365694  C 41.18038890105277 1.33596298035341  41.98795646126639 1.164888631714493  42.888746387564915 1.164888631714493  C 43.803484943692 1.164888631714493  44.615881376081184 1.33596298035341  45.325995116271 1.6781036829365694  C 46.036175567766115 2.020239399281587  46.59506674273161 2.4899366810631127  47.00258125413117 3.087163103805185  C 47.410362730092345 3.6843957663089544  47.614215323885176 4.37898325216125  47.614215323885176 5.170944002086372  C 47.614215323885176 5.962705358197977  47.410362730092345 6.6584361132447984  47.00258125413117 7.258204904605504  C 46.59506674273161 7.857768062390995  46.036175567766115 8.32553463933668  45.325995116271 8.661445301994279  C 44.615881376081184 8.99734972489018  43.803484943692 9.165304276248767  42.888746387564915 9.165304276248767  C 41.98795646126639 9.165304276248767  41.18038890105277 8.99734972489018  40.4660705585228 8.661445301994279  C 39.75168550468753 8.32553463933668  39.190735945833445 7.857768062390995  38.783221434433884 7.258204904605504  C 38.37570692303433 6.6584361132447984  38.1719539785079 5.962705358197977  38.1719539785079 5.170944002086372  C 38.1719539785079 4.37898325216125  38.37570692303433 3.6843957663089544  38.783221434433884 3.087163103805185  C 39.190735945833445 2.4899366810631127  39.75168550468753 2.020239399281587  40.4660705585228 1.6781036829365694  Z M 44.493598419741645 2.8259916382099575  C 44.02788661846798 2.6001070417589047  43.493675135753726 2.4871761436337114  42.89094607053306 2.4871761436337114  C 42.29902889104727 2.4871761436337114  41.76884010600932 2.6001070417589047  41.300391977649284 2.8259916382099575  C 40.83214407271047 3.05187623466101  40.46310918520395 3.366565983124119  40.193279319320325 3.7700426239394953  C 39.92358293571751 4.173519264754872  39.78872096009542 4.640504645820939  39.78872096009542 5.170944002086372  C 39.78872096009542 5.701383358351807  39.92358293571751 6.168311690168071  40.193279319320325 6.5717883309834475  C 40.46310918520395 6.975071789890924  40.83214407271047 7.2909618567983605  41.300391977649284 7.519376370200732  C 41.76884010600932 7.747597715623243  42.29902889104727 7.861671869014922  42.89094607053306 7.861671869014922  C 43.493675135753726 7.861671869014922  44.02788661846798 7.747597715623243  44.493598419741645 7.519376370200732  C 44.959510444436525 7.2909618567983605  45.327287453882875 6.975071789890924  45.596983837485695 6.5717883309834475  C 45.86681370336932 6.168311690168071  46.00172550362461 5.701383358351807  46.00172550362461 5.170944002086372  C 46.00172550362461 4.640504645820939  45.86681370336932 4.173519264754872  45.596983837485695 3.7700426239394953  C 45.327287453882875 3.366565983124119  44.959510444436525 3.05187623466101  44.493598419741645 2.8259916382099575  Z M 57.239783583274644 2.7468643287340773  L 57.239783583274644 1.4713001524029958  L 65.25041793021671 1.4713001524029958  L 65.25041793021671 2.7468643287340773  L 57.239783583274644 2.7468643287340773  Z M 59.96592400846394 9.470232516442408  L 59.96592400846394 5.248359834068182  L 61.59827207774251 5.248359834068182  L 61.59827207774251 9.470232516442408  L 59.96592400846394 9.470232516442408  Z M 64.58758012914863 2.3712520680353055  C 64.58758012914863 2.3712520680353055  64.58758012914863 1.4713001524029958  64.58758012914863 1.4713001524029958  L 66.21998930073187 1.4713001524029958  C 66.21998930073187 1.4713001524029958  66.21998930073187 2.3712520680353055  66.21998930073187 2.3712520680353055  C 66.21998930073187 2.923307797320825  66.20116649784305 3.616701204490489  66.16359187352077 4.451495912828746  C 66.12628420630135 5.2861037068768795  65.98865737749863 6.26208778733466  65.75066249855598 7.37943456043553  C 65.75066249855598 7.37943456043553  64.1173367924027 7.214105834508277  64.1173367924027 7.214105834508277  C 64.35299577618385 6.103569872724142  64.49026817507146 5.155651738970648  64.52904412127407 4.37031483035998  C 64.56808702830891 3.584778527935795  64.58758012914863 2.918434933420469  64.58758012914863 2.3712520680353055  Z M 69 12.889992746595382  L 69 0.15774117570353952  L 71 0.15774117570353952  L 71 12.889992746595382  L 69 12.889992746595382  Z M 69.59057573328334 6.956471422400796  L 69.59057573328334 5.659285580394617  L 72.93604911861516 5.659285580394617  L 72.93604911861516 6.956471422400796  L 69.59057573328334 6.956471422400796  Z M 58.90695996621552 16.697231481406018  L 58.90695996621552 15.421610255825136  L 70.93604848213283 15.421610255825136  L 70.93604848213283 16.697231481406018  L 58.90695996621552 16.697231481406018  Z M 58.90695996621552 15.804581869748414  L 58.90695996621552 11.726986740124367  L 60.562771320487634 11.726986740124367  L 60.562771320487634 15.804581869748414  L 58.90695996621552 15.804581869748414  Z M 59.81634556663 10.155165809569604  C 58.55102173714488 10.182458901548928  57.38442908807038 10.198569061363612  56.31658886200458 10.203429474902405  C 56.31658886200458 10.203429474902405  56.134198482562454 8.924042998834565  56.134198482562454 8.924042998834565  C 57.21018094874694 8.924042998834565  58.39344641184672 8.912836280625212  59.68399797471319 8.890440990700972  C 60.97481650214129 8.867858762112538  62.2893866410631 8.816051958479735  63.62772402507613 8.73503883423933  C 64.96626166234549 8.65403817559428  66.24664947740025 8.536328037850268  67.46885930589691 8.38190397796269  C 67.46885930589691 8.38190397796269  67.58367053637322 9.520778151767304  67.58367053637322 9.520778151767304  C 66.32955897979518 9.714727341435559  65.03783441975564 9.862151663114565  63.708440169546165 9.963023936235238  C 62.379312883898294 10.063671884351683  61.08193636067672 10.127685778926086  59.81634556663 10.155165809569604  Z M 82.02544465451898 8.010627460248898  L 82.02544465451898 6.728103275441929  L 85.4422855317062 6.728103275441929  L 85.4422855317062 8.010627460248898  L 82.02544465451898 8.010627460248898  Z M 89 17.065484388880286  L 89 0.15774117570353952  L 90 0.15774117570353952  L 90 17.065484388880286  L 89 17.065484388880286  Z M 85 16.222581723050343  L 85 0.5190911239517201  L 87 0.5190911239517201  L 87 16.222581723050343  L 85 16.222581723050343  Z M 76.727997044176 2.2853358978329434  C 77.30863512010899 1.8074750021138783  77.98383151866915 1.5685691233160284  78.75347734170604 1.5685691233160284  C 79.53700508326622 1.5685691233160284  80.21877845274963 1.8074750021138783  80.79881588825407 2.2853358978329434  C 81.37885332375852 2.7632018076462295  81.82754526901084 3.442641547720679  82.14496076245493 4.323591494771844  C 82.462376255899 5.20434204800949  82.62106992044926 6.247883972649979  82.62106992044926 7.454226126926431  C 82.62106992044926 8.660568281202883  82.462376255899 9.705365233626866  82.14496076245493 10.588683058817777  C 81.82754526901084 11.471907454719704  81.37837667804591 12.153166141041025  80.79747163755131 12.632415383737705  C 80.21683356161833 13.111664626434381  79.53484955626043 13.351292980497306  78.75152206795659 13.351292980497306  C 77.9819430158952 13.351292980497306  77.30717904741506 13.111664626434381  76.72714161191062 12.632415383737705  C 76.14717094738168 12.153166141041025  75.69841786998958 11.471907454719704  75.3809356354051 10.588683058817777  C 75.06352014196102 9.705365233626866  74.90482647741077 8.660568281202883  74.90482647741077 7.454226126926431  C 74.90482647741077 6.247883972649979  75.06352014196102 5.20434204800949  75.3809356354051 4.323591494771844  C 75.69841786998958 3.442641547720679  76.14742567954833 2.7632018076462295  76.727997044176 2.2853358978329434  Z M 79.99764246941146 3.553883016438334  C 79.64638978464939 3.1944180612003468  79.23224015369775 3.014710556556181  78.7552493085415 3.014710556556181  C 78.28833619657566 3.014710556556181  77.87926220399194 3.1944180612003468  77.52800951922988 3.553883016438334  C 77.17702379902943 3.913354211438018  76.90725002315205 4.423880287497656  76.71870949386606 5.085370127382825  C 76.53016896458007 5.746666757504014  76.43592802784993 6.536188874848717  76.43592802784993 7.45394088067742  C 76.43592802784993 8.359622847473227  76.53016896458007 9.146198125932143  76.71870949386606 9.81372604950245  C 76.90725002315205 10.481229069738124  77.17702379902943 10.996693638620252  77.52800951922988 11.360103014645357  C 77.87926220399194 11.723450076621726  78.28833619657566 11.905151547257153  78.7552493085415 11.905151547257153  C 79.23224015369775 11.905151547257153  79.64638978464939 11.723450076621726  79.99764246941146 11.360103014645357  C 80.34882841303312 10.996693638620252  80.61864637470798 10.481229069738124  80.80718690399395 9.81372604950245  C 80.99572743327994 9.146198125932143  81.09002947231477 8.359622847473227  81.09002947231477 7.45394088067742  C 81.09002947231477 6.536188874848717  80.99572743327994 5.746666757504014  80.80718690399395 5.085370127382825  C 80.61864637470798 4.423880287497656  80.34882841303312 3.913354211438018  79.99764246941146 3.553883016438334  Z M 97.11514761139316 10  L 97.11514761139316 8.492579522579279  L 113.47871141604273 8.492579522579279  L 113.47871141604273 10  L 97.11514761139316 10  Z M 104.46679360246141 9.013724419523884  L 104.46679360246141 5.779374251228597  L 106.1026245031062 5.779374251228597  L 106.1026245031062 9.013724419523884  L 104.46679360246141 9.013724419523884  Z M 99.17838913320972 6.55398896504511  L 99.17838913320972 5.293314642912446  L 111.56462061992742 5.293314642912446  L 111.56462061992742 6.55398896504511  L 99.17838913320972 6.55398896504511  Z M 99.17838913320972 6.039347682577974  L 99.17838913320972 1  L 111.4354503478535 1  L 111.4354503478535 2.1816774109420463  L 100.8188027067048 2.1816774109420463  L 100.8188027067048 6.039347682577974  L 99.17838913320972 6.039347682577974  Z M 100.72171114458301 11.757622187268236  C 101.82425616695696 11.2273386021966  103.33954260310458 10.962184497273862  105.26766150978067 10.962184497273862  C 107.2044565856987 10.962184497273862  108.72215918837044 11.2273386021966  109.82069974232012 11.757622187268236  C 110.91924029626979 12.287656516144938  111.46850669468039 13.036997632328791  111.46850669468039 14.005590826480631  C 111.46850669468039 14.979231319299556  110.91924029626979 15.730569382075124  109.82069974232012 16.259606686172077  C 108.72215918837044 16.78870633217384  107.2044565856987 17.053218800172775  105.26766150978067 17.053218800172775  C 103.33954260310458 17.053218800172775  101.82425616695696 16.78870633217384  100.72171114458301 16.259606686172077  C 99.61856548178054 15.730569382075124  99.06699963179496 14.979231319299556  99.06699963179496 14.005590826480631  C 99.06699963179496 13.036997632328791  99.61856548178054 12.287656516144938  100.72171114458301 11.757622187268236  Z M 107.70136630481585 12.392009845070538  C 107.02729218374226 12.247568331439332  106.21504522525268 12.175336794321154  105.2646674968518 12.175336794321154  C 104.3269703464469 12.175336794321154  103.51875172446934 12.247568331439332  102.84000584290789 12.392009845070538  C 102.16125996134642 12.536513672750477  101.64205345035485 12.743249345875594  101.28232478993695 13.012192239672048  C 100.92259612951906 13.280885877273565  100.74273033738976 13.610795755535815  100.74273033738976 14.001996723743083  C 100.74273033738976 14.39319769195035  100.92259612951906 14.726341187431744  101.28232478993695 15.00132843253111  C 101.64205345035485 15.276253363581745  102.16125996134642 15.484789305452763  102.84000584290789 15.626987555113649  C 103.51875172446934 15.769123490725805  104.3269703464469 15.84018060162509  105.2646674968518 15.84018060162509  C 106.21504522525268 15.84018060162509  107.02729218374226 15.769123490725805  107.70136630481585 15.626987555113649  C 108.37610783729347 15.484789305452763  108.89333067151114 15.276253363581745  109.25305933192905 15.00132843253111  C 109.61278799234694 14.726341187431744  109.79265378447626 14.39319769195035  109.79265378447626 14.001996723743083  C 109.79265378447626 13.610795755535815  109.61278799234694 13.280885877273565  109.25305933192905 13.012192239672048  C 108.89333067151114 12.743249345875594  108.37610783729347 12.536513672750477  107.70136630481585 12.392009845070538  Z M 118.89164238221338 1.8881019714590754  C 119.62511510385323 1.5535609643500765  120.4610386087005 1.386296770197472  121.39940317050947 1.386296770197472  C 122.33843514372248 1.386296770197472  123.17268525693677 1.5535609643500765  123.90215356982259 1.8881019714590754  C 124.63095447130435 2.222454810754395  125.20327696513127 2.6888368848613706  125.61906722876543 3.287234822862079  C 126.0348574923996 3.8854395510988096  126.24273845253958 4.580303257830519  126.24273845253958 5.371871459890302  C 126.24273845253958 6.150977075051854  126.0348574923996 6.842865083999926  125.61906722876543 7.447494315449752  C 125.20327696513127 8.051936576897294  124.63095447130435 8.521443462378821  123.90215356982259 8.855983243820344  C 123.17268525693677 9.190329843353966  122.33843514372248 9.357503198832935  121.39940317050947 9.357503198832935  C 120.4610386087005 9.357503198832935  119.62511510385323 9.190329843353966  118.89164238221338 8.855983243820344  C 118.15816966057352 8.521443462378821  117.5825615156204 8.051936576897294  117.1647690476092 7.447494315449752  C 116.74630916819396 6.842865083999926  116.53706507172677 6.150977075051854  116.53706507172677 5.371871459890302  C 116.53706507172677 4.580303257830519  116.74630916819396 3.8854395510988096  117.1647690476092 3.287234822862079  C 117.5825615156204 2.6888368848613706  118.15816966057352 2.222454810754395  118.89164238221338 1.8881019714590754  Z M 123.05521452478159 3.0655414381300887  C 122.57468645885413 2.8447228874872916  122.02275486025871 2.734313493777557  121.39940317050947 2.734313493777557  C 120.7767188921643 2.734313493777557  120.22181186791336 2.8447228874872916  119.73460977745076 3.0655414381300887  C 119.24674030541922 3.2861668207930257  118.86265056188662 3.5944228596089274  118.58234251597014 3.990309777426427  C 118.30203447005366 4.3859973014304074  118.16183645522617 4.846498121577046  118.16183645522617 5.371871459890302  C 118.16183645522617 5.889655075205683  118.30203447005366 6.349609693355189  118.58234251597014 6.751721664860106  C 118.86265056188662 7.153640482313204  119.24674030541922 7.465027530481236  119.73460977745076 7.685846081124033  C 120.22181186791336 7.906477703548667  120.7767188921643 8.016788779227554  121.39940317050947 8.016788779227554  C 122.02275486025871 8.016788779227554  122.57468645885413 7.906477703548667  123.05521452478159 7.685846081124033  C 123.53574259070908 7.465027530481236  123.91648555097572 7.153640482313204  124.19746100829622 6.751721664860106  C 124.4777690542127 6.349609693355189  124.61796706904019 5.889655075205683  124.61796706904019 5.371871459890302  C 124.61796706904019 4.846498121577046  124.4777690542127 4.3859973014304074  124.19746100829622 3.990309777426427  C 123.91648555097572 3.5944228596089274  123.53574259070908 3.2861668207930257  123.05521452478159 3.0655414381300887  Z M 128 17.0874483500542  L 128 0.15043887172883677  L 130 0.15043887172883677  L 130 17.0874483500542  L 128 17.0874483500542  Z M 119.41926078304513 13.353346753490191  C 118.12450461783848 13.376901065221634  116.93486148234827 13.388660239117856  115.85033626953245 13.388660239117856  C 115.85033626953245 13.388660239117856  115.62407443533675 12.083259305140137  115.62407443533675 12.083259305140137  C 116.72995645506069 12.083259305140137  117.94494952854163 12.073942021244573  119.26907131816446 12.055248123487177  C 120.59319310778733 12.036554225729777  121.95768192017812 11.986671881948102  123.36255911727537 11.905664990505375  C 124.7667689626388 11.824658099062647  126.12462531080229 11.689326226632092  127.43606646275896 11.499645479661943  C 127.43606646275896 11.499645479661943  127.5701860215112 12.641771460705291  127.5701860215112 12.641771460705291  C 126.2166986074721 12.883421246853377  124.84353267111588 13.056529576741045  123.45066864061056 13.161090781656222  C 122.05780461010522 13.26571430062013  120.71401694825175 13.32979244175875  119.41926078304513 13.353346753490191  Z M 146.33378725132238 9.986357079404407  L 146.33378725132238 0.1650434796782422  L 147.99363135770278 0.1650434796782422  L 147.99363135770278 9.986357079404407  L 146.33378725132238 9.986357079404407  Z M 147.27787896078982 5.7770352319867  L 147.27787896078982 4.472547086005819  L 150.6655740386491 4.472547086005819  L 150.6655740386491 5.7770352319867  L 147.27787896078982 5.7770352319867  Z M 136.61014979293637 16.847613303885055  L 136.61014979293637 10.736212418806693  L 138.2509299802595 10.736212418806693  L 138.2509299802595 12.516776554388311  L 146.34881841827138 12.516776554388311  L 146.34881841827138 10.736212418806693  L 147.99363135770278 10.736212418806693  L 147.99363135770278 16.847613303885055  L 136.61014979293637 16.847613303885055  Z M 146.34881841827138 13.722569498211099  L 138.2509299802595 13.722569498211099  L 138.2509299802595 15.59389899022828  L 146.34881841827138 15.59389899022828  L 146.34881841827138 13.722569498211099  Z M 133.99326028849836 3.1555081050684186  L 133.99326028849836 2  L 144.68298628603327 2  L 144.68298628603327 3.1555081050684186  L 133.99326028849836 3.1555081050684186  Z M 137.06261235902315 4.290274732887262  C 137.71399485038052 4.047447219574922  138.4718237621771 3.926015272899161  139.3361069112117 3.926015272899161  C 140.20039006024624 3.926015272899161  140.95623535493917 4.047447219574922  141.60361343754246 4.290274732887262  C 142.25165893154983 4.532909064291703  142.75753941178212 4.876531793846168  143.12127248095408 5.321097627566197  C 143.485005550126 5.765657221524529  143.666854959359 6.28682799676653  143.666854959359 6.884646416899617  C 143.666854959359 7.48265175132283  143.485005550126 8.007039402280494  143.12127248095408 8.457836529449638  C 142.75753941178212 8.908440474710883  142.25165893154983 9.25518798778382  141.60361343754246 9.49801550109616  C 140.95623535493917 9.740643592738904  140.20039006024624 9.861932665585448  139.3361069112117 9.861932665585448  C 138.4718237621771 9.861932665585448  137.71399485038052 9.740643592738904  137.06261235902315 9.49801550109616  C 136.41056245626172 9.25518798778382  135.90269835892576 8.908440474710883  135.5389652897538 8.457836529449638  C 135.17523222058188 8.007039402280494  134.99338281134885 7.48265175132283  134.99338281134885 6.884646416899617  C 134.99338281134885 6.28682799676653  135.17523222058188 5.765657221524529  135.5389652897538 5.321097627566197  C 135.90269835892576 4.876531793846168  136.41056245626172 4.532909064291703  137.06261235902315 4.290274732887262  Z M 141.3213207899637 5.59299435212427  C 140.81743371275107 5.266044293680625  140.15567421221786 5.102599000823139  139.3361069112117 5.102599000823139  C 138.5105329672393 5.102599000823139  137.8451776199443 5.266044293680625  137.33995571992358 5.59299435212427  C 136.83473381990288 5.919751228660015  136.5821038350925 6.352144875105439  136.5821038350925 6.890180194130447  C 136.5821038350925 7.438335125248572  136.83473381990288 7.874640990853782  137.33995571992358 8.19906113234611  C 137.8451776199443 8.52347503407674  138.51121458015555 8.685691233160284  139.3381232872658 8.685691233160284  C 140.15435359092197 8.685691233160284  140.81506015076357 8.52347503407674  141.3202820507843 8.19906113234611  C 141.825503950805 7.874640990853782  142.07813393561537 7.438335125248572  142.07813393561537 6.890180194130447  C 142.07813393561537 6.352144875105439  141.82587527858036 5.919751228660015  141.3213207899637 5.59299435212427  Z M 138.50823178522793 2.5718942795902233  L 138.50823178522793 0  L 140.16801478930364 0  L 140.16801478930364 2.5718942795902233  L 138.50823178522793 2.5718942795902233  Z M 165 17.065484388880286  L 165 0.15774117570353952  L 167 0.15774117570353952  L 167 17.065484388880286  L 165 17.065484388880286  Z M 153 12.28686807768478  L 153 1.8142231929650123  L 155 1.8142231929650123  L 155 12.28686807768478  L 153 12.28686807768478  Z M 153.5097030141576 12.711029249965364  L 153.5097030141576 11.366207284374209  C 153.5097030141576 11.366207284374209  154.99534444992173 11.366207284374209  154.99534444992173 11.366207284374209  C 156.37619531383513 11.366207284374209  157.78475153798001 11.309392499188831  159.2209965340354 11.195858224464349  C 160.65790900116508 11.082137007593662  162.1395396434617 10.876818902473035  163.66588368730768 10.579897474348213  C 163.66588368730768 10.579897474348213  163.8721039655714 11.903097774264268  163.8721039655714 11.903097774264268  C 162.300376662293 12.207060550615672  160.78639223033275 12.417743471919927  159.33012525017733 12.535203462074474  C 157.87452562175574 12.652414209962123  156.42958727143522 12.711029249965364  154.99534444992173 12.711029249965364  C 154.99534444992173 12.711029249965364  153.5097030141576 12.711029249965364  153.5097030141576 12.711029249965364  Z M 183 17.0874483500542  L 183 0.15043887172883677  L 184 0.15043887172883677  L 184 17.0874483500542  L 183 17.0874483500542  Z M 184.3205401443733 8.128091865591967  L 184.3205401443733 6.8236037196110875  L 187.6662579389238 6.8236037196110875  L 187.6662579389238 8.128091865591967  L 184.3205401443733 8.128091865591967  Z M 171.55852948393058 12.876357975892617  L 171.55852948393058 11.564510476687232  C 171.55852948393058 11.564510476687232  172.9811133412745 11.564510476687232  172.9811133412745 11.564510476687232  C 174.1010107021323 11.564510476687232  175.1241140762525 11.548260751387964  176.0504654117993 11.51573336810621  C 176.97748415875014 11.483019046160262  177.86912777414807 11.424305691608183  178.72540210567453 11.339622333966307  C 179.58234384860503 11.254689720129496  180.46066143324367 11.136150905819202  181.3603167899904 10.98392026144856  C 181.3603167899904 10.98392026144856  181.5505282644304 12.299761208140112  181.5505282644304 12.299761208140112  C 180.6241769288836 12.456914578792528  179.72218273821704 12.577895284844484  178.84455159978245 12.662765584632561  C 177.96692046134785 12.747698198469372  177.05488598055356 12.804611287757561  176.1085126012365 12.833399890791437  C 175.16213922191943 12.862063867468846  174.11969786342425 12.876357975892617  172.9811133412745 12.876357975892617  C 172.9811133412745 12.876357975892617  171.55852948393058 12.876357975892617  171.55852948393058 12.876357975892617  Z M 171 12.152288897401  L 171 1.7963667777768724  L 179.95777448857848 1.7963667777768724  L 179.95777448857848 3.067595211122974  L 173.20737517547025 3.067595211122974  L 173.20737517547025 12.152288897401  L 171 12.152288897401  Z M 190.00580408246137 15.584200617761876  C 189.7842272406247 15.392525849088308  189.67346864735728 15.08671363801156  189.67346864735728 14.666848680939845  C 189.67346864735728 14.240877058516483  189.7842272406247 13.938148362177163  190.00580408246137 13.758624624086194  C 190.22738092429805 13.579100885995224  190.49767551676797 13.48935216501903  190.81669276774664 13.48935216501903  C 191.14905800812534 13.48935216501903  191.4293929503932 13.579100885995224  191.6576437869299 13.758624624086194  C 191.88589462346658 13.938148362177163  192 14.240877058516483  192 14.666848680939845  C 192 15.08671363801156  191.88589462346658 15.392525849088308  191.6576437869299 15.584200617761876  C 191.4293929503932 15.775875386435446  191.14905800812534 15.871671787515995  190.81669276774664 15.871671787515995  C 190.49767551676797 15.871671787515995  190.22738092429805 15.775875386435446  190.00580408246137 15.584200617761876  Z M 0 21  L 0 19.664705259125842  L 18.42023682871401 19.664705259125842  L 18.42023682871401 21  L 0 21  Z M 0 21  L 0 19.664705259125842  L 18.42023682871401 19.664705259125842  L 18.42023682871401 21  L 0 21  Z M 0 21  L 0 19.664705259125842  L 18.42023682871401 19.664705259125842  L 18.42023682871401 21  L 0 21  Z M 18.42023682871401 21  L 18.42023682871401 19.664705259125842  L 36.84047365742802 19.664705259125842  L 36.84047365742802 21  L 18.42023682871401 21  Z M 18.42023682871401 21  L 18.42023682871401 19.664705259125842  L 36.84047365742802 19.664705259125842  L 36.84047365742802 21  L 18.42023682871401 21  Z M 18.42023682871401 21  L 18.42023682871401 19.664705259125842  L 36.84047365742802 19.664705259125842  L 36.84047365742802 21  L 18.42023682871401 21  Z M 36.84047365742802 21  L 36.84047365742802 19.664705259125842  L 55.260741037294366 19.664705259125842  L 55.260741037294366 21  L 36.84047365742802 21  Z M 36.84047365742802 21  L 36.84047365742802 19.664705259125842  L 55.260741037294366 19.664705259125842  L 55.260741037294366 21  L 36.84047365742802 21  Z M 36.84047365742802 21  L 36.84047365742802 19.664705259125842  L 55.260741037294366 19.664705259125842  L 55.260741037294366 21  L 36.84047365742802 21  Z M 55.260741037294366 21  L 55.260741037294366 19.664705259125842  L 73.68094731485604 19.664705259125842  L 73.68094731485604 21  L 55.260741037294366 21  Z M 55.260741037294366 21  L 55.260741037294366 19.664705259125842  L 73.68094731485604 19.664705259125842  L 73.68094731485604 21  L 55.260741037294366 21  Z M 55.260741037294366 21  L 55.260741037294366 19.664705259125842  L 73.68094731485604 19.664705259125842  L 73.68094731485604 21  L 55.260741037294366 21  Z M 73.68094731485604 21  L 73.68094731485604 19.664705259125842  L 92.10121469472239 19.664705259125842  L 92.10121469472239 21  L 73.68094731485604 21  Z M 73.68094731485604 21  L 73.68094731485604 19.664705259125842  L 92.10121469472239 19.664705259125842  L 92.10121469472239 21  L 73.68094731485604 21  Z M 73.68094731485604 21  L 73.68094731485604 19.664705259125842  L 92.10121469472239 19.664705259125842  L 92.10121469472239 21  L 73.68094731485604 21  Z M 92.10121469472239 20.719602937221378  L 92.10121469472239 19.384251147097416  L 96.10561533362336 19.384251147097416  L 96.10561533362336 20.719602937221378  L 92.10121469472239 20.719602937221378  Z M 92.10121469472239 20.719602937221378  L 92.10121469472239 19.384251147097416  L 96.10561533362336 19.384251147097416  L 96.10561533362336 20.719602937221378  L 92.10121469472239 20.719602937221378  Z M 92.10121469472239 20.719602937221378  L 92.10121469472239 19.384251147097416  L 96.10561533362336 19.384251147097416  L 96.10561533362336 20.719602937221378  L 92.10121469472239 20.719602937221378  Z M 96.10561533362336 21  L 96.10561533362336 19.664705259125842  L 114.52588271348971 19.664705259125842  L 114.52588271348971 21  L 96.10561533362336 21  Z M 96.10561533362336 21  L 96.10561533362336 19.664705259125842  L 114.52588271348971 19.664705259125842  L 114.52588271348971 21  L 96.10561533362336 21  Z M 96.10561533362336 21  L 96.10561533362336 19.664705259125842  L 114.52588271348971 19.664705259125842  L 114.52588271348971 21  L 96.10561533362336 21  Z M 114.52588271348971 21  L 114.52588271348971 19.664705259125842  L 132.94608899105137 19.664705259125842  L 132.94608899105137 21  L 114.52588271348971 21  Z M 114.52588271348971 21  L 114.52588271348971 19.664705259125842  L 132.94608899105137 19.664705259125842  L 132.94608899105137 21  L 114.52588271348971 21  Z M 114.52588271348971 21  L 114.52588271348971 19.664705259125842  L 132.94608899105137 19.664705259125842  L 132.94608899105137 21  L 114.52588271348971 21  Z M 132.94608899105137 21  L 132.94608899105137 19.664705259125842  L 151.3663563709177 19.664705259125842  L 151.3663563709177 21  L 132.94608899105137 21  Z M 132.94608899105137 21  L 132.94608899105137 19.664705259125842  L 151.3663563709177 19.664705259125842  L 151.3663563709177 21  L 132.94608899105137 21  Z M 132.94608899105137 21  L 132.94608899105137 19.664705259125842  L 151.3663563709177 19.664705259125842  L 151.3663563709177 21  L 132.94608899105137 21  Z M 151.3663563709177 21  L 151.3663563709177 19.664705259125842  L 169.7865626484794 19.664705259125842  L 169.7865626484794 21  L 151.3663563709177 21  Z M 151.3663563709177 21  L 151.3663563709177 19.664705259125842  L 169.7865626484794 19.664705259125842  L 169.7865626484794 21  L 151.3663563709177 21  Z M 151.3663563709177 21  L 151.3663563709177 19.664705259125842  L 169.7865626484794 19.664705259125842  L 169.7865626484794 21  L 151.3663563709177 21  Z M 169.7865626484794 21  L 169.7865626484794 19.664705259125842  L 188.20683002834573 19.664705259125842  L 188.20683002834573 21  L 169.7865626484794 21  Z M 169.7865626484794 21  L 169.7865626484794 19.664705259125842  L 188.20683002834573 19.664705259125842  L 188.20683002834573 21  L 169.7865626484794 21  Z M 169.7865626484794 21  L 169.7865626484794 19.664705259125842  L 188.20683002834573 19.664705259125842  L 188.20683002834573 21  L 169.7865626484794 21  Z " fill-rule="nonzero" fill="#91929f" stroke="none" transform="matrix(1 0 0 1 469 592 )" />
  </g>
</svg>