<?xml version="1.0" encoding="utf-8"?>
<svg version="1.1" xmlns:xlink="http://www.w3.org/1999/xlink" width="24px" height="15px" xmlns="http://www.w3.org/2000/svg">
  <g transform="matrix(1 0 0 1 -127 -34 )">
    <path d="M 3.1729757404038095 9.031518100236072  L 3.1729757404038095 6.970164016681336  L 4.82983928663746 6.970164016681336  L 4.82983928663746 9.031518100236072  L 3.1729757404038095 9.031518100236072  Z M 9 10.213400590591661  L 9 0.1293975636037607  L 10.272874179297878 0.1293975636037607  L 10.272874179297878 10.213400590591661  L 9 10.213400590591661  Z M 9.670018127573423 6.025854836188957  L 9.670018127573423 4.4407578162914465  L 11.968387646567352 4.4407578162914465  L 11.968387646567352 6.025854836188957  L 9.670018127573423 6.025854836188957  Z M 2.6446578691512728 9.839921281863571  C 1.7618665146863361 9.859597229484363  0.9457326616514269 9.873082543123866  0.19627809398654858 9.880359948343793  C 0.19627809398654858 9.880359948343793  0 8.376664637707385  0 8.376664637707385  C 0.7742275456566368 8.376664637707385  1.6136653678296442 8.370382091778291  2.5183151863037594 8.357848782213157  C 3.4231107174483313 8.34524809000722  4.343340639117869 8.30941602041652  5.279029549445584 8.250320794913344  C 6.214718459773296 8.190956035081626  7.119371665702198 8.098466668632543  7.992982444437404 7.972864040535316  C 7.992982444437404 7.972864040535316  8.119325127284917 9.298148026288732  8.119325127284917 9.298148026288732  C 7.2177354833491485 9.477724738942857  6.300631817643616 9.607948312698761  5.368003081854249 9.688808370279585  C 4.435374346064882 9.769668427860408  3.5275949362866657 9.820043184437708  2.6446578691512728 9.839921281863571  Z M 1.618827327775545 12.341011162017884  L 1.618827327775545 10.848358599360056  L 10.272874179297878 10.848358599360056  L 10.272874179297878 15  L 8.611621325497508 15  L 8.611621325497508 12.341011162017884  L 1.618827327775545 12.341011162017884  Z M 0.3263430163815229 2.67117287555625  L 0.3263430163815229 1.2758383851677593  L 7.653084605904552 1.2758383851677593  L 7.653084605904552 2.67117287555625  L 0.3263430163815229 2.67117287555625  Z M 1.7429953688802762 3.6748599606820593  C 2.309130107864899 3.2811725544882244  3.0585059302346913 3.0843197091459453  3.991134666024058 3.0843197091459453  C 4.934255443691955 3.0843197091459453  5.686554274738635 3.2811725544882244  6.248025895580508 3.6748599606820593  C 6.809497516422381 4.068547366875895  7.090225952614824 4.6068541300160195  7.090225952614824 5.289784738387635  C 7.090225952614824 5.9727153467592515  6.809497516422381 6.512789921937334  6.248025895580508 6.910014970429289  C 5.686554274738635 7.307240018921245  4.934255443691955 7.505860676301481  3.991134666024058 7.505860676301481  C 3.0585059302346913 7.505860676301481  2.309130107864899 7.307240018921245  1.7429953688802762 6.910014970429289  C 1.1770063425661106 6.512789921937334  0.8940045594099115 5.9727153467592515  0.8940045594099115 5.289784738387635  C 0.8940045594099115 4.6068541300160195  1.1770063425661106 4.068547366875895  1.7429953688802762 3.6748599606820593  Z M 5.106138860214229 4.591346351574774  C 4.834947933256509 4.430300066586472  4.463575584643427 4.349763105294761  3.9920151958094787 4.349763105294761  C 3.5206005196459866 4.349763105294761  3.1492148557298636 4.430300066586472  2.8778781900443433 4.591346351574774  C 2.6066872630866236 4.752392636563076  2.47110011190066 4.986713912692888  2.47110011190066 5.294319051105098  C 2.47110011190066 5.588615972052286  2.6066872630866236 5.8199022787652535  2.8778781900443433 5.9881922795357525  C 3.1492148557298636 6.156313818997575  3.5206005196459866 6.240386434487921  3.9920151958094787 6.240386434487921  C 4.463575584643427 6.240386434487921  4.834947933256509 6.156313818997575  5.106138860214229 5.9881922795357525  C 5.3773297871719485 5.8199022787652535  5.512916938357912 5.588615972052286  5.512916938357912 5.294319051105098  C 5.512916938357912 4.986713912692888  5.3773297871719485 4.752392636563076  5.106138860214229 4.591346351574774  Z M 3.1729757404038095 1.9244918690827735  L 3.1729757404038095 0  L 4.82983928663746 0  L 4.82983928663746 1.9244918690827735  L 3.1729757404038095 1.9244918690827735  Z M 22 10.863102827107992  L 22 0.1293975636037607  L 23.655512733494653 0.1293975636037607  L 23.655512733494653 10.863102827107992  L 22 10.863102827107992  Z M 15.168913296166526 14.720044746777656  L 15.168913296166526 13.17307296850452  L 24 13.17307296850452  L 24 14.720044746777656  L 15.168913296166526 14.720044746777656  Z M 15.168913296166526 13.785081802702901  L 15.168913296166526 9.78504684428286  L 16.825776842400177 9.78504684428286  L 16.825776842400177 13.785081802702901  L 15.168913296166526 13.785081802702901  Z M 14.918149086366965 1.5712164707624225  C 15.440770874225993 1.2529984355785722  16.027098543873898 1.0939106545038784  16.677140746349053 1.0939106545038784  C 17.33027225547371 1.0939106545038784  17.91733067729084 1.2529984355785722  18.43832038943431 1.5712164707624225  C 18.959426682137085 1.889434505946273  19.37314357054828 2.329870113564741  19.679453804705833 2.8925213657637796  C 19.985880619422687 3.455172617962819  20.13909035269554 4.103224671660751  20.13909035269554 4.836692768953633  C 20.13909035269554 5.55567346480484  19.985880619422687 6.199188494740557  19.679453804705833 6.767230388326356  C 19.37314357054828 7.335272281912154  18.959426682137085 7.780247805073906  18.43832038943431 8.102138221480098  C 17.91733067729084 8.42389386883935  17.33027225547371 8.584780337739465  16.677140746349053 8.584780337739465  C 16.027098543873898 8.584780337739465  15.440770874225993 8.42389386883935  14.918149086366965 8.102138221480098  C 14.395643879067238 7.780247805073906  13.98115269666416 7.335272281912154  13.674667591667653 6.767230388326356  C 13.368357357510103 6.199188494740557  13.215191140002567 5.55567346480484  13.215191140002567 4.836692768953633  C 13.215191140002567 4.103224671660751  13.368357357510103 3.455172617962819  13.674667591667653 2.8925213657637796  C 13.98115269666416 2.329870113564741  14.395643879067238 1.889434505946273  14.918149086366965 1.5712164707624225  Z M 17.61705292684432 3.007514003931794  C 17.337847203692554 2.839055541852619  17.024544924112675 2.754826318343711  16.677140746349053 2.754826318343711  C 16.32973656858543 2.754826318343711  16.017165041174774 2.839055541852619  15.739416548956957 3.007514003931794  C 15.461842927578093 3.175972466010969  15.243201221901844 3.4144083851304874  15.083488565620314 3.7228558150247175  C 14.923775909338787 4.031134798671632  14.843917757183906 4.40240686513003  14.843917757183906 4.836692768953633  C 14.843917757183906 5.263734972056398  14.923775909338787 5.6315022299809065  15.083488565620314 5.939949659875136  C 15.243201221901844 6.24822864352205  15.461842927578093 6.486586243570928  15.739416548956957 6.655044705650103  C 16.017165041174774 6.823503167729278  16.32973656858543 6.907732391238186  16.677140746349053 6.907732391238186  C 17.024544924112675 6.907732391238186  17.337847203692554 6.823503167729278  17.61705292684432 6.655044705650103  C 17.89625864999608 6.486586243570928  18.1157230642103 6.24822864352205  18.275435720491828 5.939949659875136  C 18.43514837677336 5.6315022299809065  18.51500652892824 5.263734972056398  18.51500652892824 4.836692768953633  C 18.51500652892824 4.40240686513003  18.43514837677336 4.031134798671632  18.275435720491828 3.7228558150247175  C 18.1157230642103 3.4144083851304874  17.89625864999608 3.175972466010969  17.61705292684432 3.007514003931794  Z " fill-rule="nonzero" fill="#ffffff" stroke="none" transform="matrix(1 0 0 1 127 34 )" />
  </g>
</svg>