<?xml version="1.0" encoding="utf-8"?>
<svg version="1.1" xmlns:xlink="http://www.w3.org/1999/xlink" width="216px" height="36px" xmlns="http://www.w3.org/2000/svg">
  <g transform="matrix(1 0 0 1 -72 -300 )">
    <path d="M 3.509241810718449 2.1492655493406696  C 3.509241810718449 2.1492655493406696  3.509241810718449 0.7881208823559268  3.509241810718449 0.7881208823559268  L 5.0702369994992225 0.7881208823559268  C 5.0702369994992225 0.7881208823559268  5.0702369994992225 2.1492655493406696  5.0702369994992225 2.1492655493406696  C 5.0702369994992225 3.107766723725751  4.919431526040652 4.01049317194368  4.617818852805646 4.857393740673441  C 4.316372620424054 5.704128001629293  3.863705050563167 6.443577926572699  3.2598138811513007 7.075759575267234  C 2.6560891525928474 7.7077416665292  1.9044695224952755 8.183411878134232  1.0049579672686957 8.502745941995148  C 1.0049579672686957 8.502745941995148  0 7.0073901876985865  0 7.0073901876985865  C 0.7998062811195804 6.730467669435661  1.458793182816171 6.342779326079977  1.976961121787188 5.844318793206711  C 2.495295501611618 5.345691952559537  2.8802178938565763 4.7763150130952505  3.1317282389938614 4.136149996447025  C 3.3834050547486605 3.495818672024891  3.509241810718449 2.8335053380274897  3.509241810718449 2.1492655493406696  Z M 3.8890031673589456 2.3204174237886894  C 3.8890031673589456 2.3204174237886894  3.8890031673589456 0.7881208823559268  3.8890031673589456 0.7881208823559268  L 5.423284003884873 0.7881208823559268  C 5.423284003884873 0.7881208823559268  5.423284003884873 2.3204174237886894  5.423284003884873 2.3204174237886894  C 5.423284003884873 2.7743042315613295  5.494109200447878 3.2193887721394745  5.635760635317427 3.655645677044737  C 5.777412070186978 4.091736274176091  5.987391166131201 4.499535188805718  6.265700453098691 4.879077038646216  C 6.5441828480782425 5.258452580712803  6.893743702357154 5.596251060340934  7.314383551689246 5.892466678171537  C 7.735176537321554 6.18851595848793  8.22811163217053 6.427029083716335  8.793186008646563 6.607985057202895  C 8.793186008646563 6.607985057202895  7.8044578104317255 8.087596057213046  7.8044578104317255 8.087596057213046  C 6.947571483934547 7.789417876792983  6.228833149257434 7.354601324498269  5.648245366113083 6.783126414845344  C 5.067824023822146 6.211485137937904  4.62947069475991 5.542298046688627  4.333184515767442 4.775563654082369  C 4.037064777628388 4.0086629537022  3.8890031673589456 3.190270130774853  3.8890031673589456 2.3204174237886894  Z M 9.809680065280302 8.749728451207504  L 9.809680065280302 0.010750286775827591  L 11.707442961928619 0.010750286775827591  L 11.707442961928619 8.749728451207504  L 9.809680065280302 8.749728451207504  Z M 11.188909460267755 5.085646996721112  L 11.188909460267755 3.5154351379061812  L 13.719359044060678 3.5154351379061812  L 13.719359044060678 5.085646996721112  L 11.188909460267755 5.085646996721112  Z M 4.316455662266153 9.433574597244922  C 5.059002122837424 9.211570894101364  5.934702218590522 9.100589793825947  6.943559997443199 9.100589793825947  C 7.963117375363289 9.100589793825947  8.839661700080303 9.211570894101364  9.573186423491991 9.433574597244922  C 10.306777699433765 9.655445242273231  10.873383111506852 9.974121822387422  11.27300328475738 10.389588768538916  C 11.672823204890463 10.804856127517537  11.872731349346838 11.30715176167279  11.872731349346838 11.896456161365967  C 11.872731349346838 12.478775158710118  11.672823204890463 12.978463698431108  11.27300328475738 13.395527312225278  C 10.873383111506852 13.812857012509644  10.306777699433765 14.132472612948119  9.573186423491991 14.354343257976428  C 8.839661700080303 14.576346961119988  7.963117375363289 14.687328061395405  6.943559997443199 14.687328061395405  C 5.934702218590522 14.687328061395405  5.059002122837424 14.576346961119988  4.316455662266153 14.354343257976428  C 3.574075642548297 14.132472612948119  3.0029758214433317 13.812857012509644  2.6031559013102483 13.395527312225278  C 2.2035024517946793 12.978463698431108  2.0036754740420353 12.478775158710118  2.0036754740420353 11.896456161365967  C 2.0036754740420353 11.30715176167279  2.2035024517946793 10.804856127517537  2.6031559013102483 10.389588768538916  C 3.0029758214433317 9.974121822387422  3.574075642548297 9.655445242273231  4.316455662266153 9.433574597244922  Z M 8.605728366269567 10.728390299363511  C 8.153775402712258 10.629263683830603  7.599717404631764 10.579713528713112  6.943559997443199 10.579713528713112  C 6.294406916640904 10.579713528713112  5.74295619428954 10.629263683830603  5.289205538553321 10.728390299363511  C 4.8354548828171025 10.827383864216246  4.4888995479401865 10.973358378898121  4.249540248261 11.166289374574912  C 4.010347404317278 11.359220370251704  3.890751867827425 11.602602280470567  3.890751867827425 11.896456161365967  C 3.890751867827425 12.183391139229665  4.010347404317278 12.425055309032677  4.249540248261 12.62144575622532  C 4.4888995479401865 12.817902732475586  4.8354548828171025 12.965699948537381  5.289205538553321 13.064826564070287  C 5.74295619428954 13.163953179603196  6.294406916640904 13.213503334720684  6.943559997443199 13.213503334720684  C 7.599717404631764 13.213503334720684  8.153775402712258 13.163953179603196  8.605728366269567 13.064826564070287  C 9.057814494415249 12.965699948537381  9.402538057217486 12.817902732475586  9.639899917835207 12.62144575622532  C 9.877394943041299 12.425055309032677  9.99614334856738 12.183391139229665  9.99614334856738 11.896456161365967  C 9.99614334856738 11.602602280470567  9.877394943041299 11.359220370251704  9.639899917835207 11.166289374574912  C 9.402538057217486 10.973358378898121  9.057814494415249 10.827383864216246  8.605728366269567 10.728390299363511  Z M 26 14.687145336974286  L 26 0  L 28 0  L 28 14.687145336974286  L 26 14.687145336974286  Z M 23.55123122312941 7.258636266737049  L 23.55123122312941 5.7205839060390415  L 26.10525587990479 5.7205839060390415  L 26.10525587990479 7.258636266737049  L 23.55123122312941 7.258636266737049  Z M 23 13.979605924331787  L 23 0.2764315950826828  L 25 0.2764315950826828  L 25 13.979605924331787  L 23 13.979605924331787  Z M 15.335584975088816 11.298703671745729  L 15.335584975088816 9.728674537351917  C 15.335584975088816 9.728674537351917  16.342988837130413 9.728674537351917  16.342988837130413 9.728674537351917  C 16.981369039648357 9.728674537351917  17.58186710153356 9.719790183203836  18.144477962888832 9.702027225938746  C 18.707088824244103 9.684197739616033  19.25921385230614 9.646108549270403  19.800851618398084 9.587763554599073  C 20.34248938449003 9.529218976472407  20.899275054088648 9.44678813947996  21.471207258045286 9.340476504684851  C 21.471207258045286 9.340476504684851  21.631500991184254 10.889248698088501  21.631500991184254 10.889248698088501  C 21.040393384143197 11.0032110481141  20.46635965606351 11.0911404247288  19.9094082004217 11.153011399973607  C 19.352456744779897 11.214749320820703  18.78462311707446 11.254506581558775  18.205899638167303 11.272269538823865  C 17.627309323848518 11.289899439832473  17.006337013034614 11.298703671745729  16.342988837130413 11.298703671745729  C 16.342988837130413 11.298703671745729  15.335584975088816 11.298703671745729  15.335584975088816 11.298703671745729  Z M 15.335584975088816 10.471236130708869  L 15.335584975088816 1.7293952836796638  L 20.769304034710427 1.7293952836796638  L 20.769304034710427 3.2622095443055965  L 17.211875811082777 3.2622095443055965  L 17.211875811082777 10.471236130708869  L 15.335584975088816 10.471236130708869  Z M 33.71867864111877 9.380706331401191  C 34.46125837795508 9.155176647684158  35.338734854790694 9.04239206569958  36.35110146399516 9.04239206569958  C 37.363601297316194 9.04239206569958  38.237479115742865 9.155176647684158  38.972734919275176 9.380706331401191  C 39.70812388739586 9.606036427945353  40.27562513938418 9.928463379218522  40.67524531263471 10.347988508664184  C 41.07506523276779 10.767247521879346  41.27497718702911 11.274646681235978  41.27497718702911 11.87020475286522  C 41.27497718702911 12.462369872295932  41.07506523276779 12.969849181768925  40.67524531263471 13.392634175557564  C 40.27562513938418 13.81555222746145  39.70812388739586 14.139672085997537  38.972734919275176 14.365002182541696  C 38.237479115742865 14.590598395316354  37.363601297316194 14.703407810453868  36.35110146399516 14.703407810453868  C 35.338734854790694 14.703407810453868  34.46125837795508 14.590598395316354  33.71867864111877 14.365002182541696  C 32.976298621400915 14.139672085997537  32.405198800295956 13.815447273932458  32.005378880162866 13.392329634855699  C 31.60575870691234 12.96941158295181  31.405951790163844 12.461752820491022  31.405951790163844 11.869321584829812  C 31.405951790163844 11.277023407283853  31.60575870691234 10.77055761759395  32.005378880162866 10.349968023226305  C 32.405198800295956 9.929112342368462  32.976298621400915 9.606036427945353  33.71867864111877 9.380706331401191  Z M 38.007970394146895 10.688982732542204  C 37.55601743058959 10.591652371824846  37.003730039355986 10.542985920068219  36.35110146399516 10.542985920068219  C 35.69840627657604 10.542985920068219  35.14517917314216 10.591652371824846  34.691428517405946 10.688982732542204  C 34.237677861669724 10.786246571637014  33.891122526792806 10.93310478967975  33.65176322711362 11.129561765930017  C 33.41260367431699 11.325819169877562  33.293024374144295 11.571623056015186  33.293024374144295 11.867007075495641  C 33.293024374144295 12.170241375074232  33.41260367431699 12.421778581937945  33.65176322711362 12.621628480646438  C 33.891122526792806 12.821544908412555  34.237677861669724 12.971924348580302  34.691428517405946 13.072714168248586  C 35.14517917314216 13.17357050953942  35.69840627657604 13.223979534864833  36.35110146399516 13.223979534864833  C 37.003730039355986 13.223979534864833  37.55601743058959 13.17357050953942  38.007970394146895 13.072714168248586  C 38.460056522292575 12.971924348580302  38.80478008509481 12.821544908412555  39.04214194571254 12.621628480646438  C 39.27963697091863 12.421778581937945  39.39838156663976 12.170241375074232  39.39838156663976 11.867007075495641  C 39.39838156663976 11.571623056015186  39.27963697091863 11.325819169877562  39.04214194571254 11.129561765930017  C 38.80478008509481 10.93310478967975  38.460056522292575 10.786246571637014  38.007970394146895 10.688982732542204  Z M 39.21192209315763 8.702402826137714  L 39.21192209315763 0.010750286775827591  L 41.10968498980595 0.010750286775827591  L 41.10968498980595 8.702402826137714  L 39.21192209315763 8.702402826137714  Z M 40.59115529795003 5.065455948187475  L 40.59115529795003 3.4952136353023584  L 43.121604881742954 3.4952136353023584  L 43.121604881742954 5.065455948187475  L 40.59115529795003 5.065455948187475  Z M 30.06267552441612 7.805286826584373  L 30.06267552441612 0.931833639565928  L 31.94446009913677 0.931833639565928  L 31.94446009913677 2.860794445177598  L 35.1781082399449 2.860794445177598  L 35.1781082399449 0.931833639565928  L 37.05469624072436 0.931833639565928  L 37.05469624072436 7.805286826584373  L 30.06267552441612 7.805286826584373  Z M 35.1781082399449 4.329472433990803  L 31.94446009913677 4.329472433990803  L 31.94446009913677 6.309839710077252  L 35.1781082399449 6.309839710077252  L 35.1781082399449 4.329472433990803  Z M 50.18803108857274 7.029347572303038  L 50.18803108857274 5.491325665675218  L 52.70510063740859 5.491325665675218  L 52.70510063740859 7.029347572303038  L 50.18803108857274 7.029347572303038  Z M 55 14.687145336974286  L 55 0  L 57 0  L 57 14.687145336974286  L 55 14.687145336974286  Z M 52 14.011734968378523  L 52 0.2549919296714006  L 54 0.2549919296714006  L 54 14.011734968378523  L 52 14.011734968378523  Z M 45.92500413081628 1.7234262859231135  C 46.403922477057215 1.297481206507781  46.9606431120949 1.0844998934107544  47.595161660606486 1.0844998934107544  C 48.241132125605176 1.0844998934107544  48.802975698197905 1.297481206507781  49.280695563143496 1.7234262859231135  C 49.75841542808908 2.149371365338446  50.12694443801638 2.7564204952085594  50.38627809854611 3.5446101371448293  C 50.64561175907584 4.33263347130719  50.77527442236655 5.271673305230994  50.77527442236655 6.361733445675014  C 50.77527442236655 7.451627278345126  50.64561175907584 8.392492572061943  50.38627809854611 9.184308032768579  C 50.12694443801638 9.975990435359968  49.75791309935464 10.583903996874652  49.279194499996265 11.008019571815773  C 48.800475900637885 11.43220167581452  48.23812999931071 11.644266006151723  47.592159534312025 11.644266006151723  C 46.95764098580043 11.644266006151723  46.4014226794972 11.43220167581452  45.92350306766905 11.008019571815773  C 45.44578320272346 10.583903996874652  45.07726181240606 9.975990435359968  44.81792815187632 9.184308032768579  C 44.55879423822915 8.392492572061943  44.42922137323149 7.451627278345126  44.42922137323149 6.361733445675014  C 44.42922137323149 5.271673305230994  44.55879423822915 4.33263347130719  44.81792815187632 3.5446101371448293  C 45.07726181240606 2.7564204952085594  45.44628553145791 2.149371365338446  45.92500413081628 1.7234262859231135  Z M 48.377352713293696 3.2697012455714707  C 48.159832034056095 3.0059179931370483  47.89983435131263 2.8740115116385305  47.59735610825321 2.8740115116385305  C 47.301402810967566 2.8740115116385305  47.04456632875696 3.0059179931370483  46.82684591751885 3.2697012455714707  C 46.60932523828125 3.533484498005893  46.44397444298403 3.9232579637393536  46.33078645521214 4.439015724451573  C 46.21759846744026 4.954607177389883  46.160998688157164 5.595343386295922  46.160998688157164 6.361246180552031  C 46.160998688157164 7.117169794606331  46.21759846744026 7.755669056888203  46.33078645521214 8.27671583307109  C 46.44397444298403 8.797629551138728  46.60932523828125 9.190890929857932  46.82684591751885 9.456536966165528  C 47.04456632875696 9.721983415300253  47.301402810967566 9.854723933853759  47.59735610825321 9.854723933853759  C 47.89983435131263 9.854723933853759  48.159832034056095 9.721983415300253  48.377352713293696 9.456536966165528  C 48.5950731245318 9.190890929857932  48.760528972223895 8.797629551138728  48.873716959995775 8.27671583307109  C 48.98690494776766 7.755669056888203  49.04349710744088 7.117169794606331  49.04349710744088 6.361246180552031  C 49.04349710744088 5.595343386295922  48.98690494776766 4.954607177389883  48.873716959995775 4.439015724451573  C 48.760528972223895 3.9232579637393536  48.5950731245318 3.533484498005893  48.377352713293696 3.2697012455714707  Z M 70 14.687145336974286  L 70 0  L 72 0  L 72 14.687145336974286  L 70 14.687145336974286  Z M 63.81902551680357 7.246911449715255  L 63.81902551680357 5.735536854500603  L 67.10680336623076 5.735536854500603  L 67.10680336623076 7.246911449715255  L 63.81902551680357 7.246911449715255  Z M 67 14.011734968378523  L 67 0.33481204763016575  L 69 0.33481204763016575  L 69 14.011734968378523  L 67 14.011734968378523  Z M 63.525899124549156 2.1457937853394107  C 63.525899124549156 2.1457937853394107  63.525899124549156 1.7663360708158646  63.525899124549156 1.7663360708158646  C 63.525899124549156 1.7663360708158646  65.3540568849031 1.7663360708158646  65.3540568849031 1.7663360708158646  C 65.3540568849031 3.126499664687998  65.18553724714006 4.405577631231664  64.8485033886804 5.603579368382584  C 64.51140294792653 6.801547796394238  63.94785752356047 7.903571271089444  63.157871967130696 8.9096732278269  C 62.367886410700926 9.915708566285822  61.29426659103027 10.816269860970824  59.937009531708654 11.611345156280136  C 59.937009531708654 11.611345156280136  58.857394626792214 10.27602554081353  58.857394626792214 10.27602554081353  C 59.983149007856234 9.601964549241695  60.887487050190785 8.858943706127105  61.57041006341632 8.046970327584281  C 62.253532853288505 7.234996949041458  62.75023271999472 6.341367524160229  63.06050097241744 5.366068074998223  C 63.37076922484015 4.390768625836218  63.525899124549156 3.317350683059416  63.525899124549156 2.1457937853394107  Z M 59.620917635262536 3.293638144738044  L 59.620917635262536 1.7663360708158646  L 64.1346221386072 1.7663360708158646  L 64.1346221386072 3.293638144738044  L 59.620917635262536 3.293638144738044  Z M 87.46616476954843 8.581165172725335  L 87.46616476954843 0.010750286775827591  L 89.36402672112524 0.010750286775827591  L 89.36402672112524 8.581165172725335  L 87.46616476954843 8.581165172725335  Z M 88.84539035473094 4.95941487579815  L 88.84539035473094 3.3894466495447118  L 91.37593899345235 3.3894466495447118  L 91.37593899345235 4.95941487579815  L 88.84539035473094 4.95941487579815  Z M 78.31690296158715 7.805500005075678  L 78.31690296158715 0.8467449674649017  L 80.19879421084617 0.8467449674649017  L 80.19879421084617 2.8078957252636814  L 83.43234329672582 2.8078957252636814  L 83.43234329672582 0.8467449674649017  L 85.30893129750527 0.8467449674649017  L 85.30893129750527 7.805500005075678  L 78.31690296158715 7.805500005075678  Z M 83.43234329672582 4.2818422682191475  L 80.19879421084617 4.2818422682191475  L 80.19879421084617 6.3103574292704225  L 83.43234329672582 6.3103574292704225  L 83.43234329672582 4.2818422682191475  Z M 79.91516185250777 14.073922179699316  L 79.91516185250777 9.271924392695084  L 89.46489511677547 9.271924392695084  L 89.46489511677547 10.772487792993534  L 81.81271901968921 10.772487792993534  L 81.81271901968921 14.073922179699316  L 79.91516185250777 14.073922179699316  Z M 79.91516185250777 14.516998446842422  L 79.91516185250777 13.000446659696069  L 89.7472321414335 13.000446659696069  L 89.7472321414335 14.516998446842422  L 79.91516185250777 14.516998446842422  Z M 92.54013918769597 9  L 92.54013918769597 8  L 105.83247243500297 8  L 105.83247243500297 9  L 92.54013918769597 9  Z M 94.18003162702517 15  L 94.18003162702517 13  L 104.34638944080106 13  L 104.34638944080106 15  L 94.18003162702517 15  Z M 94.18003162702517 13.380361185272411  L 94.18003162702517 10.141327188378728  L 96.07789357860199 10.141327188378728  L 96.07789357860199 13.380361185272411  L 94.18003162702517 13.380361185272411  Z M 96.41016952644266 0.8195494827883747  C 97.20075429375599 0.5780530929042651  98.12704109858831 0.45729831792019  99.18901077285844 0.45729831792019  C 100.25098044712858 0.45729831792019  101.17712212220387 0.5780530929042651  101.96744056034046 0.8195494827883747  C 102.75842482141893 1.0608795500284238  103.3733020396073 1.4052425769790071  103.81207191726457 1.85264290572435  C 104.25084179492187 2.299876926695784  104.47022334064297 2.83226106323407  104.47022334064297 3.4498066166543158  C 104.47022334064297 4.071011179022983  104.25084179492187 4.606159855159174  103.81207191726457 5.055223380604818  C 103.3733020396073 5.504286906050462  102.75842482141893 5.849561279973466  101.96744056034046 6.091057669857577  C 101.17712212220387 6.332387737097625  100.25098044712858 6.45306520216427  99.18901077285844 6.45306520216427  C 98.12704109858831 6.45306520216427  97.20075429375599 6.332387737097625  96.41016952644266 6.091057669857577  C 95.61971792371769 5.849561279973466  95.00511572582357 5.504286906050462  94.56634584816629 5.055223380604818  C 94.127575970509 4.606159855159174  93.9081944247879 4.071011179022983  93.9081944247879 3.4498066166543158  C 93.9081944247879 2.83226106323407  94.127575970509 2.299876926695784  94.56634584816629 1.85264290572435  C 95.00511572582357 1.4052425769790071  95.61971792371769 1.0608795500284238  96.41016952644266 0.8195494827883747  Z M 100.97370627843155 2.1412865829518117  C 100.47900819634556 2.026359583895888  99.8841181375712 1.9689165456963322  99.18901077285844 1.9689165456963322  C 98.50455639663075 1.9689165456963322  97.91331464278598 2.026359583895888  97.41528750551893 2.1412865829518117  C 96.91659457507411 2.256213582007735  96.5344485186526 2.422533415609551  96.26885624152584 2.640246068887107  C 96.00306421751651 2.8577923995206023  95.8701677739324 3.1276451124548266  95.8701677739324 3.4498066166543158  C 95.8701677739324 3.768475419679293  96.00306421751651 4.039347228703405  96.26885624152584 4.262382117369986  C 96.5344485186526 4.485250683392508  96.91659457507411 4.654227247994155  97.41528750551893 4.769320569694139  C 97.91331464278598 4.884247568750064  98.50455639663075 4.9417210610198055  99.18901077285844 4.9417210610198055  C 99.8841181375712 4.9417210610198055  100.47900819634556 4.884247568750064  100.97370627843155 4.769320569694139  C 101.46840436051754 4.654227247994155  101.8475916569399 4.485250683392508  102.11125307729938 4.262382117369986  C 102.37558032060073 4.039347228703405  102.50774709724612 3.768475419679293  102.50774709724612 3.4498066166543158  C 102.50774709724612 3.1276451124548266  102.37558032060073 2.8577923995206023  102.11125307729938 2.640246068887107  C 101.8475916569399 2.422533415609551  101.46840436051754 2.256213582007735  100.97370627843155 2.1412865829518117  Z M 121.73404965191787 7.40901846531789  L 121.73404965191787 0  L 123.6416037472677 0  L 123.6416037472677 7.40901846531789  L 121.73404965191787 7.40901846531789  Z M 116.91024226549628 1.6158929640946513  C 116.91024226549628 1.6158929640946513  116.91024226549628 0.6054878234476038  116.91024226549628 0.6054878234476038  C 116.91024226549628 0.6054878234476038  118.97858536862755 0.6054878234476038  118.97858536862755 0.6054878234476038  C 118.97858536862755 1.8836557367220255  118.72225883476128 2.9983443573366393  118.20958386065033 3.949527454344273  C 117.69690888653935 4.900710551351907  116.93987897625462 5.689478701660508  115.93849817771385 6.315839161903989  C 114.93711737917309 6.9420333143735595  113.70104057149473 7.420020563238511  112.23026263525338 7.749799510704606  C 112.23026263525338 7.749799510704606  111.58908770269751 6.217046158219047  111.58908770269751 6.217046158219047  C 112.83149223921569 5.958418833399739  113.84385926511756 5.603243808544778  114.6261880065365 5.151519150534469  C 115.40851674795543 4.699628184750251  115.98476430011166 4.172634805258911  116.35495557555782 3.5705570049437108  C 116.72514685100396 2.968479204628511  116.91024226549628 2.316931027558396  116.91024226549628 1.6158929640946513  Z M 112.41002447164708 2.1223441512958208  L 112.41002447164708 0.6054878234476038  L 117.71721990913755 0.6054878234476038  L 117.71721990913755 2.1223441512958208  L 112.41002447164708 2.1223441512958208  Z M 118.41930600310964 3.366484280624105  L 118.41930600310964 1.914007857150108  L 121.98973328120016 1.914007857150108  L 121.98973328120016 3.366484280624105  L 118.41930600310964 3.366484280624105  Z M 118.31244859409026 6.198834624247532  L 118.31244859409026 4.757078033479174  L 121.92082152940529 4.757078033479174  L 121.92082152940529 6.198834624247532  L 118.31244859409026 6.198834624247532  Z M 113.99699110071896 9.483488818280563  L 113.99699110071896 7.98840715061568  L 123.6416037472677 7.98840715061568  L 123.6416037472677 11.91512450639028  L 115.92152168689131 11.91512450639028  L 115.92152168689131 13.875118009521973  L 114.02394928049011 13.875118009521973  L 114.02394928049011 10.500076135175467  L 121.73904811600207 10.500076135175467  L 121.73904811600207 9.483488818280563  L 113.99699110071896 9.483488818280563  Z M 114.02394928049011 14.554213320610298  L 114.02394928049011 13.053254017399427  L 123.98716829474684 13.053254017399427  L 123.98716829474684 14.554213320610298  L 114.02394928049011 14.554213320610298  Z M 136 14.687145336974286  L 136 0  L 138 0  L 138 14.687145336974286  L 136 14.687145336974286  Z M 131.88401768483234 6.635911439563898  L 131.88401768483234 5.09240780030251  L 134.4267424601491 5.09240780030251  L 134.4267424601491 6.635911439563898  L 131.88401768483234 6.635911439563898  Z M 134 14.001076043813255  L 134 0.2707062298876245  L 135 0.2707062298876245  L 135 14.001076043813255  L 134 14.001076043813255  Z M 128.8179476242127 3.9744693378270006  C 128.8179476242127 3.9744693378270006  128.8179476242127 2.364575825559086  128.8179476242127 2.364575825559086  L 130.25012949809206 2.364575825559086  C 130.25012949809206 2.364575825559086  130.25012949809206 3.9744693378270006  130.25012949809206 3.9744693378270006  C 130.25012949809206 4.790933383149001  130.18554552100898 5.5959347424791135  130.05637805795052 6.389446649544712  C 129.92654478683224 7.18299180626897  129.72945405265884 7.9295033876980785  129.46512680935749 8.628978062918108  C 129.20079956605616 9.328386179340212  128.86090662757195 9.959481295807997  128.44544013618219 10.522307606411598  C 128.02997364479242 11.085133917015197  127.53793436009458 11.544076546543335  126.96933121131902 11.899136119542376  C 126.96933121131902 11.899136119542376  125.8307938631662 10.499862956684161  125.8307938631662 10.499862956684161  C 126.54188074037069 10.052462627938818  127.11548467483031 9.48271836599321  127.5515913202484 8.790628267467948  C 127.98836378860831 8.098604727740613  128.30860194339562 7.335705287714828  128.51234031096757 6.501943984813571  C 128.7160786785395 5.668182681912312  128.8179476242127 4.825694206081424  128.8179476242127 3.9744693378270006  Z M 129.2344355004962 3.9744693378270006  C 129.2344355004962 3.9744693378270006  129.2344355004962 2.364575825559086  129.2344355004962 2.364575825559086  L 130.65658996776764 2.364575825559086  C 130.65658996776764 2.364575825559086  130.65658996776764 3.9744693378270006  130.65658996776764 3.9744693378270006  C 130.65658996776764 4.797586169950208  130.75481059362914 5.607406647964908  130.95122504277916 6.403912332883289  C 131.14830529998898 7.200384708662407  131.4612392253072 7.924203487276543  131.89002193742127 8.575378899389904  C 132.31947047247718 9.226487752705337  132.8844026360781 9.756215187984093  133.5848365247975 10.164563643931013  C 133.5848365247975 10.164563643931013  132.46728358226648 11.54270168207981  132.46728358226648 11.54270168207981  C 131.70692664075952 11.084656882556416  131.08971532176201 10.46593129339705  130.61565742346843 9.686556558284016  C 130.14159952517485 8.90718182317098  129.79305002528758 8.025770131092083  129.57000311980693 7.042321006202479  C 129.34629039138446 6.05870551405836  129.2344355004962 5.036088826591986  129.2344355004962 3.9744693378270006  Z M 126.33813796771177 3.0798505720289517  L 126.33813796771177 1.5417982113309443  L 132.93765733965273 1.5417982113309443  L 132.93765733965273 3.0798505720289517  L 126.33813796771177 3.0798505720289517  Z M 151.06138710482622 8.958369286055081  L 151.06138710482622 0.01598838684790222  L 152.96894120017603 0.01598838684790222  L 152.96894120017603 8.958369286055081  L 151.06138710482622 8.958369286055081  Z M 141.56159276374117 8.284694799459947  L 141.56159276374117 6.746703346902313  C 141.56159276374117 6.746703346902313  142.8139823227873 6.746703346902313  142.8139823227873 6.746703346902313  C 143.7527767767731 6.746703346902313  144.6046733303036 6.736957313946449  145.3696909133471 6.717497893593479  C 146.13537431933247 6.6980384732405085  146.86678989901125 6.656381206781392  147.56389473254956 6.592514389548163  C 148.26166538902976 6.528647572314934  148.97239860918484 6.439989119609312  149.69613588417175 6.32655899460963  C 149.69613588417175 6.32655899460963  149.90988118065007 7.843202143966541  149.90988118065007 7.843202143966541  C 149.164837928693 7.963883809850971  148.43209290567404 8.057935852367391  147.71168468586816 8.125328650174096  C 146.99061064312048 8.192654918923175  146.23492535586752 8.236057571268473  145.44460691773094 8.255550254291485  C 144.65428847959433 8.274976410115645  143.7774118089243 8.284694799459947  142.8139823227873 8.284694799459947  C 142.8139823227873 8.284694799459947  141.56159276374117 8.284694799459947  141.56159276374117 8.284694799459947  Z M 141.53461934475024 2.4105005634002983  L 141.53461934475024 0.8938878681135733  L 148.28096097955446 0.8938878681135733  L 148.28096097955446 5.246566303586475  L 143.42720852628702 5.246566303586475  L 143.42720852628702 7.606391294196468  L 141.56159276374117 7.606391294196468  L 141.56159276374117 3.8262798322995866  L 146.40437297877503 3.8262798322995866  L 146.40437297877503 2.4105005634002983  L 141.53461934475024 2.4105005634002983  Z M 144.39596572699475 9.945507517079658  C 145.28748752597545 9.471496011389188  146.5075654744964 9.2344963404359  148.05624344484255 9.2344963404359  C 149.60492141518873 9.2344963404359  150.8270392166152 9.470692428404384  151.72255589371886 9.943040737394552  C 152.61740680740886 10.415389046384721  153.06482637096184 11.088064110100346  153.06482637096184 11.961110152371866  C 153.06482637096184 12.826106327372372  152.61740680740886 13.498552242054025  151.72255589371886 13.978418215594512  C 150.8270392166152 14.458217660077379  149.60492141518873 14.69810880224142  148.05624344484255 14.69810880224142  C 146.5075654744964 14.69810880224142  145.28748752597545 14.457668029539178  144.39596572699475 13.97680414987463  C 143.504443928014 13.496139857382955  143.0586632353964 12.822575439648915  143.0586632353964 11.956115684861281  C 143.0586632353964 11.089722429390969  143.504443928014 10.419519022770128  144.39596572699475 9.945507517079658  Z M 149.75907386181723 10.854439695865352  C 149.29433730612502 10.760768366401642  148.7267157774041 10.713924616024931  148.05624344484255 10.713924616024931  C 147.38577111228102 10.713924616024931  146.81750010110974 10.760768366401642  146.35143192929792 10.854439695865352  C 145.8853637574861 10.94804449627144  145.53350594799625 11.085963076660509  145.29581117590757 11.26824960155925  C 145.05878222676077 11.450336554155268  144.94024970026007 11.680280174669953  144.94024970026007 11.95803429128303  C 144.94024970026007 12.243306072446426  145.05878222676077 12.477908570893586  145.29581117590757 12.661858307362778  C 145.53350594799625 12.84580804383197  145.8853637574861 12.984615933629003  146.35143192929792 13.078287263092712  C 146.81750010110974 13.171892063498799  147.38577111228102 13.218710980722573  148.05624344484255 13.218710980722573  C 148.7267157774041 13.218710980722573  149.29433730612502 13.171892063498799  149.75907386181723 13.078287263092712  C 150.22314459456763 12.984615933629003  150.5740129560442 12.84580804383197  150.8117077281329 12.661858307362778  C 151.0487366772797 12.477908570893586  151.1672692037804 12.243306072446426  151.1672692037804 11.95803429128303  C 151.1672692037804 11.680280174669953  151.0487366772797 11.450336554155268  150.8117077281329 11.26824960155925  C 150.5740129560442 11.085963076660509  150.22314459456763 10.94804449627144  149.75907386181723 10.854439695865352  Z M 157.02373183940063 2.872519262199393  L 157.02373183940063 1.3452171882772133  L 166.30380710985798 1.3452171882772133  L 166.30380710985798 2.872519262199393  L 157.02373183940063 2.872519262199393  Z M 155.50669798984813 13  L 155.50669798984813 12  L 168.7986197782214 12  L 168.7986197782214 13  L 155.50669798984813 13  Z M 165.5078321828898 3.074338385325199  C 165.5078321828898 3.074338385325199  165.5078321828898 1.3452171882772133  165.5078321828898 1.3452171882772133  L 167.3734479454357 1.3452171882772133  C 167.3734479454357 1.3452171882772133  167.3734479454357 3.074338385325199  167.3734479454357 3.074338385325199  C 167.3734479454357 3.7876841162672954  167.36346198905906 4.50637453652712  167.34348763937007 5.2303647382472676  C 167.32417910146137 5.9543549399674145  167.2692411040305 6.731708999939092  167.1786907167894 7.562476524987564  C 167.0881403295483 8.393077742262129  166.93068391887596 9.333970753941266  166.70630538239365 10.385112020221504  C 166.70630538239365 10.385112020221504  164.82471891753 10.214173324264788  164.82471891753 10.214173324264788  C 165.05242650919337 9.237875909498117  165.21322173767197 8.341509722461907  165.30710118009415 7.525078926798567  C 165.40164643801714 6.708448573702657  165.45856333891552 5.93546621929849  165.4778718768242 5.206153752449015  C 165.49784622651322 4.476841285599539  165.5078321828898 3.766228866937285  165.5078321828898 3.074338385325199  Z M 156.6082802300614 5.709102721578739  L 165.908318878416 5.379802860652326  L 165.908318878416 6.784618664284482  L 156.8539669311753 7.247155082276746  L 156.6082802300614 5.709102721578739  Z M 170.20181665610033 8  L 170.20181665610033 7  L 183.5157133993803 7  L 183.5157133993803 8  L 170.20181665610033 8  Z M 171.71985629415758 10.207168888121897  L 171.71985629415758 9  L 181.9127913072104 9  L 181.9127913072104 12.298328071546763  L 173.62841617801215 12.298328071546763  L 173.62841617801215 13.684018719101807  L 171.74582392464373 13.684018719101807  L 171.74582392464373 11.081444335035378  L 180.0411712920756 11.081444335035378  L 180.0411712920756 10.207168888121897  L 171.71985629415758 10.207168888121897  Z M 171.74582392464373 15  L 171.74582392464373 13.257418103929592  L 182.338239844718 13.257418103929592  L 182.338239844718 15  L 171.74582392464373 15  Z M 171.8477133480185 1.5994173121237654  L 171.8477133480185 1  L 181.86981670746215 1  L 181.86981670746215 3.6591174410459955  L 173.74527051519993 3.6591174410459955  L 173.74527051519993 4.965414327624887  L 171.87465628856987 4.965414327624887  L 171.87465628856987 2.4474108964663124  L 179.99923295927164 2.4474108964663124  L 179.99923295927164 1.5994173121237654  L 171.8477133480185 1.5994173121237654  Z M 171.87465628856987 6  L 171.87465628856987 5  L 182.13650305341756 5  L 182.13650305341756 6  L 171.87465628856987 6  Z M 199.31543167136002 7.894791338862438  L 199.31543167136002 0.010750286775827591  L 201.22399155521458 0.010750286775827591  L 201.22399155521458 7.894791338862438  L 199.31543167136002 7.894791338862438  Z M 191.54041222371683 14.527657371407688  L 191.54041222371683 8.56459815854389  L 193.4120017604121 8.56459815854389  L 193.4120017604121 10.046310489396907  L 199.34139930184617 10.046310489396907  L 199.34139930184617 8.56459815854389  L 201.22399155521458 8.56459815854389  L 201.22399155521458 14.527657371407688  L 191.54041222371683 14.527657371407688  Z M 199.34139930184617 11.509445837436173  L 193.4120017604121 11.509445837436173  L 193.4120017604121 13.005654305697957  L 199.34139930184617 13.005654305697957  L 199.34139930184617 11.509445837436173  Z M 191.22782534781754 1.0775259113380504  C 191.82439258392543 0.784636686908049  192.49917029371267 0.6381954948278837  193.2522033019156 0.6381954948278837  C 194.00923118824147 0.6381954948278837  194.68536876028028 0.784636686908049  195.28060441003265 1.0775259113380504  C 195.875840059785 1.3704151357680516  196.34558091332525 1.775063005823072  196.68980554050054 2.2914860571115327  C 197.03469599061773 2.8079091083999943  197.20714657321452 3.403342627640622  197.20714657321452 4.077769543899542  C 197.20714657321452 4.748537391729436  197.03469599061773 5.34485181874245  196.68980554050054 5.866763442934148  C 196.34558091332525 6.388508759351938  195.875840059785 6.7958437847366735  195.28060441003265 7.088733009166675  C 194.68536876028028 7.381489175481428  194.00923118824147 7.527850247185536  193.2522033019156 7.527850247185536  C 192.49917029371267 7.527850247185536  191.82439258392543 7.381489175481428  191.22782534781754 7.088733009166675  C 190.63059228876784 6.7958437847366735  190.15952199188737 6.388508759351938  189.8146315417702 5.866763442934148  C 189.4704069145949 5.34485181874245  189.298296297561 4.748537391729436  189.298296297561 4.077769543899542  C 189.298296297561 3.403342627640622  189.4704069145949 2.8079091083999943  189.8146315417702 2.2914860571115327  C 190.15952199188737 1.775063005823072  190.63059228876784 1.3704151357680516  191.22782534781754 1.0775259113380504  Z M 194.33382216423166 2.4311788770569187  C 194.02022485662786 2.278996230277817  193.65968003705953 2.202925621009248  193.2522033019156 2.202925621009248  C 192.84872141513054 2.202925621009248  192.4882070740017 2.278996230277817  192.1706149180391 2.4311788770569187  C 191.85368855525425 2.58336152383602  191.6056481090245 2.800250623515364  191.42654477360375 3.0818300865910726  C 191.24810724624282 3.3632432418928726  191.15891359602267 3.695233945946563  191.15891359602267 4.077769543899542  C 191.15891359602267 4.463964180541245  191.24810724624282 4.797747124469591  191.42654477360375 5.079160279771392  C 191.6056481090245 5.360573435073191  191.85368855525425 5.576473862992531  192.1706149180391 5.726826990427271  C 192.4882070740017 5.877180117862011  192.84872141513054 5.9523393801581586  193.2522033019156 5.9523393801581586  C 193.65968003705953 5.9523393801581586  194.02022485662786 5.877180117862011  194.33382216423166 5.726826990427271  C 194.64741947183543 5.576473862992531  194.89542943962567 5.360573435073191  195.07786183022748 5.079160279771392  C 195.26029422082928 4.797747124469591  195.35152773883704 4.463964180541245  195.35152773883704 4.077769543899542  C 195.35152773883704 3.695233945946563  195.26029422082928 3.3632432418928726  195.07786183022748 3.0818300865910726  C 194.89542943962567 2.800250623515364  194.64741947183543 2.58336152383602  194.33382216423166 2.4311788770569187  Z M 204.3299883716287 8.599833517749646  L 204.3299883716287 7.077739089829356  C 204.3299883716287 7.077739089829356  205.42858372476726 7.077739089829356  205.42858372476726 7.077739089829356  C 206.3587226590936 7.077739089829356  207.15837047613886 7.069768894971089  207.82751122234487 7.053802190662782  C 208.4966519685509 7.037835486354475  209.10820560815282 7.003237065922434  209.66216089032037 6.950014719467257  C 210.21611617248794 6.8967923730120795  210.7717118733241 6.820459372485953  211.32899627020097 6.7210001116649245  C 211.32899627020097 6.7210001116649245  211.5217724002773 8.237886893583328  211.5217724002773 8.237886893583328  C 211.08499993191737 8.312331652536983  210.65520291876564 8.375325707123286  210.2324124940719 8.426884853160624  C 209.8096220693781 8.478310944800253  209.36319195383834 8.514682394730034  208.8931289039036 8.535971332568598  C 208.4224000607911 8.557260270407163  207.9057282441265 8.57323111605265  207.34311738277125 8.583875584971931  C 206.77984069847412 8.594520053891213  206.14166801126913 8.599833517749646  205.42858372476726 8.599833517749646  C 205.42858372476726 8.599833517749646  204.3299883716287 8.599833517749646  204.3299883716287 8.599833517749646  Z M 204.30304543107732 2.3680780436305313  L 204.30304543107732 0.8514958024139927  L 210.72979014888858 0.8514958024139927  L 210.72979014888858 5.353612360291953  L 206.21157483649236 5.353612360291953  L 206.21157483649236 8.066430478433443  L 204.3299883716287 8.066430478433443  L 204.3299883716287 3.933051802373387  L 208.84820368402495 3.933051802373387  L 208.84820368402495 2.3680780436305313  L 204.30304543107732 2.3680780436305313  Z M 214.09147059458496 9.060573145600909  L 214.09147059458496 0.01598838684790222  L 216 0.01598838684790222  L 216 9.060573145600909  L 214.09147059458496 9.060573145600909  Z M 211.6076606428947 3.602259692007837  L 211.6076606428947 2.080165264087545  L 214.4649838711202 2.080165264087545  L 214.4649838711202 3.602259692007837  L 211.6076606428947 3.602259692007837  Z M 211.6076606428947 6.701296328254271  L 211.6076606428947 5.184440000406054  L 214.4649838711202 5.184440000406054  L 214.4649838711202 6.701296328254271  L 211.6076606428947 6.701296328254271  Z M 205.99286155436937 11.273548609771696  L 205.99286155436937 10  L 216 10  L 216 14.708280461683703  L 214.09147059458496 14.708280461683703  L 214.09147059458496 11.273548609771696  L 205.99286155436937 11.273548609771696  Z M 20.004691422026628 27.90128820716889  L 20.004691422026628 26.384736420022534  L 25.29489512947481 26.384736420022534  L 25.29489512947481 27.90128820716889  L 20.004691422026628 27.90128820716889  Z M 12.928778800890704 33  L 12.928778800890704 31  L 26.242180269528177 31  L 26.242180269528177 33  L 12.928778800890704 33  Z M 18.59400446763126 32.06219736267752  L 18.59400446763126 28.550020810281293  L 20.486273625552897 28.550020810281293  L 20.486273625552897 32.06219736267752  L 18.59400446763126 32.06219736267752  Z M 20.004691422026628 27.16429970865606  L 20.004691422026628 21.208031753443848  L 25.1835421506236 21.208031753443848  L 25.1835421506236 22.735364281436212  L 21.90225620881795 22.735364281436212  L 21.90225620881795 27.16429970865606  L 20.004691422026628 27.16429970865606  Z M 13.977130446451286 27.046351094823823  L 13.977130446451286 21.218507953588  L 19.098552175349234 21.218507953588  L 19.098552175349234 22.74602320600148  L 15.874992398028102 22.74602320600148  L 15.874992398028102 27.046351094823823  L 13.977130446451286 27.046351094823823  Z M 13.977130446451286 27.90128820716889  L 13.977130446451286 26.341826635129785  C 13.977130446451286 26.341826635129785  14.872975600174799 26.341826635129785  14.872975600174799 26.341826635129785  C 15.420805430333695 26.341826635129785  15.9309848631511 26.33474014363238  16.403511398442525 26.32056969413962  C 16.876104516028132 26.306465772775102  17.34067480945155 26.273251005995487  17.797221862015355 26.22089352241927  C 18.25396866146172 26.16833645538772  18.723199566657616 26.093536110219784  19.204914309726135 25.99653838735547  C 19.204914309726135 25.99653838735547  19.349031611080434 27.555999959394576  19.349031611080434 27.555999959394576  C 18.852136372814527 27.655326162100355  18.367594159196862 27.730670505736626  17.895400535376368 27.78203006831863  C 17.423140329261688 27.833256576502926  16.943583483523724 27.865952178896528  16.45674199309522 27.880122628389284  C 15.970033667255095 27.894226549753803  15.442111407303846 27.90128820716889  14.872975600174799 27.90128820716889  C 14.872975600174799 27.90128820716889  13.977130446451286 27.90128820716889  13.977130446451286 27.90128820716889  Z M 29.306741647390698 25  L 29.306741647390698 24  L 39.44672037174666 24  L 39.44672037174666 25  L 29.306741647390698 25  Z M 27.624606090862155 28.72805530459146  L 27.624606090862155 27  L 40.93800755949963 27  L 40.93800755949963 28.72805530459146  L 27.624606090862155 28.72805530459146  Z M 29.306741647390698 24.806545594818747  L 29.306741647390698 20.485234851637923  L 31.199315589707716 20.485234851637923  L 31.199315589707716 24.806545594818747  L 29.306741647390698 24.806545594818747  Z M 29.18389829683376 34  L 29.18389829683376 32.7990640449096  L 39.5266196009949 32.7990640449096  L 39.5266196009949 34  L 29.18389829683376 34  Z M 29.18389829683376 33.205016800495386  L 29.18389829683376 29.976763544447717  L 31.08695682235176 29.976763544447717  L 31.08695682235176 33.205016800495386  L 29.18389829683376 33.205016800495386  Z M 56.81801366083169 24.47511394897928  C 57.21077597683751 25.352218174544966  57.4071618970966 26.384580937718887  57.4071618970966 27.572171070663593  C 57.4071618970966 28.463578835436355  57.29337018173881 29.27503693349085  57.065795754663796 30.00657807916028  C 56.8382213275888 30.738119224829713  56.494899758123246 31.363801487205482  56.035822608144485 31.883584241033816  C 55.57681204045991 32.40330043606422  55.00008701259367 32.79567814116286  54.30564541129455 33.06072541595184  C 54.30564541129455 33.06072541595184  57.02085529556537 36  57.02085529556537 36  L 54.524061528632025 36  C 54.524061528632025 36  52.374523862572154 33.43494503040331  52.374523862572154 33.43494503040331  C 52.32252397257476 33.43494503040331  52.27245667682404 33.43624856205326  52.22431849292018 33.43884315138718  C 52.176180309016324 33.441437740721106  52.12740234947959 33.44271081830087  52.07799912430928 33.44271081830087  C 51.17029809571839 33.44271081830087  50.38161602833267 33.303044050860834  49.711942623773155 33.02369326660508  C 49.04220266668355 32.74434248234933  48.48758117464082 32.34479816723599  48.0480788917475 31.825081972205588  C 47.60851002655998 31.305299218377254  47.2801272975549 30.6842069553924  47.06293952978823 29.961780141915966  C 46.84581834431574 29.239286829122214  46.73726216410749 28.43757189222558  46.73726216410749 27.556609040798303  C 46.73726216410749 26.384586528895838  46.930349388568644 25.360014416512705  47.3165201467424 24.48291019094702  C 47.70275748721034 23.605872464698656  48.29316453660355 22.924362716858358  49.08774418203982 22.438376188977657  C 49.88225727494601 21.952389661096955  50.8855302964508 21.709397110923874  52.097573902102404 21.709397110923874  C 53.28092098542157 21.709397110923874  54.26532428116035 21.951086113879825  55.05078230111371 22.434478067993787  C 55.83624032106708 22.917870022107753  56.425317927120055 23.598076222730917  56.81801366083169 24.47511394897928  Z M 49.06237850073452 25.287933082256444  C 48.82308578334951 25.924605397730154  48.70343391829831 26.686019012222232  48.70343391829831 27.572171070663593  C 48.70343391829831 28.4532004808888  48.82241345695157 29.21395951131369  49.06037454333491 29.854490452648996  C 49.298402212012434 30.495087893301626  49.66643649793311 30.988863703919183  50.16446363520017 31.33580688058959  C 50.66255735476142 31.682750057259994  51.300397696013405 31.856236486006356  52.07799912430928 31.856236486006356  C 52.86345714426263 31.856236486006356  53.503939109016436 31.682750057259994  53.999436148868554 31.33580688058959  C 54.49486660642648 30.988863703919183  54.85896232790353 30.495087893301626  55.0917300846327 29.854490452648996  C 55.32449784136188 29.21395951131369  55.4408834683674 28.4532004808888  55.4408834683674 27.572171070663593  C 55.4408834683674 26.239017857822635  55.174960690661905 25.193680649578972  54.643110313466515 24.43619364728096  C 54.11125993627113 23.67864008618502  53.26274428698583 23.299860926412816  52.097573902102404 23.299860926412816  C 51.31471256185818 23.299860926412816  50.672941275772445 23.472043837682346  50.17225087650207 23.816392410845708  C 49.67162708928998 24.16067445495145  49.301671218119516 24.65119426746541  49.06237850073452 25.287933082256444  Z M 60 21.88871067618187  C 60 21.88871067618187  63.06389169881601 21.88871067618187  63.06389169881601 21.88871067618187  C 64.04962586657189 21.88871067618187  64.86368540184694 22.008946289568087  65.50606048248781 22.249378229400357  C 66.14850217518696 22.48974364017501  66.62705430392782 22.854189579917826  66.94171689847448 23.342770711305565  C 67.25644607531534 23.831285313635682  67.41381268769462 24.45107968006096  67.41381268769462 25.20211351247094  C 67.41381268769462 25.763476183806812  67.30977960911171 26.242294674138275  67.10171346682796 26.638601549097036  C 66.8936473245442 27.034908424055796  66.62055980682949 27.3629885459387  66.28246063166284 27.622846643453897  C 65.94436145649618 27.8827047409691  65.5815302479728 28.08933145841211  65.19396126162114 28.242678333959333  C 65.19396126162114 28.242678333959333  68.43589953798354 33.28684688708646  68.43589953798354 33.28684688708646  L 66.3214120773921 33.28684688708646  L 63.563250452202674 28.722177669045465  L 61.73360686792125 28.722177669045465  L 61.73360686792125 33.28684688708646  L 60 33.28684688708646  L 60 21.88871067618187  Z M 64.87796842010351 23.865088469073893  C 64.45923945582688 23.589596310679735  63.81292982889601 23.451857190713536  62.93905201046934 23.451857190713536  C 62.93905201046934 23.451857190713536  61.73360686792125 23.451857190713536  61.73360686792125 23.451857190713536  L 61.73360686792125 27.17849130536296  C 61.73360686792125 27.17849130536296  63.028841493347585 27.17849130536296  63.028841493347585 27.17849130536296  C 63.89492933217505 27.17849130536296  64.52432318704965 27.01673103195203  64.91701892076128 26.693205696941394  C 65.30971465447291 26.36961383287314  65.50606048248781 25.893372012646054  65.50606048248781 25.264483448212854  C 65.50606048248781 24.607054423644033  65.29669738438018 24.14058062746805  64.87796842010351 23.865088469073893  Z M 70.78268604512192 22.76697560628978  L 70.78268604512192 21.2396735323676  L 80.06276893518915 21.2396735323676  L 80.06276893518915 22.76697560628978  L 70.78268604512192 22.76697560628978  Z M 69.25444374942941 32.880985493711236  L 69.25444374942941 31  L 82.54688367127478 31  L 82.54688367127478 32.880985493711236  L 69.25444374942941 32.880985493711236  Z M 79.29855254221934 22.564212406988194  C 79.29855254221934 22.564212406988194  79.29855254221934 21.2396735323676  79.29855254221934 21.2396735323676  L 81.17483575860342 21.2396735323676  C 81.17483575860342 21.2396735323676  81.17483575860342 22.564212406988194  81.17483575860342 22.564212406988194  C 81.17483575860342 23.1533172492488  81.16684394677434 23.786809493612257  81.15086446590696 24.464729111045692  C 81.13488498503962 25.142648728479124  81.08155144938297 25.894374439296158  80.9908678975535 26.719853008354566  C 80.9003175103124 27.545265078095653  80.74485523488629 28.48518861538032  80.52447157652692 29.539656275061162  C 80.52447157652692 29.539656275061162  78.64288511166326 29.331594067547126  78.64288511166326 29.331594067547126  C 78.96979863999135 27.861792490089737  79.16078667309088 26.579381111433978  79.21584929653362 25.484331380889056  C 79.27097850227057 24.38914853274828  79.29855254221934 23.415769950271038  79.29855254221934 22.564212406988194  Z M 70.34554140644171 25.08245947070826  L 79.65609511643682 24.769117542559563  L 79.65609511643682 26.211087311819227  L 70.60171269075659 26.700575581926525  L 70.34554140644171 25.08245947070826  Z M 74.09323128888381 31.903531657005956  L 74.09323128888381 27.746611984691754  L 75.99648792425883 27.746611984691754  L 75.99648792425883 31.903531657005956  L 74.09323128888381 31.903531657005956  Z M 85.55281977068643 28  L 85.55281977068643 26.81255519800221  L 95.82082318032074 26.81255519800221  L 95.82082318032074 28  L 85.55281977068643 28  Z M 83.96624936132852 32.826807702849486  L 83.96624936132852 31  L 97.2794603397189 31  L 97.2794603397189 32.826807702849486  L 83.96624936132852 32.826807702849486  Z M 85.55281977068643 27.453217472515203  L 85.55281977068643 21  L 95.69868083387317 21  L 95.69868083387317 22.751809479336913  L 87.4397856801285 22.751809479336913  L 87.4397856801285 27.453217472515203  L 85.55281977068643 27.453217472515203  Z M 98.66267860048086 28  L 98.66267860048086 26  L 111.97558479447584 26  L 111.97558479447584 28  L 98.66267860048086 28  Z M 100.17972768925313 30.16554832553371  L 100.17972768925313 28.868357205940573  L 110.37264746308617 28.868357205940573  L 110.37264746308617 32.25679887116913  L 102.08828757310769 32.25679887116913  L 102.08828757310769 33.64239815651362  L 100.20569531973929 33.64239815651362  L 100.20569531973929 31.039732410236628  L 108.50104268717114 31.039732410236628  L 108.50104268717114 30.16554832553371  L 100.17972768925313 30.16554832553371  Z M 100.20569531973929 34  L 100.20569531973929 33  L 110.79809600059376 33  L 110.79809600059376 34  L 100.20569531973929 34  Z M 100.30756950389426 21.557796749535576  L 100.30756950389426 20  L 110.32970334177746 20  L 110.32970334177746 23.617496878457807  L 102.20512667107569 23.617496878457807  L 102.20512667107569 24.9237937650367  L 100.3345276836654 24.9237937650367  L 100.3345276836654 22.405729425737746  L 108.45910435436718 22.405729425737746  L 108.45910435436718 21.557796749535576  L 100.30756950389426 21.557796749535576  Z M 100.3345276836654 25.820909764590038  L 100.3345276836654 24  L 110.59635920929333 24  L 110.59635920929333 25.820909764590038  L 100.3345276836654 25.820909764590038  Z M 121.1008600705209 22.264331177861923  C 121.1008600705209 22.264331177861923  121.1008600705209 22.072927346739892  121.1008600705209 22.072927346739892  L 122.52802824109631 22.072927346739892  C 122.52802824109631 22.072927346739892  122.52802824109631 22.264331177861923  122.52802824109631 22.264331177861923  C 122.52802824109631 22.82828845270483  122.37023186486107 23.346215233189355  122.05463711819581 23.818097838776154  C 121.73837657835278 24.289780886930384  121.27597805233106 24.68611884050569  120.66742618185441 25.00711610106691  C 120.05820848843591 25.328113361628127  119.31116449360215 25.550550678388205  118.42630080498357 25.674425686993064  C 118.42630080498357 25.674425686993064  117.80010602546051 24.317757768325738  117.80010602546051 24.317757768325738  C 118.503868969361 24.233001183882152  119.09976371536835 24.09062239078409  119.58780365732808 23.890639433960352  C 120.07517780611008 23.690723006194233  120.44937211504285 23.449318409755072  120.71037030316312 23.166441644925847  C 120.97070266834153 22.883365292923745  121.1008600705209 22.582667335598778  121.1008600705209 22.264331177861923  Z M 121.5662658422625 22.264331177861923  C 121.5662658422625 22.264331177861923  121.5662658422625 22.072927346739892  121.5662658422625 22.072927346739892  L 122.98845078797349 22.072927346739892  C 122.98845078797349 22.072927346739892  122.98845078797349 22.264331177861923  122.98845078797349 22.264331177861923  C 122.98845078797349 22.568563413304876  123.11761874213963 22.854204687991704  123.37595366825659 23.12124780476911  C 123.63428859437352 23.388357450604133  124.0064735288403 23.614804697016897  124.49251606150266 23.800617202489114  C 124.9792243873428 23.98623013565861  125.55981547430235 24.11969973030304  126.23428268498685 24.20099686323077  C 126.23428268498685 24.20099686323077  125.61008424325351 25.562963790110548  125.61008424325351 25.562963790110548  C 124.74586070866322 25.442548233021537  124.01180148152379 25.22805627610802  123.40791031211191 24.919499741140402  C 122.80468496564191 24.61081014805754  122.34693940201866 24.226792025744473  122.03467374029857 23.76748317412622  C 121.72240807857851 23.308041294133023  121.5662658422625 22.806999511148728  121.5662658422625 22.264331177861923  Z M 118.16363761304716 22.39327371103148  L 118.16363761304716 21.031611324853568  L 125.91468576799389 21.031611324853568  L 125.91468576799389 22.39327371103148  L 118.16363761304716 22.39327371103148  Z M 121.09587684565646 27.101046604878743  L 121.09587684565646 25.116598483387303  L 122.99843247692209 25.116598483387303  L 122.99843247692209 27.101046604878743  L 121.09587684565646 27.101046604878743  Z M 121.09587684565646 21.75340324234334  L 121.09587684565646 19.921225471784304  L 122.98845078797349 19.921225471784304  L 122.98845078797349 21.75340324234334  L 121.09587684565646 21.75340324234334  Z M 119.31416822715806 30.041813438366038  L 119.31416822715806 28.65898547340852  L 129.09859309547642 28.65898547340852  L 129.09859309547642 32.21388908627638  L 121.21672385842369 32.21388908627638  L 121.21672385842369 33.75985950522287  L 119.34013585764424 33.75985950522287  L 119.34013585764424 30.90561268513537  L 127.22699593917123 30.90561268513537  L 127.22699593917123 30.041813438366038  L 119.31416822715806 30.041813438366038  Z M 119.34013585764424 34  L 119.34013585764424 33  L 129.62492526785397 33  L 129.62492526785397 34  L 119.34013585764424 34  Z M 127.20102830868507 28.090194804535624  L 127.20102830868507 19.96912972418764  L 129.09859309547642 19.96912972418764  L 129.09859309547642 28.090194804535624  L 127.20102830868507 28.090194804535624  Z M 128.40947557752764 24.72967952166807  L 128.40947557752764 23.186419514968172  L 131.0351017083871 23.186419514968172  L 131.0351017083871 24.72967952166807  L 128.40947557752764 24.72967952166807  Z M 120.45169978680613 27.826736643352383  C 119.45964039039494 27.844366544360994  118.53716219994082 27.85317077627425  117.68425747677747 27.85317077627425  C 117.68425747677747 27.85317077627425  117.47153320802367 26.432945213127734  117.47153320802367 26.432945213127734  C 118.34507814474352 26.432945213127734  119.29119176977716 26.42679771407308  120.30988360763693 26.41449004659473  C 121.32924132796678 26.40198279566104  122.36423901192285 26.36918223416214  123.41488987476608 26.31609294582221  C 124.46620650102294 26.26287059936703  125.47490998277546 26.176034840606253  126.4410027011517 26.05561928351724  C 126.4410027011517 26.05561928351724  126.57384297987704 27.331979819102823  126.57384297987704 27.331979819102823  C 125.56913312615521 27.491513792918035  124.54577546780524 27.609426762997227  123.50378024367794 27.68573429838898  C 122.46178501955065 27.761908783100562  121.4444250061592 27.808907157029672  120.45169978680613 27.826736643352383  Z M 138.77217549880578 23.45904435127755  L 138.77217549880578 21.93701083149763  L 143.15555419468694 21.93701083149763  L 143.15555419468694 23.45904435127755  L 138.77217549880578 23.45904435127755  Z M 138.77217549880578 26.758468769351026  L 138.77217549880578 25.231136241358655  L 143.15555419468694 25.231136241358655  L 143.15555419468694 26.758468769351026  L 138.77217549880578 26.758468769351026  Z M 134.29891588472773 21.230202316539607  C 134.88150107716945 20.921379665341494  135.53500793162587 20.76696545493305  136.25941102955463 20.76696545493305  C 136.99113806078742 20.76696545493305  137.6466238112703 20.921379665341494  138.22587994853095 21.230202316539607  C 138.80447026284972 21.539091496795344  139.2635452400491 21.96061874343334  139.60310919592374 22.494838035103392  C 139.9420073288565 23.02905732677344  140.11145908897404 23.64403254477383  140.11145908897404 24.33971515293019  C 140.11145908897404 25.03180525145545  139.9420073288565 25.645057137863038  139.60310919592374 26.17947598696566  C 139.2635452400491 26.713628719837782  138.80447026284972 27.134247459702287  138.22587994853095 27.441340385142475  C 137.6466238112703 27.74836678152504  136.99113806078742 27.90186683450243  136.25941102955463 27.90186683450243  C 135.53500793162587 27.90186683450243  134.88150107716945 27.74836678152504  134.29891588472773 27.441340385142475  C 133.716330692286 27.134247459702287  133.25524634062063 26.713628719837782  132.915682384746 26.17947598696566  C 132.57611842887138 25.645057137863038  132.40635718163048 25.03180525145545  132.40635718163048 24.33971515293019  C 132.40635718163048 23.64403254477383  132.57611842887138 23.02905732677344  132.915682384746 22.494838035103392  C 133.25524634062063 21.96061874343334  133.716330692286 21.539091496795344  134.29891588472773 21.230202316539607  Z M 137.31704335995448 22.610898496584067  C 137.0087725465932 22.45336034988713  136.65623477621347 22.374605366007167  136.25941102955463 22.374605366007167  C 135.8699112161998 22.374605366007167  135.52068175542266 22.45336034988713  135.21174514888367 22.610898496584067  C 134.90414015846426 22.768170527050508  134.6607984220564 22.993789342455386  134.48169508663568 23.28770975240841  C 134.30259175121495 23.58156363330381  134.21302764211032 23.932231574732388  134.21302764211032 24.33971515293019  C 134.21302764211032 24.740080240923415  134.30259175121495 25.087177293921116  134.48169508663568 25.381031174816513  C 134.6607984220564 25.67495158476954  134.90414015846426 25.901583890217204  135.21174514888367 26.06091829172969  C 135.52068175542266 26.220053106069305  135.8699112161998 26.299617293851323  136.25941102955463 26.299617293851323  C 136.65623477621347 26.299617293851323  137.0087725465932 26.220053106069305  137.31704335995448 26.06091829172969  C 137.6253141733157 25.901583890217204  137.86701696437794 25.67495158476954  138.0421254365578 25.381031174816513  C 138.21723390873765 25.087177293921116  138.3047886284942 24.740080240923415  138.3047886284942 24.33971515293019  C 138.3047886284942 23.932231574732388  138.21723390873765 23.58156363330381  138.0421254365578 23.28770975240841  C 137.86701696437794 22.993789342455386  137.6253141733157 22.768170527050508  137.31704335995448 22.610898496584067  Z M 142.55131913085086 28.592138789349196  L 142.55131913085086 19.96912972418764  L 144.45987901470542 19.96912972418764  L 144.45987901470542 28.592138789349196  L 142.55131913085086 28.592138789349196  Z M 136.8606287278765 29.243977707620623  C 137.60700362571728 29.01498857238774  138.4931862211843 28.900486249987313  139.51920205187628 28.900486249987313  C 140.54654940939557 28.900486249987313  141.43208261170454 29.01498857238774  142.1757942773061 29.243977707620623  C 142.92017170632133 29.472900313795883  143.49576980579133 29.800405986857797  143.90258074775747 30.226517374047038  C 144.30939168972364 30.652429203803713  144.51278958574298 31.167099956444336  144.51278958574298 31.770508278431414  C 144.51278958574298 32.37391660041849  144.30939168972364 32.89126891721188  143.90258074775747 33.3225695114152  C 143.49576980579133 33.753936604935845  142.92017170632133 34.08233160227587  142.1757942773061 34.307728227877654  C 141.43208261170454 34.53312485347944  140.54654940939557 34.645798861017774  139.51920205187628 34.645798861017774  C 138.4931862211843 34.645798861017774  137.60700362571728 34.53312485347944  136.8606287278765 34.307728227877654  C 136.11491965297756 34.08233160227587  135.53867210082134 33.753936604935845  135.13186115885517 33.3225695114152  C 134.72505021688903 32.89126891721188  134.52162184243014 32.37391660041849  134.52162184243014 31.770508278431414  C 134.52162184243014 31.167099956444336  134.72505021688903 30.652429203803713  135.13186115885517 30.226517374047038  C 135.53867210082134 29.800405986857797  136.11491965297756 29.472900313795883  136.8606287278765 29.243977707620623  Z M 141.22501935592567 30.533585763737324  C 140.7622802392949 30.427473716115088  140.19366926256077 30.374432792942777  139.51920205187628 30.374432792942777  C 138.85272459743766 30.374432792942777  138.28547351271916 30.427473716115088  137.81740790184588 30.533585763737324  C 137.34934229097257 30.639697811359557  136.99479514612685 30.795390720962043  136.7537713188571 31.00062938411719  C 136.5127474915874 31.205868047272332  136.39223606906017 31.462483946184484  136.39223606906017 31.770508278431414  C 136.39223606906017 32.075073159162486  136.5127474915874 32.332603215505685  136.7537713188571 32.54309758499223  C 136.99479514612685 32.753725012594025  137.34934229097257 32.91209948634928  137.81740790184588 33.01821153397152  C 138.28547351271916 33.124124001855954  138.85272459743766 33.177090418134384  139.51920205187628 33.177090418134384  C 140.19366926256077 33.177090418134384  140.7622802392949 33.124124001855954  141.22501935592567 33.01821153397152  C 141.68775847255642 32.91209948634928  142.03964676048582 32.753725012594025  142.28067058775554 32.54309758499223  C 142.52169441502525 32.332603215505685  142.64220583755247 32.075073159162486  142.64220583755247 31.770508278431414  C 142.64220583755247 31.462483946184484  142.52169441502525 31.205868047272332  142.28067058775554 31.00062938411719  C 142.03964676048582 30.795390720962043  141.68775847255642 30.639697811359557  141.22501935592567 30.533585763737324  Z M 146.90074484508696 23.772203555005127  L 146.90074484508696 22.255560405648218  L 154.00462905410868 22.255560405648218  L 154.00462905410868 23.772203555005127  L 146.90074484508696 23.772203555005127  Z M 148.8242696427546 24.96192226091017  C 149.30898052953324 24.66740311917883  149.85727962051027 24.5201250647149  150.46916054616798 24.5201250647149  C 151.09435769255 24.5201250647149  151.6466450837836 24.666593915276778  152.12602947631973 24.95951638936544  C 152.60541386885586 25.252372334396476  152.98358126858955 25.65800886134135  153.26055890967334 26.176461034017198  C 153.53820237369897 26.694647090462546  153.67704678595683 27.293546544605064  153.67704678595683 27.973129358738795  C 153.67704678595683 28.652778731670455  153.53820237369897 29.251857638800768  153.26055890967334 29.77037631079394  C 152.98358126858955 30.28896154158503  152.60541386885586 30.694733476129084  152.12602947631973 30.987655950217746  C 151.6466450837836 31.280511895248782  151.09401772698712 31.42692545858754  150.46815475766326 31.42692545858754  C 149.85427642270818 31.42692545858754  149.3053278492808 31.280771498352944  148.82128275567987 30.988447756042593  C 148.33790348502083 30.695857927242056  147.95772671082113 30.289931372863137  147.68074906973735 29.770680851495804  C 147.40443722183133 29.251230772695894  147.26627277046333 28.651317828510596  147.26627277046333 27.970936665685368  C 147.26627277046333 27.29281743133876  147.40474673871879 26.695406598318428  147.68172437980255 26.17868418114081  C 147.95870202088634 25.66196176396319  148.33955875597593 25.256374873583884  148.8242696427546 24.96192226091017  Z M 151.26013700905196 26.329370920423518  C 151.0337610335082 26.177155009115598  150.77177683512835 26.101026302165284  150.47415901025218 26.101026302165284  C 150.18319929573818 26.101026302165284  149.92186456492664 26.177155009115598  149.69016211002236 26.329370920423518  C 149.45845965511813 26.48158683173143  149.2773525408824 26.696622768525593  149.14685344682226 26.974509943253917  C 149.0156885447023 27.252463647039864  148.950115119606 27.584608970928418  148.950115119606 27.970936665685368  C 148.950115119606 28.357131302327073  149.0156885447023 28.691933357215458  149.14685344682226 28.97534235450568  C 149.2773525408824 29.258618293680655  149.45845965511813 29.4745932210588  149.69016211002236 29.62328315179324  C 149.92186456492664 29.771773495354804  150.18319929573818 29.846024221137156  150.47415901025218 29.846024221137156  C 150.77177683512835 29.846024221137156  151.0337610335082 29.771773495354804  151.26013700905196 29.62328315179324  C 151.48651298459572 29.4745932210588  151.66527072903847 29.258618293680655  151.79643563115837 28.97534235450568  C 151.92760053327834 28.691933357215458  151.99320443681415 28.357131302327073  151.99320443681415 27.970936665685368  C 151.99320443681415 27.584608970928418  151.92760053327834 27.252463647039864  151.79643563115837 26.974509943253917  C 151.66527072903847 26.696622768525593  151.48651298459572 26.48158683173143  151.26013700905196 26.329370920423518  Z M 157 34.6455247743861  L 157 19.958348983341622  L 159 19.958348983341622  L 159 34.6455247743861  L 157 34.6455247743861  Z M 155.7603700421209 27.526063608401262  L 155.7603700421209 25.98807215584363  L 158.2771271869515 25.98807215584363  L 158.2771271869515 27.526063608401262  L 155.7603700421209 27.526063608401262  Z M 154 34.00215208762651  L 154 20.245256778568454  L 156 20.245256778568454  L 156 34.00215208762651  L 154 34.00215208762651  Z M 149.53834900268478 23.20636693094032  L 149.53834900268478 20.36280948948827  L 151.41493700346425 20.36280948948827  L 151.41493700346425 23.20636693094032  L 149.53834900268478 23.20636693094032  Z M 167.1807022937989 22.029317118232854  C 167.1807022937989 22.029317118232854  167.1807022937989 21.546315565075272  167.1807022937989 21.546315565075272  L 168.83257275986645 21.546315565075272  C 168.83257275986645 21.546315565075272  168.83257275986645 22.029317118232854  168.83257275986645 22.029317118232854  C 168.83257275986645 22.547237058447703  168.74501804010987 23.041377425698414  168.56990956793 23.51172989270016  C 168.39413528769037 23.981882772529033  168.1367888273713 24.419386480153463  167.79789069443856 24.824208955526906  C 167.45899256150577 25.2288983727851  167.0518567741401 25.58922941447609  166.5764672299628 25.9052370849364  C 166.10041189260772 26.221244755396715  165.56311870306268 26.488413093719547  164.96455399812925 26.70675775817438  C 164.36532347025397 26.925168951686835  163.71181667532574 27.085785948373058  163.00405885330233 27.188571602594685  C 163.00405885330233 27.188571602594685  162.30396909711996 25.703874772863394  162.30396909711996 25.703874772863394  C 162.9158500227777 25.625704453598466  163.47577395966925 25.499710716073533  163.98378829224364 25.325939761849174  C 164.49180262481804 25.15196922045194  164.94358093263 24.944409133342194  165.33907306316925 24.703245388746208  C 165.73456519370848 24.462081644150217  166.07043938326066 24.197050890099508  166.3467512311667 23.90812007024739  C 166.62306307907272 23.619056222020323  166.83112922135646 23.314188049680105  166.97094967290002 22.993523434407006  C 167.11077012444358 22.672925318451234  167.1807022937989 22.3515119018313  167.1807022937989 22.029317118232854  Z M 167.7159951274006 22.029317118232854  C 167.7159951274006 22.029317118232854  167.7159951274006 21.546315565075272  167.7159951274006 21.546315565075272  L 169.36289760782347 21.546315565075272  C 169.36289760782347 21.546315565075272  169.36289760782347 22.029317118232854  169.36289760782347 22.029317118232854  C 169.36289760782347 22.3515119018313  169.43279929873927 22.672925318451234  169.5726197502828 22.993523434407006  C 169.71244020182635 23.314188049680105  169.92050634411012 23.619056222020323  170.19681819201614 23.90812007024739  C 170.47313003992215 24.197050890099508  170.8090347079139 24.462081644150217  171.20452683845312 24.703245388746208  C 171.60001896899234 24.944409133342194  172.0517667983648 25.15196922045194  172.55978113093917 25.325939761849174  C 173.06779546351356 25.499710716073533  173.62774987884467 25.625704453598466  174.23963080450238 25.703874772863394  C 174.23963080450238 25.703874772863394  173.5445090339647 27.188571602594685  173.5445090339647 27.188571602594685  C 172.83675121194128 27.085785948373058  172.1825949047986 26.925168951686835  171.58203279056784 26.70675775817438  C 170.98147067633704 26.488413093719547  170.4431575305751 26.221244755396715  169.96710219322006 25.9052370849364  C 169.49171264904274 25.58922941447609  169.08525682256695 25.2288983727851  168.7476903057538 24.824208955526906  C 168.41078961188248 24.419386480153463  168.15443259957667 23.981882772529033  167.978658319337 23.51172989270016  C 167.80354984715714 23.041377425698414  167.7159951274006 22.547237058447703  167.7159951274006 22.029317118232854  Z M 167.27756277464988 34.65618369895137  L 167.27756277464988 29.21233592869687  L 169.17015195618666 29.21233592869687  L 169.17015195618666 34.65618369895137  L 167.27756277464988 34.65618369895137  Z M 161.6228369303301 29  L 161.6228369303301 28  L 174.91576450720808 28  L 174.91576450720808 29  L 161.6228369303301 29  Z M 162.8212796513944 22  L 162.8212796513944 20.760966003106315  L 173.6853499030687 20.760966003106315  L 173.6853499030687 22  L 162.8212796513944 22  Z M 182.10952963442665 26.540417626815824  L 182.10952963442665 24.991645433412177  L 184.65326019824815 24.991645433412177  L 184.65326019824815 26.540417626815824  L 182.10952963442665 26.540417626815824  Z M 179.08539790661098 23.82476728014699  C 179.08539790661098 23.82476728014699  179.08539790661098 21.267112649605618  179.08539790661098 21.267112649605618  L 180.53955473539708 21.267112649605618  C 180.53955473539708 21.267112649605618  180.53955473539708 23.82476728014699  180.53955473539708 23.82476728014699  C 180.53955473539708 24.638071239842297  180.474970758314 25.43718467348161  180.3458032952555 26.222081231156544  C 180.21597002413725 27.006977788831477  180.01622043304747 27.745698600508582  179.7465666955036 28.43825437269691  C 179.4769129579597 29.130610527972063  179.13269175365605 29.753895721932768  178.7138962070852 30.308073374006437  C 178.29510066051435 30.862117967964856  177.7993902120573 31.313164933692605  177.22679218515879 31.661239074602317  C 177.22679218515879 31.661239074602317  176.07226889546843 30.23492269741851  176.07226889546843 30.23492269741851  C 176.60558402360766 29.9153225173271  177.06200014389069 29.520312914381552  177.44151279170228 29.049893918322184  C 177.82169126245577 28.579541451320438  178.13397570532365 28.05955723668015  178.37832858777446 27.489945081160098  C 178.62334727828505 26.920266426322723  178.80244501061375 26.324103793815794  178.91563299838563 25.70146890131866  C 179.0288209861575 25.078567892591032  179.08539790661098 24.452990554003946  179.08539790661098 23.82476728014699  Z M 179.48689039064186 23.739252251063352  C 179.48689039064186 23.739252251063352  179.48689039064186 21.267112649605618  179.48689039064186 21.267112649605618  L 180.91904178608172 21.267112649605618  C 180.91904178608172 21.267112649605618  180.91904178608172 23.739252251063352  180.91904178608172 23.739252251063352  C 180.91904178608172 24.33554211258616  180.9696515176931 24.9300366115025  181.0708548934193 25.522733963394206  C 181.17139245364464 26.11536475648799  181.32952881776586 26.68146369002452  181.54525180482455 27.221005187343287  C 181.76164059994304 27.760413626546814  182.0429472509488 28.255542680427677  182.3891693171856 28.70640246068887  C 182.7347255604805 29.157129182834815  183.15651555420772 29.540597704349985  183.6545426914748 29.856804961983173  C 183.6545426914748 29.856804961983173  182.611875274888 31.336415961993318  182.611875274888 31.336415961993318  C 182.0466011812935 30.988341821083605  181.56421549585775 30.543492020716382  181.16472848719562 30.00188815235156  C 180.7659073014753 29.460217725188816  180.44298741605996 28.85111116116294  180.1959712864879 28.174522124881992  C 179.94962096497562 27.49793308860104  179.76987376507864 26.782239122821267  179.65668577730676 26.027479722664932  C 179.54349778953485 25.272720322508604  179.48689039064186 24.509978327646458  179.48689039064186 23.739252251063352  Z M 187 34.6455247743861  L 187 19.958348983341622  L 189 19.958348983341622  L 189 34.6455247743861  L 187 34.6455247743861  Z M 184 33.97011440579033  L 184 20.213401821153397  L 185 20.213401821153397  L 185 33.97011440579033  L 184 33.97011440579033  Z M 194.04321024323912 31.645281141824604  L 194.04321024323912 27.44752256139033  L 195.93576894633634 27.44752256139033  L 195.93576894633634 31.645281141824604  L 194.04321024323912 31.645281141824604  Z M 199.4013199139774 31.645281141824604  L 199.4013199139774 27.44752256139033  L 201.2998828696636 27.44752256139033  L 201.2998828696636 31.645281141824604  L 199.4013199139774 31.645281141824604  Z M 191.02508276801237 33  L 191.02508276801237 31  L 204.33897951129234 31  L 204.33897951129234 33  L 191.02508276801237 33  Z M 194.85814275959976 21.223989686221564  C 195.68042016319157 20.900863525556673  196.61557363421667 20.739313159203725  197.66356120529247 20.739313159203725  C 198.71487783154933 20.739313159203725  199.65065027682112 20.900863525556673  200.47093027111558 21.223989686221564  C 201.2918760883519 21.546982788771206  201.93771582941852 21.99870917171908  202.40844467253103 22.579165355449753  C 202.87917351564354 23.15962153918043  203.11453868130232 23.8474390268275  203.11453868130232 24.642580880934737  C 203.11453868130232 25.427144763581246  202.87917351564354 26.11058215889538  202.40844467253103 26.69290115623953  C 201.93771582941852 27.275020536670507  201.2918760883519 27.72672208646545  200.47093027111558 28.047985463257167  C 199.65065027682112 28.369315369106502  198.71487783154933 28.529951578028403  197.66356120529247 28.529951578028403  C 196.61557363421667 28.529951578028403  195.68042016319157 28.369315369106502  194.85814275959976 28.047985463257167  C 194.03519953306608 27.72672208646545  193.38837031422213 27.275020536670507  192.91764147110962 26.69290115623953  C 192.4469126279971 26.11058215889538  192.21154746233833 25.427144763581246  192.21154746233833 24.642580880934737  C 192.21154746233833 23.8474390268275  192.4469126279971 23.15962153918043  192.91764147110962 22.579165355449753  C 193.38837031422213 21.99870917171908  194.03519953306608 21.546982788771206  194.85814275959976 21.223989686221564  Z M 199.53914341756717 22.513628196408447  C 199.00116758836313 22.320497613558786  198.37597966885244 22.223918626724462  197.66356120529247 22.223918626724462  C 196.9538059739717 22.223918626724462  196.32926756667547 22.320497613558786  195.78996009158772 22.513628196408447  C 195.2513184394418 22.70669225020049  194.8311978546177 22.983054193493743  194.52958518138269 23.342770711305565  C 194.22863830132545 23.702354171002142  194.07816901338893 24.13563802704575  194.07816901338893 24.642580880934737  C 194.07816901338893 25.138879264045674  194.22863830132545 25.56692415754842  194.52958518138269 25.92670720441787  C 194.8311978546177 26.286290664114446  195.2513184394418 26.564450468199606  195.78996009158772 26.761240089737992  C 196.32926756667547 26.957830124103506  196.9538059739717 27.056126851353685  197.66356120529247 27.056126851353685  C 198.37597966885244 27.056126851353685  199.00116758836313 26.957830124103506  199.53914341756717 26.761240089737992  C 200.07645342382938 26.564450468199606  200.49558456064025 26.286290664114446  200.7965314406975 25.92670720441787  C 201.0981441139325 25.56692415754842  201.248953397196 25.138879264045674  201.248953397196 24.642580880934737  C 201.248953397196 24.13563802704575  201.0981441139325 23.702354171002142  200.7965314406975 23.342770711305565  C 200.49558456064025 22.983054193493743  200.07645342382938 22.70669225020049  199.53914341756717 22.513628196408447  Z " fill-rule="nonzero" fill="#4c4c57" stroke="none" transform="matrix(1 0 0 1 72 300 )" />
  </g>
</svg>