<?xml version="1.0" encoding="utf-8"?>
<svg version="1.1" xmlns:xlink="http://www.w3.org/1999/xlink" width="27px" height="15px" xmlns="http://www.w3.org/2000/svg">
  <g transform="matrix(1 0 0 1 -127 -34 )">
    <path d="M 3.5695977079542858 9.031518100236072  L 3.5695977079542858 6.970164016681336  L 5.4335691974671425 6.970164016681336  L 5.4335691974671425 9.031518100236072  L 3.5695977079542858 9.031518100236072  Z M 10 10.213400590591661  L 10 0.1293975636037607  L 12 0.1293975636037607  L 12 10.213400590591661  L 10 10.213400590591661  Z M 10.878770393520101 6.025854836188957  L 10.878770393520101 4.4407578162914465  L 13.464436102388271 4.4407578162914465  L 13.464436102388271 6.025854836188957  L 10.878770393520101 6.025854836188957  Z M 2.975240102795182 9.839921281863571  C 1.9820998290221283 9.859597229484363  1.0639492443578553 9.873082543123866  0.22081285573486714 9.880359948343793  C 0.22081285573486714 9.880359948343793  0 8.376664637707385  0 8.376664637707385  C 0.8710059888637164 8.376664637707385  1.8153735388083498 8.370382091778291  2.8331045845917293 8.357848782213157  C 3.850999557129373 8.34524809000722  4.886258219007603 8.30941602041652  5.938908243126281 8.250320794913344  C 6.991558267244958 8.190956035081626  8.009293123914972 8.098466668632543  8.992105249992079 7.972864040535316  C 8.992105249992079 7.972864040535316  9.13424076819553 9.298148026288732  9.13424076819553 9.298148026288732  C 8.119952418767792 9.477724738942857  7.0882107948490685 9.607948312698761  6.0390034670860295 9.688808370279585  C 4.989796139322992 9.769668427860408  3.968544303322499 9.820043184437708  2.975240102795182 9.839921281863571  Z M 1.8211807437474883 12.341011162017884  L 1.8211807437474883 10.848358599360056  L 11.556983451710112 10.848358599360056  L 11.556983451710112 15  L 9.688073991184696 15  L 9.688073991184696 12.341011162017884  L 1.8211807437474883 12.341011162017884  Z M 0.36713589342921327 2.67117287555625  L 0.36713589342921327 1.2758383851677593  L 8.60972018164262 1.2758383851677593  L 8.60972018164262 2.67117287555625  L 0.36713589342921327 2.67117287555625  Z M 1.9608697899903107 3.6748599606820593  C 2.597771371348011 3.2811725544882244  3.440819171514028 3.0843197091459453  4.490026499277065 3.0843197091459453  C 5.551037374153449 3.0843197091459453  6.397373559080964 3.2811725544882244  7.029029132528071 3.6748599606820593  C 7.660684705975179 4.068547366875895  7.9765041966916765 4.6068541300160195  7.9765041966916765 5.289784738387635  C 7.9765041966916765 5.9727153467592515  7.660684705975179 6.512789921937334  7.029029132528071 6.910014970429289  C 6.397373559080964 7.307240018921245  5.551037374153449 7.505860676301481  4.490026499277065 7.505860676301481  C 3.440819171514028 7.505860676301481  2.597771371348011 7.307240018921245  1.9608697899903107 6.910014970429289  C 1.3241321353868745 6.512789921937334  1.0057551293361506 5.9727153467592515  1.0057551293361506 5.289784738387635  C 1.0057551293361506 4.6068541300160195  1.3241321353868745 4.068547366875895  1.9608697899903107 3.6748599606820593  Z M 5.744406217741008 4.591346351574774  C 5.439316424913573 4.430300066586472  5.021522532723855 4.349763105294761  4.491017095285663 4.349763105294761  C 3.960675584601735 4.349763105294761  3.542866712696097 4.430300066586472  3.237612963799886 4.591346351574774  C 2.9325231709724515 4.752392636563076  2.7799876258882428 4.986713912692888  2.7799876258882428 5.294319051105098  C 2.7799876258882428 5.588615972052286  2.9325231709724515 5.8199022787652535  3.237612963799886 5.9881922795357525  C 3.542866712696097 6.156313818997575  3.960675584601735 6.240386434487921  4.491017095285663 6.240386434487921  C 5.021522532723855 6.240386434487921  5.439316424913573 6.156313818997575  5.744406217741008 5.9881922795357525  C 6.049496010568442 5.8199022787652535  6.202031555652651 5.588615972052286  6.202031555652651 5.294319051105098  C 6.202031555652651 4.986713912692888  6.049496010568442 4.752392636563076  5.744406217741008 4.591346351574774  Z M 3.5695977079542858 1.9244918690827735  L 3.5695977079542858 0  L 5.4335691974671425 0  L 5.4335691974671425 1.9244918690827735  L 3.5695977079542858 1.9244918690827735  Z M 24.732915971109286 10.863102827107992  L 24.732915971109286 0.1293975636037607  L 26.612451825181484 0.1293975636037607  L 26.612451825181484 10.863102827107992  L 24.732915971109286 10.863102827107992  Z M 17.06502745818734 14.720044746777656  L 17.06502745818734 13.17307296850452  L 27 13.17307296850452  L 27 14.720044746777656  L 17.06502745818734 14.720044746777656  Z M 17.06502745818734 13.785081802702901  L 17.06502745818734 9.78504684428286  L 18.9289989477002 9.78504684428286  L 18.9289989477002 13.785081802702901  L 17.06502745818734 13.785081802702901  Z M 16.782917722162836 1.5712164707624225  C 17.370867233504242 1.2529984355785722  18.030485861858136 1.0939106545038784  18.761783339642683 1.0939106545038784  C 19.496556287407923 1.0939106545038784  20.156997011952193 1.2529984355785722  20.7431104381136 1.5712164707624225  C 21.32935501740422 1.889434505946273  21.794786516866814 2.329870113564741  22.13938553029406 2.8925213657637796  C 22.48411569685052 3.455172617962819  22.65647664678248 4.103224671660751  22.65647664678248 4.836692768953633  C 22.65647664678248 5.55567346480484  22.48411569685052 6.199188494740557  22.13938553029406 6.767230388326356  C 21.794786516866814 7.335272281912154  21.32935501740422 7.780247805073906  20.7431104381136 8.102138221480098  C 20.156997011952193 8.42389386883935  19.496556287407923 8.584780337739465  18.761783339642683 8.584780337739465  C 18.030485861858136 8.584780337739465  17.370867233504242 8.42389386883935  16.782917722162836 8.102138221480098  C 16.195099363950643 7.780247805073906  15.72879678374718 7.335272281912154  15.38400104062611 6.767230388326356  C 15.039402027198864 6.199188494740557  14.867090032502889 5.55567346480484  14.867090032502889 4.836692768953633  C 14.867090032502889 4.103224671660751  15.039402027198864 3.455172617962819  15.38400104062611 2.8925213657637796  C 15.72879678374718 2.329870113564741  16.195099363950643 1.889434505946273  16.782917722162836 1.5712164707624225  Z M 19.81918454269986 3.007514003931794  C 19.505078104154123 2.839055541852619  19.152613039626758 2.754826318343711  18.761783339642683 2.754826318343711  C 18.370953639658612 2.754826318343711  18.01931067132162 2.839055541852619  17.706843617576578 3.007514003931794  C 17.394573293525355 3.175972466010969  17.148601374639576 3.4144083851304874  16.968924636322853 3.7228558150247175  C 16.789247898006135 4.031134798671632  16.699407476831894 4.40240686513003  16.699407476831894 4.836692768953633  C 16.699407476831894 5.263734972056398  16.789247898006135 5.6315022299809065  16.968924636322853 5.939949659875136  C 17.148601374639576 6.24822864352205  17.394573293525355 6.486586243570928  17.706843617576578 6.655044705650103  C 18.01931067132162 6.823503167729278  18.370953639658612 6.907732391238186  18.761783339642683 6.907732391238186  C 19.152613039626758 6.907732391238186  19.505078104154123 6.823503167729278  19.81918454269986 6.655044705650103  C 20.13329098124559 6.486586243570928  20.380188447236588 6.24822864352205  20.559865185553306 5.939949659875136  C 20.73954192387003 5.6315022299809065  20.82938234504427 5.263734972056398  20.82938234504427 4.836692768953633  C 20.82938234504427 4.40240686513003  20.73954192387003 4.031134798671632  20.559865185553306 3.7228558150247175  C 20.380188447236588 3.4144083851304874  20.13329098124559 3.175972466010969  19.81918454269986 3.007514003931794  Z " fill-rule="nonzero" fill="#ffffff" stroke="none" transform="matrix(1 0 0 1 127 34 )" />
  </g>
</svg>