<?xml version="1.0" encoding="utf-8"?>
<svg version="1.1" xmlns:xlink="http://www.w3.org/1999/xlink" width="221px" height="54px" xmlns="http://www.w3.org/2000/svg">
  <g transform="matrix(1 0 0 1 -30 -14 )">
    <path d="M 0 9  C 0 4.029437005519867  3.5337522945233752 0  7.892857142857142 0  C 7.892857142857142 0  213.10714285714286 0  213.10714285714286 0  C 217.46624770547663 0  221 4.029437005519867  221 9  C 221 9  221 45  221 45  C 221 49.97056299448013  217.46624770547663 54  213.10714285714286 54  C 213.10714285714286 54  7.892857142857142 54  7.892857142857142 54  C 3.5337522945233752 54  0 49.97056299448013  0 45  C 0 45  0 9  0 9  Z " fill-rule="nonzero" fill="#3578ff" stroke="none" transform="matrix(1 0 0 1 30 14 )" />
  </g>
</svg>