<?xml version="1.0" encoding="utf-8"?>
<svg version="1.1" xmlns:xlink="http://www.w3.org/1999/xlink" width="222px" height="54px" xmlns="http://www.w3.org/2000/svg">
  <g transform="matrix(1 0 0 1 -29 -14 )">
    <path d="M 0 9  C 0 4.029437005519867  3.549742123910359 0  7.928571428571428 0  C 7.928571428571428 0  214.07142857142858 0  214.07142857142858 0  C 218.45025787608964 0  222 4.029437005519867  222 9  C 222 9  222 45  222 45  C 222 49.97056299448013  218.45025787608964 54  214.07142857142858 54  C 214.07142857142858 54  7.928571428571428 54  7.928571428571428 54  C 3.549742123910359 54  0 49.97056299448013  0 45  C 0 45  0 9  0 9  Z " fill-rule="nonzero" fill="#aaaaaa" stroke="none" transform="matrix(1 0 0 1 29 14 )" />
  </g>
</svg>