<?xml version="1.0" encoding="utf-8"?>
<svg version="1.1" xmlns:xlink="http://www.w3.org/1999/xlink" width="50px" height="13px" xmlns="http://www.w3.org/2000/svg">
  <g transform="matrix(1 0 0 1 -466 -525 )">
    <path d="M 5.122334958620925 8.129441428956385  L 5.122334958620925 6.140181699195442  L 6.271889019323225 6.140181699195442  L 6.271889019323225 8.129441428956385  L 5.122334958620925 8.129441428956385  Z M 0 6.439446433383377  L 0 5.471590252916041  L 11.41419504425296 5.471590252916041  L 11.41419504425296 6.439446433383377  L 0 6.439446433383377  Z M 1.4839476465803203 4.388882472956847  L 1.4839476465803203 0.4398891326943065  L 9.933657091920486 0.4398891326943065  L 9.933657091920486 4.388882472956847  L 1.4839476465803203 4.388882472956847  Z M 8.795062762729119 3.4432959926088462  L 8.795062762729119 1.3819725141471302  L 2.6171838848107862 1.3819725141471302  L 2.6171838848107862 3.4432959926088462  L 8.795062762729119 3.4432959926088462  Z M 1.3806826207884186 8.615871732686609  L 1.3806826207884186 7.701813142395196  L 9.949487815214056 7.701813142395196  L 9.949487815214056 10.619143858028256  L 2.5504512973886615 10.619143858028256  L 2.5504512973886615 12.196289024906648  L 1.4118569681972946 12.196289024906648  L 1.4118569681972946 9.749624667975517  L 8.810649936433556 9.749624667975517  L 8.810649936433556 8.615871732686609  L 1.3806826207884186 8.615871732686609  Z M 1.4118569681972946 12.844112099164645  L 1.4118569681972946 11.90978557955114  L 10.330155823027127 11.90978557955114  L 10.330155823027127 12.844112099164645  L 1.4118569681972946 12.844112099164645  Z M 22 13  L 22 0  L 24 0  L 24 13  L 22 13  Z M 13.584221883417683 9.868229587712207  L 13.584221883417683 8.872348616083459  C 13.584221883417683 8.872348616083459  14.631728666273741 8.872348616083459  14.631728666273741 8.872348616083459  C 15.341672448273872 8.872348616083459  16.030445908188046 8.860231230292625  16.697759830879168 8.836316741733071  C 17.365073753570286 8.812402253173518  18.04021955557832 8.766673644815118  18.723361763688704 8.698694999422566  C 19.406570448469168 8.630689024250644  20.12065433564315 8.536319334264595  20.865380400103266 8.415694652962236  C 20.865380400103266 8.415694652962236  20.98642454590179 9.391307695268893  20.98642454590179 9.391307695268893  C 19.846125131745108 9.58262360374532  18.773696613930063 9.709988137758526  17.769134473470142 9.773395696192786  C 16.764638809680303 9.836598273645617  15.71875743492203 9.868229587712207  14.631728666273741 9.868229587712207  C 14.631728666273741 9.868229587712207  13.584221883417683 9.868229587712207  13.584221883417683 9.868229587712207  Z M 13.553047536008805 2.1919390229818685  L 13.553047536008805 1.2130731031296917  L 19.392392485033877 1.2130731031296917  L 19.392392485033877 5.848924048196482  L 14.750093766591815 5.848924048196482  L 14.750093766591815 9.251684182161142  L 13.584221883417683 9.251684182161142  L 13.584221883417683 4.881318089078801  L 18.221162510898843 4.881318089078801  L 18.221162510898843 2.1919390229818685  L 13.553047536008805 2.1919390229818685  Z M 34 12.983235169573085  L 34 0.005504869692420217  L 36 0.005504869692420217  L 36 12.983235169573085  L 34 12.983235169573085  Z M 29.20281348485365 4.205720445009047  C 29.20281348485365 4.205720445009047  29.20281348485365 3.095738537937406  29.20281348485365 3.095738537937406  L 30.141697150956908 3.095738537937406  C 30.141697150956908 3.095738537937406  30.141697150956908 4.205720445009047  30.141697150956908 4.205720445009047  C 30.141697150956908 4.8959472411893215  30.052645943190686 5.56425773825313  29.87501035085754 6.210994341147939  C 29.6975077713249 6.857587445519714  29.44809143767741 7.457716534510998  29.126338913866253 8.011336951919006  C 28.804652896455345 8.564964211317042  28.427534879583376 9.053687436955949  27.995051072348843 9.47738383955037  C 27.562633771514562 9.901011913878293  27.093196041227007 10.237043043645354  26.587090897577653 10.485275435962581  C 26.587090897577653 10.485275435962581  25.936569945006504 9.563459983831851  25.936569945006504 9.563459983831851  C 26.40809235512681 9.340303637696252  26.84130874359008 9.042856475105232  27.23615055261402 8.671170650960464  C 27.631125374438465 8.299300367986284  27.975865715090514 7.876099795856822  28.270018558478693 7.401547522808638  C 28.564171401866865 6.926995249760455  28.793025915774045 6.417750544088581  28.956828399830492 5.8736959618123725  C 29.120830403087698 5.329491039023102  29.20281348485365 4.773539213512494  29.20281348485365 4.205720445009047  Z M 29.421521015894047 4.205720445009047  C 29.421521015894047 4.205720445009047  29.421521015894047 3.095738537937406  29.421521015894047 3.095738537937406  L 30.349444950486372 3.095738537937406  C 30.349444950486372 3.095738537937406  30.349444950486372 4.205720445009047  30.349444950486372 4.205720445009047  C 30.349444950486372 4.744841830295489  30.432841657452375 5.2752978352093916  30.59957037852477 5.797378450167456  C 30.766232593196914 6.319459065125519  30.99941607321116 6.807792114065147  31.299288348100557 7.262174231050545  C 31.59922712939021 7.716549506045913  31.950460450952612 8.120968693365615  32.35288387068491 8.475497555529891  C 32.75530729041721 8.829876107725704  33.192101318883815 9.114024274375002  33.66342420980335 9.327751472456404  C 33.66342420980335 9.327751472456404  33.018504897782236 10.252319359433345  33.018504897782236 10.252319359433345  C 32.512399754132886 10.013789412964021  32.040223726127195 9.691123056931222  31.602020487391435 9.284713400315663  C 31.163817248655683 8.878344734551087  30.781266696465977 8.409471924119472  30.453927724223927 7.877968972552642  C 30.12665525838214 7.346322583551976  29.87266642390354 6.7691090296674705  29.692104609419523 6.146437232936829  C 29.51167579287093 5.523608314792292  29.421521015894047 4.87681563201492  29.421521015894047 4.205720445009047  Z M 26.28094906403893 3.2193478846672057  L 26.28094906403893 2.260499672787466  L 33.23258498662913 2.260499672787466  L 33.23258498662913 3.2193478846672057  L 26.28094906403893 3.2193478846672057  Z M 29.194289249234036 2.7937213689032605  L 29.194289249234036 0.2449667013126997  L 30.357969186105983 0.2449667013126997  L 30.357969186105983 2.7937213689032605  L 29.194289249234036 2.7937213689032605  Z M 41.744886676376176 10.799053008430535  L 41.744886676376176 7.612233899218539  L 42.88664715022626 7.612233899218539  L 42.88664715022626 10.799053008430535  L 41.744886676376176 10.799053008430535  Z M 45.77952916993429 10.781537513954653  L 45.77952916993429 7.594718404742657  L 46.91276540816476 7.594718404742657  L 46.91276540816476 10.781537513954653  L 45.77952916993429 10.781537513954653  Z M 38.55170801326858 11.386822958771221  L 38.55170801326858 10.396947299534204  L 50 10.396947299534204  L 50 11.386822958771221  L 38.55170801326858 11.386822958771221  Z M 39.947247158994045 1.9399661238788157  L 39.947247158994045 0.9666050737190591  L 48.58132364330701 0.9666050737190591  L 48.58132364330701 4.891577164414675  L 41.122373926555184 4.891577164414675  L 41.122373926555184 7.494880086230126  L 39.97842150640292 7.494880086230126  L 39.97842150640292 3.938233822227355  L 47.43712767356561 3.938233822227355  L 47.43712767356561 1.9399661238788157  L 39.947247158994045 1.9399661238788157  Z M 39.97842150640292 7.946779843707895  L 39.97842150640292 6.976671671093659  L 48.87455734862176 6.976671671093659  L 48.87455734862176 7.946779843707895  L 39.97842150640292 7.946779843707895  Z " fill-rule="nonzero" fill="#26262c" stroke="none" transform="matrix(1 0 0 1 466 525 )" />
  </g>
</svg>