<?xml version="1.0" encoding="utf-8"?>
<svg version="1.1" xmlns:xlink="http://www.w3.org/1999/xlink" width="12px" height="8px" xmlns="http://www.w3.org/2000/svg">
  <g transform="matrix(1 0 0 1 -432 -339 )">
    <path d="M 4.6476082419920175 7.826644708329722  C 4.6476082419920175 7.826644708329722  11.817655043864093 1.010083499465488  11.817655043864093 1.010083499465488  C 11.876011654901566 0.9545988409291393  11.92098877897892 0.8907309628577259  11.952590311404665 0.8182369766837133  C 11.98419184383041 0.7457429905097007  12 0.6701861190828964  12 0.591719395567883  C 12 0.5528665640529745  11.996053569274403 0.514486375413976  11.988086796199122 0.4763803415099246  C 11.980120023123838 0.4382736128021529  11.968258297679842 0.4010969335412694  11.952590311404665 0.3652018144520528  C 11.936988714170878 0.32930669536283624  11.917674607834684 0.2953428026122024  11.894969305265718 0.2630377625610355  C 11.872264002696749 0.23073272250986862  11.846600984955591 0.20082874424293395  11.817655043864093 0.17335529167027824  C 11.788775493668895 0.1458824704167389  11.757313483774386 0.12120680020836494  11.723321919889782 0.09962150761318656  C 11.68933035600518 0.07803558369889178  11.653569350084272 0.05994078572326627  11.615859959073687 0.045072375834272344  C 11.578084177166803 0.030203965945278417  11.539015483007967 0.018905567787392826  11.498916060538527 0.01132587905579151  C 11.458883028965385 0.003746190324190196  11.418491981441889 0  11.377595883056102 0  C 11.295073393844845 0  11.21561365587233 0.015044588482075785  11.139331807038516 0.045072375834272344  C 11.063116349101001 0.0751001631864689  10.995893333285585 0.1178706331339296  10.937536722248112 0.17335529167027824  C 10.937536722248112 0.17335529167027824  4.207549081184027 6.571552396636907  4.207549081184027 6.571552396636907  C 4.207549081184027 6.571552396636907  1.0624632777518894 3.5815203259079484  1.0624632777518894 3.5815203259079484  C 1.004101357965388 3.526034404733367  0.9369214910388217 3.483262040828557  0.8606681929614846 3.4532374100719423  C 0.7844148948841476 3.423206466124164  0.7049398798826344 3.4083961746265636  0.6224041169438985 3.4083961746265636  C 0.5815364988280538 3.4083961746265636  0.5411660333727676 3.4121417336316378  0.5010839394614746 3.419722053682355  C 0.4610011147161085 3.427302373733073  0.4218965688796992 3.4383734194167634  0.3841400409263124 3.4532374100719423  C 0.3463835129729256 3.4681077121548243  0.3106583587295907 3.486431758325456  0.2766780801102174 3.50801768223975  C 0.24269780149084413 3.529603606154045  0.21124309622724802 3.55404561069706  0.1823449561359078 3.5815203259079484  C 0.15344748010192324 3.608995041118837  0.12749220663771255 3.638899650704888  0.10478756812610167 3.6712027967987058  C 0.08208226555713508 3.7035059428925234  0.06304912782385381 3.7377035013085163  0.04740968859533602 3.7735979890786164  C 0.03177024936681822 3.8094924768487166  0.01988595153745527 3.846435490444241  0.011913203800879308 3.8845453757475945  C 0.0039404560643033475 3.9226489478597846  0 3.961260908206793  0 4.000115570194446  C 0 4.07858229370946  0.015824753893666298 4.153906127263099  0.04740968859533602 4.226402010921383  C 0.07899528735436145 4.298891581388504  0.12398370040676221 4.36299375291747  0.1823449561359078 4.418479674092052  C 0.1823449561359078 4.418479674092052  3.7672467937678547 7.826644708329722  3.7672467937678547 7.826644708329722  C 3.796146261973907 7.85411942354061  3.8276016312948578 7.878792568472519  3.8615799177421644 7.900378492386813  C 3.89555820418947 7.921964416301108  3.9315291412704094 7.940063633510548  3.9692850051664403 7.954927624165728  C 4.007040869062472 7.969797926248609  4.045899632061277 7.981093800893491  4.085985777093422 7.988674120944209  C 4.126065281552009 7.996254440994926  4.166679537672832 8  4.207549081184027 8  C 4.248418624695221 8  4.288789754207864 7.996254440994926  4.328869258666451 7.988674120944209  C 4.368955403698595 7.981093800893491  4.407814166697401 7.969797926248609  4.445570030593432 7.954927624165728  C 4.483325894489463 7.940063633510548  4.519296831570402 7.921964416301108  4.553275118017708 7.900378492386813  C 4.587253404465014 7.878792568472519  4.618708773785965 7.85411942354061  4.6476082419920175 7.826644708329722  Z " fill-rule="nonzero" fill="#ffffff" stroke="none" transform="matrix(1 0 0 1 432 339 )" />
  </g>
</svg>