<?xml version="1.0" encoding="utf-8"?>
<svg version="1.1" xmlns:xlink="http://www.w3.org/1999/xlink" width="36px" height="13px" xmlns="http://www.w3.org/2000/svg">
  <g transform="matrix(1 0 0 1 -466 -327 )">
    <path d="M 3.205172964198143 2.7584401586018403  C 3.205172964198143 2.7584401586018403  3.205172964198143 1.4302652346306348  3.205172964198143 1.4302652346306348  L 4.172006493374178 1.4302652346306348  C 4.172006493374178 1.4302652346306348  4.172006493374178 2.7584401586018403  4.172006493374178 2.7584401586018403  C 4.172006493374178 3.5494084770677548  4.022986015536382 4.2860874373243645  3.7250232633959803 4.968395118758902  C 3.4270605112555783 5.650559301670408  3.0102421757197217 6.245741356968875  2.474790629436177 6.754224891249952  C 1.93933239704886 7.262701583540999  1.3151741629210334 7.648838881867705  0.6022536627113233 7.912499518805097  C 0.6022536627113233 7.912499518805097  0 6.971166801401241  0 6.971166801401241  C 0.6390157118662847 6.7399410305514404  1.1981854650630914 6.411928957455904  1.677409714250783 5.9872964545559535  C 2.1566272773347026 5.562663951656002  2.5308596986923257 5.071801046358317  2.800491757625979 4.5147438118335455  C 3.0702640456467734 3.957536236795711  3.205172964198143 3.3721405791737045  3.205172964198143 2.7584401586018403  Z M 3.4337995068839273 2.7584401586018403  C 3.4337995068839273 2.7584401586018403  3.4337995068839273 1.4302652346306348  3.4337995068839273 1.4302652346306348  L 4.389629619567064 1.4302652346306348  C 4.389629619567064 1.4302652346306348  4.389629619567064 2.7584401586018403  4.389629619567064 2.7584401586018403  C 4.389629619567064 3.1957746632688293  4.467298788804342 3.617819977599625  4.622413008483498 4.024810409208146  C 4.777674128429228 4.431807682806696  4.998338834864699 4.81061840105099  5.284329640622984 5.160815336643955  C 5.57046067546841 5.511012272236918  5.908376628729572 5.819943272196017  6.298355600535229 6.087635215767795  C 6.688334572340883 6.355183691361138  7.118128904074363 6.568020254771648  7.587711493136449 6.726450321438196  C 7.587711493136449 6.726450321438196  6.994016043252936 7.656773299457211  6.994016043252936 7.656773299457211  C 6.2920525746912075 7.408513584996765  5.674601756290881 7.045049389299759  5.1417742669483175 6.566308657658698  C 4.608946777605755 6.087574768007667  4.191048815402831 5.521272935891907  3.8881183478573904 4.867806136197405  C 3.58518788031195 4.214195837979871  3.4337995068839273 3.5111452587189507  3.4337995068839273 2.7584401586018403  Z M 0.31200798766530596 2.055318166069985  L 0.31200798766530596 1.0822073372598837  L 7.252474070652801 1.0822073372598837  L 7.252474070652801 2.055318166069985  L 0.31200798766530596 2.055318166069985  Z M 9.054344651456594 9.513165492551103  L 9.054344651456594 0.01976748662278169  L 10.22241844226942 0.01976748662278169  L 10.22241844226942 9.513165492551103  L 9.054344651456594 9.513165492551103  Z M 2.0776895542257874 12.70048504446241  L 2.0776895542257874 11.721368903260576  L 10.611205825018509 11.721368903260576  L 10.611205825018509 12.70048504446241  L 2.0776895542257874 12.70048504446241  Z M 2.0776895542257874 12.151999846017631  L 2.0776895542257874 8.623128151826615  L 3.231825684147609 8.623128151826615  L 3.231825684147609 12.151999846017631  L 2.0776895542257874 12.151999846017631  Z M 15.937103927948 10.799053008430535  L 15.937103927948 7.612233899218539  L 17.083415406141537 7.612233899218539  L 17.083415406141537 10.799053008430535  L 15.937103927948 10.799053008430535  Z M 19.987828319533783 10.781537513954653  L 19.987828319533783 7.594718404742657  L 21.125581584899507 7.594718404742657  L 21.125581584899507 10.781537513954653  L 19.987828319533783 10.781537513954653  Z M 12.73119740265033 11.386822958771221  L 12.73119740265033 10.396947299534204  L 24.225121750765823 10.396947299534204  L 24.225121750765823 11.386822958771221  L 12.73119740265033 11.386822958771221  Z M 14.132299102746101 1.9399661238788157  L 14.132299102746101 0.9666050737190591  L 22.800790615851714 0.9666050737190591  L 22.800790615851714 4.891577164414675  L 15.312109871151351 4.891577164414675  L 15.312109871151351 7.494880086230126  L 14.163597709659234 7.494880086230126  L 14.163597709659234 3.938233822227355  L 21.652033933993085 3.938233822227355  L 21.652033933993085 1.9399661238788157  L 14.132299102746101 1.9399661238788157  Z M 14.163597709659234 7.946779843707895  L 14.163597709659234 6.976671671093659  L 23.09519313712838 6.976671671093659  L 23.09519313712838 7.946779843707895  L 14.163597709659234 7.946779843707895  Z M 34.84048442201498 13  L 34.84048442201498 0  L 36 0  L 36 13  L 34.84048442201498 13  Z M 26.34853661352877 9.871482465257728  L 26.34853661352877 1.1029757092812873  L 27.505851508215205 1.1029757092812873  L 27.505851508215205 4.5287562074142516  L 31.16827755778492 4.5287562074142516  L 31.16827755778492 1.1029757092812873  L 32.32534793210485 1.1029757092812873  L 32.32534793210485 9.871482465257728  L 26.34853661352877 9.871482465257728  Z M 31.16827755778492 5.476344458559495  L 27.505851508215205 5.476344458559495  L 27.505851508215205 8.892366324055896  L 31.16827755778492 8.892366324055896  L 31.16827755778492 5.476344458559495  Z " fill-rule="nonzero" fill="#26262c" stroke="none" transform="matrix(1 0 0 1 466 327 )" />
  </g>
</svg>