<?xml version="1.0" encoding="utf-8"?>
<svg version="1.1" xmlns:xlink="http://www.w3.org/1999/xlink" width="35px" height="13px" xmlns="http://www.w3.org/2000/svg">
  <g transform="matrix(1 0 0 1 -466 -477 )">
    <path d="M 9 13  L 9 0  L 10 0  L 10 13  L 9 13  Z M 0 9.871482465257728  L 0 1.1029757092812873  L 1.1403641620486697 1.1029757092812873  L 1.1403641620486697 4.5287562074142516  L 4.749148108629057 4.5287562074142516  L 4.749148108629057 1.1029757092812873  L 5.889271331704126 1.1029757092812873  L 5.889271331704126 9.871482465257728  L 0 9.871482465257728  Z M 4.749148108629057 5.476344458559495  L 1.1403641620486697 5.476344458559495  L 1.1403641620486697 8.892366324055896  L 4.749148108629057 8.892366324055896  L 4.749148108629057 5.476344458559495  Z M 13.46872956321206 12.815837086653579  L 13.46872956321206 7.43457674096316  L 14.603552128867932 7.43457674096316  L 14.603552128867932 9.138584132116874  L 20.717619522940833 9.138584132116874  L 20.717619522940833 7.43457674096316  L 21.8577427460159 7.43457674096316  L 21.8577427460159 12.815837086653579  L 13.46872956321206 12.815837086653579  Z M 20.717619522940833 10.080917734919352  L 14.603552128867932 10.080917734919352  L 14.603552128867932 11.845728914039343  L 20.717619522940833 11.845728914039343  L 20.717619522940833 10.080917734919352  Z M 13.447285994561664 1.5686376409901066  L 13.447285994561664 0.5950263694806944  L 21.484287336935946 0.5950263694806944  L 21.484287336935946 1.5686376409901066  L 13.447285994561664 1.5686376409901066  Z M 12.004302481671429 6.282057204450091  L 12.004302481671429 5.294433537359972  L 23.329879874711736 5.294433537359972  L 23.329879874711736 6.282057204450091  L 12.004302481671429 6.282057204450091  Z M 20.73617182390803 1.5481194903183586  C 20.73617182390803 1.5481194903183586  20.73617182390803 0.5950263694806944  20.73617182390803 0.5950263694806944  L 21.8625615254879 0.5950263694806944  C 21.8625615254879 0.5950263694806944  21.8625615254879 1.5481194903183586  21.8625615254879 1.5481194903183586  C 21.8625615254879 2.075283642779249  21.84589099040422 2.6599672447246  21.812205280005507 3.301920930053509  C 21.778651152962567 3.9437311168593854  21.66516594789453 4.69999661753817  21.471999449282347 5.5709281287292605  C 21.471999449282347 5.5709281287292605  20.332599043128077 5.5826885321630675  20.332599043128077 5.5826885321630675  C 20.53721340766229 4.707862401415194  20.655504811435 3.9493794850748376  20.687743090214436 3.3074257997459293  C 20.71998136899387 2.66547211441702  20.73617182390803 2.079021140922138  20.73617182390803 1.5481194903183586  Z M 30.34192682339173 3.8814335758555645  L 30.34192682339173 2.8970627863109675  L 34.1215365022545 2.8970627863109675  L 34.1215365022545 3.8814335758555645  L 30.34192682339173 3.8814335758555645  Z M 30.34192682339173 7.987565923701736  L 30.34192682339173 7.003195134157139  L 34.1215365022545 7.003195134157139  L 34.1215365022545 7.987565923701736  L 30.34192682339173 7.987565923701736  Z M 26.43510136646818 1.5593794510528545  C 26.905977590725893 1.1887048669255496  27.44298750445038 1.0033876121184124  28.046501221904798 1.0033876121184124  C 28.655409890033948 1.0033876121184124  29.193949878004474 1.1887048669255496  29.66199703989261 1.5593794510528545  C 30.130109995296852 1.9300540351801594  30.49612841354862 2.4542456484191546  30.759955942587688 3.131770412287793  C 31.023783471626746 3.809151738722596  31.15557773723884 4.607227724134571  31.15557773723884 5.526138507140932  C 31.15557773723884 6.448943970793274  31.023783471626746 7.2499425855534465  30.759955942587688 7.929264349232012  C 30.49612841354862 8.608449456377576  30.130109995296852 9.133596535197452  29.66199703989261 9.504407745313163  C 29.193949878004474 9.875082329440467  28.655409890033948 10.060399584247603  28.046501221904798 10.060399584247603  C 27.44298750445038 10.060399584247603  26.905977590725893 9.875082329440467  26.43510136646818 9.504407745313163  C 25.964356729242677 9.133596535197452  25.597005617293178 8.608449456377576  25.333046501221904 7.929264349232012  C 25.069218972182842 7.2499425855534465  24.93718376759715 6.448943970793274  24.93718376759715 5.526138507140932  C 24.93718376759715 4.607227724134571  25.069218972182842 3.809151738722596  25.333046501221904 3.131770412287793  C 25.597005617293178 2.4542456484191546  25.964356729242677 1.9300540351801594  26.43510136646818 1.5593794510528545  Z M 29.108078339586275 2.4964584055125685  C 28.80240684017948 2.2127779224808544  28.448427017742898 2.071082111098279  28.046501221904798 2.071082111098279  C 27.648128217113445 2.071082111098279  27.297426335295352 2.2127779224808544  26.994320724193717 2.4964584055125685  C 26.69134670012429 2.7799954205658493  26.453824195288032 3.180566446662853  26.281382301311396 3.698021326558109  C 26.109137787883082 4.215469364463336  26.022854782638625 4.824849557045054  26.022854782638625 5.526138507140932  C 26.022854782638625 6.227584639739902  26.109137787883082 6.839531372742293  26.281382301311396 7.361762328213419  C 26.453824195288032 7.883842943171483  26.69134670012429 8.287599557063851  26.994320724193717 8.573083881895524  C 27.297426335295352 8.858547711301705  27.648128217113445 9.001212611156024  28.046501221904798 9.001212611156024  C 28.448427017742898 9.001212611156024  28.80240684017948 8.858547711301705  29.108078339586275 8.573083881895524  C 29.413947219541388 8.287599557063851  29.65216942386275 7.883842943171483  29.82270333528379 7.361762328213419  C 29.993237246704837 6.839531372742293  30.078339586273362 6.227584639739902  30.078339586273362 5.526138507140932  C 30.078339586273362 4.824849557045054  29.993237246704837 4.215469364463336  29.82270333528379 3.698021326558109  C 29.65216942386275 3.180566446662853  29.413947219541388 2.7799954205658493  29.108078339586275 2.4964584055125685  Z M 33.86276804460813 13  L 33.86276804460813 0  L 35 0  L 35 13  L 33.86276804460813 13  Z " fill-rule="nonzero" fill="#91929f" stroke="none" transform="matrix(1 0 0 1 466 477 )" />
  </g>
</svg>