<?xml version="1.0" encoding="utf-8"?>
<svg version="1.1" xmlns:xlink="http://www.w3.org/1999/xlink" width="114px" height="22px" xmlns="http://www.w3.org/2000/svg">
  <g transform="matrix(1 0 0 1 -543 -163 )">
    <path d="M 5.32909343051569 4.32156622284513  C 5.32909343051569 4.32156622284513  5.32909343051569 2.4712902943237562  5.32909343051569 2.4712902943237562  L 7.977463153481471 2.4712902943237562  C 7.977463153481471 2.4712902943237562  7.977463153481471 4.32156622284513  7.977463153481471 4.32156622284513  C 7.977463153481471 5.700702402586693  7.74630143999742 7.007217310990331  7.283813332473312 8.241087070777855  C 6.821994508989402 9.474904253504539  6.1249079687399215 10.556199734747285  5.1925694198084305 11.484670637701472  C 4.259561556916584 12.412878420107335  3.0742344785552453 13.106887360260716  1.6365723868803819 13.566682725998596  C 1.6365723868803819 13.566682725998596  0 11.098764891380519  0 11.098764891380519  C 1.248249412431064 10.69869686091957  2.262272329635244 10.145062351026315  3.042009868739317 9.438069376313944  C 3.82174740784339 8.731076401601575  4.3976294179162165 7.931710059440628  4.7697616667204175 7.0400096355991595  C 5.142563229484976 6.148059206069059  5.32909343051569 5.241893680094002  5.32909343051569 4.32156622284513  Z M 5.994556067984648 4.32156622284513  C 5.994556067984648 4.32156622284513  5.994556067984648 2.4712902943237562  5.994556067984648 2.4712902943237562  L 8.604934369658464 2.4712902943237562  C 8.604934369658464 2.4712902943237562  8.604934369658464 4.32156622284513  8.604934369658464 4.32156622284513  C 8.604934369658464 4.975488653363426  8.706934391358454 5.6230009168532655  8.911071693488568 6.264103013314646  C 9.115208995618682 6.9049551628984265  9.431523108063299 7.511311996876984  9.859876802012447 8.083063244569026  C 10.288899780001794 8.654880301803663  10.832397047566879 9.169346900945287  11.490321540297352 9.626445339873861  C 12.147576719067468 10.083543778802435  12.929881707028857 10.454926758774862  13.837456058309414 10.740802382620883  C 13.837456058309414 10.740802382620883  12.206030896249233 13.172104940434478  12.206030896249233 13.172104940434478  C 10.805849787951107 12.731517051263713  9.647995459568605 12.068812252009925  8.732389460444415 11.183558163980377  C 7.8167834613202265 10.297975145859908  7.13156660725048 9.261810955002161  6.67644080368949 8.075354765241766  C 6.221984314088855 6.888845880798468  5.994556067984648 5.637554529587038  5.994556067984648 4.32156622284513  Z M 0.8554197439287903 4  L 0.8554197439287903 2  L 12.998213306672687 2  L 12.998213306672687 4  L 0.8554197439287903 4  Z M 16 15.866941135248775  L 16 0.04215574632095305  L 19 0.04215574632095305  L 19 15.866941135248775  L 16 15.866941135248775  Z M 3.59815525526494 21.5791652067274  L 3.59815525526494 19  L 19.022917405747087 19  L 19.022917405747087 21.5791652067274  L 3.59815525526494 21.5791652067274  Z M 3.59815525526494 20.314011037140855  L 3.59815525526494 14.443522249474421  L 6.793846550778857 14.443522249474421  L 6.793846550778857 20.314011037140855  L 3.59815525526494 20.314011037140855  Z M 27.207249975811916 17.97978714085494  L 27.207249975811916 12.812456201822005  L 30.35171412906763 12.812456201822005  L 30.35171412906763 17.97978714085494  L 27.207249975811916 17.97978714085494  Z M 34.26188925081433 17.969428871758936  L 34.26188925081433 12.802097932725998  L 37.401451285193666 12.802097932725998  L 37.401451285193666 17.969428871758936  L 34.26188925081433 17.969428871758936  Z M 22.093114458025607 19.540754204625088  L 22.093114458025607 17  L 42.295726771374206 17  L 42.295726771374206 19.540754204625088  L 22.093114458025607 19.540754204625088  Z M 24.378972490082887 4  L 24.378972490082887 1.4385949544498948  L 40.02678104944045 1.4385949544498948  L 40.02678104944045 9  L 27.590840777888864 9  L 27.590840777888864 12.424864225648214  L 24.413287322217563 12.424864225648214  L 24.413287322217563 6.250131394533987  L 36.84922759376915 6.250131394533987  L 36.84922759376915 4  L 24.378972490082887 4  Z M 24.413287322217563 13.632445690259287  L 24.413287322217563 11  L 40.53267971748315 11  L 40.53267971748315 13.632445690259287  L 24.413287322217563 13.632445690259287  Z M 59 22  L 59 0  L 62 0  L 62 22  L 59 22  Z M 46 16.882292396636302  L 46 1.7466932375613173  L 48.53416325345889 1.7466932375613173  L 48.53416325345889 7.086260511562719  L 53.145341374528336 7.086260511562719  L 53.145341374528336 1.7466932375613173  L 57 1.7466932375613173  L 57 16.882292396636302  L 46 16.882292396636302  Z M 53.145341374528336 9.527680448493342  L 48.53416325345889 9.527680448493342  L 48.53416325345889 14.361860546601262  L 53.145341374528336 14.361860546601262  L 53.145341374528336 9.527680448493342  Z M 88 11.03011124737211  L 88 0.018548528381219342  L 91 0.018548528381219342  L 91 11.03011124737211  L 88 11.03011124737211  Z M 80.70480859160836 2.5633102662929224  C 80.70480859160836 2.5633102662929224  80.70480859160836 0.8539549754730202  80.70480859160836 0.8539549754730202  C 80.70480859160836 0.8539549754730202  84.19756829103105 0.8539549754730202  84.19756829103105 0.8539549754730202  C 84.19756829103105 2.7913116904180537  83.81828545330994 4.472453918670889  83.05929628793498 5.897227575332866  C 82.30030712256003 7.32177104562333  81.16570183496871 8.497380658305435  79.65575515206244 9.424338647512263  C 78.14580846915615 10.351362446261689  76.26339482062518 11.056861738433517  74.0085142064695 11.540798002803085  C 74.0085142064695 11.540798002803085  72.93838165575515 9.007117203924317  72.93838165575515 9.007117203924317  C 74.80841326530098 8.640793825081369  76.31192112995654 8.138210465044263  77.44906633985873 7.499627715487035  C 78.58621154976095 6.860979156387212  79.41308195654409 6.120287814337471  79.92978359725224 5.277658549404345  C 80.44648523796039 4.434779278782589  80.70480859160836 3.530011926235314  80.70480859160836 2.5633102662929224  Z M 74.22126616570452 3.35583829712684  L 74.22126616570452 0.8539549754730202  L 82.04627342213048 0.8539549754730202  L 82.04627342213048 3.35583829712684  L 74.22126616570452 3.35583829712684  Z M 83.33013835585514 5.146855290819902  L 83.33013835585514 2.755299579537491  L 88.54182603928146 2.755299579537491  L 88.54182603928146 5.146855290819902  L 83.33013835585514 5.146855290819902  Z M 83.18356500145129 9.391818500350386  L 83.18356500145129 7.019052207428171  L 88.44035217854034 7.019052207428171  L 88.44035217854034 9.391818500350386  L 83.18356500145129 9.391818500350386  Z M 76.60369593962653 14  L 76.60369593962653 11.839742466713384  L 91.35172057922405 11.839742466713384  L 91.35172057922405 17.885358269096006  L 79.847428000129 17.885358269096006  L 79.847428000129 20.596815872459707  L 76.63899119553649 20.596815872459707  L 76.63899119553649 15.554747722494746  L 88.13715612603606 15.554747722494746  L 88.13715612603606 14  L 76.60369593962653 14  Z M 76.63899119553649 21.749715311843026  L 76.63899119553649 19  L 91.79462701970523 19  L 91.79462701970523 21.749715311843026  L 76.63899119553649 21.749715311843026  Z M 111 21.944354414856342  L 111 0.018548528381219342  L 114 0.018548528381219342  L 114 21.944354414856342  L 111 21.944354414856342  Z M 103.6040764988551 10.068478451296425  L 103.6040764988551 7.51624912403644  L 107.30174476731061 7.51624912403644  L 107.30174476731061 10.068478451296425  L 103.6040764988551 10.068478451296425  Z M 106 20.95815084092502  L 106 0.38060616678346176  L 109 0.38060616678346176  L 109 20.95815084092502  L 106 20.95815084092502  Z M 98.80318637726965 5.850494919411352  C 98.80318637726965 5.850494919411352  98.80318637726965 3.5957647161878064  98.80318637726965 3.5957647161878064  L 101.20669526236011 3.5957647161878064  C 101.20669526236011 3.5957647161878064  101.20669526236011 5.850494919411352  101.20669526236011 5.850494919411352  C 101.20669526236011 7.07865506916006  101.11483020089213 8.292897588653672  100.93144128745122 9.49323318149965  C 100.74738306004994 10.693503023614062  100.46245428199681 11.824953727481578  100.07626664946625 12.887613875262788  C 99.69074833089604 13.950274023044  99.18479281455095 14.909806265560329  98.55832553939433 15.766249124036438  C 97.9318582642377 16.622691982512553  97.17709208996658 17.321069729436758  96.29428193633696 17.861510161177296  C 96.29428193633696 17.861510161177296  94.38686748153643 15.546798353188507  94.38686748153643 15.546798353188507  C 95.48184657017973 14.862038711943491  96.35023736134683 14.002774276679933  96.99209855839004 12.968793798177995  C 97.63462906939361 11.934484448396164  98.09695249636171 10.801286233582527  98.37939820040636 9.569113524877364  C 98.66184390445102 8.33700668452583  98.80318637726965 7.097402143578639  98.80318637726965 5.850494919411352  Z M 99.51889573322153 5.850494919411352  C 99.51889573322153 5.850494919411352  99.51889573322153 3.5957647161878064  99.51889573322153 3.5957647161878064  L 101.9045118844132 3.5957647161878064  C 101.9045118844132 3.5957647161878064  101.9045118844132 5.850494919411352  101.9045118844132 5.850494919411352  C 101.9045118844132 7.0641179235146945  102.04069731859943 8.260906623139945  102.31310349275971 9.44071916608269  C 102.58550966691998 10.620334339208677  103.03776412256708 11.695163371267231  103.67025510368627 12.665272424667133  C 104.30274608480545 13.635249917792873  105.15857896629188 14.430028823178885  106.23749475924792 15.049601436580238  C 106.23749475924792 15.049601436580238  104.36709130196407 17.327216187806588  104.36709130196407 17.327216187806588  C 103.18510283464218 16.63239233261568  102.24069527143064 15.693328975043935  101.53391169735866 14.509766993693063  C 100.82712812328668 13.32600764252543  100.31477106920917 11.988844659667627  99.99685232366885 10.49822617379117  C 99.67826426416816 9.007344567366388  99.51889573322153 7.458068430632583  99.51889573322153 5.850494919411352  Z M 95.21802173702713 4.760708654519973  L 95.21802173702713 2.221728276103714  L 105.16932305608411 2.221728276103714  L 105.16932305608411 4.760708654519973  L 95.21802173702713 4.760708654519973  Z " fill-rule="nonzero" fill="#26262c" stroke="none" transform="matrix(1 0 0 1 543 163 )" />
  </g>
</svg>