<?xml version="1.0" encoding="utf-8"?>
<svg version="1.1" xmlns:xlink="http://www.w3.org/1999/xlink" width="34px" height="13px" xmlns="http://www.w3.org/2000/svg">
  <g transform="matrix(1 0 0 1 -695 -761 )">
    <path d="M 0.20751841323626363 2.9236202334037733  L 0.20751841323626363 9.820968263940449  L 1.3407955085172296 9.820968263940449  L 1.3407955085172296 2.9236202334037733  L 0.20751841323626363 2.9236202334037733  Z M 0 0.7521274772973898  C 0 1.192084665516514  0.3456210600226754 1.5042549545947796  0.7878951136693911 1.5042549545947796  C 1.230169167316107 1.5042549545947796  1.5757902273387823 1.192084665516514  1.5757902273387823 0.7521274772973898  C 1.5757902273387823 0.29797809247952245  1.230169167316107 0  0.7878951136693911 0  C 0.3456210600226754 0  0 0.29797809247952245  0 0.7521274772973898  Z M 3.607349699079161 2.9236202334037733  L 3.607349699079161 9.820968263940449  L 4.740626794360127 9.820968263940449  C 4.740626794360127 9.820968263940449  4.740626794360127 4.8253469644183  4.740626794360127 4.8253469644183  C 5.362574658395921 4.115738584628203  5.9292459814917295 3.7608848782530893  6.426804284488931 3.7608848782530893  C 7.283710208264291 3.7608848782530893  7.684688835801428 4.314448672304838  7.684688835801428 5.605935994821711  C 7.684688835801428 5.605935994821711  7.684688835801428 9.820968263940449  7.684688835801428 9.820968263940449  L 8.817965931082394 9.820968263940449  C 8.817965931082394 9.820968263940449  8.817965931082394 4.8253469644183  8.817965931082394 4.8253469644183  C 9.439913795118189 4.115738584628203  9.978942993538753 3.7608848782530893  10.504143421211197 3.7608848782530893  C 11.347228282648937 3.7608848782530893  11.748048799506616 4.314448672304838  11.748048799506616 5.605935994821711  C 11.748048799506616 5.605935994821711  11.748048799506616 9.820968263940449  11.748048799506616 9.820968263940449  L 12.881325894787583 9.820968263940449  C 12.881325894787583 9.820968263940449  12.881325894787583 5.449768690387801  12.881325894787583 5.449768690387801  C 12.881325894787583 3.6899399375113036  12.217893601477932 2.753345898299922  10.835787250030128 2.753345898299922  C 10.02034451326763 2.753345898299922  9.32930092892473 3.2926502753940827  8.624426690863206 4.073219487120909  C 8.348005414689364 3.250073776232045  7.795186016994585 2.753345898299922  6.772427286324938 2.753345898299922  C 5.970805611900063 2.753345898299922  5.265917839988046 3.2642124684462868  4.685433162965116 3.917052182686999  C 4.685433162965116 3.917052182686999  4.64397768436275 3.917052182686999  4.64397768436275 3.917052182686999  L 4.547328574365373 2.9236202334037733  L 3.607349699079161 2.9236202334037733  Z M 14.65041434212112 8.03284025358387  C 14.65041434212112 9.26755891055136  15.493535921483673 9.9912425990443  16.613042029673842 9.9912425990443  C 17.456126891111584 9.9912425990443  18.202371815259994 9.537113032903019  18.838140741633406 8.997810649761075  C 18.838140741633406 8.997810649761075  18.879596220235776 8.997810649761075  18.879596220235776 8.997810649761075  L 18.976486350457584 9.820968263940449  L 19.916224205519363 9.820968263940449  C 19.916224205519363 9.820968263940449  19.916224205519363 5.59158147238563  19.916224205519363 5.59158147238563  C 19.916224205519363 3.874329158248377  19.225203805250786 2.753345898299922  17.580497210545342 2.753345898299922  C 16.502454230525213 2.753345898299922  15.562550556373477 3.2357133021507094  14.940602692337684 3.647286157595141  C 14.940602692337684 3.647286157595141  15.382874804171069 4.456336741104575  15.382874804171069 4.456336741104575  C 15.908075231843512 4.087340384822181  16.612978420576525 3.7183162944771255  17.386957970326158 3.7183162944771255  C 18.492643075021533 3.7183162944771255  18.769208957445752 4.569854313949552  18.769208957445752 5.449768690387801  C 15.908248759343964 5.7761885475081565  14.65041434212112 6.528470495679604  14.65041434212112 8.03284025358387  Z M 18.769208957445752 8.132084451805738  C 18.119618968734716 8.728155500497065  17.59427584720381 9.054486264206979  16.94468585849277 9.054486264206979  C 16.281274807444113 9.054486264206979  15.756215131816797 8.728272297758771  15.756215131816797 7.947703086031945  C 15.756215131816797 7.067788709593698  16.530196741065417 6.500094048079589  18.769208957445752 6.216250690121271  C 18.769208957445752 6.216250690121271  18.769208957445752 8.132084451805738  18.769208957445752 8.132084451805738  Z M 21.519490738443434 11.140841852761437  C 21.519490738443434 12.332983950144094  22.652783250545397 13  24.297489845250837 13  C 26.384470552445823 13  27.69756215131817 11.892959420720535  27.69756215131817 10.615664325013801  C 27.69756215131817 9.46609878721598  26.909636204006784 8.969349096655053  25.347855983327072 8.969349096655053  C 25.347855983327072 8.969349096655053  24.048756973636642 8.969349096655053  24.048756973636642 8.969349096655053  C 23.136566741667966 8.969349096655053  22.86004522673623 8.657178807576788  22.86004522673623 8.217221619357664  C 22.86004522673623 7.834033096687923  23.05362109661599 7.606946516094179  23.28857918577697 7.394064005178288  C 23.592642586626056 7.550177850544794  23.96578431972651 7.635368477164126  24.297489845250837 7.635368477164126  C 25.66577519320385 7.635368477164126  26.75758327603196 6.712911196637562  26.75758327603196 5.236925771507987  C 26.75758327603196 4.655046889204005  26.522808364595257 4.1297881834320025  26.204923901408552 3.817560492698993  C 26.204923901408552 3.817560492698993  27.586933868303714 3.817560492698993  27.586933868303714 3.817560492698993  L 27.586933868303714 2.9236202334037733  C 27.586933868303714 2.9236202334037733  25.251206873329696 2.9236202334037733  25.251206873329696 2.9236202334037733  C 25.002427721831094 2.8242750611395016  24.670658557788034 2.753345898299922  24.297489845250837 2.753345898299922  C 22.929204497297828 2.753345898299922  21.768223610057632 3.7040944604976964  21.768223610057632 5.208464218401964  C 21.768223610057632 6.031609929290829  22.196755627285043 6.698626009358134  22.639029680931756 7.067622365640528  C 22.639029680931756 7.067622365640528  22.639029680931756 7.124545471852572  22.639029680931756 7.124545471852572  C 22.293503093069805 7.3658123306488505  21.906569218881806 7.819971594593614  21.906569218881806 8.401850476897597  C 21.906569218881806 8.941152860039539  22.16897854658325 9.31010566659282  22.50068407210758 9.52298817750871  C 22.50068407210758 9.52298817750871  22.50068407210758 9.579663791954614  22.50068407210758 9.579663791954614  C 21.89255727040941 10.005428813786391  21.519490738443434 10.558962970457456  21.519490738443434 11.140841852761437  Z M 25.721196310972797 5.208464218401964  C 25.721196310972797 6.216108152749122  25.07146939500047 6.854779446760714  24.297489845250837 6.854779446760714  C 23.523510295501204 6.854779446760714  22.87402439975331 6.216108152749122  22.87402439975331 5.208464218401964  C 22.87402439975331 4.2008202840548075  23.509689233163584 3.6047175738191783  24.297489845250837 3.6047175738191783  C 25.08529045733809 3.6047175738191783  25.721196310972797 4.2008202840548075  25.721196310972797 5.208464218401964  Z M 26.591761361622492 10.785938660117655  C 26.591761361622492 11.509739206295096  25.748670733587588 12.190949416490566  24.463311759660304 12.190949416490566  C 23.247058156263957 12.190949416490566  22.51466324512466 11.722667260892315  22.51466324512466 10.984674548327527  C 22.51466324512466 10.587293859270442  22.72193098791266 10.1757724538355  23.20566822857224 9.820968263940449  C 23.495910567083705 9.906121269817374  23.81387408561014 9.934566984598396  24.07647429944636 9.934566984598396  C 24.07647429944636 9.934566984598396  25.23746872053705 9.934566984598396  25.23746872053705 9.934566984598396  C 26.108195765492862 9.934566984598396  26.591761361622492 10.147291112264288  26.591761361622492 10.785938660117655  Z M 28.305656177561016 6.386525025225122  C 28.305656177561016 8.643079782927114  29.7291890569397 9.9912425990443  31.525927396201805 9.9912425990443  C 32.43811762817048 9.9912425990443  33.1568032783458 9.664872228192614  33.73728795536873 9.281683705522873  C 33.73728795536873 9.281683705522873  33.336471322137704 8.515201705789403  33.336471322137704 8.515201705789403  C 32.838913019140506 8.84162156290976  32.29980091117496 9.054486264206979  31.66403198480155 9.054486264206979  C 30.378673010874266 9.054486264206979  29.50812150143042 8.117836877715865  29.425195120049338 6.65604355855084  C 29.425195120049338 6.65604355855084  33.958544521397634 6.65604355855084  33.958544521397634 6.65604355855084  C 33.98618664975055 6.485737546796989  34 6.230320107601656  34 5.989053248805376  C 34 4.016341939695894  33.032461850740695 2.753345898299922  31.318650003189973 2.753345898299922  C 29.784511907185507 2.753345898299922  28.305656177561016 4.129970267523131  28.305656177561016 6.386525025225122  Z M 33.00482749331878 5.818778913701525  C 33.00482749331878 5.818778913701525  29.41121594703226 5.818778913701525  29.41121594703226 5.818778913701525  C 29.549426585119182 4.4563308196707165  30.40653497235578 3.675747710701163  31.346367328999698 3.675747710701163  C 32.39676818434458 3.675747710701163  33.00482749331878 4.427946486896025  33.00482749331878 5.818778913701525  Z " fill-rule="nonzero" fill="#000000" stroke="none" transform="matrix(1 0 0 1 695 761 )" />
  </g>
</svg>