<?xml version="1.0" encoding="utf-8"?>
<svg version="1.1" xmlns:xlink="http://www.w3.org/1999/xlink" width="23px" height="13px" xmlns="http://www.w3.org/2000/svg">
  <g transform="matrix(1 0 0 1 -466 -345 )">
    <path d="M 1.4647010749984286 12.815837086653579  L 1.4647010749984286 7.43457674096316  L 2.5997359652982963 7.43457674096316  L 2.5997359652982963 9.138584132116874  L 8.714706313782191 9.138584132116874  L 8.714706313782191 7.43457674096316  L 9.855283837304333 7.43457674096316  L 9.855283837304333 12.815837086653579  L 1.4647010749984286 12.815837086653579  Z M 8.714706313782191 10.080917734919352  L 2.5997359652982963 10.080917734919352  L 2.5997359652982963 11.845728914039343  L 8.714706313782191 11.845728914039343  L 8.714706313782191 10.080917734919352  Z M 1.4432534942687707 1.5686376409901066  L 1.4432534942687707 0.5950263694806944  L 9.481517570880744 0.5950263694806944  L 9.481517570880744 1.5686376409901066  L 1.4432534942687707 1.5686376409901066  Z M 0 6.282057204450091  L 0 5.294433537359972  L 11.32769640200331 5.294433537359972  L 11.32769640200331 6.282057204450091  L 0 6.282057204450091  Z M 8.733503069927286 1.5481194903183586  C 8.733503069927286 1.5481194903183586  8.733503069927286 0.5950263694806944  8.733503069927286 0.5950263694806944  L 9.860103518367175 0.5950263694806944  C 9.860103518367175 0.5950263694806944  9.860103518367175 1.5481194903183586  9.860103518367175 1.5481194903183586  C 9.860103518367175 2.075283642779249  9.843188880182906 2.6599672447246  9.80949686720731 3.301920930053509  C 9.775936462206657 3.9437311168593854  9.662671008175696 4.69999661753817  9.469468368223634 5.5709281287292605  C 9.469468368223634 5.5709281287292605  8.32961379686092 5.5826885321630675  8.32961379686092 5.5826885321630675  C 8.534305936944811 4.707862401415194  8.652820964702999 3.9493794850748376  8.685065275245698 3.3074257997459293  C 8.7173095857884 2.66547211441702  8.733503069927286 2.079021140922138  8.733503069927286 1.5481194903183586  Z M 18.34105530060141 3.8814335758555645  L 18.34105530060141 2.8970627863109675  L 22.121131158190316 2.8970627863109675  L 22.121131158190316 3.8814335758555645  L 18.34105530060141 3.8814335758555645  Z M 18.34105530060141 7.987565923701736  L 18.34105530060141 7.003195134157139  L 22.121131158190316 7.003195134157139  L 22.121131158190316 7.987565923701736  L 18.34105530060141 7.987565923701736  Z M 14.433257894847133 1.5593794510528545  C 14.904222219773363 1.1887048669255496  15.441639427037495 1.0033876121184124  16.04520022631546 1.0033876121184124  C 16.65428865614637 1.0033876121184124  17.19286356939334 1.1887048669255496  17.66099830263406 1.5593794510528545  C 18.129264647526853 1.9300540351801594  18.495110563559297 2.4542456484191546  18.758921648750025 3.131770412287793  C 19.02279853976679 3.809151738722596  19.154858448062697 4.607227724134571  19.154858448062697 5.526138507140932  C 19.154858448062697 6.448943970793274  19.02279853976679 7.2499425855534465  18.758921648750025 7.929264349232012  C 18.495110563559297 8.608449456377576  18.129264647526853 9.133596535197452  17.66099830263406 9.504407745313163  C 17.19286356939334 9.875082329440467  16.65428865614637 10.060399584247603  16.04520022631546 10.060399584247603  C 15.441639427037495 10.060399584247603  14.904222219773363 9.875082329440467  14.433257894847133 9.504407745313163  C 13.962425181572971 9.133596535197452  13.595005338443439 8.608449456377576  13.330996835774608 7.929264349232012  C 13.067119944757845 7.2499425855534465  12.935301020515077 6.448943970793274  12.935301020515077 5.526138507140932  C 12.935301020515077 4.607227724134571  13.067119944757845 3.809151738722596  13.330996835774608 3.131770412287793  C 13.595005338443439 2.4542456484191546  13.962425181572971 1.9300540351801594  14.433257894847133 1.5593794510528545  Z M 17.106734980406948 2.4964584055125685  C 16.801006290039858 2.2127779224808544  16.44726702806294 2.071082111098279  16.04520022631546 2.071082111098279  C 15.646818491991946 2.071082111098279  15.295985188229093 2.2127779224808544  14.992822866243374 2.4964584055125685  C 14.689792155909723 2.7799954205658493  14.451984226697398 3.180566446662853  14.279510068942393 3.698021326558109  C 14.107233328665496 4.215469364463336  14.021175163973933 4.824849557045054  14.021175163973933 5.526138507140932  C 14.021175163973933 6.227584639739902  14.107233328665496 6.839531372742293  14.279510068942393 7.361762328213419  C 14.451984226697398 7.883842943171483  14.689792155909723 8.287599557063851  14.992822866243374 8.573083881895524  C 15.295985188229093 8.858547711301705  15.646818491991946 9.001212611156024  16.04520022631546 9.001212611156024  C 16.44726702806294 9.001212611156024  16.801006290039858 8.858547711301705  17.106734980406948 8.573083881895524  C 17.412661088252143 8.287599557063851  17.650927863809795 7.883842943171483  17.82149368202678 7.361762328213419  C 17.99205950024377 6.839531372742293  18.07741874646382 6.227584639739902  18.07741874646382 5.526138507140932  C 18.07741874646382 4.824849557045054  17.99205950024377 4.215469364463336  17.82149368202678 3.698021326558109  C 17.650927863809795 3.180566446662853  17.412661088252143 2.7799954205658493  17.106734980406948 2.4964584055125685  Z M 21.862555269168713 13  L 21.862555269168713 0  L 23 0  L 23 13  L 21.862555269168713 13  Z " fill-rule="nonzero" fill="#91929f" stroke="none" transform="matrix(1 0 0 1 466 345 )" />
  </g>
</svg>