<?xml version="1.0" encoding="utf-8"?>
<svg version="1.1" xmlns:xlink="http://www.w3.org/1999/xlink" width="382px" height="36px" xmlns="http://www.w3.org/2000/svg">
  <g transform="matrix(1 0 0 1 -409 -924 )">
    <path d="M 0 4  C 0 1.790860891342163  1.7908608913421633 0  4 0  C 4 0  378 0  378 0  C 380.20913910865784 0  382 1.790860891342163  382 4  C 382 4  382 32  382 32  C 382 34.20913910865784  380.20913910865784 36  378 36  C 378 36  4 36  4 36  C 1.7908608913421633 36  0 34.20913910865784  0 32  C 0 32  0 4  0 4  Z " fill-rule="nonzero" fill="#fc4a36" stroke="none" transform="matrix(1 0 0 1 409 924 )" />
  </g>
</svg>