<?xml version="1.0" encoding="utf-8"?>
<svg version="1.1" xmlns:xlink="http://www.w3.org/1999/xlink" width="75px" height="15px" xmlns="http://www.w3.org/2000/svg">
  <g transform="matrix(1 0 0 1 -426 -293 )">
    <path d="M 3.5626862667437167 3.011958517342331  C 3.5626862667437167 3.011958517342331  3.5626862667437167 1.6754329380241155  3.5626862667437167 1.6754329380241155  L 5.132196632751781 1.6754329380241155  C 5.132196632751781 1.6754329380241155  5.132196632751781 3.011958517342331  5.132196632751781 3.011958517342331  C 5.132196632751781 3.9446844917630126  4.974422291484602 4.824410580833964  4.659103452305974 5.6507715972808015  C 4.3437846131273465 6.476963255024841  3.8785440028423936 7.200187244338622  3.2631985611604217 7.820423758249392  C 2.6480193271656653 8.44045705383116  1.884055263490085 8.905776813238104  0.971508898599469 9.216741924279264  C 0.971508898599469 9.216741924279264  0 7.699349972708777  0 7.699349972708777  C 0.7988520440061269 7.428187033984937  1.460474140391913 7.05049968207083  1.9848973787926993 6.5662680494219225  C 2.509486884325512 6.082036416773014  2.903397111627118 5.531108346830341  3.167021615058469 4.913412395176897  C 3.4308123261770365 4.295716443523451  3.5626862667437167 3.661834984827011  3.5626862667437167 3.011958517342331  Z M 3.952507255880997 3.011958517342331  C 3.952507255880997 3.011958517342331  3.952507255880997 1.6754329380241155  3.952507255880997 1.6754329380241155  L 5.500590859213183 1.6754329380241155  C 5.500590859213183 1.6754329380241155  5.500590859213183 3.011958517342331  5.500590859213183 3.011958517342331  C 5.500590859213183 3.474171913475196  5.573930120087011 3.9284116402102045  5.720702148519931 4.374534808713343  C 5.8674741769528485 4.820488588227791  6.088739914181478 5.240361248654821  6.384444819593151 5.6341487619709225  C 6.68031593269204 6.027936275287023  7.047178474470804 6.380346356234183  7.485001266126885 6.6913114672753435  C 7.922824057782967 7.002107219613705  8.432721897550348 7.253238721703771  9.014823423996676 7.444797300650027  C 9.014823423996676 7.444797300650027  8.048671216066177 8.940604376519625  8.048671216066177 8.940604376519625  C 7.157567247836323 8.644001925310437  6.408882996870851 8.201180948652961  5.802513424191464 7.611769959807473  C 5.196143851512078 7.02222347188539  4.736169011060045 6.3305651948143575  4.422678605052821 5.53689277030715  C 4.109188199045596 4.743050987097144  3.952507255880997 3.9013255141139034  3.952507255880997 3.011958517342331  Z M 0.5069377260361139 2.670818240460477  L 0.5069377260361139 1.1261350667394434  L 8.50837266983956 1.1261350667394434  L 8.50837266983956 2.670818240460477  L 0.5069377260361139 2.670818240460477  Z M 11 10.862402619957326  L 11 0.027043120130997866  L 12 0.027043120130997866  L 12 10.862402619957326  L 11 10.862402619957326  Z M 2.3776401992039635 14.696819332109364  L 2.3776401992039635 13  L 12.450897002201113 13  L 12.450897002201113 14.696819332109364  L 2.3776401992039635 14.696819332109364  Z M 2.3776401992039635 13.89793082915695  L 2.3776401992039635 9.876445194263882  L 4.267578061592204 9.876445194263882  L 4.267578061592204 13.89793082915695  L 2.3776401992039635 13.89793082915695  Z M 18.051804068487726 12.314791842405597  L 18.051804068487726 8.749069617426686  L 19.914958477531115 8.749069617426686  L 19.914958477531115 12.314791842405597  L 18.051804068487726 12.314791842405597  Z M 22.706524773882723 12.304123455564929  L 22.706524773882723 8.738401230586017  L 24.564322492257148 8.738401230586017  L 24.564322492257148 12.304123455564929  L 22.706524773882723 12.304123455564929  Z M 14.591381896333425 13  L 14.591381896333425 11.69528109958815  L 27.886201164836734 11.69528109958815  L 27.886201164836734 13  L 14.591381896333425 13  Z M 16.127778174569677 2.5626457599364856  L 16.127778174569677 1  L 26.35004837253998 1  L 26.35004837253998 5.857192477546767  L 18.03354262302533 5.857192477546767  L 18.03354262302533 8.520567657420731  L 16.15456162791453 8.520567657420731  L 16.15456162791453 4.340048627995832  L 24.47082389148968 4.340048627995832  L 24.47082389148968 2.5626457599364856  L 16.127778174569677 2.5626457599364856  Z M 16.15456162791453 9  L 16.15456162791453 7.710266461568996  L 26.68508502529007 7.710266461568996  L 26.68508502529007 9  L 16.15456162791453 9  Z M 39 15  L 39 0  L 41 0  L 41 15  L 39 15  Z M 30 11.477447526422864  L 30 1.2134669776211977  L 31.905423568140353 1.2134669776211977  L 31.905423568140353 4.940455515307895  L 35.273564569224675 4.940455515307895  L 35.273564569224675 1.2134669776211977  L 37 1.2134669776211977  L 37 11.477447526422864  L 30 11.477447526422864  Z M 35.273564569224675 6.447179080037712  L 31.905423568140353 6.447179080037712  L 31.905423568140353 9.922095965861162  L 35.273564569224675 9.922095965861162  L 35.273564569224675 6.447179080037712  Z M 58 14.967498635438893  L 58 0.010916488860219321  L 60 0.010916488860219321  L 60 14.967498635438893  L 58 14.967498635438893  Z M 56.742450312635945 7.42916687341835  L 56.742450312635945 5.868357068426537  L 59.292722042944426 5.868357068426537  L 59.292722042944426 7.42916687341835  L 56.742450312635945 7.42916687341835  Z M 55 14.247010370664416  L 55 0.2922641790304173  L 57 0.2922641790304173  L 57 14.247010370664416  L 55 14.247010370664416  Z M 48.702788076331224 10.347342827370614  L 48.702788076331224 1.7116558328784797  L 50.59783914344893 1.7116558328784797  L 50.59783914344893 10.347342827370614  L 48.702788076331224 10.347342827370614  Z M 48.702788076331224 11.266808911824542  L 48.702788076331224 9.607998809110306  C 48.702788076331224 9.607998809110306  49.69840208294105 9.607998809110306  49.69840208294105 9.607998809110306  C 50.421391433912284 9.607998809110306  51.19503715481302 9.581068163207226  52.019553544181335 9.526869448717312  C 52.843936955510905 9.472670734227398  53.71884292650392 9.35342681465306  54.64408848603689 9.16935443854513  C 54.64408848603689 9.16935443854513  54.82524202502386 10.827916439239814  54.82524202502386 10.827916439239814  C 53.86096809473749 11.012192063962638  52.953273317969966 11.131661193208624  52.10209527767137 11.185927653451099  C 51.2510502154115 11.239923123111856  50.449848258643094 11.266808911824542  49.69840208294105 11.266808911824542  C 49.69840208294105 11.266808911824542  48.702788076331224 11.266808911824542  48.702788076331224 11.266808911824542  Z M 69.31996000337634 3.6302287500620256  L 69.31996000337634 2.0800873319108817  L 73.69759370962191 2.0800873319108817  L 73.69759370962191 3.6302287500620256  L 69.31996000337634 3.6302287500620256  Z M 69.31996000337634 6.908896938421079  L 69.31996000337634 5.353297275839825  L 73.69759370962191 5.353297275839825  L 73.69759370962191 6.908896938421079  L 69.31996000337634 6.908896938421079  Z M 65.04970359644965 11.111745149605518  L 65.04970359644965 9.583436709174812  L 75 9.583436709174812  L 75 14.978415124299111  L 73.09447903748385 14.978415124299111  L 73.09447903748385 11.111745149605518  L 65.04970359644965 11.111745149605518  Z M 73.09447903748385 8.85848260804843  L 73.09447903748385 0.021832977720438643  L 75 0.021832977720438643  L 75 8.85848260804843  L 73.09447903748385 8.85848260804843  Z M 64.85296695733477 1.2792140128020641  C 65.43473600896186 0.9646920964291141  66.08925950342743 0.807323971617129  66.8164375734516 0.807323971617129  C 67.54348266543703 0.807323971617129  68.19623981683466 0.9646920964291141  68.77455149889944 1.2792140128020641  C 69.35279672166726 1.5937359291750142  69.81124775387391 2.0283788975276633  70.15000357112712 2.583238227559172  C 70.48895885543841 3.1380975575906813  70.65840221280021 3.7714160015723466  70.65840221280021 4.4834515952959855  C 70.65840221280021 5.1956565477224235  70.48895885543841 5.8301678923810965  70.15000357112712 6.386890289286955  C 69.81124775387391 6.943612686192813  69.35279672166726 7.379369811905718  68.77455149889944 7.693891728278668  C 68.19623981683466 8.008379754739524  67.54348266543703 8.165533667444052  66.8164375734516 8.165533667444052  C 66.08925950342743 8.165533667444052  65.43473600896186 8.008379754739524  64.85296695733477 7.693891728278668  C 64.27119790570768 7.379369811905718  63.810869992809934 6.943612686192813  63.47191470849863 6.386890289286955  C 63.13315889124543 5.8301678923810965  62.96375955276502 5.1956565477224235  62.96375955276502 4.4834515952959855  C 62.96375955276502 3.7714160015723466  63.13315889124543 3.1380975575906813  63.47191470849863 2.583238227559172  C 63.810869992809934 2.0283788975276633  64.27119790570768 1.5937359291750142  64.85296695733477 1.2792140128020641  Z M 67.85441813353418 2.7040639110802362  C 67.54558186971546 2.5382497175416656  67.1971563436438 2.455465687490696  66.80913299526664 2.455465687490696  C 66.4212426249282 2.455465687490696  66.07345770584556 2.5382497175416656  65.76555225857557 2.7040639110802362  C 65.45791276738306 2.8697087307730627  65.21478783621224 3.1041803579084846  65.03606838383773 3.4071850344861807  C 64.8574154056214 3.710020352361078  64.76799036444976 4.068662058252416  64.76799036444976 4.4834515952959855  C 64.76799036444976 4.8984104910423545  64.8574154056214 5.259359224685065  65.03606838383773 5.565920706594552  C 65.21478783621224 5.872482188504038  65.45842039633335 6.107571738674724  65.76725666015206 6.271522850196001  C 66.07629239102889 6.4354739617172765  66.42482842500131 6.5173919515704855  66.81278528435911 6.5173919515704855  C 67.20074214371691 6.5173919515704855  67.54848304391817 6.4354739617172765  67.85612253511067 6.271522850196001  C 68.16396149336127 6.107571738674724  68.40737392935301 5.872482188504038  68.58609338172751 5.565920706594552  C 68.76474635994386 5.259359224685065  68.853927915176 4.8984104910423545  68.853927915176 4.4834515952959855  C 68.853927915176 4.068662058252416  68.76474635994386 3.710020352361078  68.58609338172751 3.4071850344861807  C 68.40737392935301 3.1041803579084846  68.16338737539164 2.8697087307730627  67.85441813353418 2.7040639110802362  Z " fill-rule="nonzero" fill="#26262c" stroke="none" transform="matrix(1 0 0 1 426 293 )" />
  </g>
</svg>