<?xml version="1.0" encoding="utf-8"?>
<svg version="1.1" xmlns:xlink="http://www.w3.org/1999/xlink" width="54px" height="14px" xmlns="http://www.w3.org/2000/svg">
  <g transform="matrix(1 0 0 1 -719 -600 )">
    <path d="M 1.9779470458512034 1.8941677367033858  C 2.478397962649077 1.7049393821118723  3.030720734121112 1.6103264175170644  3.634678608634476 1.6103264175170644  C 4.250805945154692 1.6103264175170644  4.807761396712816 1.7037618061799638  5.305778415163774 1.8906197202135566  C 5.803795433614731 2.077484087548627  6.1985525020494965 2.3554092740306842  6.489575582103283 2.7244035953233765  C 6.780592032873531 3.0933979166160688  6.925980544694438 3.551089647275947  6.925980544694438 4.0974859768872065  C 6.925980544694438 4.5161497571496225  6.837096255492628 4.8823069068252325  6.659315681950401 5.195715347705615  C 6.4815417525555805 5.509123788585999  6.241661454625075 5.782793058836356  5.939685846874028 6.0169628978847065  C 5.637710239122981 6.251132736933056  5.299206535867126 6.458112737943475  4.924167602451531 6.637865783604785  C 5.343043223245784 6.836543605046763  5.729524448692001 7.0642978662799045  6.08385534344432 7.320977225113199  C 6.438192897207909 7.577591993184059  6.723361740204171 7.878468180344041  6.938887611110359 8.223829154558358  C 7.154406823005278 8.569125538010239  7.26205133061843 8.974784342172928  7.26205133061843 9.44079881056971  C 7.26205133061843 10.020297314014243  7.110574193461612 10.521772515220304  6.807381651400971 10.945157802257214  C 6.504189109340331 11.368543089294125  6.082151766212895 11.694923258056559  5.541515024420603 11.924410353450023  C 5.00087828262831 12.153832858081056  4.370134951469549 12.268567952963439  3.6492903819355185 12.268567952963439  C 2.872426344993438 12.268567952963439  2.2117344673805692 12.158101709789541  1.6674468632040371 11.936946678380753  C 1.1231592590275052 11.715791646971963  0.70916088834487 11.39814116373621  0.42544613261537206 10.984185983645334  C 0.14173735215937996 10.570230803554459  0 10.073517561361678  0 9.494019057917146  C 0 9.018574511448161  0.0981422768972263 8.60510764560595  0.29418370246100145 8.253869027505576  C 0.4902257820348121 7.902630409405202  0.7525095058707112 7.599866335606457  1.0812712242771907 7.345576806109348  C 1.4100396016949404 7.091287276612236  1.7704595974268313 6.87554529469392  2.1625424485543814 6.698182063931878  C 1.826472376095883 6.506544520099751  1.5196241260311953 6.288953414662283  1.2420007305886651 6.045347029803338  C 0.9643773351461347 5.801721270603047  0.7439885577575156 5.519533671277064  0.580817988716464 5.19902682976279  C 0.4176560704445176 4.878526427113076  0.3360707859239917 4.50787613380114  0.3360707859239917 4.086841927417719  C 0.3360707859239917 3.5499080145706268  0.48462405230642785 3.097419694943179  0.7817298716058069 2.7296073528417923  C 1.078837682663021 2.361801478478798  1.4774961290533297 2.083396091294899  1.9779470458512034 1.8941677367033858  Z M 1.8630010958829977 8.585726836520916  C 1.714453834501796 8.831748892795785  1.64017155304209 9.11437144752869  1.64017155304209 9.433702777590053  C 1.64017155304209 9.885442918479832  1.8050449263936148 10.258026285977785  2.135023608837417 10.551327971886193  C 2.4650089205647605 10.8446296577946  2.9601028114345582 10.991282016624993  3.620066835333432 10.991282016624993  C 4.270288606833371 10.991282016624993  4.765870270278698 10.84701065173816  5.106814768714569 10.55842400486585  C 5.447752608139171 10.269901948755976  5.618226834251079 9.890240219063621  5.618226834251079 9.419510711630735  C 5.618226834251079 9.114389118313941  5.53226176343408 8.846416424148476  5.360572565042685 8.615766709468136  C 5.188890025662562 8.385181585550228  4.95826771542747 8.178405838028164  4.668461569683276 7.995100358180712  C 4.378662082950352 7.811794878333261  4.057198492257156 7.643177747871454  3.7040845318144306 7.48938974116375  C 3.7040845318144306 7.48938974116375  3.4739491023230014 7.393593295938366  3.4739491023230014 7.393593295938366  C 3.0940423722135737 7.552096341682172  2.76771588990181 7.728778106695641  2.4949602911531126 7.923903493951477  C 2.2222046924044148 8.119093471969746  2.011555001411605 8.339769371008481  1.8630010958829977 8.585726836520916  Z M 4.803620472717925 3.231769953368926  C 4.4992109666199624 3.0070624877739944  4.104690798456674 2.8947083868351693  3.620066835333432 2.8947083868351693  C 3.147618993228314 2.8947083868351693  2.7591874206732068 3.007536249611276  2.454777914575244 3.2334256943975133  C 2.1503617494660108 3.4593151391837504  1.9981599989176462 3.7817082070914396  1.9981599989176462 4.200378455092249  C 1.9981599989176462 4.498408115513543  2.072435636229947 4.753868926447163  2.2209895417585543 4.9667500168953165  C 2.3695434472871613 5.17963110734347  2.5699662644447696 5.363417076631085  2.822020483541461 5.518348313847402  C 3.0740747026381525 5.673279551063718  3.3534058074664217 5.817090089590057  3.6602492119113013 5.949550584577954  C 3.9573570229685155 5.821818049666027  4.226454654405771 5.680605665174555  4.467549686793933 5.5256808812597145  C 4.708644719182096 5.370749644043398  4.901035252633903 5.185543111089743  5.044714732185136 4.970298033385145  C 5.188400855883776 4.755046502379072  5.260238388375523 4.497224057406326  5.260238388375523 4.1968304386024196  C 5.260238388375523 3.7781601906016107  5.108036637827158 3.456477418963858  4.803620472717925 3.231769953368926  Z M 9.198111293006642 10.437791444211665  C 9.198111293006642 10.437791444211665  10.871159335976081 10.437791444211665  10.871159335976081 10.437791444211665  C 10.871159335976081 10.437791444211665  10.973441749083381 10.6010002027438  10.973441749083381 10.6010002027438  C 10.885795010371147 10.94397134762193  10.773762065692415 11.311792727232769  10.63737096315939 11.704433331080626  C 10.50104636155588 12.09707393492848  10.352441904024305 12.490399281704853  10.191711877477575 12.8842670811651  C 10.030981850930846 13.278070289862915  9.869060931565024 13.649923986749585  9.705870415217891 14  C 9.705870415217891 14  8.449257911328184 14  8.449257911328184 14  C 8.549100718364622 13.619179303560529  8.646511707995167 13.218947538259972  8.741493377349045 12.799114685409204  C 8.836468395123585 12.379217241796004  8.924140283494458 11.965085324978775  9.004505296767821 11.557072379536393  C 9.084870310041186 11.14905943409401  9.149406834945916 10.776047550053695  9.198111293006642 10.437791444211665  Z M 19.49575852691678 4.054909779009259  C 19.75637126997598 4.85203023958087  19.886623462719683 5.811158422764116  19.886623462719683 6.932351152260593  C 19.886623462719683 7.772016857962129  19.820149897580706 8.52188096120888  19.68741628671546 9.181793606812192  C 19.55468267585022 9.841770872051766  19.344243278811536 10.401160397239252  19.055700621000366 10.860005406501319  C 18.767091462259685 11.318915006525815  18.391351489541545 11.668482753709577  17.928645840379907 11.908562546462122  C 17.465940191218262 12.148642339214662  16.907034422278983 12.268567952963439  16.251944854085206 12.268567952963439  C 15.426349815936472 12.268567952963439  14.746179676348799 12.057587930058405  14.211654242149555 11.635365276745286  C 13.677128807950309 11.213142623432168  13.280387473067998 10.603345624126195  13.021038247669557 9.806244509022099  C 12.761622521341604 9.009078832029402  12.631878018751776 8.051108778252138  12.631878018751776 6.932351152260593  C 12.631878018751776 5.818256881145672  12.749939717120444 4.862674289050356  12.986213521302071 4.065553828478746  C 13.222420824554185 3.268433367907135  13.606022755955482 2.6565177222961682  14.136890668759216 2.229573562208556  C 14.667825112220196 1.8026294021209428  15.37281742978231 1.58903831857809  16.251944854085206 1.58903831857809  C 17.079933925696427 1.58903831857809  17.762311884252853 1.800741544356014  18.299297823116365 2.2241332702574845  C 18.836283761979878 2.6475314638973484  19.2352122847871 3.2577893184376476  19.49575852691678 4.054909779009259  Z M 14.542367377863165 4.748428735554504  C 14.423066731801661 5.333856595918408  14.363373154925387 6.061889079210524  14.363373154925387 6.932351152260593  C 14.363373154925387 7.809866409523467  14.423751472876843 8.541476880343144  14.5443156143033 9.12691761843617  C 14.664813262232181 9.712358356529196  14.863305679586983 10.150920711434065  15.139745376320809 10.442995201730081  C 15.416118572125127 10.73513428278853  15.786778729987029 10.881293505440292  16.251944854085206 10.881293505440292  C 16.714650503246848 10.881293505440292  17.084802941227142 10.736529004374832  17.362439624964484 10.446779752652565  C 17.640076308701826 10.157030500930299  17.840512429018112 9.719217855076197  17.963470566747393 9.133777116983174  C 18.086428704476674 8.548336378890147  18.147822439895553 7.814581448559569  18.147822439895553 6.932351152260593  C 18.147822439895553 6.061889079210524  18.086936416926353 5.333856595918408  17.965175273632514 4.748428735554504  C 17.843414130338676 4.163007342928993  17.644414000534198 3.722576533474374  17.368040804729887 3.426910860309522  C 17.091601107996055 3.1312387194062774  16.719504981918142 2.983408799080895  16.251944854085206 2.983408799080895  C 15.781924251315736 2.983408799080895  15.409320375628484 3.1312387194062774  15.134144196555408 3.426910860309522  C 14.858968017482336 3.722576533474374  14.661734524854179 4.163007342928993  14.542367377863165 4.748428735554504  Z M 28.050951794677523 4.054909779009259  C 28.311564537736725 4.85203023958087  28.44181673048043 5.811158422764116  28.44181673048043 6.932351152260593  C 28.44181673048043 7.772016857962129  28.375586694896473 8.52188096120888  28.24285308403123 9.181793606812192  C 28.11011947316598 9.841770872051766  27.899259517946774 10.401160397239252  27.610650359206094 10.860005406501319  C 27.322107701394923 11.318915006525815  26.94654475730229 11.668482753709577  26.48383910814065 11.908562546462122  C 26.021133458979012 12.148642339214662  25.462227690039725 12.268567952963439  24.807138121845956 12.268567952963439  C 23.98154308369722 12.268567952963439  23.301616473664563 12.057587930058405  22.767091039465317 11.635365276745286  C 22.232499134064287 11.213142623432168  21.83533721127373 10.603345624126195  21.575987985875287 9.806244509022099  C 21.31663876047684 9.009078832029402  21.187071286512523 8.051108778252138  21.187071286512523 6.932351152260593  C 21.187071286512523 5.818256881145672  21.305199485810704 4.862674289050356  21.541406789062815 4.065553828478746  C 21.777680593244444 3.268433367907135  22.161216023716225 2.6565177222961682  22.692083936519964 2.229573562208556  C 23.222951849323696 1.8026294021209428  23.927944226341275 1.58903831857809  24.807138121845956 1.58903831857809  C 25.635127193457173 1.58903831857809  26.317748681568617 1.800741544356014  26.85473462043213 2.2241332702574845  C 27.39172055929564 2.6475314638973484  27.790405552547846 3.2577893184376476  28.050951794677523 4.054909779009259  Z M 23.097560645623908 4.748428735554504  C 22.978193498632894 5.333856595918408  22.91856642268613 6.061889079210524  22.91856642268613 6.932351152260593  C 22.91856642268613 7.809866409523467  22.978701211082573 8.541476880343144  23.099265352509033 9.12691761843617  C 23.21982949393549 9.712358356529196  23.41832191872222 10.150920711434065  23.69469511452654 10.442995201730081  C 23.971134811260367 10.73513428278853  24.341971997747773 10.881293505440292  24.807138121845956 10.881293505440292  C 25.269843771007597 10.881293505440292  25.6400627099174 10.736529004374832  25.917632892725234 10.446779752652565  C 26.195269576462575 10.157030500930299  26.395639195849345 9.719217855076197  26.51866383450814 9.133777116983174  C 26.64162197223742 8.548336378890147  26.7030157076563 7.814581448559569  26.7030157076563 6.932351152260593  C 26.7030157076563 6.061889079210524  26.642129684687095 5.333856595918408  26.52036854139326 4.748428735554504  C 26.398607398099426 4.163007342928993  26.199430239669443 3.722576533474374  25.92299054293561 3.426910860309522  C 25.646617347131297 3.1312387194062774  25.274698249678888 2.983408799080895  24.807138121845956 2.983408799080895  C 24.33711751907648 2.983408799080895  23.964580144318745 3.1312387194062774  23.689337464316157 3.426910860309522  C 23.41416128524308 3.722576533474374  23.216861291685408 4.163007342928993  23.097560645623908 4.748428735554504  Z M 36.60614506243827 4.054909779009259  C 36.86669130456795 4.85203023958087  36.997009998241175 5.811158422764116  36.997009998241175 6.932351152260593  C 36.997009998241175 7.772016857962129  36.9305364331022 8.52188096120888  36.79780282223696 9.181793606812192  C 36.66506921137171 9.841770872051766  36.454629814333025 10.401160397239252  36.16608715652186 10.860005406501319  C 35.87747799778118 11.318915006525815  35.50173802506304 11.668482753709577  35.0390323759014 11.908562546462122  C 34.57632672673976 12.148642339214662  34.01742095780047 12.268567952963439  33.3623313896067 12.268567952963439  C 32.53680282265975 12.268567952963439  31.856632683072075 12.057587930058405  31.322040777671045 11.635365276745286  C 30.787515343471803 11.213142623432168  30.39077400858949 10.603345624126195  30.131424783191047 9.806244509022099  C 29.87207555779261 9.009078832029402  29.74226455427327 8.051108778252138  29.74226455427327 6.932351152260593  C 29.74226455427327 5.818256881145672  29.86039275357145 4.862674289050356  30.096600056823565 4.065553828478746  C 30.332807360075673 3.268433367907135  30.71634276081973 2.6565177222961682  31.24727720428071 2.229573562208556  C 31.778145117084442 1.8026294021209428  32.4832039653038 1.58903831857809  33.3623313896067 1.58903831857809  C 34.190320461217915 1.58903831857809  34.872698419774345 1.800741544356014  35.40968435863786 2.2241332702574845  C 35.94667029750137 2.6475314638973484  36.345532319379075 3.2577893184376476  36.60614506243827 4.054909779009259  Z M 31.652753913384654 4.748428735554504  C 31.533453267323154 5.333856595918408  31.47375969044688 6.061889079210524  31.47375969044688 6.932351152260593  C 31.47375969044688 7.809866409523467  31.534138008398333 8.541476880343144  31.654702149824796 9.12691761843617  C 31.775266291251253 9.712358356529196  31.97351518648297 10.150920711434065  32.24988838228728 10.442995201730081  C 32.52632807902111 10.73513428278853  32.89723176643803 10.881293505440292  33.3623313896067 10.881293505440292  C 33.82503703876834 10.881293505440292  34.19518947674864 10.736529004374832  34.47282616048598 10.446779752652565  C 34.75046284422332 10.157030500930299  34.95065543498458 9.719217855076197  35.07361357271387 9.133777116983174  C 35.19657171044315 8.548336378890147  35.25820897541704 7.814581448559569  35.25820897541704 6.932351152260593  C 35.25820897541704 6.061889079210524  35.19732295244784 5.333856595918408  35.07556180915401 4.748428735554504  C 34.95380066586017 4.163007342928993  34.75480053605569 3.722576533474374  34.47842734025137 3.426910860309522  C 34.20198764351755 3.1312387194062774  33.829891517439634 2.983408799080895  33.3623313896067 2.983408799080895  C 32.89231078683723 2.983408799080895  32.519706911149974 3.1312387194062774  32.2445307320769 3.426910860309522  C 31.969354553003825 3.722576533474374  31.772121060375667 4.163007342928993  31.652753913384654 4.748428735554504  Z M 45.85880697576881 9.7591741569237  L 45.85880697576881 6.82803946745962  L 47.63559860917565 6.82803946745962  L 47.63559860917565 9.7591741569237  L 45.85880697576881 9.7591741569237  Z M 52 10.135973508143543  L 52 0  L 53 0  L 53 10.135973508143543  L 52 10.135973508143543  Z M 43.913979949399966 13  L 43.913979949399966 11.731398256403324  L 54 11.731398256403324  L 54 13  L 43.913979949399966 13  Z M 43.913979949399966 12.105595728863959  L 43.913979949399966 9.167128471987565  L 45.691015112361825 9.167128471987565  L 45.691015112361825 12.105595728863959  L 43.913979949399966 12.105595728863959  Z M 45.0461488506758 7.330675136852065  C 44.07684771179461 7.35166677913368  43.17819921758731 7.365308571661002  42.35027667663334 7.371832128134081  C 42.35027667663334 7.371832128134081  42.13012595889762 5.986686490504832  42.13012595889762 5.986686490504832  C 42.971481449791476 5.980175851913548  43.8882827059981 5.969523551746535  44.88079228281899 5.954990876529026  C 45.87343486149891 5.940458201311517  46.886876742969775 5.905014669185411  47.92101524765603 5.848550381834155  C 48.95528669474585 5.791931078096753  49.95293833628726 5.705570045384054  50.91399347881969 5.589308643643982  C 50.91399347881969 5.589308643643982  51.03381001988825 6.824018382104481  51.03381001988825 6.824018382104481  C 50.05612988279928 6.982198488473038  49.05620389163189 7.100923124048979  48.03376943162908 7.180239237683313  C 47.01133497162627 7.259426169792785  46.01544998955698 7.3096189056126315  45.0461488506758 7.330675136852065  Z M 49.256774856926384 8.99540447387984  L 49.256774856926384 7.799722916807461  L 52.31404489061464 7.799722916807461  L 52.31404489061464 8.99540447387984  L 49.256774856926384 8.99540447387984  Z M 44.78581575636221 0.7772521457052105  C 45.30311771736704 0.5784903591594528  45.89764518335746 0.4792187605595729  46.56942621730954 0.4792187605595729  C 47.24459870948362 0.4792187605595729  47.83824284573798 0.5784903591594528  48.35035785315168 0.7772521457052105  C 48.86267233362619 0.975865376384756  49.26272685362035 1.2536896632605004  49.550471500277354 1.610799486382375  C 49.838149646004844 1.9677607536380368  49.98200587176816 2.382083122251871  49.98200587176816 2.853787929985808  C 49.98200587176816 3.325344181853532  49.838149646004844 3.7405140263136634  49.550471500277354 4.099141717915794  C 49.26272685362035 4.4577629417795315  48.86267233362619 4.734040803955062  48.35035785315168 4.927958369939853  C 47.83824284573798 5.121727380058431  47.24459870948362 5.218659187673177  46.56942621730954 5.218659187673177  C 45.89764518335746 5.218659187673177  45.30311771736704 5.121727380058431  44.78581575636221 4.927958369939853  C 44.26871326841819 4.734040803955062  43.86638439879803 4.4577629417795315  43.57863975214103 4.099141717915794  C 43.29096160641354 3.7405140263136634  43.147105380650224 3.325344181853532  43.147105380650224 2.853787929985808  C 43.147105380650224 2.382083122251871  43.29096160641354 1.9677607536380368  43.57863975214103 1.610799486382375  C 43.86638439879803 1.2536896632605004  44.26871326841819 0.975865376384756  44.78581575636221 0.7772521457052105  Z M 47.4695114526538 1.8780833952828275  C 47.21435169663151 1.7911909108162893  46.91429421113124 1.747752922889775  46.56942621730954 1.747752922889775  C 46.055515714526706 1.747752922889775  45.63788268307208 1.8427048807104849  45.31622312719007 2.0325403798067176  C 44.9946965731671 2.222369411164557  44.833791078700635 2.4960709767961307  44.833791078700635 2.853787929985808  C 44.833791078700635 3.20484571127567  44.9946965731671 3.4762074570482775  45.31622312719007 3.667702912752585  C 45.63788268307208 3.8592048217583694  46.055515714526706 3.9548557139960807  46.56942621730954 3.9548557139960807  C 47.08001173307216 3.9548557139960807  47.49437652774102 3.8592048217583694  47.81264459567329 3.667702912752585  C 48.130912663605564 3.4762074570482775  48.290206053062384 3.20484571127567  48.290206053062384 2.853787929985808  C 48.290206053062384 2.615213070236735  48.21717355505269 2.4147174245096132  48.07127298310176 2.2522808677434614  C 47.925372411150825 2.089695755111097  47.724804210535105 1.9649758797493657  47.4695114526538 1.8780833952828275  Z " fill-rule="nonzero" fill="#ff3c26" stroke="none" transform="matrix(1 0 0 1 719 600 )" />
  </g>
</svg>