<?xml version="1.0" encoding="utf-8"?>
<svg version="1.1" xmlns:xlink="http://www.w3.org/1999/xlink" width="63px" height="14px" xmlns="http://www.w3.org/2000/svg">
  <g transform="matrix(1 0 0 1 -711 -402 )">
    <path d="M 7.287662269375928 10.664864499560723  L 7.287662269375928 12.12664729337028  L 0 12.12664729337028  L 0 10.870649455970804  C 0 10.870649455970804  2.789923232417653 8.145772791782118  2.789923232417653 8.145772791782118  C 3.3297540209960657 7.615943747307308  3.7738800271693487 7.158719281872486  4.12231401096012 6.774346151246874  C 4.470747994750893 6.389985956098048  4.730114369825701 6.024769169386637  4.900646156362829 5.678245590322362  C 5.071184637418865 5.331722011258089  5.156573151209937 4.9549279439495235  5.156573151209937 4.5480840710954915  C 5.156573151209937 4.0489997098097374  5.006895659711826 3.6705413836921124  4.707535375016066 3.412718794350206  C 4.408181769862663 3.1548962050083  4.011898929335684 3.025984996958843  3.518689459355246 3.025984996958843  C 3.0524758839851556 3.025984996958843  2.6218410557153766 3.114684254251284  2.2267856934204224 3.2920862336960193  C 1.831730331125468 3.469488213140755  1.4231779500715862 3.721396921937301  1.0011334026617436 4.0478137460296  C 1.0011334026617436 4.0478137460296  0.05520956264678733 2.9443806176927754  0.05520956264678733 2.9443806176927754  C 0.3521121651459694 2.700748390754091  0.6710983530790285 2.47722420367291  1.012175315191101 2.273805501115091  C 1.3532455678077129 2.070386798557272  1.734809033324649 1.9076510800166155  2.1568535807344915 1.785834966547273  C 2.578898128144334 1.6640188530779307  3.059832695992122 1.6032303845374063  3.599663484570534 1.6032303845374063  C 4.284263079796258 1.6032303845374063  4.873658199325234 1.720314177982129  5.368087120105629 1.9544840170304791  C 5.8625227503814825 2.188653856078829  6.244324882236945 2.5143625205647684  6.513010761483005 2.9318442927620465  C 6.7816966407290655 3.3493325326977175  6.91591788088756 3.833751066186875  6.91591788088756 4.3848753125633575  C 6.91591788088756 4.945461975704006  6.800592392108803 5.461817104171771  6.569937954967692 5.933702777590052  C 6.339283517826582 6.405601357611287  6.009746213961794 6.872535313191652  5.581564095673206 7.334932756639859  C 5.153388686880079 7.7973947908504995  4.644967053410506 8.298376884751764  4.056062535783975 8.837636007298777  C 4.056062535783975 8.837636007298777  2.19365995583235 10.590356153274314  2.19365995583235 10.590356153274314  L 2.19365995583235 10.664864499560723  L 7.287662269375928 10.664864499560723  Z M 15.513887103747239 4.054909779009259  C 15.776408634038921 4.85203023958087  15.907715317294324 5.811158422764116  15.907715317294324 6.932351152260593  C 15.907715317294324 7.772016857962129  15.840737793835963 8.52188096120888  15.706997885094003 9.181793606812192  C 15.573257976352041 9.841770872051766  15.361223167894671 10.401160397239252  15.07049297173504 10.860005406501319  C 14.779695770480119 11.318915006525815  14.401107187419212 11.668482753709577  13.934893612049121 11.908562546462122  C 13.468680036679032 12.148642339214662  12.905537016263635 12.268567952963439  12.24548099505743 12.268567952963439  C 11.41362684492868 12.268567952963439  10.72830010813242 12.057587930058405  10.189722257925055 11.635365276745286  C 9.651144407717691 11.213142623432168  9.25141534267858 10.603345624126195  8.990079805568863 9.806244509022099  C 8.728750948001501 9.009078832029402  8.59796922285968 8.051108778252138  8.59796922285968 6.932351152260593  C 8.59796922285968 5.818256881145672  8.716972892993633 4.862674289050356  8.954991061308904 4.065553828478746  C 9.193002535105267 3.268433367907135  9.579499276971989 2.6565177222961682  10.114391876891439 2.229573562208556  C 10.649351511859285 1.8026294021209428  11.359688611859248 1.58903831857809  12.24548099505743 1.58903831857809  C 13.079747328616666 1.58903831857809  13.767298622595353 1.800741544356014  14.30835563137539 2.2241332702574845  C 14.849412640155427 2.6475314638973484  15.251298568360264 3.2577893184376476  15.513887103747239 4.054909779009259  Z M 10.522942640477664 4.748428735554504  C 10.402737536336254 5.333856595918408  10.34259140249816 6.061889079210524  10.34259140249816 6.932351152260593  C 10.34259140249816 7.809866409523467  10.403427468662434 8.541476880343144  10.52490564714955 9.12691761843617  C 10.646316828029653 9.712358356529196  10.846314082756287 10.150920711434065  11.124849561244641 10.442995201730081  C 11.403318034637701 10.73513428278853  11.776788291067772 10.881293505440292  12.24548099505743 10.881293505440292  C 12.71169457042752 10.881293505440292  13.084653257781827 10.736529004374832  13.364394798032318 10.446779752652565  C 13.644136338282811 10.157030500930299  13.845846655998875 9.719217855076197  13.969736980475094 9.133777116983174  C 14.093627304951315 8.548336378890147  14.155731862636271 7.814581448559569  14.155731862636271 6.932351152260593  C 14.155731862636271 6.061889079210524  14.094384242372787 5.333856595918408  13.97169998714698 4.748428735554504  C 13.849015731921172 4.163007342928993  13.648506915607053 3.722576533474374  13.37003844221399 3.426910860309522  C 13.091502963725636 3.1312387194062774  12.716585852524469 2.983408799080895  12.24548099505743 2.983408799080895  C 11.771897008970825 2.983408799080895  11.396468298740787 3.1312387194062774  11.119205917062969 3.426910860309522  C 10.841943535385148 3.722576533474374  10.643214749714367 4.163007342928993  10.522942640477664 4.748428735554504  Z M 17.85845319748081 10.437791444211665  C 17.85845319748081 10.437791444211665  19.544185176962714 10.437791444211665  19.544185176962714 10.437791444211665  C 19.544185176962714 10.437791444211665  19.647243027236716 10.6010002027438  19.647243027236716 10.6010002027438  C 19.558931809298066 10.94397134762193  19.446049505413196 11.311792727232769  19.30862437633642 11.704433331080626  C 19.17119924725965 12.09707393492848  19.02153517475246 12.490399281704853  18.859586600142553 12.8842670811651  C 18.69763802553264 13.278070289862915  18.534422524451774 13.649923986749585  18.37006181134104 14  C 18.37006181134104 14  17.103922507974715 14  17.103922507974715 14  C 17.204495456168214 13.619179303560529  17.302624845054016 13.218947538259972  17.398373508757583 12.799114685409204  C 17.494055167365854 12.379217241796004  17.582438624704853 11.965085324978775  17.66337940946216 11.557072379536393  C 17.744387199314758 11.14905943409401  17.809406298926255 10.776047550053695  17.85845319748081 10.437791444211665  Z M 28.23417033756704 4.054909779009259  C 28.496758872954015 4.85203023958087  28.627998551114125 5.811158422764116  28.627998551114125 6.932351152260593  C 28.627998551114125 7.772016857962129  28.56126640348975 8.52188096120888  28.42752649474779 9.181793606812192  C 28.29378658600583 9.841770872051766  28.08132803097578 10.401160397239252  27.790530829720858 10.860005406501319  C 27.499800633561225 11.318915006525815  27.121390421239013 11.668482753709577  26.655176845868922 11.908562546462122  C 26.18896327049883 12.148642339214662  25.625820250083436 12.268567952963439  24.96576422887723 12.268567952963439  C 24.133910078748478 12.268567952963439  23.448828717786206 12.057587930058405  22.910250867578842 11.635365276745286  C 22.371606042229292 11.213142623432168  21.97143310213112 10.603345624126195  21.71011766355468 9.806244509022099  C 21.448802224978238 9.009078832029402  21.318252456679478 8.051108778252138  21.318252456679478 6.932351152260593  C 21.318252456679478 5.818256881145672  21.437276225346714 4.862674289050356  21.675274295128705 4.065553828478746  C 21.91333937000599 3.268433367907135  22.29978251079179 2.6565177222961682  22.83467511071124 2.229573562208556  C 23.36956771063069 1.8026294021209428  24.07990487053686 1.58903831857809  24.96576422887723 1.58903831857809  C 25.800030562436465 1.58903831857809  26.48782723224914 1.800741544356014  27.028884241029175 2.2241332702574845  C 27.56994124980921 2.6475314638973484  27.971648807275358 3.2577893184376476  28.23417033756704 4.054909779009259  Z M 23.243225874297465 4.748428735554504  C 23.122953765060764 5.333856595918408  23.06287463631796 6.061889079210524  23.06287463631796 6.932351152260593  C 23.06287463631796 7.809866409523467  23.12346532664825 8.541476880343144  23.244943505135367 9.12691761843617  C 23.36642168362248 9.712358356529196  23.566418945837395 10.150920711434065  23.844887419230453 10.442995201730081  C 24.12342289771881 10.73513428278853  24.49707152488757 10.881293505440292  24.96576422887723 10.881293505440292  C 25.43197780424732 10.881293505440292  25.805003496696923 10.736529004374832  26.08467803185212 10.446779752652565  C 26.364419572102612 10.157030500930299  26.56630826055737 9.719217855076197  26.69026559012888 9.133777116983174  C 26.814155914605102 8.548336378890147  26.876015096456072 7.814581448559569  26.876015096456072 6.932351152260593  C 26.876015096456072 6.061889079210524  26.81466747619259 5.333856595918408  26.691983220966783 4.748428735554504  C 26.569298965740977 4.163007342928993  26.36861177868816 3.722576533474374  26.090076300199804 3.426910860309522  C 25.811607826806743 3.1312387194062774  25.436869086344267 2.983408799080895  24.96576422887723 2.983408799080895  C 24.492180242790624 2.983408799080895  24.116818537655877 3.1312387194062774  23.83948915088277 3.426910860309522  C 23.562226769204948 3.722576533474374  23.363430978438874 4.163007342928993  23.243225874297465 4.748428735554504  Z M 36.85422338548544 4.054909779009259  C 37.11674491577712 4.85203023958087  37.24805159903252 5.811158422764116  37.24805159903252 6.932351152260593  C 37.24805159903252 7.772016857962129  37.18107407557416 8.52188096120888  37.0473341668322 9.181793606812192  C 36.913594258090235 9.841770872051766  36.70155944963287 10.401160397239252  36.41082925347323 10.860005406501319  C 36.12003205221831 11.318915006525815  35.74144346915741 11.668482753709577  35.27522989378732 11.908562546462122  C 34.80901631841723 12.148642339214662  34.245873298001825 12.268567952963439  33.58581727679562 12.268567952963439  C 32.75403010180906 12.268567952963439  32.0687033650128 12.057587930058405  31.53005853966325 11.635365276745286  C 30.991480689455887 11.213142623432168  30.5917315258835 10.603345624126195  30.330416087307057 9.806244509022099  C 30.06910064873062 9.009078832029402  29.938305504597874 8.051108778252138  29.938305504597874 6.932351152260593  C 29.938305504597874 5.818256881145672  30.057329273265108 4.862674289050356  30.295327343047102 4.065553828478746  C 30.533325412829093 3.268433367907135  30.91976852366179 2.6565177222961682  31.454728158629635 2.229573562208556  C 31.98962075854908 1.8026294021209428  32.700024893597444 1.58903831857809  33.58581727679562 1.58903831857809  C 34.420083610354865 1.58903831857809  35.107634904333544 1.800741544356014  35.64869191311359 2.2241332702574845  C 36.18974892189362 2.6475314638973484  36.59163485009846 3.2577893184376476  36.85422338548544 4.054909779009259  Z M 31.863278922215862 4.748428735554504  C 31.74307381807445 5.333856595918408  31.682927684236354 6.061889079210524  31.682927684236354 6.932351152260593  C 31.682927684236354 7.809866409523467  31.743763750400632 8.541476880343144  31.865241928887748 9.12691761843617  C 31.986720107374865 9.712358356529196  32.18647199375579 10.150920711434065  32.46494046714885 10.442995201730081  C 32.7434759456372 10.73513428278853  33.11719157790126 10.881293505440292  33.58581727679562 10.881293505440292  C 34.052030852165714 10.881293505440292  34.42498953952002 10.736529004374832  34.70473107977051 10.446779752652565  C 34.98447262002101 10.157030500930299  35.186182937737065 9.719217855076197  35.310073262213294 9.133777116983174  C 35.43396358668951 8.548336378890147  35.49606814437447 7.814581448559569  35.49606814437447 6.932351152260593  C 35.49606814437447 6.061889079210524  35.43472052411098 5.333856595918408  35.31203626888517 4.748428735554504  C 35.18935201365937 4.163007342928993  34.98884319734525 3.722576533474374  34.710374723952185 3.426910860309522  C 34.43183924546383 3.1312387194062774  34.05692213426266 2.983408799080895  33.58581727679562 2.983408799080895  C 33.11223329070902 2.983408799080895  32.73680458047898 3.1312387194062774  32.45954219880117 3.426910860309522  C 32.182279817123344 3.722576533474374  31.983551031452564 4.163007342928993  31.863278922215862 4.748428735554504  Z M 45.47427643340383 4.054909779009259  C 45.736864968790805 4.85203023958087  45.86810464695092 5.811158422764116  45.86810464695092 6.932351152260593  C 45.86810464695092 7.772016857962129  45.80137249932654 8.52188096120888  45.66763259058458 9.181793606812192  C 45.533892681842616 9.841770872051766  45.32143412681257 10.401160397239252  45.030636925557644 10.860005406501319  C 44.739906729398015 11.318915006525815  44.36149651707581 11.668482753709577  43.895282941705716 11.908562546462122  C 43.429069366335625 12.148642339214662  42.86592634592022 12.268567952963439  42.20587032471402 12.268567952963439  C 41.37401617458527 12.268567952963439  40.68893481362299 12.057587930058405  40.15035696341563 11.635365276745286  C 39.61177911320827 11.213142623432168  39.2116062030632 10.603345624126195  38.95022375939146 9.806244509022099  C 38.688908320815024 9.009078832029402  38.558358552516275 8.051108778252138  38.558358552516275 6.932351152260593  C 38.558358552516275 5.818256881145672  38.6773823211835 4.862674289050356  38.915380390965495 4.065553828478746  C 39.15344546584278 3.268433367907135  39.53988860662858 2.6565177222961682  40.074781206548025 2.229573562208556  C 40.60974084151588 1.8026294021209428  41.32007794151584 1.58903831857809  42.20587032471402 1.58903831857809  C 43.040136658273255 1.58903831857809  43.727933328085925 1.800741544356014  44.26899033686597 2.2241332702574845  C 44.810047345646005 2.6475314638973484  45.21175490311215 3.2577893184376476  45.47427643340383 4.054909779009259  Z M 40.48333197013425 4.748428735554504  C 40.36312686599285 5.333856595918408  40.30298073215475 6.061889079210524  40.30298073215475 6.932351152260593  C 40.30298073215475 7.809866409523467  40.36363842009205 8.541476880343144  40.48504960097216 9.12691761843617  C 40.60652777945928 9.712358356529196  40.80670341241288 10.150920711434065  41.08523889090123 10.442995201730081  C 41.36370736429429 10.73513428278853  41.73717762072436 10.881293505440292  42.20587032471402 10.881293505440292  C 42.67208390008411 10.881293505440292  43.04504258743842 10.736529004374832  43.32478412768891 10.446779752652565  C 43.60445866284411 10.157030500930299  43.806414356394164 9.719217855076197  43.930371685965675 9.133777116983174  C 44.054262010441896 8.548336378890147  44.116121192292866 7.814581448559569  44.116121192292866 6.932351152260593  C 44.116121192292866 6.061889079210524  44.054773572029376 5.333856595918408  43.93208931680357 4.748428735554504  C 43.80940506157776 4.163007342928993  43.60871787452495 3.722576533474374  43.3301823960366 3.426910860309522  C 43.051713922643536 3.1312387194062774  42.67697518218106 2.983408799080895  42.20587032471402 2.983408799080895  C 41.73228633862742 2.983408799080895  41.35685762839738 3.1312387194062774  41.07959524671956 3.426910860309522  C 40.80233286504174 3.722576533474374  40.60360407937096 4.163007342928993  40.48333197013425 4.748428735554504  Z M 54.79708586985733 9.7591741569237  L 54.79708586985733 6.82803946745962  L 56.58734795461715 6.82803946745962  L 56.58734795461715 9.7591741569237  L 54.79708586985733 9.7591741569237  Z M 60 10.135973508143543  L 60 0  L 62 0  L 62 10.135973508143543  L 60 10.135973508143543  Z M 52.83751445964736 13  L 52.83751445964736 11.731398256403324  L 63 11.731398256403324  L 63 13  L 52.83751445964736 13  Z M 52.83751445964736 12.105595728863959  L 52.83751445964736 9.167128471987565  L 54.62802192024117 9.167128471987565  L 54.62802192024117 12.105595728863959  L 52.83751445964736 12.105595728863959  Z M 53.978266711846985 7.330675136852065  C 53.001683952137476 7.35166677913368  52.09615552813588 7.365308571661002  51.26195622962504 7.371832128134081  C 51.26195622962504 7.371832128134081  51.04013647570195 5.986686490504832  51.04013647570195 5.986686490504832  C 51.8878035886946 5.980175851913548  52.81162239685269 5.969523551746535  53.81165652057067 5.954990876529026  C 54.81189162962143 5.940458201311517  55.832949777646405 5.905014669185411  56.87492843204842 5.848550381834155  C 57.91704103673481 5.791931078096753  58.92232318402713 5.705570045384054  59.890597431732935 5.589308643643982  C 59.890597431732935 5.589308643643982  60.011322342053916 6.824018382104481  60.011322342053916 6.824018382104481  C 59.02616310986575 6.982198488473038  58.018477944793 7.100923124048979  56.988292067349825 7.180239237683313  C 55.95810618990666 7.259426169792785  54.95491644669867 7.3096189056126315  53.978266711846985 7.330675136852065  Z M 58.22081488146011 8.99540447387984  L 58.22081488146011 7.799722916807461  L 61.30126310131685 7.799722916807461  L 61.30126310131685 8.99540447387984  L 58.22081488146011 8.99540447387984  Z M 53.71595994531624 0.7772521457052105  C 54.23718374542111 0.5784903591594528  54.83628555792969 0.4792187605595729  55.51309255342767 0.4792187605595729  C 56.19338375397458 0.4792187605595729  56.79146152973849 0.5784903591594528  57.30752602736525 0.7772521457052105  C 57.823724535182585 0.975865376384756  58.22687900732604 1.2536896632605004  58.51673813724688 1.610799486382375  C 58.80666427226302 1.9677607536380368  58.95154411506959 2.382083122251871  58.95154411506959 2.853787929985808  C 58.95154411506959 3.325344181853532  58.80666427226302 3.7405140263136634  58.51673813724688 4.099141717915794  C 58.22687900732604 4.4577629417795315  57.823724535182585 4.734040803955062  57.30752602736525 4.927958369939853  C 56.79146152973849 5.121727380058431  56.19338375397458 5.218659187673177  55.51309255342767 5.218659187673177  C 54.83628555792969 5.218659187673177  54.23718374542111 5.121727380058431  53.71595994531624 4.927958369939853  C 53.19487015540196 4.734040803955062  52.789491066169866 4.4577629417795315  52.499631936249024 4.099141717915794  C 52.209705801232886 3.7405140263136634  52.064825958426326 3.325344181853532  52.064825958426326 2.853787929985808  C 52.064825958426326 2.382083122251871  52.209705801232886 1.9677607536380368  52.499631936249024 1.610799486382375  C 52.789491066169866 1.2536896632605004  53.19487015540196 0.975865376384756  53.71595994531624 0.7772521457052105  Z M 56.420001635838894 1.8780833952828275  C 56.16290742840649 1.7911909108162893  55.86064211189494 1.747752922889775  55.51309255342767 1.747752922889775  C 54.99535295837173 1.747752922889775  54.57430830550414 1.8427048807104849  54.25014313590316 2.0325403798067176  C 53.926178981588045 2.222369411164557  53.76429898461143 2.4960709767961307  53.76429898461143 2.853787929985808  C 53.76429898461143 3.20484571127567  53.926178981588045 3.4762074570482775  54.25014313590316 3.667702912752585  C 54.57430830550414 3.8592048217583694  54.99535295837173 3.9548557139960807  55.51309255342767 3.9548557139960807  C 56.027548988673644 3.9548557139960807  56.445055221372726 3.8592048217583694  56.76573618592477 3.667702912752585  C 57.08641715047682 3.4762074570482775  57.24691819637077 3.20484571127567  57.24691819637077 2.853787929985808  C 57.24691819637077 2.615213070236735  57.173265009483664 2.4147174245096132  57.026325321617605 2.2522808677434614  C 56.879318628656264 2.089695755111097  56.67722985346188 1.9649758797493657  56.420001635838894 1.8780833952828275  Z " fill-rule="nonzero" fill="#ff3c26" stroke="none" transform="matrix(1 0 0 1 711 402 )" />
  </g>
</svg>