<?xml version="1.0" encoding="utf-8"?>
<svg version="1.1" xmlns:xlink="http://www.w3.org/1999/xlink" width="34px" height="13px" xmlns="http://www.w3.org/2000/svg">
  <g transform="matrix(1 0 0 1 -471 -761 )">
    <path d="M 0.20727886237647627 2.9236202334037733  L 0.20727886237647627 9.820968263940449  L 1.3405639913232104 9.820968263940449  L 1.3405639913232104 2.9236202334037733  L 0.20727886237647627 2.9236202334037733  Z M 0 0.7521274772973898  C 0 1.192084665516514  0.3456235100890275 1.5042549545947796  0.7879006989636057 1.5042549545947796  C 1.230177887838184 1.5042549545947796  1.5755603759942154 1.192084665516514  1.5755603759942154 0.7521274772973898  C 1.5755603759942154 0.29797809247952245  1.230177887838184 0  0.7879006989636057 0  C 0.3456235100890275 0  0 0.29797809247952245  0 0.7521274772973898  Z M 3.6073752711496745 2.9236202334037733  L 3.6073752711496745 9.820968263940449  L 4.7406604000964085 9.820968263940449  C 4.7406604000964085 9.820968263940449  4.7406604000964085 4.8253469644183  4.7406604000964085 4.8253469644183  C 5.362612673046216 4.115738584628203  5.929288013207249 3.7608848782530893  6.426849843335743 3.7608848782530893  C 7.283761841614696 3.7608848782530893  7.684502289708363 4.314448672304838  7.684502289708363 5.605935994821711  C 7.684502289708363 5.605935994821711  7.684502289708363 9.820968263940449  7.684502289708363 9.820968263940449  L 8.818028440588094 9.820968263940449  C 8.818028440588094 9.820968263940449  8.818028440588094 4.8253469644183  8.818028440588094 4.8253469644183  C 9.439980713537901 4.115738584628203  9.97877271113898 3.7608848782530893  10.503976861894433 3.7608848782530893  C 11.347067699859906 3.7608848782530893  11.747891058086287 4.314448672304838  11.747891058086287 5.605935994821711  C 11.747891058086287 5.605935994821711  11.747891058086287 9.820968263940449  11.747891058086287 9.820968263940449  L 12.881417208966015 9.820968263940449  C 12.881417208966015 9.820968263940449  12.881417208966015 5.449768690387801  12.881417208966015 5.449768690387801  C 12.881417208966015 3.6899399375113036  12.217980212664196 2.753345898299922  10.83586406362979 2.753345898299922  C 10.020415546291275 2.753345898299922  9.329367063223065 3.2926502753940827  8.624487828392384 4.073219487120909  C 8.348064592701178 3.250073776232045  7.795241276135815 2.753345898299922  6.772475295251868 2.753345898299922  C 5.970847938226832 2.753345898299922  5.265955169449716 3.2642124684462868  4.685466377440347 3.917052182686999  C 4.685466377440347 3.917052182686999  4.644010604965052 3.917052182686999  4.644010604965052 3.917052182686999  L 4.547119787900699 2.9236202334037733  L 3.6073752711496745 2.9236202334037733  Z M 14.65051819715594 8.03284025358387  C 14.65051819715594 9.26755891055136  15.493645753306518 9.9912425990443  16.613159797541577 9.9912425990443  C 17.456250635507047 9.9912425990443  18.202500849696463 9.537113032903019  18.83827428295975 8.997810649761075  C 18.83827428295975 8.997810649761075  18.879730055435047 8.997810649761075  18.879730055435047 8.997810649761075  L 18.9763798505664 9.820968263940449  L 19.916365389250423 9.820968263940449  C 19.916365389250423 9.820968263940449  19.916365389250423 5.59158147238563  19.916365389250423 5.59158147238563  C 19.916365389250423 3.874329158248377  19.225340090420886 2.753345898299922  17.58062183658713 2.753345898299922  C 16.502571214449265 2.753345898299922  15.562660877432815 3.2357133021507094  14.940708604483008 3.647286157595141  C 14.940708604483008 3.647286157595141  15.382983851530488 4.456336741104575  15.382983851530488 4.456336741104575  C 15.908188002285941 4.087340384822181  16.613096187993342 3.7183162944771255  17.38708122439142 3.7183162944771255  C 18.492774167156245 3.7183162944771255  18.769100988189926 4.569854313949552  18.769100988189926 5.449768690387801  C 15.908120509083515 5.7761885475081565  14.65051819715594 6.528470495679604  14.65051819715594 8.03284025358387  Z M 18.769100988189926 8.132084451805738  C 18.11950639461316 8.728155500497065  17.594400570920705 9.054486264206979  16.944805977343936 9.054486264206979  C 16.28139022345369 9.054486264206979  15.756085803808146 8.728272297758771  15.756085803808146 7.947703086031945  C 15.756085803808146 7.067788709593698  16.530072899719812 6.500094048079589  18.769100988189926 6.216250690121271  C 18.769100988189926 6.216250690121271  18.769100988189926 8.132084451805738  18.769100988189926 8.132084451805738  Z M 21.519643287539164 11.140841852761437  C 21.519643287539164 12.332983950144094  22.652943833416185 13  24.29766208724994 13  C 26.384657588801517 13  27.69751747409014 11.892959420720535  27.69751747409014 10.615664325013801  C 27.69751747409014 9.46609878721598  26.909826963198963 8.969349096655053  25.348035671246084 8.969349096655053  C 25.348035671246084 8.969349096655053  24.048927452398168 8.969349096655053  24.048927452398168 8.969349096655053  C 23.136730754022054 8.969349096655053  22.860207278862376 8.657178807576788  22.860207278862376 8.217221619357664  C 22.860207278862376 7.834033096687923  23.053784520978322 7.606946516094179  23.28874427572909 7.394064005178288  C 23.592809832047255 7.550177850544794  23.96595421030482 7.635368477164126  24.29766208724994 7.635368477164126  C 25.665957134814114 7.635368477164126  26.757772957339117 6.712911196637562  26.757772957339117 5.236925771507987  C 26.757772957339117 4.655046889204005  26.52275535967816 4.1297881834320025  26.204868643046517 3.817560492698993  C 26.204868643046517 3.817560492698993  27.58712942877802 3.817560492698993  27.58712942877802 3.817560492698993  L 27.58712942877802 2.9236202334037733  C 27.58712942877802 2.9236202334037733  25.25138587611473 2.9236202334037733  25.25138587611473 2.9236202334037733  C 25.00260496105048 2.8242750611395016  24.6708334451355 2.753345898299922  24.29766208724994 2.753345898299922  C 22.92936703968577 2.753345898299922  21.76837792239094 3.7040944604976964  21.76837792239094 5.208464218401964  C 21.76837792239094 6.031609929290829  22.196912977430557 6.698626009358134  22.639190166305134 7.067622365640528  C 22.639190166305134 7.067622365640528  22.639190166305134 7.124545471852572  22.639190166305134 7.124545471852572  C 22.293661129046534 7.3658123306488505  21.906483489997587 7.819971594593614  21.906483489997587 8.401850476897597  C 21.906483489997587 8.941152860039539  22.169135699820366 9.31010566659282  22.500843576765483 9.52298817750871  C 22.500843576765483 9.52298817750871  22.500843576765483 9.579663791954614  22.500843576765483 9.579663791954614  C 21.892712464129158 10.005428813786391  21.519643287539164 10.558962970457456  21.519643287539164 11.140841852761437  Z M 25.72113762352374 5.208464218401964  C 25.72113762352374 6.216108152749122  25.071647123648017 6.854779446760714  24.29766208724994 6.854779446760714  C 23.523677050851862 6.854779446760714  22.87394552904314 6.216108152749122  22.87394552904314 5.208464218401964  C 22.87394552904314 4.2008202840548075  23.509855890538383 3.6047175738191783  24.29766208724994 3.6047175738191783  C 25.085468283961497 3.6047175738191783  25.72113762352374 4.2008202840548075  25.72113762352374 5.208464218401964  Z M 26.59194986743794 10.785938660117655  C 26.59194986743794 11.509739206295096  25.748853262834416 12.190949416490566  24.46348517715112 12.190949416490566  C 23.247222951878467 12.190949416490566  22.514581826946255 11.722667260892315  22.514581826946255 10.984674548327527  C 22.514581826946255 10.587293859270442  22.722092060963487 10.1757724538355  23.2058327307785 9.820968263940449  C 23.496077126783188 9.906121269817374  23.813801877381977 9.934566984598396  24.0764039527597 9.934566984598396  C 24.0764039527597 9.934566984598396  25.237406604000967 9.934566984598396  25.237406604000967 9.934566984598396  C 26.10813982143664 9.934566984598396  26.59194986743794 10.147291112264288  26.59194986743794 10.785938660117655  Z M 28.3058568329718 6.386525025225122  C 28.3058568329718 8.643079782927114  29.72939980360478 9.9912425990443  31.526150879730054 9.9912425990443  C 32.43834757810617 9.9912425990443  33.157038322958094 9.664872228192614  33.73752711496746 9.281683705522873  C 33.73752711496746 9.281683705522873  33.336707640395275 8.515201705789403  33.336707640395275 8.515201705789403  C 32.839145810266785 8.84162156290976  32.30002988059999 9.054486264206979  31.664256447336708 9.054486264206979  C 30.37888836165341 9.054486264206979  29.50808965904105 8.117836877715865  29.425162689804772 6.65604355855084  C 29.425162689804772 6.65604355855084  33.958544227524705 6.65604355855084  33.958544227524705 6.65604355855084  C 33.98618655182937 6.485737546796989  34 6.230320107601656  34 5.989053248805376  C 34 4.016341939695894  33.03269601391148 2.753345898299922  31.31887201735358 2.753345898299922  C 29.784723046027654 2.753345898299922  28.3058568329718 4.129970267523131  28.3058568329718 6.386525025225122  Z M 33.00506146059291 5.818778913701525  C 33.00506146059291 5.818778913701525  29.411424439624007 5.818778913701525  29.411424439624007 5.818778913701525  C 29.54963605746961 4.4563308196707165  30.406509498712037 3.675747710701163  31.34634851771511 3.675747710701163  C 32.39675681922602 3.675747710701163  33.00506146059291 4.427946486896025  33.00506146059291 5.818778913701525  Z " fill-rule="nonzero" fill="#000000" stroke="none" transform="matrix(1 0 0 1 471 761 )" />
  </g>
</svg>