<?xml version="1.0" encoding="utf-8"?>
<svg version="1.1" xmlns:xlink="http://www.w3.org/1999/xlink" width="63px" height="14px" xmlns="http://www.w3.org/2000/svg">
  <g transform="matrix(1 0 0 1 -711 -534 )">
    <path d="M 2.57276945792027 5.695985672771507  C 2.8188491195832124 5.65931811844762  3.1239907850002524 5.640873149962831  3.488188145960768 5.640873149962831  C 4.184597416349179 5.640873149962831  4.796598743287721 5.761028830405868  5.324439288476412 6.001115090896803  C 5.8522798336651025 6.241214272427609  6.264708180975028 6.591748874316531  6.56123883850102 7.052983712914781  C 6.857762797308112 7.514218551513029  7.005905927019616 8.078370064587627  7.005905927019616 8.745387578563223  C 7.005905927019616 9.473894458916925  6.845458031706457 10.10188049988754  6.524326794628419 10.629384334662433  C 6.203188828792383 11.156823549801057  5.732932213530681 11.561989275532783  5.114040638402587 11.844698249645198  C 4.495149063274494 12.12734263299518  3.7391861992898825 12.268567952963439  2.8459185825775153 12.268567952963439  C 2.282390026689825 12.268567952963439  1.7550441052921544 12.221764286796878  1.2641144624903327 12.128303034398865  C 0.7731848196885106 12.034906372763285  0.351894397704752 11.893681060013485  0 11.704433331080626  C 0 11.704433331080626  0 10.19652632290329  0 10.19652632290329  C 0.36665741290790005 10.39520414434527  0.8091079764482484 10.557901099766317  1.327111017366238 10.684496857471109  C 1.8451073295262297 10.811028024413469  2.3402202171438864 10.874197472460635  2.8126977430921745 10.874197472460635  C 3.312235209640635 10.874197472460635  3.7421423469441004 10.803284582370212  4.102650636293328 10.661316483070893  C 4.4631589256425555 10.519412974534006  4.740734581771987 10.301783134850762  4.935140265766716 10.008481448942353  C 5.129545949761445 9.715179763033944  5.226745412360262 9.343819202325905  5.226745412360262 8.894404271136041  C 5.226745412360262 8.295980991910838  5.028158165739196 7.835217345378814  4.630738943964002 7.51233358113131  C 4.233312993430809 7.1894498168838075  3.613688133876468 7.028147597485976  2.772094494832314 7.028147597485976  C 2.4792596376756064 7.028147597485976  2.166240909653928 7.052921897649458  1.8328060184208677 7.102655943772387  C 1.4993644284689083 7.152325399132881  1.223020570619963 7.20438416770981  1.0040075933347394 7.258768669324864  C 1.0040075933347394 7.258768669324864  0.23992828517190465 6.829458674055552  0.23992828517190465 6.829458674055552  L 0.6496519721577727 1.752247077110225  L 6.260282640793082 1.752247077110225  L 6.260282640793082 3.221125903899439  L 2.174119384096182 3.221125903899439  C 2.174119384096182 3.221125903899439  1.9378823033115378 5.8040819084949655  1.9378823033115378 5.8040819084949655  C 2.1150588522578966 5.768602804710006  2.3266897962573276 5.73264677018469  2.57276945792027 5.695985672771507  Z M 15.377557477325459 4.054909779009259  C 15.64083269032498 4.85203023958087  15.772516346762286 5.811158422764116  15.772516346762286 6.932351152260593  C 15.772516346762286 7.772016857962129  15.705346535070698 8.52188096120888  15.57122266751037 9.181793606812192  C 15.437098799950043 9.841770872051766  15.224455252969717 10.401160397239252  14.932890388806863 10.860005406501319  C 14.641258327181326 11.318915006525815  14.261582840245827 11.668482753709577  13.794030795190887 11.908562546462122  C 13.326478750135948 12.148642339214662  12.761718981730185 12.268567952963439  12.099767981438514 12.268567952963439  C 11.265525630663143 12.268567952963439  10.578231364155439 12.057587930058405  10.038107291007522 11.635365276745286  C 9.497983217859607 11.213142623432168  9.097106555959373 10.603345624126195  8.835020741053224 9.806244509022099  C 8.572941624865974 9.009078832029402  8.441784433663784 8.051108778252138  8.441784433663784 6.932351152260593  C 8.441784433663784 5.818256881145672  8.561129755807192 4.862674289050356  8.79983125922801 4.065553828478746  C 9.03852604891038 3.268433367907135  9.426132398475401 2.6565177222961682  9.962560641214933 2.229573562208556  C 10.499056111456245 1.8026294021209428  11.211432544338397 1.58903831857809  12.099767981438514 1.58903831857809  C 12.936429440870421 1.58903831857809  13.62595465112351 1.800741544356014  14.168565000351542 2.2241332702574845  C 14.711175349579577 2.6475314638973484  15.114215066863256 3.2577893184376476  15.377557477325459 4.054909779009259  Z M 10.372284328200802 4.748428735554504  C 10.251734122808898 5.333856595918408  10.191415313225058 6.061889079210524  10.191415313225058 6.932351152260593  C 10.191415313225058 7.809866409523467  10.252426035887144 8.541476880343144  10.374252970540674 9.12691761843617  C 10.496012715241296 9.712358356529196  10.696584149435553 10.150920711434065  10.975919285664066 10.442995201730081  C 11.255187224429896 10.73513428278853  11.629729690342556 10.881293505440292  12.099767981438514 10.881293505440292  C 12.567320026493455 10.881293505440292  12.941349454647895 10.736529004374832  13.221894115165577 10.446779752652565  C 13.502438775683258 10.157030500930299  13.704728190962427 9.719217855076197  13.828974196723616 9.133777116983174  C 13.953220202484808 8.548336378890147  14.015503058426493 7.814581448559569  14.015503058426493 6.932351152260593  C 14.015503058426493 6.061889079210524  13.953979313025735 5.333856595918408  13.83094283906349 4.748428735554504  C 13.707906365101241 4.163007342928993  13.50682190065854 3.722576533474374  13.22755396189271 3.426910860309522  C 12.948218825664197 3.1312387194062774  12.572225351151909 2.983408799080895  12.099767981438514 2.983408799080895  C 11.624824365684104 2.983408799080895  11.248317823374498 3.1312387194062774  10.970259438936933 3.426910860309522  C 10.69220105449937 3.722576533474374  10.492901731055388 4.163007342928993  10.372284328200802 4.748428735554504  Z M 17.728854672010126 10.437791444211665  C 17.728854672010126 10.437791444211665  19.419426281375237 10.437791444211665  19.419426281375237 10.437791444211665  C 19.419426281375237 10.437791444211665  19.522780004218518 10.6010002027438  19.522780004218518 10.6010002027438  C 19.434215250359234 10.94397134762193  19.321008868520206 11.311792727232769  19.183189200590594 11.704433331080626  C 19.045369532660978 12.09707393492848  18.895275784068527 12.490399281704853  18.732862265344863 12.8842670811651  C 18.570448746621203 13.278070289862915  18.40676466416082 13.649923986749585  18.241932081839273 14  C 18.241932081839273 14  16.97215777262181 14  16.97215777262181 14  C 17.073019459387893 13.619179303560529  17.171430571542075 13.218947538259972  17.26745412360262 12.799114685409204  C 17.36341047820047 12.379217241796004  17.452047678854854 11.965085324978775  17.53322083948534 11.557072379536393  C 17.61446119757851 11.14905943409401  17.679666962912254 10.776047550053695  17.728854672010126 10.437791444211665  Z M 28.13435983969627 4.054909779009259  C 28.397702250158467 4.85203023958087  28.529318709133094 5.811158422764116  28.529318709133094 6.932351152260593  C 28.529318709133094 7.772016857962129  28.46239497773399 8.52188096120888  28.328271110173663 9.181793606812192  C 28.194147242613333 9.841770872051766  27.981078732510724 10.401160397239252  27.689446670885186 10.860005406501319  C 27.39788180672233 11.318915006525815  27.018385202616635 11.668482753709577  26.550833157561698 11.908562546462122  C 26.083281112506757 12.148642339214662  25.518521344100993 12.268567952963439  24.856570343809324 12.268567952963439  C 24.02232799303395 12.268567952963439  23.33527980681873 12.057587930058405  22.795155733670818 11.635365276745286  C 22.254964493099315 11.213142623432168  21.8536426818028 10.603345624126195  21.59157702313155 9.806244509022099  C 21.32951136446029 9.009078832029402  21.19858679603459 8.051108778252138  21.19858679603459 6.932351152260593  C 21.19858679603459 5.818256881145672  21.317952274412892 4.862674289050356  21.55663362159882 4.065553828478746  C 21.795382166247425 3.268433367907135  22.18293476084621 2.6565177222961682  22.71936300358574 2.229573562208556  C 23.255791246325273 1.8026294021209428  23.96816773928562 1.58903831857809  24.856570343809324 1.58903831857809  C 25.69323180324123 1.58903831857809  26.3830030937868 1.800741544356014  26.925613443014836 2.2241332702574845  C 27.468223792242867 2.6475314638973484  27.871084626696746 3.2577893184376476  28.13435983969627 4.054909779009259  Z M 23.129086690571608 4.748428735554504  C 23.008469287717023 5.333856595918408  22.948217675595867 6.061889079210524  22.948217675595867 6.932351152260593  C 22.948217675595867 7.809866409523467  23.00898231796547 8.541476880343144  23.130809252619 9.12691761843617  C 23.252636187272525 9.712358356529196  23.45320762897656 10.150920711434065  23.732475567742387 10.442995201730081  C 24.0118107039709 10.73513428278853  24.386532052713363 10.881293505440292  24.856570343809324 10.881293505440292  C 25.32412238886426 10.881293505440292  25.698219014481385 10.736529004374832  25.978696477536385 10.446779752652565  C 26.259241138054065 10.157030500930299  26.461709436163037 9.719217855076197  26.586022639386908 9.133777116983174  C 26.7102686451481 8.548336378890147  26.772305420797302 7.814581448559569  26.772305420797302 6.932351152260593  C 26.772305420797302 6.061889079210524  26.710781675396543 5.333856595918408  26.587745201434295 4.748428735554504  C 26.464708727472047 4.163007342928993  26.263445380199546 3.722576533474374  25.984110243971035 3.426910860309522  C 25.7048423052052 3.1312387194062774  25.329027713522716 2.983408799080895  24.856570343809324 2.983408799080895  C 24.38162672805491 2.983408799080895  24.005187383207986 3.1312387194062774  23.72706180130774 3.426910860309522  C 23.449003416870177 3.722576533474374  23.249636895963512 4.163007342928993  23.129086690571608 4.748428735554504  Z M 36.77916051465935 4.054909779009259  C 37.04243572765888 4.85203023958087  37.17411938409619 5.811158422764116  37.17411938409619 6.932351152260593  C 37.17411938409619 7.772016857962129  37.106949572404595 8.52188096120888  36.97282570484426 9.181793606812192  C 36.83870183728394 9.841770872051766  36.62605829030361 10.401160397239252  36.33449342614075 10.860005406501319  C 36.04286136451522 11.318915006525815  35.66318587757973 11.668482753709577  35.195633832524784 11.908562546462122  C 34.72808178746985 12.148642339214662  34.16332201906408 12.268567952963439  33.50137101877241 12.268567952963439  C 32.66719583542062 12.268567952963439  31.979901568912915 12.057587930058405  31.43971032834142 11.635365276745286  C 30.8995862551935 11.213142623432168  30.49868943705837 10.603345624126195  30.23662377838712 9.806244509022099  C 29.974558119715866 9.009078832029402  29.84338747099768 8.051108778252138  29.84338747099768 6.932351152260593  C 29.84338747099768 5.818256881145672  29.962752949375982 4.862674289050356  30.201434296561906 4.065553828478746  C 30.44011564374783 3.268433367907135  30.827668208307518 2.6565177222961682  31.364163678548827 2.229573562208556  C 31.900591921288363 1.8026294021209428  32.61303558167229 1.58903831857809  33.50137101877241 1.58903831857809  C 34.33803247820432 1.58903831857809  35.02755768845741 1.800741544356014  35.57016803768544 2.2241332702574845  C 36.112778386913476 2.6475314638973484  36.51581810419715 3.2577893184376476  36.77916051465935 4.054909779009259  Z M 31.773887365534698 4.748428735554504  C 31.653337160142794 5.333856595918408  31.593018350558953 6.061889079210524  31.593018350558953 6.932351152260593  C 31.593018350558953 7.809866409523467  31.65402907322104 8.541476880343144  31.775856007874573 9.12691761843617  C 31.8976829425281 9.712358356529196  32.09800830393964 10.150920711434065  32.37727624270548 10.442995201730081  C 32.65661137893399 10.73513428278853  33.031399925139134 10.881293505440292  33.50137101877241 10.881293505440292  C 33.96892306382735 10.881293505440292  34.34295249198179 10.736529004374832  34.623497152499475 10.446779752652565  C 34.90404181301715 10.157030500930299  35.10633122829633 9.719217855076197  35.23057723405751 9.133777116983174  C 35.3548232398187 8.548336378890147  35.41710609576039 7.814581448559569  35.41710609576039 6.932351152260593  C 35.41710609576039 6.061889079210524  35.35558235035963 5.333856595918408  35.23254587639738 4.748428735554504  C 35.109509402435144 4.163007342928993  34.908424937992436 3.722576533474374  34.6291569992266 3.426910860309522  C 34.3498218629981 3.1312387194062774  33.973828388485806 2.983408799080895  33.50137101877241 2.983408799080895  C 33.026427403018 2.983408799080895  32.6499208607084 3.1312387194062774  32.37186247627083 3.426910860309522  C 32.09380409183326 3.722576533474374  31.894504768389282 4.163007342928993  31.773887365534698 4.748428735554504  Z M 45.42396118962244 4.054909779009259  C 45.68730360008465 4.85203023958087  45.81892005905927 5.811158422764116  45.81892005905927 6.932351152260593  C 45.81892005905927 7.772016857962129  45.751996327660166 8.52188096120888  45.61787246009983 9.181793606812192  C 45.48374859253951 9.841770872051766  45.2706800824369 10.401160397239252  44.97904802081136 10.860005406501319  C 44.687483156648504 11.318915006525815  44.307986552542815 11.668482753709577  43.84043450748787 11.908562546462122  C 43.37288246243293 12.148642339214662  42.80812269402717 12.268567952963439  42.1461716937355 12.268567952963439  C 41.31192934296012 12.268567952963439  40.624881156744905 12.057587930058405  40.08475708359699 11.635365276745286  C 39.544633010449076 11.213142623432168  39.14331122919165 10.603345624126195  38.88117837305773 9.806244509022099  C 38.61911271438647 9.009078832029402  38.48818814596077 8.051108778252138  38.48818814596077 6.932351152260593  C 38.48818814596077 5.818256881145672  38.60755362433907 4.862674289050356  38.846234971525 4.065553828478746  C 39.0849835161736 3.268433367907135  39.47253611077239 2.6565177222961682  40.00896435351192 2.229573562208556  C 40.545459823753234 1.8026294021209428  41.25783625663538 1.58903831857809  42.1461716937355 1.58903831857809  C 42.982833153167405 1.58903831857809  43.67260444371298 1.800741544356014  44.21521479294101 2.2241332702574845  C 44.75782514216905 2.6475314638973484  45.16068597662292 3.2577893184376476  45.42396118962244 4.054909779009259  Z M 40.418688040497784 4.748428735554504  C 40.29813783510588 5.333856595918408  40.23781902552204 6.061889079210524  40.23781902552204 6.932351152260593  C 40.23781902552204 7.809866409523467  40.29865085784456 8.541476880343144  40.420410602545175 9.12691761843617  C 40.5422375371987 9.712358356529196  40.74298786173254 10.150920711434065  41.02232299796105 10.442995201730081  C 41.30159093672688 10.73513428278853  41.676133402639536 10.881293505440292  42.1461716937355 10.881293505440292  C 42.61372373879044 10.881293505440292  42.987753166944884 10.736529004374832  43.268297827462554 10.446779752652565  C 43.548775290517554 10.157030500930299  43.75131078608921 9.719217855076197  43.875623989313084 9.133777116983174  C 43.99986999507428 8.548336378890147  44.061906770723475 7.814581448559569  44.061906770723475 6.932351152260593  C 44.061906770723475 6.061889079210524  44.00038302532272 5.333856595918408  43.877346551360475 4.748428735554504  C 43.75431007739822 4.163007342928993  43.55304673012572 3.722576533474374  43.27371159389721 3.426910860309522  C 42.99444365513138 3.1312387194062774  42.61862906344889 2.983408799080895  42.1461716937355 2.983408799080895  C 41.671228077981084 2.983408799080895  41.294721535671485 3.1312387194062774  41.01666315123392 3.426910860309522  C 40.73860476679636 3.722576533474374  40.53930544335237 4.163007342928993  40.418688040497784 4.748428735554504  Z M 54.77353582225972 9.7591741569237  L 54.77353582225972 6.82803946745962  L 56.56893763622302 6.82803946745962  L 56.56893763622302 9.7591741569237  L 54.77353582225972 9.7591741569237  Z M 60 10.135973508143543  L 60 0  L 62 0  L 62 10.135973508143543  L 60 10.135973508143543  Z M 52.80833860648246 13  L 52.80833860648246 11.731398256403324  L 63 11.731398256403324  L 63 13  L 52.80833860648246 13  Z M 52.80833860648246 12.105595728863959  L 52.80833860648246 9.167128471987565  L 54.603986500738245 9.167128471987565  L 54.603986500738245 12.105595728863959  L 52.80833860648246 12.105595728863959  Z M 53.9523658862406 7.330675136852065  C 52.972979419201074 7.35166677913368  52.06485128037279 7.365308571661002  51.228257048442664 7.371832128134081  C 51.228257048442664 7.371832128134081  51.00580046403712 5.986686490504832  51.00580046403712 5.986686490504832  C 51.855901175692544 5.980175851913548  52.78237220921329 5.969523551746535  53.78527736764396 5.954990876529026  C 54.78838408842357 5.940458201311517  55.81237362980516 5.905014669185411  56.85734373901427 5.848550381834155  C 57.902448183070554 5.791931078096753  58.91061643181928 5.705570045384054  59.88167053364269 5.589308643643982  C 59.88167053364269 5.589308643643982  60.00274203754482 6.824018382104481  60.00274203754482 6.824018382104481  C 59.01475447551666 6.982198488473038  58.00417631007545 7.100923124048979  56.97103283414189 7.180239237683313  C 55.93788935820831 7.259426169792785  54.931819520703705 7.3096189056126315  53.9523658862406 7.330675136852065  Z M 58.20709414328904 8.99540447387984  L 58.20709414328904 7.799722916807461  L 61.29638613513323 7.799722916807461  L 61.29638613513323 8.99540447387984  L 58.20709414328904 8.99540447387984  Z M 53.689306053575194 0.7772521457052105  C 54.21202625424049 0.5784903591594528  54.81284805015699 0.4792187605595729  55.491598115728046 0.4792187605595729  C 56.173842389280345 0.4792187605595729  56.77363720850746 0.5784903591594528  57.291183294663576 0.7772521457052105  C 57.80886377574505 0.975865376384756  58.21317567887676 1.2536896632605004  58.503866976024746 1.610799486382375  C 58.79462547063543 1.9677607536380368  58.939921254306405 2.382083122251871  58.939921254306405 2.853787929985808  C 58.939921254306405 3.325344181853532  58.79462547063543 3.7405140263136634  58.503866976024746 4.099141717915794  C 58.21317567887676 4.4577629417795315  57.80886377574505 4.734040803955062  57.291183294663576 4.927958369939853  C 56.77363720850746 5.121727380058431  56.173842389280345 5.218659187673177  55.491598115728046 5.218659187673177  C 54.81284805015699 5.218659187673177  54.21202625424049 5.121727380058431  53.689306053575194 4.927958369939853  C 53.16672024783526 4.734040803955062  52.76017734087998 4.4577629417795315  52.46948604373198 4.099141717915794  C 52.178727549121305 3.7405140263136634  52.033431765450324 3.325344181853532  52.033431765450324 2.853787929985808  C 52.033431765450324 2.382083122251871  52.178727549121305 1.9677607536380368  52.46948604373198 1.610799486382375  C 52.76017734087998 1.2536896632605004  53.16672024783526 0.975865376384756  53.689306053575194 0.7772521457052105  Z M 56.40111087674893 1.8780833952828275  C 56.14327856810932 1.7911909108162893  55.840145466993654 1.747752922889775  55.491598115728046 1.747752922889775  C 54.97237212304399 1.747752922889775  54.550118677610925 1.8427048807104849  54.225022850312875 2.0325403798067176  C 53.90012861540286 2.222369411164557  53.73778387119454 2.4960709767961307  53.73778387119454 2.853787929985808  C 53.73778387119454 3.20484571127567  53.90012861540286 3.4762074570482775  54.225022850312875 3.667702912752585  C 54.550118677610925 3.8592048217583694  54.97237212304399 3.9548557139960807  55.491598115728046 3.9548557139960807  C 56.007531522858 3.9548557139960807  56.42623638954208 3.8592048217583694  56.74783800885889 3.667702912752585  C 57.0694396281757 3.4762074570482775  57.230401462420026 3.20484571127567  57.230401462420026 2.853787929985808  C 57.230401462420026 2.615213070236735  57.156536821892246 2.4147174245096132  57.009175279476906 2.2522808677434614  C 56.86174653959888 2.089695755111097  56.65907758031391 1.9649758797493657  56.40111087674893 1.8780833952828275  Z " fill-rule="nonzero" fill="#ff3c26" stroke="none" transform="matrix(1 0 0 1 711 534 )" />
  </g>
</svg>