<?xml version="1.0" encoding="utf-8"?>
<svg version="1.1" xmlns:xlink="http://www.w3.org/1999/xlink" width="36px" height="13px" xmlns="http://www.w3.org/2000/svg">
  <g transform="matrix(1 0 0 1 -466 -591 )">
    <path d="M 9.27672429629932 2.97913538899796  L 9.27672429629932 1.9835046387188666  L 11.469453573105264 1.9835046387188666  L 11.469453573105264 2.97913538899796  L 9.27672429629932 2.97913538899796  Z M 9.27672429629932 5.75409015667706  L 9.27672429629932 4.758459406397967  L 11.469453573105264 4.758459406397967  L 11.469453573105264 5.75409015667706  L 9.27672429629932 5.75409015667706  Z M 8.457635075830254 7.715825537975901  L 8.457635075830254 0.011009739384840435  L 9.622338796921884 0.011009739384840435  L 9.622338796921884 7.715825537975901  L 8.457635075830254 7.715825537975901  Z M 1.3714355697985343 9.296473803749471  L 1.3714355697985343 8.33212072217731  L 9.622338796921884 8.33212072217731  L 9.622338796921884 12.988740039265503  L 8.457635075830254 12.988740039265503  L 8.457635075830254 9.296473803749471  L 1.3714355697985343 9.296473803749471  Z M 1.6095201159396624 1.1725372444855064  C 2.110641575110735 0.9099219964265264  2.6770110876551305 0.7784386187781499  3.30893429405401 0.7784386187781499  C 3.95066299246928 0.7784386187781499  4.520682489832316 0.9099219964265264  5.0188810189626665 1.1725372444855064  C 5.517072880334525 1.4351456505544569  5.909200587783343 1.7955804940766409  6.195097058643425 2.2539939176964237  C 6.481134000935759 2.712400499326177  6.623992161825641 3.245529798031973  6.623992161825641 3.8534087846941523  C 6.623992161825641 4.461137430843269  6.481134000935759 4.995222195129947  6.195097058643425 5.455576086538092  C 5.909200587783343 5.915779667977772  5.517072880334525 6.2747032564075615  5.0188810189626665 6.53252877545521  C 4.520682489832316 6.790361136492889  3.95066299246928 6.919370982022558  3.30893429405401 6.919370982022558  C 2.6770110876551305 6.919370982022558  2.110641575110735 6.790361136492889  1.6095201159396624 6.53252877545521  C 1.1084053544273438 6.2747032564075615  0.7147915740422986 5.915779667977772  0.4288951031822172 5.455576086538092  C 0.1429986323221357 4.995222195129947  0 4.461137430843269  0 3.8534087846941523  C 0 3.245529798031973  0.1429986323221357 2.712400499326177  0.4288951031822172 2.2539939176964237  C 0.7147915740422986 1.7955804940766409  1.1084053544273438 1.4351456505544569  1.6095201159396624 1.1725372444855064  Z M 4.43493702925027 2.0535666166223967  C 4.108220182102963 1.8801865726565958  3.733487251245765 1.793586634330369  3.310648894694944 1.793586634330369  C 2.8954087628977767 1.793586634330369  2.5233052312063693 1.8801865726565958  2.1946888203955828 2.0535666166223967  C 1.8662195786758027 2.226953487305928  1.607308229086401 2.4685150157057505  1.4179747300524586 2.778207645224622  C 1.228795067868014 3.087893432753463  1.134330795452226 3.4462612011271387  1.134330795452226 3.8534087846941523  C 1.134330795452226 4.260549526271137  1.228795067868014 4.618917294644812  1.4179747300524586 4.928609924163683  C 1.607308229086401 5.238159055159523  1.8662195786758027 5.480682860585657  2.1946888203955828 5.6560033876121185  C 2.5233052312063693 5.831180431387848  2.8954087628977767 5.918735804750356  3.310648894694944 5.918735804750356  C 3.733487251245765 5.918735804750356  4.108220182102963 5.831180431387848  4.43493702925027 5.6560033876121185  C 4.761801015588322 5.480682860585657  5.019777084973197 5.238159055159523  5.208956747157641 4.928609924163683  C 5.398290246191584 4.618917294644812  5.492845624706579 4.260549526271137  5.492845624706579 3.8534087846941523  C 5.492845624706579 3.4462612011271387  5.398290246191584 3.087893432753463  5.208956747157641 2.778207645224622  C 5.019777084973197 2.4685150157057505  4.761801015588322 2.226953487305928  4.43493702925027 2.0535666166223967  Z M 22 12.983235169573085  L 22 0.005504869692420217  L 23 0.005504869692420217  L 23 12.983235169573085  L 22 12.983235169573085  Z M 17.720397624053398 5.647495861723833  L 17.720397624053398 4.666127728375101  L 20.160519279051254 4.666127728375101  L 20.160519279051254 5.647495861723833  L 17.720397624053398 5.647495861723833  Z M 19.807311547018838 12.318397043538514  L 19.807311547018838 0.3090233668244986  L 21 0.3090233668244986  L 21 12.318397043538514  L 19.807311547018838 12.318397043538514  Z M 15.288848972260212 3.6734996342918738  C 15.288848972260212 3.6734996342918738  15.288848972260212 2.022038726565808  15.288848972260212 2.022038726565808  L 16.185830050417422 2.022038726565808  C 16.185830050417422 2.022038726565808  16.185830050417422 3.6734996342918738  16.185830050417422 3.6734996342918738  C 16.185830050417422 4.38047342285363  16.120459286367648 5.072655806398449  15.989630748504828 5.749586172383262  C 15.859002871302255 6.426516538368076  15.668443655866001 7.059730925396445  15.41768896327897 7.649516880317204  C 15.167068044465438 8.23915933671493  14.858960373062782 8.770108026000162  14.493764160764222 9.242425992223891  C 14.128567948465662 9.714702967596637  13.714530494918709 10.099678196679244  13.251413524933152 10.397447742233515  C 13.251413524933152 10.397447742233515  12.533975628176602 9.509662393655926  12.533975628176602 9.509662393655926  C 13.124509934701017 9.139602763927133  13.623376585192306 8.64966798679481  14.030577044763323 8.039862185779729  C 14.43791127810784 7.430042700784588  14.749394719023648 6.747048254600825  14.965034394072381 5.991049774800785  C 15.180874729781364 5.235051295000746  15.288848972260212 4.462527454424828  15.288848972260212 3.6734996342918738  Z M 15.525708803657814 3.6734996342918738  C 15.525708803657814 3.6734996342918738  15.525708803657814 2.022038726565808  15.525708803657814 2.022038726565808  L 16.417546079892226 2.022038726565808  C 16.417546079892226 2.022038726565808  16.417546079892226 3.6734996342918738  16.417546079892226 3.6734996342918738  C 16.417546079892226 4.4238201176160645  16.52163298927035 5.158218557070919  16.729848339490925 5.876698618008238  C 16.938063689711505 6.595178678945557  17.24206165976276 7.243839530447006  17.641770937519137 7.822419832929129  C 18.04148021527551 8.40084979489819  18.53172796565951 8.86285886754614  19.11289828744055 9.208395888670747  C 19.11289828744055 9.208395888670747  18.406482823375722 10.085171497863495  18.406482823375722 10.085171497863495  C 17.79039814471663 9.697756793889337  17.268230967326907 9.175067028006445  16.83982772345941 8.517534742272009  C 16.411558223465153 7.85988632597466  16.085392213899937 7.11412022553154  15.861525586332185 6.2798052123031916  C 15.637658958764428 5.445490199074843  15.525708803657814 4.576572187806762  15.525708803657814 3.6734996342918738  Z M 12.881549672388807 2.5039650460022327  L 12.881549672388807 1.5195942564576357  L 18.682533526566104 1.5195942564576357  L 18.682533526566104 2.5039650460022327  L 12.881549672388807 2.5039650460022327  Z M 34.83848053724154 13  L 34.83848053724154 0  L 36 0  L 36 13  L 34.83848053724154 13  Z M 26.331856871670308 9.871482465257728  L 26.331856871670308 1.1029757092812873  L 27.491171847890428 1.1029757092812873  L 27.491171847890428 4.5287562074142516  L 31.159927333591884 4.5287562074142516  L 31.159927333591884 1.1029757092812873  L 32.3189973668633 1.1029757092812873  L 32.3189973668633 9.871482465257728  L 26.331856871670308 9.871482465257728  Z M 31.159927333591884 5.476344458559495  L 27.491171847890428 5.476344458559495  L 27.491171847890428 8.892366324055896  L 31.159927333591884 8.892366324055896  L 31.159927333591884 5.476344458559495  Z " fill-rule="nonzero" fill="#26262c" stroke="none" transform="matrix(1 0 0 1 466 591 )" />
  </g>
</svg>