<?xml version="1.0" encoding="utf-8"?>
<svg version="1.1" xmlns:xlink="http://www.w3.org/1999/xlink" width="28px" height="11px" xmlns="http://www.w3.org/2000/svg">
  <g transform="matrix(1 0 0 1 -449 -772 )">
    <path d="M 4.50072080730418 2.0799492385786804  L 4.50072080730418 10.860406091370558  L 2.8827486785199423 10.860406091370558  L 2.8827486785199423 2.0799492385786804  L 0 2.0799492385786804  L 0 0.6560913705583756  L 7.376741950985103 0.6560913705583756  L 7.376741950985103 2.0799492385786804  L 4.50072080730418 2.0799492385786804  Z M 8.712157616530515 3.1338832487309642  L 10.296492071119653 3.1338832487309642  L 10.296492071119653 10.860406091370558  L 8.712157616530515 10.860406091370558  L 8.712157616530515 3.1338832487309642  Z M 8.876982220086497 0.3769035532994924  C 9.049653258133484 0.24196427105301269  9.261568053876593 0.174492385786802  9.512734262373858 0.174492385786802  C 9.757142711751225 0.174492385786802  9.967410408837585 0.24196427105301269  10.143440653531956 0.3769035532994924  C 10.319536508819565 0.5118428355459721  10.407496395963479 0.7444951152179101  10.407496395963479 1.0748730964467006  C 10.407496395963479 1.4005884028068913  10.319536508819565 1.6326665013834045  10.143440653531956 1.7710977157360408  C 9.967410408837585 1.9095289300886766  9.757142711751225 1.9787436548223352  9.512734262373858 1.9787436548223352  C 9.261568053876593 1.9787436548223352  9.049653258133484 1.9095289300886766  8.876982220086497 1.7710977157360408  C 8.70431118203951 1.6326665013834045  8.617972128784238 1.4005884028068913  8.617972128784238 1.0748730964467006  C 8.617972128784238 0.7444951152179101  8.70431118203951 0.5118428355459721  8.876982220086497 0.3769035532994924  Z M 14.578567996155694 9.389435279187818  C 14.766932827071006 9.581388862172792  15.01697748157624 9.67734771573604  15.32868813070639 9.67734771573604  C 15.532799225366785 9.67734771573604  15.736281784035619 9.657568189525536  15.939211917347428 9.618020304568528  C 16.14214205065924 9.57847241961152  16.32655967261458 9.529645395244351  16.4925516578568 9.471446700507615  C 16.4925516578568 9.471446700507615  16.4925516578568 10.713832487309645  16.4925516578568 10.713832487309645  C 16.31763677858264 10.795310662223258  16.091189221772137 10.863329452738718  15.81307063911581 10.917988578680204  C 15.535017637723 10.97264770462169  15.24457702196773 11  14.94185487746276 11  C 14.522479063269612 11  14.144078545705565 10.926691395550037  13.806583373378183 10.780139593908629  C 13.469088201050802 10.633587792267221  13.201678164700715 10.381743754054256  13.004324843825085 10.024587563451776  C 12.806971522949453 9.667431372849297  12.708313310908217 9.171316084609332  12.708313310908217 8.536167512690355  C 12.708313310908217 8.536167512690355  12.708313310908217 4.386738578680203  12.708313310908217 4.386738578680203  L 11.692455550216241 4.386738578680203  L 11.692455550216241 3.6538705583756346  L 12.785679961556944 3.0710659898477157  L 13.30370014416146 1.4168781725888326  L 14.296011532916866 1.4168781725888326  L 14.296011532916866 3.1338832487309642  L 16.42864007688611 3.1338832487309642  L 16.42864007688611 4.386738578680203  L 14.296011532916866 4.386738578680203  C 14.296011532916866 4.386738578680203  14.296011532916866 8.518718274111675  14.296011532916866 8.518718274111675  C 14.296011532916866 8.907254125693296  14.390203165240383 9.197481696202843  14.578567996155694 9.389435279187818  Z M 19.590581451225372 0  L 19.590581451225372 10.860406091370558  L 18 10.860406091370558  L 18 0  L 19.590581451225372 0  Z M 23.02330610283518 3.46367385786802  C 23.53348545292603 3.1484207308231875  24.130533404444225 2.990799492385787  24.81451225372417 2.990799492385787  C 25.47605269073237 2.990799492385787  26.044536013147226 3.132140515765217  26.519942335415667 3.4148159898477157  C 26.995348657684104 3.6974982800390346  27.360850373121018 4.099992122746967  27.616530514175878 4.622303299492386  C 27.872145044637495 5.144614476237805  28 5.768729350288507  28 6.494606598984772  C 28 6.494606598984772  28 7.370558375634518  28 7.370558375634518  C 28 7.370558375634518  23.02835175396444 7.370558375634518  23.02835175396444 7.370558375634518  C 23.04626314345602 8.119721947241901  23.240812551854955 8.69723828034266  23.6119654012494 9.103267766497462  C 23.983118250643848 9.509229182851236  24.50283899999249 9.712246192893401  25.171071600192217 9.712246192893401  C 25.644247191620238 9.712246192893401  26.07034285626464 9.664526615046004  26.44930321960596 9.569162436548224  C 26.828329193540515 9.473730188249418  27.219628513231694 9.331815029418149  27.623258049014897 9.143401015228427  C 27.623258049014897 9.143401015228427  27.623258049014897 10.476522842639595  27.623258049014897 10.476522842639595  C 27.250989848865103 10.657993858840864  26.87202279834665 10.79057297212132  26.486304661220565 10.874365482233504  C 26.100652134687728 10.95808992254466  25.638692699104247 11  25.10043248438251 11  C 24.36941163165245 11  23.72693463554181 10.85286309323162  23.172993753003365 10.558534263959391  C 22.61911851038788 10.264273504488187  22.18685671115712 9.823970249720983  21.876261412782316 9.2376269035533  C 21.56566611440751 8.6513516576157  21.4103796251802 7.923103741928665  21.4103796251802 7.052982233502537  C 21.4103796251802 6.18516822134437  21.551634275701286 5.448814309101506  21.834214320038445 4.843908629441625  C 22.1167943643756 4.239002949781742  22.51319239266729 3.7789201992330903  23.02330610283518 3.46367385786802  Z M 25.731138875540605 4.475729695431472  C 25.49232036365104 4.30704877271092  25.186780453873965 4.222715736040609  24.81451225372417 4.222715736040609  C 24.316667519183987 4.222715736040609  23.913536823351528 4.390226722368734  23.60523786641038 4.725253807106599  C 23.29687329887599 5.060280891844464  23.115789205394417 5.551181248256139  23.06198942815954 6.197969543147209  C 23.06198942815954 6.197969543147209  26.452666987025466 6.197969543147209  26.452666987025466 6.197969543147209  C 26.448139932624198 5.811754850480243  26.38647855422292 5.470335594547928  26.267659778952428 5.17369923857868  C 26.148775393088698 4.877062882609433  25.969957387430174 4.644403802043204  25.731138875540605 4.475729695431472  Z " fill-rule="nonzero" fill="#ffffff" stroke="none" transform="matrix(1 0 0 1 449 772 )" />
  </g>
</svg>