<?xml version="1.0" encoding="utf-8"?>
<svg version="1.1" xmlns:xlink="http://www.w3.org/1999/xlink" width="128px" height="15px" xmlns="http://www.w3.org/2000/svg">
  <g transform="matrix(1 0 0 1 -535 -935 )">
    <path d="M 7.570833698439125 4.928303315662968  L 7.570833698439125 3.36365282670969  L 11.063414113783473 3.36365282670969  L 11.063414113783473 4.928303315662968  L 7.570833698439125 4.928303315662968  Z M 3.5142810336748185 2.6850449441901816  C 3.5142810336748185 2.6850449441901816  3.5142810336748185 1.0142076322807942  3.5142810336748185 1.0142076322807942  L 5.048441601487346 1.0142076322807942  C 5.048441601487346 1.0142076322807942  5.048441601487346 2.6850449441901816  5.048441601487346 2.6850449441901816  C 5.048441601487346 3.6783293205663914  4.898605577641811 4.610400063453572  4.598824295853795 5.481462579434329  C 4.299209454684339 6.352356525762909  3.849225455842518 7.112789178545374  3.2489970702641333 7.762503704191498  C 2.6489351253043076 8.412083362057967  1.8992016922177224 8.907684439717242  0.999691406235118 9.249366171676929  C 0.999691406235118 9.249366171676929  0 7.733611010503441  0 7.733611010503441  C 0.5972322163318488 7.524906648425667  1.114986537120782 7.24789305217791  1.5534229144204723 6.902637384346909  C 1.9920257323387216 6.55738171651591  2.355831469706379 6.1592058190115315  2.6447933374225183 5.70791215304073  C 2.933921645757217 5.256618487069928  3.1511528007027176 4.775718962026378  3.2962995416811123 4.265253037437028  C 3.4416127381600954 3.7546185431955035  3.5142810336748185 3.2278785932908347  3.5142810336748185 2.6850449441901816  Z M 3.9102563614128263 2.711715122979158  C 3.9102563614128263 2.711715122979158  3.9102563614128263 1.0142076322807942  3.9102563614128263 1.0142076322807942  L 5.428324335856691 1.0142076322807942  C 5.428324335856691 1.0142076322807942  5.428324335856691 2.711715122979158  5.428324335856691 2.711715122979158  C 5.428324335856691 3.2006025344161837  5.498272821413741 3.6806400692587347  5.6382595311660655 4.151657831483981  C 5.77824624091839 4.622506993912264  5.987317951108842 5.067553906275724  6.265626845371665 5.486648447532185  C 6.543935739634488 5.905574388991683  6.893457764562006 6.278590753447341  7.314083686057277 6.605808172269599  C 7.734876077935165 6.933025591091856  8.227788630415153 7.199267716188127  8.792895485768494 7.4044318593395015  C 8.792895485768494 7.4044318593395015  7.78271951112652 8.882404267228607  7.78271951112652 8.882404267228607  C 6.932978541780167 8.554883410974517  6.220347139411995 8.085113401796997  5.6450866919891345 7.473329821211024  C 5.0699926851848325 6.8613776106832995  4.637256006149016 6.145139748662889  4.346463172572491 5.324651805999143  C 4.055670338995966 4.503995233393646  3.9102563614128263 3.6330150729725728  3.9102563614128263 2.711715122979158  Z M 11 11.140479404695268  L 11 0.11828718185110798  L 13 0.11828718185110798  L 13 11.140479404695268  L 11 11.140479404695268  Z M 2.653327288451355 14.71971617661585  L 2.653327288451355 13.171611076355735  L 12.628784559644316 13.171611076355735  L 12.628784559644316 14.71971617661585  L 2.653327288451355 14.71971617661585  Z M 2.653327288451355 14.006288894010734  L 2.653327288451355 10.003292614665305  L 4.556642195054118 10.003292614665305  L 4.556642195054118 14.006288894010734  L 2.653327288451355 14.006288894010734  Z M 15.292108762158023 8.548780086266504  L 15.292108762158023 6.98956241151098  C 15.292108762158023 6.98956241151098  16.288874242326113 6.98956241151098  16.288874242326113 6.98956241151098  C 17.016405651742414 6.98956241151098  17.66611976200182 6.982407560308004  18.237784830140086 6.968078100819861  C 18.809383345842175 6.953748641331718  19.352476941188122 6.92072898586158  19.86728182230333 6.868805768660894  C 20.38228642025518 6.816713970503735  20.908045427573807 6.745792366433029  21.44435597243229 6.655938230548879  C 21.44435597243229 6.655938230548879  21.620643017970824 8.193424648513385  21.620643017970824 8.193424648513385  C 21.062560480568116 8.288841989873989  20.518139765354444 8.364667743930173  19.987488618223797 8.421108952619274  C 19.456837471093145 8.477415297296817  18.89395393142742 8.51279773513077  18.298985450375454 8.527295775575384  C 17.704283298124437 8.541658951066417  17.03424938376492 8.548780086266504  16.288874242326113 8.548780086266504  C 16.288874242326113 8.548780086266504  15.292108762158023 8.548780086266504  15.292108762158023 8.548780086266504  Z M 15.292108762158023 7.839797833459551  L 15.292108762158023 1.1268150538342498  L 21.04691768166077 1.1268150538342498  L 21.04691768166077 2.6640545256988575  L 17.120324899707025 2.6640545256988575  L 17.120324899707025 7.839797833459551  L 15.292108762158023 7.839797833459551  Z M 16.57537116972276 5.517516710019427  L 16.57537116972276 4.056089690823483  L 20.892331254452703 4.056089690823483  L 20.892331254452703 5.517516710019427  L 16.57537116972276 5.517516710019427  Z M 25.44263394302826 9.178245694906325  L 25.44263394302826 0.10742155345559909  L 27.249637116591295 0.10742155345559909  L 27.249637116591295 9.178245694906325  L 25.44263394302826 9.178245694906325  Z M 23.513961010511238 5.365891804682097  L 23.513961010511238 3.817786704421982  L 25.97149507964386 3.817786704421982  L 25.97149507964386 5.365891804682097  L 23.513961010511238 5.365891804682097  Z M 22.273612185262934 9.086381745744296  L 22.273612185262934 0.3825195087418919  L 24.048430172088647 0.3825195087418919  L 24.048430172088647 9.086381745744296  L 22.273612185262934 9.086381745744296  Z M 17.210297126268188 11.399772809588093  L 17.210297126268188 9.851667709327977  L 27.249637116591295 9.851667709327977  L 27.249637116591295 15  L 25.35705060556764 15  L 25.35705060556764 11.399772809588093  L 17.210297126268188 11.399772809588093  Z M 43.23445887511858 9.586694544137499  L 43.23445887511858 0.11310131375325146  L 45.132165756759534 0.11310131375325146  L 45.132165756759534 9.586694544137499  L 43.23445887511858 9.586694544137499  Z M 44.613545361378534 5.5757959895953375  L 44.613545361378534 3.9950940041486946  L 47.1442275821869 3.9950940041486946  L 47.1442275821869 5.5757959895953375  L 44.613545361378534 5.5757959895953375  Z M 37.79930737843882 10.048483750946627  C 38.531233094014425 9.837958703988281  39.39995799695978 9.732639689177176  40.40533219547319 9.732639689177176  C 41.41050661762185 9.732639689177176  42.278943642587464 9.837958703988281  43.01086935816307 10.048483750946627  C 43.742728521302496 10.258873930125315  44.305988129855116 10.560229683506419  44.700347834700416 10.952553422672946  C 45.09484070394619 11.344607426280158  45.292116381757154 11.8159109912365  45.292116381757154 12.366566790688486  C 45.292116381757154 12.91695285458116  45.09484070394619 13.388211775107086  44.700347834700416 13.780333212604129  C 44.305988129855116 14.172589517880828  43.742728521302496 14.47208639293549  43.01086935816307 14.678970070132692  C 42.278943642587464 14.885786313440068  41.41050661762185 14.989381317704389  40.40533219547319 14.989381317704389  C 39.39995799695978 14.989381317704389  38.531233094014425 14.885786313440068  37.79930737843882 14.678970070132692  C 37.06744821529939 14.47208639293549  36.50171262396135 14.172589517880828  36.102026432389394 13.780333212604129  C 35.70240682301767 13.388211775107086  35.502699242992826 12.91695285458116  35.502699242992826 12.366566790688486  C 35.502699242992826 11.8159109912365  35.70240682301767 11.344607426280158  36.102026432389394 10.952553422672946  C 36.50171262396135 10.560229683506419  37.06744821529939 10.258873930125315  37.79930737843882 10.048483750946627  Z M 42.63635082158328 11.489908136050838  C 42.11715163430877 11.296376142953688  41.373554181064534 11.199499522570875  40.40533219547319 11.199499522570875  C 39.43691049304521 11.199499522570875  38.69302510229312 11.296376142953688  38.17382591501861 11.489908136050838  C 37.65469328018028 11.68330526136833  37.39504192684423 11.975456861538865  37.39504192684423 12.366566790688486  C 37.39504192684423 12.757474418168622  37.65469328018028 13.051372818345355  38.17382591501861 13.24841131342399  C 38.69302510229312 13.445517242392452  39.43691049304521 13.54425274110171  40.40533219547319 13.54425274110171  C 41.373554181064534 13.54425274110171  42.11715163430877 13.445517242392452  42.63635082158328 13.24841131342399  C 43.155683173258254 13.051372818345355  43.41537863692991 12.757474418168622  43.41537863692991 12.366566790688486  C 43.41537863692991 11.975456861538865  43.155683173258254 11.68330526136833  42.63635082158328 11.489908136050838  Z M 33.62303557209855 3.0994204998189065  L 33.62303557209855 1.5893450989430706  L 42.27987549575017 1.5893450989430706  L 42.27987549575017 3.0994204998189065  L 33.62303557209855 3.0994204998189065  Z M 36.08105729557568 3.995834842448388  C 36.61936524691311 3.774486852113756  37.24371758098681 3.6639392841855716  37.95413763281914 3.6639392841855716  C 38.66455768465146 3.6639392841855716  39.28798149913708 3.774486852113756  39.82429204399556 3.995834842448388  C 40.3608023056907 4.217014263130844  40.780891849076696 4.527451194061563  41.08463469736857 4.926821639063581  C 41.38844412786068 5.326192084065597  41.540347682308436 5.791908071484722  41.540347682308436 6.3242896183859605  C 41.540347682308436 6.852962391781016  41.38844412786068 7.318097006826773  41.08463469736857 7.719288136709361  C 40.780891849076696 8.1203781308296  40.3608023056907 8.429750754817443  39.82429204399556 8.647558526225676  C 39.28798149913708 8.865164011036818  38.66455768465146 8.974021270290738  37.95413763281914 8.974021270290738  C 37.24371758098681 8.974021270290738  36.61936524691311 8.865164011036818  36.08105729557568 8.647558526225676  C 35.5429490610749 8.429750754817443  35.12208580097226 8.1203781308296  34.81827637048015 7.719288136709361  C 34.51453352218827 7.318097006826773  34.362563385540284 6.852962391781016  34.362563385540284 6.3242896183859605  C 34.362563385540284 5.791908071484722  34.51453352218827 5.326192084065597  34.81827637048015 4.926821639063581  C 35.12208580097226 4.527451194061563  35.5429490610749 4.217014263130844  36.08105729557568 3.995834842448388  Z M 39.22886608935504 5.399229528168318  C 38.90308488995394 5.184119067136026  38.47813067898248 5.076470975601726  37.95413763281914 5.076470975601726  C 37.42668237177167 5.076470975601726  36.99995934229525 5.184119067136026  36.67404497849368 5.399229528168318  C 36.34826377909258 5.614171419548433  36.185415325299736 5.922390447732572  36.185415325299736 6.3242896183859605  C 36.185415325299736 6.72247998538838  36.34826377909258 7.028191374200062  36.67404497849368 7.241447433406869  C 36.99995934229525 7.454534922961498  37.42668237177167 7.561242632774687  37.95413763281914 7.561242632774687  C 38.47813067898248 7.561242632774687  38.90308488995394 7.454534922961498  39.22886608935504 7.241447433406869  C 39.5545807065559 7.028191374200062  39.717251915376735 6.72247998538838  39.717251915376735 6.3242896183859605  C 39.717251915376735 5.922390447732572  39.5545807065559 5.614171419548433  39.22886608935504 5.399229528168318  Z M 37.00272400669001 2.4062427974054192  L 37.00272400669001 0  L 38.90018706115871 0  L 38.90018706115871 2.4062427974054192  L 37.00272400669001 2.4062427974054192  Z M 49.9645764836312 5.90942017055744  L 49.9645764836312 0.7010799776102202  L 59.91735782780468 0.7010799776102202  L 59.91735782780468 5.90942017055744  L 49.9645764836312 5.90942017055744  Z M 58.04622810793924 4.3939119554838495  L 58.04622810793924 2.211155378486056  L 51.82473398074527 2.211155378486056  L 51.82473398074527 4.3939119554838495  L 58.04622810793924 4.3939119554838495  Z M 48.30825850252018 9  L 48.30825850252018 7.443449343123374  L 61.60074062503572 7.443449343123374  L 61.60074062503572 9  L 48.30825850252018 9  Z M 53.99479581379224 7.902522142833624  L 53.99479581379224 5.558015870402687  L 55.88713849764364 5.558015870402687  L 55.88713849764364 7.902522142833624  L 53.99479581379224 7.902522142833624  Z M 49.783900548992115 11.695614237265813  L 49.783900548992115 10  L 59.98684857189663 10  L 59.98684857189663 15  L 58.08914169025567 15  L 58.08914169025567 11.695614237265813  L 49.783900548992115 11.695614237265813  Z M 69.30884902145299 1.0003786506865102  C 69.89742573033858 0.7139580418801292  70.56082612884362 0.5706924368641138  71.29921022854988 0.5706924368641138  C 72.04924600494893 0.5706924368641138  72.71658264074352 0.7146633394752602  73.30103131274264 1.0026011655855915  C 73.88541337277746 1.2903704220437464  74.34645299326428 1.6870573780549292  74.68401903375863 2.192634420993711  C 75.021585074253 2.698211463932493  75.19020424335476 3.28400444982081  75.19020424335476 3.9499028678673733  C 75.19020424335476 4.604337705511888  75.021585074253 5.1851700651551855  74.68401903375863 5.692601494847057  C 74.34645299326428 6.1998643548867545  73.88541337277746 6.596551310897937  73.30103131274264 6.882634750255178  C 72.71658264074352 7.168549589815454  72.04924600494893 7.31158012577788  71.29921022854988 7.31158012577788  C 70.56082612884362 7.31158012577788  69.89762455425345 7.168549589815454  69.30958050296974 6.882634750255178  C 68.7216696160865 6.596551310897937  68.2579767976063 6.200894944884717  67.91854648526942 5.695317901945935  C 67.57931591953323 5.189740859007153  67.40967917677851 4.6077211564704506  67.40967917677851 3.9494089756675774  C 67.40967917677851 3.283847757214942  67.57905051341811 2.6975061964821503  67.91781500375265 2.1904119060946297  C 68.25671265848766 1.6833176157071097  68.72047208893215 1.286630659695927  69.30884902145299 1.0003786506865102  Z M 72.35229978550828 2.353149385927365  C 72.04416257152899 2.2078318101480314  71.6943643361329 2.1353429258173913  71.30286763613367 2.1353429258173913  C 70.91137093613443 2.1353429258173913  70.56146203796656 2.2078318101480314  70.25319165958679 2.353149385927365  C 69.94492128120702 2.4982983769821283  69.70134497532679 2.706518071165107  69.52244162434614 2.977429126469329  C 69.3434717060473 3.2483401817735515  69.25398790769617 3.5703203657799074  69.25398790769617 3.943729215369925  C 69.25398790769617 4.31730663461212  69.3434717060473 4.640474131367093  69.52244162434614 4.9132396035691945  C 69.70134497532679 5.186005075771295  69.94430230783371 5.395086760155272  70.25124104220878 5.5402357512100355  C 70.55817977658383 5.685384742264799  70.9088624212324 5.758042211320009  71.30335529047817 5.758042211320009  C 71.69804790632465 5.758042211320009  72.04857577786582 5.685384742264799  72.35498188440306 5.5402357512100355  C 72.66145457314053 5.395086760155272  72.9040358069965 5.186005075771295  73.08280599357668 4.9132396035691945  C 73.26170934455732 4.640474131367093  73.35101588305439 4.31730663461212  73.35101588305439 3.943729215369925  C 73.35101588305439 3.5703203657799074  73.26170934455732 3.2483401817735515  73.08280599357668 2.977429126469329  C 72.9040358069965 2.706518071165107  72.66057016388805 2.4982983769821283  72.35229978550828 2.353149385927365  Z M 77.42683089442664 7.6061868229561105  L 77.42683089442664 0.11310131375325146  L 79.33526617164671 0.11310131375325146  L 79.33526617164671 7.6061868229561105  L 77.42683089442664 7.6061868229561105  Z M 69.61533977697434 9.741282802673604  L 69.61533977697434 8.247258898291133  L 79.33526617164671 8.247258898291133  L 79.33526617164671 12.195433143459221  L 71.50743863365348 12.195433143459221  L 71.50743863365348 14.12358829146225  L 69.6416731115776 14.12358829146225  L 69.6416731115776 10.798952948536433  L 77.45340805620216 10.798952948536433  L 77.45340805620216 9.741282802673604  L 69.61533977697434 9.741282802673604  Z M 69.6416731115776 14.827384676171347  L 69.6416731115776 13.322742089493268  L 79.7390439688968 13.322742089493268  L 79.7390439688968 14.827384676171347  L 69.6416731115776 14.827384676171347  Z M 82.55817373447982 2.2961048368509434  L 82.55817373447982 0.7805966217773534  L 88.90670181841733 0.7805966217773534  L 88.90670181841733 2.2961048368509434  L 82.55817373447982 2.2961048368509434  Z M 84.4727046910062 6.964126963221495  L 84.4727046910062 3.8353198775147344  L 86.34383441087165 3.8353198775147344  L 86.34383441087165 6.964126963221495  L 84.4727046910062 6.964126963221495  Z M 88.15303202898495 1.6291034210266373  C 88.15303202898495 1.6291034210266373  88.15303202898495 0.7805966217773534  88.15303202898495 0.7805966217773534  L 90.02416174885039 0.7805966217773534  C 90.02416174885039 0.7805966217773534  90.02416174885039 1.6291034210266373  90.02416174885039 1.6291034210266373  C 90.02416174885039 2.0610101601921342  90.01186817859852 2.5924638505315003  89.98710001866802 3.2236343880675644  C 89.96226527839754 3.854804925603629  89.86475521085336 4.563966298738414  89.69450741196506 5.351075038688222  C 89.69450741196506 5.351075038688222  87.85019868104739 5.156234565868756  87.85019868104739 5.156234565868756  C 87.99900738351062 4.379915067422716  88.08661168756322 3.7061479554727885  88.11304437273554 3.134486846004412  C 88.13967680264834 2.5628257365360354  88.15303202898495 2.0610101601921342  88.15303202898495 1.6291034210266373  Z M 91.61220812173072 8.049455072272892  L 91.61220812173072 0.10223568535774258  L 93.52064339895078 0.10223568535774258  L 93.52064339895078 8.049455072272892  L 91.61220812173072 8.049455072272892  Z M 92.7516124976665 4.9223766092654175  L 92.7516124976665 3.357973066412038  L 95.37714348848107 3.357973066412038  L 95.37714348848107 4.9223766092654175  L 92.7516124976665 4.9223766092654175  Z M 84.69458741775595 7.762750650291396  C 83.686217049996 7.786014948515797  82.74145182175091 7.797570050377004  81.86058419466552 7.797570050377004  C 81.86058419466552 7.797570050377004  81.68990517408879 6.292927463698923  81.68990517408879 6.292927463698923  C 82.58142571509939 6.292927463698923  83.54124846179343 6.285772612495946  84.56926025121818 6.271443153007803  C 85.59727204064295 6.256945112563189  86.64308499948568 6.2210141262614504  87.70658447659069 6.163527707352409  C 88.77021717762429 6.106041288443366  89.79190630702794 6.0199479785773615  90.77197968614871 5.9049751407592765  C 90.77197968614871 5.9049751407592765  90.89486858096396 7.225642883013402  90.89486858096396 7.225642883013402  C 89.87917434976247 7.398439301653472  88.84412990845051 7.525267526750243  87.78948571515653 7.6061868229561105  C 86.73484152186253 7.687106119161975  85.70315756188067 7.739351486171389  84.69458741775595 7.762750650291396  Z M 83.57542069711712 10.038358960850813  L 83.57542069711712 8.61496164103915  L 93.52064339895078 8.61496164103915  L 93.52064339895078 12.351996970794508  L 85.48922017212675 12.351996970794508  L 85.48922017212675 13.863060156069936  L 83.59687748827534 13.863060156069936  L 83.59687748827534 11.010091863949162  L 91.61757231952026 11.010091863949162  L 91.61757231952026 10.038358960850813  L 83.57542069711712 10.038358960850813  Z M 83.59687748827534 14.870600243653486  L 83.59687748827534 13.425718613150702  L 94.02097675641285 13.425718613150702  L 94.02097675641285 14.870600243653486  L 83.59687748827534 14.870600243653486  Z M 111.05474300997025 7.611866583253762  L 111.05474300997025 0.10223568535774258  L 112.96317828719032 0.10223568535774258  L 112.96317828719032 7.611866583253762  L 111.05474300997025 7.611866583253762  Z M 106.23184154281643 1.7399822198808073  C 106.23184154281643 1.7399822198808073  106.23184154281643 0.715896743604096  106.23184154281643 0.715896743604096  C 106.23184154281643 0.715896743604096  108.30022744503411 0.715896743604096  108.30022744503411 0.715896743604096  C 108.30022744503411 2.0114484517379863  108.0438707944575 3.14135919438851  107.53119654374983 4.105478910803068  C 107.01852229304217 5.069598627217627  106.26156964694587 5.8689401219695085  105.26019026139035 6.5038194330117545  C 104.25881087583483 7.138530174401825  103.02228923236349 7.623080052353216  101.55084748991355 7.957344177010964  C 101.55084748991355 7.957344177010964  100.90982585406182 6.403806262553093  100.90982585406182 6.403806262553093  C 102.15289451903185 6.141661462202585  103.16558478280332 5.781532386321835  103.94791242032757 5.323664021599552  C 104.72957423584946 4.865627087225092  105.30548100981595 4.331497172788701  105.67567176290855 3.7212307793618913  C 106.04652833800351 3.110964385935082  106.23184154281643 2.450554791101606  106.23184154281643 1.7399822198808073  Z M 101.73176725172489 2.2533831615686015  L 101.73176725172489 0.715896743604096  L 107.0379341742831 0.715896743604096  L 107.0379341742831 2.2533831615686015  L 101.73176725172489 2.2533831615686015  Z M 107.74088791188696 3.5145368937473247  L 107.74088791188696 2.0422442461558723  L 111.31124919517984 2.0422442461558723  L 111.31124919517984 3.5145368937473247  L 107.74088791188696 3.5145368937473247  Z M 107.63409161044038 6.385285305060749  L 107.63409161044038 4.923858285864806  L 111.24248993260464 4.923858285864806  L 111.24248993260464 6.385285305060749  L 107.63409161044038 6.385285305060749  Z M 103.31859448874394 9.714612623884628  L 103.31859448874394 8.199104408811037  L 112.96317828719032 8.199104408811037  L 112.96317828719032 12.179381646965856  L 105.24312235933267 12.179381646965856  L 105.24312235933267 14.166063020644694  L 103.34468399617496 14.166063020644694  L 103.34468399617496 10.745118698758684  L 111.06059486210431 10.745118698758684  L 111.06059486210431 9.714612623884628  L 103.31859448874394 9.714612623884628  Z M 103.34468399617496 14.854301801060222  L 103.34468399617496 13.332866879589082  L 113.30770608158305 13.332866879589082  L 113.30770608158305 14.854301801060222  L 103.34468399617496 14.854301801060222  Z M 126 14.989134371604491  L 126 0.10223568535774258  L 128 0.10223568535774258  L 128 14.989134371604491  L 126 14.989134371604491  Z M 121.20551201801273 6.828306608277634  L 121.20551201801273 5.263903065424254  L 123.74838559743372 5.263903065424254  L 123.74838559743372 6.828306608277634  L 121.20551201801273 6.828306608277634  Z M 123 14.293734154291924  L 123 0.3765928023443416  L 125 0.3765928023443416  L 125 14.293734154291924  L 123 14.293734154291924  Z M 118.13865384542119 4.130667412992658  C 118.13865384542119 4.130667412992658  118.13865384542119 2.498847584867143  118.13865384542119 2.498847584867143  L 119.57162613674895 2.498847584867143  C 119.57162613674895 2.498847584867143  119.57162613674895 4.130667412992658  119.57162613674895 4.130667412992658  C 119.57162613674895 4.95823582365399  119.50688514121022 5.774093044628048  119.37705205329148 6.578397155180929  C 119.24788477249305 7.38273496760633  119.0510733395941 8.13958473151557  118.78674646926825 8.84857265154259  C 118.5224195989424 9.557493107534995  118.18252714005966 10.197109732235829  117.76706123490843 10.767590793849395  C 117.3515953297572 11.338071855462962  116.85953388054754 11.803194623607197  116.290931534092 12.163083204372592  C 116.290931534092 12.163083204372592  115.15250246684522 10.744871752658785  115.15250246684522 10.744871752658785  C 115.8635883406799 10.291386530485752  116.43708479137537 9.713800824754957  116.87319082143088 9.012297915774916  C 117.30996267348874 8.310862470829491  117.62982229844732 7.537587173902531  117.8328945714166 6.692486253333772  C 118.03663265150621 5.847385332765014  118.13865384542119 4.993469413121018  118.13865384542119 4.130667412992658  Z M 118.55608596431742 4.130667412992658  C 118.55608596431742 4.130667412992658  118.55608596431742 2.498847584867143  118.55608596431742 2.498847584867143  L 119.97808603289381 2.498847584867143  C 119.97808603289381 2.498847584867143  119.97808603289381 4.130667412992658  119.97808603289381 4.130667412992658  C 119.97808603289381 4.964979092057648  120.07645891214507 5.785875315724447  120.27287308414704 6.593213921174805  C 120.46928725614902 7.400518764463067  120.78215976823084 8.134212749499163  121.21160769731904 8.794244509565045  C 121.64105562640725 9.454208805596313  122.20570798457793 9.991171697025175  122.90547506295694 10.405073919199236  C 122.90547506295694 10.405073919199236  121.78874661404063 11.801801060221921  121.78874661404063 11.801801060221921  C 121.02839074542538 11.337526596545121  120.41142412450806 10.710540336394608  119.93736689512765 9.9205656711995  C 119.46330966574723 9.13059100600439  119.11463874409004 8.237037283137594  118.89159215333682 7.240212702907378  C 118.66787974058123 6.243219492735411  118.55608596431742 5.2067255175450065  118.55608596431742 4.130667412992658  Z M 115.65966298513035 3.223881334167462  L 115.65966298513035 1.6649106055118368  L 122.2593330564879 1.6649106055118368  L 122.2593330564879 3.223881334167462  L 115.65966298513035 3.223881334167462  Z " fill-rule="nonzero" fill="#ffffff" stroke="none" transform="matrix(1 0 0 1 535 935 )" />
  </g>
</svg>