<?xml version="1.0" encoding="utf-8"?>
<svg version="1.1" xmlns:xlink="http://www.w3.org/1999/xlink" width="94px" height="15px" xmlns="http://www.w3.org/2000/svg">
  <g transform="matrix(1 0 0 1 -437 -703 )">
    <path d="M 10.133560996084995 7.5611656279008095  L 10.133560996084995 0  L 12.039859982225725 0  L 12.039859982225725 7.5611656279008095  L 10.133560996084995 7.5611656279008095  Z M 5.315327593399163 1.6489855456835962  C 5.315327593399163 1.6489855456835962  5.315327593399163 0.6178722981036998  5.315327593399163 0.6178722981036998  C 5.315327593399163 0.6178722981036998  7.38188526522797 0.6178722981036998  7.38188526522797 0.6178722981036998  C 7.38188526522797 1.9223147105070406  7.125738278831057 3.059979448772492  6.6134716583193205 4.030715422357777  C 6.101205037807584 5.0014513959430635  5.345022420065955 5.806278359777746  4.344763972628649 6.445514520620607  C 3.3445055251913454 7.084580955004569  2.1095998175407953 7.572456049264671  0.6403040800516128 7.909014056491181  C 0.6403040800516128 7.909014056491181  0 6.344815011271715  0 6.344815011271715  C 1.2413446727005177 6.080871246139593  2.2526694967026253 5.718270789848178  3.033955087562929 5.257260310303673  C 3.815240678423233 4.796080104300268  4.390734685560998 4.258284731294444  4.760511049330096 3.64383039384697  C 5.130453697135857 3.0293760563994954  5.315327593399163 2.364434410573759  5.315327593399163 1.6489855456835962  Z M 0.8202906586587416 2.165909693674579  L 0.8202906586587416 0.6178722981036998  L 6.121248552277362 0.6178722981036998  L 6.121248552277362 2.165909693674579  L 0.8202906586587416 2.165909693674579  Z M 6.82268474495467 3.435718074525925  L 6.82268474495467 1.9533218406046944  L 10.3895364955655 1.9533218406046944  L 10.3895364955655 3.435718074525925  L 6.82268474495467 3.435718074525925  Z M 6.7164950991188 6.326166953984883  L 6.7164950991188 4.854710913671926  L 10.320367093232042 4.854710913671926  L 10.320367093232042 6.326166953984883  L 6.7164950991188 6.326166953984883  Z M 2.4055851649561735 9.6783417318658  L 2.4055851649561735 8.152433364275295  L 12.039859982225725 8.152433364275295  L 12.039859982225725 12.160025195597402  L 4.327715176278854 12.160025195597402  L 4.327715176278854 14.160340140564912  L 2.4321325764151407 14.160340140564912  L 2.4321325764151407 10.715919639305133  L 10.138919189223502 10.715919639305133  L 10.138919189223502 9.6783417318658  L 2.4055851649561735 9.6783417318658  Z M 2.4321325764151407 14.853301949343589  L 2.4321325764151407 13.321426203421296  L 12.384245668491594 13.321426203421296  L 12.384245668491594 14.853301949343589  L 2.4321325764151407 14.853301949343589  Z M 26 14.989059806391726  L 26 0  L 27 0  L 27 14.989059806391726  L 26 14.989059806391726  Z M 20.272480185308495 6.772228484285904  L 20.272480185308495 5.197089245458162  L 22.812750841428056 5.197089245458162  L 22.812750841428056 6.772228484285904  L 20.272480185308495 6.772228484285904  Z M 23 14.28888741546214  L 23 0.27623988860893783  L 24 0.27623988860893783  L 24 14.28888741546214  L 23 14.28888741546214  Z M 17.209542143950916 4.056076780267869  C 17.209542143950916 4.056076780267869  17.209542143950916 2.4130586129160587  17.209542143950916 2.4130586129160587  L 18.640423266165914 2.4130586129160587  C 18.640423266165914 2.4130586129160587  18.640423266165914 4.056076780267869  18.640423266165914 4.056076780267869  C 18.640423266165914 4.88932436680133  18.57577631096477 5.710780395783001  18.44655409624538 6.520604031295584  C 18.317398389194505 7.330461599959285  18.120696726944452 8.09250523408233  17.856665742542447 8.806358573133537  C 17.592568250471928 9.520143985179196  17.253056265182668 10.164149969424956  16.838121937758938 10.738545948813154  C 16.42312110266669 11.312941928201353  15.9316104641117 11.78125659440307  15.36364460773518 12.143614905184988  C 15.36364460773518 12.143614905184988  14.226489891203805 10.715670998541308  14.226489891203805 10.715670998541308  C 14.936513749073718 10.259073740796406  15.50930172359052 9.677524361776713  15.945252117496782 8.971207399549131  C 16.381202511403043 8.264958364327095  16.70105819539855 7.486376477211039  16.904368689289573 6.635476064182469  C 17.10787870618615 5.784575651153901  17.209542143950916 4.924799746250446  17.209542143950916 4.056076780267869  Z M 17.626263437586637 4.056076780267869  C 17.626263437586637 4.056076780267869  17.626263437586637 2.4130586129160587  17.626263437586637 2.4130586129160587  L 19.04618461929105 2.4130586129160587  C 19.04618461929105 2.4130586129160587  19.04618461929105 4.056076780267869  19.04618461929105 4.056076780267869  C 19.04618461929105 4.896113910783809  19.144491426620746 5.722643522539026  19.340885241908946 6.53552247712505  C 19.537412072534185 7.348367437856645  19.84997840308339 8.087096386919477  20.27881259538128 8.751657605092163  C 20.7077798030162 9.416150896259303  21.271910631597745 9.956798687519942  21.97102741021529 10.373541307518897  C 21.97102741021529 10.373541307518897  20.855305466237944 11.779853467709852  20.855305466237944 11.779853467709852  C 20.095667720114974 11.312392927452324  19.4791481737238 10.681103983445187  19.005754616518676 9.885708128895372  C 18.53242753725133 9.090312274345557  18.18403640658076 8.19062655238602  17.96090695450977 7.186961278345047  C 17.737710994770264 6.183126217141864  17.626263437586637 5.139519317509594  17.626263437586637 4.056076780267869  Z M 14.733326251259877 3.143067895504575  L 14.733326251259877 1.5733987534809706  L 21.325365137025166 1.5733987534809706  L 21.325365137025166 3.143067895504575  L 14.733326251259877 3.143067895504575  Z M 38.97257423869869 1.2096373160058347  C 38.97257423869869 1.2096373160058347  38.97257423869869 0.4609799761304867  38.97257423869869 0.4609799761304867  L 40.633370557402365 0.4609799761304867  C 40.633370557402365 0.4609799761304867  40.633370557402365 1.2096373160058347  40.633370557402365 1.2096373160058347  C 40.633370557402365 1.7819963957773028  40.541403176600426 2.3307950027803734  40.357180056535675 2.856136454051187  C 40.17308995180796 3.381477905322  39.90626374256078 3.869792461205566  39.55710439926312 4.321127834504708  C 39.20794505596545 4.772293450993294  38.78775150904134 5.177486416136707  38.29646768631251 5.536483888078505  C 37.805117355915165 5.8954813600203  37.24971107285963 6.1972702556509445  36.63006962023677 6.442033549927066  C 36.01056118295093 6.686627102568459  35.33831784310257 6.866974539125081  34.613197012055934 6.9830758520090175  C 34.613197012055934 6.9830758520090175  33.87108726237268 5.4295683596340005  33.87108726237268 5.4295683596340005  C 34.50735533481744 5.34249237307407  35.08986190219905 5.19919042988175  35.61858888822674 4.999917119745392  C 36.14751542699073 4.800643809609033  36.62023067733076 4.562506964693271  37.03656163606261 4.28532356451399  C 37.45302561013149 4.008140164334709  37.80479584767763 3.701119872496498  38.0916385758814 3.3643581753083147  C 38.378414796416635 3.027596478120131  38.59698178377738 2.6765634627545203  38.74728657264782 2.311115899748044  C 38.897591361518266 1.945668336741568  38.97257423869869 1.5784796510035504  38.97257423869869 1.2096373160058347  Z M 39.3252407689059 1.2096373160058347  C 39.3252407689059 1.2096373160058347  39.3252407689059 0.4609799761304867  39.3252407689059 0.4609799761304867  L 40.98067889447106 0.4609799761304867  C 40.98067889447106 0.4609799761304867  40.98067889447106 1.2096373160058347  40.98067889447106 1.2096373160058347  C 40.98067889447106 1.5749151222017552  41.05667820623856 1.939409218294806  41.20864565709118 2.3031593953056624  C 41.360746123280855 2.6667398155059634  41.580902902576604 3.0169049252756803  41.86940829276256 3.353666622463864  C 42.15804669828553 3.690428319652048  42.50981693583168 3.998316547437809  42.92448523258134 4.277367060071609  C 43.339286544668035 4.556247846246509  43.811051897820256 4.796290274340442  44.33977888384795 4.997430712107148  C 44.86870542261194 5.198401408239126  45.449312076694966 5.34249237307407  46.0819223165635 5.4295683596340005  C 46.0819223165635 5.4295683596340005  45.34005612111382 6.9830758520090175  45.34005612111382 6.9830758520090175  C 44.61846010730637 6.866974539125081  43.94882302371083 6.685759181796738  43.33097724840718 6.439298501524997  C 42.71313147310353 6.192668079618528  42.15748163581444 5.888973600809715  41.66433562809787 5.528278742872298  C 41.17132263571833 5.167583884934882  40.75042271610924 4.761601898148844  40.40126337281158 4.310436281660257  C 40.05230355251946 3.859100908361116  39.78565438983733 3.371575374120174  39.60143126977259 2.8479313088449807  C 39.417341165044874 2.3242872435697874  39.3252407689059 1.7782621708682638  39.3252407689059 1.2096373160058347  Z M 38.97817598607077 15  L 38.97817598607077 9.443873491579367  L 40.86840039279598 9.443873491579367  L 40.86840039279598 15  L 38.97817598607077 15  Z M 33.329909755383454 9.8086294921098  L 33.329909755383454 8  L 46.607512352604346 8  L 46.607512352604346 9.8086294921098  L 33.329909755383454 9.8086294921098  Z M 57 10.843720991910887  L 57 0.005470096804137382  L 59 0.005470096804137382  L 59 10.843720991910887  L 57 10.843720991910887  Z M 58.97665765861469 5.777168147460549  L 58.97665765861469 4.191088715024533  L 61.530810906047655 4.191088715024533  L 61.530810906047655 5.777168147460549  L 58.97665765861469 5.777168147460549  Z M 48.59345357312198 8.346373160058349  L 48.59345357312198 6.771233921230606  C 48.59345357312198 6.771233921230606  49.791496848045476 6.771233921230606  49.791496848045476 6.771233921230606  C 50.842167216296566 6.771233921230606  51.74539035102173 6.759599522655261  52.50103769649515 6.736175573531362  C 53.256751519906345 6.712581886566692  53.939419765843006 6.666426869194983  54.54908524657275 6.597682668081156  C 55.1589502205773 6.52893846696733  55.763499159634655 6.4310814205301705  56.36259006972388 6.304286566768333  C 56.36259006972388 6.304286566768333  56.554510805775855 7.841383768730938  56.554510805775855 7.841383768730938  C 55.93779563110626 7.975273709005678  55.31471647231651 8.078497019232687  54.685232063137555 8.15094151969235  C 54.05594714723339 8.223250234432143  53.351877346021176 8.273801749841144  52.572886195397864 8.302861026389072  C 51.79409459751084 8.331716616769286  50.86690759329309 8.346373160058349  49.791496848045476 8.346373160058349  C 49.791496848045476 8.346373160058349  48.59345357312198 8.346373160058349  48.59345357312198 8.346373160058349  Z M 48.59345357312198 7.604926402333908  L 48.59345357312198 1.2161019758652698  L 55.139704262976394 1.2161019758652698  L 55.139704262976394 2.7748309242805993  L 50.48392153408075 2.7748309242805993  L 50.48392153408075 7.604926402333908  L 48.59345357312198 7.604926402333908  Z M 50.141727835916996 14.717792733059275  L 50.141727835916996 13.159063784643946  L 60.078740565512206 13.159063784643946  L 60.078740565512206 14.717792733059275  L 50.141727835916996 14.717792733059275  Z M 50.141727835916996 13.933579763957034  L 50.141727835916996 9.718621535605356  L 52.04291218315279 9.718621535605356  L 52.04291218315279 13.933579763957034  L 50.141727835916996 13.933579763957034  Z M 74.3432249171527 4.859186447420766  L 74.3432249171527 3.2837985678292  L 77.83189575878804 3.2837985678292  L 77.83189575878804 4.859186447420766  L 74.3432249171527 4.859186447420766  Z M 70.29096957903982 2.600533748839676  C 70.29096957903982 2.600533748839676  70.29096957903982 0.918230340803607  70.29096957903982 0.918230340803607  L 71.82341281665289 0.918230340803607  C 71.82341281665289 0.918230340803607  71.82341281665289 2.600533748839676  71.82341281665289 2.600533748839676  C 71.82341281665289 3.600634524430509  71.67371127939087 4.539101588885706  71.37429880995255 5.416141758387481  C 71.07501935585127 6.293012201430358  70.62578262065043 7.058663311948069  70.02622612715085 7.712836493833708  C 69.4268026489883 8.366873882411566  68.67769814777532 8.865876015072681  67.77919476824778 9.20990253282058  C 67.77919476824778 9.20990253282058  66.78062241061689 7.683745524466251  66.78062241061689 7.683745524466251  C 67.37718608876393 7.473608931817264  67.8946043926844 7.194694333897869  68.33254998691544 6.847069354197057  C 68.77069510415203 6.499444374496244  69.1340603308451 6.0985360008354075  69.42269873636809 5.64414533881448  C 69.7114701572281 5.189754676793554  69.92824782964829 4.7055549859336665  70.07323209422958 4.191585996552181  C 70.21841588181641 3.6774472807117964  70.29096957903982 3.1470925857590486  70.29096957903982 2.600533748839676  Z M 70.68650165435508 2.6273869513327144  C 70.68650165435508 2.6273869513327144  70.68650165435508 0.918230340803607  70.68650165435508 0.918230340803607  L 72.20287031255263 0.918230340803607  C 72.20287031255263 0.918230340803607  72.20287031255263 2.6273869513327144  72.20287031255263 2.6273869513327144  C 72.20287031255263 3.1196293453372865  72.27277375202594 3.6029611306012805  72.41257050765512 4.077211245192945  C 72.55243377095282 4.551291602974054  72.76148174791578 4.9993926431342  73.03947910486046 5.421363214427795  C 73.31747646180514 5.843164028910834  73.66639691859564 6.218740212602746  74.08651875497148 6.5482031560800955  C 74.50684011435288 6.8776660995574455  74.99941121872295 7.14573530726527  75.56391873579807 7.352307386288291  C 75.56391873579807 7.352307386288291  74.55487354612373 8.840422357777483  74.55487354612373 8.840422357777483  C 73.70605053278703 8.510653894533451  72.99425008473388 8.037660095676188  72.4196335804286 7.421678159395306  C 71.84521656939813 6.805526435952212  71.41272076871986 6.084373402288842  71.12222017820915 5.258254873358971  C 70.83178609536695 4.431966557266889  70.68650165435508 3.5550093084885956  70.68650165435508 2.6273869513327144  Z M 77 11.113993502188038  L 77 0.01616164964858772  L 79 0.01616164964858772  L 79 11.113993502188038  L 77 11.113993502188038  Z M 69.43097958030943 14.717792733059275  L 69.43097958030943 13.159063784643946  L 79.3952703840643 13.159063784643946  L 79.3952703840643 14.717792733059275  L 69.43097958030943 14.717792733059275  Z M 69.43097958030943 13.999469566370507  L 69.43097958030943 9.969002784776556  L 71.33216392754521 9.969002784776556  L 71.33216392754521 13.999469566370507  L 69.43097958030943 13.999469566370507  Z M 82.05561327733314 8.504508685850682  L 82.05561327733314 6.934590903063254  C 82.05561327733314 6.934590903063254  83.05150653839478 6.934590903063254  83.05150653839478 6.934590903063254  C 83.7782900314236 6.934590903063254  84.42703330134525 6.927386951800636  84.9979919730743 6.912959156610529  C 85.56895064480335 6.898531361420423  86.11167985864786 6.865285109057222  86.62590847024623 6.813005569553109  C 87.14033657511939 6.760556292208227  87.66550705093758 6.6891479896876245  88.20121725296735 6.598677231136454  C 88.20121725296735 6.598677231136454  88.3770634096038 8.146714626707334  88.3770634096038 8.146714626707334  C 87.81960558646855 8.242786768149545  87.27603784679353 8.31913287531174  86.7459807073955 8.375961410953455  C 86.21592356799746 8.432654157081345  85.65360357941326 8.468279406367081  85.05936763993357 8.482876939397958  C 84.46526471579092 8.49733868196652  83.79604731134101 8.504508685850682  83.05150653839478 8.504508685850682  C 83.05150653839478 8.504508685850682  82.05561327733314 8.504508685850682  82.05561327733314 8.504508685850682  Z M 82.05561327733314 7.790661052910754  L 82.05561327733314 1.0316105291075455  L 87.80398029801711 1.0316105291075455  L 87.80398029801711 2.5793992839146003  L 83.88202647486338 2.5793992839146003  L 83.88202647486338 7.790661052910754  L 82.05561327733314 7.790661052910754  Z M 83.33768276283777 5.452443309905848  L 83.33768276283777 3.980987269592892  L 87.64981046816824 3.980987269592892  L 87.64981046816824 5.452443309905848  L 83.33768276283777 5.452443309905848  Z M 92.19501957502378 9.138293992839145  L 92.19501957502378 0.005221456040312955  L 94 0.005221456040312955  L 94 9.138293992839145  L 92.19501957502378 9.138293992839145  Z M 90.26850558749686 5.299777880917651  L 90.26850558749686 3.741048932502321  L 92.72328870763387 3.741048932502321  L 92.72328870763387 5.299777880917651  L 90.26850558749686 5.299777880917651  Z M 89.02930164710028 9.045799628696459  L 89.02930164710028 0.282207266940724  L 90.80213291324546 0.282207266940724  L 90.80213291324546 9.045799628696459  L 89.02930164710028 9.045799628696459  Z M 83.97189798705017 11.375066304203687  L 83.97189798705017 9.816337355788358  L 94 9.816337355788358  L 94 15  L 92.10953203904123 15  L 92.10953203904123 11.375066304203687  L 83.97189798705017 11.375066304203687  Z " fill-rule="nonzero" fill="#26262c" stroke="none" transform="matrix(1 0 0 1 437 703 )" />
  </g>
</svg>