<?xml version="1.0" encoding="utf-8"?>
<svg version="1.1" xmlns:xlink="http://www.w3.org/1999/xlink" width="54px" height="14px" xmlns="http://www.w3.org/2000/svg">
  <g transform="matrix(1 0 0 1 -719 -336 )">
    <path d="M 3.190498055315471 12.12664729337028  L 1.3454786084701815 12.12664729337028  L 5.535058340535868 3.214029870919781  L 0 3.214029870919781  L 0 1.752247077110225  L 7.3800777873811585 1.752247077110225  L 7.3800777873811585 2.8947083868351693  L 3.190498055315471 12.12664729337028  Z M 9.279791486603285 10.437791444211665  C 9.279791486603285 10.437791444211665  10.949789325842696 10.437791444211665  10.949789325842696 10.437791444211665  C 10.949789325842696 10.437791444211665  11.051885263612792 10.6010002027438  11.051885263612792 10.6010002027438  C 10.964398317328794 10.94397134762193  10.852569624588421 11.311792727232769  10.716427182368193 11.704433331080626  C 10.580351119836859 12.09707393492848  10.432017589295436 12.490399281704853  10.27158059636992 12.8842670811651  C 10.11114360344441 13.278070289862915  9.949517888866216 13.649923986749585  9.78662489196197 14  C 9.78662489196197 14  8.532303370786517 14  8.532303370786517 14  C 8.631964150233422 13.619179303560529  8.729197545822263 13.218947538259972  8.824006050129645 12.799114685409204  C 8.918807914984463 12.379217241796004  9.006319965075704 11.965085324978775  9.086538461538462 11.557072379536393  C 9.166756958001217 11.14905943409401  9.231175823673258 10.776047550053695  9.279791486603285 10.437791444211665  Z M 19.558664649956786 4.054909779009259  C 19.8188022590446 4.85203023958087  19.948816983578222 5.811158422764116  19.948816983578222 6.932351152260593  C 19.948816983578222 7.772016857962129  19.882464609170846 8.52188096120888  19.74997299049265 9.181793606812192  C 19.617481371814463 9.841770872051766  19.407425635625497 10.401160397239252  19.11940903197926 10.860005406501319  C 18.831326048644122 11.318915006525815  18.45627110315585 11.668482753709577  17.994409031979256 11.908562546462122  C 17.532546960802662 12.148642339214662  16.974660156302754 12.268567952963439  16.320764909248055 12.268567952963439  C 15.496675047878574 12.268567952963439  14.817744954866694 12.057587930058405  14.284194036300777 11.635365276745286  C 13.750643117734864 11.213142623432168  13.3546250985425 10.603345624126195  13.095748703543647 9.806244509022099  C 12.836805928855902 9.009078832029402  12.707297968885047 8.051108778252138  12.707297968885047 6.932351152260593  C 12.707297968885047 5.818256881145672  12.82514442404283 4.862674289050356  13.06098746758859 4.065553828478746  C 13.29676413144546 3.268433367907135  13.679666702151813 2.6565177222961682  14.20956676750216 2.229573562208556  C 14.739533242214932 1.8026294021209428  15.443240258852365 1.58903831857809  16.320764909248055 1.58903831857809  C 17.147244439417676 1.58903831857809  17.82837832623138 1.800741544356014  18.364385263612792 2.2241332702574845  C 18.900392200994204 2.6475314638973484  19.298593420557864 3.2577893184376476  19.558664649956786 4.054909779009259  Z M 14.614304235090753 4.748428735554504  C 14.495221091017399 5.333856595918408  14.435636343993083 6.061889079210524  14.435636343993083 6.932351152260593  C 14.435636343993083 7.809866409523467  14.495904583712539 8.541476880343144  14.616248919619705 9.12691761843617  C 14.736526883256362 9.712358356529196  14.93465742079884 10.150920711434065  15.21059312878133 10.442995201730081  C 15.486462457074929 10.73513428278853  15.856446848929496 10.881293505440292  16.320764909248055 10.881293505440292  C 16.78262698042465 10.881293505440292  17.152104578042916 10.736529004374832  17.429235090751945 10.446779752652565  C 17.706365603460974 10.157030500930299  17.906436300318923 9.719217855076197  18.02917026793431 9.133777116983174  C 18.1519042355497 8.548336378890147  18.213186041486605 7.814581448559569  18.213186041486605 6.932351152260593  C 18.213186041486605 6.061889079210524  18.152411022367616 5.333856595918408  18.030871866897147 4.748428735554504  C 17.90933271142668 4.163007342928993  17.710695387066288 3.722576533474374  17.43482605877269 3.426910860309522  C 17.158890350790198 3.1312387194062774  16.78747260869322 2.983408799080895  16.320764909248055 2.983408799080895  C 15.851601220660923 2.983408799080895  15.479676654654119 3.1312387194062774  15.205002160760587 3.426910860309522  C 14.930327666867058 3.722576533474374  14.733453758852999 4.163007342928993  14.614304235090753 4.748428735554504  Z M 28.098260587726877 4.054909779009259  C 28.35839819681469 4.85203023958087  28.488412921348313 5.811158422764116  28.488412921348313 6.932351152260593  C 28.488412921348313 7.772016857962129  28.42230363250706 8.52188096120888  28.28981201382887 9.181793606812192  C 28.157320395150673 9.841770872051766  27.94684486751837 10.401160397239252  27.65876188418323 10.860005406501319  C 27.37074528053699 11.318915006525815  26.995867040925944 11.668482753709577  26.53400496974935 11.908562546462122  C 26.072142898572757 12.148642339214662  25.51425609407285 12.268567952963439  24.86036084701815 12.268567952963439  C 24.036270985648667 12.268567952963439  23.357583978202907 12.057587930058405  22.824033059636992 11.635365276745286  C 22.290415791055718 11.213142623432168  21.893977950746475 10.603345624126195  21.635101555747625 9.806244509022099  C 21.37622516074877 9.009078832029402  21.246893906655142 8.051108778252138  21.246893906655142 6.932351152260593  C 21.246893906655142 5.818256881145672  21.364806741501816 4.862674289050356  21.600583405358687 4.065553828478746  C 21.836426448904447 3.268433367907135  22.219262639921908 2.6565177222961682  22.749162705272255 2.229573562208556  C 23.279062770622602 1.8026294021209428  23.982769846607102 1.58903831857809  24.86036084701815 1.58903831857809  C 25.68684037718777 1.58903831857809  26.368217349567594 1.800741544356014  26.904224286949006 2.2241332702574845  C 27.440231224330418 2.6475314638973484  27.838189358327963 3.2577893184376476  28.098260587726877 4.054909779009259  Z M 23.153900172860848 4.748428735554504  C 23.0347506490986 5.333856595918408  22.97523228176318 6.061889079210524  22.97523228176318 6.932351152260593  C 22.97523228176318 7.809866409523467  23.035257435916513 8.541476880343144  23.15560177182368 9.12691761843617  C 23.27594610773085 9.712358356529196  23.474076652691707 10.150920711434065  23.749945980985306 10.442995201730081  C 24.0258816889678 10.73513428278853  24.39604278669959 10.881293505440292  24.86036084701815 10.881293505440292  C 25.322222918194743 10.881293505440292  25.691766895501903 10.736529004374832  25.96883102852204 10.446779752652565  C 26.24596154123107 10.157030500930299  26.445965858400125 9.719217855076197  26.56876620570441 9.133777116983174  C 26.6915001733198 8.548336378890147  26.752781979256696 7.814581448559569  26.752781979256696 6.932351152260593  C 26.752781979256696 6.061889079210524  26.692006960137714 5.333856595918408  26.570467804667246 4.748428735554504  C 26.448928649196773 4.163007342928993  26.250114618959152 3.722576533474374  25.974178910976665 3.426910860309522  C 25.698309582683066 3.1312387194062774  25.327068546463316 2.983408799080895  24.86036084701815 2.983408799080895  C 24.391197158431016 2.983408799080895  24.019338972113108 3.1312387194062774  23.744598098530684 3.426910860309522  C 23.469923604637152 3.722576533474374  23.2729833169342 4.163007342928993  23.153900172860848 4.748428735554504  Z M 36.63785652549698 4.054909779009259  C 36.89792775489589 4.85203023958087  37.02800885911841 5.811158422764116  37.02800885911841 6.932351152260593  C 37.02800885911841 7.772016857962129  36.961656484711035 8.52188096120888  36.82916486603284 9.181793606812192  C 36.69667324735465 9.841770872051766  36.48661751116569 10.401160397239252  36.19860090751945 10.860005406501319  C 35.91051792418431 11.318915006525815  35.53546297869604 11.668482753709577  35.07360090751945 11.908562546462122  C 34.61173883634285 12.148642339214662  34.05385203184294 12.268567952963439  33.399956784788245 12.268567952963439  C 32.575933273434124 12.268567952963439  31.897003180422242 12.057587930058405  31.363385911840968 11.635365276745286  C 30.829834993275053 11.213142623432168  30.43381697408269 10.603345624126195  30.174940579083838 9.806244509022099  C 29.916064184084984 9.009078832029402  29.786489844425237 8.051108778252138  29.786489844425237 6.932351152260593  C 29.786489844425237 5.818256881145672  29.90440267927191 4.862674289050356  30.14017934312878 4.065553828478746  C 30.375956006985653 3.268433367907135  30.75879216832958 2.6565177222961682  31.28875864304235 2.229573562208556  C 31.818658708392697 1.8026294021209428  32.52243213439255 1.58903831857809  33.399956784788245 1.58903831857809  C 34.226436314957866 1.58903831857809  34.90757020177157 1.800741544356014  35.44357713915298 2.2241332702574845  C 35.979584076534394 2.6475314638973484  36.377718916409165 3.2577893184376476  36.63785652549698 4.054909779009259  Z M 31.693496110630942 4.748428735554504  C 31.57441296655759 5.333856595918408  31.514828219533275 6.061889079210524  31.514828219533275 6.932351152260593  C 31.514828219533275 7.809866409523467  31.57509645925273 8.541476880343144  31.695440795159897 9.12691761843617  C 31.815785131067063 9.712358356529196  32.0136725904618 10.150920711434065  32.2895419187554 10.442995201730081  C 32.565477626737895 10.73513428278853  32.93570510415858 10.881293505440292  33.399956784788245 10.881293505440292  C 33.86181885596484 10.881293505440292  34.231296453583106 10.736529004374832  34.508426966292134 10.446779752652565  C 34.78555747900116 10.157030500930299  34.98538509029299 9.719217855076197  35.10811905790838 9.133777116983174  C 35.23085302552377 8.548336378890147  35.29237791702679 7.814581448559569  35.29237791702679 6.932351152260593  C 35.29237791702679 6.061889079210524  35.231602897907806 5.333856595918408  35.11006374243734 4.748428735554504  C 34.98852458696687 4.163007342928993  34.78988726260648 3.722576533474374  34.51401793431288 3.426910860309522  C 34.238082226330384 3.1312387194062774  33.86666448423341 2.983408799080895  33.399956784788245 2.983408799080895  C 32.930793096201114 2.983408799080895  32.5588685301943 3.1312387194062774  32.28419403630078 3.426910860309522  C 32.00951954240725 3.722576533474374  31.81264563439319 4.163007342928993  31.693496110630942 4.748428735554504  Z M 45.87364952463267 9.7591741569237  L 45.87364952463267 6.82803946745962  L 47.64720181503889 6.82803946745962  L 47.64720181503889 9.7591741569237  L 45.87364952463267 9.7591741569237  Z M 52 10.135973508143543  L 52 0  L 53 0  L 53 10.135973508143543  L 52 10.135973508143543  Z M 43.93236819360415 13  L 43.93236819360415 11.731398256403324  L 54 11.731398256403324  L 54 13  L 43.93236819360415 13  Z M 43.93236819360415 12.105595728863959  L 43.93236819360415 9.167128471987565  L 45.70616356957649 9.167128471987565  L 45.70616356957649 12.105595728863959  L 43.93236819360415 12.105595728863959  Z M 45.06247299049266 7.330675136852065  C 44.094939024982104 7.35166677913368  43.197928894359485 7.365308571661002  42.37151577355229 7.371832128134081  C 42.37151577355229 7.371832128134081  42.151766421780465 5.986686490504832  42.151766421780465 5.986686490504832  C 42.99158800235574 5.980175851913548  43.90671779991948 5.969523551746535  44.89741789109767 5.954990876529026  C 45.88825074165364 5.940458201311517  46.89984497492336 5.905014669185411  47.93209809853069 5.848550381834155  C 48.964483922168725 5.791931078096753  49.96031670335458 5.705570045384054  50.91961970613656 5.589308643643982  C 50.91961970613656 5.589308643643982  51.039217804667246 6.824018382104481  51.039217804667246 6.824018382104481  C 50.06332011705034 6.982198488473038  49.06521713270024 7.100923124048979  48.04464671564391 7.180239237683313  C 47.02407629858757 7.259426169792785  46.0300069560032 7.3096189056126315  45.06247299049266 7.330675136852065  Z M 49.265422428694905 8.99540447387984  L 49.265422428694905 7.799722916807461  L 52.317118625756265 7.799722916807461  L 52.317118625756265 8.99540447387984  L 49.265422428694905 8.99540447387984  Z M 44.80261452031115 0.7772521457052105  C 45.318973366515635 0.5784903591594528  45.91241692466374 0.4792187605595729  46.58297320656871 0.4792187605595729  C 47.25691476358663 0.4792187605595729  47.849476602433974 0.5784903591594528  48.36065795159897 0.7772521457052105  C 48.872038410157096 0.975865376384756  49.271363574055215 1.2536896632605004  49.55858362143475 1.610799486382375  C 49.84573728912538 1.9677607536380368  49.9893312445981 2.382083122251871  49.9893312445981 2.853787929985808  C 49.9893312445981 3.325344181853532  49.84573728912538 3.7405140263136634  49.55858362143475 4.099141717915794  C 49.271363574055215 4.4577629417795315  48.872038410157096 4.734040803955062  48.36065795159897 4.927958369939853  C 47.849476602433974 5.121727380058431  47.25691476358663 5.218659187673177  46.58297320656871 5.218659187673177  C 45.91241692466374 5.218659187673177  45.318973366515635 5.121727380058431  44.80261452031115 4.927958369939853  C 44.286454783499806 4.734040803955062  43.884859416437436 4.4577629417795315  43.59763936905791 4.099141717915794  C 43.31048570136727 3.7405140263136634  43.16689174589455 3.325344181853532  43.16689174589455 2.853787929985808  C 43.16689174589455 2.382083122251871  43.31048570136727 1.9677607536380368  43.59763936905791 1.610799486382375  C 43.884859416437436 1.2536896632605004  44.286454783499806 0.975865376384756  44.80261452031115 0.7772521457052105  Z M 47.48141745894555 1.8780833952828275  C 47.22672289532634 1.7911909108162893  46.92721245715406 1.747752922889775  46.58297320656871 1.747752922889775  C 46.06999963547715 1.747752922889775  45.653128008236635 1.8427048807104849  45.33205488331893 2.0325403798067176  C 45.011114517779006 2.222369411164557  44.850502376836644 2.4960709767961307  44.850502376836644 2.853787929985808  C 44.850502376836644 3.20484571127567  45.011114517779006 3.4762074570482775  45.33205488331893 3.667702912752585  C 45.653128008236635 3.8592048217583694  46.06999963547715 3.9548557139960807  46.58297320656871 3.9548557139960807  C 47.09262785256269 3.9548557139960807  47.50623720147637 3.8592048217583694  47.82392502160761 3.667702912752585  C 48.14161284173885 3.4762074570482775  48.300615816767504 3.20484571127567  48.300615816767504 2.853787929985808  C 48.300615816767504 2.615213070236735  48.22771646735373 2.4147174245096132  48.082081892826274 2.2522808677434614  C 47.93644731829881 2.089695755111097  47.73624478194254 1.9649758797493657  47.48141745894555 1.8780833952828275  Z " fill-rule="nonzero" fill="#ff3c26" stroke="none" transform="matrix(1 0 0 1 719 336 )" />
  </g>
</svg>