<?xml version="1.0" encoding="utf-8"?>
<svg version="1.1" xmlns:xlink="http://www.w3.org/1999/xlink" width="49px" height="13px" xmlns="http://www.w3.org/2000/svg">
  <g transform="matrix(1 0 0 1 -466 -393 )">
    <path d="M 5.39787981276009 4.416657042768603  L 5.39787981276009 3.432036031874351  L 7.5133610762797804 3.432036031874351  L 7.5133610762797804 4.416657042768603  L 5.39787981276009 4.416657042768603  Z M 9.460426335483163 7.766370250606305  L 9.460426335483163 0.011009739384840435  L 10.572020922111594 0.011009739384840435  L 10.572020922111594 7.766370250606305  L 9.460426335483163 7.766370250606305  Z M 7.058784739048114 7.668283481541364  L 7.058784739048114 0.25872887554375024  L 8.162546023150206 0.25872887554375024  L 8.162546023150206 7.668283481541364  L 7.058784739048114 7.668283481541364  Z M 2.05942419231557 9.344516302883319  L 2.05942419231557 8.385417869653924  L 10.572020922111594 8.385417869653924  L 10.572020922111594 12.997497786503445  L 9.416608799476448 12.997497786503445  L 9.416608799476448 9.344516302883319  L 2.05942419231557 9.344516302883319  Z M 1.39383826828062 1.2193286368710783  C 1.827824127485258 0.9574649997436133  2.3242381304024122 0.8264811179119992  2.8833897018049566 0.8264811179119992  C 3.442688350825279 0.8264811179119992  3.93786199518162 0.9574649997436133  4.368779693362176 1.2193286368710783  C 4.799837775664697 1.4810419640300794  5.140644884122123 1.8436011538226724  5.391270463753491 2.3067906224737267  C 5.641896043384859 2.769986933114811  5.76726898501781 3.3043277833140254  5.76726898501781 3.9099588097162874  C 5.76726898501781 4.5157469575324445  5.641896043384859 5.050187749657449  5.391270463753491 5.513377218308503  C 5.140644884122123 5.976573528949587  4.800033231718716 6.339225788133343  4.369269274770072 6.601089425260808  C 3.938498624325616 6.862802752419809  3.4424329222440595 6.993436501520575  2.8809417947654756 6.993436501520575  C 2.322371780574874 6.993436501520575  1.8262567139617112 6.862802752419809  1.3928591054648276 6.601089425260808  C 0.9596018512082327 6.339225788133343  0.6190453006185571 5.976573528949587  0.37134749788930466 5.513377218308503  C 0.12364702074989554 5.050187749657449  0 4.5157469575324445  0 3.9099588097162874  C 0 3.3043277833140254  0.12364702074989554 2.769986933114811  0.37134749788930466 2.3067906224737267  C 0.6190453006185571 1.8436011538226724  0.9599994866937596 1.4810419640300794  1.39383826828062 1.2193286368710783  Z M 3.825344330597339 2.103110443854179  C 3.550006454076491 1.9249474975947773  3.235932600136649 1.8358740424221425  2.8833897018049566 1.8358740424221425  C 2.5310005447051758 1.8358740424221425  2.2172625309413188 1.9249474975947773  1.9419246544204705 2.103110443854179  C 1.6665867778996226 2.2812733901135798  1.449527092629259 2.525771201297061  1.2910261726224077 2.836509219694345  C 1.1326656217966842 3.1470969281231653  1.0535791897927271 3.5049088764407275  1.0535791897927271 3.9099588097162874  C 1.0535791897927271 4.315165894950341  1.1326656217966842 4.672464663471081  1.2910261726224077 4.982157292989953  C 1.449527092629259 5.29169961254036  1.6669350787352206 5.535641573123129  1.9431486079402114 5.71380451938253  C 2.2193621371452017 5.891967465641932  2.5320552782839423 5.981040920814566  2.8809417947654756 5.981040920814566  C 3.2352359984654524 5.981040920814566  3.550006454076491 5.891967465641932  3.825344330597339 5.71380451938253  C 4.1006755136223765 5.535641573123129  4.317392680161782 5.29169961254036  4.475753230987506 4.982157292989953  C 4.634254150994357 4.672464663471081  4.713689795225083 4.315165894950341  4.713689795225083 3.9099588097162874  C 4.713689795225083 3.5049088764407275  4.634254150994357 3.1470969281231653  4.475753230987506 2.836509219694345  C 4.317392680161782 2.525771201297061  4.1006755136223765 2.2812733901135798  3.825344330597339 2.103110443854179  Z M 17.876575527923624 1.8949262809408323  C 17.876575527923624 1.8949262809408323  17.876575527923624 0.901297301458983  17.876575527923624 0.901297301458983  L 18.891232995788602 0.901297301458983  C 18.891232995788602 0.901297301458983  18.891232995788602 1.8949262809408323  18.891232995788602 1.8949262809408323  C 18.891232995788602 2.4609548916243815  18.79620093856618 2.997719791692982  18.606296616392985 3.5048504446240907  C 18.416459139532865 4.011837599032167  18.155892807230874 4.482856931112589  17.82467989868662 4.918100627478154  C 17.493667526081605 5.353193983330657  17.110787941715106 5.742909611898265  16.675632334354127 6.087134773068484  C 16.240476726993148 6.4313530922486715  15.77615014772721 6.724076120353311  15.2827732288893 6.965161489009509  C 14.789596845990625 7.206246857665705  14.290507357176411 7.386716990161218  13.785633283542573 7.50689071101359  C 13.785633283542573 7.50689071101359  13.267900944692286 6.5120106247834615  13.267900944692286 6.5120106247834615  C 13.709740993715998 6.420534287148096  14.15237936164189 6.275616173362945  14.595890513610863 6.077125919082265  C 15.039535356205992 5.8784853395608225  15.458132539842497 5.630958191474821  15.851911615568687 5.334719174654502  C 16.245690691294882 5.038480157834184  16.59400787217066 4.70885009154733  16.89667834001928 4.346094622165762  C 17.199348807867906 3.983345994774223  17.438338028907648 3.593773864729646  17.61367031188334 3.177060476575432  C 17.78900259485903 2.7602036204427836  17.876575527923624 2.332711746057811  17.876575527923624 1.8949262809408323  Z M 18.091501765990078 1.8949262809408323  C 18.091501765990078 1.8949262809408323  18.091501765990078 0.901297301458983  18.091501765990078 0.901297301458983  L 19.09759155921687 0.901297301458983  C 19.09759155921687 0.901297301458983  19.09759155921687 1.8949262809408323  19.09759155921687 1.8949262809408323  C 19.09759155921687 2.336449244200699  19.18523133759454 2.765252550915684  19.360496775257158 3.1810640181699195  C 19.535829058232846 3.596725144911093  19.776994263044745 3.987259551981982  20.083608514719916 4.35285059860646  C 20.390289611708162 4.718448456676369  20.74018209487041 5.04757218515643  21.133760634657367 5.340224044346922  C 21.52753971038356 5.632725563024352  21.94627058464622 5.879896698544325  22.389781736615195 6.081379682026408  C 22.83342657921032 6.282855823518461  23.2781298009489 6.426362593592408  23.723646282428525 6.5120106247834615  C 23.723646282428525 6.5120106247834615  23.19710147823611 7.50689071101359  23.19710147823611 7.50689071101359  C 22.69236103546507 7.386716990161218  22.194692420426826 7.206246857665705  21.704122974856496 6.965161489009509  C 21.213687219912327 6.724076120353311  20.751070500127664 6.432315338730385  20.315914892766685 6.089887207914694  C 19.880759285405706 5.747459077099002  19.49616984155793 5.358698853023077  19.162216305059175 4.923605497170574  C 18.828195923247343 4.488512141318071  18.56609767685494 4.015824371642162  18.376193354681746 3.5058513300227125  C 18.186422723134708 2.995871446413233  18.091501765990078 2.4588572718775263  18.091501765990078 1.8949262809408323  Z M 12.791048653401342 11  L 12.791048653401342 10  L 24.297680483186873 10  L 24.297680483186873 11  L 12.791048653401342 11  Z M 26.12553266956752 9.792412518766602  L 26.12553266956752 8.80553951572545  C 26.12553266956752 8.80553951572545  26.96565436551748 8.80553951572545  26.96565436551748 8.80553951572545  C 27.738306281088654 8.80553951572545  28.499737865726367 8.783538398077448  29.249796424057433 8.739481079416407  C 29.999921857583253 8.695389596622114  30.8101457396992 8.597634530440992  31.68032332355836 8.446221657620201  C 31.68032332355836 8.446221657620201  31.777015651617866 9.421834699926858  31.777015651617866 9.421834699926858  C 30.890327604126988 9.580695231617904  30.06545273542098 9.682214770640329  29.302426425406278 9.726354082457558  C 28.539600621449132 9.770425069826363  27.760632197313093 9.792412518766602  26.96565436551748 9.792412518766602  C 26.96565436551748 9.792412518766602  26.12553266956752 9.792412518766602  26.12553266956752 9.792412518766602  Z M 26.09444425016611 2.414135581475921  L 26.09444425016611 1.4377718751202986  L 30.6240514360222 1.4377718751202986  L 30.6240514360222 5.948762366709012  L 27.253773024064426 5.948762366709012  L 27.253773024064426 9.211148323516957  L 26.12553266956752 9.211148323516957  L 26.12553266956752 4.986661277283751  L 29.501441267716103 4.986661277283751  L 29.501441267716103 2.414135581475921  L 26.09444425016611 2.414135581475921  Z M 35 12.983235169573085  L 35 0.005504869692420217  L 36 0.005504869692420217  L 36 12.983235169573085  L 35 12.983235169573085  Z M 31.226481358438537 5.650498517919699  L 31.226481358438537 4.663625514878547  L 33.28003057385935 4.663625514878547  L 33.28003057385935 5.650498517919699  L 31.226481358438537 5.650498517919699  Z M 32 12.301882434461254  L 32 0.3202833275589945  L 33 0.3202833275589945  L 33 12.301882434461254  L 32 12.301882434461254  Z M 47 13  L 47 0  L 49 0  L 49 13  L 47 13  Z M 40.64113183228339 1.5593794510528545  C 41.128960679780896 1.1887048669255496  41.68387885413635 1.0033876121184124  42.30619820053854 1.0033876121184124  C 42.934332999533446 1.0033876121184124  43.49102790856493 1.1887048669255496  43.9759155921687 1.5593794510528545  C 44.460803275772456 1.9300540351801594  44.84104170828961 2.4542456484191546  45.116640272566954 3.131770412287793  C 45.39230568215738 3.809151738722596  45.53009177153533 4.607227724134571  45.53009177153533 5.526138507140932  C 45.53009177153533 6.448943970793274  45.39230568215738 7.2499425855534465  45.116640272566954 7.929264349232012  C 44.84104170828961 8.608449456377576  44.460803275772456 9.133596535197452  43.9759155921687 9.504407745313163  C 43.49102790856493 9.875082329440467  42.934332999533446 10.060399584247603  42.30619820053854 10.060399584247603  C 41.68387885413635 10.060399584247603  41.128960679780896 9.875082329440467  40.64113183228339 9.504407745313163  C 40.153369830098974 9.133596535197452  39.77166632880449 8.608449456377576  39.49600091921407 7.929264349232012  C 39.22053604556288 7.2499425855534465  39.082794210949636 6.448943970793274  39.082794210949636 5.526138507140932  C 39.082794210949636 4.607227724134571  39.22053604556288 3.809151738722596  39.49600091921407 3.131770412287793  C 39.77166632880449 2.4542456484191546  40.153369830098974 1.9300540351801594  40.64113183228339 1.5593794510528545  Z M 43.400412647186656 2.4964584055125685  C 43.0850418089067 2.2127779224808544  42.7202978928602 2.071082111098279  42.30619820053854 2.071082111098279  C 41.89209850821688 2.071082111098279  41.52742143748345 2.2127779224808544  41.21198375389042 2.4964584055125685  C 40.896746606236626 2.7799954205658493  40.6501654519224 3.180566446662853  40.472226246559195 3.698021326558109  C 40.294287041195986 4.215469364463336  40.20540437925574 4.824849557045054  40.20540437925574 5.526138507140932  C 40.20540437925574 6.227584639739902  40.294287041195986 6.839531372742293  40.472226246559195 7.361762328213419  C 40.6501654519224 7.883842943171483  40.896746606236626 8.287599557063851  41.21198375389042 8.573083881895524  C 41.52742143748345 8.858547711301705  41.89209850821688 9.001212611156024  42.30619820053854 9.001212611156024  C 42.7202978928602 9.001212611156024  43.0850418089067 8.858547711301705  43.400412647186656 8.573083881895524  C 43.71585033077968 8.287599557063851  43.962720530562585 7.883842943171483  44.14065973592578 7.361762328213419  C 44.31859894128898 6.839531372742293  44.407481603229236 6.227584639739902  44.407481603229236 5.526138507140932  C 44.407481603229236 4.824849557045054  44.31859894128898 4.215469364463336  44.14065973592578 3.698021326558109  C 43.962720530562585 3.180566446662853  43.71585033077968 2.7799954205658493  43.400412647186656 2.4964584055125685  Z " fill-rule="nonzero" fill="#26262c" stroke="none" transform="matrix(1 0 0 1 466 393 )" />
  </g>
</svg>