<?xml version="1.0" encoding="utf-8"?>
<svg version="1.1" xmlns:xlink="http://www.w3.org/1999/xlink" width="11px" height="19px" xmlns="http://www.w3.org/2000/svg">
  <g transform="matrix(1 0 0 1 -27 -32 )">
    <path d="M 10.51217529124046 2.8946505242106118  C 11.14697104728205 2.231531518949047  11.14697104728205 1.14336081950179  10.51217529124046 0.49724515410374587  C 9.862103527213236 -0.1657484049704662  8.806598857858734 -0.1657484049704662  8.15652709383151 0.49724515410374587  C 8.15652709383151 0.49724515410374587  0.4885574266035106 8.30167088676043  0.4885574266035106 8.30167088676043  C -0.16285245561936318 8.963300469378751  -0.16285245561936318 10.037446735056628  0.4885574266035106 10.69907631767495  C 0.4885574266035106 10.69907631767495  8.15652709383151 18.503502111139287  8.15652709383151 18.503502111139287  C 8.806989772148778 19.165498911171774  9.86171261292319 19.165498911171774  10.51217529124046 18.503502111139287  C 11.162607857865513 17.8415053111068  11.162607857865513 16.767968946184688  10.51217529124046 16.105972146152205  C 10.51217529124046 16.105972146152205  4.030105391791787 9.49184301824711  4.030105391791787 9.49184301824711  C 4.030105391791787 9.49184301824711  10.51217529124046 2.8946505242106118  10.51217529124046 2.8946505242106118  Z " fill-rule="nonzero" fill="#000000" stroke="none" transform="matrix(1 0 0 1 27 32 )" />
  </g>
</svg>