<?xml version="1.0" encoding="utf-8"?>
<svg version="1.1" xmlns:xlink="http://www.w3.org/1999/xlink" width="36px" height="13px" xmlns="http://www.w3.org/2000/svg">
  <g transform="matrix(1 0 0 1 -41 -591 )">
    <path d="M 8.517538692229422 8.41292000535465  L 8.517538692229422 0.11137671874701191  L 9.663203555936379 0.11137671874701191  L 9.663203555936379 8.41292000535465  L 8.517538692229422 8.41292000535465  Z M 9.350398971777432 4.676081926144078  L 9.350398971777432 3.686867721022738  L 11.507738445884431 3.686867721022738  L 11.507738445884431 4.676081926144078  L 9.350398971777432 4.676081926144078  Z M 3.5695389064424567 8.783595647434549  C 4.1767265447709425 8.606132869600454  4.900710624025164 8.517335679179974  5.741819739731162 8.517335679179974  C 6.58278406159838 8.517335679179974  7.306919524252514 8.606132869600454  7.9141005730198675 8.783595647434549  C 8.521288211348354 8.961038061930097  8.987841789030284 9.215829722636155  9.313286563487388 9.54806754508424  C 9.638961678407242 9.880237479621254  9.801531623199272 10.280631881748592  9.801531623199272 10.749593620317071  C 9.801531623199272 11.21841958306341  9.638961678407242 11.619130481849021  9.313286563487388 11.951368304297107  C 8.987841789030284 12.28353823883412  8.521288211348354 12.537301733030063  7.9141005730198675 12.71285689698036  C 7.306919524252514 12.8885478367528  6.58278406159838 12.9763821690157  5.741819739731162 12.9763821690157  C 4.900710624025164 12.9763821690157  4.1767265447709425 12.8885478367528  3.5695389064424567 12.71285689698036  C 2.962502651513884 12.537301733030063  2.49383408946804 12.28353823883412  2.163605205376747 11.951368304297107  C 1.8335276752676826 11.619130481849021  1.6686124350666738 11.21841958306341  1.6686124350666738 10.749593620317071  C 1.6686124350666738 10.280631881748592  1.8335276752676826 9.880237479621254  2.163605205376747 9.54806754508424  C 2.49383408946804 9.215829722636155  2.962502651513884 8.961038061930097  3.5695389064424567 8.783595647434549  Z M 7.895785358539067 9.782008376202405  C 7.374534069652289 9.555673904507945  6.656625271584055 9.4424088275229  5.741819739731162 9.4424088275229  C 4.827007677152507 9.4424088275229  4.109098820248906 9.555673904507945  3.587854120923258 9.782008376202405  C 3.0666028320364798 10.008139184163653  2.8060836501901143 10.330528646648832  2.8060836501901143 10.749593620317071  C 2.8060836501901143 11.16852281816317  3.0666028320364798 11.492062642363617  3.587854120923258 11.720162169398176  C 4.109098820248906 11.948261696432734  4.827007677152507 12.062496414296916  5.741819739731162 12.062496414296916  C 6.656625271584055 12.062496414296916  7.374534069652289 11.948261696432734  7.895785358539067 11.720162169398176  C 8.417030057864714 11.492062642363617  8.678037808600653 11.16852281816317  8.678037808600653 10.749593620317071  C 8.678037808600653 10.330528646648832  8.417030057864714 10.008139184163653  7.895785358539067 9.782008376202405  Z M 0 2.5067219980493776  L 0 1.5592740624581667  L 7.3786215391206555 1.5592740624581667  L 7.3786215391206555 2.5067219980493776  L 0 2.5067219980493776  Z M 2.1182991485031866 3.4397506263028053  C 2.568295394806756 3.2527904905529423  3.0917170027203382 3.15931995945765  3.6881058212392226 3.15931995945765  C 4.284349904754692 3.15931995945765  4.805978740193059 3.2527904905529423  5.253092700690837 3.4397506263028053  C 5.700344836048582 3.6267175599480996  6.049382945781719 3.8901552332103937  6.300433781395598 4.230077833661624  C 6.551484617009477 4.5698510624998505  6.677341616237348 4.971707194231411  6.677341616237348 5.4353330401025035  C 6.677341616237348 5.89301200207657  6.551484617009477 6.293118009559783  6.300433781395598 6.635864680346522  C 6.049382945781719 6.978604583585577  5.700344836048582 7.242743851247555  5.253092700690837 7.427932148935764  C 4.805978740193059 7.612964307463282  4.284349904754692 7.705379510814481  3.6881058212392226 7.705379510814481  C 3.0917170027203382 7.705379510814481  2.568295394806756 7.612964307463282  2.1182991485031866 7.427932148935764  C 1.6683094623430639 7.242743851247555  1.3181530687847678 6.978604583585577  1.0671022331708884 6.635864680346522  C 0.8160513975570092 6.293118009559783  0.6901943983291383 5.89301200207657  0.6901943983291383 5.4353330401025035  C 0.6901943983291383 4.971707194231411  0.8160513975570092 4.5698510624998505  1.0671022331708884 4.230077833661624  C 1.3181530687847678 3.8901552332103937  1.6683094623430639 3.6267175599480996  2.1182991485031866 3.4397506263028053  Z M 5.05740909334333 4.430705092654568  C 4.708616268256222 4.181363811523195  4.252104828725801 4.056548928113824  3.6881058212392226 4.056548928113824  C 3.118348772866823 4.056548928113824  2.6589263358713953 4.181363811523195  2.3101269212231563 4.430705092654568  C 1.9613340961360488 4.679890234625252  1.7871793498634392 5.01477456273845  1.7871793498634392 5.4353330401025035  C 1.7871793498634392 5.857968851128033  1.9613340961360488 6.1923500894576895  2.3101269212231563 6.4387179438144235  C 2.6589263358713953 6.684929659010468  3.118348772866823 6.808150542158306  3.6881058212392226 6.808150542158306  C 4.252104828725801 6.808150542158306  4.708616268256222 6.684929659010468  5.05740909334333 6.4387179438144235  C 5.406201918430438 6.1923500894576895  5.5803566647030465 5.857968851128033  5.5803566647030465 5.4353330401025035  C 5.5803566647030465 5.01477456273845  5.406201918430438 4.679890234625252  5.05740909334333 4.430705092654568  Z M 3.1164783377068495 2.0917939989673173  L 3.1164783377068495 0  L 4.262625180742249 0  L 4.262625180742249 2.0917939989673173  L 3.1164783377068495 2.0917939989673173  Z M 15.29416805012585 2.6374901990782353  C 15.29416805012585 2.6374901990782353  15.29416805012585 0.9128913197299726  15.29416805012585 0.9128913197299726  L 16.209446794837465 0.9128913197299726  C 16.209446794837465 0.9128913197299726  16.209446794837465 2.6374901990782353  16.209446794837465 2.6374901990782353  C 16.209446794837465 3.277085303913735  16.093949379985055 3.9109287215638804  15.862903657687571 4.539098506435142  C 15.631989550106603 5.167112121797968  15.301231412469292 5.7338786112325435  14.870990199753654 6.239085119810293  C 14.440814794396278 6.74428483049261  13.91763508809511 7.138017446835976  13.300701547689176 7.4204738865196695  C 13.300701547689176 7.4204738865196695  12.678948213998822 6.504847870570461  12.678948213998822 6.504847870570461  C 13.228825203627899 6.254474705329908  13.698332434416084 5.918386664161406  14.087773791035186 5.4964907919144785  C 14.477149340296023 5.074594919667551  14.77587010545965 4.612779256237031  14.983291383280672 4.110994243751315  C 15.190712661101696 3.609053092104909  15.29416805012585 3.117890883749564  15.29416805012585 2.6374901990782353  Z M 15.486477802174264 2.6374901990782353  C 15.486477802174264 2.6374901990782353  15.486477802174264 0.9128913197299726  15.486477802174264 0.9128913197299726  L 16.396454774273014 0.9128913197299726  C 16.396454774273014 0.9128913197299726  16.396454774273014 2.6374901990782353  16.396454774273014 2.6374901990782353  C 16.396454774273014 3.10898412334714  16.496260737846757 3.5749642260752923  16.696245916564024 4.035168575854353  C 16.89629690263955 4.495230382263589  17.186930937790777 4.909124858458106  17.568146521715846 5.276969268134096  C 17.949427912999173 5.644657538649398  18.403069392733244 5.937547822213894  18.929256145236437 6.155552580750033  C 18.929256145236437 6.155552580750033  18.319552294757134 7.059991203075098  18.319552294757134 7.059991203075098  C 17.72058383956155 6.809618037834546  17.20944440873646 6.458077985829899  16.786376050982703 6.005144288692127  C 16.363439307945463 5.5522105915543545  16.04135837206618 5.035462379400853  15.81952551812778 4.454820141133274  C 15.597692664189374 3.8740285312526894  15.486477802174264 3.2681786042068066  15.486477802174264 2.6374901990782353  Z M 22.117549402881167 8.072326021686333  L 22.117549402881167 0.12007802489912223  L 23.211642478444816 0.12007802489912223  L 23.211642478444816 8.072326021686333  L 22.117549402881167 8.072326021686333  Z M 20.124082900444492 4.53735824520472  L 20.124082900444492 3.568032739859632  L 22.481443795854975 3.568032739859632  L 22.481443795854975 4.53735824520472  L 20.124082900444492 4.53735824520472  Z M 19.437262357414447 7.658889675087491  L 19.437262357414447 0.36247155342219506  L 20.523643763723022 0.36247155342219506  L 20.523643763723022 7.658889675087491  L 19.437262357414447 7.658889675087491  Z M 16.88277191667113 8.628961006674189  C 17.508391910696595 8.447784817765232  18.249302572093985 8.357231645981145  19.105178600117817 8.357231645981145  C 19.964608166652305 8.357231645981145  20.706283570153097 8.447784817765232  21.329995180206716 8.628961006674189  C 21.953904182917434 8.810143978304703  22.434098269811358 9.074352803003862  22.770631392920258 9.421525692757836  C 23.10723032338742 9.76876647042288  23.275263749799173 10.18516770090545  23.275263749799173 10.671033256200875  C 23.275263749799173 11.156966699407374  23.10723032338742 11.572128588579117  22.770631392920258 11.916314470941462  C 22.434098269811358 12.260704017037021  21.953904182917434 12.52346303879671  21.329995180206716 12.704652808322656  C 20.706283570153097 12.885842577848603  19.964608166652305 12.9763821690157  19.105178600117817 12.9763821690157  C 18.249302572093985 12.9763821690157  17.508391910696595 12.885842577848603  16.88277191667113 12.704652808322656  C 16.257283537362184 12.52346303879671  15.776258930424277 12.260704017037021  15.439725807315375 11.916314470941462  C 15.103126876848215 11.572128588579117  14.93509345043646 11.156966699407374  14.93509345043646 10.671033256200875  C 14.93509345043646 10.18516770090545  15.103126876848215 9.76876647042288  15.439725807315375 9.421525692757836  C 15.776258930424277 9.074352803003862  16.257283537362184 8.810143978304703  16.88277191667113 8.628961006674189  Z M 21.322765490280084 9.641295825285422  C 20.783088494092823 9.39805755203789  20.044036265440493 9.276338184391197  19.105178600117817 9.276338184391197  C 18.164346714047355 9.276338184391197  17.422212453517446 9.39805755203789  16.87891608204359 9.641295825285422  C 16.335685547345683 9.884534098532955  16.06388903764794 10.227732692801014  16.06388903764794 10.671033256200875  C 16.06388903764794 11.10482966378954  16.335685547345683 11.445819306215382  16.87891608204359 11.69380964219464  C 17.422212453517446 11.941664202351758  18.164346714047355 12.065479719263353  19.105178600117817 12.065479719263353  C 19.72994306906822 12.065479719263353  20.2690774560811 12.009974599589018  20.72221924704118 11.898911858637241  C 21.175558460076044 11.787917005596537  21.523733131377234 11.62868355822913  21.767150431103733 11.421085846512783  C 22.01069934554675 11.21348813479644  22.132490762062872 10.96342154250074  22.132490762062872 10.671033256200875  C 22.132490762062872 10.227732692801014  21.862442486467344 9.884534098532955  21.322765490280084 9.641295825285422  Z M 34.897231296524396 13  L 34.897231296524396 0.10590732630854258  L 36 0.10590732630854258  L 36 13  L 34.897231296524396 13  Z M 30.34445456005998 5.711537358245204  L 30.34445456005998 4.736493851714444  L 32.74519359503026 4.736493851714444  L 32.74519359503026 5.711537358245204  L 30.34445456005998 5.711537358245204  Z M 32 12.339446558681226  L 32 0.4074697366659655  L 33 0.4074697366659655  L 33 12.339446558681226  L 32 12.339446558681226  Z M 27.95239115300166 3.750262951559542  C 27.95239115300166 3.750262951559542  27.95239115300166 2.109445220018741  27.95239115300166 2.109445220018741  L 28.83489530337921 2.109445220018741  C 28.83489530337921 2.109445220018741  28.83489530337921 3.750262951559542  28.83489530337921 3.750262951559542  C 28.83489530337921 4.45268050354626  28.77075478049126 5.140401976738349  28.642103572002355 5.8129697271040905  C 28.513518170871713 6.4855374774698324  28.325859325186055 7.114670985409476  28.07915171638194 7.70065594461762  C 27.832509914936086 8.286498330108191  27.529440789576903 8.814025212423028  27.170138702940072 9.283299229312883  C 26.810902423661503 9.752532519525648  26.40348156716708 10.135026697333641  25.947839126010816 10.430877206402632  C 25.947839126010816 10.430877206402632  25.24173940984309 9.54881337132585  25.24173940984309 9.54881337132585  C 25.82274272099296 9.181138666253664  26.31355785663437 8.694361373581257  26.714186258233813 8.088485590254537  C 27.114946274549776 7.482596211136955  27.421643482829904 6.804003461772221  27.633802816901408 6.052877168155132  C 27.84615957304769 5.301750874538042  27.95239115300166 4.534205721198438  27.95239115300166 3.750262951559542  Z M 28.185187168639214 3.750262951559542  C 28.185187168639214 3.750262951559542  28.185187168639214 2.109445220018741  28.185187168639214 2.109445220018741  L 29.06287152573234 2.109445220018741  C 29.06287152573234 2.109445220018741  29.06287152573234 3.750262951559542  29.06287152573234 3.750262951559542  C 29.06287152573234 4.495747841705551  29.165037522974558 5.2254133008369035  29.369892357949983 5.939262970683291  C 29.574747192925404 6.65311264052968  29.87407974294645 7.297593065056009  30.267337867509237 7.872444588934998  C 30.660595992072025 8.447146741200983  31.14293133332134 8.906178302279402  31.71472179082097 9.249488439693256  C 31.71472179082097 9.249488439693256  31.01970759920741 10.120613489893099  31.01970759920741 10.120613489893099  C 30.41356628904995 9.735695558886357  29.89982668800499 9.216374373659843  29.478337706849462 8.563079688665352  C 29.05698031099277 7.9096696215350155  28.736078494708376 7.168709762621973  28.515824987950516 6.339771662427569  C 28.29557148119266 5.510833562233164  28.185187168639214 4.647515470067746  28.185187168639214 3.750262951559542  Z M 25.583944733037008 2.5882656671320112  L 25.583944733037008 1.6102388556348128  L 31.29106196112033 1.6102388556348128  L 31.29106196112033 2.5882656671320112  L 25.583944733037008 2.5882656671320112  Z " fill-rule="nonzero" fill="#26262c" stroke="none" transform="matrix(1 0 0 1 41 591 )" />
  </g>
</svg>