<?xml version="1.0" encoding="utf-8"?>
<svg version="1.1" xmlns:xlink="http://www.w3.org/1999/xlink" width="37px" height="13px" xmlns="http://www.w3.org/2000/svg">
  <g transform="matrix(1 0 0 1 -41 -695 )">
    <path d="M 0 3.199807191747807  L 0 2.2250265111346765  L 6.361469459781024 2.2250265111346765  L 6.361469459781024 3.199807191747807  L 0 3.199807191747807  Z M 1.770289961632555 4.44504000771233  C 2.1867441074584555 4.192610369544129  2.6576351275261145 4.066306757929239  3.182960576447469 4.066306757929239  C 3.7193682825508123 4.066306757929239  4.194846911004729 4.192003080036513  4.608491638035908 4.443536103345223  C 5.022136365067087 4.695069126653934  5.347889603420166 5.042821157071694  5.585885592823818 5.486744432661718  C 5.823881582227468 5.930523963486184  5.942515674505033 6.444534041389002  5.942515674505033 7.028747710402006  C 5.942515674505033 7.613111977911405  5.823881582227468 8.128235603493595  5.585885592823818 8.574260098332209  C 5.347889603420166 9.020140879002277  5.022136365067087 9.369056972767341  4.608491638035908 9.620726887110768  C 4.194846911004729 9.87225991041948  3.719665472675415 9.997956232526752  3.182960576447469 9.997956232526752  C 2.6563047156599042 9.997956232526752  2.1846658898845654 9.872373670112612  1.7688060639279175 9.62097753783862  C 1.3529462379712691 9.369581405564626  1.0261431431997579 9.02055155210643  0.7884443137307328 8.574260098332209  C 0.5508940491340327 8.127941290828653  0.4323088646177292 7.612561109295165  0.4323088646177292 7.027745107490601  C 0.4323088646177292 6.444277454840692  0.551091536862607 5.931024316434494  0.7889389462989452 5.487997686300973  C 1.026928173147953 5.044971056167454  1.3539844108689554 4.69732591641348  1.770289961632555 4.44504000771233  Z M 4.06587971070679 5.326578617564832  C 3.810601816676752 5.158739362360139  3.517431698720305 5.074925286802275  3.1859283718567437 5.074925286802275  C 2.8616579292741746 5.074925286802275  2.5703459741559183 5.158739362360139  2.31240725639346 5.326578617564832  C 2.054617103503327 5.494411034337191  1.852684716079496 5.724306248041791  1.7059877277649291 6.0161187698833505  C 1.5594393043226877 6.307924437994071  1.4858762349103645 6.645202743808294  1.4858762349103645 7.027745107490601  C 1.4858762349103645 7.4104312159384635  1.5594393043226877 7.750036699939898  1.7059877277649291 8.046640316205533  C 1.852684716079496 8.343237109337343  2.054617103503327 8.57440235914265  2.31240725639346 8.740441530897522  C 2.5703459741559183 8.906336973185343  2.8616579292741746 8.989337703653716  3.1859283718567437 8.989337703653716  C 3.517431698720305 8.989337703653716  3.810601816676752 8.906336973185343  4.06587971070679 8.740441530897522  C 4.321306169609152 8.57440235914265  4.522288387915592 8.343237109337343  4.668836811357833 8.046640316205533  C 4.815533799672401 7.750036699939898  4.888948304212398 7.4104312159384635  4.888948304212398 7.027745107490601  C 4.888948304212398 6.645202743808294  4.815533799672401 6.307924437994071  4.668836811357833 6.0161187698833505  C 4.522288387915592 5.724306248041791  4.321306169609152 5.494411034337191  4.06587971070679 5.326578617564832  Z M 10 13  L 10 0  L 11 0  L 11 13  L 10 13  Z M 7.700934454500487 6.458266653812783  L 7.700934454500487 5.4722066904463516  L 10.121171610764275 5.4722066904463516  L 10.121171610764275 6.458266653812783  L 7.700934454500487 6.458266653812783  Z M 7 12.368360165815098  L 7 0.29451460522510364  L 8.10801705813938 0.29451460522510364  L 8.10801705813938 12.368360165815098  L 7 12.368360165815098  Z M 2.6077028996163256 2.819068736141907  L 2.6077028996163256 0.37998650342234647  L 3.773057230324987 0.37998650342234647  L 3.773057230324987 2.819068736141907  L 2.6077028996163256 2.819068736141907  Z M 19.073031830274186 2.5162826568977152  L 19.073031830274186 1.5638098910633376  L 22.719463123136773 1.5638098910633376  L 22.719463123136773 2.5162826568977152  L 19.073031830274186 2.5162826568977152  Z M 19.073031830274186 5.19774414344934  L 19.073031830274186 4.248529837077027  L 22.719463123136773 4.248529837077027  L 22.719463123136773 5.19774414344934  L 19.073031830274186 5.19774414344934  Z M 14.864697939922197 0.8178733249783091  C 15.363300218280381 0.5652931036122174  15.931523600493234 0.43914007519521836  16.570191035118913 0.43914007519521836  C 17.208655895005048 0.43914007519521836  17.775019423741046 0.5652931036122174  18.268759274360654 0.8178733249783091  C 18.762634194933273 1.0704535463444007  19.15255950307208 1.4194628845055974  19.438565298183228 1.8645907644847197  C 19.72470616324739 2.3097118213300156  19.867906367391683 2.8243350939638967  19.867906367391683 3.4088498987756672  C 19.867906367391683 3.9834813789405183  19.72470616324739 4.493950617551275  19.438565298183228 4.939824544490504  C 19.15255950307208 5.385547903530349  18.762634194933273 5.734563146914993  18.268759274360654 5.9872939361804685  C 17.775019423741046 6.23987415754656  17.208655895005048 6.366277836691411  16.570191035118913 6.366277836691411  C 15.931523600493234 6.366277836691411  15.363300218280381 6.23987415754656  14.864697939922197 5.9872939361804685  C 14.366298236303555 5.734563146914993  13.975161011954683 5.385547903530349  13.691924120690345 4.939824544490504  C 13.408754764402518 4.493950617551275  13.267529377164017 3.9834813789405183  13.267529377164017 3.4088498987756672  C 13.267529377164017 2.8243350939638967  13.408754764402518 2.3097118213300156  13.691924120690345 1.8645907644847197  C 13.975161011954683 1.4194628845055974  14.366298236303555 1.0704535463444007  14.864697939922197 0.8178733249783091  Z M 17.688555271847385 1.6783572736913142  C 17.359395381497638 1.511270903879061  16.986604665996904 1.427706545840162  16.570191035118913 1.427706545840162  C 16.153574829501377 1.427706545840162  15.77990984248313 1.511270903879061  15.448859002981163 1.6783572736913142  C 15.11794323343221 1.845299914036516  14.858770530587165 2.0786795308432953  14.671296605751106 2.378424756579582  C 14.483957750868061 2.6781631285850285  14.390345307006402 3.0204028623929013  14.390345307006402 3.4053407885857516  C 14.390345307006402 3.7902787147786015  14.483957750868061 4.132618500817929  14.671296605751106 4.432507471319773  C 14.858770530587165 4.732252697056059  15.117786245556559 4.966696309680179  15.448364370412952 5.135582762942255  C 15.779145100198866 5.304469216204328  16.15245233600048 5.388990648799768  16.56771787227785 5.388990648799768  C 16.986089957094592 5.388990648799768  17.359395381497638 5.304469216204328  17.688555271847385 5.135582762942255  C 18.01771516219713 4.966696309680179  18.276305651353336 4.732252697056059  18.46364450623638 4.432507471319773  C 18.65111843107244 4.132618500817929  18.744595804981085 3.7902787147786015  18.744595804981085 3.4053407885857516  C 18.744595804981085 3.0204028623929013  18.65111843107244 2.6781631285850285  18.46364450623638 2.378424756579582  C 18.276305651353336 2.0786795308432953  18.01771516219713 1.845299914036516  17.688555271847385 1.6783572736913142  Z M 22.438017191823857 6.660541791188663  L 22.438017191823857 0.005514316012725344  L 23.610791011055706 0.005514316012725344  L 23.610791011055706 6.660541791188663  L 22.438017191823857 6.660541791188663  Z M 15.356362712725426 8.276988335100741  L 15.356362712725426 7.3245155692663655  L 23.610791011055706 7.3245155692663655  L 23.610791011055706 10.462412031234937  L 16.541007713594375 10.462412031234937  L 16.541007713594375 12.40846428227128  L 15.387524564522813 12.40846428227128  L 15.387524564522813 9.563578521160705  L 22.448899108324532 9.563578521160705  L 22.448899108324532 8.276988335100741  L 15.356362712725426 8.276988335100741  Z M 15.387524564522813 12.83231466306758  L 15.387524564522813 11.874076930492626  L 24.08712217424435 11.874076930492626  L 24.08712217424435 12.83231466306758  L 15.387524564522813 12.83231466306758  Z M 35.86828068392979 13  L 35.86828068392979 0  L 37 0  L 37 13  L 35.86828068392979 13  Z M 31.19598144459447 5.651672611587776  L 31.19598144459447 4.668620456955558  L 33.65974626686095 4.668620456955558  L 33.65974626686095 5.651672611587776  L 31.19598144459447 5.651672611587776  Z M 33 12.334021016099488  L 33 0.3040393328834474  L 34 0.3040393328834474  L 34 12.334021016099488  L 33 12.334021016099488  Z M 28.741120008555807 3.6742890195700375  C 28.741120008555807 3.6742890195700375  28.741120008555807 2.019994215752434  28.741120008555807 2.019994215752434  L 29.646792240952905 2.019994215752434  C 29.646792240952905 2.019994215752434  29.646792240952905 3.6742890195700375  29.646792240952905 3.6742890195700375  C 29.646792240952905 4.3824759705184135  29.58096785868094 5.075846134495807  29.448939213667902 5.753938108551046  C 29.31697810363137 6.4320300826062855  29.12439271394399 7.06633106137177  28.871208373995696 7.6571290851248435  C 28.618091569023907 8.24778336411236  28.30706607275031 8.779643157867781  27.93833135034691 9.252771618625278  C 27.56966416292002 9.72585901819176  27.15154742492102 10.111494862243775  26.683943157359998 10.409775378386195  C 26.683943157359998 10.409775378386195  25.95930644492868 9.520466595970307  25.95930644492868 9.520466595970307  C 26.55556263886736 9.149771946342819  27.05926297772749 8.658996444344693  27.47040894081788 8.048144220572642  C 27.88168997386129 7.437278289338908  28.19643879988572 6.753111829162851  28.414167880967344 5.995816060927408  C 28.632099566978482 5.238520292691964  28.741120008555807 4.464670806269883  28.741120008555807 3.6742890195700375  Z M 28.980027539002446 3.6742890195700375  C 28.980027539002446 3.6742890195700375  28.980027539002446 2.019994215752434  28.980027539002446 2.019994215752434  L 29.88075344571742 2.019994215752434  C 29.88075344571742 2.019994215752434  29.88075344571742 3.6742890195700375  29.88075344571742 3.6742890195700375  C 29.88075344571742 4.425897047924901  29.98560157221954 5.161555710287526  30.195834391668786 5.881268678299431  C 30.406067211118025 6.600981646311337  30.713258037008984 7.250755595581679  31.116840233680467 7.83032873806999  C 31.520422430351953 8.409751282061904  32.01542035765507 8.872553159249826  32.60222183602262 9.21868311963752  C 32.60222183602262 9.21868311963752  31.88896167266019 10.096963270027958  31.88896167266019 10.096963270027958  C 31.26690754035548 9.708883764961469  30.739680907880008 9.185297066866806  30.307126719516596 8.52663646004049  C 29.87470757091622 7.867859523371975  29.54538122813332 7.1208136931893495  29.319345480796226 6.285067000867637  C 29.093309733459133 5.449320308545924  28.980027539002446 4.578911239666683  28.980027539002446 3.6742890195700375  Z M 26.310495568359556 2.502747517593753  L 26.310495568359556 1.5166875542273208  L 32.16743980856383 1.5166875542273208  L 32.16743980856383 2.502747517593753  L 26.310495568359556 2.502747517593753  Z " fill-rule="nonzero" fill="#26262c" stroke="none" transform="matrix(1 0 0 1 41 695 )" />
  </g>
</svg>