<?xml version="1.0" encoding="utf-8"?>
<svg version="1.1" xmlns:xlink="http://www.w3.org/1999/xlink" width="37px" height="13px" xmlns="http://www.w3.org/2000/svg">
  <g transform="matrix(1 0 0 1 -41 -643 )">
    <path d="M 0 11.313084202208646  L 0 10.321679804189873  L 11.632502641893067 10.321679804189873  L 11.632502641893067 11.313084202208646  L 0 11.313084202208646  Z M 5.174565592519764 10.64989303679149  L 5.174565592519764 7.173588760190414  L 6.342616744920208 7.173588760190414  L 6.342616744920208 10.64989303679149  L 5.174565592519764 10.64989303679149  Z M 5.141404818277888 1.872068148091044  C 5.141404818277888 1.872068148091044  5.141404818277888 0.8681365274538901  5.141404818277888 0.8681365274538901  L 6.1723584413499735 0.8681365274538901  C 6.1723584413499735 0.8681365274538901  6.1723584413499735 1.872068148091044  6.1723584413499735 1.872068148091044  C 6.1723584413499735 2.4292495271425163  6.076815555577153 2.9559876755166274  5.8848000856107126 3.4522520091737814  C 5.692926520321023 3.9485231936558045  5.426551836707443 4.408724754616252  5.085971882231764 4.833002486171874  C 4.745540584044387 5.257287037968325  4.354318105407614 5.637956455498397  3.9124764236125045 5.9749841000636  C 3.4707901648215214 6.311868060810782  2.9984542479482483 6.59484941035289  2.494977059004508 6.823828704685181  C 1.991493103344942 7.0526574796666015  1.4794185602759191 7.222441671201888  0.9596827052985005 7.333185576348603  C 0.9596827052985005 7.333185576348603  0.4563318485225464 6.340027367163258  0.4563318485225464 6.340027367163258  C 0.9067420956921258 6.2580179012336155  1.3557026646216555 6.120085411859169  1.8040451061439062 5.92612793185191  C 2.2525362039544583 5.732019932493778  2.677616700440155 5.493836325569116  3.0785076982757467 5.211575153699385  C 3.479398696111338 4.929320832654525  3.834626777837015 4.6112476466287315  4.144601843305644 4.25775242353576  C 4.454583675490098 3.9041135472088087  4.6983869513754515 3.525364287436671  4.875623687413888 3.1212827875961224  C 5.052867175063874 2.717208107996403  5.141404818277888 2.300840754777961  5.141404818277888 1.872068148091044  Z M 5.353237823882713 1.872068148091044  C 5.353237823882713 1.872068148091044  5.353237823882713 0.8681365274538901  5.353237823882713 0.8681365274538901  L 6.375777519162085 0.8681365274538901  C 6.375777519162085 0.8681365274538901  6.375777519162085 1.872068148091044  6.375777519162085 1.872068148091044  C 6.375777519162085 2.304583079030965  6.465477043733677 2.7222635885734863  6.645518145457951 3.1252914988340046  C 6.825714670186351 3.5281757558605418  7.071012589742589 3.905655472149063  7.380994421927043 4.257501879083392  C 7.690976254111498 4.609197781958873  8.047143429117893 4.92757696130082  8.449068314672873 5.212827875961223  C 8.850993200227853 5.497928286562777  9.276706867980119 5.736475216585816  9.726995465307597 5.928633376375585  C 10.177250289473049 6.1207983716982035  10.627783304201184 6.2580179012336155  11.078173281431841 6.340027367163258  C 11.078173281431841 6.340027367163258  10.565913559934186 7.333185576348603  10.565913559934186 7.333185576348603  C 10.05193515303385 7.22453517929625  9.543018763116716 7.055207515720007  9.039528070949878 6.825331971399387  C 8.536050882006137 6.595305923019916  8.062220336566256 6.312117687741962  7.617574273981032 5.975986277873071  C 7.172928211395808 5.639848047763349  6.780204337476601 5.259785662251172  6.439624383000923 4.83550793069555  C 6.099193084813546 4.4112233788990975  5.832818401199966 3.9500651185960596  5.640796179621975 3.452001464721414  C 5.448922614332285 2.953787276203878  5.353237823882713 2.427149137639245  5.353237823882713 1.872068148091044  Z M 16.38092753855826 9.857170389500261  L 16.38092753855826 7.749089367278895  L 17.557887555680402 7.749089367278895  L 17.557887555680402 9.857170389500261  L 16.38092753855826 9.857170389500261  Z M 21.77326537983065 13  L 21.77326537983065 0.005511977952088192  L 23 0.005511977952088192  L 23 13  L 21.77326537983065 13  Z M 22.574073330925533 6.5224237284869035  L 22.574073330925533 5.5199953745639565  L 24.944821220755248 5.5199953745639565  L 24.944821220755248 6.5224237284869035  L 22.574073330925533 6.5224237284869035  Z M 15.53409045306794 10.502322354346946  C 14.649393471697257 10.519494604439018  13.832146509508515 10.527877888488446  13.082667843813956 10.527877888488446  C 13.082667843813956 10.527877888488446  12.90548042323796 9.524697901208395  12.90548042323796 9.524697901208395  C 13.673880155558175 9.524697901208395  14.514600371610268 9.518540788303833  15.427679013336542 9.50615761173319  C 16.34089280812802 9.493569189495824  17.275865642245982 9.458171333890704  18.233476463742527 9.399676219476941  C 19.19108728523907 9.341112688566602  20.111743923685136 9.248390799583108  20.995224527469002 9.121822421801221  C 20.995224527469002 9.121822421801221  21.087777733188865 10.002736716325863  21.087777733188865 10.002736716325863  C 20.17010394766282 10.167207190945739  19.236477085823168 10.287238559042478  18.28643471514373 10.362769094378168  C 17.336527497529495 10.438368046210433  16.418922587503825 10.484944858588154  15.53409045306794 10.502322354346946  Z M 13.126222293564481 2.537764758031877  L 13.126222293564481 1.5746718831306492  L 20.793290260443836 1.5746718831306492  L 20.793290260443836 2.537764758031877  L 13.126222293564481 2.537764758031877  Z M 15.389568869804835 3.5920558135949276  C 15.844824266757104 3.391215747193119  16.370894190667343 3.2906508373966505  16.967922736332383 3.2906508373966505  C 17.565154041803776 3.2906508373966505  18.091156358972864 3.391215747193119  18.546276602859933 3.5920558135949276  C 19.001599576344805 3.7928958799967356  19.356913873280156 4.072394303817671  19.611875810960846 4.4303775512170676  C 19.866905325174137 4.788217145382484  19.99446205706489 5.2120136982431475  19.99446205706489 5.702141191435234  C 19.99446205706489 6.18269737885182  19.866905325174137 6.603911293072867  19.611875810960846 6.965636864725268  C 19.356913873280156 7.327211932318819  19.001599576344805 7.6069667880197445  18.546276602859933 7.804960780156879  C 18.091156358972864 8.002811103768014  17.565154041803776 8.101855956212539  16.967922736332383 8.101855956212539  C 16.370894190667343 8.101855956212539  15.844824266757104 8.002811103768014  15.389568869804835 7.804960780156879  C 14.934245896319963 7.6069667880197445  14.580480301260721 7.327211932318819  14.32842409406477 6.965636864725268  C 14.07643546340142 6.603911293072867  13.950292280321575 6.18269737885182  13.950292280321575 5.702141191435234  C 13.950292280321575 5.2120136982431475  14.07643546340142 4.788217145382484  14.32842409406477 4.4303775512170676  C 14.580480301260721 4.072394303817671  14.934245896319963 3.7928958799967356  15.389568869804835 3.5920558135949276  Z M 18.35473601134342 4.624549501801993  C 18.00530368213977 4.3530706107555535  17.54312445467847 4.217164222252202  16.967922736332383 4.217164222252202  C 16.392923777792653 4.217164222252202  15.9306769435902 4.3530706107555535  15.581109461321349 4.624549501801993  C 15.231609555585095 4.89588473961445  15.056476316599115 5.254964853009906  15.056476316599115 5.702141191435234  C 15.056476316599115 6.147230872591069  15.231609555585095 6.503984794518918  15.581109461321349 6.772467091949815  C 15.9306769435902 7.0409562402055785  16.392923777792653 7.175342571356987  16.967922736332383 7.175342571356987  C 17.54312445467847 7.175342571356987  18.00530368213977 7.0409562402055785  18.35473601134342 6.772467091949815  C 18.704371070144873 6.503984794518918  18.879369156065653 6.147230872591069  18.879369156065653 5.702141191435234  C 18.879369156065653 5.254964853009906  18.704371070144873 4.89588473961445  18.35473601134342 4.624549501801993  Z M 16.38092753855826 2.214311870025247  L 16.38092753855826 0.02179736735598512  L 17.557887555680402 0.02179736735598512  L 17.557887555680402 2.214311870025247  L 16.38092753855826 2.214311870025247  Z M 35.86758430648635 12.994488022047912  L 35.86758430648635 0  L 37 0  L 37 12.994488022047912  L 35.86758430648635 12.994488022047912  Z M 31.192410075310672 5.649276311985661  L 31.192410075310672 4.666640969799757  L 33.657690918576186 4.666640969799757  L 33.657690918576186 5.649276311985661  L 31.192410075310672 5.649276311985661  Z M 33 12.328791412107078  L 33 0.3039104207219535  L 34 0.3039104207219535  L 34 12.328791412107078  L 33 12.328791412107078  Z M 28.73603809676686 3.6727311272573093  C 28.73603809676686 3.6727311272573093  28.73603809676686 2.019137741630852  28.73603809676686 2.019137741630852  L 29.642267613735168 2.019137741630852  C 29.642267613735168 2.019137741630852  29.642267613735168 3.6727311272573093  29.642267613735168 3.6727311272573093  C 29.642267613735168 4.380617808139563  29.576402727944007 5.073693984343381  29.444292842141873 5.7514984485516605  C 29.31225053287234 6.42930291275994  29.11954664019627 7.063334948986198  28.86620650908945 7.65388247537919  C 28.612933954515235 8.24428631795416  28.301717075858335 8.775920604059062  27.932755461027064 9.248848459151619  C 27.563861422728387 9.721735270463038  27.145487406214365 10.10720760557121  26.677595409125566 10.405361651280668  C 26.677595409125566 10.405361651280668  25.952512808165125 9.516429934280263  25.952512808165125 9.516429934280263  C 26.549135894634556 9.14589245855552  27.053146173909454 8.65532504453789  27.464545126208918 8.044731821072716  C 27.876079231573577 7.434124895957802  28.19102173104661 6.7502485212005165  28.40888478670894 5.9932738450864385  C 28.626950571969065 5.236299168972359  28.73603809676686 4.462777793420076  28.73603809676686 3.6727311272573093  Z M 28.97509263346576 3.6727311272573093  C 28.97509263346576 3.6727311272573093  28.97509263346576 2.019137741630852  28.97509263346576 2.019137741630852  L 29.87637278114424 2.019137741630852  C 29.87637278114424 2.019137741630852  29.87637278114424 3.6727311272573093  29.87637278114424 3.6727311272573093  C 29.87637278114424 4.424020475082873  29.981285423528746 5.159367219420327  30.191647604906564 5.878775030354424  C 30.402009786284385 6.598182841288522  30.70938963498245 7.247681287506383  31.113220166673354 7.827008691965233  C 31.51705069836426 8.406185561781191  32.01235321125342 8.868791211758092  32.59951576441002 9.214774413629618  C 32.59951576441002 9.214774413629618  31.88581671281619 10.092682174725848  31.88581671281619 10.092682174725848  C 31.2633798138129 9.704767214711326  30.73582876455915 9.181402516488657  30.303008413927795 8.52302118064255  C 29.870323186153083 7.864523564277902  29.54079419998203 7.117794480260289  29.314619366748264 6.2824021431187  C 29.088444533514497 5.447009805977111  28.97509263346576 4.576969789066867  28.97509263346576 3.6727311272573093  Z M 26.30391802774322 2.501686356890936  L 26.30391802774322 1.5160444812766203  L 32.164466203833754 1.5160444812766203  L 32.164466203833754 2.501686356890936  L 26.30391802774322 2.501686356890936  Z " fill-rule="nonzero" fill="#26262c" stroke="none" transform="matrix(1 0 0 1 41 643 )" />
  </g>
</svg>