<?xml version="1.0" encoding="utf-8"?>
<svg version="1.1" xmlns:xlink="http://www.w3.org/1999/xlink" width="51px" height="11px" xmlns="http://www.w3.org/2000/svg">
  <g transform="matrix(1 0 0 1 -337 -593 )">
    <path d="M 5 0.1536926147704591  L 5 10.853626081170992  L 2.8720211154201647 10.853626081170992  C 2.8720211154201647 10.853626081170992  2.8720211154201647 3.966733200266134  2.8720211154201647 3.966733200266134  C 2.8720211154201647 3.7374129142431283  2.8737240733644347 3.5080960677928  2.877366670795735 3.278775781769794  C 2.8810092682270354 3.049462151543268  2.8873271061043817 2.825016737629342  2.895833134820433 2.605455755156354  C 2.9043391635364846 2.3858947726833657  2.914785920840415 2.177318132560833  2.926934547914662 1.979707252162342  C 2.8248821018897297 2.089491071297076  2.7002359908756213 2.2102487800549073  2.553231631204322 2.341982701264138  C 2.4062339155116503 2.4737232931597744  2.2490238856079774 2.610336449226114  2.081364879415324 2.7518296739853625  C 2.081364879415324 2.7518296739853625  0.8601484558872574 3.7361942781104456  0.8601484558872574 3.7361942781104456  L 0 2.642049234863606  L 3.1597091865417783 0.1536926147704591  L 5 0.1536926147704591  Z M 15.398601198700295 0.1536926147704591  L 17.002267811371453 0.1536926147704591  L 13.033435924800138 10.853626081170992  L 11.4258816354922 10.853626081170992  L 15.398601198700295 0.1536926147704591  Z M 27.590355131637875 0.7062541583499667  C 28.183189514149102 1.1770921996068626  28.47966116230097 1.8077201608068585  28.47966116230097 2.5981370592149036  C 28.47966116230097 3.083610705563699  28.382423628349684 3.5044342332045977  28.188085414542577 3.8606121091151033  C 27.99368084993106 4.216789985025609  27.727176481789616 4.507588240132149  27.38819594652539 4.733244621867376  C 27.049281762065576 4.958927656568373  26.65978115483478 5.120637185643903  26.21994911717343 5.218230206254158  C 26.21994911717343 5.218230206254158  26.21994911717343 5.269461077844311  26.21994911717343 5.269461077844311  C 27.070419313122784 5.376846710766834  27.71331456189921 5.645174952287265  28.148236729015597 6.074517631403859  C 28.583158896131984 6.503860310520452  28.800394484835202 7.0723076470756405  28.800394484835202 7.77977378576181  C 28.800394484835202 8.401904334776628  28.65219185099179 8.955684082680992  28.355741469503656 9.441117764471059  C 28.059291088015517 9.926618063785623  27.60415016683272 10.307684270673064  26.99068101041478 10.584542027056997  C 26.377145532853042 10.86146640096543  25.58966262714007 11  24.62745957483301 11  C 24.0516107016462 11  23.51703647789926 10.953674800328812  23.023792962161853 10.860944777112442  C 22.530483095620028 10.768281371420569  22.06256233324451 10.620677522450759  21.62034169628479 10.418163672654691  C 21.62034169628479 10.418163672654691  21.62034169628479 8.884896872920825  21.62034169628479 8.884896872920825  C 22.069860773427227 9.11179231976585  22.549944525104785 9.286209007630356  23.060239930631653 9.40818363273453  C 23.570468955693485 9.530158257838705  24.054958495698276 9.59115103127079  24.514230992786835 9.59115103127079  C 25.40351578644682 9.59115103127079  26.03702383493834 9.424034821524486  26.414818908591958 9.089820359281436  C 26.792680333049997 8.755605897038388  26.981447778402433 8.293348621766883  26.981447778402433 7.70292747837658  C 26.981447778402433 7.322347993357902  26.88401301616595 7.009575038020747  26.688414151905246 6.764426702151253  C 26.49281528764454 6.519278366281759  26.189336006847693 6.336300031095578  25.778697818899065 6.2155245065424705  C 25.368059630950437 6.094748981989364  24.838377184770945 6.034264803725881  24.189609993615825 6.034264803725881  C 24.189609993615825 6.034264803725881  23.25316588373179 6.034264803725881  23.25316588373179 6.034264803725881  L 23.25316588373179 4.647371922821025  C 23.25316588373179 4.647371922821025  24.200787063946564 4.647371922821025  24.200787063946564 4.647371922821025  C 24.81797180609059 4.647371922821025  25.312927985282897 4.573454687034351  25.685879539195973 4.425859392326458  C 26.05889744391347 4.27827076830497  26.329346778177037 4.072855750629817  26.496946077543903 3.80938123752495  C 26.664611727715183 3.5459067244200835  26.748187180195718 3.2385204525844147  26.748187180195718 2.8872255489021956  C 26.748187180195718 2.4261468111953177  26.599984546352307 2.068263175255392  26.30353416486417 1.8133288977600355  C 26.007150134180456 1.558394620264679  25.568800356286612 1.4308050565535595  24.988041582894223 1.4308050565535595  C 24.628426303383904 1.4308050565535595  24.301107018392877 1.47179019307847  24.005917272528038 1.5535151918385453  C 23.7106612055194 1.6352401905986205  23.438779115061223 1.739898473181675  23.190963057543332 1.867975160789532  C 22.94314700002544 1.9960518483973893  22.708923039748075 2.1333975738843494  22.487779545866008 2.27977378576181  C 22.487779545866008 2.27977378576181  21.66019038181177 1.083166999334664  21.66019038181177 1.083166999334664  C 22.063530099917063 0.7806619427161302  22.54537649319232 0.5245122602018185  23.105434171534203 0.3147039254823686  C 23.66555817101988 0.10490224655939856  24.317420981645423 0  25.06093551983382 0  C 26.15431194724703 0  26.997454368661607 0.2354161170930708  27.590355131637875 0.7062541583499667  Z M 37.51510762575395 0.1536926147704591  L 39.11828827884551 0.1536926147704591  L 35.149456392274196 10.853626081170992  L 33.54238806254586 10.853626081170992  L 37.51510762575395 0.1536926147704591  Z M 51 9.345974717232203  L 51 10.853626081170992  L 43.78350024297979 10.853626081170992  L 43.78350024297979 9.558216899534264  C 43.78350024297979 9.558216899534264  46.546180452990555 6.747837658017299  46.546180452990555 6.747837658017299  C 47.080759837685186 6.201383366080339  47.52102833135323 5.729811876897248  47.86604667117688 5.333377689066312  C 48.21106501100053 4.936956842608186  48.46791862942807 4.5602800962744645  48.63677856441823 4.202883122643602  C 48.80563849940839 3.8454861490127383  48.88996350538843 3.4568688442342745  48.88996350538843 3.0372588157019296  C 48.88996350538843 2.522513929389485  48.7416945207406 2.1321801438355927  48.44531049005689 1.86626746506986  C 48.148860108568755 1.6003547863041279  47.75623042468944 1.4673985362608117  47.267830428692584 1.4673985362608117  C 46.80616933230564 1.4673985362608117  46.379982543713844 1.5588810443349415  45.98878481519243 1.7418496340652028  C 45.59758708667101 1.9248182237954647  45.192794413489665 2.1846314532393545  44.77485778535832 2.521290751829674  C 44.77485778535832 2.521290751829674  43.838413675474285 1.3832335329341316  43.838413675474285 1.3832335329341316  C 44.13240910685963 1.131956489040149  44.44831498570875 0.9014184453900358  44.78603485568907 0.6916167664670658  C 45.12375472566938 0.4818150875440958  45.50135596717867 0.3139729641736492  45.91929259531002 0.1883344422266578  C 46.337229223441355 0.06269592027966636  46.813920334211105 0  47.348499718905735 0  C 48.02639440896915 0  48.60981777371852 0.12075770875783157  49.09941208419488 0.36227544910179643  C 49.58900639467124 0.6037931894457612  49.967093566099514 0.9397221074344366  50.233155783395425 1.3703038367709026  C 50.49921800069135 1.8008922367937734  50.63212859824483 2.3005111034441534  50.63212859824483 2.86892880904857  C 50.63212859824483 3.447105847982854  50.51790269271939 3.9796634324666638  50.28952709462872 4.466356176535817  C 50.06115149653804 4.953062232197931  49.734845314475514 5.43464788088753  49.310804501319716 5.911554668440896  C 48.88683003896833 6.388528073518761  48.38358947096138 6.905230240473912  47.80044212793124 7.461410512308716  C 47.80044212793124 7.461410512308716  45.955739563779815 9.269128409846973  45.955739563779815 9.269128409846973  L 45.955739563779815 9.345974717232203  L 51 9.345974717232203  Z " fill-rule="nonzero" fill="#ff3c26" stroke="none" transform="matrix(1 0 0 1 337 593 )" />
  </g>
</svg>