<?xml version="1.0" encoding="utf-8"?>
<svg version="1.1" xmlns:xlink="http://www.w3.org/1999/xlink" width="62px" height="33px" xmlns="http://www.w3.org/2000/svg">
  <g transform="matrix(1 0 0 1 -179 -29 )">
    <path d="M 8.196906972998026 19.869331963639755  L 8.196906972998026 15.334283223142458  L 12.477153126479287 15.334283223142458  L 12.477153126479287 19.869331963639755  L 8.196906972998026 19.869331963639755  Z M 23 22.469310760198216  L 23 0.28465071899773525  L 27 0.28465071899773525  L 27 22.469310760198216  L 23 22.469310760198216  Z M 24.980775559374596 13.256797439501646  L 24.980775559374596 9.769569771203898  L 30.918416940988585 9.769569771203898  L 30.918416940988585 13.256797439501646  L 24.980775559374596 13.256797439501646  Z M 6.832083360921999 21.647690195784534  C 4.551531652681272 21.691108853096594  2.443179426516891 21.720778383425777  0.5070832868031968 21.736722715649055  C 0.5070832868031968 21.736722715649055  0 18.428464889111485  0 18.428464889111485  C 2.0000897184930855 18.428464889111485  4.168673546456183 18.414734996903235  6.505689853333715 18.38732655676216  C 8.843067566575979 18.3595228032532  11.220321326313954 18.280568031441387  13.637513600800087 18.15050970514421  C 16.05470587528622 18.020056072842447  18.391730798474438 17.816592103206037  20.64857113774337 17.540069934799416  C 20.64857113774337 17.540069934799416  20.975025916874284 20.455884960362358  20.975025916874284 20.455884960362358  C 18.645906698079038 20.850935458518997  16.276699615150477 21.137434924870014  13.867404428746632 21.315326249677838  C 11.458109242342786 21.49321757448566  9.113023281827356 21.604007995000003  6.832083360921999 21.647690195784534  Z M 4.182027870645891 27  L 4.182027870645891 23.866385416419142  L 26.538175629935694 23.866385416419142  L 26.538175629935694 33  L 22.246655512610573 33  L 22.246655512610573 27  L 4.182027870645891 27  Z M 0.8430964265843388 6  L 0.8430964265843388 3  L 19.770488660317483 3  L 19.770488660317483 6  L 0.8430964265843388 6  Z M 4.502784396312244 8.08464742880853  C 5.9653067994920885 7.2185361109261015  7.901166948029873 6.7854723523573295  10.310468836008694 6.7854723523573295  C 12.746868542399413 6.7854723523573295  14.690299914936322 7.2185361109261015  16.140762474935492 8.08464742880853  C 17.591225034934663 8.950754151993147  18.31645368217265 10.135005998740361  18.31645368217265 11.637443084296475  C 18.31645368217265 13.1398867673674  17.591225034934663 14.328053061026955  16.140762474935492 15.201940846053875  C 14.690299914936322 16.075808897442744  12.746868542399413 16.512757708639125  10.310468836008694 16.512757708639125  C 7.901166948029873 16.512757708639125  5.9653067994920885 16.075808897442744  4.502784396312244 15.201940846053875  C 3.0406433845510725 14.328053061026955  2.309569527882999 13.1398867673674  2.309569527882999 11.637443084296475  C 2.309569527882999 10.135005998740361  3.0406433845510725 8.950754151993147  4.502784396312244 8.08464742880853  Z M 13.19090532657238 10.100908275008639  C 12.49033584248124 9.746608063408344  11.530907852942615 9.569487882050373  10.312674611543361 9.569487882050373  C 9.094876374162581 9.569487882050373  8.13552407651988 9.746608063408344  7.4345664395996005 10.100908275008639  C 6.733990253933485 10.45520848660893  6.3836982119580306 10.97072468652094  6.3836982119580306 11.647456226774464  C 6.3836982119580306 12.294908173018484  6.733990253933485 12.803746539267895  7.4345664395996005 13.173977893584313  C 8.13552407651988 13.543846885290408  9.094876374162581 13.728802499081489  10.312674611543361 13.728802499081489  C 11.530907852942615 13.728802499081489  12.49033584248124 13.543846885290408  13.19090532657238 13.173977893584313  C 13.89147481066352 12.803746539267895  14.241773554213951 12.294908173018484  14.241773554213951 11.647456226774464  C 14.241773554213951 10.97072468652094  13.89147481066352 10.45520848660893  13.19090532657238 10.100908275008639  Z M 8.196906972998026 4.233809984261929  L 8.196906972998026 0  L 12.477153126479287 0  L 12.477153126479287 4.233809984261929  L 8.196906972998026 4.233809984261929  Z M 56 23.898596368727848  L 56 0.28465071899773525  L 61 0.28465071899773525  L 61 23.898596368727848  L 56 23.898596368727848  Z M 39.18639890343704 32  L 39.18639890343704 29  L 62 29  L 62 32  L 39.18639890343704 32  Z M 39.18639890343704 30.327214800002196  L 39.18639890343704 21.527110245100815  L 43.46670632846093 21.527110245100815  L 43.46670632846093 30.327214800002196  L 39.18639890343704 30.327214800002196  Z M 38.538819969383994 3.456645359645098  C 39.888761417846965 2.7565705749582787  41.40337193219192 2.4065321222999883  43.082717570800746 2.4065321222999883  C 44.76996029749186 2.4065321222999883  46.28651570463139 2.7565705749582787  47.6323746972247 3.456645359645098  C 48.97856828988283 4.156726741846728  50.047278024843884 5.125708572376623  50.838530708407745 6.363533005167425  C 51.63025184402946 7.601362739532629  52.02615701919875 9.027093936958146  52.02615701919875 10.64071316678883  C 52.02615701919875 12.222463454766068  51.63025184402946 13.638167372181861  50.838530708407745 14.887853900976271  C 50.047278024843884 16.13754042977068  48.97856828988283 17.11651555132775  47.6323746972247 17.824720653797154  C 46.28651570463139 18.53259635177709  44.76996029749186 18.88653599741172  43.082717570800746 18.88653599741172  C 41.40337193219192 18.88653599741172  39.888761417846965 18.53259635177709  38.538819969383994 17.824720653797154  C 37.18881162484225 17.11651555132775  36.11794595731041 16.13754042977068  35.32629171776746 14.887853900976271  C 34.53497213812483 13.638167372181861  34.139339393945384 12.222463454766068  34.139339393945384 10.64071316678883  C 34.139339393945384 9.027093936958146  34.53497213812483 7.601362739532629  35.32629171776746 6.363533005167425  C 36.11794595731041 5.125708572376623  37.18881162484225 4.156726741846728  38.538819969383994 3.456645359645098  Z M 45.51078626212954 6.616455332939729  C 44.78953703404597 6.245848420983365  43.980179985851336 6.060544965005182  43.082717570800746 6.060544965005182  C 42.18525515575016 6.060544965005182  41.3777873533436 6.245848420983365  40.66028586139389 6.616455332939729  C 39.943119029344494 6.987062244896094  39.3782293330222 7.511687727757065  38.96563753534232 8.190267985910678  C 38.55304573766243 8.868481905273168  38.34673368323996 9.68529182107517  38.34673368323996 10.64071316678883  C 38.34673368323996 11.580203340333174  38.55304573766243 12.389231546322666  38.96563753534232 13.067814455263479  C 39.3782293330222 13.74602183601754  39.943119029344494 14.270416994923968  40.66028586139389 14.641023906880333  C 41.3777873533436 15.0116308188367  42.18525515575016 15.19693427481488  43.082717570800746 15.19693427481488  C 43.980179985851336 15.19693427481488  44.78953703404597 15.0116308188367  45.51078626212954 14.641023906880333  C 46.23210244612737 14.270416994923968  46.79909248784946 13.74602183601754  47.211684285529344 13.067814455263479  C 47.624276083209224 12.389231546322666  47.830526866089066 11.580203340333174  47.830526866089066 10.64071316678883  C 47.830526866089066 9.68529182107517  47.624276083209224 8.868481905273168  47.211684285529344 8.190267985910678  C 46.79909248784946 7.511687727757065  46.23210244612737 6.987062244896094  45.51078626212954 6.616455332939729  Z " fill-rule="nonzero" fill="#ffffff" stroke="none" transform="matrix(1 0 0 1 179 29 )" />
  </g>
</svg>