<?xml version="1.0" encoding="utf-8"?>
<svg version="1.1" xmlns:xlink="http://www.w3.org/1999/xlink" width="420px" height="22px" xmlns="http://www.w3.org/2000/svg">
  <g transform="matrix(1 0 0 1 -509 -350 )">
    <path d="M 5.2656876233752286 3.2147422182345227  C 5.2656876233752286 3.2147422182345227  5.2656876233752286 1.1788197943267307  5.2656876233752286 1.1788197943267307  L 7.607958066595782 1.1788197943267307  C 7.607958066595782 1.1788197943267307  7.607958066595782 3.2147422182345227  7.607958066595782 3.2147422182345227  C 7.607958066595782 4.648427524760163  7.381667384098335 5.998682815411691  6.9290947727195356 7.26545103181724  C 6.476788580921809 8.531940599333979  5.797551561231789 9.637960613439505  4.891407294819367 10.583565463455034  C 3.9854961604274877 11.528904950522811  2.857670139263697 12.240416768216406  1.507944833011108 12.718061978052315  C 1.507944833011108 12.718061978052315  0 10.48128649320174  0 10.48128649320174  C 1.2001199332175825 10.067061930602526  2.188954966122241 9.48721826687487  2.966467345022782 8.741693698667955  C 3.7442328642092293 7.99583739712023  4.321809048776122 7.144087518979915  4.699205992178755 6.186541514252191  C 5.076849346897098 5.22879651696977  5.2656876233752286 4.238196573693837  5.2656876233752286 3.2147422182345227  Z M 5.835523020956612 3.4707433225205326  C 5.835523020956612 3.4707433225205326  5.835523020956612 1.1788197943267307  5.835523020956612 1.1788197943267307  L 8.137670222699525 1.1788197943267307  C 8.137670222699525 1.1788197943267307  8.137670222699525 3.4707433225205326  8.137670222699525 3.4707433225205326  C 8.137670222699525 4.149649691145006  8.243922716530173 4.8153866672561945  8.456521939548432 5.467916350334737  C 8.669054557671425 6.120167443836704  8.984129625110167 6.730149493797018  9.401735261957104 7.297883911933191  C 9.819607288610907 7.865352967121609  10.34412414378689 8.370643996091863  10.975261472185844 8.813726275105251  C 11.60666522016587 9.25647685043395  12.346363704431335 9.613163472073643  13.194296245153645 9.88382911173994  C 13.194296245153645 9.88382911173994  11.710650974040469 12.097099868866037  11.710650974040469 12.097099868866037  C 10.424865295374264 11.651032316002658  9.346419315839642 11.000629006271998  8.47524205373329 10.145843053350818  C 7.604331211208011 9.290791796794121  6.946588011037412 8.289881429446478  6.502007867994013 7.1430685347505  C 6.057694144531688 5.995957062254123  5.835523020956612 4.771829006056318  5.835523020956612 3.4707433225205326  Z M 15 13.087456691283043  L 15 0.016034232866312375  L 18 0.016034232866312375  L 18 13.087456691283043  L 15 13.087456691283043  Z M 16.788985011640545 7.606846573262475  L 16.788985011640545 5.258195872731037  L 20.58611931263469 5.258195872731037  L 20.58611931263469 7.606846573262475  L 16.788985011640545 7.606846573262475  Z M 6.476885108892511 14.110307129546552  C 7.591032979646485 13.77821103509559  8.90506508874741 13.612152667540894  10.418902117714731 13.612152667540894  C 11.948724083352856 13.612152667540894  13.2639448977907 13.77821103509559  14.364638758345672 14.110307129546552  C 15.465332618900637 14.442204231442819  16.315569206657127 14.918866014735318  16.915269560425035 15.540269169714955  C 17.515236274225607 16.1614733321399  17.81517654785211 16.912723310571813  17.81517654785211 17.794111394851267  C 17.81517654785211 18.665084191024224  17.515236274225607 19.41255052324177  16.915269560425035 20.03647456691283  C 16.315569206657127 20.660597662450826  15.465332618900637 21.1386087991321  14.364638758345672 21.470505901028368  C 13.2639448977907 21.80260199547933  11.948724083352856 21.968660363034026  10.418902117714731 21.968660363034026  C 8.90506508874741 21.968660363034026  7.591032979646485 21.80260199547933  6.476885108892511 21.470505901028368  C 5.362937082598548 21.1386087991321  4.506024165438465 20.660597662450826  3.906070730933058 20.03647456691283  C 3.306390385430513 19.41255052324177  3.0065296089297875 18.665084191024224  3.0065296089297875 17.794111394851267  C 3.0065296089297875 16.912723310571813  3.306390385430513 16.1614733321399  3.906070730933058 15.540269169714955  C 4.506024165438465 14.918866014735318  5.362937082598548 14.442204231442819  6.476885108892511 14.110307129546552  Z M 12.912945734245083 16.046926633998204  C 12.234852758585369 15.898657592882962  11.403505640688431 15.82457312443923  10.418902117714731 15.82457312443923  C 9.444821989548227 15.82457312443923  8.617328904218718 15.898657592882962  7.936505217175609 16.046926633998204  C 7.2556148954630295 16.19499665290263  6.735643548977729 16.41332343987249  6.376516027627776 16.701900752294847  C 6.017588320963628 16.9904780647172  5.838145056493905 17.354545115583374  5.838145056493905 17.794111394851267  C 5.838145056493905 18.223262356356546  6.017588320963628 18.584790457955172  6.376516027627776 18.878608599627302  C 6.735643548977729 19.172360400562496  7.2556148954630295 19.393330793241855  7.936505217175609 19.541599834357097  C 8.617328904218718 19.689868875472342  9.444821989548227 19.76401407964663  10.418902117714731 19.76401407964663  C 11.403505640688431 19.76401407964663  12.234852758585369 19.689868875472342  12.912945734245083 19.541599834357097  C 13.591305129485871 19.393330793241855  14.108511613575317 19.172360400562496  14.464641974186598 18.878608599627302  C 14.821105329500016 18.584790457955172  14.999354291082385 18.223262356356546  14.999354291082385 17.794111394851267  C 14.999354291082385 17.354545115583374  14.821105329500016 16.9904780647172  14.464641974186598 16.701900752294847  C 14.108511613575317 16.41332343987249  13.591305129485871 16.19499665290263  12.912945734245083 16.046926633998204  Z M 39 21.968235212920145  L 39 0  L 42 0  L 42 21.968235212920145  L 39 21.968235212920145  Z M 35.33884981928499 10.857119193871213  L 35.33884981928499 8.556571191938712  L 39.17116817853536 8.556571191938712  L 39.17116817853536 10.857119193871213  L 35.33884981928499 10.857119193871213  Z M 34 20.910097315204638  L 34 0.4134281178825316  L 37 0.4134281178825316  L 37 20.910097315204638  L 34 20.910097315204638  Z M 23.011075341635916 16.90002070536269  L 23.011075341635916 14.551734419214576  C 23.011075341635916 14.551734419214576  24.522892250382323 14.551734419214576  24.522892250382323 14.551734419214576  C 25.480721022296958 14.551734419214576  26.381703215793742 14.538433229350444  27.22590600147784 14.51183104424046  C 28.070108787161924 14.485228859130471  28.89859162659448 14.428284368610454  29.711290802978056 14.340981434191455  C 30.524056554482698 14.253413144238733  31.35952329085042 14.130116882850782  32.217712866347256 13.971100835116296  C 32.217712866347256 13.971100835116296  32.45820840493056 16.287683069915108  32.45820840493056 16.287683069915108  C 31.57131262573448 16.458109531638225  30.71002230504182 16.589557140465395  29.874344826855275 16.68210090413417  C 29.03860077354767 16.77437930485519  28.186489661429842 16.833873956509034  27.31804311070688 16.86054248050245  C 26.449862979565005 16.886879306371696  25.518152377953754 16.90002070536269  24.522892250382323 16.90002070536269  C 24.522892250382323 16.90002070536269  23.011075341635916 16.90002070536269  23.011075341635916 16.90002070536269  Z M 23 15.662226516667818  L 23 2.5867347643039547  L 31.164569243915146 2.5867347643039547  L 31.164569243915146 4.879447856994962  L 26 4.879447856994962  L 26 15.662226516667818  L 23 15.662226516667818  Z M 50.595255059378 14.031168472634413  C 51.70940293013197 13.693831548933673  53.026039448441175 13.525179101387259  54.5451381748121 13.525179101387259  C 56.06443674564302 13.525179101387259  57.37569842457187 13.693831548933673  58.478923211598634 14.031168472634413  C 59.5823478430854 14.368240063043515  60.43387817957198 14.850514237093657  61.033578533339885 15.477954310166334  C 61.63354524714046 16.105129020291255  61.9335464983376 16.86412849834357  61.9335464983376 17.754936848643798  C 61.9335464983376 18.64057068077507  61.63354524714046 19.399564583477122  61.033578533339885 20.031980122851817  C 60.43387817957198 20.664594654781215  59.5823478430854 21.149468543485575  58.478923211598634 21.486540133894678  C 57.37569842457187 21.823877057595418  56.06443674564302 21.99252950514183  54.5451381748121 21.99252950514183  C 53.026039448441175 21.99252950514183  51.70940293013197 21.823877057595418  50.595255059378 21.486540133894678  C 49.481307033084036 21.149468543485575  48.62434641764848 20.664495603345642  48.024379703847906 20.031615708468493  C 47.42467935008 19.399001176539098  47.12483858184464 18.63958301340672  47.12483858184464 17.753418455379943  C 47.12483858184464 16.86758557138174  47.42467935008 16.110095233884326  48.024379703847906 15.48093036096349  C 48.62434641764848 14.8515001250949  49.481307033084036 14.368240063043515  50.595255059378 14.031168472634413  Z M 57.03125470715993 15.988012975360618  C 56.35316173150022 15.842463859975672  55.5244800003822 15.769728759748775  54.5451381748121 15.769728759748775  C 53.565796349242 15.769728759748775  52.735698854704204 15.842463859975672  52.0548751676611 15.988012975360618  C 51.37398484594851 16.133562090745567  50.85395252189258 16.353243850938643  50.494825000542626 16.646995651873834  C 50.13589729387848 16.940548430598213  49.956454029408754 17.308256155531783  49.956454029408754 17.75007799019946  C 49.956454029408754 18.2036419277124  50.13589729387848 18.579919648095107  50.494825000542626 18.878912278280072  C 50.85395252189258 19.17797124920198  51.37398484594851 19.402841169378494  52.0548751676611 19.55356477327628  C 52.735698854704204 19.704354717911002  53.565796349242 19.77974463386017  54.5451381748121 19.77974463386017  C 55.5244800003822 19.77974463386017  56.35316173150022 19.704354717911002  57.03125470715993 19.55356477327628  C 57.70961410240072 19.402841169378494  58.22693694408101 19.17797124920198  58.583133879813346 18.878912278280072  C 58.9395306302315 18.579919648095107  59.11772424156787 18.2036419277124  59.11772424156787 17.75007799019946  C 59.11772424156787 17.308256155531783  58.9395306302315 16.940548430598213  58.583133879813346 16.646995651873834  C 58.22693694408101 16.353243850938643  57.70961410240072 16.133562090745567  57.03125470715993 15.988012975360618  Z M 59 13.016578093726276  L 59 0.016034232866312375  L 62 0.016034232866312375  L 62 13.016578093726276  L 59 13.016578093726276  Z M 60.9072939845554 7.576600179446476  L 60.9072939845554 5.227949478915039  L 64.70442828554954 5.227949478915039  L 64.70442828554954 7.576600179446476  L 60.9072939845554 7.576600179446476  Z M 46 11.67468286286148  L 46 1.3937635447580923  L 47.932974325466475 1.3937635447580923  L 47.932974325466475 4.2790144247360065  L 52.7849596208705 4.2790144247360065  L 52.7849596208705 1.3937635447580923  L 56 1.3937635447580923  L 56 11.67468286286148  L 46 11.67468286286148  Z M 52.7849596208705 6.47582579888191  L 47.932974325466475 6.47582579888191  L 47.932974325466475 9.437907378010905  L 52.7849596208705 9.437907378010905  L 52.7849596208705 6.47582579888191  Z M 75.30763511050769 10.514144523431568  L 75.30763511050769 8.213596521499069  L 79.08446388048048 8.213596521499069  L 79.08446388048048 10.514144523431568  L 75.30763511050769 10.514144523431568  Z M 83 21.968235212920145  L 83 0  L 86 0  L 86 21.968235212920145  L 83 21.968235212920145  Z M 79 20.95813927807302  L 79 0.3813596521499068  L 81 0.3813596521499068  L 81 20.95813927807302  L 79 20.95813927807302  Z M 68.91096599578515 2.5778066119124854  C 69.62948745806612 1.9406942551245774  70.46479936857091 1.622129891641935  71.41690023858926 1.622129891641935  C 72.38625144896591 1.622129891641935  73.22933252127301 1.9406942551245774  73.94618889094647 2.5778066119124854  C 74.66297862595049 3.214912385042101  75.21597885467989 4.122930358806681  75.60514467763446 5.301864862999517  C 75.99424389569376 6.480573862067775  76.18876100617928 7.885098900458969  76.18876100617928 9.51552764165919  C 76.18876100617928 11.145757330992478  75.99424389569376 12.553083804955484  75.60514467763446 13.73751121540479  C 75.21597885467989 14.921673381530816  74.66219336108333 15.830934954965835  73.94387174326236 16.46527434605563  C 73.22555012544139 17.09968004822624  72.38173910873894 17.416881772379046  71.4123878983623 17.416881772379046  C 70.46028702834394 17.416881772379046  69.62570500268609 17.09968004822624  68.90864884810102 16.46527434605563  C 68.19185911309702 15.830934954965835  67.63885888436762 14.921673381530816  67.24969306141305 13.73751121540479  C 66.86079365803957 12.553083804955484  66.6663816207214 11.145757330992478  66.6663816207214 9.51552764165919  C 66.6663816207214 7.885098900458969  66.86079365803957 6.480573862067775  67.24969306141305 5.301864862999517  C 67.63885888436762 4.122930358806681  68.19264437796417 3.214912385042101  68.91096599578515 2.5778066119124854  Z M 72.59065749573683 4.890623231416937  C 72.26423244202802 4.496068385930706  71.87409207958888 4.2988142728966805  71.42025400497417 4.2988142728966805  C 70.97620667131872 4.2988142728966805  70.59087171660055 4.496068385930706  70.26418024331066 4.890623231416937  C 69.93768858470659 5.285184719873697  69.68954469315537 5.868186582277936  69.51970508343146 6.639630064186624  C 69.34986547370757 7.410828052746911  69.26494079331965 8.36924072787977  69.26494079331965 9.514859548623093  C 69.26494079331965 10.645485540755056  69.34986547370757 11.600522044740838  69.51970508343146 12.379946166057008  C 69.68954469315537 13.159104924425424  69.93768858470659 13.747314875724687  70.26418024331066 14.144622817309685  C 70.59087171660055 14.541665395946925  70.97620667131872 14.740197391124301  71.42025400497417 14.740197391124301  C 71.87409207958888 14.740197391124301  72.26423244202802 14.541665395946925  72.59065749573683 14.144622817309685  C 72.91734896902672 13.747314875724687  73.16565891131593 13.159104924425424  73.33549852103984 12.379946166057008  C 73.50533813076375 11.600522044740838  73.59026281115167 10.645485540755056  73.59026281115167 9.514859548623093  C 73.59026281115167 8.36924072787977  73.50533813076375 7.410828052746911  73.33549852103984 6.639630064186624  C 73.16565891131593 5.868186582277936  72.91734896902672 5.285184719873697  72.59065749573683 4.890623231416937  Z M 105 21.968235212920145  L 105 0  L 108 0  L 108 21.968235212920145  L 105 21.968235212920145  Z M 95.76121967336783 10.839505832010492  L 95.76121967336783 8.578982676513217  L 100.69454904799856 8.578982676513217  L 100.69454904799856 10.839505832010492  L 95.76121967336783 10.839505832010492  Z M 100 20.95813927807302  L 100 0.5007660984194907  L 103 0.5007660984194907  L 103 20.95813927807302  L 100 20.95813927807302  Z M 95.3216323666622 3.2095189454068604  C 95.3216323666622 3.2095189454068604  95.3216323666622 2.6419435433777347  95.3216323666622 2.6419435433777347  C 95.3216323666622 2.6419435433777347  98.06403762838774 2.6419435433777347  98.06403762838774 2.6419435433777347  C 98.06403762838774 4.6764201721996  97.81124314009136 6.589618223307337  97.30572055997445 8.381530816481469  C 96.80019797985754 10.173430123714542  95.95466160755787 11.82178622575747  94.76911459914108 13.326633998205535  C 93.58363416584534 14.8314817706536  91.9726367620743 16.17848746247153  89.93609332820444 17.36762509489958  C 89.93609332820444 17.36762509489958  88.31610220915205 15.370512802815929  88.31610220915205 15.370512802815929  C 90.00524034504558 14.362216994357789  91.36219923471153 13.25078835668438  92.38696482472541 12.036242666850715  C 93.41199683432038 10.82176340672234  94.15742950283925 9.48509560054179  94.62325625018283 8.026287528469874  C 95.08881657794535 6.567479456397957  95.3216323666622 4.96187988517151  95.3216323666622 3.2095189454068604  Z M 89.46174880623701 4.926457312443923  L 89.46174880623701 2.6419435433777347  L 96.234771486917 2.6419435433777347  L 96.234771486917 4.926457312443923  L 89.46174880623701 4.926457312443923  Z M 132 12.83516046656084  L 132 0.016034232866312375  L 134 0.016034232866312375  L 134 12.83516046656084  L 132 12.83516046656084  Z M 133.31370775061944 7.418019186969425  L 133.31370775061944 5.069732900821313  L 137.1101712983366 5.069732900821313  L 137.1101712983366 7.418019186969425  L 133.31370775061944 7.418019186969425  Z M 118 11.67498654151425  L 118 1.2664614535164609  L 120.3389612485361 1.2664614535164609  L 120.3389612485361 4.1999365035544205  L 125.19137338693456 4.1999365035544205  L 125.19137338693456 1.2664614535164609  L 128 1.2664614535164609  L 128 11.67498654151425  L 118 11.67498654151425  Z M 125.19137338693456 6.4044613154807095  L 120.3389612485361 6.4044613154807095  L 120.3389612485361 9.438757678238664  L 125.19137338693456 9.438757678238664  L 125.19137338693456 6.4044613154807095  Z M 119.91339878307643 21.05106494582097  L 119.91339878307643 13.868518186210228  L 134.2428839719512 13.868518186210228  L 134.2428839719512 16  L 122.76068546629367 16  L 122.76068546629367 21.05106494582097  L 119.91339878307643 21.05106494582097  Z M 119.91339878307643 21.713813237628546  L 119.91339878307643 19.445394437159223  L 134.6664341775799 19.445394437159223  L 134.6664341775799 21.713813237628546  L 119.91339878307643 21.713813237628546  Z M 138.85748358487427 13.572552971219547  L 138.85748358487427 11  L 158.80263716378218 11  L 158.80263716378218 13.572552971219547  L 138.85748358487427 13.572552971219547  Z M 141.31817247026743 21.57090206363448  L 141.31817247026743 19  L 156.57177274211128 19  L 156.57177274211128 21.57090206363448  L 141.31817247026743 21.57090206363448  Z M 141.31817247026743 20.013698667955  L 141.31817247026743 15.168991648837048  L 144.16545915348468 15.168991648837048  L 144.16545915348468 20.013698667955  L 141.31817247026743 20.013698667955  Z M 144.66401177099408 1.225829249775692  C 145.850224887912 0.8646100463066809  147.24025672564457 0.6840057975015529  148.83408489399014 0.6840057975015529  C 150.4279130623357 0.6840057975015529  151.81757438986858 0.8646100463066809  153.00312139828537 1.225829249775692  C 154.18933451520326 1.5867963465818895  155.11181618531833 2.1018601935088688  155.77052746397115 2.7710677065359928  C 156.4285726936713 3.4400164995858926  156.75757139983523 4.23635403905549  156.75757139983523 5.160046932155428  C 156.75757139983523 6.0892526604234245  156.4285726936713 6.889672542532266  155.77052746397115 7.5612947753468145  C 155.11181618531833 8.23298337855442  154.18933451520326 8.749438453309407  153.00312139828537 9.110723997515356  C 151.81757438986858 9.471677838036614  150.4279130623357 9.65218303540617  148.83408489399014 9.65218303540617  C 147.24025672564457 9.65218303540617  145.850224887912 9.471677838036614  144.66401177099408 9.110723997515356  C 143.4777986540762 8.749438453309407  142.55568755370925 8.23298337855442  141.8976423240091 7.5612947753468145  C 141.23893104535628 6.889672542532266  140.90956176944425 6.0892526604234245  140.90956176944425 5.160046932155428  C 140.90956176944425 4.23635403905549  141.23893104535628 3.4400164995858926  141.8976423240091 2.7710677065359928  C 142.55568755370925 2.1018601935088688  143.4777986540762 1.5867963465818895  144.66401177099408 1.225829249775692  Z M 151.51154904298969 3.2028380150458973  C 150.76958307441308 3.030938800825195  149.87709992756555 2.9449541031127064  148.83408489399014 2.9449541031127064  C 147.8070547970855 2.9449541031127064  146.91952053985003 3.030938800825195  146.17156024979607 3.2028380150458973  C 145.4242659491464 3.3747372292665987  144.85119323209352 3.623510766788598  144.45223666817975 3.949158672096073  C 144.05328010426592 4.274554470740735  143.85380278997067 4.67817587372317  143.85380278997067 5.160046932155428  C 143.85380278997067 5.63670370356391  144.05328010426592 6.041827633786838  144.45223666817975 6.375429636275795  C 144.85119323209352 6.708786204728587  145.4242659491464 6.961563941017754  146.17156024979607 7.133715232245152  C 146.91952053985003 7.305601175352854  147.8070547970855 7.391538408447787  148.83408489399014 7.391538408447787  C 149.87709992756555 7.391538408447787  150.76958307441308 7.305601175352854  151.51154904298969 7.133715232245152  C 152.25418106051902 6.961563941017754  152.82329464206285 6.708786204728587  153.21892102076163 6.375429636275795  C 153.61587946759158 6.041827633786838  153.81436699800958 5.63670370356391  153.81436699800958 5.160046932155428  C 153.81436699800958 4.67817587372317  153.61587946759158 4.274554470740735  153.21892102076163 3.949158672096073  C 152.82329464206285 3.623510766788598  152.25418106051902 3.3747372292665987  151.51154904298969 3.2028380150458973  Z M 183 11.082145075574573  L 183 0  L 186 0  L 186 11.082145075574573  L 183 11.082145075574573  Z M 175.42493998609277 2.4169176616743737  C 175.42493998609277 2.4169176616743737  175.42493998609277 0.9056304782938781  175.42493998609277 0.9056304782938781  C 175.42493998609277 0.9056304782938781  178.5290032192528 0.9056304782938781  178.5290032192528 0.9056304782938781  C 178.5290032192528 2.817458535354407  178.14439814938154 4.484728242114707  177.37512465013214 5.90746083235558  C 176.60518510192998 7.33021335150804  175.4689374470484 8.510048215456553  173.96635649651046 9.446896266132928  C 172.46377554597248 10.38354526494237  170.60885332985083 11.098537969537235  168.40160437795726 11.591839326385534  C 168.40160437795726 11.591839326385534  167.4395002684828 9.299126233694528  167.4395002684828 9.299126233694528  C 169.3044057753436 8.912299950609084  170.82364944254158 8.38102891633308  171.99720780800368 7.70535992822141  C 173.1707661734658 7.029425577161985  174.03529140191935 6.241221999232176  174.59076681980991 5.34067499482366  C 175.14690828665312 4.440114763786321  175.42493998609277 3.4654949013044383  175.42493998609277 2.4169176616743737  Z M 168.6723447915754 3.174474428877079  L 168.6723447915754 0.9056304782938781  L 176.63479596505607 0.9056304782938781  L 176.63479596505607 3.174474428877079  L 168.6723447915754 3.174474428877079  Z M 177.68885425104773 5.035417213058182  L 177.68885425104773 2.8628393954034093  L 183.04677045000795 2.8628393954034093  L 183.04677045000795 5.035417213058182  L 177.68885425104773 5.035417213058182  Z M 177.52897106084347 9.271855890675685  L 177.52897106084347 7.115373041617779  L 182.94286466964638 7.115373041617779  L 182.94286466964638 9.271855890675685  L 177.52897106084347 9.271855890675685  Z M 171.05406772299662 14  L 171.05406772299662 12  L 185.52544771873832 12  L 185.52544771873832 17.82211056663676  L 173.94135569255022 17.82211056663676  L 173.94135569255022 20.753642073296984  L 171.0930323906322 20.753642073296984  L 171.0930323906322 15.705531092552972  L 182.67011199619733 15.705531092552972  L 182.67011199619733 14  L 171.05406772299662 14  Z M 171.0930323906322 21.769447166816207  L 171.0930323906322 19.524533094071366  L 186.04296436071516 19.524533094071366  L 186.04296436071516 21.769447166816207  L 171.0930323906322 21.769447166816207  Z M 206 21.968235212920145  L 206 0  L 208 0  L 208 21.968235212920145  L 206 21.968235212920145  Z M 197.8927356621587 9.92561529436124  L 197.8927356621587 7.616928704534475  L 201.70913887547343 7.616928704534475  L 201.70913887547343 9.92561529436124  L 197.8927356621587 9.92561529436124  Z M 201 20.94210504520671  L 201 0.40486437987438745  L 204 0.40486437987438745  L 204 20.94210504520671  L 201 20.94210504520671  Z M 193.29209991291097 5.944813306646422  C 193.29209991291097 5.944813306646422  193.29209991291097 3.5368237973635175  193.29209991291097 3.5368237973635175  L 195.44107145721946 3.5368237973635175  C 195.44107145721946 3.5368237973635175  195.44107145721946 5.944813306646422  195.44107145721946 5.944813306646422  C 195.44107145721946 7.166026047777625  195.344147370502 8.370067421837255  195.15033040043318 9.556949409897165  C 194.9558473962988 10.743897827662364  194.6604357940504 11.860520200669475  194.2641433663989 12.906828628614813  C 193.86718491956896 13.952938004693216  193.35701762311226 14.896903820355098  192.73360634346764 15.738753537166126  C 192.1108611127757 16.580603253977156  191.37257833238158 17.26712650006039  190.518718045303 17.798241424528953  C 190.518718045303 17.798241424528953  188.81030944883025 15.705166678169647  188.81030944883025 15.705166678169647  C 189.87730176831508 15.035998963653462  190.7381774534371 14.1837808747153  191.39289249792222 13.148617571951135  C 192.04760754240738 12.113454269186969  192.52783729316715 10.972360972116778  192.83354858173792 9.725308854993443  C 193.13925987030868 8.47819042678929  193.29209991291097 7.218036355165989  193.29209991291097 5.944813306646422  Z M 193.91852249604136 5.944813306646422  C 193.91852249604136 5.944813306646422  193.91852249604136 3.5368237973635175  193.91852249604136 3.5368237973635175  L 196.05145693927295 3.5368237973635175  C 196.05145693927295 3.5368237973635175  196.05145693927295 5.944813306646422  196.05145693927295 5.944813306646422  C 196.05145693927295 7.175976980381669  196.19903844053727 8.387238907533302  196.49409312451033 9.578632065705017  C 196.78914780848336 10.770025223876734  197.2586775438554 11.852725564436815  197.90273598374282 12.82665746428325  C 198.54679442363022 13.800589364129685  199.3940007119585 14.59288851132756  200.4443421053682 15.20361101525295  C 200.4443421053682 15.20361101525295  198.76892237460888 17.26504244599351  198.76892237460888 17.26504244599351  C 197.62733376339156 16.579886940092486  196.70120254994498 15.654416044067913  195.99054034620886 14.488629995168749  C 195.27921209352007 13.322910257350404  194.75605562174363 12.004533870522465  194.421038655642 10.533519221478363  C 194.0860216895404 9.0623056391918  193.91852249604136 7.532751473100283  193.91852249604136 5.944813306646422  Z M 189.57161441820466 4.6066229553454345  L 189.57161441820466 2.306135689143488  L 199.47522557527074 2.306135689143488  L 199.47522557527074 4.6066229553454345  L 189.57161441820466 4.6066229553454345  Z M 226 13.399395403409484  L 226 0.02386914210780592  L 229 0.02386914210780592  L 229 13.399395403409484  L 226 13.399395403409484  Z M 212.41503192938043 12.391850369245635  L 212.41503192938043 10.091302367313133  C 212.41503192938043 10.091302367313133  214.29423870120095 10.091302367313133  214.29423870120095 10.091302367313133  C 215.70224236781314 10.091302367313133  216.9803813162056 10.076811600105307  218.12863029785294 10.047754848505763  C 219.27687927950026 10.018631758022789  220.37452985907396 9.956278579062133  221.42154106726866 9.86074953412934  C 222.46855227546337 9.765220489196546  223.53484394836994 9.632621622437712  224.62048540033626 9.462991234729795  C 224.62048540033626 9.462991234729795  224.94122742187486 11.731410035199115  224.94122742187486 11.731410035199115  C 223.82361621566372 11.911986466565153  222.72398600878714 12.052692752637778  221.64234085053693 12.153462626820346  C 220.5606956922867 12.254232501002916  219.4267372568855 12.31917975995529  218.24052413996762 12.348302850438264  C 217.05497713155083 12.377359602037806  215.7395405136794 12.391850369245635  214.29423870120095 12.391850369245635  C 214.29423870120095 12.391850369245635  212.41503192938043 12.391850369245635  212.41503192938043 12.391850369245635  Z M 212.37509162061468 3.6054551728897786  L 212.37509162061468 1.3370363724204568  L 222.49651465998798 1.3370363724204568  L 222.49651465998798 7.847603009179378  L 215.21439024207876 7.847603009179378  L 215.21439024207876 11.377259990337496  L 212.41503192938043 11.377259990337496  L 212.41503192938043 5.723127890123542  L 219.68118022378334 5.723127890123542  L 219.68118022378334 3.6054551728897786  L 212.37509162061468 3.6054551728897786  Z M 216.6669979297389 14.876002484643523  C 218.00506758773892 14.16703103971116  219.83605205809465 13.812580578369797  222.15985749251374 13.812580578369797  C 224.4843289163371 13.812580578369797  226.31791219835065 14.16584147348851  227.66064413947112 14.87235834081027  C 229.00404218909262 15.57880889705121  229.67570893866576 16.58491294042032  229.67570893866576 17.89074194216302  C 229.67570893866576 19.18462972988129  229.00404218909262 20.190486203973702  227.66064413947112 20.90821450755746  C 226.31791219835065 21.62594281114121  224.4843289163371 21.984755331630893  222.15985749251374 21.984755331630893  C 219.83605205809465 21.984755331630893  218.00506758773892 21.625160660673615  216.6669979297389 20.9059065497964  C 215.32892827173887 20.18698417225999  214.65992119229736 19.17941487939126  214.65992119229736 17.883271447304853  C 214.65992119229736 16.587393378166194  215.32892827173887 15.584973929575884  216.6669979297389 14.876002484643523  Z M 224.7143908591137 16.235450341638483  C 224.01771544519036 16.095407418451064  223.16624036962713 16.02536544965146  222.15985749251374 16.02536544965146  C 221.15414060480458 16.02536544965146  220.30155381999708 16.095407418451064  219.60221426981138 16.235450341638483  C 218.9028747196257 16.37555960556284  218.37507886109205 16.581879445721754  218.01874871556916 16.85446890744703  C 217.6624185700463 17.126925687698428  217.4842193313853 17.470889567624575  217.4842193313853 17.886308233832565  C 217.4842193313853 18.31300461772724  217.6624185700463 18.66386953572538  218.01874871556916 18.938979915798193  C 218.37507886109205 19.214156636607946  218.9028747196257 19.421781909444235  219.60221426981138 19.56182483263165  C 220.30155381999708 19.70186775581907  221.15414060480458 19.771909724618677  222.15985749251374 19.771909724618677  C 223.16624036962713 19.771909724618677  224.01771544519036 19.70186775581907  224.7143908591137 19.56182483263165  C 225.41106627303708 19.421781909444235  225.9376237033124 19.214156636607946  226.29395384883532 18.938979915798193  C 226.65028399435818 18.66386953572538  226.82842225544857 18.31300461772724  226.82842225544857 17.886308233832565  C 226.82842225544857 17.470889567624575  226.65028399435818 17.126925687698428  226.29395384883532 16.85446890744703  C 225.9376237033124 16.581879445721754  225.41106627303708 16.37555960556284  224.7143908591137 16.235450341638483  Z M 235.61614386989942 4.296567050866174  L 235.61614386989942 2  L 249.54098190004223 2  L 249.54098190004223 4.296567050866174  L 235.61614386989942 4.296567050866174  Z M 233.3382657412691 19  L 233.3382657412691 17  L 253.28445593887784 17  L 253.28445593887784 19  L 233.3382657412691 19  Z M 248.34508978475426 4.598423631720616  C 248.34508978475426 4.598423631720616  248.34508978475426 2.0120532817999863  248.34508978475426 2.0120532817999863  L 251.1454847161534 2.0120532817999863  C 251.1454847161534 2.0120532817999863  251.1454847161534 4.598423631720616  251.1454847161534 4.598423631720616  C 251.1454847161534 5.665396798864656  251.13082554478686 6.740380913969218  251.10151988772577 7.823308716957692  C 251.07221423066468 8.906236519946166  250.9892691273357 10.068997407516047  250.85273139953617 11.311604665608392  C 250.71685970580216 12.553946560752985  250.4810745654536 13.96127303471599  250.1453915801735 15.533588239353993  C 250.1453915801735 15.533588239353993  247.32109344108557 15.27795154945131  247.32109344108557 15.27795154945131  C 247.6627707776172 13.817617610773691  247.9041850439389 12.476791542290703  248.04538502508464 11.255545586306853  C 248.18658500623036 10.03410057845607  248.27181929926553 8.87793805861343  248.30112495632662 7.787049485816826  C 248.33043061338773 6.696160913020222  248.34508978475426 5.633288475308856  248.34508978475426 4.598423631720616  Z M 234.9917335466 8.53938298019187  L 248.94651156392445 8.046816205397198  L 248.94651156392445 10.14802953965077  L 235.36034296108681 10.83993098212437  L 234.9917335466 8.53938298019187  Z M 255.38946265475872 12  L 255.38946265475872 10  L 275.36656848067923 10  L 275.36656848067923 12  L 255.38946265475872 12  Z M 257.6672798058184 15  L 257.6672798058184 13  L 272.9618570051287 13  L 272.9618570051287 18  L 260.53060359011255 18  L 260.53060359011255 20.46788046103941  L 257.7062444734539 20.46788046103941  L 257.7062444734539 16.575023811167092  L 270.1535349895471 16.575023811167092  L 270.1535349895471 15  L 257.6672798058184 15  Z M 257.7062444734539 21.77801090482435  L 257.7062444734539 19.829730140106285  L 273.60023119210354 19.829730140106285  L 273.60023119210354 21.77801090482435  L 257.7062444734539 21.77801090482435  Z M 257.85911524303515 2.392319690799917  L 257.85911524303515 0.45187383532334874  L 272.8978915335329 0.45187383532334874  L 272.8978915335329 5.473139623162399  L 260.7064019262524 5.473139623162399  L 260.7064019262524 7.426947339360895  L 257.8990555518009 7.426947339360895  L 257.8990555518009 4  L 270.0905451590814 4  L 270.0905451590814 2.392319690799917  L 257.85911524303515 2.392319690799917  Z M 257.8990555518009 9  L 257.8990555518009 7  L 273.2975385314728 7  L 273.2975385314728 9  L 257.8990555518009 9  Z M 299 11.808665884464077  L 299 0.016034232866312375  L 302 0.016034232866312375  L 302 11.808665884464077  L 299 11.808665884464077  Z M 287.4092118380404 21.72984747049486  L 287.4092118380404 12.810623231416937  L 290.21655821249186 12.810623231416937  L 290.21655821249186 15.026809303609635  L 299.1141614092265 15.026809303609635  L 299.1141614092265 12.810623231416937  L 301.9374839071843 12.810623231416937  L 301.9374839071843 21.72984747049486  L 287.4092118380404 21.72984747049486  Z M 299.1141614092265 17.215421354130722  L 290.21655821249186 17.215421354130722  L 290.21655821249186 19.453168610670165  L 299.1141614092265 19.453168610670165  L 299.1141614092265 17.215421354130722  Z M 286.9386479254523 1.6116833459866107  C 287.83446858196913 1.1735964325307129  288.8471945555904 0.95452274139002  289.97679440475616 0.95452274139002  C 291.11238863494776 0.95452274139002  292.126723547027 1.1735964325307129  293.01988006728146 1.6116833459866107  C 293.913036587536 2.049770259442508  294.61804187107913 2.654993540358203  295.13488710474644 3.427438746635379  C 295.6523983873665 4.199883952912554  295.911192556497 5.090490878856374  295.911192556497 6.099264269445786  C 295.911192556497 7.1025846116019045  295.6523983873665 7.994601567352819  295.13488710474644 8.77521982193388  C 294.61804187107913 9.55563902464801  293.913036587536 10.164894084521016  293.01988006728146 10.603000897232384  C 292.126723547027 11.040842346995996  291.11238863494776 11.259736351715093  289.97679440475616 11.259736351715093  C 288.8471945555904 11.259736351715093  287.83446858196913 11.040842346995996  286.9386479254523 10.603000897232384  C 286.04282726893547 10.164894084521016  285.3365225795634 9.55563902464801  284.819677345896 8.77521982193388  C 284.30216606327605 7.994601567352819  284.04337189414554 7.1025846116019045  284.04337189414554 6.099264269445786  C 284.04337189414554 5.090490878856374  284.30216606327605 4.199883952912554  284.819677345896 3.427438746635379  C 285.3365225795634 2.654993540358203  286.04282726893547 2.049770259442508  286.9386479254523 1.6116833459866107  Z M 291.60026124533476 3.6364303954724275  C 291.1293726152734 3.408799283076817  290.5882169818977 3.294974118296639  289.97679440475616 3.294974118296639  C 289.37070010013935 3.294974118296639  288.82985411848955 3.408799283076817  288.35430320530776 3.6364303954724275  C 287.878752292126 3.8640615078680374  287.50645626542314 4.188489449431465  287.2373770439918 4.609659741873145  C 286.96896387151304 5.03058460027866  286.83474214509073 5.5270851109031  286.83474214509073 6.099264269445786  C 286.83474214509073 6.676883309105183  286.96896387151304 7.176198392961902  287.2373770439918 7.597189592104356  C 287.50645626542314 8.01804810977293  287.878752292126 8.340972471303662  288.35430320530776 8.565863758713506  C 288.82985411848955 8.79082138686029  289.37070010013935 8.903250741942163  289.97679440475616 8.903250741942163  C 290.5882169818977 8.903250741942163  291.1293726152734 8.79082138686029  291.60026124533476 8.565863758713506  C 292.07048385621766 8.340972471303662  292.44277988292055 8.01804810977293  292.7171874066508 7.597189592104356  C 292.9909288814284 7.176198392961902  293.1278103673049 6.676883309105183  293.1278103673049 6.099264269445786  C 293.1278103673049 5.5270851109031  292.9909288814284 5.03058460027866  292.7171874066508 4.609659741873145  C 292.44277988292055 4.188489449431465  292.07048385621766 3.8640615078680374  291.60026124533476 3.6364303954724275  Z M 306.59909722706675 12.863220374076885  L 306.59909722706675 10.586541514252191  C 306.59909722706675 10.586541514252191  308.24652825290474 10.586541514252191  308.24652825290474 10.586541514252191  C 309.64254327656226 10.586541514252191  310.84243740221353 10.574650430188957  311.8461562026131 10.55076816895576  C 312.8505409924168 10.52688590772256  313.7683223875267 10.475135176631841  314.59953742705284 10.39552764165919  C 315.430752466579 10.315920106686537  316.2645989502911 10.201717137785561  317.1011422623419 10.052917385602871  C 317.1011422623419 10.052917385602871  317.38987105929726 12.321700600455518  317.38987105929726 12.321700600455518  C 316.73448996585944 12.433151155348453  316.08979138057725 12.527454661186935  315.4557234963348 12.604607633377045  C 314.8216556120925 12.681428909296493  314.1515978009773 12.735779317971286  313.44559788036156 12.767622334184553  C 312.7395979597458 12.799465350397824  311.9643271615986 12.823368988131891  311.1197913812124 12.839290496238526  C 310.27525560082614 12.85527834322859  309.3175168661057 12.863220374076885  308.24652825290474 12.863220374076885  C 308.24652825290474 12.863220374076885  306.59909722706675 12.863220374076885  306.59909722706675 12.863220374076885  Z M 306.55909594073034 3.5420470701911797  L 306.55909594073034 1.2735675339913037  L 316.2020279833331 1.2735675339913037  L 316.2020279833331 8.007580923459175  L 309.42241972502455 8.007580923459175  L 309.42241972502455 12.065395817516736  L 306.59909722706675 12.065395817516736  L 306.59909722706675 5.882862861481124  L 313.37766886667447 5.882862861481124  L 313.37766886667447 3.5420470701911797  L 306.55909594073034 3.5420470701911797  Z M 321 13.5524494444061  L 321 0.02386914210780592  L 324 0.02386914210780592  L 324 13.5524494444061  L 321 13.5524494444061  Z M 317.51877764361905 5.388048864655946  L 317.51877764361905 3.111370004831251  L 321.80672041065196 3.111370004831251  L 321.80672041065196 5.388048864655946  L 317.51877764361905 5.388048864655946  Z M 317.51877764361905 10.023460556284078  L 317.51877764361905 7.754616605700876  L 321.80672041065196 7.754616605700876  L 321.80672041065196 10.023460556284078  L 317.51877764361905 10.023460556284078  Z M 309.0937506193035 16.862303816688524  L 309.0937506193035 14.593885016219202  L 324.1095383656719 14.593885016219202  L 324.1095383656719 22  L 321.24627555894835 22  L 321.24627555894835 16.862303816688524  L 309.0937506193035 16.862303816688524  Z M 327.7720951682752 6  L 327.7720951682752 3.436063220374077  L 338.43201113392365 3.436063220374077  L 338.43201113392365 6  L 327.7720951682752 6  Z M 330.6593831378288 7.484038926081855  C 331.38669626764 7.043477535759886  332.2089139594319 6.823234177652012  333.1260478251442 6.823234177652012  C 334.06449490005195 6.823234177652012  334.8933924346035 7.0422879695372345  335.6127131556277 7.480394782248603  C 336.33269986605626 7.918435254223032  336.9004530939747 8.525140154815722  337.3160606137378 9.300583891227829  C 337.7316681335009 10.07576226469218  337.9394952959071 10.971618027037753  337.9394952959071 11.988139968251778  C 337.9394952959071 13.004595479760507  337.7316681335009 13.900715774682519  337.3160606137378 14.676424874042377  C 336.9004530939747 15.452067662321415  336.33269986605626 16.058932320424116  335.6127131556277 16.49703913313548  C 334.8933924346035 16.93514594584685  334.06412433030386 17.154199737732075  333.1250112064434 17.154199737732075  C 332.2038811065634 17.154199737732075  331.380364068491 16.935509440890502  330.6543829770368 16.498132376285458  C 329.92840188558256 16.0605562894696  329.3579279504134 15.453427158102699  328.94298647960295 14.676789288425702  C 328.5287110577453 13.899819744720133  328.3215640572646 13.002515518237974  328.3215640572646 11.984799503071294  C 328.3215640572646 10.97053308760094  328.52939121967086 10.076907939859549  328.9449987394339 9.303985092138864  C 329.360606259197 8.53106224441818  329.9320700080176 7.924401294193009  330.6593831378288 7.484038926081855  Z M 334.3138909011084 9.52937538822555  C 333.9735456327079 9.30176417508541  333.5802811225483 9.187979846780316  333.1340358868973 9.187979846780316  C 332.6971151579388 9.187979846780316  332.3051500536081 9.30176417508541  331.95814441477756 9.52937538822555  C 331.61047275676856 9.756986601365691  331.33837977547955 10.078655041108773  331.1418986542613 10.494405411001448  C 330.94608358199577 10.910089440157188  330.84816969651393 11.406915100464143  330.84816969651393 11.984799503071294  C 330.84816969651393 12.562418542730692  330.94608358199577 13.063187666074263  331.1418986542613 13.487097798329767  C 331.33837977547955 13.910808908374456  331.61047275676856 14.233826731162432  331.95814441477756 14.456197115052799  C 332.3051500536081 14.678368476732349  332.6971151579388 14.789454068603767  333.1340358868973 14.789454068603767  C 333.5802811225483 14.789454068603767  333.9735456327079 14.678368476732349  334.3138909011084 14.456197115052799  C 334.6535701205562 14.233826731162432  334.92164295899136 13.910808908374456  335.1181240802096 13.487097798329767  C 335.31460520142787 13.063187666074263  335.4128896566578 12.562418542730692  335.4128896566578 11.984799503071294  C 335.4128896566578 11.406915100464143  335.31460520142787 10.910089440157188  335.1181240802096 10.494405411001448  C 334.92164295899136 10.078655041108773  334.6535701205562 9.756986601365691  334.3138909011084 9.52937538822555  Z M 344 21.968235212920145  L 344 0  L 346 0  L 346 21.968235212920145  L 344 21.968235212920145  Z M 341.0665470731964 11.319439574849886  L 341.0665470731964 9.018891572917385  L 344.8429490001747 9.018891572917385  L 344.8429490001747 11.319439574849886  L 341.0665470731964 11.319439574849886  Z M 339 21.00587756228863  L 339 0.4290979363655187  L 342 0.4290979363655187  L 342 21.00587756228863  L 339 21.00587756228863  Z M 331.7303322108863 4.858190351300987  L 331.7303322108863 0.6048671405894127  L 334.54670326579173 0.6048671405894127  L 334.54670326579173 4.858190351300987  L 331.7303322108863 4.858190351300987  Z M 358.20337863652264 3.0975829939954447  C 358.20337863652264 3.0975829939954447  358.20337863652264 2.3751314790530746  358.20337863652264 2.3751314790530746  L 360.6819949276824 2.3751314790530746  C 360.6819949276824 2.3751314790530746  360.6819949276824 3.0975829939954447  360.6819949276824 3.0975829939954447  C 360.6819949276824 3.872263856416937  360.55012336853696 4.611391421940783  360.28637244940444 5.314923045068673  C 360.02328757922453 6.018222460789219  359.6373221259538 6.672602389096902  359.12846936062186 7.278084063772518  C 358.6202825846942 7.883366686581199  358.009232066011 8.422320939052902  357.2952396770599 8.89499068258679  C 356.5812472881087 9.367660426120677  355.774988212591 9.767318466811028  354.8765033602634 10.09397473945752  C 353.9780185079359 10.42063101210401  352.9972707444334 10.660834554176875  351.9342745995679 10.814543446752708  C 351.9342745995679 10.814543446752708  350.88424083323815 8.593923666229554  350.88424083323815 8.593923666229554  C 351.80270679685583 8.476966926553118  352.64292359069856 8.288458973725758  353.4048706705653 8.028474014769825  C 354.1674837993847 7.768290063259197  354.8455209186369 7.457846405031403  355.438960471798 7.097091586720961  C 356.0330660739117 6.7364031091474565  356.5372336895343 6.34000231856926  356.951509111392 5.90788598246946  C 357.3664505822024 5.4755109263924355  357.6788715323986 5.019509789754297  357.8886733944769 4.539874387466354  C 358.09847525655516 4.060238985178412  358.20337863652264 3.579454052427704  358.20337863652264 3.0975829939954447  Z M 359.0055995557929 3.0975829939954447  C 359.0055995557929 3.0975829939954447  359.0055995557929 2.3751314790530746  359.0055995557929 2.3751314790530746  L 361.4762887627702 2.3751314790530746  C 361.4762887627702 2.3751314790530746  361.4762887627702 3.0975829939954447  361.4762887627702 3.0975829939954447  C 361.4762887627702 3.579454052427704  361.5811921427376 4.060238985178412  361.7909940048159 4.539874387466354  C 362.0007958668942 5.019509789754297  362.31278526977167 5.4755109263924355  362.7270606916294 5.90788598246946  C 363.1420021624398 6.34000231856926  363.646230755633 6.7364031091474565  364.2396703087941 7.097091586720961  C 364.83377591090783 7.457846405031403  365.51181303016006 7.768290063259197  366.2737601100268 8.028474014769825  C 367.0363732388462 8.288458973725758  367.8768996248663 8.476966926553118  368.795365588484 8.593923666229554  C 368.795365588484 8.593923666229554  367.75234424277727 10.814543446752708  367.75234424277727 10.814543446752708  C 366.690014087316 10.660834554176875  365.70790599996246 10.42063101210401  364.8060909624199 10.09397473945752  C 363.90494197383 9.767318466811028  363.0973834924833 9.367660426120677  362.3833911035321 8.89499068258679  C 361.669398714581 8.422320939052902  361.0596475421783 7.883366686581199  360.5541249620614 7.278084063772518  C 360.0486023819445 6.672602389096902  359.66399731207326 6.018222460789219  359.40024639294074 5.314923045068673  C 359.13716152276095 4.611391421940783  359.0055995557929 3.872263856416937  359.0055995557929 3.0975829939954447  Z M 358.34722472564994 21.984390917247566  L 358.34722472564994 13.841612257574713  L 361.186523347114 13.841612257574713  L 361.186523347114 21.984390917247566  L 358.34722472564994 21.984390917247566  Z M 349.8632323905306 14.519665953481953  L 349.8632323905306 12  L 369.8083859694385 12  L 369.8083859694385 14.519665953481953  L 349.8632323905306 14.519665953481953  Z M 351.6605462849887 3.4449913727655463  L 351.6605462849887 1.2004417144040307  L 367.96210708576064 1.2004417144040307  L 367.96210708576064 3.4449913727655463  L 351.6605462849887 3.4449913727655463  Z M 380.6031843213309 9.845140451376906  L 380.6031843213309 7.528436745116985  L 384.4195875346456 7.528436745116985  L 384.4195875346456 9.845140451376906  L 380.6031843213309 9.845140451376906  Z M 376.06547742497816 5.783256263372214  C 376.06547742497816 5.783256263372214  376.06547742497816 1.9575733314928565  376.06547742497816 1.9575733314928565  L 378.2474378350001 1.9575733314928565  C 378.2474378350001 1.9575733314928565  378.2474378350001 5.783256263372214  378.2474378350001 5.783256263372214  C 378.2474378350001 6.999739090862033  378.150204141218 8.194905100421009  377.95572113708363 9.368850852370764  C 377.76190416701485 10.542863034025812  377.46284300654776 11.647853209762578  377.0585581403351 12.683746290289186  C 376.6536072251697 13.719374007868037  376.13676002640494 14.651652465879287  375.50802047423565 15.480565946580166  C 374.87928092206636 16.30921406433329  374.135617645193 16.983884530937264  373.27709507499407 17.50458416729933  C 373.27709507499407 17.50458416729933  371.5447832708325 15.371180895852026  371.5447832708325 15.371180895852026  C 372.3446945455182 14.893071300857546  373.029660122137 14.302261694216302  373.599788378793 13.598730071088413  C 374.1692505864963 12.89519844796052  374.6378515155617 12.117390051288908  375.005504314635 11.265324038926082  C 375.37249106475554 10.413258026563255  375.6408735251424 9.521505484764305  375.8107131348663 8.590097315204638  C 375.9805527445902 7.658423782697218  376.06547742497816 6.722837481235765  376.06547742497816 5.783256263372214  Z M 376.66793582284913 5.655225343363931  C 376.66793582284913 5.655225343363931  376.66793582284913 1.9575733314928565  376.66793582284913 1.9575733314928565  L 378.8169073671576 1.9575733314928565  C 378.8169073671576 1.9575733314928565  378.8169073671576 5.655225343363931  378.8169073671576 5.655225343363931  C 378.8169073671576 6.547061930602526  378.8924924006703 7.436291922967424  379.04368295234815 8.322920836496651  C 379.19553953809157 9.209284446390365  379.4333042610818 10.055989166350335  379.756998573633 10.863010559734972  C 380.0820249543154 11.66983296056491  380.50398858191363 12.41043651110325  381.022831962439 13.084845054869211  C 381.54167534296437 13.759054546768237  382.1743745070299 14.332619535725378  382.9210027587269 14.805488301470081  C 382.9210027587269 14.805488301470081  381.3574768700823 17.018759058596178  381.3574768700823 17.018759058596178  C 380.50961090448106 16.49805942223411  379.7859873345321 15.832685970822693  379.1865534003453 15.02267927393195  C 378.5871194661584 14.21240721409345  378.1025600101415 13.301278491441783  377.73290909398435 12.289267720339568  C 377.3632581778272 11.277256949237351  377.0932057567505 10.206827895299883  376.92270011296097 9.07792670301608  C 376.75286050323706 7.948959199651459  376.66793582284913 6.808041941300297  376.66793582284913 5.655225343363931  Z M 388 21.968235212920145  L 388 0  L 390 0  L 390 21.968235212920145  L 388 21.968235212920145  Z M 383 20.95813927807302  L 383 0.3813596521499068  L 386 0.3813596521499068  L 386 20.95813927807302  L 383 20.95813927807302  Z M 398.5093089157847 17.480654289460972  L 398.5093089157847 11.20185520049693  L 401.34860753724877 11.20185520049693  L 401.34860753724877 17.480654289460972  L 398.5093089157847 17.480654289460972  Z M 406.5506650656667 17.480654289460972  L 406.5506650656667 11.20185520049693  L 409.3980127264545 11.20185520049693  L 409.3980127264545 17.480654289460972  L 406.5506650656667 17.480654289460972  Z M 393.9815413634454 19  L 393.9815413634454 17  L 413.9576715482358 17  L 413.9576715482358 19  L 393.9815413634454 19  Z M 399.73215311729314 1.8930112499137277  C 400.9663209251267 1.4096475693845332  402.3696515899049 1.1680088342880808  403.94216654905495 1.1680088342880808  C 405.51934379132547 1.1680088342880808  406.92366426975514 1.4096475693845332  408.15516788177786 1.8930112499137277  C 409.3866714938006 2.3761294964067567  410.35579052493125 3.0518465570864106  411.0624564944996 3.920066257160604  C 411.7684564151154 4.788285957234799  412.12145396371267 5.817043360480365  412.12145396371267 7.00641314100352  C 412.12145396371267 8.179894596763061  411.7684564151154 9.202108851973911  411.0624564944996 10.07308164814687  C 410.35579052493125 10.943789081372074  409.3866714938006 11.61950614205173  408.15516788177786 12.100136655393747  C 406.92366426975514 12.580767168735765  405.51934379132547 12.821069777072262  403.94216654905495 12.821069777072262  C 402.3696515899049 12.821069777072262  400.9663209251267 12.580767168735765  399.73215311729314 12.100136655393747  C 398.4979853094597 11.61950614205173  397.52787652422603 10.943789081372074  396.8218766036103 10.07308164814687  C 396.11521063404183 9.202108851973911  395.7619034932671 8.179894596763061  395.7619034932671 7.00641314100352  C 395.7619034932671 5.817043360480365  396.11521063404183 4.788285957234799  396.8218766036103 3.920066257160604  C 397.52787652422603 3.0518465570864106  398.4979853094597 2.3761294964067567  399.73215311729314 1.8930112499137277  Z M 406.7554887254287 3.8219173165849956  C 405.9495831292657 3.5330878974998274  405.0118230643505 3.3886286148112363  403.94216654905495 3.3886286148112363  C 402.8771723168798 3.3886286148112363  401.9404020060677 3.5330878974998274  401.1318322736424 3.8219173165849956  C 400.3225964922644 4.110740092699634  399.6918158886084 4.52416850714335  399.239576301706 5.0622624059631445  C 398.78733671480353 5.600110811434536  398.56126180596544 6.2481646151822074  398.56126180596544 7.00641314100352  C 398.56126180596544 7.748753413149631  398.78733671480353 8.38897853544068  399.239576301706 8.927059148319415  C 399.6918158886084 9.464940709331216  400.3225964922644 9.881017355838912  401.1318322736424 10.175299882669611  C 401.9404020060677 10.469383387289495  402.8771723168798 10.616423493684865  403.94216654905495 10.616423493684865  C 405.0118230643505 10.616423493684865  405.9495831292657 10.469383387289495  406.7554887254287 10.175299882669611  C 407.5620603705443 9.881017355838912  408.1914805908007 9.464940709331216  408.64372017770313 8.927059148319415  C 409.0959597646056 8.38897853544068  409.32209565101437 7.748753413149631  409.32209565101437 7.00641314100352  C 409.32209565101437 6.2481646151822074  409.0959597646056 5.600110811434536  408.64372017770313 5.0622624059631445  C 408.1914805908007 4.52416850714335  407.5620603705443 4.110740092699634  406.7554887254287 3.8219173165849956  Z M 417.0587468804347 19.839873007108842  C 416.7250620122384 19.561976375396853  416.55824298066494 19.11393820311961  416.55824298066494 18.49585202567465  C 416.55824298066494 17.85839464960487  416.7250620122384 17.408495051741838  417.0587468804347 17.146121885568363  C 417.39243174863094 16.883748719394887  417.7973860878298 16.752554351577057  418.2736030201901 16.752554351577057  C 418.7498199525503 16.752554351577057  419.15644426732615 16.883748719394887  419.4934593207375 17.146121885568363  C 419.83114042310143 17.408495051741838  420 17.85839464960487  420 18.49585202567465  C 420 19.11393820311961  419.83114042310143 19.561976375396853  419.4934593207375 19.839873007108842  C 419.15644426732615 20.117835979557768  418.7498199525503 20.256823797363516  418.2736030201901 20.256823797363516  C 417.7973860878298 20.256823797363516  417.39243174863094 20.117835979557768  417.0587468804347 19.839873007108842  Z " fill-rule="nonzero" fill="#4c4c57" stroke="none" transform="matrix(1 0 0 1 509 350 )" />
  </g>
</svg>