<?xml version="1.0" encoding="utf-8"?>
<svg version="1.1" xmlns:xlink="http://www.w3.org/1999/xlink" width="393px" height="62px" xmlns="http://www.w3.org/2000/svg">
  <g transform="matrix(1 0 0 1 -16 -14 )">
    <path d="M 0 10.333333333333332  C 0 4.626390635967255  6.284002949084554 0  14.035714285714285 0  C 14.035714285714285 0  378.9642857142857 0  378.9642857142857 0  C 386.71599705091546 0  393 4.626390635967255  393 10.333333333333332  C 393 10.333333333333332  393 51.66666666666667  393 51.66666666666667  C 393 57.373609364032745  386.71599705091546 62  378.9642857142857 62  C 378.9642857142857 62  14.035714285714285 62  14.035714285714285 62  C 6.284002949084554 62  0 57.373609364032745  0 51.66666666666667  C 0 51.66666666666667  0 10.333333333333332  0 10.333333333333332  Z " fill-rule="nonzero" fill="#3578ff" stroke="none" transform="matrix(1 0 0 1 16 14 )" />
  </g>
</svg>