<?xml version="1.0" encoding="utf-8"?>
<svg version="1.1" xmlns:xlink="http://www.w3.org/1999/xlink" width="392px" height="62px" xmlns="http://www.w3.org/2000/svg">
  <g transform="matrix(1 0 0 1 -17 -14 )">
    <path d="M 0 10.333333333333332  C 0 4.626390635967255  6.268013119697571 0  14 0  C 14 0  378 0  378 0  C 385.73198688030243 0  392 4.626390635967255  392 10.333333333333332  C 392 10.333333333333332  392 51.66666666666667  392 51.66666666666667  C 392 57.373609364032745  385.73198688030243 62  378 62  C 378 62  14 62  14 62  C 6.268013119697571 62  0 57.373609364032745  0 51.66666666666667  C 0 51.66666666666667  0 10.333333333333332  0 10.333333333333332  Z " fill-rule="nonzero" fill="#aaaaaa" stroke="none" transform="matrix(1 0 0 1 17 14 )" />
  </g>
</svg>