<?xml version="1.0" encoding="utf-8"?>
<svg version="1.1" xmlns:xlink="http://www.w3.org/1999/xlink" width="38px" height="8px" xmlns="http://www.w3.org/2000/svg">
  <g transform="matrix(1 0 0 1 -360 -49 )">
    <path d="M 7.207784387800429 1.1715736389160156  C 7.999604632457097 1.9217191338539124  8.444444444444443 2.9391340017318726  8.444444444444445 4  C 8.444444444444443 5.060865998268127  7.999604632457097 6.078280866146088  7.207784387800429 6.828426361083984  C 6.41596414314376 7.578571856021881  5.3420252203941345 8  4.222222222222222 8  C 3.10241922405031 8  2.028480301300685 7.578571856021881  1.236660056644016 6.828426361083984  C 0.44483981198734707 6.078280866146088  0 5.060865998268127  0 4  C 0 2.9391340017318726  0.44483981198734707 1.9217191338539124  1.236660056644016 1.1715736389160156  C 2.028480301300685 0.4214281439781189  3.10241922405031 0  4.222222222222222 0  C 5.3420252203941345 0  6.41596414314376 0.4214281439781189  7.207784387800429 1.1715736389160156  Z M 21.98556115892199 1.1715736389160156  C 22.777381403578655 1.9217191338539124  23.22222222222223 2.9391340017318726  23.222222222222225 4  C 23.222222222222225 5.060865998268127  22.777381403578655 6.078280866146088  21.98556115892199 6.828426361083984  C 21.19374091426532 7.578571856021881  20.11980299817191 8  19 8  C 17.88019700182809 8  16.806259085734688 7.578571856021881  16.014438841078018 6.828426361083984  C 15.222618596421349 6.078280866146088  14.777777777777779 5.060865998268127  14.777777777777779 4  C 14.777777777777779 2.9391340017318726  15.222618596421349 1.9217191338539124  16.014438841078018 1.1715736389160156  C 16.806259085734688 0.4214281439781189  17.88019700182809 0  19 0  C 20.11980299817191 0  21.19374091426532 0.4214281439781189  21.98556115892199 1.1715736389160156  Z M 36.76333893669977 1.1715736389160156  C 37.55515918135644 1.9217191338539124  38 2.9391340017318726  38 4  C 38 5.060865998268127  37.55515918135644 6.078280866146088  36.76333893669977 6.828426361083984  C 35.9715186920431 7.578571856021881  34.89758077594969 8  33.77777777777778 8  C 32.657974779605865 8  31.584036863512463 7.578571856021881  30.792216618855797 6.828426361083984  C 30.00039637419913 6.078280866146088  29.555555555555557 5.060865998268127  29.555555555555557 4  C 29.555555555555557 2.9391340017318726  30.00039637419913 1.9217191338539124  30.792216618855797 1.1715736389160156  C 31.584036863512463 0.4214281439781189  32.657974779605865 0  33.77777777777778 0  C 34.89758077594969 0  35.9715186920431 0.4214281439781189  36.76333893669977 1.1715736389160156  Z " fill-rule="nonzero" fill="#ffffff" stroke="none" transform="matrix(1 0 0 1 360 49 )" />
  </g>
</svg>