<?xml version="1.0" encoding="utf-8"?>
<svg version="1.1" xmlns:xlink="http://www.w3.org/1999/xlink" width="231px" height="12px" xmlns="http://www.w3.org/2000/svg">
  <g transform="matrix(1 0 0 1 -47 -97 )">
    <path d="M 1.0875277238446686 0.6116504854368932  L 3.350287020231156 4.881553398058252  L 5.624740163110597 0.6116504854368932  L 6.694727117215835 0.6116504854368932  L 3.847275496181677 5.825242718446602  L 3.847275496181677 9.128155339805826  L 2.8532985442806353 9.128155339805826  L 2.8532985442806353 5.871844660194175  L 0 0.6116504854368932  L 1.0875277238446686 0.6116504854368932  Z M 12.877848450364958 4.144660194174757  C 13.121462981118556 4.635928344726562  13.243281153269754 5.229131606018659  13.243281153269754 5.924271844660194  C 13.243281153269754 6.4485730810072805  13.175081605962882 6.916500706348605  13.038638839643067 7.328155339805825  C 12.902196073323253 7.739743693823954  12.705351753957297 8.087335145820692  12.448099591748921 8.370873786407767  C 12.190847429540543 8.65434614755575  11.880005786697545 8.870864468176388  11.515515333935884 9.020388349514562  C 11.151091407293723 9.169912230852738  10.7388448659037 9.244660194174758  10.27889106730606 9.244660194174758  C 9.850104235261169 9.244660194174758  9.457396477619744 9.169912230852738  9.100736033141002 9.020388349514562  C 8.744068927128614 8.870864468176388  8.436130136789135 8.65434614755575  8.176922160197682 8.370873786407767  C 7.9177075220725825 8.087335145820692  7.716966071697851 7.739743693823954  7.57468906581058 7.328155339805825  C 7.432412059923309 6.916500706348605  7.361276367314181 6.4485730810072805  7.361276367314181 5.924271844660194  C 7.361276367314181 5.225247696070995  7.480158394163119 4.630096465175592  7.71793868534926 4.138834951456311  C 7.955712315001755 3.6475668009045052  8.295808975023927 3.2728099341531403  8.738226791859447 3.0145631067961167  C 9.180644608694964 2.7563096426065683  9.707842812604392 2.6271844660194175  10.319819530031396 2.6271844660194175  C 10.90450769122054 2.6271844660194175  11.41610413724455 2.7572803089919597  11.854636882231533 3.0174757281553397  C 12.293169627218518 3.2776645104861957  12.63423391961136 3.653398680455476  12.877848450364958 4.144660194174757  Z M 8.831777563803072 4.100970873786408  C 8.521890839912734 4.539806240044751  8.366947165708176 5.147576133950243  8.366947165708176 5.924271844660194  C 8.366947165708176 6.436908136756674  8.435166682746491 6.881592744993933  8.57158947933486 7.258252427184466  C 8.708018937456874 7.634978388814092  8.918503178179801 7.926244657942392  9.203057189954345 8.132038834951457  C 9.48760454019524 8.337899291399612  9.854026689019497 8.440776699029126  10.302278760291966 8.440776699029126  C 10.746665714577853 8.440776699029126  11.11205371978144 8.337899291399612  11.39857686900635 8.132038834951457  C 11.685033492111764 7.926244657942392  11.896525274929258 7.634978388814092  12.032968041249074 7.258252427184466  C 12.169410807568887 6.881592744993933  12.237610354875759 6.436908136756674  12.237610354875759 5.924271844660194  C 12.237610354875759 5.415539373008951  12.169410807568887 4.97572794793879  12.032968041249074 4.604854368932039  C 11.896525274929258 4.233974153092764  11.686027726008534 3.9475678379095873  11.401500330629588 3.745631067961165  C 11.116906409131145 3.5436876611802184  10.748535702237248 3.442718446601942  10.296431837045489 3.442718446601942  C 9.629858082019801 3.442718446601942  9.141664287693413 3.662135507528064  8.831777563803072 4.100970873786408  Z M 19.236377480908384 2.7436893203883495  L 20.212813663069994 2.7436893203883495  L 20.212813663069994 9.128155339805826  L 19.41763210154916 9.128155339805826  L 19.27730594363372 8.23106796116505  C 19.27730594363372 8.23106796116505  19.22468363441543 8.23106796116505  19.22468363441543 8.23106796116505  C 19.09216584966805 8.452371260263387  18.920639462140112 8.63877902725368  18.710154388725478 8.790291262135922  C 18.499669315310847 8.941737217579075  18.26285955604685 9.05537812316302  17.99975321427856 9.13106796116505  C 17.73664687251027 9.20682407860617  17.45695551264691 9.244660194174758  17.16071972840915 9.244660194174758  C 16.653932314898267 9.244660194174758  16.229093333708732 9.163110944136832  15.886090460677226 9  C 15.543087587645719 8.836889055863168  15.284803794761283 8.584449456964881  15.111373130519063 8.242718446601941  C 14.937875955026838 7.900987436239001  14.85118504605085 7.462140070350426  14.85118504605085 6.92621359223301  C 14.85118504605085 6.92621359223301  14.85118504605085 2.7436893203883495  14.85118504605085 2.7436893203883495  L 15.833468151458938 2.7436893203883495  C 15.833468151458938 2.7436893203883495  15.833468151458938 6.856310679611651  15.833468151458938 6.856310679611651  C 15.833468151458938 7.388393009519114  15.95429208971336 7.785442078229293  16.19597739274049 8.04757281553398  C 16.43766269576762 8.309703552838668  16.80603341753101 8.440776699029126  17.30104588632459 8.440776699029126  C 17.776566529233982 8.440776699029126  18.155674290111836 8.35143560020669  18.43827245776431 8.172815533980582  C 18.720870625416786 7.994129188315383  18.924541574429625 7.731058628119311  19.049275937021125 7.383495145631068  C 19.174010299612632 7.035931663142825  19.236377480908384 6.609709567468143  19.236377480908384 6.104854368932038  C 19.236377480908384 6.104854368932038  19.236377480908384 2.7436893203883495  19.236377480908384 2.7436893203883495  Z M 24.349511859952266 2.8019417475728154  C 24.596984831289305 2.685437722807949  24.87276575194609 2.6271844660194175  25.176851499328723 2.6271844660194175  C 25.30544431737316 2.6271844660194175  25.43992147031286 2.633979132568952  25.580289203335614 2.6475728155339806  C 25.72059041023887 2.661159870925459  25.84532478026512 2.6796091653768297  25.954492291110125 2.702912621359223  C 25.954492291110125 2.702912621359223  25.831706902934116 3.5999999999999996  25.831706902934116 3.5999999999999996  C 25.7264643662268 3.572819261643493  25.60948432618995 3.551457968035948  25.48089150814551 3.5359223300970877  C 25.352232163981572 3.520386692158227  25.231408233161897 3.512621359223301  25.118382266863957 3.512621359223301  C 24.861130104655576 3.512621359223301  24.618487994249957 3.5640733218887477  24.390440322677602 3.6669902912621364  C 24.162392651105254 3.769900631210179  23.962632126429494 3.917475105952291  23.79113068991374 4.109708737864078  C 23.61962925339799 4.301942369775865  23.485152100458286 4.533014064159208  23.38769298590685 4.802912621359223  C 23.290233871355408 5.072817815391763  23.24151990474493 5.372813459970419  23.24151990474493 5.702912621359223  C 23.24151990474493 5.702912621359223  23.24151990474493 9.128155339805826  23.24151990474493 9.128155339805826  L 22.26508372258332 9.128155339805826  L 22.26508372258332 2.7436893203883495  L 23.071959130597104 2.7436893203883495  L 23.177203749033687 3.920388349514563  C 23.177203749033687 3.920388349514563  23.218132211759023 3.920388349514563  23.218132211759023 3.920388349514563  C 23.3506499965064 3.683496390037166  23.51051163714261 3.466991328267218  23.697579917970113 3.2708737864077673  C 23.884714724917117 3.0747562445483156  24.10197236249573 2.918445772337682  24.349511859952266 2.8019417475728154  Z M 36.022894121543025 2.8980582524271847  C 36.38931377229216 2.717476350358389  36.79082328943722 2.6271844660194175  37.22736031031723 2.6271844660194175  C 37.932924378644934 2.6271844660194175  38.46500063926211 2.8106802338535344  38.82357035660537 3.1776699029126214  C 39.18220660006813 3.5446595719717084  39.36148729528122 4.133980167722239  39.36148729528122 4.945631067961165  C 39.36148729528122 4.945631067961165  39.36148729528122 9.128155339805826  39.36148729528122 9.128155339805826  L 38.40259188285905 9.128155339805826  C 38.40259188285905 9.128155339805826  38.40259188285905 4.992233009708738  38.40259188285905 4.992233009708738  C 38.40259188285905 4.475732718162166  38.29051650105605 4.088350551568189  38.06639379618663 3.830097087378641  C 37.84220456519772 3.5718436231890927  37.50995535537581 3.442718446601942  37.06949338266236 3.442718446601942  C 36.44974652153829 3.442718446601942  35.99952305265224 3.6213608825091015  35.718854112726234 3.978640776699029  C 35.438185172800225 4.335927307721481  35.29787563897991 4.862141314756523  35.29787563897991 5.557281553398058  C 35.29787563897991 5.557281553398058  35.29787563897991 9.128155339805826  35.29787563897991 9.128155339805826  L 34.33313330331125 9.128155339805826  C 34.33313330331125 9.128155339805826  34.33313330331125 4.992233009708738  34.33313330331125 4.992233009708738  C 34.33313330331125 4.646604845361802  34.283425102804 4.35922122696071  34.1840367605261 4.1300970873786405  C 34.084648418248186 3.900966310964047  33.936518050623214 3.7291251765871514  33.73967059379387 3.6145631067961164  C 33.54282313696452 3.500001037005082  33.29428211955878 3.442718446601942  32.994187879868086 3.442718446601942  C 32.569292751466385 3.442718446601942  32.22822847394304 3.530098331784739  31.970976311734663 3.704854368932039  C 31.713657623406785 3.8796104060793386  31.5275503282858 4.138831425639032  31.412595141696137 4.48252427184466  C 31.297573428986976 4.826210481217764  31.24011090592507 5.248543274518355  31.24011090592507 5.749514563106796  C 31.24011090592507 5.749514563106796  31.24011090592507 9.128155339805826  31.24011090592507 9.128155339805826  L 30.269521647009938 9.128155339805826  L 30.269521647009938 2.7436893203883495  L 31.053009362037816 2.7436893203883495  L 31.19918244319973 3.646601941747573  C 31.19918244319973 3.646601941747573  31.25180475241802 3.646601941747573  31.25180475241802 3.646601941747573  C 31.380397570462463 3.4252389852283067  31.542181152772713 3.2388312182380155  31.737099381875595 3.087378640776699  C 31.932017610978473 2.935919426482858  32.15033600857335 2.8213608825091017  32.39195478548098 2.7436893203883495  C 32.633640088508116 2.6660243876929424  32.890863121376285 2.6271844660194175  33.16374865401591 2.6271844660194175  C 33.650977715523105 2.6271844660194175  34.05931381770656 2.717476350358389  34.38867907415278 2.8980582524271847  C 34.71804433059901 3.0786401544959805  34.95677601666755 3.35339847305446  35.10492717184618 3.7223300970873785  C 35.10492717184618 3.7223300970873785  35.15754948106447 3.7223300970873785  35.15754948106447 3.7223300970873785  C 35.3680345544791 3.35339847305446  35.65647447079389 3.0786401544959805  36.022894121543025 2.8980582524271847  Z M 42.328800842868155 3.03495145631068  C 42.751766743543385 2.7631109441368324  43.24970998975162 2.6271844660194175  43.82268973234296 2.6271844660194175  C 44.368394241763724 2.6271844660194175  44.83611485329161 2.747573645138046  45.22595131149736 2.988349514563107  C 45.61572124358363 3.2291253839881673  45.913903935377114 3.566019624876745  46.1205305682083 3.999029126213592  C 46.32709067492 4.4320386275504395  46.43041750027157 4.937862003659739  46.43041750027157 5.516504854368932  C 46.43041750027157 5.516504854368932  46.43041750027157 6.116504854368932  46.43041750027157 6.116504854368932  C 46.43041750027157 6.116504854368932  42.0042966026887 6.116504854368932  42.0042966026887 6.116504854368932  C 42.01593847658014 6.866046320350425  42.20310653543476 7.436891129873332  42.56560123435046 7.829126213592233  C 42.92816245938565 8.221361297311134  43.438764612034916 8.41747572815534  44.09749512492736 8.41747572815534  C 44.502898427444876 8.41747572815534  44.861526343990576 8.380630159841001  45.173329002279075 8.306796116504856  C 45.48519815694809 8.2330283526078  45.808698825188074 8.124273918670358  46.14391826119421 7.980582524271846  C 46.14391826119421 7.980582524271846  46.14391826119421 8.831067961165049  46.14391826119421 8.831067961165049  C 45.820407214046895 8.974759355563563  45.49982275111671 9.079617865108748  45.182099387148796 9.145631067961165  C 44.86444254930037 9.211644270813581  44.4892452276291 9.244660194174758  44.05656666220202 9.244660194174758  C 43.440678256530894 9.244660194174758  42.90376387866886 9.119397802260316  42.44573930779769 8.86893203883495  C 41.98778126304602 8.618399995970496  41.63206952207113 8.250470948450772  41.378675815315695 7.76504854368932  C 41.12528210856025 7.279626138927867  40.998625804294704 6.6854456040465715  40.998625804294704 5.98252427184466  C 40.998625804294704 5.2951452162659285  41.11454508431528 4.700000592574332  41.34651773746007 4.197087378640777  C 41.57842386448535 3.694174164707221  41.90590146831242 3.3067986053170513  42.328800842868155 3.03495145631068  Z M 44.71142206580742 3.6611650485436895  C 44.477586711055665 3.4999960593806887  44.17741553659914 3.419417475728155  43.810995885850005 3.419417475728155  C 43.2925666095998 3.419417475728155  42.879392360432504 3.5883466109488777  42.57144815759694 3.92621359223301  C 42.263503954761376 4.264073936684618  42.080312842645945 4.735917352472694  42.02183737242813 5.341747572815534  C 42.02183737242813 5.341747572815534  45.41305285538462 5.341747572815534  45.41305285538462 5.341747572815534  C 45.40912788078226 4.961164218939624  45.34967688295674 4.626217947654354  45.23472169636708 4.336893203883495  C 45.119699983657924 4.047575096945161  44.94532394667867 3.8223274008741654  44.71142206580742 3.6611650485436895  Z M 51.98791804604768 6.521359223300971  C 52.14578185110866 6.744650875943378  52.22471843752999 7.031030688239533  52.22471843752999 7.380582524271844  C 52.22471843752999 7.788326730080021  52.12238584607519 8.131031725244615  51.91775496708997 8.40873786407767  C 51.713124088104735 8.686377723471633  51.42077377719187 8.895170489561211  51.040716480118455 9.03495145631068  C 50.66065918304504 9.174798702499242  50.2075195088492 9.244660194174758  49.681306825312625 9.244660194174758  C 49.2330614155738 9.244660194174758  48.84520512798351 9.209729448337  48.51776909926375 9.139805825242718  C 48.190333070544 9.069882202148438  47.90381512564225 8.970834439472089  47.65827138203168 8.84271844660194  C 47.65827138203168 8.84271844660194  47.65827138203168 7.951456310679612  47.65827138203168 7.951456310679612  C 47.919381969954 8.079638582988851  48.231217876432765 8.196118578864533  48.59377910146795 8.300970873786408  C 48.95627380038365 8.405823168708283  49.326632975071085 8.458252427184465  49.70469451829853 8.458252427184465  C 50.25824899086417 8.458252427184465  50.65969198188972 8.368977607801122  50.90916070707273 8.190291262135922  C 51.158629432255736 8.011671195909816  51.28336379484724 7.768938260865443  51.28336379484724 7.462135922330097  C 51.28336379484724 7.287360004313942  51.23365559433999 7.132977606023399  51.13426725206209 6.999029126213593  C 51.034878909784176 6.865014366964692  50.868257195359575 6.73493178284284  50.634355314488324 6.6087378640776695  C 50.40045343361707 6.4825439453125  50.07695279511607 6.343678965151889  49.66376605557319 6.192233009708737  C 49.25450429760274 6.036876641430902  48.900714498301895 5.882527382859906  48.60254948633767 5.729126213592233  C 48.30431794825394 5.575731681157085  48.074401329886825 5.388353247781401  47.91261254325342 5.166990291262136  C 47.750890282739505 4.945633971575394  47.66996522852463 4.658250353174302  47.66996522852463 4.304854368932038  C 47.66996522852463 3.76504398086696  47.88921134876628 3.3504831554820234  48.32774409375326 3.0611650485436894  C 48.76621031262075 2.771846941605355  49.34216243747304 2.6271844660194175  50.05550991308713 2.6271844660194175  C 50.44142138972045 2.6271844660194175  50.80296551157596 2.665047091882206  51.14011417530856 2.740776699029126  C 51.477329365160664 2.8164996767507016  51.792081447210236 2.9184461871397147  52.084392279614555 3.046601941747573  C 52.084392279614555 3.046601941747573  51.75696457781185 3.8213592233009708  51.75696457781185 3.8213592233009708  C 51.4919290083171 3.708739108483768  51.20932147288293 3.61359389221784  50.90916070707273 3.5359223300970877  C 50.60899994126253 3.458250767976335  50.302996415664396 3.419417475728155  49.99119375737589 3.419417475728155  C 49.54288182151756 3.419417475728155  49.19890135355391 3.4932013946829485  48.95921180437275 3.640776699029126  C 48.71945572907209 3.788345366542779  48.59962602471443 3.9902904325318573  48.59962602471443 4.246601941747572  C 48.59962602471443 4.444661438580855  48.65516659866754 4.607766575489229  48.76626333723902 4.735922330097088  C 48.87736007581049 4.864078084704945  49.055713070681065 4.984467263823574  49.301256814291634 5.097087378640777  C 49.546867084021706 5.209707493457979  49.87036775226169 5.341744669201304  50.27184607320677 5.493203883495145  C 50.67332439415185 5.640779187841322  51.020221052555804 5.793206994510392  51.31259841107962 5.950485436893204  C 51.60490924348394 6.10775725725785  51.83005424098671 6.298067570658564  51.98791804604768 6.521359223300971  Z M 57.69451513460895 6.521359223300971  C 57.85237893966993 6.744650875943378  57.93131552609126 7.031030688239533  57.93131552609126 7.380582524271844  C 57.93131552609126 7.788326730080021  57.82898293463646 8.131031725244615  57.62435205565124 8.40873786407767  C 57.41972117666601 8.686377723471633  57.12737086575314 8.895170489561211  56.74731356867973 9.03495145631068  C 56.367256271606315 9.174798702499242  55.91411659741047 9.244660194174758  55.38790391387389 9.244660194174758  C 54.93959197801557 9.244660194174758  54.551802216544786 9.209729448337  54.22436618782503 9.139805825242718  C 53.89699668522477 9.069882202148438  53.610478740323025 8.970834439472089  53.36486847059295 8.84271844660194  C 53.36486847059295 8.84271844660194  53.36486847059295 7.951456310679612  53.36486847059295 7.951456310679612  C 53.626045584634774 8.079638582988851  53.93788149111353 8.196118578864533  54.300376190029226 8.300970873786408  C 54.66287088894492 8.405823168708283  55.033163537512856 8.458252427184465  55.4112916068598 8.458252427184465  C 55.96477952356695 8.458252427184465  56.366289070450996 8.368977607801122  56.615757795634 8.190291262135922  C 56.86522652081701 8.011671195909816  56.989960883408514 7.768938260865443  56.989960883408514 7.462135922330097  C 56.989960883408514 7.287360004313942  56.94025268290127 7.132977606023399  56.840864340623355 6.999029126213593  C 56.74147599834544 6.865014366964692  56.57485428392085 6.73493178284284  56.3409524030496 6.6087378640776695  C 56.107117048297845 6.4825439453125  55.783549883677345 6.343678965151889  55.370363144134465 6.192233009708737  C 54.96103486004451 6.036876641430902  54.60731158686317 5.882527382859906  54.30914657489894 5.729126213592233  C 54.01098156293471 5.575731681157085  53.7809984184481 5.388353247781401  53.61920963181469 5.166990291262136  C 53.457420845181275 4.945633971575394  53.3765623170859 4.658250353174302  53.3765623170859 4.304854368932038  C 53.3765623170859 3.76504398086696  53.59580843732755 3.3504831554820234  54.034341182314535 3.0611650485436894  C 54.47287392730152 2.771846941605355  55.04875952603432 2.6271844660194175  55.7621070016484 2.6271844660194175  C 56.14795195216223 2.6271844660194175  56.509496074017726 2.665047091882206  56.846711263869835 2.740776699029126  C 57.18385992760244 2.8164996767507016  57.49861200965201 2.9184461871397147  57.79098936817583 3.046601941747573  C 57.79098936817583 3.046601941747573  57.463561666373124 3.8213592233009708  57.463561666373124 3.8213592233009708  C 57.19852609687837 3.708739108483768  56.9159185614442 3.61359389221784  56.615757795634 3.5359223300970877  C 56.31566355594331 3.458250767976335  56.009660000606175 3.419417475728155  55.697790845937156 3.419417475728155  C 55.24954543619834 3.419417475728155  54.905564968234685 3.4932013946829485  54.66580889293402 3.640776699029126  C 54.42611934375285 3.788345366542779  54.3062231132757 3.9902904325318573  54.3062231132757 4.246601941747572  C 54.3062231132757 4.444661438580855  54.361763687228816 4.607766575489229  54.47286042580029 4.735922330097088  C 54.58395716437176 4.864078084704945  54.76231015924234 4.984467263823574  55.00785390285291 5.097087378640777  C 55.253397646463476 5.209707493457979  55.57689831470346 5.341744669201304  55.97844316176804 5.493203883495145  C 56.37992148271312 5.640779187841322  56.72688466723658 5.793206994510392  57.019195499640894 5.950485436893204  C 57.31157285816471 6.10775725725785  57.536651329547986 6.298067570658564  57.69451513460895 6.521359223300971  Z M 60.708604068167695 2.796116504854369  C 61.082807155942206 2.691264209932494  61.47649582441311 2.6388349514563108  61.889682563956 2.6388349514563108  C 62.653655613555756 2.6388349514563108  63.220792596359146 2.8097120562803397  63.59113722868072 3.151456310679612  C 63.96141533488279 3.4932072019114075  64.146594937096 4.038834536654278  64.146594937096 4.788349514563107  C 64.146594937096 4.788349514563107  64.146594937096 9.128155339805826  64.146594937096 9.128155339805826  L 63.43911722427233 9.128155339805826  L 63.25201568038507 8.184466019417476  C 63.25201568038507 8.184466019417476  63.20524029441326 8.184466019417476  63.20524029441326 8.184466019417476  C 63.02595543574163 8.417434307209497  62.83885389185437 8.612624470238547  62.643935662751495 8.76990291262136  C 62.44908395976811 8.927247634443265  62.22393896226534 9.045642460202707  61.96861602778343 9.125242718446602  C 61.71329309330152 9.204842976690497  61.40046295292599 9.244660194174758  61.03018484672393 9.244660194174758  C 60.64034838851816 9.244660194174758  60.29444596401097 9.176713532383001  59.99235597047431 9.040776699029127  C 59.69026597693763 8.90483986567525  59.45246199864637 8.699018756162774  59.27903133440414 8.423300970873786  C 59.10553415891192 8.1475831855848  59.01884324993593 7.798076888889942  59.01884324993593 7.374757281553398  C 59.01884324993593 6.737888906534436  59.272222414325505 6.24854700773665  59.77894327197791 5.906796116504854  C 60.28573068548878 5.5650452252730584  61.05746632508229 5.378637461986357  62.09432487758268 5.34757281553398  C 62.09432487758268 5.34757281553398  63.199393371166785 5.300970873786408  63.199393371166785 5.300970873786408  C 63.199393371166785 5.300970873786408  63.199393371166785 4.910679611650485  63.199393371166785 4.910679611650485  C 63.199393371166785 4.359224130574939  63.08049137458639 3.972812630366353  62.8427310531317 3.751456310679612  C 62.6049042055575 3.5300933541603454  62.26967229404528 3.419417475728155  61.8370602547377 3.419417475728155  C 61.50177429261207 3.419417475728155  61.18218406357867 3.467957439237428  60.87816484231553 3.5650485436893207  C 60.574145621052395 3.6621330261230467  60.2857057344766 3.7766981995221482  60.01282020183697 3.9087378640776698  C 60.01282020183697 3.9087378640776698  59.714627116266655 3.174757281553398  59.714627116266655 3.174757281553398  C 60.00307949321804 3.0271819772072206  60.334400980393184 2.900968799776244  60.708604068167695 2.796116504854369  Z M 63.18769952467383 6.570873786407768  C 63.18769952467383 6.570873786407768  63.18769952467383 5.98252427184466  63.18769952467383 5.98252427184466  C 63.18769952467383 5.98252427184466  62.21126334251222 6.023300970873786  62.21126334251222 6.023300970873786  C 61.412165096597015 6.054372246751508  60.848938553000195 6.184487974296495  60.52150252428045 6.413592233009709  C 60.19406649556068 6.642716372591778  60.0303609715764 6.9669985873027915  60.0303609715764 7.386407766990292  C 60.0303609715764 7.751468725111877  60.14144211948263 8.021340586838214  60.36363559662557 8.196116504854368  C 60.58582907376852 8.370892422870526  60.880101356094414 8.458252427184465  61.24652100684356 8.458252427184465  C 61.81557579760145 8.458252427184465  62.2814409638358 8.300964651755915  62.643935662751495 7.986407766990291  C 63.00649688778669 7.671850882224667  63.18769952467383 7.200053865006827  63.18769952467383 6.570873786407768  Z M 70.43788435030496 11.429126213592232  C 69.86097959640219 11.805785895782767  69.02681021965445 11.994174757281552  67.93540120081292 11.994174757281552  C 67.09346090715438 11.994174757281552  66.44447110288087 11.837877529107251  65.98837575973617 11.525242718446602  C 65.53234694271097 11.212674187225046  65.30428573989839 10.774817368590716  65.30428573989839 10.211650485436893  C 65.30428573989839 9.811660855487712  65.43200280418021 9.469880128138275  65.68725921254263 9.186407766990293  C 65.94258214702454 8.90293540584231  66.29630539046688 8.714612816375436  66.74847578177814 8.62135922330097  C 66.58089932683484 8.543681039162053  66.43760708388946 8.427134763847278  66.31872692316212 8.271844660194175  C 66.19978023631525 8.116488291916339  66.14039576414457 7.9378723588962  66.14039576414457 7.735922330097088  C 66.14039576414457 7.502887762865974  66.20567913588062 7.298057215422102  66.33626769290154 7.121359223300971  C 66.46685624992244 6.94466123117984  66.66661677459821 6.774695150134633  66.9355773256654 6.611650485436893  C 66.60035788965926 6.475713652083018  66.32848739333956 6.245652400637136  66.11993153278189 5.92135922330097  C 65.91144219834374 5.597092563666187  65.8071211390954 5.219417060926123  65.8071211390954 4.788349514563107  C 65.8071211390954 4.330094598566444  65.90262711577282 3.9388364032634255  66.09362037817276 3.6145631067961164  C 66.2846136405727 3.290289810328808  66.56138878025675 3.04271678739381  66.92388347917245 2.8718446601941747  C 67.28637817808814 2.700972532994539  67.72487038883244 2.615533980582524  68.2394412096297 2.615533980582524  C 68.35246717592764 2.615533980582524  68.46653103295893 2.620387314361276  68.5814862195486 2.6300970873786405  C 68.69650793225775 2.6398068603960056  68.8065948462672 2.6534028229204196  68.91183738297453 2.670873786407767  C 69.01707991968185 2.6883513793204594  69.10867548689168 2.7087353789690627  69.18664277555894 2.732038834951456  C 69.18664277555894 2.732038834951456  71.38508591623417 2.732038834951456  71.38508591623417 2.732038834951456  L 71.38508591623417 3.355339805825243  C 71.38508591623417 3.355339805825243  70.20400742044588 3.500970873786408  70.20400742044588 3.500970873786408  C 70.32095836088152 3.6524300880802487  70.41838629410246 3.834955189528974  70.49635358276971 4.048543689320389  C 70.57432087143697 4.2621388259443265  70.61329204769926 4.4990278818074945  70.61329204769926 4.7592233009708735  C 70.61329204769926 5.3961181640625  70.3969621327674 5.90196805787318  69.96428356734035 6.276699029126214  C 69.53160500191326 6.651502916650864  68.93716156000035 6.83883495145631  68.18097197716493 6.83883495145631  C 68.00162059237381 6.83883495145631  67.81842947282364 6.82331754073356  67.63136119199613 6.792233009708738  C 67.44036792959619 6.897085304630613  67.29515375241152 7.013565300506295  67.19576541013362 7.141747572815534  C 67.09637706785571 7.269863565685679  67.04666886734846 7.417444662445957  67.04666886734846 7.584466019417476  C 67.04666886734846 7.708737864077669  67.08471232839871 7.807785634161199  67.16068387065476 7.881553398058252  C 67.23672193903029 7.955321161955306  67.346808845605 8.008740971389326  67.49103503408068 8.041747572815535  C 67.63526122255637 8.074754174241741  67.80877607787785 8.09126213592233  68.01141120301712 8.09126213592233  C 68.01141120301712 8.09126213592233  69.13986738958712 8.09126213592233  69.13986738958712 8.09126213592233  C 69.83758149476995 8.09126213592233  70.37257396069694 8.236862123359753  70.74484782074497 8.528155339805824  C 71.11712168079302 8.819382276812803  71.3032289907835 9.24462706926957  71.3032289907835 9.803883495145632  C 71.3032289907835 10.510675463630157  71.01478910420771 11.052400251962606  70.43788435030496 11.429126213592232  Z M 66.71339424229929 10.966019417475728  C 67.0057050747036 11.146627837245903  67.42278976307746 11.236893203883495  67.9646358170453 11.236893203883495  C 68.49470695603482 11.236893203883495  68.93419343041488 11.183473398153064  69.28311700912579 11.076699029126214  C 69.63197406171722 10.96985838066027  69.89317405991146 10.816466544438335  70.06660472415368 10.616504854368932  C 70.24010189964591 10.416476899674796  70.3267928086219 10.17863040664821  70.3267928086219 9.902912621359222  C 70.3267928086219 9.646614356179839  70.26833605166321 9.453405302473643  70.1513851112276 9.323300970873786  C 70.03443417079197 9.19319663927393  69.86290779813352 9.10583663495999  69.63685586553764 9.061165048543689  C 69.41073740682225 9.01649346212739  69.1340287932577 8.994174757281552  68.80659276453795 8.994174757281552  C 68.80659276453795 8.994174757281552  67.69567734770737 8.994174757281552  67.69567734770737 8.994174757281552  C 67.40722497075599 8.994174757281552  67.15576777777945 9.038812166973225  66.94142424891187 9.128155339805826  C 66.7270141939248 9.217498512638425  66.56231442117426 9.349562206083132  66.4473592345846 9.524271844660195  C 66.33233752187543 9.69904776267635  66.27487499881353 9.916490365926503  66.27487499881353 10.176699029126214  C 66.27487499881353 10.522340467138196  66.42101688377547 10.785477277144645  66.71339424229929 10.966019417475728  Z M 67.18114810201742 5.784466019417476  C 67.42283340504456 6.017474068947209  67.76780810690498 6.133980582524272  68.21605351664381 6.133980582524272  C 68.67993229681387 6.133980582524272  69.02875089689188 6.017474068947209  69.26265277776314 5.784466019417476  C 69.49648813251488 5.551457969887743  69.61346817255173 5.211651729842991  69.61346817255173 4.76504854368932  C 69.61346817255173 4.287374077954339  69.49456617597134 3.929125176587151  69.25680585451666 3.690291262135922  C 69.01904553306196 3.451457347684693  68.66823845032093 3.3320388349514563  68.20435967015085 3.3320388349514563  C 67.75997271586496 3.3320388349514563  67.41791418957534 3.455340013226259  67.17822464039419 3.7019417475728154  C 66.93846856509353 3.948543481919372  66.81863886073587 4.3087337160573425  66.81863886073587 4.78252427184466  C 66.81863886073587 5.21747572815534  66.93946279899029 5.551457969887743  67.18114810201742 5.784466019417476  Z M 73.62153405801152 3.03495145631068  C 74.04449995868674 2.7631109441368324  74.54244320489498 2.6271844660194175  75.11542294748631 2.6271844660194175  C 75.66112745690708 2.6271844660194175  76.12891459455447 2.747573645138046  76.51868452664074 2.988349514563107  C 76.90852098484649 3.2291253839881673  77.20670367663998 3.566019624876745  77.41326378335167 3.999029126213592  C 77.61989041618286 4.4320386275504395  77.72315071541493 4.937862003659739  77.72315071541493 5.516504854368932  C 77.72315071541493 5.516504854368932  77.72315071541493 6.116504854368932  77.72315071541493 6.116504854368932  C 77.72315071541493 6.116504854368932  73.29702981783207 6.116504854368932  73.29702981783207 6.116504854368932  C 73.30873821691365 6.866046320350425  73.49583975057813 7.436891129873332  73.85833444949382 7.829126213592233  C 74.22082914840952 8.221361297311134  74.73143133079776 8.41747572815534  75.39022834007073 8.41747572815534  C 75.79563164258823 8.41747572815534  76.15425955913393 8.380630159841001  76.46606221742243 8.306796116504856  C 76.77793137209146 8.2330283526078  77.10143204033143 8.124273918670358  77.43665147633757 7.980582524271846  C 77.43665147633757 7.980582524271846  77.43665147633757 8.831067961165049  77.43665147633757 8.831067961165049  C 77.11307390307076 8.974759355563563  76.79248944014057 9.079617865108748  76.47483260229215 9.145631067961165  C 76.15717576444374 9.211644270813581  75.78197844277246 9.244660194174758  75.34929987734539 9.244660194174758  C 74.73341147167426 9.244660194174758  74.19649709381223 9.119397802260316  73.73847252294105 8.86893203883495  C 73.28044795206988 8.618399995970496  72.924736211095 8.250470948450772  72.67140903045905 7.76504854368932  C 72.41801532370361 7.279626138927867  72.29135901943806 6.6854456040465715  72.29135901943806 5.98252427184466  C 72.29135901943806 5.2951452162659285  72.40734482557815 4.700000592574332  72.63925095260343 4.197087378640777  C 72.87122360574823 3.694174164707221  73.19863468345578 3.3067986053170513  73.62153405801152 3.03495145631068  Z M 76.00415528095077 3.6611650485436895  C 75.77031992619902 3.4999960593806887  75.4701487517425 3.419417475728155  75.10372910099336 3.419417475728155  C 74.58529982474316 3.419417475728155  74.17212557557588 3.5883466109488777  73.86418137274029 3.92621359223301  C 73.55623716990473 4.264073936684618  73.3730460577893 4.735917352472694  73.3145705875715 5.341747572815534  C 73.3145705875715 5.341747572815534  76.70578607052798 5.341747572815534  76.70578607052798 5.341747572815534  C 76.70192762088344 4.961164218939624  76.64247662421961 4.626217947654354  76.52745491151045 4.336893203883495  C 76.41249972492079 4.047575096945161  76.23805716182204 3.8223274008741654  76.00415528095077 3.6611650485436895  Z M 82.48254623804696 0.06407766990291262  L 83.4531354969621 0.06407766990291262  C 83.4531354969621 0.06407766990291262  83.4531354969621 2.7728155339805824  83.4531354969621 2.7728155339805824  C 83.4531354969621 2.9281586582220873  83.44929159967387 3.084469130432722  83.44144165046916 3.2417475728155343  C 83.4336582264546 3.3990326520308702  83.42000500991062 3.54369511280245  83.40051318774381 3.675728155339806  C 83.40051318774381 3.675728155339806  83.46482934345507 3.675728155339806  83.46482934345507 3.675728155339806  C 83.59734712820244 3.4504879257054  83.76595732529007 3.2611615227264106  83.9705882042753 3.107766990291262  C 84.17521908326053 2.9543658210235892  84.40811841818744 2.8378659442790504  84.66929553222927 2.758252427184466  C 84.93047264627108 2.6786455395152267  85.20724780082465 2.6388349514563108  85.49955863322896 2.6388349514563108  C 86.01412945402622 2.6388349514563108  86.4438731083191 2.7203908383267597  86.78880520907707 2.883495145631068  C 87.13380383595454 3.046599452935376  87.39301533661624 3.2990258077973302  87.56644600085848 3.640776699029126  C 87.73994317635069 3.982520953428398  87.82663408532669 4.425237740822209  87.82663408532669 4.968932038834952  C 87.82663408532669 4.968932038834952  87.82663408532669 9.128155339805826  87.82663408532669 9.128155339805826  L 86.86773867290451 9.128155339805826  C 86.86773867290451 9.128155339805826  86.86773867290451 5.033009708737865  86.86773867290451 5.033009708737865  C 86.86773867290451 4.500967140568113  86.74592050075331 4.10290764373483  86.50230596999971 3.8388349514563105  C 86.25869143924612 3.574755622345267  85.88541607411838 3.442718446601942  85.38262016829943 3.442718446601942  C 84.90703299927054 3.442718446601942  84.5279917645122 3.5330103309409133  84.2453935968597 3.7135922330097086  C 83.96279542920722 3.8941741350785044  83.76011871409116 4.159219152950546  83.63731357922613 4.50873786407767  C 83.51457496304585 4.8582499383722695  83.4531354969621 5.285436063599818  83.4531354969621 5.790291262135922  C 83.4531354969621 5.790291262135922  83.4531354969621 9.128155339805826  83.4531354969621 9.128155339805826  L 82.48254623804696 9.128155339805826  L 82.48254623804696 0.06407766990291262  Z M 91.0424418708889 2.796116504854369  C 91.41664495866338 2.691264209932494  91.8103336271343 2.6388349514563108  92.22352036667718 2.6388349514563108  C 92.98755991265745 2.6388349514563108  93.55469692519982 2.8097120562803397  93.9249750314019 3.151456310679612  C 94.29525313760398 3.4932072019114075  94.48043273981719 4.038834536654278  94.48043273981719 4.788349514563107  C 94.48043273981719 4.788349514563107  94.48043273981719 9.128155339805826  94.48043273981719 9.128155339805826  L 93.77295502699351 9.128155339805826  L 93.58585348310625 8.184466019417476  C 93.58585348310625 8.184466019417476  93.53907809713444 8.184466019417476  93.53907809713444 8.184466019417476  C 93.35979323846281 8.417434307209497  93.17269169457555 8.612624470238547  92.97777346547268 8.76990291262136  C 92.7828552363698 8.927247634443265  92.55777676498651 9.045642460202707  92.30245383050462 9.125242718446602  C 92.04713089602271 9.204842976690497  91.73430075564718 9.244660194174758  91.3640226494451 9.244660194174758  C 90.97425271735884 9.244660194174758  90.62828376673214 9.176713532383001  90.32619377319548 9.040776699029127  C 90.02410377965883 8.90483986567525  89.78636631261755 8.699018756162774  89.61286913712533 8.423300970873786  C 89.4394384728831 8.1475831855848  89.3526810526571 7.798076888889942  89.3526810526571 7.374757281553398  C 89.3526810526571 6.737888906534436  89.60606021704669 6.24854700773665  90.11278107469909 5.906796116504854  C 90.61950193235148 5.5650452252730584  91.39130412780347 5.378637461986357  92.42816268030387 5.34757281553398  C 92.42816268030387 5.34757281553398  93.53323117388797 5.300970873786408  93.53323117388797 5.300970873786408  C 93.53323117388797 5.300970873786408  93.53323117388797 4.910679611650485  93.53323117388797 4.910679611650485  C 93.53323117388797 4.359224130574939  93.41432917730758 3.972812630366353  93.17656885585288 3.751456310679612  C 92.93880853439819 3.5300933541603454  92.60357662288595 3.419417475728155  92.17089805745888 3.419417475728155  C 91.83567862145274 3.419417475728155  91.51608839241933 3.467957439237428  91.2120026450367 3.5650485436893207  C 90.90798342377357 3.6621330261230467  90.61947701107829 3.7766981995221482  90.34665800455815 3.9087378640776698  C 90.34665800455815 3.9087378640776698  90.04846491898785 3.174757281553398  90.04846491898785 3.174757281553398  C 90.33691729593922 3.0271819772072206  90.66823878311438 2.900968799776244  91.0424418708889 2.796116504854369  Z M 93.52153732739501 6.570873786407768  C 93.52153732739501 6.570873786407768  93.52153732739501 5.98252427184466  93.52153732739501 5.98252427184466  C 93.52153732739501 5.98252427184466  92.54510114523339 6.023300970873786  92.54510114523339 6.023300970873786  C 91.7460028993182 6.054372246751508  91.18277635572139 6.184487974296495  90.85534032700163 6.413592233009709  C 90.52790429828188 6.642716372591778  90.36419877429759 6.9669985873027915  90.36419877429759 7.386407766990292  C 90.36419877429759 7.751468725111877  90.47527992220381 8.021340586838214  90.69747339934676 8.196116504854368  C 90.9196668764897 8.370892422870526  91.2139391588156 8.458252427184465  91.58035880956474 8.458252427184465  C 92.14948015618111 8.458252427184465  92.61527876655698 8.300964651755915  92.97777346547268 7.986407766990291  C 93.34026816438836 7.671850882224667  93.52153732739501 7.200053865006827  93.52153732739501 6.570873786407768  Z M 100.38923592398578 6.521359223300971  C 100.54690016555776 6.744650875943378  100.62579269366614 7.031030688239533  100.62579269366614 7.380582524271844  C 100.62579269366614 7.788326730080021  100.52323896308548 8.131031725244615  100.31834197962226 8.40873786407767  C 100.11411025735403 8.686377723471633  99.82187051600408 8.895170489561211  99.44154711445267 9.03495145631068  C 99.06148981737925 9.174798702499242  98.60835014318342 9.244660194174758  98.08213745964684 9.244660194174758  C 97.63389204990803 9.244660194174758  97.24603576231773 9.209729448337  96.91859973359799 9.139805825242718  C 96.59116370487823 9.069882202148438  96.30464575997648 8.970834439472089  96.05910201636591 8.84271844660194  C 96.05910201636591 8.84271844660194  96.05910201636591 7.951456310679612  96.05910201636591 7.951456310679612  C 96.32021260428823 8.079638582988851  96.63204851076699 8.196118578864533  96.99460973580219 8.300970873786408  C 97.35710443471787 8.405823168708283  97.7273970832858 8.458252427184465  98.10552515263275 8.458252427184465  C 98.6590130693399 8.458252427184465  99.06052261622395 8.368977607801122  99.30999134140696 8.190291262135922  C 99.55946006658996 8.011671195909816  99.68419442918146 7.768938260865443  99.68419442918146 7.462135922330097  C 99.68419442918146 7.287360004313942  99.63448622867422 7.132977606023399  99.5350978863963 6.999029126213593  C 99.4357095441184 6.865014366964692  99.2690878296938 6.73493178284284  99.03518594882254 6.6087378640776695  C 98.8012840679513 6.4825439453125  98.4777834294503 6.343678965151889  98.06459668990742 6.192233009708737  C 97.65533493193696 6.036876641430902  97.30154513263611 5.882527382859906  97.00338012067189 5.729126213592233  C 96.70514858258817 5.575731681157085  96.47516543810154 5.388353247781401  96.31344317758763 5.166990291262136  C 96.15165439095423 4.945633971575394  96.07079586285884 4.658250353174302  96.07079586285884 4.304854368932038  C 96.07079586285884 3.76504398086696  96.2900419831005 3.3504831554820234  96.72857472808748 3.0611650485436894  C 97.16710747307447 2.771846941605355  97.74305956818776 2.6271844660194175  98.45634054742136 2.6271844660194175  C 98.84225202405467 2.6271844660194175  99.20379614591018 2.665047091882206  99.54094480964278 2.740776699029126  C 99.87829305173388 2.8164996767507016  100.19293456422051 2.9184461871397147  100.48497929214685 3.046601941747573  C 100.48497929214685 3.046601941747573  100.15779521214608 3.8213592233009708  100.15779521214608 3.8213592233009708  C 99.89282616877081 3.708739108483768  99.61015210721715 3.61359389221784  99.30999134140696 3.5359223300970877  C 99.00983057559677 3.458250767976335  98.70382704999862 3.419417475728155  98.39202439171011 3.419417475728155  C 97.9437124558518 3.419417475728155  97.59973198788813 3.4932013946829485  97.36004243870697 3.640776699029126  C 97.12028636340631 3.788345366542779  97.00045665904865 3.9902904325318573  97.00045665904865 4.246601941747572  C 97.00045665904865 4.444661438580855  97.05599723300176 4.607766575489229  97.16709397157324 4.735922330097088  C 97.27819071014471 4.864078084704945  97.4564771788958 4.984467263823574  97.70208744862586 5.097087378640777  C 97.94763119223643 5.209707493457979  98.27119838659591 5.341744669201304  98.67267670754099 5.493203883495145  C 99.07415502848608 5.640779187841322  99.42105168689002 5.793206994510392  99.71342904541385 5.950485436893204  C 100.00560682557916 6.10775725725785  100.23090643608832 6.298067570658564  100.38923592398578 6.521359223300971  Z M 105.29675350219523 0.06407766990291262  L 106.2675863829123 0.06407766990291262  C 106.2675863829123 0.06407766990291262  106.2675863829123 2.3300970873786406  106.2675863829123 2.3300970873786406  C 106.2675863829123 2.5902925065420206  106.26115801595404 2.8427188614039745  106.24785301695545 3.087378640776699  C 106.23388276791398 3.3320384201494235  106.2227034514771 3.5223288526812806  106.21472045189208 3.6582524271844656  C 106.21472045189208 3.6582524271844656  106.2675863829123 3.6582524271844656  106.2675863829123 3.6582524271844656  C 106.44321236448948 3.370869638387439  106.69687919412445 3.128156584211923  107.02817364855815 2.930097087378641  C 107.35946810299184 2.732044227377882  107.78223052950096 2.6330097087378643  108.29646874943973 2.6330097087378643  C 109.09942539132987 2.6330097087378643  109.73953358691297 2.9097093304384103  110.21718303590733 3.463106796116505  C 110.69483248490168 4.0165042617946  110.93367475540266 4.838837795813107  110.93367475540266 5.930097087378641  C 110.93367475540266 6.648554059371207  110.8246926597224 7.254395864542248  110.6064906754019 7.747572815533982  C 110.3882886910814 8.240816045964806  110.08025265424627 8.613631579945388  109.68243318065664 8.866019417475728  C 109.28461370706702 9.118473534445162  108.81483813136508 9.244660194174758  108.27332467825575 9.244660194174758  C 107.76640421250588 9.244660194174758  107.35031378776776 9.15049890314491  107.02500656513297 8.962135922330097  C 106.69969934249818 8.773772941515285  106.4493029095379 8.543652047462833  106.27367692796071 8.271844660194175  C 106.27367692796071 8.271844660194175  106.19791054755845 8.271844660194175  106.19791054755845 8.271844660194175  L 105.9993587789802 9.128155339805826  L 105.29675350219523 9.128155339805826  L 105.29675350219523 0.06407766990291262  Z M 109.4868048737016 4.0660194174757285  C 109.19209916047332 3.6504875109033676  108.74264875661918 3.442718446601942  108.13860182178486 3.442718446601942  C 107.67492261997327 3.442718446601942  107.30677305220526 3.5330103309409133  107.03402057180463 3.7135922330097086  C 106.76126809140399 3.8941741350785044  106.56548452461956 4.16602045448081  106.44640478553372 4.529126213592233  C 106.32732504644788 4.8922386095361805  106.2675863829123 5.351456725481645  106.2675863829123 5.906796116504854  C 106.2675863829123 5.906796116504854  106.2675863829123 5.959223300970874  106.2675863829123 5.959223300970874  C 106.2675863829123 6.763113018146997  106.40201949240857 7.377670939917703  106.67078046511725 7.802912621359224  C 106.94020669902095 8.228154302800743  107.4294454024822 8.440776699029126  108.13860182178486 8.440776699029126  C 108.7353310024303 8.440776699029126  109.1829259907299 8.223334095778974  109.48095795045514 7.788349514563107  C 109.77898991018036 7.353431183157615  109.92800395700866 6.73204547178398  109.92800395700866 5.924271844660194  C 109.92800395700866 5.100975851410801  109.78084535547389 4.481557960880613  109.4868048737016 4.0660194174757285  Z M 113.59719191597473 3.03495145631068  C 114.02029086888896 2.7631109441368324  114.51805698967577 2.6271844660194175  115.09083718364761 2.6271844660194175  C 115.63634214444886 2.6271844660194175  116.10401868279432 2.747573645138046  116.49385514100007 2.988349514563107  C 116.88369159920585 3.2291253839881673  117.18202891887519 3.566019624876745  117.38892164131487 3.999029126213592  C 117.59514911742909 4.4320386275504395  117.69832132977427 4.937862003659739  117.69832132977427 5.516504854368932  C 117.69832132977427 5.516504854368932  117.69832132977427 6.116504854368932  117.69832132977427 6.116504854368932  C 117.69832132977427 6.116504854368932  113.27268767579528 6.116504854368932  113.27268767579528 6.116504854368932  C 113.28399692466527 6.866046320350425  113.47094383881797 7.436891129873332  113.83350506385318 7.829126213592233  C 114.19606628888836 8.221361297311134  114.70680149377662 8.41747572815534  115.36539895443006 8.41747572815534  C 115.77120141366456 8.41747572815534  116.12965223452784 8.380630159841001  116.44098920997983 8.306796116504856  C 116.75299141688785 8.2330283526078  117.07677975037322 8.124273918670358  117.41206571249884 7.980582524271846  C 117.41206571249884 7.980582524271846  117.41206571249884 8.831067961165049  117.41206571249884 8.831067961165049  C 117.08875424371004 8.974759355563563  116.7679926850974 9.079617865108748  116.45000321665151 9.145631067961165  C 116.13267900940058 9.211644270813581  115.75754818410981 9.244660194174758  115.32447049170473 9.244660194174758  C 114.70911429498959 9.244660194174758  114.172243960571 9.119397802260316  113.71388675910232 8.86893203883495  C 113.25619481882866 8.618399995970496  112.9005271212972 8.250470948450772  112.64706688842227 7.76504854368932  C 112.39360665554733 7.279626138927867  112.26701687740129 6.6854456040465715  112.26701687740129 5.98252427184466  C 112.26701687740129 5.2951452162659285  112.38267097485254 4.700000592574332  112.61417794516083 4.197087378640777  C 112.84635017666412 3.694174164707221  113.17409296306052 3.3067986053170513  113.59719191597473 3.03495145631068  Z M 115.98005676071594 3.6611650485436895  C 115.74588879023618 3.4999960593806887  115.44545241834085 3.419417475728155  115.0788997153527 3.419417475728155  C 114.56066998772202 3.419417475728155  114.14760633785666 3.5883466109488777  113.83959560890159 3.92621359223301  C 113.53158487994652 4.264073936684618  113.34828319455077 4.735917352472694  113.28974120193082 5.341747572815534  C 113.28974120193082 5.341747572815534  116.6814439284912 5.341747572815534  116.6814439284912 5.341747572815534  C 116.67745242869869 4.961164218939624  116.61795738650038 4.626217947654354  116.50286914767172 4.336893203883495  C 116.38778090884307 4.047575096945161  116.2135594848702 3.8223274008741654  115.98005676071594 3.6611650485436895  Z M 120.32066640581908 3.03495145631068  C 120.74376535873331 2.7631109441368324  121.24177510132205 2.6271844660194175  121.81455529529389 2.6271844660194175  C 122.36072551729012 2.6271844660194175  122.82840205563559 2.747573645138046  123.21757325264635 2.988349514563107  C 123.60740971085212 3.2291253839881673  123.90574703052147 3.566019624876745  124.11263975296117 3.999029126213592  C 124.31953247540085 4.4320386275504395  124.42301392862831 4.937862003659739  124.42301392862831 5.516504854368932  C 124.42301392862831 5.516504854368932  124.42301392862831 6.116504854368932  124.42301392862831 6.116504854368932  C 124.42301392862831 6.116504854368932  119.99640578744156 6.116504854368932  119.99640578744156 6.116504854368932  C 120.00838028635444 6.866046320350425  120.19532721165925 7.436891129873332  120.55722317549944 7.829126213592233  C 120.91978440053464 8.221361297311134  121.43082889091365 8.41747572815534  122.09009155328408 8.41747572815534  C 122.49522875132361 8.41747572815534  122.85367960192586 8.380630159841001  123.16568180883387 8.306796116504856  C 123.47701878428589 8.2330283526078  123.80025424021755 8.124273918670358  124.13554020234321 7.980582524271846  C 124.13554020234321 7.980582524271846  124.13554020234321 8.831067961165049  124.13554020234321 8.831067961165049  C 123.81222873355438 8.974759355563563  123.49202002275645 9.079617865108748  123.17469581550552 9.145631067961165  C 122.85670634705963 9.211644270813581  122.48157555150783 9.244660194174758  122.04916309055876 9.244660194174758  C 121.43314163264863 9.244660194174758  120.89596207221727 9.119397802260316  120.43760487074861 8.86893203883495  C 119.97991293047494 8.618399995970496  119.62424523294351 8.250470948450772  119.37078500006854 7.76504854368932  C 119.11732476719361 7.279626138927867  118.99049136724562 6.6854456040465715  118.99049136724562 5.98252427184466  C 118.99049136724562 5.2951452162659285  119.1066983125116 4.700000592574332  119.33887054401487 4.197087378640777  C 119.57037751432316 3.694174164707221  119.89756745290485 3.3067986053170513  120.32066640581908 3.03495145631068  Z M 122.70377487236222 3.6611650485436895  C 122.46960690188246 3.4999960593806887  122.16917052998713 3.419417475728155  121.80261782699898 3.419417475728155  C 121.28438809936829 3.419417475728155  120.87132444950292 3.5883466109488777  120.56331372054787 3.92621359223301  C 120.2553029915928 4.264073936684618  120.07231054336194 4.735917352472694  120.01443380078486 5.341747572815534  C 120.01443380078486 5.341747572815534  123.40516204013748 5.341747572815534  123.40516204013748 5.341747572815534  C 123.40117054034495 4.961164218939624  123.34167549814667 4.626217947654354  123.226587259318 4.336893203883495  C 123.11149902048935 4.047575096945161  122.93727759651648 3.8223274008741654  122.70377487236222 3.6611650485436895  Z M 128.281739649501 2.7466019417475724  C 128.5425176365648 2.6669950540783334  128.81743734582483 2.6271844660194175  129.1061558272542 2.6271844660194175  C 129.86587126468405 2.6271844660194175  130.4404308613533 2.8126215666243173  130.83026731955903 3.1834951456310683  C 131.2201037777648 3.554368724637819  131.41520326600863 4.149513318700698  131.41520326600863 4.968932038834952  C 131.41520326600863 4.968932038834952  131.41520326600863 9.128155339805826  131.41520326600863 9.128155339805826  L 130.45606423178452 9.128155339805826  C 130.45606423178452 9.128155339805826  130.45606423178452 5.033009708737865  130.45606423178452 5.033009708737865  C 130.45606423178452 4.500967140568113  130.33435662919626 4.10290764373483  130.09087515068165 3.8388349514563105  C 129.84739367216707 3.574755622345267  129.47436192884126 3.442718446601942  128.97143297078333 3.442718446601942  C 128.26227655148065 3.442718446601942  127.76333910111465 3.642715542987712  127.47462061968527 4.042718446601942  C 127.18590213825591 4.442714713383647  127.04146105584212 5.023299311665656  127.04146105584212 5.784466019417476  C 127.04146105584212 5.784466019417476  127.04146105584212 9.128155339805826  127.04146105584212 9.128155339805826  L 126.07160266233281 9.128155339805826  L 126.07160266233281 2.7436893203883495  L 126.85484675555875 2.7436893203883495  L 127.00053259311679 3.6640776699029125  C 127.00053259311679 3.6640776699029125  127.05339852413701 3.6640776699029125  127.05339852413701 3.6640776699029125  C 127.18977476433733 3.438830803435983  127.36337770654568 3.2495110372895173  127.5742619366773 3.0961165048543684  C 127.78448092048345 2.942715335586696  128.02029643098118 2.826215458842157  128.281739649501 2.7466019417475724  Z M 140.43383875189704 6.521359223300971  C 140.5921682397945 6.744650875943378  140.67137000878515 7.031030688239533  140.67137000878515 7.380582524271844  C 140.67137000878515 7.788326730080021  140.5690599000064 8.131031725244615  140.3641629165432 8.40873786407767  C 140.15926593307995 8.686377723471633  139.86673852648465 8.895170489561211  139.48688080776975 9.03495145631068  C 139.10702308905482 9.174798702499242  138.65417108010436 9.244660194174758  138.12795839656778 9.244660194174758  C 137.67957993458995 9.244660194174758  137.29172364699966 9.209729448337  136.9644206705189 9.139805825242718  C 136.63711769403815 9.069882202148438  136.35064380744936 8.970834439472089  136.10516657508876 8.84271844660194  C 136.10516657508876 8.84271844660194  136.10516657508876 7.951456310679612  136.10516657508876 7.951456310679612  C 136.3659445621526 8.079638582988851  136.677625825886 8.196118578864533  137.0401870509212 8.300970873786408  C 137.40274827595638 8.405823168708283  137.77299688108087 8.458252427184465  138.1508588459498 8.458252427184465  C 138.70434676265697 8.458252427184465  139.105856309541 8.368977607801122  139.35532503472402 8.190291262135922  C 139.604793759907 8.011671195909816  139.72952812249852 7.768938260865443  139.72952812249852 7.462135922330097  C 139.72952812249852 7.287360004313942  139.67979743931522 7.132977606023399  139.5806752015153 6.999029126213593  C 139.4815529637154 6.865014366964692  139.3149312344213 6.73493178284284  139.08076326394155 6.6087378640776695  C 138.8465952934618 6.4825439453125  138.52305059664786 6.343678965151889  138.10993038322448 6.192233009708737  C 137.70080167749305 6.036876641430902  137.34723301731808 5.882527382859906  137.04920105759282 5.729126213592233  C 136.7511690978676 5.575731681157085  136.52085422982267 5.388353247781401  136.35853324910275 5.166990291262136  C 136.19687751470835 4.945633971575394  136.1161295561759 4.658250353174302  136.1161295561759 4.304854368932038  C 136.1161295561759 3.76504398086696  136.33526510685462 3.3504831554820234  136.7736647996026 3.0611650485436894  C 137.21272975354557 2.771846941605355  137.78901355734772 2.6271844660194175  138.50216148434228 2.6271844660194175  C 138.88800643485612 2.6271844660194175  139.2494840305921 2.665047091882206  139.5867657465637 2.740776699029126  C 139.92404746253533 2.8164996767507016  140.23875550114144 2.9184461871397147  140.53080022906778 3.046601941747573  C 140.53080022906778 3.046601941747573  140.2033725272651 3.8213592233009708  140.2033725272651 3.8213592233009708  C 139.9386030622483 3.708739108483768  139.6560180094902 3.61359389221784  139.35532503472402 3.5359223300970877  C 139.05529732115284 3.458250767976335  138.74911667013325 3.419417475728155  138.4371144632252 3.419417475728155  C 137.98940126244239 3.419417475728155  137.6455313640417 3.4932013946829485  137.40537613202403 3.640776699029126  C 137.16588616120134 3.788345366542779  137.04603397416764 3.9902904325318573  137.04603397416764 4.246601941747572  C 137.04603397416764 4.444661438580855  137.10157454812077 4.607766575489229  137.21267128669223 4.735922330097088  C 137.3237680252637 4.864078084704945  137.5021875313843 4.984467263823574  137.74766476374487 5.097087378640777  C 137.99314199610544 5.209707493457979  138.31668669291935 5.341744669201304  138.71849764446193 5.493203883495145  C 139.11964336454852 5.640779187841322  139.46654002295247 5.793206994510392  139.75924998233478 5.950485436893204  C 140.0512947102611 6.10775725725785  140.27617451032503 6.298067570658564  140.43383875189704 6.521359223300971  Z M 143.2060112361328 3.03495145631068  C 143.62844495759103 2.7631109441368324  144.1264546704408 2.6271844660194175  144.6999001256076 2.6271844660194175  C 145.24540508640888 2.6271844660194175  145.71308162475432 2.747573645138046  146.10291808296006 2.988349514563107  C 146.49275454116585 3.2291253839881673  146.7910918608352 3.566019624876745  146.9979845832749 3.999029126213592  C 147.20421205938908 4.4320386275504395  147.30738427173426 4.937862003659739  147.30738427173426 5.516504854368932  C 147.30738427173426 5.516504854368932  147.30738427173426 6.116504854368932  147.30738427173426 6.116504854368932  C 147.30738427173426 6.116504854368932  142.88175061775527 6.116504854368932  142.88175061775527 6.116504854368932  C 142.8930598666253 6.866046320350425  143.08000678077798 7.436891129873332  143.44256800581317 7.829126213592233  C 143.80512923084837 8.221361297311134  144.3156208139347 8.41747572815534  144.97421827458814 8.41747572815534  C 145.38002073382265 8.41747572815534  145.73871517648783 8.380630159841001  146.05005215193987 8.306796116504856  C 146.36205435884787 8.2330283526078  146.68559907053128 8.124273918670358  147.02088503265693 7.980582524271846  C 147.02088503265693 7.980582524271846  147.02088503265693 8.831067961165049  147.02088503265693 8.831067961165049  C 146.6975735638681 8.974759355563563  146.37705562705742 9.079617865108748  146.0590661586115 9.145631067961165  C 145.74174195136058 9.211644270813581  145.36636750426786 9.244660194174758  144.9332898118628 9.244660194174758  C 144.31726835395267 9.244660194174758  143.7803980195341 9.119397802260316  143.3227060792604 8.86893203883495  C 142.86434887779174 8.618399995970496  142.50892480206224 8.250470948450772  142.25612983038226 7.76504854368932  C 142.00266959750732 7.279626138927867  141.87583619755935 6.6854456040465715  141.87583619755935 5.98252427184466  C 141.87583619755935 5.2951452162659285  141.9914902950106 4.700000592574332  142.2229972653189 4.197087378640777  C 142.4551694968222 3.694174164707221  142.78291228321856 3.3067986053170513  143.2060112361328 3.03495145631068  Z M 145.58790159366626 3.6611650485436895  C 145.354398869512 3.4999960593806887  145.05451536030085 3.419417475728155  144.68796265731274 3.419417475728155  C 144.16973292968203 3.419417475728155  143.7564256580147 3.5883466109488777  143.44841492905965 3.92621359223301  C 143.14040420010457 4.264073936684618  142.95710251470885 4.735917352472694  142.8985605220889 5.341747572815534  C 142.8985605220889 5.341747572815534  146.2905068704512 5.341747572815534  146.2905068704512 5.341747572815534  C 146.2865153706587 4.961164218939624  146.22702032846038 4.626217947654354  146.11193208963175 4.336893203883495  C 145.99684385080306 4.047575096945161  145.822069564146 3.8223274008741654  145.58790159366626 3.6611650485436895  Z M 151.16610999260698 2.7466019417475724  C 151.4275532111268 2.6669950540783334  151.70222932832385 2.6271844660194175  151.99028254855824 2.6271844660194175  C 152.75066324718307 2.6271844660194175  153.32577569166702 2.8126215666243173  153.71561214987275 3.1834951456310683  C 154.10544860807852 3.554368724637819  154.30030447452043 4.149513318700698  154.30030447452043 4.968932038834952  C 154.30030447452043 4.968932038834952  154.30030447452043 9.128155339805826  154.30030447452043 9.128155339805826  L 153.34140906209825 9.128155339805826  C 153.34140906209825 9.128155339805826  153.34140906209825 5.033009708737865  153.34140906209825 5.033009708737865  C 153.34140906209825 4.500967140568113  153.21970145951 4.10290764373483  152.97621998099538 3.8388349514563105  C 152.73273850248077 3.574755622345267  152.35946313735303 3.442718446601942  151.8565341792951 3.442718446601942  C 151.14671249879746 3.442718446601942  150.64777504843147 3.642715542987712  150.35972182819708 4.042718446601942  C 150.0710033467677 4.442714713383647  149.92680588615585 5.023299311665656  149.92680588615585 5.784466019417476  C 149.92680588615585 5.784466019417476  149.92680588615585 9.128155339805826  149.92680588615585 9.128155339805826  L 148.95572938363682 9.128155339805826  L 148.95572938363682 2.7436893203883495  L 149.74019158587248 2.7436893203883495  L 149.88587742343051 3.6640776699029125  C 149.88587742343051 3.6640776699029125  149.93874335445074 3.6640776699029125  149.93874335445074 3.6640776699029125  C 150.07511959465106 3.438830803435983  150.24841329597714 3.2495110372895173  150.45863227978327 3.0961165048543684  C 150.6695165099149 2.942715335586696  150.90533200554316 2.826215458842157  151.16610999260698 2.7466019417475724  Z M 157.63037088519084 8.155339805825243  C 157.8153103599334 8.353379421789668  158.06175232511316 8.45242718446602  158.36976305406824 8.45242718446602  C 158.52942303461668 8.45242718446602  158.6930180039075 8.438824596219849  158.86066098497034 8.411650485436894  C 159.02830396603315 8.384476374653937  159.1645924985187 8.35146045129276  159.26970199042177 8.3126213592233  C 159.26970199042177 8.3126213592233  159.26970199042177 9.064077669902913  159.26970199042177 9.064077669902913  C 159.15660949800434 9.114581746962465  158.999995763932 9.15723805844205  158.7997555344862 9.192233009708737  C 158.59885005871493 9.227161681536332  158.40306648449572 9.244660194174758  158.2121397482153 9.244660194174758  C 157.87286227839772 9.244660194174758  157.5648262118236 9.185429641575489  157.28808225347004 9.066990291262137  C 157.01133829511647 8.948550940948783  156.79010369221177 8.747616310489988  156.62445646499492 8.464077669902913  C 156.45880923777807 8.18060530875493  156.37596222701964 7.788376417437804  156.37596222701964 7.287378640776699  C 156.37596222701964 7.287378640776699  156.37596222701964 3.500970873786408  156.37596222701964 3.500970873786408  L 155.4638422005693 3.500970873786408  L 155.4638422005693 3.029126213592233  L 156.38205277206805 2.650485436893204  L 156.76819332813747 1.2640776699029126  L 157.35288565278512 1.2640776699029126  L 157.35288565278512 2.7436893203883495  L 159.22901714949836 2.7436893203883495  L 159.22901714949836 3.500970873786408  L 157.35288565278512 3.500970873786408  C 157.35288565278512 3.500970873786408  157.35288565278512 7.258252427184466  157.35288565278512 7.258252427184466  C 157.35288565278512 7.658308336572739  157.44543141044832 7.957300189860816  157.63037088519084 8.155339805825243  Z M 167.58719393033684 6.521359223300971  C 167.74552341823428 6.744650875943378  167.82448156542299 7.031030688239533  167.82448156542299 7.380582524271844  C 167.82448156542299 7.788326730080021  167.72217145664425 8.131031725244615  167.51727447318103 8.40873786407767  C 167.31237748971782 8.686377723471633  167.02009370492445 8.895170489561211  166.64023598620952 9.03495145631068  C 166.26037826749462 9.174798702499242  165.80728263674223 9.244660194174758  165.28106995320564 9.244660194174758  C 164.83269149122782 9.244660194174758  164.44483520363752 9.209729448337  164.11753222715677 9.139805825242718  C 163.79022925067602 9.069882202148438  163.50344612320495 8.970834439472089  163.25730364451888 8.84271844660194  C 163.25730364451888 8.84271844660194  163.25730364451888 7.951456310679612  163.25730364451888 7.951456310679612  C 163.5187468630387 8.079638582988851  163.83073738252384 8.196118578864533  164.19329860755903 8.300970873786408  C 164.55585983259422 8.405823168708283  164.9261084377187 8.458252427184465  165.30397040258768 8.458252427184465  C 165.8574583192948 8.458252427184465  166.25896786617886 8.368977607801122  166.50843659136189 8.190291262135922  C 166.75790531654485 8.011671195909816  166.88263967913636 7.768938260865443  166.88263967913636 7.462135922330097  C 166.88263967913636 7.287360004313942  166.83315261775502 7.132977606023399  166.7340303799551 6.999029126213593  C 166.63424288839494 6.865014366964692  166.46737754473367 6.73493178284284  166.23387482057942 6.6087378640776695  C 165.99970685009964 6.4825439453125  165.67616215328573 6.343678965151889  165.26304193986232 6.192233009708737  C 164.85391323413089 6.036876641430902  164.5003445739559 5.882527382859906  164.2023126142307 5.729126213592233  C 163.90428065450544 5.575731681157085  163.67420940826244 5.388353247781401  163.51188842754254 5.166990291262136  C 163.35023269314814 4.945633971575394  163.26924111281377 4.658250353174302  163.26924111281377 4.304854368932038  C 163.26924111281377 3.76504398086696  163.4883766634925 3.3504831554820234  163.92677635624045 3.0611650485436894  C 164.36584131018344 2.771846941605355  164.94212511398555 2.6271844660194175  165.65527304098015 2.6271844660194175  C 166.04111799149396 2.6271844660194175  166.40259558722997 2.665047091882206  166.73987730320155 2.740776699029126  C 167.07715901917317 2.8164996767507016  167.3918670577793 2.9184461871397147  167.68391178570562 3.046601941747573  C 167.68391178570562 3.046601941747573  167.35648408390293 3.8213592233009708  167.35648408390293 3.8213592233009708  C 167.0910493576912 3.708739108483768  166.80846430493307 3.61359389221784  166.50843659136189 3.5359223300970877  C 166.20840887779067 3.458250767976335  165.90247184857301 3.419417475728155  165.590469641665 3.419417475728155  C 165.14275644088218 3.419417475728155  164.79864292067953 3.4932013946829485  164.55848768866187 3.640776699029126  C 164.3189977178392 3.788345366542779  164.19938915260744 3.9902904325318573  164.19938915260744 4.246601941747572  C 164.19938915260744 4.444661438580855  164.25492972656056 4.607766575489229  164.36602646513202 4.735922330097088  C 164.47712320370348 4.864078084704945  164.65529908802213 4.984467263823574  164.9007763203827 5.097087378640777  C 165.14625355274327 5.209707493457979  165.47004187135914 5.341744669201304  165.8718528229017 5.493203883495145  C 166.2729985429883 5.640779187841322  166.61989520139224 5.793206994510392  166.91260516077458 5.950485436893204  C 167.20464988870089 6.10775725725785  167.42952968876483 6.298067570658564  167.58719393033684 6.521359223300971  Z M 173.7001521845282 2.7436893203883495  L 174.6770756102937 2.7436893203883495  L 174.6770756102937 9.128155339805826  L 173.88165042697094 9.128155339805826  L 173.74108064725357 8.23106796116505  C 173.74108064725357 8.23106796116505  173.6891892034411 8.23106796116505  173.6891892034411 8.23106796116505  C 173.55613920973772 8.452371260263387  173.3843916979534 8.63877902725368  173.17417271414726 8.790291262135922  C 172.96395373034113 8.941737217579075  172.7272105120661 9.05537812316302  172.46377153970033 9.13106796116505  C 172.20099782852952 9.20682407860617  171.92119589910325 9.244660194174758  171.624494432029 9.244660194174758  C 171.1182392274741 9.244660194174758  170.6933777636085 9.163110944136832  170.35010878609899 9  C 170.0068398085895 8.836889055863168  169.74884368095044 8.584449456964881  169.57587869954472 8.242718446601941  C 169.4022484718135 7.900987436239001  169.31544699327458 7.462140070350426  169.31544699327458 6.92621359223301  C 169.31544699327458 6.92621359223301  169.31544699327458 2.7436893203883495  169.31544699327458 2.7436893203883495  L 170.2972428550788 2.7436893203883495  C 170.2972428550788 2.7436893203883495  170.2972428550788 6.856310679611651  170.2972428550788 6.856310679611651  C 170.2972428550788 7.388393009519114  170.41802274988976 7.785442078229293  170.6595084745584 8.04757281553398  C 170.90165944555253 8.309703552838668  171.27036189087423 8.440776699029126  171.7653078335483 8.440776699029126  C 172.2409615286967 8.440776699029126  172.6200468068985 8.35143560020669  172.90277802678997 8.172815533980582  C 173.18484398548645 7.994129188315383  173.38847089105585 7.731058628119311  173.51353788424484 7.383495145631068  C 173.63793962367362 7.035931663142825  173.7001521845282 6.609709567468143  173.7001521845282 6.104854368932038  C 173.7001521845282 6.104854368932038  173.7001521845282 2.7436893203883495  173.7001521845282 2.7436893203883495  Z M 180.23408891246595 9.15728155339806  C 179.97131520129514 9.215540195205836  179.65870620004551 9.244660194174758  179.29614497501032 9.244660194174758  C 178.71937327334655 9.244660194174758  178.210427850063 9.126199088976222  177.7693671422741 8.889320388349514  C 177.32897169568014 8.652375408283715  176.98602950505668 8.2912476474799  176.7405522726961 7.805825242718447  C 176.49507504033554 7.320402837956993  176.37243972997 6.7087370344736055  176.37243972997 5.970873786407767  C 176.37243972997 5.1980553488129555  176.5020562829888 4.566018795272679  176.76150374766266 4.074757281553398  C 177.02028598088052 3.5834957678341173  177.37780909396648 3.219416231322057  177.8341705415892 2.9825242718446603  C 178.2898667577559 2.7456323123672632  178.80820167219244 2.6271844660194175  179.3889648815481 2.6271844660194175  C 179.70895010383998 2.6271844660194175  180.0179138781914 2.6592230935698575  180.31594583791662 2.7233009708737868  C 180.61397779764187 2.7873788481777155  180.85887358814932 2.8679640612555937  181.05046557075525 2.9650485436893206  C 181.05046557075525 2.9650485436893206  180.7581194084314 3.7747572815533976  180.7581194084314 3.7747572815533976  C 180.56320117932853 3.6970923488579905  180.3380121383823 3.6271844660194175  180.08255615166144 3.5650485436893207  C 179.82710016494053 3.502912621359223  179.58825790930905 3.471844660194175  179.3660644321661 3.471844660194175  C 178.9216774778802 3.471844660194175  178.55235658053297 3.566989876460103  178.25831609876067 3.757281553398059  C 177.9636103855324 3.9475732303360136  177.74354712707643 4.227184880821451  177.59785739371074 4.596116504854368  C 177.45150241401961 4.965048128887288  177.37835415016593 5.419419549738318  177.37835415016593 5.959223300970874  C 177.37835415016593 6.475730229349971  177.44940336179363 6.916492439936666  177.59176684866233 7.281553398058252  C 177.73413033553106 7.646614356179839  177.946284658426 7.925268613944933  178.22835061712252 8.11747572815534  C 178.511081837014 8.309682842365746  178.86520334500364 8.405825242718446  179.29029805176384 8.405825242718446  C 179.62957552158142 8.405825242718446  179.93551252106005 8.36990394962644  180.20826500146066 8.298058252427184  C 180.48101748186133 8.226212555227928  180.72838715481834 8.141691648612902  180.9505806319613 8.044660194174757  C 180.9505806319613 8.044660194174757  180.9505806319613 8.906796116504854  180.9505806319613 8.906796116504854  C 180.7363701553327 9.015558831668594  180.49752788483173 9.099022911590279  180.23408891246595 9.15728155339806  Z M 185.96992061725962 9.15728155339806  C 185.7071469060888 9.215540195205836  185.39453790483915 9.244660194174758  185.03197667980396 9.244660194174758  C 184.4552049781402 9.244660194174758  183.94625955485668 9.126199088976222  183.50519884706773 8.889320388349514  C 183.06480340047378 8.652375408283715  182.72186120985032 8.2912476474799  182.47638397748977 7.805825242718447  C 182.2309067451292 7.320402837956993  182.10827143476365 6.7087370344736055  182.10827143476365 5.970873786407767  C 182.10827143476365 5.1980553488129555  182.23788798778247 4.566018795272679  182.4973354524563 4.074757281553398  C 182.75611768567416 3.5834957678341173  183.11364079876017 3.219416231322057  183.57000224638284 2.9825242718446603  C 184.02569846254954 2.7456323123672632  184.54434260299885 2.6271844660194175  185.12577107354952 2.6271844660194175  C 185.4450910346464 2.6271844660194175  185.75374558298506 2.6592230935698575  186.05177754271025 2.7233009708737868  C 186.3498095024355 2.7873788481777155  186.59470529294296 2.8679640612555937  186.78629727554892 2.9650485436893206  C 186.78629727554892 2.9650485436893206  186.49395111322508 3.7747572815533976  186.49395111322508 3.7747572815533976  C 186.2990328841222 3.6970923488579905  186.073843843176 3.6271844660194175  185.81838785645508 3.5650485436893207  C 185.56293186973417 3.502912621359223  185.3240896141027 3.471844660194175  185.10189613695977 3.471844660194175  C 184.65750918267386 3.471844660194175  184.28818828532664 3.566989876460103  183.99414780355434 3.757281553398059  C 183.69944209032607 3.9475732303360136  183.4793788318701 4.227184880821451  183.33368909850444 4.596116504854368  C 183.18733411881325 4.965048128887288  183.11394223315767 5.419419549738318  183.11394223315767 5.959223300970874  C 183.11394223315767 6.475730229349971  183.1852350665873 6.916492439936666  183.327598553456 7.281553398058252  C 183.46996204032473 7.646614356179839  183.68211636321968 7.925268613944933  183.96418232191616 8.11747572815534  C 184.24691354180763 8.309682842365746  184.60079142799535 8.405825242718446  185.02588613475555 8.405825242718446  C 185.3651636045731 8.405825242718446  185.6713442258537 8.36990394962644  185.94409670625433 8.298058252427184  C 186.21684918665497 8.226212555227928  186.464218859612 8.141691648612902  186.68641233675493 8.044660194174757  C 186.68641233675493 8.044660194174757  186.68641233675493 8.906796116504854  186.68641233675493 8.906796116504854  C 186.47220186012635 9.015558831668594  186.23335958962537 9.099022911590279  185.96992061725962 9.15728155339806  Z M 189.17403455632885 3.03495145631068  C 189.59713350924306 2.7631109441368324  190.09514325183181 2.6271844660194175  190.66792344580367 2.6271844660194175  C 191.2140936677999 2.6271844660194175  191.68177020614536 2.747573645138046  192.0709414031561 2.988349514563107  C 192.4607778613619 3.2291253839881673  192.75911518103123 3.566019624876745  192.96600790347094 3.999029126213592  C 193.17290062591061 4.4320386275504395  193.27638207913807 4.937862003659739  193.27638207913807 5.516504854368932  C 193.27638207913807 5.516504854368932  193.27638207913807 6.116504854368932  193.27638207913807 6.116504854368932  C 193.27638207913807 6.116504854368932  188.8497739379513 6.116504854368932  188.8497739379513 6.116504854368932  C 188.8617484368642 6.866046320350425  189.048695362169 7.436891129873332  189.4105913260092 7.829126213592233  C 189.7731525510444 8.221361297311134  190.2841970414234 8.41747572815534  190.94345970379385 8.41747572815534  C 191.34859690183336 8.41747572815534  191.7070477524356 8.380630159841001  192.01904995934362 8.306796116504856  C 192.33038693479565 8.2330283526078  192.65362239072732 8.124273918670358  192.98890835285297 7.980582524271846  C 192.98890835285297 7.980582524271846  192.98890835285297 8.831067961165049  192.98890835285297 8.831067961165049  C 192.66559688406414 8.974759355563563  192.3453881732662 9.079617865108748  192.02806396601528 9.145631067961165  C 191.7100744975694 9.211644270813581  191.3349437020176 9.244660194174758  190.90253124106852 9.244660194174758  C 190.28650978315838 9.244660194174758  189.74933022272702 9.119397802260316  189.29097302125837 8.86893203883495  C 188.8332810809847 8.618399995970496  188.47761338345325 8.250470948450772  188.2241531505783 7.76504854368932  C 187.97069291770336 7.279626138927867  187.8438595177554 6.6854456040465715  187.8438595177554 5.98252427184466  C 187.8438595177554 5.2951452162659285  187.96006646302132 4.700000592574332  188.19223869452463 4.197087378640777  C 188.42374566483292 3.694174164707221  188.7509356034146 3.3067986053170513  189.17403455632885 3.03495145631068  Z M 191.55714302287197 3.6611650485436895  C 191.32297505239222 3.4999960593806887  191.0225386804969 3.419417475728155  190.65598597750875 3.419417475728155  C 190.13775624987807 3.419417475728155  189.7246926000127 3.5883466109488777  189.41668187105762 3.92621359223301  C 189.10867114210257 4.264073936684618  188.9256786938717 4.735917352472694  188.8678019512946 5.341747572815534  C 188.8678019512946 5.341747572815534  192.25853019064724 5.341747572815534  192.25853019064724 5.341747572815534  C 192.25453869085473 4.961164218939624  192.19504364865642 4.626217947654354  192.07995540982776 4.336893203883495  C 191.9648671709991 4.047575096945161  191.79064574702625 3.8223274008741654  191.55714302287197 3.6611650485436895  Z M 198.83363900311224 6.521359223300971  C 198.99130324468422 6.744650875943378  199.06995215099067 7.031030688239533  199.06995215099067 7.380582524271844  C 199.06995215099067 7.788326730080021  198.9679512682247 8.131031725244615  198.76371954595646 8.40873786407767  C 198.55882256249325 8.686377723471633  198.26653877769988 8.895170489561211  197.88668105898495 9.03495145631068  C 197.50615810881405 9.174798702499242  197.0527532223099 9.244660194174758  196.5265405387733 9.244660194174758  C 196.07816207679548 9.244660194174758  195.6903057892052 9.209729448337  195.36300281272443 9.139805825242718  C 195.03569983624368 9.069882202148438  194.74922594965486 8.970834439472089  194.50374871729431 8.84271844660194  C 194.50374871729431 8.84271844660194  194.50374871729431 7.951456310679612  194.50374871729431 7.951456310679612  C 194.7651919358141 8.079638582988851  195.0768732292865 8.196118578864533  195.4387691931267 8.300970873786408  C 195.80133041816188 8.405823168708283  196.17188824929914 8.458252427184465  196.55041547536308 8.458252427184465  C 197.10390339207024 8.458252427184465  197.5054129389543 8.368977607801122  197.7548816641373 8.190291262135922  C 198.0043503893203 8.011671195909816  198.1290847519118 7.768938260865443  198.1290847519118 7.462135922330097  C 198.1290847519118 7.287360004313942  198.079044835281 7.132977606023399  197.97925734372083 6.999029126213593  C 197.88013510592094 6.865014366964692  197.71351337662682 6.73493178284284  197.47934540614708 6.6087378640776695  C 197.24584268199283 6.4825439453125  196.92260722606113 6.343678965151889  196.50948701263775 6.192233009708737  C 196.09969304571132 6.036876641430902  195.7458151595236 5.882527382859906  195.44778319979835 5.729126213592233  C 195.1497512400731 5.575731681157085  194.91998923471238 5.388353247781401  194.75833350031797 5.166990291262136  C 194.59667776592357 4.945633971575394  194.5156861855892 4.658250353174302  194.5156861855892 4.304854368932038  C 194.5156861855892 3.76504398086696  194.73506535806982 3.3504831554820234  195.17346505081784 3.0611650485436894  C 195.6118647435658 2.771846941605355  196.1875956995532 2.6271844660194175  196.9007436265478 2.6271844660194175  C 197.28658857706162 2.6271844660194175  197.64806617279766 2.665047091882206  197.98534788876924 2.740776699029126  C 198.32262960474085 2.8164996767507016  198.63764689909874 2.9184461871397147  198.93035685848105 3.046601941747573  C 198.93035685848105 3.046601941747573  198.60195466947062 3.8213592233009708  198.60195466947062 3.8213592233009708  C 198.33718520445385 3.708739108483768  198.05490937770847 3.61359389221784  197.7548816641373 3.5359223300970877  C 197.45485395056608 3.458250767976335  197.14891692134847 3.419417475728155  196.83691471444044 3.419417475728155  C 196.38853625246261 3.419417475728155  196.04442273225996 3.4932013946829485  195.8049327614373 3.640776699029126  C 195.56477752941964 3.788345366542779  195.44485973817513 3.9902904325318573  195.44485973817513 4.246601941747572  C 195.44485973817513 4.444661438580855  195.50040031212822 4.607766575489229  195.6114970506997 4.735922330097088  C 195.72259378927117 4.864078084704945  195.90076967358982 4.984467263823574  196.1462469059504 5.097087378640777  C 196.39238938463643 5.209707493457979  196.71617768838283 5.341744669201304  197.1173234084694 5.493203883495145  C 197.51913436001198 5.640779187841322  197.86603101841592 5.793206994510392  198.15807574634223 5.950485436893204  C 198.45078570572457 6.10775725725785  198.67597476154026 6.298067570658564  198.83363900311224 6.521359223300971  Z M 204.54047971347543 6.521359223300971  C 204.69814395504744 6.744650875943378  204.7767928613539 7.031030688239533  204.7767928613539 7.380582524271844  C 204.7767928613539 7.788326730080021  204.67448275257513 8.131031725244615  204.46958576911194 8.40873786407767  C 204.2653540468437 8.686377723471633  203.97282661050937 8.895170489561211  203.59230366033847 9.03495145631068  C 203.21244594162357 9.174798702499242  202.75959393267308 9.244660194174758  202.2333812491365 9.244660194174758  C 201.78500278715867 9.244660194174758  201.3971464995684 9.209729448337  201.06984352308766 9.139805825242718  C 200.74254054660688 9.069882202148438  200.45606666001805 8.970834439472089  200.2105894276575 8.84271844660194  C 200.2105894276575 8.84271844660194  200.2105894276575 7.951456310679612  200.2105894276575 7.951456310679612  C 200.47136741472133 8.079638582988851  200.78304867845472 8.196118578864533  201.1456099034899 8.300970873786408  C 201.5081711285251 8.405823168708283  201.87872895966234 8.458252427184465  202.2572561857263 8.458252427184465  C 202.81074410243343 8.458252427184465  203.2122536493175 8.368977607801122  203.4617223745005 8.190291262135922  C 203.7111910996835 8.011671195909816  203.83592546227501 7.768938260865443  203.83592546227501 7.462135922330097  C 203.83592546227501 7.287360004313942  203.78612916744615 7.132977606023399  203.68634167588596 6.999029126213593  C 203.58721943808607 6.865014366964692  203.42035408699005 6.73493178284284  203.18618611651027 6.6087378640776695  C 202.95268339235602 6.4825439453125  202.62913868067258 6.343678965151889  202.2153532357932 6.192233009708737  C 201.80622453006174 6.036876641430902  201.4526558698868 5.882527382859906  201.15462391016155 5.729126213592233  C 200.85659195043633 5.575731681157085  200.6268299450756 5.388353247781401  200.46517421068117 5.166990291262136  C 200.3028532299613 4.945633971575394  200.22155240874466 4.658250353174302  200.22155240874466 4.304854368932038  C 200.22155240874466 3.76504398086696  200.44124080723807 3.3504831554820234  200.88030576118103 3.0611650485436894  C 201.31870545392903 2.771846941605355  201.89443640991644 2.6271844660194175  202.60758433691103 2.6271844660194175  C 202.99342928742487 2.6271844660194175  203.35490688316085 2.665047091882206  203.69218859913246 2.740776699029126  C 204.02947031510405 2.8164996767507016  204.34417835371016 2.9184461871397147  204.6362230816365 3.046601941747573  C 204.6362230816365 3.046601941747573  204.3087953798338 3.8213592233009708  204.3087953798338 3.8213592233009708  C 204.04402591481704 3.708739108483768  203.7617500880717 3.61359389221784  203.4617223745005 3.5359223300970877  C 203.1610293997343 3.458250767976335  202.85509240025567 3.419417475728155  202.54375542480363 3.419417475728155  C 202.09537696282584 3.419417475728155  201.7509542166104 3.4932013946829485  201.51079898459278 3.640776699029126  C 201.2713090137701 3.788345366542779  201.15170044853832 3.9902904325318573  201.15170044853832 4.246601941747572  C 201.15170044853832 4.444661438580855  201.20724102249144 4.607766575489229  201.3183377610629 4.735922330097088  C 201.4294344996344 4.864078084704945  201.60761038395302 4.984467263823574  201.8530876163136 5.097087378640777  C 202.09856484867416 5.209707493457979  202.42235316729003 5.341744669201304  202.8241641188326 5.493203883495145  C 203.22530983891917 5.640779187841322  203.57220649732315 5.793206994510392  203.86491645670546 5.950485436893204  C 204.15696118463177 6.10775725725785  204.382150225578 6.298067570658564  204.54047971347543 6.521359223300971  Z M 209.19146353424574 2.7436893203883495  L 209.19146353424574 3.500970873786408  L 207.59500986615566 3.500970873786408  L 207.59500986615566 9.128155339805826  L 206.62393336363664 9.128155339805826  L 206.62393336363664 3.500970873786408  L 205.49036111922598 3.500970873786408  L 205.49036111922598 3.03495145631068  L 206.62393336363664 2.7145631067961165  C 206.62393336363664 2.7145631067961165  206.62393336363664 2.289320388349515  206.62393336363664 2.289320388349515  C 206.62393336363664 1.7534005470646237  206.70406285527406 1.317478424368553  206.86438808214803 0.9815533980582525  C 207.02404806269647 0.6456350085804763  207.25590910541365 0.3980619856454794  207.5599283266768 0.23883495145631067  C 207.86394754793992 0.07961455409966627  208.23419615306443 0  208.67060012170543 0  C 208.916077354066 0  209.14126639501222 0.021361293607545132  209.34616337847544 0.06407766990291262  C 209.55106036193865 0.10680067192003564  209.7313352910485 0.15534063542930826  209.88700377877453 0.20970873786407768  C 209.88700377877453 0.20970873786407768  209.63558607917602 0.9728155339805824  209.63558607917602 0.9728155339805824  C 209.50320134666765 0.9300925319634594  209.35418729983934 0.890288569626299  209.18854007262252 0.8533980582524272  C 209.02289284540564 0.8165009174532104  208.85417207875508 0.7980582524271844  208.68253759000032 0.7980582524271844  C 208.31199337932026 0.7980582524271844  208.03824498476993 0.9174701431422557  207.86128849567228 1.1563106796116505  C 207.68366676024914 1.3951445940628793  207.59500986615566 1.7689307944288533  207.59500986615566 2.2776699029126215  C 207.59500986615566 2.2776699029126215  207.59500986615566 2.7436893203883495  207.59500986615566 2.7436893203883495  L 209.19146353424574 2.7436893203883495  Z M 214.68172446268736 2.7436893203883495  L 215.65767340124512 2.7436893203883495  L 215.65767340124512 9.128155339805826  L 214.86249183972427 9.128155339805826  L 214.7226529254127 8.23106796116505  C 214.7226529254127 8.23106796116505  214.6697869943925 8.23106796116505  214.6697869943925 8.23106796116505  C 214.5374022618841 8.452371260263387  214.36589835703222 8.63877902725368  214.1550141269006 8.790291262135922  C 213.94479514309447 8.941737217579075  213.70780830301752 9.05537812316302  213.44436933065174 9.13106796116505  C 213.18159561948096 9.20682407860617  212.90234653786936 9.244660194174758  212.60631033199007 9.244660194174758  C 212.0993898662402 9.244660194174758  211.67421917636185 9.163110944136832  211.33095019885232 9  C 210.98834648253782 8.836889055863168  210.73010671822735 8.584449456964881  210.5564764904961 8.242718446601941  C 210.38284626276487 7.900987436239001  210.29604478422596 7.462140070350426  210.29604478422596 6.92621359223301  C 210.29604478422596 6.92621359223301  210.29604478422596 2.7436893203883495  210.29604478422596 2.7436893203883495  L 211.27905875503987 2.7436893203883495  C 211.27905875503987 2.7436893203883495  211.27905875503987 6.856310679611651  211.27905875503987 6.856310679611651  C 211.27905875503987 7.388393009519114  211.39983864985084 7.785442078229293  211.64132437451948 8.04757281553398  C 211.8828100991881 8.309703552838668  212.25095968182563 8.440776699029126  212.7459056244997 8.440776699029126  C 213.2215593196481 8.440776699029126  213.60088821965184 8.35143560020669  213.8836194395433 8.172815533980582  C 214.16635065943478 7.994129188315383  214.3697339357675 7.731058628119311  214.49413567519625 7.383495145631068  C 214.61920266838524 7.035931663142825  214.68172446268736 6.609709567468143  214.68172446268736 6.104854368932038  C 214.68172446268736 6.104854368932038  214.68172446268736 2.7436893203883495  214.68172446268736 2.7436893203883495  Z M 218.68637964292003 0.06407766990291262  L 218.68637964292003 9.128155339805826  L 217.71043070436232 9.128155339805826  L 217.71043070436232 0.06407766990291262  L 218.68637964292003 0.06407766990291262  Z M 221.70972620495237 0.06407766990291262  L 221.70972620495237 9.128155339805826  L 220.7328027791869 9.128155339805826  L 220.7328027791869 0.06407766990291262  L 221.70972620495237 0.06407766990291262  Z M 225.3111873029801 9.139805825242718  L 222.74463161957877 2.7436893203883495  L 223.78538395745161 2.7436893203883495  C 223.78538395745161 2.7436893203883495  225.20033938309896 6.448543689320388  225.20033938309896 6.448543689320388  C 225.28216512721917 6.666002855023134  225.35803090275905 6.874729326859262  225.4278821461077 7.0747572815533974  C 225.49839863578183 7.274718971622801  225.5609204375187 7.466013210259595  225.61547093359883 7.648543689320388  C 225.67002142967894 7.831074168381182  225.713080118526 8.00777527151756  225.74434686682324 8.17864077669903  C 225.74434686682324 8.17864077669903  225.78527532954857 8.17864077669903  225.78527532954857 8.17864077669903  C 225.8398258256287 7.984511588383647  225.9175470241579 7.729166597532995  226.01866501580378 7.4126213592233015  C 226.11978300744966 7.096142400352701  226.22876511056467 6.772850732895935  226.34584909580454 6.442718446601942  C 226.34584909580454 6.442718446601942  227.68503814104963 2.7436893203883495  227.68503814104963 2.7436893203883495  L 228.73188102397089 2.7436893203883495  C 228.73188102397089 2.7436893203883495  225.94289863540152 10.06601941747573  225.94289863540152 10.06601941747573  C 225.79454790186438 10.45825450119463  225.6218726674333 10.800035198915353  225.42495868448447 11.09126213592233  C 225.2280447015356 11.382555352368401  224.9895116867864 11.606799227520101  224.70944145219687 11.764077669902912  C 224.42870598615136 11.921356112285725  224.08940903729567 12  223.69158956370603 12  C 223.50864582793997 12  223.34690628907316 11.989369060923753  223.20653855605042 11.967961165048543  C 223.06617082302765 11.946619546760633  222.94532530913636 11.922319741850918  222.843542071165 11.895145631067962  C 222.843542071165 11.895145631067962  222.843542071165 11.120388349514563  222.843542071165 11.120388349514563  C 222.92935931554234 11.139807895549293  223.03376846911235 11.157306408187718  223.15683970845535 11.172815533980582  C 223.27924569403817 11.188390939212539  223.40700680919815 11.196116504854368  223.54005680290152 11.196116504854368  C 223.78154252757017 11.196116504854368  223.9909793164746 11.150488540501271  224.16860105189778 11.059223300970874  C 224.34555754099543 10.967958061440477  224.49821679985251 10.834970092773437  224.62661003953846 10.660194174757283  C 224.75566852554988 10.485418256741125  224.8667496734561 10.277616052720154  224.95988466458763 10.036893203883496  C 224.95988466458763 10.036893203883496  225.3111873029801 9.139805825242718  225.3111873029801 9.139805825242718  Z M 229.8077149013226 9.107766990291262  C 229.67533016881424 8.985417219736044  229.60891951094243 8.790293336146085  229.60891951094243 8.522330097087378  C 229.60891951094243 8.25052270981872  229.67533016881424 8.057313656112523  229.8077149013226 7.942718446601942  C 229.940099633831 7.828189516530454  230.10159555089587 7.770873786407767  230.29252228717633 7.770873786407767  C 230.49143202397113 7.770873786407767  230.65922506797492 7.828189516530454  230.79560130817526 7.942718446601942  C 230.93197754837558 8.057313656112523  231 8.25052270981872  231 8.522330097087378  C 231 8.790293336146085  230.93197754837558 8.985417219736044  230.79560130817526 9.107766990291262  C 230.65922506797492 9.230116760846482  230.49143202397113 9.29126213592233  230.29252228717633 9.29126213592233  C 230.10159555089587 9.29126213592233  229.940099633831 9.230116760846482  229.8077149013226 9.107766990291262  Z " fill-rule="nonzero" fill="#ffffff" stroke="none" fill-opacity="0.9921568627450981" transform="matrix(1 0 0 1 47 97 )" />
  </g>
</svg>