<?xml version="1.0" encoding="utf-8"?>
<svg version="1.1" xmlns:xlink="http://www.w3.org/1999/xlink" width="225px" height="57px" xmlns="http://www.w3.org/2000/svg">
  <g transform="matrix(1 0 0 1 -4 -19 )">
    <path d="M 0 3.8  C 0 1.701317846775055  1.6977966366309594 0  3.7921351565359016 0  C 3.7921351565359016 0  221.2078648434641 0  221.2078648434641 0  C 223.30220336336905 0  225 1.701317846775055  225 3.8  C 225 3.8  225 53.2  225 53.2  C 225 55.298682153224945  223.30220336336905 57  221.2078648434641 57  C 221.2078648434641 57  3.7921351565359016 57  3.7921351565359016 57  C 1.6977966366309594 57  0 55.298682153224945  0 53.2  C 0 53.2  0 3.8  0 3.8  Z " fill-rule="nonzero" fill="#f7f7f8" stroke="none" transform="matrix(1 0 0 1 4 19 )" />
  </g>
</svg>