<?xml version="1.0" encoding="utf-8"?>
<svg version="1.1" xmlns:xlink="http://www.w3.org/1999/xlink" width="129px" height="21px" xmlns="http://www.w3.org/2000/svg">
  <g transform="matrix(1 0 0 1 -52 -37 )">
    <path d="M 15 15.40755288112918  L 15 0.03228517304762815  L 17 0.03228517304762815  L 17 15.40755288112918  L 15 15.40755288112918  Z M 3.435281381642869 20.54281361896357  L 3.435281381642869 19  L 17.273554933214093 19  L 17.273554933214093 20.54281361896357  L 3.435281381642869 20.54281361896357  Z M 3.435281381642869 19.702159652387028  L 3.435281381642869 13.993940381902092  L 5.306913257329976 13.993940381902092  L 5.306913257329976 19.702159652387028  L 3.435281381642869 19.702159652387028  Z M 5.14242661619201 3.309731926542589  C 5.14242661619201 3.309731926542589  5.14242661619201 1.1875867767665924  5.14242661619201 1.1875867767665924  L 6.710239608933477 1.1875867767665924  C 6.710239608933477 1.1875867767665924  6.710239608933477 3.309731926542589  6.710239608933477 3.309731926542589  C 6.710239608933477 4.676647793525048  6.472345197756377 5.961943491285786  5.996548582417471 7.165626282328738  C 5.520941483431279 8.369051196843083  4.856647702248834 9.423446302835458  4.003712980302108 10.328835462818791  C 3.1510309091783966 11.233966746273518  2.1484275112164344 11.924698884400348  0.995853995555451 12.400988763287032  C 0.995853995555451 12.400988763287032  0 10.860124284003847  0 10.860124284003847  C 1.036229788144283 10.442371368429646  1.939849517911835 9.849598160112972  2.7108635940331425 9.081783764945278  C 3.4818145356841477 8.3137115508879  4.079744162642085 7.430556892534528  4.5046324842070575 6.432333796142755  C 4.929836619300799 5.434175140063673  5.14242661619201 4.393310770568904  5.14242661619201 3.309731926542589  Z M 5.485596231883084 3.309731926542589  C 5.485596231883084 3.309731926542589  5.485596231883084 1.1875867767665924  5.485596231883084 1.1875867767665924  L 7.0356854926826315 1.1875867767665924  C 7.0356854926826315 1.1875867767665924  7.0356854926826315 3.309731926542589  7.0356854926826315 3.309731926542589  C 7.0356854926826315 4.101270558869605  7.157674136436435 4.862913209026787  7.4016675463870385 5.594689964530435  C 7.6455977936318895 6.326273283818171  7.995661687832837 7.008168683823932  8.451878174978063 7.640342272862693  C 8.90828415024055 8.272515861901452  9.450337455674282 8.832522064617775  10.078037808924735 9.320351716423364  C 10.705927622056999 9.80798798965196  11.400740764301899 10.191042592329426  12.162470120325574 10.469544516832585  C 12.162470120325574 10.469544516832585  11.180465500953124 12.010408996115773  11.180465500953124 12.010408996115773  C 10.04545093513715 11.55565143271472  9.048162183332185 10.901224350021819  8.188595461987674 10.0471517546473  C 7.329281391466179 9.19301466132117  6.663978277587008 8.189689021887068  6.1926661578857125 7.037193857188629  C 5.721290875478663 5.884763132802883  5.485596231883084 4.642286351296944  5.485596231883084 3.309731926542589  Z M 25.28988612944329 11.082431604449715  L 25.28988612944329 7.122894170287636  L 27.161518005130393 7.122894170287636  L 27.161518005130393 11.082431604449715  L 25.28988612944329 11.082431604449715  Z M 32.833574836187104 11.082431604449715  L 32.833574836187104 7.122894170287636  L 34.705206711874204 7.122894170287636  L 34.705206711874204 11.082431604449715  L 32.833574836187104 11.082431604449715  Z M 20.7027356501918 12  L 20.7027356501918 10  L 39.28628543956321 10  L 39.28628543956321 12  L 20.7027356501918 12  Z M 24.808801013975785 14.485005536849561  C 26.05681182508077 13.848190227934811  27.780300868569775 13.529789374870012  29.979273339765935 13.529789374870012  C 32.178498348843306 13.529789374870012  33.901987505274114 13.848190227934811  35.14974566555608 14.485005536849561  C 36.397503825838065 15.121562969235704  37.021377541243204 16.039376659561746  37.021377541243204 17.23848222868032  C 37.021377541243204 18.431785633544177  36.397503825838065 19.353011547941176  35.14974566555608 20.002140259360647  C 33.901987505274114 20.651204472828507  32.178498348843306 20.975741853523626  29.979273339765935 20.975741853523626  C 27.780300868569775 20.975741853523626  26.05681182508077 20.651204472828507  24.808801013975785 20.002140259360647  C 23.561042853693817 19.353011547941176  22.937140225186 18.431785633544177  22.937140225186 17.23848222868032  C 22.937140225186 16.039376659561746  23.561042853693817 15.121562969235704  24.808801013975785 14.485005536849561  Z M 32.74336595583019 15.27737929949016  C 31.977341648757072 15.100865798473388  31.055989716412054 15.01260546714709  29.979273339765935 15.01260546714709  C 28.911778548747154 15.01260546714709  27.992649988821388 15.100865798473388  27.22188856352309 15.27737929949016  C 26.451379732576914 15.453570454846176  25.861861362014107 15.706180155077899  25.453331898884827 16.035225043423516  C 25.044739273049796 16.364269931769133  24.840431948306062 16.76535127963014  24.840431948306062 17.23848222868032  C 24.840431948306062 17.72121890550432  25.044739273049796 18.129550105557175  25.453331898884827 18.46343009235578  C 25.861861362014107 18.79705220262577  26.451379732576914 19.049685981516372  27.22188856352309 19.221364369670432  C 27.992649988821388 19.392978288692337  28.911778548747154 19.47878993136555  29.979273339765935 19.47878993136555  C 31.055989716412054 19.47878993136555  31.977341648757072 19.392978288692337  32.74336595583019 19.221364369670432  C 33.50932712843301 19.049685981516372  34.09662215481202 18.79705220262577  34.50521478064705 18.46343009235578  C 34.913807406482086 18.129550105557175  35.11808581812314 17.72121890550432  35.11808581812314 17.23848222868032  C 35.11808581812314 16.76535127963014  34.913807406482086 16.364269931769133  34.50521478064705 16.035225043423516  C 34.09662215481202 15.706180155077899  33.50932712843301 15.453570454846176  32.74336595583019 15.27737929949016  Z M 26.137936344106265 0.8663581582808222  C 27.223179601322773 0.5559445321129369  28.507880800901347 0.40073159489373184  29.992052931149832 0.40073159489373184  C 31.48184640103314 0.40073159489373184  32.76798455922648 0.5559445321129369  33.85044865738982 0.8663581582808222  C 34.932849621082866 1.1767717844487076  35.76609886836511 1.6208459163670468  36.35021768876726 2.198608480092637  C 36.93427331822819 2.7764355417698385  37.226313613028374 3.4778964155705983  37.226313613028374 4.302958420227208  C 37.226313613028374 5.112870438203348  36.93427331822819 5.8091288230742935  36.35021768876726 6.391726485252868  C 35.76609886836511 6.974130768854449  34.932849621082866 7.418989049461527  33.85044865738982 7.726308186105599  C 32.76798455922648 8.033562882436978  31.48184640103314 8.187183458029557  29.992052931149832 8.187183458029557  C 28.507880800901347 8.187183458029557  27.223179601322773 8.033562882436978  26.137936344106265 7.726308186105599  C 25.052629952419455 7.418989049461527  24.217943802993343 6.974130768854449  23.633888173532405 6.391726485252868  C 23.049769353130262 5.8091288230742935  22.75770550996325 5.112870438203348  22.75770550996325 4.302958420227208  C 22.75770550996325 3.4778964155705983  23.049769353130262 2.7764355417698385  23.633888173532405 2.198608480092637  C 24.217943802993343 1.6208459163670468  25.052629952419455 1.1767717844487076  26.137936344106265 0.8663581582808222  Z M 32.82117111513802 2.187010607142255  C 32.032913874465024 1.996765411532887  31.089865369163167 1.9016380080832382  29.992052931149832 1.9016380080832382  C 28.909399316633774 1.9016380080832382  27.970039886055904 1.996765411532887  27.17395063928215 2.187010607142255  C 26.37811404333141 2.377062395355168  25.766183161695054 2.6497702394621565  25.338199924019055 3.0051180726142364  C 24.9101535236373 3.360272498369862  24.696126652837687 3.792887292482322  24.696126652837687 4.302958420227208  C 24.696126652837687 4.797879561291625  24.9101535236373 5.22529180883535  25.338199924019055 5.585216892731268  C 25.766183161695054 5.944948569230733  26.37811404333141 6.219979333867109  27.17395063928215 6.4102889841989  C 27.970039886055904 6.600534179808267  28.909399316633774 6.695661583257916  29.992052931149832 6.695661583257916  C 31.089865369163167 6.695661583257916  32.032913874465024 6.600534179808267  32.82117111513802 6.4102889841989  C 33.609428355811026 6.219979333867109  34.2175468302698 5.944948569230733  34.645530067945785 5.585216892731268  C 35.073576468327545 5.22529180883535  35.287574426024484 4.797879561291625  35.287574426024484 4.302958420227208  C 35.287574426024484 3.792887292482322  35.073576468327545 3.360272498369862  34.645530067945785 3.0051180726142364  C 34.2175468302698 2.6497702394621565  33.609428355811026 2.377062395355168  32.82117111513802 2.187010607142255  Z M 42.53606035442085 12.248268680543454  C 42.28442439825131 12.010317148496567  42.15859979895308 11.6307228695689  42.15859979895308 11.109434285746408  C 42.15859979895308 10.580602957559487  42.28442439825131 10.204739156000208  42.53606035442085 9.981873141501639  C 42.78769631059039 9.759007127003066  43.094870384042075 9.647571093710477  43.45760767609256 9.647571093710477  C 43.8350616244646 9.647571093710477  44.15334493644055 9.759007127003066  44.41243397894722 9.981873141501639  C 44.671459858748136 10.204739156000208  44.80096825274086 10.580602957559487  44.80096825274086 11.109434285746408  C 44.80096825274086 11.6307228695689  44.671459858748136 12.010317148496567  44.41243397894722 12.248268680543454  C 44.15334493644055 12.486284681722495  43.8350616244646 12.605294296201777  43.45760767609256 12.605294296201777  C 43.094870384042075 12.605294296201777  42.78769631059039 12.486284681722495  42.53606035442085 12.248268680543454  Z M 55.98976072726539 9.890388647490994  L 55.98976072726539 8.29808627367214  L 59.86027104352766 8.29808627367214  L 59.86027104352766 9.890388647490994  L 55.98976072726539 9.890388647490994  Z M 51.80129302084769 6.478076043148079  C 51.80129302084769 6.478076043148079  51.80129302084769 5.387669407922473  51.80129302084769 5.387669407922473  L 53.262966013656396 5.387669407922473  C 53.262966013656396 5.387669407922473  53.262966013656396 6.478076043148079  53.262966013656396 6.478076043148079  C 53.262966013656396 7.5251015520920586  53.157078721017555 8.556775856885437  52.94529775452775 9.57311452003665  C 52.73357995074372 10.589259746971948  52.425690108588036 11.553023472610336  52.02158195015516 12.464408175425381  C 51.61753695442804 13.37585731855312  51.124503527514086 14.196148492152673  50.54253218263668 14.925282042057571  C 49.96056083775925 15.654157715433863  49.291697148697395 16.25028957244525  48.53590503054367 16.71368585545731  C 48.53590503054367 16.71368585545731  47.42778145728761 15.250494662701872  47.42778145728761 15.250494662701872  C 48.11775916546406 14.833450907581339  48.73515679763644 14.306313529617753  49.27992590176942 13.669111405910094  C 49.82469500590239 13.031586965361138  50.284998602936106 12.318768399990129  50.66087351189976 11.530646602847686  C 51.03674842086341 10.742266929176633  51.320723541201595 9.91836559945443  51.51279808232166 9.058942152569717  C 51.705125260147 8.19945420773339  51.80129302084769 7.339175687468732  51.80129302084769 6.478076043148079  Z M 52.1406461069852 6.478076043148079  C 52.1406461069852 6.478076043148079  52.1406461069852 5.387669407922473  52.1406461069852 5.387669407922473  L 53.60226127358855 5.387669407922473  C 53.60226127358855 5.387669407922473  53.60226127358855 6.478076043148079  53.60226127358855 6.478076043148079  C 53.60226127358855 7.304878685553319  53.70065239259076 8.132515939521864  53.897464051936005 8.960994721724125  C 54.09433887398699 9.789538001877998  54.38296536148313 10.574763212728852  54.76332473784893 11.31666142024407  C 55.14393676503776 12.058366249182297  55.60510826338996 12.727886861233412  56.146845614117666 13.325247752938466  C 56.68877248119808 13.922673084956212  57.304680693286194 14.416103971740986  57.994595266992334 14.805555399412025  C 57.994595266992334 14.805555399412025  56.9270367767942 16.25068578238214  56.9270367767942 16.25068578238214  C 55.9234615145801 15.67891870384934  55.06439139836245 14.88473098675372  54.3497806302384 13.868134447073901  C 53.635422512937346 12.851602347706775  53.088618225671595 11.703870232811173  52.709395749773904 10.424953203784169  C 52.33023643658196 9.146036174757166  52.1406461069852 7.830422174458892  52.1406461069852 6.478076043148079  Z M 47.990575000924544 5.469946430277854  L 47.990575000924544 3.877644056459002  L 57.381435098489455 3.877644056459002  L 57.381435098489455 5.469946430277854  L 47.990575000924544 5.469946430277854  Z M 51.80129302084769 5.092026936632584  L 51.80129302084769 0.7619182794731841  L 53.616081736668875 0.7619182794731841  L 53.616081736668875 5.092026936632584  L 51.80129302084769 5.092026936632584  Z M 64 21  L 64 0.009089427146864233  L 65 0.009089427146864233  L 65 21  L 64 21  Z M 60 19.9248801286123  L 60 0.5000365375859336  L 61 0.5000365375859336  L 61 19.9248801286123  L 60 19.9248801286123  Z M 70.73975114559764 4  L 70.73975114559764 2.146108184981366  L 83.78606590170219 2.146108184981366  L 83.78606590170219 4  L 70.73975114559764 4  Z M 68.5231570418534 18  L 68.5231570418534 16.48314493055048  L 87.10679357053284 16.48314493055048  L 87.10679357053284 18  L 68.5231570418534 18  Z M 82.9835827368605 4.724760959870488  C 82.9835827368605 4.724760959870488  82.9835827368605 2.146108184981366  82.9835827368605 2.146108184981366  L 84.8234969389093 2.146108184981366  C 84.8234969389093 2.146108184981366  84.8234969389093 4.724760959870488  84.8234969389093 4.724760959870488  C 84.8234969389093 5.748320050544832  84.81053400061892 6.773354812852026  84.7846377289094 7.799879425966419  C 84.75937307366912 8.826339598768122  84.68863296441329 9.917368849608836  84.57241555524924 11.07295853265055  C 84.45619814608519 12.228290339163657  84.25157363133441 13.522171238798068  83.95850364607674 14.954586591268079  C 83.95850364607674 14.954586591268079  82.07689674996554 14.771529069865485  82.07689674996554 14.771529069865485  C 82.37880937285148 13.421568267624819  82.59261336711204 12.178079807792976  82.7183050197853 11.041057004255224  C 82.84399667245857 9.904098641030163  82.91948778472302 8.818625090421742  82.9447524399633 7.784622173255612  C 82.97064871167281 6.750425819873566  82.9835827368605 5.730462360313999  82.9835827368605 4.724760959870488  Z M 70.18626762102318 8.515288169129676  L 83.43931106127897 7.946018527366652  L 83.43931106127897 9.3961658019438  L 70.46582841082156 10.107679076329827  L 70.18626762102318 8.515288169129676  Z M 98.18028059157552 2.407488237707913  C 98.18028059157552 2.407488237707913  98.18028059157552 2.1892239416747707  98.18028059157552 2.1892239416747707  C 98.18028059157552 2.1892239416747707  100.01637826407075 2.1892239416747707  100.01637826407075 2.1892239416747707  C 100.01637826407075 3.7110565106464906  99.87269827091872 5.192061126942113  99.58531281623705 6.632212659992467  C 99.29792736155541 8.072106316514217  98.80526892967728 9.448188731518657  98.10733283351769 10.760435696659341  C 97.40876511030055 12.072682661800023  96.45406727875172 13.300670747956003  95.24325870839118 14.444398225959675  C 94.03308170861729 15.588125703963344  92.50489615604923 16.627775045022037  90.65868149527809 17.563399738053615  C 90.65868149527809 17.563399738053615  89.62694633929863 16.067923372250547  89.62694633929863 16.067923372250547  C 91.25462176524158 15.254659017041446  92.61701382701895 14.350855100278107  93.71413144703354 13.356500036537586  C 94.81188063763476 12.361887096268457  95.68665892630058 11.292213641720513  96.33848703785263 10.14751909791511  C 96.99094671999131 9.002824554109706  97.46087555667178 7.7828169222775285  97.74826101135342 6.487460581565944  C 98.03627806485717 5.191910804638446  98.18028059157552 3.8319096483468154  98.18028059157552 2.407488237707913  Z M 90.75909670088049 3.7634359945811955  L 90.75909670088049 2.1892239416747707  L 99.30014288451905 2.1892239416747707  L 99.30014288451905 3.7634359945811955  L 90.75909670088049 3.7634359945811955  Z M 89.71978631199927 7.964079337151979  L 97.89794414392001 7.390442048578127  L 97.89794414392001 8.886331570160596  L 90.01822735784671 9.662385679514783  L 89.71978631199927 7.964079337151979  Z M 103 20.99102861736154  L 103 0  L 105 0  L 105 20.99102861736154  L 103 20.99102861736154  Z M 104.74404642233975 10.125769397242255  L 104.74404642233975 8.520423105245111  L 108.52900286777634 8.520423105245111  L 108.52900286777634 10.125769397242255  L 104.74404642233975 10.125769397242255  Z M 112.72041971066726 11.65028471211193  L 112.72041971066726 10  L 126.84175253746095 10  L 126.84175253746095 11.65028471211193  L 112.72041971066726 11.65028471211193  Z M 110.3613129238207 18  L 110.3613129238207 16.565451464032964  L 129 16.565451464032964  L 129 18  L 110.3613129238207 18  Z M 112.72041971066726 10.77309597018533  L 112.72041971066726 2  L 126.63618037741685 2  L 126.63618037741685 3.5364068937992905  L 114.59725594483648 3.5364068937992905  L 114.59725594483648 10.77309597018533  L 112.72041971066726 10.77309597018533  Z " fill-rule="nonzero" fill="#4c4c57" stroke="none" transform="matrix(1 0 0 1 52 37 )" />
  </g>
</svg>