<?xml version="1.0" encoding="utf-8"?>
<svg version="1.1" xmlns:xlink="http://www.w3.org/1999/xlink" width="100px" height="21px" xmlns="http://www.w3.org/2000/svg">
  <g transform="matrix(1 0 0 1 -67 -37 )">
    <path d="M 8.52701514259253 2.404366193229664  C 8.52701514259253 2.404366193229664  8.52701514259253 2.1863849435805314  8.52701514259253 2.1863849435805314  C 8.52701514259253 2.1863849435805314  10.3575125366761 2.1863849435805314  10.3575125366761 2.1863849435805314  C 10.3575125366761 3.706243991396733  10.214171442639788 5.185328032458738  9.927473631688496 6.623611968786841  C 9.641090671003663 8.061638363002091  9.149934895777035 9.435936266481994  8.454001633219676 10.746481502273623  C 7.758143923466536 12.057026738065248  6.8066434483778915 13.283422362267023  5.599527963194042 14.42566664795374  C 4.392651747323102 15.56791093364046  2.8688789212333257 16.606212051503817  1.0282135384283675 17.540623421096953  C 1.0282135384283675 17.540623421096953  0 16.047086397574805  0 16.047086397574805  C 1.622943819736477 15.234876688220155  2.981293386901555 14.3322448295311  4.0750646903152035 13.339179251108742  C 5.16907526304176 12.34585613057353  6.041112203665462 11.277569834662536  6.691185139257487 10.134359737270533  C 7.3412643802996405 8.991149639878529  7.809769796393051 7.77272412090187  8.096687988456198 6.479047605681243  C 8.383574681418033 5.185177905093892  8.52701514259253 3.8269404060587773  8.52701514259253 2.404366193229664  Z M 1.12881249133451 3.7585555493179146  L 1.12881249133451 2.1863849435805314  L 9.643461745446599 2.1863849435805314  L 9.643461745446599 3.7585555493179146  L 1.12881249133451 3.7585555493179146  Z M 0.09244150199713422 7.9537514736428445  L 8.246116347156898 7.380858081176668  L 8.246116347156898 8.874807724695447  L 0.38959754942103714 9.649855442654241  L 0.09244150199713422 7.9537514736428445  Z M 14 20.96380733172402  L 14 0  L 16 0  L 16 20.96380733172402  L 14 20.96380733172402  Z M 15.070472593126812 10.112638241733565  L 15.070472593126812 8.509373771964295  L 18.844547522340026 8.509373771964295  L 18.844547522340026 10.112638241733565  L 15.070472593126812 10.112638241733565  Z M 29.382331076630745 2.404366193229664  C 29.382331076630745 2.404366193229664  29.382331076630745 2.1863849435805314  29.382331076630745 2.1863849435805314  C 29.382331076630745 2.1863849435805314  31.212857295629192 2.1863849435805314  31.212857295629192 2.1863849435805314  C 31.212857295629192 3.706243991396733  31.069487376678 5.185328032458738  30.782789565726716 6.623611968786841  C 30.496406605041877 8.061638363002091  30.00525082981525 9.435936266481994  29.309317567257892 10.746481502273623  C 28.613447302903154 12.057026738065248  27.661959382416114 13.283422362267023  26.454843897232262 14.42566664795374  C 25.247980292261573 15.56791093364046  23.724233588750902 16.606212051503817  21.88358712229633 17.540623421096953  C 21.88358712229633 17.540623421096953  20.85525828420847 16.047086397574805  20.85525828420847 16.047086397574805  C 22.478221020295333 15.234876688220155  23.836609320939772 14.3322448295311  24.93038062435342 13.339179251108742  C 26.024403807980235 12.34585613057353  26.896438046268166 11.277569834662536  27.546529898210576 10.134359737270533  C 28.19662175015299 8.991149639878529  28.665117229532576 7.77272412090187  28.952003922494413 6.479047605681243  C 29.23889061545625 5.185177905093892  29.382331076630745 3.8269404060587773  29.382331076630745 2.404366193229664  Z M 21.984186075202473 3.7585555493179146  L 21.984186075202473 2.1863849435805314  L 30.498777679484817 2.1863849435805314  L 30.498777679484817 3.7585555493179146  L 21.984186075202473 3.7585555493179146  Z M 20.94772861112048 7.9537514736428445  L 29.101432281195116 7.380858081176668  L 29.101432281195116 8.874807724695447  L 21.24488465854438 9.649855442654241  L 20.94772861112048 7.9537514736428445  Z M 35 20.96380733172402  L 35 0  L 37 0  L 37 20.96380733172402  L 35 20.96380733172402  Z M 35.925788527165025 10.112638241733565  L 35.925788527165025 8.509373771964295  L 39.699863456378246 8.509373771964295  L 39.699863456378246 10.112638241733565  L 35.925788527165025 10.112638241733565  Z M 49.840958532189205 17.070501880648965  L 49.840958532189205 11.856429293212823  L 51.706881746651476 11.856429293212823  L 51.706881746651476 17.070501880648965  L 49.840958532189205 17.070501880648965  Z M 46.94039382328194 2.0635420760119016  C 48.06489394971522 1.610146871151424  49.344273046095935 1.3834559029921967  50.778517713342566 1.3834559029921967  C 52.22201878137772 1.3834559029921967  53.50361446867322 1.610146871151424  54.62332898365367 2.0635420760119016  C 55.74310644053809 2.5170016664005925  56.62355513312642 3.1539638689966596  57.26464240819481 3.974414753270084  C 57.90572968326318 4.794801280797381  58.22627039326696 5.761751835694086  58.22627039326696 6.8752806938752595  C 58.22627039326696 7.985654689956071  57.90572968326318 8.95265877953426  57.26464240819481 9.776264525908045  C 56.62355513312642 10.599548315858678  55.74310644053809 11.237897671128968  54.62332898365367 11.691292875989445  C 53.50361446867322 12.144752466378135  52.22201878137772 12.371467467579857  50.778517713342566 12.371467467579857  C 49.344273046095935 12.371467467579857  48.06489394971522 12.144752466378135  46.94039382328194 11.691292875989445  C 45.81620851896579 11.237897671128968  44.93354323546266 10.599548315858678  44.292393018490316 9.776264525908045  C 43.65130574342194 8.95265877953426  43.33076503341816 7.985654689956071  43.33076503341816 6.8752806938752595  C 43.33076503341816 5.761751835694086  43.65130574342194 4.794801280797381  44.292393018490316 3.974414753270084  C 44.93354323546266 3.1539638689966596  45.81620851896579 2.5170016664005925  46.94039382328194 2.0635420760119016  Z M 53.68012011918526 3.418438780665806  C 52.83098333485745 3.0910439246442203  51.863788256607165 2.927332566103408  50.778517713342566 2.927332566103408  C 49.69324717007794 2.927332566103408  48.72595278098815 3.0910439246442203  47.87662705835114 3.418438780665806  C 47.02742727582071 3.745833636687391  46.360083487132265 4.2040825663227  45.87459259585941 4.793200190871835  C 45.389101704586565 5.382317815420971  45.14633112159761 6.0763341730758444  45.14633112159761 6.8752806938752595  C 45.14633112159761 7.665020228050616  45.389101704586565 8.358336490225714  45.87459259585941 8.955180205467917  C 46.360083487132265 9.552023920710122  47.02742727582071 10.01412959241495  47.87662705835114 10.341524448436536  C 48.72595278098815 10.668726176655568  49.69324717007794 10.83233593442991  50.778517713342566 10.83233593442991  C 51.863788256607165 10.83233593442991  52.83098333485745 10.668726176655568  53.68012011918526 10.341524448436536  C 54.529508783726236 10.01412959241495  55.196951939552854 9.552023920710122  55.68244283082571 8.955180205467917  C 56.16793372209855 8.358336490225714  56.410675480172635 7.665020228050616  56.410675480172635 6.8752806938752595  C 56.410675480172635 6.0763341730758444  56.16793372209855 5.382317815420971  55.68244283082571 4.793200190871835  C 55.196951939552854 4.2040825663227  54.529508783726236 3.745833636687391  53.68012011918526 3.418438780665806  Z M 41.526411837124236 18  L 41.526411837124236 16.698200752259584  L 60.108537334462106 16.698200752259584  L 60.108537334462106 18  L 41.526411837124236 18  Z M 78 20.981844720148207  L 78 0.018066861281086845  L 79 0.018066861281086845  L 79 20.981844720148207  L 78 20.981844720148207  Z M 71.32534940841187 9.689643799472295  L 71.32534940841187 7.991152529051815  L 74.71755186538994 7.991152529051815  L 74.71755186538994 9.689643799472295  L 71.32534940841187 9.689643799472295  Z M 74 19.87587576489081  L 74 0.5211390557458035  L 75 0.5211390557458035  L 75 19.87587576489081  L 74 19.87587576489081  Z M 62.578025441446364 4.243472463930837  L 62.578025441446364 2.6713018581934542  L 71.93070144565596 2.6713018581934542  L 71.93070144565596 4.243472463930837  L 62.578025441446364 4.243472463930837  Z M 65.46544598917163 15.778028686914052  C 64.30316439375007 15.808933218781084  63.27740378801898 15.824360017964409  62.3881557271791 15.824360017964409  C 62.3881557271791 15.824360017964409  62.163926714383436 14.196367821254139  62.163926714383436 14.196367821254139  C 62.83221660208444 14.196367821254139  63.59032976621408 14.190244713808266  64.43827014767868 14.177947285690227  C 65.28621052914329 14.165392319956535  66.17252486671359 14.139801155595304  67.09722442012198 14.101170493459833  C 68.02217585374353 14.062539831324363  68.9372201303441 14.010849628288945  69.84233636312013 13.946143266153932  C 70.74738959769354 13.88117936910159  71.59121944495969 13.794623783723834  72.37379803708095 13.6864579239881  C 72.37379803708095 13.6864579239881  72.50376957824248 15.107963285241116  72.50376957824248 15.107963285241116  C 71.44330884188409 15.314122263947418  70.2956806621717 15.469612328795925  69.06092174583284 15.574430191433224  C 67.82641470970717 15.679248054070522  66.62791641030508 15.747124155047018  65.46544598917163 15.778028686914052  Z M 64 14.650574018974904  L 64 3.686435468478078  L 66 3.686435468478078  L 66 14.650574018974904  L 64 14.650574018974904  Z M 68 14.650574018974904  L 68 3.686435468478078  L 70 3.686435468478078  L 70 14.650574018974904  L 68 14.650574018974904  Z M 98 21  L 98 0  L 100 0  L 100 21  L 98 21  Z M 86.50137883980294 2.519192443720878  C 87.28912086369678 1.9204171626322768  88.1854989248667 1.621036602481334  89.1904839732032 1.621036602481334  C 90.20491436063745 1.621036602481334  91.10363185640233 1.9204171626322768  91.8866512107473 2.519192443720878  C 92.66985950340147 3.1179677248094793  93.28406433632723 3.964603745772049  93.72925506907747 5.059074832987144  C 94.17381612944412 6.153288378089388  94.39609064974529 7.442591512782096  94.39609064974529 8.926974681412451  C 94.39609064974529 10.417603217497403  94.17381612944412 11.711594148234436  93.72925506907747 12.80896255543704  C 93.28406433632723 13.906073420526791  92.66985950340147 14.754144631466485  91.8866512107473 15.35317745466794  C 91.10363185640233 15.95195273575654  90.20491436063745 16.251333295907482  89.1904839732032 16.251333295907482  C 88.1854989248667 16.251333295907482  87.28912086369678 15.95195273575654  86.50137883980294 15.35317745466794  C 85.7136368159091 14.754144631466485  85.09723886861056 13.906073420526791  84.6521740759669 12.80896255543704  C 84.20729819348314 11.711594148234436  83.98484847174625 10.417603217497403  83.98484847174625 8.926974681412451  C 83.98484847174625 7.442591512782096  84.20729819348314 6.153288378089388  84.6521740759669 5.059074832987144  C 85.09723886861056 3.964603745772049  85.7136368159091 3.1179677248094793  86.50137883980294 2.519192443720878  Z M 90.95759537948145 4.033036265648684  C 90.44823926025106 3.57474784699026  89.85921462312794 3.3456113512603154  89.1904839732032 3.3456113512603154  C 88.52175332327849 3.3456113512603154  87.93272339408112 3.57474784699026  87.42343021675471 4.033036265648684  C 86.91432597773749 4.491067170976341  86.51608559849423 5.138014599041957  86.22869514510606 5.973853365519564  C 85.94130469171789 6.809756546307473  85.79761854318303 7.794130510152347  85.79761854318303 8.926974681412451  C 85.79761854318303 10.060076394785408  85.94130469171789 11.0484086439021  86.22869514510606 11.891973558636952  C 86.51608559849423 12.735345288005073  86.91432597773749 13.387584648117334  87.42343021675471 13.848706001235053  C 87.93272339408112 14.309891739880985  88.52175332327849 14.540492898444956  89.1904839732032 14.540492898444956  C 89.85921462312794 14.540492898444956  90.44823926025106 14.309891739880985  90.95759537948145 13.848706001235053  C 91.46695149871182 13.387584648117334  91.86534354655014 12.735345288005073  92.1527339999383 11.891973558636952  C 92.44006148327318 11.0484086439021  92.58372412711672 10.060076394785408  92.58372412711672 8.926974681412451  C 92.58372412711672 7.794130510152347  92.44006148327318 6.809756546307473  92.1527339999383 5.973853365519564  C 91.86534354655014 5.138014599041957  91.46695149871182 4.491067170976341  90.95759537948145 4.033036265648684  Z " fill-rule="nonzero" fill="#4c4c57" stroke="none" transform="matrix(1 0 0 1 67 37 )" />
  </g>
</svg>