<?xml version="1.0" encoding="utf-8"?>
<svg version="1.1" xmlns:xlink="http://www.w3.org/1999/xlink" width="100px" height="21px" xmlns="http://www.w3.org/2000/svg">
  <g transform="matrix(1 0 0 1 -62 -37 )">
    <path d="M 0 14.54694745410655  L 0 2.26714057149273  L 2 2.26714057149273  L 2 14.54694745410655  L 0 14.54694745410655  Z M 0 15.669273844944701  L 0 14.00158170998709  C 0 14.00158170998709  1.3257156406201782 14.00158170998709  1.3257156406201782 14.00158170998709  C 2.524476811199717 14.00158170998709  3.705398656697357 13.959804647684779  4.868454162794766 13.876233649581767  C 6.0317445118528115 13.792469494894112  7.264987416685117 13.6158489890525  8.568218972053156 13.346400101049795  C 8.568218972053156 13.346400101049795  8.829968193750215 14.987065626228036  8.829968193750215 14.987065626228036  C 7.4810205798800045 15.268554377749924  6.20621262762018 15.452607620060226  5.005547061103681 15.539269073148823  C 3.80511645105336 15.625930526237422  2.5785083990103628 15.669273844944701  1.3257156406201782 15.669273844944701  C 1.3257156406201782 15.669273844944701  0 15.669273844944701  0 15.669273844944701  Z M 15 20.972767080222308  L 15 0.009077639925896818  L 17 0.009077639925896818  L 17 20.972767080222308  L 15 20.972767080222308  Z M 5.7411065413478335 8.638288048054791  L 5.7411065413478335 7.048080053893224  L 10.895950616336894 7.048080053893224  L 10.895950616336894 8.638288048054791  L 5.7411065413478335 8.638288048054791  Z M 11 19.908119070341886  L 11 0.5084657272778308  L 13 0.5084657272778308  L 13 19.908119070341886  L 11 19.908119070341886  Z M 35 21  L 35 0  L 37 0  L 37 21  L 35 21  Z M 23.321832407273423 2.519192443720878  C 24.115991903023335 1.9204171626322768  25.019629193929788 1.621036602481334  26.032657050985886 1.621036602481334  C 27.055269883301047 1.621036602481334  27.961231086617406 1.9204171626322768  28.750629819536 2.519192443720878  C 29.539965046105404 3.1179677248094793  30.158976584660817 3.964603745772049  30.6076312915848 5.059074832987144  C 31.056349476481575 6.153288378089388  31.280717323044684 7.442591512782096  31.280717323044684 8.926974681412451  C 31.280717323044684 10.417603217497403  31.056349476481575 11.711594148234436  30.6076312915848 12.80896255543704  C 30.158976584660817 13.906073420526791  29.539965046105404 14.754144631466485  28.750629819536 15.35317745466794  C 27.961231086617406 15.95195273575654  27.055269883301047 16.251333295907482  26.032657050985886 16.251333295907482  C 25.019629193929788 16.251333295907482  24.115991903023335 15.95195273575654  23.321832407273423 15.35317745466794  C 22.527736417872696 14.754144631466485  21.906395632147035 13.906073420526791  21.45774092522306 12.80896255543704  C 21.009276652217505 11.711594148234436  20.785061697615724 10.417603217497403  20.785061697615724 8.926974681412451  C 20.785061697615724 7.442591512782096  21.009276652217505 6.153288378089388  21.45774092522306 5.059074832987144  C 21.906395632147035 3.964603745772049  22.527736417872696 3.1179677248094793  23.321832407273423 2.519192443720878  Z M 27.813993006460624 4.033036265648684  C 27.3005283959804 3.57474784699026  26.706781714882368 3.3456113512603154  26.032657050985886 3.3456113512603154  C 25.358532387089404 3.3456113512603154  24.764722256394958 3.57474784699026  24.251321095511152 4.033036265648684  C 23.738110396922153 4.491067170976341  23.336657791396142 5.138014599041957  23.046949232622644 5.973853365519564  C 22.757240673849154 6.809756546307473  22.612424603264543 7.794130510152347  22.612424603264543 8.926974681412451  C 22.612424603264543 10.060076394785408  22.757240673849154 11.0484086439021  23.046949232622644 11.891973558636952  C 23.336657791396142 12.735345288005073  23.738110396922153 13.387584648117334  24.251321095511152 13.848706001235053  C 24.764722256394958 14.309891739880985  25.358532387089404 14.540492898444956  26.032657050985886 14.540492898444956  C 26.706781714882368 14.540492898444956  27.3005283959804 14.309891739880985  27.813993006460624 13.848706001235053  C 28.327457616940855 13.387584648117334  28.729063114428183 12.735345288005073  29.018771673201684 11.891973558636952  C 29.30841675400237 11.0484086439021  29.453238187723706 10.060076394785408  29.453238187723706 8.926974681412451  C 29.453238187723706 7.794130510152347  29.30841675400237 6.809756546307473  29.018771673201684 5.973853365519564  C 28.729063114428183 5.138014599041957  28.327457616940855 4.491067170976341  27.813993006460624 4.033036265648684  Z M 56 21  L 56 0  L 58 0  L 58 21  L 56 21  Z M 50.733205829382975 9.360785662156852  L 50.733205829382975 7.784665693594566  L 56.733213965460024 7.784665693594566  L 56.733213965460024 9.360785662156852  L 50.733205829382975 9.360785662156852  Z M 42 15.723651265929378  L 42 1.6587029136024252  L 43.7695374814541 1.6587029136024252  L 43.7695374814541 7.107467860551282  L 49.50454196501371 7.107467860551282  L 49.50454196501371 1.6587029136024252  L 51 1.6587029136024252  L 51 15.723651265929378  L 42 15.723651265929378  Z M 49.50454196501371 8.638288048054791  L 43.7695374814541 8.638288048054791  L 43.7695374814541 14.142403020266098  L 49.50454196501371 14.142403020266098  L 49.50454196501371 8.638288048054791  Z M 78 20.981844720148207  L 78 0.018066861281086845  L 79 0.018066861281086845  L 79 20.981844720148207  L 78 20.981844720148207  Z M 71.09408733846256 9.689643799472295  L 71.09408733846256 7.991152529051815  L 74.51362240815095 7.991152529051815  L 74.51362240815095 9.689643799472295  L 71.09408733846256 9.689643799472295  Z M 74 19.87587576489081  L 74 0.5211390557458035  L 75 0.5211390557458035  L 75 19.87587576489081  L 74 19.87587576489081  Z M 62.27614891578056 4.243472463930837  L 62.27614891578056 2.6713018581934542  L 71.70429311728562 2.6713018581934542  L 71.70429311728562 4.243472463930837  L 62.27614891578056 4.243472463930837  Z M 65.18688859560268 15.778028686914052  C 64.01523198026014 15.808933218781084  62.981197539555865 15.824360017964409  62.084776760574435 15.824360017964409  C 62.084776760574435 15.824360017964409  61.858768163065584 14.196367821254139  61.858768163065584 14.196367821254139  C 62.53244850952879 14.196367821254139  63.29667665134032 14.190244713808266  64.15145656119404 14.177947285690227  C 65.00623647104777 14.165392319956535  65.8996708057869 14.139801155595304  66.83182903080144 14.101170493459833  C 67.76424116770721 14.062539831324363  68.68666623598124 14.010849628288945  69.59908318034603 13.946143266153932  C 70.51143661836161 13.88117936910159  71.36207283824795 13.794623783723834  72.15096374738411 13.6864579239881  C 72.15096374738411 13.6864579239881  72.28195458790479 15.107963285241116  72.28195458790479 15.107963285241116  C 71.2129401236306 15.314122263947418  70.05611323399764 15.469612328795925  68.81139469213956 15.574430191433224  C 67.5669300621727 15.679248054070522  66.3587355597345 15.747124155047018  65.18688859560268 15.778028686914052  Z M 64 14.650574018974904  L 64 3.686435468478078  L 65 3.686435468478078  L 65 14.650574018974904  L 64 14.650574018974904  Z M 68 14.650574018974904  L 68 3.686435468478078  L 70 3.686435468478078  L 70 14.650574018974904  L 68 14.650574018974904  Z M 98 21  L 98 0  L 100 0  L 100 21  L 98 21  Z M 86.39252736191769 2.519192443720878  C 87.18662335131842 1.9204171626322768  88.09020258414157 1.621036602481334  89.10329389079408 1.621036602481334  C 90.12590672310925 1.621036602481334  91.03187331793869 1.9204171626322768  91.82120854450811 2.519192443720878  C 92.61073423337233 3.1179677248094793  93.22989327237595 3.964603745772049  93.67867493524554 5.059074832987144  C 94.12682184676345 6.153288378089388  94.35088924416426 7.442591512782096  94.35088924416426 8.926974681412451  C 94.35088924416426 10.417603217497403  94.12682184676345 11.711594148234436  93.67867493524554 12.80896255543704  C 93.22989327237595 13.906073420526791  92.61073423337233 14.754144631466485  91.82120854450811 15.35317745466794  C 91.03187331793869 15.95195273575654  90.12590672310925 16.251333295907482  89.10329389079408 16.251333295907482  C 88.09020258414157 16.251333295907482  87.18662335131842 15.95195273575654  86.39252736191769 15.35317745466794  C 85.59843137251697 14.754144631466485  84.97703247195521 13.906073420526791  84.52837776503125 12.80896255543704  C 84.0799134920257 11.711594148234436  83.85569853742392 10.417603217497403  83.85569853742392 8.926974681412451  C 83.85569853742392 7.442591512782096  84.0799134920257 6.153288378089388  84.52837776503125 5.059074832987144  C 84.97703247195521 3.964603745772049  85.59843137251697 3.1179677248094793  86.39252736191769 2.519192443720878  Z M 90.88468796110489 4.033036265648684  C 90.37122335062466 3.57474784699026  89.77741855469057 3.3456113512603154  89.10329389079408 3.3456113512603154  C 88.4291692268976 3.3456113512603154  87.83541721103923 3.57474784699026  87.32201605015544 4.033036265648684  C 86.80880535156643 4.491067170976341  86.40735274604042 5.138014599041957  86.11764418726693 5.973853365519564  C 85.82793562849342 6.809756546307473  85.68306144307275 7.794130510152347  85.68306144307275 8.926974681412451  C 85.68306144307275 10.060076394785408  85.82793562849342 11.0484086439021  86.11764418726693 11.891973558636952  C 86.40735274604042 12.735345288005073  86.80880535156643 13.387584648117334  87.32201605015544 13.848706001235053  C 87.83541721103923 14.309891739880985  88.4291692268976 14.540492898444956  89.10329389079408 14.540492898444956  C 89.77741855469057 14.540492898444956  90.37122335062466 14.309891739880985  90.88468796110489 13.848706001235053  C 91.39815257158513 13.387584648117334  91.79969995423637 12.735345288005073  92.08940851300989 11.891973558636952  C 92.37905359381057 11.0484086439021  92.5238750275319 10.060076394785408  92.5238750275319 8.926974681412451  C 92.5238750275319 7.794130510152347  92.37905359381057 6.809756546307473  92.08940851300989 5.973853365519564  C 91.79969995423637 5.138014599041957  91.39815257158513 4.491067170976341  90.88468796110489 4.033036265648684  Z " fill-rule="nonzero" fill="#4c4c57" stroke="none" transform="matrix(1 0 0 1 62 37 )" />
  </g>
</svg>