<?xml version="1.0" encoding="utf-8"?>
<svg version="1.1" xmlns:xlink="http://www.w3.org/1999/xlink" width="82px" height="21px" xmlns="http://www.w3.org/2000/svg">
  <g transform="matrix(1 0 0 1 -76 -37 )">
    <path d="M 14 20.99102861736154  L 14 0  L 16 0  L 16 20.99102861736154  L 14 20.99102861736154  Z M 15.241306619173148 10.125769397242255  L 15.241306619173148 8.520423105245111  L 19.041257634403728 8.520423105245111  L 19.041257634403728 10.125769397242255  L 15.241306619173148 10.125769397242255  Z M 8.56949466405792 2.5663761460154357  C 8.56949466405792 2.5663761460154357  8.56949466405792 2.2613786474347806  8.56949466405792 2.2613786474347806  C 8.56949466405792 2.2613786474347806  10.421437490620688 2.2613786474347806  10.421437490620688 2.2613786474347806  C 10.421437490620688 4.250024219325291  10.104531481330483 6.155285986316324  9.47070965622885 7.977152766457372  C 8.836824400507295 9.798826225660347  7.8335632019882 11.478665403850993  6.460990568308269 13.016679407978685  C 5.088734917672671 14.554500091168304  3.285768465603418 15.890439764979005  1.052017294738243 17.024497046076707  C 1.052017294738243 17.024497046076707  0 15.5376969516411  0 15.5376969516411  C 1.9096441706885616 14.55352783786376  3.4989905795015024 13.409812694588993  4.7680925104269605 12.106526737081154  C 6.037257815287248 10.803240779573311  6.98808116406208 9.349554705856622  7.6205081957465355 7.7454609075936345  C 8.253188836540495 6.14117367311473  8.56949466405792 4.414803862769395  8.56949466405792 2.5663761460154357  Z M 0.9578674353216997 3.8536810212536325  L 0.9578674353216997 2.2613786474347806  L 9.545182078936264 2.2613786474347806  L 9.545182078936264 3.8536810212536325  L 0.9578674353216997 3.8536810212536325  Z M 25.898234849407224 3.2437745574736225  C 25.898234849407224 3.2437745574736225  25.898234849407224 1.102801308607693  25.898234849407224 1.102801308607693  L 27.463084454839155 1.102801308607693  C 27.463084454839155 1.102801308607693  27.463084454839155 3.2437745574736225  27.463084454839155 3.2437745574736225  C 27.463084454839155 4.584774236803608  27.229656882583527 5.835004029454564  26.76270701728058 6.994461745147528  C 26.295757151977636 8.153919460840491  25.6363157051577 9.16274731158902  24.784457104348885 10.020945873782315  C 23.93278873871474 10.878951057398616  22.932659618366525 11.533629647519449  21.784083347726742 11.984970404555394  C 21.784083347726742 11.984970404555394  20.776993297864205 10.448178460812034  20.776993297864205 10.448178460812034  C 21.817153431429105 10.058727033140997  22.72119219154593 9.502810023612415  23.489170968171223 8.780445646125049  C 24.25708637086169 8.057823392109077  24.850530440028077 7.220391325889269  25.269485603291326 6.268133884957195  C 25.688630973386697 5.315618567496515  25.898234849407224 4.307497254630788  25.898234849407224 3.2437745574736225  Z M 26.242386832440943 3.3884381025188453  C 26.242386832440943 3.3884381025188453  26.242386832440943 1.102801308607693  26.242386832440943 1.102801308607693  L 27.775543575208612 1.102801308607693  C 27.775543575208612 1.102801308607693  27.775543575208612 3.3884381025188453  27.775543575208612 3.3884381025188453  C 27.775543575208612 4.095845929541657  27.89794222436245 4.782788539226437  28.142797681576347 5.449259130180608  C 28.387970150177118 6.115536342557785  28.732737393218553 6.735400563816232  29.17705304229396 7.30884378214605  C 29.621685674413698 7.882093621898873  30.15082212022912 8.389408456483736  30.76448236123577 8.830821140085105  C 31.37814260224243 9.27204041629002  32.05669678886741 9.624171824782776  32.800139309286436 9.88720144576417  C 32.800139309286436 9.88720144576417  31.796531991584814 11.400797643606765  31.796531991584814 11.400797643606765  C 30.69620414546441 10.980401551253275  29.728205099908664 10.373235760485935  28.892513824747784 9.579311856727694  C 28.05701278476157 8.785387952969451  27.406361835542306 7.8571691695059425  26.940616585166957 6.794671414679116  C 26.475124943901108 5.731915783323683  26.242386832440943 4.59650467927026  26.242386832440943 3.3884381025188453  Z M 35 12.746593572757575  L 35 0.018090320912427838  L 37 0.018090320912427838  L 37 12.746593572757575  L 35 12.746593572757575  Z M 36.37527996353041 7.0568187567102685  L 36.37527996353041 5.437366145959223  L 39.93846323735527 5.437366145959223  L 39.93846323735527 7.0568187567102685  L 36.37527996353041 7.0568187567102685  Z M 26.693168465134452 13.766616169849184  C 27.711201572348273 13.465614892878122  28.919492301533815 13.315095925215992  30.317996098207384 13.315095925215992  C 31.7314624922311 13.315095925215992  32.941832317285744 13.465614892878122  33.94915069470596 13.766616169849184  C 34.95678605517051 14.067359570291641  35.733162331641395 14.50348278783274  36.278285872849125 15.074991989836931  C 36.82372645378628 15.646307755625209  37.09643770298241 16.336405577436143  37.09643770298241 17.145286089297862  C 37.09643770298241 17.948428934856473  36.82372645378628 18.634737228225354  36.278285872849125 19.204247915952312  C 35.733162331641395 19.77382304399196  34.95678605517051 20.209114013165475  33.94915069470596 20.51011529013654  C 32.941832317285744 20.8111165671076  31.7314624922311 20.96163553476973  30.317996098207384 20.96163553476973  C 28.919492301533815 20.96163553476973  27.711201572348273 20.8111165671076  26.693168465134452 20.51011529013654  C 25.675325479725117 20.209114013165475  24.893738142584432 19.77382304399196  24.348360992267203 19.204247915952312  C 23.802920411330042 18.634737228225354  23.53015111659791 17.948428934856473  23.53015111659791 17.145286089297862  C 23.53015111659791 16.336405577436143  23.802920411330042 15.646307755625209  24.348360992267203 15.074991989836931  C 24.893738142584432 14.50348278783274  25.675325479725117 14.067359570291641  26.693168465134452 13.766616169849184  Z M 32.954192161870594 15.119258680487242  C 32.21905519807508 14.938425819664966  31.340340560282765 14.848021911309225  30.317996098207384 14.848021911309225  C 29.30135778441074 14.848021911309225  28.42625914543477 14.938425819664966  27.69277064085103 15.119258680487242  C 26.95928213626729 15.300091541309518  26.392951794520663 15.561058957006942  25.993777801688136 15.902159371328676  C 25.59460380885561 16.243066378253953  25.39503809769205 16.65745643749227  25.39503809769205 17.145286089297862  C 25.39503809769205 17.627313634487653  25.59460380885561 18.040362868346733  25.993777801688136 18.384428805108517  C 26.392951794520663 18.728430272738148  26.95928213626729 18.990834770811407  27.69277064085103 19.17166763163368  C 28.42625914543477 19.35224261592735  29.30135778441074 19.442520756159396  30.317996098207384 19.442520756159396  C 31.340340560282765 19.442520756159396  32.21905519807508 19.35224261592735  32.954192161870594 19.17166763163368  C 33.689329125666106 18.990834770811407  34.254122479437854 18.728430272738148  34.648541358152286 18.384428805108517  C 35.04321384597622 18.040362868346733  35.240547779970605 17.627313634487653  35.240547779970605 17.145286089297862  C 35.240547779970605 16.65745643749227  35.04321384597622 16.243066378253953  34.648541358152286 15.902159371328676  C 34.254122479437854 15.561058957006942  33.689329125666106 15.300091541309518  32.954192161870594 15.119258680487242  Z M 49.8867135183806 7.403131833231217  L 49.8867135183806 5.843114632459991  L 54.45478111169943 5.843114632459991  L 54.45478111169943 7.403131833231217  L 49.8867135183806 7.403131833231217  Z M 49.72586933808269 12.678039224503792  L 49.72586933808269 11.108844063204403  L 54.419141152586135 11.108844063204403  L 54.419141152586135 12.678039224503792  L 49.72586933808269 12.678039224503792  Z M 57 21  L 57 0.009089427146864233  L 59 0.009089427146864233  L 59 21  L 57 21  Z M 53 19.93396955575917  L 53 0.5541009224335157  L 55 0.5541009224335157  L 55 19.93396955575917  L 53 19.93396955575917  Z M 48.860642578241126 3.0174832348692235  C 48.860642578241126 3.0174832348692235  48.860642578241126 2.6675402897149505  48.860642578241126 2.6675402897149505  C 48.860642578241126 2.6675402897149505  50.67735176444272 2.6675402897149505  50.67735176444272 2.6675402897149505  C 50.67735176444272 4.497143250436343  50.42107930580856 6.251910027556015  49.90848059438628 7.931882697485651  C 49.395881882964 9.611597490886684  48.57253163293685 11.17298373128854  47.438410854798384 12.616036346466254  C 46.30460717307445 14.05876664480267  44.81396708488504 15.345882118549362  42.96658276019265 16.47736074963884  C 42.96658276019265 16.47736074963884  41.858841750879876 15.095295645281874  41.858841750879876 15.095295645281874  C 43.46916890007779 14.111126531504533  44.79196805347568 12.994347093101283  45.82718286609036 11.744956407849399  C 46.862587913879715 10.495307961346745  47.62694700715756 9.13785709671464  48.120271766368134 7.672627445910321  C 48.61385013468821 6.207075478264705  48.860642578241126 4.655358281990414  48.860642578241126 3.0174832348692235  Z M 42.768995755597146 4.250723725259839  L 42.768995755597146 2.6675402897149505  L 49.5931772427521 2.6675402897149505  L 49.5931772427521 4.250723725259839  L 42.768995755597146 4.250723725259839  Z M 68.17227631940334 3.759776614820769  C 68.17227631940334 3.759776614820769  68.17227631940334 2.5286609255813697  68.17227631940334 2.5286609255813697  L 69.72824495782497 2.5286609255813697  C 69.72824495782497 2.5286609255813697  69.72824495782497 3.759776614820769  69.72824495782497 3.759776614820769  C 69.72824495782497 4.984024742005999  69.48398973906893 6.119561498905279  68.99542006563392 7.166393571633343  C 68.50704057068849 8.213161204048717  67.82763888522663 9.116234547499566  66.95726715953461 9.87560357281379  C 66.08702223839735 10.634714779238326  65.07314420524158 11.208982234125827  63.91556498126969 11.598433661796863  C 63.91556498126969 11.598433661796863  62.9704095183353 10.084483330429064  62.9704095183353 10.084483330429064  C 64.00207391678713 9.747444413793957  64.90814976911857 9.265598661758219  65.6886819699239 8.638969302806649  C 66.46921417072926 8.01233994385508  67.07825494504719 7.280788153056651  67.5157232615362 6.44431531374544  C 67.95344518713469 5.607584597905624  68.17227631940334 4.71274318738705  68.17227631940334 3.759776614820769  Z M 68.53070750429679 3.759776614820769  C 68.53070750429679 3.759776614820769  68.53070750429679 2.5286609255813697  68.53070750429679 2.5286609255813697  L 70.07773713017207 2.5286609255813697  C 70.07773713017207 2.5286609255813697  70.07773713017207 3.759776614820769  70.07773713017207 3.759776614820769  C 70.07773713017207 4.641441537644781  70.29041498214237 5.478268798675794  70.7157736620504 6.270258686108409  C 71.14113234195842 7.062055137325111  71.73790311756514 7.757607041952175  72.5060721293651 8.356901949982856  C 73.27449475027457 8.95593898148493  74.15634673795147 9.416220024961934  75.15155547879071 9.737786609255814  C 75.15155547879071 9.737786609255814  74.24708993660295 11.242381913332846  74.24708993660295 11.242381913332846  C 73.11062330254411 10.868338348870884  72.11343149038461 10.31785138672874  71.25542301038307 9.590909729678076  C 70.39735109976161 8.863968072627411  69.72862435115753 8.001037412731382  69.24931124016412 7.002105127066483  C 68.77025173828021 6.002914964872976  68.53070750429679 4.922135412641091  68.53070750429679 3.759776614820769  Z M 63.59201916352135 3.54762112209737  L 63.59201916352135 2  L 74.64795240832345 2  L 74.64795240832345 3.54762112209737  L 63.59201916352135 3.54762112209737  Z M 68.19009629895999 15.598224273323629  L 68.19009629895999 10.722720476225273  L 70.08278709180537 10.722720476225273  L 70.08278709180537 15.598224273323629  L 68.19009629895999 15.598224273323629  Z M 78.18611805612579 10.346630672460218  L 78.18611805612579 8.718088634562308  L 82 8.718088634562308  L 82 10.346630672460218  L 78.18611805612579 10.346630672460218  Z M 76 21  L 76 0.009089427146864233  L 78 0.009089427146864233  L 78 21  L 76 21  Z M 66.81099240877647 16.589709610509335  C 65.38922040144416 16.609759171979803  64.08316557126362 16.619781449024448  62.89274459114706 16.619781449024448  C 62.89274459114706 16.619781449024448  62.635196547847926 15.01298911179939  62.635196547847926 15.01298911179939  C 63.846603370007905 15.01298911179939  65.18275118276627 15.004433419251601  66.64370517398086 14.987284920095112  C 68.1049761482398 14.970071953607684  69.59893752944306 14.918063084326903  71.12557514631722 14.831289102243408  C 72.65214938925655 14.744515120159912  74.12471362137605 14.598869494374265  75.54318871028482 14.39437686552482  C 75.54318871028482 14.39437686552482  75.69178528248355 15.812622611706642  75.69178528248355 15.812622611706642  C 74.22512525636043 16.078295409467326  72.73375370372108 16.269155028760284  71.21757732090121 16.38519749970489  C 69.70165454719084 16.501239970649493  68.2327644161088 16.569402177913904  66.81099240877647 16.589709610509335  Z " fill-rule="nonzero" fill="#4c4c57" stroke="none" transform="matrix(1 0 0 1 76 37 )" />
  </g>
</svg>