<?xml version="1.0" encoding="utf-8"?>
<svg version="1.1" xmlns:xlink="http://www.w3.org/1999/xlink" width="80px" height="21px" xmlns="http://www.w3.org/2000/svg">
  <g transform="matrix(1 0 0 1 -77 -37 )">
    <path d="M 2.3999779077152943 12.453667265480266  L 2.3999779077152943 10.895673103912873  L 16.5970614354462 10.895673103912873  L 16.5970614354462 12.453667265480266  L 2.3999779077152943 12.453667265480266  Z M 0 18  L 0 16.784821478695335  L 18.739199125610625 16.784821478695335  L 18.739199125610625 18  L 0 18  Z M 8.39373102352683 17.517074608432043  L 8.39373102352683 11.700370515915344  L 10.275470442121847 11.700370515915344  L 10.275470442121847 17.517074608432043  L 8.39373102352683 17.517074608432043  Z M 2.3999779077152943 11.47107168921574  L 2.3999779077152943 2  L 16.38991719753555 2  L 16.38991719753555 3.2931791388311904  L 4.322064814693695 3.2931791388311904  L 4.322064814693695 11.47107168921574  L 2.3999779077152943 11.47107168921574  Z M 3.717957103178237 8  L 3.717957103178237 6.216532869252792  L 15.94307167056915 6.216532869252792  L 15.94307167056915 8  L 3.717957103178237 8  Z M 29.31367119994535 3.061375119294897  C 29.31367119994535 3.061375119294897  29.31367119994535 1.4559001852579578  29.31367119994535 1.4559001852579578  L 30.966057820741458 1.4559001852579578  C 30.966057820741458 1.4559001852579578  30.966057820741458 3.061375119294897  30.966057820741458 3.061375119294897  C 30.966057820741458 3.975698549470541  30.8113787563697 4.842478750048245  30.502061704332558 5.661706338067703  C 30.19299866360754 6.48067638397431  29.768755573033168 7.241713672839885  29.229371692516093 7.944791725144558  C 28.690241823311137 8.647612235336377  28.066369658517957 9.277034740033614  27.357690077221257 9.833058721158705  C 26.649010495924554 10.389147116594096  25.89293963691984 10.861866038902853  25.089451951460923 11.251263122438669  C 24.286281751754665 11.640724591502694  23.47350369055613 11.932517358887734  22.651219508650144 12.126636445292764  C 22.651219508650144 12.126636445292764  21.80787560880959 10.519422612698593  21.80787560880959 10.519422612698593  C 22.52754098064309 10.371660329490751  23.248504853307956 10.137429634650605  23.970710281487683 9.81673075843485  C 24.693233252195057 9.495903111162669  25.375093519766054 9.096197118808945  26.01639770763477 8.617627575366305  C 26.657638421062956 8.139122417451878  27.22477204386699 7.6068743108746055  27.71773618033118 7.020847134115534  C 28.21063678557984 6.43488437166676  28.59986231042603 5.805306846649918  28.88542970220472 5.1321675181047555  C 29.170933591155382 4.458835061757039  29.31367119994535 3.768573787841043  29.31367119994535 3.061375119294897  Z M 29.663717637346423 3.061375119294897  C 29.663717637346423 3.061375119294897  29.663717637346423 1.4559001852579578  29.663717637346423 1.4559001852579578  L 31.302209373814538 1.4559001852579578  C 31.302209373814538 1.4559001852579578  31.302209373814538 3.061375119294897  31.302209373814538 3.061375119294897  C 31.302209373814538 3.7745615556186145  31.444946982604506 4.467017118269487  31.730450871555163 5.13873996519396  C 32.016018263333855 5.810205270005579  32.408422790280994 6.441218042563717  32.90773709599824 7.03175209116937  C 33.40711487615603 7.622350554085323  33.97732740675093 8.153994668570707  34.618377583307534 8.626705215292203  C 35.259681771176254 9.099222605429057  35.94150536210272 9.498223004924421  36.66377432149797 9.823686352663785  C 37.38623376098981 10.149149700403147  38.110223683928446 10.381060458308408  38.83579473360629 10.519422612698593  C 38.83579473360629 10.519422612698593  37.978555949437734 12.126636445292764  37.978555949437734 12.126636445292764  C 37.15652577884388 11.932517358887734  36.346041143428344 11.640724591502694  35.54712560481263 11.251263122438669  C 34.748464077509034 10.861866038902853  33.994776121673986 10.390582306571218  33.28609654037729 9.837391231123338  C 32.57741695908059 9.284264512421581  31.951156497493542 8.656306728122544  31.40726400134879 7.953486217930725  C 30.86337150520404 7.2506012934286055  30.436687345481182 6.487268172625856  30.12730679061601 5.663533655195644  C 29.81824374989099 4.839670366709005  29.663717637346423 3.9722861452573257  29.663717637346423 3.061375119294897  Z M 21.031680626955783 18  L 21.031680626955783 16.55911834053781  L 39.77099602774907 16.55911834053781  L 39.77099602774907 18  L 21.031680626955783 18  Z M 57 20.981844720148207  L 57 0.018066861281086845  L 59 0.018066861281086845  L 59 20.981844720148207  L 57 20.981844720148207  Z M 51.08271089774615 9.689643799472295  L 51.08271089774615 7.991152529051815  L 54.50364304681675 7.991152529051815  L 54.50364304681675 9.689643799472295  L 51.08271089774615 9.689643799472295  Z M 53 19.87587576489081  L 53 0.5211390557458035  L 55 0.5211390557458035  L 55 19.87587576489081  L 53 19.87587576489081  Z M 42.26137788998333 4.243472463930837  L 42.26137788998333 2.6713018581934542  L 51.693213744307954 2.6713018581934542  L 51.693213744307954 4.243472463930837  L 42.26137788998333 4.243472463930837  Z M 45.173257289363875 15.778028686914052  C 44.001205378490255 15.808933218781084  42.966766054695846 15.824360017964409  42.06993080173192 15.824360017964409  C 42.06993080173192 15.824360017964409  41.84377557145619 14.196367821254139  41.84377557145619 14.196367821254139  C 42.51771970195763 14.196367821254139  43.28224708240131 14.190244713808266  44.13736168703663 14.177947285690227  C 44.992476291671935 14.165392319956535  45.88631859418218 14.139801155595304  46.818841811974316 14.101170493459833  C 47.75161904107857 14.062539831324363  48.67440529104768 14.010849628288945  49.58717949835979 13.946143266153932  C 50.4999537056719 13.88117936910159  51.35086486025904 13.794623783723834  52.14000113368303 13.6864579239881  C 52.14000113368303 13.6864579239881  52.271101402133354 15.107963285241116  52.271101402133354 15.107963285241116  C 51.20166835810721 15.314122263947418  50.04433036758946 15.469612328795925  48.79912444787457 15.574430191433224  C 47.55417253947179 15.679248054070522  46.34556309799963 15.747124155047018  45.173257289363875 15.778028686914052  Z M 44 14.650574018974904  L 44 3.686435468478078  L 45 3.686435468478078  L 45 14.650574018974904  L 44 14.650574018974904  Z M 48 14.650574018974904  L 48 3.686435468478078  L 50 3.686435468478078  L 50 14.650574018974904  L 48 14.650574018974904  Z M 78 21  L 78 0  L 80 0  L 80 21  L 78 21  Z M 66.38725740273217 2.519192443720878  C 67.18166432572022 1.9204171626322768  68.08559736102572 1.621036602481334  69.0990853503444 1.621036602481334  C 70.12203511910212 1.621036602481334  71.02836178805069 1.9204171626322768  71.81800608409894 2.519192443720878  C 72.60771391136271 3.1179677248094793  73.22696243439536 3.964603745772049  73.67579281506578 5.059074832987144  C 74.12468669856422 6.153288378089388  74.34914239785587 7.442591512782096  74.34914239785587 8.926974681412451  C 74.34914239785587 10.417603217497403  74.12468669856422 11.711594148234436  73.67579281506578 12.80896255543704  C 73.22696243439536 13.906073420526791  72.60771391136271 14.754144631466485  71.81800608409894 15.35317745466794  C 71.02836178805069 15.95195273575654  70.12203511910212 16.251333295907482  69.0990853503444 16.251333295907482  C 68.08559736102572 16.251333295907482  67.18166432572022 15.95195273575654  66.38725740273217 15.35317745466794  C 65.59278694852861 14.754144631466485  64.97115012870209 13.906073420526791  64.52231974803168 12.80896255543704  C 64.07367987584534 11.711594148234436  63.84931899078954 10.417603217497403  63.84931899078954 8.926974681412451  C 63.84931899078954 7.442591512782096  64.07367987584534 6.153288378089388  64.52231974803168 5.059074832987144  C 64.97115012870209 3.964603745772049  65.59278694852861 3.1179677248094793  66.38725740273217 2.519192443720878  Z M 70.88106066221624 4.033036265648684  C 70.3674584756796 3.57474784699026  69.77347397225456 3.3456113512603154  69.0990853503444 3.3456113512603154  C 68.42469672843423 3.3456113512603154  67.83065942426707 3.57474784699026  67.31699376328989 4.033036265648684  C 66.80358211362483 4.491067170976341  66.40197231665039 5.138014599041957  66.11215032055614 5.973853365519564  C 65.8223283244619 6.809756546307473  65.6773974125865 7.794130510152347  65.6773974125865 8.926974681412451  C 65.6773974125865 10.060076394785408  65.8223283244619 11.0484086439021  66.11215032055614 11.891973558636952  C 66.40197231665039 12.735345288005073  66.80358211362483 13.387584648117334  67.31699376328989 13.848706001235053  C 67.83065942426707 14.309891739880985  68.42469672843423 14.540492898444956  69.0990853503444 14.540492898444956  C 69.77347397225456 14.540492898444956  70.3674584756796 14.309891739880985  70.88106066221624 13.848706001235053  C 71.39472632319341 13.387584648117334  71.79648907199505 12.735345288005073  72.08631106808929 11.891973558636952  C 72.37613306418353 11.0484086439021  72.52106397605894 10.060076394785408  72.52106397605894 8.926974681412451  C 72.52106397605894 7.794130510152347  72.37613306418353 6.809756546307473  72.08631106808929 5.973853365519564  C 71.79648907199505 5.138014599041957  71.39472632319341 4.491067170976341  70.88106066221624 4.033036265648684  Z " fill-rule="nonzero" fill="#4c4c57" stroke="none" transform="matrix(1 0 0 1 77 37 )" />
  </g>
</svg>