<?xml version="1.0" encoding="utf-8"?>
<svg version="1.1" xmlns:xlink="http://www.w3.org/1999/xlink" width="224px" height="56px" xmlns="http://www.w3.org/2000/svg">
  <defs>
    <mask fill="white" id="clip4">
      <path d="M 0 3.3220338983050848  C 0 1.4873252319077315  1.4852271973039852 0  3.3173478068410667 0  C 3.3173478068410667 0  220.68265219315893 0  220.68265219315893 0  C 222.514772802696 0  224 1.4873252319077315  224 3.3220338983050848  C 224 3.3220338983050848  224 52.67796610169492  224 52.67796610169492  C 224 54.51267476809227  222.514772802696 56  220.68265219315893 56  C 220.68265219315893 56  3.3173478068410667 56  3.3173478068410667 56  C 1.4852271973039852 56  0 54.51267476809227  0 52.67796610169492  C 0 52.67796610169492  0 3.3220338983050848  0 3.3220338983050848  Z " fill-rule="evenodd" />
    </mask>
  </defs>
  <g transform="matrix(1 0 0 1 -4 -20 )">
    <path d="M 0 3.3220338983050848  C 0 1.4873252319077315  1.4852271973039852 0  3.3173478068410667 0  C 3.3173478068410667 0  220.68265219315893 0  220.68265219315893 0  C 222.514772802696 0  224 1.4873252319077315  224 3.3220338983050848  C 224 3.3220338983050848  224 52.67796610169492  224 52.67796610169492  C 224 54.51267476809227  222.514772802696 56  220.68265219315893 56  C 220.68265219315893 56  3.3173478068410667 56  3.3173478068410667 56  C 1.4852271973039852 56  0 54.51267476809227  0 52.67796610169492  C 0 52.67796610169492  0 3.3220338983050848  0 3.3220338983050848  Z " fill-rule="nonzero" fill="#ffffff" stroke="none" fill-opacity="0" transform="matrix(1 0 0 1 4 20 )" />
    <path d="M 0 3.3220338983050848  C 0 1.4873252319077315  1.4852271973039852 0  3.3173478068410667 0  C 3.3173478068410667 0  220.68265219315893 0  220.68265219315893 0  C 222.514772802696 0  224 1.4873252319077315  224 3.3220338983050848  C 224 3.3220338983050848  224 52.67796610169492  224 52.67796610169492  C 224 54.51267476809227  222.514772802696 56  220.68265219315893 56  C 220.68265219315893 56  3.3173478068410667 56  3.3173478068410667 56  C 1.4852271973039852 56  0 54.51267476809227  0 52.67796610169492  C 0 52.67796610169492  0 3.3220338983050848  0 3.3220338983050848  Z " stroke-width="2" stroke="#3578ff" fill="none" transform="matrix(1 0 0 1 4 20 )" mask="url(#clip4)" />
  </g>
</svg>