<?xml version="1.0" encoding="utf-8"?>
<svg version="1.1" xmlns:xlink="http://www.w3.org/1999/xlink" width="179px" height="28px" xmlns="http://www.w3.org/2000/svg">
  <g transform="matrix(1 0 0 1 -56 -139 )">
    <path d="M 20 14.109276341202996  L 20 0  L 23 0  L 23 14.109276341202996  L 20 14.109276341202996  Z M 10.12195470709012 3.0771649335599265  C 10.12195470709012 3.0771649335599265  10.12195470709012 1.1530488076412038  10.12195470709012 1.1530488076412038  C 10.12195470709012 1.1530488076412038  14.057143162510464 1.1530488076412038  14.057143162510464 1.1530488076412038  C 14.057143162510464 3.5871013323743512  13.569403756837602 5.70980776211233  12.593919057550433 7.521175799264091  C 11.618434358263265 9.332542590437932  10.17832721726262 10.834617677662859  8.273583141154164 12.027414879966694  C 6.368839065045705 13.219895377337778  4.017499385801931 14.130164594653934  1.2195901462407779 14.758236011130823  C 1.2195901462407779 14.758236011130823  0 11.839280369757056  0 11.839280369757056  C 2.363832985157874 11.346768519050713  4.289621243376964 10.670397957903681  5.777385835370911 9.81016500501757  C 7.265150427364857 8.949615347198705  8.361122959844735 7.946074884761606  9.065270313139907 6.799519887490459  C 9.769734313132338 5.652964323865714  10.12195470709012 4.412172391951384  10.12195470709012 3.0771649335599265  Z M 1.5620110807262633 4  L 1.5620110807262633 1.1530488076412038  L 11.656428338585773 1.1530488076412038  L 11.656428338585773 4  L 1.5620110807262633 4  Z M 12.992371454523047 6.410869018140921  L 12.992371454523047 3.6449031541817734  L 19.784207932761014 3.6449031541817734  L 19.784207932761014 6.410869018140921  L 12.992371454523047 6.410869018140921  Z M 12.790072656438378 11.804599593830616  L 12.790072656438378 9.059047832089039  L 19.65263689901602 9.059047832089039  L 19.65263689901602 11.804599593830616  L 12.790072656438378 11.804599593830616  Z M 4.581072080427165 18  L 4.581072080427165 15  L 22.926752652169707 15  L 22.926752652169707 22.690390604044918  L 8.24129185858269 22.690390604044918  L 8.24129185858269 26.42269163334566  L 4.631422132336187 26.42269163334566  L 4.631422132336187 20  L 19.30691147062286 20  L 19.30691147062286 18  L 4.581072080427165 18  Z M 4.631422132336187 27.71591340990693  L 4.631422132336187 24.857736118317288  L 23.58260773247688 24.857736118317288  L 23.58260773247688 27.71591340990693  L 4.631422132336187 27.71591340990693  Z M 48 27.96911787093507  L 48 0  L 52 0  L 52 27.96911787093507  L 48 27.96911787093507  Z M 38.603822499156706 12.636967213369415  L 38.603822499156706 9.697568472473792  L 43.441369685681195 9.697568472473792  L 43.441369685681195 12.636967213369415  L 38.603822499156706 12.636967213369415  Z M 43 26.662615329010666  L 43 0.5154560809936134  L 46 0.5154560809936134  L 46 26.662615329010666  L 43 26.662615329010666  Z M 32.77136176532458 7.568673383685081  C 32.77136176532458 7.568673383685081  32.77136176532458 4.502904390709679  32.77136176532458 4.502904390709679  L 35.495974965778586 4.502904390709679  C 35.495974965778586 4.502904390709679  35.495974965778586 7.568673383685081  35.495974965778586 7.568673383685081  C 35.495974965778586 9.123490602931629  35.37295248702244 10.656450084635884  35.12694415929973 12.167558851582477  C 34.88093583157702 13.678667618529069  34.50654558301055 15.100324912205485  34.00376407215476 16.432482366014334  C 33.50098256129896 17.764323114890427  32.85446620904584 18.966141990219626  32.06420006908248 20.037949186366713  C 31.27393392911912 21.1097563825138  30.338031822048812 21.983758410836398  29.25648174552936 22.659972431848573  C 29.25648174552936 22.659972431848573  27.090849777668094 19.995178162544388  27.090849777668094 19.995178162544388  C 28.44278737331741 19.143180160898794  29.533820602300832 18.058222460716422  30.363979980007212 16.7403177483179  C 31.19413935771359 15.422413035919375  31.802842981995592 13.969605841196266  32.19006070546071 12.381848930258377  C 32.577595047315675 10.79409201932049  32.77136176532458 9.18968669124706  32.77136176532458 7.568673383685081  Z M 33.56493307857347 7.568673383685081  C 33.56493307857347 7.568673383685081  33.56493307857347 4.502904390709679  33.56493307857347 4.502904390709679  L 36.26913957980816 4.502904390709679  C 36.26913957980816 4.502904390709679  36.26913957980816 7.568673383685081  36.26913957980816 7.568673383685081  C 36.26913957980816 9.13615970640747  36.456084976113274 10.678325379139753  36.83000495366405 12.195135287958767  C 37.204241549604674 13.71194519677778  37.79962588603271 15.090335227608126  38.61617087112749 16.33032486301363  C 39.433032502919524 17.57031449841913  40.507158451422114 18.579090560069993  41.83851621972763 19.356657522159637  C 41.83851621972763 19.356657522159637  39.713726637093664 21.981058546592976  39.713726637093664 21.981058546592976  C 38.26712169978731 21.108789956731883  37.09311316549071 19.930561068063923  36.191715867287144 18.4463741460035  C 35.290318569083574 16.962187223943072  34.62718927680715 15.283688233152827  34.20229458771313 13.410876267466993  C 33.777399898619116 11.537747483577688  33.56493307857347 9.59034754175353  33.56493307857347 7.568673383685081  Z M 28.05587794586337 6  L 28.05587794586337 3  L 40.6089546181865 3  L 40.6089546181865 6  L 28.05587794586337 6  Z M 71.31155826336425 17.86393429210849  C 72.7239689807152 17.434451282166293  74.39297980968959 17.21970118277933  76.31862018999463 17.21970118277933  C 78.24457716038214 17.21970118277933  79.9067956827488 17.434451282166293  81.30527541740571 17.86393429210849  C 82.70407174214506 18.29310056880025  83.78357853313783 18.907055338636734  84.54376640729159 19.705843060375496  C 85.30427092814261 20.504314077181505  85.68451248836682 21.47067495497651  85.68451248836682 22.604877553704565  C 85.68451248836682 23.732428782491226  85.30427092814261 24.698760776252655  84.54376640729159 25.503883049729343  C 83.78357853313783 26.30932208477414  82.70407174214506 26.92662961128337  81.30527541740571 27.355795887975134  C 79.9067956827488 27.785278897917323  78.24457716038214 28  76.31862018999463 28  C 74.39297980968959 28  72.7239689807152 27.785278897917323  71.31155826336425 27.355795887975134  C 69.89946413609572 26.92662961128337  68.81316509511007 26.30914583553402  68.05266057425905 25.503390095556473  C 67.29247270010531 24.697951060511677  66.91237828180243 23.73114848354455  66.91237828180243 22.602963731621667  C 66.91237828180243 21.475095684631533  67.29247270010531 20.51064653341111  68.05266057425905 19.709641707237004  C 68.81316509511007 18.908320176130147  69.89946413609572 18.29310056880025  71.31155826336425 17.86393429210849  Z M 79.47017980067778 20.35529568447619  C 78.61057545055633 20.170009876235884  77.56005992079825 20.077385520196106  76.31862018999463 20.077385520196106  C 75.07718045919103 20.077385520196106  74.02493008145441 20.170009876235884  73.16184295735202 20.35529568447619  C 72.29875583324963 20.5405814927165  71.63956681932754 20.820248061096542  71.1842772743415 21.194303686696554  C 70.72930434774528 21.568042607363815  70.50181232204096 22.036192389864617  70.50181232204096 22.598701127891577  C 70.50181232204096 23.176096073829726  70.72930434774528 23.655129615037488  71.1842772743415 24.035836525625854  C 71.63956681932754 24.41654343621422  72.29875583324963 24.702857565807705  73.16184295735202 24.894794673195204  C 74.02493008145441 25.086731780582706  75.07718045919103 25.182708907454067  76.31862018999463 25.182708907454067  C 77.56005992079825 25.182708907454067  78.61057545055633 25.086731780582706  79.47017980067778 24.894794673195204  C 80.3301007974965 24.702857565807705  80.98582005884663 24.41654343621422  81.43731023976932 24.035836525625854  C 81.88911703908188 23.655129615037488  82.11502135872901 23.176096073829726  82.11502135872901 22.598701127891577  C 82.11502135872901 22.036192389864617  81.88911703908188 21.568042607363815  81.43731023976932 21.194303686696554  C 80.98582005884663 20.820248061096542  80.3301007974965 20.5405814927165  79.47017980067778 20.35529568447619  Z M 82 16.572133383457246  L 82 0.02041410221756885  L 86 0.02041410221756885  L 86 16.572133383457246  L 82 16.572133383457246  Z M 84.38370136029006 9.646272241191292  L 84.38370136029006 6.656041225881752  L 89.19701559149162 6.656041225881752  L 89.19701559149162 9.646272241191292  L 84.38370136029006 9.646272241191292  Z M 65 14.863728204124454  L 65 1.7744610384970285  L 67.93677139318117 1.7744610384970285  L 67.93677139318117 5.447868542792254  L 74.08744909296452 5.447868542792254  L 74.08744909296452 1.7744610384970285  L 78 1.7744610384970285  L 78 14.863728204124454  L 65 14.863728204124454  Z M 74.08744909296452 8.244745533120618  L 67.93677139318117 8.244745533120618  L 67.93677139318117 12.016018939382173  L 74.08744909296452 12.016018939382173  L 74.08744909296452 8.244745533120618  Z M 92 14  L 92 1.4395131766857532  L 96.23579052235651 1.4395131766857532  L 96.23579052235651 5.184196054916752  L 102.16469030207311 5.184196054916752  L 102.16469030207311 1.4395131766857532  L 105 1.4395131766857532  L 105 14  L 92 14  Z M 102.16469030207311 7.950190916180186  L 96.23579052235651 7.950190916180186  L 96.23579052235651 11.539506238045085  L 102.16469030207311 11.539506238045085  L 102.16469030207311 7.950190916180186  Z M 104.86127327788921 9.443407100404201  L 104.86127327788921 6.514447389051654  L 111.96512354930432 6.514447389051654  L 111.96512354930432 9.443407100404201  L 104.86127327788921 9.443407100404201  Z M 111 15.317912981161074  L 111 0.02041410221756885  L 114 0.02041410221756885  L 114 15.317912981161074  L 111 15.317912981161074  Z M 96 27.62468789062217  L 96 16.543165076475212  L 99.9135762944423 16.543165076475212  L 99.9135762944423 19  L 111.12262253679096 19  L 111.12262253679096 16.543165076475212  L 114 16.543165076475212  L 114 27.62468789062217  L 96 27.62468789062217  Z M 111.12262253679096 22  L 99.9135762944423 22  L 99.9135762944423 24.736614378313334  L 111.12262253679096 24.736614378313334  L 111.12262253679096 22  Z M 141.56878006266007 9.067109082680636  L 141.56878006266007 6.127739339089299  L 148.21194330184136 6.127739339089299  L 148.21194330184136 9.067109082680636  L 141.56878006266007 9.067109082680636  Z M 133.8522650260468 4.852582883098403  C 133.8522650260468 4.852582883098403  133.8522650260468 1.7136536914086167  133.8522650260468 1.7136536914086167  L 136.7701911200997 1.7136536914086167  C 136.7701911200997 1.7136536914086167  136.7701911200997 4.852582883098403  136.7701911200997 4.852582883098403  C 136.7701911200997 6.718744271737881  136.48521622603408 8.470100462066865  135.9153127488269 10.106633444040899  C 135.3454092716197 11.74284972108218  134.48963049822402 13.171272788127055  133.34792389008533 14.391942063386036  C 132.20621728194666 15.612294633712267  130.77987093948633 16.54347691076701  129.068894147535 17.18548436372147  C 129.068894147535 17.18548436372147  127.16730283761228 14.337804096283477  127.16730283761228 14.337804096283477  C 128.3033103713485 13.945694958585637  129.28828631901914 13.425305937741753  130.12224506078886 12.776647228116614  C 130.95683698272347 12.127988518491478  131.64895747961978 11.37970147113422  132.1985977195656 10.531820916791201  C 132.74823795951144 9.68394036244818  133.16111663394494 8.78049496974442  133.43720319916983 7.821442885148928  C 133.71392300117446 6.862074095620683  133.8522650260468 5.8724472986939835  133.8522650260468 4.852582883098403  Z M 134.6054867294757 4.90295120064374  C 134.6054867294757 4.90295120064374  134.6054867294757 1.7136536914086167  134.6054867294757 1.7136536914086167  L 137.49300568222026 1.7136536914086167  C 137.49300568222026 1.7136536914086167  137.49300568222026 4.90295120064374  137.49300568222026 4.90295120064374  C 137.49300568222026 5.821463354786161  137.62599590800596 6.723171967542179  137.89195085460014 7.608109717514475  C 138.15853903797407 8.49273070591866  138.556510690189 9.32873001127788  139.08588769287346 10.116115562542525  C 139.61526469555795 10.903184352239059  140.27983449535537 11.60411523366908  141.07959901716973 12.218884080169262  C 141.87999677576377 12.833652926669442  142.81780991613752 13.333775748538226  143.89302773808964 13.719233601247714  C 143.89302773808964 13.719233601247714  141.97149351756622 16.496131448922803  141.97149351756622 16.496131448922803  C 140.35486736395987 15.880729135921758  138.99944138946228 14.99831500095277  137.90522680380818 13.848909546016134  C 136.81164539831897 12.699187272876026  135.98815139679024 11.353593419734946  135.43471179278106 9.812078827100468  C 134.88190542555157 8.270247416262517  134.6054867294757 6.633870408069742  134.6054867294757 4.90295120064374  Z M 147 20.738698041749906  L 147 0.03038917489206271  L 150 0.03038917489206271  L 150 20.738698041749906  L 147 20.738698041749906  Z M 132.21474336085134 27  L 132.21474336085134 24  L 151.18874156367045 24  L 151.18874156367045 27  L 132.21474336085134 27  Z M 132.21474336085134 26.12291750163369  L 132.21474336085134 18.601741702369594  L 135.8345845423982 18.601741702369594  L 135.8345845423982 26.12291750163369  L 132.21474336085134 26.12291750163369  Z M 156.2551684334843 15.869499703295443  L 156.2551684334843 12.940076035074311  C 156.2551684334843 12.940076035074311  158.15104934604022 12.940076035074311  158.15104934604022 12.940076035074311  C 159.53528150792067 12.940076035074311  160.77103654448655 12.926604661637464  161.85828569540845 12.89968279020347  C 162.94553484633033 12.872760918769474  163.97864358303647 12.81052133953209  164.9576111129194 12.712969147903857  C 165.93721182296719 12.615100230104613  166.93706580606772 12.48176729766872  167.95719299063822 12.312951335274082  C 167.95719299063822 12.312951335274082  168.2924831751124 15.201517801755788  168.2924831751124 15.201517801755788  C 167.23119633585432 15.380785791508607  166.19588211215756 15.523472166908356  165.18651978299746 15.629576007630433  C 164.17715745383737 15.735363122181504  163.10667738661672 15.801867860819591  161.97510245372357 15.829106458424597  C 160.84352752083043 15.856028329858592  159.56884254771117 15.869499703295443  158.15104934604022 15.869499703295443  C 158.15104934604022 15.869499703295443  156.2551684334843 15.869499703295443  156.2551684334843 15.869499703295443  Z M 156 14.537334547077643  L 156 2  L 167.2011305819203 2  L 167.2011305819203 4.8131465492690095  L 159.73253954874858 4.8131465492690095  L 159.73253954874858 14.537334547077643  L 156 14.537334547077643  Z M 158.69626185401768 10.174081173810878  L 158.69626185401768 7.4285294120693  L 166.9076393466993 7.4285294120693  L 166.9076393466993 10.174081173810878  L 158.69626185401768 10.174081173810878  Z M 175 17.05198077478726  L 175 0.009975072674493869  L 179 0.009975072674493869  L 179 17.05198077478726  L 175 17.05198077478726  Z M 171.89429457411038 9.88950162954494  L 171.89429457411038 6.9809850177142465  L 176.56841424614836 6.9809850177142465  L 176.56841424614836 9.88950162954494  L 171.89429457411038 9.88950162954494  Z M 169 16.879533806196516  L 169 0.5268810188824232  L 173 0.5268810188824232  L 173 16.879533806196516  L 169 16.879533806196516  Z M 159.90350362828767 21  L 159.90350362828767 18  L 179 18  L 179 27.989560970456928  L 175.4001307158425 27.989560970456928  L 175.4001307158425 21  L 159.90350362828767 21  Z " fill-rule="nonzero" fill="#4c4c57" stroke="none" transform="matrix(1 0 0 1 56 139 )" />
  </g>
</svg>