<?xml version="1.0" encoding="utf-8"?>
<svg version="1.1" xmlns:xlink="http://www.w3.org/1999/xlink" width="52px" height="28px" xmlns="http://www.w3.org/2000/svg">
  <g transform="matrix(1 0 0 1 -549 -603 )">
    <path d="M 17 28  L 17 0  L 21 0  L 21 28  L 17 28  Z M 19.8335653759758 13.513430589324997  L 19.8335653759758 10.528597892786847  L 24.81452305228744 10.528597892786847  L 24.81452305228744 13.513430589324997  L 19.8335653759758 13.513430589324997  Z M 0 21.222646752344563  L 0 18.217436609934005  C 0 18.217436609934005  2.305958232324356 18.217436609934005  2.305958232324356 18.217436609934005  C 3.9285558837961214 18.217436609934005  5.437185131733314 18.19386005832239  6.831772790961456 18.146752344564085  C 8.226360450189599 18.099644630805777  9.580491051322754 18.00877203173393  10.894233036051865 17.874088225078154  C 12.208290801256034 17.739088268043737  13.549222885344617 17.553468563551977  14.916967284211465 17.317297672803058  C 14.916967284211465 17.317297672803058  15.281729421969176 20.31214542086373  15.281729421969176 20.31214542086373  C 13.873562185852812 20.56159500911775  12.49221607384127 20.75379244773576  11.137735471387586 20.888792404770175  C 9.783254868933902 21.02347621142595  8.386775124477348 21.112821274448546  6.94829081689389 21.156767396086604  C 5.509806509310433 21.20071351772466  3.9623468793090995 21.222646752344563  2.305958232324356 21.222646752344563  C 2.305958232324356 21.222646752344563  0 21.222646752344563  0 21.222646752344563  Z M 0 19.63916869283316  L 0 3  L 12.988955363298713 3  L 12.988955363298713 5.543880977191154  L 4 5.543880977191154  L 4 19.63916869283316  L 0 19.63916869283316  Z M 34.09253830927652 1.2240361236540467  C 35.59923616883604 0.7921627212953717  37.36692004050553 0.5761838601366215  39.39564086026288 0.5761838601366215  C 41.44425720522985 0.5761838601366215  43.216749952738915 0.7921627212953717  44.71302626604097 1.2240361236540467  C 46.20961835981807 1.6559095260127217  47.36731052215849 2.2733711294792753  48.186188643996175 3.0764154220215354  C 49.00506676583385 3.879459036159836  49.4145141560839 4.847696501968276  49.4145141560839 5.981127706379531  C 49.4145141560839 7.094640292129791  49.00506676583385 8.056242062673672  48.186188643996175 8.865925668634944  C 47.36731052215849 9.675609274596214  46.20961835981807 10.29480329564121  44.71302626604097 10.723515109412991  C 43.216749952738915 11.151910758672717  41.44425720522985 11.366099340048628  39.39564086026288 11.366099340048628  C 37.36692004050553 11.366099340048628  35.59923616883604 11.151910758672717  34.09253830927652 10.723515109412991  C 32.586156230192046 10.29480329564121  31.423508595782923 9.675609274596214  30.604630473945242 8.865925668634944  C 29.78575235210757 8.056242062673672  29.37630496185753 7.094640292129791  29.37630496185753 5.981127706379531  C 29.37630496185753 4.847696501968276  29.78575235210757 3.879459036159836  30.604630473945242 3.0764154220215354  C 31.423508595782923 2.2733711294792753  32.586156230192046 1.6559095260127217  34.09253830927652 1.2240361236540467  Z M 42.80161021284167 3.665393076299641  C 41.86335843151591 3.467161912863987  40.72801524830138 3.368067616070395  39.39564086026288 3.368067616070395  C 38.07653015569746 3.368067616070395  36.94441214599365 3.467161912863987  35.99921268598626 3.665393076299641  C 35.054013225978856 3.863624239735296  34.33430519434035 4.152742566727814  33.84007294886907 4.5327660067152955  C 33.3458407033978 4.912790464308716  33.09869448212975 5.39560092344347  33.09869448212975 5.981127706379531  C 33.09869448212975 6.539780929793332  33.3458407033978 7.012581227567443  33.84007294886907 7.3995600324186634  C 34.33430519434035 7.786222672757829  35.054013225978856 8.078658324446241  35.99921268598626 8.27689012388561  C 36.94441214599365 8.475121923324975  38.07653015569746 8.574273474586084  39.39564086026288 8.574273474586084  C 40.72801524830138 8.574273474586084  41.86335843151591 8.475121923324975  42.80161021284167 8.27689012388561  C 43.74017783111253 8.078658324446241  44.45657174892411 7.786222672757829  44.95080399439539 7.3995600324186634  C 45.445036239866674 7.012581227567443  45.692124635811666 6.539780929793332  45.692124635811666 5.981127706379531  C 45.692124635811666 5.39560092344347  45.445036239866674 4.912790464308716  44.95080399439539 4.5327660067152955  C 44.45657174892411 4.152742566727814  43.74017783111253 3.863624239735296  42.80161021284167 3.665393076299641  Z M 29.76142161332651 27.636274169271736  L 29.76142161332651 18  L 48.96827613815804 18  L 48.96827613815804 27.636274169271736  L 29.76142161332651 27.636274169271736  Z M 45.43873407023553 24.773764038439275  L 45.43873407023553 21  L 33.29102150657207 21  L 33.29102150657207 24.773764038439275  L 45.43873407023553 24.773764038439275  Z M 26.780873162377954 16  L 26.780873162377954 13.18102350353132  L 52 13.18102350353132  L 52 16  L 26.780873162377954 16  Z " fill-rule="nonzero" fill="#ffffff" stroke="none" transform="matrix(1 0 0 1 549 603 )" />
  </g>
</svg>