<?xml version="1.0" encoding="utf-8"?>
<svg version="1.1" xmlns:xlink="http://www.w3.org/1999/xlink" width="53px" height="28px" xmlns="http://www.w3.org/2000/svg">
  <g transform="matrix(1 0 0 1 -196 -603 )">
    <path d="M 7.335814155548697 5.554749187180677  C 7.335814155548697 5.554749187180677  7.335814155548697 5.1899674872271255  7.335814155548697 5.1899674872271255  L 10.240715426228338 5.1899674872271255  C 10.240715426228338 5.1899674872271255  10.240715426228338 5.554749187180677  10.240715426228338 5.554749187180677  C 10.240715426228338 6.921667939720738  9.948420447579634 8.188827861922318  9.363812006264935 9.356305155596843  C 8.779518751257221 10.52346539530597  7.914107036444324 11.518158540136582  6.767581201062011 12.34033906177427  C 5.6210553656797 13.162519583411955  4.18600957405747 13.762898744121575  2.4624389797761546 14.141488620529493  C 2.4624389797761546 14.141488620529493  1.005501687361961 11.331107756618671  1.005501687361961 11.331107756618671  C 2.418646848891007 11.040665261090993  3.5920995582260327 10.60830670049785  4.525897290585016 10.03408035299582  C 5.460010152897274 9.45953695152839  6.161874606502236 8.782126207435844  6.631452274522549 8.001799814212726  C 7.101029942542863 7.221473420989607  7.335814155548697 6.4057837174872265  7.335814155548697 5.554749187180677  Z M 8.034982478546631 5.554749187180677  C 8.034982478546631 5.554749187180677  8.034982478546631 5.1899674872271255  8.034982478546631 5.1899674872271255  L 10.939422099623767 5.1899674872271255  C 10.939422099623767 5.1899674872271255  10.939422099623767 5.554749187180677  10.939422099623767 5.554749187180677  C 10.939422099623767 6.358539274776475  11.170899054200992 7.118399301574112  11.633858514196 7.834359033906177  C 12.096817974191005 8.550318766238243  12.791892566366213 9.176875346990391  13.719072062523033 9.714003715745472  C 14.646251558679856 10.251132084500552  15.796085131497327 10.65825559879202  17.168575598660997 10.935380863910822  C 17.168575598660997 10.935380863910822  15.751801821664978 13.724860659544822  15.751801821664978 13.724860659544822  C 14.062267741900582 13.373539408583227  12.642499779518763 12.805492324935411  11.492507176528166 12.020726892707849  C 10.342829816198266 11.235644349817116  9.479145004512722 10.288241176011669  8.901469929353457 9.178471899674872  C 8.323794854194194 8.068702623338075  8.034982478546631 6.860789155937936  8.034982478546631 5.554749187180677  Z M 1.702765705749552 6  L 1.702765705749552 3  L 16.562054580266334 3  L 16.562054580266334 6  L 1.702765705749552 6  Z M 7.325888689094781 4.8655945192754295  L 7.325888689094781 0.050917324663260564  L 10.939422099623767 0.050917324663260564  L 10.939422099623767 4.8655945192754295  L 7.325888689094781 4.8655945192754295  Z M 8 27.167673014398513  L 8 15.932652113330237  L 11 15.932652113330237  L 11 27.167673014398513  L 8 27.167673014398513  Z M 20 28  L 20 0  L 24 0  L 24 28  L 20 28  Z M 5.879800162339519 18.427252670692056  C 3.92364675642839 18.474497134664475  2.1053720597908367 18.498142127264284  0.4249773122085088 18.498142127264284  C 0.4249773122085088 18.498142127264284  0 15.525081281932188  0 15.525081281932188  C 1.7074978395901008 15.525081281932188  3.5662499418174516 15.509828612685922  5.576294401790852 15.479389224338133  C 7.586338861764252 15.44894983599034  9.641768572039659 15.374598083637839  11.742576995586566 15.256328379006039  C 13.84338541913347 15.13805867437424  15.875195936537606 14.950515569889763  17.837967522297184 14.693683232698561  C 17.837967522297184 14.693683232698561  18.070552362660607 17.320483046911285  18.070552362660607 17.320483046911285  C 16.04727131757546 17.672438462501454  13.998778298324453 17.93309614196579  11.925072854077897 18.102415234556435  C 9.85136740983134 18.271417244832794  7.836268698203924 18.379691127948963  5.879800162339519 18.427252670692056  Z M 27.793152669374503 24.623606595448212  L 27.793152669374503 21.670982350209012  L 53 21.670982350209012  L 53 24.623606595448212  L 27.793152669374503 24.623606595448212  Z M 38.468828580465576 22.494252206223873  L 38.468828580465576 15.282048304691129  L 42.051633439327645 15.282048304691129  L 42.051633439327645 22.494252206223873  L 38.468828580465576 22.494252206223873  Z M 38.34683767300291 3.700766372503484  C 38.34683767300291 3.700766372503484  38.34683767300291 1.6418369716674408  38.34683767300291 1.6418369716674408  L 41.49476860630272 1.6418369716674408  C 41.49476860630272 1.6418369716674408  41.49476860630272 3.700766372503484  41.49476860630272 3.700766372503484  C 41.49476860630272 4.898366627779552  41.31685145867308 6.047180374223467  40.96104395960349 7.1471202972596375  C 40.60555161866402 8.246743166330411  40.09026754054133 9.277243281540292  39.4152102656064 10.23862052949373  C 38.74015299067146 11.19968072348177  37.930203358682895 12.071289516082212  36.98537528900735 12.853518346493265  C 36.04086234928508 13.635430122938923  34.97959229667819 14.297351431414741  33.80155109911258 14.839235949837438  C 32.62382514420766 15.38112046826013  31.351068122713865 15.780646707310657  29.983304942971575 16.037796098467258  C 29.983304942971575 16.037796098467258  28.48571363243655 13.01335346028797  28.48571363243655 13.01335346028797  C 29.671633642371134 12.817082824565288  30.77089280244786 12.500653498570308  31.78347871485026 12.064038550859266  C 32.796064627252655 11.627423603148223  33.70698771197332 11.102928179339148  34.51630009619515 10.490652577798421  C 35.32592761037026 9.878059922292294  36.015968040989506 9.201591551940606  36.58639462004006 8.461216906641894  C 37.156821199090615 7.720525150680011  37.592819832021874 6.946412890443567  37.894421062545355 6.1388179284719  C 38.19602229306883 5.330905232161519  38.34683767300291 4.518190744473554  38.34683767300291 3.700766372503484  Z M 39.03561887994442 3.700766372503484  C 39.03561887994442 3.700766372503484  39.03561887994442 1.6418369716674408  39.03561887994442 1.6418369716674408  L 42.173566640589996 1.6418369716674408  C 42.173566640589996 1.6418369716674408  42.173566640589996 3.700766372503484  42.173566640589996 3.700766372503484  C 42.173566640589996 4.531825028847829  42.3259624040022 5.352931864694612  42.63071515947326 6.16401532745007  C 42.93578307307446 6.975098166529987  43.37350858095622 7.747620394326231  43.943935160006774 8.481653506734789  C 44.51436173905733 9.21536956517795  45.20267526654923 9.890158547393899  46.00883612582348 10.5059219693451  C 46.81499698509772 11.121368337330903  47.72767582604589 11.644068284307144  48.746879918296735 12.074024616813748  C 49.76608401054758 12.503980949320352  50.868825829979166 12.817082824565288  52.05506096986703 13.01335346028797  C 52.05506096986703 13.01335346028797  50.54748648667776 16.037796098467258  50.54748648667776 16.037796098467258  C 49.186026356830645 15.773671009791933  47.91643010229309 15.372407324082674  46.73870414738818 14.83401068276823  C 45.560978192483255 14.295614041453785  44.498127700044535 13.64049499199881  43.550148049067694 12.868729679516953  C 42.60216839809085 12.096964367035095  41.79049197568235 11.230420443494543  41.11511951444044 10.269043195541105  C 40.4400622395055 9.307665947587667  39.92463166991043 8.273690939060323  39.56882417084084 7.167092429168601  C 39.213331829901385 6.060493919276881  39.03561887994442 4.905025214635103  39.03561887994442 3.700766372503484  Z " fill-rule="nonzero" fill="#4c4c57" stroke="none" transform="matrix(1 0 0 1 196 603 )" />
  </g>
</svg>