<?xml version="1.0" encoding="utf-8"?>
<svg version="1.1" xmlns:xlink="http://www.w3.org/1999/xlink" width="338px" height="47px" xmlns="http://www.w3.org/2000/svg">
  <g transform="matrix(1 0 0 1 -54 -595 )">
    <path d="M 0 3.7600000000000002  C 0 1.6834092378616332  1.7003117451507055 0  3.797752808988764 0  C 3.797752808988764 0  334.20224719101117 0  334.20224719101117 0  C 336.29968825484923 0  338 1.6834092378616332  338 3.7600000000000002  C 338 3.7600000000000002  338 43.24  338 43.24  C 338 45.31659076213837  336.29968825484923 47  334.20224719101117 47  C 334.20224719101117 47  3.797752808988764 47  3.797752808988764 47  C 1.7003117451507055 47  0 45.31659076213837  0 43.24  C 0 43.24  0 3.7600000000000002  0 3.7600000000000002  Z " fill-rule="nonzero" fill="#eeeef0" stroke="none" transform="matrix(1 0 0 1 54 595 )" />
  </g>
</svg>