<?xml version="1.0" encoding="utf-8"?>
<svg version="1.1" xmlns:xlink="http://www.w3.org/1999/xlink" width="276px" height="52px" xmlns="http://www.w3.org/2000/svg">
  <g transform="matrix(1 0 0 1 -906 -641 )">
    <path d="M 5.277610353716549 3.222870016592331  C 5.277610353716549 3.222870016592331  5.277610353716549 1.1818001918012575  5.277610353716549 1.1818001918012575  L 7.625958702064897 1.1818001918012575  C 7.625958702064897 1.1818001918012575  7.625958702064897 3.222870016592331  7.625958702064897 3.222870016592331  C 7.625958702064897 4.66018009434034  7.3989728991124695 6.01384922099767  6.9449865794998535 7.283820193932383  C 6.491667898107593 8.553511813473277  5.811020820149519 9.662328166147839  4.903048180924287 10.610323778789217  C 3.9950755416990553 11.558053357568538  2.8644865932027157 12.271364082978781  1.5112067820032422 12.750216918088686  C 1.5112067820032422 12.750216918088686  0 10.50778621770965  0 10.50778621770965  C 1.2030636589299475 10.092514375580352  2.194150004193906 9.511204699321084  2.973270615748492 8.76379522932428  C 3.7530588655234327 8.01605318726881  4.331900187833021 7.162149839023945  4.709777033670839 6.202182880976665  C 5.088321487883763 5.24201642726394  5.277610353716549 4.2489119607492425  5.277610353716549 3.222870016592331  Z M 5.849416673310479 3.4795183657315087  C 5.849416673310479 3.4795183657315087  5.849416673310479 1.1818001918012575  5.849416673310479 1.1818001918012575  L 8.156751441707193 1.1818001918012575  C 8.156751441707193 1.1818001918012575  8.156751441707193 3.4795183657315087  8.156751441707193 3.4795183657315087  C 8.156751441707193 4.160141206064573  8.263207624365931 4.8275613578501515  8.476180605384146 5.4817408247454065  C 8.689153586402359 6.13564099770904  9.004986099121107 6.747165258760447  9.423588189959872 7.316335073752151  C 9.842857889173743 7.885238854881799  10.368565177456217 8.391807405754799  11.000807887533552 8.836009924953952  C 11.633718235831239 9.279879901825538  12.375126211665206 9.637468330434748  13.225015280767494 9.908818291142131  C 13.225015280767494 9.908818291142131  11.737890988333467 12.127684837045042  11.737890988333467 12.127684837045042  C 10.449371069769992 11.68048949635996  9.368506992196844 11.028441778899577  8.495251003215605 10.171494679798457  C 7.621995014234367 9.314281606297476  6.962676724100344 8.310840647976192  6.517369581971352 7.161128278507604  C 6.072062439842359 6.011116576347557  5.849416673310479 4.783893570281461  5.849416673310479 3.4795183657315087  Z M 15 13.120545568020946  L 15 0.016074772045727853  L 18 0.016074772045727853  L 18 13.120545568020946  L 15 13.120545568020946  Z M 16.829198224773446 7.6260788820726715  L 16.829198224773446 5.271490113101852  L 20.63465943819926 5.271490113101852  L 20.63465943819926 7.6260788820726715  L 16.829198224773446 7.6260788820726715  Z M 6.4923702463525474 14.145982068104669  C 7.609310067119111 13.813046338650999  8.926150381230235 13.646568127502169  10.442998750963353 13.646568127502169  C 11.976537777752863 13.646568127502169  13.295113175260438 13.813046338650999  14.398700470381886 14.145982068104669  C 15.502287765503334 14.478718301892895  16.354553113331807 14.956585224072581  16.95541736426692 15.579559466000944  C 17.556949193731896 16.202334212263864  17.857716123202852 16.955483567979083  17.857716123202852 17.83910005632259  C 17.857716123202852 18.71227492369811  17.556949193731896 19.461631067046717  16.95541736426692 20.08713257120241  C 16.354553113331807 20.712833630485747  15.502287765503334 21.192053317609943  14.398700470381886 21.524789551398168  C 13.295113175260438 21.85772528085184  11.976537777752863 22.02420349200067  10.442998750963353 22.02420349200067  C 8.926150381230235 22.02420349200067  7.609310067119111 21.85772528085184  6.4923702463525474 21.524789551398168  C 5.375430425585984 21.192053317609943  4.516158845861901 20.712833630485747  3.914627016396928 20.08713257120241  C 3.3137627654618114 19.461631067046717  3.0133673496505358 18.71227492369811  3.0133673496505358 17.83910005632259  C 3.0133673496505358 16.955483567979083  3.3137627654618114 16.202334212263864  3.914627016396928 15.579559466000944  C 4.516158845861901 14.956585224072581  5.375430425585984 14.478718301892895  6.4923702463525474 14.145982068104669  Z M 12.943604666613515 16.08749790693072  C 12.263960478557927 15.938853998785069  11.43041896552941 15.864582223372354  10.442998750963353 15.864582223372354  C 9.46692820707184 15.864582223372354  8.63778791322434 15.938853998785069  7.955473172287332 16.08749790693072  C 7.2724908528204635 16.235942289679837  6.7510624778885635 16.454821069929444  6.391211565547848 16.744127989283484  C 6.031360653207134 17.033434908637528  5.851433734619576 17.398422426333475  5.851433734619576 17.83910005632259  C 5.851433734619576 18.26933603561262  6.031360653207134 18.631778184842755  6.391211565547848 18.926339183779092  C 6.7510624778885635 19.22083367424992  7.2724908528204635 19.442362744009067  7.955473172287332 19.591006652154718  C 8.63778791322434 19.739650560300376  9.46692820707184 19.81398322500114  10.442998750963353 19.81398322500114  C 11.43041896552941 19.81398322500114  12.263960478557927 19.739650560300376  12.943604666613515 19.591006652154718  C 13.623248854669106 19.442362744009067  14.141700792762482 19.22083367424992  14.498881182067022 18.926339183779092  C 14.856061571371566 18.631778184842755  15.034624890377103 18.26933603561262  15.034624890377103 17.83910005632259  C 15.034624890377103 17.398422426333475  14.856061571371566 17.033434908637528  14.498881182067022 16.744127989283484  C 14.141700792762482 16.454821069929444  13.623248854669106 16.235942289679837  12.943604666613515 16.08749790693072  Z M 39 22.023777266984304  L 39 0  L 42 0  L 42 22.023777266984304  L 39 22.023777266984304  Z M 35.422958356586676 10.884569132175422  L 35.422958356586676 8.578204679341788  L 39.26448218129634 8.578204679341788  L 39.26448218129634 10.884569132175422  L 35.422958356586676 10.884569132175422  Z M 34 20.96296409054237  L 34 0.41447338376996024  L 37 0.41447338376996024  L 37 20.96296409054237  L 34 20.96296409054237  Z M 23.066196284780354 16.942748846909108  L 23.066196284780354 14.5885254136666  C 23.066196284780354 14.5885254136666  24.581376066331817 14.5885254136666  24.581376066331817 14.5885254136666  C 25.541423591387293 14.5885254136666  26.444406104978043 14.575190594546436  27.2902894044487 14.548521151416438  C 28.136840342139706 14.52185170828644  28.967344265414475 14.464763245620253  29.78184910574291 14.377239584126162  C 30.596353946071346 14.28944989620279  31.43386404155123 14.165841906196246  32.29443514310771 14.006423819889488  C 32.29443514310771 14.006423819889488  32.53581014642961 16.32886304476885  32.53581014642961 16.32886304476885  C 31.646531078921843 16.499720393891852  30.782919462777215 16.631500340302143  29.945047702569827 16.724278081378532  C 29.10717594236244 16.816789788592867  28.25329769758697 16.876434859937987  27.383379840017007 16.90317080967531  C 26.51279434422669 16.92957422265964  25.578810675131713 16.942748846909108  24.581376066331817 16.942748846909108  C 24.581376066331817 16.942748846909108  23.066196284780354 16.942748846909108  23.066196284780354 16.942748846909108  Z M 23 15.70182515640936  L 23 2.5932747781346563  L 31.23896197082038 2.5932747781346563  L 31.23896197082038 4.891784512809584  L 26 4.891784512809584  L 26 15.70182515640936  L 23 15.70182515640936  Z M 50.715950463738075 14.066643325772914  C 51.832890284504636 13.728453516736941  53.1524578574703 13.559374667011706  54.67464721358527 13.559374667011706  C 56.19750426761108 13.559374667011706  57.51204984021632 13.728453516736941  58.6183076882192 14.066643325772914  C 59.72456553622206 14.404567130677927  60.578133330717336 14.888060633362763  61.178997581652446 15.517087056459593  C 61.78052941111743 16.14584744569437  62.08129634058838 16.906765894006973  62.08129634058838 17.79982646552905  C 62.08129634058838 18.687699436203246  61.78052941111743 19.44861229506949  61.178997581652446 20.082626763886562  C 60.578133330717336 20.716840728369082  59.72456553622206 21.202940518538885  58.6183076882192 21.5408643234439  C 57.51204984021632 21.87905413247987  56.19750426761108 22.048132982205104  54.67464721358527 22.048132982205104  C 53.1524578574703 22.048132982205104  51.832890284504636 21.87905413247987  50.715950463738075 21.5408643234439  C 49.59901064297151 21.202940518538885  48.7398001863174 20.716741426502825  48.13826835685243 20.08226142815825  C 47.53740410591731 19.448047463675735  47.23694756703606 18.68670927172606  47.23694756703606 17.79830423332775  C 47.23694756703606 16.910231707525917  47.53740410591731 16.150826215312133  48.13826835685243 15.52007063157414  C 48.7398001863174 14.889049013974091  49.59901064297151 14.404567130677927  50.715950463738075 14.066643325772914  Z M 57.16724600706902 16.028435297520282  C 56.48760181901343 15.882518191864051  55.656726382078986 15.809599196261397  54.67464721358527 15.809599196261397  C 53.69323562362141 15.809599196261397  52.86136813060987 15.882518191864051  52.17905338967286 16.028435297520282  C 51.49607107020599 16.174352403176517  50.97464269527409 16.39458958241365  50.61479178293338 16.689084072884476  C 50.25494087059266 16.983379037958763  50.0750139520051 17.352016434399403  50.0750139520051 17.794955322484892  C 50.0750139520051 18.249666000848645  50.25494087059266 18.626895060166227  50.61479178293338 18.926643630219353  C 50.97464269527409 19.226458708737994  51.49607107020599 19.451897165127942  52.17905338967286 19.603001841900962  C 52.86136813060987 19.754173027139498  53.69323562362141 19.82975355060661  54.67464721358527 19.82975355060661  C 55.656726382078986 19.82975355060661  56.48760181901343 19.754173027139498  57.16724600706902 19.603001841900962  C 57.84689019512461 19.451897165127942  58.36528101014801 19.226458708737994  58.72246139945255 18.926643630219353  C 59.079641788757094 18.626895060166227  59.2582662308326 18.249666000848645  59.2582662308326 17.794955322484892  C 59.2582662308326 17.352016434399403  59.079641788757094 16.983379037958763  58.72246139945255 16.689084072884476  C 58.36528101014801 16.39458958241365  57.84689019512461 16.174352403176517  57.16724600706902 16.028435297520282  Z M 59 13.049487768864262  L 59 0.016074772045727853  L 62 0.016074772045727853  L 62 13.049487768864262  L 59 13.049487768864262  Z M 61.05283956522895 7.595756016622775  L 61.05283956522895 5.241167247651957  L 64.85830077865477 5.241167247651957  L 64.85830077865477 7.595756016622775  L 61.05283956522895 7.595756016622775  Z M 46 12  L 46 1.3972873822172835  L 48.04713385952324 1.3972873822172835  L 48.04713385952324 4.289833011127517  L 52.91112439873502 4.289833011127517  L 52.91112439873502 1.3972873822172835  L 56 1.3972873822172835  L 56 12  L 46 12  Z M 52.91112439873502 6.492198559968338  L 48.04713385952324 6.492198559968338  L 48.04713385952324 9.46176913826435  L 52.91112439873502 9.46176913826435  L 52.91112439873502 6.492198559968338  Z M 75.48656355470514 10.54072732254578  L 75.48656355470514 8.234362869712147  L 79.27301549336947 8.234362869712147  L 79.27301549336947 10.54072732254578  L 75.48656355470514 10.54072732254578  Z M 83 22.023777266984304  L 83 0  L 86 0  L 86 22.023777266984304  L 83 22.023777266984304  Z M 79 21.011127517391504  L 79 0.38232383967850453  L 81 0.38232383967850453  L 81 21.011127517391504  L 79 21.011127517391504  Z M 69.07536474527625 2.5843240527910125  C 69.79573420817803 1.9456008916475118  70.6329339727587 1.6262311052928016  71.5869728135215 1.6262311052928016  C 72.5583700092515 1.6262311052928016  73.40356806180489 1.9456008916475118  74.12260224826596 2.5843240527910125  C 74.84096879650669 3.223040613630828  75.39513338049403 4.13335431952415  75.78502750538149 5.31526951121124  C 76.17492163026897 6.4969586276315585  76.36985303887958 7.905034711651165  76.36985303887958 9.539585648394805  C 76.36985303887958 11.173937030010809  76.17492163026897 12.584821632441813  75.78502750538149 13.772243618041497  C 75.39513338049403 14.959399688703515  74.83997668073908 15.870960138447018  74.1196072178373 16.506903323032894  C 73.39990539315588 17.14291298635319  72.55433588663331 17.460916688231624  71.58293869090329 17.460916688231624  C 70.62823221192016 17.460916688231624  69.79140390130866 17.14291298635319  69.07236971484758 16.506903323032894  C 68.35400316660687 15.870960138447018  67.79983858261954 14.959399688703515  67.40994445773207 13.772243618041497  C 67.02005033284459 12.584821632441813  66.82511892423396 11.173937030010809  66.82511892423396 9.539585648394805  C 66.82511892423396 7.905034711651165  67.02005033284459 6.4969586276315585  67.40994445773207 5.31526951121124  C 67.79983858261954 4.13335431952415  68.35499528237446 3.223040613630828  69.07536474527625 2.5843240527910125  Z M 72.76365303356455 4.902988141811152  C 72.43651585680676 4.507435747530178  72.04528941015822 4.309682919032469  71.58996784395015 4.309682919032469  C 71.14532831019625 4.309682919032469  70.75912374452716 4.507435747530178  70.43131892954902 4.902988141811152  C 70.10418175279123 5.2985471958580055  69.8554956035872 5.883023055633782  69.68525073746312 6.65641696984458  C 69.51500587133906 7.429564770028771  69.4298785511175 8.390400589674698  69.4298785511175 9.538915866226235  C 69.4298785511175 10.67240040795823  69.51500587133906 11.62985152051969  69.68525073746312 12.411246251503204  C 69.8554956035872 13.192374948624662  70.10418175279123 13.782072064850897  70.43131892954902 14.180384515854048  C 70.75912374452716 14.578430932995143  71.14532831019625 14.777464874491956  71.58996784395015 14.777464874491956  C 72.04528941015822 14.777464874491956  72.43651585680676 14.578430932995143  72.76365303356455 14.180384515854048  C 73.09079021032233 13.782072064850897  73.33947635952634 13.192374948624662  73.50972122565044 12.411246251503204  C 73.6799660917745 11.62985152051969  73.76509341199606 10.67240040795823  73.76509341199606 9.538915866226235  C 73.76509341199606 8.390400589674698  73.6799660917745 7.429564770028771  73.50972122565044 6.65641696984458  C 73.33947635952634 5.883023055633782  73.09079021032233 5.2985471958580055  72.76365303356455 4.902988141811152  Z M 105 22.023777266984304  L 105 0  L 108 0  L 108 22.023777266984304  L 105 22.023777266984304  Z M 95.98907491562359 10.866911238640341  L 95.98907491562359 8.600672826632975  L 100.93417576868904 8.600672826632975  L 100.93417576868904 10.866911238640341  L 95.98907491562359 10.866911238640341  Z M 101 21.011127517391504  L 101 0.5020321799887354  L 103 0.5020321799887354  L 103 21.011127517391504  L 101 21.011127517391504  Z M 95.54843870419093 3.217633537819859  C 95.54843870419093 3.217633537819859  95.54843870419093 2.6486231409739243  95.54843870419093 2.6486231409739243  C 95.54843870419093 2.6486231409739243  98.29836562225942 2.6486231409739243  98.29836562225942 2.6486231409739243  C 98.29836562225942 4.688243515290822  98.04471873006855 6.606278684563043  97.53732227803025 8.402721751175925  C 97.03059346421227 10.199151498257045  96.18303954708303 11.851675121398017  94.99466369023891 13.360327584369719  C 93.80628783339479 14.868980047341422  92.19159599311702 16.21939135923919  90.15066039490819 17.411535475621452  C 90.15066039490819 17.411535475621452  88.52631481038561 15.409373905895606  88.52631481038561 15.409373905895606  C 90.21941668576763 14.39852883393208  91.57971872591618 13.284290183124533  92.60719657710808 12.066673770416939  C 93.63467442829999 10.849123955368151  94.38178609982701 9.509076666273424  94.84845730686439 8.046580305359779  C 95.31512851390175 6.584083944446135  95.54843870419093 4.974424953001081  95.54843870419093 3.217633537819859  Z M 89.6750006643812 4.938912821761831  L 89.6750006643812 2.6486231409739243  L 96.46375667703101 2.6486231409739243  L 96.46375667703101 4.938912821761831  L 89.6750006643812 4.938912821761831  Z M 133 11.110163944408079  L 133 0  L 136 0  L 136 11.110163944408079  L 133 11.110163944408079  Z M 125.37637460469318 2.423028328741266  C 125.37637460469318 2.423028328741266  125.37637460469318 0.9079201741433638  125.37637460469318 0.9079201741433638  C 125.37637460469318 0.9079201741433638  128.48778335857983 0.9079201741433638  128.48778335857983 0.9079201741433638  C 128.48778335857983 2.8245818856270835  128.10219945470914 4.496066932549891  127.33109038241781 5.922396602377727  C 126.55931367190614 7.348746251503204  125.42035480239642 8.531564079315908  123.914188524808 9.470780752896047  C 122.40802224721956 10.409797871348545  120.5487351012517 11.12659828434917  118.33621940524596 11.621146849740459  C 118.33621940524596 11.621146849740459  117.37181960721784 9.32263711506553  117.37181960721784 9.32263711506553  C 119.24117498824876 8.93483282322698  120.7640437416122 8.40221858207876  121.9404023492519 7.724841307293015  C 123.11676095689162 7.047197998645214  123.98328791665006 6.257001614041831  124.5400887613277 5.354177766276468  C 125.0975572442257 4.451340658441539  125.37637460469318 3.474256674988203  125.37637460469318 2.423028328741266  Z M 118.60760583592442 3.1825004186138552  L 118.60760583592442 0.9079201741433638  L 126.58905631295012 0.9079201741433638  L 126.58905631295012 3.1825004186138552  L 118.60760583592442 3.1825004186138552  Z M 127.64562970049697 5.048148204527118  L 127.64562970049697 2.870077481619046  L 133.01626936671184 2.870077481619046  L 133.01626936671184 5.048148204527118  L 127.64562970049697 5.048148204527118  Z M 127.48536501102873 9.295297824730184  L 127.48536501102873 7.133362763155892  L 132.9121156554785 7.133362763155892  L 132.9121156554785 9.295297824730184  L 127.48536501102873 9.295297824730184  Z M 120.99507294905524 15  L 120.99507294905524 12  L 135.50092216109917 12  L 135.50092216109917 18  L 123.88925031225915 18  L 123.88925031225915 20.806113284520418  L 121.03406946769779 20.806113284520418  L 121.03406946769779 16  L 132.6387732865609 16  L 132.6387732865609 15  L 120.99507294905524 15  Z M 121.03406946769779 22  L 121.03406946769779 20  L 136.01961253288687 20  L 136.01961253288687 22  L 121.03406946769779 22  Z M 155 22.023777266984304  L 155 0  L 158 0  L 158 22.023777266984304  L 155 22.023777266984304  Z M 147.89778096680752 9.950710121321906  L 147.89778096680752 7.636186503889304  L 151.72322942411438 7.636186503889304  L 151.72322942411438 9.950710121321906  L 147.89778096680752 9.950710121321906  Z M 151 20.995052745345774  L 151 0.40588799415462834  L 153 0.40588799415462834  L 153 20.995052745345774  L 151 20.995052745345774  Z M 143.28604533737277 5.959843514529707  C 143.28604533737277 5.959843514529707  143.28604533737277 3.5457659111320843  143.28604533737277 3.5457659111320843  L 145.44014456934812 3.5457659111320843  C 145.44014456934812 3.5457659111320843  145.44014456934812 5.959843514529707  145.44014456934812 5.959843514529707  C 145.44014456934812 7.184143834769306  145.34311145700457 8.391229373753673  145.14883201785858 9.581112142846269  C 144.95388495541482 10.771061509597674  144.65770734480677 11.8905070270044  144.2604693188764 12.939460825354299  C 143.86256368457092 13.98821506857656  143.35117907159787 14.93456750291127  142.72628026256345 15.778545659354878  C 142.10138145352903 16.622523815798488  141.36127592436185 17.310782791260102  140.50604586887772 17.84324052791013  C 140.50604586887772 17.84324052791013  138.7936219405246 15.744873883062123  138.7936219405246 15.744873883062123  C 139.8631602236224 15.074014318972342  140.7260289318287 14.219641576157276  141.3823062000053 13.18186108108931  C 142.03858346818194 12.144080586021342  142.51995910110887 11.000102274976026  142.82639985117862 9.74989724932641  C 143.13284060124838 8.499625744942383  143.28604533737277 7.236285639261412  143.28604533737277 5.959843514529707  Z M 143.91304578915197 5.959843514529707  C 143.91304578915197 5.959843514529707  143.91304578915197 3.5457659111320843  143.91304578915197 3.5457659111320843  L 146.05210874591404 3.5457659111320843  C 146.05210874591404 3.5457659111320843  146.05210874591404 5.959843514529707  146.05210874591404 5.959843514529707  C 146.05210874591404 7.194119926209794  146.1999812701598 8.408444273933297  146.49573998777538 9.602849618680834  C 146.79149870539095 10.79725496342837  147.26220991456057 11.882692683676343  147.90780515028305 12.85908696512566  C 148.55340038600548 13.835481246574977  149.40256708070075 14.62978355523039  150.45541470674215 15.242050142328711  C 150.45541470674215 15.242050142328711  148.77599723617425 17.308693468101623  148.77599723617425 17.308693468101623  C 147.63168466620658 16.621805690865084  146.70303326868074 15.693994936675141  145.99000770682184 14.525261443380572  C 145.27764978318334 13.35659442882042  144.7534942090874 12.034884805078166  144.417677854846 10.560151005434369  C 144.08119389222946 9.085217769587324  143.91304578915197 7.551796448061437  143.91304578915197 5.959843514529707  Z M 139.55668234606287 4.618269830880003  L 139.55668234606287 2.311966267334419  L 149.4830689096176 2.311966267334419  L 149.4830689096176 4.618269830880003  L 139.55668234606287 4.618269830880003  Z M 163.59931967365597 5  L 163.59931967365597 2  L 177.55738393260518 2  L 177.55738393260518 5  L 163.59931967365597 5  Z M 161.29999202742565 20  L 161.29999202742565 17  L 181.29273698477238 17  L 181.29273698477238 20  L 161.29999202742565 20  Z M 176.40778123255998 3.9075091714490124  C 176.40778123255998 3.9075091714490124  176.40778123255998 1.9213614844808429  176.40778123255998 1.9213614844808429  L 179.2298333731962 1.9213614844808429  C 179.2298333731962 1.9213614844808429  179.2298333731962 3.9075091714490124  179.2298333731962 3.9075091714490124  C 179.2298333731962 4.790892924759868  179.2178053312036 5.740895267570365  179.19377076191236 6.757493188010899  C 179.1697361926211 7.773991330887614  179.08932040382646 8.901145170528062  178.95245688166042 10.138979799978689  C 178.81626098279213 11.376747950694899  178.5825182154638 12.786224369415311  178.25137526907437 14.367436408749791  C 178.25137526907437 14.367436408749791  175.42137712934172 14.055500586059399  175.42137712934172 14.055500586059399  C 175.91275053269877 11.851513859924193  176.2001257870192 9.92848945568782  176.28357915437562 8.286423210996606  C 176.36636489097296 6.644090932443335  176.40778123255998 5.184450065075427  176.40778123255998 3.9075091714490124  Z M 162.94139094847057 7.6837410378579145  L 176.94554200217917 7.213797512672583  L 176.94554200217917 9.376219688551291  L 163.32695527385792 10.11011827744204  L 162.94139094847057 7.6837410378579145  Z M 168.57852719976614 17.912045423408888  L 168.57852719976614 11.678809005525704  L 171.44055382816444 11.678809005525704  L 171.44055382816444 17.912045423408888  L 168.57852719976614 17.912045423408888  Z M 185.81425496292752 13  L 185.81425496292752 11  L 201.25846554519123 11  L 201.25846554519123 13  L 185.81425496292752 13  Z M 183.4278880650562 20  L 183.4278880650562 17  L 203.45266151106858 17  L 203.45266151106858 20  L 183.4278880650562 20  Z M 185.81425496292752 11.238823010061955  L 185.81425496292752 2  L 201.07521858141325 2  L 201.07521858141325 5  L 188.6523213478966 5  L 188.6523213478966 11.238823010061955  L 185.81425496292752 11.238823010061955  Z M 205.53157936697758 12  L 205.53157936697758 10  L 225.55647505912992 10  L 225.55647505912992 12  L 205.53157936697758 12  Z M 207.81489276887507 16  L 207.81489276887507 14  L 223.14590342554942 14  L 223.14590342554942 19  L 210.68498764250978 19  L 210.68498764250978 20.519629184235765  L 207.85401153365754 20.519629184235765  L 207.85401153365754 17  L 220.33094156103004 17  L 220.33094156103004 16  L 207.81489276887507 16  Z M 207.85401153365754 22  L 207.85401153365754 20  L 223.78586196816286 20  L 223.78586196816286 22  L 207.85401153365754 22  Z M 208.00718594700896 3  L 208.00718594700896 1  L 223.08184644821813 1  L 223.08184644821813 6  L 210.8612665763108 6  L 210.8612665763108 7.445724810862649  L 208.047282680911 7.445724810862649  L 208.047282680911 4  L 220.26786255281831 4  L 220.26786255281831 3  L 208.00718594700896 3  Z M 208.047282680911 9  L 208.047282680911 7  L 223.48244704881876 7  L 223.48244704881876 9  L 208.047282680911 9  Z M 248 12.86761146545294  L 248 0.016074772045727853  L 251 0.016074772045727853  L 251 12.86761146545294  L 248 12.86761146545294  Z M 250.43319779956946 7.436774085519006  L 250.43319779956946 5.082550652276499  L 254.23969810518483 5.082550652276499  L 254.23969810518483 7.436774085519006  L 250.43319779956946 7.436774085519006  Z M 234 12  L 234 1.2696634344602926  L 237.4285311860533 1.2696634344602926  L 237.4285311860533 4.210555158083814  L 242.29148263307553 4.210555158083814  L 242.29148263307553 1.2696634344602926  L 245 1.2696634344602926  L 245 12  L 234 12  Z M 242.29148263307553 6.420653646507239  L 237.4285311860533 6.420653646507239  L 237.4285311860533 9.462621588297079  L 242.29148263307553 9.462621588297079  L 242.29148263307553 6.420653646507239  Z M 237.00189215764436 21.10428812811106  L 237.00189215764436 14  L 251.36556910893194 14  L 251.36556910893194 17  L 239.85597278694624 17  L 239.85597278694624 21.10428812811106  L 237.00189215764436 21.10428812811106  Z M 237.00189215764436 22  L 237.00189215764436 20  L 251.7901299529618 20  L 251.7901299529618 22  L 237.00189215764436 22  Z M 258.07321480772805 5  L 258.07321480772805 2  L 272.1344548087911 2  L 272.1344548087911 5  L 258.07321480772805 5  Z M 256.00725504265324 20  L 256.00725504265324 17  L 276 17  L 276 20  L 256.00725504265324 20  Z M 263.26867575540143 18.09611374119008  L 263.26867575540143 9.298403178420836  L 266.13180259905926 9.298403178420836  L 266.13180259905926 18.09611374119008  L 263.26867575540143 18.09611374119008  Z M 271.0979297881953 4.0915774892302075  C 271.0979297881953 4.0915774892302075  271.0979297881953 1.9689160184494543  271.0979297881953 1.9689160184494543  L 273.96007866273357 1.9689160184494543  C 273.96007866273357 1.9689160184494543  273.96007866273357 4.0915774892302075  273.96007866273357 4.0915774892302075  C 273.96007866273357 5.007130825392355  273.94941423524557 5.975934341368182  273.9280501740679 6.998005875816297  C 273.90668611289016 8.019824695934117  273.83724508621333 9.148231998652825  273.71974275160113 10.383206734355259  C 273.602240416989 11.618314546450916  273.396211985198 13.007896579544242  273.1017885141779 14.55193095154735  C 273.1017885141779 14.55193095154735  270.2407398548991 14.231653296393832  270.2407398548991 14.231653296393832  C 270.6733621096034 12.059590158007703  270.92434288093233 10.157868204184616  270.9937760769619 8.52650967378564  C 271.06320927299157 6.895151143386663  271.0979297881953 5.416869234545538  271.0979297881953 4.0915774892302075  Z M 25 51.95220190887918  L 25 29.92824197403072  L 27 29.92824197403072  L 27 51.95220190887918  L 25 51.95220190887918  Z M 21.245584522575673 40.851719361271364  L 21.245584522575673 38.55357496232475  L 25.087108347285337 38.55357496232475  L 25.087108347285337 40.851719361271364  L 21.245584522575673 40.851719361271364  Z M 20 50.89114517528504  L 20 30.342776247088732  L 22 30.342776247088732  L 22 50.89114517528504  L 20 50.89114517528504  Z M 10 45.149102644117335  L 10 32.43286194876166  L 12 32.43286194876166  L 12 45.149102644117335  L 10 45.149102644117335  Z M 9.136126391878603 46.502975963953546  L 9.136126391878603 44.06040217374758  C 9.136126391878603 44.06040217374758  10.635291929097239 44.06040217374758  10.635291929097239 44.06040217374758  C 11.724191422132863 44.06040217374758  12.889562083516038 44.020502639289  14.131348162321613 43.94069383343735  C 15.37313424112719 43.8608850275857  16.69102785376638 43.6854507543612  18.08503282043105 43.41436682751587  C 18.08503282043105 43.41436682751587  18.35739722022908 45.856879728433775  18.35739722022908 45.856879728433775  C 16.905308623750965 46.12822968914116  15.538371865366473 46.30382415351997  14.256528209625555 46.38363295937162  C 12.974684553884636 46.46317573879399  11.767587130479484 46.502975963953546  10.635291929097239 46.502975963953546  C 10.635291929097239 46.502975963953546  9.136126391878603 46.502975963953546  9.136126391878603 46.502975963953546  Z M 45.112920885487256 38.09946265203294  L 45.112920885487256 35.83279801500921  L 49.70149087140237 35.83279801500921  L 49.70149087140237 38.09946265203294  L 45.112920885487256 38.09946265203294  Z M 44.976677562518276 43.6148752530711  L 44.976677562518276 41.3324402904419  L 49.63639480188153 41.3324402904419  L 49.63639480188153 43.6148752530711  L 44.976677562518276 43.6148752530711  Z M 53 51.95220190887918  L 53 29.92824197403072  L 56 29.92824197403072  L 56 51.95220190887918  L 53 51.95220190887918  Z M 49 50.93943038071028  L 49 30.430335043307508  L 51 30.430335043307508  L 51 50.93943038071028  L 49 50.93943038071028  Z M 43.32635467325733 33.145936401138634  C 43.32635467325733 33.145936401138634  43.32635467325733 32.576926004292694  43.32635467325733 32.576926004292694  C 43.32635467325733 32.576926004292694  46.06026734699301 32.576926004292694  46.06026734699301 32.576926004292694  C 46.06026734699301 34.61657301767312  45.80922546751675 36.53199422883717  45.307170001860264 38.32316989633598  C 44.805782174424145 40.114146008707166  43.963560528864036 41.76396410195912  42.78052565840177 43.272616564930814  C 41.59749078793949 44.7812025491681  39.990858239323394 46.136920029531304  37.960604852640245 47.33983833894022  C 37.960604852640245 47.33983833894022  36.33625926811767 45.337676769214376  36.33625926811767 45.337676769214376  C 38.018679051355 44.326831697250846  39.373648939315416 43.21259304644331  40.40112679050732 41.99497663373571  C 41.428604641699216 40.77742681868692  42.17267872347251 39.43737952959219  42.63334130590768 37.97488316867855  C 43.095339134938314 36.512386807764905  43.32635467325733 34.90272781631985  43.32635467325733 33.145936401138634  Z M 37.51697361077892 34.8672156850806  L 37.51697361077892 32.576926004292694  L 44.30572962342874 32.576926004292694  L 44.30572962342874 34.8672156850806  L 37.51697361077892 34.8672156850806  Z M 63.8698796141274 33.790936629473464  C 63.8698796141274 33.790936629473464  63.8698796141274 32.55445785700151  63.8698796141274 32.55445785700151  L 66.20123574902335 32.55445785700151  C 66.20123574902335 32.55445785700151  66.20123574902335 33.790936629473464  66.20123574902335 33.790936629473464  C 66.20123574902335 35.08982501940846  65.96656195915217 36.31162566787938  65.49722022907864 37.456349991627725  C 65.02787849900508 38.60087476024843  64.33390083165992 39.59390192590915  63.415246219671 40.43541929885985  C 62.49659160768208 41.27660415921407  61.35825339997077 41.90479270051604  60.000300300300296 42.32006454264533  C 60.000300300300296 42.32006454264533  58.60131547476681 40.10131977531852  58.60131547476681 40.10131977531852  C 59.77700650387666 39.74490694404275  60.7543907759391 39.243440368456305  61.53351138749369 38.59698902470583  C 62.31329963726863 37.95053768095535  62.89778353220131 37.212594949233555  63.28701001886843 36.38311540042318  C 63.67556889716044 35.55330333901633  63.8698796141274 34.68925128057784  63.8698796141274 33.790936629473464  Z M 64.44969305588775 33.790936629473464  C 64.44969305588775 33.790936629473464  64.44969305588775 32.55445785700151  64.44969305588775 32.55445785700151  L 66.76503494645088 32.55445785700151  C 66.76503494645088 32.55445785700151  66.76503494645088 33.790936629473464  66.76503494645088 33.790936629473464  C 66.76503494645088 34.620216623156196  66.95395232846924 35.42441938733959  67.33182917430706 36.203552889957834  C 67.71037362851997 36.98242035871402  68.28419309969539 37.6763442975279  69.05329931701614 38.285418537743745  C 69.82173789611652 38.89442623976299  70.77277149937548 39.369328109301975  71.90640197719844 39.71004521029638  C 71.90640197719844 39.71004521029638  70.56352812989981 41.91234986984915  70.56352812989981 41.91234986984915  C 69.23161238360872 41.51330582572534  68.11162673579967 40.91313964672796  67.20365409657445 40.11179273286347  C 66.29568145734922 39.31024626387134  65.60970216751251 38.36514164370633  65.14570145366606 37.27648303472212  C 64.6817007398196 36.1878244257379  64.44969305588775 35.0259779628347  64.44969305588775 33.790936629473464  Z M 59.36339791118552 34  L 59.36339791118552 31  L 71.28753089372557 31  L 71.28753089372557 34  L 59.36339791118552 34  Z M 63.90294719498259 46.21186427777693  L 63.90294719498259 41.36946097757752  L 66.75702782428446 41.36946097757752  L 66.75702782428446 46.21186427777693  L 63.90294719498259 46.21186427777693  Z M 75.13504477929257 41.11585709284095  L 75.13504477929257 38.74513266253634  L 79.08377846873422 38.74513266253634  L 79.08377846873422 41.11585709284095  L 75.13504477929257 41.11585709284095  Z M 74 51.95220190887918  L 74 29.92824197403072  L 76 29.92824197403072  L 76 51.95220190887918  L 74 51.95220190887918  Z M 62.87345132743363 47.63344648592696  C 61.39465767966528 47.65193552716328  60.03299206977996 47.66121200127868  58.788535438092964 47.66121200127868  C 58.788535438092964 47.66121200127868  58.443067846607676 45.34662749455802  58.443067846607676 45.34662749455802  C 59.71422952958489 45.34662749455802  61.11359219597086 45.340012547377995  62.64112253846768 45.326777586653066  C 64.16798530243463 45.31354262592814  65.72855099291769 45.26442188653567  67.32284408302108 45.17942550956723  C 68.91713717312444 45.09436262413328  70.45668440668267 44.95080487433022  71.94148661936273 44.74875557517544  C 71.94148661936273 44.74875557517544  72.15877913311542 46.81491178664393  72.15877913311542 46.81491178664393  C 70.60921702779937 47.10248951562571  69.04431124120525 47.306161694180226  67.46403837465785 47.4258749029577  C 65.88309781019959 47.54558811173517  64.35291255373183 47.61475792301049  62.87345132743363 47.63344648592696  Z M 80.80323155013421 49  L 80.80323155013421 47  L 100.82800499614659 47  L 100.82800499614659 49  L 80.80323155013421 49  Z M 89.3565494698238 48.07830362443487  L 89.3565494698238 42.81168465437718  L 92.20262297695926 42.81168465437718  L 92.20262297695926 48.07830362443487  L 89.3565494698238 48.07830362443487  Z M 83.1175343485078 33  L 83.1175343485078 31  L 98.513702197773 31  L 98.513702197773 38  L 85.98769034521247 38  L 85.98769034521247 42.45883123011584  L 83.15763108240985 42.45883123011584  L 83.15763108240985 36  L 95.68364293497038 36  L 95.68364293497038 33  L 83.1175343485078 33  Z M 83.15763108240985 43  L 83.15763108240985 41  L 99.01845650960696 41  L 99.01845650960696 43  L 83.15763108240985 43  Z M 117.7112971378458 44.28977212183946  L 117.7112971378458 41.07396526266117  L 120.5584097371708 41.07396526266117  L 120.5584097371708 44.28977212183946  L 117.7112971378458 44.28977212183946  Z M 109.19104679901139 41  L 109.19104679901139 39  L 129.10268144250446 39  L 129.10268144250446 41  L 109.19104679901139 41  Z M 117.7032900156794 32.53953998142877  L 117.7032900156794 29.88160077938289  L 120.54936352281484 29.88160077938289  L 120.54936352281484 32.53953998142877  L 117.7032900156794 32.53953998142877  Z M 117.5420473570916 33.1145175285038  C 117.5420473570916 33.1145175285038  117.5420473570916 32.6989481375489  117.5420473570916 32.6989481375489  L 120.0586675170746 32.6989481375489  C 120.0586675170746 32.6989481375489  120.0586675170746 33.1145175285038  120.0586675170746 33.1145175285038  C 120.0586675170746 33.928301317301695  119.84804980372725 34.65978930879242  119.42677721969758 35.30896746989786  C 119.00550463566789 35.95794607587567  118.39696463436611 36.52202280517901  117.60115336575514 37.00114167415097  C 116.80600967567402 37.479994509260884  115.83897943677916 37.8644071666692  114.70000797257435 38.1544456791439  C 113.56170408689941 38.44448419161859  112.2701612027542 38.6347662642186  110.8254165670095 38.725282754631394  C 110.8254165670095 38.725282754631394  110.02128145844961 36.610841337737654  110.02128145844961 36.610841337737654  C 111.3004546806901 36.55251440204103  112.40866154283432 36.42099396351685  113.3460097265407 36.21621786187265  C 114.28335791024709 36.011508268693966  115.06419796628764 35.75246485665329  115.6884291371017 35.43914876775303  C 116.31199266969541 35.12569966192174  116.77693908994725 34.76998863320674  117.083379840017 34.37194221606564  C 117.38915298171166 33.97362976506248  117.5420473570916 33.554463595103364  117.5420473570916 33.1145175285038  Z M 118.20199314358607 33.1145175285038  C 118.20199314358607 33.1145175285038  118.20199314358607 32.6989481375489  118.20199314358607 32.6989481375489  L 120.71060618140264 32.6989481375489  C 120.71060618140264 32.6989481375489  120.71060618140264 33.1145175285038  120.71060618140264 33.1145175285038  C 120.71060618140264 33.554463595103364  120.8635005567826 33.97362976506248  121.16927369847724 34.37194221606564  C 121.475714448547 34.76998863320674  121.94109344583799 35.12569966192174  122.56532461665205 35.43914876775303  C 123.18888814924576 35.75246485665329  123.97196170434123 36.011508268693966  124.91465093411996 36.21621786187265  C 125.85800774242855 36.42099396351685  126.96360965154867 36.55251440204103  128.23143320311462 36.610841337737654  C 128.23143320311462 36.610841337737654  127.42827606367429 38.725282754631394  127.42827606367429 38.725282754631394  C 125.98286373001874 38.6347662642186  124.69101057466482 38.44448419161859  123.55270668898987 38.1544456791439  C 122.41440280331493 37.8644071666692  121.44873619384734 37.479994509260884  120.65559541842728 37.00114167415097  C 119.86245464300721 36.52202280517901  119.25515602499277 35.95794607587567  118.83388344096309 35.30896746989786  C 118.4126108569334 34.65978930879242  118.20199314358607 33.928301317301695  118.20199314358607 33.1145175285038  Z M 111.0958250285684 33  L 111.0958250285684 31  L 127.18097212256504 31  L 127.18097212256504 33  L 111.0958250285684 33  Z M 111.46531398655293 45  L 111.46531398655293 43  L 126.6681495654947 43  L 126.6681495654947 48  L 114.31945573892476 48  L 114.31945573892476 50.54474601555721  L 111.50437162826543 50.54474601555721  L 111.50437162826543 46  L 123.85416567009489 46  L 123.85416567009489 45  L 111.46531398655293 45  Z M 111.50437162826543 51  L 111.50437162826543 49  L 127.27705758856202 49  L 127.27705758856202 51  L 111.50437162826543 51  Z M 133.75341359058172 33  L 133.75341359058172 31  L 147.81465359164474 31  L 147.81465359164474 33  L 133.75341359058172 33  Z M 131.26986101145394 41  L 131.26986101145394 39  L 151.29463445746632 39  L 151.29463445746632 41  L 131.26986101145394 41  Z M 146.06311089850914 32.68993652291721  C 146.06311089850914 32.68993652291721  146.06311089850914 30.964577656675747  146.06311089850914 30.964577656675747  L 148.87709479390895 30.964577656675747  C 148.87709479390895 30.964577656675747  148.87709479390895 32.68993652291721  148.87709479390895 32.68993652291721  C 148.87709479390895 33.631879954390115  148.85043372705448 34.64683915618863  148.79702357224483 35.73476626124549  C 148.74361341743517 36.82262676864354  148.54595477235395 38.0952157431157  148.20412979351033 39.55252462210586  C 148.20412979351033 39.55252462210586  145.36606340854127 39.4975415949949  145.36606340854127 39.4975415949949  C 145.713229403612 38.04522076172499  145.91622026430252 36.78050030064086  145.9749714316086 35.70334738861066  C 146.03372259891466 34.6259284427184  146.06311089850914 33.621438333422134  146.06311089850914 32.68993652291721  Z M 133.64925987934836 51  L 133.64925987934836 43  L 148.82709612267135 43  L 148.82709612267135 51  L 133.64925987934836 51  Z M 146.0290042254644 49.45501042729058  L 146.0290042254644 45.93883671015177  L 136.44722953041537 45.93883671015177  L 136.44722953041537 49.45501042729058  L 146.0290042254644 49.45501042729058  Z M 167 41.86857047173976  L 167 29.905104044570955  L 170 29.905104044570955  L 170 41.86857047173976  L 167 41.86857047173976  Z M 169.55894124212708 37.09162315619625  L 169.55894124212708 34.76126832387013  L 173.734869382657 34.76126832387013  L 173.734869382657 37.09162315619625  L 169.55894124212708 37.09162315619625  Z M 156.26381780010098 44  L 156.26381780010098 42  L 170.70047569693588 42  L 170.70047569693588 48  L 159.12584442849928 48  L 159.12584442849928 50.3996468421293  L 156.30379228786308 50.3996468421293  L 156.30379228786308 46  L 167.88649180153604 46  L 167.88649180153604 44  L 156.26381780010098 44  Z M 156.30379228786308 51  L 156.30379228786308 49  L 171.38847697254778 49  L 171.38847697254778 51  L 156.30379228786308 51  Z M 153.3896888038481 33  L 153.3896888038481 31  L 166.4103696616971 31  L 166.4103696616971 33  L 153.3896888038481 33  Z M 155.97629487894974 35.42429178146835  C 156.95970932388417 34.77757440385581  158.26892274430128 34.45420364422389  159.90394110925084 34.45420364422389  C 161.53562134278914 34.45420364422389  162.84254014108137 34.77757440385581  163.82461930957507 35.42429178146835  C 164.80669847806877 36.07094262088427  165.29780754205535 36.95396175201315  165.29780754205535 38.073280258170584  C 165.29780754205535 39.17637093659142  164.80669847806877 40.04901468763796  163.82461930957507 40.691276087254344  C 162.84254014108137 41.33320491481208  161.53562134278914 41.654179288508665  159.90394110925084 41.654179288508665  C 158.26892274430128 41.654179288508665  156.95970932388417 41.33320491481208  155.97629487894974 40.691276087254344  C 154.99354807223565 40.04901468763796  154.50225092348987 39.17637093659142  154.50225092348987 38.073280258170584  C 154.50225092348987 36.95396175201315  154.99354807223565 36.07094262088427  155.97629487894974 35.42429178146835  Z M 161.84484307316166 36.88916627342335  C 161.37149557345649 36.61635315620576  160.72445457418146 36.479990257713915  159.90394110925084 36.479990257713915  C 159.08876863070205 36.479990257713915  158.44153954666777 36.61635315620576  157.9621834223604 36.88916627342335  C 157.4834949362734 37.16204589910645  157.24423184246191 37.55573498603352  157.24423184246191 38.07023579376798  C 157.24423184246191 38.57954900065456  157.4834949362734 38.9679319191162  157.9621834223604 39.23529143135494  C 158.44153954666777 39.502650943593686  159.08876863070205 39.63630828246541  159.90394110925084 39.63630828246541  C 160.72445457418146 39.63630828246541  161.37149557345649 39.502650943593686  161.84484307316166 39.23529143135494  C 162.31885818124195 38.9679319191162  162.55582662308325 38.57954900065456  162.55582662308325 38.07023579376798  C 162.55582662308325 37.55573498603352  162.31885818124195 37.16204589910645  161.84484307316166 36.88916627342335  Z M 158.4729277950517 33.17138812354436  L 158.4729277950517 29.753611495897587  L 161.32700842435355 29.753611495897587  L 161.32700842435355 33.17138812354436  L 158.4729277950517 33.17138812354436  Z M 190.23357516808844 31.705600292268585  C 190.23357516808844 31.705600292268585  190.23357516808844 30.605817971473368  190.23357516808844 30.605817971473368  L 192.73424220680857 30.605817971473368  C 192.73424220680857 30.605817971473368  192.73424220680857 31.705600292268585  192.73424220680857 31.705600292268585  C 192.73424220680857 32.54658559749517  192.59567050673806 33.353085445747645  192.31860533099473 34.12503615301478  C 192.04154015525134 34.89692032208531  191.63995964559 35.61438867392644  191.11386962183423 36.277533374941015  C 190.5884472362988 36.94047852082794  189.95585115847317 37.53570294542417  189.2161205453241 38.06317263635395  C 188.47572229395462 38.590642327283724  187.63920437393284 39.03423634010664  186.70652953838794 39.3939080267304  C 185.77385470284307 39.75331367949211  184.76143956975503 40.01823197130022  183.66920194530815 40.1887567929612  C 183.66920194530815 40.1887567929612  182.5526057030482 37.906078273179794  182.5526057030482 37.906078273179794  C 183.5106503134426 37.77811815590131  184.38753136605908 37.56772610261938  185.18334263467005 37.274960802520816  C 185.9798215415014 36.98212899395674  186.69146980480895 36.63208857750255  187.31837146881395 36.224864140776035  C 187.94527313281893 35.817573195584  188.47476094863876 35.3665360916498  188.90671556512265 34.871721492396446  C 189.33867018160652 34.3769068931431  189.66777211587453 33.8610178215335  189.89409763746048 33.32403756869073  C 190.12042315904642 32.78705731584796  190.23357516808844 32.2475685908316  190.23357516808844 31.705600292268585  Z M 190.76436790773073 31.705600292268585  C 190.76436790773073 31.705600292268585  190.76436790773073 30.605817971473368  190.76436790773073 30.605817971473368  L 193.25696670121448 30.605817971473368  C 193.25696670121448 30.605817971473368  193.25696670121448 31.705600292268585  193.25696670121448 31.705600292268585  C 193.25696670121448 32.2423810494459  193.37148232476116 32.77801561334541  193.60047835446065 33.31246860396085  C 193.82947438416014 33.84665556071423  194.16130356236008 34.361136567537635  194.5959286720349 34.85595116679098  C 195.03055378170967 35.350765766044326  195.55991935138957 35.8032165242111  196.18415052220362 36.2132342867581  C 196.80904933123804 36.623052523908555  197.51945621125827 36.97569354920805  198.31526747986925 37.271185666661594  C 199.1117463867006 37.56647825871859  199.98633275750169 37.77811815590131  200.93903638151426 37.906078273179794  C 200.93903638151426 37.906078273179794  199.82146217013474 40.1887567929612  199.82146217013474 40.1887567929612  C 198.73523322998054 40.01823197130022  197.72678661965338 39.751905644437  196.79611469876957 39.38970666585481  C 195.8661104161061 39.027374670341594  195.029902767293 38.581174459227014  194.287501660953 38.0511774466077  C 193.545100554613 37.521180433988405  192.9108305164609 36.92476349506416  192.3847404927051 36.26188482791165  C 191.85931810716968 35.598673648162666  191.45804792840752 34.88239787011173  191.1809827526642 34.11304096326854  C 190.9032499685457 33.34361757769093  190.76436790773073 32.541132022247425  190.76436790773073 31.705600292268585  Z M 190.24164341332485 51.96827668092491  L 190.24164341332485 43.80454538535308  L 193.0887560126498 43.80454538535308  L 193.0887560126498 51.96827668092491  L 190.24164341332485 51.96827668092491  Z M 181.73734619575328 44  L 181.73734619575328 42  L 201.73021339923994 42  L 201.73021339923994 44  L 181.73734619575328 44  Z M 215.2074835897845 44.21981032986772  C 215.2074835897845 44.21981032986772  215.2074835897845 43.36157581477478  215.2074835897845 43.36157581477478  L 217.37062903611576 43.36157581477478  C 217.37062903611576 43.36157581477478  217.37062903611576 44.21981032986772  217.37062903611576 44.21981032986772  C 217.37062903611576 45.28545742601951  217.19045290969896 46.30828508174387  216.8299343591379 47.28820422267213  C 216.47008344679716 48.26812336360038  215.9255300178843 49.13743758847975  215.1964814371894 49.89615331922732  C 214.4674328564945 50.65453653737841  213.53617638656357 51.23871193468102  212.40254590874062 51.64872969722801  C 212.40254590874062 51.64872969722801  211.00343883706714 49.56649871371379  211.00343883706714 49.56649871371379  C 211.9654892170932 49.23130172616375  212.75600158112343 48.779116080194996  213.37489170586517 48.20994626520329  C 213.99444946882724 47.6408429884082  214.45480661498405 47.00926397218882  214.75590634882673 46.31519339960118  C 215.05700608266935 45.620856793151475  215.2074835897845 44.92239386711674  215.2074835897845 44.21981032986772  Z M 215.90758723325095 44.21981032986772  C 215.90758723325095 44.21981032986772  215.90758723325095 43.36157581477478  215.90758723325095 43.36157581477478  L 217.96547875308937 43.36157581477478  C 217.96547875308937 43.36157581477478  217.96547875308937 44.21981032986772  217.96547875308937 44.21981032986772  C 217.96547875308937 44.93256951368487  218.09902857218046 45.64546046572694  218.36607935368997 46.35848568340615  C 218.63313013519948 47.07131134595771  219.04810232747266 47.723055538641866  219.6109117967525 48.31364072275585  C 220.17438890425268 48.90422590686983  220.90234413409536 49.383081179929746  221.7949613330144 49.75020169576667  C 221.7949613330144 49.75020169576667  220.6374126338728 51.86464311266041  220.6374126338728 51.86464311266041  C 219.498441169668 51.42795593113993  218.5816954598058 50.81152826880337  217.88736346966436 50.01543543452118  C 217.1923638413026 49.21934260023899  216.68872833831827 48.31539093301417  216.37627893380105 47.30354832326123  C 216.06382952928385 46.291705713508286  215.90758723325095 45.26377608249737  215.90758723325095 44.21981032986772  Z M 223.29210980892395 44.21981032986772  C 223.29210980892395 44.21981032986772  223.29210980892395 43.36157581477478  223.29210980892395 43.36157581477478  L 225.35012357490234 43.36157581477478  C 225.35012357490234 43.36157581477478  225.35012357490234 44.21981032986772  225.35012357490234 44.21981032986772  C 225.35012357490234 45.189686841158874  225.1899126665728 46.177921234948926  224.8694517526376 47.18450976511957  C 224.54899083870237 48.190898859086964  224.04554339063208 49.1079810277541  223.3592229397539 49.93573135646112  C 222.67290248887576 50.763747719030185  221.76570212531394 51.406740087414185  220.6374126338728 51.86464311266041  C 220.6374126338728 51.86464311266041  219.46360519811847 49.75020169576667  219.46360519811847 49.75020169576667  C 220.35555475881716 49.345903572060564  221.08332190390058 48.83386863183672  221.6467990114008 48.214086736790826  C 222.21027611890096 47.594371320479354  222.62524831117415 46.934714671844795  222.89163145446332 46.2351239858128  C 223.15868223597283 45.5355332997808  223.29210980892395 44.863734411390865  223.29210980892395 44.21981032986772  Z M 223.93610247415558 44.21981032986772  C 223.93610247415558 44.21981032986772  223.93610247415558 43.36157581477478  223.93610247415558 43.36157581477478  L 226.09814770522735 43.36157581477478  C 226.09814770522735 43.36157581477478  226.09814770522735 44.21981032986772  226.09814770522735 44.21981032986772  C 226.09814770522735 44.970279129815964  226.2490577893816 45.69666514602012  226.55082516144464 46.39891617067268  C 226.8519248952873 47.101034178394194  227.3119717105449 47.727400619643646  227.9308618352866 48.27808137853348  C 228.55041959824868 48.82849610356126  229.34124229317814 49.25797117486833  230.30329267320417 49.56649871371379  C 230.30329267320417 49.56649871371379  228.90418560153074 51.64872969722801  228.90418560153074 51.64872969722801  C 227.77055512370777 51.249419619242154  226.83520782518553 50.68101945317614  226.09814770522735 49.94358607461982  C 225.36108758526916 49.20635219172895  224.81634607159705 48.34516591379599  224.46383906029922 47.359992693285434  C 224.11199968722178 46.37461997710943  223.93610247415558 45.32788917293319  223.93610247415558 44.21981032986772  Z M 225 42.4439133545431  L 225 29.952232353523204  L 228 29.952232353523204  L 228 42.4439133545431  L 225 42.4439133545431  Z M 213.352887400675 31.779337220099556  C 214.25084558597592 31.332208387879987  215.26629830881765 31.108641712206783  216.39926120811077 31.108641712206783  C 217.53756509378573 31.108641712206783  218.55407111515552 31.332208387879987  219.44869116904513 31.779337220099556  C 220.34397886115514 32.226532560784634  221.05091557438246 32.844047846136576  221.5696616970953 33.63189380908164  C 222.08774018158783 34.419540216899065  222.3467804087273 35.326981541983166  222.3467804087273 36.354253877886535  C 222.3467804087273 37.37607269800435  222.08774018158783 38.27956050064314  221.5696616970953 39.06467964623324  C 221.05091557438246 39.84979879182333  220.34397886115514 40.46590604212017  219.44869116904513 40.91303487433973  C 218.55407111515552 41.360230215024814  217.53756509378573 41.58385216080861  216.39926120811077 41.58385216080861  C 215.26629830881765 41.58385216080861  214.25084558597592 41.360230215024814  213.352887400675 40.91303487433973  C 212.45559679390396 40.46590604212017  211.7476068418391 39.84979879182333  211.2288607191262 39.06467964623324  C 210.71078223463368 38.27956050064314  210.4517420074942 37.37607269800435  210.4517420074942 36.354253877886535  C 210.4517420074942 35.326981541983166  210.71078223463368 34.419540216899065  211.2288607191262 33.63189380908164  C 211.7476068418391 32.844047846136576  212.45559679390396 32.226532560784634  213.352887400675 31.779337220099556  Z M 218.02562385394245 33.82125949492336  C 217.55427923905307 33.58781873520581  217.0121427082503 33.47108519933631  216.39926120811077 33.47108519933631  C 215.8024027268073 33.47108519933631  215.26528807698395 33.58781873520581  214.78793483749237 33.82125949492336  C 214.3112492063759 34.054700254640906  213.93570906446408 34.38509442120926  213.66131441175688 34.812537104409905  C 213.3869197590497 35.240046296076066  213.2497116585612 35.75395863619411  213.2497116585612 36.354253877886535  C 213.2497116585612 36.94384146474891  213.3869197590497 37.454992945405145  213.66131441175688 37.887689708188084  C 213.93570906446408 38.32038647097103  214.3112492063759 38.65224957674809  214.78793483749237 38.88322956783828  C 215.26528807698395 39.11394352506641  215.8024027268073 39.22926339183779  216.39926120811077 39.22926339183779  C 217.0121427082503 39.22926339183779  217.55427923905307 39.11394352506641  218.02562385394245 38.88322956783828  C 218.4976360772069 38.65224957674809  218.8707593508539 38.32038647097103  219.1451540035611 37.887689708188084  C 219.4195486562683 37.454992945405145  219.55675675675676 36.94384146474891  219.55675675675676 36.354253877886535  C 219.55675675675676 35.75395863619411  219.4195486562683 35.240046296076066  219.1451540035611 34.812537104409905  C 218.8707593508539 34.38509442120926  218.4976360772069 34.054700254640906  218.02562385394245 33.82125949492336  Z M 235.28946822929123 32.45758299971078  C 236.1446982847754 31.818846519035514  237.1173710664481 31.49949005221257  238.2076058359244 31.49949005221257  C 239.30251401325273 31.49949005221257  240.27624003376303 31.818846519035514  241.12879959605624 32.45758299971078  C 241.98135915834945 33.096319480386036  242.64929642809986 33.99996753364133  243.13265832203885 35.168434993073845  C 243.616687824353 36.3366364186443  243.85880039331366 37.716423006446654  243.85880039331366 39.30781057342487  C 243.85880039331366 40.9102383672918  243.616687824353 42.29825214444462  243.13265832203885 43.47190720472501  C 242.64929642809986 44.64562874373982  241.98135915834945 45.55187743557153  241.12879959605624 46.19061391624678  C 240.27624003376303 46.82908436305999  239.30251401325273 47.14834152801669  238.2076058359244 47.14834152801669  C 237.1173710664481 47.14834152801669  236.1446982847754 46.82908436305999  235.28946822929123 46.19061391624678  C 234.434905752337 45.55187743557153  233.76560488300456 44.64562874373982  233.2815753806904 43.47190720472501  C 232.7982134867514 42.29825214444462  232.5565335246751 40.9102383672918  232.5565335246751 39.30781057342487  C 232.5565335246751 37.716423006446654  232.7982134867514 36.3366364186443  233.2815753806904 35.168434993073845  C 233.76560488300456 33.99996753364133  234.434905752337 33.096319480386036  235.28946822929123 32.45758299971078  Z M 239.74986313747377 34.68838384607188  C 239.31323514298313 34.282157006596975  238.79912327115557 34.079003851247464  238.2076058359244 34.079003851247464  C 237.62677043314747 34.079003851247464  237.116439059012 34.282157006596975  236.6764729331101 34.68838384607188  C 236.23717441558333 35.094411160150244  235.89468082854876 35.68670891495289  235.64899412687024 36.465376828581434  C 235.4046426717872 37.243778708347925  235.28237795317443 38.191285363356826  235.28237795317443 39.30781057342487  C 235.28237795317443 40.424668296089386  235.4046426717872 41.37622765648547  235.64899412687024 42.16254395445481  C 235.89468082854876 42.94892673115857  236.23717441558333 43.54806049778895  236.6764729331101 43.959873959173734  C 237.116439059012 44.37135487823094  237.62677043314747 44.5770477828688  238.2076058359244 44.5770477828688  C 238.79912327115557 44.5770477828688  239.31323514298313 44.37135487823094  239.74986313747377 43.959873959173734  C 240.18649113196437 43.54806049778895  240.52762111941692 42.94892673115857  240.77330782109541 42.16254395445481  C 241.01832689947622 41.37622765648547  241.1409019639108 40.424668296089386  241.1409019639108 39.30781057342487  C 241.1409019639108 38.191285363356826  241.01832689947622 37.243778708347925  240.77330782109541 36.465376828581434  C 240.52762111941692 35.68670891495289  240.18649113196437 35.094411160150244  239.74986313747377 34.68838384607188  Z M 247 52  L 247 29.912228091273043  L 250 29.912228091273043  L 250 52  L 247 52  Z M 242.9985543065189 40.277472485652964  L 242.9985543065189 37.986878358424796  L 249.02015466794228 37.986878358424796  L 249.02015466794228 40.277472485652964  L 242.9985543065189 40.277472485652964  Z M 258.85534561109785 47.45315330400499  L 258.85534561109785 41.15847959447734  L 261.70135799516333 41.15847959447734  L 261.70135799516333 47.45315330400499  L 258.85534561109785 47.45315330400499  Z M 266.91491137154856 47.45315330400499  L 266.91491137154856 41.15847959447734  L 269.7689920008504 41.15847959447734  L 269.7689920008504 47.45315330400499  L 266.91491137154856 47.45315330400499  Z M 254.31573520423078 49  L 254.31573520423078 47  L 274.3406308963831 47  L 274.3406308963831 49  L 254.31573520423078 49  Z M 260.0801296872093 31.826100193323487  C 261.3172423581629 31.34152771937269  262.7239215276532 31.099264761846772  264.30018868425947 31.099264761846772  C 265.8817968272476 31.099264761846772  267.28983968585567 31.34152771937269  268.5242818039278 31.826100193323487  C 269.758723922 32.31047314187775  270.72972280303674 32.98789861077284  271.43740731882326 33.85828018205897  C 272.14575947283015 34.72866175334511  272.4999707672274 35.76002009346506  272.4999707672274 36.95243024370937  C 272.4999707672274 38.128878600079155  272.14575947283015 39.15367730865541  271.43740731882326 40.026852176030935  C 270.72972280303674 40.89976100954439  269.758723922 41.57718647843949  268.5242818039278 42.059032164766414  C 267.28983968585567 42.54087785109335  265.8817968272476 42.78178801394365  264.30018868425947 42.78178801394365  C 262.7239215276532 42.78178801394365  261.3172423581629 42.54087785109335  260.0801296872093 42.059032164766414  C 258.8436845947856 41.57718647843949  257.8711999575627 40.89976100954439  257.1628478035558 40.026852176030935  C 256.45516328776927 39.15367730865541  256.10138457041114 38.128878600079155  256.10138457041114 36.95243024370937  C 256.10138457041114 35.76002009346506  256.45516328776927 34.72866175334511  257.1628478035558 33.85828018205897  C 257.8711999575627 32.98789861077284  258.8436845947856 32.31047314187775  260.0801296872093 31.826100193323487  Z M 267.12126285577614 33.75988309256694  C 266.3127666400499 33.47031013935084  265.3723975202387 33.32549891160398  264.30018868425947 33.32549891160398  C 263.2333208346621 33.32549891160398  262.2943153442782 33.47031013935084  261.48314863536103 33.75988309256694  C 260.6726495646642 34.04938953731752  260.0406741784823 34.46391750738283  259.58735549709 35.00342502245292  C 259.13403681569775 35.54260002492655  258.9074224667145 36.1922513267205  258.9074224667145 36.95243024370937  C 258.9074224667145 37.696647366823704  259.13403681569775 38.33849116344207  259.58735549709 38.87793219977775  C 260.0406741784823 39.4171736809858  260.6726495646642 39.83430228962751  261.48314863536103 40.12932884782245  C 262.2943153442782 40.424155880620845  263.2333208346621 40.57156774694412  264.30018868425947 40.57156774694412  C 265.3723975202387 40.57156774694412  266.3127666400499 40.424155880620845  267.12126285577614 40.12932884782245  C 267.929091433282 39.83430228962751  268.5595809438967 39.4171736809858  269.01289962528904 38.87793219977775  C 269.46621830668124 38.33849116344207  269.69295490180446 37.696647366823704  269.69295490180446 36.95243024370937  C 269.69295490180446 36.1922513267205  269.46621830668124 35.54260002492655  269.01289962528904 35.00342502245292  C 268.5595809438967 34.46391750738283  267.929091433282 34.04938953731752  267.12126285577614 33.75988309256694  Z " fill-rule="nonzero" fill="#4c4c57" stroke="none" transform="matrix(1 0 0 1 906 641 )" />
  </g>
</svg>