<?xml version="1.0" encoding="utf-8"?>
<svg version="1.1" xmlns:xlink="http://www.w3.org/1999/xlink" width="557px" height="475px" xmlns="http://www.w3.org/2000/svg">
  <defs>
    <filter x="119px" y="290px" width="557px" height="475px" filterUnits="userSpaceOnUse" id="filter1">
      <feOffset dx="2" dy="2" in="SourceAlpha" result="shadowOffsetInner" />
      <feGaussianBlur stdDeviation="5" in="shadowOffsetInner" result="shadowGaussian" />
      <feComposite in2="shadowGaussian" operator="atop" in="SourceAlpha" result="shadowComposite" />
      <feColorMatrix type="matrix" values="0 0 0 0 0  0 0 0 0 0  0 0 0 0 0  0 0 0 0.34901960784313724 0  " in="shadowComposite" />
    </filter>
    <g id="widget2">
      <path d="M 0 12  C 0 5.372582912445068  5.372582912445068 0  12 0  C 12 0  525 0  525 0  C 531.6274170875549 0  537 5.372582912445068  537 12  C 537 12  537 443  537 443  C 537 449.62741708755493  531.6274170875549 455  525 455  C 525 455  12 455  12 455  C 5.372582912445068 455  0 449.62741708755493  0 443  C 0 443  0 12  0 12  Z " fill-rule="nonzero" fill="#ffffff" stroke="none" transform="matrix(1 0 0 1 127 298 )" />
    </g>
  </defs>
  <g transform="matrix(1 0 0 1 -119 -290 )">
    <use xlink:href="#widget2" filter="url(#filter1)" />
    <use xlink:href="#widget2" />
  </g>
</svg>