<?xml version="1.0" encoding="utf-8"?>
<svg version="1.1" xmlns:xlink="http://www.w3.org/1999/xlink" width="127px" height="33px" xmlns="http://www.w3.org/2000/svg">
  <g transform="matrix(1 0 0 1 -331 -566 )">
    <path d="M 23 16.559499655130143  L 23 0  L 28 0  L 28 16.559499655130143  L 23 16.559499655130143  Z M 11.62679910829188 3.8269960829370837  C 11.62679910829188 3.8269960829370837  11.62679910829188 1.2563453309012538  11.62679910829188 1.2563453309012538  C 11.62679910829188 1.2563453309012538  16.857054632892705 1.2563453309012538  16.857054632892705 1.2563453309012538  C 16.857054632892705 4.169745963216016  16.28858041111787 6.697786992666256  15.151684761580757 8.840362762837483  C 14.01545715935641 10.982589017816142  12.317136005381885 12.750656429067039  10.056704219241354 14.14461664559637  C 7.796272433100824 15.538642897384753  4.978433340207258 16.59951295387377  1.6031491964249815 17.327289725439687  C 1.6031491964249815 17.327289725439687  0 13.516957168444682  0 13.516957168444682  C 2.800156681990342 12.966112734708178  5.051226847492113 12.210534942199995  6.753230443564358 11.250174264475843  C 8.455234039636602 10.28980037969988  9.69298769326367 9.17604250735364  10.466504244618294 7.908895812712799  C 11.240020795972923 6.641379792301673  11.62679910829188 5.2807295292412135  11.62679910829188 3.8269960829370837  Z M 1.9207579759795463 5  L 1.9207579759795463 1.2563453309012538  L 13.634733615561505 1.2563453309012538  L 13.634733615561505 5  L 1.9207579759795463 5  Z M 15.557509708365025 7.711891881013496  L 15.557509708365025 4.115770157505813  L 23.359793970063397 4.115770157505813  L 23.359793970063397 7.711891881013496  L 15.557509708365025 7.711891881013496  Z M 15.338054792521843 14.09565244436801  L 15.338054792521843 10.52736363919112  L 23.207487304908753 10.52736363919112  L 23.207487304908753 14.09565244436801  L 15.338054792521843 14.09565244436801  Z M 5.488757943235107 21  L 5.488757943235107 17.776903050405885  L 27.566038671664046 17.776903050405885  L 27.566038671664046 26.86818470387846  L 10.34428586665742 26.86818470387846  L 10.34428586665742 30.94561667669869  L 5.539852991914772 30.94561667669869  L 5.539852991914772 23  L 22.75359448468078 23  L 22.75359448468078 21  L 5.488757943235107 21  Z M 5.539852991914772 32.67946862599093  L 5.539852991914772 29  L 28.228347920258624 29  L 28.228347920258624 32.67946862599093  L 5.539852991914772 32.67946862599093  Z M 57 32.97210670657521  L 57 0  L 62 0  L 62 32.97210670657521  L 57 32.97210670657521  Z M 45.90799920161353 15.113395403808752  L 45.90799920161353 11.275229928482958  L 51.442837478996005 11.275229928482958  L 51.442837478996005 15.113395403808752  L 45.90799920161353 15.113395403808752  Z M 51 31.48929439810605  L 51 0.5447040980052434  L 55 0.5447040980052434  L 55 31.48929439810605  L 51 31.48929439810605  Z M 38.720904218422746 8.770206903617566  C 38.720904218422746 8.770206903617566  38.720904218422746 5.379420874780226  38.720904218422746 5.379420874780226  L 42.31896189534444 5.379420874780226  C 42.31896189534444 5.379420874780226  42.31896189534444 8.770206903617566  42.31896189534444 8.770206903617566  C 42.31896189534444 10.617141639798987  42.18168199476218 12.44312055819976  41.90714375314353 14.24815993179444  C 41.631937523933836 16.05315980215379  41.20545715862282 17.754696689906886  40.62765768674503 19.352693003624335  C 40.049858214867236 20.950755234680734  39.292026621311706 22.39372799968166  38.35418792948485 23.68164761801959  C 37.416349237658 24.969567236357513  36.28681285847336 26.019908914151074  34.965555739341745 26.832623773516556  C 34.965555739341745 26.832623773516556  32.10995101094844 23.351637354253608  32.10995101094844 23.351637354253608  C 33.74849680114218 22.32189519864206  35.04871807430361 21.029529638568157  36.01060390135545 19.4745299433023  C 36.971821800538 17.919200543421585  37.663836161683165 16.21508486088229  38.086665140197965 14.362208484347299  C 38.509494118712766 12.509325504286403  38.720904218422746 10.64533338901068  38.720904218422746 8.770206903617566  Z M 39.79301349239426 8.770206903617566  C 39.79301349239426 8.770206903617566  39.79301349239426 5.379420874780226  39.79301349239426 5.379420874780226  L 43.36401005735815 5.379420874780226  C 43.36401005735815 5.379420874780226  43.36401005735815 8.770206903617566  43.36401005735815 8.770206903617566  C 43.36401005735815 10.595254253185242  43.568069217897495 12.39489276802997  43.97620273815741 14.169128933757543  C 44.38366827082629 15.94300237724074  45.06101136101869 17.55941899063134  46.008201759676524 19.018335733090858  C 46.95472417074332 20.476856853596573  48.235218996945136 21.672018689221836  49.84971771163561 22.603831440055764  C 49.84971771163561 22.603831440055764  47.051231804866255 26.02921239775112  47.051231804866255 26.02921239775112  C 45.28109466894349 24.984236851236453  43.86701062585638 23.57183652445626  42.80893619818283 21.792027926225295  C 41.751529698378576 20.011889623379478  40.984331348115184 18.000974834791787  40.50739627055285 15.759348534440333  C 40.031129180581544 13.517392529474023  39.79301349239426 11.187677551945452  39.79301349239426 8.770206903617566  Z M 33.35439523067615 7.131566477552357  L 33.35439523067615 3.313445533432251  L 48.251583229742934 3.313445533432251  L 48.251583229742934 7.131566477552357  L 33.35439523067615 7.131566477552357  Z M 87 33  L 87 0.027772543236800267  L 92 0.027772543236800267  L 92 33  L 87 33  Z M 91.09158619600387 16.802630158640135  L 91.09158619600387 12.881026303415949  L 96.97913625466698 12.881026303415949  L 96.97913625466698 16.802630158640135  L 91.09158619600387 16.802630158640135  Z M 65.81403084766924 9  L 65.81403084766924 5  L 85.27418098573763 5  L 85.27418098573763 9  L 65.81403084766924 9  Z M 71.27572767894657 11.534480582089088  C 72.5528983337309 10.85750839083737  74.00240321761063 10.51903187622008  75.62424961663726 10.51903187622008  C 77.24476004048182 10.51903187622008  78.68927099299258 10.85750839083737  79.9577579882587 11.534480582089088  C 81.22624498352485 12.211116465200048  82.22920204403474 13.135357212302386  82.96664786269102 14.307146398625642  C 83.7047616689383 15.478605880334047  84.07382956086096 16.831454195457276  84.07382956086096 18.36568096702605  C 84.07382956086096 19.899907738594823  83.7047616689383 21.25884981100766  82.96664786269102 22.44250918890635  C 82.22920204403474 23.62583886219019  81.22689654763913 24.554700544464996  79.95974552755506 25.229061277061305  C 78.69393048265303 25.90309230504276  77.24377403465903 26.24010260106882  75.609236050568 26.24010260106882  C 73.99740928624166 26.24010260106882  72.5528983337309 25.90309230504276  71.27572767894657 25.229061277061305  C 69.99788909629291 24.554700544464996  68.9889147725077 23.62583886219019  68.24879706320905 22.44250918890635  C 67.50867935391038 21.25884981100766  67.13861876733078 19.899907738594823  67.13861876733078 18.36568096702605  C 67.13861876733078 16.831454195457276  67.50867935391038 15.478605880334047  68.24879706320905 14.307146398625642  C 68.9889147725077 13.135357212302386  69.99788909629291 12.211116465200048  71.27572767894657 11.534480582089088  Z M 77.60815018718503 14.84297535781391  C 77.02033108060697 14.524325723367665  76.35402961328215 14.36498573867098  75.609236050568 14.36498573867098  C 74.85709474379598 14.36498573867098  74.18778473441613 14.524325723367665  73.60130154329839 14.84297535781391  C 73.01481835218065 15.161229311346299  72.55390984073397 15.617502380628263  72.21858574360094 16.21173911373021  C 71.88392963405893 16.805646083257255  71.71659447240161 17.52362027437679  71.71659447240161 18.36568096702605  C 71.71659447240161 19.207675683376312  71.88392963405893 19.9302433932438  72.21858574360094 20.533448716846298  C 72.55390984073397 21.13658812310985  73.01481835218065 21.59750948502875  73.60130154329839 21.916159119474994  C 74.18778473441613 22.23480875392124  74.85709474379598 22.394148738617922  75.609236050568 22.394148738617922  C 76.36204534493106 22.394148738617922  77.03036265965396 22.23480875392124  77.61417396012932 21.916159119474994  C 78.19798526060465 21.59750948502875  78.65721893575247 21.13658812310985  78.99187504529448 20.533448716846298  C 79.32653115483647 19.9302433932438  79.49383573896614 19.207675683376312  79.49383573896614 18.36568096702605  C 79.49383573896614 17.52362027437679  79.32653115483647 16.805646083257255  78.99187504529448 16.21173911373021  C 78.65721893575247 15.617502380628263  78.1959692937631 15.161229311346299  77.60815018718503 14.84297535781391  Z M 73.17945397203287 6.32755135084699  L 73.17945397203287 0.5547263636080888  L 77.99990947125677 0.5547263636080888  L 77.99990947125677 6.32755135084699  L 73.17945397203287 6.32755135084699  Z M 122 32.97210670657521  L 122 0  L 127 0  L 127 32.97210670657521  L 122 32.97210670657521  Z M 112.32722047625343 4.2710548992559225  C 112.32722047625343 4.2710548992559225  112.32722047625343 3.4141511902126482  112.32722047625343 3.4141511902126482  C 112.32722047625343 3.4141511902126482  117.08355490002474 3.4141511902126482  117.08355490002474 3.4141511902126482  C 117.08355490002474 5.939911173142963  116.83638288870118 8.344018879280457  116.34208043238068 10.626439168433706  C 115.84844596365123 12.908852854061049  115.02650261123358 15.060475926403218  113.87624744876278 17.081381967606017  C 112.72666021416127 19.10228800880882  111.16360305364918 20.97633234139417  109.18706127568001 22.703450345144287  C 107.21118742558014 24.430172609020495  104.73834752983836 26.00077407759892  101.76852498581275 27.41524343054943  C 101.76852498581275 27.41524343054943  99.25358449281151 23.668304722247125  99.25358449281151 23.668304722247125  C 102.46855424250255 22.140738431994773  105.03159055871885 20.43956839368975  106.94267074720162 18.564798027015108  C 108.85308288837162 16.69009357767942  110.22811650230267 14.574080254622812  111.06776269045646 12.216719144210487  C 111.90740887861025 9.858982104501969  112.32722047625343 7.210419652070225  112.32722047625343 4.2710548992559225  Z M 101.04310372017758 7.177210048611098  L 101.04310372017758 4  L 114.58564608991672 4  L 114.58564608991672 7.177210048611098  L 101.04310372017758 7.177210048611098  Z " fill-rule="nonzero" fill="#53abd7" stroke="none" transform="matrix(1 0 0 1 331 566 )" />
  </g>
</svg>