<?xml version="1.0" encoding="utf-8"?>
<svg version="1.1" xmlns:xlink="http://www.w3.org/1999/xlink" width="60px" height="33px" xmlns="http://www.w3.org/2000/svg">
  <g transform="matrix(1 0 0 1 -1013 -567 )">
    <path d="M 21 19.268273880696768  L 21 0.027796037874390476  L 26 0.027796037874390476  L 26 19.268273880696768  L 21 19.268273880696768  Z M 23.983370718331617 11.396133823822927  L 23.983370718331617 7.491213485656109  L 29.721755828954215 7.491213485656109  L 29.721755828954215 11.396133823822927  L 23.983370718331617 11.396133823822927  Z M 0 17  L 0 1.925117327478709  L 4.750464045745797 1.925117327478709  L 4.750464045745797 6.0911995693262115  L 11.293554880600494 6.0911995693262115  L 11.293554880600494 1.925117327478709  L 16 1.925117327478709  L 16 17  L 0 17  Z M 11.293554880600494 9.745532583438468  L 4.750464045745797 9.745532583438468  L 4.750464045745797 13.940558960376913  L 11.293554880600494 13.940558960376913  L 11.293554880600494 9.745532583438468  Z M 4 31.54094971627167  L 4 20.724000725114035  L 25.502854530440686 20.724000725114035  L 25.502854530440686 24  L 8.402857890508622 24  L 8.402857890508622 31.54094971627167  L 4 31.54094971627167  Z M 3.615372005339453 32  L 3.615372005339453 28.874040734562488  L 26.144444229490603 28.874040734562488  L 26.144444229490603 32  L 3.615372005339453 32  Z M 55 33  L 55 0  L 60 0  L 60 33  L 55 33  Z M 45.34228401126946 4.274668068065502  C 45.34228401126946 4.274668068065502  45.34228401126946 3.4170394473019714  45.34228401126946 3.4170394473019714  C 45.34228401126946 3.4170394473019714  50.093786623467736 3.4170394473019714  50.093786623467736 3.4170394473019714  C 50.093786623467736 5.944936138236764  49.84689942731205 8.351077638643726  49.35310546642325 10.635428778604009  C 48.85997880595786 12.919773309452026  48.03881990532245 15.073216582554508  46.889748025450984 17.095832242305274  C 45.74134338634265 19.118447902056047  44.179833071125 20.994077613122823  42.205324587653486 22.722656700621293  C 40.23148334494508 24.450839713463225  37.76124838424006 26.02276985806488  34.79448093568728 27.43843580451951  C 34.79448093568728 27.43843580451951  32.28310506932431 23.68832731207919  32.28310506932431 23.68832731207919  C 35.49410029662782 22.159468752117206  38.05412865801941 20.45685958116997  39.963242893201766 18.580503221813483  C 41.871689768300406 16.704212835559794  43.245369959229905 14.586409436393216  44.084152392317456 12.227054077759325  C 44.922934825405015 9.867322471805698  45.34228401126946 7.216519424610114  45.34228401126946 4.274668068065502  Z M 34.069805920439705 7.183281726943297  L 34.069805920439705 4  L 47.59841689890167 4  L 47.59841689890167 7.183281726943297  L 34.069805920439705 7.183281726943297  Z " fill-rule="nonzero" fill="#49a37a" stroke="none" transform="matrix(1 0 0 1 1013 567 )" />
  </g>
</svg>