<?xml version="1.0" encoding="utf-8"?>
<svg version="1.1" xmlns:xlink="http://www.w3.org/1999/xlink" width="281px" height="52px" xmlns="http://www.w3.org/2000/svg">
  <g transform="matrix(1 0 0 1 -255 -640 )">
    <path d="M 15 13  L 15 2  L 26 2  L 26 13  L 15 13  Z M 22.320180994306785 10.113689651902847  L 22.320180994306785 4.0760693595607025  L 17.58823317860823 4.0760693595607025  L 17.58823317860823 10.113689651902847  L 22.320180994306785 10.113689651902847  Z M 30 16.079543658760137  L 30 0.03999189954499323  L 33 0.03999189954499323  L 33 16.079543658760137  L 30 16.079543658760137  Z M 24.32603520554832 8.192617582435592  L 24.32603520554832 5.9108879714096085  L 30.10785707791953 5.9108879714096085  L 30.10785707791953 8.192617582435592  L 24.32603520554832 8.192617582435592  Z M 17.794007152374608 22  L 17.794007152374608 20  L 32.7600244769864 20  L 32.7600244769864 22  L 17.794007152374608 22  Z M 17.794007152374608 20.491557148593014  L 17.794007152374608 14.570929901799541  L 20.64896099195911 14.570929901799541  L 20.64896099195911 20.491557148593014  L 17.794007152374608 20.491557148593014  Z M 52 22.081006891239685  L 52 0  L 55 0  L 55 22.081006891239685  L 52 22.081006891239685  Z M 47.366440350554015 10.091654541346852  L 47.366440350554015 7.793915996408642  L 52.17228388660956 7.793915996408642  L 52.17228388660956 10.091654541346852  L 47.366440350554015 10.091654541346852  Z M 41.13508617934443 5.729128744558238  C 41.13508617934443 5.729128744558238  41.13508617934443 3.4025375962953297  41.13508617934443 3.4025375962953297  L 43.403660406277616 3.4025375962953297  C 43.403660406277616 3.4025375962953297  43.403660406277616 5.729128744558238  43.403660406277616 5.729128744558238  C 43.403660406277616 7.023340533412622  43.26945519813567 8.292166958045028  43.001075058491125 9.535602787399345  C 42.73269491884659 10.77897215856348  42.34046843891163 11.942380438176672  41.824352778878925 13.025915603091752  C 41.30757115186226 14.10951722619701  40.669569958397965 15.069327511338589  39.910380457553224 15.905332370331266  C 39.15119095670849 16.74107127767558  38.28046362633112 17.409273248642414  37.298178936946755 17.909918726215153  C 37.298178936946755 17.909918726215153  35.621959389162384 15.659598278302136  35.621959389162384 15.659598278302136  C 36.507680473481244 15.2390028796781  37.2941736680112 14.674791391517994  37.98143998495059 13.96697308705765  C 38.66870630188998 13.259088264963308  39.24643870389776 12.462271387300955  39.71460557466023 11.576467944088131  C 40.18277244542271 10.690332031592945  40.53637614481775 9.747076077407339  40.77545424326709 8.746782351777476  C 41.015198293815125 7.746222674499252  41.13508617934443 6.740372853950084  41.13508617934443 5.729128744558238  Z M 41.79237397910397 5.729128744558238  C 41.79237397910397 5.729128744558238  41.79237397910397 3.4025375962953297  41.79237397910397 3.4025375962953297  L 44.02198833367073 3.4025375962953297  C 44.02198833367073 3.4025375962953297  44.02198833367073 5.729128744558238  44.02198833367073 5.729128744558238  C 44.02198833367073 6.687316391759426  44.141536165204755 7.641361577512399  44.380614263654095 8.591258297991391  C 44.619692362103436 9.541221476660564  44.97465627747958 10.443281972288133  45.445486956636834 11.297437704340416  C 45.91631763579408 12.151394002378337  46.495349283716656 12.917641301434085  47.18261560065604 13.59627191775931  C 47.86988191759544 14.274703100070179  48.65637511212539 14.816266195788701  49.542096196444255 15.220904792730192  C 49.542096196444255 15.220904792730192  47.88288729715791 17.455155436259837  47.88288729715791 17.455155436259837  C 46.88994731465338 16.981171135884694  46.013870634992124 16.34213114360105  45.25468113414738 15.538039947417278  C 44.494825666318675 14.733948751233505  43.858184688835486 13.811420262462937  43.344732837197554 12.770503106149906  C 42.83128098555963 11.72958594983688  42.44400287550278 10.608769642432806  42.18294822382914 9.40801827987072  C 41.922559539139456 8.207266917308635  41.79237397910397 6.98098847645893  41.79237397910397 5.729128744558238  Z M 36.49404473250088 5  L 36.49404473250088 3  L 48.678028416824354 3  L 48.678028416824354 5  L 36.49404473250088 5  Z M 80 11.122800322613497  L 80 0.016069804383376275  L 83 0.016069804383376275  L 83 11.122800322613497  L 80 11.122800322613497  Z M 72.4666277304446 2.438349333292753  C 72.4666277304446 2.438349333292753  72.4666277304446 0.9237093996883899  72.4666277304446 0.9237093996883899  C 72.4666277304446 0.9237093996883899  75.57030895550466 0.9237093996883899  75.57030895550466 0.9237093996883899  C 75.57030895550466 2.8397787961957124  75.18572073283579 4.510747296239025  74.41654190585484 5.936636180705699  C 73.64669711188994 7.362545038295721  72.51058929172663 8.54499733435623  71.00819325948795 9.483923757393715  C 69.50579722724927 10.422650686973016  67.65110329104918 11.139229583773279  65.4441259789113 11.633625316497184  C 65.4441259789113 11.633625316497184  64.4821707578449 9.335825901087825  64.4821707578449 9.335825901087825  C 66.3468467561694 8.948141454232136  67.86587296940252 8.415691809365976  69.03928690842491 7.738523867662913  C 70.21270084744731 7.061089974311491  71.07711968127708 6.271137787810512  71.63252673841173 5.368592943941808  C 72.18859976253033 4.466034844101359  72.4666277304446 3.4892528135034118  72.4666277304446 2.438349333292753  Z M 65.7148330732884 3.197586719936133  L 65.7148330732884 0.9237093996883899  L 73.67633481592573 0.9237093996883899  L 73.67633481592573 3.197586719936133  L 65.7148330732884 3.197586719936133  Z M 74.73020241194111 5.062657955946166  L 74.73020241194111 2.885260332469831  L 80.0874897126574 2.885260332469831  L 80.0874897126574 5.062657955946166  L 74.73020241194111 5.062657955946166  Z M 74.5703998681658 9.308495059541857  L 74.5703998681658 7.147228110920045  L 79.98359671968025 7.147228110920045  L 79.98359671968025 9.308495059541857  L 74.5703998681658 9.308495059541857  Z M 68.09629337797818 15  L 68.09629337797818 12  L 82.56586193773285 12  L 82.56586193773285 18  L 70.98322601733763 18  L 70.98322601733763 20.8157532779334  L 68.1352532503446 20.8157532779334  L 68.1352532503446 16  L 79.71090809814837 16  L 79.71090809814837 15  L 68.09629337797818 15  Z M 68.1352532503446 22  L 68.1352532503446 20  L 83.08328440539756 20  L 83.08328440539756 22  L 68.1352532503446 22  Z M 103 22.03304095997415  L 103 0.016069804383376275  L 106 0.016069804383376275  L 106 22.03304095997415  L 103 22.03304095997415  Z M 94.93165835976635 9.963704810991334  L 94.93165835976635 7.649896461669748  L 98.74756141432327 7.649896461669748  L 98.74756141432327 9.963704810991334  L 94.93165835976635 9.963704810991334  Z M 98 21.00463434990922  L 98 0.4218323650636272  L 101 0.4218323650636272  L 101 21.00463434990922  L 98 21.00463434990922  Z M 90.33155831244403 5.974071520462428  C 90.33155831244403 5.974071520462428  90.33155831244403 3.560739950811977  90.33155831244403 3.560739950811977  L 92.48026538902916 3.560739950811977  C 92.48026538902916 3.560739950811977  92.48026538902916 5.974071520462428  92.48026538902916 5.974071520462428  C 92.48026538902916 7.197993489420244  92.38338371551232 8.404705997087582  92.18959059793843 9.594221051115978  C 91.99513152826584 10.783802682222193  91.69975628147041 11.902902252119638  91.30351262438381 12.951531887347487  C 90.9066030300838 13.999962029117157  90.39649851844332 14.946022007711527  89.77316396022495 15.789739345619022  C 89.14982940200657 16.633456683526518  88.41160699490952 17.321502963082352  87.55851775693512 17.853796151815637  C 87.55851775693512 17.853796151815637  85.85034989440895 15.756077975073541  85.85034989440895 15.756077975073541  C 86.91721090222966 15.085425729867676  87.77795015683348 14.231317017876604  88.43258462742841 13.193857232992265  C 89.08721909802334 12.156397448107922  89.56738974829425 11.012772666056401  89.87306341385938 9.762953997141429  C 90.17873707942452 8.513068870036276  90.33155831244403 7.250119180285459  90.33155831244403 5.974071520462428  Z M 90.95689779746178 5.974071520462428  C 90.95689779746178 5.974071520462428  90.95689779746178 3.560739950811977  90.95689779746178 3.560739950811977  L 93.09060623773682 3.560739950811977  C 93.09060623773682 3.560739950811977  93.09060623773682 5.974071520462428  93.09060623773682 5.974071520462428  C 93.09060623773682 7.2079664979023095  93.23779902265821 8.421915577265699  93.53215145788977 9.615951809316226  C 93.82783579731868 10.809988041366752  94.29764778813184 11.895090323694825  94.9416269656066 12.871182865430606  C 95.58560614308135 13.847275407166387  96.43270816817783 14.641332248846387  97.48292029910482 15.25340962432384  C 97.48292029910482 15.25340962432384  95.80673123635361 17.319414285597226  95.80673123635361 17.319414285597226  C 94.66594914367569 16.63273878051864  93.73993184698251 15.705214752046476  93.02869113540801 14.536842437956016  C 92.31811639081747 13.368536582055736  91.7953338564744 12.047235412450117  91.46035811994352 10.572957356723203  C 91.12471644619923 9.098479926425744  90.95689779746178 7.565532485297441  90.95689779746178 5.974071520462428  Z M 86.61153068714567 4.63291242963315  L 86.61153068714567 2.327321593916699  L 96.51294751431983 2.327321593916699  L 96.51294751431983 4.63291242963315  L 86.61153068714567 4.63291242963315  Z M 123 22.049232505299827  L 123 0.03213960876675255  L 126 0.03213960876675255  L 126 22.049232505299827  L 123 22.049232505299827  Z M 124.86268700289597 11.104417440326452  L 124.86268700289597 8.742338807383588  L 128.80248123217683 8.742338807383588  L 128.80248123217683 11.104417440326452  L 124.86268700289597 11.104417440326452  Z M 108.19648889444346 6  L 108.19648889444346 4  L 121.08873135395423 4  L 121.08873135395423 6  L 108.19648889444346 6  Z M 111.867557556502 7.701514621204229  C 112.7020000761719 7.2544574793969545  113.64932331490114 7.030965511025164  114.70952477196437 7.030965511025164  C 115.77039225555262 7.030965511025164  116.71539607149596 7.2544574793969545  117.54451091483523 7.701514621204229  C 118.37295979119054 8.148505275099412  119.02725764628758 8.759216869380456  119.5074117143676 9.533654932322571  C 119.98689981546367 10.307827103060147  120.22664510148911 11.203070403138108  120.22664510148911 12.219320989894332  C 120.22664510148911 13.235837528298916  119.98689981546367 14.13523719967885  119.5074117143676 14.917587234993965  C 119.02725764628758 15.6997377768509  118.37329988984163 16.31311004677003  117.5455169209292 16.7576407073617  C 116.71773395201679 17.201905416305003  115.77007073371861 17.42405062550262  114.70254369937288 17.42405062550262  C 113.64700395165632 17.42405062550262  112.7020000761719 17.201905416305003  111.867557556502 16.7576407073617  C 111.03311503683211 16.31311004677003  110.37482807820282 15.6997377768509  109.89267613894145 14.917587234993965  C 109.40985826246664 14.13523719967885  109.16844320638324 13.235837528298916  109.16844320638324 12.219320989894332  C 109.16844320638324 11.203070403138108  109.40985826246664 10.307827103060147  109.89267613894145 9.533654932322571  C 110.37482807820282 8.759216869380456  111.03311503683211 8.148505275099412  111.867557556502 7.701514621204229  Z M 116.14500401295864 9.703118324001812  C 115.72079021887423 9.469483753930975  115.23996994564591 9.352687021596141  114.70254369937288 9.352687021596141  C 114.15978977676922 9.352687021596141  113.67597003230551 9.469483753930975  113.2510903010077 9.703118324001812  C 112.82621056970989 9.93648694242429  112.49258308140294 10.266839876201754  112.25017520757487 10.694150464781165  C 112.0084332858455 11.121261589624307  111.88755573824878 11.629649654406437  111.88755573824878 12.219320989894332  C 111.88755573824878 12.809191759396587  112.0084332858455 13.320389466028423  112.25017520757487 13.75295251049723  C 112.49258308140294 14.185582042878126  112.82621056970989 14.51869495319412  113.2510903010077 14.752263035352867  C 113.67597003230551 14.985698141687436  114.1594497376592 15.102389985402791  114.70153769327891 15.102389985402791  C 115.24362564889861 15.102389985402791  115.72611566241434 14.985698141687436  116.14899755230135 14.752263035352867  C 116.57121347520442 14.51869495319412  116.90320166360127 14.185582042878126  117.14494358533064 13.75295251049723  C 117.38735145915872 13.320389466028423  117.50853857571755 12.809191759396587  117.50853857571755 12.219320989894332  C 117.50853857571755 11.629649654406437  117.38735145915872 11.121261589624307  117.14494358533064 10.694150464781165  C 116.90320166360127 10.266839876201754  116.56988374425647 9.93648694242429  116.14500401295864 9.703118324001812  Z M 113.25008429491373 4.2533241715470345  L 113.25008429491373 0.3601097073183865  L 116.11403121927765 0.3601097073183865  L 116.11403121927765 4.2533241715470345  L 113.25008429491373 4.2533241715470345  Z M 132.4346205069021 5  L 132.4346205069021 2  L 146.46063183431593 2  L 146.46063183431593 5  L 132.4346205069021 5  Z M 130.37282625982925 20  L 130.37282625982925 17  L 150.31552524627244 17  L 150.31552524627244 20  L 130.37282625982925 20  Z M 137.61707614249983 18.106591218498068  L 137.61707614249983 9.311599453570462  L 140.47202998208434 9.311599453570462  L 140.47202998208434 18.106591218498068  L 137.61707614249983 18.106591218498068  Z M 145.42673193501415 4.10638285419298  C 145.42673193501415 4.10638285419298  145.42673193501415 1.9843773594623733  145.42673193501415 1.9843773594623733  L 148.28168577459866 1.9843773594623733  C 148.28168577459866 1.9843773594623733  148.28168577459866 4.10638285419298  148.28168577459866 4.10638285419298  C 148.28168577459866 5.021653252604846  148.27104804237587 5.990157374677064  148.24973745985685 7.011913053555479  C 148.22842687733782 8.033416096201098  148.15881962934387 9.161474681907892  148.04094546780854 10.396067767563766  C 147.9244032179133 11.630793888487638  147.7192915419118 13.01994649251469  147.42560507366423 14.563503704319345  C 147.42560507366423 14.563503704319345  144.5706512340797 14.243325026074801  144.5706512340797 14.243325026074801  C 145.00219054590556 12.07193313056833  145.25260403058033 10.17079887481812  145.32186342097617 8.539944490812656  C 145.39178877091334 6.9090901068071915  145.42673193501415 5.431265038371809  145.42673193501415 4.10638285419298  Z M 163.6323022774381 3.237943842308021  C 163.6323022774381 3.237943842308021  163.6323022774381 1.1975047789172781  163.6323022774381 1.1975047789172781  L 165.97379670366746 1.1975047789172781  C 165.97379670366746 1.1975047789172781  165.97379670366746 3.237943842308021  165.97379670366746 3.237943842308021  C 165.97379670366746 4.674809741367807  165.74771913218257 6.028060537293113  165.29553520110034 7.297639045129601  C 164.84335127001813 8.566938285902165  164.16406789365908 9.675411975848176  163.25770219008385 10.623114624950103  C 162.3520023939515 11.57055132240367  161.2245530376959 12.283641610048106  159.87532679196124 12.762346463015922  C 159.87532679196124 12.762346463015922  158.36692735167077 10.520608751534931  158.36692735167077 10.520608751534931  C 159.56697949372307 10.10546524281465  160.55592498422757 9.52433521141661  161.3337612629179 8.777156716880903  C 162.11093157462426 8.029645753062837  162.68832396729255 7.176006290582753  163.06592084653357 6.216335995636055  C 163.4435177257746 5.256466266674997  163.6323022774381 4.263668703900861  163.6323022774381 3.237943842308021  Z M 164.20170172662455 3.4945128782016988  C 164.20170172662455 3.4945128782016988  164.20170172662455 1.1975047789172781  164.20170172662455 1.1975047789172781  L 166.50423628048748 1.1975047789172781  C 166.50423628048748 1.1975047789172781  166.50423628048748 3.4945128782016988  166.50423628048748 3.4945128782016988  C 166.50423628048748 4.174925382459706  166.6104564663615 4.842139278259116  166.82289633201043 5.496116580999282  C 167.03533619765935 6.149814676119344  167.35034763131816 6.761149954954387  167.7679018746451 7.330143876723249  C 168.18545611797202 7.898871846843749  168.70987790756936 8.405283850456762  169.34120395051315 8.849349095663799  C 169.9725299934569 9.293081901310384  170.71208207196085 9.650559822686951  171.55984369314567 9.921825926840716  C 171.55984369314567 9.921825926840716  170.0764419800387 12.140006765986985  170.0764419800387 12.140006765986985  C 168.79114749302505 11.692949624179711  167.71295855649925 11.041103412089871  166.84188850766324 10.184421139378161  C 165.97081845882727 9.32747297446191  165.31284102450428 8.324342114215831  164.8679826111635 7.174985045764059  C 164.42379016480672 6.025328737125017  164.20170172662455 4.798484985552042  164.20170172662455 3.4945128782016988  Z M 173 13.132560668545066  L 173 0.03213960876675255  L 176 0.03213960876675255  L 176 13.132560668545066  L 173 13.132560668545066  Z M 175.15399861656533 7.639791963458988  L 175.15399861656533 5.285930844121259  L 178.9509399805026 5.285930844121259  L 178.9509399805026 7.639791963458988  L 175.15399861656533 7.639791963458988  Z M 164.8430153690132 14.157680273167944  C 165.95715925866122 13.82484743240744  167.27110431813918 13.658420668802595  168.784821610482 13.658420668802595  C 170.3145218722756 13.658420668802595  171.6297661181273 13.82484743240744  172.73059090626037 14.157680273167944  C 173.83074978695055 14.490313679914092  174.6808512535119 14.968032924632992  175.280877324538 15.590814645903592  C 175.88023748812128 16.21339693315983  176.17991143718163 16.966313539590097  176.17991143718163 17.849656959777494  C 176.17991143718163 18.722561985820107  175.88023748812128 19.471686552118  175.280877324538 20.096994754604207  C 174.6808512535119 20.722502450548596  173.83074978695055 21.201574042160704  172.73059090626037 21.534207448906848  C 171.6297661181273 21.867040289667354  170.3145218722756 22.033467053272197  168.784821610482 22.033467053272197  C 167.27110431813918 22.033467053272197  165.95715925866122 21.867040289667354  164.8430153690132 21.534207448906848  C 163.72953738680806 21.201574042160704  162.87278732504802 20.722502450548596  162.27276125402193 20.096994754604207  C 161.67340109043866 19.471686552118  161.37372714137828 18.722561985820107  161.37372714137828 17.849656959777494  C 161.37372714137828 16.966313539590097  161.67340109043866 16.21339693315983  162.27276125402193 15.590814645903592  C 162.87278732504802 14.968032924632992  163.72953738680806 14.490313679914092  164.8430153690132 14.157680273167944  Z M 171.27813150180123 16.098596116229825  C 170.60018860355515 15.949998144209681  169.76910414127718 15.875749321352775  168.784821610482 15.875749321352775  C 167.811194372807 15.875749321352775  166.98372851968864 15.949998144209681  166.30245584606382 16.098596116229825  C 165.6218490798819 16.246994624513693  165.10206604654476 16.46580576362518  164.74311591537875 16.755023277102286  C 164.38416578421277 17.044240790579387  164.20468925987328 17.40911551446742  164.20468925987328 17.849656959777494  C 164.20468925987328 18.279759981220874  164.38416578421277 18.642090123250266  164.74311591537875 18.936560092616762  C 165.10206604654476 19.23096357407117  165.6218490798819 19.45242418366077  166.30245584606382 19.601022155680912  C 166.98372851968864 19.749620127701057  167.811194372807 19.823929821029108  168.784821610482 19.823929821029108  C 169.76910414127718 19.823929821029108  170.60018860355515 19.749620127701057  171.27813150180123 19.601022155680912  C 171.95674036703127 19.45242418366077  172.47420406689412 19.23096357407117  172.8304903598948 18.936560092616762  C 173.18677665289547 18.642090123250266  173.36492347605753 18.279759981220874  173.36492347605753 17.849656959777494  C 173.36492347605753 17.40911551446742  173.18677665289547 17.044240790579387  172.8304903598948 16.755023277102286  C 172.47420406689412 16.46580576362518  171.95674036703127 16.246994624513693  171.27813150180123 16.098596116229825  Z M 196 22.03304095997415  L 196 0.016069804383376275  L 199 0.016069804383376275  L 199 22.03304095997415  L 196 22.03304095997415  Z M 193.70222073160173 10.897275227005887  L 193.70222073160173 8.591623520818287  L 197.53312242246875 8.591623520818287  L 197.53312242246875 10.897275227005887  L 193.70222073160173 10.897275227005887  Z M 192 20.97255561161362  L 192 0.43041510149565765  L 194 0.43041510149565765  L 194 20.97255561161362  L 192 20.97255561161362  Z M 181.37535369690153 16.95358275399082  L 181.37535369690153 14.600086857479985  C 181.37535369690153 14.600086857479985  182.88674067044073 14.600086857479985  182.88674067044073 14.600086857479985  C 183.84438499820604 14.600086857479985  184.74544719912927 14.586756159281643  185.58987904493537 14.560094957934993  C 186.4336449237575 14.533433756588341  187.26206992413958 14.476362936238074  188.07520185756914 14.388866322592426  C 188.88766782401473 14.301103764728897  189.72311194373867 14.17753397388042  190.58152885804367 14.018165153294087  C 190.58152885804367 14.018165153294087  190.82129364377295 16.339886663865066  190.82129364377295 16.339886663865066  C 189.93490659247013 16.510691212138493  189.07382729875627 16.64243043397262  188.23805290465953 16.735179503507663  C 187.40227851056278 16.82766262139434  186.55016717529242 16.88728926034275  185.6817609348512 16.91401694774387  C 184.81402066139393 16.9404122011574  183.88234446134004 16.95358275399082  182.88674067044073 16.95358275399082  C 182.88674067044073 16.95358275399082  181.37535369690153 16.95358275399082  181.37535369690153 16.95358275399082  Z M 181 15.713042551971093  L 181 2.6085431706257833  L 189.5276612620283 2.6085431706257833  L 189.5276612620283 4.9063425860351435  L 184 4.9063425860351435  L 184 15.713042551971093  L 181 15.713042551971093  Z M 208.9559253140555 14.0783660492606  C 210.07006920370353 13.7402807526107  211.38667360599524 13.57125415411701  212.90571863420976 13.57125415411701  C 214.42476366242428 13.57125415411701  215.73601865589103 13.7402807526107  216.83950731195995 14.0783660492606  C 217.94232994150386 14.416185423984048  218.7937611985542 14.899529510399486  219.39378726958034 15.528361542504562  C 219.9931474331636 16.156927622961277  220.29282138222393 16.917610921069727  220.29282138222393 17.81039550588629  C 220.29282138222393 18.69799409300364  219.9931474331636 19.45867180339306  219.39378726958034 20.092490339739168  C 218.7937611985542 20.726508310099643  217.94232994150386 21.212457878566774  216.83950731195995 21.550277253290226  C 215.73601865589103 21.888362549940123  214.42476366242428 22.057389148433817  212.90571863420976 22.057389148433817  C 211.38667360599524 22.057389148433817  210.07006920370353 21.888362549940123  208.9559253140555 21.550277253290226  C 207.84244733185037 21.212457878566774  206.98569727009036 20.726409038921105  206.38567119906423 20.092125116912275  C 205.786311035481 19.458107146551807  205.48663708642061 18.697004234521636  205.48663708642061 17.808873744107565  C 205.48663708642061 16.921075663532033  205.786311035481 16.161904853966472  206.38567119906423 15.53134419559087  C 206.98569727009036 14.900517585566908  207.84244733185037 14.416185423984048  208.9559253140555 14.0783660492606  Z M 215.3920474529375 16.039551759215147  C 214.71343858770746 15.893679747007837  213.88467354821537 15.82078328590509  212.90571863420976 15.82078328590509  C 211.92676372020412 15.82078328590509  211.09663846473094 15.893679747007837  210.41536579110613 16.039551759215147  C 209.73475902492422 16.185423771422457  209.21497599158707 16.405592889729043  208.85602586042108 16.699996371183452  C 208.49707572925507 16.994200388901586  208.31759920491564 17.362723863595125  208.31759920491564 17.80552586819436  C 208.31759920491564 18.260096025180182  208.49707572925507 18.63720850762871  208.85602586042108 18.936864444972507  C 209.21497599158707 19.236586870228397  209.73475902492422 19.461955658312682  210.41536579110613 19.613013638497296  C 211.09663846473094 19.764138106594  211.92676372020412 19.839695273056737  212.90571863420976 19.839695273056737  C 213.88467354821537 19.839695273056737  214.71343858770746 19.764138106594  215.3920474529375 19.613013638497296  C 216.06999035118358 19.461955658312682  216.58711401193645 19.236586870228397  216.94340030493711 18.936864444972507  C 217.2996865979378 18.63720850762871  217.47783342109986 18.260096025180182  217.47783342109986 17.80552586819436  C 217.47783342109986 17.362723863595125  217.2996865979378 16.994200388901586  216.94340030493711 16.699996371183452  C 216.58711401193645 16.405592889729043  216.06999035118358 16.185423771422457  215.3920474529375 16.039551759215147  Z M 217 13.061524828714008  L 217 0.03213960876675255  L 220 0.03213960876675255  L 220 13.061524828714008  L 217 13.061524828714008  Z M 219.26690856160766 7.60947846882671  L 219.26690856160766 5.255617349488981  L 223.0638499255449 5.255617349488981  L 223.0638499255449 7.60947846882671  L 219.26690856160766 7.60947846882671  Z M 203 12  L 203 1.4129253763141292  L 206.2947648302092 1.4129253763141292  L 206.2947648302092 4.3045771082546205  L 211.14557379016185 4.3045771082546205  L 211.14557379016185 1.4129253763141292  L 214 1.4129253763141292  L 214 12  L 203 12  Z M 211.14557379016185 6.50626204971947  L 206.2947648302092 6.50626204971947  L 206.2947648302092 9.47491492766364  L 211.14557379016185 9.47491492766364  L 211.14557379016185 6.50626204971947  Z M 233.66553844922095 10.553539676426622  L 233.66553844922095 8.247887970239022  L 237.4425121164446 8.247887970239022  L 237.4425121164446 10.553539676426622  L 233.66553844922095 10.553539676426622  Z M 241 22.03304095997415  L 241 0.016069804383376275  L 243 0.016069804383376275  L 243 22.03304095997415  L 241 22.03304095997415  Z M 236 21.0207041542926  L 236 0.39827549272890517  L 239 0.39827549272890517  L 239 21.0207041542926  L 236 21.0207041542926  Z M 227.26938218879934 2.599595211366858  C 227.98794841811528 1.9610694378436402  228.8233925378392 1.6417983478349427  229.77570918927387 1.6417983478349427  C 230.74467477714327 1.6417983478349427  231.58741708525275 1.9610694378436402  232.3039854136168 2.599595211366858  C 233.02121970896482 3.2381143866261137  233.57430665859115 4.14814677399672  233.9632247979363 5.3296967128774995  C 234.35214293728149 6.51102064635661  234.54658639230573 7.918661586006464  234.54658639230573 9.552707389792257  C 234.54658639230573 11.186553700119868  234.35214293728149 12.597002290251478  233.9632247979363 13.784057321254448  C 233.57430665859115 14.970846519496694  233.02057011577796 15.882125265430371  232.30200388646202 16.517871921505186  C 231.58410362413005 17.15368503577018  230.74034113914948 17.471590463470108  229.77070964383717 17.471590463470108  C 228.81905895938647 17.471590463470108  227.98460447195941 17.15368503577018  227.26737017661142 16.517871921505186  C 226.55080184824735 15.882125265430371  225.998054937731 14.970846519496694  225.60913679838586 13.784057321254448  C 225.22021865904074 12.597002290251478  225.02577520401647 11.186553700119868  225.02577520401647 9.552707389792257  C 225.02577520401647 7.918661586006464  225.22021865904074 6.51102064635661  225.60913679838586 5.3296967128774995  C 225.998054937731 4.14814677399672  226.55148192646735 3.2381143866261137  227.26938218879934 2.599595211366858  Z M 230.9494439356373 4.917542752726587  C 230.6224596838318 4.522112597860988  230.23221255780223 4.324420881849245  229.77869672252262 4.324420881849245  C 229.3345042761658 4.324420881849245  228.9492359455064 4.522112597860988  228.62291766068486 4.917542752726587  C 228.29659937586337 5.312979565299968  228.04853573946653 5.897274801753947  227.87871703141303 6.670429710408734  C 227.70889832335953 7.443338581094684  227.62398409440684 8.403877469131647  227.62398409440684 9.552037814609616  C 227.62398409440684 10.685172070286665  227.70889832335953 11.642327297231095  227.87871703141303 12.42348055012859  C 228.04853573946653 13.204367851377722  228.29659937586337 13.793882730732742  228.62291766068486 14.192072089367217  C 228.9492359455064 14.589995496353332  229.3345042761658 14.788967929455806  229.77869672252262 14.788967929455806  C 230.23221255780223 14.788967929455806  230.6224596838318 14.589995496353332  230.9494439356373 14.192072089367217  C 231.27576222045883 13.793882730732742  231.52382585685567 13.204367851377722  231.69364456490914 12.42348055012859  C 231.86346327296263 11.642327297231095  231.94837750191533 10.685172070286665  231.94837750191533 9.552037814609616  C 231.94837750191533 8.403877469131647  231.86346327296263 7.443338581094684  231.69364456490914 6.670429710408734  C 231.52382585685567 5.897274801753947  231.27576222045883 5.312979565299968  230.9494439356373 4.917542752726587  Z M 263 22.03304095997415  L 263 0.016069804383376275  L 265 0.016069804383376275  L 265 22.03304095997415  L 263 22.03304095997415  Z M 254.11669730358255 10.879622790372633  L 254.11669730358255 8.614084724672324  L 259.04943479012735 8.614084724672324  L 259.04943479012735 10.879622790372633  L 254.11669730358255 10.879622790372633  Z M 258 21.0207041542926  L 258 0.5179468390081391  L 261 0.5179468390081391  L 261 21.0207041542926  L 258 21.0207041542926  Z M 253.67716409561754 3.232708981789194  C 253.67716409561754 3.232708981789194  253.67716409561754 2.663874428900363  253.67716409561754 2.663874428900363  C 253.67716409561754 2.663874428900363  256.41924709996204 2.663874428900363  256.41924709996204 2.663874428900363  C 256.41924709996204 4.702864489747423  256.16652944990324 6.620306919597131  255.66106908299068 8.416194822966428  C 255.15560871607815 10.212069410920163  254.31017640149855 11.864082346919544  253.12477529492915 13.372268583930431  C 251.93937418835972 14.880454820941313  250.32841464171733 16.230448808884862  248.29192201950218 17.422224511368146  C 248.29192201950218 17.422224511368146  246.67264851364308 15.42068167904171  246.67264851364308 15.42068167904171  C 248.3615122052553 14.410148993281423  249.71840912837433 13.2962546808807  250.74331499023938 12.079014553895535  C 251.7682208521044 10.861841003988186  252.51343186373964 9.522207836005  252.97893489633677 8.060163437215035  C 253.44443792893395 6.59811903842507  253.67716409561754 4.988957487463025  253.67716409561754 3.232708981789194  Z M 247.81842848460744 4.953456330704587  L 247.81842848460744 2.663874428900363  L 254.59019083847727 2.663874428900363  L 254.59019083847727 4.953456330704587  L 247.81842848460744 4.953456330704587  Z M 16 41.041854301844964  L 16 29.93506291314369  L 18 29.93506291314369  L 18 41.041854301844964  L 16 41.041854301844964  Z M 7.983466209022311 32.35740331252421  C 7.983466209022311 32.35740331252421  7.983466209022311 30.842702508448706  7.983466209022311 30.842702508448706  C 7.983466209022311 30.842702508448706  11.087147434082354 30.842702508448706  11.087147434082354 30.842702508448706  C 11.087147434082354 32.75878522037159  10.702559211413488 34.42980888427938  9.93338038443254 35.85575103040831  C 9.164201557451594 37.28162659945942  8.028433776398304 38.46405131358769  6.526037744159621 39.402977736625175  C 5.023641711920939 40.34170466620448  3.1689477757208517 41.05828356300474  0.9619704635829699 41.552679295728645  C 0.9619704635829699 41.552679295728645  0 39.25487988031929  0 39.25487988031929  C 1.8640100908816064 38.8671954334636  3.3830514275491455 38.334745788597445  4.557131393096583 37.65757784689438  C 5.730545332118977 36.98014395354296  6.59496416594875 36.19014415254257  7.150371223083398 35.287586052702125  C 7.705778280218045 34.38502795286167  7.983466209022311 33.40829347731931  7.983466209022311 32.35740331252421  Z M 1.231671551866107 33.11670156963874  L 1.231671551866107 30.842702508448706  L 9.194179300597398 30.842702508448706  L 9.194179300597398 33.11670156963874  L 1.231671551866107 33.11670156963874  Z M 10.248046896612776 34.981711935177636  L 10.248046896612776 32.80431431170129  L 15.604328191235108 32.80431431170129  L 15.604328191235108 34.981711935177636  L 10.248046896612776 34.981711935177636  Z M 10.088213867804312 39.22754903877332  L 10.088213867804312 37.0662820901515  L 15.501441204351917 37.0662820901515  L 15.501441204351917 39.22754903877332  L 10.088213867804312 39.22754903877332  Z M 3.613131856555877 44  L 3.613131856555877 42  L 18.083675937371375 42  L 18.083675937371375 47  L 6.50006449591533 47  L 6.50006449591533 50.73480725716486  L 3.6530977350162805 50.73480725716486  L 3.6530977350162805 45  L 15.228752582820023 45  L 15.228752582820023 44  L 3.613131856555877 44  Z M 3.6530977350162805 51  L 3.6530977350162805 49  L 18.601128890069234 49  L 18.601128890069234 51  L 3.6530977350162805 51  Z M 38 51.95221668014791  L 38 29.93506291314369  L 41 29.93506291314369  L 41 51.95221668014791  L 38 51.95221668014791  Z M 30.449502844438022 39.88288053116509  L 30.449502844438022 37.56895044090121  L 34.26443037793413 37.56895044090121  L 34.26443037793413 39.88288053116509  L 30.449502844438022 39.88288053116509  Z M 34 50.92368832914069  L 34 30.340886344295093  L 37 30.340886344295093  L 37 50.92368832914069  L 34 50.92368832914069  Z M 25.848396791021734 35.89318637016504  C 25.848396791021734 35.89318637016504  25.848396791021734 33.47979393004344  25.848396791021734 33.47979393004344  L 27.998109873700834 33.47979393004344  C 27.998109873700834 33.47979393004344  27.998109873700834 35.89318637016504  27.998109873700834 35.89318637016504  C 27.998109873700834 37.11707516947159  27.90088814618871 38.323759976319046  27.706429076516134 39.513275030347444  C 27.512635958942244 40.70285666145366  27.21726069726153 41.8219562313511  26.82035110296152 42.87058586657895  C 26.42410744587493 43.91901600834862  25.91434300311499 44.86507598694299  25.291008444896622 45.70879332485049  C 24.66767388667825 46.55251066275798  23.929451479581186 47.240556942313816  23.076362241606798 47.7728501310471  C 23.076362241606798 47.7728501310471  21.368194379080627 45.675131954305  21.368194379080627 45.675131954305  C 22.43438947945843 45.004479709099144  23.294788635411194 44.15037099710807  23.949423106006115 43.11291121222373  C 24.604723543585 42.075517885529564  25.084894164085373 40.931893103478046  25.389901892437088 39.682007976372894  C 25.695575558002222 38.43212284926774  25.848396791021734 37.16920074144916  25.848396791021734 35.89318637016504  Z M 26.47474228213345 35.89318637016504  C 26.47474228213345 35.89318637016504  26.47474228213345 33.47979393004344  26.47474228213345 33.47979393004344  L 28.607444716314525 33.47979393004344  C 28.607444716314525 33.47979393004344  28.607444716314525 35.89318637016504  28.607444716314525 35.89318637016504  C 28.607444716314525 37.127048177953654  28.754977570116456 38.34096955649716  29.049995942561424 39.535005788547686  C 29.34501431500639 40.72904202059822  29.81448626670954 41.814144302926294  30.45846544418429 42.790236844662076  C 31.103110588643002 43.76632938639785  31.95055265284949 44.56044151082997  33.000764783776496 45.172585344497605  C 33.000764783776496 45.172585344497605  31.324545235992126 47.23846826482869  31.324545235992126 47.23846826482869  C 30.18376314331421 46.5517927597501  29.25777633165419 45.624268731277944  28.54653562007968 44.45589641718748  C 27.83529490850517 43.2875905612872  27.312172335052104 41.966289391681585  26.97719659852123 40.492011335954665  C 26.64222086199035 39.01753390565721  26.47474228213345 37.48461404646115  26.47474228213345 35.89318637016504  Z M 22.129375171817337 34.551966408864615  L 22.129375171817337 32.24631470267701  L 32.030791998991496 32.24631470267701  L 32.030791998991496 34.551966408864615  L 22.129375171817337 34.551966408864615  Z M 46.110761835081824 34  L 46.110761835081824 31  L 60.0339166606456 31  L 60.0339166606456 34  L 46.110761835081824 34  Z M 43.81822637209228 49  L 43.81822637209228 47  L 63.76092535853545 47  L 63.76092535853545 49  L 43.81822637209228 49  Z M 58.88713068358727 33.841425399140554  C 58.88713068358727 33.841425399140554  58.88713068358727 31.855891500726347  58.88713068358727 31.855891500726347  L 61.70211864471136 31.855891500726347  C 61.70211864471136 31.855891500726347  61.70211864471136 33.841425399140554  61.70211864471136 33.841425399140554  C 61.70211864471136 34.72456938531359  61.69015119642591 35.67427808499157  61.666176790626835 36.69052867174779  C 61.64220238482777 37.7067126814262  61.56226697729447 38.833518191418314  61.426412004897564 40.070970287015975  C 61.290557032500665 41.30835592442345  61.05715078759704 42.717396766022105  60.72617079342886 44.298120155968874  C 60.72617079342886 44.298120155968874  57.903195753619315 43.98615899132947  57.903195753619315 43.98615899132947  C 58.394005114819514 41.78291995064809  58.68069148710043 39.860544991545446  58.76326999389648 38.218986202303014  C 58.84584850069254 36.57716146141222  58.88713068358727 35.11797167372139  58.88713068358727 33.841425399140554  Z M 45.45448004141625 37.6164902788687  L 59.42354532690479 37.14675285301069  L 59.42354532690479 39.30844589493054  L 45.839048734610756 40.04211768369128  L 45.45448004141625 37.6164902788687  Z M 51.07747489107297 47.84163376344564  L 51.07747489107297 41.610323631906894  L 53.93340425171828 41.610323631906894  L 53.93340425171828 47.84163376344564  L 51.07747489107297 47.84163376344564  Z M 68.27011903700276 42  L 68.27011903700276 40  L 83.67566956957954 40  L 83.67566956957954 42  L 68.27011903700276 42  Z M 65.89064025946777 49  L 65.89064025946777 46  L 85.86434252462507 46  L 85.86434252462507 49  L 65.89064025946777 49  Z M 68.27011903700276 41.17047360738312  L 68.27011903700276 31  L 83.49285082577553 31  L 83.49285082577553 34  L 71.10208716159173 34  L 71.10208716159173 41.17047360738312  L 68.27011903700276 41.17047360738312  Z M 87.93912339582006 42  L 87.93912339582006 40  L 107.91380118203817 40  L 107.91380118203817 42  L 87.93912339582006 42  Z M 90.2156847014387 45  L 90.2156847014387 43  L 105.5083491562589 43  L 105.5083491562589 48  L 93.07862561970865 48  L 93.07862561970865 50.44841169040811  L 90.2556505798991 50.44841169040811  L 90.2556505798991 46  L 102.70134827382026 46  L 102.70134827382026 45  L 90.2156847014387 45  Z M 90.2556505798991 51  L 90.2556505798991 49  L 106.1466752653988 49  L 106.1466752653988 51  L 90.2556505798991 51  Z M 90.40746604498896 32  L 90.40746604498896 30  L 105.44442204174214 30  L 105.44442204174214 35  L 93.25443280588802 35  L 93.25443280588802 37.37854760714666  L 90.44743192344937 37.37854760714666  L 90.44743192344937 33  L 102.6374211593035 33  L 102.6374211593035 32  L 90.40746604498896 32  Z M 90.44743192344937 38  L 90.44743192344937 36  L 105.84398937124674 36  L 105.84398937124674 38  L 90.44743192344937 38  Z M 128.00532810032246 38.03947918288416  L 128.00532810032246 35.741253674176754  L 133.25375334765806 35.741253674176754  L 133.25375334765806 38.03947918288416  L 128.00532810032246 38.03947918288416  Z M 132 46.03043289440261  L 132 29.959045878776458  L 135 29.959045878776458  L 135 46.03043289440261  L 132 46.03043289440261  Z M 120.1617119808784 51  L 120.1617119808784 49  L 135.12873531158417 49  L 135.12873531158417 51  L 120.1617119808784 51  Z M 120.1617119808784 50.57855275772499  L 120.1617119808784 44.65822986328726  L 123.01767182655686 44.65822986328726  L 123.01767182655686 50.57855275772499  L 120.1617119808784 50.57855275772499  Z M 121.46232543521452 34.29022338292326  C 121.46232543521452 34.29022338292326  121.46232543521452 32.793479367836746  121.46232543521452 32.793479367836746  L 123.78784570407299 32.793479367836746  C 123.78784570407299 32.793479367836746  123.78784570407299 34.29022338292326  123.78784570407299 34.29022338292326  C 123.78784570407299 35.6579895273525  123.55508905235624 36.95793395927005  123.08958601975908 38.19013359897831  C 122.62341702017795 39.4222667804964  121.9321661843695 40.498879355969926  121.01581115465807 41.41992079815235  C 120.09945612494661 42.340895782144585  118.95833899460943 43.038154783731315  117.5924638719811 43.511673668721826  C 117.5924638719811 43.511673668721826  116.15698463098681 41.24601386207922  116.15698463098681 41.24601386207922  C 117.04270571530567 40.9425681731901  117.81723150992728 40.55008803675391  118.48052337269048 40.06865720911231  C 119.14381523545369 39.58722638147071  119.69755183780795 39.03551774158407  120.14174428416477 38.413467357624555  C 120.58593673052158 37.79115102201667  120.91690478670314 37.12903752481642  121.13467229891215 36.42720301355656  C 121.3531057781051 35.72530198466269  121.46232543521452 35.01300125955052  121.46232543521452 34.29022338292326  Z M 122.05568612045732 34.28231022167387  C 122.05568612045732 34.28231022167387  122.05568612045732 32.793479367836746  122.05568612045732 32.793479367836746  L 124.34925807457398 32.793479367836746  C 124.34925807457398 32.793479367836746  124.34925807457398 34.28231022167387  124.34925807457398 34.28231022167387  C 124.34925807457398 35.16465635290182  124.53538319411214 36.035319336405045  124.90765242679308 36.894262138684006  C 125.279921659474 37.7529389893146  125.84531613743029 38.52549571481394  126.60383967129106 39.21190532768799  C 127.36236320515184 39.89804898891367  128.30702704152625 40.43793942471771  129.43781980806796 40.83160769449579  C 129.43781980806796 40.83160769449579  128.03431936684865 43.049727663170906  128.03431936684865 43.049727663170906  C 126.7170589409334 42.59721860173797  125.61456468044776 41.930529178757844  124.72684569517702 41.04964572215205  C 123.83979267689021 40.168562831531894  123.1728473138943 39.142463414432505  122.72599102937217 37.97136512566826  C 122.27913474485003 36.80006746233347  122.05568612045732 35.57035875643676  122.05568612045732 34.28231022167387  Z M 116.95813130218393 33  L 116.95813130218393 31  L 128.7894946080547 31  L 128.7894946080547 33  L 116.95813130218393 33  Z M 139.09249077692138 40.35888761555147  L 139.09249077692138 38.10935848376339  C 139.09249077692138 38.10935848376339  140.8915954933357 38.10935848376339  140.8915954933357 38.10935848376339  C 142.41663404578264 38.10935848376339  143.74387629565797 38.08941488170442  144.87333712823178 38.04952281062377  C 146.00279796080557 38.00963073954311  147.04434347069682 37.93657412936022  147.9979920560994 37.830328244015675  C 148.951640641502 37.72388289493486  149.89964395845124 37.572293739640315  150.8419712837497 37.375625824531504  C 150.8419712837497 37.375625824531504  151.14663870505655 39.60080676785992  151.14663870505655 39.60080676785992  C 150.1776731171871 39.80824554639588  149.20171532254417 39.96785521847781  148.21876466617587 40.07955302344801  C 147.23581400980754 40.19125082841821  146.15929490288076 40.265764688974755  144.98921073923708 40.30313026397885  C 143.81979248303634 40.3402963789619  142.45392760147382 40.35888761555147  140.8915954933357 40.35888761555147  C 140.8915954933357 40.35888761555147  139.09249077692138 40.35888761555147  139.09249077692138 40.35888761555147  Z M 139.09249077692138 39.381733942194124  L 139.09249077692138 31.11540221919691  L 148.9250114291752 31.11540221919691  L 148.9250114291752 33.35671383737986  L 141.93147045913497 33.35671383737986  L 141.93147045913497 39.381733942194124  L 139.09249077692138 39.381733942194124  Z M 152 40.914695887614386  L 152 29.93506291314369  L 155 29.93506291314369  L 155 40.914695887614386  L 152 40.914695887614386  Z M 154.78475304627932 36.54608304371085  L 154.78475304627932 34.22436153313988  L 158.5806884041226 34.22436153313988  L 158.5806884041226 36.54608304371085  L 154.78475304627932 36.54608304371085  Z M 141.16230258771282 44  L 141.16230258771282 41  L 155.56291400248088 41  L 155.56291400248088 47  L 144.0172564272973 47  L 144.0172564272973 50.63948409934529  L 141.20223798114006 50.63948409934529  L 141.20223798114006 45  L 152.7549071139483 45  L 152.7549071139483 44  L 141.16230258771282 44  Z M 141.20223798114006 51  L 141.20223798114006 49  L 156.24818706267268 49  L 156.24818706267268 51  L 141.20223798114006 51  Z M 174 41.87170143502136  L 174 29.911932134107015  L 177 29.911932134107015  L 177 41.87170143502136  L 174 41.87170143502136  Z M 176.48058531914575 37.09623036195689  L 176.48058531914575 34.766595690136526  L 180.6451456978458 34.766595690136526  L 180.6451456978458 37.09623036195689  L 176.48058531914575 37.09623036195689  Z M 163.2187423177174 44  L 163.2187423177174 42  L 177.61938421751864 42  L 177.61938421751864 48  L 166.0736961573019 48  L 166.0736961573019 50.40014140678682  L 163.25870819617782 50.40014140678682  L 163.25870819617782 46  L 174.811377328986 46  L 174.811377328986 44  L 163.2187423177174 44  Z M 163.25870819617782 51  L 163.25870819617782 49  L 178.3046572777104 49  L 178.3046572777104 51  L 163.25870819617782 51  Z M 160.3518078601047 33  L 160.3518078601047 31  L 173.3399562339072 31  L 173.3399562339072 33  L 160.3518078601047 33  Z M 162.9320610659694 35.429414250479645  C 163.91301382138582 34.78289673097768  165.21895001014292 34.45962590413135  166.8498755863487 34.45962590413135  C 168.4768053606507 34.45962590413135  169.78008220659405 34.78289673097768  170.75970302804257 35.429414250479645  C 171.73998981647503 36.07586525234761  172.23011811702736 36.9586114999245  172.23011811702736 38.07758409782353  C 172.23011811702736 39.18033388294784  171.73998981647503 40.05270795679484  170.75970302804257 40.694770875352496  C 169.78008220659405 41.33650132462778  168.4768053606507 41.657376506105194  166.8498755863487 41.657376506105194  C 165.21895001014292 41.657376506105194  163.91301382138582 41.33650132462778  162.9320610659694 40.694770875352496  C 161.95110831055297 40.05270795679484  161.46063997089058 39.18033388294784  161.46063997089058 38.07758409782353  C 161.46063997089058 36.9586114999245  161.95110831055297 36.07586525234761  162.9320610659694 35.429414250479645  Z M 168.7857971315428 36.89383604538596  C 168.31363451841764 36.621107236888115  167.6683351365678 36.484786479263654  166.8498755863487 36.484786479263654  C 166.0367436529191 36.484786479263654  165.39110423195928 36.621107236888115  164.91294803506062 36.89383604538596  C 164.43479183816194 37.16663134179589  164.1956961750939 37.56019876513421  164.1956961750939 38.07454057426607  C 164.1956961750939 38.583696385698715  164.43479183816194 38.97195928036178  164.91294803506062 39.239236169233955  C 165.39110423195928 39.50651305810614  166.0367436529191 39.640129092222274  166.8498755863487 39.640129092222274  C 167.6683351365678 39.640129092222274  168.31363451841764 39.50651305810614  168.7857971315428 39.239236169233955  C 169.2586256818814 38.97195928036178  169.4950619128241 38.583696385698715  169.4950619128241 38.07454057426607  C 169.4950619128241 37.56019876513421  169.2586256818814 37.16663134179589  168.7857971315428 36.89383604538596  Z M 165.42238342403988 33.17720681796101  L 165.42238342403988 29.76048640188792  L 168.26935018493893 29.76048640188792  L 168.26935018493893 33.17720681796101  L 165.42238342403988 33.17720681796101  Z M 197.10358830537714 31.711871965987452  C 197.10358830537714 31.711871965987452  197.10358830537714 30.612429516091463  197.10358830537714 30.612429516091463  L 199.59790420279035 30.612429516091463  C 199.59790420279035 30.612429516091463  199.59790420279035 31.711871965987452  199.59790420279035 31.711871965987452  C 199.59790420279035 32.5525973775728  199.45940027749822 33.35884798938689  199.18236271591488 34.130560137099025  C 198.90599109154493 34.90220576717718  198.50575585997126 35.61945239640168  197.98164871521317 36.28239216269272  C 197.4568756034711 36.945132435525586  196.82552300520547 37.540172915120515  196.0876440906011 38.06747959961277  C 195.34976517599668 38.59478628410502  194.5153411736028 39.03824321098539  193.58433510840845 39.397803746577495  C 192.65399495065705 39.757098330521245  191.64439323038545 40.0219347533846  190.5555556097994 40.192406876958536  C 190.5555556097994 40.192406876958536  189.44074843251602 37.91043378404795  189.44074843251602 37.91043378404795  C 190.3963948593294 37.782513210885895  191.27148190669377 37.572186176048966  192.0659670622778 37.279511350586986  C 192.8604522178618 36.98677003721293  193.57034956358092 36.63683779539372  194.19568196321012 36.229739205148704  C 194.8210143628393 35.822574126991604  195.34911579120362 35.371676409173354  195.7799891360455 34.877014724801086  C 196.21086248088733 34.382353040428825  196.5391710900583 33.86662339644352  196.76493007210743 33.32980908913193  C 196.99068905415652 32.792994781820326  197.10358830537714 32.25367277754008  197.10358830537714 31.711871965987452  Z M 197.6330218761032 31.711871965987452  C 197.6330218761032 31.711871965987452  197.6330218761032 30.612429516091463  197.6330218761032 30.612429516091463  L 200.11935069483093 30.612429516091463  C 200.11935069483093 30.612429516091463  200.11935069483093 31.711871965987452  200.11935069483093 31.711871965987452  C 200.11935069483093 32.24848683928469  200.23357966211424 32.7839558735176  200.4620024674434 33.31824369961359  C 200.6904252727726 33.85226557406122  201.0210532600736 34.36658758840119  201.45392447609683 34.861249272773456  C 201.88746162933344 35.355910957145724  202.4159030968078 35.80822189232833  203.03923765502617 36.21811294515921  C 203.66190624626054 36.62780453425383  204.37047386103177 36.98033658123998  205.16495901661574 37.27573738137574  C 205.95944417219974 37.57093871777523  206.83184127263505 37.782513210885895  207.78216008265892 37.91043378404795  C 207.78216008265892 37.91043378404795  206.66735290537554 40.192406876958536  206.66735290537554 40.192406876958536  C 205.58317699413612 40.0219347533846  204.5772547935494 39.75569073059783  203.6495785037338 39.39360368406821  C 202.72123624693427 39.0313836617144  201.88681224454035 38.58532134194807  201.1462695215412 38.05548811679639  C 200.40572679854202 37.525654891644706  199.77338450843845 36.92942226625008  199.24927736368036 36.26674845160739  C 198.72517021892227 35.60374222712616  198.32459491846805 34.887687803145184  198.04755735688468 34.11856865428265  C 197.77118573251477 33.34938304722993  197.6330218761032 32.54714548766905  197.6330218761032 31.711871965987452  Z M 197.11157538406258 51.96828648453129  L 197.11157538406258 43.807078065208664  L 199.95052458124306 43.807078065208664  L 199.95052458124306 51.96828648453129  L 197.11157538406258 51.96828648453129  Z M 188.62762114329072 44  L 188.62762114329072 42  L 208.57132613582786 42  L 208.57132613582786 44  L 188.62762114329072 44  Z M 222.01498187496622 44.22221467844588  C 222.01498187496622 44.22221467844588  222.01498187496622 43.36424538759858  222.01498187496622 43.36424538759858  L 224.1716760302368 43.36424538759858  C 224.1716760302368 43.36424538759858  224.1716760302368 44.22221467844588  224.1716760302368 44.22221467844588  C 224.1716760302368 45.28753245266736  223.99219950589736 46.3100440191543  223.63324937473138 47.28966033106513  C 223.27363327658142 48.26927664297596  222.7302248784223 49.138322219594905  222.00300125693806 49.89680348085448  C 221.2757776354538 50.65495233227551  220.3471009364058 51.23894719910965  219.21697407730701 51.64883825194054  C 219.21697407730701 51.64883825194054  217.8214607147731 49.56725075005297  217.8214607147731 49.56725075005297  C 218.78110288394922 49.23215735000331  219.56957546215506 48.78011144508986  220.18691637705885 48.211117523321  C 220.8049232589466 47.64219011918614  221.26412803606198 47.010806282798356  221.56447405506702 46.31695020210167  C 221.86482007407207 45.62282816975662  222.01498187496622 44.924581093002466  222.01498187496622 44.22221467844588  Z M 222.71324155928016 44.22221467844588  C 222.71324155928016 44.22221467844588  222.71324155928016 43.36424538759858  222.71324155928016 43.36424538759858  L 224.76604272157357 43.36424538759858  C 224.76604272157357 43.36424538759858  224.76604272157357 44.22221467844588  224.76604272157357 44.22221467844588  C 224.76604272157357 44.93475359494272  224.89888771373444 45.64742423894352  225.1646040449842 46.36022910708871  C 225.43098634321794 47.072834481775736  225.84522932844212 47.72437726288903  226.40729593633424 48.31477993568801  C 226.96936254422636 48.90518260848698  227.69524696773087 49.3838898986514  228.5849637944124 49.750896961509966  C 228.5849637944124 49.750896961509966  227.4301907386686 51.864684942635435  227.4301907386686 51.864684942635435  C 226.29473626278028 51.428132712606946  225.38037687145962 50.8118955478079  224.68711697074673 50.016048733835675  C 223.99452303701779 49.22020191986344  223.4923968217534 48.31652960507063  223.1807295426442 47.30499968979471  C 222.86906226353503 46.2934697745188  222.71324155928016 45.2658578094327  222.71324155928016 44.22221467844588  Z M 230.07937060448674 44.22221467844588  C 230.07937060448674 44.22221467844588  230.07937060448674 43.36424538759858  230.07937060448674 43.36424538759858  L 232.13217176678017 43.36424538759858  C 232.13217176678017 43.36424538759858  232.13217176678017 44.22221467844588  232.13217176678017 44.22221467844588  C 232.13217176678017 45.191791464240644  231.97236189945195 46.1797204593116  231.65270316538792 47.18599791869812  C 231.33304443132388 48.192076003514096  230.83057814717895 49.10887476196866  230.14530973119145 49.93636928710143  C 229.4607072821879 50.764129763882565  228.5556558884208 51.4069234253131  227.4301907386686 51.864684942635435  C 227.4301907386686 51.864684942635435  226.2604495316479 49.750896961509966  226.2604495316479 49.750896961509966  C 227.15016635832947 49.3467237799531  227.87605078183398 48.83484707629323  228.43811738972607 48.21525671535914  C 229.0001839976182 47.595732812615225  229.41408694373237 46.93628002077497  229.67980327498216 46.23690553254053  C 229.9461855732159 45.53753104430609  230.07937060448674 44.86593976508388  230.07937060448674 44.22221467844588  Z M 230.72169025296935 44.22221467844588  C 230.72169025296935 44.22221467844588  230.72169025296935 43.36424538759858  230.72169025296935 43.36424538759858  L 232.87838440823995 43.36424538759858  C 232.87838440823995 43.36424538759858  232.87838440823995 44.22221467844588  232.87838440823995 44.22221467844588  C 232.87838440823995 44.97245155749391  233.02854620913408 45.69861309521371  233.32889222813913 46.40064709993175  C 233.62923824714417 47.102548128825624  234.08841253922643 47.72872100111001  234.70641942111416 48.2792315805369  C 235.32376033601795 48.829476208315434  236.11226339925696 49.25881855692282  237.07190556843304 49.56725075005297  C 237.07190556843304 49.56725075005297  235.67639220589916 51.64883825194054  235.67639220589916 51.64883825194054  C 234.54626534680034 51.249651574624714  233.61359951444956 50.68142706393331  232.87838440823995 49.944221577879674  C 232.14316930203032 49.2072155258404  231.59976090387119 48.3462953843502  231.24813629044664 47.36142661654998  C 230.89717764400606 46.3763584147354  230.72169025296935 45.32995108669887  230.72169025296935 44.22221467844588  Z M 232 42.4468665169097  L 232 29.959045878776458  L 235 29.959045878776458  L 235 42.4468665169097  L 232 42.4468665169097  Z M 220.16496715319042 31.785586106549076  C 221.0606775636455 31.338595452653895  222.07358839854092 31.115097866841165  223.20371525763974 31.115097866841165  C 224.33850382608526 31.115097866841165  225.35240429327754 31.338595452653895  226.24545089533783 31.785586106549076  C 227.13849749739813 32.232643248356354  227.84341601797655 32.84996770005753  228.36019764499324 33.63757019126204  C 228.87764523899386 34.42497318900838  229.13637707404 35.332134083235104  229.13637707404 36.359088956340656  C 229.13637707404 37.380591998986276  228.87764523899386 38.28380059254331  228.36019764499324 39.06867710907403  C 227.84341601797655 39.853553625604754  227.13849749739813 40.46947047738252  226.24545089533783 40.91646113127771  C 225.35240429327754 41.36351827308498  224.33850382608526 41.58707111192792  223.20371525763974 41.58707111192792  C 222.07358839854092 41.58707111192792  221.0606775636455 41.36351827308498  220.16496715319042 40.91646113127771  C 219.26925674273537 40.46947047738252  218.563008491209 39.853553625604754  218.04622686419233 39.06867710907403  C 217.5287792701917 38.28380059254331  217.27004743514553 37.380591998986276  217.27004743514553 36.359088956340656  C 217.27004743514553 35.332134083235104  217.5287792701917 34.42497318900838  218.04622686419233 33.63757019126204  C 218.563008491209 32.84996770005753  219.26925674273537 32.232643248356354  220.16496715319042 31.785586106549076  Z M 224.82597629674763 33.82687735653591  C 224.35581155480378 33.593508738113435  223.81506258877002 33.47681127695713  223.20371525763974 33.47681127695713  C 222.6083508364192 33.47681127695713  222.07258069552617 33.593508738113435  221.59642236980883 33.82687735653591  C 221.12026404409153 34.060245974958384  220.7453238878567 34.3905380382647  220.47161610165205 34.81784862684411  C 220.19790831544745 35.24522570333561  220.06107416021328 35.75897922670797  220.06107416021328 36.359088956340656  C 220.06107416021328 36.94849434018019  220.19790831544745 37.4594878572921  220.47161610165205 37.89205090176091  C 220.7453238878567 38.32461394622972  221.12026404409153 38.65637449479155  221.59642236980883 38.887283105049555  C 222.07258069552617 39.1179257636592  222.6083508364192 39.23320999259019  223.20371525763974 39.23320999259019  C 223.81506258877002 39.23320999259019  224.35581155480378 39.1179257636592  224.82597629674763 38.887283105049555  C 225.29680697590487 38.65637449479155  225.66908770001427 38.32461394622972  225.94279548621893 37.89205090176091  C 226.21650327242355 37.4594878572921  226.35333742765772 36.94849434018019  226.35333742765772 36.359088956340656  C 226.35333742765772 35.75897922670797  226.21650327242355 35.24522570333561  225.94279548621893 34.81784862684411  C 225.66908770001427 34.3905380382647  225.29680697590487 34.060245974958384  224.82597629674763 33.82687735653591  Z M 242.0466057031096 32.46362228467949  C 242.8990290336411 31.825083195740707  243.8689878858133 31.50582542114757  244.95649357243147 31.50582542114757  C 246.04932687583914 31.50582542114757  247.02061551850036 31.825083195740707  247.87037498109603 32.46362228467949  C 248.72080041067565 33.10216137361827  249.38743624936524 34.00553016826881  249.87025412584003 35.17363653071091  C 250.35240606510143 36.341476941504645  250.5934810523043 37.720837127373215  250.5934810523043 39.3117329003726  C 250.5934810523043 40.913665488447485  250.35240606510143 42.30125032117952  249.87025412584003 43.47454268132084  C 249.38743624936524 44.647901499652335  248.72080041067565 45.55387012919172  247.87037498109603 46.19240921813051  C 247.02061551850036 46.830682355420926  246.04932687583914 47.149840858835525  244.95649357243147 47.149840858835525  C 243.8689878858133 47.149840858835525  242.8990290336411 46.830682355420926  242.0466057031096 46.19240921813051  C 241.19351646513525 45.55387012919172  240.52589096437822 44.647901499652335  240.04373902511685 43.47454268132084  C 239.56092114864205 42.30125032117952  239.31950609255864 40.913665488447485  239.31950609255864 39.3117329003726  C 239.31950609255864 37.720837127373215  239.56092114864205 36.341476941504645  240.04373902511685 35.17363653071091  C 240.52589096437822 34.00553016826881  241.19351646513525 33.10216137361827  242.0466057031096 32.46362228467949  Z M 246.49583532136973 34.69373373617099  C 246.0596343299678 34.287632434885424  245.54653031732138 34.08454206091027  244.95649357243147 34.08454206091027  C 244.37711212066168 34.08454206091027  243.86830682516546 34.287632434885424  243.43010796258218 34.69373373617099  C 242.99124316278545 35.099635573720285  242.64960689306926 35.69175028796415  242.40520114805983 36.47017756618786  C 242.1607954030504 37.24833889276321  242.038588139391 38.195552735337536  242.038588139391 39.3117329003726  C 242.038588139391 40.42824547524621  242.1607954030504 41.37951077078112  242.40520114805983 42.16558406972947  C 242.64960689306926 42.95172382686799  242.99124316278545 43.55067244037474  243.43010796258218 43.96235863711015  C 243.86830682516546 44.373712394285114  244.37711212066168 44.57934173267796  244.95649357243147 44.57934173267796  C 245.54653031732138 44.57934173267796  246.0596343299678 44.373712394285114  246.49583532136973 43.96235863711015  C 246.93137034578774 43.55067244037474  247.27133684544597 42.95172382686799  247.5157425904554 42.16558406972947  C 247.76014833546483 41.37951077078112  247.8823555991242 40.42824547524621  247.8823555991242 39.3117329003726  C 247.8823555991242 38.195552735337536  247.76014833546483 37.24833889276321  247.5157425904554 36.47017756618786  C 247.27133684544597 35.69175028796415  246.93137034578774 35.099635573720285  246.49583532136973 34.69373373617099  Z M 254 52  L 254 29.919053979231464  L 257 29.919053979231464  L 257 52  L 254 52  Z M 249.73538833918192 40.281095153422854  L 249.73538833918192 37.99120889926288  L 255.7429671245497 37.99120889926288  L 255.7429671245497 40.281095153422854  L 249.73538833918192 40.281095153422854  Z M 265.552502061808 47.45455843740818  L 265.552502061808 41.16183000047994  L 268.3924267800493 41.16183000047994  L 268.3924267800493 47.45455843740818  L 265.552502061808 47.45455843740818  Z M 273.5929295552722 47.45455843740818  L 273.5929295552722 41.16183000047994  L 276.4398658311381 41.16183000047994  L 276.4398658311381 47.45455843740818  L 273.5929295552722 47.45455843740818  Z M 261.02529172874875 49  L 261.02529172874875 47  L 281 47  L 281 49  L 261.02529172874875 49  Z M 266.7751957714113 31.832334628391628  C 268.00921169377597 31.347911904149786  269.41236965470097 31.10572381428419  270.9846910889753 31.10572381428419  C 272.56167423259626 31.10572381428419  273.9658218853592 31.347911904149786  275.19717393978806 31.832334628391628  C 276.4285259942169 32.3165578888972  277.3975257586664 32.99377400981595  278.1041047608943 33.86388660299459  C 278.81001779613814 34.73399919617324  279.1629719023464 35.765038810778286  279.1629719023464 36.95708046490993  C 279.1629719023464 38.13316525791521  278.81001779613814 39.157647268130326  278.1041047608943 40.030552294172935  C 277.3975257586664 40.90319136856719  276.4285259942169 41.58040748948594  275.19717393978806 42.062104268775904  C 273.9658218853592 42.543801048065866  272.56167423259626 42.78463676131635  270.9846910889753 42.78463676131635  C 269.41236965470097 42.78463676131635  268.00921169377597 42.543801048065866  266.7751957714113 42.062104268775904  C 265.5411798490466 41.58040748948594  264.5711904523002 40.90319136856719  263.8652774170563 40.030552294172935  C 263.15869841482845 39.157647268130326  262.8054347545434 38.13316525791521  262.8054347545434 36.95708046490993  C 262.8054347545434 35.765038810778286  263.15869841482845 34.73399919617324  263.8652774170563 33.86388660299459  C 264.5711904523002 32.99377400981595  265.5411798490466 32.3165578888972  266.7751957714113 31.832334628391628  Z M 273.79870352903856 33.76551992161756  C 272.99223114636646 33.476036456492096  272.05421596473184 33.33126998043951  270.9846910889753 33.33126998043951  C 269.9198279225654 33.33126998043951  268.98317289737076 33.476036456492096  268.17470267328787 33.76551992161756  C 267.365566482221 34.05493689883094  266.7348635069128 34.4693367653695  266.2826795758306 35.0086775538967  C 265.83116161173234 35.54768593258537  265.6054240793574 36.19713646958437  265.6054240793574 36.95708046490993  C 265.6054240793574 37.70106759910913  265.83116161173234 38.34271304372256  266.2826795758306 38.88198737405958  C 266.7348635069128 39.42106221093842  267.365566482221 39.83806191236584  268.17470267328787 40.132997297116965  C 268.98317289737076 40.42773321813182  269.9198279225654 40.575099529073256  270.9846910889753 40.575099529073256  C 272.05421596473184 40.575099529073256  272.99223114636646 40.42773321813182  273.79870352903856 40.132997297116965  C 274.6045099447267 39.83806191236584  275.23348217991065 39.42106221093842  275.6856661109928 38.88198737405958  C 276.13785004207506 38.34271304372256  276.3639580985932 37.70106759910913  276.3639580985932 36.95708046490993  C 276.3639580985932 36.19713646958437  276.13785004207506 35.54768593258537  275.6856661109928 35.0086775538967  C 275.23348217991065 34.4693367653695  274.6045099447267 34.05493689883094  273.79870352903856 33.76551992161756  Z " fill-rule="nonzero" fill="#4c4c57" stroke="none" transform="matrix(1 0 0 1 255 640 )" />
  </g>
</svg>