<?xml version="1.0" encoding="utf-8"?>
<svg version="1.1" xmlns:xlink="http://www.w3.org/1999/xlink" width="187px" height="22px" xmlns="http://www.w3.org/2000/svg">
  <g transform="matrix(1 0 0 1 -121 -120 )">
    <path d="M 12.01184968837197 8.228801681850035  L 12.01184968837197 5.695120882971268  L 17.17121026416669 5.695120882971268  L 17.17121026416669 8.228801681850035  L 12.01184968837197 8.228801681850035  Z M 16 16.025687631394536  L 16 0.04215574632095305  L 19 0.04215574632095305  L 19 16.025687631394536  L 16 16.025687631394536  Z M 4.035809841708608 21.5791652067274  L 4.035809841708608 19  L 19.204232404099407 19  L 19.204232404099407 21.5791652067274  L 4.035809841708608 21.5791652067274  Z M 4.035809841708608 20.549119656622285  L 4.035809841708608 14.678389978976874  L 7.232857850679323 14.678389978976874  L 7.232857850679323 20.549119656622285  L 4.035809841708608 20.549119656622285  Z M 5.245675020210186 4.287841625788367  C 5.245675020210186 4.287841625788367  5.245675020210186 2.9060967063770144  5.245675020210186 2.9060967063770144  L 7.8419354838709685 2.9060967063770144  C 7.8419354838709685 2.9060967063770144  7.8419354838709685 4.287841625788367  7.8419354838709685 4.287841625788367  C 7.8419354838709685 5.6635310086823045  7.617729901147081 6.976274005165448  7.168975408767309 8.225911002102313  C 6.720220916387537 9.475515064862364  6.035927838023509 10.568540994153627  5.11644717970115 11.50490539593553  C 4.196300761793622 12.4410724867117  3.0229119937827194 13.146986867133437  1.5960857433436775 13.622569201121232  C 1.5960857433436775 13.622569201121232  0 11.117554309740713  0 11.117554309740713  C 0.915019700028991 10.812208088779249  1.7039193305309697 10.420574942082897  2.367063916342869 9.942492992291522  C 3.0301419500073954 9.464476822637225  3.575379019136469 8.918881192437903  4.002161837953425 8.305886475122636  C 4.428944656770382 7.6928917578073674  4.74274432670527 7.044459689807958  4.943818290870211 6.360699894884373  C 5.1448922550351535 5.676683566247823  5.245675020210186 4.985678134803265  5.245675020210186 4.287841625788367  Z M 5.920585704227188 4.282782936229853  C 5.920585704227188 4.282782936229853  5.920585704227188 2.9060967063770144  5.920585704227188 2.9060967063770144  L 8.480272250762772 2.9060967063770144  C 8.480272250762772 2.9060967063770144  8.480272250762772 4.282782936229853  8.480272250762772 4.282782936229853  C 8.480272250762772 5.138489127743887  8.653711284003077 5.987803560081861  9.000597178397268 6.830676243868256  C 9.346817253678427 7.673325269307469  9.892916226691055 8.43542659040423  10.638621013377838 9.116963034337772  C 11.383659980951593 9.798302167265584  12.337795080556539 10.337234831223892  13.501627245938405 10.733816573230554  C 13.501627245938405 10.733816573230554  11.94260307194826 13.183185879467413  11.94260307194826 13.183185879467413  C 10.569707276746714 12.727139922732142  9.438550489417054 12.050825663020584  8.549031214958145 11.153928696566222  C 7.6588461213862065 10.257031730111862  6.998477885196315 9.213090839132029  6.567700211229041 8.022358969866854  C 6.136256718148736 6.831462664961731  5.920585704227188 5.584964177453109  5.920585704227188 4.282782936229853  Z M 0.8694839231230606 4  L 0.8694839231230606 1.5139935178696566  L 12.797945080449578 1.5139935178696566  L 12.797945080449578 4  L 0.8694839231230606 4  Z M 27.142235376952566 5.9507051506657325  C 27.142235376952566 5.9507051506657325  27.142235376952566 3.4888095655220743  27.142235376952566 3.4888095655220743  L 29.66486035413461 3.4888095655220743  C 29.66486035413461 3.4888095655220743  29.66486035413461 5.9507051506657325  29.66486035413461 5.9507051506657325  C 29.66486035413461 7.179371781005004  29.533034301124335 8.400296997840202  29.26937439695413 9.613196391030133  C 29.006380311896955 10.825832663671738  28.6169607198636 11.965562313857744  28.100959657861107 13.032629642606867  C 27.586290174556822 14.09949960153923  26.942681560864038 15.04841521810466  26.170344485878946 15.879467414155572  C 25.39867317047903 16.710453800663885  24.502910673601217 17.364924144143398  23.482893055519337 17.84247985283812  C 23.482893055519337 17.84247985283812  21.684431637416225 15.356013489838823  21.684431637416225 15.356013489838823  C 22.597919983249177 14.925818685893839  23.395244413179835 14.365018992968682  24.07636581740423 13.673878766643307  C 24.756821462043458 12.982475478580637  25.325119624099454 12.210000009409764  25.781198007666834 11.356517168885773  C 26.23727639123421 10.503034328361784  26.578095875835377 9.61460703239628  26.803804730487393 8.691069551506658  C 27.029513585139405 7.767532070617035  27.142235376952566 6.854028751236957  27.142235376952566 5.9507051506657325  Z M 27.81324484314288 5.9507051506657325  C 27.81324484314288 5.9507051506657325  27.81324484314288 3.4888095655220743  27.81324484314288 3.4888095655220743  L 30.330017993584896 3.4888095655220743  C 30.330017993584896 3.4888095655220743  30.330017993584896 5.9507051506657325  30.330017993584896 5.9507051506657325  C 30.330017993584896 6.782263827307205  30.440263813357124 7.6292718674807425  30.66064620439669 8.491371758934827  C 30.88102859543626 9.353471650388913  31.212694540547805 10.189711743831301  31.655456750202106 11.000240889978977  C 32.098218959856396 11.810572666309895  32.65922058377642 12.542481992490321  33.338344590189585 13.196193938332165  C 34.017468596602754 13.849576954083085  34.80904388535171 14.38527686393754  35.71321094218583 14.803170988086894  C 35.71321094218583 14.803170988086894  33.95766292017628 17.289637351086196  33.95766292017628 17.289637351086196  C 32.93431626605712 16.824645442735424  32.04072022611266 16.193221671646427  31.277038621013375 15.395519446391031  C 30.513357015914096 14.597751470404067  29.874259542500575 13.690013455108236  29.35959005919629 12.672017344078487  C 28.844920575892 11.654021233048736  28.458286500771074 10.571611870897343  28.199953060213318 9.424820427470218  C 27.94228543876859 8.277765863494766  27.81324484314288 7.119644475133585  27.81324484314288 5.9507051506657325  Z M 22.542211907059222 5  L 22.542211907059222 2.1256131744919413  L 34.7276657887188 2.1256131744919413  L 34.7276657887188 5  L 22.542211907059222 5  Z M 37 21.962662053258583  L 37 0.036856166783461805  L 40 0.036856166783461805  L 40 21.962662053258583  L 37 21.962662053258583  Z M 38.85808016272459 10.986510161177295  L 38.85808016272459 8.392125087596357  L 42.77002633843586 8.392125087596357  L 42.77002633843586 10.986510161177295  L 38.85808016272459 10.986510161177295  Z M 55.83325423110022 4.32156622284513  C 55.83325423110022 4.32156622284513  55.83325423110022 2.4712902943237562  55.83325423110022 2.4712902943237562  L 58.46803922079955 2.4712902943237562  C 58.46803922079955 2.4712902943237562  58.46803922079955 4.32156622284513  58.46803922079955 4.32156622284513  C 58.46803922079955 5.700702402586693  58.23759687442955 7.007217310990331  57.77752366547579 8.241087070777855  C 57.318116245871124 9.474904253504539  56.62466956848961 10.556199734747285  55.69719925939447 11.484670637701472  C 54.769063131186314 12.412878420107335  53.58992528152157 13.106887360260716  52.15976999504524 13.566682725998596  C 52.15976999504524 13.566682725998596  50.531986856859724 11.098764891380519  50.531986856859724 11.098764891380519  C 51.773718489325276 10.69869686091957  52.78269047489047 10.145062351026315  53.55835658591285 9.438069376313944  C 54.33402269693522 8.731076401601575  54.9069633772573 7.931710059440628  55.27781834302553 7.0400096355991595  C 55.64800748968073 6.148059206069059  55.83325423110022 5.241893680094002  55.83325423110022 4.32156622284513  Z M 56.49548595718048 4.32156622284513  C 56.49548595718048 4.32156622284513  56.49548595718048 2.4712902943237562  56.49548595718048 2.4712902943237562  L 59.092234073069605 2.4712902943237562  C 59.092234073069605 2.4712902943237562  59.092234073069605 4.32156622284513  59.092234073069605 4.32156622284513  C 59.092234073069605 4.975488653363426  59.19345767181116 5.6230009168532655  59.396529063551256 6.264103013314646  C 59.59960045529136 6.9049551628984265  59.914816263249435 7.511311996876984  60.341599082066395 8.083063244569026  C 60.767716111534256 8.654880301803663  61.30806597312912 9.169346900945287  61.96255508905521 9.626445339873861  C 62.61637838586827 10.083543778802435  63.39459853971984 10.454926758774862  64.2974339583279 10.740802382620883  C 64.2974339583279 10.740802382620883  62.67452734242575 13.172104940434478  62.67452734242575 13.172104940434478  C 61.281657331000474 12.731517051263713  60.12984878134566 12.068812252009925  59.21902365243696 11.183558163980377  C 58.30819852352826 10.297975145859908  57.62607190209759 9.261810955002161  57.173322554567505 8.075354765241766  C 56.721239026150435 6.888845880798468  56.49548595718048 5.637554529587038  56.49548595718048 4.32156622284513  Z M 51.382939995306025 4  L 51.382939995306025 2  L 63.46257334341669 2  L 63.46257334341669 4  L 51.382939995306025 4  Z M 66 15.866941135248775  L 66 0.04215574632095305  L 69 0.04215574632095305  L 69 15.866941135248775  L 66 15.866941135248775  Z M 54.11135421284585 21.5791652067274  L 54.11135421284585 19  L 69.45581922966595 19  L 69.45581922966595 21.5791652067274  L 54.11135421284585 21.5791652067274  Z M 54.11135421284585 20.314011037140855  L 54.11135421284585 14.443522249474421  L 57.29035908936814 14.443522249474421  L 57.29035908936814 20.314011037140855  L 54.11135421284585 20.314011037140855  Z M 77.5971731817352 17.97978714085494  L 77.5971731817352 12.812456201822005  L 80.72497457428221 12.812456201822005  L 80.72497457428221 17.97978714085494  L 77.5971731817352 17.97978714085494  Z M 84.61497639971836 17.969428871758936  L 84.61497639971836 12.802097932725998  L 87.737901269982 12.802097932725998  L 87.737901269982 17.969428871758936  L 84.61497639971836 17.969428871758936  Z M 72.51047278796256 19.540754204625088  L 72.51047278796256 17  L 92.60662111768848 17  L 92.60662111768848 19.540754204625088  L 72.51047278796256 19.540754204625088  Z M 74.78390747646492 4  L 74.78390747646492 1.4385949544498948  L 90.34976660494954 1.4385949544498948  L 90.34976660494954 9  L 77.97851722429394 9  L 77.97851722429394 12.424864225648214  L 74.81853078467677 12.424864225648214  L 74.81853078467677 6.250131394533987  L 87.18978016533237 6.250131394533987  L 87.18978016533237 4  L 74.78390747646492 4  Z M 74.81853078467677 13.632445690259287  L 74.81853078467677 11  L 90.85302370459227 11  L 90.85302370459227 13.632445690259287  L 74.81853078467677 13.632445690259287  Z M 109 22  L 109 0  L 113 0  L 113 22  L 109 22  Z M 95 16.882292396636302  L 95 1.7466932375613173  L 98.81297102772055 1.7466932375613173  L 98.81297102772055 7.086260511562719  L 103.39982788744882 7.086260511562719  L 103.39982788744882 1.7466932375613173  L 106 1.7466932375613173  L 106 16.882292396636302  L 95 16.882292396636302  Z M 103.39982788744882 9.527680448493342  L 98.81297102772055 9.527680448493342  L 98.81297102772055 14.361860546601262  L 103.39982788744882 14.361860546601262  L 103.39982788744882 9.527680448493342  Z M 132.65018384749786 5.4058120182200415  L 132.65018384749786 2.8904388577435176  L 139.2154457975852 2.8904388577435176  L 139.2154457975852 5.4058120182200415  L 132.65018384749786 5.4058120182200415  Z M 132.65018384749786 10.278293622985283  L 132.65018384749786 7.757861772950246  L 139.2154457975852 7.757861772950246  L 139.2154457975852 10.278293622985283  L 132.65018384749786 10.278293622985283  Z M 125.97958901608992 1.887613875262789  C 126.86577925451154 1.4216549959563674  127.85781348045887 1.188792046250876  128.95573056562444 1.188792046250876  C 130.0656322757688 1.188792046250876  131.0606300366936 1.4216549959563674  131.94016220304064 1.887613875262789  C 132.82036018850073 2.353329365121458  133.51955591777215 2.988652572150655  134.03755443711373 3.7932944989488435  C 134.55488713734226 4.597693006893764  134.8134091323963 5.522707997290672  134.8134091323963 6.568587946741415  C 134.8134091323963 7.605350892695833  134.55488713734226 8.526198533505264  134.03755443711373 9.330873335669235  C 133.51955591777215 10.135219207742287  132.82036018850073 10.769394923359176  131.94016220304064 11.233663279607569  C 131.0606300366936 11.697602735170552  130.0656322757688 11.92959442887176  128.95573056562444 11.92959442887176  C 127.85781348045887 11.92959442887176  126.86577925451154 11.697602735170552  125.97958901608992 11.233663279607569  C 125.09339877766828 10.769394923359176  124.39172704659201 10.135219207742287  123.87439434636347 9.330873335669235  C 123.35639582702188 8.526198533505264  123.09756434662424 7.605350892695833  123.09756434662424 6.568587946741415  C 123.09756434662424 5.522707997290672  123.35639582702188 4.597693006893764  123.87439434636347 3.7932944989488435  C 124.39172704659201 2.988652572150655  125.09339877766828 2.353329365121458  125.97958901608992 1.887613875262789  Z M 130.4201502073174 4.168360196215837  C 129.99536481607558 3.957452918402198  129.50701944533887 3.852071653819201  128.95573056562444 3.852071653819201  C 128.41642619183307 3.852071653819201  127.9343176145064 3.957452918402198  127.50886640415156 4.168360196215837  C 127.08408101290976 4.3792674740294775  126.74728497171364 4.687835966028696  126.49893863926775 5.094100385423967  C 126.25059230682184 5.500364804819236  126.12637233681905 5.991870342807997  126.12637233681905 6.568587946741415  C 126.12637233681905 7.132728576660156  126.25059230682184 7.618253503383751  126.49893863926775 8.024767869656621  C 126.74728497171364 8.431019115381167  127.08408101290976 8.741651565776309  127.50886640415156 8.957012088297127  C 127.9343176145064 9.172109490269618  128.41642619183307 9.279804660126139  128.95573056562444 9.279804660126139  C 129.50701944533887 9.279804660126139  129.99536481607558 9.172109490269618  130.4201502073174 8.957012088297127  C 130.8456014176722 8.741651565776309  131.17943383459908 8.431019115381167  131.4217878843195 8.024767869656621  C 131.66347612980886 7.618253503383751  131.78411348997315 7.132728576660156  131.78411348997315 6.568587946741415  C 131.78411348997315 5.991870342807997  131.66347612980886 5.500364804819236  131.4217878843195 5.094100385423967  C 131.17943383459908 4.687835966028696  130.8456014176722 4.3792674740294775  130.4201502073174 4.168360196215837  Z M 138 12.872919586545201  L 138 0.036856166783461805  L 141 0.036856166783461805  L 141 12.872919586545201  L 138 12.872919586545201  Z M 129.84472057788093 13.829011913104415  C 130.97992293809753 13.484198256815407  132.3270603139842 13.311821128241064  133.88638224632956 13.311821128241064  C 135.4450384190898 13.311821128241064  136.79093773454613 13.484198256815407  137.92414269695152 13.829011913104415  C 139.0573476593569 14.173891320124989  139.93418404704033 14.667430425909908  140.55405116436748 15.309762613875264  C 141.17391828169465 15.951831681292292  141.48351631157587 16.726360419954382  141.48351631157587 17.633387351086196  C 141.48351631157587 18.54061165203477  141.17391828169465 19.319334969791235  140.55405116436748 19.969297477224945  C 139.93418404704033 20.619588914749585  139.0573476593569 21.113848896735018  137.92414269695152 21.452216187806588  C 136.79093773454613 21.790912379563565  135.4450384190898 21.960253153468816  133.88638224632956 21.960253153468816  C 132.3270603139842 21.960253153468816  130.97992293809753 21.790912379563565  129.84472057788093 21.452216187806588  C 128.7095182176643 21.113848896735018  127.83224096665045 20.619588914749585  127.21237384932328 19.969297477224945  C 126.59317255110916 19.319334969791235  126.28339635434324 18.54061165203477  126.28339635434324 17.633387351086196  C 126.28339635434324 16.726360419954382  126.59317255110916 15.951831681292292  127.21237384932328 15.309762613875264  C 127.83224096665045 14.667430425909908  128.7095182176643 14.173891320124989  129.84472057788093 13.829011913104415  Z M 136.34122356377293 15.956793097407148  C 135.68207377358348 15.817670459921075  134.86378815551188 15.748182375613174  133.88638224632956 15.748182375613174  C 132.9209609025982 15.748182375613174  132.10471036347315 15.817670459921075  131.43690510339792 15.956793097407148  C 130.76909984332266 16.095718394481977  130.26647082212978 16.30348400177451  129.92957206561138 16.5802163629993  C 129.592673309093 16.856751383812846  129.4243643570553 17.20786284865745  129.4243643570553 17.633387351086196  C 129.4243643570553 18.055688685608978  129.592673309093 18.40911565832768  129.92957206561138 18.69354414856342  C 130.26647082212978 18.977906858662084  130.76909984332266 19.189648385639366  131.43690510339792 19.328771023125437  C 132.10471036347315 19.467893660611512  132.9209609025982 19.53738174491941  133.88638224632956 19.53738174491941  C 134.86378815551188 19.53738174491941  135.68207377358348 19.467893660611512  136.34122356377293 19.328771023125437  C 137.00170493266057 19.189648385639366  137.50013232868173 18.977906858662084  137.83636529585104 18.69354414856342  C 138.17392987148247 18.40911565832768  138.34303596109214 18.055688685608978  138.34303596109214 17.633387351086196  C 138.34303596109214 17.20786284865745  138.17392987148247 16.856751383812846  137.83636529585104 16.5802163629993  C 137.50013232868173 16.30348400177451  137.00170493266057 16.095718394481977  136.34122356377293 15.956793097407148  Z M 153.24861397240983 1.6956245620182202  C 153.24861397240983 1.6956245620182202  153.24861397240983 0.6544980728801681  153.24861397240983 0.6544980728801681  L 156.03798471849169 0.6544980728801681  C 156.03798471849169 0.6544980728801681  156.03798471849169 1.6956245620182202  156.03798471849169 1.6956245620182202  C 156.03798471849169 2.534057130659888  155.90708715127624 3.343577373587509  155.6454246746812 4.123795550105116  C 155.38376219808615 4.903770307769455  154.99681857809372 5.632044877050303  154.48481237124156 6.3086676594253674  C 153.9728061643894 6.985303556660129  153.34706382587325 7.59484965398584  152.60735129214802 8.137263489838823  C 151.8683045775358 8.679677325691806  151.01786903383137 9.136648438740378  150.0564424857225 9.508168360196215  C 149.0956817567266 9.879359380966646  148.0337767647445 10.1524843030153  146.8706104780035 10.32791695865452  C 146.8706104780035 10.32791695865452  145.63246147025842 7.804594428871759  145.63246147025842 7.804594428871759  C 146.6531448479255 7.673102154962316  147.56801168041025 7.457996269498744  148.37696821133335 7.159491065171689  C 149.18592474225647 6.8610516409817155  149.89582155679142 6.508048842817065  150.50703314470493 6.100297827610372  C 151.11891055173146 5.692310009791288  151.62680100234985 5.243607139453741  152.03094635825488 4.7542046250875964  C 152.4350917141599 4.2648086975568145  152.739118829272 3.7601852416992188  152.94285602524317 3.240451997196917  C 153.14659322121435 2.720468805817014  153.24861397240983 2.205490903580364  153.24861397240983 1.6956245620182202  Z M 153.84988916994809 1.6956245620182202  C 153.84988916994809 1.6956245620182202  153.84988916994809 0.6544980728801681  153.84988916994809 0.6544980728801681  L 156.6334080892899 0.6544980728801681  C 156.6334080892899 0.6544980728801681  156.6334080892899 1.6956245620182202  156.6334080892899 1.6956245620182202  C 156.6334080892899 2.202037519897375  156.7358696740519 2.71449031174893  156.94160429759825 3.2327435178696566  C 157.14667311691352 3.7507533051371156  157.4522477033897 4.254450428460809  157.8583904868699 4.743846355991591  C 158.26453327035009 5.233248870357735  158.77260185808925 5.682871545204852  159.38181604819152 6.092589348283111  C 159.9916960574068 6.502063761913617  160.70097384172664 6.856899582262046  161.50993037264973 7.15708216538192  C 162.3195527226859 7.457297623867577  163.23287200939671 7.673102154962316  164.2495605914413 7.804594428871759  C 164.2495605914413 7.804594428871759  163.01092393146791 10.32791695865452  163.01092393146791 10.32791695865452  C 161.85175244034937 10.1524843030153  160.79232345017212 9.878419845356504  159.8328943594023 9.50551857042747  C 158.8734652686325 9.13228839481303  158.0232078322849 8.673503990681255  157.28149790074843 8.129314120532586  C 156.54045378832498 7.585190059926514  155.91360476736537 6.974945287564123  155.4015985605132 6.298309390329363  C 154.88959235366104 5.621686607954297  154.50313638589697 4.894090953204042  154.2414739093019 4.115846180798879  C 153.98047722205595 3.3373514615161146  153.84988916994809 2.530603746976899  153.84988916994809 1.6956245620182202  Z M 153.26275588703157 21.962662053258583  L 153.26275588703157 13.920068325157674  L 156.44127311132553 13.920068325157674  L 156.44127311132553 21.962662053258583  L 153.26275588703157 21.962662053258583  Z M 144.89123008318774 14.49459092501752  L 144.89123008318774 12  L 164.96640936709522 12  L 164.96640936709522 14.49459092501752  L 144.89123008318774 14.49459092501752  Z M 166.92384541163585 12.62648913805186  L 166.92384541163585 10.142913454800281  L 187 10.142913454800281  L 187 12.62648913805186  L 166.92384541163585 12.62648913805186  Z M 171.2693144183378 14.901935879467413  C 172.63888117750207 14.193035368996227  174.52203550111687 13.838647512263488  176.91827783138186 13.838647512263488  C 179.31718343809897 13.838647512263488  181.2004690801727 14.193035368996227  182.5687042011109 14.901935879467413  C 183.9369393220491 15.610639078932872  184.62123243017706 16.610671654897047  184.62123243017706 17.90197967764541  C 184.62123243017706 19.193287700393775  183.9369393220491 20.19238071134229  182.5687042011109 20.899373686054663  C 181.2004690801727 21.60656397177276  179.31718343809897 21.960253153468816  176.91827783138186 21.960253153468816  C 174.52203550111687 21.960253153468816  172.63888117750207 21.60656397177276  171.2693144183378 20.899373686054663  C 169.8990818995884 20.19238071134229  169.21386027590165 19.193287700393775  169.21386027590165 17.90197967764541  C 169.21386027590165 16.610671654897047  169.8990818995884 15.610639078932872  171.2693144183378 14.901935879467413  Z M 179.40091532584037 16.43447792571829  C 178.73710492091544 16.319035740607088  177.90966570382633 16.261518920812893  176.91827783138186 16.261518920812893  C 175.92955317586163 16.261518920812893  175.1019358514157 16.319035740607088  174.4361279891517 16.43447792571829  C 173.7709859460007 16.549920110829493  173.27101109349738 16.72802067003471  172.9361097347902 16.968771899089  C 172.6025400143091 17.209260007594963  172.43577854851748 17.5203955716492  172.43577854851748 17.90197967764541  C 172.43577854851748 18.271526224394318  172.6025400143091 18.578663652897216  172.9361097347902 18.82362473721093  C 173.27101109349738 19.06852004138757  173.7709859460007 19.248739664923836  174.4361279891517 19.36418185003504  C 175.1019358514157 19.47962403514624  175.92955317586163 19.53738174491941  176.91827783138186 19.53738174491941  C 177.90966570382633 19.53738174491941  178.73710492091544 19.47962403514624  179.40091532584037 19.36418185003504  C 180.0653915498783 19.248739664923836  180.56474743169434 19.06852004138757  180.8989829712885 18.82362473721093  C 181.23321851088264 18.578663652897216  181.4002894620179 18.271526224394318  181.4002894620179 17.90197967764541  C 181.4002894620179 17.5203955716492  181.23321851088264 17.209260007594963  180.8989829712885 16.968771899089  C 180.56474743169434 16.72802067003471  180.0653915498783 16.549920110829493  179.40091532584037 16.43447792571829  Z M 174.77699689675856 2.811186054660126  C 174.77699689675856 2.811186054660126  174.77699689675856 2.2807463209530483  174.77699689675856 2.2807463209530483  L 177.60294155996556 2.2807463209530483  C 177.60294155996556 2.2807463209530483  177.60294155996556 2.811186054660126  177.60294155996556 2.811186054660126  C 177.60294155996556 3.4636284467968474  177.48354218582176 4.091360737747801  177.24451717213861 4.693982130343378  C 177.00482635422443 5.296603522938954  176.6487947036083 5.855285724728109  176.17607113985449 6.370335494043447  C 175.70334757610067 6.885135316481186  175.11656410865285 7.343950096509969  174.41613424778993 7.74678083391731  C 173.71570438692694 8.149348450776323  172.90347733585284 8.486697605296124  171.979336062795 8.758759635599159  C 171.0558606088502 9.030821665902193  170.0234514333392 9.21604384386882  168.88225676063317 9.314251927119832  C 168.88225676063317 9.314251927119832  167.7796750723655 6.859101261387527  167.7796750723655 6.859101261387527  C 168.75375194551054 6.780166434840716  169.62063765613235 6.641181194623535  170.38032440608131 6.442120707778557  C 171.13934533691724 6.243053648800974  171.79507114413283 6.0071953798225906  172.34702584296033 5.734626839523476  C 172.89831472267477 5.462051712388999  173.35247499954033 5.165910652657865  173.7100138211594 4.846224597056763  C 174.06688682366547 4.526295152007907  174.33412153952452 4.191270591666336  174.51122643231542 3.840990714786265  C 174.68833132510633 3.4904740352938037  174.77699689675856 3.147152414836496  174.77699689675856 2.811186054660126  Z M 176.33065689623697 2.811186054660126  C 176.33065689623697 2.811186054660126  176.33065689623697 2.2807463209530483  176.33065689623697 2.2807463209530483  L 179.152212689389 2.2807463209530483  C 179.152212689389 2.2807463209530483  179.152212689389 2.811186054660126  179.152212689389 2.811186054660126  C 179.152212689389 3.1594859699979057  179.2372956512027 3.5080986717988663  179.40774245703707 3.856648563419762  C 179.57885506710247 4.2051918682052944  179.84281667334864 4.540223015382228  180.1996896758547 4.861882445690259  C 180.55722849747377 5.183541875998291  181.01497139905982 5.48060682760558  181.57291835084885 5.753175367904696  C 182.13086530263786 6.025750495039172  182.78937659700196 6.258618428979458  183.5483975278379 6.451515416958654  C 184.30741845867382 6.644412404937851  185.17430416929565 6.780166434840716  186.1490468615537 6.859101261387527  C 186.1490468615537 6.859101261387527  185.04646517328604 9.314251927119832  185.04646517328604 9.314251927119832  C 183.90527050058003 9.21604384386882  182.8725518397254 9.034033159818696  181.94841056666755 8.768154344779257  C 181.02493511272272 8.502209749602738  180.21301754699223 8.164860624488451  179.5125876861293 7.756175543097407  C 178.81215782526633 7.347161561020956  178.22648101049808 6.885135316481186  177.7550890552064 6.370335494043447  C 177.28436291902776 5.855285724728109  176.9295692544321 5.298667437226603  176.69054424074895 4.700486159775753  C 176.45085342283474 4.102304882324903  176.33065689623697 3.4725086182752687  176.33065689623697 2.811186054660126  Z M 168.75351657235245 3.533133321653819  L 168.75351657235245 1  L 185.19958797298355 1  L 185.19958797298355 3.533133321653819  L 168.75351657235245 3.533133321653819  Z " fill-rule="nonzero" fill="#26262c" stroke="none" transform="matrix(1 0 0 1 121 120 )" />
  </g>
</svg>