<?xml version="1.0" encoding="utf-8"?>
<svg version="1.1" xmlns:xlink="http://www.w3.org/1999/xlink" width="63px" height="14px" xmlns="http://www.w3.org/2000/svg">
  <g transform="matrix(1 0 0 1 -326 -470 )">
    <path d="M 2.573015538212754 5.695985672771507  C 2.8190951998756963 5.65931811844762  3.123744704707769 5.640873149962831  3.4879420656682836 5.640873149962831  C 4.184351336056695 5.640873149962831  4.796844823580205 5.761028830405868  5.324685368768895 6.001115090896803  C 5.852525913957586 6.241214272427609  6.264462100682543 6.591748874316531  6.560992758208536 7.052983712914781  C 6.857516717015629 7.514218551513029  7.005905927019616 8.078370064587627  7.005905927019616 8.745387578563223  C 7.005905927019616 9.473894458916925  6.845211951413972 10.10188049988754  6.524080714335935 10.629384334662433  C 6.202942748499899 11.156823549801057  5.732932213530681 11.561989275532783  5.114040638402587 11.844698249645198  C 4.495149063274494 12.12734263299518  3.7394322795823665 12.268567952963439  2.8461646628699993 12.268567952963439  C 2.2826361069823085 12.268567952963439  1.7552901855846386 12.221764286796878  1.2643605427828166 12.128303034398865  C 0.7734308999809948 12.034906372763285  0.351894397704752 11.893681060013485  0 11.704433331080626  C 0 11.704433331080626  0 10.19652632290329  0 10.19652632290329  C 0.36665741290790005 10.39520414434527  0.8088618961557644 10.557901099766317  1.3268649370737537 10.684496857471109  C 1.8448612492337455 10.811028024413469  2.3402202171438864 10.874197472460635  2.8126977430921745 10.874197472460635  C 3.312235209640635 10.874197472460635  3.7421423469441004 10.803284582370212  4.102650636293328 10.661316483070893  C 4.4631589256425555 10.519412974534006  4.74098066206447 10.301783134850762  4.935386346059199 10.008481448942353  C 5.129792030053928 9.715179763033944  5.226745412360262 9.343819202325905  5.226745412360262 8.894404271136041  C 5.226745412360262 8.295980991910838  5.028158165739196 7.835217345378814  4.630738943964002 7.51233358113131  C 4.233312993430809 7.1894498168838075  3.613442053583984 7.028147597485976  2.77184841453983 7.028147597485976  C 2.479013557383123 7.028147597485976  2.166240909653928 7.052921897649458  1.8328060184208677 7.102655943772387  C 1.4993644284689083 7.152325399132881  1.223020570619963 7.20438416770981  1.0040075933347394 7.258768669324864  C 1.0040075933347394 7.258768669324864  0.24017436546438867 6.829458674055552  0.24017436546438867 6.829458674055552  L 0.6496519721577727 1.752247077110225  L 6.260282640793082 1.752247077110225  L 6.260282640793082 3.221125903899439  L 2.173873303803698 3.221125903899439  C 2.173873303803698 3.221125903899439  1.9381283836040215 5.8040819084949655  1.9381283836040215 5.8040819084949655  C 2.1153049325503805 5.768602804710006  2.3269358765498116 5.73264677018469  2.573015538212754 5.695985672771507  Z M 15.377557477325459 4.054909779009259  C 15.64083269032498 4.85203023958087  15.772270266469802 5.811158422764116  15.772270266469802 6.932351152260593  C 15.772270266469802 7.772016857962129  15.705592615363182 8.52188096120888  15.571468747802854 9.181793606812192  C 15.437344880242527 9.841770872051766  15.224209172677233 10.401160397239252  14.932644308514378 10.860005406501319  C 14.641012246888842 11.318915006525815  14.261336759953343 11.668482753709577  13.793784714898404 11.908562546462122  C 13.326232669843465 12.148642339214662  12.761718981730185 12.268567952963439  12.099767981438514 12.268567952963439  C 11.265525630663143 12.268567952963439  10.578231364155439 12.057587930058405  10.038107291007522 11.635365276745286  C 9.497983217859607 11.213142623432168  9.096860475666888 10.603345624126195  8.83477466076074 9.806244509022099  C 8.572695544573492 9.009078832029402  8.4415383533713 8.051108778252138  8.4415383533713 6.932351152260593  C 8.4415383533713 5.818256881145672  8.561129755807192 4.862674289050356  8.79983125922801 4.065553828478746  C 9.03852604891038 3.268433367907135  9.425886318182917 2.6565177222961682  9.962314560922449 2.229573562208556  C 10.498810031163762 1.8026294021209428  11.211432544338397 1.58903831857809  12.099767981438514 1.58903831857809  C 12.936429440870421 1.58903831857809  13.626200731415995 1.800741544356014  14.168811080644026 2.2241332702574845  C 14.711421429872061 2.6475314638973484  15.114215066863256 3.2577893184376476  15.377557477325459 4.054909779009259  Z M 10.372284328200802 4.748428735554504  C 10.251734122808898 5.333856595918408  10.191661393517542 6.061889079210524  10.191661393517542 6.932351152260593  C 10.191661393517542 7.809866409523467  10.252426035887144 8.541476880343144  10.374252970540674 9.12691761843617  C 10.496012715241296 9.712358356529196  10.696338069143069 10.150920711434065  10.975673205371582 10.442995201730081  C 11.254941144137412 10.73513428278853  11.629729690342556 10.881293505440292  12.099767981438514 10.881293505440292  C 12.567320026493455 10.881293505440292  12.941349454647895 10.736529004374832  13.221894115165577 10.446779752652565  C 13.502438775683258 10.157030500930299  13.704974271254912 9.719217855076197  13.8292202770161 9.133777116983174  C 13.95346628277729 8.548336378890147  14.015256978134008 7.814581448559569  14.015256978134008 6.932351152260593  C 14.015256978134008 6.061889079210524  13.953733232733253 5.333856595918408  13.830696758771005 4.748428735554504  C 13.707660284808759 4.163007342928993  13.506575820366056 3.722576533474374  13.227307881600225 3.426910860309522  C 12.947972745371713 3.1312387194062774  12.572225351151909 2.983408799080895  12.099767981438514 2.983408799080895  C 11.624824365684104 2.983408799080895  11.248317823374498 3.1312387194062774  10.970259438936933 3.426910860309522  C 10.69220105449937 3.722576533474374  10.492901731055388 4.163007342928993  10.372284328200802 4.748428735554504  Z M 17.728608591717638 10.437791444211665  C 17.728608591717638 10.437791444211665  19.419672361667722 10.437791444211665  19.419672361667722 10.437791444211665  C 19.419672361667722 10.437791444211665  19.522533923926037 10.6010002027438  19.522533923926037 10.6010002027438  C 19.433969170066746 10.94397134762193  19.32125494881269 11.311792727232769  19.183435280883078 11.704433331080626  C 19.045615612953466 12.09707393492848  18.895029703776043 12.490399281704853  18.73261618505238 12.8842670811651  C 18.57020266632872 13.278070289862915  18.40676466416082 13.649923986749585  18.241932081839273 14  C 18.241932081839273 14  16.97215777262181 14  16.97215777262181 14  C 17.073019459387893 13.619179303560529  17.171430571542075 13.218947538259972  17.26745412360262 12.799114685409204  C 17.36341047820047 12.379217241796004  17.452047678854854 11.965085324978775  17.53322083948534 11.557072379536393  C 17.61446119757851 11.14905943409401  17.67942088261977 10.776047550053695  17.728608591717638 10.437791444211665  Z M 28.13435983969627 4.054909779009259  C 28.397702250158467 4.85203023958087  28.529564789425578 5.811158422764116  28.529564789425578 6.932351152260593  C 28.529564789425578 7.772016857962129  28.46239497773399 8.52188096120888  28.328271110173663 9.181793606812192  C 28.194147242613333 9.841770872051766  27.981078732510724 10.401160397239252  27.689446670885186 10.860005406501319  C 27.39788180672233 11.318915006525815  27.01863128290912 11.668482753709577  26.55107923785418 11.908562546462122  C 26.083527192799238 12.148642339214662  25.518521344100993 12.268567952963439  24.856570343809324 12.268567952963439  C 24.02232799303395 12.268567952963439  23.335033726526248 12.057587930058405  22.79490965337833 11.635365276745286  C 22.25471841280683 11.213142623432168  21.8536426818028 10.603345624126195  21.59157702313155 9.806244509022099  C 21.32951136446029 9.009078832029402  21.19834071574211 8.051108778252138  21.19834071574211 6.932351152260593  C 21.19834071574211 5.818256881145672  21.317952274412892 4.862674289050356  21.55663362159882 4.065553828478746  C 21.795382166247425 3.268433367907135  22.18318084113869 2.6565177222961682  22.719609083878225 2.229573562208556  C 23.256037326617758 1.8026294021209428  23.96816773928562 1.58903831857809  24.856570343809324 1.58903831857809  C 25.69323180324123 1.58903831857809  26.3830030937868 1.800741544356014  26.925613443014836 2.2241332702574845  C 27.468223792242867 2.6475314638973484  27.871084626696746 3.2577893184376476  28.13435983969627 4.054909779009259  Z M 23.129086690571608 4.748428735554504  C 23.008469287717023 5.333856595918408  22.94797159530338 6.061889079210524  22.94797159530338 6.932351152260593  C 22.94797159530338 7.809866409523467  23.009228398257953 8.541476880343144  23.13105533291148 9.12691761843617  C 23.25288226756501 9.712358356529196  23.45320762897656 10.150920711434065  23.732475567742387 10.442995201730081  C 24.0118107039709 10.73513428278853  24.386532052713363 10.881293505440292  24.856570343809324 10.881293505440292  C 25.32412238886426 10.881293505440292  25.698219014481385 10.736529004374832  25.978696477536385 10.446779752652565  C 26.259241138054065 10.157030500930299  26.461709436163037 9.719217855076197  26.586022639386908 9.133777116983174  C 26.7102686451481 8.548336378890147  26.772551501089783 7.814581448559569  26.772551501089783 6.932351152260593  C 26.772551501089783 6.061889079210524  26.711027755689027 5.333856595918408  26.58799128172678 4.748428735554504  C 26.464954807764535 4.163007342928993  26.263445380199546 3.722576533474374  25.984110243971035 3.426910860309522  C 25.7048423052052 3.1312387194062774  25.329027713522716 2.983408799080895  24.856570343809324 2.983408799080895  C 24.38162672805491 2.983408799080895  24.005187383207986 3.1312387194062774  23.72706180130774 3.426910860309522  C 23.449003416870177 3.722576533474374  23.249636895963512 4.163007342928993  23.129086690571608 4.748428735554504  Z M 36.77916051465935 4.054909779009259  C 37.04243572765888 4.85203023958087  37.1738733038037 5.811158422764116  37.1738733038037 6.932351152260593  C 37.1738733038037 7.772016857962129  37.10719565269708 8.52188096120888  36.973071785136746 9.181793606812192  C 36.83894791757642 9.841770872051766  36.625812210011134 10.401160397239252  36.334247345848276 10.860005406501319  C 36.04261528422274 11.318915006525815  35.66293979728724 11.668482753709577  35.1953877522323 11.908562546462122  C 34.72783570717736 12.148642339214662  34.16332201906408 12.268567952963439  33.50137101877241 12.268567952963439  C 32.66719583542062 12.268567952963439  31.979901568912915 12.057587930058405  31.43971032834142 11.635365276745286  C 30.8995862551935 11.213142623432168  30.49844335676589 10.603345624126195  30.236377698094635 9.806244509022099  C 29.97431203942338 9.009078832029402  29.843633551290164 8.051108778252138  29.843633551290164 6.932351152260593  C 29.843633551290164 5.818256881145672  29.962752949375982 4.862674289050356  30.201434296561906 4.065553828478746  C 30.44011564374783 3.268433367907135  30.8279142886 2.6565177222961682  31.364409758841315 2.229573562208556  C 31.900838001580848 1.8026294021209428  32.61303558167229 1.58903831857809  33.50137101877241 1.58903831857809  C 34.33803247820432 1.58903831857809  35.02780376874989 1.800741544356014  35.57041411797792 2.2241332702574845  C 36.11302446720596 2.6475314638973484  36.51581810419715 3.2577893184376476  36.77916051465935 4.054909779009259  Z M 31.773887365534698 4.748428735554504  C 31.653337160142794 5.333856595918408  31.592772270266472 6.061889079210524  31.592772270266472 6.932351152260593  C 31.592772270266472 7.809866409523467  31.65402907322104 8.541476880343144  31.775856007874573 9.12691761843617  C 31.8976829425281 9.712358356529196  32.09800830393964 10.150920711434065  32.37727624270548 10.442995201730081  C 32.65661137893399 10.73513428278853  33.031399925139134 10.881293505440292  33.50137101877241 10.881293505440292  C 33.96892306382735 10.881293505440292  34.34295249198179 10.736529004374832  34.623497152499475 10.446779752652565  C 34.90404181301715 10.157030500930299  35.106577308588804 9.719217855076197  35.23082331434999 9.133777116983174  C 35.35506932011119 8.548336378890147  35.416860015467904 7.814581448559569  35.416860015467904 6.932351152260593  C 35.416860015467904 6.061889079210524  35.35533627006715 5.333856595918408  35.232299796104904 4.748428735554504  C 35.10926332214265 4.163007342928993  34.90817885769995 3.722576533474374  34.628910918934125 3.426910860309522  C 34.34957578270561 3.1312387194062774  33.973828388485806 2.983408799080895  33.50137101877241 2.983408799080895  C 33.026427403018 2.983408799080895  32.6499208607084 3.1312387194062774  32.37186247627083 3.426910860309522  C 32.09380409183326 3.722576533474374  31.894504768389282 4.163007342928993  31.773887365534698 4.748428735554504  Z M 45.42396118962244 4.054909779009259  C 45.68730360008465 4.85203023958087  45.81916613935176 5.811158422764116  45.81916613935176 6.932351152260593  C 45.81916613935176 7.772016857962129  45.751996327660166 8.52188096120888  45.61787246009983 9.181793606812192  C 45.48374859253951 9.841770872051766  45.2706800824369 10.401160397239252  44.97904802081136 10.860005406501319  C 44.687483156648504 11.318915006525815  44.3082326328353 11.668482753709577  43.840680587780355 11.908562546462122  C 43.37312854272542 12.148642339214662  42.80812269402717 12.268567952963439  42.1461716937355 12.268567952963439  C 41.31192934296012 12.268567952963439  40.62463507645242 12.057587930058405  40.084511003304506 11.635365276745286  C 39.544386930156584 11.213142623432168  39.14331122919165 10.603345624126195  38.88117837305773 9.806244509022099  C 38.61911271438647 9.009078832029402  38.487942065668285 8.051108778252138  38.487942065668285 6.932351152260593  C 38.487942065668285 5.818256881145672  38.60755362433907 4.862674289050356  38.846234971525 4.065553828478746  C 39.0849835161736 3.268433367907135  39.4722900304799 2.6565177222961682  40.008718273219436 2.229573562208556  C 40.54521374346074 1.8026294021209428  41.25783625663538 1.58903831857809  42.1461716937355 1.58903831857809  C 42.982833153167405 1.58903831857809  43.67260444371298 1.800741544356014  44.21521479294101 2.2241332702574845  C 44.75782514216905 2.6475314638973484  45.16068597662292 3.2577893184376476  45.42396118962244 4.054909779009259  Z M 40.418688040497784 4.748428735554504  C 40.29813783510588 5.333856595918408  40.23806510581452 6.061889079210524  40.23806510581452 6.932351152260593  C 40.23806510581452 7.809866409523467  40.298896938137034 8.541476880343144  40.42065668283766 9.12691761843617  C 40.542483617491186 9.712358356529196  40.74274178144005 10.150920711434065  41.022076917668564 10.442995201730081  C 41.3013448564344 10.73513428278853  41.676133402639536 10.881293505440292  42.1461716937355 10.881293505440292  C 42.61372373879044 10.881293505440292  42.987753166944884 10.736529004374832  43.268297827462554 10.446779752652565  C 43.548775290517554 10.157030500930299  43.75131078608921 9.719217855076197  43.875623989313084 9.133777116983174  C 43.99986999507428 8.548336378890147  44.06166069043099 7.814581448559569  44.06166069043099 6.932351152260593  C 44.06166069043099 6.061889079210524  44.000136945030235 5.333856595918408  43.87710047106799 4.748428735554504  C 43.75406399710574 4.163007342928993  43.55304673012572 3.722576533474374  43.27371159389721 3.426910860309522  C 42.99444365513138 3.1312387194062774  42.61862906344889 2.983408799080895  42.1461716937355 2.983408799080895  C 41.671228077981084 2.983408799080895  41.294721535671485 3.1312387194062774  41.01666315123392 3.426910860309522  C 40.73860476679636 3.722576533474374  40.53930544335237 4.163007342928993  40.418688040497784 4.748428735554504  Z M 54.77353582225972 9.7591741569237  L 54.77353582225972 6.82803946745962  L 56.56893763622302 6.82803946745962  L 56.56893763622302 9.7591741569237  L 54.77353582225972 9.7591741569237  Z M 60 10.135973508143543  L 60 0  L 62 0  L 62 10.135973508143543  L 60 10.135973508143543  Z M 52.80833860648246 13  L 52.80833860648246 11.731398256403324  L 63 11.731398256403324  L 63 13  L 52.80833860648246 13  Z M 52.80833860648246 12.105595728863959  L 52.80833860648246 9.167128471987565  L 54.60423258103072 9.167128471987565  L 54.60423258103072 12.105595728863959  L 52.80833860648246 12.105595728863959  Z M 53.952119805948115 7.330675136852065  C 52.97273333890859 7.35166677913368  52.06509736066527 7.365308571661002  51.22850312873514 7.371832128134081  C 51.22850312873514 7.371832128134081  51.00555438374464 5.986686490504832  51.00555438374464 5.986686490504832  C 51.85565509540005 5.980175851913548  52.78237220921329 5.969523551746535  53.78527736764396 5.954990876529026  C 54.78838408842357 5.940458201311517  55.81237362980516 5.905014669185411  56.85734373901427 5.848550381834155  C 57.902448183070554 5.791931078096753  58.91061643181928 5.705570045384054  59.88167053364269 5.589308643643982  C 59.88167053364269 5.589308643643982  60.00274203754482 6.824018382104481  60.00274203754482 6.824018382104481  C 59.01475447551666 6.982198488473038  58.00417631007545 7.100923124048979  56.97103283414189 7.180239237683313  C 55.93788935820831 7.259426169792785  54.93157344041121 7.3096189056126315  53.952119805948115 7.330675136852065  Z M 58.20734022358152 8.99540447387984  L 58.20734022358152 7.799722916807461  L 61.296632215425724 7.799722916807461  L 61.296632215425724 8.99540447387984  L 58.20734022358152 8.99540447387984  Z M 53.689306053575194 0.7772521457052105  C 54.21202625424049 0.5784903591594528  54.81284805015699 0.4792187605595729  55.491598115728046 0.4792187605595729  C 56.173842389280345 0.4792187605595729  56.773883288799944 0.5784903591594528  57.29142937495606 0.7772521457052105  C 57.80910985603754 0.975865376384756  58.21292959858427 1.2536896632605004  58.50362089573226 1.610799486382375  C 58.79437939034294 1.9677607536380368  58.94016733459889 2.382083122251871  58.94016733459889 2.853787929985808  C 58.94016733459889 3.325344181853532  58.79437939034294 3.7405140263136634  58.50362089573226 4.099141717915794  C 58.21292959858427 4.4577629417795315  57.80910985603754 4.734040803955062  57.29142937495606 4.927958369939853  C 56.773883288799944 5.121727380058431  56.173842389280345 5.218659187673177  55.491598115728046 5.218659187673177  C 54.81284805015699 5.218659187673177  54.21202625424049 5.121727380058431  53.689306053575194 4.927958369939853  C 53.16672024783526 4.734040803955062  52.75993126058749 4.4577629417795315  52.4692399634395 4.099141717915794  C 52.17848146882882 3.7405140263136634  52.03318568515785 3.325344181853532  52.03318568515785 2.853787929985808  C 52.03318568515785 2.382083122251871  52.17848146882882 1.9677607536380368  52.4692399634395 1.610799486382375  C 52.75993126058749 1.2536896632605004  53.16672024783526 0.975865376384756  53.689306053575194 0.7772521457052105  Z M 56.40111087674893 1.8780833952828275  C 56.14327856810932 1.7911909108162893  55.840145466993654 1.747752922889775  55.491598115728046 1.747752922889775  C 54.97237212304399 1.747752922889775  54.55036475790341 1.8427048807104849  54.22526893060536 2.0325403798067176  C 53.900374695695355 2.222369411164557  53.73753779090206 2.4960709767961307  53.73753779090206 2.853787929985808  C 53.73753779090206 3.20484571127567  53.900374695695355 3.4762074570482775  54.22526893060536 3.667702912752585  C 54.55036475790341 3.8592048217583694  54.97237212304399 3.9548557139960807  55.491598115728046 3.9548557139960807  C 56.007531522858 3.9548557139960807  56.42648246983457 3.8592048217583694  56.74808408915138 3.667702912752585  C 57.069685708468185 3.4762074570482775  57.230401462420026 3.20484571127567  57.230401462420026 2.853787929985808  C 57.230401462420026 2.615213070236735  57.15678290218473 2.4147174245096132  57.00942135976939 2.2522808677434614  C 56.86199261989136 2.089695755111097  56.65907758031391 1.9649758797493657  56.40111087674893 1.8780833952828275  Z " fill-rule="nonzero" fill="#ff3c26" stroke="none" transform="matrix(1 0 0 1 326 470 )" />
  </g>
</svg>