<?xml version="1.0" encoding="utf-8"?>
<svg version="1.1" xmlns:xlink="http://www.w3.org/1999/xlink" width="50px" height="13px" xmlns="http://www.w3.org/2000/svg">
  <g transform="matrix(1 0 0 1 -81 -461 )">
    <path d="M 5.122797104696588 8.129441428956385  L 5.122797104696588 6.140181699195442  L 6.272345565957778 6.140181699195442  L 6.272345565957778 8.129441428956385  L 5.122797104696588 8.129441428956385  Z M 0 6.439446433383377  L 0 5.471590252916041  L 11.414139446073513 5.471590252916041  L 11.414139446073513 6.439446433383377  L 0 6.439446433383377  Z M 1.4841839667215462 4.388882472956847  L 1.4841839667215462 0.4398891326943065  L 9.93385225379692 0.4398891326943065  L 9.93385225379692 4.388882472956847  L 1.4841839667215462 4.388882472956847  Z M 8.79501992225935 3.4432959926088462  L 8.79501992225935 1.3819725141471302  L 2.6176582333973055 1.3819725141471302  L 2.6176582333973055 3.4432959926088462  L 8.79501992225935 3.4432959926088462  Z M 1.3809194439302868 8.615871732686609  L 1.3809194439302868 7.701813142395196  L 9.949439351576732 7.701813142395196  L 9.949439351576732 10.619143858028256  L 2.5509259710274823 10.619143858028256  L 2.5509259710274823 12.196289024906648  L 1.4120936394899122 12.196289024906648  L 1.4120936394899122 9.749624667975517  L 8.811094116844782 9.749624667975517  L 8.811094116844782 8.615871732686609  L 1.3809194439302868 8.615871732686609  Z M 1.4120936394899122 12.844112099164645  L 1.4120936394899122 11.90978557955114  L 10.330349053570908 11.90978557955114  L 10.330349053570908 12.844112099164645  L 1.4120936394899122 12.844112099164645  Z M 22 13  L 22 0  L 24 0  L 24 13  L 22 13  Z M 13.58415571510682 9.868229587712207  L 13.58415571510682 8.872348616083459  C 13.58415571510682 8.872348616083459  14.631900943993609 8.872348616083459  14.631900943993609 8.872348616083459  C 15.341841267880257 8.872348616083459  16.030367824398102 8.860231230292625  16.69767849662442 8.836316741733071  C 17.364989168850737 8.812402253173518  18.04037523064795 8.766673644815118  18.723514111194458 8.698694999422566  C 19.406719468087243 8.630689024250644  20.12055632857861 8.536319334264595  20.865278765501856 8.415694652962236  C 20.865278765501856 8.415694652962236  20.986565870101025 9.391307695268893  20.986565870101025 9.391307695268893  C 19.84627201030636 9.58262360374532  18.77384871625637 9.709988137758526  17.769291468986548 9.773395696192786  C 16.764800698063 9.836598273645617  15.718924417759489 9.868229587712207  14.631900943993609 9.868229587712207  C 14.631900943993609 9.868229587712207  13.58415571510682 9.868229587712207  13.58415571510682 9.868229587712207  Z M 13.553468616352815 2.1919390229818685  L 13.553468616352815 1.2130731031296917  L 19.392785122115168 1.2130731031296917  L 19.392785122115168 5.848924048196482  L 14.750265467759064 5.848924048196482  L 14.750265467759064 9.251684182161142  L 13.58415571510682 9.251684182161142  L 13.58415571510682 4.881318089078801  L 18.22131730460112 4.881318089078801  L 18.22131730460112 2.1919390229818685  L 13.553468616352815 2.1919390229818685  Z M 34 12.983235169573085  L 34 0.005504869692420217  L 36 0.005504869692420217  L 36 12.983235169573085  L 34 12.983235169573085  Z M 29.202914787284822 4.205720445009047  C 29.202914787284822 4.205720445009047  29.202914787284822 3.095738537937406  29.202914787284822 3.095738537937406  L 30.141550331712924 3.095738537937406  C 30.141550331712924 3.095738537937406  30.141550331712924 4.205720445009047  30.141550331712924 4.205720445009047  C 30.141550331712924 4.8959472411893215  30.052743106115106 5.56425773825313  29.87510837903925 6.210994341147939  C 29.697606664116005 6.857587445519714  29.448191545367514 7.457716534510998  29.12644058880262 8.011336951919006  C 28.80475613831403 8.564964211317042  28.42739640996906 9.053687436955949  27.994914709349334 9.47738383955037  C 27.562499514805914 9.901011913878293  27.09330761953736 10.237043043645354  26.58720494111 10.485275435962581  C 26.58720494111 10.485275435962581  25.936930705608436 9.563459983831851  25.936930705608436 9.563459983831851  C 26.40845081895814 9.340303637696252  26.84166509723822 9.042856475105232  27.23650498300032 8.671170650960464  C 27.63147788091503 8.299300367986284  27.97597299394508 7.876099795856822  28.270124404524154 7.401547522808638  C 28.56427581510323 6.926995249760455  28.793129214267378 6.417750544088581  28.956930900447155 5.8736959618123725  C 29.120932104855846 5.329491039023102  29.202914787284822 4.773539213512494  29.202914787284822 4.205720445009047  Z M 29.421621253007824 4.205720445009047  C 29.421621253007824 4.205720445009047  29.421621253007824 3.095738537937406  29.421621253007824 3.095738537937406  L 30.3495406677123 3.095738537937406  C 30.3495406677123 3.095738537937406  30.3495406677123 4.205720445009047  30.3495406677123 4.205720445009047  C 30.3495406677123 4.744841830295489  30.432693420052804 5.2752978352093916  30.599421328994925 5.797378450167456  C 30.766082731860745 6.319459065125519  30.999508624448513 6.807792114065147  31.29937943866964 7.262174231050545  C 31.59931675896707 7.716549506045913  31.950548369683183 8.120968693365615  32.35296982922386 8.475497555529891  C 32.755391288764535 8.829876107725704  33.192426738024196 9.114024274375002  33.66374733314499 9.327751472456404  C 33.66374733314499 9.327751472456404  33.018831162505236 10.252319359433345  33.018831162505236 10.252319359433345  C 32.51272848407787 10.013789412964021  32.04055475602653 9.691123056931222  31.60235365176475 9.284713400315663  C 31.164152547502976 8.878344734551087  30.78111676189917 8.409471924119472  30.4537793841148 7.877968972552642  C 30.126508512406737 7.346322583551976  29.87252091509964 6.7691090296674705  29.691959980126448 6.146437232936829  C 29.51153204244086 5.523608314792292  29.421621253007824 4.87681563201492  29.421621253007824 4.205720445009047  Z M 26.280821050375554 3.2193478846672057  L 26.280821050375554 2.260499672787466  L 33.23266666017204 2.260499672787466  L 33.23266666017204 3.2193478846672057  L 26.280821050375554 3.2193478846672057  Z M 29.19414704478368 2.7937213689032605  L 29.19414704478368 0.2449667013126997  L 30.35782131340783 0.2449667013126997  L 30.35782131340783 2.7937213689032605  L 29.19414704478368 2.7937213689032605  Z M 41.74468333836667 10.799053008430535  L 41.74468333836667 7.612233899218539  L 42.88643825073795 7.612233899218539  L 42.88643825073795 10.799053008430535  L 41.74468333836667 10.799053008430535  Z M 45.77979327611569 10.781537513954653  L 45.77979327611569 7.594718404742657  L 46.91278044598584 7.594718404742657  L 46.91278044598584 10.781537513954653  L 45.77979327611569 10.781537513954653  Z M 38.55176377753315 11.386822958771221  L 38.55176377753315 10.396947299534204  L 50 10.396947299534204  L 50 11.386822958771221  L 38.55176377753315 11.386822958771221  Z M 39.94729612563201 1.9399661238788157  L 39.94729612563201 0.9666050737190591  L 48.581087005231424 0.9666050737190591  L 48.581087005231424 4.891577164414675  L 41.12266071759102 4.891577164414675  L 41.12266071759102 7.494880086230126  L 39.97847032119164 7.494880086230126  L 39.97847032119164 3.938233822227355  L 47.43689660883204 3.938233822227355  L 47.43689660883204 1.9399661238788157  L 39.94729612563201 1.9399661238788157  Z M 39.97847032119164 7.946779843707895  L 39.97847032119164 6.976671671093659  L 48.874319282214145 6.976671671093659  L 48.874319282214145 7.946779843707895  L 39.97847032119164 7.946779843707895  Z " fill-rule="nonzero" fill="#26262c" stroke="none" transform="matrix(1 0 0 1 81 461 )" />
  </g>
</svg>