<?xml version="1.0" encoding="utf-8"?>
<svg version="1.1" xmlns:xlink="http://www.w3.org/1999/xlink" width="23px" height="13px" xmlns="http://www.w3.org/2000/svg">
  <g transform="matrix(1 0 0 1 -81 -281 )">
    <path d="M 1.4647010749984286 12.815837086653579  L 1.4647010749984286 7.43457674096316  L 2.5997359652982963 7.43457674096316  L 2.5997359652982963 9.138584132116874  L 8.714947297835334 9.138584132116874  L 8.714947297835334 7.43457674096316  L 9.855283837304333 7.43457674096316  L 9.855283837304333 12.815837086653579  L 1.4647010749984286 12.815837086653579  Z M 8.714947297835334 10.080917734919352  L 2.5997359652982963 10.080917734919352  L 2.5997359652982963 11.845728914039343  L 8.714947297835334 11.845728914039343  L 8.714947297835334 10.080917734919352  Z M 1.4434944783219128 1.5686376409901066  L 1.4434944783219128 0.5950263694806944  L 9.481758554933887 0.5950263694806944  L 9.481758554933887 1.5686376409901066  L 1.4434944783219128 1.5686376409901066  Z M 0 6.282057204450091  L 0 5.294433537359972  L 11.32769640200331 5.294433537359972  L 11.32769640200331 6.282057204450091  L 0 6.282057204450091  Z M 8.733744053980427 1.5481194903183586  C 8.733744053980427 1.5481194903183586  8.733744053980427 0.5950263694806944  8.733744053980427 0.5950263694806944  L 9.860585486473461 0.5950263694806944  C 9.860585486473461 0.5950263694806944  9.860585486473461 1.5481194903183586  9.860585486473461 1.5481194903183586  C 9.860585486473461 2.075283642779249  9.843670848289191 2.6599672447246  9.809978835313593 3.301920930053509  C 9.776418430312942 3.9437311168593854  9.662911992228837 4.69999661753817  9.469709352276775 5.5709281287292605  C 9.469709352276775 5.5709281287292605  8.329854780914063 5.5826885321630675  8.329854780914063 5.5826885321630675  C 8.534546920997954 4.707862401415194  8.652820964702999 3.9493794850748376  8.685065275245698 3.3074257997459293  C 8.7173095857884 2.66547211441702  8.733744053980427 2.079021140922138  8.733744053980427 1.5481194903183586  Z M 18.341296284654554 3.8814335758555645  L 18.341296284654554 2.8970627863109675  L 22.12137214224346 2.8970627863109675  L 22.12137214224346 3.8814335758555645  L 18.341296284654554 3.8814335758555645  Z M 18.341296284654554 7.987565923701736  L 18.341296284654554 7.003195134157139  L 22.12137214224346 7.003195134157139  L 22.12137214224346 7.987565923701736  L 18.341296284654554 7.987565923701736  Z M 14.433498878900275 1.5593794510528545  C 14.904463203826506 1.1887048669255496  15.441639427037495 1.0033876121184124  16.04520022631546 1.0033876121184124  C 16.65428865614637 1.0033876121184124  17.19310455344648 1.1887048669255496  17.661239286687202 1.5593794510528545  C 18.129505631579992 1.9300540351801594  18.49535154761244 2.4542456484191546  18.759162632803168 3.131770412287793  C 19.023039523819932 3.809151738722596  19.154858448062697 4.607227724134571  19.154858448062697 5.526138507140932  C 19.154858448062697 6.448943970793274  19.023039523819932 7.2499425855534465  18.759162632803168 7.929264349232012  C 18.49535154761244 8.608449456377576  18.129505631579992 9.133596535197452  17.661239286687202 9.504407745313163  C 17.19310455344648 9.875082329440467  16.65428865614637 10.060399584247603  16.04520022631546 10.060399584247603  C 15.441639427037495 10.060399584247603  14.904463203826506 9.875082329440467  14.433498878900275 9.504407745313163  C 13.962666165626114 9.133596535197452  13.595246322496582 8.608449456377576  13.331237819827749 7.929264349232012  C 13.067360928810986 7.2499425855534465  12.93554200456822 6.448943970793274  12.93554200456822 5.526138507140932  C 12.93554200456822 4.607227724134571  13.067360928810986 3.809151738722596  13.331237819827749 3.131770412287793  C 13.595246322496582 2.4542456484191546  13.962666165626114 1.9300540351801594  14.433498878900275 1.5593794510528545  Z M 17.10697596446009 2.4964584055125685  C 16.801247274093 2.2127779224808544  16.44726702806294 2.071082111098279  16.04520022631546 2.071082111098279  C 15.646818491991946 2.071082111098279  15.296226172282235 2.2127779224808544  14.993063850296515 2.4964584055125685  C 14.690033139962866 2.7799954205658493  14.452225210750541 3.180566446662853  14.279751052995536 3.698021326558109  C 14.107474312718638 4.215469364463336  14.021416148027074 4.824849557045054  14.021416148027074 5.526138507140932  C 14.021416148027074 6.227584639739902  14.107474312718638 6.839531372742293  14.279751052995536 7.361762328213419  C 14.452225210750541 7.883842943171483  14.690033139962866 8.287599557063851  14.993063850296515 8.573083881895524  C 15.296226172282235 8.858547711301705  15.646818491991946 9.001212611156024  16.04520022631546 9.001212611156024  C 16.44726702806294 9.001212611156024  16.801247274093 8.858547711301705  17.10697596446009 8.573083881895524  C 17.412902072305286 8.287599557063851  17.651168847862937 7.883842943171483  17.821734666079923 7.361762328213419  C 17.992300484296912 6.839531372742293  18.077659730516963 6.227584639739902  18.077659730516963 5.526138507140932  C 18.077659730516963 4.824849557045054  17.992300484296912 4.215469364463336  17.821734666079923 3.698021326558109  C 17.651168847862937 3.180566446662853  17.412902072305286 2.7799954205658493  17.10697596446009 2.4964584055125685  Z M 21.862555269168713 13  L 21.862555269168713 0  L 23 0  L 23 13  L 21.862555269168713 13  Z " fill-rule="nonzero" fill="#91929f" stroke="none" transform="matrix(1 0 0 1 81 281 )" />
  </g>
</svg>