<?xml version="1.0" encoding="utf-8"?>
<svg version="1.1" xmlns:xlink="http://www.w3.org/1999/xlink" width="22px" height="24px" xmlns="http://www.w3.org/2000/svg">
  <g transform="matrix(1 0 0 1 -381 -31 )">
    <path d="M 20.930555555555557 22.950000000000003  C 20.21759261687597 23.649999976158142  19.35185182756848 24  18.333333333333336 24  C 17.31481483909819 24  16.449074049790703 23.649999976158142  15.73611111111111 22.950000000000003  C 15.023148172431524 22.25000002384186  14.666666666666666 21.39999997615815  14.666666666666666 20.400000000000002  C 14.666666666666666 20.259999999403956  14.676851384548678 20.114798963069916  14.697221755981447 19.96439895629883  C 14.717592127414216 19.813998949527743  14.748148612264131 19.67919908165932  14.788889355129665 19.559999084472658  C 14.788889355129665 19.559999084472658  6.17222245534261 14.639999771118166  6.17222245534261 14.639999771118166  C 5.8259261614746505 14.939999771118165  5.438888765043683 15.175200122594834  5.011110994550917 15.345600128173832  C 4.583333224058152 15.516000133752824  4.135185175471835 15.600799999991434  3.6666666666666665 15.600000000000001  C 2.6481481724315215 15.600000000000001  1.7824073831240337 15.249999976158144  1.0694444444444444 14.55  C 0.3564815057648552 13.850000023841858  0 12.999999976158144  0 12  C 0 11.000000023841856  0.3564815057648552 10.149999976158146  1.0694444444444444 9.450000000000001  C 1.7824073831240337 8.750000023841858  2.6481481724315215 8.4  3.6666666666666665 8.4  C 4.135185175471835 8.4  4.583333224058152 8.48520035147667  5.011110994550917 8.655600357055665  C 5.438888765043683 8.826000362634659  5.8259261614746505 9.06080022454262  6.17222245534261 9.360000228881837  C 6.17222245534261 9.360000228881837  14.788889355129665 4.439999771118164  14.788889355129665 4.439999771118164  C 14.748148612264131 4.319999769330026  14.717592127414216 4.185199901461601  14.697221755981447 4.035599899291992  C 14.676851384548678 3.8859998971223835  14.666666666666666 3.7407999962568286  14.666666666666666 3.6000000000000005  C 14.666666666666666 2.600000023841858  15.023148172431524 1.7499999761581422  15.73611111111111 1.05  C 16.449074049790703 0.350000023841858  17.31481483909819 0  18.333333333333336 0  C 19.35185182756848 0  20.21759261687597 0.350000023841858  20.930555555555557 1.05  C 21.643518494235146 1.7499999761581422  22 2.600000023841858  22 3.6000000000000005  C 22 4.599999976158142  21.643518494235146 5.4500000238418576  20.930555555555557 6.15  C 20.21759261687597 6.849999976158143  19.35185182756848 7.200000000000001  18.333333333333336 7.200000000000001  C 17.864814824528167 7.200000000000001  17.416666193140877 7.115200120210648  16.988888422648113 6.945600128173829  C 16.56111065215535 6.776000136137009  16.174073838525352 6.540799784660341  15.82777754465739 6.239999771118166  C 15.82777754465739 6.239999771118166  7.2111106448703355 11.160000228881836  7.2111106448703355 11.160000228881836  C 7.251851387735871 11.280000230669977  7.282407872585788 11.415199434757234  7.302778244018555 11.56559944152832  C 7.323148615451322 11.715999448299407  7.333333333333332 11.860800004005434  7.333333333333333 12  C 7.333333333333336 12.139199995994566  7.323148615451322 12.284399896860123  7.302778244018555 12.435599899291994  C 7.282407872585788 12.586799901723863  7.251851387735871 12.721599769592286  7.2111106448703355 12.839999771118165  C 7.2111106448703355 12.839999771118165  15.82777754465739 17.759999084472657  15.82777754465739 17.759999084472657  C 16.174073838525352 17.45999908447266  16.56111065215535 17.225199204683307  16.988888422648113 17.055599212646488  C 17.416666193140877 16.885999220609666  17.864814824528167 16.800799999991433  18.333333333333336 16.8  C 19.35185182756848 16.8  20.21759261687597 17.15000002384186  20.930555555555557 17.85  C 21.643518494235146 18.54999997615814  22 19.40000002384186  22 20.400000000000002  C 22 21.39999997615815  21.643518494235146 22.25000002384186  20.930555555555557 22.950000000000003  Z " fill-rule="nonzero" fill="#555555" stroke="none" transform="matrix(1 0 0 1 381 31 )" />
  </g>
</svg>