<?xml version="1.0" encoding="utf-8"?>
<svg version="1.1" xmlns:xlink="http://www.w3.org/1999/xlink" width="36px" height="13px" xmlns="http://www.w3.org/2000/svg">
  <g transform="matrix(1 0 0 1 -81 -527 )">
    <path d="M 9.276542470674686 2.97913538899796  L 9.276542470674686 1.9835046387188666  L 11.469286666848108 1.9835046387188666  L 11.469286666848108 2.97913538899796  L 9.276542470674686 2.97913538899796  Z M 9.276542470674686 5.75409015667706  L 9.276542470674686 4.758459406397967  L 11.469286666848108 4.758459406397967  L 11.469286666848108 5.75409015667706  L 9.276542470674686 5.75409015667706  Z M 8.457447677108565 7.715825537975901  L 8.457447677108565 0.011009739384840435  L 9.621914378248919 0.011009739384840435  L 9.621914378248919 7.715825537975901  L 8.457447677108565 7.715825537975901  Z M 1.3711999564542907 9.296473803749471  L 1.3711999564542907 8.33212072217731  L 9.621914378248919 8.33212072217731  L 9.621914378248919 12.988740039265503  L 8.457447677108565 12.988740039265503  L 8.457447677108565 9.296473803749471  L 1.3711999564542907 9.296473803749471  Z M 1.6092861225267399 1.1725372444855064  C 2.110410991336785 0.9099219964265264  2.6767843574690247 0.7784386187781499  3.308711863484201 0.7784386187781499  C 3.9504449282325034 0.7784386187781499  4.5207132486332435 0.9099219964265264  5.018915167514901 1.1725372444855064  C 5.5171104185927 1.4351456505544569  5.908750904854538 1.7955804940766409  6.194649320959094 2.2539939176964237  C 6.480688209451673 2.712400499326177  6.623792286966225 3.245529798031973  6.623792286966225 3.8534087846941523  C 6.623792286966225 4.461137430843269  6.480688209451673 4.995222195129947  6.194649320959094 5.455576086538092  C 5.908750904854538 5.915779667977772  5.5171104185927 6.2747032564075615  5.018915167514901 6.53252877545521  C 4.5207132486332435 6.790361136492889  3.9504449282325034 6.919370982022558  3.308711863484201 6.919370982022558  C 2.6767843574690247 6.919370982022558  2.110410991336785 6.790361136492889  1.6092861225267399 6.53252877545521  C 1.108167951421019 6.2747032564075615  0.7145514928810845 5.915779667977772  0.42865307677652886 5.455576086538092  C 0.14275466067197323 4.995222195129947  0 4.461137430843269  0 3.8534087846941523  C 0 3.245529798031973  0.14275466067197323 2.712400499326177  0.42865307677652886 2.2539939176964237  C 0.7145514928810845 1.7955804940766409  1.108167951421019 1.4351456505544569  1.6092861225267399 1.1725372444855064  Z M 4.434477315407016 2.0535666166223967  C 4.107758245272696 1.8801865726565958  3.7330227647262317 1.793586634330369  3.3101815311760063 1.793586634330369  C 2.8949385740778855 1.793586634330369  2.52332239981829 1.8801865726565958  2.194703753095828 2.0535666166223967  C 1.8662322764657127 2.226953487305928  1.6070742206237625 2.4685150157057505  1.4177394333614566 2.778207645224622  C 1.2285584839953572 3.087893432753463  1.134093568843045 3.4462612011271387  1.134093568843045 3.8534087846941523  C 1.134093568843045 4.260549526271137  1.2285584839953572 4.618917294644812  1.4177394333614566 4.928609924163683  C 1.6070742206237625 5.238159055159523  1.8662322764657127 5.480682860585657  2.194703753095828 5.6560033876121185  C 2.52332239981829 5.831180431387848  2.8949385740778855 5.918735804750356  3.3101815311760063 5.918735804750356  C 3.7330227647262317 5.918735804750356  4.107758245272696 5.831180431387848  4.434477315407016 5.6560033876121185  C 4.761343525733218 5.480682860585657  5.019811239622279 5.238159055159523  5.208992188988379 4.928609924163683  C 5.398326976250685 4.618917294644812  5.4926380535067905 4.260549526271137  5.4926380535067905 3.8534087846941523  C 5.4926380535067905 3.4462612011271387  5.398326976250685 3.087893432753463  5.208992188988379 2.778207645224622  C 5.019811239622279 2.4685150157057505  4.761343525733218 2.226953487305928  4.434477315407016 2.0535666166223967  Z M 22 12.983235169573085  L 22 0.005504869692420217  L 23 0.005504869692420217  L 23 12.983235169573085  L 22 12.983235169573085  Z M 17.720273249326404 5.647495861723833  L 17.720273249326404 4.666127728375101  L 20.160411506953707 4.666127728375101  L 20.160411506953707 5.647495861723833  L 17.720273249326404 5.647495861723833  Z M 19.807201371689846 12.318397043538514  L 19.807201371689846 0.3090233668244986  L 21 0.3090233668244986  L 21 12.318397043538514  L 19.807201371689846 12.318397043538514  Z M 15.288463108619329 3.6734996342918738  C 15.288463108619329 3.6734996342918738  15.288463108619329 2.022038726565808  15.288463108619329 2.022038726565808  L 16.18594017908173 2.022038726565808  C 16.18594017908173 2.022038726565808  16.18594017908173 3.6734996342918738  16.18594017908173 3.6734996342918738  C 16.18594017908173 4.38047342285363  16.120324025632858 5.072655806398449  15.98949459761043 5.749586172383262  C 15.858865831613548 6.426516538368076  15.668060374993836 7.059730925396445  15.417303976267588 7.649516880317204  C 15.16668135222504 8.23915933671493  14.859061473683123 8.770108026000162  14.493862776583295 9.242425992223891  C 14.128664079483464 9.714702967596637  13.714133919588 10.099678196679244  13.251013798546662 10.397447742233515  C 13.251013798546662 10.397447742233515  12.533815964945704 9.509662393655926  12.533815964945704 9.509662393655926  C 13.124354289475631 9.139602763927133  13.623224334264137 8.64966798679481  14.030427564434042 8.039862185779729  C 14.437764569287644 7.430042700784588  14.749005184926805 6.747048254600825  14.964646327191574 5.991049774800785  C 15.18048813148189 5.235051295000746  15.288463108619329 4.462527454424828  15.288463108619329 3.6734996342918738  Z M 15.525569496230574 3.6734996342918738  C 15.525569496230574 3.6734996342918738  15.525569496230574 2.022038726565808  15.525569496230574 2.022038726565808  L 16.417167895925754 2.022038726565808  C 16.417167895925754 2.022038726565808  16.417167895925754 3.6734996342918738  16.417167895925754 3.6734996342918738  C 16.417167895925754 4.4238201176160645  16.52150045812829 5.158218557070919  16.72971722504967 5.876698618008238  C 16.937933991971047 6.595178678945557  17.24168908581439 7.243839530447006  17.641401083199522 7.822419832929129  C 18.04111308058465 8.40084979489819  18.531854055853323 8.86285886754614  19.11302833192717 9.208395888670747  C 19.11302833192717 9.208395888670747  18.40660806139945 10.085171497863495  18.40660806139945 10.085171497863495  C 17.790519190889675 9.697756793889337  17.26785857143495 9.175067028006445  16.83945241270446 8.517534742272009  C 16.411179998757202 7.85988632597466  16.08550165918349 7.11412022553154  15.861633508423374 6.2798052123031916  C 15.637765357663257 5.445490199074843  15.525569496230574 4.576572187806762  15.525569496230574 3.6734996342918738  Z M 12.881637318672945 2.5039650460022327  L 12.881637318672945 1.5195942564576357  L 18.682415698228237 1.5195942564576357  L 18.682415698228237 2.5039650460022327  L 12.881637318672945 2.5039650460022327  Z M 34.83847263424325 13  L 34.83847263424325 0  L 36 0  L 36 13  L 34.83847263424325 13  Z M 26.331546144843916 9.871482465257728  L 26.331546144843916 1.1029757092812873  L 27.49111395367825 1.1029757092812873  L 27.49111395367825 4.5287562074142516  L 31.15989440165474 4.5287562074142516  L 31.15989440165474 1.1029757092812873  L 32.31897232125847 1.1029757092812873  L 32.31897232125847 9.871482465257728  L 26.331546144843916 9.871482465257728  Z M 31.15989440165474 5.476344458559495  L 27.49111395367825 5.476344458559495  L 27.49111395367825 8.892366324055896  L 31.15989440165474 8.892366324055896  L 31.15989440165474 5.476344458559495  Z " fill-rule="nonzero" fill="#26262c" stroke="none" transform="matrix(1 0 0 1 81 527 )" />
  </g>
</svg>