<?xml version="1.0" encoding="utf-8"?>
<svg version="1.1" xmlns:xlink="http://www.w3.org/1999/xlink" width="221px" height="12px" xmlns="http://www.w3.org/2000/svg">
  <g transform="matrix(1 0 0 1 -104 -157 )">
    <path d="M 7.588108768389187 9.141468157510939  L 6.555233947633969 9.141468157510939  L 5.498884699134313 6.434613514827419  L 2.059881034574327 6.434613514827419  L 1.0094003930107813 9.141468157510939  L 0 9.141468157510939  L 3.3568431674544583 0.5775401069518716  L 4.254740028679165 0.5775401069518716  L 7.588108768389187 9.141468157510939  Z M 2.3943916299325507 5.553719008264463  L 5.199585745392745 5.553719008264463  C 5.199585745392745 5.553719008264463  4.196053959318073 2.864365580943121  4.196053959318073 2.864365580943121  C 4.17255031845794 2.7943598886804204  4.134432541764181 2.6796276220489488  4.081616124063944 2.5201750121536217  C 4.028799706363706 2.360722402258295  3.974982233412329 2.1954352230949197  3.920229433320941 2.0243072435585807  C 3.8654098641248367 1.8531859105341517  3.820440161311962 1.715117028458465  3.7852514737904293 1.6101118133203696  C 3.746123256113039 1.7695644232156964  3.7040805548884808 1.9280470281071493  3.659076424664082 2.085561497326203  C 3.6140722944396835 2.2430693200333467  3.570033747330156 2.3889148584198012  3.527032768601625 2.5230918813806515  C 3.483965017037217 2.6572689043415014  3.4467783941812256 2.7710290815161454  3.4155292368155505 2.864365580943121  C 3.4155292368155505 2.864365580943121  2.3943916299325507 5.553719008264463  2.3943916299325507 5.553719008264463  Z M 14.944407562802061 9.12105007292173  C 14.688137746852075 9.21244841683647  14.385922249963123 9.258142926592123  14.037707791173192 9.258142926592123  C 13.223961000859347 9.258142926592123  12.579349565027346 8.98199186941693  12.104001805725211 8.429752066115702  C 11.6285872735872 7.877445857039225  11.390966062987944 7.056862333647302  11.390966062987944 5.967914438502674  C 11.390966062987944 4.867284467861266  11.633510106135844 4.035974898498268  12.118673323065483 3.4739912493923186  C 12.603836539995124 2.9120076002863695  13.249379153917433 2.6310160427807485  14.055313611981516 2.6310160427807485  C 14.395715768370973 2.6310160427807485  14.693075205547157 2.6757451021735044  14.947341866270117 2.7651920272241126  C 15.201675299828953 2.854645583950668  15.42073657235909 2.9742382681943518  15.604625843114345 3.1239669421487606  C 15.788515113869598 3.27370226261508  15.94304884309664 3.443849851972685  16.06824579106697 3.63441905687895  C 16.06824579106697 3.63441905687895  16.13866907430028 3.63441905687895  16.13866907430028 3.63441905687895  C 16.122977722781567 3.513855544235385  16.107344797494243 3.34856836507201  16.091720218811407 3.1385512882839084  C 16.07609564012857 2.9285408580077177  16.06824579106697 2.757414540099356  16.06824579106697 2.6251823043266893  C 16.06824579106697 2.6251823043266893  16.06824579106697 0.0641711229946524  16.06824579106697 0.0641711229946524  L 17.042434542461095 0.0641711229946524  L 17.042434542461095 9.141468157510939  L 16.256041213022467 9.141468157510939  L 16.109326039619734 8.231404958677686  C 16.109326039619734 8.231404958677686  16.06824579106697 8.231404958677686  16.06824579106697 8.231404958677686  C 15.946921600416623 8.421967531908004  15.793385799728807 8.5950247357062  15.607560146582397 8.750607681088965  C 15.421734493435993 8.906190626471727  15.200677378752047 9.029651729006993  14.944407562802061 9.12105007292173  Z M 12.84344627967497 7.811375789985416  C 13.138844290915388 8.23916253593864  13.587743709012537 8.453087019931939  14.190291571512029 8.453087019931939  C 14.878841413855543 8.453087019931939  15.36592534230515 8.25860417671556  15.651574698603218 7.869713174526009  C 15.93715728206541 7.480755796233137  16.07998300493919 6.903245954648001  16.07998300493919 6.137092853670394  C 16.07998300493919 6.137092853670394  16.07998300493919 5.962080700048615  16.07998300493919 5.962080700048615  C 16.07998300493919 5.14924606004269  15.944009213781264 4.525036460865338  15.6721148228796 4.089450656295576  C 15.400153659142061 3.653864851725814  14.906217798976597 3.436071949440933  14.190291571512029 3.436071949440933  C 13.591683216781437 3.436071949440933  13.143714976774593 3.6645577541531207  12.846380583143024 4.121536217792903  C 12.549046189511454 4.578508034920773  12.400366455998725 5.201745552059279  12.400366455998725 5.991249392318911  C 12.400366455998725 6.7768371314983895  12.54811501142115 7.3835226679288715  12.84344627967497 7.811375789985416  Z M 20.0789495813196 3.0393777345649  C 20.503617623820272 2.7671407607787435  21.003474267460565 2.6310160427807485  21.578378653495495 2.6310160427807485  C 22.126574382768137 2.6310160427807485  22.596540227619176 2.7515808016452965  22.98782241931772 2.992707826932426  C 23.379104611016263 3.2338348522195552  23.67823794603639 3.571220431330138  23.885230229964417 4.004861448711717  C 24.092890227326574 4.438502466093294  24.19675544815621 4.945063552522636  24.19675544815621 5.5245503159941665  C 24.19675544815621 5.5245503159941665  24.19675544815621 6.125425376762275  24.19675544815621 6.125425376762275  C 24.19675544815621 6.125425376762275  19.753730946943545 6.125425376762275  19.753730946943545 6.125425376762275  C 19.765415995470526 6.8760599999620196  19.953500138302918 7.44773734931408  20.317606263388036 7.840544482255712  C 20.681512069965525 8.233351615197344  21.19365231851993 8.429752066115702  21.854692230070636 8.429752066115702  C 22.26133190537735 8.429752066115702  22.621356619223853 8.392852760949179  22.93451590631473 8.318911035488576  C 23.247675193405602 8.245035686131294  23.57266431667971 8.136122640963023  23.909193708286864 7.992221682061254  C 23.909193708286864 7.992221682061254  23.909193708286864 8.843947496353913  23.909193708286864 8.843947496353913  C 23.584015489833824 8.987848455255682  23.262308891710088 9.09285989408071  22.9438078672969 9.158969372873116  C 22.624639114524943 9.225078851665522  22.247628071794917 9.258142926592123  21.81361198151787 9.258142926592123  C 21.19530596854567 9.258142926592123  20.656689141368872 9.132697847669544  20.1972998211978 8.8818667963053  C 19.737309545503834 8.630969368837734  19.380123438338696 8.262503720859794  19.125790004779862 7.7763733592610595  C 18.871456571221024 7.290242997662327  18.744330553932766 6.695195889322283  18.744330553932766 5.991249392318911  C 18.744330553932766 5.302867839332918  18.860679728033432 4.706855236122084  19.093512666631263 4.2032085561497325  C 19.326278832393214 3.6995618761773823  19.65468217583418 3.3116213548629676  20.0789495813196 3.0393777345649  Z M 22.4708959583621 3.666504618376276  C 22.23585956095425 3.5051005747808555  21.934863929452067 3.4244044725328147  21.567619540779294 3.4244044725328147  C 21.04680025632626 3.4244044725328147  20.63196014845148 3.593579979851574  20.323474870324144 3.9319397180359745  C 20.014321863838045 4.270292809708465  19.830296185611466 4.742824378266286  19.771336767751873 5.349538162372387  C 19.771336767751873 5.349538162372387  23.175128790695204 5.349538162372387  23.175128790695204 5.349538162372387  C 23.171122488169864 4.968399752559857  23.111162279505084 4.6329649840388765  22.995647228565865 4.343218279047155  C 22.880799898523097 4.053478220567347  22.705932355769953 3.8279020154597863  22.4708959583621 3.666504618376276  Z M 29.77437729034999 6.530870199319398  C 29.932626239867712 6.754487508236927  30.011566820684404 7.041284986763946  30.011566820684404 7.391346621293145  C 30.011566820684404 7.799685495364532  29.90943218639569 8.1428903033563  29.70444305769469 8.421001458434613  C 29.49878620063492 8.699046237409608  29.204929412112993 8.908143514096302  28.8236629667003 9.04812834224599  C 28.442396521287616 9.188179546498997  27.987865081635295 9.258142926592123  27.459700904632925 9.258142926592123  C 27.00965960238894 9.258142926592123  26.62036492489552 9.223161236545561  26.291848124347194 9.153135634419057  C 25.96266362528938 9.083110032292552  25.67506145457238 8.983917814930724  25.428673854161133 8.855614973262032  C 25.428673854161133 8.855614973262032  25.428673854161133 7.963052989790958  25.428673854161133 7.963052989790958  C 25.69108665161468 8.091422207562971  26.004234207939128 8.20807208189642  26.368140014516612 8.313077297034518  C 26.732045821094104 8.418082512172612  27.103422991613694 8.470588235294118  27.482686281799353 8.470588235294118  C 28.03822684392278 8.470588235294118  28.44122541469719 8.38118321442407  28.691619310637847 8.20223626640739  C 28.94201320657851 8.023355694494029  29.067210154548835 7.780268749335349  29.067210154548835 7.473018959649975  C 29.067210154548835 7.2979881423853765  29.017539567228336 7.143380587461451  28.91804972825606 7.009236752552261  C 28.81789216838733 6.87502654153975  28.65065251919244 6.744754240474599  28.41628383521872 6.618376276130287  C 28.18124743781087 6.4919983117859745  27.85625832946141 6.352930806131693  27.441606033246586 6.201263976665047  C 27.03096004748582 6.0456810312822835  26.675769782474493 5.891106664410017  26.37596482376476 5.737481769567331  C 26.076827593413796 5.583863521236555  25.84621350092902 5.396211808667811  25.683958255881883 5.1745260087506075  C 25.52170301083475 4.9528468553453155  25.440411068033352 4.665044106727789  25.440411068033352 4.31113271754983  C 25.440411068033352 3.770535051330062  25.66060382223679 3.355369616087977  26.100629348345635 3.065629557608167  C 26.540654874454486 2.7758894991283576  27.11883133839233 2.6310160427807485  27.835291748543913 2.6310160427807485  C 28.2225676297884 2.6310160427807485  28.585075415560738 2.6689338888076537  28.92294023403615 2.744773942634905  C 29.26147278087033 2.820607357368228  29.57790286234515 2.9227025500767194  29.871698355373805 3.051045211473019  C 29.871698355373805 3.051045211473019  29.543056366951685 3.826932425862907  29.543056366951685 3.826932425862907  C 29.276637259044087 3.714148061972077  28.992759696215835 3.618864082629436  28.691619310637847 3.5410792416140007  C 28.390478925059853 3.4632944005985657  28.08340730875958 3.4244044725328147  27.770248021668703 3.4244044725328147  C 27.320206719424718 3.4244044725328147  26.97481703217559 3.4982960005089327  26.73443889744543 3.6460865337870687  C 26.494060762715268 3.7938704205532936  26.374008621452724 3.9961100102166385  26.374008621452724 4.252795333009237  C 26.374008621452724 4.451143686668236  26.429755171184354 4.61448670175392  26.541263919131833 4.742829363150219  C 26.65277266707932 4.871172024546518  26.831853853374582 4.991736783411066  27.07824145378583 5.104521147301895  C 27.32462905419707 5.217305511192726  27.648818709321997 5.349535254523426  28.051452104023937 5.501215362177929  C 28.454753197235362 5.649005895456065  28.80293634413221 5.801656008114442  29.09606413865137 5.959163830821585  C 29.38985963168002 6.116665021852781  29.616128340832272 6.307252890401867  29.77437729034999 6.530870199319398  Z M 35.09671473082302 9.170636849781234  C 34.832966506501215 9.228980458008762  34.51919817473299 9.258142926592123  34.15529236815551 9.258142926592123  C 33.576381671666525 9.258142926592123  33.06561463916688 9.139509053617411  32.62358595783101 8.902284880894506  C 32.18155727649513 8.66499433206828  31.83758778806504 8.303339890038208  31.591200187653797 7.8172095284394745  C 31.344144873808425 7.331079166840741  31.220499849522902 6.718521288777649  31.220499849522902 5.979581915410792  C 31.220499849522902 5.205636372656629  31.350841619125653 4.572678035129664  31.611251261352166 4.080700048614487  C 31.871660903578686 3.5887220620993103  32.23075443933488 3.2241115393891286  32.68814063412821 2.986874088478366  C 33.14619452743102 2.7496366375676047  33.666273072190215 2.6310160427807485  34.24919007913325 2.6310160427807485  C 34.56969425877347 2.6310160427807485  34.88004837037484 2.663101396574578  35.17985332908457 2.727272727272727  C 35.47899055943554 2.791444057970877  35.7242396486684 2.872146799312846  35.91587444898826 2.9693728731161886  C 35.91587444898826 2.9693728731161886  35.6224441021828 3.7802625182304324  35.6224441021828 3.7802625182304324  C 35.42680300633353 3.702484316308926  35.20102336268393 3.6324744773942634  34.94462000106219 3.5702479338842976  C 34.688216639440455 3.508021390374332  34.44824409670577 3.476908118619349  34.22522660081081 3.476908118619349  C 33.77919160902088 3.476908118619349  33.40874558674231 3.57219209796199  33.113614636996125 3.762761302868255  C 32.81848368724993 3.9533305077745204  32.59735979973011 4.233349953569367  32.45046205321579 4.602819640252795  C 32.30356430670146 4.972289326936224  32.230389293111685 5.427323418794817  32.230389293111685 5.967914438502674  C 32.230389293111685 6.4851746584642385  32.30170199529476 6.926579691915183  32.444593446279676 7.292173067574137  C 32.58748489726459 7.657766443233091  32.80098090615079 7.936827100012914  33.084760652893586 8.129314535731648  C 33.36854039963638 8.321801971450384  33.72342029185046 8.418084589207584  34.149423761219396 8.418084589207584  C 34.489959463280606 8.418084589207584  34.7970310497316 8.38211090725837  35.070795050188536 8.310160427807487  C 35.34455905064547 8.238209948356602  35.59260158460143 8.153565773525804  35.8156190804964 8.056392805055907  C 35.8156190804964 8.056392805055907  35.8156190804964 8.919786096256685  35.8156190804964 8.919786096256685  C 35.600614190584906 9.02870743472888  35.36113068350359 9.112293241553708  35.09671473082302 9.170636849781234  Z M 39.42872475082763 2.806028196402528  C 39.67711549154126 2.6893542581353307  39.95349688567702 2.6310160427807485  40.258643581709066 2.6310160427807485  C 40.38751297595406 2.6310160427807485  40.52268916454271 2.637820618907166  40.6635774603006 2.651434127369956  C 40.804465756058484 2.6650409985933132  40.929662704028814 2.683517200134307  41.03916830421159 2.7068546426835196  C 41.03916830421159 2.7068546426835196  40.91592755855329 3.6052503646086533  40.91592755855329 3.6052503646086533  C 40.810428261362254 3.5780299849225066  40.69316958720975 3.556637537264974  40.56430019296475 3.5410792416140007  C 40.434763085285624 3.5255209459630272  40.31346941552248 3.517744287797764  40.19995751234798 3.517744287797764  C 39.94221872385798 3.517744287797764  39.698831946031795 3.5692712897864953  39.469804999380386 3.672338356830335  C 39.240778052728984 3.775398784780247  39.040054744108815 3.923188487244394  38.86778373785119 4.115702479338843  C 38.69551273159356 4.308216471433292  38.56033655046723 4.539625168773927  38.46284985925965 4.809917355371901  C 38.36469545461795 5.080216188481785  38.31564563527891 5.380649357092398  38.31564563527891 5.711229946524064  C 38.31564563527891 5.711229946524064  38.31564563527891 9.141468157510939  38.31564563527891 9.141468157510939  L 37.33607732752669 9.141468157510939  L 37.33607732752669 2.7476908118619345  L 38.14545603413175 2.7476908118619345  L 38.251580009559724 3.9261059795819158  C 38.251580009559724 3.9261059795819158  38.292660258112484 3.9261059795819158  38.292660258112484 3.9261059795819158  C 38.4255359478869 3.6888685286711533  38.58576848642963 3.4720477084251185  38.77339697629543 3.2756441419543023  C 38.961693179595365 3.079240575483486  39.180334010113995 2.9227021346697253  39.42872475082763 2.806028196402528  Z M 42.24810133305008 2.7476908118619345  L 43.22229008444421 2.7476908118619345  L 43.22229008444421 9.141468157510939  L 42.24810133305008 9.141468157510939  L 42.24810133305008 2.7476908118619345  Z M 42.327327526687554 0.5104521147301896  C 42.43883627463504 0.4073916867802777  42.578668226815786 0.35585804569761786  42.746932922619365 0.35585804569761786  C 42.90718501243948 0.35585804569761786  43.04466561009784 0.4073916867802777  43.16018066103705 0.5104521147301896  C 43.27569571197627 0.61351918177403  43.33379361623028 0.7739459581611571  43.33379361623028 0.9917355371900827  C 43.33379361623028 1.2056421883545516  43.27569571197627 1.3650968752848507  43.16018066103705 1.470102090422946  C 43.04466561009784 1.5751073055610414  42.90718501243948 1.6276130286825474  42.746932922619365 1.6276130286825474  C 42.578668226815786 1.6276130286825474  42.43883627463504 1.5751073055610414  42.327327526687554 1.470102090422946  C 42.21581877874008 1.3650968752848507  42.15958317843044 1.2056421883545516  42.15958317843044 0.9917355371900827  C 42.15958317843044 0.7739459581611571  42.21581877874008 0.61351918177403  42.327327526687554 0.5104521147301896  Z M 47.380198098677575 2.773942634905202  C 47.64060774090409 2.6786613482900425  47.94861050544539 2.6310160427807485  48.30450369111477 2.6310160427807485  C 49.10643189842336 2.6310160427807485  49.74612047185744 2.9052029963425197  50.22353815922248 3.453573164803111  C 50.70095584658752 4.001943333263703  50.9395082054278 4.826448298682851  50.9395082054278 5.927078269324259  C 50.9395082054278 6.654362212585836  50.83036646794925 7.2649759265712355  50.61135526758369 7.758872143898882  C 50.39234406721814 8.252834737329849  50.083852281948104 8.626193998389645  49.686560624568486 8.87894992707827  C 49.28926896718886 9.131772231870213  48.82103369395411 9.258142926592123  48.28151831394834 9.258142926592123  C 47.94098261188713 9.258142926592123  47.64153888914512 9.2134404161571  47.38313240214563 9.12396694214876  C 47.124725915146136 9.034559844243741  46.903602012701676 8.91400836356705  46.71997981836529 8.762275157997083  C 46.5363576240289 8.610608328530438  46.38375297904443 8.445287961315401  46.26222847734877 8.266407389402042  C 46.26222847734877 8.266407389402042  46.19229424469347 8.266407389402042  46.19229424469347 8.266407389402042  C 46.2036454346378 8.41807421886869  46.218280436982646 8.600852243055344  46.23630879671429 8.814778804083616  C 46.25366943928065 9.028638989008568  46.26222847734877 9.215318619538467  46.26222847734877 9.374817695673311  C 46.26222847734877 9.374817695673311  46.26222847734877 12  46.26222847734877 12  L 45.28168206844053 12  L 45.28168206844053 2.7476908118619345  L 46.086170269265494 2.7476908118619345  L 46.2152796218599 3.692756441419543  C 46.2152796218599 3.692756441419543  46.26222847734877 3.692756441419543  46.26222847734877 3.692756441419543  C 46.38709156860204 3.498304293812857  46.53969620612419 3.320373416468537  46.71997981836529 3.1589693728731163  C 46.900263430606394 2.9975719757896058  47.12045615496055 2.869230553196308  47.380198098677575 2.773942634905202  Z M 49.49338564625489 4.115702479338843  C 49.19758699799921 3.6703927388281627  48.7446074820317 3.4477394263490524  48.1343140899676 3.4477394263490524  C 47.688279098177674 3.4477394263490524  47.32918556242147 3.5333025853032325  47.057424717191566 3.7044239183276613  C 46.78566387196166 3.875551897864001  46.58729192532619 4.131262646175787  46.46176111317648 4.471560525036461  C 46.33689802192322 4.811865050409046  46.270241082399444 5.238702116629193  46.26222847734877 5.75206611570248  C 46.26222847734877 5.75206611570248  46.26222847734877 5.938745746232377  46.26222847734877 5.938745746232377  C 46.26222847734877 6.47936993915593  46.32218868554716 6.936315021876519  46.44171003947811 7.3096742829363155  C 46.560563672512615 7.683033543996111  46.75769408318516 7.966987784185859  47.03346123886912 8.161400097228974  C 47.30989609306258 8.35587878637541  47.68065251798767 8.453087019931939  48.14605130383982 8.453087019931939  C 48.5446783880877 8.453087019931939  48.87729537507079 8.34615796598695  49.14371448297838 8.132231404958677  C 49.40946586252721 7.918371220033727  49.608326874665316 7.619868922476984  49.73986713757148 7.236752552260574  C 49.8707396870435 6.853702558147484  49.935976419353125 6.413243080031599  49.935976419353125 5.91541079241614  C 49.935976419353125 5.160913121543814  49.78851659600108 4.561012219849523  49.49338564625489 4.115702479338843  Z M 53.970643687928195 8.167233835683033  C 54.15693675092574 8.36556227947823  54.40404813664067 8.464754496840058  54.712533414768004 8.464754496840058  C 54.87345321802224 8.464754496840058  55.03820980275361 8.451132070108358  55.20647449855719 8.423918327661642  C 55.374739194360764 8.39670458521493  55.51128863631578 8.363640510288326  55.61678793350682 8.324744773942635  C 55.61678793350682 8.324744773942635  55.61678793350682 9.077297034516285  55.61678793350682 9.077297034516285  C 55.503276030332316 9.127874768469944  55.34601562175574 9.170593291390679  55.144365075150034 9.20563928050559  C 54.942714528544315 9.240618893517182  54.74571582781291 9.258142926592123  54.554081027493055 9.258142926592123  C 54.213545325431845 9.258142926592123  53.90461141264951 9.198825990104767  53.626841131587796 9.080213903743315  C 53.34907085052609 8.961601817381862  53.12701578491596 8.760374136902954  52.960754244339405 8.476421973748177  C 52.794492703762856 8.192536186696723  52.711338449554766 7.799735255188078  52.711338449554766 7.298006806028196  C 52.711338449554766 7.298006806028196  52.711338449554766 3.506076810889645  52.711338449554766 3.506076810889645  L 51.79583576752173 3.506076810889645  L 51.79583576752173 3.033543996110841  L 52.71720705649087 2.6543509965969863  L 53.10502416485209 1.26592124453087  L 53.691884858463006 1.26592124453087  L 53.691884858463006 2.7476908118619345  L 55.57570768495406 2.7476908118619345  L 55.57570768495406 3.506076810889645  L 53.691884858463006 3.506076810889645  C 53.691884858463006 3.506076810889645  53.691884858463006 7.2688381137579  53.691884858463006 7.2688381137579  C 53.691884858463006 7.669477478531766  53.78501835328942 7.968905391887837  53.970643687928195 8.167233835683033  Z M 56.92010772390107 2.7476908118619345  L 57.893807424717195 2.7476908118619345  L 57.893807424717195 9.141468157510939  L 56.92010772390107 9.141468157510939  L 56.92010772390107 2.7476908118619345  Z M 56.99933391753855 0.5104521147301896  C 57.110842665486025 0.4073916867802777  57.250674617666775 0.35585804569761786  57.41893931347036 0.35585804569761786  C 57.57919140329047 0.35585804569761786  57.71716105152683 0.4073916867802777  57.83267610246606 0.5104521147301896  C 57.94819115340527 0.61351918177403  58.00580000708127 0.7739459581611571  58.00580000708127 0.9917355371900827  C 58.00580000708127 1.2056421883545516  57.94819115340527 1.3650968752848507  57.83267610246606 1.470102090422946  C 57.71716105152683 1.5751073055610414  57.57919140329047 1.6276130286825474  57.41893931347036 1.6276130286825474  C 57.250674617666775 1.6276130286825474  57.110842665486025 1.5751073055610414  56.99933391753855 1.470102090422946  C 56.887825169591075 1.3650968752848507  56.83207861985943 1.2056421883545516  56.83207861985943 0.9917355371900827  C 56.83207861985943 0.7739459581611571  56.887825169591075 0.61351918177403  56.99933391753855 0.5104521147301896  Z M 65.13273408040789 4.150704910063198  C 65.3771185255921 4.642689543090286  65.49952201391471 5.236757952551502  65.49952201391471 5.9329120077783175  C 65.49952201391471 6.457977903196403  65.43100277137935 6.926587970383143  65.29412077115089 7.338842975206611  C 65.15723877092242 7.751031603926759  64.95979795760334 8.099129995328452  64.70139147060385 8.383082158483226  C 64.44298498360436 8.666967945534683  64.1310789483182 8.883802043968576  63.765837714872454 9.03354399611084  C 63.399928782917215 9.183285948253106  62.98570945048621 9.258142926592123  62.523649246729335 9.258142926592123  C 62.09363946690634 9.258142926592123  61.69999939115576 9.183285948253106  61.342103050259354 9.03354399611084  C 60.98353898100417 8.883802043968576  60.67411604749312 8.666967945534683  60.41437410377609 8.383082158483226  C 60.15396446154958 8.099129995328452  59.95230998976375 7.751031603926759  59.809418538778836 7.338842975206611  C 59.666527087793924 6.926587970383143  59.59521438561085 6.457977903196403  59.59521438561085 5.9329120077783175  C 59.59521438561085 5.232868378175134  59.714645751429615 4.636849158124316  59.95368845929152 4.1448711716091395  C 60.19206345371929 3.6528865385820524  60.533239482501656 3.277583113444564  60.97727131906456 3.0189596499756925  C 61.42130315562747 2.7603295399949106  61.950429792763956 2.6310160427807485  62.5647294952821 2.6310160427807485  C 63.15165281267919 2.6310160427807485  63.66521328990192 2.7613016220337565  64.10523881601075 3.0218765192027224  C 64.54593207047839 3.2824447698597776  64.88834963522366 3.6587269235480218  65.13273408040789 4.150704910063198  Z M 61.07165808062032 4.1069518716577535  C 60.760501918907195 4.546427250603883  60.60461477862163 5.155083537159699  60.60461477862163 5.9329120077783175  C 60.60461477862163 6.446295946387336  60.673134021156976 6.891629098049344  60.810016021385444 7.2688381137579  C 60.94689802161391 7.646113505569776  61.15853171909343 7.937804567506722  61.444314621063256 8.143898881866797  C 61.73009752303307 8.350059572330192  62.0980604733858 8.453087019931939  62.54810177562979 8.453087019931939  C 62.994136767419725 8.453087019931939  63.36036914615617 8.350059572330192  63.64748747499425 8.143898881866797  C 63.9352735321911 7.937804567506722  64.14783837791164 7.646113505569776  64.28472037814011 7.2688381137579  C 64.42160237836858 6.891629098049344  64.49012162090392 6.446295946387336  64.49012162090392 5.9329120077783175  C 64.49012162090392 5.423437583081398  64.42160237836858 4.982984721805496  64.28472037814011 4.6115702479338845  C 64.14783837791164 4.240149127550362  63.93620468043213 3.9533251074835922  63.6504217784623 3.751093825960136  C 63.365306604851256 3.548855897924769  62.99579173081371 3.4477394263490524  62.54174411811567 3.4477394263490524  C 61.87269164535541 3.4477394263490524  61.38281424233345 3.667476492711625  61.07165808062032 4.1069518716577535  Z M 69.4016565758493 2.7506076810889644  C 69.66406937330287 2.6708846919792744  69.94031904257285 2.6310160427807485  70.23010825499674 2.6310160427807485  C 70.9926411458221 2.6310160427807485  71.56957605887239 2.8167235912718005  71.96085825057094 3.188138065143413  C 72.35214044226947 3.5595525390150247  72.54771894418184 4.155565112553932  72.54771894418184 4.976178901312591  C 72.54771894418184 4.976178901312591  72.54771894418184 9.141468157510939  72.54771894418184 9.141468157510939  L 71.58526740665994 9.141468157510939  C 71.58526740665994 9.141468157510939  71.58526740665994 5.040350024307243  71.58526740665994 5.040350024307243  C 71.58526740665994 4.50753150684021  71.46286391833733 4.108891466258507  71.21847947315311 3.844433641225085  C 70.9740950279689 3.579969169679752  70.59943534722358 3.4477394263490524  70.09464124488821 3.4477394263490524  C 69.38218714519067 3.4477394263490524  68.88139935330936 3.648028205422794  68.59227786924426 4.048614487117161  C 68.30248865682037 4.449194122299617  68.15751190539416 5.0306254652558335  68.15751190539416 5.792902284880895  C 68.15751190539416 5.792902284880895  68.15751190539416 9.141468157510939  68.15751190539416 9.141468157510939  L 67.18430125515606 9.141468157510939  L 67.18430125515606 2.7476908118619345  L 67.97020553401669 2.7476908118619345  L 68.1164316568414 3.6694214876033056  C 68.1164316568414 3.6694214876033056  68.16973816984438 3.6694214876033056  68.16973816984438 3.6694214876033056  C 68.30662017007285 3.443846113309735  68.48055654219802 3.2542502366632995  68.6915551365801 3.1006319883325233  C 68.90322144439631 2.9470070934898365  69.13991147690525 2.830337309292583  69.4016565758493 2.7506076810889644  Z M 82.85592702745764 4.150704910063198  C 83.10031147264186 4.642689543090286  83.22222591038646 5.236757952551502  83.22222591038646 5.9329120077783175  C 83.22222591038646 6.457977903196403  83.15419571842912 6.926587970383143  83.01731371820065 7.338842975206611  C 82.88043171797219 7.751031603926759  82.6825018540751 8.099129995328452  82.42409536707562 8.383082158483226  C 82.1663565785856 8.666967945534683  81.85445054329944 8.883802043968576  81.4885416113442 9.03354399611084  C 81.12263267938896 9.183285948253106  80.70921277033321 9.258142926592123  80.24782029493512 9.258142926592123  C 79.81714278675337 9.258142926592123  79.42270328762751 9.183285948253106  79.06480694673111 9.03354399611084  C 78.70691060583471 8.883802043968576  78.39797669305237 8.666967945534683  78.13756705082585 8.383082158483226  C 77.87715740859934 8.099129995328452  77.6758133245354 7.751031603926759  77.53358958698462 7.338842975206611  C 77.3906981359997 6.926587970383143  77.31889638323862 6.457977903196403  77.31889638323862 5.9329120077783175  C 77.31889638323862 5.232868378175134  77.43850641191351 4.636849158124316  77.67688140634128 4.1448711716091395  C 77.9159241142032 3.6528865385820524  78.25741053070745 3.277583113444564  78.70144236727035 3.0189596499756925  C 79.14547420383325 2.7603295399949106  79.67460084096973 2.6310160427807485  80.28890054348788 2.6310160427807485  C 80.87582386088498 2.6310160427807485  81.3893843381077 2.7613016220337565  81.82940986421654 3.0218765192027224  C 82.2694353903254 3.2824447698597776  82.61154258227343 3.6587269235480218  82.85592702745764 4.150704910063198  Z M 78.79436197709208 4.1069518716577535  C 78.48387354373772 4.546427250603883  78.32878582682741 5.155083537159699  78.32878582682741 5.9329120077783175  C 78.32878582682741 6.446295946387336  78.39730506936277 6.891629098049344  78.53418706959124 7.2688381137579  C 78.67106906981971 7.646113505569776  78.88190334392395 7.937804567506722  79.167018517535 8.143898881866797  C 79.45280141950482 8.350059572330192  79.82076436985756 8.453087019931939  80.27080567210155 8.453087019931939  C 80.71684066389147 8.453087019931939  81.08387246600317 8.350059572330192  81.37165852320003 8.143898881866797  C 81.6587768520381 7.937804567506722  81.8705422743834 7.646113505569776  82.00742427461186 7.2688381137579  C 82.14430627484033 6.891629098049344  82.21282551737568 6.446295946387336  82.21282551737568 5.9329120077783175  C 82.21282551737568 5.423437583081398  82.14430627484033 4.982984721805496  82.00742427461186 4.6115702479338845  C 81.8705422743834 4.240149127550362  81.65970800027914 3.9533251074835922  81.37459282666808 3.751093825960136  C 81.08880992469825 3.548855897924769  80.71898467786347 3.4477394263490524  80.26493706516544 3.4477394263490524  C 79.59588459240518 3.4477394263490524  79.1055181388052 3.667476492711625  78.79436197709208 4.1069518716577535  Z M 87.77039628587109 2.7476908118619345  L 87.77039628587109 3.506076810889645  L 86.1692446934693 3.506076810889645  L 86.1692446934693 9.141468157510939  L 85.19456689149716 9.141468157510939  L 85.19456689149716 3.506076810889645  L 84.05556809531396 3.506076810889645  L 84.05556809531396 3.0393777345649  L 85.19456689149716 2.7185221195916385  C 85.19456689149716 2.7185221195916385  85.19456689149716 2.2926592124453085  85.19456689149716 2.2926592124453085  C 85.19456689149716 1.7559577671138187  85.27443863547953 1.3193998805052107  85.43469072529963 0.9829849295089936  C 85.59561052855386 0.646576625024687  85.82888635582059 0.39864253302366914  86.13403305185264 0.23918327661643168  C 86.4391797478847 0.07973066672110476  86.81055691840427 0  87.24857931913539 0  C 87.49496691954663 0  87.72123561377423 0.021392447657531826  87.92689247083399 0.0641711229946524  C 88.131881599535 0.10695643371671047  88.31282510469929 0.15556718958890375  88.4697386124241 0.21001458434613518  C 88.4697386124241 0.21001458434613518  88.2173885141714 0.9742343218279047  88.2173885141714 0.9742343218279047  C 88.08384509603822 0.9314490111058467  87.93372352297959 0.8915869972922585  87.76746198240303 0.8546426835196889  C 87.60120044182648 0.8176917306531908  87.43240886148446 0.7992221682061253  87.2608055835856 0.7992221682061253  C 86.88888718594929 0.7992221682061253  86.61356866492031 0.9188082133558808  86.43528820790624 1.157997083130773  C 86.2576754643263 1.3971793212297188  86.1692446934693 1.7715106643283605  86.1692446934693 2.28099173553719  C 86.1692446934693 2.28099173553719  86.1692446934693 2.7476908118619345  86.1692446934693 2.7476908118619345  L 87.77039628587109 2.7476908118619345  Z M 93.40768229858197 8.167233835683033  C 93.59397536157951 8.36556227947823  93.84108674729445 8.464754496840058  94.14957202542178 8.464754496840058  C 94.31049182867602 8.464754496840058  94.4752484134074 8.451132070108358  94.64351310921096 8.423918327661642  C 94.81177780501454 8.39670458521493  94.94832724696957 8.363640510288326  95.0538265441606 8.324744773942635  C 95.0538265441606 8.324744773942635  95.0538265441606 9.077297034516285  95.0538265441606 9.077297034516285  C 94.94031464098609 9.127874768469944  94.78305423240953 9.170593291390679  94.5814036858038 9.20563928050559  C 94.3797531391981 9.240618893517182  94.18275443846669 9.258142926592123  93.99111963814684 9.258142926592123  C 93.65058393608562 9.258142926592123  93.34165002330329 9.198825990104767  93.06387974224158 9.080213903743315  C 92.78610946117986 8.961601817381862  92.56405439556974 8.760374136902954  92.39779285499318 8.476421973748177  C 92.23153131441663 8.192536186696723  92.14837706020855 7.799735255188078  92.14837706020855 7.298006806028196  C 92.14837706020855 7.298006806028196  92.14837706020855 3.506076810889645  92.14837706020855 3.506076810889645  L 91.23287437817551 3.506076810889645  L 91.23287437817551 3.033543996110841  L 92.15424566714466 2.6543509965969863  L 92.54206277550587 1.26592124453087  L 93.12892346911678 1.26592124453087  L 93.12892346911678 2.7476908118619345  L 95.01274629560784 2.7476908118619345  L 95.01274629560784 3.506076810889645  L 93.12892346911678 3.506076810889645  C 93.12892346911678 3.506076810889645  93.12892346911678 7.2688381137579  93.12892346911678 7.2688381137579  C 93.12892346911678 7.669477478531766  93.2220569639432 7.968905391887837  93.40768229858197 8.167233835683033  Z M 96.35714633455486 0.0641711229946524  L 97.33084603537097 0.0641711229946524  C 97.33084603537097 0.0641711229946524  97.33084603537097 2.7768595041322315  97.33084603537097 2.7768595041322315  C 97.33084603537097 2.9324291861631013  97.32694275949576 3.0889676269768627  97.31959787207676 3.246475449684006  C 97.31158526702609 3.4039899189030596  97.29757103359549 3.548863360414704  97.27753952236797 3.6810889645114244  C 97.27753952236797 3.6810889645114244  97.34258324924319 3.6810889645114244  97.34258324924319 3.6810889645114244  C 97.4754589390176 3.4555202367297646  97.64456089215686 3.265917713571418  97.85021774921664 3.1122994652406417  C 98.05520687791763 2.958674570397955  98.28910348062814 2.842004786200702  98.55151627808168 2.7622751579970832  C 98.81392907553523 2.6825521688873932  99.09173066849003 2.6426835196888674  99.3848584630092 2.6426835196888674  C 99.90100376834795 2.6426835196888674  100.33234115452825 2.7243583504876643  100.67888629242127 2.8877005347593583  C 101.02543143031428 3.0510427190310523  101.28531553121988 3.3038372212263  101.45892196434578 3.6460865337870687  C 101.6331961109058 3.9883291998359263  101.72056402358065 4.431691660716456  101.72056402358065 4.976178901312591  C 101.72056402358065 4.976178901312591  101.72056402358065 9.141468157510939  101.72056402358065 9.141468157510939  L 100.75811248605874 9.141468157510939  C 100.75811248605874 9.141468157510939  100.75811248605874 5.040350024307243  100.75811248605874 5.040350024307243  C 100.75811248605874 4.50753150684021  100.63570899773613 4.108891466258507  100.39132455255192 3.844433641225085  C 100.1469401073677 3.579969169679752  99.77228042662237 3.4477394263490524  99.267486324287 3.4477394263490524  C 98.79006863692196 3.4477394263490524  98.40982202195656 3.538162995497463  98.12604227521376 3.7190082644628104  C 97.84226252847097 3.899853533428157  97.63856708988465 4.165285102128403  97.51570715385841 4.5153135634419055  C 97.39217949693573 4.865335378243498  97.33084603537097 5.293144526502491  97.33084603537097 5.798736023334953  C 97.33084603537097 5.798736023334953  97.33084603537097 9.141468157510939  97.33084603537097 9.141468157510939  L 96.35714633455486 9.141468157510939  L 96.35714633455486 0.0641711229946524  Z M 104.70523970117019 3.0393777345649  C 105.12924004516137 2.7671407607787435  105.62909665895238 2.6310160427807485  106.20466877334609 2.6310160427807485  C 106.75219677425996 2.6310160427807485  107.22136319573573 2.7515808016452965  107.61264538743427 2.992707826932426  C 108.00392757913282 3.2338348522195552  108.30306091415294 3.571220431330138  108.51005319808098 4.004861448711717  C 108.71771319544314 4.438502466093294  108.82157841627277 4.945063552522636  108.82157841627277 5.5245503159941665  C 108.82157841627277 5.5245503159941665  108.82157841627277 6.125425376762275  108.82157841627277 6.125425376762275  C 108.82157841627277 6.125425376762275  104.37855391506011 6.125425376762275  104.37855391506011 6.125425376762275  C 104.39057282216972 6.8760599999620196  104.57852342492711 7.44773734931408  104.94242923150459 7.840544482255712  C 105.30633503808208 8.233351615197344  105.8189643372145 8.429752066115702  106.4800042487652 8.429752066115702  C 106.88664392407192 8.429752066115702  107.24666863791842 8.392852760949179  107.5598279250093 8.318911035488576  C 107.87298721210017 8.245035686131294  108.19748728479627 8.136122640963023  108.53401667640343 7.992221682061254  C 108.53401667640343 7.992221682061254  108.53401667640343 8.843947496353913  108.53401667640343 8.843947496353913  C 108.20883845795038 8.987848455255682  107.88713185982664 9.09285989408071  107.56863083541346 9.158969372873116  C 107.2494620826415 9.225078851665522  106.87294009048948 9.258142926592123  106.43892400021244 9.258142926592123  C 105.82061798724024 9.258142926592123  105.28200116006343 9.132697847669544  104.82261183989236 8.8818667963053  C 104.36255479136253 8.630969368837734  104.00501317929113 8.262503720859794  103.75061297289642 7.7763733592610595  C 103.49688049486048 7.290242997662327  103.37013162320534 6.695195889322283  103.37013162320534 5.991249392318911  C 103.37013162320534 5.302867839332918  103.48645915657913 4.706855236122084  103.71882468532583 4.2032085561497325  C 103.95185794243129 3.6995618761773823  104.2805716586695 3.3116213548629676  104.70523970117019 3.0393777345649  Z M 107.09620797705666 3.666504618376276  C 106.86183929308294 3.5051005747808555  106.56035459607811 3.4244044725328147  106.19244250889585 3.4244044725328147  C 105.67229089310304 3.4244044725328147  105.25793989550482 3.593579979851574  104.9487868890187 3.9319397180359745  C 104.6396338825326 4.270292809708465  104.4554078857984 4.742824378266286  104.39664878644645 5.349538162372387  C 104.39664878644645 5.349538162372387  107.79995175881176 5.349538162372387  107.79995175881176 5.349538162372387  C 107.79594545628642 4.968399752559857  107.73678467845922 4.6329649840388765  107.62193734841645 4.343218279047155  C 107.50642229747724 4.053478220567347  107.33124437446452 3.8279020154597863  107.09620797705666 3.666504618376276  Z M 117.11685432046312 9.170636849781234  C 116.85310609614132 9.228980458008762  116.53933776437309 9.258142926592123  116.1754319577956 9.258142926592123  C 115.59585353294784 9.258142926592123  115.08477612765095 9.139509053617411  114.64274744631508 8.902284880894506  C 114.2007187649792 8.66499433206828  113.85674927654912 8.303339890038208  113.61036167613787 7.8172095284394745  C 113.36397407572662 7.331079166840741  113.240639439163 6.718521288777649  113.240639439163 5.979581915410792  C 113.240639439163 5.205636372656629  113.37098120876574 4.572678035129664  113.63139085099228 4.080700048614487  C 113.89113279470929 3.5887220620993103  114.24973727988748 3.2241115393891286  114.7077911731903 2.986874088478366  C 115.16517736798362 2.7496366375676047  115.68543456067428 2.6310160427807485  116.26835156761732 2.6310160427807485  C 116.58952347561632 2.6310160427807485  116.89987758721767 2.663101396574578  117.19901481756865 2.727272727272727  C 117.4981520479196 2.791444057970877  117.74371152487437 2.872146799312846  117.93601403862834 2.9693728731161886  C 117.93601403862834 2.9693728731161886  117.64258369182289 3.7802625182304324  117.64258369182289 3.7802625182304324  C 117.44694259597362 3.702484316308926  117.22067390174601 3.6324744773942634  116.96427054012429 3.5702479338842976  C 116.70786717850254 3.508021390374332  116.46838368634587 3.476908118619349  116.2453661904509 3.476908118619349  C 115.79933119866098 3.476908118619349  115.4288851763824 3.57219209796199  115.13375422663621 3.762761302868255  C 114.83795557838053 3.9533305077745204  114.61683167593608 4.233349953569367  114.47060164285587 4.602819640252795  C 114.32370389634156 4.972289326936224  114.25003983217378 5.427323418794817  114.25003983217378 5.967914438502674  C 114.25003983217378 6.4851746584642385  114.32184158493486 6.926579691915183  114.46473303591978 7.292173067574137  C 114.60762448690468 7.657766443233091  114.82032107241564 7.936827100012914  115.10343309079964 8.129314535731648  C 115.38721283754244 8.321801971450384  115.74240310255377 8.418084589207584  116.1690743002815 8.418084589207584  C 116.50961000234268 8.418084589207584  116.81717063937171 8.38211090725837  117.09093463982865 8.310160427807487  C 117.36469864028558 8.238209948356602  117.61274117424153 8.153565773525804  117.83575867013649 8.056392805055907  C 117.83575867013649 8.056392805055907  117.83575867013649 8.919786096256685  117.83575867013649 8.919786096256685  C 117.620753780225 9.02870743472888  117.3812702731437 9.112293241553708  117.11685432046312 9.170636849781234  Z M 124.53428443712714 4.150704910063198  C 124.77933659574548 4.642689543090286  124.90205047178996 5.236757952551502  124.90205047178996 5.9329120077783175  C 124.90205047178996 6.457977903196403  124.83353122925462 6.926587970383143  124.69664922902615 7.338842975206611  C 124.55909951536356 7.751031603926759  124.36165871696912 8.099129995328452  124.10391992847912 8.383082158483226  C 123.84551344147962 8.666967945534683  123.53329700354693 8.883802043968576  123.1673880715917 9.03354399611084  C 122.80147913963647 9.183285948253106  122.3875701800027 9.258142926592123  121.92617770460461 9.258142926592123  C 121.49550019642282 9.258142926592123  121.10154974787501 9.183285948253106  120.7436534069786 9.03354399611084  C 120.38575706608219 8.883802043968576  120.07633410272186 8.666967945534683  119.81592446049534 8.383082158483226  C 119.55618251677832 8.099129995328452  119.35483844763903 7.751031603926759  119.21194699665409 7.338842975206611  C 119.0690555456692 6.926587970383143  118.99774284348611 6.457977903196403  118.99774284348611 5.9329120077783175  C 118.99774284348611 5.232868378175134  119.116863821583 4.636849158124316  119.35523881601077 4.1448711716091395  C 119.59428152387267 3.6528865385820524  119.93576794037693 3.277583113444564  120.37979977693983 3.0189596499756925  C 120.82383161350275 2.7603295399949106  121.35295825063923 2.6310160427807485  121.96725795315736 2.6310160427807485  C 122.55418127055445 2.6310160427807485  123.06774174777716 2.7613016220337565  123.50776727388602 3.0218765192027224  C 123.94779279999487 3.2824447698597776  124.28989999194292 3.6587269235480218  124.53428443712714 4.150704910063198  Z M 120.47418653849559 4.1069518716577535  C 120.16303037678247 4.546427250603883  120.00714323649689 5.155083537159699  120.00714323649689 5.9329120077783175  C 120.00714323649689 6.446295946387336  120.07566247903225 6.891629098049344  120.21254447926071 7.2688381137579  C 120.34942647948918 7.646113505569776  120.56106017696868 7.937804567506722  120.8468430789385 8.143898881866797  C 121.13195825254957 8.350059572330192  121.49912177952704 8.453087019931939  121.94916308177103 8.453087019931939  C 122.39519807356096 8.453087019931939  122.76222987567267 8.350059572330192  123.05001593286953 8.143898881866797  C 123.33780199006635 7.937804567506722  123.5503668357869 7.646113505569776  123.68724883601537 7.2688381137579  C 123.82413083624384 6.891629098049344  123.89216102820119 6.446295946387336  123.89216102820119 5.9329120077783175  C 123.89216102820119 5.423437583081398  123.82413083624384 4.982984721805496  123.68724883601537 4.6115702479338845  C 123.5503668357869 4.240149127550362  123.33873313830739 3.9533251074835922  123.05295023633757 3.751093825960136  C 122.76716733436774 3.548855897924769  122.39734208753296 3.4477394263490524  121.94329447483491 3.4477394263490524  C 121.27490973043344 3.4477394263490524  120.78534270020872 3.667476492711625  120.47418653849559 4.1069518716577535  Z M 128.80418503372456 2.7506076810889644  C 129.06659783117811 2.6708846919792744  129.34253712765087 2.6310160427807485  129.63165861171598 2.6310160427807485  C 130.3948592309001 2.6310160427807485  130.97210451674763 2.8167235912718005  131.36338670844617 3.188138065143413  C 131.75466890014474 3.5595525390150247  131.9502474020571 4.155565112553932  131.9502474020571 4.976178901312591  C 131.9502474020571 4.976178901312591  131.9502474020571 9.141468157510939  131.9502474020571 9.141468157510939  L 130.9877958645352 9.141468157510939  C 130.9877958645352 9.141468157510939  130.9877958645352 5.040350024307243  130.9877958645352 5.040350024307243  C 130.9877958645352 4.50753150684021  130.86539237621258 4.108891466258507  130.62100793102837 3.844433641225085  C 130.37595577241004 3.579969169679752  130.00098570394283 3.4477394263490524  129.49619160160745 3.4477394263490524  C 128.7844052302687 3.4477394263490524  128.28361743838735 3.648028205422794  127.99382822596348 4.048614487117161  C 127.70470674189839 4.449194122299617  127.56004036326942 5.0306254652558335  127.56004036326942 5.792902284880895  C 127.56004036326942 5.792902284880895  127.56004036326942 9.141468157510939  127.56004036326942 9.141468157510939  L 126.5858516118753 9.141468157510939  L 126.5858516118753 2.7476908118619345  L 127.37175589073591 2.7476908118619345  L 127.51896011471668 3.6694214876033056  C 127.51896011471668 3.6694214876033056  127.57226662771964 3.6694214876033056  127.57226662771964 3.6694214876033056  C 127.70914862794812 3.443846113309735  127.88308500007328 3.2542502366632995  128.09408359445536 3.1006319883325233  C 128.30508218883745 2.9470070934898365  128.54177223627104 2.830337309292583  128.80418503372456 2.7506076810889644  Z M 135.29241905217128 8.167233835683033  C 135.47804438681007 8.36556227947823  135.725155772525 8.464754496840058  136.0343087790111 8.464754496840058  C 136.19456086883122 8.464754496840058  136.3590070658407 8.451132070108358  136.52727176164427 8.423918327661642  C 136.69553645744784 8.39670458521493  136.83257494998088 8.363640510288326  136.93807424717193 8.324744773942635  C 136.93807424717193 8.324744773942635  136.93807424717193 9.077297034516285  136.93807424717193 9.077297034516285  C 136.8245623439974 9.127874768469944  136.6668128848428 9.170593291390679  136.46516233823712 9.20563928050559  C 136.26417950506553 9.240618893517182  136.067980242634 9.258142926592123  135.87634544231415 9.258142926592123  C 135.53580974025294 9.258142926592123  135.2263867768926 9.198825990104767  134.9486164958309 9.080213903743315  C 134.67084621476917 8.961601817381862  134.44879114915906 8.760374136902954  134.2825296085825 8.476421973748177  C 134.11626806800598 8.192536186696723  134.03311381379788 7.799735255188078  134.03311381379788 7.298006806028196  C 134.03311381379788 7.298006806028196  134.03311381379788 3.506076810889645  134.03311381379788 3.506076810889645  L 133.11810018234286 3.506076810889645  L 133.11810018234286 3.033543996110841  L 134.03947147131197 2.6543509965969863  L 134.42582142793918 1.26592124453087  L 135.01268212155009 1.26592124453087  L 135.01268212155009 2.7476908118619345  L 136.89699399861917 2.7476908118619345  L 136.89699399861917 3.506076810889645  L 135.01268212155009 3.506076810889645  C 135.01268212155009 3.506076810889645  135.01268212155009 7.2688381137579  135.01268212155009 7.2688381137579  C 135.01268212155009 7.669477478531766  135.10612598917373 7.968905391887837  135.29241905217128 8.167233835683033  Z M 139.21851709242836 3.0393777345649  C 139.64251743641952 2.7671407607787435  140.14237405021055 2.6310160427807485  140.71794616460426 2.6310160427807485  C 141.26547416551813 2.6310160427807485  141.7346405869939 2.7515808016452965  142.12592277869243 2.992707826932426  C 142.51720497039096 3.2338348522195552  142.8163383054111 3.571220431330138  143.02333058933914 4.004861448711717  C 143.2309905867013 4.438502466093294  143.33485580753094 4.945063552522636  143.33485580753094 5.5245503159941665  C 143.33485580753094 5.5245503159941665  143.33485580753094 6.125425376762275  143.33485580753094 6.125425376762275  C 143.33485580753094 6.125425376762275  138.89183130631827 6.125425376762275  138.89183130631827 6.125425376762275  C 138.9038502134279 6.8760599999620196  139.09180081618527 7.44773734931408  139.45570662276276 7.840544482255712  C 139.81961242934025 8.233351615197344  140.33224172847267 8.429752066115702  140.99328164002335 8.429752066115702  C 141.3999213153301 8.429752066115702  141.7599460291766 8.392852760949179  142.07310531626746 8.318911035488576  C 142.38626460335834 8.245035686131294  142.71076467605442 8.136122640963023  143.0472940676616 7.992221682061254  C 143.0472940676616 7.992221682061254  143.0472940676616 8.843947496353913  143.0472940676616 8.843947496353913  C 142.72211584920856 8.987848455255682  142.4004092510848 9.09285989408071  142.08190822667163 9.158969372873116  C 141.76273947389967 9.225078851665522  141.38621748174765 9.258142926592123  140.95220139147062 9.258142926592123  C 140.3338953784984 9.258142926592123  139.79527855132162 9.132697847669544  139.33588923115053 8.8818667963053  C 138.8758321826207 8.630969368837734  138.51829057054928 8.262503720859794  138.26389036415458 7.7763733592610595  C 138.01015788611863 7.290242997662327  137.88340901446352 6.695195889322283  137.88340901446352 5.991249392318911  C 137.88340901446352 5.302867839332918  137.9997365478373 4.706855236122084  138.232102076584 4.2032085561497325  C 138.46513533368946 3.6995618761773823  138.79384904992767 3.3116213548629676  139.21851709242836 3.0393777345649  Z M 141.60948536831484 3.666504618376276  C 141.3751166843411 3.5051005747808555  141.07363198733628 3.4244044725328147  140.70571990015404 3.4244044725328147  C 140.1855682843612 3.4244044725328147  139.77121728676298 3.593579979851574  139.46206428027688 3.9319397180359745  C 139.15291127379078 4.270292809708465  138.96868527705658 4.742824378266286  138.90992617770462 5.349538162372387  C 138.90992617770462 5.349538162372387  142.31322915006993 5.349538162372387  142.31322915006993 5.349538162372387  C 142.3092228475446 4.968399752559857  142.2500620697174 4.6329649840388765  142.1352147396746 4.343218279047155  C 142.0196996887354 4.053478220567347  141.8445217657227 3.8279020154597863  141.60948536831484 3.666504618376276  Z M 147.208136385363 2.7506076810889644  C 147.47054918281657 2.6708846919792744  147.74648847928927 2.6310160427807485  148.0356099633544 2.6310160427807485  C 148.79881058253855 2.6310160427807485  149.3760558683861 2.8167235912718005  149.76733806008463 3.188138065143413  C 150.15862025178316 3.5595525390150247  150.35419875369556 4.155565112553932  150.35419875369556 4.976178901312591  C 150.35419875369556 4.976178901312591  150.35419875369556 9.141468157510939  150.35419875369556 9.141468157510939  L 149.39174721617363 9.141468157510939  C 149.39174721617363 9.141468157510939  149.39174721617363 5.040350024307243  149.39174721617363 5.040350024307243  C 149.39174721617363 4.50753150684021  149.269343727851 4.108891466258507  149.0249592826668 3.844433641225085  C 148.77990712404846 3.579969169679752  148.40493705558126 3.4477394263490524  147.90014295324588 3.4477394263490524  C 147.1883565819071 3.4477394263490524  146.6875687900258 3.648028205422794  146.3977795776019 4.048614487117161  C 146.10865809353683 4.449194122299617  145.96399171490788 5.0306254652558335  145.96399171490788 5.792902284880895  C 145.96399171490788 5.792902284880895  145.96399171490788 9.141468157510939  145.96399171490788 9.141468157510939  L 144.98980296351374 9.141468157510939  L 144.98980296351374 2.7476908118619345  L 145.77570724237435 2.7476908118619345  L 145.9229114663551 3.6694214876033056  C 145.9229114663551 3.6694214876033056  145.97621797935807 3.6694214876033056  145.97621797935807 3.6694214876033056  C 146.11309997958656 3.443846113309735  146.28703635171172 3.2542502366632995  146.49803494609378 3.1006319883325233  C 146.70903354047587 2.9470070934898365  146.94572358790944 2.830337309292583  147.208136385363 2.7506076810889644  Z M 153.69637040380974 8.167233835683033  C 153.8819957384485 8.36556227947823  154.12910712416343 8.464754496840058  154.43826013064952 8.464754496840058  C 154.59851222046964 8.464754496840058  154.76295841747913 8.451132070108358  154.9312231132827 8.423918327661642  C 155.09948780908627 8.39670458521493  155.2365263016193 8.363640510288326  155.34202559881035 8.324744773942635  C 155.34202559881035 8.324744773942635  155.34202559881035 9.077297034516285  155.34202559881035 9.077297034516285  C 155.22851369563583 9.127874768469944  155.07076423648127 9.170593291390679  154.86911368987555 9.20563928050559  C 154.66813085670395 9.240618893517182  154.47193159427243 9.258142926592123  154.2802967939526 9.258142926592123  C 153.93976109189137 9.258142926592123  153.63033812853104 9.198825990104767  153.35256784746932 9.080213903743315  C 153.07479756640763 8.961601817381862  152.8527425007975 8.760374136902954  152.68648096022093 8.476421973748177  C 152.52021941964438 8.192536186696723  152.43706516543628 7.799735255188078  152.43706516543628 7.298006806028196  C 152.43706516543628 7.298006806028196  152.43706516543628 3.506076810889645  152.43706516543628 3.506076810889645  L 151.52205153398128 3.506076810889645  L 151.52205153398128 3.033543996110841  L 152.44342282295042 2.6543509965969863  L 152.8297727795776 1.26592124453087  L 153.4166334731885 1.26592124453087  L 153.4166334731885 2.7476908118619345  L 155.30094535025756 2.7476908118619345  L 155.30094535025756 3.506076810889645  L 153.4166334731885 3.506076810889645  C 153.4166334731885 3.506076810889645  153.4166334731885 7.2688381137579  153.4166334731885 7.2688381137579  C 153.4166334731885 7.669477478531766  153.5100773408122 7.968905391887837  153.69637040380974 8.167233835683033  Z M 164.94600084975306 4.150704910063198  C 165.19038529493724 4.642689543090286  165.31278878325986 5.236757952551502  165.31278878325986 5.9329120077783175  C 165.31278878325986 6.457977903196403  165.2442695407245 6.926587970383143  165.10738754049606 7.338842975206611  C 164.97050554026757 7.751031603926759  164.77257567637048 8.099129995328452  164.514169189371 8.383082158483226  C 164.25643040088102 8.666967945534683  163.94452436559484 8.883802043968576  163.57861543363958 9.03354399611084  C 163.21270650168435 9.183285948253106  162.79928659262862 9.258142926592123  162.33789411723052 9.258142926592123  C 161.90721660904876 9.258142926592123  161.5127771099229 9.183285948253106  161.15488076902648 9.03354399611084  C 160.79698442813012 8.883802043968576  160.48805051534777 8.666967945534683  160.22764087312126 8.383082158483226  C 159.96723123089473 8.099129995328452  159.76588714683078 7.751031603926759  159.62366340928 7.338842975206611  C 159.4807719582951 6.926587970383143  159.40945925611203 6.457977903196403  159.40945925611203 5.9329120077783175  C 159.40945925611203 5.232868378175134  159.5285802342089 4.636849158124316  159.76695522863668 4.1448711716091395  C 160.00599793649857 3.6528865385820524  160.34748435300284 3.277583113444564  160.79151618956575 3.0189596499756925  C 161.23554802612864 2.7603295399949106  161.76467466326514 2.6310160427807485  162.37897436578328 2.6310160427807485  C 162.9652299548216 2.6310160427807485  163.47879043204432 2.7613016220337565  163.91948368651194 3.0218765192027224  C 164.3595092126208 3.2824447698597776  164.70161640456882 3.6587269235480218  164.94600084975306 4.150704910063198  Z M 160.88443579938746 4.1069518716577535  C 160.5739473660331 4.546427250603883  160.4188596491228 5.155083537159699  160.4188596491228 5.9329120077783175  C 160.4188596491228 6.446295946387336  160.48737889165815 6.891629098049344  160.62426089188662 7.2688381137579  C 160.7611428921151 7.646113505569776  160.97197716621935 7.937804567506722  161.25709233983042 8.143898881866797  C 161.54287524180023 8.350059572330192  161.91083819215294 8.453087019931939  162.36087949439695 8.453087019931939  C 162.80691448618688 8.453087019931939  163.17394628829857 8.350059572330192  163.46173234549542 8.143898881866797  C 163.7488506743335 7.937804567506722  163.96061609667876 7.646113505569776  164.09749809690726 7.2688381137579  C 164.23438009713573 6.891629098049344  164.3028993396711 6.446295946387336  164.3028993396711 5.9329120077783175  C 164.3028993396711 5.423437583081398  164.23438009713573 4.982984721805496  164.09749809690726 4.6115702479338845  C 163.96061609667876 4.240149127550362  163.74978182257453 3.9533251074835922  163.4646666489635 3.751093825960136  C 163.17888374699365 3.548855897924769  162.80905850015887 3.4477394263490524  162.35501088746082 3.4477394263490524  C 161.6859584147006 3.4477394263490524  161.19559196110058 3.667476492711625  160.88443579938746 4.1069518716577535  Z M 169.86047010816648 2.7476908118619345  L 169.86047010816648 3.506076810889645  L 168.2593185157647 3.506076810889645  L 168.2593185157647 9.141468157510939  L 167.28464071379256 9.141468157510939  L 167.28464071379256 3.506076810889645  L 166.14564191760937 3.506076810889645  L 166.14564191760937 3.0393777345649  L 167.28464071379256 2.7185221195916385  C 167.28464071379256 2.7185221195916385  167.28464071379256 2.2926592124453085  167.28464071379256 2.2926592124453085  C 167.28464071379256 1.7559577671138187  167.36500150835295 1.3193998805052107  167.525253598173 0.9829849295089936  C 167.68550568799313 0.646576625024687  167.91798207696 0.39864253302366914  168.22312877299203 0.23918327661643168  C 168.52894319738283 0.07973066672110476  168.90063074069968 0  169.33865314143077 0  C 169.58504074184202 0  169.81130943606962 0.021392447657531826  170.0169662931294 0.0641711229946524  C 170.2219554218304 0.10695643371671047  170.40289892699468 0.15556718958890375  170.55981243471948 0.21001458434613518  C 170.55981243471948 0.21001458434613518  170.30746233646678 0.9742343218279047  170.30746233646678 0.9742343218279047  C 170.1739189183336 0.9314490111058467  170.02379734527497 0.8915869972922585  169.85753580469844 0.8546426835196889  C 169.6912742641219 0.8176917306531908  169.52217231098263 0.7992221682061253  169.34990130472497 0.7992221682061253  C 168.97865063544745 0.7992221682061253  168.70413153779373 0.9188082133558808  168.52585108077963 1.157997083130773  C 168.34823833719972 1.3971793212297188  168.2593185157647 1.7715106643283605  168.2593185157647 2.28099173553719  C 168.2593185157647 2.28099173553719  168.2593185157647 2.7476908118619345  168.2593185157647 2.7476908118619345  L 169.86047010816648 2.7476908118619345  Z M 175.49775612087737 8.167233835683033  C 175.68404918387492 8.36556227947823  175.93116056958982 8.464754496840058  176.23964584771716 8.464754496840058  C 176.40056565097143 8.464754496840058  176.56532223570278 8.451132070108358  176.73358693150638 8.423918327661642  C 176.90185162730995 8.39670458521493  177.038890119843 8.363640510288326  177.144389417034 8.324744773942635  C 177.144389417034 8.324744773942635  177.144389417034 9.077297034516285  177.144389417034 9.077297034516285  C 177.0308775138595 9.127874768469944  176.87312805470492 9.170593291390679  176.6714775080992 9.20563928050559  C 176.4698269614935 9.240618893517182  176.2733173113401 9.258142926592123  176.08168251102023 9.258142926592123  C 175.74114680895903 9.258142926592123  175.4317238455987 9.198825990104767  175.15395356453698 9.080213903743315  C 174.87618328347526 8.961601817381862  174.65412821786512 8.760374136902954  174.4878666772886 8.476421973748177  C 174.32160513671204 8.192536186696723  174.23845088250394 7.799735255188078  174.23845088250394 7.298006806028196  C 174.23845088250394 7.298006806028196  174.23845088250394 3.506076810889645  174.23845088250394 3.506076810889645  L 173.3229482004709 3.506076810889645  L 173.3229482004709 3.033543996110841  L 174.24480854001806 2.6543509965969863  L 174.63213659780126 1.26592124453087  L 175.2189972914122 1.26592124453087  L 175.2189972914122 2.7476908118619345  L 177.10330916848125 2.7476908118619345  L 177.10330916848125 3.506076810889645  L 175.2189972914122 3.506076810889645  C 175.2189972914122 3.506076810889645  175.2189972914122 7.2688381137579  175.2189972914122 7.2688381137579  C 175.2189972914122 7.669477478531766  175.31213078623858 7.968905391887837  175.49775612087737 8.167233835683033  Z M 178.44722015685025 0.0641711229946524  L 179.42091985766638 0.0641711229946524  C 179.42091985766638 0.0641711229946524  179.42091985766638 2.7768595041322315  179.42091985766638 2.7768595041322315  C 179.42091985766638 2.9324291861631013  179.4167061982668 3.0889676269768627  179.40869359321613 3.246475449684006  C 179.40134870579715 3.4039899189030596  179.3876448558909 3.548863360414704  179.36761334466337 3.6810889645114244  C 179.36761334466337 3.6810889645114244  179.43265707153859 3.6810889645114244  179.43265707153859 3.6810889645114244  C 179.565532761313 3.4555202367297646  179.73512376503027 3.265917713571418  179.94078062209005 3.1122994652406417  C 180.14576975079103 2.958674570397955  180.37917730292352 2.842004786200702  180.6415901003771 2.7622751579970832  C 180.90400289783062 2.6825521688873932  181.18180449078542 2.6426835196888674  181.47493228530456 2.6426835196888674  C 181.99107759064336 2.6426835196888674  182.42241497682366 2.7243583504876643  182.76896011471666 2.8877005347593583  C 183.11550525260967 3.0510427190310523  183.3758784040933 3.3038372212263  183.54948483721918 3.6460865337870687  C 183.7237589837792 3.9883291998359263  183.81063784587604 4.431691660716456  183.81063784587604 4.976178901312591  C 183.81063784587604 4.976178901312591  183.81063784587604 9.141468157510939  183.81063784587604 9.141468157510939  L 182.84818630835414 9.141468157510939  C 182.84818630835414 9.141468157510939  182.84818630835414 5.040350024307243  182.84818630835414 5.040350024307243  C 182.84818630835414 4.50753150684021  182.72578282003153 4.108891466258507  182.48139837484732 3.844433641225085  C 182.23701392966308 3.579969169679752  181.86235424891777 3.4477394263490524  181.3575601465824 3.4477394263490524  C 180.88014245921735 3.4477394263490524  180.49989584425197 3.538162995497463  180.21611609750917 3.7190082644628104  C 179.93233635076638 3.899853533428157  179.72912996275804 4.165285102128403  179.6062700267318 4.5153135634419055  C 179.48274236980913 4.865335378243498  179.42091985766638 5.293144526502491  179.42091985766638 5.798736023334953  C 179.42091985766638 5.798736023334953  179.42091985766638 9.141468157510939  179.42091985766638 9.141468157510939  L 178.44722015685025 9.141468157510939  L 178.44722015685025 0.0641711229946524  Z M 186.79433542230956 3.0393777345649  C 187.21900346481024 2.7671407607787435  187.71917048124777 2.6310160427807485  188.29474259564145 2.6310160427807485  C 188.84227059655535 2.6310160427807485  189.3114370180311 2.7515808016452965  189.70271920972968 2.992707826932426  C 190.09400140142822 3.2338348522195552  190.39313473644833 3.571220431330138  190.60012702037636 4.004861448711717  C 190.80778701773852 4.438502466093294  190.91165223856817 4.945063552522636  190.91165223856817 5.5245503159941665  C 190.91165223856817 5.5245503159941665  190.91165223856817 6.125425376762275  190.91165223856817 6.125425376762275  C 190.91165223856817 6.125425376762275  186.4686277373555 6.125425376762275  186.4686277373555 6.125425376762275  C 186.48064664446514 6.8760599999620196  186.6685972472225 7.44773734931408  187.03250305379999 7.840544482255712  C 187.39640886037748 8.233351615197344  187.9090381595099 8.429752066115702  188.5700780710606 8.429752066115702  C 188.9767177463673 8.429752066115702  189.3367424602138 8.392852760949179  189.6499017473047 8.318911035488576  C 189.96306103439557 8.245035686131294  190.28805015766966 8.136122640963023  190.62457954927683 7.992221682061254  C 190.62457954927683 7.992221682061254  190.62457954927683 8.843947496353913  190.62457954927683 8.843947496353913  C 190.2994013308238 8.987848455255682  189.97720568212205 9.09285989408071  189.65870465770885 9.158969372873116  C 189.3395359049369 9.225078851665522  188.96301391278487 9.258142926592123  188.52899782250782 9.258142926592123  C 187.91069180953565 9.258142926592123  187.37207498235884 9.132697847669544  186.91268566218776 8.8818667963053  C 186.4526286136579 8.630969368837734  186.09508700158653 8.262503720859794  185.8406867951918 7.7763733592610595  C 185.5862865887971 7.290242997662327  185.45922734434473 6.695195889322283  185.45922734434473 5.991249392318911  C 185.45922734434473 5.302867839332918  185.57586525051576 4.706855236122084  185.80889850762122 4.2032085561497325  C 186.04193176472668 3.6995618761773823  186.37033507831836 3.3116213548629676  186.79433542230956 3.0393777345649  Z M 189.18628179935206 3.666504618376276  C 188.95191311537835 3.5051005747808555  188.6504284183735 3.4244044725328147  188.28251633119123 3.4244044725328147  C 187.7623647153984 3.4244044725328147  187.34801371780023 3.593579979851574  187.0388607113141 3.9319397180359745  C 186.729707704828 4.270292809708465  186.5454817080938 4.742824378266286  186.48672260874181 5.349538162372387  C 186.48672260874181 5.349538162372387  189.89002558110715 5.349538162372387  189.89002558110715 5.349538162372387  C 189.8860192785818 4.968399752559857  189.8268585007546 4.6329649840388765  189.71201117071186 4.343218279047155  C 189.5964961197726 4.053478220567347  189.4213181967599 3.8279020154597863  189.18628179935206 3.666504618376276  Z M 198.55306751996036 2.7476908118619345  L 198.55306751996036 3.506076810889645  L 196.95044877582453 3.506076810889645  L 196.95044877582453 9.141468157510939  L 195.97577097385238 9.141468157510939  L 195.97577097385238 3.506076810889645  L 194.83823932940322 3.506076810889645  L 194.83823932940322 3.0393777345649  L 195.97577097385238 2.7185221195916385  C 195.97577097385238 2.7185221195916385  195.97577097385238 2.2926592124453085  195.97577097385238 2.2926592124453085  C 195.97577097385238 1.7559577671138187  196.05644215613464 1.3193998805052107  196.21736195938888 0.9829849295089936  C 196.37761404920897 0.646576625024687  196.61009043817583 0.39864253302366914  196.91523713420787 0.23918327661643168  C 197.2203838302399 0.07973066672110476  197.5917610007595 0  198.02978340149062 0  C 198.27617100190184 0  198.50243969612947 0.021392447657531826  198.70809655318922 0.0641711229946524  C 198.913753410249 0.10695643371671047  199.09469690048863 0.15556718958890375  199.25094269477933 0.21001458434613518  C 199.25094269477933 0.21001458434613518  198.99859259652663 0.9742343218279047  198.99859259652663 0.9742343218279047  C 198.8657169067522 0.9314490111058467  198.71590570649082 0.8915869972922585  198.5496441659143 0.8546426835196889  C 198.38338262533773 0.8176917306531908  198.21428067219847 0.7992221682061253  198.04200966594084 0.7992221682061253  C 197.6700912683045 0.7992221682061253  197.39557218557545 0.9188082133558808  197.2179594419955 1.157997083130773  C 197.03967898498144 1.3971793212297188  196.95044877582453 1.7715106643283605  196.95044877582453 2.28099173553719  C 196.95044877582453 2.28099173553719  196.95044877582453 2.7476908118619345  196.95044877582453 2.7476908118619345  L 198.55306751996036 2.7476908118619345  Z M 204.91072503407864 4.150704910063198  C 205.15577719269697 4.642689543090286  205.2784910687415 5.236757952551502  205.2784910687415 5.9329120077783175  C 205.2784910687415 6.457977903196403  205.20997182620613 6.926587970383143  205.07308982597766 7.338842975206611  C 204.93554011231507 7.751031603926759  204.73809931392063 8.099129995328452  204.48036052543063 8.383082158483226  C 204.22195403843114 8.666967945534683  203.90973760049846 8.883802043968576  203.5438286685432 9.03354399611084  C 203.17791973658797 9.183285948253106  202.7640107769542 9.258142926592123  202.30261830155612 9.258142926592123  C 201.87194079337436 9.258142926592123  201.4779903448265 9.183285948253106  201.1200940039301 9.03354399611084  C 200.7621976630337 8.883802043968576  200.45277469967337 8.666967945534683  200.19236505744684 8.383082158483226  C 199.93262311372982 8.099129995328452  199.73127904459054 7.751031603926759  199.5883875936056 7.338842975206611  C 199.4454961426207 6.926587970383143  199.37418344043763 6.457977903196403  199.37418344043763 5.9329120077783175  C 199.37418344043763 5.232868378175134  199.4933044185345 4.636849158124316  199.73167941296228 4.1448711716091395  C 199.97072212082418 3.6528865385820524  200.31220853732844 3.277583113444564  200.75624037389133 3.0189596499756925  C 201.20027221045424 2.7603295399949106  201.72939884759074 2.6310160427807485  202.34369855010885 2.6310160427807485  C 202.93062186750595 2.6310160427807485  203.4441823447287 2.7613016220337565  203.8842078708375 3.0218765192027224  C 204.32423339694637 3.2824447698597776  204.66634058889443 3.6587269235480218  204.91072503407864 4.150704910063198  Z M 200.8506271354471 4.1069518716577535  C 200.53947097373398 4.546427250603883  200.3835838334484 5.155083537159699  200.3835838334484 5.9329120077783175  C 200.3835838334484 6.446295946387336  200.45210307598376 6.891629098049344  200.58898507621223 7.2688381137579  C 200.7258670764407 7.646113505569776  200.93750077392022 7.937804567506722  201.22328367589003 8.143898881866797  C 201.50839884950108 8.350059572330192  201.87556237647854 8.453087019931939  202.32560367872253 8.453087019931939  C 202.77163867051246 8.453087019931939  203.13867047262417 8.350059572330192  203.42645652982102 8.143898881866797  C 203.71424258701788 7.937804567506722  203.9268074327384 7.646113505569776  204.0636894329669 7.2688381137579  C 204.20057143319534 6.891629098049344  204.26860162515268 6.446295946387336  204.26860162515268 5.9329120077783175  C 204.26860162515268 5.423437583081398  204.20057143319534 4.982984721805496  204.0636894329669 4.6115702479338845  C 203.9268074327384 4.240149127550362  203.7151737352589 3.9533251074835922  203.42939083328906 3.751093825960136  C 203.14360793131925 3.548855897924769  202.77378268448447 3.4477394263490524  202.31973507178643 3.4477394263490524  C 201.65135032738493 3.4477394263490524  201.1617832971602 3.667476492711625  200.8506271354471 4.1069518716577535  Z M 209.05445058154973 2.806028196402528  C 209.3028413222634 2.6893542581353307  209.57971176697714 2.6310160427807485  209.88485846300918 2.6310160427807485  C 210.01439557068832 2.6310160427807485  210.14908270869896 2.637820618907166  210.2893032910227 2.651434127369956  C 210.4301915867806 2.6650409985933132  210.55538853475093 2.683517200134307  210.6648941349337 2.7068546426835196  C 210.6648941349337 2.7068546426835196  210.5416533892754 3.6052503646086533  210.5416533892754 3.6052503646086533  C 210.43615409208437 3.5780299849225066  210.31889541793186 3.556637537264974  210.19002602368687 3.5410792416140007  C 210.06115662944188 3.5255209459630272  209.94017334740062 3.517744287797764  209.82666144422612 3.517744287797764  C 209.5682549572266 3.517744287797764  209.32455777675392 3.5692712897864953  209.0955308301025 3.672338356830335  C 208.8665038834511 3.775398784780247  208.66609094762816 3.923188487244394  208.49448766972932 4.115702479338843  C 208.3222166634717 4.308216471433292  208.18721914520148 4.539625168773927  208.0890647405598 4.809917355371901  C 207.9915780493522 5.080216188481785  207.94283861773508 5.380649357092398  207.94283861773508 5.711229946524064  C 207.94283861773508 5.711229946524064  207.94283861773508 9.141468157510939  207.94283861773508 9.141468157510939  L 206.9622922088268 9.141468157510939  L 206.9622922088268 2.7476908118619345  L 207.7721599660099 2.7476908118619345  L 207.87730584028182 3.9261059795819158  C 207.87730584028182 3.9261059795819158  207.9183860888346 3.9261059795819158  207.9183860888346 3.9261059795819158  C 208.05192950696778 3.6888685286711533  208.21247241830778 3.4720477084251185  208.40010090817356 3.2756441419543023  C 208.58772939803936 3.079240575483486  208.8060598408361 2.9227021346697253  209.05445058154973 2.806028196402528  Z M 217.64902543948165 2.9022848808945065  C 218.01693752666392 2.7214396119291595  218.41993606758905 2.6310160427807485  218.85795846832016 2.6310160427807485  C 219.5664062575636 2.6310160427807485  220.10018866575453 2.8147794271941087  220.46008816187796 3.182304326689353  C 220.81998765800137 3.5498292261845985  221 4.140009307490429  221 4.952843947496354  C 221 4.952843947496354  221 9.141468157510939  221 9.141468157510939  L 220.0375484624781 9.141468157510939  C 220.0375484624781 9.141468157510939  220.0375484624781 4.9995138551288285  220.0375484624781 4.9995138551288285  C 220.0375484624781 4.482260281679175  219.9251242147738 4.0943131435247775  219.70010356365182 3.8356830335439964  C 219.47508291252984 3.5770529235632145  219.14153476238107 3.4477394263490524  218.6995060810452 3.4477394263490524  C 218.07719375761894 3.4477394263490524  217.62514541974173 3.626642400568182  217.34336882822595 3.9844433641225083  C 217.06225993521969 4.342250974188746  216.92180722998214 4.8692324299457646  216.92180722998214 5.565386485172581  C 216.92180722998214 5.565386485172581  216.92180722998214 9.141468157510939  216.92180722998214 9.141468157510939  L 215.9529980349461 9.141468157510939  C 215.9529980349461 9.141468157510939  215.9529980349461 4.9995138551288285  215.9529980349461 4.9995138551288285  C 215.9529980349461 4.653381614703604  215.90301706736602 4.365578866086078  215.80285950749732 4.136120563928051  C 215.70336966852503 3.9066556152581122  215.55497868200732 3.7345638618228154  215.35733443093102 3.6198347107438016  C 215.1596901798547 3.505105559664788  214.91022743215507 3.4477394263490524  214.6090870465771 3.4477394263490524  C 214.18241584884936 3.4477394263490524  213.840308671826 3.5352467493809248  213.582569883336 3.710257656781721  C 213.3241633963365 3.8852685641825175  213.13714392129876 4.144867640649688  213.02162887035954 4.489061740398639  C 212.90611381942034 4.83324919363568  212.84850496574435 5.256197931700443  212.84850496574435 5.7578998541565385  C 212.84850496574435 5.7578998541565385  212.84850496574435 9.141468157510939  212.84850496574435 9.141468157510939  L 211.87480526492823 9.141468157510939  L 211.87480526492823 2.7476908118619345  L 212.66119859436685 2.7476908118619345  L 212.80742471719157 3.651920272241128  C 212.80742471719157 3.651920272241128  212.86024217961653 3.651920272241128  212.86024217961653 3.651920272241128  C 212.98911157386155 3.4302344723239244  213.15169545946435 3.2435548417940265  213.34733655531363 3.0918813806514343  C 213.5429776511629 2.940201272996931  213.76175019162264 2.82547565287737  214.00413148157983 2.7476908118619345  C 214.24718048497115 2.669912609940428  214.50551264726732 2.6310160427807485  214.77927664772426 2.6310160427807485  C 215.2680455380927 2.6310160427807485  215.67774079448577 2.7214396119291595  216.00826075026114 2.9022848808945065  C 216.33944840454598 3.0831301498598536  216.57942096220526 3.3582891854604706  216.7276541505125 3.727758872143899  C 216.7276541505125 3.727758872143899  216.7804716129375 3.727758872143899  216.7804716129375 3.727758872143899  C 216.99147020731957 3.3582891854604706  217.2811133522994 3.0831301498598536  217.64902543948165 2.9022848808945065  Z " fill-rule="nonzero" fill="#91929f" stroke="none" transform="matrix(1 0 0 1 104 157 )" />
  </g>
</svg>