<?xml version="1.0" encoding="utf-8"?>
<svg version="1.1" xmlns:xlink="http://www.w3.org/1999/xlink" width="49px" height="13px" xmlns="http://www.w3.org/2000/svg">
  <g transform="matrix(1 0 0 1 -81 -329 )">
    <path d="M 5.39815157116451 4.416657042768603  L 5.39815157116451 3.432036031874351  L 7.513643403107358 3.432036031874351  L 7.513643403107358 4.416657042768603  L 5.39815157116451 4.416657042768603  Z M 9.460228805515312 7.766370250606305  L 9.460228805515312 0.011009739384840435  L 10.572073737323274 0.011009739384840435  L 10.572073737323274 7.766370250606305  L 9.460228805515312 7.766370250606305  Z M 7.058820002997453 7.668283481541364  L 7.058820002997453 0.25872887554375024  L 8.162831593145826 0.25872887554375024  L 8.162831593145826 7.668283481541364  L 7.058820002997453 7.668283481541364  Z M 2.0596792726182747 9.344516302883319  L 2.0596792726182747 8.385417869653924  L 10.572073737323274 8.385417869653924  L 10.572073737323274 12.997497786503445  L 9.416655842533848 12.997497786503445  L 9.416655842533848 9.344516302883319  L 2.0596792726182747 9.344516302883319  Z M 1.39384523155318 1.2193286368710783  C 1.82783325884424 0.9574649997436133  2.3244945336503036 0.8264811179119992  2.8836488984363293 0.8264811179119992  C 3.442950341574896 0.8264811179119992  3.938126459696758 0.9574649997436133  4.36904631063596 1.2193286368710783  C 4.800106546398451 1.4810419640300794  5.1406705655173575 1.8436011538226724  5.3912973972123694 2.3067906224737267  C 5.641924228907381 2.769986933114811  5.767297796872659 3.3043277833140254  5.767297796872659 3.9099588097162874  C 5.767297796872659 4.5157469575324445  5.641924228907381 5.050187749657449  5.3912973972123694 5.513377218308503  C 5.1406705655173575 5.976573528949587  4.799812419575197 6.339225788133343  4.36904631063596 6.601089425260808  C 3.938273508167472 6.862802752419809  3.4422053278638933 6.993436501520575  2.880711395313983 6.993436501520575  C 2.3221385906452174 6.993436501520575  1.8262658374902816 6.862802752419809  1.392866063845731 6.601089425260808  C 0.9596066451426443 6.339225788133343  0.6192931851432142 5.976573528949587  0.37159414497676974 5.513377218308503  C 0.12389243038680793 5.050187749657449  0 4.5157469575324445  0 3.9099588097162874  C 0 3.3043277833140254  0.12389243038680793 2.769986933114811  0.37159414497676974 2.3067906224737267  C 0.6192931851432142 1.8436011538226724  0.9600042826146604 1.4810419640300794  1.39384523155318 1.2193286368710783  Z M 3.825118649148224 2.103110443854179  C 3.5497793971071854 1.9249474975947773  3.2361935579854784 1.8358740424221425  2.8836488984363293 1.8358740424221425  C 2.5312579808871445 1.8358740424221425  2.2170288159117484 1.9249474975947773  1.94168956387071 2.103110443854179  C 1.6663503118296714 2.2812733901135798  1.449534334109464 2.525771201297061  1.2910326222710697 2.836509219694345  C 1.1326712803150525 3.1470969281231653  1.0535844532147673 3.5049088764407275  1.0535844532147673 3.9099588097162874  C 1.0535844532147673 4.315165894950341  1.1326712803150525 4.672464663471081  1.2910326222710697 4.982157292989953  C 1.449534334109464 5.29169961254036  1.6669434063321569 5.535641573123129  1.943158315431883 5.71380451938253  C 2.219373224531609 5.891967465641932  2.5318231358813756 5.981040920814566  2.880711395313983 5.981040920814566  C 3.235007368980507 5.981040920814566  3.5497793971071854 5.891967465641932  3.825118649148224 5.71380451938253  C 4.100451207660012 5.535641573123129  4.317414248791848 5.29169961254036  4.4757755907478645 4.982157292989953  C 4.634277302586259 4.672464663471081  4.713713343657891 4.315165894950341  4.713713343657891 3.9099588097162874  C 4.713713343657891 3.5049088764407275  4.634277302586259 3.1470969281231653  4.4757755907478645 2.836509219694345  C 4.317414248791848 2.525771201297061  4.100451207660012 2.2812733901135798  3.825118649148224 2.103110443854179  Z M 17.876664834890345 1.8949262809408323  C 17.876664834890345 1.8949262809408323  17.876664834890345 0.901297301458983  17.876664834890345 0.901297301458983  L 18.89108257980716 0.901297301458983  C 18.89108257980716 0.901297301458983  18.89108257980716 1.8949262809408323  18.89108257980716 1.8949262809408323  C 18.89108257980716 2.4609548916243815  18.79653963168172 2.997719791692982  18.606634360793326 3.5048504446240907  C 18.41679593555195 4.011837599032167  18.155983509597895 4.482856931112589  17.824768946395565 4.918100627478154  C 17.493754920134293 5.353193983330657  17.110873422995727 5.742909611898265  16.67571564170455 6.087134773068484  C 16.240557860413375 6.4313530922486715  15.776228961486254 6.724076120353311  15.282849577858821 6.965161489009509  C 14.78967073117245 7.206246857665705  14.290578749030121 7.386716990161218  13.785702153169805 7.50689071101359  C 13.785702153169805 7.50689071101359  13.26772243592946 6.5120106247834615  13.26772243592946 6.5120106247834615  C 13.70956469227719 6.420534287148096  14.152450063442167 6.275616173362945  14.59596343108358 6.077125919082265  C 15.03961049001903 5.8784853395608225  15.45845455679079 5.630958191474821  15.85223559974022 5.334719174654502  C 16.24601664268965 5.038480157834184  16.59384597981852 4.70885009154733  16.896517959734226 4.346094622165762  C 17.19918993964993 3.983345994774223  17.438425146547797 3.593773864729646  17.613758305440378 3.177060476575432  C 17.78909146433295 2.7602036204427836  17.876664834890345 2.332711746057811  17.876664834890345 1.8949262809408323  Z M 18.091592146675328 1.8949262809408323  C 18.091592146675328 1.8949262809408323  18.091592146675328 0.901297301458983  18.091592146675328 0.901297301458983  L 19.097686966078832 0.901297301458983  C 19.097686966078832 0.901297301458983  19.097686966078832 1.8949262809408323  19.097686966078832 1.8949262809408323  C 19.097686966078832 2.336449244200699  19.185327182283242 2.765252550915684  19.3605934955288 3.1810640181699195  C 19.535926654421377 3.596725144911093  19.77709306403522 3.987259551981982  20.08370884747964 4.35285059860646  C 20.390391476571086 4.718448456676369  20.74028570770997 5.04757218515643  21.133866213718342 5.340224044346922  C 21.52764725666777 5.632725563024352  21.94662501473357 5.879896698544325  22.39013838237498 6.081379682026408  C 22.833785441310432 6.282855823518461  23.278246092749875 6.426362593592408  23.72376479992007 6.5120106247834615  C 23.72376479992007 6.5120106247834615  23.19746215716641 7.50689071101359  23.19746215716641 7.50689071101359  C 22.692719192836478 7.386716990161218  22.194803299641592 7.206246857665705  21.70423140330719 6.965161489009509  C 21.213793198266824 6.724076120353311  20.75092937543615 6.432315338730385  20.315771594144977 6.089887207914694  C 19.880613812853802 5.747459077099002  19.496267239618785 5.358698853023077  19.162312034770444 4.923605497170574  C 18.828289984275088 4.488512141318071  18.566435220431284 4.015824371642162  18.37652994954289 3.5058513300227125  C 18.18675836994853 2.995871446413233  18.091592146675328 2.4588572718775263  18.091592146675328 1.8949262809408323  Z M 12.791357346255683 11  L 12.791357346255683 10  L 24.298046660338713 10  L 24.298046660338713 11  L 12.791357346255683 11  Z M 26.125663186291654 9.792412518766602  L 26.125663186291654 8.80553951572545  C 26.125663186291654 8.80553951572545  26.965789079282608 8.80553951572545  26.965789079282608 8.80553951572545  C 27.738444854832377 8.80553951572545  28.500125035321542 8.783538398077448  29.250187340760352 8.739481079416407  C 30.000316521728013 8.695389596622114  30.810299659595984 8.597634530440992  31.680481590647947 8.446221657620201  C 31.680481590647947 8.446221657620201  31.777419193685365 9.421834699926858  31.777419193685365 9.421834699926858  C 30.890726716519474 9.580695231617904  30.065602935015004 9.682214770640329  29.30257281310886 9.726354082457558  C 28.53974319826195 9.770425069826363  27.760770882591594 9.792412518766602  26.965789079282608 9.792412518766602  C 26.965789079282608 9.792412518766602  26.125663186291654 9.792412518766602  26.125663186291654 9.792412518766602  Z M 26.094329819653296 2.414135581475921  L 26.094329819653296 1.4377718751202986  L 30.623959634310836 1.4377718751202986  L 30.623959634310836 5.948762366709012  L 27.25366438527252 5.948762366709012  L 27.25366438527252 9.211148323516957  L 26.125663186291654 9.211148323516957  L 26.125663186291654 4.986661277283751  L 29.50134385772094 4.986661277283751  L 29.50134385772094 2.414135581475921  L 26.094329819653296 2.414135581475921  Z M 35 12.983235169573085  L 35 0.005504869692420217  L 36 0.005504869692420217  L 36 12.983235169573085  L 35 12.983235169573085  Z M 31.22663735824549 5.650498517919699  L 31.22663735824549 4.663625514878547  L 33.279952040765345 4.663625514878547  L 33.279952040765345 5.650498517919699  L 31.22663735824549 5.650498517919699  Z M 32 12.301882434461254  L 32 0.3202833275589945  L 33 0.3202833275589945  L 33 12.301882434461254  L 32 12.301882434461254  Z M 47 13  L 47 0  L 49 0  L 49 13  L 47 13  Z M 40.641334865364435 1.5593794510528545  C 41.12916614993467 1.1887048669255496  41.6840870965246 1.0033876121184124  42.3064095518809 1.0033876121184124  C 42.934547488882494 1.0033876121184124  43.49100038709773 1.1887048669255496  43.97589049308088 1.5593794510528545  C 44.46078059906404 1.9300540351801594  44.84102093115871 2.4542456484191546  45.11662087225858 3.131770412287793  C 45.39228765900547 3.809151738722596  45.53031922865564 4.607227724134571  45.53031922865564 5.526138507140932  C 45.53031922865564 6.448943970793274  45.39228765900547 7.2499425855534465  45.11662087225858 7.929264349232012  C 44.84102093115871 8.608449456377576  44.46078059906404 9.133596535197452  43.97589049308088 9.504407745313163  C 43.49100038709773 9.875082329440467  42.934547488882494 10.060399584247603  42.3064095518809 10.060399584247603  C 41.6840870965246 10.060399584247603  41.12916614993467 9.875082329440467  40.641334865364435 9.504407745313163  C 40.153570426441235 9.133596535197452  39.77186501825011 8.608449456377576  39.49619823150322 7.929264349232012  C 39.22073198169739 7.2499425855534465  39.08298945895988 6.448943970793274  39.08298945895988 5.526138507140932  C 39.08298945895988 4.607227724134571  39.22073198169739 3.809151738722596  39.49619823150322 3.131770412287793  C 39.77186501825011 2.4542456484191546  40.153570426441235 1.9300540351801594  40.641334865364435 1.5593794510528545  Z M 43.40062946495479 2.4964584055125685  C 43.085257051159836 2.2127779224808544  42.72051131294259 2.071082111098279  42.3064095518809 2.071082111098279  C 41.89230779081921 2.071082111098279  41.52762889824899 2.2127779224808544  41.21218963880702 2.4964584055125685  C 40.8969509163061 2.7799954205658493  40.65036853013318 3.180566446662853  40.47242843582954 3.698021326558109  C 40.29448834152591 4.215469364463336  40.20560523554978 4.824849557045054  40.20560523554978 5.526138507140932  C 40.20560523554978 6.227584639739902  40.29448834152591 6.839531372742293  40.47242843582954 7.361762328213419  C 40.65036853013318 7.883842943171483  40.8969509163061 8.287599557063851  41.21218963880702 8.573083881895524  C 41.52762889824899 8.858547711301705  41.89230779081921 9.001212611156024  42.3064095518809 9.001212611156024  C 42.72051131294259 9.001212611156024  43.085257051159836 8.858547711301705  43.40062946495479 8.573083881895524  C 43.71606872439676 8.287599557063851  43.96294015748235 7.883842943171483  44.14088025178598 7.361762328213419  C 44.31882034608961 6.839531372742293  44.407703452065746 6.227584639739902  44.407703452065746 5.526138507140932  C 44.407703452065746 4.824849557045054  44.31882034608961 4.215469364463336  44.14088025178598 3.698021326558109  C 43.96294015748235 3.180566446662853  43.71606872439676 2.7799954205658493  43.40062946495479 2.4964584055125685  Z " fill-rule="nonzero" fill="#26262c" stroke="none" transform="matrix(1 0 0 1 81 329 )" />
  </g>
</svg>