<?xml version="1.0" encoding="utf-8"?>
<svg version="1.1" xmlns:xlink="http://www.w3.org/1999/xlink" width="54px" height="14px" xmlns="http://www.w3.org/2000/svg">
  <g transform="matrix(1 0 0 1 -334 -272 )">
    <path d="M 3.1907411408815904 12.12664729337028  L 1.3452355229040622 12.12664729337028  L 5.535058340535868 3.214029870919781  L 0 3.214029870919781  L 0 1.752247077110225  L 7.3800777873811585 1.752247077110225  L 7.3800777873811585 2.8947083868351693  L 3.1907411408815904 12.12664729337028  Z M 9.279548401037164 10.437791444211665  C 9.279548401037164 10.437791444211665  10.949546240276577 10.437791444211665  10.949546240276577 10.437791444211665  C 10.949546240276577 10.437791444211665  11.051642178046672 10.6010002027438  11.051642178046672 10.6010002027438  C 10.964155231762675 10.94397134762193  10.852326539022302 11.311792727232769  10.716184096802074 11.704433331080626  C 10.580108034270738 12.09707393492848  10.432260674861555 12.490399281704853  10.271823681936041 12.8842670811651  C 10.111386689010526 13.278070289862915  9.949517888866216 13.649923986749585  9.78662489196197 14  C 9.78662489196197 14  8.532303370786517 14  8.532303370786517 14  C 8.631964150233422 13.619179303560529  8.729197545822263 13.218947538259972  8.824006050129645 12.799114685409204  C 8.918807914984463 12.379217241796004  9.006319965075704 11.965085324978775  9.086538461538462 11.557072379536393  C 9.166756958001217 11.14905943409401  9.230932738107139 10.776047550053695  9.279548401037164 10.437791444211665  Z M 19.558664649956786 4.054909779009259  C 19.8188022590446 4.85203023958087  19.949060069144338 5.811158422764116  19.949060069144338 6.932351152260593  C 19.949060069144338 7.772016857962129  19.882707694736965 8.52188096120888  19.750216076058773 9.181793606812192  C 19.61772445738058 9.841770872051766  19.407182550059378 10.401160397239252  19.119165946413137 10.860005406501319  C 18.831082963078003 11.318915006525815  18.45602801758973 11.668482753709577  17.994165946413137 11.908562546462122  C 17.532303875236543 12.148642339214662  16.974660156302754 12.268567952963439  16.320764909248055 12.268567952963439  C 15.496675047878574 12.268567952963439  14.817744954866694 12.057587930058405  14.284194036300777 11.635365276745286  C 13.750643117734864 11.213142623432168  13.35438201297638 10.603345624126195  13.095505617977528 9.806244509022099  C 12.836562843289784 9.009078832029402  12.707054883318929 8.051108778252138  12.707054883318929 6.932351152260593  C 12.707054883318929 5.818256881145672  12.82514442404283 4.862674289050356  13.06098746758859 4.065553828478746  C 13.29676413144546 3.268433367907135  13.679423616585694 2.6565177222961682  14.209323681936043 2.229573562208556  C 14.739290156648812 1.8026294021209428  15.443240258852365 1.58903831857809  16.320764909248055 1.58903831857809  C 17.147244439417676 1.58903831857809  17.8286214117975 1.800741544356014  18.36462834917891 2.2241332702574845  C 18.900635286560323 2.6475314638973484  19.298593420557864 3.2577893184376476  19.558664649956786 4.054909779009259  Z M 14.614304235090753 4.748428735554504  C 14.495221091017399 5.333856595918408  14.435879429559204 6.061889079210524  14.435879429559204 6.932351152260593  C 14.435879429559204 7.809866409523467  14.495904583712539 8.541476880343144  14.616248919619705 9.12691761843617  C 14.736526883256362 9.712358356529196  14.93441433523272 10.150920711434065  15.210350043215213 10.442995201730081  C 15.486219371508811 10.73513428278853  15.856446848929496 10.881293505440292  16.320764909248055 10.881293505440292  C 16.78262698042465 10.881293505440292  17.152104578042916 10.736529004374832  17.429235090751945 10.446779752652565  C 17.706365603460974 10.157030500930299  17.906436300318923 9.719217855076197  18.02917026793431 9.133777116983174  C 18.1519042355497 8.548336378890147  18.212942955920486 7.814581448559569  18.212942955920486 6.932351152260593  C 18.212942955920486 6.061889079210524  18.1521679368015 5.333856595918408  18.03062878133103 4.748428735554504  C 17.90908962586056 4.163007342928993  17.710452301500165 3.722576533474374  17.434582973206567 3.426910860309522  C 17.15864726522408 3.1312387194062774  16.78747260869322 2.983408799080895  16.320764909248055 2.983408799080895  C 15.851601220660923 2.983408799080895  15.479676654654119 3.1312387194062774  15.205002160760587 3.426910860309522  C 14.930327666867058 3.722576533474374  14.733453758852999 4.163007342928993  14.614304235090753 4.748428735554504  Z M 28.098260587726877 4.054909779009259  C 28.35839819681469 4.85203023958087  28.488656006914432 5.811158422764116  28.488656006914432 6.932351152260593  C 28.488656006914432 7.772016857962129  28.42230363250706 8.52188096120888  28.28981201382887 9.181793606812192  C 28.157320395150673 9.841770872051766  27.94684486751837 10.401160397239252  27.65876188418323 10.860005406501319  C 27.37074528053699 11.318915006525815  26.996110126492066 11.668482753709577  26.534248055315473 11.908562546462122  C 26.07238598413888 12.148642339214662  25.51425609407285 12.268567952963439  24.86036084701815 12.268567952963439  C 24.036270985648667 12.268567952963439  23.357340892636785 12.057587930058405  22.823789974070873 11.635365276745286  C 22.290172705489596 11.213142623432168  21.893977950746475 10.603345624126195  21.635101555747625 9.806244509022099  C 21.37622516074877 9.009078832029402  21.246650821089023 8.051108778252138  21.246650821089023 6.932351152260593  C 21.246650821089023 5.818256881145672  21.364806741501816 4.862674289050356  21.600583405358687 4.065553828478746  C 21.836426448904447 3.268433367907135  22.219505725488027 2.6565177222961682  22.749405790838377 2.229573562208556  C 23.279305856188724 1.8026294021209428  23.982769846607102 1.58903831857809  24.86036084701815 1.58903831857809  C 25.68684037718777 1.58903831857809  26.368217349567594 1.800741544356014  26.904224286949006 2.2241332702574845  C 27.440231224330418 2.6475314638973484  27.838189358327963 3.2577893184376476  28.098260587726877 4.054909779009259  Z M 23.153900172860848 4.748428735554504  C 23.0347506490986 5.333856595918408  22.97498919619706 6.061889079210524  22.97498919619706 6.932351152260593  C 22.97498919619706 7.809866409523467  23.035500521482636 8.541476880343144  23.155844857389802 9.12691761843617  C 23.27618919329697 9.712358356529196  23.474076652691707 10.150920711434065  23.749945980985306 10.442995201730081  C 24.0258816889678 10.73513428278853  24.39604278669959 10.881293505440292  24.86036084701815 10.881293505440292  C 25.322222918194743 10.881293505440292  25.691766895501903 10.736529004374832  25.96883102852204 10.446779752652565  C 26.24596154123107 10.157030500930299  26.445965858400125 9.719217855076197  26.56876620570441 9.133777116983174  C 26.6915001733198 8.548336378890147  26.75302506482282 7.814581448559569  26.75302506482282 6.932351152260593  C 26.75302506482282 6.061889079210524  26.692250045703833 5.333856595918408  26.57071089023336 4.748428735554504  C 26.449171734762892 4.163007342928993  26.250114618959152 3.722576533474374  25.974178910976665 3.426910860309522  C 25.698309582683066 3.1312387194062774  25.327068546463316 2.983408799080895  24.86036084701815 2.983408799080895  C 24.391197158431016 2.983408799080895  24.019338972113108 3.1312387194062774  23.744598098530684 3.426910860309522  C 23.469923604637152 3.722576533474374  23.2729833169342 4.163007342928993  23.153900172860848 4.748428735554504  Z M 36.63785652549698 4.054909779009259  C 36.89792775489589 4.85203023958087  37.02776577355229 5.811158422764116  37.02776577355229 6.932351152260593  C 37.02776577355229 7.772016857962129  36.961899570277154 8.52188096120888  36.82940795159896 9.181793606812192  C 36.69691633292077 9.841770872051766  36.48637442559957 10.401160397239252  36.19835782195333 10.860005406501319  C 35.91027483861819 11.318915006525815  35.53521989312992 11.668482753709577  35.07335782195333 11.908562546462122  C 34.61149575077674 12.148642339214662  34.05385203184294 12.268567952963439  33.399956784788245 12.268567952963439  C 32.575933273434124 12.268567952963439  31.897003180422242 12.057587930058405  31.363385911840968 11.635365276745286  C 30.829834993275053 11.213142623432168  30.43357388851657 10.603345624126195  30.17469749351772 9.806244509022099  C 29.91582109851886 9.009078832029402  29.78673292999136 8.051108778252138  29.78673292999136 6.932351152260593  C 29.78673292999136 5.818256881145672  29.90440267927191 4.862674289050356  30.14017934312878 4.065553828478746  C 30.375956006985653 3.268433367907135  30.759035253895703 2.6565177222961682  31.28900172860847 2.229573562208556  C 31.818901793958815 1.8026294021209428  32.52243213439255 1.58903831857809  33.399956784788245 1.58903831857809  C 34.226436314957866 1.58903831857809  34.90781328733769 1.800741544356014  35.443820224719104 2.2241332702574845  C 35.97982716210051 2.6475314638973484  36.377718916409165 3.2577893184376476  36.63785652549698 4.054909779009259  Z M 31.693496110630942 4.748428735554504  C 31.57441296655759 5.333856595918408  31.51458513396716 6.061889079210524  31.51458513396716 6.932351152260593  C 31.51458513396716 7.809866409523467  31.57509645925273 8.541476880343144  31.695440795159897 9.12691761843617  C 31.815785131067063 9.712358356529196  32.0136725904618 10.150920711434065  32.2895419187554 10.442995201730081  C 32.565477626737895 10.73513428278853  32.93570510415858 10.881293505440292  33.399956784788245 10.881293505440292  C 33.86181885596484 10.881293505440292  34.231296453583106 10.736529004374832  34.508426966292134 10.446779752652565  C 34.78555747900116 10.157030500930299  34.98562817585911 9.719217855076197  35.1083621434745 9.133777116983174  C 35.23109611108989 8.548336378890147  35.29213483146068 7.814581448559569  35.29213483146068 6.932351152260593  C 35.29213483146068 6.061889079210524  35.23135981234169 5.333856595918408  35.109820656871214 4.748428735554504  C 34.98828150140075 4.163007342928993  34.78964417704036 3.722576533474374  34.51377484874676 3.426910860309522  C 34.23783914076427 3.1312387194062774  33.86666448423341 2.983408799080895  33.399956784788245 2.983408799080895  C 32.930793096201114 2.983408799080895  32.5588685301943 3.1312387194062774  32.28419403630078 3.426910860309522  C 32.00951954240725 3.722576533474374  31.81264563439319 4.163007342928993  31.693496110630942 4.748428735554504  Z M 45.87364952463267 9.7591741569237  L 45.87364952463267 6.82803946745962  L 47.64720181503889 6.82803946745962  L 47.64720181503889 9.7591741569237  L 45.87364952463267 9.7591741569237  Z M 52 10.135973508143543  L 52 0  L 53 0  L 53 10.135973508143543  L 52 10.135973508143543  Z M 43.93236819360415 13  L 43.93236819360415 11.731398256403324  L 54 11.731398256403324  L 54 13  L 43.93236819360415 13  Z M 43.93236819360415 12.105595728863959  L 43.93236819360415 9.167128471987565  L 45.70640665514261 9.167128471987565  L 45.70640665514261 12.105595728863959  L 43.93236819360415 12.105595728863959  Z M 45.06222990492653 7.330675136852065  C 44.09469593941599 7.35166677913368  43.197685808793366 7.365308571661002  42.37127268798617 7.371832128134081  C 42.37127268798617 7.371832128134081  42.151523336214346 5.986686490504832  42.151523336214346 5.986686490504832  C 42.991344916789615 5.980175851913548  43.90671779991948 5.969523551746535  44.89741789109767 5.954990876529026  C 45.88825074165364 5.940458201311517  46.89984497492336 5.905014669185411  47.93209809853069 5.848550381834155  C 48.964483922168725 5.791931078096753  49.96031670335458 5.705570045384054  50.91961970613656 5.589308643643982  C 50.91961970613656 5.589308643643982  51.039217804667246 6.824018382104481  51.039217804667246 6.824018382104481  C 50.06332011705034 6.982198488473038  49.06497404713412 7.100923124048979  48.04440363007779 7.180239237683313  C 47.023833213021454 7.259426169792785  46.02976387043708 7.3096189056126315  45.06222990492653 7.330675136852065  Z M 49.265665514261016 8.99540447387984  L 49.265665514261016 7.799722916807461  L 52.317361711322384 7.799722916807461  L 52.317361711322384 8.99540447387984  L 49.265665514261016 8.99540447387984  Z M 44.80261452031115 0.7772521457052105  C 45.318973366515635 0.5784903591594528  45.91241692466374 0.4792187605595729  46.58297320656871 0.4792187605595729  C 47.25691476358663 0.4792187605595729  47.84971968800009 0.5784903591594528  48.36090103716508 0.7772521457052105  C 48.872281495723215 0.975865376384756  49.271606659621334 1.2536896632605004  49.55882670700087 1.610799486382375  C 49.8459803746915 1.9677607536380368  49.98957433016422 2.382083122251871  49.98957433016422 2.853787929985808  C 49.98957433016422 3.325344181853532  49.8459803746915 3.7405140263136634  49.55882670700087 4.099141717915794  C 49.271606659621334 4.4577629417795315  48.872281495723215 4.734040803955062  48.36090103716508 4.927958369939853  C 47.84971968800009 5.121727380058431  47.25691476358663 5.218659187673177  46.58297320656871 5.218659187673177  C 45.91241692466374 5.218659187673177  45.318973366515635 5.121727380058431  44.80261452031115 4.927958369939853  C 44.286454783499806 4.734040803955062  43.88461633087132 4.4577629417795315  43.59739628349179 4.099141717915794  C 43.31024261580115 3.7405140263136634  43.16664866032844 3.325344181853532  43.16664866032844 2.853787929985808  C 43.16664866032844 2.382083122251871  43.31024261580115 1.9677607536380368  43.59739628349179 1.610799486382375  C 43.88461633087132 1.2536896632605004  44.286454783499806 0.975865376384756  44.80261452031115 0.7772521457052105  Z M 47.48141745894555 1.8780833952828275  C 47.22672289532634 1.7911909108162893  46.92721245715406 1.747752922889775  46.58297320656871 1.747752922889775  C 46.06999963547715 1.747752922889775  45.653128008236635 1.8427048807104849  45.33205488331893 2.0325403798067176  C 45.011114517779006 2.222369411164557  44.85074546240277 2.4960709767961307  44.85074546240277 2.853787929985808  C 44.85074546240277 3.20484571127567  45.011114517779006 3.4762074570482775  45.33205488331893 3.667702912752585  C 45.653128008236635 3.8592048217583694  46.06999963547715 3.9548557139960807  46.58297320656871 3.9548557139960807  C 47.09262785256269 3.9548557139960807  47.506480287042486 3.8592048217583694  47.824168107173726 3.667702912752585  C 48.14185592730497 3.4762074570482775  48.300615816767504 3.20484571127567  48.300615816767504 2.853787929985808  C 48.300615816767504 2.615213070236735  48.227959552919856 2.4147174245096132  48.08232497839239 2.2522808677434614  C 47.93669040386494 2.089695755111097  47.73624478194254 1.9649758797493657  47.48141745894555 1.8780833952828275  Z " fill-rule="nonzero" fill="#ff3c26" stroke="none" transform="matrix(1 0 0 1 334 272 )" />
  </g>
</svg>