<?xml version="1.0" encoding="utf-8"?>
<svg version="1.1" xmlns:xlink="http://www.w3.org/1999/xlink" width="33px" height="11px" xmlns="http://www.w3.org/2000/svg">
  <g transform="matrix(1 0 0 1 -73 -620 )">
    <path d="M 4.370685029511715 5.716956967213115  C 4.530051864381127 5.932965712469132  4.609729923090681 6.210004926379261  4.609729923090681 6.548155737704919  C 4.609729923090681 6.942600909478026  4.506440811007122 7.274128197320824  4.299856912895725 7.542776639344262  C 4.093273014784328 7.811360963706762  3.798158383970716 8.013343719836794  3.4145054551958505 8.148565573770492  C 3.0308592510956855 8.283851545365131  2.573424512426151 8.351434426229508  2.0422106957610446 8.351434426229508  C 1.5896964676157135 8.351434426229508  1.1981773205891724 8.317642985797319  0.8676444285458772 8.25  C 0.5371155592990549 8.182357014202681  0.24789798786379616 8.086539805261165  0 7.962602459016394  C 0 7.962602459016394  0 7.100409836065573  0 7.100409836065573  C 0.26363789956357736 7.224411299971284  0.5784268571106186 7.337092170298425  0.9443748882131998 7.438524590163935  C 1.3103188965193082 7.539957010029444  1.684134797021371 7.590676229508197  2.0658200679663743 7.590676229508197  C 2.624574369574847 7.590676229508197  3.0298694330173492 7.504313208366352  3.2817027365408693 7.331454918032787  C 3.533536040064389 7.158660745360161  3.659452691826149 6.923844816906204  3.659452691826149 6.627049180327869  C 3.659452691826149 6.4579737746650405  3.6092867611602086 6.308626731236775  3.508942944017171 6.179047131147541  C 3.408605844043615 6.049403413397368  3.2403846540128667 5.923563618477576  3.0042926131282415 5.8014856557377055  C 2.7682005722436167 5.679407692997834  2.441606778489565 5.545071949724291  2.024503666607047 5.398565573770492  C 1.6113425950589537 5.248276327477127  1.2542531520602656 5.098961342879332  0.9532284027901985 4.950563524590164  C 0.6522103781948319 4.802172126665792  0.420048699526513 4.620905250799461  0.2567519227329637 4.406762295081967  C 0.09345381001073504 4.192625759729271  0.011804686102664996 3.914615479974799  0.011804686102664996 3.5727459016393444  C 0.011804686102664996 3.050542034086634  0.23314501223890793 2.6495025744203664  0.6758182793775711 2.3696209016393444  C 1.1184942183735929 2.0897392288583223  1.6998718567385782 1.949795081967213  2.4199606510463245 1.949795081967213  C 2.8095165533107758 1.949795081967213  3.174480830550599 1.9864227758730697  3.514845287068503 2.0596823770491803  C 3.8552164682611076 2.13293556502608  4.17295863875292 2.2315569757763805  4.468073689858702 2.355532786885246  C 4.468073689858702 2.355532786885246  4.137542478984082 3.1050204918032787  4.137542478984082 3.1050204918032787  C 3.869967912821666 2.996073608189984  3.5846884189660977 2.9040316597360083  3.2817027365408693 2.828893442622951  C 2.9787170541156405 2.753755225509894  2.6698265068860665 2.716188524590164  2.355034877481667 2.716188524590164  C 1.9025206493363358 2.716188524590164  1.5552663432956915 2.78756589837413  1.313271328921481 2.9303278688524594  C 1.0712763145472706 3.073083418965991  0.9502772312645323 3.26844182040522  0.9502772312645323 3.516393442622951  C 0.9502772312645323 3.7079930070970883  1.0063509612747816 3.8657782872517905  1.1184940082275086 3.9897540983606556  C 1.2306370551802353 4.113729909469521  1.410660409560636 4.2301924606490005  1.658558397424432 4.3391393442622945  C 1.9064563852882284 4.4480862278755895  2.2330501790422805 4.575816863221549  2.638347343945627 4.722336065573771  C 3.0436377841742726 4.8650980360521  3.393849355977031 5.012554239054195  3.6889644070828114 5.164702868852459  C 3.984086182863293 5.316845092617097  4.211324919317003 5.500948221957097  4.370685029511715 5.716956967213115  Z M 7.5284385619746015 7.297643442622951  C 7.71534588178738 7.4892237746650405  7.964228644223487 7.585040983606557  8.275084957968163 7.585040983606557  C 8.436412725992737 7.585040983606557  8.601676650261371 7.571882059013909  8.770881774280094 7.545594262295081  C 8.940080173624114 7.519306465576255  9.077805714410227 7.487367393540554  9.18404578787337 7.449795081967213  C 9.18404578787337 7.449795081967213  9.18404578787337 8.17674180327869  9.18404578787337 8.17674180327869  C 9.069935083090778 8.225598633289337  8.911555754692776 8.266863661385624  8.708907172241103 8.300717213114755  C 8.506265314464128 8.334506647182945  8.30853198888455 8.351434426229508  8.115721695582184 8.351434426229508  C 7.77338285655972 8.351434426229508  7.462525281938537 8.294135744454431  7.183151493471651 8.179559426229508  C 6.903770980330065 8.064983108004586  6.680466298659572 7.87060218560891  6.5132355571454115 7.596311475409836  C 6.345998090956552 7.3220848828717005  6.262385977463781 6.942648976226973  6.262385977463781 6.457991803278689  C 6.262385977463781 6.457991803278689  6.262385977463781 2.7950819672131146  6.262385977463781 2.7950819672131146  L 5.341620461455911 2.7950819672131146  L 5.341620461455911 2.3386270491803276  L 6.268288320515114 1.9723360655737703  L 6.657842961903059 0.6311475409836066  L 7.248077267036309 0.6311475409836066  L 7.248077267036309 2.0625  L 9.14272938651404 2.0625  L 9.14272938651404 2.7950819672131146  L 7.248077267036309 2.7950819672131146  C 7.248077267036309 2.7950819672131146  7.248077267036309 6.429815573770492  7.248077267036309 6.429815573770492  C 7.248077267036309 6.816823211524005  7.341531242161824 7.106063110580861  7.5284385619746015 7.297643442622951  Z M 11.477106063316043 2.344262295081967  C 11.904013870995238 2.0812881657334628  12.406744007048506 1.949795081967213  12.985154712931497 1.949795081967213  C 13.536098845251086 1.949795081967213  14.008252696005053 2.0662576331466926  14.401717045251297 2.2991803278688527  C 14.795181394497538 2.5321030225910124  15.096190397821713 2.8580090804178204  15.304775532105168 3.2768954918032787  C 15.513293509704228 3.6957819031887365  15.617599713825792 4.185107283253488  15.617599713825792 4.744877049180328  C 15.617599713825792 4.744877049180328  15.617599713825792 5.32530737704918  15.617599713825792 5.32530737704918  C 15.617599713825792 5.32530737704918  11.14952602396709 5.32530737704918  11.14952602396709 5.32530737704918  C 11.161345400594467 6.050401708467411  11.350220367917434 6.602627775056766  11.71615095689501 6.982069672131148  C 12.082081545872587 7.361511569205529  12.597590575254875 7.551229508196721  13.262564836344124 7.551229508196721  C 13.671810736235726 7.551229508196721  14.033770765053141 7.515585699368045  14.348595957789305 7.444159836065573  C 14.66335402386194 7.372798090424042  14.989988105622457 7.267590804178207  15.328384904310498 7.128586065573771  C 15.328384904310498 7.128586065573771  15.328384904310498 7.951331967213115  15.328384904310498 7.951331967213115  C 15.00180747193016 8.09033670581755  14.678184363266752 8.191775137609472  14.357449472366302 8.25563524590164  C 14.03678173815025 8.319495354193807  13.658028125165934 8.351434426229508  13.221248434984798 8.351434426229508  C 12.599522358146043 8.351434426229508  12.057451704281469 8.230257607548614  11.595152924342694 7.987961065573771  C 11.132786987719522 7.745600405937987  10.773770805335689 7.389671776464077  10.517975317474512 6.920081967213115  C 10.262246986297733 6.450492157962152  10.134323019137899 5.875691486838086  10.134323019137899 5.195696721311475  C 10.134323019137899 4.530737303645233  10.251408191640653 3.955003988547403  10.485512430692184 3.4684938524590163  C 10.719616669743715 2.9819837163706295  11.050131098952452 2.6072428447952687  11.477106063316043 2.344262295081967  Z M 13.882310856734035 2.950051229508197  C 13.646191947171479 2.7941389474712435  13.343242770123197 2.716188524590164  12.973350026828832 2.716188524590164  C 12.450006841483173 2.716188524590164  12.03291633836572 2.8796078468281063  11.722053299946342 3.2064549180327866  C 11.411190261526965 3.5332955688726706  11.22619562382733 3.9897492830870585  11.167233053121087 4.575819672131147  C 11.167233053121087 4.575819672131147  14.590592022893937 4.575819672131147  14.590592022893937 4.575819672131147  C 14.586629845592423 4.207649470678444  14.526615344098548 3.8836278472441794  14.410570559828296 3.6037397540983607  C 14.294458618873646 3.323858081317339  14.118362609612198 3.105957091180353  13.882310856734035 2.950051229508197  Z M 19.392148095152926 2.087858606557377  C 19.65378609447312 1.995819259211014  19.96369374875113 1.949795081967213  20.321767125737793 1.949795081967213  C 21.128439589234162 1.949795081967213  21.77173830242836 2.214652843162662  22.251833303523522 2.7443647540983607  C 22.731861147934286 3.27407666503406  22.971919155786086 4.070527905323466  22.971919155786086 5.133709016393443  C 22.971919155786086 5.836247173163409  22.861725303828663 6.426084797239043  22.641387944911465 6.903176229508197  C 22.421050585994266 7.38033177943829  22.11121011842152 7.740987517143208  21.711768914326598 7.985143442622951  C 21.312394866916065 8.229363485763633  20.84117751717674 8.351434426229508  20.29815775353246 8.351434426229508  C 19.955798770506764 8.351434426229508  19.654789782193028 8.308252915658587  19.395099266678592 8.221823770491802  C 19.135408751164153 8.135458742985959  18.9130808735252 8.019009018204903  18.728134501878017 7.872438524590164  C 18.54318813023084 7.725932148636365  18.389706218803404 7.566236795623446  18.267751743874083 7.393442622950819  C 18.267751743874083 7.393442622950819  18.196923627258094 7.393442622950819  18.196923627258094 7.393442622950819  C 18.208675848139226 7.5399489989046184  18.223462135671095 7.716508013303162  18.24119120014309 7.923155737704919  C 18.258920264615075 8.129739344445735  18.267751743874083 8.310067213298193  18.267751743874083 8.464139344262295  C 18.267751743874083 8.464139344262295  18.267751743874083 11  18.267751743874083 11  L 17.282060454301554 11  L 17.282060454301554 2.0625  L 18.090681452334106 2.0625  L 18.220532999463423 2.975409836065574  C 18.220532999463423 2.975409836065574  18.267751743874083 2.975409836065574  18.267751743874083 2.975409836065574  C 18.393668395635842 2.787573909498955  18.54715029955806 2.6156971181025273  18.728134501878017 2.4597848360655736  C 18.909118704197976 2.303878974393417  19.13044293914833 2.1799043599373658  19.392148095152926 2.087858606557377  Z M 21.516991593632625 3.383965163934426  C 21.21989546536845 2.95380705692729  20.764468012076115 2.7387295081967213  20.15059917724915 2.7387295081967213  C 19.70206727744471 2.7387295081967213  19.341043779662805 2.821381386511964  19.067519227329637 2.9866803278688527  C 18.794061831680867 3.1519856895905374  18.594348059381147 3.3989958971575964  18.468431407619388 3.727715163934426  C 18.34251475585763 4.0564408510760535  18.27560894273087 4.468754815273598  18.267751743874083 4.964651639344262  C 18.267751743874083 4.964651639344262  18.267751743874083 5.144979508196721  18.267751743874083 5.144979508196721  C 18.267751743874083 5.667208999883933  18.327766245837033 6.108606557377049  18.447773206939726 6.469262295081967  C 18.567780168042415 6.829918032786885  18.76649027513788 7.104210749349958  19.04390985512431 7.292008196721311  C 19.321329435110734 7.479869761753604  19.69419538524875 7.573770491803279  20.162403863351816 7.573770491803279  C 20.56379258127337 7.573770491803279  20.89825448459386 7.47047969161487  21.16580218207834 7.263831967213115  C 21.433417036247217 7.0572483604722995  21.633063666872975 6.768902583200424  21.764890001788586 6.398821721311475  C 21.896649180019804 6.028804977083467  21.96261849400823 5.603332102624446  21.96261849400823 5.122438524590164  C 21.96261849400823 4.3936125854325425  21.81402059523327 3.8141232709415624  21.516991593632625 3.383965163934426  Z M 29.305133249865857 3.248719262295082  C 29.54125215942841 3.216789208148998  29.808808262756273 3.2008196721311473  30.107851904847074 3.2008196721311473  C 30.69411985274185 3.2008196721311473  31.203674092614314 3.295678641626744  31.636558755142193 3.4853995901639343  C 32.06937626098567 3.675120538701125  32.404841822005196 3.95030737704918  32.64290824539439 4.310963114754099  C 32.88097466878357 4.671618852459016  33 5.109324470895236  33 5.623975409836065  C 33 6.187560133595285  32.872143189524564 6.6730974124429006  32.616347701663386 7.080686475409836  C 32.36061937048661 7.488275538376771  31.99270455215937 7.801980925388024  31.512609551064212 8.021772540983607  C 31.032581706653446 8.241564156579189  30.458061795481157 8.351434426229508  29.789125380075124 8.351434426229508  C 29.340526323586282 8.351434426229508  28.923435820468825 8.313874131343404  28.537828653192634 8.238729508196721  C 28.152221485916435 8.163584885050039  27.82759471955399 8.050904000391727  27.56394204972277 7.90061475409836  C 27.56394204972277 7.90061475409836  27.56394204972277 7.010245901639344  27.56394204972277 7.010245901639344  C 27.85116632550587 7.175538436962608  28.19941086991702 7.30706357239374  28.608656769808622 7.404713114754098  C 29.017902669700224 7.502426774775396  29.415322898901593 7.551229508196721  29.800930066177784 7.551229508196721  C 30.23770975635892 7.551229508196721  30.620410843454987 7.484604866778264  30.94893578966196 7.351178278688525  C 31.27752789255332 7.217815808259725  31.533241513504194 7.014938930344711  31.716240386335183 6.742571721311475  C 31.89917210248177 6.470204512278239  31.99069933822214 6.127370675404866  31.99069933822214 5.7141393442622945  C 31.99069933822214 5.1656412739571325  31.814603313950258 4.742059225593108  31.462439635127883 4.443391393442623  C 31.11027595630551 4.144723561292138  30.5544897880138 3.995389344262295  29.795027723126452 3.995389344262295  C 29.551118773267813 3.995389344262295  29.28349552826599 4.0141759013217655  28.992309068145236 4.051741803278689  C 28.701122608024477 4.08931411485203  28.461131771867507 4.130636847410046  28.27222321588267 4.175717213114754  C 28.27222321588267 4.175717213114754  27.776426399570738 3.8657786885245904  27.776426399570738 3.8657786885245904  L 28.106957610445356 0  L 32.397961008764085 0  L 32.397961008764085 0.8565573770491803  L 28.945090323734572 0.8565573770491803  C 28.945090323734572 0.8565573770491803  28.72670363083527 3.341700819672131  28.72670363083527 3.341700819672131  C 28.876259030222872 3.3116493814629937  29.069081496987696 3.2806557296403773  29.305133249865857 3.248719262295082  Z " fill-rule="nonzero" fill="#747483" stroke="none" transform="matrix(1 0 0 1 73 620 )" />
  </g>
</svg>