<?xml version="1.0" encoding="utf-8"?>
<svg version="1.1" xmlns:xlink="http://www.w3.org/1999/xlink" width="33px" height="11px" xmlns="http://www.w3.org/2000/svg">
  <g transform="matrix(1 0 0 1 -73 -526 )">
    <path d="M 4.309788359788359 5.738520408163264  C 4.466934739639309 5.953647485071299  4.545502645502645 6.229555926679755  4.545502645502645 6.566326530612246  C 4.545502645502645 6.959161722092402  4.443652658613901 7.289335837331759  4.239947089947091 7.556887755102041  C 4.036241521280279 7.824375816916121  3.7452387168924646 8.025534153633377  3.366931216931217 8.160204081632653  C 2.9886303479499077 8.29493786558813  2.53756903861986 8.362244897959183  2.013756613756614 8.362244897959183  C 1.567547257573096 8.362244897959183  1.181483139226466 8.328591381773657  0.8555555555555555 8.261224489795918  C 0.5296319386315724 8.19385759781818  0.2444440300081983 8.098431479525404  0 7.975  C 0 7.975  0 7.116326530612245  0 7.116326530612245  C 0.2599646378236263 7.23982186609385  0.5703676469321814 7.352042814501289  0.9312169312169312 7.4530612244897965  C 1.2920622487547537 7.5540796344783026  1.6606697795672811 7.604591836734694  2.0370370370370368 7.604591836734694  C 2.588006225801229 7.604591836734694  2.9876543209876543 7.518581317719959  3.235978835978836 7.346428571428571  C 3.4843033509700176 7.174339681093384  3.6084656084656084 6.940482185000465  3.6084656084656084 6.644897959183674  C 3.6084656084656084 6.476512657217428  3.5589986387384003 6.327775193558258  3.46005291005291 6.198724489795919  C 3.361113804946711 6.069609930077378  3.195236437493111 5.944283766973586  2.9624338624338624 5.8227040816326525  C 2.7296312873746142 5.7011243962917195  2.407587918612902 5.567336962174396  1.9962962962962962 5.421428571428572  C 1.5888917899426118 5.271752750630282  1.2367776672255635 5.123047214949212  0.93994708994709 4.9752551020408164  C 0.6431231436485547 4.827469383291647  0.4141961691451031 4.646942372224769  0.25317460317460316 4.433673469387755  C 0.09215171988889234 4.220410960709968  0.011640211640211642 3.943535416791228  0.011640211640211642 3.603061224489796  C 0.011640211640211642 3.0829888012944435  0.22989660730647873 2.683586237381916  0.6664021164021164 2.4048469387755103  C 1.102910260128176 2.1261076401691046  1.6761875751367532 1.986734693877551  2.386243386243386 1.986734693877551  C 2.770371613679109 1.986734693877551  3.130250850724585 2.023212886991955  3.465873015873016 2.096173469387755  C 3.801501812001385 2.1691276647606674  4.114816886996046 2.2673465391405587  4.405820105820106 2.3908163265306124  C 4.405820105820106 2.3908163265306124  4.07989417989418 3.1372448979591834  4.07989417989418 3.1372448979591834  C 3.8160477249710647 3.028742695503494  3.534743024768863 2.9370764284717796  3.235978835978836 2.862244897959184  C 2.9372146471888088 2.787413367446588  2.6326278659611995 2.75  2.3222222222222224 2.75  C 1.8760128660387043 2.75  1.5335968475072683 2.8210860375644398  1.2949735449735449 2.963265306122449  C 1.0563502424398217 3.1054381805212317  0.937037037037037 3.2999992007300967  0.937037037037037 3.546938775510204  C 0.937037037037037 3.7377563009456716  0.9923294928549039 3.8948975595487223  1.102910052910053 4.018367346938775  C 1.213490612965202 4.14183713432883  1.3910057054415372 4.2578243281565555  1.6354497354497355 4.366326530612245  C 1.8798937654579337 4.474828733067934  2.2019371342196457 4.60203801888187  2.6015873015873017 4.747959183673469  C 3.001230837975019 4.890138452231478  3.346562918742077 5.036992793180504  3.6375661375661372 5.188520408163265  C 3.9285759873701362 5.340041643259477  4.152648610917349 5.523393331255231  4.309788359788359 5.738520408163264  Z M 7.423544973544973 7.312755102040817  C 7.607848117296868 7.503553473543959  7.853263201032366 7.598979591836734  8.15978835978836 7.598979591836734  C 8.318868351150863 7.598979591836734  8.481829656368841 7.585874377140383  8.648677248677249 7.55969387755102  C 8.815518210005719 7.5335133779616585  8.951324823503983 7.501704669485287  9.056084656084657 7.464285714285714  C 9.056084656084657 7.464285714285714  9.056084656084657 8.18826530612245  9.056084656084657 8.18826530612245  C 8.943563853538015 8.2369227205004  8.787391221249965 8.278019319910582  8.587566137566137 8.31173469387755  C 8.387747684862248 8.34538621188832  8.192769373871872 8.362244897959183  8.002645502645501 8.362244897959183  C 7.665076464025642 8.362244897959183  7.35855006196091 8.305180088354616  7.083068783068783 8.191071428571428  C 6.807580873196718 8.07696276878824  6.58738749132375 7.883375237912548  6.4224867724867725 7.610204081632653  C 6.257579422669857 7.33709678130896  6.175132275132275 6.959209592650536  6.175132275132275 6.476530612244898  C 6.175132275132275 6.476530612244898  6.175132275132275 2.8285714285714283  6.175132275132275 2.8285714285714283  L 5.2671957671957665 2.8285714285714283  L 5.2671957671957665 2.3739795918367346  L 6.180952380952381 2.0091836734693875  L 6.565079365079365 0.673469387755102  L 7.147089947089947 0.673469387755102  L 7.147089947089947 2.0989795918367347  L 9.015343915343914 2.0989795918367347  L 9.015343915343914 2.8285714285714283  L 7.147089947089947 2.8285714285714283  C 7.147089947089947 2.8285714285714283  7.147089947089947 6.448469387755102  7.147089947089947 6.448469387755102  C 7.147089947089947 6.833897402497376  7.2392418297930785 7.121956730537675  7.423544973544973 7.312755102040817  Z M 11.317195767195766 2.379591836734694  C 11.73815547667273 2.1176910711794483  12.23388108349351 1.986734693877551  12.804232804232804 1.986734693877551  C 13.347500642645297 1.986734693877551  13.81307598295666 2.1027218877052776  14.201058201058201 2.3346938775510204  C 14.589040419159742 2.5666658673967633  14.88585546988028 2.8912416964161154  15.091534391534392 3.308418367346939  C 15.297147092196887 3.725595038277762  15.4 4.212923171893269  15.4 4.770408163265306  C 15.4 4.770408163265306  15.4 5.348469387755102  15.4 5.348469387755102  C 15.4 5.348469387755102  10.994179894179894 5.348469387755102  10.994179894179894 5.348469387755102  C 11.00583459166202 6.070604150473667  11.192077967729519 6.620576233117759  11.552910052910054 6.998469387755103  C 11.913742138090589 7.376362542392445  12.422068590167548 7.56530612244898  13.077777777777778 7.56530612244898  C 13.481321662485703 7.56530612244898  13.838238509243759 7.529807798554297  14.148677248677249 7.4586734693877546  C 14.459049796721713 7.387602996177415  14.781132892157876 7.2828251274264595  15.114814814814816 7.1443877551020405  C 15.114814814814816 7.1443877551020405  15.114814814814816 7.963775510204082  15.114814814814816 7.963775510204082  C 14.792787579464115 8.1022128825285  14.473673505295311 8.203237279904943  14.157407407407408 8.266836734693877  C 13.84120753051112 8.330436189482812  13.46773108426856 8.362244897959183  13.037037037037036 8.362244897959183  C 12.423973457565173 8.362244897959183  11.88945546360453 8.241562678538212  11.433597883597884 8.000255102040816  C 10.97767408259962 7.75888366958722  10.623660065719902 7.40440781002953  10.371428571428572 6.936734693877551  C 10.119263298128859 6.469061577725573  9.993121693121694 5.896607031789767  9.993121693121694 5.219387755102041  C 9.993121693121694 4.557142457507906  10.108575520187458 3.9837590743084346  10.339417989417989 3.4992346938775514  C 10.570260458648521 3.0147103134466677  10.89616983672719 2.6414989964491657  11.317195767195766 2.379591836734694  Z M 13.688888888888888 2.9829081632653063  C 13.456059819512475 2.827632257889728  13.157331627470686 2.75  12.792592592592593 2.75  C 12.276541137695313 2.75  11.865261948466092 2.912752304596155  11.558730158730159 3.238265306122449  C 11.252198368994227 3.563771913489517  11.069781257992698 4.018362551319356  11.011640211640211 4.6020408163265305  C 11.011640211640211 4.6020408163265305  14.387301587301588 4.6020408163265305  14.387301587301588 4.6020408163265305  C 14.383394614939547 4.235373350389961  14.324216294330686 3.912674264194203  14.20978835978836 3.633928571428571  C 14.095294204254419 3.3551892728221664  13.921651737273685 3.138177674481658  13.688888888888888 2.9829081632653063  Z M 19.121957671957674 2.1242346938775514  C 19.37995027410921 2.032571017336683  19.685539991052483 1.986734693877551  20.03862433862434 1.986734693877551  C 20.834057450336545 1.986734693877551  21.468393095040025 2.2505114029864877  21.941798941798943 2.7780612244897958  C 22.415138567566242 3.3056110459931043  22.651851851851852 4.098811464893575  22.651851851851852 5.15765306122449  C 22.651851851851852 5.857323715313762  22.543193328695953 6.444753838882965  22.325925925925926 6.919897959183674  C 22.1086585231559 7.395105935440583  21.80313505680683 7.7542896089099695  21.40925925925926 7.997448979591836  C 21.015449682703306 8.240672206229904  20.550797795156114 8.362244897959183  20.015343915343916 8.362244897959183  C 19.67775501338683 8.362244897959183  19.380939977467587 8.319239638451817  19.124867724867723 8.233163265306123  C 18.868795472267863 8.147150748116628  18.649565284634814 8.031176328334679  18.46719576719577 7.8852040816326525  C 18.284826249756723 7.739295690886828  18.133482798823604 7.5802521556413085  18.013227513227513 7.408163265306122  C 18.013227513227513 7.408163265306122  17.943386243386243 7.408163265306122  17.943386243386243 7.408163265306122  C 17.954974720801836 7.554071656051947  17.969554991276386 7.729910021412129  17.987037037037037 7.935714285714286  C 18.00451908279769 8.141454694060242  18.013227513227513 8.321046530794936  18.013227513227513 8.474489795918368  C 18.013227513227513 8.474489795918368  18.013227513227513 11  18.013227513227513 11  L 17.04126984126984 11  L 17.04126984126984 2.0989795918367347  L 17.838624338624342 2.0989795918367347  L 17.966666666666665 3.0081632653061225  C 17.966666666666665 3.0081632653061225  18.013227513227513 3.0081632653061225  18.013227513227513 3.0081632653061225  C 18.137389770723104 2.821094015990796  18.288733214255576 2.649918762518435  18.46719576719577 2.494642857142857  C 18.64565832013596 2.3393733459265054  18.86389884881452 2.215904750304968  19.121957671957674 2.1242346938775514  Z M 21.21719576719577 3.415051020408163  C 20.92423907352293 2.9866486607765665  20.475157082101866 2.772448979591837  19.86984126984127 2.772448979591837  C 19.427558756295124 2.772448979591837  19.07156539190383 2.8547635033017116  18.80185185185185 3.019387755102041  C 18.53220453279149 3.1840184010615964  18.335273368606703 3.43002040369981  18.21111111111111 3.7573979591836735  C 18.08694885361552 4.084781908826763  18.02097523788506 4.495412958884726  18.013227513227513 4.989285714285714  C 18.013227513227513 4.989285714285714  18.013227513227513 5.168877551020408  18.013227513227513 5.168877551020408  C 18.013227513227513 5.688975493761958  18.072405834298916 6.128571428571429  18.190740740740743 6.487755102040816  C 18.309075647182567 6.846938775510204  18.505017130210916 7.120111929964858  18.77857142857143 7.307142857142857  C 19.05212572693194 7.494237640277058  19.41979654302042 7.587755102040817  19.881481481481483 7.587755102040817  C 20.277277658183316 7.587755102040817  20.60707951029352 7.484885896955217  20.87089947089947 7.279081632653061  C 21.13478565249704 7.073341224307105  21.331650610491504 6.786172368575115  21.461640211640212 6.417602040816326  C 21.591563591797303 6.049095569013739  21.65661375661376 5.6253593185321  21.65661375661376 5.146428571428571  C 21.65661375661376 4.420577432022614  21.51008626947958 3.84345338003976  21.21719576719577 3.415051020408163  Z M 33 5.505612244897959  L 33 6.347448979591837  L 31.725396825396825 6.347448979591837  L 31.725396825396825 8.25  L 30.782539682539685 8.25  L 30.782539682539685 6.347448979591837  L 26.667724867724868 6.347448979591837  L 26.667724867724868 5.561734693877551  L 30.718518518518522 0  L 31.725396825396825 0  L 31.725396825396825 5.505612244897959  L 33 5.505612244897959  Z M 27.62804232804233 5.505612244897959  L 30.782539682539685 5.505612244897959  C 30.782539682539685 5.505612244897959  30.782539682539685 2.8229591836734698  30.782539682539685 2.8229591836734698  C 30.782539682539685 2.6171804674628643  30.784519035833014 2.431036016243656  30.788359788359788 2.2645408163265306  C 30.79226676072183 2.098039222250179  30.79807238116256 1.942768312311497  30.805820105820104 1.7987244897959183  C 30.813567830477652 1.6546742731211137  30.82036312744941 1.5171780696531543  30.826190476190476 1.3862244897959184  C 30.83201782493154 1.2552773040979088  30.836899988213965 1.1261912754603793  30.840740740740742 0.9989795918367348  C 30.840740740740742 0.9989795918367348  30.794179894179894 0.9989795918367348  30.794179894179894 0.9989795918367348  C 30.720410960229405 1.1486362587027  30.636030808033347 1.3067190857971607  30.54100529100529 1.4732142857142856  C 30.44591356038627 1.6397158797906368  30.34992216268334 1.788440569404031  30.252910052910053 1.9193877551020408  C 30.252910052910053 1.9193877551020408  27.62804232804233 5.505612244897959  27.62804232804233 5.505612244897959  Z " fill-rule="nonzero" fill="#747483" stroke="none" transform="matrix(1 0 0 1 73 526 )" />
  </g>
</svg>