<?xml version="1.0" encoding="utf-8"?>
<svg version="1.1" xmlns:xlink="http://www.w3.org/1999/xlink" width="31px" height="11px" xmlns="http://www.w3.org/2000/svg">
  <g transform="matrix(1 0 0 1 -73 -243 )">
    <path d="M 4.36665398516264 5.716956967213115  C 4.525873837402375 5.932965712469132  4.605478409739395 6.210004926379261  4.605478409739395 6.548155737704919  C 4.605478409739395 6.942600909478026  4.502284560295164 7.274128197320824  4.2958911926954535 7.542776639344262  C 4.089497825095743 7.811360963706762  3.7946553759096875 8.013343719836794  3.411356286855621 8.148565573770492  C 3.0280639162741467 8.283851545365131  2.5710510656395393 8.351434426229508  2.0403271828038805 8.351434426229508  C 1.5882303045499107 8.351434426229508  1.1970722521880548 8.317642985797319  0.8668442077230359 8.25  C 0.5366201823442998 8.182357014202681  0.24766935373061616 8.086539805261165  0 7.962602459016394  C 0 7.962602459016394  0 7.100409836065573  0 7.100409836065573  C 0.26339474864831763 7.224411299971284  0.5778933791093522 7.337092170298425  0.9435038995624881 7.438524590163935  C 1.309110400929341 7.539957010029444  1.6825815343152335 7.590676229508197  2.0639147802929427 7.590676229508197  C 2.6221537477250076 7.590676229508197  3.0270750110963163 7.504313208366352  3.278676050979646 7.331454918032787  C 3.530277090862976 7.158660745360161  3.6560776108046418 6.923844816906204  3.6560776108046418 6.627049180327869  C 3.6560776108046418 6.4579737746650405  3.605957947735191 6.308626731236775  3.5057066768118696 6.179047131147541  C 3.405462116862846 6.049403413397368  3.2373960757556395 5.923563618477576  3.0015217804831655 5.8014856557377055  C 2.765647485210691 5.679407692997834  2.4393549060392195 5.545071949724291  2.0226364846870837 5.398565573770492  C 1.6098564679602545 5.248276327477127  1.253096365413142 5.098961342879332  0.9523492486208864 4.950563524590164  C 0.6516088503012228 4.802172126665792  0.41966129230656246 4.620905250799461  0.2565151226935515 4.406762295081967  C 0.09336761838397638 4.192625759729271  0.011793798744531101 3.914615479974799  0.011793798744531101 3.5727459016393444  C 0.011793798744531101 3.050542034086634  0.23292998464534886 2.6495025744203664  0.6751949781244055 2.3696209016393444  C 1.1174626409965902 2.0897392288583223  1.6983040798807196 1.949795081967213  2.4177287426288756 1.949795081967213  C 2.806925360912013 1.949795081967213  3.1715530348099237 1.9864227758730697  3.5116035761841355 2.0596823770491803  C 3.8516608360309394 2.13293556502608  4.169109955714429 2.2315569757763805  4.4639528248050215 2.355532786885246  C 4.4639528248050215 2.355532786885246  4.133726459958152 3.1050204918032787  4.133726459958152 3.1050204918032787  C 3.8663986754639645 2.996073608189984  3.581382292375667 2.9040316597360083  3.278676050979646 2.828893442622951  C 2.9759698095836256 2.753755225509894  2.6673641493881175 2.716188524590164  2.3528628495339547 2.716188524590164  C 1.9007659712799847 2.716188524590164  1.55383193483063 2.78756589837413  1.312060110329085 2.9303278688524594  C 1.07028828582754 3.073083418965991  0.9494007989347536 3.26844182040522  0.9494007989347536 3.516393442622951  C 0.9494007989347536 3.7079930070970883  1.0054228126371558 3.8657782872517905  1.117462431044322 3.9897540983606556  C 1.2295020494514877 4.113729909469521  1.4093593698760036 4.2301924606490005  1.6570287236066197 4.3391393442622945  C 1.9046980773372357 4.4480862278755895  2.2309906565087076 4.575816863221549  2.6359140194027013 4.722336065573771  C 3.0408306638241025 4.8650980360521  3.3907192385753766 5.012554239054195  3.685562107665969 5.164702868852459  C 3.980411695229154 5.316845092617097  4.207440851395497 5.500948221957097  4.36665398516264 5.716956967213115  Z M 7.521495149324711 7.297643442622951  C 7.708230086160851 7.4892237746650405  7.956883306214854 7.585040983606557  8.267452919916304 7.585040983606557  C 8.428631896759802 7.585040983606557  8.593743399565088 7.571882059013909  8.762792467186609 7.545594262295081  C 8.931834816335535 7.519306465576255  9.069433334067103 7.487367393540554  9.175575423245197 7.449795081967213  C 9.175575423245197 7.449795081967213  9.175575423245197 8.17674180327869  9.175575423245197 8.17674180327869  C 9.061569961761675 8.225598633289337  8.903336705224817 8.266863661385624  8.70087502377782 8.300717213114755  C 8.498420060803415 8.334506647182945  8.300869102930344 8.351434426229508  8.108236636865133 8.351434426229508  C 7.766213533941971 8.351434426229508  7.4556426605269115 8.294135744454431  7.1765265360471755 8.179559426229508  C 6.897403693094846 8.064983108004586  6.6743049633676055 7.87060218560891  6.507228457295035 7.596311475409836  C 6.340145232749872 7.3220848828717005  6.256610233973749 6.942648976226973  6.256610233973749 6.457991803278689  C 6.256610233973749 6.457991803278689  6.256610233973749 2.7950819672131146  6.256610233973749 2.7950819672131146  L 5.3366939319003235 2.7950819672131146  L 5.3366939319003235 2.3386270491803276  L 6.2625071333460145 1.9723360655737703  L 6.651702491915541 0.6311475409836066  L 7.241392429142096 0.6311475409836066  L 7.241392429142096 2.0625  L 9.13429712763934 2.0625  L 9.13429712763934 2.7950819672131146  L 7.241392429142096 2.7950819672131146  C 7.241392429142096 2.7950819672131146  7.241392429142096 6.429815573770492  7.241392429142096 6.429815573770492  C 7.241392429142096 6.816823211524005  7.33476021248857 7.106063110580861  7.521495149324711 7.297643442622951  Z M 11.466520829370364 2.344262295081967  C 11.893034903734504 2.0812881657334628  12.395301376206353 1.949795081967213  12.97317861898421 1.949795081967213  C 13.523614620377813 1.949795081967213  13.995333007789279 2.0662576331466926  14.388434468327944 2.2991803278688527  C 14.781535928866608 2.5321030225910124  15.082267314235317 2.8580090804178204  15.290660072284574 3.2768954918032787  C 15.498985735587452 3.6957819031887365  15.603195739014648 4.185107283253488  15.603195739014648 4.744877049180328  C 15.603195739014648 4.744877049180328  15.603195739014648 5.32530737704918  15.603195739014648 5.32530737704918  C 15.603195739014648 5.32530737704918  11.139242914209625 5.32530737704918  11.139242914209625 5.32530737704918  C 11.151051389929926 6.050401708467411  11.339752159532269 6.602627775056766  11.705345253947119 6.982069672131148  C 12.070938348361969 7.361511569205529  12.585971928301946 7.551229508196721  13.250332889480694 7.551229508196721  C 13.659201345479403 7.551229508196721  14.020827541746792 7.515585699368045  14.335362373977553 7.444159836065573  C 14.64983014145512 7.372798090424042  14.97616297147578 7.267590804178207  15.314247669773634 7.128586065573771  C 15.314247669773634 7.128586065573771  15.314247669773634 7.951331967213115  15.314247669773634 7.951331967213115  C 14.987971436885926 8.09033670581755  14.664646802968376 8.191775137609472  14.344207723035954 8.25563524590164  C 14.023835737849906 8.319495354193807  13.645431445990539 8.351434426229508  13.209054593874834 8.351434426229508  C 12.587901929526753 8.351434426229508  12.046331222657056 8.230257607548614  11.584458816815674 7.987961065573771  C 11.122519316227915 7.745600405937987  10.763834251310442 7.389671776464077  10.508274681377213 6.920081967213115  C 10.252782206190357 6.450492157962152  10.124976222179951 5.875691486838086  10.124976222179951 5.195696721311475  C 10.124976222179951 4.530737303645233  10.24195340805823 3.955003988547403  10.475841734829752 3.4684938524590163  C 10.709730061601274 2.9819837163706295  11.039939660259845 2.6072428447952687  11.466520829370364 2.344262295081967  Z M 13.869507323568575 2.950051229508197  C 13.633606184398914 2.7941389474712435  13.330936414711251 2.716188524590164  12.96138482023968 2.716188524590164  C 12.43852430970945 2.716188524590164  12.021818485493423 2.8796078468281063  11.711242153319384 3.2064549180327866  C 11.400665821145344 3.5332955688726706  11.21584180237246 3.9897492830870585  11.156933612326421 4.575819672131147  C 11.156933612326421 4.575819672131147  14.577135248240442 4.575819672131147  14.577135248240442 4.575819672131147  C 14.573176725220192 4.207649470678444  14.513217574573034 3.8836278472441794  14.397279817386343 3.6037397540983607  C 14.281274965453274 3.323858081317339  14.105341367991858 3.105957091180353  13.869507323568575 2.950051229508197  Z M 19.374262887578467 2.087858606557377  C 19.635659580473803 1.995819259211014  19.945281409648867 1.949795081967213  20.30302453871029 1.949795081967213  C 21.10895301529075 1.949795081967213  21.75165841974156 2.214652843162662  22.231310633441126 2.7443647540983607  C 22.710895752394315 3.27407666503406  22.95073235685752 4.070527905323466  22.95073235685752 5.133709016393443  C 22.95073235685752 5.836247173163409  22.840640135720268 6.426084797239043  22.620505992010653 6.903176229508197  C 22.400371848301035 7.38033177943829  22.090817143865532 7.740987517143208  21.691744340878827 7.985143442622951  C 21.2927386326385 8.229363485763633  20.82195588251503 8.351434426229508  20.27943694122123 8.351434426229508  C 19.937393712873472 8.351434426229508  19.636662342501353 8.308252915658587  19.3772113372646 8.221823770491802  C 19.117760332027846 8.135458742985959  18.895637505434376 8.019009018204903  18.710861708198593 7.872438524590164  C 18.526085910962806 7.725932148636365  18.37274555455194 7.566236795623446  18.250903557161877 7.393442622950819  C 18.250903557161877 7.393442622950819  18.180140764694695 7.393442622950819  18.180140764694695 7.393442622950819  C 18.191882146605902 7.5399489989046184  18.206654796874876 7.716508013303162  18.224367509986685 7.923155737704919  C 18.242080223098494 8.129739344445735  18.250903557161877 8.310067213298193  18.250903557161877 8.464139344262295  C 18.250903557161877 8.464139344262295  18.250903557161877 11  18.250903557161877 11  L 17.26612136199353 11  L 17.26612136199353 2.0625  L 18.073996575993913 2.0625  L 18.203728362183757 2.975409836065574  C 18.203728362183757 2.975409836065574  18.250903557161877 2.975409836065574  18.250903557161877 2.975409836065574  C 18.376704077103543 2.787573909498955  18.53004442601612 2.6156971181025273  18.710861708198593 2.4597848360655736  C 18.891678990381067 2.303878974393417  19.112799099936755 2.1799043599373658  19.374262887578467 2.087858606557377  Z M 21.497146661594066 3.383965163934426  C 21.200324542475112 2.95380705692729  20.745317125916063 2.7387295081967213  20.13201445691459 2.7387295081967213  C 19.68389623413512 2.7387295081967213  19.3232057051489 2.821381386511964  19.049933422103862 2.9866803278688527  C 18.7767282338052 3.1519856895905374  18.577198655760572 3.3989958971575964  18.45139813581891 3.727715163934426  C 18.325597615877243 4.0564408510760535  18.258753509393287 4.468754815273598  18.250903557161877 4.964651639344262  C 18.250903557161877 4.964651639344262  18.250903557161877 5.144979508196721  18.250903557161877 5.144979508196721  C 18.250903557161877 5.667208999883933  18.310862708277682 6.108606557377049  18.430758988015977 6.469262295081967  C 18.550655267754276 6.829918032786885  18.749182106266236 7.104210749349958  19.0263458246148 7.292008196721311  C 19.30350954296336 7.479869761753604  19.676031602116076 7.573770491803279  20.143808255659124 7.573770491803279  C 20.54482677629759 7.573770491803279  20.878980208347265 7.47047969161487  21.146281148944265 7.263831967213115  C 21.413649184287642 7.0572483604722995  21.61311168258248 6.768902583200424  21.744816435229218 6.398821721311475  C 21.876454093129578 6.028804977083467  21.942362564200113 5.603332102624446  21.942362564200113 5.122438524590164  C 21.942362564200113 4.3936125854325425  21.79390171595982 3.8141232709415624  21.497146661594066 3.383965163934426  Z M 31 0  L 31 8.238729508196721  L 30.04470230169298 8.238729508196721  C 30.04470230169298 8.238729508196721  30.04470230169298 2.4006147540983607  30.04470230169298 2.4006147540983607  C 30.04470230169298 2.178957334633082  30.045637942964444 1.9883003886280164  30.047650751379116 1.8286372950819672  C 30.049596466101853 1.6689742015359181  30.053540312263493 1.5224570055476956  30.059444550123644 1.3890881147540985  C 30.065348787983794 1.2557192239605013  30.074239215387628 1.119537525489682  30.085980597298843 0.9805327868852459  C 29.96413859990878 1.1007513661202186  29.850102522885532 1.2031223917268015  29.74396043370744 1.2876536885245902  C 29.637818344529343 1.372184985322379  29.506135591881026 1.4764340249567085  29.348868175765645 1.6004098360655736  C 29.348868175765645 1.6004098360655736  28.3640859805973 2.355532786885246  28.3640859805973 2.355532786885246  L 27.851055735210196 1.71875  L 30.186227886627353 0  L 31 0  Z " fill-rule="nonzero" fill="#747483" stroke="none" transform="matrix(1 0 0 1 73 243 )" />
  </g>
</svg>