<?xml version="1.0" encoding="utf-8"?>
<svg version="1.1" xmlns:xlink="http://www.w3.org/1999/xlink" width="33px" height="12px" xmlns="http://www.w3.org/2000/svg">
  <g transform="matrix(1 0 0 1 -73 -432 )">
    <path d="M 4.373031496062992 6.298023314749113  C 4.532483889362005 6.531161076757912  4.612204724409449 6.830168888886689  4.612204724409449 7.195134313228586  C 4.612204724409449 7.620858116555926  4.508860160046675 7.9789282078073525  4.302165354330709 8.26887987835783  C 4.095470548614742 8.55876234685837  3.800197481170414 8.776508468573793  3.4163385826771653 8.922453117080588  C 3.0324864124688578 9.068466967637322  2.574806093230961 9.141409021794221  2.043307086614173 9.141409021794221  C 1.5905499195489359 9.141409021794221  1.1988205797090303 9.104937994715772  0.8681102362204725 9.031931069437405  C 0.5374039176880844 8.958924144159038  0.24803107554518333 8.855508842023568  0 8.721743537759757  C 0 8.721743537759757  0 7.791180942726813  0 7.791180942726813  C 0.2637794374480961 7.925015449040563  0.5787373940775713 8.0468850848763  0.9448818897637795 8.15636087176888  C 1.3110223604938178 8.26583665866146  1.6850389495609315 8.320577800304106  2.0669291338582676 8.320577800304106  C 2.625983410932886 8.320577800304106  3.031496062992126 8.227112961008775  3.283464566929134 8.040547389761784  C 3.5354330708661417 7.854051020564732  3.661417322834646 7.600614707239134  3.661417322834646 7.280283831728333  C 3.661417322834646 7.097801119557385  3.6112244598508823 6.936611185204361  3.510826771653543 6.796756208819057  C 3.410435804231899 6.656832030383814  3.2421243021807333 6.521013417463887  3.0059055118110236 6.389254941713126  C 2.7696867214413143 6.257496465962367  2.4429175910048597 6.112761615921384  2.0255905511811023 5.954637607704004  C 1.6122076680341104 5.792430755878184  1.2549265163151297 5.631022001364118  0.953740157480315 5.470856563608718  C 0.6525605269304411 5.310698055338872  0.42027420884980926 5.115057116284687  0.25688976377952755 4.883933096806893  C 0.09350398206335354 4.652816006814654  0.011811023622047244 4.352760125463286  0.011811023622047244 3.983781044095286  C 0.011811023622047244 3.420167562385169  0.23327017956831325 2.9873265586887827  0.6761811023622047 2.685250886974151  C 1.119094698447881 2.383175215259519  1.7007844579501417 2.232133806386214  2.421259842519685 2.232133806386214  C 2.8110248836006706 2.232133806386214  3.176185097281388 2.271665995578988  3.5167322834645667 2.3507349214394324  C 3.8572861979326865 2.429796925548122  4.175198952982744 2.536238796506747  4.470472440944882 2.670045615813482  C 4.470472440944882 2.670045615813482  4.139763779527558 3.4789660415610744  4.139763779527558 3.4789660415610744  C 3.8720455620232532 3.3613799105304425  3.5866129116749197 3.262039238706918  3.283464566929134 3.180942726811961  C 2.9803162221833475 3.0998462149170045  2.671259842519685 3.0593005575266092  2.356299212598425 3.0593005575266092  C 1.9035420455331877 3.0593005575266092  1.5561013109102024 3.136337999516916  1.313976377952756 3.2904206791687787  C 1.0718514449953094 3.4444964293350857  0.9507874015748031 3.655346320839141  0.9507874015748031 3.9229599594526103  C 0.9507874015748031 4.129752946516251  1.0068912355918584 4.300050251144355  1.1190944881889764 4.43385707045109  C 1.2312977407860943 4.567663889757824  1.4114177433524544 4.6933616642050495  1.6594488188976377 4.810947795235681  C 1.907479894442821 4.928533926266313  2.2342490248792752 5.066393319084991  2.6397637795275593 5.2245311708058795  C 3.0452718058909016 5.378613850457742  3.3956713939276266 5.537763004912016  3.690944881889764 5.701976685250887  C 3.9862250981368414 5.866183451571805  4.2135858310489205 6.064885552740314  4.373031496062992 6.298023314749113  Z M 7.53248031496063 8.00430816016219  C 7.719487978717473 8.211080389704367  7.968504357525683 8.314242270653827  8.279527559055117 8.314242270653827  C 8.440941938265103 8.314242270653827  8.606294586902528 8.300039872383625  8.775590551181104 8.271667511403953  C 8.944879787174736 8.243295150424283  9.082679267943375 8.208823380467859  9.188976377952756 8.168271667511403  C 9.188976377952756 8.168271667511403  9.188976377952756 8.952863659401926  9.188976377952756 8.952863659401926  C 9.074804411159725 9.005594728202066  8.916340054489496 9.050385403137671  8.713582677165354 9.086923466801824  C 8.510832028126154 9.123392328416038  8.31299254650206 9.141409021794221  8.120078740157481 9.141409021794221  C 7.777556111493448 9.141409021794221  7.466531648410587 9.079820102202486  7.187007874015748 8.956158134820072  C 6.907477371335967 8.832496167437654  6.684052805262288 8.622447845721934  6.516732283464568 8.32640648758236  C 6.349405033381905 8.03043433149273  6.265748031496063 7.620909994891979  6.265748031496063 7.097820577800304  C 6.265748031496063 7.097820577800304  6.265748031496063 3.144450076026356  6.265748031496063 3.144450076026356  L 5.344488188976378 3.144450076026356  L 5.344488188976378 2.651799290420679  L 6.271653543307086 2.2564622402432843  L 6.661417322834645 0.8089204257475925  L 7.251968503937008 0.8089204257475925  L 7.251968503937008 2.3537759756715664  L 9.14763779527559 2.3537759756715664  L 9.14763779527559 3.144450076026356  L 7.251968503937008 3.144450076026356  C 7.251968503937008 3.144450076026356  7.251968503937008 7.067410035478966  7.251968503937008 7.067410035478966  C 7.251968503937008 7.4851065247541015  7.345472651203786 7.797535930620011  7.53248031496063 8.00430816016219  Z M 11.483267716535433 2.657881398884947  C 11.910404715951033 2.37405400148093  12.41340475007305 2.232133806386214  12.992125984251969 2.232133806386214  C 13.543365899033434 2.232133806386214  14.015773232527605 2.3578315808334387  14.409448818897637 2.6092245311708058  C 14.80312440526767 2.860617481508173  15.104295009703147 3.212367170423768  15.312992125984252 3.6644703497212365  C 15.521622049526906 4.116573529018705  15.625984251968504 4.644701331748131  15.625984251968504 5.24885960466295  C 15.625984251968504 5.24885960466295  15.625984251968504 5.8753167764825145  15.625984251968504 5.8753167764825145  C 15.625984251968504 5.8753167764825145  11.155511811023622 5.8753167764825145  11.155511811023622 5.8753167764825145  C 11.167337533057205 6.657909488049608  11.356313900684746 7.254179284104948  11.72244094488189 7.663710086163203  C 12.088567989079031 8.07324088822146  12.60435377706693 8.278003041054232  13.26968503937008 8.278003041054232  C 13.679150648943082 8.278003041054232  14.041305001326434 8.239279335667744  14.356299212598426 8.162189559047137  C 14.671226261168952 8.085168984476468  14.99803570124108 7.971618992630987  15.336614173228346 7.821591485048151  C 15.336614173228346 7.821591485048151  15.336614173228346 8.709832742017232  15.336614173228346 8.709832742017232  C 15.00986141294945 8.85986024960007  14.686064562459629 8.969342525151557  14.365157480314961 9.038266599087683  C 14.044317590908742 9.10719067302381  13.665360638475795 9.141409021794221  13.228346456692915 9.141409021794221  C 12.60628659706416 9.141409021794221  12.063924924595149 9.010876570023441  11.601377952755906 8.749366447034973  C 11.138763788178212 8.487787121996563  10.779554862675704 8.103380716578101  10.523622047244094 7.596553471870248  C 10.267756424550935 7.089726227162396  10.13976377952756 6.4693451314424415  10.13976377952756 5.735428281804359  C 10.13976377952756 5.0177390499279335  10.256911810927503 4.396351353625507  10.491141732283465 3.8712620375063356  C 10.725371653639424 3.346172721387164  11.056063524381381 2.941715725774518  11.483267716535433 2.657881398884947  Z M 13.88976377952756 3.311708058793715  C 13.65351810605507 3.1434322769002625  13.350406286284679 3.0593005575266092  12.98031496062992 3.0593005575266092  C 12.456690810796783 3.0593005575266092  12.039376386507291 3.2356786713404393  11.728346456692913 3.588443993917892  C 11.417316526878537 3.9412023870097883  11.232222572086364 4.433851873336923  11.173228346456693 5.066396350734921  C 11.173228346456693 5.066396350734921  14.598425196850393 5.066396350734921  14.598425196850393 5.066396350734921  C 14.59446089239571 4.669031064883743  14.534414171233891 4.319315241848945  14.418307086614172 4.017232640648759  C 14.302132809256005 3.7151569689341266  14.125942260261596 3.4799769112016126  13.88976377952756 3.311708058793715  Z M 19.40255905511811 2.3811454637607703  C 19.664337518646963 2.2818075993069526  19.974411551407943 2.232133806386214  20.33267716535433 2.232133806386214  C 21.139782702828956 2.232133806386214  21.783426780400315 2.5179942034853333  22.263779527559056 3.0897110998479476  C 22.744065081979347 3.661427996210562  22.984251968503937 4.5210360620327545  22.984251968503937 5.668525088697415  C 22.984251968503937 6.426772970749651  22.87399895735613 7.063383416602651  22.653543307086615 7.578307146477446  C 22.433087656817097 8.09330007840218  22.123080846831556 8.482555020115306  21.723425196850393 8.746071971616828  C 21.323836739607685 9.009658125168288  20.852366409902498 9.141409021794221  20.309055118110233 9.141409021794221  C 19.96651233462837 9.141409021794221  19.665341745211386 9.094803312739561  19.40551181102362 9.001520527116067  C 19.14568187683586 8.908306943542511  18.923234639205333 8.782623012598794  18.738188976377952 8.624429802331475  C 18.553143313550574 8.466305794114096  18.39957900310126 8.29394695206578  18.277559055118108 8.107450582868728  C 18.277559055118108 8.107450582868728  18.20669291338583 8.107450582868728  18.20669291338583 8.107450582868728  C 18.218451443619617 8.265574591086107  18.233245669387458 8.45638776683469  18.250984251968504 8.679422199695894  C 18.26872283454955 8.902387430507158  18.277559055118108 9.097014901363723  18.277559055118108 9.263304612265586  C 18.277559055118108 9.263304612265586  18.277559055118108 12  18.277559055118108 12  L 17.291338582677167 12  L 17.291338582677167 2.3537759756715664  L 18.1003937007874 2.3537759756715664  L 18.23031496062992 3.33907754688292  C 18.23031496062992 3.33907754688292  18.277559055118108 3.33907754688292  18.277559055118108 3.33907754688292  C 18.403543307086615 3.136346645906258  18.557107610026684 2.950840404295885  18.738188976377952 2.782564622402433  C 18.91927034272922 2.6142957699945355  19.140713398850806 2.4804902422325417  19.40255905511811 2.3811454637607703  Z M 21.528543307086615 3.780030410542321  C 21.23128767839567 3.3157617150377754  20.775615722175658 3.08362899138368  20.161417322834644 3.08362899138368  C 19.712644622081847 3.08362899138368  19.351427303524467 3.1728349812309933  19.07775590551181 3.3512417638114544  C 18.804151700237604 3.5296554758774707  18.60433070866142 3.796253047736236  18.47834645669291 4.151039026862646  C 18.35236220472441 4.50583193547461  18.285420472227685 4.950841487028003  18.277559055118108 5.486061834769387  C 18.277559055118108 5.486061834769387  18.277559055118108 5.68068930562595  18.277559055118108 5.68068930562595  C 18.277559055118108 6.244330443407882  18.337605776749257 6.720983274201723  18.45767716535433 7.11023821591485  C 18.577748553959402 7.4994931576279775  18.77656534149891 7.795283260045775  19.05413385826772 7.99797263051191  C 19.331702375036524 8.200731203027988  19.704768503744774 8.302078053725293  20.173228346456696 8.302078053725293  C 20.57483255581593 8.302078053725293  20.909474019929178 8.190596521051777  21.177165354330707 7.967562088190572  C 21.444923881470686 7.7445968573793085  21.644677695326916 7.433385896368554  21.776574803149607 7.033958438925495  C 21.908404718233847 6.634600183532374  21.9744094488189 6.175388249176381  21.9744094488189 5.6563608717688805  C 21.9744094488189 4.869740644204574  21.825731773076097 4.244299106046867  21.528543307086615 3.780030410542321  Z M 32.072834645669296 0.6203750633552965  C 32.513745946208324 1.0339610374825772  32.73425196850393 1.5610753720143817  32.73425196850393 2.201723264064876  C 32.73425196850393 2.599088549916054  32.65941101735032 2.9437439614483023  32.50984251968504 3.23568170299037  C 32.3602068292813 3.5276263740179927  32.15154960211807 3.7658399068578143  31.883858267716533 3.9503294475418143  C 31.616099740576555 4.134818988225814  31.301139110655296 4.263557167265903  30.938976377952756 4.336543335022808  C 30.938976377952756 4.336543335022808  30.938976377952756 4.385200202736948  30.938976377952756 4.385200202736948  C 31.623994722141052 4.474400137018203  32.13877637367549 4.701465511950393  32.48326771653544 5.066396350734921  C 32.827759059395376 5.431320260033895  33 5.909795050565446  33 6.501773948302078  C 33 7.016766880226812  32.88285196860006 7.47315031613303  32.648622047244096 7.870501773948302  C 32.414324933149686 8.267853231763574  32.05605301143616 8.578810740653113  31.573818897637796 8.80385200202737  C 31.091517591100978 9.028893263401624  30.4743821752353 9.141409021794221  29.72244094488189 9.141409021794221  C 29.265739621139886 9.141409021794221  28.843538569653127 9.10390376899669  28.455708661417326 9.028890015205272  C 28.06794594591997 8.953876261413853  27.696888180229607 8.82922655618922  27.34251968503937 8.654840344652813  C 27.34251968503937 8.654840344652813  27.34251968503937 7.706284845413077  27.34251968503937 7.706284845413077  C 27.70078529898576 7.8886983555340855  28.09051967230369 8.031618175322913  28.511811023622048 8.135073492143944  C 28.93303518220196 8.238459606915033  29.340509189395455 8.290167257982768  29.73425196850394 8.290167257982768  C 30.521603141244 8.290167257982768  31.090540668157143 8.128977339097347  31.440944881889763 7.806639635073492  C 31.791349095622383 7.484232728999698  31.966535433070867 7.043085932550367  31.966535433070867 6.483527622909275  C 31.966535433070867 6.098355540272189  31.869068235862912 5.787123821739974  31.674212598425196 5.549923973644197  C 31.47928976824903 5.312717196062864  31.19980840607891 5.138366018644276  30.83562992125984 5.026862645717181  C 30.471451436440777 4.915359272790088  30.03345195139487 4.859604662949822  29.521653543307085 4.859604662949822  C 29.521653543307085 4.859604662949822  28.659448818897637 4.859604662949822  28.659448818897637 4.859604662949822  L 28.659448818897637 3.995945261023822  C 28.659448818897637 3.995945261023822  29.52755905511811 3.995945261023822  29.52755905511811 3.995945261023822  C 29.996086090568483 3.995945261023822  30.393719680665985 3.924988628219241  30.72047244094488 3.783071464774455  C 31.047225201223778 3.6411543013296694  31.296248293298433 3.441459489485001  31.46751968503937 3.1839837810440956  C 31.638791076780304 2.9265080726031902  31.724409448818896 2.6213917797492714  31.724409448818896 2.2686264571718198  C 31.724409448818896 1.8185508639088632  31.578744362658405 1.4708550477837525  31.28740157480315 1.225544855549924  C 30.996058786947895 0.9802346633160954  30.600366397166816 0.8575772934617334  30.1003937007874 0.8575772934617334  C 29.793260889729176 0.8575772934617334  29.513779527559056 0.8900152052711607  29.261811023622045 0.9548910288900152  C 29.00984251968504 1.0197668525088697  28.77360525656873 1.1089728423561835  28.553149606299215 1.22250380131779  C 28.332693956029697 1.336034760279397  28.11225511145404 1.467813343912348  27.891732283464567 1.617840851495185  C 27.891732283464567 1.617840851495185  27.39566929133858 0.9244804865686771  27.39566929133858 0.9244804865686771  C 27.71059633990911 0.6730875362313102  28.09450708224079 0.45615683554152936  28.54724409448819 0.2736948808920426  C 29.00004829947404 0.09123292624255576  29.51382572444405 0  30.088582677165356 0  C 30.97047244094488 0  31.631856182428795 0.20679601871357073  32.072834645669296 0.6203750633552965  Z " fill-rule="nonzero" fill="#747483" stroke="none" transform="matrix(1 0 0 1 73 432 )" />
  </g>
</svg>