<?xml version="1.0" encoding="utf-8"?>
<svg version="1.1" xmlns:xlink="http://www.w3.org/1999/xlink" width="90px" height="15px" xmlns="http://www.w3.org/2000/svg">
  <g transform="matrix(1 0 0 1 -73 -356 )">
    <path d="M 6.170955613067044 5.381891128832532  L 6.170955613067044 3.81841596909208  L 8.45231700766639 3.81841596909208  L 8.45231700766639 5.381891128832532  L 6.170955613067044 5.381891128832532  Z M 10.622344841056693 8.966268760215959  L 10.622344841056693 0.04878894447471395  L 12.431759363250158 0.04878894447471395  L 12.431759363250158 8.966268760215959  L 10.622344841056693 8.966268760215959  Z M 7.745983690609893 8.869186190499777  L 7.745983690609893 0.2971915399474962  L 9.528297280140631 0.2971915399474962  L 9.528297280140631 8.869186190499777  L 7.745983690609893 8.869186190499777  Z M 2.37902241320377 11.124374659468026  L 2.37902241320377 9.59879142107088  L 12.431759363250158 9.59879142107088  L 12.431759363250158 14.983902124919512  L 10.53664729723131 14.983902124919512  L 10.53664729723131 11.124374659468026  L 2.37902241320377 11.124374659468026  Z M 1.6270325699497046 1.4176036455495566  C 2.132057224588298 1.1109125514377414  2.709894713506061 0.9576997374808065  3.360759802724742 0.9576997374808065  C 4.011624891943424 0.9576997374808065  4.588610112035499 1.1109125514377414  5.091801357488158 1.4176036455495566  C 5.595159265665438 1.724294739661372  5.992805648230734 2.1509871968684986  6.284486547194687 2.6977562038733964  C 6.5761674461586415 3.2443561541673374  6.722007910542507 3.8731659160774434  6.722007910542507 4.583931844073506  C 6.722007910542507 5.294866828780524  6.5761674461586415 5.92358613688534  6.284486547194687 6.470355143890237  C 5.992805648230734 7.016955094184178  5.595391675523555 7.443602747735076  5.092533815127692 7.750260042597454  C 4.5898426174564495 8.05695113670927  4.0109979396767725 8.210411610282828  3.35563259924801 8.210411610282828  C 2.706100871433847 8.210411610282828  2.129348120807443 8.05695113670927  1.625323502124127 7.750260042597454  C 1.1214655461654317 7.443602747735076  0.7244390225677065 7.016955094184178  0.434591532789687 6.470355143890237  C 0.14474404301166746 5.92358613688534  0 5.294866828780524  0 4.583931844073506  C 0 3.8731659160774434  0.14474404301166746 3.2443561541673374  0.434591532789687 2.6977562038733964  C 0.7244390225677065 2.1509871968684986  1.1220079153111113 1.724294739661372  1.6270325699497046 1.4176036455495566  Z M 4.216758630792519 2.8262915449006885  C 3.968746524879526 2.6626327826792666  3.6834422335551817 2.580860864827381  3.360759802724742 2.580860864827381  C 3.038244064422701 2.580860864827381  2.752939758196468 2.6626327826792666  2.504760974656966 2.8262915449006885  C 2.256582191117463 2.98995030712211  2.0616117341716667 3.2203767657356726  1.9197714732164657 3.517261875278617  C 1.7780978898877737 3.8141469848215612  1.7071146052053323 4.169712881966587  1.7071146052053323 4.583931844073506  C 1.7071146052053323 4.998319862891379  1.7780978898877737 5.354828873976857  1.9197714732164657 5.653573728267869  C 2.0616117341716667 5.952318582558881  2.25735697012126 6.183609552207228  2.507202500122076 6.347268314428649  C 2.7570480301228923 6.510927076650071  3.0399505095158457 6.592698994501957  3.35563259924801 6.592698994501957  C 3.6818151857256978 6.592698994501957  3.968746524879526 6.510927076650071  4.216758630792519 6.347268314428649  C 4.464937414332021 6.183609552207228  4.659830396357816 5.952318582558881  4.801503979686508 5.653573728267869  C 4.943344240641709 5.354828873976857  5.014405000244152 4.998319862891379  5.014405000244152 4.583931844073506  C 5.014405000244152 4.169712881966587  4.943344240641709 3.8141469848215612  4.801503979686508 3.517261875278617  C 4.659830396357816 3.2203767657356726  4.464937414332021 2.98995030712211  4.216758630792519 2.8262915449006885  Z M 20.233653987011085 2.043439496755659  C 20.233653987011085 2.043439496755659  20.233653987011085 0.9510129278319878  20.233653987011085 0.9510129278319878  L 21.887787489623516 0.9510129278319878  C 21.887787489623516 0.9510129278319878  21.887787489623516 2.043439496755659  21.887787489623516 2.043439496755659  C 21.887787489623516 2.6926643076443235  21.793756332706675 3.3178470291681115  21.605547145856733 3.91871811382436  C 21.4175379721586 4.519589198480609  21.14673554335577 5.08357157672495  20.793251623614434 5.610728614592104  C 20.439701032822494 6.137716595748303  20.014799542652685 6.613301632338077  19.5187753308267 7.037495665956709  C 19.022751119000713 7.461655900325905  18.46598043031505 7.824520681899797  17.848283607598027 8.126207340631037  C 17.230786768229038 8.427623484439236  16.56559297643699 8.652435292153214  15.852824844963132 8.800336817078607  C 15.852824844963132 8.800336817078607  15.034181356511548 7.193273564812522  15.034181356511548 7.193273564812522  C 15.654211636195921 7.077630392727689  16.23186082484649 6.90050951491801  16.767420284193566 6.662291346772995  C 17.302913102293815 6.424073178627981  17.78400767797767 6.133727619213278  18.21036183407393 5.791024815493586  C 18.636849332271396 5.448322011773892  19.00095224857819 5.074149295263278  19.302700327164413 4.668383773341919  C 19.604381734700027 4.26261825142056  19.83491003562815 3.8352066380903587  19.994384491430246 3.386497597701719  C 20.153925618282944 2.937788557313079  20.233653987011085 2.4901197054533872  20.233653987011085 2.043439496755659  Z M 20.60867229845207 2.043439496755659  C 20.60867229845207 2.043439496755659  20.60867229845207 0.9510129278319878  20.60867229845207 0.9510129278319878  L 22.257434445041262 0.9510129278319878  C 22.257434445041262 0.9510129278319878  22.257434445041262 2.043439496755659  22.257434445041262 2.043439496755659  C 22.257434445041262 2.4973896579665906  22.337229484820007 2.949797751095894  22.4967039406221 3.400366536232602  C 22.656245067474803 3.85093532136931  22.886950849898827 4.280075956769079  23.188632257434442 4.687701223438506  C 23.49031366497006 5.0951574333969765  23.854128289335648 5.466489017650391  24.280482445431904 5.801921838624994  C 24.706836601528167 6.1373546595995965  25.187864535965193 6.425185334163444  25.72342399531227 6.665263262172471  C 26.258916813412522 6.905172118354596  26.840419153652828 7.081180840628811  27.467649787587284 7.193273564812522  C 27.467649787587284 7.193273564812522  26.643390790565945 8.800336817078607  26.643390790565945 8.800336817078607  C 25.930689300338916 8.652435292153214  25.266514440097172 8.427623484439236  24.650617705942672 8.126207340631037  C 24.034787613035 7.824520681899797  23.478902543602214 7.463306289257919  22.98281166072562 7.0426965179057905  C 22.486787448899634 6.622052947304225  22.060933698230123 6.148365959263089  21.705649689926265 5.6213779781068896  C 21.350432352673014 5.0943899969506905  21.07881100547169 4.529700313482899  20.890668489672347 3.9271385407895383  C 20.702659315974216 3.3244076509214486  20.60867229845207 2.696383857604234  20.60867229845207 2.043439496755659  Z M 14.652082621221739 13  L 14.652082621221739 11.522611322997673  L 27.98329996581864 11.522611322997673  L 27.98329996581864 13  L 14.652082621221739 13  Z M 29.793446945651645 11.435682797563029  L 29.793446945651645 9.855862103125464  C 29.793446945651645 9.855862103125464  30.818399335905074 9.855862103125464  30.818399335905074 9.855862103125464  C 31.7109095798211 9.855862103125464  32.57572341159694 9.832392688834169  33.412764295131595 9.785526772004557  C 34.25000516201429 9.738728483905703  35.13773446274232 9.634295900082115  36.07598027247424 9.471989697359948  C 36.07598027247424 9.471989697359948  36.231017139508765 11.030016345534698  36.231017139508765 11.030016345534698  C 35.26810345830638 11.206930112245917  34.355510058035826 11.318796837959892  33.493334635480245 11.365595126058746  C 32.631092512070296 11.412461042888356  31.739444312619028 11.435682797563029  30.818399335905074 11.435682797563029  C 30.818399335905074 11.435682797563029  29.793446945651645 11.435682797563029  29.793446945651645 11.435682797563029  Z M 29.766834318081937 3.098717123185893  L 29.766834318081937 1.562484521273961  L 34.983885931930274 1.562484521273961  L 34.983885931930274 7.1241765317747285  L 31.63484545143806 7.1241765317747285  L 31.63484545143806 10.469067313883798  L 29.793446945651645 10.469067313883798  L 29.793446945651645 5.604041804943286  L 33.15298598564383 5.604041804943286  L 33.15298598564383 3.098717123185893  L 29.766834318081937 3.098717123185893  Z M 41 14.967556590222399  L 41 0.03789192134330576  L 42 0.03789192134330576  L 42 14.967556590222399  L 41 14.967556590222399  Z M 35.61233458664974 6.777700728119273  L 35.61233458664974 5.197880033681708  L 37.921529371551344 5.197880033681708  L 37.921529371551344 6.777700728119273  L 35.61233458664974 6.777700728119273  Z M 38 14.237703700034672  L 38 0.33483580167417903  L 39 0.33483580167417903  L 39 14.237703700034672  L 38 14.237703700034672  Z M 54 15  L 54 0.026747238595274652  L 56 0.026747238595274652  L 56 15  L 54 15  Z M 46.39777332877581 1.7524394472237357  C 46.977601650433066 1.319453829765745  47.63562155372958 1.1028282728218337  48.371990819864244 1.1028282728218337  C 49.11189362187714 1.1028282728218337  49.77086575586958 1.319453829765745  50.3488939889643 1.7524394472237357  C 50.927122205407066 2.1854250646817266  51.38078422179427 2.7979857316135957  51.70980028321695 3.5900738025657533  C 52.03894968674084 4.381992816806956  52.20347673226231 5.317228146167158  52.20347673226231 6.396057258903363  C 52.20347673226231 7.482325350631842  52.03894968674084 8.42324300497022  51.70980028321695 9.218881569171332  C 51.38078422179427 10.014520133372443  50.927122205407066 10.6290126178705  50.3488939889643 11.061964436079052  C 49.77086575586958 11.494780996826087  49.11189362187714 11.71108029124771  48.371990819864244 11.71108029124771  C 47.63562155372958 11.71108029124771  46.977601650433066 11.494780996826087  46.39777332877581 11.061964436079052  C 45.81787836587174 10.6290126178705  45.36333076003543 10.014520133372443  45.03418135651155 9.218881569171332  C 44.705165295088875 8.42324300497022  44.540504907466186 7.482325350631842  44.540504907466186 6.396057258903363  C 44.540504907466186 5.317228146167158  44.705165295088875 4.381992816806956  45.03418135651155 3.5900738025657533  C 45.36333076003543 2.7979857316135957  45.81787836587174 2.1854250646817266  46.39777332877581 1.7524394472237357  Z M 49.41769617657112 3.264649066323245  C 49.11801487074984 2.989235731129885  48.769410216858965 2.8515528257962255  48.371990819864244 2.8515528257962255  C 47.97463809392014 2.8515528257962255  47.62610011107987 2.989235731129885  47.32628546315738 3.264649066323245  C 47.026604157336095 3.539893344805649  46.79240015651037 3.941432116402342  46.62385858684506 4.469265441577096  C 46.455383688230356 4.996929710040895  46.37116070120611 5.6391355233086395  46.37116070120611 6.396057258903363  C 46.37116070120611 7.1531142519596065  46.455383688230356 7.798161257948325  46.62385858684506 8.33126950319481  C 46.79240015651037 8.864310149942419  47.026604157336095 9.270588132576837  47.32628546315738 9.549754816979542  C 47.62610011107987 9.82871861518997  47.97463809392014 9.968051909455644  48.371990819864244 9.968051909455644  C 48.769410216858965 9.968051909455644  49.11801487074984 9.82871861518997  49.41769617657112 9.549754816979542  C 49.717310811341804 9.270588132576837  49.95133733067163 8.864310149942419  50.11987890033693 8.33126950319481  C 50.28835379895163 7.798161257948325  50.37257678597588 7.1531142519596065  50.37257678597588 6.396057258903363  C 50.37257678597588 5.6391355233086395  50.28835379895163 4.996929710040895  50.11987890033693 4.469265441577096  C 49.95133733067163 3.941432116402342  49.717310811341804 3.539893344805649  49.41769617657112 3.264649066323245  Z M 66.55671663655453 2.3817425330625586  C 66.55671663655453 2.3817425330625586  66.55671663655453 2.187329734013572  66.55671663655453 2.187329734013572  L 67.98598564383026 2.187329734013572  C 67.98598564383026 2.187329734013572  67.98598564383026 2.3817425330625586  67.98598564383026 2.3817425330625586  C 67.98598564383026 2.9550553785283755  67.82774600324188 3.4816669122302057  67.51159724595927 3.961315567883501  C 67.19544848867666 4.44079516682584  66.73250986767313 4.843591403521875  66.12261340885786 5.169894497003319  C 65.51271695004257 5.496197590484762  64.7646731269494 5.722277807241103  63.878363201328185 5.848234186933478  C 63.878363201328185 5.848234186933478  63.25235607207384 4.469265441577096  63.25235607207384 4.469265441577096  C 63.956857112487945 4.383040268546707  64.55314874288143 4.238339023135665  65.04150593290687 4.03511813363713  C 65.53006313608414 3.831897244138594  65.90477151804134 3.58641238852415  66.1655842570438 3.2988260934172073  C 66.42639699604625 3.0110707113674215  66.55671663655453 2.7053405377773787  66.55671663655453 2.3817425330625586  Z M 67.02304800039065 2.3817425330625586  C 67.02304800039065 2.3817425330625586  67.02304800039065 2.187329734013572  67.02304800039065 2.187329734013572  L 68.44670149909663 2.187329734013572  C 68.44670149909663 2.187329734013572  68.44670149909663 2.3817425330625586  68.44670149909663 2.3817425330625586  C 68.44670149909663 2.6909696592300416  68.5760914107611 2.981484305587588  68.83490404804922 3.2530090643419687  C 69.09398336953976 3.5245338230963488  69.46698724364936 3.7546340343035656  69.9536110161629 3.9434840754866514  C 70.44036813077764 4.1321650448428375  71.02151547822236 4.267961760085454  71.69734850334488 4.350636485214721  C 71.69734850334488 4.350636485214721  71.07158552663704 5.735053742136807  71.07158552663704 5.735053742136807  C 70.20654327870929 5.612647810345555  69.47169501856322 5.394607627838798  68.86713218418868 5.080984694635692  C 68.26276933316217 4.76719270472163  67.80425865940416 4.376770863000892  67.49157673714537 3.9098023676259346  C 67.17909479823463 3.4428338722509784  67.02304800039065 2.933414547467835  67.02304800039065 2.3817425330625586  Z M 63.615410908735775 2.513002129872703  L 63.615410908735775 1.1288325325672395  L 71.37726451486888 1.1288325325672395  L 71.37726451486888 2.513002129872703  L 63.615410908735775 2.513002129872703  Z M 66.55158943307778 7.298528901877259  L 66.55158943307778 5.28134132448363  L 68.45720005859661 5.28134132448363  L 68.45720005859661 7.298528901877259  L 66.55158943307778 7.298528901877259  Z M 66.55158943307778 1.8624003170043093  L 66.55158943307778 0  L 68.44670149909663 0  L 68.44670149909663 1.8624003170043093  L 66.55158943307778 1.8624003170043093  Z M 64.76756677572146 10.288028134132448  L 64.76756677572146 8.882312150180791  L 74.56492016211729 8.882312150180791  L 74.56492016211729 12.495913616325723  L 66.6731774012403 12.495913616325723  L 66.6731774012403 14.067313883798107  L 64.79393525074467 14.067313883798107  L 64.79393525074467 11.165981475060677  L 72.69178182528444 11.165981475060677  L 72.69178182528444 10.288028134132448  L 64.76756677572146 10.288028134132448  Z M 64.79393525074467 14.859824656991432  L 64.79393525074467 13.438010797959286  L 75.0927779676742 13.438010797959286  L 75.0927779676742 14.859824656991432  L 64.79393525074467 14.859824656991432  Z M 72.66492504516822 8.304026945366289  L 72.66492504516822 0.04878894447471395  L 74.56492016211729 0.04878894447471395  L 74.56492016211729 8.304026945366289  L 72.66492504516822 8.304026945366289  Z M 73.87543337077005 4.888057853286442  L 73.87543337077005 3.319134181980286  L 76.50446799160116 3.319134181980286  L 76.50446799160116 4.888057853286442  L 73.87543337077005 4.888057853286442  Z M 65.90702671028859 8.036059240180295  C 64.9133115401753 8.05398054962332  63.98989197728085 8.063054138392193  63.136383612481076 8.063054138392193  C 63.136383612481076 8.063054138392193  62.92226182919088 6.619198573480609  62.92226182919088 6.619198573480609  C 63.79717121378531 6.619198573480609  64.74479096727136 6.613135205801272  65.76517408076566 6.60062410223389  C 66.78575723721556 6.587943929673847  67.82207201966038 6.554502615384712  68.87445676058401 6.500569617118233  C 69.92684150150764 6.446467547024853  70.93661017841447 6.358227418739591  71.90365740514673 6.235821486948339  C 71.90365740514673 6.235821486948339  72.0374530006348 7.5333102184357825  72.0374530006348 7.5333102184357825  C 71.03120391143824 7.695481163696428  70.00635762263325 7.815343142677673  68.96283998242102 7.892911981772252  C 67.91945574391755 7.970345570963283  66.90074188040188 8.017935046434484  65.90702671028859 8.036059240180295  Z M 84.25118413985058 3.5962652929813266  L 84.25118413985058 2.049135667937986  L 88.64080277357293 2.049135667937986  L 88.64080277357293 3.5962652929813266  L 84.25118413985058 3.5962652929813266  Z M 84.25118413985058 6.950319480905444  L 84.25118413985058 5.397741344296398  L 88.64080277357293 5.397741344296398  L 88.64080277357293 6.950319480905444  L 84.25118413985058 6.950319480905444  Z M 79.77196152155867 1.330675120114914  C 80.35532331948657 1.0167140432580086  81.00986756584108 0.8596265292981327  81.73543630060063 0.8596265292981327  C 82.46813874836342 0.8596265292981327  83.12445411400856 1.0167140432580086  83.7042824356658 1.330675120114914  C 84.28417739856988 1.6446361969718195  84.74381692021018 2.073226672495697  85.08350017090679 2.616276190004458  C 85.42331676370459 3.159325707513219  85.59329068802188 3.784339311862276  85.59329068802188 4.491554807073159  C 85.59329068802188 5.19505075232413  85.42331676370459 5.818413997973061  85.08350017090679 6.361632572192779  C 84.74381692021018 6.90468208970154  84.28417739856988 7.332374254941197  83.7042824356658 7.64450938629947  C 83.12445411400856 7.956610688176421  82.46813874836342 8.112586061716778  81.73543630060063 8.112586061716778  C 81.00986756584108 8.112586061716778  80.35532331948657 7.956610688176421  79.77196152155867 7.64450938629947  C 79.18859972363076 7.332374254941197  78.72694487054574 6.90468208970154  78.38712827774793 6.361632572192779  C 78.04744502705134 5.818413997973061  77.87758191317936 5.19505075232413  77.87758191317936 4.491554807073159  C 77.87758191317936 3.784339311862276  78.04744502705134 3.159325707513219  78.38712827774793 2.616276190004458  C 78.72694487054574 2.073226672495697  79.18859972363076 1.6446361969718195  79.77196152155867 1.330675120114914  Z M 82.79432589481908 2.7341621675169647  C 82.4857774882864 2.574053853196667  82.13278902654473 2.4939323393927384  81.73543630060063 2.4939323393927384  C 81.34521725785599 2.4939323393927384  80.99572701451602 2.574053853196667  80.68704526588212 2.7341621675169647  C 80.37856353040004 2.894101410010363  80.13470632442362 3.123415728204406  79.95556423653498 3.4221605824954184  C 79.77635549249764 3.7209054367864307  79.6867522828263 4.077335844966241  79.6867522828263 4.491554807073159  C 79.6867522828263 4.8985038166668735  79.77635549249764 5.251307154228479  79.95556423653498 5.550052008519491  C 80.13470632442362 5.848796862810503  80.37856353040004 6.079301924329733  80.68704526588212 6.241269998514043  C 80.99572701451602 6.403069000871453  81.34521725785599 6.483976422804497  81.73543630060063 6.483976422804497  C 82.13278902654473 6.483976422804497  82.4857774882864 6.403069000871453  82.79432589481908 6.241269998514043  C 83.10294097240237 6.079301924329733  83.3448936573794 5.848796862810503  83.52043556814297 5.550052008519491  C 83.69611080610586 5.251307154228479  83.7838761658284 4.8985038166668735  83.7838761658284 4.491554807073159  C 83.7838761658284 4.077335844966241  83.69611080610586 3.7209054367864307  83.52043556814297 3.4221605824954184  C 83.3448936573794 3.123415728204406  83.10294097240237 2.894101410010363  82.79432589481908 2.7341621675169647  Z M 88.03579276331851 8.81420575560949  L 88.03579276331851 0.04878894447471395  L 89.94677474486059 0.04878894447471395  L 89.94677474486059 8.81420575560949  L 88.03579276331851 8.81420575560949  Z M 82.33800478538991 9.476942889692408  C 83.0850412407985 9.244168743677909  83.97232724013776 9.127742830254098  85.00024415254651 9.127742830254098  C 86.02822770620209 9.127742830254098  86.91504977993844 9.244168743677909  87.66028614678451 9.476942889692408  C 88.40565585573178 9.709581778245385  88.98173295471885 10.04253182063291  89.3888861760828 10.475754123532617  C 89.79623941059859 10.908705941741172  90 11.43179092584839  90 12.04517311407202  C 90 12.65855530229565  89.79623941059859 13.18440284598629  89.3888861760828 13.622764871959978  C 88.98173295471885 14.06132975389406  88.40565585573178 14.395178106565805  87.66028614678451 14.62430036158304  C 86.91504977993844 14.853354987869515  86.02822770620209 14.967804249839022  85.00024415254651 14.967804249839022  C 83.97232724013776 14.967804249839022  83.0850412407985 14.853354987869515  82.33800478538991 14.62430036158304  C 81.59096832998132 14.395178106565805  81.01358400750273 14.06132975389406  80.60623077298696 13.622764871959978  C 80.1988775384712 13.18440284598629  79.9953611016163 12.65855530229565  79.9953611016163 12.04517311407202  C 79.9953611016163 11.43179092584839  80.1988775384712 10.908705941741172  80.60623077298696 10.475754123532617  C 81.01358400750273 10.04253182063291  81.59096832998132 9.709581778245385  82.33800478538991 9.476942889692408  Z M 86.70760291029836 10.78780524047749  C 86.24438028909759 10.67993924394453  85.67521042420742 10.626083510822726  85.00024415254651 10.626083510822726  C 84.3324782351357 10.626083510822726  83.76426063074521 10.67993924394453  83.2955710728063 10.78780524047749  C 82.82694818591797 10.895671237010447  82.4721669375393 11.053937628279943  82.23082181747156 11.262568725543613  C 81.98961003950502 11.471199822807282  81.86898774354216 11.73205738123367  81.86898774354216 12.04517311407202  C 81.86898774354216 12.354704584643866  81.98961003950502 12.616392824623713  82.23082181747156 12.830501758383278  C 82.4721669375393 13.044475434681324  82.82694818591797 13.20550438553424  83.2955710728063 13.31343801079796  C 83.76426063074521 13.421101128696609  84.3324782351357 13.474912080836098  85.00024415254651 13.474912080836098  C 85.67521042420742 13.474912080836098  86.24438028909759 13.421101128696609  86.70760291029836 13.31343801079796  C 87.17095887360031 13.20550438553424  87.52343831662351 13.044475434681324  87.76478343669125 12.830501758383278  C 88.00612855675898 12.616392824623713  88.12661751062065 12.354704584643866  88.12661751062065 12.04517311407202  C 88.12661751062065 11.73205738123367  88.00612855675898 11.471199822807282  87.76478343669125 11.262568725543613  C 87.52343831662351 11.053937628279943  87.17095887360031 10.895671237010447  86.70760291029836 10.78780524047749  Z " fill-rule="nonzero" fill="#26262c" stroke="none" transform="matrix(1 0 0 1 73 356 )" />
  </g>
</svg>