<?xml version="1.0" encoding="utf-8"?>
<svg version="1.1" xmlns:xlink="http://www.w3.org/1999/xlink" width="75px" height="15px" xmlns="http://www.w3.org/2000/svg">
  <g transform="matrix(1 0 0 1 -177 -875 )">
    <path d="M 10 15  L 10 0  L 12 0  L 12 15  L 10 15  Z M 1.8631988424617938 1.72877487222746  C 2.4449885147125077 1.2950157976053502  3.105407855785966 1.0780032749466582  3.8442255370435086 1.0780032749466582  C 4.586555071711272 1.0780032749466582  5.247506743760095 1.2950157976053502  5.827456910770919 1.72877487222746  C 6.407574294657051 2.1625339468495697  6.8627781608464495 2.775940750039541  7.192888195004687 3.569443755272168  C 7.5231654759411075 4.362777401801996  7.688206109737496 5.299931476354327  7.688206109737496 6.380687738798194  C 7.688206109737496 7.468896268739456  7.5231654759411075 8.411494716783793  7.192888195004687 9.208554557634098  C 6.8627781608464495 10.005614398484408  6.407574294657051 10.620956470113011  5.827456910770919 11.054681685108918  C 5.247506743760095 11.488271401028229  4.586555071711272 11.70520518037017  3.8442255370435086 11.70520518037017  C 3.105407855785966 11.70520518037017  2.4449885147125077 11.488271401028229  1.8631988424617938 11.054681685108918  C 1.2814091702110797 10.620956470113011  0.8253502313197076 10.005614398484408  0.4950729503832875 9.208554557634098  C 0.16496291622505038 8.411494716783793  0 7.468896268739456  0 6.380687738798194  C 0 5.299931476354327  0.16496291622505038 4.362777401801996  0.4950729503832875 3.569443755272168  C 0.8253502313197076 2.775940750039541  1.2814091702110797 2.1625339468495697  1.8631988424617938 1.72877487222746  Z M 4.893162881695284 3.243685803602441  C 4.592485140695402 2.9677804880554386  4.242899453955327 2.829851634992309  3.8442255370435086 2.829851634992309  C 3.4455516201316905 2.829851634992309  3.095643221567881 2.9677804880554386  2.7947982636926905 3.243685803602441  C 2.4941205226928083 3.5194217604466456  2.2593493155836417 3.921677814620497  2.090280794468378 4.450454026695778  C 1.9212122733531147 4.979060880068259  1.8367426927134536 5.622413887762523  1.8367426927134536 6.380687738798194  C 1.8367426927134536 7.13909708891046  1.9212122733531147 7.785296364646392  2.090280794468378 8.319356919565326  C 2.2593493155836417 8.85334975523185  2.4941205226928083 9.26010538424025  2.7947982636926905 9.539770753733935  C 3.095643221567881 9.819232874612728  3.4455516201316905 9.959063166774177  3.8442255370435086 9.959063166774177  C 4.242899453955327 9.959063166774177  4.592485140695402 9.819232874612728  4.893162881695284 9.539770753733935  C 5.193840622695166 9.26010538424025  5.428611829804332 8.85334975523185  5.597680350919596 8.319356919565326  C 5.76674887203486 7.785296364646392  5.851463417024043 7.13909708891046  5.851463417024043 6.380687738798194  C 5.851463417024043 5.622413887762523  5.76674887203486 4.979060880068259  5.597680350919596 4.450454026695778  C 5.428611829804332 3.921677814620497  5.193840622695166 3.5194217604466456  4.893162881695284 3.243685803602441  Z M 22.20601828413905 5.516300302684464  L 22.20601828413905 3.9552423956731007  L 25.72003187802735 3.9552423956731007  L 25.72003187802735 5.516300302684464  L 22.20601828413905 5.516300302684464  Z M 25 10.944772490448072  L 25 0.027291222150548307  L 27 0.027291222150548307  L 27 10.944772490448072  L 25 10.944772490448072  Z M 16.95349270169548 14.696819332109364  L 16.95349270169548 13  L 26.97547416932589 13  L 26.97547416932589 14.696819332109364  L 16.95349270169548 14.696819332109364  Z M 16.95349270169548 14.034386939909691  L 16.95349270169548 10.012653202997072  L 18.865439449712085 10.012653202997072  L 18.865439449712085 14.034386939909691  L 16.95349270169548 14.034386939909691  Z M 17.82385103554596 2.969533071999206  C 17.82385103554596 2.969533071999206  17.82385103554596 1.9528109958815068  17.82385103554596 1.9528109958815068  L 19.381334369804716 1.9528109958815068  C 19.381334369804716 1.9528109958815068  19.381334369804716 2.969533071999206  19.381334369804716 2.969533071999206  C 19.381334369804716 3.8987022713739887  19.225367972655395 4.7817350346024785  18.91345246221833 5.618766436758795  C 18.601603844511967 6.455797838915112  18.138969921337864 7.187076179240528  17.52523949347905 7.812732595643328  C 16.91164285108163 8.438389012046128  16.147649999422036 8.912011254770148  15.233108075004818 9.233612861608695  C 15.233108075004818 9.233612861608695  14.271623003132277 7.69463603433732  14.271623003132277 7.69463603433732  C 14.86448325784774 7.488477672175049  15.382986396380106 7.222058594283032  15.82714662259486 6.8950032253262545  C 16.27130684880961 6.567947856369477  16.642240855659452 6.192937353222458  16.939774698122267 5.7703567707041135  C 17.23737543331578 5.34760679919708  17.458962328407896 4.897957292968556  17.604852907073592 4.421177988388825  C 17.750810378469986 3.944398683809095  17.82385103554596 3.460539537334314  17.82385103554596 2.969533071999206  Z M 18.221428174819625 2.9640748275690965  C 18.221428174819625 2.9640748275690965  18.221428174819625 1.9528109958815068  18.221428174819625 1.9528109958815068  L 19.757354646320472 1.9528109958815068  C 19.757354646320472 1.9528109958815068  19.757354646320472 2.9640748275690965  19.757354646320472 2.9640748275690965  C 19.757354646320472 3.563478706741087  19.88199903814493 4.155017461148775  20.131170243690537 4.738500471393838  C 20.380475234697535 5.321814122936101  20.75920632641612 5.846677579601982  21.267314896772024 6.312955887460924  C 21.775356604300107 6.779064806331176  22.407796543188134 7.145851569477869  23.164808748166852 7.413288344167122  C 23.164808748166852 7.413288344167122  22.22512550340174 8.920011908896939  22.22512550340174 8.920011908896939  C 21.342825336929323 8.612569713275473  20.60460086890003 8.159759056595947  20.010402819376353 7.561405249838733  C 19.416472340775467 6.962848224752518  18.969787743781634 6.265688818429639  18.67044782749284 5.470153327048082  C 18.371107911204046 4.674448476963727  18.221428174819625 3.839045304882492  18.221428174819625 2.9640748275690965  Z M 14.808339892934248 2.6326105294497095  L 14.808339892934248 1.088175457748226  L 22.730486956464937 1.088175457748226  L 22.730486956464937 2.6326105294497095  L 14.808339892934248 2.6326105294497095  Z M 44 14.978415124299111  L 44 0.021832977720438643  L 46 0.021832977720438643  L 46 14.978415124299111  L 44 14.978415124299111  Z M 39.71631495229728 7.229940951719347  L 39.71631495229728 5.532923137994343  L 41.82643785907691 5.532923137994343  L 41.82643785907691 7.229940951719347  L 39.71631495229728 7.229940951719347  Z M 41 14.252716717114076  L 41 0.32501364561107526  L 43 0.32501364561107526  L 43 14.252716717114076  L 41 14.252716717114076  Z M 33.37296312143373 3.3047189004118493  L 33.37296312143373 1.7602838287103657  L 40.09551976535682 1.7602838287103657  L 40.09551976535682 3.3047189004118493  L 33.37296312143373 3.3047189004118493  Z M 35.47402234728106 11.473477894110058  C 34.65540298392988 11.495089631503447  33.93566058566485 11.505979258671166  33.314906570597095 11.505979258671166  C 33.314906570597095 11.505979258671166  33.111341196144586 9.918126333548354  33.111341196144586 9.918126333548354  C 33.57857902571286 9.918126333548354  34.11096612877301 9.914458922722769  34.70850875502585 9.907209844688136  C 35.30598451845087 9.899960766653502  35.93293775827791 9.882771729512031  36.589345030653206 9.855604624621645  C 37.245886088489904 9.828573016914984  37.89603074201156 9.791652656918227  38.539996145894236 9.744703021882598  C 39.18402847241048 9.697821136385267  39.78614611888053 9.636309166637915  40.346363259267 9.56036322135662  C 40.346363259267 9.56036322135662  40.46982529142592 10.957921897484246  40.46982529142592 10.957921897484246  C 39.70973608064083 11.12065353245911  38.89171794448832 11.241967348829307  38.015772437917875 11.321639458145189  C 37.14002763944238 11.401176068384476  36.29277549609363 11.451730659532942  35.47402234728106 11.473477894110058  Z M 34.36090434305461 10.336674440529947  L 34.36090434305461 2.7499627846970673  L 36.08422854193953 2.7499627846970673  L 36.08422854193953 10.336674440529947  L 34.36090434305461 10.336674440529947  Z M 37.362697482093104 10.336674440529947  L 37.362697482093104 2.7499627846970673  L 39.086511609677075 2.7499627846970673  L 39.086511609677075 10.336674440529947  L 37.362697482093104 10.336674440529947  Z M 58 15  L 58 0  L 60 0  L 60 15  L 58 15  Z M 50.34262347019764 1.72877487222746  C 50.92437971103444 1.2950157976053502  51.58458751917229 1.0780032749466582  52.32340520042983 1.0780032749466582  C 53.06576816651151 1.0780032749466582  53.72693137149594 1.2950157976053502  54.306881538506765 1.72877487222746  C 54.88696549097898 2.1625339468495697  55.341957824232765 2.775940750039541  55.67206785839101 3.569443755272168  C 56.002378570741335 4.362777401801996  56.16763073747334 5.299931476354327  56.16763073747334 6.380687738798194  C 56.16763073747334 7.468896268739456  56.002378570741335 8.411494716783793  55.67206785839101 9.208554557634098  C 55.341957824232765 10.005614398484408  54.88696549097898 10.620956470113011  54.306881538506765 11.054681685108918  C 53.72693137149594 11.488271401028229  53.06576816651151 11.70520518037017  52.32340520042983 11.70520518037017  C 51.58458751917229 11.70520518037017  50.92437971103444 11.488271401028229  50.34262347019764 11.054681685108918  C 49.76080036653301 10.620956470113011  49.304741397738766 10.005614398484408  48.97449757811913 9.208554557634098  C 48.644387543960896 8.411494716783793  48.47917966338632 7.468896268739456  48.47917966338632 6.380687738798194  C 48.47917966338632 5.299931476354327  48.644387543960896 4.362777401801996  48.97449757811913 3.569443755272168  C 49.304741397738766 2.775940750039541  49.76080036653301 2.1625339468495697  50.34262347019764 1.72877487222746  Z M 53.37234254508161 3.243685803602441  C 53.07166480408173 2.9677804880554386  52.72207911734165 2.829851634992309  52.32340520042983 2.829851634992309  C 51.924731283518014 2.829851634992309  51.57503441788981 2.9677804880554386  51.27422289142853 3.243685803602441  C 50.97354515042865 3.5194217604466456  50.73856242533532 3.921677814620497  50.569460457854696 4.450454026695778  C 50.40042538310479 4.979060880068259  50.315922356099776 5.622413887762523  50.315922356099776 6.380687738798194  C 50.315922356099776 7.13909708891046  50.40042538310479 7.785296364646392  50.569460457854696 8.319356919565326  C 50.73856242533532 8.85334975523185  50.97354515042865 9.26010538424025  51.27422289142853 9.539770753733935  C 51.57503441788981 9.819232874612728  51.924731283518014 9.959063166774177  52.32340520042983 9.959063166774177  C 52.72207911734165 9.959063166774177  53.07166480408173 9.819232874612728  53.37234254508161 9.539770753733935  C 53.67302028608149 9.26010538424025  53.90800301117483 8.85334975523185  54.07710497865544 8.319356919565326  C 54.24614005340535 7.785296364646392  54.33064308041037 7.13909708891046  54.33064308041037 6.380687738798194  C 54.33064308041037 5.622413887762523  54.24614005340535 4.979060880068259  54.07710497865544 4.450454026695778  C 53.90800301117483 3.921677814620497  53.67302028608149 3.5194217604466456  53.37234254508161 3.243685803602441  Z M 66.44780462949959 4.202352007145338  C 66.44780462949959 4.202352007145338  66.44780462949959 2.316776658562001  66.44780462949959 2.316776658562001  L 67.97809692096143 2.316776658562001  C 67.97809692096143 2.316776658562001  67.97809692096143 4.202352007145338  67.97809692096143 4.202352007145338  C 67.97809692096143 5.045141968627499  67.88539639464405 5.87256953301385  67.70030734860386 6.684364610727932  C 67.51515140983298 7.496125828815809  67.24340428146266 8.258002307736442  66.88506599339576 8.970376618865677  C 66.52686149079027 9.682750929994913  66.0891743099584 10.311277782580447  65.57156715126058 10.855703865429465  C 65.054160640852 11.399858950125292  64.463083195526 11.831025855331712  63.79851518942277 12.149307795365454  C 63.79851518942277 12.149307795365454  62.70842383405135 10.620751252915198  62.70842383405135 10.620751252915198  C 63.30141787422821 10.342169876034275  63.830717236349976 9.972559771265445  64.29628274765079 9.511735225524735  C 64.7618482589516 9.050842930245729  65.15390739085447 8.530355451692985  65.47284651840336 7.950429216493823  C 65.79171875322153 7.370502981294659  66.03398785198667 6.759851770188527  66.19941077908462 6.11844390413338  C 66.36496749164397 5.477036038078233  66.44780462949959 4.838340031280238  66.44780462949959 4.202352007145338  Z M 66.86154941584168 4.202352007145338  C 66.86154941584168 4.202352007145338  66.86154941584168 2.316776658562001  66.86154941584168 2.316776658562001  L 68.3813082402741 2.316776658562001  C 68.3813082402741 2.316776658562001  68.3813082402741 4.202352007145338  68.3813082402741 4.202352007145338  C 68.3813082402741 4.809377573089304  68.46385612762276 5.418296673514024  68.62921216199003 6.028879075075671  C 68.79476887454938 6.639461476637319  69.03703794341162 7.2166454455447075  69.35577642267128 7.760631171537736  C 69.67471555022017 8.304515258080372  70.06399787127575 8.790601750127152  70.52401140554012 9.218974842455218  C 70.9842255880937 9.647280185244986  71.51459155585304 9.989847018453363  72.11480989133382 10.246613407433136  C 72.11480989133382 10.246613407433136  71.06783226147822 11.775169949883391  71.06783226147822 11.775169949883391  C 70.39603996007106 11.47504458325451  69.79945326891657 11.067208656512056  69.27836768822245 10.551778891480177  C 68.75748281562329 10.036416906272486  68.31710745606476 9.441368198806474  67.95702998690257 8.766932962834316  C 67.59701941047109 8.09249772686216  67.32449492697013 7.367541626866968  67.13933898819926 6.591822557435617  C 66.95424994215907 5.816103488004267  66.86154941584168 5.01956698735145  66.86154941584168 4.202352007145338  Z M 63.26596269356266 3.0729916141517393  L 63.26596269356266 1.4737259961296085  L 71.54624763609402 1.4737259961296085  L 71.54624763609402 3.0729916141517393  L 63.26596269356266 3.0729916141517393  Z M 73 14.978415124299111  L 73 0.021832977720438643  L 75 0.021832977720438643  L 75 14.978415124299111  L 73 14.978415124299111  Z " fill-rule="nonzero" fill="#ffffff" stroke="none" transform="matrix(1 0 0 1 177 875 )" />
  </g>
</svg>