<?xml version="1.0" encoding="utf-8"?>
<svg version="1.1" xmlns:xlink="http://www.w3.org/1999/xlink" width="16px" height="11px" xmlns="http://www.w3.org/2000/svg">
  <g transform="matrix(1 0 0 1 -33 -256 )">
    <path d="M 5.99819038407538 10.814364790063454  C 5.99819038407538 10.814364790063454  15.812798352625503 1.0816344898969443  15.812798352625503 1.0816344898969443  C 15.872777426046818 1.0222194807765819  15.918952503188278 0.9538274124424988  15.951327571682631 0.8761981909004994  C 15.983770799370534 0.7985689693585002  16 0.7176598978538302  16 0.6336348499167455  C 16 0.5920298117006787  15.995948457534903 0.5509308968261565  15.987769492371532 0.5101255569056298  C 15.979590527208163 0.46931947296377424  15.967412869043795 0.4295093201103844  15.951327571682631 0.3910715089329913  C 15.935310431610704 0.3526336977555983  15.915731503310276 0.31626391463401826  15.892421453308788 0.28167049187705323  C 15.869111403307302 0.24707706912008823  15.842515258274897 0.21505479146110115  15.812798352625503 0.18563520993654653  C 15.78314960616966 0.15621630445167647  15.751099219341098 0.12979269098524174  15.716202302580262 0.10667836731020205  C 15.681305385819426 0.08356336759547776  15.644342296384083 0.06418679368994323  15.60562852953106 0.0482651545835021  C 15.566846603484485 0.032343515477060956  15.526986931137337 0.02024477598213397  15.485819475211382 0.012128167049187706  C 15.444720178478978 0.004011558116241438  15.403003727975776 0  15.361018376961717 0  C 15.276297931421796 0  15.194971414576573 0.01611029761116842  15.116657826588874 0.0482651545835021  C 15.038412397794726 0.08042001155583577  14.969149319334322 0.12622020081618404  14.909238401297932 0.18563520993654653  C 14.909238401297932 0.18563520993654653  5.546410408411594 9.470118356509609  5.546410408411594 9.470118356509609  C 5.546410408411594 9.470118356509609  1.091011200898568 5.052000360019801  1.091011200898568 5.052000360019801  C 1.0310948327165592 4.992583998820069  0.9618760523998862 4.946788541837513  0.8835917756076254 4.9146303046667565  C 0.8053074988153646 4.882478827892846  0.7237156958465609 4.866365150083254  0.6389816230382828 4.866365150083254  C 0.5970255108557455 4.866365150083254  0.5555797928131142 4.870376032159811  0.5144301269851175 4.878493317132442  C 0.4732797108575493 4.8866106021050735  0.4331336297400042 4.898713397838108  0.3943714704689401 4.9146303046667565  C 0.35560931119787603 4.9305539700038725  0.3189326305329299 4.949928517678733  0.28404729961623665 4.973043517393457  C 0.2491619686995433 4.9961585171081815  0.21686947886157024 5.022579426415877  0.1872016473744969 5.052000360019801  C 0.15753449763170416 5.081421293623725  0.13088791494841717 5.113444247322397  0.10757854669121088 5.148035641960308  C 0.084268496689724 5.182627036598219  0.06472841829172159 5.218999523878537  0.04867242831736919 5.257436659016246  C 0.03261643834301679 5.295873794153954  0.020415606586048896 5.335433729235357  0.01223050762846713 5.376243193375636  C 0.004045408670885367 5.417045897119069  0 5.458393001646524  0 5.5  C 0 5.584025047937085  0.016246240427853265 5.664684573932694  0.04867242831736919 5.742315827370506  C 0.08109929795116572 5.819940320411471  0.12728596093676875 5.888583278780468  0.1872016473744969 5.9479996399802  C 0.1872016473744969 5.9479996399802  5.094630432747808 10.814364790063454  5.094630432747808 10.814364790063454  C 5.124299627723443 10.843833035115027  5.156592799305696 10.869959119361825  5.191476084989548 10.89307411907655  C 5.226359370673399 10.916189118791273  5.263038778315468 10.935851731130185  5.3018002558422515 10.951734845416498  C 5.340561733369035 10.967685546675861  5.380455485312958 10.9795137928734  5.421609310161929 10.987624319337563  C 5.462756317568094 10.995734845801728  5.504452319551506 11  5.546410408411594 11  C 5.5883684972716825 11  5.629814897058594 10.995734845801728  5.670961904464759 10.987624319337563  C 5.71211572931373 10.9795137928734  5.752009481257653 10.967685546675861  5.790770958784437 10.951734845416498  C 5.82953243631122 10.935851731130185  5.866461446149788 10.916189118791273  5.90134473183364 10.89307411907655  C 5.936228017517491 10.869959119361825  5.968521189099746 10.843833035115027  5.99819038407538 10.814364790063454  Z " fill-rule="nonzero" fill="#ffffff" stroke="none" transform="matrix(1 0 0 1 33 256 )" />
  </g>
</svg>