<?xml version="1.0" encoding="utf-8"?>
<svg version="1.1" xmlns:xlink="http://www.w3.org/1999/xlink" width="16px" height="11px" xmlns="http://www.w3.org/2000/svg">
  <g transform="matrix(1 0 0 1 -33 -350 )">
    <path d="M 5.99819038407538 10.814360612947503  C 5.99819038407538 10.814360612947503  15.812798352625503 1.0816588285592135  15.812798352625503 1.0816588285592135  C 15.872777426046818 1.0222424824975327  15.918952503188278 0.9536013560399075  15.951327571682631 0.8759703877050471  C 15.983770799370534 0.7983394193701868  16 0.7176760464530484  16 0.633649107805855  C 16 0.5920431334038739  15.995948457534903 0.5506957745493587  15.987769492371532 0.5098895164375239  C 15.979590527208163 0.46908251428761855  15.967412869043795 0.4295189848191018  15.951327571682631 0.39108030872392613  C 15.935310431610704 0.3526416326287504  15.915731503310276 0.3160235119408888  15.892421453308788 0.28142931077158484  C 15.869111403307302 0.2468351096022808  15.842515258274897 0.2150596305689399  15.812798352625503 0.18563938705249658  C 15.78314960616966 0.15621981959094994  15.751099219341098 0.12979561154713246  15.716202302580262 0.10668076775950136  C 15.681305385819426 0.08356524791697358  15.644342296384083 0.06418823800473565  15.60562852953106 0.04826624063364911  C 15.566846603484485 0.032344243262562564  15.526986931137337 0.020245231524898134  15.485819475211382 0.012128439954096442  C 15.444720178478978 0.00401164838329475  15.403003727975776 0  15.361018376961717 0  C 15.276297931421796 0  15.194971414576573 0.01611066012095918  15.116657826588874 0.04826624063364911  C 15.038412397794726 0.08042182114633904  14.969149319334322 0.12622304099081597  14.909238401297932 0.18563938705249658  C 14.909238401297932 0.18563938705249658  5.546410408411594 9.470331450687429  5.546410408411594 9.470331450687429  C 5.546410408411594 9.470331450687429  1.091011200898568 5.05211403883801  1.091011200898568 5.05211403883801  C 1.0310948327165592 4.9926963406665354  0.9618760523998862 4.946652334023599  0.8835917756076254 4.914493373236426  C 0.8053074988153646 4.88234117299822  0.7237156958465609 4.866474651785514  0.6389816230382828 4.866474651785514  C 0.5970255108557455 4.866474651785514  0.5555797928131142 4.870485624113912  0.5144301269851175 4.87860309173961  C 0.4732797108575493 4.886720559365308  0.4331336297400042 4.898576108249617  0.3943714704689401 4.914493373236426  C 0.35560931119787603 4.930417396883781  0.3189326305329299 4.950039899702487  0.28404729961623665 4.973155419545015  C 0.2491619686995433 4.996270939387543  0.21686947886157024 5.0224449240290365  0.1872016473744969 5.051866519655273  C 0.15753449763170416 5.08128811528151  0.13088791494841717 5.113311789552484  0.10757854669121088 5.147903962557098  C 0.084268496689724 5.182496135561712  0.06472841829172159 5.219116960469161  0.04867242831736919 5.25755496050944  C 0.03261643834301679 5.295992960549719  0.020415606586048896 5.335553785798648  0.01223050762846713 5.376364168223037  C 0.004045408670885367 5.41716779009846  0 5.458515825007871  0 5.500123759591368  C 0 5.584150698238561  0.016246240427853265 5.664812039214167  0.04867242831736919 5.74244503949056  C 0.08109929795116572 5.820071279217986  0.12728596093676875 5.888715782173254  0.1872016473744969 5.948133480344727  C 0.1872016473744969 5.948133480344727  5.094630432747808 10.814360612947503  5.094630432747808 10.814360612947503  C 5.124299627723443 10.84382952108598  5.156592799305696 10.870203712397972  5.191476084989548 10.893319232240499  C 5.226359370673399 10.916434752083026  5.263038778315468 10.935850287682268  5.3018002558422515 10.95173375936635  C 5.340561733369035 10.967684819544308  5.380455485312958 10.979760851080751  5.421609310161929 10.987871560045903  C 5.462756317568094 10.995982269011057  5.504452319551506 11  5.546410408411594 11  C 5.5883684972716825 11  5.629814897058594 10.995982269011057  5.670961904464759 10.987871560045903  C 5.71211572931373 10.979760851080751  5.752009481257653 10.967684819544308  5.790770958784437 10.95173375936635  C 5.82953243631122 10.935850287682268  5.866461446149788 10.916434752083026  5.90134473183364 10.893319232240499  C 5.936228017517491 10.870203712397972  5.968521189099746 10.84382952108598  5.99819038407538 10.814360612947503  Z " fill-rule="nonzero" fill="#ffffff" stroke="none" transform="matrix(1 0 0 1 33 350 )" />
  </g>
</svg>