<?xml version="1.0" encoding="utf-8"?>
<svg version="1.1" xmlns:xlink="http://www.w3.org/1999/xlink" width="260px" height="260px" xmlns="http://www.w3.org/2000/svg">
  <defs>
    <linearGradient gradientUnits="userSpaceOnUse" x1="215" y1="255" x2="215" y2="515" id="LinearGradient104">
      <stop id="Stop105" stop-color="#fc4a36" offset="0" />
      <stop id="Stop106" stop-color="#ffffff" offset="0.3" />
      <stop id="Stop107" stop-color="#ffffff" offset="0.7" />
      <stop id="Stop108" stop-color="#fc4a36" offset="1" />
    </linearGradient>
  </defs>
  <g transform="matrix(1 0 0 1 -85 -255 )">
    <path d="M 87.5 295  A 37.5 37.5 0 0 1 125 257.5 L 305 257.5  A 37.5 37.5 0 0 1 342.5 295 L 342.5 475  A 37.5 37.5 0 0 1 305 512.5 L 125 512.5  A 37.5 37.5 0 0 1 87.5 475 L 87.5 295  Z " fill-rule="nonzero" fill="#ffffff" stroke="none" fill-opacity="0" />
    <path d="M 86.5 295  A 38.5 38.5 0 0 1 125 256.5 L 305 256.5  A 38.5 38.5 0 0 1 343.5 295 L 343.5 475  A 38.5 38.5 0 0 1 305 513.5 L 125 513.5  A 38.5 38.5 0 0 1 86.5 475 L 86.5 295  Z " stroke-width="3" stroke="url(#LinearGradient104)" fill="none" />
  </g>
</svg>