<?xml version="1.0" encoding="utf-8"?>
<svg version="1.1" xmlns:xlink="http://www.w3.org/1999/xlink" width="6px" height="9px" xmlns="http://www.w3.org/2000/svg">
  <g transform="matrix(1 0 0 1 -774 -612 )">
    <path d="M 3 0  C 2.1715775871276857 0  1.4644619750976562 0.34683316474552456  0.878671875 1.0405217873993893  C 0.29288434982299805 1.7342134592700527  0 2.5715786025751113  0 3.5525950596724956  C 0 3.599250579588353  0.003798615038394928 3.6454758973641757  0.011484375 3.6912295309464334  C 0.019170134961605072 3.7369907452204543  0.03062664449214935 3.781489587974919  0.045703125 3.8245906189286707  C 0.06077960550785065 3.867691649882422  0.07912762463092804 3.90861628540615  0.101015625 3.947404940327505  C 0.12290298521518708 3.986193595248859  0.14792397022247317 4.022102159028446  0.17578125 4.055092978073827  C 0.20363916993141173 4.088083797119208  0.23396162867546083 4.1174330275951405  0.26671875 4.143352761587566  C 0.2994758713245392 4.169272495579991  0.3339150595664978 4.191275464009484  0.37031250000000004 4.2091312794893145  C 0.40670994043350217 4.226979516394893  0.44440687537193296 4.2404120712852  0.483046875 4.249514293644185  C 0.5216861701011658 4.258616516003171  0.5606034564971923 4.263114071606994  0.6000000000000001 4.263114071606994  C 0.6393965435028076 4.263114071606994  0.6783138298988343 4.258616516003171  0.716953125 4.249514293644185  C 0.7555931246280669 4.2404120712852  0.7932900595664978 4.226979516394893  0.8296874999999999 4.2091312794893145  C 0.8660849404335023 4.191275464009484  0.9005241286754608 4.169272495579991  0.9332812500000001 4.143352761587566  C 0.9660383713245391 4.1174330275951405  0.9963608300685882 4.088083797119208  1.0242187500000002 4.055092978073827  C 1.0520760297775267 4.022102159028446  1.077097014784813 3.986193595248859  1.0989843750000001 3.947404940327505  C 1.1208723753690721 3.90861628540615  1.1392203944921493 3.867691649882422  1.154296875 3.8245906189286707  C 1.1693733555078507 3.781489587974919  1.180829865038395 3.7369907452204543  1.188515625 3.6912295309464334  C 1.196201384961605 3.6454758973641757  1.2000000000000002 3.599250579588353  1.2000000000000002 3.5525950596724956  C 1.2000000000000002 2.96398217685349  1.3756341648101806 2.461587626901627  1.727109375 2.0453788509575355  C 2.078578176498413 1.629162485851634  2.5029440116882324 1.4210380238689981  3 1.4210380238689981  C 3.497055988311767 1.4210380238689981  3.921421823501587 1.629162485851634  4.2728906250000005 2.0453788509575355  C 4.62436583518982 2.461587626901627  4.800000000000001 2.96398217685349  4.800000000000001 3.5525950596724956  C 4.800000000000001 4.1412079424915  4.62436583518982 4.643602492443363  4.2728906250000005 5.059811268387454  C 3.921421823501587 5.476027633493357  3.497055988311767 5.6841520954759925  3 5.6841520954759925  C 2.960601600408554 5.6841520954759925  2.9216836738586425 5.6887884243243345  2.8830468750000002 5.6978906466833195  C 2.8444036746025083 5.706992869042304  2.8067093002796173 5.7204178453583605  2.7703125 5.73827366083819  C 2.7339156997203826 5.7561218977437685  2.6994739508628847 5.777993671502996  2.6667187500000002 5.803913405495421  C 2.633963549137116 5.829833139487846  2.6036404502391814 5.859321143208296  2.5757812500000004 5.892311962253677  C 2.5479220497608184 5.925302781299059  2.522903625369072 5.961211345078646  2.501015625 6  C 2.4791276246309284 6.038788654921355  2.4607751244306564 6.079713290445083  2.4457031249999996 6.122814321398835  C 2.430624725818634 6.165915352352585  2.41917077511549 6.210275421862532  2.411484375 6.256036636136552  C 2.40379797488451 6.30179026971881  2.4000000000000004 6.348015587494634  2.4000000000000004 6.394671107410492  C 2.4000000000000004 6.394671107410492  2.4000000000000004 8.2894809880655  2.4000000000000004 8.2894809880655  C 2.4000000000000004 8.33612893152462  2.40379797488451 8.3822154718209  2.411484375 8.42797668609492  C 2.41917077511549 8.473730319677179  2.430631125569344 8.518236743123406  2.4457031249999996 8.561337774077158  C 2.460781524181366 8.60443880503091  2.4791276246309284 8.645355864097898  2.501015625 8.684152095475993  C 2.522903625369072 8.722940750397347  2.5479220497608184 8.758849314176933  2.5757812500000004 8.791840133222314  C 2.6036404502391814 8.824830952267696  2.633963549137116 8.854318955988147  2.6667187500000002 8.880238689980573  C 2.6994739508628847 8.906150845398745  2.7339156997203826 8.928022619157971  2.7703125 8.945878434637802  C 2.8067093002796173 8.963734250117632  2.8444036746025083 8.977159226433688  2.8830468750000002 8.986261448792673  C 2.9216836738586425 8.995363671151658  2.960601600408554 9  3 9  C 3.039398399591446 9  3.0783163261413575 8.995363671151658  3.116953125 8.986261448792673  C 3.1555963253974912 8.977159226433688  3.193290699720383 8.963734250117632  3.2296875000000003 8.945878434637802  C 3.2660843002796174 8.928022619157971  3.3005260491371153 8.906150845398745  3.3332812499999998 8.880238689980573  C 3.366036450862884 8.854318955988147  3.3963595497608186 8.824830952267696  3.4242187499999996 8.791840133222314  C 3.4520779502391816 8.758849314176933  3.4770963746309276 8.722940750397347  3.498984375 8.684152095475993  C 3.5208723753690716 8.645355864097898  3.5392248755693436 8.60443880503091  3.5542968750000004 8.561337774077158  C 3.569375274181366 8.518236743123406  3.5808292248845097 8.473730319677179  3.5885156250000003 8.42797668609492  C 3.59620202511549 8.3822154718209  3.5999999999999996 8.33612893152462  3.5999999999999996 8.2894809880655  C 3.5999999999999996 8.2894809880655  3.5999999999999996 7.039827921176797  3.5999999999999996 7.039827921176797  C 4.175238418579102 6.909547152004405  4.6823521327972415 6.584502979017052  5.121328125 6.064668331945601  C 5.7071137046813964 5.370982013144428  6 4.533619105931689  6 3.5525950596724956  C 6 2.5715786025751113  5.7071137046813964 1.7342134592700527  5.121328125 1.0405217873993893  C 4.535536136627197 0.34683316474552456  3.8284224128723148 0  3 0  Z " fill-rule="nonzero" fill="#ffffff" stroke="none" transform="matrix(1 0 0 1 774 612 )" />
  </g>
</svg>