<?xml version="1.0" encoding="utf-8"?>
<svg version="1.1" xmlns:xlink="http://www.w3.org/1999/xlink" width="32px" height="19px" xmlns="http://www.w3.org/2000/svg">
  <g transform="matrix(1 0 0 1 -432 -438 )">
    <path d="M 12 19  L 12 0  L 14 0  L 14 19  L 12 19  Z M 2.1531614415009477 2.189498136481589  C 2.8254740835318817 1.6400719312909138  3.5884303517649188 1.3654333874868598  4.442200781612449 1.3654333874868598  C 5.300032055251508 1.3654333874868598  6.064077022540162 1.6400719312909138  6.734259630581963 2.189498136481589  C 7.404641462810503 2.738924341672264  7.930478622132843 3.5162171486537273  8.311953008893397 4.521322032153963  C 8.693612920490198 5.526205677402267  8.884653188963066 6.7131615840687555  8.884653188963066 8.082119779759322  C 8.884653188963066 9.460551937535376  8.693612920490198 10.654448410065251  8.311953008893397 11.664007998059294  C 7.930478622132843 12.67364383277518  7.404641462810503 13.453234373592942  6.734259630581963 14.002675821308065  C 6.064077022540162 14.551888426558836  5.300032055251508 14.826461226320083  4.442200781612449 14.826461226320083  C 3.5884303517649188 14.826461226320083  2.8254740835318817 14.551888426558836  2.1531614415009477 14.002675821308065  C 1.4808487994700132 13.453234373592942  0.9538637205814127 12.67364383277518  0.5721969285933335 11.664007998059294  C 0.19072254183277898 10.654448410065251  0 9.460551937535376  0 8.082119779759322  C 0 6.7131615840687555  0.19072254183277898 5.526205677402267  0.5721969285933335 4.521322032153963  C 0.9538637205814127 3.5162171486537273  1.4808487994700132 2.738924341672264  2.1531614415009477 2.189498136481589  Z M 5.654533588104393 4.108451625708468  C 5.3070709412571855 3.758976958514892  4.9029053619380685 3.584262642153007  4.442200781612449 3.584262642153007  C 3.98149620128683 3.584262642153007  3.577271370741038 3.758976958514892  3.2296163493823373 4.108451625708468  C 2.8821537025351294 4.457720331274167  2.6107271811823263 4.967241846159341  2.4153554606716834 5.637021899098014  C 2.2199768597697624 6.30658835209678  2.122463101444489 7.121638460715874  2.122463101444489 8.082119779759322  C 2.122463101444489 9.04284518379157  2.2199768597697624 9.861322439339169  2.4153554606716834 10.537693059772261  C 2.6107271811823263 11.214139926927198  2.8821537025351294 11.729480198795972  3.2296163493823373 12.083722332081186  C 3.577271370741038 12.437659342080597  3.98149620128683 12.61461557122169  4.442200781612449 12.61461557122169  C 4.9029053619380685 12.61461557122169  5.3070709412571855 12.437659342080597  5.654533588104393 12.083722332081186  C 6.001989354560323 11.729480198795972  6.273415875913126 11.214139926927198  6.468794476815047 10.537693059772261  C 6.66416619732569 9.861322439339169  6.761938461780409 9.04284518379157  6.761938461780409 8.082119779759322  C 6.761938461780409 7.121638460715874  6.66416619732569 6.30658835209678  6.468794476815047 5.637021899098014  C 6.273415875913126 4.967241846159341  6.001989354560323 4.457720331274167  5.654533588104393 4.108451625708468  Z M 16.543385781573132 11.581741195151176  L 16.543385781573132 9.638903795402586  L 32 9.638903795402586  L 32 11.581741195151176  L 16.543385781573132 11.581741195151176  Z M 18.453728385742256 2.2780501790006835  L 18.453728385742256 0.40449008696419253  L 30.089657395830876 0.40449008696419253  L 30.089657395830876 5.30516124763844  L 20.656963349138575 5.30516124763844  L 20.656963349138575 7.498709871869326  L 18.484678351536882 7.498709871869326  L 18.484678351536882 3.5626134834929757  L 27.917372398229183 3.5626134834929757  L 27.917372398229183 2.2780501790006835  L 18.453728385742256 2.2780501790006835  Z M 18.484678351536882 8.456301044599472  L 18.484678351536882 6.589584880139379  L 30.42935214235726 6.589584880139379  L 30.42935214235726 8.456301044599472  L 18.484678351536882 8.456301044599472  Z M 18.52745472702539 18.753199591275646  L 18.52745472702539 12.88152874670117  L 30.158351222350657 12.88152874670117  L 30.158351222350657 18.753199591275646  L 18.52745472702539 18.753199591275646  Z M 27.986066224748964 16.810641535509767  L 27.986066224748964 14.803275675755147  L 20.687410063456866 14.803275675755147  L 20.687410063456866 16.810641535509767  L 27.986066224748964 16.810641535509767  Z " fill-rule="nonzero" fill="#26262c" stroke="none" transform="matrix(1 0 0 1 432 438 )" />
  </g>
</svg>