<?xml version="1.0" encoding="utf-8"?>
<svg version="1.1" xmlns:xlink="http://www.w3.org/1999/xlink" width="160px" height="13px" xmlns="http://www.w3.org/2000/svg">
  <g transform="matrix(1 0 0 1 -135 -263 )">
    <path d="M 1.5166015491018958 5.711372450894533  L 1.5166015491018958 0.5228324784186164  L 2.6653942953659566 0.5228324784186164  L 2.6653942953659566 2.14425121981734  L 8.784971790857524 2.14425121981734  L 8.784971790857524 0.5228324784186164  L 9.939862163163326 0.5228324784186164  L 9.939862163163326 5.711372450894533  L 1.5166015491018958 5.711372450894533  Z M 8.784971790857524 3.0950831977980733  L 2.6653942953659566 3.0950831977980733  L 2.6653942953659566 4.752533466783436  L 8.784971790857524 4.752533466783436  L 8.784971790857524 3.0950831977980733  Z M 0 8  L 0 7  L 11.430365872806568 7  L 11.430365872806568 8  L 0 8  Z M 5.141762183437933 7.5207056174152385  L 5.141762183437933 5.146252971349932  L 6.292993980118691 5.146252971349932  L 6.292993980118691 7.5207056174152385  L 5.141762183437933 7.5207056174152385  Z M 1.4783084575597605 12.700487926936068  L 1.4783084575597605 11.721381208557487  L 10.164742611582746 11.721381208557487  L 10.164742611582746 12.700487926936068  L 1.4783084575597605 12.700487926936068  Z M 1.4783084575597605 12.057049918678844  L 1.4783084575597605 9.10584261228575  L 2.6380769306989555 9.10584261228575  L 2.6380769306989555 12.057049918678844  L 1.4783084575597605 12.057049918678844  Z M 22.07316236606183 9.491179782309521  L 22.07316236606183 0.02001751532591017  L 23.23805284507609 0.02001751532591017  L 23.23805284507609 9.491179782309521  L 22.07316236606183 9.491179782309521  Z M 15.113819812101655 12.700487926936068  L 15.113819812101655 11.721381208557487  L 23.62561795628917 11.721381208557487  L 23.62561795628917 12.700487926936068  L 15.113819812101655 12.700487926936068  Z M 15.113819812101655 12.0555486050294  L 15.113819812101655 8.526585762542224  L 16.26480770374074 8.526585762542224  L 16.26480770374074 12.0555486050294  L 15.113819812101655 12.0555486050294  Z M 14.769181988222435 1.3252846240460403  C 15.268033478920506 1.0550535123995215  15.829526286865867 0.9199299386963593  16.453590205993052 0.9199299386963593  C 17.082982283156984 0.9199299386963593  17.645713492750687 1.0550535123995215  18.141900904430383 1.3252846240460403  C 18.637422281468705 1.5955157356925591  19.02999819429285 1.9708687056741057  19.319718350653133 2.4513949705992744  C 19.6087725021456 2.9319212355244435  19.753381514741772 3.485419431944357  19.753381514741772 4.11197297635431  C 19.753381514741772 4.731201935482609  19.6087725021456 5.283488561524537  19.319718350653133 5.768797697985738  C 19.02999819429285 6.253956495380724  18.637422281468705 6.632606448122576  18.141900904430383 6.9047916927311395  C 17.645713492750687 7.1769359468832095  17.082982283156984 7.313023895908921  16.453590205993052 7.313023895908921  C 15.829526286865867 7.313023895908921  15.268033478920506 7.1769359468832095  14.769181988222435 6.9047916927311395  C 14.270330497524364 6.632606448122576  13.875962692484904 6.253956495380724  13.586242536124624 5.768797697985738  C 13.297188384632152 5.283488561524537  13.152823277077651 4.731201935482609  13.152823277077651 4.11197297635431  C 13.152823277077651 3.485419431944357  13.297188384632152 2.9319212355244435  13.586242536124624 2.4513949705992744  C 13.875962692484904 1.9708687056741057  14.270330497524364 1.5955157356925591  14.769181988222435 1.3252846240460403  Z M 17.566528911131673 2.225822594770424  C 17.23684733130727 2.0428785221248282  16.86585868199051 1.9514575253346678  16.453590205993052 1.9514575253346678  C 16.040655725127785 1.9514575253346678  15.670595832386931 2.0428785221248282  15.343578361354467 2.225822594770424  C 15.016560890322 2.40876666741602  14.758883996999588 2.6619436416043722  14.57039937926167 2.9852370824471413  C 14.38191476152375 3.308380214768  14.287713435966543 3.683907745449143  14.287713435966543 4.11197297635431  C 14.287713435966543 4.536451053607453  14.38191476152375 4.910311140167568  14.57039937926167 5.233454272488427  C 14.758883996999588 5.556590562885102  15.016560890322 5.809674468577975  15.343578361354467 5.992618541223571  C 15.670595832386931 6.175562613869166  16.040655725127785 6.266983610659327  16.453590205993052 6.266983610659327  C 16.86585868199051 6.266983610659327  17.23684733130727 6.175562613869166  17.566528911131673 5.992618541223571  C 17.89687649582389 5.809674468577975  18.156345281361613 5.556590562885102  18.344829899099533 5.233454272488427  C 18.53331451683745 4.910311140167568  18.627515842394658 4.536451053607453  18.627515842394658 4.11197297635431  C 18.627515842394658 3.683907745449143  18.53331451683745 3.308380214768  18.344829899099533 2.9852370824471413  C 18.156345281361613 2.6619436416043722  17.89687649582389 2.40876666741602  17.566528911131673 2.225822594770424  Z M 34.94061674438599 9.491179782309521  L 34.94061674438599 0.02001751532591017  L 36.10550722340025 0.02001751532591017  L 36.10550722340025 9.491179782309521  L 34.94061674438599 9.491179782309521  Z M 27.981518095467482 12.700487926936068  L 27.981518095467482 11.721381208557487  L 36.49307233461333 11.721381208557487  L 36.49307233461333 12.700487926936068  L 27.981518095467482 12.700487926936068  Z M 27.981518095467482 12.0555486050294  L 27.981518095467482 8.526585762542224  L 29.1322620820649 8.526585762542224  L 29.1322620820649 12.0555486050294  L 27.981518095467482 12.0555486050294  Z M 27.636636366546593 1.3252846240460403  C 28.13548785724467 1.0550535123995215  28.696980665190026 0.9199299386963593  29.321044584317207 0.9199299386963593  C 29.95043666148114 0.9199299386963593  30.513411776116513 1.0550535123995215  31.009599187796212 1.3252846240460403  C 31.505120564834534 1.5955157356925591  31.89769647765868 1.9708687056741057  32.18741663401896 2.4513949705992744  C 32.47647078551143 2.9319212355244435  32.62083589306593 3.485419431944357  32.62083589306593 4.11197297635431  C 32.62083589306593 4.731201935482609  32.47647078551143 5.283488561524537  32.18741663401896 5.768797697985738  C 31.89769647765868 6.253956495380724  31.505120564834534 6.632606448122576  31.009599187796212 6.9047916927311395  C 30.513411776116513 7.1769359468832095  29.95043666148114 7.313023895908921  29.321044584317207 7.313023895908921  C 28.696980665190026 7.313023895908921  28.13548785724467 7.1769359468832095  27.636636366546593 6.9047916927311395  C 27.13778487584852 6.632606448122576  26.743660975850734 6.253956495380724  26.453940819490455 5.768797697985738  C 26.16488666799798 5.283488561524537  26.020277655401813 4.731201935482609  26.020277655401813 4.11197297635431  C 26.020277655401813 3.485419431944357  26.16488666799798 2.9319212355244435  26.453940819490455 2.4513949705992744  C 26.743660975850734 1.9708687056741057  27.13778487584852 1.5955157356925591  27.636636366546593 1.3252846240460403  Z M 30.43398328945583 2.225822594770424  C 30.10430170963143 2.0428785221248282  29.733313060314668 1.9514575253346678  29.321044584317207 1.9514575253346678  C 28.908110103451943 1.9514575253346678  28.53829411575276 2.0428785221248282  28.211276644720297 2.225822594770424  C 27.88425917368783 2.40876666741602  27.626338375323748 2.6619436416043722  27.437853757585827 2.9852370824471413  C 27.24936913984791 3.308380214768  27.1551678142907 3.683907745449143  27.1551678142907 4.11197297635431  C 27.1551678142907 4.536451053607453  27.24936913984791 4.910311140167568  27.437853757585827 5.233454272488427  C 27.626338375323748 5.556590562885102  27.88425917368783 5.809674468577975  28.211276644720297 5.992618541223571  C 28.53829411575276 6.175562613869166  28.908110103451943 6.266983610659327  29.321044584317207 6.266983610659327  C 29.733313060314668 6.266983610659327  30.10430170963143 6.175562613869166  30.43398328945583 5.992618541223571  C 30.76433087414805 5.809674468577975  31.023799659685775 5.556590562885102  31.212284277423695 5.233454272488427  C 31.400768895161608 4.910311140167568  31.49497022071882 4.536451053607453  31.49497022071882 4.11197297635431  C 31.49497022071882 3.683907745449143  31.400768895161608 3.308380214768  31.212284277423695 2.9852370824471413  C 31.023799659685775 2.6619436416043722  30.76433087414805 2.40876666741602  30.43398328945583 2.225822594770424  Z M 38.60211922993081 7  L 38.60211922993081 6  L 50.03321681786239 6  L 50.03321681786239 7  L 38.60211922993081 7  Z M 41.132634037253446 8.883773301638934  C 41.90322307650386 8.472926353283732  42.962066192017296 8.267484048542475  44.308765489875654 8.267484048542475  C 45.661458920865016 8.267484048542475  46.72160617805754 8.472926353283732  47.48953113828959 8.883773301638934  C 48.25679006388025 9.294620249994136  48.64051902992867 9.872679060486519  48.64051902992867 10.61791567621669  C 48.64051902992867 11.363015636729013  48.25679006388025 11.939520078115226  47.48953113828959 12.347429000375328  C 46.72160617805754 12.755474577853278  45.661458920865016 12.95946453146503  44.308765489875654 12.95946453146503  C 42.962066192017296 12.95946453146503  41.90322307650386 12.755474577853278  41.132634037253446 12.347429000375328  C 40.36204499800303 11.939520078115226  39.97676804478096 11.363015636729013  39.97676804478096 10.61791567621669  C 39.97676804478096 9.872679060486519  40.36204499800303 9.294620249994136  41.132634037253446 8.883773301638934  Z M 46.0090275353548 9.373451770299011  C 45.537482988576095 9.264402754387628  44.97079272854283 9.209808582509696  44.308765489875654 9.209808582509696  C 43.652066468792356 9.209808582509696  43.086370645818626 9.264402754387628  42.61216202002156 9.373451770299011  C 42.13861939909229 9.48243245860147  41.77610237099519 9.641460478358017  41.52434553417491 9.850744401351182  C 41.27325473199599 10.059959996735424  41.147756149836965 10.315707762847179  41.147756149836965 10.61791567621669  C 41.147756149836965 10.916228976966174  41.27325473199599 11.169571577645089  41.52434553417491 11.377830601776555  C 41.77610237099519 11.586021298299098  42.13861939909229 11.744629685129762  42.61216202002156 11.85374702865007  C 43.086370645818626 11.962659396979682  43.652066468792356 12.01713999749781  44.308765489875654 12.01713999749781  C 44.97079272854283 12.01713999749781  45.537482988576095 11.962659396979682  46.0090275353548 11.85374702865007  C 46.47990604749212 11.744629685129762  46.84118470371445 11.586021298299098  47.09294154053473 11.377830601776555  C 47.344032342713646 11.169571577645089  47.46953092487267 10.916228976966174  47.46953092487267 10.61791567621669  C 47.46953092487267 10.315707762847179  47.344032342713646 10.059959996735424  47.09294154053473 9.850744401351182  C 46.84118470371445 9.641460478358017  46.47990604749212 9.48243245860147  46.0090275353548 9.373451770299011  Z M 43.57241616907498 1.5691229826097837  C 43.57241616907498 1.5691229826097837  43.57241616907498 1.1860377830601776  43.57241616907498 1.1860377830601776  L 44.59925639450421 1.1860377830601776  C 44.59925639450421 1.1860377830601776  44.59925639450421 1.5691229826097837  44.59925639450421 1.5691229826097837  C 44.59925639450421 1.9867205887671244  44.51321710464136 2.375402360121747  44.34071705033438 2.735018140873264  C 44.16888301578199 3.0944767711786874  43.927351984177044 3.4227486587385054  43.61631907657551 3.7198798949080443  C 43.305952173841796 4.017017973001767  42.94374473127 4.279232472334191  42.52947821089555 4.506568247216315  C 42.1158776953889 4.733753698304376  41.66590478099614 4.923235351684677  41.17970771029569 5.074940573001376  C 40.69284463472742 5.226645794318075  40.18726655143424 5.334125214787548  39.663106161193795 5.397347679219317  C 39.663106161193795 5.397347679219317  39.24456510968867 4.452771174777931  39.24456510968867 4.452771174777931  C 39.69612894473531 4.404942657955594  40.13546307968416 4.319836413563529  40.5623840498298 4.19742274490179  C 40.98863901510762 4.074865586734096  41.383691671681326 3.924564334368745  41.74800645738598 3.7464031027148756  C 42.11165520844925 3.568091562539097  42.42944981167863 3.3670988757008087  42.701187360230975 3.1435005629926183  C 42.97359091365114 2.919751926490367  43.18661107747624 2.674700653599243  43.340462474447136 2.4083573126485676  C 43.49497989117262 2.142007129773708  43.57241616907498 1.8622161395615695  43.57241616907498 1.5691229826097837  Z M 44.05388472133087 1.5691229826097837  C 44.05388472133087 1.5691229826097837  44.05388472133087 1.1860377830601776  44.05388472133087 1.1860377830601776  L 45.07291998542668 1.1860377830601776  C 45.07291998542668 1.1860377830601776  45.07291998542668 1.5691229826097837  45.07291998542668 1.5691229826097837  C 45.07291998542668 1.8659536017355027  45.1488739715258 2.1462257258304143  45.30072729434613 2.409733516827224  C 45.45324665180783 2.6730909993021235  45.66564761480877 2.9180423617735833  45.93805116822893 3.144626548229701  C 46.209788716781276 3.37121756133785  46.528512106360125 3.5735963792537224  46.89415893157396 3.751907919429501  C 47.2598057567878 3.93006915108337  47.65603113452621 4.079558467113314  48.082952104671854 4.200175153259102  C 48.50920706994968 4.320791839404889  48.94854117512496 4.404942657955594  49.40077104481298 4.452771174777931  C 49.40077104481298 4.452771174777931  48.98101046809951 5.397347679219317  48.98101046809951 5.397347679219317  C 48.456850077859066 5.334125214787548  47.95182551490641 5.227582847760345  47.465628444205954 5.077818090829476  C 46.979431373505506 4.927909852028728  46.529148843813886 4.738453412971702  46.11488232343943 4.509320655573627  C 45.70061580306497 4.280194724827584  45.33964673236795 4.017017973001767  45.03194393842617 3.7198798949080443  C 44.724241144484395 3.4227486587385054  44.48450200509476 3.0939025688004347  44.312667970542364 2.7333917177530336  C 44.140167916235384 2.3727373695636023  44.05388472133087 1.9846298005872327  44.05388472133087 1.5691229826097837  Z M 39.65408167465202 1.637307644188665  L 39.65408167465202 0.6694607781809083  L 49.0051570672248 0.6694607781809083  L 49.0051570672248 1.637307644188665  L 39.65408167465202 1.637307644188665  Z M 61 13  L 61 0  L 62 0  L 62 13  L 61 13  Z M 53.48983906840469 1.5594895533591893  C 53.97603613910515 1.1888185365319655  54.529057296057275 1.0035030651820342  55.149125066883336 1.0035030651820342  C 55.774520995746144 1.0035030651820342  56.329024489161846 1.1888185365319655  56.81255745107036 1.5594895533591893  C 57.2954243783375 1.930160570186413  57.67433118808051 2.4543471387073064  57.94939885029261 3.1318653822094333  C 58.22380047786333 3.8092401896581385  58.361110560630976 4.6073084945420995  58.361110560630976 5.5262104341298635  C 58.361110560630976 6.4490343234900855  58.22380047786333 7.2501366552178474  57.94939885029261 7.929438258476168  C 57.67433118808051 8.608603206516639  57.2954243783375 9.133508635241382  56.81255745107036 9.50431627674215  C 56.329024489161846 9.874987293569372  55.774520995746144 10.060427874390092  55.149125066883336 10.060427874390092  C 54.529057296057275 10.060427874390092  53.97603613910515 9.874987293569372  53.48983906840469 9.50431627674215  C 53.00364199770424 9.133508635241382  52.62325291104478 8.608603206516639  52.34885128347406 7.929438258476168  C 52.07444965590334 7.2501366552178474  51.93738347817736 6.4490343234900855  51.93738347817736 5.5262104341298635  C 51.93738347817736 4.6073084945420995  52.07444965590334 3.8092401896581385  52.34885128347406 3.1318653822094333  C 52.62325291104478 2.4543471387073064  53.00364199770424 1.930160570186413  53.48983906840469 1.5594895533591893  Z M 56.239136698105014 2.4966845990241464  C 55.924773676843735 2.213006846078209  55.56139354288079 2.071187288877768  55.149125066883336 2.071187288877768  C 54.73619058601806 2.071187288877768  54.37250083675626 2.213006846078209  54.05813781549498 2.4966845990241464  C 53.74444079910152 2.780218885372357  53.49919462209868 3.1806609469809524  53.322032399735974 3.698110846991117  C 53.144204157618674 4.2155539050770985  53.05520028414938 4.824928233102402  53.05520028414938 5.5262104341298635  C 53.05520028414938 6.227649816147723  53.144204157618674 6.839465550423026  53.322032399735974 7.36169148004504  C 53.49919462209868 7.883773912525022  53.74444079910152 8.287533452122169  54.05813781549498 8.573001376204179  C 54.37250083675626 8.858469300286188  54.73619058601806 9.001251094707868  55.149125066883336 9.001251094707868  C 55.56139354288079 9.001251094707868  55.924773676843735 8.858469300286188  56.239136698105014 8.573001376204179  C 56.55349971936629 8.287533452122169  56.799299416709665 7.883773912525022  56.97646163907237 7.36169148004504  C 57.15362386143507 6.839465550423026  57.24207422945062 6.227649816147723  57.24207422945062 5.5262104341298635  C 57.24207422945062 4.824928233102402  57.15362386143507 4.2155539050770985  56.97646163907237 3.698110846991117  C 56.799299416709665 3.1806609469809524  56.55349971936629 2.780218885372357  56.239136698105014 2.4966845990241464  Z M 71.24368705153866 7.362692355811334  L 71.24368705153866 5.395095708745152  L 72.40345552467785 5.395095708745152  L 72.40345552467785 7.362692355811334  L 71.24368705153866 7.362692355811334  Z M 70.17660249423393 0.9250594269986239  C 70.64748100637127 0.7111771353401023  71.18559471814105 0.6042787439009133  71.79100996504536 0.6042787439009133  C 72.40241940462779 0.6042787439009133  72.94325379496237 0.7111771353401023  73.41346630223188 0.9250594269986239  C 73.8836788095014 1.1389417186571453  74.2510179939039 1.4388069907849057  74.51542928049537 1.824721631427499  C 74.78050657195466 2.2106362720700927  74.91299449841691 2.657817075536798  74.91299449841691 3.1661453772050545  C 74.91299449841691 3.674473678873311  74.78050657195466 4.1215293728692295  74.51542928049537 4.507444013511822  C 74.2510179939039 4.8933654960786  73.8836788095014 5.193323821429688  73.41346630223188 5.407356436882272  C 72.94325379496237 5.621238728540794  72.40241940462779 5.7282622294507695  71.79100996504536 5.7282622294507695  C 71.18559471814105 5.7282622294507695  70.64748100637127 5.621238728540794  70.17660249423393 5.407356436882272  C 69.70638998696442 5.193323821429688  69.33905080256193 4.8933654960786  69.07463951597045 4.507444013511822  C 68.81022822937896 4.1215293728692295  68.67804991821559 3.674473678873311  68.67804991821559 3.1661453772050545  C 68.67804991821559 2.657817075536798  68.81022822937896 2.2106362720700927  69.07463951597045 1.824721631427499  C 69.33905080256193 1.4388069907849057  69.70638998696442 1.1389417186571453  70.17660249423393 0.9250594269986239  Z M 72.85102127614167 1.727511572626048  C 72.54598256121825 1.5897107906429844  72.19348514151447 1.5207056174152385  71.79320511042039 1.5207056174152385  C 71.40025131151361 1.5207056174152385  71.05023066533293 1.5897107906429844  70.74319390603253 1.727511572626048  C 70.43549111209076 1.8653191965332947  70.19606155822642 2.0582540362465593  70.02489355831541 2.3065182034279994  C 69.85439157815898 2.554775528685256  69.76903716960395 2.8413624128143375  69.76903716960395 3.1661453772050545  C 69.76903716960395 3.490935183519955  69.85439157815898 3.7773901162540664  70.02489355831541 4.025647441511323  C 70.19606155822642 4.273904766768579  70.43549111209076 4.466971557876814  70.74319390603253 4.60477918178406  C 71.05023066533293 4.7425868056913085  71.40025131151361 4.811460027524084  71.79320511042039 4.811460027524084  C 72.19348514151447 4.811460027524084  72.54598256121825 4.7425868056913085  72.85102127614167 4.60477918178406  C 73.15605999106508 4.466971557876814  73.39425114328107 4.273904766768579  73.56541914319207 4.025647441511323  C 73.73592112334849 3.7773901162540664  73.82103162686187 3.490935183519955  73.82103162686187 3.1661453772050545  C 73.82103162686187 2.8413624128143375  73.73592112334849 2.554775528685256  73.56541914319207 2.3065182034279994  C 73.39425114328107 2.0582540362465593  73.15605999106508 1.8653191965332947  72.85102127614167 1.727511572626048  Z M 76.6144760691044 9.941073439259352  L 76.6144760691044 0.02001751532591017  L 77.7742445422436 0.02001751532591017  L 77.7742445422436 9.941073439259352  L 76.6144760691044 9.941073439259352  Z M 77.288873509321 5.394595270862005  L 77.288873509321 4.3989741023395466  L 79.62645942868294 4.3989741023395466  L 79.62645942868294 5.394595270862005  L 77.288873509321 5.394595270862005  Z M 69.77903727631241 12.691480045039409  L 69.77903727631241 11.712748655073188  L 78.2249810592491 11.712748655073188  L 78.2249810592491 12.691480045039409  L 69.77903727631241 12.691480045039409  Z M 69.77903727631241 12.143125234580257  L 69.77903727631241 9.100713123983486  L 70.93587888895156 9.100713123983486  L 70.93587888895156 12.143125234580257  L 69.77903727631241 12.143125234580257  Z M 70.50245962990458 7.98974102339547  C 69.6306350520318 8.009214061678358  68.83187986333314 8.018891530088828  68.1065804055836 8.018891530088828  C 68.1065804055836 8.018891530088828  67.9577983301651 7.042412110596773  67.9577983301651 7.042412110596773  C 68.69508617327091 7.042412110596773  69.51060643939799 7.033755803188752  70.40440980315338 7.016264231202302  C 71.2982131669088 6.998636005907024  72.21065543715787 6.9590859348121015  73.14175608581189 6.897660452896284  C 74.07219075937167 6.836234970980467  74.96607605997701 6.739699223514912  75.82324811392805 6.608157137495309  C 75.82324811392805 6.608157137495309  75.90910268859577 7.4822970098836485  75.90910268859577 7.4822970098836485  C 75.03061788340348 7.644913970134024  74.12788560624885 7.765334134225358  73.20078110589594 7.843362942574753  C 72.27367660554305 7.9213917509241485  71.37428420777736 7.970199657503661  70.50245962990458 7.98974102339547  Z M 84.04138458794529 10.799074189916176  L 84.04138458794529 7.612410859502065  L 85.1850553283343 7.612410859502065  L 85.1850553283343 10.799074189916176  L 84.04138458794529 10.799074189916176  Z M 88.08240331832809 10.781558864006005  L 88.08240331832809 7.594895533591893  L 89.21729347721697 7.594895533591893  L 89.21729347721697 10.781558864006005  L 88.08240331832809 10.781558864006005  Z M 80.8442773017395 11.386963593144001  L 80.8442773017395 10.39684724133617  L 92.30927769046316 10.39684724133617  L 92.30927769046316 11.386963593144001  L 80.8442773017395 11.386963593144001  Z M 82.24209709554827 1.9399474540222694  L 82.24209709554827 0.9667208807706744  L 90.88755520257075 0.9667208807706744  L 90.88755520257075 4.891530088827724  L 83.41893892160435 4.891530088827724  L 83.41893892160435 7.494807956962342  L 82.27307303584033 7.494807956962342  L 82.27307303584033 3.9381959214312525  L 89.74266493697341 3.9381959214312525  L 89.74266493697341 1.9399474540222694  L 82.24209709554827 1.9399474540222694  Z M 82.27307303584033 7.946828474915551  L 82.27307303584033 6.97672963843363  L 91.18146077778269 6.97672963843363  L 91.18146077778269 7.946828474915551  L 82.27307303584033 7.946828474915551  Z M 94.71393749628426 6.574377580382834  L 94.71393749628426 5.595521080945828  L 101.18181139128009 5.595521080945828  L 101.18181139128009 6.574377580382834  L 94.71393749628426 6.574377580382834  Z M 97.30250170352427 9.356436882271987  L 97.30250170352427 6.36982359564619  L 98.46739218253853 6.36982359564619  L 98.46739218253853 9.356436882271987  L 97.30250170352427 9.356436882271987  Z M 94.71393749628426 5.9394470161391215  L 94.71393749628426 1.232203177780558  L 101.12376199136271 1.232203177780558  L 101.12376199136271 2.205679969973727  L 95.86980348875673 2.205679969973727  L 95.86980348875673 5.9394470161391215  L 94.71393749628426 5.9394470161391215  Z M 102 13  L 102 0  L 104 0  L 104 13  L 102 13  Z M 96.51420060884796 10.164018516201676  C 95.60174857286968 10.182193352823248  94.74250040825511 10.191292380833229  93.93661212848308 10.191292380833229  C 93.93661212848308 10.191292380833229  93.7788055665228 9.189290629300638  93.7788055665228 9.189290629300638  C 94.60867067655448 9.183482880856626  95.48981569020172 9.173850652378997  96.4222484081385 9.160390341548856  C 97.35534716071666 9.146793377409885  98.30149775083348 9.114152751547008  99.26057137804824 9.062429625922682  C 100.21897903016877 9.010569848898548  101.14206005008819 8.930993284284883  102.02986922116548 8.823720755661203  C 102.02986922116548 8.823720755661203  102.12377266220828 9.705867634179908  102.12377266220828 9.705867634179908  C 101.20332838917489 9.84730338692352  100.2662686211019 9.954381081065561  99.31252315192388 10.027148755160766  C 98.35944371738722 10.09991642925597  97.42665264482625 10.145570374871468  96.51420060884796 10.164018516201676  Z M 109.808488810094 8.666082822469662  C 109.808488810094 8.666082822469662  109.808488810094 7.913424246215439  109.808488810094 7.913424246215439  L 110.71654728023013 7.913424246215439  C 110.71654728023013 7.913424246215439  110.71654728023013 8.666082822469662  110.71654728023013 8.666082822469662  C 110.71654728023013 9.233260682687195  110.60471780115222 9.791521866300982  110.38093394289268 10.34079819842362  C 110.15781611927451 10.889937875328412  109.8339609580914 11.380171914341064  109.40970406696414 11.81158513699487  C 108.98544717583687 12.242930032039753  108.46830152675028 12.579059945885266  107.85822409690347 12.819842362066808  C 107.85822409690347 12.819842362066808  107.27382761706298 11.93419241836607  107.27382761706298 11.93419241836607  C 107.80997645220681 11.729554696418937  108.26576601951163 11.451660858769  108.64140318570472 11.100462905041912  C 109.0170403518978 10.749196623705899  109.30563922092632 10.36074197979873  109.50677827354865 9.93506818466158  C 109.70791732617099 9.509394389524427  109.808488810094 9.086358828134774  109.808488810094 8.666082822469662  Z M 110.06312567359713 8.666082822469662  C 110.06312567359713 8.666082822469662  110.06312567359713 7.913424246215439  110.06312567359713 7.913424246215439  L 110.92923247656606 7.913424246215439  C 110.92923247656606 7.913424246215439  110.92923247656606 8.666082822469662  110.92923247656606 8.666082822469662  C 110.92923247656606 9.106105171126298  111.0124853924937 9.54421853130278  111.17899123923578 9.980482922557238  C 111.34549708597787 10.416815641420618  111.59828612762446 10.814755238714735  111.93729201378673 11.174152383335418  C 112.276297899949 11.533617855565025  112.6980038516036 11.821314246278972  113.20218355988555 12.03715751282372  C 113.20218355988555 12.03715751282372  112.70559289504615 12.93706993619417  112.70559289504615 12.93706993619417  C 112.09751356912346 12.688771605208268  111.59799604378401 12.34002585514278  111.20704031902778 11.890779432003002  C 110.81608459427159 11.441601336472148  110.52772966005831 10.93668605537658  110.34190913622554 10.376204178656323  C 110.15608861239278 9.815585646718223  110.06312567359713 9.245559469027587  110.06312567359713 8.666082822469662  Z M 114.48195331352622 8.666082822469662  C 114.48195331352622 8.666082822469662  114.48195331352622 7.913424246215439  114.48195331352622 7.913424246215439  L 115.34806011649515 7.913424246215439  C 115.34806011649515 7.913424246215439  115.34806011649515 8.666082822469662  115.34806011649515 8.666082822469662  C 115.34806011649515 9.175866468609252  115.25385879093793 9.711175989928687  115.06537417320003 10.271862880020018  C 114.8768895554621 10.832481411958119  114.58853460636205 11.350976904596209  114.20024299039775 11.827348930314026  C 113.81195137443349 12.30351597320507  113.31367222096881 12.673398152827083  112.70559289504615 12.93706993619417  C 112.70559289504615 12.93706993619417  112.21509985624847 12.03715751282372  112.21509985624847 12.03715751282372  C 112.71927956453041 11.79637509664218  113.13981282479386 11.484115923210153  113.47682063680558 11.100462905041912  C 113.81382844881729 10.716741559264747  114.06568870411441 10.309124487833104  114.23219455085649 9.877642937570373  C 114.39870039759856 9.446161387307644  114.48195331352622 9.04228828398677  114.48195331352622 8.666082822469662  Z M 114.71658996361242 8.666082822469662  C 114.71658996361242 8.666082822469662  114.71658996361242 7.913424246215439  114.71658996361242 7.913424246215439  L 115.61879471274847 7.913424246215439  C 115.61879471274847 7.913424246215439  115.61879471274847 8.666082822469662  115.61879471274847 8.666082822469662  C 115.61879471274847 9.115055935173746  115.71874699584733 9.554780446318262  115.91855400896046 9.985237082447142  C 116.1183610220736 10.415693718576021  116.40671595628689 10.800415970663783  116.78368519176273 11.139246840985862  C 117.16132043210636 11.477941056090094  117.61983067797598 11.742878351076724  118.15930962677955 11.93419241836607  C 118.15930962677955 11.93419241836607  117.569791141064 12.819842362066808  117.569791141064 12.819842362066808  C 116.9597137112172 12.588625643140874  116.44132966048227 12.263580303175436  116.01440869033664 11.844739146753408  C 115.58748772019099 11.42582966272246  115.26449564998693 10.941733196234205  115.0453739597831 10.392593519329413  C 114.82625226957929 9.843317187206774  114.71658996361242 9.267833903004973  114.71658996361242 8.666082822469662  Z M 112.80047195625563 4.24271237332666  L 112.80047195625563 3.261353684473914  L 116.14514179267158 3.261353684473914  L 116.14514179267158 4.24271237332666  L 112.80047195625563 4.24271237332666  Z M 108.3618880079513 1.1271112223195296  C 108.85008312302875 0.868242805716721  109.40551540279394 0.7387714249968723  110.02824725263837 0.7387714249968723  C 110.65031306784142 0.7387714249968723  111.20426304091659 0.868242805716721  111.69046011161704 1.1271112223195296  C 112.17599114767611 1.3859864808465219  112.5600297290234 1.7441441681393095  112.84242362342282 2.201801576379332  C 113.12481751782222 2.6594589846193544  113.26608668080299 3.186475055321844  113.26608668080299 3.782684849243088  C 113.26608668080299 4.37905176306612  113.12481751782222 4.904624493208901  112.84242362342282 5.3594395095708744  C 112.5600297290234 5.814111059335121  112.17599114767611 6.1708757736261415  111.69046011161704 6.429751032153134  C 111.20426304091659 6.688462298309849  110.65031306784142 6.817840610534217  110.02824725263837 6.817840610534217  C 109.40551540279394 6.817840610534217  108.85008312302875 6.688462298309849  108.3618880079513 6.429751032153134  C 107.87302685823248 6.1708757736261415  107.4886786913599 5.814111059335121  107.20894887597886 5.3594395095708744  C 106.9298850952392 4.904624493208901  106.79040782447373 4.37905176306612  106.79040782447373 3.782684849243088  C 106.79040782447373 3.186475055321844  106.9298850952392 2.6594589846193544  107.20894887597886 2.201801576379332  C 107.4886786913599 1.7441441681393095  107.87302685823248 1.3859864808465219  108.3618880079513 1.1271112223195296  Z M 111.1202101241934 1.9969973727011134  C 110.80118491998961 1.8236189973111236  110.43718558520251 1.736894782935068  110.02824725263837 1.736894782935068  C 109.61930892007423 1.736894782935068  109.25382727859711 1.8236189973111236  108.93213799537494 1.9969973727011134  C 108.61044871215279 2.1703757480911032  108.35704046968203 2.4114354454679092  108.17188598049064 2.7203803327911924  C 107.98739751105386 3.0291680696683816  107.89529766323726 3.3833167253768925  107.89529766323726 3.782684849243088  C 107.89529766323726 4.1784658194572595  107.98739751105386 4.53023406589164  108.17188598049064 4.837983235330914  C 108.35704046968203 5.14573240477019  108.61044871215279 5.387754369912541  108.93213799537494 5.564118603778306  C 109.25382727859711 5.740489679568255  109.61930892007423 5.828725134492681  110.02824725263837 5.828725134492681  C 110.43718558520251 5.828725134492681  110.80118491998961 5.740489679568255  111.1202101241934 5.564118603778306  C 111.4385692937558 5.387754369912541  111.69018564401127 5.14573240477019  111.87534013320263 4.837983235330914  C 112.05982860263944 4.53023406589164  112.1521723554977 4.1784658194572595  112.1521723554977 3.782684849243088  C 112.1521723554977 3.3833167253768925  112.05982860263944 3.0291680696683816  111.87534013320263 2.7203803327911924  C 111.69018564401127 2.4114354454679092  111.4385692937558 2.1703757480911032  111.1202101241934 1.9969973727011134  Z M 115.81757732170922 7.405730013762041  L 115.81757732170922 0.011259852370824473  L 116.9824678007235 0.011259852370824473  L 116.9824678007235 7.405730013762041  L 115.81757732170922 7.405730013762041  Z M 120.88958266322963 12.815963968472413  L 120.88958266322963 7.789565870136369  L 122.03861931453537 7.789565870136369  L 122.03861931453537 9.288377330163893  L 128.22966098723614 9.288377330163893  L 128.22966098723614 7.789565870136369  L 129.3784537335002 7.789565870136369  L 129.3784537335002 12.815963968472413  L 120.88958266322963 12.815963968472413  Z M 128.22966098723614 10.217064931815338  L 122.03861931453537 10.217064931815338  L 122.03861931453537 11.85374702865007  L 128.22966098723614 11.85374702865007  L 128.22966098723614 10.217064931815338  Z M 119.44103062075358 6.887776804704116  L 119.44103062075358 6  L 130.87212820868515 6  L 130.87212820868515 6.887776804704116  L 119.44103062075358 6.887776804704116  Z M 124.56620726135797 0.7303890904541473  C 124.56620726135797 0.7303890904541473  124.56620726135797 0.14913048917803076  124.56620726135797 0.14913048917803076  L 125.56621793220356 0.14913048917803076  C 125.56621793220356 0.14913048917803076  125.56621793220356 0.7303890904541473  125.56621793220356 0.7303890904541473  C 125.56621793220356 1.1816238256325846  125.47418377975737 1.605501218595568  125.29036133007517 2.001876642061804  C 125.10720490014756 2.3981085683860095  124.85527894948004 2.7612879531308643  124.53425570089925 3.0914550231452522  C 124.21389845718629 3.42147178463773  123.84142750117951 3.7156780371301448  123.41717061005225 3.9741023395471036  C 122.99291371892497 4.2323763334421525  122.53502267387952 4.447791078668445  122.04349741536876 4.620417865632429  C 121.55130615199019 4.792901155454382  121.04448969682223 4.921254057199953  120.52299338560016 5.005254597773051  C 120.52299338560016 5.005254597773051  120.09250098705321 4.0660578005755035  120.09250098705321 4.0660578005755035  C 120.54606289625042 4.001195496437801  120.99090406881247 3.8971014157651616  121.42714937506955 3.753909670962092  C 121.86406071596801 3.6107247528110533  122.27271676536563 3.4344720209284683  122.65301611450121 3.2250719379457022  C 123.03331546363681 3.015671854962936  123.36663674264626 2.7808201805486052  123.65302678534678 2.520455398473665  C 123.9400828626887 2.2600906163987236  124.16374183573129 1.9783324508065652  124.32425346002168 1.6752158138371074  C 124.48543111895344 1.3721060187918335  124.56620726135797 1.0571193458827255  124.56620726135797 0.7303890904541473  Z M 124.75596538377695 0.7303890904541473  C 124.75596538377695 0.7303890904541473  124.75596538377695 0.14913048917803076  124.75596538377695 0.14913048917803076  L 125.74695156808076 0.14913048917803076  C 125.74695156808076 0.14913048917803076  125.74695156808076 0.7303890904541473  125.74695156808076 0.7303890904541473  C 125.74695156808076 1.0512910955289003  125.82896609724685 1.3619301837838578  125.99280785008376 1.662204428875266  C 126.15664960292068 1.962328365444764  126.38302923964127 2.244093372961107  126.67208339113374 2.5074440135118228  C 126.96246958213541 2.770651187464813  127.29610044667015 3.008425432556221  127.673069682146 3.2208182159389467  C 128.05070492248964 3.4330538488755784  128.4578130144872 3.6122359933594237  128.89405832074428 3.758413611910422  C 129.33096966164274 3.9045912304614196  129.77309012586642 4.007174062949612  130.22065784238552 4.0660578005755035  C 130.22065784238552 4.0660578005755035  129.79114106400525 5.005254597773051  129.79114106400525 5.005254597773051  C 129.27497297036706 4.921254057199953  128.77211556563867 4.792901155454382  128.28258838127846 4.620417865632429  C 127.79372723155964 4.447791078668445  127.33583615674063 4.230865092893782  126.90891518659498 3.9695983985987735  C 126.48199421644934 3.7083385462279495  126.10797524349536 3.411202881134274  125.78695199491457 3.0781934192418365  C 125.46659475120163 2.7451907992735833  125.21442491037918 2.3820045726045445  125.030602460697 1.9886150381583885  C 124.84744603076939 1.5952255037122325  124.75596538377695 1.1757955752787594  124.75596538377695 0.7303890904541473  Z M 141 12.98323533091455  L 141 0.005629926185412236  L 142 0.005629926185412236  L 142 12.98323533091455  L 141 12.98323533091455  Z M 133.11190820633757 9.315400975853873  L 133.11190820633757 1.276992368322282  L 134.26265219293498 1.276992368322282  L 134.26265219293498 9.315400975853873  L 133.11190820633757 9.315400975853873  Z M 133.11190820633757 9.640935818841486  L 133.11190820633757 8.608782684849242  C 133.11190820633757 8.608782684849242  134.14996806368362 8.608782684849242  134.14996806368362 8.608782684849242  C 135.11436990848227 8.608782684849242  136.09825354939002 8.565159515491583  137.1019507830114 8.478043287876892  C 138.1049819224443 8.390722085071507  139.1401364753511 8.233066527816332  140.20710586850774 8.005129488302265  C 140.20710586850774 8.005129488302265  140.35076593805118 9.020768172150632  140.35076593805118 9.020768172150632  C 139.25249345267403 9.254103001136736  138.19506684427273 9.415820110907593  137.17804915601232 9.505942699862379  C 136.16103146775194 9.595928641235396  135.151667252928 9.640935818841486  134.14996806368362 9.640935818841486  C 134.14996806368362 9.640935818841486  133.11190820633757 9.640935818841486  133.11190820633757 9.640935818841486  Z M 153 13  L 153 0  L 155 0  L 155 13  L 153 13  Z M 154.63506470343435 6.1232328287251345  L 154.63506470343435 5.1219817340172655  L 156.97191890767127 5.1219817340172655  L 156.97191890767127 6.1232328287251345  L 154.63506470343435 6.1232328287251345  Z M 145.71960371528354 9.767796822219442  L 145.71960371528354 8.760915801326162  C 145.71960371528354 8.760915801326162  146.71376066512903 8.760915801326162  146.71376066512903 8.760915801326162  C 147.49633814928285 8.760915801326162  148.21097730130123 8.748447224924714  148.8576859814053 8.723508069560866  C 149.5050606961507 8.698363935188285  150.1282192011767 8.65324318813141  150.7269742207615 8.588264731640185  C 151.32506320570494 8.523081292322187  151.9382678125948 8.432057318036584  152.56699385511735 8.315150756912297  C 152.56699385511735 8.315150756912297  152.69992210282732 9.325284624046041  152.69992210282732 9.325284624046041  C 152.05254738808188 9.445880814963582  151.4223995387527 9.538719976170556  150.80965802988752 9.603903415488553  C 150.19625048638096 9.66908685480655  149.55935719779023 9.712755260279014  148.8986620284058 9.734893031402478  C 148.23730082438 9.75682582351721  147.50899256928048 9.767796822219442  146.71376066512903 9.767796822219442  C 146.71376066512903 9.767796822219442  145.71960371528354 9.767796822219442  145.71960371528354 9.767796822219442  Z M 145.71960371528354 9.211935443513074  L 145.71960371528354 1.2633554360065056  L 151.5869833976887 1.2633554360065056  L 151.5869833976887 2.2390841986738397  L 146.87156722708932 2.2390841986738397  L 146.87156722708932 9.211935443513074  L 145.71960371528354 9.211935443513074  Z M 159.88292557999858 1.6277993244088578  L 159.5692636964114 9.026272988865257  L 158.82510941427728 9.026272988865257  L 158.51022800548176 1.6277993244088578  L 159.88292557999858 1.6277993244088578  Z M 158.6063265918996 11.846240460402854  C 158.45180917517413 11.699065280142586  158.37437289727177 11.464351895066386  158.37437289727177 11.142124358813962  C 158.37437289727177 10.815113951025507  158.45180917517413 10.582760510539496  158.6063265918996 10.44501438758914  C 158.7608440086251 10.307199937029862  158.9541345263021 10.238333541849117  159.1865766860317 10.238333541849117  C 159.4143566777056 10.238333541849117  159.6069623140748 10.307199937029862  159.76414382470546 10.44501438758914  C 159.9213253353361 10.582760510539496  160 10.815113951025507  160 11.142124358813962  C 160 11.464351895066386  159.9213253353361 11.699065280142586  159.76414382470546 11.846240460402854  C 159.6069623140748 11.993347313054196  159.4143566777056 12.066933566871011  159.1865766860317 12.066933566871011  C 158.9541345263021 12.066933566871011  158.7608440086251 11.993347313054196  158.6063265918996 11.846240460402854  Z " fill-rule="nonzero" fill="#26262c" stroke="none" transform="matrix(1 0 0 1 135 263 )" />
  </g>
</svg>