<?xml version="1.0" encoding="utf-8"?>
<svg version="1.1" xmlns:xlink="http://www.w3.org/1999/xlink" width="13px" height="13px" xmlns="http://www.w3.org/2000/svg">
  <g transform="matrix(1 0 0 1 -435 -868 )">
    <path d="M 1.9037934488820003 1.9037934488820003  C 0.6345988561000908 3.1730081979050504  0 4.705105442982497  0 6.5  C 0 8.294901155786924  0.6345988561000908 9.826971765831436  1.9037934488820003 11.096206551118  C 3.1730081979050504 12.36540114389991  4.704982585893644 13  6.499877142911147 13  C 8.29477829869807 13  9.826971765831436 12.36540114389991  11.096206551118 11.096206551118  C 12.36540114389991 9.826971765831436  13 8.294901155786924  13 6.5  C 13 4.705105442982497  12.36540114389991 3.1730081979050504  11.096206551118 1.9037934488820003  C 9.826971765831436 0.6345988561000908  8.29477829869807 0  6.499877142911147 0  C 4.704982585893644 0  3.1730081979050504 0.6345988561000908  1.9037934488820003 1.9037934488820003  Z M 10.206475513637137 10.206475513637137  C 9.182920712435264 11.23005047108015  7.94737360486325 11.741943410134764  6.499877142911147 11.741943410134764  C 5.052387399706088 11.741943410134764  3.8168470108811214 11.23005047108015  2.7932787721851553 10.206475513637137  C 1.7697374084773752 9.18292743118231  1.2580565898652352 7.947503180699152  1.2580565898652352 6.5  C 1.2580565898652352 5.052503538047896  1.7697374084773752 3.8169564304758823  2.7932787721851553 2.793401629274009  C 3.816840292134075 1.7698535468191827  5.0523806809590415 1.2580565898652352  6.499877142911147 1.2580565898652352  C 7.947380323610298 1.2580565898652352  9.18292743118231 1.7698602655662294  10.206475513637137 2.793401629274009  C 11.23005047108015 3.816969867969976  11.741943410134764 5.0525102567949425  11.741943410134764 6.5  C 11.741943410134764 7.947496461952105  11.23005047108015 9.182920712435264  10.206475513637137 10.206475513637137  Z " fill-rule="nonzero" fill="#b8b8c1" stroke="none" transform="matrix(1 0 0 1 435 868 )" />
  </g>
</svg>