<?xml version="1.0" encoding="utf-8"?>
<svg version="1.1" xmlns:xlink="http://www.w3.org/1999/xlink" width="72px" height="18px" xmlns="http://www.w3.org/2000/svg">
  <g transform="matrix(1 0 0 1 -179 -223 )">
    <path d="M 13 13.001780163137338  L 13 0  L 15 0  L 15 13.001780163137338  L 13 13.001780163137338  Z M 2.8099861493009834 17.673831601881126  L 2.8099861493009834 15.799917634242899  L 15.51190955425312 15.799917634242899  L 15.51190955425312 17.673831601881126  L 2.8099861493009834 17.673831601881126  Z M 2.8099861493009834 16.541209448149427  L 2.8099861493009834 11.695910938703934  L 5.193316184848837 11.695910938703934  L 5.193316184848837 16.541209448149427  L 2.8099861493009834 16.541209448149427  Z M 2.448667126082299 1.746459600924622  C 3.20055393334479 1.3610022484782676  4.0441327252401695 1.16825198607753  4.979128429412607 1.16825198607753  C 5.918819253495084 1.16825198607753  6.763087735201756 1.3610022484782676  7.512291642501859 1.746459600924622  C 8.261495549801962 2.1319169533709763  8.856602777980928 2.665383909430049  9.297271480523735 3.3469325397879746  C 9.73794018306654 4.028474631533631  9.958256858825214 4.813518693736798  9.958256858825214 5.701968807290698  C 9.958256858825214 6.572873488905946  9.73794018306654 7.35240088890877  9.297271480523735 8.040505353774211  C 8.856602777980928 8.728544549277888  8.261495549801962 9.26752165811527  7.512291642501859 9.657478013656775  C 6.763087735201756 10.047238473542285  5.918819253495084 10.2421420410766  4.979128429412607 10.2421420410766  C 4.0441327252401695 10.2421420410766  3.20055393334479 10.047238473542285  2.448667126082299 9.657478013656775  C 1.6974510588023581 9.26752165811527  1.1013423081872216 8.728544549277888  0.6600028656618655 8.040505353774211  C 0.22000487311770367 7.35240088890877  0 6.572873488905946  0 5.701968807290698  C 0 4.813518693736798  0.22000487311770367 4.028474631533631  0.6600028656618655 3.3469325397879746  C 1.1013423081872216 2.665383909430049  1.6974510588023581 2.1319169533709763  2.448667126082299 1.746459600924622  Z M 6.331311449683754 3.4862236628849272  C 5.92954500648292 3.2821691469326852  5.478821260950922 3.1801418816590057  4.979128429412607 3.1801418816590057  C 4.479435597874293 3.1801418816590057  4.029647200297398 3.2821691469326852  3.6298929470603083 3.4862236628849272  C 3.2308094038218633 3.6902781788371692  2.9165612604653157 3.9791922351488394  2.687172069349017 4.352817705980817  C 2.457112153242121 4.726234203932259  2.3420645046839925 5.175912988766457  2.3420645046839925 5.701968807290698  C 2.3420645046839925 6.219248640539479  2.457112153242121 6.6647207624655005  2.687172069349017 7.038326646650902  C 2.9165612604653157 7.4117627312489205  3.2308094038218633 7.700507484207176  3.6298929470603083 7.904562000159418  C 4.029647200297398 8.10861651611166  4.479435597874293 8.210643781385338  4.979128429412607 8.210643781385338  C 5.478821260950922 8.210643781385338  5.92954500648292 8.10861651611166  6.331311449683754 7.904562000159418  C 6.732407182885944 7.700507484207176  7.047902461846611 7.4117627312489205  7.277962377953507 7.038326646650902  C 7.507351569069806 6.6647207624655005  7.622087429978917 6.219248640539479  7.622087429978917 5.701968807290698  C 7.622087429978917 5.175912988766457  7.507351569069806 4.726234203932259  7.277962377953507 4.352817705980817  C 7.047902461846611 3.9791922351488394  6.732407182885944 3.6902781788371692  6.331311449683754 3.4862236628849272  Z M 18.197116598322904 10  L 18.197116598322904 8.3706193373542  L 34.935447554976356 8.3706193373542  L 34.935447554976356 10  L 18.197116598322904 10  Z M 21.843221003936875 12.23860828440099  C 22.9814475046567 11.659289338989892  24.545961317082924 11.369622977389271  26.536683883381208 11.369622977389271  C 28.531430769639165 11.369622977389271  30.0968799600044 11.659289338989892  31.23309430074439 12.23860828440099  C 32.36930864148438 12.817731363346324  32.93726247415787 13.634318274943872  32.93726247415787 14.688219039774689  C 32.93726247415787 15.741989265881976  32.36930864148438 16.55732893718905  31.23309430074439 17.134362462470442  C 30.0968799600044 17.711461315494063  28.531430769639165 18  26.536683883381208 18  C 24.545961317082924 18  22.9814475046567 17.711461315494063  21.843221003936875 17.134362462470442  C 20.704994503217048 16.55732893718905  20.13585966444464 15.741989265881976  20.13585966444464 14.688219039774689  C 20.13585966444464 13.634318274943872  20.704994503217048 12.817731363346324  21.843221003936875 12.23860828440099  Z M 28.722774506526203 13.337513616919521  C 28.13119185654164 13.226899745306781  27.40259456870723 13.17155990116109  26.536683883381208 13.17155990116109  C 25.674126838000124 13.17155990116109  24.94590746731994 13.226899745306781  24.35231265735554 13.337513616919521  C 23.75871784739114 13.447866301621824  23.310422198586316 13.614796416090611  23.00725285372161 13.8382442808938  C 22.7040835088569 14.061692145696991  22.55259512973943 14.345015659327714  22.55259512973943 14.688219039774689  C 22.55259512973943 15.022476664549057  22.7040835088569 15.302362955227528  23.00725285372161 15.528030927013312  C 23.310422198586316 15.753764197351094  23.75871784739114 15.921919469698826  24.35231265735554 16.032468050057126  C 24.94590746731994 16.142886033311427  25.674126838000124 16.198182639423973  26.536683883381208 16.198182639423973  C 27.40259456870723 16.198182639423973  28.13119185654164 16.142886033311427  28.722774506526203 16.032468050057126  C 29.314357156510766 15.921919469698826  29.76171742737658 15.753764197351094  30.06488677224129 15.528030927013312  C 30.36872682710464 15.302362955227528  30.520772637022986 15.022476664549057  30.520772637022986 14.688219039774689  C 30.520772637022986 14.345015659327714  30.36872682710464 14.061692145696991  30.06488677224129 13.8382442808938  C 29.76171742737658 13.614796416090611  29.314357156510766 13.447866301621824  28.722774506526203 13.337513616919521  Z M 24.946978432482958 2.2414512315009167  C 24.946978432482958 2.2414512315009167  24.946978432482958 1.7782634110051279  24.946978432482958 1.7782634110051279  L 27.067731965093508 1.7782634110051279  C 27.067731965093508 1.7782634110051279  27.067731965093508 2.2414512315009167  27.067731965093508 2.2414512315009167  C 27.067731965093508 2.7895449172564564  26.960592241982756 3.311744355672692  26.745959075619357 3.8082073491511013  C 26.53199664923851 4.304467937551479  26.21930741414315 4.762831780084259  25.808150761106145 5.1831841007519195  C 25.396994108069144 5.603333987151315  24.896375733313064 5.976682034005558  24.3061345632936 6.303371682121317  C 23.716564073288875 6.630048282202769  23.044342705867102 6.903468542126618  22.28977299864222 7.1234556420543615  C 21.535874031399892 7.343442741982104  20.708734635713398 7.49471626613169  19.807946070972893 7.577317533278423  C 19.807946070972893 7.577317533278423  18.97379283993914 5.755891808592608  18.97379283993914 5.755891808592608  C 19.74446000690616 5.690594358525551  20.44514809491055 5.575276378643045  21.075633004237083 5.409995483168159  C 21.70611791356362 5.244505629407855  22.261487110998132 5.046470840137468  22.741728812865457 4.815885963280814  C 23.221970514732785 4.58530762503643  23.62498212959188 4.331913383081102  23.950956244072515 4.05582272763504  C 24.2762596185706 3.7797385816110145  24.523484046682892 3.4864053137070488  24.692507658822485 3.175837606610516  C 24.862201995952677 2.8650609266334492  24.946978432482958 2.5536579118194442  24.946978432482958 2.2414512315009167  Z M 26.07883299332028 2.2414512315009167  C 26.07883299332028 2.2414512315009167  26.07883299332028 1.7782634110051279  26.07883299332028 1.7782634110051279  L 28.192708937453517 1.7782634110051279  C 28.192708937453517 1.7782634110051279  28.192708937453517 2.2414512315009167  28.192708937453517 2.2414512315009167  C 28.192708937453517 2.5624338970949045  28.275057247272716 2.877111355524899  28.440056494476778 3.1856417886654094  C 28.60505574168084 3.4941722218059192  28.850409458890972 3.7876552356069575  29.175712833389056 4.065985599277306  C 29.501686947869686 4.344113557869624  29.90656925863899 4.598459576573481  30.390835340433807 4.8290379148178655  C 30.875772132227265 5.05962279167452  31.433569456372858 5.255454506463471  32.06405436569939 5.416451895740893  C 32.694539275025924 5.577449285018316  33.39522736303032 5.690594358525551  34.16589452999734 5.755891808592608  C 34.16589452999734 5.755891808592608  33.331741298963586 7.577317533278423  33.331741298963586 7.577317533278423  C 32.43095273422308 7.49471626613169  31.60356771037668 7.345632753834118  30.84966874313435 7.130151181018678  C 30.09576977589202 6.9144737125472435  29.42379397666234 6.641186078448609  28.833552806642874 6.310186784281425  C 28.243311636623417 5.979004671682786  27.743628609822437 5.603333987151315  27.33448414674918 5.1831841007519195  C 26.92601042365847 4.762831780084259  26.61481393733518 4.305689023392872  26.400851510954332 3.8116746818290514  C 26.186218344590934 3.3174578768067327  26.07883299332028 2.7940374109295703  26.07883299332028 2.2414512315009167  Z M 19.7273800345244 3  L 19.7273800345244 1  L 33.43343135716381 1  L 33.43343135716381 3  L 19.7273800345244 3  Z M 41.085731050810914 10.06303637378112  L 41.085731050810914 7.3326912346892685  L 43.475201790356365 7.3326912346892685  L 43.475201790356365 10.06303637378112  L 41.085731050810914 10.06303637378112  Z M 39.87232794088549 1.1946754523474241  C 40.56787354909877 0.8898147277726622  41.36068850831212 0.7373462284454128  42.250745413235265 0.7373462284454128  C 43.14482669808589 0.7373462284454128  43.93975798136936 0.8898147277726622  44.63530358958264 1.1946754523474241  C 45.330849197795914 1.4995296383099161  45.87550439593383 1.9262571935113717  46.26922210926359 2.474958152881473  C 46.66293982259336 3.0236656508638444  46.85971220567265 3.6551265846793877  46.85971220567265 4.369317427000027  C 46.85971220567265 5.083508269320665  46.66293982259336 5.715012404681563  46.26922210926359 6.2639158275101625  C 45.87550439593383 6.812610248267995  45.330849197795914 7.239444318630935  44.63530358958264 7.544318091240003  C 43.93975798136936 7.849191863849072  43.14482669808589 8.001647315142014  42.250745413235265 8.001647315142014  C 41.36068850831212 8.001647315142014  40.56787354909877 7.849191863849072  39.87232794088549 7.544318091240003  C 39.17678233267221 7.239444318630935  38.632127134534294 6.812610248267995  38.23840942120453 6.2639158275101625  C 37.84469170787477 5.715012404681563  37.64791932479548 5.083508269320665  37.64791932479548 4.369317427000027  C 37.64791932479548 3.6551265846793877  37.84469170787477 3.0236656508638444  38.23840942120453 2.474958152881473  C 38.632127134534294 1.9262571935113717  39.17678233267221 1.4995296383099161  39.87232794088549 1.1946754523474241  Z M 43.49141324891002 2.7180301299253395  C 43.13659779492224 2.568250853820812  42.72474290666066 2.493370885033345  42.25590360459325 2.493370885033345  C 41.79578377237946 2.493370885033345  41.38548780737102 2.568250853820812  41.02530652347455 2.7180301299253395  C 40.66445452957943 2.8676004623395652  40.38384105792496 3.083531637724139  40.18329319132387 3.3659430879188035  C 39.98274532472278 3.6481521330354356  39.88239869544155 3.9826324792902428  39.88239869544155 4.369317427000027  C 39.88239869544155 4.756204808978076  39.98274532472278 5.090728385968471  40.18329319132387 5.372930892472833  C 40.38384105792496 5.655139937589465  40.66445452957943 5.87118413755756  41.02530652347455 6.020963413662088  C 41.38548780737102 6.170736165749462  41.79578377237946 6.2456226585540815  42.25590360459325 6.2456226585540815  C 42.72474290666066 6.2456226585540815  43.13659779492224 6.170736165749462  43.49141324891002 6.020963413662088  C 43.84622870289781 5.87118413755756  44.12379047254317 5.655139937589465  44.32433833914426 5.372930892472833  C 44.524886205745354 5.090728385968471  44.62523283502658 4.756204808978076  44.62523283502658 4.369317427000027  C 44.62523283502658 3.9826324792902428  44.524886205745354 3.6481521330354356  44.32433833914426 3.3659430879188035  C 44.12379047254317 3.083531637724139  43.84622870289781 2.8676004623395652  43.49141324891002 2.7180301299253395  Z M 49 13.747615378483939  L 49 0  L 51 0  L 51 13.747615378483939  L 49 13.747615378483939  Z M 50.436303842033794 7.683250524749582  L 50.436303842033794 5.769880702500199  L 53.74245887434073 5.769880702500199  L 53.74245887434073 7.683250524749582  L 50.436303842033794 7.683250524749582  Z M 39.14182979333119 17.667375189308395  L 39.14182979333119 15.793461221670166  L 51.94053069328548 15.793461221670166  L 51.94053069328548 17.667375189308395  L 39.14182979333119 17.667375189308395  Z M 39.14182979333119 16.605773573876768  L 39.14182979333119 12.578406886840078  L 41.53842374951386 12.578406886840078  L 41.53842374951386 16.605773573876768  L 39.14182979333119 16.605773573876768  Z M 40.35130285269816 11.280667959720487  C 39.11112567366508 11.307570507046417  37.9755958055367 11.320960756702181  36.94468590299052 11.320960756702181  C 36.94468590299052 11.320960756702181  36.6619678909411 9.46677471636953  36.6619678909411 9.46677471636953  C 37.71367043310726 9.46677471636953  38.87704323663288 9.455520217570767  40.15209841501607 9.433057895156361  C 41.427824273414 9.410660871293956  42.72923170731187 9.360286949918486  44.05660364484898 9.281930015676062  C 45.384646382336435 9.203507782881644  46.659703359754 9.080261976441381  47.88177097903291 8.912121051093338  C 47.88177097903291 8.912121051093338  48.05100878120672 10.583136275473603  48.05100878120672 10.583136275473603  C 46.794734082463684 10.805147601323062  45.50715846438477 10.970071660790392  44.188505966717386 11.078008342854107  C 42.870524269000356 11.185945024917821  41.59148003173124 11.253504221835342  40.35130285269816 11.280667959720487  Z M 59.59872546277028 14.803956213300742  L 59.59872546277028 10.50805058851662  L 61.948158812251386 10.50805058851662  L 61.948158812251386 14.803956213300742  L 59.59872546277028 14.803956213300742  Z M 65.46850159999454 14.791043388155273  L 65.46850159999454 10.495257326566943  L 67.81154861731815 10.495257326566943  L 67.81154861731815 14.791043388155273  L 65.46850159999454 14.791043388155273  Z M 55.23538683023683 16  L 55.23538683023683 14  L 72 14  L 72 16  L 55.23538683023683 16  Z M 57.17216487107933 3  L 57.17216487107933 1.193718946781093  L 70.0632219591575 1.193718946781093  L 70.0632219591575 7  L 59.57563641573931 7  L 59.57563641573931 10.23257698541329  L 57.20630718530598 10.23257698541329  L 57.20630718530598 5.195977362701597  L 67.69291021608454 5.195977362701597  L 67.69291021608454 3  L 57.17216487107933 3  Z M 57.20630718530598 11  L 57.20630718530598 9  L 70.48570239419226 9  L 70.48570239419226 11  L 57.20630718530598 11  Z " fill-rule="nonzero" fill="#26262c" stroke="none" transform="matrix(1 0 0 1 179 223 )" />
  </g>
</svg>