<?xml version="1.0" encoding="utf-8"?>
<svg version="1.1" xmlns:xlink="http://www.w3.org/1999/xlink" width="10px" height="7px" xmlns="http://www.w3.org/2000/svg">
  <g transform="matrix(1 0 0 1 -439 -316 )">
    <path d="M 4.655210615721707 6.710129539180293  C 4.655210615721707 6.710129539180293  9.697186045939093 1.739718269979472  9.697186045939093 1.739718269979472  C 9.79399869929107 1.6442802420018239  9.868715364626208 1.5337093037607783  9.921219133902854 1.4079776314858072  C 9.97372962742983 1.282246639683485  10 1.1511779901808703  10 1.0147943653995894  C 10 0.9481620224213966  9.993471876140793 0.8821919003033862  9.980550973682266 0.8168400934380973  C 9.96763679359579 0.7514880143837487  9.94853298615786 0.6880024075381541  9.923188655555283 0.6264422736603668  C 9.897851049203036 0.564881463090334  9.866668818376684 0.5064358411848212  9.829882567271474 0.45103348198485166  C 9.79310303666003 0.39563044609263703  9.751394897271608 0.3442953853265591  9.7045717521357 0.2971791604728534  C 9.657755331250126 0.25006293561914766  9.606739281698239 0.20809214250326005  9.551687633865924 0.17107312238975014  C 9.49662926178328 0.1340547751880818  9.438554214443354 0.10279786515035068  9.377384967625987 0.07729878955192185  C 9.316209000314855 0.05179971395349304  9.253244810663864 0.03244808969573964  9.188310888992836 0.01944857365328803  C 9.123370243071477 0.006449057610836422  9.057816135152269 0  8.991604913956522 0  C 8.859679945879508 0  8.732639285415134 0.025145335672361935  8.610502474211575 0.07531676930700078  C 8.488365663008018 0.12548820294163962  8.380015473318943 0.19696874342425796  8.285777591767399 0.2898704608197069  C 8.285777591767399 0.2898704608197069  3.9496294837391366 4.5645926240532315  3.9496294837391366 4.5645926240532315  C 3.9496294837391366 4.5645926240532315  1.7139762180260472 2.3608338642316133  1.7139762180260472 2.3608338642316133  C 1.6197369916244362 2.2679328197480055  1.511635681842049 2.1964516063535457  1.389497525788424 2.146280172718907  C 1.267360038403268 2.0961087390842685  1.140316688238763 2.070963403411906  1.0083950860434772 2.070963403411906  C 0.9421829257066237 2.070963403411906  0.8766288102742867 2.077539719804175  0.8116891110071642 2.090535853330502  C 0.7467491412674025 2.1035387518890785  0.6837869688915112 2.1227637940576445  0.6226150323740122 2.148262192963828  C 0.5614424234314799 2.173760591870012  0.5031191686099024 2.2050168289959013  0.4480661759275216 2.242036525801656  C 0.3930125108201077 2.2790562226074114  0.34224735845000764 2.321152922065342  0.29542824786429994 2.3682664401500673  C 0.2486091372785923 2.4153799582347926  0.20665682120215062 2.466589112658827  0.1698712425219725 2.5219968853967583  C 0.13308633251026306 2.577397891212237  0.10214962322199703 2.635848249963466  0.07681134444471799 2.6974056770722727  C 0.05147306566743896 2.758969867323128  0.03236656759023496 2.822450737323006  0.01944902631773308 2.8878034968500033  C 0.0065314850452312 2.953149489454549  0 3.019119604011752  0 3.085757768811496  C 0 3.2221393672964447  0.02627373469533577 3.3532080167990594  0.07878086609714666 3.4789410348977134  C 0.13128866992399071 3.6046672936347233  0.20600197689052924 3.71524364541373  0.3028139540609075 3.8106816733913784  C 0.3028139540609075 3.8106816733913784  3.2438021615500134 6.710129539180293  3.2438021615500134 6.710129539180293  C 3.290470686493938 6.75614031731403  3.3410935627427762 6.79715616157744  3.3957015189935746 6.833262546896014  C 3.4503094752443726 6.86936893221459  3.508036784928043 6.899958175720746  3.56852704399419 6.924807106958307  C 3.629017303060337 6.949656038195867  3.691271652296435 6.968389062725528  3.7553854107683597 6.981046931407942  C 3.8195058934906156 6.993711565122607  3.8842922047188893 7  3.9496294837391366 7  C 4.014966762759384 7  4.079513608031436 6.993711565122607  4.1436273665033605 6.981046931407942  C 4.207741124975285 6.968389062725528  4.270241664417937 6.949656038195867  4.330731923484084 6.924807106958307  C 4.3912289068005625 6.899958175720746  4.448710026277679 6.86936893221459  4.503311258278146 6.833262546896014  C 4.557919214528944 6.79715616157744  4.608535370284015 6.75614031731403  4.655210615721707 6.710129539180293  Z " fill-rule="nonzero" fill="#ffffff" stroke="none" transform="matrix(1 0 0 1 439 316 )" />
  </g>
</svg>