<?xml version="1.0" encoding="utf-8"?>
<svg version="1.1" xmlns:xlink="http://www.w3.org/1999/xlink" width="17px" height="19px" xmlns="http://www.w3.org/2000/svg">
  <g transform="matrix(1 0 0 1 -769 -697 )">
    <path d="M 2.4895116163243785 16.217506262176453  C 4.027737602265403 17.936617886558935  6.152793778999612 19  8.5 19  C 10.847216434952063 19  12.972211327976225 17.936617886558935  14.510488383675622 16.217506262176453  C 16.048663421452936 14.49828061943362  17 12.123321117015724  17 9.5  C 17 6.876690298410103  16.048663421452936 4.501662303437239  14.510488383675622 2.782493737823546  C 12.972211327976225 1.0633387620025048  10.847216434952063 0  8.5 0  C 6.152793778999612 0  4.027737602265403 1.0633387620025048  2.4895116163243785 2.782493737823546  C 0.9512977898496323 4.501662303437239  0 6.876690298410103  0 9.5  C 0 12.123321117015724  0.9512977898496323 14.49828061943362  2.4895116163243785 16.217506262176453  Z " fill-rule="nonzero" fill="#eeeef0" stroke="none" transform="matrix(1 0 0 1 769 697 )" />
  </g>
</svg>