<?xml version="1.0" encoding="utf-8"?>
<svg version="1.1" xmlns:xlink="http://www.w3.org/1999/xlink" width="201px" height="12px" xmlns="http://www.w3.org/2000/svg">
  <g transform="matrix(1 0 0 1 -453 -870 )">
    <path d="M 0.9946379689048285 8.827934006402364  L 0 8.827934006402364  L 0 0.5333070672248215  L 0.9946379689048285 0.5333070672248215  L 0.9946379689048285 8.827934006402364  Z M 6.313025696754765 0  L 7.28426041933242 0  C 7.28426041933242 0  7.28426041933242 2.6381679389312978  7.28426041933242 2.6381679389312978  C 7.28426041933242 2.7894639559221868  7.280360710593395 2.941702118859271  7.272558796168834 3.094883033735533  C 7.264756881744273 3.2480704125369364  7.251107899762742 3.388964026140421  7.2316031150962825 3.5175572519083973  C 7.2316031150962825 3.5175572519083973  7.295962042496007 3.5175572519083973  7.295962042496007 3.5175572519083973  C 7.428574620511116 3.2981851375892637  7.597276964156056 3.1137911979038417  7.8020572443211105 2.9643930066486086  C 8.006837524486166 2.8149883514682346  8.239891727823766 2.701523610640852  8.501229228345387 2.623984240334893  C 8.762546760734628 2.546451326739873  9.0394726769242 2.5076779118443735  9.332044472960009 2.5076779118443735  C 9.8468909543114 2.5076779118443735  10.276920368030273 2.5871090479561687  10.62214842674539 2.7459640482639744  C 10.967309915099642 2.90481904857178  11.226693812112142 3.150669016252155  11.400306367123873 3.4835163752770253  C 11.573852366654123 3.8163572703767543  11.660667482513666 4.247540091726176  11.660667482513666 4.777069687269146  C 11.660667482513666 4.777069687269146  11.660667482513666 8.827934006402364  11.660667482513666 8.827934006402364  L 10.701134383099596 8.827934006402364  C 10.701134383099596 8.827934006402364  10.701134383099596 4.839477961093327  10.701134383099596 4.839477961093327  C 10.701134383099596 4.321296536413445  10.57923519912714 3.9336075627924156  10.335458659237526 3.6764146761881307  C 10.091615548987049 3.419215325658705  9.718158517716322 3.29061807436592  9.215028241324147 3.29061807436592  C 8.739158066444316 3.29061807436592  8.359838156411945 3.3785576116566114  8.077045388665388 3.5544348682590496  C 7.7942592868825455 3.730312124861487  7.591427819065193 3.9884520053558234  7.468560984158904 4.328864811622752  C 7.345694149252614 4.669271153964541  7.28426041933242 5.085327928773701  7.28426041933242 5.577030288106378  C 7.28426041933242 5.577030288106378  7.28426041933242 8.827934006402364  7.28426041933242 8.827934006402364  L 6.313025696754765 8.827934006402364  L 6.313025696754765 0  Z M 14.878613852499875 2.6608618566855453  C 15.253065793734635 2.5587412467680375  15.647016274014714 2.5076779118443735  16.060477792022084 2.5076779118443735  C 16.824958900863315 2.5076779118443735  17.39253961286248 2.674103207338094  17.76306396232388 3.006944102437823  C 18.133654882146143 3.339791461462694  18.318891062594222 3.871203732916769  18.318891062594222 4.601191824673726  C 18.318891062594222 4.601191824673726  18.318891062594222 8.827934006402364  18.318891062594222 8.827934006402364  L 17.61094286119726 8.827934006402364  L 17.42371689057988 7.908830337355331  C 17.42371689057988 7.908830337355331  17.37691039792553 7.908830337355331  17.37691039792553 7.908830337355331  C 17.197506310795056 8.13572917307929  17.01028034017768 8.325834106054543  16.815232486073395 8.479015020930804  C 16.620251202329975 8.632260488488058  16.394956478345737 8.747570809799003  16.13946374837629 8.825097266683084  C 15.883971018406843 8.902623723567164  15.570999409320757 8.941403595173602  15.200408489498496 8.941403595173602  C 14.810379351650793 8.941403595173602  14.464180323899367 8.875227127131556  14.16188943373022 8.742831814823933  C 13.859598543561072 8.610436502516315  13.621702975763192 8.4099775878786  13.44809042075146 8.14144299433637  C 13.27454442122121 7.87290840079414  13.187729305361668 7.5325076855300415  13.187729305361668 7.120216695395223  C 13.187729305361668 6.499940458784783  13.441276972588003 6.023347235902488  13.948334810994771 5.690499876877617  C 14.45539264940154 5.357652517852745  15.227708110652877 5.176101179425865  16.265256197384844 5.145845850775671  C 16.265256197384844 5.145845850775671  17.37105958634374 5.100458015267176  17.37105958634374 5.100458015267176  C 17.37105958634374 5.100458015267176  17.37105958634374 4.7203348928835265  17.37105958634374 4.7203348928835265  C 17.37105958634374 4.18324631402364  17.25214508762523 3.806901875307806  17.01416007985436 3.591312484609702  C 16.776241642444354 3.3757166299864565  16.44078679417962 3.267924156611672  16.007820487785946 3.267924156611672  C 15.672378123323798 3.267924156611672  15.35250878924727 3.3151995231893316  15.048287388371875 3.4097611425757197  C 14.744065987496482 3.5043163124653716  14.455434281915998 3.615896754186161  14.182367274266497 3.7444964294508742  C 14.182367274266497 3.7444964294508742  13.883975883595046 3.0296380201920705  13.883975883595046 3.0296380201920705  C 14.172620087857496 2.8859074504432405  14.504161911265118 2.7629824666030536  14.878613852499875 2.6608618566855453  Z M 17.359357963180152 6.337276532873676  C 17.359357963180152 6.337276532873676  17.359357963180152 5.764255109578921  17.359357963180152 5.764255109578921  C 17.359357963180152 5.764255109578921  16.382272429020706 5.803969465648855  16.382272429020706 5.803969465648855  C 15.58270936493899 5.834231251009988  15.019041662917555 5.960957113010958  14.691387881882495 6.184092588032504  C 14.363734100847438 6.407247425972667  14.199919709011875 6.723081214602314  14.199919709011875 7.131563654272346  C 14.199919709011875 7.487113790091726  14.311074728377022 7.749954762142945  14.533415969174081 7.920177296232456  C 14.75569063961028 8.090399830321964  15.050225189975938 8.175483870967742  15.416888518024841 8.175483870967742  C 15.98638834312265 8.175483870967742  16.452496720039086 8.02229386619675  16.815232486073395 7.715932036444225  C 17.177968252107704 7.4095702066917015  17.359357963180152 6.950064773916523  17.359357963180152 6.337276532873676  Z M 22.841568415320296 8.827934006402364  L 21.72991421477961 8.827934006402364  L 19.295976596753672 2.609800541738488  L 20.337421058312845 2.609800541738488  C 20.337421058312845 2.609800541738488  21.747466649524984 6.371317409505048  21.747466649524984 6.371317409505048  C 21.844990576577125 6.628490933190716  21.94447309917149 6.912168945072026  22.045858040196435 7.2223393252893375  C 22.14724298122138 7.532509705506649  22.217477687808067 7.782167011665846  22.256487257140986 7.971238611179512  C 22.256487257140986 7.971238611179512  22.29744293821354 7.971238611179512  22.29744293821354 7.971238611179512  C 22.344241109572774 7.782167011665846  22.42230185471415 7.5315449646792665  22.531475401485263 7.219502585570057  C 22.640715511177547 6.907460206460847  22.740131463411043 6.62474693540692  22.82986679215671 6.371317409505048  C 22.82986679215671 6.371317409505048  24.23991238336885 2.609800541738488  24.23991238336885 2.609800541738488  L 25.281356844928023 2.609800541738488  L 22.841568415320296 8.827934006402364  Z M 27.279409000110366 2.8934745136665847  C 27.70265618261194 2.628716179820241  28.200930572265737 2.4963309529672495  28.77429135925851 2.4963309529672495  C 29.320358774437885 2.4963309529672495  29.78845700104115 2.613583669354839  30.178486138888854 2.848086678158089  C 30.568581847097423 3.08258968696134  30.86696283707995 3.4107069244798076  31.0736603109032 3.832435360748584  C 31.280424355087316 4.25416379701736  31.383753324738233 4.7468091102868755  31.383753324738233 5.3103767544939675  C 31.383753324738233 5.3103767544939675  31.383753324738233 5.894745136665846  31.383753324738233 5.894745136665846  C 31.383753324738233 5.894745136665846  26.954688957320855 5.894745136665846  26.954688957320855 5.894745136665846  C 26.966405142750876 6.624759026409752  27.153631103138682 7.180731789429943  27.51636686917299 7.562748091603053  C 27.8791026352073 7.944764393776163  28.390044379518073 8.13576951489781  29.049279503602783 8.13576951489781  C 29.454885838063433 8.13576951489781  29.81375227998937 8.099883872987718  30.125828834652715 8.027973405565131  C 30.43783884871397 7.956127490823535  30.76155462240736 7.850206403133464  31.09706355723037 7.710258557005664  C 31.09706355723037 7.710258557005664  31.09706355723037 8.538586555035705  31.09706355723037 8.538586555035705  C 30.77327079760781 8.678534401163507  30.452473138807502 8.780661063796632  30.13460505202541 8.84495444471805  C 29.81667039488245 8.909247825639467  29.441223558563046 8.941403595173602  29.008323822530237 8.941403595173602  C 28.392025837232726 8.941403595173602  27.85475439924705 8.819404626323566  27.396425231746232 8.575464171386358  C 26.938096064245414 8.33145916376816  26.582147766971325 7.973115660012928  26.32865211806899 7.5003398177788725  C 26.07508989880579 7.027563975544817  25.948349365252437 6.448863445733809  25.948349365252437 5.764255109578921  C 25.948349365252437 5.0947841318332925  26.064412304559344 4.515144630325043  26.296472654369126 4.02533366165969  C 26.528599574539776 3.535522692994337  26.856228387969665 3.158239311438069  27.279409000110366 2.8934745136665847  Z M 29.663614719691065 3.5033735533119925  C 29.42955728881417 3.346403450889559  29.129186493782964 3.267924156611672  28.76258973609492 3.267924156611672  C 28.24381569272894 3.267924156611672  27.830366673403535 3.432452232362719  27.522217680754782 3.7615168677665602  C 27.214068688106032 4.09057503924526  27.030755749785452 4.550125661782812  26.972241392066234 5.140172371337109  C 26.972241392066234 5.140172371337109  30.365712109506234 5.140172371337109  30.365712109506234 5.140172371337109  C 30.361851093905994 4.7695042400270875  30.302360560993744 4.443284222251293  30.18726235626155 4.161497168185176  C 30.072230721890207 3.879716578044201  29.897672150567956 3.6603371918092833  29.663614719691065 3.5033735533119925  Z M 38.23212828122707 2.6665353361241073  C 38.4797658276498 2.5530665553435115  38.755730148814536 2.4963309529672495  39.06001812005079 2.4963309529672495  C 39.18869645520821 2.4963309529672495  39.323263038475794 2.5029486001321644  39.463724119194524 2.516188131002216  C 39.60411862955239 2.529421206964879  39.728935950737 2.54738984754948  39.83817606042928 2.5700861856685546  C 39.83817606042928 2.5700861856685546  39.715309017211624 3.4438020192070917  39.715309017211624 3.4438020192070917  C 39.60999649185301 3.417329412374377  39.49293865746145 3.396524638063477  39.364260322304034 3.38139374538291  C 39.23551541678576 3.3662628527023437  39.11461113533765 3.3586998276286626  39.00151000423286 3.3586998276286626  C 38.74408676355716 3.3586998276286626  38.50128329069691 3.4088113279326215  38.27308396229962 3.509047032750554  C 38.044884633902335 3.6092762808575474  37.84499126398983 3.753006042615735  37.67337577516582 3.940231470081261  C 37.50176028634182 4.127456897546787  37.36719370307424 4.352508551234301  37.2696697760221 4.615375523270131  C 37.17214584896996 4.878248959231101  37.123399486477275 5.170428908366166  37.123399486477275 5.491928096527949  C 37.123399486477275 5.491928096527949  37.123399486477275 8.827934006402364  37.123399486477275 8.827934006402364  L 36.146313952317826 8.827934006402364  L 36.146313952317826 2.609800541738488  L 36.953725950605275 2.609800541738488  L 37.05904055907755 3.755843388327998  C 37.05904055907755 3.755843388327998  37.099996240150105 3.755843388327998  37.099996240150105 3.755843388327998  C 37.232602152201494 3.5251231031457766  37.392570104420194 3.3142585820148978  37.579762789857135 3.1232504309283433  C 37.767022045654954 2.9322422798417875  37.98442416444348 2.7800041169047036  38.23212828122707 2.6665353361241073  Z M 42.01760337464721 2.8934745136665847  C 42.44078398678792 2.628716179820241  42.93912494680258 2.4963309529672495  43.512485733795344 2.4963309529672495  C 44.058619749094355 2.4963309529672495  44.52665137557799 2.613583669354839  44.916680513425696 2.848086678158089  C 45.3067096512734 3.08258968696134  45.60509064125593 3.4107069244798076  45.81185468544004 3.832435360748584  C 46.018552159263294 4.25416379701736  46.121947699275076 4.7468091102868755  46.121947699275076 5.3103767544939675  C 46.121947699275076 5.3103767544939675  46.121947699275076 5.894745136665846  46.121947699275076 5.894745136665846  C 46.121947699275076 5.894745136665846  41.69288333185769 5.894745136665846  41.69288333185769 5.894745136665846  C 41.70459951728772 6.624759026409752  41.891825477675525 7.180731789429943  42.25456124370983 7.562748091603053  C 42.61729700974414 7.944764393776163  43.12830529465701 8.13576951489781  43.78747387813963 8.13576951489781  C 44.19314678296114 8.13576951489781  44.55194665452621 8.099883872987718  44.864023209189554 8.027973405565131  C 45.17603322325081 7.956127490823535  45.49981556730506 7.850206403133464  45.83525793176721 7.710258557005664  C 45.83525793176721 7.710258557005664  45.83525793176721 8.538586555035705  45.83525793176721 8.538586555035705  C 45.51153174250551 8.678534401163507  45.190667513344344 8.780661063796632  44.87279942656225 8.84495444471805  C 44.55486476941929 8.909247825639467  44.17948450346075 8.941403595173602  43.746518197067076 8.941403595173602  C 43.13022021176957 8.941403595173602  42.59288220342303 8.819404626323566  42.134619606283074 8.575464171386358  C 41.67629043878225 8.33145916376816  41.32040871186903 7.973115660012928  41.06684649260583 7.5003398177788725  C 40.813350843703496 7.027563975544817  40.68654373978928 6.448863445733809  40.68654373978928 5.764255109578921  C 40.68654373978928 5.0947841318332925  40.802606679096186 4.515144630325043  41.034667028905965 4.02533366165969  C 41.26672737871576 3.535522692994337  41.594356192145646 3.158239311438069  42.01760337464721 2.8934745136665847  Z M 44.40180909422791 3.5033735533119925  C 44.16775166335101 3.346403450889559  43.867447438680664 3.267924156611672  43.50078411063176 3.267924156611672  C 42.982010067265776 3.267924156611672  42.568561047940385 3.432452232362719  42.260412055291624 3.7615168677665602  C 41.95226306264287 4.09057503924526  41.76888355396143 4.550125661782812  41.71043576660308 5.140172371337109  C 41.71043576660308 5.140172371337109  45.10390648404308 5.140172371337109  45.10390648404308 5.140172371337109  C 45.09997889924443 4.7695042400270875  45.04048836516972 4.443284222251293  44.92545673079839 4.161497168185176  C 44.81035852606619 3.879716578044201  44.63579995474393 3.6603371918092833  44.40180909422791 3.5033735533119925  Z M 48.9888453743537 2.6608618566855453  C 49.36329731558846 2.5587412467680375  49.75724779586854 2.5076779118443735  50.17070931387591 2.5076779118443735  C 50.935256963319226 2.5076779118443735  51.502771134716305 2.674103207338094  51.8732954841777 3.006944102437823  C 52.2438198336391 3.339791461462694  52.42912258444805 3.871203732916769  52.42912258444805 4.601191824673726  C 52.42912258444805 4.601191824673726  52.42912258444805 8.827934006402364  52.42912258444805 8.827934006402364  L 51.72117438305108 8.827934006402364  L 51.533948412433695 7.908830337355331  C 51.533948412433695 7.908830337355331  51.48714191977936 7.908830337355331  51.48714191977936 7.908830337355331  C 51.30767126228802 8.13572917307929  51.120445291670634 8.325834106054543  50.92546400792722 8.479015020930804  C 50.73041615382294 8.632260488488058  50.50518800019957 8.747570809799003  50.24969527023011 8.825097266683084  C 49.994202540260666 8.902623723567164  49.68116436081372 8.941403595173602  49.31064001135232 8.941403595173602  C 48.920610873504614 8.941403595173602  48.574478416114054 8.875227127131556  48.27212095558404 8.742831814823933  C 47.9698300654149 8.610436502516315  47.73186794213554 8.4099775878786  47.55832194260529 8.14144299433637  C 47.384775943075034 7.87290840079414  47.29796082721549 7.5325076855300415  47.29796082721549 7.120216695395223  C 47.29796082721549 6.499940458784783  47.551508494441826 6.023347235902488  48.0585663328486 5.690499876877617  C 48.56562417125536 5.357652517852745  49.3379396325067 5.176101179425865  50.37548771923866 5.145845850775671  C 50.37548771923866 5.145845850775671  51.48129110819757 5.100458015267176  51.48129110819757 5.100458015267176  C 51.48129110819757 5.100458015267176  51.48129110819757 4.7203348928835265  51.48129110819757 4.7203348928835265  C 51.48129110819757 4.18324631402364  51.36231003911819 3.806901875307806  51.12439160170818 3.591312484609702  C 50.886473164298174 3.3757166299864565  50.55101831603345 3.267924156611672  50.11805200963977 3.267924156611672  C 49.78260964517762 3.267924156611672  49.46280688146196 3.3151995231893316  49.1585189102257 3.4097611425757197  C 48.8542975093503 3.5043163124653716  48.56559923340896 3.615896754186161  48.29259879612032 3.7444964294508742  C 48.29259879612032 3.7444964294508742  47.994207405448876 3.0296380201920705  47.994207405448876 3.0296380201920705  C 48.28285160971132 2.8859074504432405  48.61439343311894 2.7629824666030536  48.9888453743537 2.6608618566855453  Z M 51.46958948503398 6.337276532873676  C 51.46958948503398 6.337276532873676  51.46958948503398 5.764255109578921  51.46958948503398 5.764255109578921  C 51.46958948503398 5.764255109578921  50.49250395087453 5.803969465648855  50.49250395087453 5.803969465648855  C 49.69287428667319 5.834231251009988  49.12927318477138 5.960957113010958  48.80161940373632 6.184092588032504  C 48.47396562270126 6.407247425972667  48.3101512308657 6.723081214602314  48.3101512308657 7.131563654272346  C 48.3101512308657 7.487113790091726  48.42130625023084 7.749954762142945  48.643647491027906 7.920177296232456  C 48.86598873182497 8.090399830321964  49.16045671182976 8.175483870967742  49.52712003987867 8.175483870967742  C 50.096619864976475 8.175483870967742  50.562728241892906 8.02229386619675  50.92546400792722 7.715932036444225  C 51.28819977396154 7.4095702066917015  51.46958948503398 6.950064773916523  51.46958948503398 6.337276532873676  Z M 57.61586705170763 8.808076828367398  C 57.36037432173819 8.896964362322242  57.059075231741964 8.941403595173602  56.711916662320604 8.941403595173602  C 55.900570852677575 8.941403595173602  55.257980610233545 8.672838701982272  54.78407424611978 8.13576951489781  C 54.31016788200601 7.598635746275548  54.073200638931915 6.8005945272100465  54.073200638931915 5.741561191824674  C 54.073200638931915 4.6711667000123125  54.31500921670753 3.8626940908950997  54.798701275074265 3.3161487318394482  C 55.28232676308013 2.7696033727837968  55.92591187085005 2.4963309529672495  56.72946909706599 2.4963309529672495  C 57.06877248294062 2.4963309529672495  57.365230238235334 2.539831257406581  57.618792457498536 2.6268209800541737  C 57.87235467676173 2.713817152198504  58.0908182461164 2.830124497891529  58.27408335465936 2.9757399655257326  C 58.45741501868381 3.1213618970850776  58.6114801558761 3.2868353507448904  58.73629746962102 3.4721694163999013  C 58.73629746962102 3.4721694163999013  58.80650720860254 3.4721694163999013  58.80650720860254 3.4721694163999013  C 58.790863437908875 3.3549179119982764  58.775277916280984 3.194171347882295  58.75970071594819 2.9899236641221374  C 58.744056945254535 2.7856824442871213  58.73629746962102 2.6192571487934004  58.73629746962102 2.4906574735286875  C 58.73629746962102 2.4906574735286875  58.73629746962102 0  58.73629746962102 0  L 59.70753219219868 0  L 59.70753219219868 8.827934006402364  L 58.923523440238405 8.827934006402364  L 58.77725315069357 7.942871213986702  C 58.77725315069357 7.942871213986702  58.73629746962102 7.942871213986702  58.73629746962102 7.942871213986702  C 58.61540774020977 8.128198830144976  58.46227093518097 8.29650196803435  58.27700876045026 8.447810884018715  C 58.091746585719555 8.599119800003077  57.871359781677086 8.719189294412551  57.61586705170763 8.808076828367398  Z M 55.52127650542571 7.534380694410244  C 55.815778782409 7.9504156823288605  56.263383545123524 8.158463432652056  56.86403776344723 8.158463432652056  C 57.550566259345324 8.158463432652056  58.036173234824616 7.9693232405041865  58.32088984731371 7.591115488795863  C 58.605673030163665 7.21284318440655  58.7479990927846 6.651198153933761  58.7479990927846 5.906092095542969  C 58.7479990927846 5.906092095542969  58.7479990927846 5.735887712386112  58.7479990927846 5.735887712386112  C 58.7479990927846 4.945382506617828  58.61250418479323 4.338320610687023  58.34136768784998 3.914700812607732  C 58.0702977612676 3.491081014528441  57.57785963115873 3.279271115488796  56.86403776344723 3.279271115488796  C 56.267311166655645 3.279271115488796  55.820701269267 3.5014801715248707  55.5242019112166 3.9459049495198224  C 55.22776912352706 4.390323263589632  55.07954023100032 4.996439781611672  55.07954023100032 5.764255109578921  C 55.07954023100032 6.528261915938193  55.22677422844242 7.118281153810638  55.52127650542571 7.534380694410244  Z M 66.09076762793495 2.6608618566855453  C 66.46521956916972 2.5587412467680375  66.8591700494498 2.5076779118443735  67.27263156745717 2.5076779118443735  C 68.03711267629839 2.5076779118443735  68.60469338829756 2.674103207338094  68.97521773775895 3.006944102437823  C 69.34580865758122 3.339791461462694  69.5310448380293 3.871203732916769  69.5310448380293 4.601191824673726  C 69.5310448380293 4.601191824673726  69.5310448380293 8.827934006402364  69.5310448380293 8.827934006402364  L 68.82309663663234 8.827934006402364  L 68.63587066601497 7.908830337355331  C 68.63587066601497 7.908830337355331  68.58906417336061 7.908830337355331  68.58906417336061 7.908830337355331  C 68.40966008623013 8.13572917307929  68.22243411561276 8.325834106054543  68.02738626150848 8.479015020930804  C 67.83240497776505 8.632260488488058  67.60711025378082 8.747570809799003  67.35161752381137 8.825097266683084  C 67.09612479384192 8.902623723567164  66.78315318475583 8.941403595173602  66.41256226493357 8.941403595173602  C 66.02253312708588 8.941403595173602  65.67633409933445 8.875227127131556  65.37404320916531 8.742831814823933  C 65.07175231899616 8.610436502516315  64.83379019571679 8.4099775878786  64.66024419618654 8.14144299433637  C 64.48663164117481 7.87290840079414  64.39988308079674 7.5325076855300415  64.39988308079674 7.120216695395223  C 64.39988308079674 6.499940458784783  64.65343074802308 6.023347235902488  65.16048858642985 5.690499876877617  C 65.66761302495625 5.357652517852745  66.43992842669005 5.176101179425865  67.47740997281993 5.145845850775671  C 67.47740997281993 5.145845850775671  68.58321336177883 5.100458015267176  68.58321336177883 5.100458015267176  C 68.58321336177883 5.100458015267176  68.58321336177883 4.7203348928835265  68.58321336177883 4.7203348928835265  C 68.58321336177883 4.18324631402364  68.4642988630603 3.806901875307806  68.22631385528945 3.591312484609702  C 67.98839541787943 3.3757166299864565  67.6529405696147 3.267924156611672  67.21997426322103 3.267924156611672  C 66.88453189875888 3.267924156611672  66.56466256468235 3.3151995231893316  66.26044116380696 3.4097611425757197  C 65.95621976293157 3.5043163124653716  65.66758805735108 3.615896754186161  65.39452104970158 3.7444964294508742  C 65.39452104970158 3.7444964294508742  65.09612965903013 3.0296380201920705  65.09612965903013 3.0296380201920705  C 65.38477386329258 2.8859074504432405  65.7163156867002 2.7629824666030536  66.09076762793495 2.6608618566855453  Z M 68.57151173861524 6.337276532873676  C 68.57151173861524 6.337276532873676  68.57151173861524 5.764255109578921  68.57151173861524 5.764255109578921  C 68.57151173861524 5.764255109578921  67.59442620445579 5.803969465648855  67.59442620445579 5.803969465648855  C 66.79486314037406 5.834231251009988  66.23119543835264 5.960957113010958  65.90354165731758 6.184092588032504  C 65.57588787628252 6.407247425972667  65.41207348444695 6.723081214602314  65.41207348444695 7.131563654272346  C 65.41207348444695 7.487113790091726  65.5232285038121 7.749954762142945  65.74556974460916 7.920177296232456  C 65.96791098540622 8.090399830321964  66.26244553577189 8.175483870967742  66.62904229345992 8.175483870967742  C 67.19854211855773 8.175483870967742  67.66465049547416 8.02229386619675  68.02738626150848 7.715932036444225  C 68.39018859790366 7.4095702066917015  68.57151173861524 6.950064773916523  68.57151173861524 6.337276532873676  Z M 73.74362917692035 2.612637281457769  C 74.00497997961064 2.5351043678627496  74.27994940569072 2.4963309529672495  74.56859360995317 2.4963309529672495  C 75.3292136973819 2.4963309529672495  75.90455388873443 2.676936917092465  76.29458302658215 3.0381482393499137  C 76.68467873479071 3.399359561607363  76.87966418476145 3.978999034258803  76.87966418476145 4.777069687269146  C 76.87966418476145 4.777069687269146  76.87966418476145 8.827934006402364  76.87966418476145 8.827934006402364  L 75.92013108534738 8.827934006402364  C 75.92013108534738 8.827934006402364  75.92013108534738 4.839477961093327  75.92013108534738 4.839477961093327  C 75.92013108534738 4.321296536413445  75.79823190137492 3.9336075627924156  75.55445536148531 3.6764146761881307  C 75.3106788215957 3.419215325658705  74.9372217605662 3.29061807436592  74.43402494357194 3.29061807436592  C 73.72413063787502 3.29061807436592  73.22486138289534 3.48540470712263  72.9362171786329 3.8749864565377985  C 72.64757297437043 4.2645617420278255  72.5032571215802 4.830020546047772  72.5032571215802 5.571356808667816  C 72.5032571215802 5.571356808667816  72.5032571215802 8.827934006402364  72.5032571215802 8.827934006402364  L 71.53202239900254 8.827934006402364  L 71.53202239900254 2.609800541738488  L 72.31603115096283 2.609800541738488  L 72.46230144050764 3.506210293031273  C 72.46230144050764 3.506210293031273  72.5149587447438 3.506210293031273  72.5149587447438 3.506210293031273  C 72.65142567820769 3.2868317147869983  72.82498935444528 3.1024442390267173  73.03568097552338 2.9530460477714846  C 73.2463060262406 2.8036413925911106  73.48234494459092 2.690176651763728  73.74362917692035 2.612637281457769  Z M 82.06640865202104 8.808076828367398  C 81.81091592205159 8.896964362322242  81.50961683205537 8.941403595173602  81.162458262634 8.941403595173602  C 80.35117899359308 8.941403595173602  79.70852221054695 8.672838701982272  79.23461584643317 8.13576951489781  C 78.76064291195854 7.598635746275548  78.52374223924531 6.8005945272100465  78.52374223924531 5.741561191824674  C 78.52374223924531 4.6711667000123125  78.76555081702092 3.8626940908950997  79.24924287538767 3.3161487318394482  C 79.7329349337544 2.7696033727837968  80.37652007128307 2.4963309529672495  81.18001069737939 2.4963309529672495  C 81.51938065361489 2.4963309529672495  81.8158384089096 2.539831257406581  82.06933405781193 2.6268209800541737  C 82.32289627707515 2.713817152198504  82.54129329094832 2.830124497891529  82.72462495497275 2.9757399655257326  C 82.90795661899722 3.1213618970850776  83.06202175618951 3.2868353507448904  83.18683906993442 3.4721694163999013  C 83.18683906993442 3.4721694163999013  83.25704880891594 3.4721694163999013  83.25704880891594 3.4721694163999013  C 83.24140503822228 3.3549179119982764  83.22581951659438 3.194171347882295  83.21024231626158 2.9899236641221374  C 83.1946651159288 2.7856824442871213  83.18683906993442 2.6192571487934004  83.18683906993442 2.4906574735286875  C 83.18683906993442 2.4906574735286875  83.18683906993442 0  83.18683906993442 0  L 84.15807379251208 0  L 84.15807379251208 8.827934006402364  L 83.3740650405518 8.827934006402364  L 83.22779475100698 7.942871213986702  C 83.22779475100698 7.942871213986702  83.18683906993442 7.942871213986702  83.18683906993442 7.942871213986702  C 83.0658827701623 8.128198830144976  82.91281253549437 8.29650196803435  82.72755036076366 8.447810884018715  C 82.54228818603296 8.599119800003077  82.32190138199049 8.719189294412551  82.06640865202104 8.808076828367398  Z M 79.9718181057391 7.534380694410244  C 80.2663203827224 7.9504156823288605  80.71385860483484 8.158463432652056  81.31457936376063 8.158463432652056  C 82.00104131905664 8.158463432652056  82.48664826477716 7.9693232405041865  82.77143144762711 7.591115488795863  C 83.0561480601162 7.21284318440655  83.19854069309801 6.651198153933761  83.19854069309801 5.906092095542969  C 83.19854069309801 5.906092095542969  83.19854069309801 5.735887712386112  83.19854069309801 5.735887712386112  C 83.19854069309801 4.945382506617828  83.06297921474578 4.338320610687023  82.7919092881634 3.914700812607732  C 82.52077279122012 3.491081014528441  82.02833469087003 3.279271115488796  81.31457936376063 3.279271115488796  C 80.71778616684942 3.279271115488796  80.27117629921955 3.5014801715248707  79.97474351153001 3.9459049495198224  C 79.67831072384047 4.390323263589632  79.53008183131372 4.996439781611672  79.53008183131372 5.764255109578921  C 79.53008183131372 6.528261915938193  79.67738236935791 7.118281153810638  79.9718181057391 7.534380694410244  Z M 90.54130922824837 2.6608618566855453  C 90.91576116948312 2.5587412467680375  91.3097116497632 2.5076779118443735  91.72317316777057 2.5076779118443735  C 92.4876542766118 2.5076779118443735  93.0551684182501 2.674103207338094  93.42575933807237 3.006944102437823  C 93.79628368753376 3.339791461462694  93.9815864383427 3.871203732916769  93.9815864383427 4.601191824673726  C 93.9815864383427 4.601191824673726  93.9815864383427 8.827934006402364  93.9815864383427 8.827934006402364  L 93.27363823694574 8.827934006402364  L 93.08641226632835 7.908830337355331  C 93.08641226632835 7.908830337355331  93.03960577367401 7.908830337355331  93.03960577367401 7.908830337355331  C 92.86013511618268 8.13572917307929  92.6729091455653 8.325834106054543  92.47792786182188 8.479015020930804  C 92.2828800077176 8.632260488488058  92.05765185409422 8.747570809799003  91.80215912412477 8.825097266683084  C 91.54666639415532 8.902623723567164  91.23362821470839 8.941403595173602  90.86310386524698 8.941403595173602  C 90.47300815703842 8.941403595173602  90.12687569964785 8.875227127131556  89.82458480947871 8.742831814823933  C 89.52229391930956 8.610436502516315  89.28433179603019 8.4099775878786  89.11078579649994 8.14144299433637  C 88.93717324148821 7.87290840079414  88.85042468111016 7.5325076855300415  88.85042468111016 7.120216695395223  C 88.85042468111016 6.499940458784783  89.10390574821686 6.023347235902488  89.61103018674325 5.690499876877617  C 90.11808802515002 5.357652517852745  90.89040348640137 5.176101179425865  91.92795157313333 5.145845850775671  C 91.92795157313333 5.145845850775671  93.03375496209223 5.100458015267176  93.03375496209223 5.100458015267176  C 93.03375496209223 5.100458015267176  93.03375496209223 4.7203348928835265  93.03375496209223 4.7203348928835265  C 93.03375496209223 4.18324631402364  92.91477389301285 3.806901875307806  92.67685545560285 3.591312484609702  C 92.43893701819283 3.3757166299864565  92.1034821699281 3.267924156611672  91.67051586353442 3.267924156611672  C 91.33507349907228 3.267924156611672  91.01527073535662 3.3151995231893316  90.71098276412036 3.4097611425757197  C 90.40676136324495 3.5043163124653716  90.11812965766448 3.615896754186161  89.84506265001498 3.7444964294508742  C 89.84506265001498 3.7444964294508742  89.54667125934353 3.0296380201920705  89.54667125934353 3.0296380201920705  C 89.83531546360598 2.8859074504432405  90.1668572870136 2.7629824666030536  90.54130922824837 2.6608618566855453  Z M 93.02205333892864 6.337276532873676  C 93.02205333892864 6.337276532873676  93.02205333892864 5.764255109578921  93.02205333892864 5.764255109578921  C 93.02205333892864 5.764255109578921  92.04496780476919 5.803969465648855  92.04496780476919 5.803969465648855  C 91.24533814056784 5.834231251009988  90.68173703866604 5.960957113010958  90.35408325763098 6.184092588032504  C 90.02642947659592 6.407247425972667  89.86261508476036 6.723081214602314  89.86261508476036 7.131563654272346  C 89.86261508476036 7.487113790091726  89.9737701041255 7.749954762142945  90.19611134492257 7.920177296232456  C 90.41845258571962 8.090399830321964  90.71292056572442 8.175483870967742  91.07958389377333 8.175483870967742  C 91.6490171187515 8.175483870967742  92.1151255254267 8.02229386619675  92.47792786182188 7.715932036444225  C 92.84066362785619 7.4095702066917015  93.02205333892864 6.950064773916523  93.02205333892864 6.337276532873676  Z M 100.277303484168 11.068958384634326  C 99.70014821636482 11.435805066486088  98.86537999574894 11.619285890174835  97.77291234334464 11.619285890174835  C 96.93041214047572 11.619285890174835  96.28099074340211 11.467060626231223  95.82459208660754 11.162570795370598  C 95.36826000017383 10.858145517190962  95.14004713153774 10.431696049310515  95.14004713153774 9.883201181974883  C 95.14004713153774 9.493632360409997  95.26778256017575 9.160755942578797  95.5232752901452 8.884668800787983  C 95.77876802011464 8.608581658997167  96.13279306782152 8.42516538077521  96.58519759224065 8.334341295247476  C 96.41750969518999 8.258686837255295  96.27412215968386 8.145176906665537  96.15516294097884 7.99393252893376  C 96.03620372227384 7.842623612949397  95.97671318773416 7.668661106600899  95.97671318773416 7.471972420586063  C 95.97671318773416 7.2450090321811125  96.04203997437908 7.0455148727991865  96.17271537572422 6.873420339817779  C 96.30332420670851 6.70132580683637  96.50328414698187 6.535787800495568  96.77242356285802 6.37699088894361  C 96.43698119839587 6.244595576635989  96.16486333172737 6.020528041122876  95.95623534719789 5.7046835754740215  C 95.74754079230752 5.388864936668924  95.64321692757196 5.021028899131988  95.64321692757196 4.601191824673726  C 95.64321692757196 4.1548756848682595  95.7387864178695 3.7738108205337357  95.92990669507981 3.4579857178034965  C 96.12102697229012 3.1421606150732577  96.39798617366012 2.901037536936715  96.76072193969443 2.7346170893868504  C 97.12345770572874 2.5681966418369857  97.5622415236444 2.4849839940901255  98.07715454559788 2.4849839940901255  C 98.19025567670266 2.4849839940901255  98.30432881840058 2.489710885437508  98.41942702313277 2.4991676926865303  C 98.53445865750412 2.508624499935553  98.64446405851741 2.521866250976322  98.74951030987228 2.538882048756464  C 98.8553553906781 2.5559043032475453  98.94734380028046 2.5757572447422894  99.02522980566427 2.598453582861364  C 99.02522980566427 2.598453582861364  101.22489117660258 2.598453582861364  101.22489117660258 2.598453582861364  L 101.22489117660258 3.2055158827874903  C 101.22489117660258 3.2055158827874903  100.04278345326445 3.347352868751539  100.04278345326445 3.347352868751539  C 100.15994530198493 3.494866162121399  100.2574380269703 3.6726359925203154  100.33532403235411 3.88065993597636  C 100.41321003773793 4.088690343357547  100.45209648017406 4.319407800572519  100.45209648017406 4.572824427480916  C 100.45209648017406 5.193126462078306  100.23584398717708 5.685797602191578  99.80314396222686 6.0507658212263  C 99.37044393727662 6.415805056867152  98.77553863651792 6.598256587047526  98.01864642977995 6.598256587047526  C 97.83924234264947 6.598256587047526  97.65592939688922 6.58314344671494  97.4686701410914 6.55286875153903  C 97.27754986388109 6.654989361456538  97.1322391160062 6.768434739365304  97.03278467824781 6.893277517852745  C 96.93333024048943 7.018055743659198  96.88358898291209 7.161791954914122  96.88358898291209 7.324461955183452  C 96.88358898291209 7.445496183206107  96.92165774371864 7.541963491808513  96.99767980875706 7.613809406550111  C 97.07376844415634 7.685655321291707  97.18392856099713 7.737683400649855  97.32825066312836 7.769830091110564  C 97.47257276525959 7.801976781571272  97.64613644149719 7.818054666338339  97.84897289390796 7.818054666338339  C 97.84897289390796 7.818054666338339  98.97817952919402 7.818054666338339  98.97817952919402 7.818054666338339  C 99.67649077065344 7.818054666338339  100.21186151621698 7.9598613815100965  100.58398352458032 8.243565624230484  C 100.95677123655229 8.527205314269885  101.14297981445746 8.941371333261511  101.14297981445746 9.486057621275549  C 101.14297981445746 10.174435753201182  100.85445875197118 10.702047150101576  100.277303484168 11.068958384634326  Z M 96.55009272274988 10.617916769268653  C 96.84259794842482 10.793819852714849  97.25996000748673 10.881733563161783  97.8021664012536 10.881733563161783  C 98.33265664957881 10.881733563161783  98.77228061699283 10.829705487410736  99.12103684531614 10.725712878601328  C 99.47052531785016 10.621655717110933  99.73227503680658 10.472260151825289  99.90602073254004 10.277508002954937  C 100.07910073954426 10.082691315832  100.16540671266621 9.851041365273332  100.16540671266621 9.5825067717311  C 100.16540671266621 9.332885767437208  100.10735366046728 9.144710330545124  99.99085750047604 9.01799556759419  C 99.87369565175557 8.891280804643252  99.70183391657771 8.806196763997475  99.47549851364643 8.762688992858902  C 99.24916311071516 8.719181221720328  98.97227047970601 8.697443979315441  98.64468326903182 8.697443979315441  C 98.64468326903182 8.697443979315441  97.53302906849112 8.697443979315441  97.53302906849112 8.697443979315441  C 97.24438486422868 8.697443979315441  96.9928270169304 8.740918464125215  96.77827437443982 8.827934006402364  C 96.56372173194922 8.914949548679513  96.39891243014964 9.043572626816056  96.28388079577829 9.213730608224575  C 96.1687825910461 9.383953142314084  96.1112818541154 9.59573077944164  96.1112818541154 9.849160305343512  C 96.1112818541154 10.185796851914553  96.25752092671407 10.442078238503449  96.55009272274988 10.617916769268653  Z M 97.01815764929333 5.571356808667816  C 97.26000367847669 5.798294370229008  97.6052077962641 5.911765574981532  98.05375129927071 5.911765574981532  C 98.51767228780768 5.911765574981532  98.86672287497072 5.798294370229008  99.10104657241168 5.571356808667816  C 99.33537026985263 5.344419247106624  99.45258283495109 5.013465875861857  99.45258283495109 4.578497906919478  C 99.45258283495109 4.1132681490088645  99.33351362040507 3.764352597497538  99.0951957608299 3.531740950504802  C 98.85754358998395 3.299129303512066  98.50643665717014 3.1828219650332428  98.04204967610713 3.1828219650332428  C 97.59743376487386 3.1828219650332428  97.25514776197956 3.302910815147131  97.01523224350242 3.543087909381925  C 96.77538329538618 3.7832650036167195  96.65540733122216 4.13407131094558  96.65540733122216 4.595518345235163  C 96.65540733122216 5.019138143314454  96.77637819047082 5.344419247106624  97.01815764929333 5.571356808667816  Z M 104.5739932395473 2.6665353361241073  C 104.82163078597004 2.5530665553435115  105.09797110915065 2.4963309529672495  105.40285821363469 2.4963309529672495  C 105.5313368377095 2.4963309529672495  105.66585934824377 2.5029486001321644  105.8063204289625 2.516188131002216  C 105.94678150968122 2.529421206964879  106.07159882342613 2.54738984754948  106.18077237019723 2.5700861856685546  C 106.18077237019723 2.5700861856685546  106.0579053269796 3.4438020192070917  106.0579053269796 3.4438020192070917  C 105.952725934903 3.417329412374377  105.83551337724427 3.396524638063477  105.70636906444018 3.38139374538291  C 105.57789044036535 3.3662628527023437  105.45703023165056 3.3586998276286626  105.34386253018494 3.3586998276286626  C 105.08623960818541 3.3586998276286626  104.84328138973888 3.4088113279326215  104.61494892061988 3.509047032750554  C 104.3872821402301 3.6092762808575474  104.18772071447952 3.753006042615735  104.01597208493381 3.940231470081261  C 103.84422345538808 4.127456897546787  103.7097009522935 4.352508551234301  103.61250986960597 4.615375523270131  C 103.51465309818921 4.878248959231101  103.46575201242933 5.170428908366166  103.46575201242933 5.491928096527949  C 103.46575201242933 5.491928096527949  103.46575201242933 8.827934006402364  103.46575201242933 8.827934006402364  L 102.4891540459017 8.827934006402364  L 102.4891540459017 2.609800541738488  L 103.29583469274142 2.609800541738488  L 103.40188065266143 3.755843388327998  C 103.40188065266143 3.755843388327998  103.44283633373398 3.755843388327998  103.44283633373398 3.755843388327998  C 103.57530910506365 3.5251231031457766  103.73505577109398 3.3142585820148978  103.9221153158092 3.1232504309283433  C 104.10917486052443 2.9322422798417875  104.32635569312458 2.7800041169047036  104.5739932395473 2.6665353361241073  Z M 108.35946833296747 2.8934745136665847  C 108.78284865619075 2.628716179820241  109.28149901810164 2.4963309529672495  109.85532582737923 2.4963309529672495  C 110.40119356123478 2.4963309529672495  110.8691811149851 2.613583669354839  111.25927682319367 2.848086678158089  C 111.64937253140224 3.08258968696134  111.94759880555726 3.4107069244798076  112.1539634275762 3.832435360748584  C 112.36099373832438 4.25416379701736  112.46454400904304 4.7468091102868755  112.46454400904304 5.3103767544939675  C 112.46454400904304 5.3103767544939675  112.46454400904304 5.894745136665846  112.46454400904304 5.894745136665846  C 112.46454400904304 5.894745136665846  108.03499207399385 5.894745136665846  108.03499207399385 5.894745136665846  C 108.0469745362175 6.624759026409752  108.23435521708262 7.180731789429943  108.5971575534778 7.562748091603053  C 108.95995988987296 7.944764393776163  109.4707909613308 8.13576951489781  110.12982640409167 8.13576951489781  C 110.53523302746976 8.13576951489781  110.89416603975654 8.099883872987718  111.20637573514163 8.027973405565131  C 111.51858543052668 7.956127490823535  111.84234530671216 7.850206403133464  112.17785424153519 7.710258557005664  C 112.17785424153519 7.710258557005664  112.17785424153519 8.538586555035705  112.17785424153519 8.538586555035705  C 111.85366205974744 8.678534401163507  111.53293097130799 8.780661063796632  111.21539573633021 8.84495444471805  C 110.89719479774381 8.909247825639467  110.52181453178525 8.941403595173602  110.08911450683503 8.941403595173602  C 109.47268338081581 8.941403595173602  108.93545601556345 8.819404626323566  108.47745969986696 8.575464171386358  C 108.0187976805618 8.33145916376816  107.66258402436605 7.973115660012928  107.40895523474198 7.5003398177788725  C 107.15532644511792 7.027563975544817  107.02840869810953 6.448863445733809  107.02840869810953 5.764255109578921  C 107.02840869810953 5.0947841318332925  107.1446929236048 4.515144630325043  107.37701955485802 4.02533366165969  C 107.60934618611127 3.535522692994337  107.93675368359403 3.158239311438069  108.35946833296747 2.8934745136665847  Z M 110.74391783636405 3.5033735533119925  C 110.51025982765235 3.346403450889559  110.21017688917036 3.267924156611672  109.84338042039973 3.267924156611672  C 109.32414041426647 3.267924156611672  108.91080200827649 3.432452232362719  108.6032521488755 3.7615168677665602  C 108.29503658586589 4.09057503924526  108.11161300073128 4.550125661782812  108.05303207637104 5.140172371337109  C 108.05303207637104 5.140172371337109  111.44601522617923 5.140172371337109  111.44601522617923 5.140172371337109  C 111.4420210719497 4.7695042400270875  111.38279590330639 4.443284222251293  111.26829682438228 4.161497168185176  C 111.1531320492892 3.879716578044201  110.97824153380502 3.6603371918092833  110.74391783636405 3.5033735533119925  Z M 115.08863300347726 2.8934745136665847  C 115.51134765285069 2.628716179820241  116.00968855334781 2.4963309529672495  116.58351536262539 2.4963309529672495  C 117.12938309648095 2.4963309529672495  117.59737065023126 2.613583669354839  117.98746635843985 2.848086678158089  C 118.3775620666484 3.08258968696134  118.67609778733781 3.4107069244798076  118.88312809808599 3.832435360748584  C 119.08949272010493 4.25416379701736  119.19273354428921 4.7468091102868755  119.19273354428921 5.3103767544939675  C 119.19273354428921 5.3103767544939675  119.19273354428921 5.894745136665846  119.19273354428921 5.894745136665846  C 119.19273354428921 5.894745136665846  114.76415674450364 5.894745136665846  114.76415674450364 5.894745136665846  C 114.77547351427822 6.624759026409752  114.96254475232881 7.180731789429943  115.32534708872396 7.562748091603053  C 115.68814942511914 7.944764393776163  116.19898049657697 8.13576951489781  116.85801593933785 8.13576951489781  C 117.26408826632455 8.13576951489781  117.62302124885257 8.099883872987718  117.9345652703878 8.027973405565131  C 118.24677496577286 7.956127490823535  118.57053484195833 7.850206403133464  118.90604377678136 7.710258557005664  C 118.90604377678136 7.710258557005664  118.90604377678136 8.538586555035705  118.90604377678136 8.538586555035705  C 118.58251729860223 8.678534401163507  118.26178621016278 8.780661063796632  117.9435852715764 8.84495444471805  C 117.6260500365986 8.909247825639467  117.25042595706539 8.941403595173602  116.8170602582653 8.941403595173602  C 116.20062913224606 8.941403595173602  115.66340176699372 8.819404626323566  115.20540545129722 8.575464171386358  C 114.74674343199207 8.33145916376816  114.39108299126721 7.973115660012928  114.13811990525178 7.5003398177788725  C 113.88449111562771 7.027563975544817  113.75757336861932 6.448863445733809  113.75757336861932 5.764255109578921  C 113.75757336861932 5.0947841318332925  113.87354816245958 4.515144630325043  114.1052090901042 4.02533366165969  C 114.33753572135743 3.535522692994337  114.66525268025396 3.158239311438069  115.08863300347726 2.8934745136665847  Z M 117.47210737161022 3.5033735533119925  C 117.2384493628985 3.346403450889559  116.93836642441653 3.267924156611672  116.5715699556459 3.267924156611672  C 116.05299559360375 3.267924156611672  115.63965724713128 3.432452232362719  115.33144168412166 3.7615168677665602  C 115.02322612111206 4.09057503924526  114.83980253597746 4.550125661782812  114.78122161161721 5.140172371337109  C 114.78122161161721 5.140172371337109  118.17517989668903 5.140172371337109  118.17517989668903 5.140172371337109  C 118.17118574245949 4.7695042400270875  118.1116511347215 4.443284222251293  117.99648635962843 4.161497168185176  C 117.88132158453537 3.879716578044201  117.70643106905118 3.6603371918092833  117.47210737161022 3.5033735533119925  Z M 125.28684137435856 7.880462940162522  C 125.47190383800665 8.073343090140975  125.71850969262987 8.16981039152918  126.02672525563946 8.16981039152918  C 126.18649141366191 8.16981039152918  126.35019517728269 8.156562187384573  126.5179496446942 8.130096035459246  C 126.68570411210568 8.10362988353392  126.82208327952722 8.071474113999784  126.92726267160378 8.033646885003694  C 126.92726267160378 8.033646885003694  126.92726267160378 8.765525732578183  126.92726267160378 8.765525732578183  C 126.81409497013816 8.81471404225214  126.65706763787978 8.85625904180005  126.45602855545354 8.890342280226545  C 126.25565516175654 8.924360965972053  126.06005083359642 8.941403595173602  125.86899712674698 8.941403595173602  C 125.52949402978973 8.941403595173602  125.22125311231099 8.883716158177634  124.94432511300774 8.768362472297465  C 124.66739711370451 8.653008786417292  124.44601538481862 8.457309044878109  124.28025799847423 8.181157350406304  C 124.11450061212985 7.905070208615489  124.03159850624802 7.52305993751539  124.03159850624802 7.035114503816795  C 124.03159850624802 7.035114503816795  124.03159850624802 3.347352868751539  124.03159850624802 3.347352868751539  L 123.1188718994883 3.347352868751539  L 123.1188718994883 2.8878010342280227  L 124.03769310164571 2.5190248707214975  L 124.42311531459633 1.1687367643437576  L 125.00819647277565 1.1687367643437576  L 125.00819647277565 2.609800541738488  L 126.88630699053124 2.609800541738488  L 126.88630699053124 3.347352868751539  L 125.00819647277565 3.347352868751539  C 125.00819647277565 3.347352868751539  125.00819647277565 7.006747106623985  125.00819647277565 7.006747106623985  C 125.00819647277565 7.396380480869859  125.1011132071018 7.687582790184068  125.28684137435856 7.880462940162522  Z M 133.3899716313261 3.974272346712633  C 133.63361503049398 4.452741637296848  133.75540357137226 5.030490354130756  133.75540357137226 5.707520315193301  C 133.75540357137226 6.218162090618074  133.6870920994734 6.6738989396084705  133.5506251660095 7.074828859886727  C 133.41415823254562 7.475694227483994  133.217072334432 7.814229984917508  132.9594494124325 8.090381679389314  C 132.70182649043298 8.366468821180128  132.3911100304379 8.577346255732886  132.0269763165842 8.722974636788969  C 131.6621769288807 8.86860301784505  131.24945741595948 8.941403595173602  130.78879831558726 8.941403595173602  C 130.36009245277126 8.941403595173602  129.96715844268158 8.86860301784505  129.61034734948774 8.722974636788969  C 129.25353625629393 8.577346255732886  128.94529533881516 8.366468821180128  128.68567533574853 8.090381679389314  C 128.4260553326819 7.814229984917508  128.22501233697787 7.475694227483994  128.08255417519203 7.074828859886727  C 127.94076170213543 6.6738989396084705  127.8699746877202 6.218162090618074  127.8699746877202 5.707520315193301  C 127.8699746877202 5.026707630509726  127.98873445573184 4.447061693933144  128.22638662657778 3.9685988672740704  C 128.4640387974237 3.4901295766898546  128.80418027944185 3.1251361368043584  129.24686567996883 2.873617335631618  C 129.68955108049587 2.6220920705337356  130.2173170327748 2.4963309529672495  130.8297539966598 2.4963309529672495  C 131.4148975887314 2.4963309529672495  131.9266570146718 2.623037448442502  132.36534825306458 2.8764540753508987  C 132.804705195066 3.1298642383341546  133.14632823215823 3.495809520053558  133.3899716313261 3.974272346712633  Z M 129.34072244909345 3.9317212509234176  C 129.03050980501672 4.359123772623738  128.87558292834092 4.951059622014282  128.87558292834092 5.707520315193301  C 128.87558292834092 6.206801049618321  128.94365061642384 6.6399004247722235  129.08011754988777 7.006747106623985  C 129.21658448335165 7.373658341156734  129.42733266096562 7.657336338609641  129.7122489845373 7.857769022408274  C 129.99716530810898 8.058266258887897  130.3640124858179 8.158463432652056  130.81268912954624 8.158463432652056  C 131.25737161114037 8.158463432652056  131.62273724865457 8.058266258887897  131.9089849496847 7.857769022408274  C 132.1958983543235 7.657336338609641  132.40757485666128 7.373658341156734  132.54404179012516 7.006747106623985  C 132.68050872358907 6.6399004247722235  132.74882019548792 6.206801049618321  132.74882019548792 5.707520315193301  C 132.74882019548792 5.212041696164738  132.68050872358907 4.783688544616473  132.54404179012516 4.422477222359025  C 132.40757485666128 4.061259436176434  132.1970704628632 3.7823147777640975  131.91215413929152 3.5856390051711404  C 131.62790351932847 3.388956768653041  131.2592653400111 3.29061807436592  130.80659453414853 3.29061807436592  C 130.1395708266367 3.29061807436592  129.65093509317018 3.5043187292230975  129.34072244909345 3.9317212509234176  Z M 138.67325448968526 7.084993843880818  C 138.67325448968526 8.200445241319873  139.0926094338282 8.967407042600346  140.33878551996904 8.967407042600346  C 140.69825939783863 8.967407042600346  141.09351485955122 8.862771064027488  141.41704133773035 8.758197488303374  C 141.41704133773035 8.758197488303374  141.2254272584266 8.037783797094312  141.2254272584266 8.037783797094312  C 141.03370786284793 8.107499509434252  140.77018145624976 8.188840187146024  140.56647960402717 8.188840187146024  C 139.89546173438114 8.188840187146024  139.6676486747742 7.793852576335878  139.6676486747742 7.09669539522285  C 139.6676486747742 7.09669539522285  139.6676486747742 3.9594976606747108  139.6676486747742 3.9594976606747108  L 141.2373726654061 3.9594976606747108  L 141.2373726654061 3.180930805220389  L 139.6676486747742 3.180930805220389  L 139.6676486747742 1.600748584092588  L 138.84097775503 1.600748584092588  L 138.72103611760326 3.180930805220389  L 137.8105035651867 3.239083969465649  L 137.8105035651867 3.9594976606747108  L 138.67325448968526 3.9594976606747108  C 138.67325448968526 3.9594976606747108  138.67325448968526 7.084993843880818  138.67325448968526 7.084993843880818  Z M 141.95629113851894 6.016015759665107  C 141.95629113851894 7.863482208815563  143.19062716371403 8.967407042600346  144.7483471821138 8.967407042600346  C 145.53918967771634 8.967407042600346  146.16219969330078 8.700068910059098  146.66546311041466 8.38634819010096  C 146.66546311041466 8.38634819010096  146.3180711727457 7.7589559221866535  146.3180711727457 7.7589559221866535  C 145.88670252525395 8.026199490965896  145.41923827941412 8.200541738488058  144.86804503572463 8.200541738488058  C 143.75367600242544 8.200541738488058  142.99893306308695 7.433595058175326  142.9270382934648 6.236808667815808  C 142.9270382934648 6.236808667815808  146.85707718971838 6.236808667815808  146.85707718971838 6.236808667815808  C 146.88104211416572 6.097377243135927  146.89315719447276 5.888264128293524  146.89315719447276 5.690736271854223  C 146.89315719447276 4.075655549741443  146.05426006402757 3.0415759665107114  144.56843472597365 3.0415759665107114  C 143.2383814135667 3.0415759665107114  141.95629113851894 4.168549310514651  141.95629113851894 6.016015759665107  Z M 146.0304062699742 5.551263235656242  C 146.0304062699742 5.551263235656242  142.9148491026694 5.551263235656242  142.9148491026694 5.551263235656242  C 143.0346737211862 4.435811838217187  143.7777619148582 3.796739719280965  144.59256932374856 3.796739719280965  C 145.50323644530764 3.796739719280965  146.0304062699742 4.412573219342526  146.0304062699742 5.551263235656242  Z M 148.33099414069844 3.180930805220389  L 148.33099414069844 8.827934006402364  L 149.31368670262378 8.827934006402364  C 149.31368670262378 8.827934006402364  149.31368670262378 5.2026988426495935  149.31368670262378 5.2026988426495935  C 149.70910795042505 4.249917373337848  150.29607890931788 3.9013444964294512  150.7873598697879 3.9013444964294512  C 151.02700910682157 3.9013444964294512  151.1587810889568 3.9362694915718883  151.3505004845355 3.9943659197242054  C 151.3505004845355 3.9943659197242054  151.54235834765512 3.1577640975129277  151.54235834765512 3.1577640975129277  C 151.35063895207645 3.0764290973782624  151.1708786227511 3.0415759665107114  150.91924691419416 3.0415759665107114  C 150.26021147143325 3.0415759665107114  149.66108253869115 3.4946808436961336  149.26566129088988 4.203457276532874  C 149.26566129088988 4.203457276532874  149.2298250699514 4.203457276532874  149.2298250699514 4.203457276532874  L 149.14571965346312 3.180930805220389  L 148.33099414069844 3.180930805220389  Z M 152.48897090482606 3.180930805220389  L 152.48897090482606 8.827934006402364  L 153.4714196829355 8.827934006402364  C 153.4714196829355 8.827934006402364  153.4714196829355 4.737946318640729  153.4714196829355 4.737946318640729  C 154.01063049973985 4.15698200104654  154.50202257944431 3.8664762373799553  154.93339122693604 3.8664762373799553  C 155.676303895963 3.8664762373799553  156.02383623549275 4.319685114503817  156.02383623549275 5.377040137897069  C 156.02383623549275 5.377040137897069  156.02383623549275 8.827934006402364  156.02383623549275 8.827934006402364  L 157.00628501360217 8.827934006402364  C 157.00628501360217 8.827934006402364  157.00628501360217 4.737946318640729  157.00628501360217 4.737946318640729  C 157.54549583040654 4.15698200104654  158.0129229968232 3.8664762373799553  158.46825655760273 3.8664762373799553  C 159.199186740227 3.8664762373799553  159.54651237536402 4.319685114503817  159.54651237536402 5.377040137897069  C 159.54651237536402 5.377040137897069  159.54651237536402 8.827934006402364  159.54651237536402 8.827934006402364  L 160.52920493728934 8.827934006402364  C 160.52920493728934 8.827934006402364  160.52920493728934 5.249150455552819  160.52920493728934 5.249150455552819  C 160.52920493728934 3.8083589710046786  159.95392393612354 3.0415759665107114  158.7556776765583 3.0415759665107114  C 158.0487124072218 3.0415759665107114  157.44966730492519 3.483076655226545  156.83856174825743 4.122137404580153  C 156.59891251122377 3.448218842341787  156.11970374495831 3.0415759665107114  155.23300153668706 3.0415759665107114  C 154.53801875375322 3.0415759665107114  153.92690147213142 3.459878782165722  153.4236380550175 3.9943659197242054  C 153.4236380550175 3.9943659197242054  153.38755805026312 3.9943659197242054  153.38755805026312 3.9943659197242054  L 153.30369641759077 3.180930805220389  L 152.48897090482606 3.180930805220389  Z M 161.7754278042113 8.188840187146024  C 162.32662104790077 8.63037305120352  163.11733873523625 8.967407042600346  163.94412863052926 8.967407042600346  C 165.32211176951176 8.967407042600346  166.07699323590873 8.20054364303743  166.07699323590873 7.282620044324058  C 166.07699323590873 6.213645769207091  165.14248208117175 5.876649580229623  164.30370975899362 5.5745481408520074  C 163.64467431623274 5.330543133233809  163.00946148033782 5.132960420001231  163.00946148033782 4.598473282442748  C 163.00946148033782 4.1685596989657725  163.34508549231123 3.7851563654272344  164.07601567493552 3.7851563654272344  C 164.59126151893454 3.7851563654272344  165.01067892672853 3.9942949896885  165.4061001745298 4.284777148485595  C 165.4061001745298 4.284777148485595  165.87343374962552 3.680551588278749  165.87343374962552 3.680551588278749  C 165.43008264548988 3.331972997722236  164.7950004505803 3.0415759665107114  164.06407026795603 3.0415759665107114  C 162.80591175493 3.0415759665107114  162.06284892316685 3.7387388035582374  162.06284892316685 4.6450430928342765  C 162.06284892316685 5.597824562146023  162.9735062838505 5.981194768068209  163.80029617914352 6.271676926865304  C 164.43536664909908 6.504062639474576  165.1303806787378 6.759690693486826  165.1303806787378 7.340655011081015  C 165.1303806787378 7.82866502631741  164.7470862175984 8.223708446195518  163.98020863528365 8.223708446195518  C 163.2852258523498 8.223708446195518  162.76991561037988 7.944920278256587  162.26665219326597 7.549864565377986  C 162.26665219326597 7.549864565377986  161.7754278042113 8.188840187146024  161.7754278042113 8.188840187146024  Z M 169.40805529647628 6.016015759665107  C 169.40805529647628 7.886720827690224  170.67839133486117 8.967407042600346  172.1043043004193 8.967407042600346  C 173.5302172659774 8.967407042600346  174.80030952054636 7.886720827690224  174.80030952054636 6.016015759665107  C 174.80030952054636 4.122072188192563  173.5302172659774 3.0415759665107114  172.1043043004193 3.0415759665107114  C 170.67839133486117 3.0415759665107114  169.40805529647628 4.122072188192563  169.40805529647628 6.016015759665107  Z M 173.78178073768254 6.016015759665107  C 173.78178073768254 7.305756510096035  173.11083113464707 8.177256833292292  172.1043043004193 8.177256833292292  C 171.10975995259415 8.177256833292292  170.42658407934013 7.305756510096035  170.42658407934013 6.016015759665107  C 170.42658407934013 4.7146557575104655  171.10975995259415 3.8316079783304606  172.1043043004193 3.8316079783304606  C 173.11083113464707 3.8316079783304606  173.78178073768254 4.7146557575104655  173.78178073768254 6.016015759665107  Z M 176.50167677176862 3.9594976606747108  L 176.50167677176862 8.827934006402364  L 177.48436933369396 8.827934006402364  L 177.48436933369396 3.9594976606747108  L 178.7186467936364 3.9594976606747108  L 178.7186467936364 3.180930805220389  L 177.48436933369396 3.180930805220389  C 177.48436933369396 3.180930805220389  177.48436933369396 2.286294016252155  177.48436933369396 2.286294016252155  C 177.48436933369396 1.5658982739780845  177.74790160276913 1.1940310268406795  178.29909484645864 1.1940310268406795  C 178.51477917020452 1.1940310268406795  178.7426019609281 1.2405497751092711  178.958286284674 1.3335040630386603  C 178.958286284674 1.3335040630386603  179.17379117793672 0.6015070179758679  179.17379117793672 0.6015070179758679  C 178.91017701273586 0.4969334422517545  178.56276168467636 0.4155823688746614  178.2032878068068 0.4155823688746614  C 177.04098894693198 0.4155823688746614  176.50167677176862 1.1359847482147254  176.50167677176862 2.286294016252155  C 176.50167677176862 2.286294016252155  176.50167677176862 3.180930805220389  176.50167677176862 3.180930805220389  L 175.71084207296292 3.239083969465649  L 175.71084207296292 3.9594976606747108  L 176.50167677176862 3.9594976606747108  Z M 182.14551589385582 6.759714356069933  C 182.14551589385582 8.200505840618074  182.69679502134568 8.967407042600346  183.93098856156632 8.967407042600346  C 184.73381354357156 8.967407042600346  185.30889367306284 8.560702701766806  185.8481044898672 7.944880571287861  C 185.8481044898672 7.944880571287861  185.8839407108057 7.944880571287861  185.8839407108057 7.944880571287861  L 185.96804612729397 8.827934006402364  L 186.78277164005866 8.827934006402364  L 186.78277164005866 3.180930805220389  L 185.80007907813334 3.180930805220389  C 185.80007907813334 3.180930805220389  185.80007907813334 7.189598621029303  185.80007907813334 7.189598621029303  C 185.2488858344438 7.851897931543954  184.82972200109992 8.142388574242798  184.2305988713173 8.142388574242798  C 183.46372128900256 8.142388574242798  183.14015386276063 7.68929789460724  183.14015386276063 6.631942871213987  C 183.14015386276063 6.631942871213987  183.14015386276063 3.180930805220389  183.14015386276063 3.180930805220389  L 182.14551589385582 3.180930805220389  C 182.14551589385582 3.180930805220389  182.14551589385582 6.759714356069933  182.14551589385582 6.759714356069933  Z M 188.10091073267347 8.188840187146024  C 188.65210397636295 8.63037305120352  189.44282166369842 8.967407042600346  190.26961155899144 8.967407042600346  C 191.64759469797394 8.967407042600346  192.40247616437094 8.20054364303743  192.40247616437094 7.282620044324058  C 192.40247616437094 6.213645769207091  191.46796500963396 5.876649580229623  190.62919268745583 5.5745481408520074  C 189.97015724469492 5.330543133233809  189.33494440879997 5.132960420001231  189.33494440879997 4.598473282442748  C 189.33494440879997 4.1685596989657725  189.6705684207734 3.7851563654272344  190.4014986033977 3.7851563654272344  C 190.91674444739672 3.7851563654272344  191.33616185519074 3.9942949896885  191.73158310299198 4.284777148485595  C 191.73158310299198 4.284777148485595  192.19891667808773 3.680551588278749  192.19891667808773 3.680551588278749  C 191.75556557395208 3.331972997722236  191.12048337904247 3.0415759665107114  190.38955319641818 3.0415759665107114  C 189.13139468339222 3.0415759665107114  188.38833185162903 3.7387388035582374  188.38833185162903 4.6450430928342765  C 188.38833185162903 5.597824562146023  189.29898921231268 5.981194768068209  190.1257791076057 6.271676926865304  C 190.76084957756123 6.504062639474576  191.4558636072 6.759690693486826  191.4558636072 7.340655011081015  C 191.4558636072 7.82866502631741  191.0725691460606 8.223708446195518  190.30569156374582 8.223708446195518  C 189.610708780812 8.223708446195518  189.0953985388421 7.944920278256587  188.59213512172818 7.549864565377986  C 188.59213512172818 7.549864565377986  188.10091073267347 8.188840187146024  188.10091073267347 8.188840187146024  Z M 193.33714331456238 6.016015759665107  C 193.33714331456238 7.863482208815563  194.57123555594154 8.967407042600346  196.12895557434135 8.967407042600346  C 196.91979806994388 8.967407042600346  197.54305186934423 8.700068910059098  198.0463152864581 8.38634819010096  C 198.0463152864581 8.38634819010096  197.69867956497325 7.7589559221866535  197.69867956497325 7.7589559221866535  C 197.2673109174815 8.026199490965896  196.8000904554576 8.200541738488058  196.24889721176808 8.200541738488058  C 195.13452817846888 8.200541738488058  194.37954145531447 7.433595058175326  194.3076466856923 6.236808667815808  C 194.3076466856923 6.236808667815808  198.23792936576183 6.236808667815808  198.23792936576183 6.236808667815808  C 198.26189429020917 6.097377243135927  198.2740093705162 5.888264128293524  198.2740093705162 5.690736271854223  C 198.2740093705162 4.075655549741443  197.43511224007102 3.0415759665107114  195.9492869020171 3.0415759665107114  C 194.6192335896102 3.0415759665107114  193.33714331456238 4.168549310514651  193.33714331456238 6.016015759665107  Z M 197.41125844601765 5.551263235656242  C 197.41125844601765 5.551263235656242  194.29570127871284 5.551263235656242  194.29570127871284 5.551263235656242  C 194.41552589722966 4.435811838217187  195.15837030708573 3.796739719280965  195.97317771597608 3.796739719280965  C 196.88384483753515 3.796739719280965  197.41125844601765 4.412573219342526  197.41125844601765 5.551263235656242  Z M 199.8066782211301 8.808076828367398  C 199.6735397461918 8.688914599236641  199.60701927590142 8.49887421894238  199.60701927590142 8.237892144791923  C 199.60701927590142 7.973166072857671  199.6735397461918 7.784990635965587  199.8066782211301 7.673380940655011  C 199.9391509924598 7.561835798025426  200.10099809175358 7.506013297217434  200.29205179860304 7.506013297217434  C 200.49109381484155 7.506013297217434  200.65875466117336 7.561835798025426  200.79522159463724 7.673380940655011  C 200.93168852810112 7.784990635965587  201 7.973166072857671  201 8.237892144791923  C 201 8.49887421894238  200.93168852810112 8.688914599236641  200.79522159463724 8.808076828367398  C 200.65875466117336 8.927239057498152  200.49109381484155 8.986791430682098  200.29205179860304 8.986791430682098  C 200.10099809175358 8.986791430682098  199.9391509924598 8.927239057498152  199.8066782211301 8.808076828367398  Z M 137.5228386624152 12  L 137.5228386624152 11.170135434622015  L 141.5728191960956 11.170135434622015  L 141.5728191960956 12  L 137.5228386624152 12  Z M 137.5228386624152 12  L 137.5228386624152 11.170135434622015  L 141.5728191960956 11.170135434622015  L 141.5728191960956 12  L 137.5228386624152 12  Z M 137.5228386624152 12  L 137.5228386624152 11.170135434622015  L 141.5728191960956 11.170135434622015  L 141.5728191960956 12  L 137.5228386624152 12  Z M 141.40509593075083 12  L 141.40509593075083 11.170135434622015  L 147.34854536258902 11.170135434622015  L 147.34854536258902 12  L 141.40509593075083 12  Z M 141.40509593075083 12  L 141.40509593075083 11.170135434622015  L 147.34854536258902 11.170135434622015  L 147.34854536258902 12  L 141.40509593075083 12  Z M 141.40509593075083 12  L 141.40509593075083 11.170135434622015  L 147.34854536258902 11.170135434622015  L 147.34854536258902 12  L 141.40509593075083 12  Z M 147.34854536258902 12  L 147.34854536258902 11.170135434622015  L 151.50627834290074 11.170135434622015  L 151.50627834290074 12  L 147.34854536258902 12  Z M 147.34854536258902 12  L 147.34854536258902 11.170135434622015  L 151.50627834290074 11.170135434622015  L 151.50627834290074 12  L 147.34854536258902 12  Z M 147.34854536258902 12  L 147.34854536258902 11.170135434622015  L 151.50627834290074 11.170135434622015  L 151.50627834290074 12  L 147.34854536258902 12  Z M 151.50627834290074 12  L 151.50627834290074 11.170135434622015  L 161.43973748970592 11.170135434622015  L 161.43973748970592 12  L 151.50627834290074 12  Z M 151.50627834290074 12  L 151.50627834290074 11.170135434622015  L 161.43973748970592 11.170135434622015  L 161.43973748970592 12  L 151.50627834290074 12  Z M 151.50627834290074 12  L 151.50627834290074 11.170135434622015  L 161.43973748970592 11.170135434622015  L 161.43973748970592 12  L 151.50627834290074 12  Z M 161.43973748970592 12  L 161.43973748970592 11.170135434622015  L 166.4604651783321 11.170135434622015  L 166.4604651783321 12  L 161.43973748970592 12  Z M 161.43973748970592 12  L 161.43973748970592 11.170135434622015  L 166.4604651783321 11.170135434622015  L 166.4604651783321 12  L 161.43973748970592 12  Z M 161.43973748970592 12  L 161.43973748970592 11.170135434622015  L 166.4604651783321 11.170135434622015  L 166.4604651783321 12  L 161.43973748970592 12  Z M 166.4604651783321 12  L 166.4604651783321 11.170135434622015  L 168.8568600887082 11.170135434622015  L 168.8568600887082 12  L 166.4604651783321 12  Z M 166.4604651783321 12  L 166.4604651783321 11.170135434622015  L 168.8568600887082 11.170135434622015  L 168.8568600887082 12  L 166.4604651783321 12  Z M 166.4604651783321 12  L 166.4604651783321 11.170135434622015  L 168.8568600887082 11.170135434622015  L 168.8568600887082 12  L 166.4604651783321 12  Z M 168.8568600887082 12  L 168.8568600887082 11.170135434622015  L 175.35150472831444 11.170135434622015  L 175.35150472831444 12  L 168.8568600887082 12  Z M 168.8568600887082 12  L 168.8568600887082 11.170135434622015  L 175.35150472831444 11.170135434622015  L 175.35150472831444 12  L 168.8568600887082 12  Z M 168.8568600887082 12  L 168.8568600887082 11.170135434622015  L 175.35150472831444 11.170135434622015  L 175.35150472831444 12  L 168.8568600887082 12  Z M 175.35150472831444 12  L 175.35150472831444 11.170135434622015  L 178.85029005422672 11.170135434622015  L 178.85029005422672 12  L 175.35150472831444 12  Z M 175.35150472831444 12  L 175.35150472831444 11.170135434622015  L 178.85029005422672 11.170135434622015  L 178.85029005422672 12  L 175.35150472831444 12  Z M 175.35150472831444 12  L 175.35150472831444 11.170135434622015  L 178.85029005422672 11.170135434622015  L 178.85029005422672 12  L 175.35150472831444 12  Z M 178.85029005422672 12  L 178.85029005422672 11.170135434622015  L 181.24692874841872 11.170135434622015  L 181.24692874841872 12  L 178.85029005422672 12  Z M 178.85029005422672 12  L 178.85029005422672 11.170135434622015  L 181.24692874841872 11.170135434622015  L 181.24692874841872 12  L 178.85029005422672 12  Z M 178.85029005422672 12  L 178.85029005422672 11.170135434622015  L 181.24692874841872 11.170135434622015  L 181.24692874841872 12  L 178.85029005422672 12  Z M 181.24692874841872 12  L 181.24692874841872 11.170135434622015  L 187.76522041816807 11.170135434622015  L 187.76522041816807 12  L 181.24692874841872 12  Z M 181.24692874841872 12  L 181.24692874841872 11.170135434622015  L 187.76522041816807 11.170135434622015  L 187.76522041816807 12  L 181.24692874841872 12  Z M 181.24692874841872 12  L 181.24692874841872 11.170135434622015  L 187.76522041816807 11.170135434622015  L 187.76522041816807 12  L 181.24692874841872 12  Z M 187.76522041816807 12  L 187.76522041816807 11.170135434622015  L 192.78594810679428 11.170135434622015  L 192.78594810679428 12  L 187.76522041816807 12  Z M 187.76522041816807 12  L 187.76522041816807 11.170135434622015  L 192.78594810679428 11.170135434622015  L 192.78594810679428 12  L 187.76522041816807 12  Z M 187.76522041816807 12  L 187.76522041816807 11.170135434622015  L 192.78594810679428 11.170135434622015  L 192.78594810679428 12  L 187.76522041816807 12  Z M 192.78594810679428 12  L 192.78594810679428 11.170135434622015  L 198.72915375481656 11.170135434622015  L 198.72915375481656 12  L 192.78594810679428 12  Z M 192.78594810679428 12  L 192.78594810679428 11.170135434622015  L 198.72915375481656 11.170135434622015  L 198.72915375481656 12  L 192.78594810679428 12  Z M 192.78594810679428 12  L 192.78594810679428 11.170135434622015  L 198.72915375481656 11.170135434622015  L 198.72915375481656 12  L 192.78594810679428 12  Z " fill-rule="nonzero" fill="#91929f" stroke="none" transform="matrix(1 0 0 1 453 870 )" />
  </g>
</svg>