<?xml version="1.0" encoding="utf-8"?>
<svg version="1.1" xmlns:xlink="http://www.w3.org/1999/xlink" width="146px" height="35px" xmlns="http://www.w3.org/2000/svg">
  <g transform="matrix(1 0 0 1 -435 -256 )">
    <path d="M 4 16  L 4 1.252011254231327  L 9.014053128039377 1.252011254231327  L 9.014053128039377 5  L 22.68298497638121 5  L 22.68298497638121 1.252011254231327  L 28 1.252011254231327  L 28 16  L 4 16  Z M 22.68298497638121 9  L 9.014053128039377 9  L 9.014053128039377 12  L 22.68298497638121 12  L 22.68298497638121 9  Z M 0 22  L 0 18  L 31.70165848430442 18  L 31.70165848430442 22  L 0 22  Z M 13.294373052425488 20.136193783795665  L 13.294373052425488 13.406998725106607  L 18.313953758225438 13.406998725106607  L 18.313953758225438 20.136193783795665  L 13.294373052425488 20.136193783795665  Z M 3.8386116074913446 34  L 3.8386116074913446 30  L 28.143349923099155 30  L 28.143349923099155 34  L 3.8386116074913446 34  Z M 3.8386116074913446 31.869741064755793  L 3.8386116074913446 24.519541038378687  L 8.866817022407787 24.519541038378687  L 8.866817022407787 31.869741064755793  L 3.8386116074913446 31.869741064755793  Z M 59 25.15177825647338  L 59 0  L 64 0  L 64 25.15177825647338  L 59 25.15177825647338  Z M 40.61960771075999 34  L 40.61960771075999 30  L 64.85072797355201 30  L 64.85072797355201 34  L 40.61960771075999 34  Z M 40.61960771075999 32.01391392271508  L 40.61960771075999 22.639600826482614  L 45.639496441885534 22.639600826482614  L 45.639496441885534 32.01391392271508  L 40.61960771075999 32.01391392271508  Z M 40.04144417462926 3.3442871587462086  C 41.48050691115342 2.587607899702433  43.093154853304256 2.2092144018991515  44.879597963657226 2.2092144018991515  C 46.6715924484084 2.2092144018991515  48.2854974587581 2.587607899702433  49.72144805659227 3.3442871587462086  C 51.15773510591733 4.100571533986625  52.29946346225938 5.1462863535232675  53.14638165181745 6.481623950411044  C 53.99363629286642 7.8165498343531565  54.41729414519808 9.354175825383567  54.41729414519808 11.094386072888733  C 54.41729414519808 12.794849342255299  53.99363629286642 14.319038314976975  53.14638165181745 15.66698905350156  C 52.29946346225938 17.01451966450933  51.15773510591733 18.071570413990035  49.72144805659227 18.838022596386335  C 48.2854974587581 19.604222642168473  46.6715924484084 19.98725106607465  44.879597963657226 19.98725106607465  C 43.093154853304256 19.98725106607465  41.48050691115342 19.604222642168473  40.04144417462926 18.838022596386335  C 38.60271788959599 18.071570413990035  37.45953694116677 17.01451966450933  36.61219822484583 15.66698905350156  C 35.76536418576122 14.319038314976975  35.34190178211639 12.794849342255299  35.34190178211639 11.094386072888733  C 35.34190178211639 9.354175825383567  35.76536418576122 7.8165498343531565  36.61219822484583 6.481623950411044  C 37.45953694116677 5.1462863535232675  38.60271788959599 4.100571533986625  40.04144417462926 3.3442871587462086  Z M 47.2369157803906 7.089088671033543  C 46.53593098095748 6.72985361157687  45.750151456842104 6.550248384402339  44.879597963657226 6.550248384402339  C 44.009044470472354 6.550248384402339  43.22429813970372 6.72985361157687  42.52566842550534 7.089088671033543  C 41.82737516279784 7.448323730490216  41.2776010560375 7.963000636931518  40.87588478165013 8.632984569393766  C 40.47408439439004 9.302632369790523  40.273079219472265 10.12306485255954  40.273079219472265 11.094386072888733  C 40.273079219472265 12.045623740390216  40.47408439439004 12.856331157680133  40.87588478165013 13.526399085593704  C 41.2776010560375 14.19604688599046  41.82737516279784 14.710444458721549  42.52566842550534 15.069679518178221  C 43.22429813970372 15.428914577634893  44.009044470472354 15.608519804809426  44.879597963657226 15.608519804809426  C 45.750151456842104 15.608519804809426  46.53593098095748 15.428914577634893  47.2369157803906 15.069679518178221  C 47.938321181788076 14.710444458721549  48.48982744219515 14.19604688599046  48.89162782945524 13.526399085593704  C 49.293428216715334 12.856331157680133  49.4944333916331 12.045623740390216  49.4944333916331 11.094386072888733  C 49.4944333916331 10.12306485255954  49.293428216715334 9.302632369790523  48.89162782945524 8.632984569393766  C 48.48982744219515 7.963000636931518  47.938321181788076 7.448323730490216  47.2369157803906 7.089088671033543  Z M 103 25.15177825647338  L 103 0  L 108 0  L 108 25.15177825647338  L 103 25.15177825647338  Z M 85.2740391614116 34  L 85.2740391614116 30  L 109.50515942420363 30  L 109.50515942420363 34  L 85.2740391614116 34  Z M 85.2740391614116 32.01391392271508  L 85.2740391614116 22.639600826482614  L 90.29392789253714 22.639600826482614  L 90.29392789253714 32.01391392271508  L 85.2740391614116 32.01391392271508  Z M 84.69556759995528 3.3442871587462086  C 86.13471456215439 2.587607899702433  87.74758630395586 2.2092144018991515  89.53402941430883 2.2092144018991515  C 91.32593967338502 2.2092144018991515  92.9396208840841 2.587607899702433  94.37557148191829 3.3442871587462086  C 95.8119427569183 4.100571533986625  96.95358688758539 5.1462863535232675  97.80050507714346 6.481623950411044  C 98.64775971819243 7.8165498343531565  99.07141757052409 9.354175825383567  99.07141757052409 11.094386072888733  C 99.07141757052409 12.794849342255299  98.64775971819243 14.319038314976975  97.80050507714346 15.66698905350156  C 96.95358688758539 17.01451966450933  95.8119427569183 18.071570413990035  94.37557148191829 18.838022596386335  C 92.9396208840841 19.604222642168473  91.32593967338502 19.98725106607465  89.53402941430883 19.98725106607465  C 87.74758630395586 19.98725106607465  86.13471456215439 19.604222642168473  84.69556759995528 18.838022596386335  C 83.25692539019398 18.071570413990035  82.11396839181836 17.01451966450933  81.26662967549743 15.66698905350156  C 80.41971148593935 14.319038314976975  79.9960252074424 12.794849342255299  79.9960252074424 11.094386072888733  C 79.9960252074424 9.354175825383567  80.41971148593935 7.8165498343531565  81.26662967549743 6.481623950411044  C 82.11396839181836 5.1462863535232675  83.25692539019398 4.100571533986625  84.69556759995528 3.3442871587462086  Z M 91.89134723104219 7.089088671033543  C 91.19036243160909 6.72985361157687  90.4045829074937 6.550248384402339  89.53402941430883 6.550248384402339  C 88.66347592112395 6.550248384402339  87.87881366562729 6.72985361157687  87.18009987615694 7.089088671033543  C 86.48189076392292 7.448323730490216  85.93180859423623 7.963000636931518  85.53000820697613 8.632984569393766  C 85.12829193258877 9.302632369790523  84.92751067012387 10.12306485255954  84.92751067012387 11.094386072888733  C 84.92751067012387 12.045623740390216  85.12829193258877 12.856331157680133  85.53000820697613 13.526399085593704  C 85.93180859423623 14.19604688599046  86.48189076392292 14.710444458721549  87.18009987615694 15.069679518178221  C 87.87881366562729 15.428914577634893  88.66347592112395 15.608519804809426  89.53402941430883 15.608519804809426  C 90.4045829074937 15.608519804809426  91.19036243160909 15.428914577634893  91.89134723104219 15.069679518178221  C 92.59275263243967 14.710444458721549  93.14425889284674 14.19604688599046  93.54605928010683 13.526399085593704  C 93.9477755544942 12.856331157680133  94.14855681695911 12.045623740390216  94.14855681695911 11.094386072888733  C 94.14855681695911 10.12306485255954  93.9477755544942 9.302632369790523  93.54605928010683 8.632984569393766  C 93.14425889284674 7.963000636931518  92.59275263243967 7.448323730490216  91.89134723104219 7.089088671033543  Z M 114.29864954102118 20  L 114.29864954102118 16.129511583945135  L 146 16.129511583945135  L 146 20  L 114.29864954102118 20  Z M 121.15960564319273 23.729129115927375  C 123.32337270845179 22.597055477525195  126.29691007892225 22.031059040752627  130.08032709757865 22.031059040752627  C 133.86870681332638 22.031059040752627  136.84291468033078 22.597055477525195  139.00289670391805 23.729129115927375  C 141.16456098495976 24.86078262681274  142.2451712810689 26.457555765423738  142.2451712810689 28.51960698114037  C 142.2451712810689 30.581658196857003  141.16456098495976 32.17720385990117  139.00289670391805 33.30608431881127  C 136.84291468033078 34.435384905238195  133.86870681332638 35  130.08032709757865 35  C 126.29691007892225 35  123.32337270845179 34.435384905238195  121.15960564319273 33.30608431881127  C 118.99617502942459 32.17720385990117  117.914250812786 30.581658196857003  117.914250812786 28.51960698114037  C 117.914250812786 26.457555765423738  118.99617502942459 24.86078262681274  121.15960564319273 23.729129115927375  Z M 134.00148949232786 26.176374906581085  C 132.95261971703107 25.992009586557774  131.64564111281663 25.899723040400932  130.08032709757865 25.899723040400932  C 128.51921865077523 25.899723040400932  127.21302199171106 25.992009586557774  126.16162890543411 26.176374906581085  C 125.11057227064805 26.360740226604403  124.3208817047552 26.645119787001445  123.79291415165395 27.029564338154483  C 123.26536712531556 27.413588724225654  123.00159709021555 27.910209876791786  123.00159709021555 28.51960698114037  C 123.00159709021555 29.1096768298086  123.26536712531556 29.600256470547627  123.79291415165395 29.991339517298986  C 124.3208817047552 30.382506597066715  125.11057227064805 30.670318814148224  126.16162890543411 30.85468413417154  C 127.21302199171106 31.039049454194853  128.51921865077523 31.131182133907767  130.08032709757865 31.131182133907767  C 131.64564111281663 31.131182133907767  132.95261971703107 31.039049454194853  134.00148949232786 30.85468413417154  C 135.05035926762463 30.670318814148224  135.83851309095684 30.382506597066715  136.36589189154978 29.991339517298986  C 136.89411178326918 29.600256470547627  137.15813302896493 29.1096768298086  137.15813302896493 28.51960698114037  C 137.15813302896493 27.910209876791786  136.89411178326918 27.413588724225654  136.36589189154978 27.029564338154483  C 135.83851309095684 26.645119787001445  135.05035926762463 26.360740226604403  134.00148949232786 26.176374906581085  Z M 126.6988250732615 4.421967732008617  C 126.6988250732615 4.421967732008617  126.6988250732615 3.5746252253044357  126.6988250732615 3.5746252253044357  L 131.1627280916987 3.5746252253044357  C 131.1627280916987 3.5746252253044357  131.1627280916987 4.421967732008617  131.1627280916987 4.421967732008617  C 131.1627280916987 5.463833486283906  130.97353895176218 6.465930925472316  130.595037416638 7.428210313447927  C 130.21737701024105 8.390540113720354  129.65520040963676 9.282915376718632  128.9082907337121 10.105332571328088  C 128.16222218651467 10.92741363387205  127.23557687545195 11.660052838784374  126.12867019559609 12.303314722820591  C 125.02294109595833 12.946156404209896  123.74079485277615 13.48477678503965  122.28204992963941 13.919220116938497  C 120.8235573827216 14.353663448837347  119.19308773895698 14.649303348907015  117.39091578461013 14.806106299731832  C 117.39091578461013 14.806106299731832  115.65057269503171 10.885743174924166  115.65057269503171 10.885743174924166  C 117.18863459071662 10.759695782181183  118.55700965110033 10.53777056817417  119.75593423448322 10.219963072053458  C 120.9549429683396 9.902071542916373  121.99013509563387 9.525559302806414  122.86144556707251 9.090275640743835  C 123.73284018898461 8.654991978681254  124.45049121905308 8.182118962244678  125.01454259294032 7.6716270277399214  C 125.5780892895912 7.160798961169673  125.99973653593867 6.625703121136166  126.27898655448355 6.066338418252956  C 126.5590776829553 5.5066123771558475  126.6988250732615 4.958459038511603  126.6988250732615 4.421967732008617  Z M 129.15286284222987 4.421967732008617  C 129.15286284222987 4.421967732008617  129.15286284222987 3.5746252253044357  129.15286284222987 3.5746252253044357  L 133.60783312622496 3.5746252253044357  C 133.60783312622496 3.5746252253044357  133.60783312622496 4.421967732008617  133.60783312622496 4.421967732008617  C 133.60783312622496 4.978156046977005  133.74288867642625 5.5345360563944554  134.01288642937465 6.09111091572515  C 134.28288418232307 6.647710981204252  134.6996145292899 7.182798406666608  135.2631612259408 7.696399525212116  C 135.8267079225917 8.210084676773997  136.54924742587548 8.684464502487621  137.43073544211128 9.119664131533828  C 138.3122234583471 9.554947793596407  139.35213583311125 9.92667443418878  140.55072396500324 10.234734250670417  C 141.74931209689527 10.542710034135682  143.11799518260457 10.759695782181183  144.65639352978036 10.885743174924166  C 144.65639352978036 10.885743174924166  142.91635846552754 14.806106299731832  142.91635846552754 14.806106299731832  C 141.11385005968978 14.649303348907015  139.48340884209048 14.35860295236391  138.02491629517266 13.933991295555458  C 136.5655826947291 13.509379638747005  135.28282145371668 12.970759257917253  134.17675590258804 12.318085901437552  C 133.07153148018662 11.664992342310937  132.14675808475002 10.92741363387205  131.40237179500704 10.105332571328088  C 130.6588265587898 9.282915376718632  130.09821392368752 8.394014204654734  129.72055351729057 7.4388270980788676  C 129.34205198216637 6.4835811646350345  129.15286284222987 5.478009559382143  129.15286284222987 4.421967732008617  Z M 117.1882351203725 6  L 117.1882351203725 2  L 143.1575422954638 2  L 143.1575422954638 6  L 117.1882351203725 6  Z " fill-rule="nonzero" fill="#26262c" stroke="none" transform="matrix(1 0 0 1 435 256 )" />
  </g>
</svg>