<?xml version="1.0" encoding="utf-8"?>
<svg version="1.1" xmlns:xlink="http://www.w3.org/1999/xlink" width="350px" height="40px" xmlns="http://www.w3.org/2000/svg">
  <g transform="matrix(1 0 0 1 -434 -898 )">
    <path d="M 0 8.88888888888889  C 0 3.979690869649251  3.581721782684326 0  8 0  C 8 0  342 0  342 0  C 346.4182782173157 0  350 3.979690869649251  350 8.88888888888889  C 350 8.88888888888889  350 31.11111111111111  350 31.11111111111111  C 350 36.020309130350746  346.4182782173157 40  342 40  C 342 40  8 40  8 40  C 3.581721782684326 40  0 36.020309130350746  0 31.11111111111111  C 0 31.11111111111111  0 8.88888888888889  0 8.88888888888889  Z " fill-rule="nonzero" fill="#fc4a36" stroke="none" transform="matrix(1 0 0 1 434 898 )" />
  </g>
</svg>