<?xml version="1.0" encoding="utf-8"?>
<svg version="1.1" xmlns:xlink="http://www.w3.org/1999/xlink" width="89px" height="19px" xmlns="http://www.w3.org/2000/svg">
  <g transform="matrix(1 0 0 1 -432 -617 )">
    <path d="M 0 11.789409683838162  L 0 9.855663645073328  L 15.677357834844573 9.855663645073328  L 15.677357834844573 11.789409683838162  L 0 11.789409683838162  Z M 6.719561477328539 10.587014518387502  L 6.719561477328539 7.718321173262583  L 8.951661405811546 7.718321173262583  L 8.951661405811546 10.587014518387502  L 6.719561477328539 10.587014518387502  Z M 1.9844012534142903 8.505542044365834  L 1.9844012534142903 7  L 13.976186851787494 7  L 13.976186851787494 8.505542044365834  L 1.9844012534142903 8.505542044365834  Z M 1.9844012534142903 7.690876262067949  L 1.9844012534142903 0.4952686270174663  L 13.849909095870109 0.4952686270174663  L 13.849909095870109 2.3735647431645663  L 4.210110607205122 2.3735647431645663  L 4.210110607205122 7.690876262067949  L 1.9844012534142903 7.690876262067949  Z M 3.567218793172281 5.38130297000516  L 3.567218793172281 3.572039207015992  L 13.441934807521635 3.572039207015992  L 13.441934807521635 5.38130297000516  L 3.567218793172281 5.38130297000516  Z M 3.4020863431264705 13.588311592600782  C 4.451603060683623 13.060269991570859  5.925210921220639 12.796329869555604  7.822830292185691 12.796329869555604  C 9.720603311538362 12.796329869555604  11.194285187911168 13.060269991570859  12.2438298642326 13.588311592600782  C 13.293374540554032 14.116123772693618  13.81821184539692 14.884986969090852  13.81821184539692 15.89480433340703  C 13.81821184539692 16.902862838058027  13.293374540554032 17.67016411921245  12.2438298642326 18.19667624732847  C 11.194285187911168 18.723188375444487  9.720603311538362 18.986417569459796  7.822830292185691 18.986417569459796  C 5.925210921220639 18.986417569459796  4.451603060683623 18.723188375444487  3.4020863431264705 18.19667624732847  C 2.3525696255693176 17.67016411921245  1.8277043619621505 16.902862838058027  1.8277043619621505 15.89480433340703  C 1.8277043619621505 14.884986969090852  2.3525696255693176 14.116123772693618  3.4020863431264705 13.588311592600782  Z M 10.63621689466897 14.917429434740955  C 10.015606281119272 14.709730534170834  9.07614967599921 14.60601370771612  7.817973455419637 14.60601370771612  C 6.570169811571392 14.60601370771612  5.634974172053703 14.709730534170834  5.0122555425669715 14.917429434740955  C 4.389725385107295 15.125204808956767  4.07846476854631 15.451035288315161  4.07846476854631 15.89480433340703  C 4.07846476854631 16.333985062314607  4.389725385107295 16.65752970782436  5.0122555425669715 16.865458029331563  C 5.634974172053703 17.073233403547377  6.570169811571392 17.17715380647063  7.817973455419637 17.17715380647063  C 9.07614967599921 17.17715380647063  10.015606281119272 17.073233403547377  10.63621689466897 16.865458029331563  C 11.25675773612388 16.65752970782436  11.567195815825073 16.333985062314607  11.567195815825073 15.89480433340703  C 11.567195815825073 15.451035288315161  11.25675773612388 15.125204808956767  10.63621689466897 14.917429434740955  Z M 30 13.877743385658485  L 30 0.013862480654432898  L 32 0.013862480654432898  L 32 13.877743385658485  L 30 13.877743385658485  Z M 20.277804744247764 18.64251602918417  L 20.277804744247764 16.667322573513154  L 32.17500983717677 16.667322573513154  L 32.17500983717677 18.64251602918417  L 20.277804744247764 18.64251602918417  Z M 20.277804744247764 17.669481907288674  L 20.277804744247764 12.56234799911563  L 22.509904672730773 12.56234799911563  L 22.509904672730773 17.669481907288674  L 20.277804744247764 17.669481907288674  Z M 21.544927894212293 2.9184022404009142  C 21.544927894212293 2.9184022404009142  21.544927894212293 1.0534085046797848  21.544927894212293 1.0534085046797848  L 23.39870580091852 1.0534085046797848  C 23.39870580091852 1.0534085046797848  23.39870580091852 2.9184022404009142  23.39870580091852 2.9184022404009142  C 23.39870580091852 4.157468518831989  23.215553896091386 5.333647410918269  22.849372000379127 6.446893654653991  C 22.483259907965625 7.559925758507443  21.93885802096333 8.536520331989507  21.216196732046793 9.376637924681258  C 20.493535443130256 10.21668673553343  19.591221744314094 10.852462234401486  18.509149292441315 11.283919227651264  C 18.509149292441315 11.283919227651264  17.362168946689682 9.32916943031911  17.362168946689682 9.32916943031911  C 18.30547474971857 8.957536741103919  19.08692377149504 8.436802390069966  19.706487366767288 7.767049893138772  C 20.32612073413432 7.097297396207578  20.787303203242466 6.340581339329308  21.090174599117095 5.496823642125434  C 21.39332520818677 4.653073602541869  21.544927894212293 3.793559462717177  21.544927894212293 2.9184022404009142  Z M 21.993034991627628 2.9184022404009142  C 21.993034991627628 2.9184022404009142  21.993034991627628 1.0534085046797848  21.993034991627628 1.0534085046797848  L 23.821250599565154 1.0534085046797848  C 23.821250599565154 1.0534085046797848  23.821250599565154 2.9184022404009142  23.821250599565154 2.9184022404009142  C 23.821250599565154 3.564501852366838  23.904724657521687 4.194822322337451  24.07176112749843 4.809300611688408  C 24.239007007371452 5.423778901039364  24.494088746458257 6.001529499902697  24.837096352633345 6.542670793720982  C 25.180034155509674 7.083804429918956  25.609018456685973 7.56659722090277  26.124158095637462 7.990949959466431  C 26.63929773458895 8.41529504040978  27.24060846932452 8.751359946406733  27.928089519744724 8.999130370697914  C 27.928089519744724 8.999130370697914  26.787244125697576 10.953460092858721  26.787244125697576 10.953460092858721  C 25.730440031120843 10.54525067767061  24.8447696604527 9.94300571025292  24.13055441466644 9.146576755840519  C 23.416548547572486 8.349926003925539  22.88176672216833 7.41677632393346  22.52626454394274 6.347195813987766  C 22.170762365717152 5.277607646421761  21.993034991627628 4.134672056652572  21.993034991627628 2.9184022404009142  Z M 38.689817301368016 4.447335839044882  C 38.689817301368016 4.447335839044882  38.689817301368016 1.513110767189918  38.689817301368016 1.513110767189918  L 40.50576300589656 1.513110767189918  C 40.50576300589656 1.513110767189918  40.50576300589656 4.447335839044882  40.50576300589656 4.447335839044882  C 40.50576300589656 5.586391476694349  40.40434680101418 6.6978969792415155  40.20157165054901 7.781892549193014  C 39.998796500083856 8.865918749625756  39.69542886734727 9.87756225127128  39.29155381438324 10.81679563711401  C 38.88774856471799 11.755799636205458  38.387251298825966 12.58934630695427  37.790024384709724 13.31736310708232  C 37.19300684928579 14.04522695991898  36.50444345768506 14.622718601309742  35.72433502121096 15.049893138772202  C 35.72433502121096 15.049893138772202  34.37541251518659 13.074139582872723  34.37541251518659 13.074139582872723  C 35.07999509296761 12.706766410769722  35.701310791603944 12.218998764704935  36.239415341400296 11.610737710958801  C 36.77772926988896 11.002553096672562  37.2286889725641 10.310588851569985  37.592427815227666 9.53500626427887  C 37.9563760677875 8.759408361747136  38.230211116809976 7.9379758412155  38.41400009765373 7.070565259046356  C 38.59792866949301 6.202940536994943  38.689817301368016 5.328511472324323  38.689817301368016 4.447335839044882  Z M 39.125143249398995 4.447335839044882  C 39.125143249398995 4.447335839044882  39.125143249398995 1.513110767189918  39.125143249398995 1.513110767189918  L 40.928307804543195 1.513110767189918  C 40.928307804543195 1.513110767189918  40.928307804543195 4.447335839044882  40.928307804543195 4.447335839044882  C 40.928307804543195 5.296461869944819  41.014841708979354 6.1363776296440875  41.188020760033204 6.967226766895129  C 41.361339417684576 7.797861764263901  41.62358407672475 8.585061029938416  41.97482831613383 9.328609330090648  C 42.326212162140436 10.072149972622569  42.75716690091481 10.73661016508793  43.26776938785475 11.322006043186676  C 43.778651087989736 11.90724897399403  44.369762708907615 12.381239227872932  45.04077043045187 12.74410052325153  C 45.04077043045187 12.74410052325153  43.679066775043154 14.705851573439459  43.679066775043154 14.705851573439459  C 42.92834499688011 14.283265352161292  42.27024136839348 13.720694002787834  41.70463481814866 13.017989534969415  C 41.13923764659615 12.315132188231217  40.66611672273322 11.508949476690894  40.28541599051036 10.599616773527895  C 39.904785030382264 9.690284070364894  39.61611389400497 8.71320453705367  39.41962093121444 7.668332227872356  C 39.22326757502143 6.623261094049396  39.125143249398995 5.549608302645276  39.125143249398995 4.447335839044882  Z M 46 19  L 46 0.007141277912889675  L 48 0.007141277912889675  L 48 19  L 46 19  Z M 47.71049691385505 9.45533200678016  L 47.71049691385505 7.410826147836981  L 50.80685816370786 7.410826147836981  L 50.80685816370786 9.45533200678016  L 47.71049691385505 9.45533200678016  Z M 65.79045520996988 6.150460608740511  L 65.79045520996988 4.15440341955929  L 69.90956403355841 4.15440341955929  L 69.90956403355841 6.150460608740511  L 65.79045520996988 6.150460608740511  Z M 61.00570412644434 3.2884884663571374  C 61.00570412644434 3.2884884663571374  61.00570412644434 1.1568870218881273  61.00570412644434 1.1568870218881273  L 62.81525925628071 1.1568870218881273  C 62.81525925628071 1.1568870218881273  62.81525925628071 3.2884884663571374  62.81525925628071 3.2884884663571374  C 62.81525925628071 4.555727129912392  62.638644896882084 5.745015389369842  62.285097179817846 6.856326921659666  C 61.93168906935114 7.967424314067221  61.401010286216746 8.937436205689439  60.69307721250313 9.76632765863365  C 59.98535351748181 10.59505850666616  59.101074469784244 11.227418262460043  58.040221846287295 11.663387132434226  C 58.040221846287295 11.663387132434226  56.86103300408709 9.729641093669393  56.86103300408709 9.729641093669393  C 57.56547597527058 9.463364371885135  58.17624451091876 9.109867388944354  58.69333857982762 8.669371361190949  C 59.21064205863276 8.228882956872052  59.63962639101303 7.720818924916169  59.98040032283173 7.145058589431793  C 60.32145346784547 6.569290596327106  60.57764823722515 5.955823044485592  60.74880302381889 5.304569238705874  C 60.92016722030892 4.653093635423576  61.00570412644434 3.9810373570961386  61.00570412644434 3.2884884663571374  Z M 61.472727324948515 3.322654580293316  C 61.472727324948515 3.322654580293316  61.472727324948515 1.1568870218881273  61.472727324948515 1.1568870218881273  L 63.26311073070836 1.1568870218881273  C 63.26311073070836 1.1568870218881273  63.26311073070836 3.322654580293316  63.26311073070836 3.322654580293316  C 63.26311073070836 3.9463783522240496  63.345727396961685 4.558708268848109  63.51080940577708 5.159643304591348  C 63.675961217891235 5.760356542832007  63.922628398661544 6.328081026259304  64.25083795513099 6.862768074286977  C 64.57911731489918 7.397233324812072  64.99145831913143 7.873133368685054  65.48754196956075 8.290603581693567  C 65.98383502988638 8.708066137081767  66.56518701381258 9.047793419642776  67.23165761454926 9.30956592232294  C 67.23165761454926 9.30956592232294  66.04019886894008 11.195143341440048  66.04019886894008 11.195143341440048  C 65.03798008028362 10.777221944177676  64.19772154527058 10.178118515492574  63.519244964370756 9.397641683248581  C 62.84097776216323 8.616874271662429  62.33030400533756 7.703015231179527  61.987296399162474 6.656231115041639  C 61.64435859628615 5.609225201401172  61.472727324948515 4.4980575913502285  61.472727324948515 3.322654580293316  Z M 69 14.076158891591126  L 69 0.013862480654432898  L 71 0.013862480654432898  L 71 14.076158891591126  L 69 14.076158891591126  Z M 59.99036961935152 18.64251602918417  L 59.99036961935152 16.667322573513154  L 71.75567325063403 16.667322573513154  L 71.75567325063403 18.64251602918417  L 59.99036961935152 18.64251602918417  Z M 59.99036961935152 17.732353157933527  L 59.99036961935152 12.625079224703367  L 62.23525069721888 12.625079224703367  L 62.23525069721888 17.732353157933527  L 59.99036961935152 17.732353157933527  Z M 74.89702414631975 10.769607192866092  L 74.89702414631975 8.780411231483528  C 74.89702414631975 8.780411231483528  76.07263426669233 8.780411231483528  76.07263426669233 8.780411231483528  C 76.93071170852015 8.780411231483528  77.69679171020171 8.771250858738425  78.37094054898627 8.752966320288895  C 79.04515922227357 8.734681781839363  79.68601678657335 8.692483995060764  80.29322541639262 8.62624364359938  C 80.90064342490419 8.559781524547999  81.52066128768801 8.469227087647942  82.15313827480333 8.354595032795343  C 82.15313827480333 8.354595032795343  82.36095976379288 10.31606603286904  82.36095976379288 10.31606603286904  C 81.70272582749415 10.43781001712097  81.06075615341885 10.53472109933848  80.43484055157121 10.606758051440785  C 79.80899478422633 10.678565591152456  79.14518837913036 10.723655973495314  78.44353747748939 10.742162281671458  C 77.74209601694866 10.76043917318374  76.95172215820367 10.769607192866092  76.07263426669233 10.769607192866092  C 76.07263426669233 10.769607192866092  74.89702414631975 10.769607192866092  74.89702414631975 10.769607192866092  Z M 74.89702414631975 9.865045323900066  L 74.89702414631975 1.3005527304886138  L 81.68432571538534 1.3005527304886138  L 81.68432571538534 3.26174368044808  L 77.0534596704474 3.26174368044808  L 77.0534596704474 9.865045323900066  L 74.89702414631975 9.865045323900066  Z M 76.41056785641456 6.902115115336429  L 76.41056785641456 5.037681479843762  L 81.50206652516451 5.037681479843762  L 81.50206652516451 6.902115115336429  L 76.41056785641456 6.902115115336429  Z M 86 11.572650895423392  L 86 0  L 89 0  L 89 11.572650895423392  L 86 11.572650895423392  Z M 84.59408218422662 6.708880536517061  L 84.59408218422662 4.733827105903162  L 87.49259124160967 4.733827105903162  L 87.49259124160967 6.708880536517061  L 84.59408218422662 6.708880536517061  Z M 83 11.455589947674847  L 83 0.35104281818851796  L 85 0.35104281818851796  L 85 11.455589947674847  L 83 11.455589947674847  Z M 77.15928758734982 14.406758051440784  L 77.15928758734982 12.431704620826885  L 89 12.431704620826885  L 89 19  L 86.76790007151699 19  L 86.76790007151699 14.406758051440784  L 77.15928758734982 14.406758051440784  Z " fill-rule="nonzero" fill="#26262c" stroke="none" transform="matrix(1 0 0 1 432 617 )" />
  </g>
</svg>