<?xml version="1.0" encoding="utf-8"?>
<svg version="1.1" xmlns:xlink="http://www.w3.org/1999/xlink" width="24px" height="13px" xmlns="http://www.w3.org/2000/svg">
  <g transform="matrix(1 0 0 1 -202 -323 )">
    <path d="M 3.1729367636744366 7.827301270963376  L 3.1729367636744366 6.040742272693089  L 4.829909430049707 6.040742272693089  L 4.829909430049707 7.827301270963376  L 3.1729367636744366 7.827301270963376  Z M 8.611525051587261 8.851526660148906  L 8.611525051587261 0.11206475144769495  L 10.272888988279782 0.11206475144769495  L 10.272888988279782 8.851526660148906  L 8.611525051587261 8.851526660148906  Z M 9.670065157506327 5.222315183876062  L 9.670065157506327 3.8485748665112434  L 11.968407249662015 3.8485748665112434  L 11.968407249662015 5.222315183876062  L 9.670065157506327 5.222315183876062  Z M 2.644520568832146 8.52791983154095  C 1.761716149195188 8.545005750860533  0.9456088527742765 8.55659758851897  0.19614340750378645 8.562871324358877  C 0.19614340750378645 8.562871324358877  0 7.259645032714146  0 7.259645032714146  C 0.7742384089078239 7.259645032714146  1.613488023909298 7.254259015901148  2.518149567480204 7.243513574490487  C 3.422957689233764 7.23250116573614  4.343340323608414 7.20145987445917  5.279038799719447 7.150268857637061  C 6.21474394659702 7.098877615540281  7.1194698749771295 7.018686216379759  7.993087815241367 6.90976348048432  C 7.993087815241367 6.90976348048432  8.11921485713124 8.058396630818981  8.11921485713124 8.058396630818981  C 7.217611026173547 8.21403866957442  6.300480807410523 8.326833872003665  5.367840043912704 8.39691283748214  C 4.435199280414883 8.466991802960614  3.527464895885217 8.510700428083336  2.644520568832146 8.52791983154095  Z M 1.6186710308303771 10.695523426336768  L 1.6186710308303771 9.401951568022863  L 10.272888988279782 9.401951568022863  L 10.272888988279782 13  L 8.611525051587261 13  L 8.611525051587261 10.695523426336768  L 1.6186710308303771 10.695523426336768  Z M 0.3261738007867693 2.31498646311198  L 0.3261738007867693 1.1056159284049034  L 7.653008325116643 1.1056159284049034  L 7.653008325116643 2.31498646311198  L 0.3261738007867693 2.31498646311198  Z M 1.7428463970236945 3.1848631270211327  C 2.3089926261029 2.8436653255977027  3.0585360359573377 2.6730559524704818  3.9911767994551575 2.6730559524704818  C 4.934309785315673 2.6730559524704818  5.686569388360592 2.8436653255977027  6.248045783059048 3.1848631270211327  C 6.809522177757504 3.526060928444562  7.0901938461225695 3.992515741259189  7.0901938461225695 4.584389335940438  C 7.0901938461225695 5.176269613872607  6.809522177757504 5.644420420952271  6.248045783059048 5.988681657516733  C 5.686569388360592 6.332942894081196  4.934309785315673 6.505010528690682  3.9911767994551575 6.505010528690682  C 3.0585360359573377 6.505010528690682  2.3089926261029 6.332942894081196  1.7428463970236945 5.988681657516733  C 1.1768533573332691 5.644420420952271  0.8938674690222308 5.176269613872607  0.8938674690222308 4.584389335940438  C 0.8938674690222308 3.992515741259189  1.1768533573332691 3.526060928444562  1.7428463970236945 3.1848631270211327  Z M 5.106071541112252 3.9790930285026698  C 4.8348795978258385 3.8395157497234162  4.463478506154893 3.7697506956456346  3.9919086778413657 3.7697506956456346  C 3.520492068696824 3.7697506956456346  3.14909097702588 3.8395157497234162  2.8777458145704786 3.9790930285026698  C 2.6065538712840652 4.118663624031003  2.471065391300812 4.321828455013055  2.471065391300812 4.588422200496352  C 2.471065391300812 4.843482922421117  2.6065538712840652 5.043834626894298  2.8777458145704786 5.189685643378206  C 3.14909097702588 5.3353898222754665  3.520492068696824 5.40831578551553  3.9919086778413657 5.40831578551553  C 4.463478506154893 5.40831578551553  4.8348795978258385 5.3353898222754665  5.106071541112252 5.189685643378206  C 5.377263484398665 5.043834626894298  5.512995923843988 4.843482922421117  5.512995923843988 4.588422200496352  C 5.512995923843988 4.321828455013055  5.377263484398665 4.118663624031003  5.106071541112252 3.9790930285026698  Z M 3.1729367636744366 1.6677728058960666  L 3.1729367636744366 0  L 4.829909430049707 0  L 4.829909430049707 1.6677728058960666  L 3.1729367636744366 1.6677728058960666  Z M 21.98489484330687 9.41453899375799  L 21.98489484330687 0.11206475144769495  L 23.655773199020096 0.11206475144769495  L 23.655773199020096 9.41453899375799  L 21.98489484330687 9.41453899375799  Z M 15.168911432550292 12.757294878544032  L 15.168911432550292 11.416672933744454  L 24 11.416672933744454  L 24 12.757294878544032  L 15.168911432550292 12.757294878544032  Z M 15.168911432550292 11.947177934872528  L 15.168911432550292 8.480380912987892  L 16.825884098925563 8.480380912987892  L 16.825884098925563 11.947177934872528  L 15.168911432550292 11.947177934872528  Z M 14.918365065005032 1.3616417236970746  C 15.440976978231701 1.085850959703816  16.02726219193765 0.9479675866736859  16.677312786525306 0.9479675866736859  C 17.33042776449272 0.9479675866736859  17.917443069772407 1.085850959703816  18.438456143204206 1.3616417236970746  C 18.959535864740996 1.6374324876903332  19.373172051140003 2.0192235794750166  19.679477926751172 2.506853049560051  C 19.9859836573367 2.994489173060065  20.13934151275196 3.556065383455561  20.13934151275196 4.191734977814544  C 20.13934151275196 4.8148571266001605  19.9859836573367 5.372583545777478  19.679477926751172 5.864884936451832  C 19.373172051140003 6.357193010377106  18.959535864740996 6.742813843627205  18.438456143204206 7.021828231932015  C 17.917443069772407 7.3006757776513265  17.33042776449272 7.4401462735955475  16.677312786525306 7.4401462735955475  C 16.02726219193765 7.4401462735955475  15.440976978231701 7.3006757776513265  14.918365065005032 7.021828231932015  C 14.395819799883359 6.742813843627205  13.981098839636044 6.357193010377106  13.674659727375303 5.864884936451832  C 13.368287233439347 5.372583545777478  13.215284060298647 4.8148571266001605  13.215284060298647 4.191734977814544  C 13.215284060298647 3.556065383455561  13.368287233439347 2.994489173060065  13.674659727375303 2.506853049560051  C 13.981098839636044 2.0192235794750166  14.395819799883359 1.6374324876903332  14.918365065005032 1.3616417236970746  Z M 17.617044634416583 2.606452583289464  C 17.33785197029031 2.4604547441368796  17.02472148358483 2.387455817101602  16.677312786525306 2.387455817101602  C 16.329904089465778 2.387455817101602  16.017259705091764 2.4604547441368796  15.739532614330585 2.606452583289464  C 15.461872141894194 2.752450422442048  15.243207035339815 2.9590926473370405  15.083525620826006 3.2264138527487405  C 14.923777587987413 3.4935949187426854  14.843957429073868 3.8153575281276733  14.843957429073868 4.191734977814544  C 14.843957429073868 4.561845358129712  14.923777587987413 4.880569296205206  15.083525620826006 5.147890501616906  C 15.243207035339815 5.415064884359929  15.461872141894194 5.621609515889906  15.739532614330585 5.7676073550424904  C 16.017259705091764 5.913605194195076  16.329904089465778 5.986604121230353  16.677312786525306 5.986604121230353  C 17.02472148358483 5.986604121230353  17.33785197029031 5.913605194195076  17.617044634416583 5.7676073550424904  C 17.896303916867637 5.621609515889906  18.115809808028047 5.415064884359929  18.275491222541852 5.147890501616906  C 18.435239255380452 4.880569296205206  18.515303373756062 4.561845358129712  18.515303373756062 4.191734977814544  C 18.515303373756062 3.8153575281276733  18.435239255380452 3.4935949187426854  18.275491222541852 3.2264138527487405  C 18.115809808028047 2.9590926473370405  17.896303916867637 2.752450422442048  17.617044634416583 2.606452583289464  Z " fill-rule="nonzero" fill="#ffffff" stroke="none" transform="matrix(1 0 0 1 202 323 )" />
  </g>
</svg>