<?xml version="1.0" encoding="utf-8"?>
<svg version="1.1" xmlns:xlink="http://www.w3.org/1999/xlink" width="91px" height="19px" xmlns="http://www.w3.org/2000/svg">
  <g transform="matrix(1 0 0 1 -432 -706 )">
    <path d="M 13 14.583404741502427  L 13 0  L 15 0  L 15 14.583404741502427  L 13 14.583404741502427  Z M 10.567115284713017 8.170665524135961  L 10.567115284713017 6.142102256498143  L 13.48336631021356 6.142102256498143  L 13.48336631021356 8.170665524135961  L 10.567115284713017 8.170665524135961  Z M 10 14.218937446443874  L 10 0.3439017423593259  L 12 0.3439017423593259  L 12 14.218937446443874  L 10 14.218937446443874  Z M 0 4.061553841759498  L 0 2.1173950299914313  L 8.61364817027993 2.1173950299914313  L 8.61364817027993 4.061553841759498  L 0 4.061553841759498  Z M 2.3921059877876725 5.245358469008854  C 2.9595191214711605 4.940874698467848  3.6050370040693567 4.788631819480148  4.328781861485748 4.788631819480148  C 5.0656190178210885 4.788631819480148  5.71676427435657 4.940874698467848  6.281990649138296 5.245358469008854  C 6.847217023920022 5.549616055568944  7.290833480972662 5.97342064516165  7.612631895692756 6.516566695229934  C 7.934430310412849 7.059502146987022  8.09518632173891 7.691674239837726  8.09518632173891 8.413167666381034  C 8.09518632173891 9.119490762126  7.934430310412849 9.74662484825764  7.612631895692756 10.29463010568409  C 7.290833480972662 10.842401368861129  6.847217023920022 11.270875976004623  6.281990649138296 11.57997714938589  C 5.71676427435657 11.889078322767157  5.0656190178210885 12.043558983147673  4.328781861485748 12.043558983147673  C 3.6050370040693567 12.043558983147673  2.9595191214711605 11.889078322767157  2.3921059877876725 11.57997714938589  C 1.8248974468961932 11.270875976004623  1.3783227824116278 10.842401368861129  1.052164977133822 10.29463010568409  C 0.7261976374022138 9.74662484825764  0.5631523815742037 9.119490762126  0.5631523815742037 8.413167666381034  C 0.5631523815742037 7.691674239837726  0.7261976374022138 7.059502146987022  1.052164977133822 6.516566695229934  C 1.3783227824116278 5.97342064516165  1.8248974468961932 5.549616055568944  2.3921059877876725 5.245358469008854  Z M 5.588124916611547 7.138103399028848  C 5.259187827992732 6.834937785632676  4.83957390844682 6.6833761782347905  4.329298515046825 6.6833761782347905  C 3.819030185269736 6.6833761782347905  3.3990971097978195 6.834937785632676  3.0699554599210255 7.138103399028848  C 2.7410183713022103 7.441261202156527  2.576551309092251 7.866008254059108  2.576551309092251 8.412453584690088  C 2.576551309092251 8.958891105052574  2.7410183713022103 9.383669363161864  3.0699554599210255 9.686803770351327  C 3.3990971097978195 9.989977194015996  3.819030185269736 10.141673807483578  4.329298515046825 10.141673807483578  C 4.83957390844682 10.141673807483578  5.259187827992732 9.989977194015996  5.588124916611547 9.686803770351327  C 5.917259534399467 9.383669363161864  6.081787394220861 8.958891105052574  6.081787394220861 8.412453584690088  C 6.081787394220861 7.866008254059108  5.917259534399467 7.441261202156527  5.588124916611547 7.138103399028848  Z M 3.2011854644346474 3.4771493858897458  L 3.2011854644346474 0.16880891173950302  L 5.4315788876051405 0.16880891173950302  L 5.4315788876051405 3.4771493858897458  L 3.2011854644346474 3.4771493858897458  Z M 3.274808596888156 19  L 3.274808596888156 17  L 15.437350078207722 17  L 15.437350078207722 19  L 3.274808596888156 19  Z M 3.274808596888156 17.916023993144815  L 3.274808596888156 13.26335332762068  L 5.549634226311292 13.26335332762068  L 5.549634226311292 17.916023993144815  L 3.274808596888156 17.916023993144815  Z M 19.508580139496463 11  L 19.508580139496463 9  L 31.747069694294385 9  L 31.747069694294385 11  L 19.508580139496463 11  Z M 17.617628105953724 17  L 17.617628105953724 15  L 33.48586725409987 15  L 33.48586725409987 17  L 17.617628105953724 17  Z M 19.508580139496463 9.864181662382176  L 19.508580139496463 2  L 31.6013733900706 2  L 31.6013733900706 3.6633818908883176  L 21.757573090865737 3.6633818908883176  L 21.757573090865737 9.864181662382176  L 19.508580139496463 9.864181662382176  Z M 36.52947338240596 3  L 36.52947338240596 1  L 49.54242662525868 1  L 49.54242662525868 3  L 36.52947338240596 3  Z M 36.64442879974565 8.294058840331333  L 36.64442879974565 6.3147672093687515  L 49.4148131956726 6.3147672093687515  L 49.4148131956726 8.294058840331333  L 36.64442879974565 8.294058840331333  Z M 38.88179704599069 7.315766923736076  L 38.88179704599069 1.5521279634390173  L 41.14370633638689 1.5521279634390173  L 41.14370633638689 7.315766923736076  L 38.88179704599069 7.315766923736076  Z M 44.93413518723014 7.315766923736076  L 44.93413518723014 1.5521279634390173  L 47.19010296167396 1.5521279634390173  L 47.19010296167396 7.315766923736076  L 44.93413518723014 7.315766923736076  Z M 35.12701729086176 12  L 35.12701729086176 10  L 50.97019874129567 10  L 50.97019874129567 12  L 35.12701729086176 12  Z M 41.90473703185368 11.395886889460154  L 41.90473703185368 7.646101113967438  L 44.16018815273642 7.646101113967438  L 44.16018815273642 11.395886889460154  L 41.90473703185368 11.395886889460154  Z M 37.081517712417 19  L 37.081517712417 17  L 49.19833535358123 17  L 49.19833535358123 19  L 37.081517712417 19  Z M 37.081517712417 17.690374178806056  L 37.081517712417 13.564410168523278  L 39.34368532959375 13.564410168523278  L 39.34368532959375 17.690374178806056  L 37.081517712417 17.690374178806056  Z M 65.8772039390576 7.228648957440731  L 65.8772039390576 5.214081690945444  L 70.52708598875284 5.214081690945444  L 70.52708598875284 7.228648957440731  L 65.8772039390576 7.228648957440731  Z M 70 14.301913738931734  L 70 0  L 72 0  L 72 14.301913738931734  L 70 14.301913738931734  Z M 60.69465206789168 19  L 60.69465206789168 17  L 72.58440046896247 17  L 72.58440046896247 19  L 60.69465206789168 19  Z M 60.69465206789168 18.113538988860327  L 60.69465206789168 12.904741502427878  L 62.9632778545819 12.904741502427878  L 62.9632778545819 18.113538988860327  L 60.69465206789168 18.113538988860327  Z M 58.370486023385666 11.207797772065126  L 58.370486023385666 1.2707797772065124  L 60.61947897475495 1.2707797772065124  L 60.61947897475495 4.342187946301057  L 64.33473473246146 4.342187946301057  L 64.33473473246146 1.2707797772065124  L 66.55841165933795 1.2707797772065124  L 66.55841165933795 11.207797772065126  L 58.370486023385666 11.207797772065126  Z M 64.33473473246146 6.265067123678949  L 60.61947897475495 6.265067123678949  L 60.61947897475495 9.207512139388745  L 64.33473473246146 9.207512139388745  L 64.33473473246146 6.265067123678949  Z M 75.83544300204106 4.517566409597258  L 75.83544300204106 2.51728077692088  L 90.2201114495539 2.51728077692088  L 90.2201114495539 4.517566409597258  L 75.83544300204106 4.517566409597258  Z M 75.13176085185385 17  L 75.13176085185385 15  L 91 15  L 91 17  L 75.13176085185385 17  Z M 81.90328075011284 16.098400457012282  L 81.90328075011284 12.603541845187088  L 84.15873187099558 12.603541845187088  L 84.15873187099558 16.098400457012282  L 81.90328075011284 16.098400457012282  Z M 79.88678190122833 5.92159383033419  C 80.76762028149436 5.624137592942195  81.81134290482699 5.475435589831477  83.01821913491754 5.475435589831477  C 84.22481319850027 5.475435589831477  85.26757592593451 5.624137592942195  86.14629812045976 5.92159383033419  C 87.02494974182403 6.218839504282259  87.70245369558161 6.646042188281028  88.17881322973767 7.203227649243074  C 88.65538438877462 7.760202546761194  88.89360343148805 8.434396045884212  88.89360343148805 9.22564981433876  C 88.89360343148805 10.01690358279331  88.65538438877462 10.694554625017851  88.17881322973767 11.258783204798629  C 87.70245369558161 11.822933786496268  87.02455127781049 12.253596942447249  86.1452648133376 12.550842616395316  C 85.26597834886473 12.848088290343384  84.22152937066602 12.996715224221651  83.0117609654041 12.996715224221651  C 81.80925825311705 12.996715224221651  80.76762028149436 12.848088290343384  79.88678190122833 12.550842616395316  C 79.00587294780131 12.253596942447249  78.32726807795949 11.822933786496268  77.85090854380341 11.258783204798629  C 77.37461955127432 10.694554625017851  77.13637666883358 10.01690358279331  77.13637666883358 9.22564981433876  C 77.13637666883358 8.434396045884212  77.37461955127432 7.760202546761194  77.85090854380341 7.203227649243074  C 78.32726807795949 6.646042188281028  79.00587294780131 6.218839504282259  79.88678190122833 5.92159383033419  Z M 84.95825325676263 7.6228220508426165  C 84.43018756146294 7.487474264467965  83.78196617179982 7.419737217937731  83.01356925286785 7.419737217937731  C 82.25568281561488 7.419737217937731  81.6092648887088 7.487474264467965  81.07456843814492 7.6228220508426165  C 80.54008358092791 7.757951446071211  80.13371294524055 7.958354079359022  79.85500770722207 8.224221650956869  C 79.57623192757664 8.490097015389576  79.43677664953005 8.82521741834922  79.43677664953005 9.229505855469865  C 79.43677664953005 9.623935502244894  79.57623192757664 9.955341529791712  79.85500770722207 10.223650385604113  C 80.13371294524055 10.491881260767014  80.54008358092791 10.693594816241118  81.07456843814492 10.828763210511282  C 81.6092648887088 10.96385360669831  82.25568281561488 11.0314195944016  83.01356925286785 11.0314195944016  C 83.78196617179982 11.0314195944016  84.43018756146294 10.96385360669831  84.95825325676263 10.828763210511282  C 85.48638946215523 10.693594816241118  85.88973844394064 10.491881260767014  86.16851422358609 10.223650385604113  C 86.44721946160456 9.955341529791712  86.58674528127813 9.623935502244894  86.58674528127813 9.229505855469865  C 86.58674528127813 8.82521741834922  86.44721946160456 8.490097015389576  86.16851422358609 8.224221650956869  C 85.88973844394064 7.958354079359022  85.48638946215523 7.757951446071211  84.95825325676263 7.6228220508426165  Z M 81.90328075011284 3.7640674093116253  L 81.90328075011284 0.21693801770922594  L 84.15873187099558 0.21693801770922594  L 84.15873187099558 3.7640674093116253  L 81.90328075011284 3.7640674093116253  Z " fill-rule="nonzero" fill="#26262c" stroke="none" transform="matrix(1 0 0 1 432 706 )" />
  </g>
</svg>