<?xml version="1.0" encoding="utf-8"?>
<svg version="1.1" xmlns:xlink="http://www.w3.org/1999/xlink" width="102px" height="19px" xmlns="http://www.w3.org/2000/svg">
  <g transform="matrix(1 0 0 1 -432 -527 )">
    <path d="M 6.5300716967566705 2.6593357966236697  C 6.5300716967566705 2.6593357966236697  6.5300716967566705 2.0343680627770278  6.5300716967566705 2.0343680627770278  L 8.470632289503117 2.0343680627770278  C 8.470632289503117 2.0343680627770278  8.470632289503117 2.6593357966236697  8.470632289503117 2.6593357966236697  C 8.470632289503117 3.329577304604242  8.367567771500836 3.9691363403717337  8.161252795973798 4.577818586779358  C 7.955139456970048 5.1862942001646966  7.652918510723465 5.752420170367595  7.254758148266497 6.276301524437463  C 6.856799422332817 6.79996858227362  6.37824122862687 7.266240991837354  5.819135444959259 7.675192306274016  C 5.260231266731766 8.084135991710019  4.629048212322302 8.4299513730343  3.9254273845662246 8.71255466808269  C 3.221813519440209 8.99515796313108  2.4541760950656837 9.202982666111055  1.622268932736859 9.335981001688904  C 1.622268932736859 9.335981001688904  0.7995486499440805 7.414695665641525  0.7995486499440805 7.414695665641525  C 1.5186194916429716 7.313533055727017  2.1766184940755626 7.150435276350673  2.77346620865953 6.925511280247215  C 3.3703069606134353 6.70038066822685  3.9011016025351233 6.431876587451532  4.365943042019492 6.1197793363866335  C 4.830784481503861 5.807689748533157  5.225612230814384 5.4646877579131585  5.550242650583161 5.090824612253026  C 5.874866107721873 4.716747170359183  6.119317583924266 4.322143440351521  6.283586635245247 3.9071693548981865  C 6.447855686566228 3.492195269444852  6.5300716967566705 3.0762460403379923  6.5300716967566705 2.6593357966236697  Z M 7.158506750279598 2.6593357966236697  C 7.158506750279598 2.6593357966236697  7.158506750279598 2.0343680627770278  7.158506750279598 2.0343680627770278  L 9.092956143153858 2.0343680627770278  C 9.092956143153858 2.0343680627770278  9.092956143153858 2.6593357966236697  9.092956143153858 2.6593357966236697  C 9.092956143153858 3.0762460403379923  9.174917520016294 3.492195269444852  9.339186571337274 3.9071693548981865  C 9.503455622658254 4.322143440351521  9.74793491829773 4.716747170359183  10.07253055599936 5.090824612253026  C 10.397174869945092 5.4646877579131585  10.791940048834562 5.807689748533157  11.256830164563029 6.1197793363866335  C 11.72165074724038 6.431876587451532  12.252445420245238 6.70038066822685  12.84930699792299 6.925511280247215  C 13.446099073632798 7.150435276350673  14.104125926585638 7.313533055727017  14.823224556638442 7.414695665641525  C 14.823224556638442 7.414695665641525  14.006870107045854 9.335981001688904  14.006870107045854 9.335981001688904  C 13.174921231102994 9.202982666111055  12.406149954856023 8.99515796313108  11.700401421952389 8.71255466808269  C 10.994861519285276 8.4299513730343  10.362488911962869 8.084135991710019  9.803383128295254 7.675192306274016  C 9.244451161713851 7.266240991837354  8.767075527207618 6.79996858227362  8.371070658252117 6.276301524437463  C 7.975065789296616 5.752420170367595  7.674006529901142 5.1862942001646966  7.467886243808914 4.577818586779358  C 7.261765957716689 3.9691363403717337  7.158506750279598 3.329577304604242  7.158506750279598 2.6593357966236697  Z M 6.643128894392075 19  L 6.643128894392075 11.954960137472252  L 8.866332481227033 11.954960137472252  L 8.866332481227033 19  L 6.643128894392075 19  Z M 0 12.54167311989734  L 0 10.565037502489103  L 15.616662006710337 10.565037502489103  L 15.616662006710337 12.54167311989734  L 0 12.54167311989734  Z M 1.4073584038983864 3  L 1.4073584038983864 1  L 14.171617870266816 1  L 14.171617870266816 3  L 1.4073584038983864 3  Z M 18.147717287106566 10.631597967416717  L 18.147717287106566 1.5213620373033607  L 26.425082880651864 1.5213620373033607  L 26.425082880651864 10.631597967416717  L 18.147717287106566 10.631597967416717  Z M 24.245421592906215 8.675420935017812  L 24.245421592906215 3.477118687818513  L 20.327123941524203 3.477118687818513  L 20.327123941524203 8.675420935017812  L 24.245421592906215 8.675420935017812  Z M 30 13.549468622548694  L 30 0  L 32 0  L 32 13.549468622548694  L 30 13.549468622548694  Z M 20.174089311391594 18.53351623632837  L 20.174089311391594 16.556600364330965  L 32.025233663524524 16.556600364330965  L 32.025233663524524 18.53351623632837  L 20.174089311391594 18.53351623632837  Z M 20.174089311391594 17.420905517327846  L 20.174089311391594 12.310042701949245  L 22.39754753155456 12.310042701949245  L 22.39754753155456 17.420905517327846  L 20.174089311391594 17.420905517327846  Z M 34.55603431059274 10.777890862962881  L 34.55603431059274 9  L 50.17244168397508 9  L 50.17244168397508 10.777890862962881  L 34.55603431059274 10.777890862962881  Z M 36.464256470682216 7.324313560634556  L 36.464256470682216 5.375283020259457  L 48.38287865473718 5.375283020259457  L 48.38287865473718 7.324313560634556  L 36.464256470682216 7.324313560634556  Z M 36.464256470682216 6.329269641790384  L 36.464256470682216 0.5630314696403154  L 48.28306239015817 0.5630314696403154  L 48.28306239015817 2.5396670870485507  L 38.675237657772804 2.5396670870485507  L 38.675237657772804 6.329269641790384  L 36.464256470682216 6.329269641790384  Z M 37.932217606646425 12.943838455354706  C 38.994316965308236 12.337505667463411  40.4536499106326 12.034412313501633  42.3106376817383 12.034412313501633  C 44.17193643984693 12.034412313501633  45.63267869609559 12.337505667463411  46.692622623422274 12.943838455354706  C 47.752775056652794 13.550171243246002  48.28280775683017 14.406869358896884  48.28280775683017 15.513773038033499  C 48.28280775683017 16.620753280862807  47.752775056652794 17.476243961763917  46.692622623422274 18.08020443834768  C 45.63267869609559 18.684394469166463  44.17193643984693 18.986407652425306  42.3106376817383 18.986407652425306  C 40.4536499106326 18.986407652425306  38.994316965308236 18.68449580145322  37.932217606646425 18.080764947526017  C 36.87011824798462 17.47703409359881  36.33897687330244 16.62365298532789  36.33897687330244 15.52049914817355  C 36.33897687330244 14.40908026381383  36.87011824798462 13.550171243246002  37.932217606646425 12.943838455354706  Z M 44.35101453906375 14.089098833993408  C 43.79934863644984 13.967878187262153  43.117676380972334 13.907213605622792  42.30630891516217 13.907213605622792  C 41.50488452024592 13.907213605622792  40.82739245379232 13.967878187262153  40.273571057676946 14.089098833993408  C 39.719749661561565 14.210242951242732  39.30110791461272 14.388678280515657  39.01797411727113 14.624385099306  C 38.734979386031775 14.860091918096346  38.59350035948234 15.15653947168956  38.59350035948234 15.513773038033499  C 38.59350035948234 15.871083133859363  38.734979386031775 16.168725105006164  39.01797411727113 16.40680428642019  C 39.30110791461272 16.644806938352286  39.719749661561565 16.822162139685737  40.273571057676946 16.938867623957343  C 40.82739245379232 17.055266998853917  41.50488452024592 17.113466233009564  42.30630891516217 17.113466233009564  C 43.117676380972334 17.113466233009564  43.79934863644984 17.055266998853917  44.35101453906375 16.938867623957343  C 44.90288900974784 16.822162139685737  45.320306514966106 16.644806938352286  45.60330124620546 16.40680428642019  C 45.88643504354706 16.168725105006164  46.028029637322255 15.871083133859363  46.028029637322255 15.513773038033499  C 46.028029637322255 15.15653947168956  45.88643504354706 14.860091918096346  45.60330124620546 14.624385099306  C 45.320306514966106 14.388678280515657  44.90288900974784 14.210242951242732  44.35101453906375 14.089098833993408  Z M 51.80897008308036 12  L 51.80897008308036 10  L 67.45033152260744 10  L 67.45033152260744 12  L 51.80897008308036 12  Z M 53.7424009426426 2.2577309703446393  L 53.7424009426426 0.3780634407888429  L 65.51740992970123 0.3780634407888429  L 65.51740992970123 5.383970912523692  L 55.97171572934974 5.383970912523692  L 55.97171572934974 7.577383454654069  L 53.77346620865953 7.577383454654069  L 53.77346620865953 3.635742785288109  L 63.318905775683014 3.635742785288109  L 63.318905775683014 2.2577309703446393  L 53.7424009426426 2.2577309703446393  Z M 53.77346620865953 9  L 53.77346620865953 7  L 65.86116492251158 7  L 65.86116492251158 9  L 53.77346620865953 9  Z M 58.51473877616233 11.29285867056073  L 58.51473877616233 7.763752756451387  L 60.73819699632529 7.763752756451387  L 60.73819699632529 11.29285867056073  L 58.51473877616233 11.29285867056073  Z M 53.53614794695638 15.341976974872964  L 53.53614794695638 13  L 65.62384666080844 13  L 65.62384666080844 18.90429305779882  L 63.39402260744528 18.90429305779882  L 63.39402260744528 15.341976974872964  L 53.53614794695638 15.341976974872964  Z M 77.23639958459817 7.092543015391877  L 77.23639958459817 5.1159073979836425  L 81.81979948873621 5.1159073979836425  L 81.81979948873621 7.092543015391877  L 77.23639958459817 7.092543015391877  Z M 81 14.032627534275873  L 81 0  L 83 0  L 83 14.032627534275873  L 81 14.032627534275873  Z M 72.12794575810832 18.6422550169259  L 72.12794575810832 16.665619399517666  L 83.84769931298929 16.665619399517666  L 83.84769931298929 18.6422550169259  L 72.12794575810832 18.6422550169259  Z M 72.12794575810832 17.77248489944023  L 72.12794575810832 12.66176221135621  L 74.36413564467168 12.66176221135621  L 74.36413564467168 17.77248489944023  L 72.12794575810832 17.77248489944023  Z M 69.83700970602332 10.99676969710379  L 69.83700970602332 1.2468526672124256  L 72.05359282633009 1.2468526672124256  L 72.05359282633009 4.260430264545582  L 75.71598398306439 4.260430264545582  L 75.71598398306439 1.2468526672124256  L 77.9078676705544 1.2468526672124256  L 77.9078676705544 10.99676969710379  L 69.83700970602332 10.99676969710379  Z M 75.71598398306439 6.147104158830601  L 72.05359282633009 6.147104158830601  L 72.05359282633009 9.034146809154  L 75.71598398306439 9.034146809154  L 75.71598398306439 6.147104158830601  Z M 87.05225974596581 4.432506582295285  L 87.05225974596581 2.4698836943454947  L 101.23100734941684 2.4698836943454947  L 101.23100734941684 4.432506582295285  L 87.05225974596581 4.432506582295285  Z M 86.35863856047291 17  L 86.35863856047291 15  L 102 15  L 102 17  L 86.35863856047291 17  Z M 93.03308735420994 15.795288772853656  L 93.03308735420994 12.366233747077608  L 95.2562909410449 12.366233747077608  L 95.2562909410449 15.795288772853656  L 93.03308735420994 15.795288772853656  Z M 91.04567422911009 5.810098015355002  C 91.9139187360728 5.518242487258327  92.94271863262995 5.372340347073183  94.13233943121905 5.372340347073183  C 95.32168209760367 5.372340347073183  96.34953582246838 5.518242487258327  97.21569440006391 5.810098015355002  C 98.08185297765944 6.101746944640155  98.74967022097555 6.520905964588588  99.21914942482825 7.067600356955845  C 99.68890676088542 7.61408815051158  99.92371984342547 8.275587473743418  99.92371984342547 9.051942975566226  C 99.92371984342547 9.828298477389032  99.68890676088542 10.493190242738272  99.21914942482825 11.046795141270438  C 98.74967022097555 11.600323510320674  98.08139064659001 12.022877846090795  97.21467586675188 12.314526775375946  C 96.34796108691374 12.6061757046611  95.31851472258853 12.752004189068595  94.12597359801886 12.752004189068595  C 92.9406637864327 12.752004189068595  91.9139187360728 12.6061757046611  91.04567422911009 12.314526775375946  C 90.17736015801309 12.022877846090795  89.50838817493434 11.600323510320674  89.03890897108165 11.046795141270438  C 88.56936023417782 10.493190242738272  88.33459318581244 9.828298477389032  88.33459318581244 9.051942975566226  C 88.33459318581244 8.275587473743418  88.56936023417782 7.61408815051158  89.03890897108165 7.067600356955845  C 89.50838817493434 6.520905964588588  90.17736015801309 6.101746944640155  91.04567422911009 5.810098015355002  Z M 96.04463572455664 7.479294348444956  C 95.52405059846146 7.346494982677973  94.88516671978678 7.280033335545869  94.1277560313149 7.280033335545869  C 93.38070554987732 7.280033335545869  92.74352984680576 7.346494982677973  92.21647827128935 7.479294348444956  C 91.68970476581106 7.611879435083611  91.28888965197731 7.8085087506528135  91.01409969643713 8.06937038594007  C 90.73930974089694 8.330239667333366  90.60210297172073 8.659050194351718  90.60210297172073 9.055726412520006  C 90.60210297172073 9.442729468384009  90.73930974089694 9.767895556787911  91.01409969643713 10.031152510122354  C 91.28888965197731 10.294332951080246  91.68970476581106 10.492248505897043  92.21647827128935 10.624871857276663  C 92.74352984680576 10.757418679174352  93.38070554987732 10.823712488291996  94.1277560313149 10.823712488291996  C 94.88516671978678 10.823712488291996  95.52405059846146 10.757418679174352  96.04463572455664 10.624871857276663  C 96.56515134868387 10.492248505897043  96.96280291073238 10.294332951080246  97.23759286627256 10.031152510122354  C 97.51238282181276 9.767895556787911  97.64984422431698 9.442729468384009  97.64984422431698 9.055726412520006  C 97.64984422431698 8.659050194351718  97.51238282181276 8.330239667333366  97.23759286627256 8.06937038594007  C 96.96280291073238 7.8085087506528135  96.56515134868387 7.611879435083611  96.04463572455664 7.479294348444956  Z M 93.03308735420994 3.6931949760677334  L 93.03308735420994 0.21285336047377776  L 95.2562909410449 0.21285336047377776  L 95.2562909410449 3.6931949760677334  L 93.03308735420994 3.6931949760677334  Z " fill-rule="nonzero" fill="#26262c" stroke="none" transform="matrix(1 0 0 1 432 527 )" />
  </g>
</svg>