<?xml version="1.0" encoding="utf-8"?>
<svg version="1.1" xmlns:xlink="http://www.w3.org/1999/xlink" width="16px" height="4px" xmlns="http://www.w3.org/2000/svg">
  <g transform="matrix(1 0 0 1 -402 -20 )">
    <path d="M 1.803955078125 0.0096435546875  C 1.8691419437527657 0.0032235546968877316  1.9344975352287292 0  2 0  C 2 0  14 0  14 0  C 14.065533332526684 0  14.130911588668823 0.0032235546968877316  14.196044921875 0.0096435546875  C 14.261244922876358 0.01606355467811227  14.325870051980019 0.02567214798182249  14.39013671875 0.0384521484375  C 14.4543367177248 0.05123214889317751  14.517833076417446 0.06704623624682426  14.58056640625 0.0860595703125  C 14.643233075737953 0.10507290437817574  14.704847525805235 0.12715501338243484  14.765380859375 0.1522216796875  C 14.825847525149584 0.17728834599256516  14.885071095079184 0.20532605424523354  14.94287109375 0.2362060546875  C 15.000604428350925 0.26707938872277737  15.056617315858603 0.30064279958605766  15.111083984375 0.3370361328125  C 15.165550652891397 0.37342946603894234  15.218132160604 0.41242615878582  15.268798828125 0.4539794921875  C 15.319398827850819 0.49553282558918  15.367973309010267 0.5394954308867455  15.414306640625 0.5858154296875  C 15.460639972239733 0.6321287639439106  15.504365105181932 0.6805678382515907  15.5458984375 0.731201171875  C 15.587498437613249 0.7818345054984093  15.626508463174105 0.8344493471086025  15.662841796875 0.888916015625  C 15.699241798371077 0.9433760158717632  15.733049349859357 0.9994796440005302  15.763916015625 1.0572509765625  C 15.794849349185824 1.1150189749896526  15.822833724319935 1.1741031408309937  15.847900390625 1.234619140625  C 15.872967056930065 1.2951358072459698  15.894818359985948 1.3567515909671783  15.913818359375 1.41943359375  C 15.932818358764052 1.4821155965328217  15.948869922198355 1.5456199496984482  15.961669921875 1.60986328125  C 15.974403255619109 1.6741072833538055  15.984011848922819 1.7387677431106567  15.990478515625 1.803955078125  C 15.996878515463322 1.8691419437527657  16 1.9344975352287292  16 2  C 16 2.0655024647712708  15.996878515463322 2.1308580562472343  15.990478515625 2.196044921875  C 15.984011848922819 2.2612322568893433  15.974403255619109 2.3258927166461945  15.961669921875 2.39013671875  C 15.948869922198355 2.454380050301552  15.932818358764052 2.5178844034671783  15.913818359375 2.58056640625  C 15.894818359985948 2.6432484090328217  15.872967056930065 2.7048641927540302  15.847900390625 2.765380859375  C 15.822833724319935 2.8258968591690063  15.794849349185824 2.8849810250103474  15.763916015625 2.9427490234375  C 15.733049349859357 3.0005203559994698  15.699241798371077 3.0566239841282368  15.662841796875 3.111083984375  C 15.626508463174105 3.1655506528913975  15.587498437613249 3.2181654945015907  15.5458984375 3.268798828125  C 15.504365105181932 3.3194321617484093  15.460639972239733 3.3678712360560894  15.414306640625 3.4141845703125  C 15.367973309010267 3.4605045691132545  15.319398827850819 3.50446717441082  15.268798828125 3.5460205078125  C 15.218132160604 3.58757384121418  15.165550652891397 3.6265705339610577  15.111083984375 3.6629638671875  C 15.056617315858603 3.6993572004139423  15.000604428350925 3.7329206112772226  14.94287109375 3.7637939453125  C 14.885071095079184 3.7946739457547665  14.825847525149584 3.822711654007435  14.765380859375 3.8477783203125  C 14.704847525805235 3.872844986617565  14.643233075737953 3.8949270956218243  14.58056640625 3.9139404296875  C 14.517833076417446 3.9329537637531757  14.4543367177248 3.9487678511068225  14.39013671875 3.9615478515625  C 14.325870051980019 3.9743278520181775  14.261244922876358 3.9839364453218877  14.196044921875 3.9903564453125  C 14.130911588668823 3.9967764453031123  14.065533332526684 4  14 4  C 14 4  2 4  2 4  C 1.9344975352287292 4  1.8691419437527657 3.9967764453031123  1.803955078125 3.9903564453125  C 1.7387677431106567 3.9839364453218877  1.6741072833538055 3.9743278520181775  1.60986328125 3.9615478515625  C 1.5456199496984482 3.9487678511068225  1.4821155965328217 3.9329537637531757  1.41943359375 3.9139404296875  C 1.3567515909671783 3.8949270956218243  1.2951358072459698 3.872844986617565  1.234619140625 3.8477783203125  C 1.1741031408309937 3.822711654007435  1.1148969046771526 3.7946739457547665  1.05712890625 3.7637939453125  C 0.9993575736880302 3.7329206112772226  0.9433760158717632 3.6993572004139423  0.888916015625 3.6629638671875  C 0.8344493471086025 3.6265705339610577  0.7818345054984093 3.58757384121418  0.731201171875 3.5460205078125  C 0.6805678382515907 3.50446717441082  0.6320066936314106 3.4605045691132545  0.585693359375 3.4141845703125  C 0.5393733605742455 3.3678712360560894  0.49565489590168 3.3194321617484093  0.4541015625 3.268798828125  C 0.41254822909832 3.2181654945015907  0.37355153635144234 3.1655506528913975  0.337158203125 3.111083984375  C 0.30076486989855766 3.0566239841282368  0.26695731841027737 3.0005203559994698  0.236083984375 2.9427490234375  C 0.20520398393273354 2.8849810250103474  0.17741041630506516 2.8258968591690063  0.15234375 2.765380859375  C 0.12727708369493484 2.7048641927540302  0.10519497469067574 2.6432484090328217  0.086181640625 2.58056640625  C 0.06716830655932426 2.5178844034671783  0.05111007858067751 2.454380050301552  0.038330078125 2.39013671875  C 0.02555007766932249 2.3258927166461945  0.01594148436561227 2.2612322568893433  0.009521484375 2.196044921875  C 0.0031014843843877316 2.1308580562472343  0 2.0655024647712708  0 2  C 0 1.9344975352287292  0.0031014843843877316 1.8691419437527657  0.009521484375 1.803955078125  C 0.01594148436561227 1.7387677431106567  0.02555007766932249 1.6741072833538055  0.038330078125 1.60986328125  C 0.05111007858067751 1.5456199496984482  0.06716830655932426 1.4821155965328217  0.086181640625 1.41943359375  C 0.10519497469067574 1.3567515909671783  0.12727708369493484 1.2951358072459698  0.15234375 1.234619140625  C 0.17741041630506516 1.1741031408309937  0.20520398393273354 1.1150189749896526  0.236083984375 1.0572509765625  C 0.26695731841027737 0.9994796440005302  0.30076486989855766 0.9433760158717632  0.337158203125 0.888916015625  C 0.37355153635144234 0.8344493471086025  0.41254822909832 0.7818345054984093  0.4541015625 0.731201171875  C 0.49565489590168 0.6805678382515907  0.5393733605742455 0.6321287639439106  0.585693359375 0.5858154296875  C 0.6320066936314106 0.5394954308867455  0.6805678382515907 0.49553282558918  0.731201171875 0.4539794921875  C 0.7818345054984093 0.41242615878582  0.8344493471086025 0.37342946603894234  0.888916015625 0.3370361328125  C 0.9433760158717632 0.30064279958605766  0.9993575736880302 0.26707938872277737  1.05712890625 0.2362060546875  C 1.1148969046771526 0.20532605424523354  1.1741031408309937 0.17728834599256516  1.234619140625 0.1522216796875  C 1.2951358072459698 0.12715501338243484  1.3567515909671783 0.10507290437817574  1.41943359375 0.0860595703125  C 1.4821155965328217 0.06704623624682426  1.5456199496984482 0.05123214889317751  1.60986328125 0.0384521484375  C 1.6741072833538055 0.02567214798182249  1.7387677431106567 0.01606355467811227  1.803955078125 0.0096435546875  Z " fill-rule="nonzero" fill="#91929f" stroke="none" transform="matrix(1 0 0 1 402 20 )" />
  </g>
</svg>