<?xml version="1.0" encoding="utf-8"?>
<svg version="1.1" xmlns:xlink="http://www.w3.org/1999/xlink" width="2px" height="2px" xmlns="http://www.w3.org/2000/svg">
  <g transform="matrix(1 0 0 1 -776 -621 )">
    <path d="M 1.995078509491446 0.9019745708091639  C 1.9982846590627237 0.9345672155031457  2 0.9671887666931707  2 0.9999414073943869  C 2 1.0326895671059282  1.9982846590627237 1.065430864072708  1.995078509491446 1.098025429190836  C 1.9918659604459001 1.1306199943089643  1.9871694525930343 1.1629338127284197  1.9807827513475509 1.1950547840862482  C 1.9743896508512995 1.227175755444077  1.9663816263839404 1.2588689871913359  1.9568783688774314 1.290209175602039  C 1.9473687121201544 1.321549364012742  1.9363642965906365 1.3524096967214692  1.9238340754628545 1.3826683072596238  C 1.9113038543350724 1.4129205163839573  1.8973262206659347 1.4424948765801693  1.8818842277947034 1.4713775121579658  C 1.8664486341742406 1.500266547361479  1.849691317236225 1.5282850260473886  1.8314975392547457 1.55551649381848  C 1.8133037612732663 1.5827479615895717  1.7936811444908556 1.6090706360181564  1.7729083665338645 1.634382140973809  C 1.7521291893261055 1.659700047343283  1.7302075268262886 1.683875823472152  1.707054136395594 1.7070369719341418  C 1.6838943449261319 1.7301917189823106  1.6597199852359863 1.752231851140679  1.6344035622217015 1.7730122458545732  C 1.6090935402461843 1.7937862409427505  1.5826552296958765 1.813292822254181  1.5554253573939536 1.8314876662565185  C 1.5281954850920307 1.8496825102588557  1.500178647985608 1.8664408090517337  1.4712913053667682 1.881877307083846  C 1.4424103619986963 1.8973202047416753  1.412954912885224 1.91129865739679  1.3827044762127958 1.923829612702877  C 1.3524476385016002 1.9363605680089637  1.3217062922196783 1.947365628315861  1.2903679400046872 1.9568758422687056  C 1.259029587789696 1.9663796565958338  1.2271038562317824 1.9743881502742122  1.1949847668150926 1.9807816253588797  C 1.1628656773984027 1.9871687008178303  1.130553752218836 1.9919826690625548  1.0979610967893134 1.99519540633972  C 1.0653684413597906 1.9984017437676551  1.0327462410239556 2  1 2  C 0.9672492782489069 2  0.934629638328579 1.9984017437676551  0.9020389032106867 1.99519540633972  C 0.8694475279889174 1.9919826690625548  0.8371343226015973 1.9871687008178303  0.8050152331849074 1.9807816253588797  C 0.7728955036643408 1.9743881502742122  0.740970412210304 1.9663796565958338  0.7096320599953129 1.9568758422687056  C 0.6782937077803217 1.947365628315861  0.647551721394523 1.9363605680089637  0.6172955237872041 1.923829612702877  C 0.587039966283762 1.91129865739679  0.5575909182090572 1.8973202047416753  0.5287086946332318 1.881877307083846  C 0.4998271111612832 1.8664408090517337  0.47180387480409247 1.8496825102588557  0.4445746426060464 1.8314876662565185  C 0.4173447703041236 1.813292822254181  0.3909115805848298 1.7937862409427505  0.3655964377782986 1.7730122458545732  C 0.34028129497176735 1.752231851140679  0.31610245455448427 1.7301917189823106  0.2929458636044059 1.7070369719341418  C 0.26978927265432756 1.683875823472152  0.24786761015451064 1.659700047343283  0.22709163346613545 1.634382140973809  C 0.20631629688163705 1.6090706360181564  0.18669687883061045 1.5827479615895717  0.16850246074525427 1.55551649381848  C 0.15030868276377488 1.5282850260473886  0.1335532861373898 1.500266547361479  0.11811577220529647 1.4713775121579658  C 0.10267793822126475 1.4424948765801693  0.0886983216605087 1.4129205163839573  0.07616592453714553 1.3826683072596238  C 0.06363359178176999 1.3524096967214692  0.052628088254461476 1.321549364012742  0.043121631122568546 1.290209175602039  C 0.03361517399067562 1.2588689871913359  0.025606189367501274 1.227175755444077  0.019217248652449028 1.1950547840862482  C 0.012828307937396782 1.1629338127284197  0.008131409406606113 1.1306199943089643  0.004921490508554019 1.098025429190836  C 0.0017115588710043786 1.065430864072708  0 1.0326895671059282  0 0.9999414073943869  C 0 0.9671887666931707  0.0017115588710043786 0.9345672155031457  0.004921490508554019 0.9019745708091639  C 0.008131409406606113 0.8693812859737999  0.012828307937396782 0.8370661872715804  0.019217248652449028 0.8049452159137517  C 0.025606189367501274 0.7728236044145409  0.03361517399067562 0.7410138275974377  0.043121631122568546 0.7096736391867347  C 0.052628088254461476 0.6783334507760316  0.06363359178176999 0.6475896631371488  0.07616592453714553 0.6173316927403761  C 0.0886983216605087 0.5870743624849857  0.10267793822126475 0.557506403702595  0.11811577220529647 0.5286224878420344  C 0.1335532861373898 0.4997392121228559  0.15030868276377488 0.4715971486000029  0.16850246074525427 0.44436632097029355  C 0.18669687883061045 0.417134853199202  0.20631629688163705 0.39093448511290063  0.22709163346613545 0.3656178590261909  C 0.24786761015451064 0.34030123293948117  0.26978927265432756 0.316003790609711  0.2929458636044059 0.2928458428546317  C 0.31610245455448427 0.2696878950995525  0.34028129497176735 0.24776494815241035  0.3655964377782986 0.22698775414542685  C 0.3909115805848298 0.20621120027982548  0.4173447703041236 0.186707817887201  0.4445746426060464 0.16851233374348157  C 0.47180387480409247 0.15031748974114428  0.4998271111612832 0.13356111137241278  0.5287086946332318 0.11812269291615399  C 0.5575909182090572 0.10268395438920414  0.587039966283762 0.0887035187262883  0.6172955237872041 0.07617038729712311  C 0.647551721394523 0.063637320239717  0.6782937077803217 0.0525139866600544  0.7096320599953129 0.043006972520067965  C 0.740970412210304 0.03349995838008153  0.7728955036643408 0.02560768970085614  0.8050152331849074 0.019218374641120292  C 0.8371343226015973 0.012829059581384443  0.8694475279889174 0.00801470063584421  0.9020389032106867 0.004804593660280073  C 0.934629638328579 0.0015944739444719478  0.9672492782489069 0  1 0  C 1.0327462410239556 0  1.0653684413597906 0.0015944739444719478  1.0979610967893134 0.004804593660280073  C 1.130553752218836 0.00801470063584421  1.1628656773984027 0.012829059581384443  1.1949847668150926 0.019218374641120292  C 1.2271038562317824 0.02560768970085614  1.259029587789696 0.03349995838008153  1.2903679400046872 0.043006972520067965  C 1.3217062922196783 0.0525139866600544  1.3524476385016002 0.063637320239717  1.3827044762127958 0.07617038729712311  C 1.412954912885224 0.0887035187262883  1.4424103619986963 0.10268395438920414  1.4712913053667682 0.11812269291615399  C 1.500178647985608 0.13356111137241278  1.5281954850920307 0.15031748974114428  1.5554253573939536 0.16851233374348157  C 1.5826552296958765 0.186707817887201  1.6090935402461843 0.20621120027982548  1.6344035622217015 0.22698775414542685  C 1.6597199852359863 0.24776494815241035  1.6838943449261319 0.2696878950995525  1.707054136395594 0.2928458428546317  C 1.7302075268262886 0.316003790609711  1.7521291893261055 0.34030123293948117  1.7729083665338645 0.3656178590261909  C 1.7936811444908556 0.39093448511290063  1.8133037612732663 0.417134853199202  1.8314975392547457 0.44436632097029355  C 1.849691317236225 0.4715971486000029  1.8664486341742406 0.4997392121228559  1.8818842277947034 0.5286224878420344  C 1.8973262206659347 0.557506403702595  1.9113038543350724 0.5870743624849857  1.9238340754628545 0.6173316927403761  C 1.9363642965906365 0.6475896631371488  1.9473687121201544 0.6783334507760316  1.9568783688774314 0.7096736391867347  C 1.9663816263839404 0.7410138275974377  1.9743896508512995 0.7728236044145409  1.9807827513475509 0.8049452159137517  C 1.9871694525930343 0.8370661872715804  1.9918659604459001 0.8693812859737999  1.995078509491446 0.9019745708091639  Z " fill-rule="nonzero" fill="#ffffff" stroke="none" transform="matrix(1 0 0 1 776 621 )" />
  </g>
</svg>