<?xml version="1.0" encoding="utf-8"?>
<svg version="1.1" xmlns:xlink="http://www.w3.org/1999/xlink" width="38px" height="20px" xmlns="http://www.w3.org/2000/svg">
  <g transform="matrix(1 0 0 1 -590 -908 )">
    <path d="M 15 20  L 15 0.04237603767494599  L 18 0.04237603767494599  L 18 20  L 15 20  Z M 8.146326297972296 9.059533366991383  L 8.146326297972296 6.962085033478726  L 11.569069743341739 6.962085033478726  L 11.569069743341739 9.059533366991383  L 8.146326297972296 9.059533366991383  Z M 11 19.067727171151187  L 11 0.4101868021817038  L 14 0.4101868021817038  L 14 19.067727171151187  L 11 19.067727171151187  Z M 4.019344364226743 5.443003401670213  C 4.019344364226743 5.443003401670213  4.019344364226743 3.2555059880982924  4.019344364226743 3.2555059880982924  L 5.946975715914194 3.2555059880982924  C 5.946975715914194 3.2555059880982924  5.946975715914194 5.443003401670213  5.946975715914194 5.443003401670213  C 5.946975715914194 6.552464578220826  5.860154204460997 7.646390940285583  5.686085875159764 8.724663350521011  C 5.51201754585853 9.802980942421973  5.247027866827762 10.817303675883316  4.891274309993436 11.76779255605307  C 4.535520753159112 12.718190992065875  4.078064607896106 13.575844320048748  3.518895298628623 14.340647062231529  C 2.9597259893611394 15.105449804414308  2.297467890055572 15.729171826051848  1.532194549034509 16.211648444418696  C 1.532194549034509 16.211648444418696  0 14.310189285152662  0 14.310189285152662  C 0.9565916762763286 13.70223441198592  1.7284519586000109 12.928072518141207  2.3158485612629107 11.987618251491853  C 2.90324516392581 11.047254428999445  3.333843572888622 10.010580107367804  3.6078275588103215 8.877614361504019  C 3.882035574685222 7.744648615640234  4.019344364226743 6.59969970600072  4.019344364226743 5.443003401670213  Z M 4.58083180766175 5.443003401670213  C 4.58083180766175 5.443003401670213  4.58083180766175 3.2555059880982924  4.58083180766175 3.2555059880982924  L 6.494352136515942 3.2555059880982924  C 6.494352136515942 3.2555059880982924  6.494352136515942 5.443003401670213  6.494352136515942 5.443003401670213  C 6.494352136515942 6.561504790970055  6.626526704332472 7.6620210484810425  6.891101592455698 8.744361586783974  C 7.155900510532127 9.826656862595492  7.5770950894548665 10.810267379115523  8.154858544336593 11.695124272696425  C 8.732846049201019 12.579890722120375  9.492907313832085 13.299592543819266  10.4349373035338 13.854481348749824  C 10.4349373035338 13.854481348749824  8.931621126809217 15.727138044908669  8.931621126809217 15.727138044908669  C 7.908045596148075 15.104718815177986  7.077351342656212 14.26399810440686  6.439548861791427 13.204936146263542  C 5.801746380926641 12.145874188120224  5.332371321386318 10.948282333713365  5.031728211682614 9.611911639340192  C 4.731085101978912 8.275314874987584  4.58083180766175 6.885596757498572  4.58083180766175 5.443003401670213  Z M 0.6825797091436665 4.227340820870198  L 0.6825797091436665 2.137341400230089  L 9.56497633769733 2.137341400230089  L 9.56497633769733 4.227340820870198  L 0.6825797091436665 4.227340820870198  Z M 27.80626273791841 13.056454483004064  L 27.80626273791841 10.142439767262857  L 30.35379460430412 10.142439767262857  L 30.35379460430412 13.056454483004064  L 27.80626273791841 13.056454483004064  Z M 20.182044284776676 10.533921521564602  L 20.182044284776676 9  L 38 9  L 38 10.533921521564602  L 20.182044284776676 10.533921521564602  Z M 27.799371308162634 2.4086473601880436  L 27.799371308162634 0  L 30.346246847904936 0  L 30.346246847904936 2.4086473601880436  L 27.799371308162634 2.4086473601880436  Z M 27.655307609934713 2.929574667074977  C 27.655307609934713 2.929574667074977  27.655307609934713 2.5529907385183286  27.655307609934713 2.5529907385183286  L 29.907164323465402 2.5529907385183286  C 29.907164323465402 2.5529907385183286  29.907164323465402 2.929574667074977  29.907164323465402 2.929574667074977  C 29.907164323465402 3.6670307010306398  29.718730156036806 4.329976470293839  29.341738920169956 4.91826887264842  C 28.964658072321825 5.506335285849445  28.42009703824506 6.017429558954524  27.708141904729004 6.45158620461336  C 26.996455567097794 6.885516820705702  26.13091286852255 7.233907006045258  25.112041866731147 7.496751446330583  C 24.0933500889023 7.759595886615908  22.937747227276308 7.931997053985674  21.644668209610003 8.014037062479826  C 21.644668209610003 8.014037062479826  20.925334208435522 6.09801114026303  20.925334208435522 6.09801114026303  C 22.06965982083389 6.045125844153548  23.06120153181565 5.925848343560932  23.900134719679436 5.740297790983505  C 24.739157479465504 5.554747238406077  25.4378406659462 5.320155705880193  25.996113855400875 5.036292758829031  C 26.554387044855556 4.752203802417845  26.970687155163702 4.429797641423301  27.244447131161696 4.069092805177822  C 27.51847592307404 3.708161979778788  27.655307609934713 3.3282484291975662  27.655307609934713 2.929574667074977  Z M 28.245673425679644 2.929574667074977  C 28.245673425679644 2.929574667074977  28.245673425679644 2.5529907385183286  28.245673425679644 2.5529907385183286  L 30.490310546132857 2.5529907385183286  C 30.490310546132857 2.5529907385183286  30.490310546132857 2.929574667074977  30.490310546132857 2.929574667074977  C 30.490310546132857 3.3282484291975662  30.62741104890787 3.708161979778788  30.90117102490587 4.069092805177822  C 31.175110204836926 4.429797641423301  31.59114149923073 4.752203802417845  32.14950430066669 5.036292758829031  C 32.707777490121366 5.320155705880193  33.40878193537153 5.554747238406077  34.25237486614391 5.740297790983505  C 35.09614702087885 5.925848343560932  36.08545704501343 6.045125844153548  37.22028394763204 6.09801114026303  C 37.22028394763204 6.09801114026303  36.501278109779264 8.014037062479826  36.501278109779264 8.014037062479826  C 35.20819909211296 7.931997053985674  34.05211912780612 7.759595886615908  33.03324812601472 7.496751446330583  C 32.01455634818587 7.233907006045258  31.150532126035497 6.885516820705702  30.441086047877302 6.45158620461336  C 29.731550397796823 6.017429558954524  29.188418228163645 5.506335285849445  28.8114269922968 4.91826887264842  C 28.434346144448668 4.329976470293839  28.245673425679644 3.6670307010306398  28.245673425679644 2.929574667074977  Z M 21.88718090434903 3.5476689040993854  L 21.88718090434903 2  L 36.28009603095098 2  L 36.28009603095098 3.5476689040993854  L 21.88718090434903 3.5476689040993854  Z M 22.216985042661232 13.775191809506468  L 22.216985042661232 12  L 35.82132370720923 12  L 35.82132370720923 16.689040993850508  L 24.77108017548102 16.689040993850508  L 24.77108017548102 18.724746116219595  L 22.252754844726933 18.724746116219595  L 22.252754844726933 15  L 33.30299837645514 15  L 33.30299837645514 13.775191809506468  L 22.216985042661232 13.775191809506468  Z M 22.252754844726933 19.85598768446405  L 22.252754844726933 18  L 36.36574665791564 18  L 36.36574665791564 19.85598768446405  L 22.252754844726933 19.85598768446405  Z " fill-rule="nonzero" fill="#ffffff" stroke="none" transform="matrix(1 0 0 1 590 908 )" />
  </g>
</svg>