<?xml version="1.0" encoding="utf-8"?>
<svg version="1.1" xmlns:xlink="http://www.w3.org/1999/xlink" width="27px" height="27px" xmlns="http://www.w3.org/2000/svg">
  <g transform="matrix(1 0 0 1 -10 -892 )">
    <path d="M 12.512489516159585 0.4090403523938409  C 12.774393769173786 0.14713609937963815  13.12961145413333 0  13.5 0  C 13.870388545866671 0  14.225606230826216 0.14713609937963815  14.487510483840419 0.4090403523938409  C 14.74941473685462 0.6709446054080437  14.89655172413793 1.0261631782712608  14.89655172413793 1.396551724137931  C 14.89655172413793 1.396551724137931  14.89655172413793 12.10344827586207  14.89655172413793 12.10344827586207  C 14.89655172413793 12.10344827586207  25.603448275862068 12.10344827586207  25.603448275862068 12.10344827586207  C 25.97383682172874 12.103448291472773  26.32905628249563 12.250585263145382  26.590960535509836 12.512489516159585  C 26.852864788524037 12.774393769173786  27 13.12961145413333  27 13.5  C 27 13.870388545866671  26.852864788524037 14.225606230826216  26.590960535509836 14.487510483840419  C 26.32905628249563 14.74941473685462  25.97383682172874 14.896551708527221  25.603448275862068 14.89655172413793  C 25.603448275862068 14.89655172413793  14.89655172413793 14.89655172413793  14.89655172413793 14.89655172413793  C 14.89655172413793 14.89655172413793  14.89655172413793 25.603448275862068  14.89655172413793 25.603448275862068  C 14.89655170852722 25.97383682172874  14.74941473685462 26.32905628249563  14.487510483840419 26.590960535509836  C 14.225606230826216 26.852864788524037  13.870388545866671 27  13.5 27  C 13.12961145413333 27  12.774393769173786 26.852864788524037  12.512489516159585 26.590960535509836  C 12.250585263145382 26.32905628249563  12.103448291472779 25.97383682172874  12.10344827586207 25.603448275862068  C 12.10344827586207 25.603448275862068  12.10344827586207 14.89655172413793  12.10344827586207 14.89655172413793  C 12.10344827586207 14.89655172413793  1.396551724137931 14.89655172413793  1.396551724137931 14.89655172413793  C 1.0261631782712608 14.89655170852722  0.6709446054080437 14.74941473685462  0.4090403523938409 14.487510483840419  C 0.14713609937963815 14.225606230826216  0 13.870388545866671  0 13.5  C 0 13.12961145413333  0.14713609937963815 12.774393769173786  0.4090403523938409 12.512489516159585  C 0.6709446054080437 12.250585263145382  1.0261631782712608 12.103448291472779  1.396551724137931 12.10344827586207  C 1.396551724137931 12.10344827586207  12.10344827586207 12.10344827586207  12.10344827586207 12.10344827586207  C 12.10344827586207 12.10344827586207  12.10344827586207 1.396551724137931  12.10344827586207 1.396551724137931  C 12.10344827586207 1.0261631782712608  12.250585263145382 0.6709446054080437  12.512489516159585 0.4090403523938409  Z " fill-rule="nonzero" fill="#8a8a8a" stroke="none" transform="matrix(1 0 0 1 10 892 )" />
  </g>
</svg>