<?xml version="1.0" encoding="utf-8"?>
<svg version="1.1" xmlns:xlink="http://www.w3.org/1999/xlink" width="16px" height="6px" xmlns="http://www.w3.org/2000/svg">
  <g transform="matrix(1 0 0 1 -361 -907 )">
    <path d="M 13.334405067046603 0  C 13.103339484494551 0.3387373108383927  12.840080229579469 0.6547488144916122  12.548232425157838 0.9437045833830054  C 11.960554852182392 1.5244990814534942  11.2664596028069 1.9887185642803296  10.503215776104248 2.311438257218106  C 9.129098011121346 2.8866439911121233  7.596113451216375 2.9706129886948025  6.166456804646633 2.548984607362384  C 4.73680015807689 2.127356226029965  3.4992937520147716 1.2263258114418678  2.6655949329533972 0  C 2.6655949329533972 0  0 1.7837921040599616  0 1.7837921040599616  C 0.6952344934965773 2.8010448601112135  1.5797358766693614 3.6775120577836127  2.6061098787706647 4.366228248260045  C 3.650566799943424 5.066552244779183  4.824092409051167 5.5557120135317275  6.059485820801984 5.805696343892258  C 7.340510518591093 6.0647677903537485  8.661097848598065 6.0647677903537485  9.942122546387173 5.805696343892258  C 11.17740364841768 5.555351691003515  12.350860453447623 5.066220593177963  13.395498488418493 4.366228248260045  C 13.898713929126817 4.028279993637763  14.379422386892037 3.63613104993774  14.819936853572273 3.2009429591551175  C 15.257235927457886 2.7689430659525387  15.655948538957867 2.290714474116448  16 1.7837921040599616  C 16 1.7837921040599616  13.334405067046603 0  13.334405067046603 0  Z " fill-rule="nonzero" fill="#8a8a8a" stroke="none" transform="matrix(1 0 0 1 361 907 )" />
  </g>
</svg>