<?xml version="1.0" encoding="utf-8"?>
<svg version="1.1" xmlns:xlink="http://www.w3.org/1999/xlink" width="29px" height="30px" xmlns="http://www.w3.org/2000/svg">
  <g transform="matrix(1 0 0 1 -355 -890 )">
    <path d="M 29 15  C 29 6.7290000915527335  22.495299911499025 0  14.5 0  C 6.504700088500976 0  0 6.7290000915527335  0 15  C 0 23.270999908447266  6.504700088500976 30  14.5 30  C 22.495299911499025 30  29 23.270999908447266  29 15  Z M 26.1 15  C 26.1 21.616499662399292  20.89594967365265 27  14.5 27  C 8.10405032634735 27  2.9000000000000004 21.616499662399292  2.9000000000000004 15  C 2.9000000000000004 8.383500337600706  8.10405032634735 3  14.5 3  C 20.89594967365265 3  26.1 8.383500337600706  26.1 15  Z " fill-rule="nonzero" fill="#8a8a8a" stroke="none" transform="matrix(1 0 0 1 355 890 )" />
  </g>
</svg>