<?xml version="1.0" encoding="utf-8"?>
<svg version="1.1" xmlns:xlink="http://www.w3.org/1999/xlink" width="26px" height="26px" xmlns="http://www.w3.org/2000/svg">
  <g transform="matrix(1 0 0 1 -397 -893 )">
    <path d="M 25.57693311903212 16.301969906593555  C 25.306047245860107 16.03190089255417  24.93864605493016 15.88017741477465  24.555555555555557 15.88017741477465  C 24.555555555555557 15.88017741477465  18.34444416893853 15.88017741477465  18.34444416893853 15.88017741477465  L 19.398889329698353 10.119823271913159  C 19.398889329698353 10.119823271913159  24.555555555555557 10.119823271913159  24.555555555555557 10.119823271913159  C 24.93864605493016 10.119823271913159  25.306047245860107 9.968099794133638  25.57693311903212 9.698030780094252  C 25.84781899220414 9.427961766054867  26 9.061669850565114  26 8.679734564525836  C 26 8.297799278486558  25.84781899220414 7.931507362996802  25.57693311903212 7.661438348957418  C 25.306047245860107 7.391369334918034  24.93864605493016 7.239645857138509  24.555555555555557 7.239645857138511  C 24.555555555555557 7.239645857138511  19.918890211317276 7.239645857138511  19.918890211317276 7.239645857138511  C 19.918890211317276 7.239645857138511  20.915554894341362 1.7529077927233914  20.915554894341362 1.7529077927233914  C 20.954938370527493 1.5603749950611303  20.954383804566334 1.3618435502266706  20.91392665439182 1.1695321664641114  C 20.873469504217308 0.9772207827015524  20.79396721472343 0.7951983427740582  20.68030865987142 0.6346676003155807  C 20.566650105019413 0.47413685785710297  20.42124009629091 0.3384941493010363  20.253032048543297 0.23608792457642983  C 20.084824000795685 0.13368169985182335  19.897375115089947 0.06667849385996778  19.7022213406033 0.039202161941809976  C 19.508177166183792 -0.006884503949075549  19.306662756535744 -0.012401651532375532  19.110374026828342 0.022998046421059747  C 18.91408529712094 0.05839774437449503  18.727278587718807 0.13394701885317223  18.561724662780765 0.24488542541313255  C 18.396170737842723 0.35582383197309286  18.255458449323974 0.499746128546584  18.14845477210151 0.6675839803341064  C 18.041451094879044 0.8354218321216288  17.970475371720063 1.0235366735659424  17.940000110202366 1.2200747924512514  C 17.940000110202366 1.2200747924512514  16.856666776869034 7.239645857138511  16.856666776869034 7.239645857138511  L 11.25222216712104 7.239645857138511  C 11.25222216712104 7.239645857138511  12.248888227674698 1.7529077927233914  12.248888227674698 1.7529077927233914  C 12.288271703860827 1.5603749950611303  12.287718515429233 1.3618435502266706  12.24726136525472 1.1695321664641114  C 12.206804215080208 0.9772207827015524  12.127299170527195 0.7951983427740582  12.013640615675186 0.6346676003155807  C 11.899982060823177 0.47413685785710297  11.754574807153809 0.3384941493010363  11.586366759406197 0.23608792457642983  C 11.418158711658585 0.13368169985182335  11.230709825952848 0.06667849385996778  11.035556051466202 0.039202161941809976  C 10.841511877046692 -0.006884503949075549  10.639996089869076 -0.012401651532375532  10.443707360161676 0.022998046421059747  C 10.247418630454277 0.05839774437449503  10.06061192105214 0.13394701885317223  9.895057996114097 0.24488542541313255  C 9.729504071176054 0.35582383197309286  9.588791782657305 0.499746128546584  9.481788105434841 0.6675839803341064  C 9.37478442821238 0.8354218321216288  9.303808705053395 1.0235366735659424  9.2733334435357 1.2200747924512514  C 9.2733334435357 1.2200747924512514  8.190000110202366 7.239645857138511  8.190000110202366 7.239645857138511  C 8.190000110202366 7.239645857138511  1.4444444444444446 7.239645857138511  1.4444444444444446 7.239645857138511  C 1.0613539450698428 7.239645857138509  0.6939537872870764 7.391369334918034  0.42306791411505806 7.661438348957418  C 0.1521820409430398 7.931507362996802  0 8.297799278486558  0 8.679734564525836  C 0 9.061669850565114  0.1521820409430398 9.427961766054867  0.42306791411505806 9.698030780094252  C 0.6939537872870764 9.968099794133638  1.0613539450698428 10.119823271913159  1.4444444444444446 10.119823271913159  C 1.4444444444444446 10.119823271913159  7.65555583106147 10.119823271913159  7.65555583106147 10.119823271913159  L 6.601111359066434 15.88017741477465  C 6.601111359066434 15.88017741477465  1.4444444444444446 15.88017741477465  1.4444444444444446 15.88017741477465  C 1.0613539450698428 15.88017741477465  0.6939537872870764 16.03190089255417  0.42306791411505806 16.301969906593555  C 0.1521820409430398 16.572038920632938  0 16.938330836122695  0 17.32026612216197  C 0 17.70220140820125  0.1521820409430398 18.068493323691005  0.42306791411505806 18.33856233773039  C 0.6939537872870764 18.608631351769773  1.0613539450698428 18.760354829549296  1.4444444444444446 18.760354829549296  C 1.4444444444444446 18.760354829549296  6.0811111662122945 18.760354829549296  6.0811111662122945 18.760354829549296  C 6.0811111662122945 18.760354829549296  5.084444416893853 24.24709203560466  5.084444416893853 24.24709203560466  C 5.045060940707724 24.43962483326692  5.045614817904102 24.638157651476995  5.086071968078614 24.830469035239553  C 5.126529118253126 25.02278041900211  5.206033474041356 25.204802172241795  5.319692028893365 25.365332914700275  C 5.433350583745374 25.52586365715875  5.578758526179526 25.661507760549426  5.746966573927138 25.763913985274037  C 5.91517462167475 25.866320209998644  6.102624196145269 25.93332203456776  6.297777970631917 25.960798366485914  C 6.491822145051427 26.006885032376804  6.693337243464258 26.012401149928394  6.8896259731716585 25.977001451974957  C 7.085914702879059 25.94160175402152  7.272721412281195 25.866054547653388  7.438275337219238 25.755116141093428  C 7.603829262157282 25.64417773453347  7.744541550676029 25.500253699781467  7.851545227898492 25.332415847993946  C 7.958548905120956 25.164577996206425  8.029524628279939 24.97646418479382  8.059999889797634 24.779926065908505  C 8.059999889797634 24.779926065908505  9.143333223130968 18.760354829549296  9.143333223130968 18.760354829549296  L 14.747777832878961 18.760354829549296  C 14.747777832878961 18.760354829549296  13.751111772325304 24.24709203560466  13.751111772325304 24.24709203560466  C 13.711728296139174 24.43962483326692  13.712281484570767 24.638157651476995  13.752738634745281 24.830469035239553  C 13.793195784919792 25.02278041900211  13.872700829472807 25.204802172241795  13.986359384324816 25.365332914700275  C 14.100017939176825 25.52586365715875  14.245425192846193 25.661507760549426  14.413633240593805 25.763913985274037  C 14.581841288341417 25.866320209998644  14.769290174047157 25.93332203456776  14.9644439485338 25.960798366485914  C 15.15848812295331 26.006885032376804  15.360003910130926 26.012401149928394  15.556292639838327 25.977001451974957  C 15.752581369545725 25.94160175402152  15.93938807894786 25.866054547653388  16.104942003885906 25.755116141093428  C 16.270495928823948 25.64417773453347  16.411208217342693 25.500253699781467  16.51821189456516 25.332415847993946  C 16.625215571787624 25.164577996206425  16.696191294946605 24.97646418479382  16.726666556464302 24.779926065908505  C 16.726666556464302 24.779926065908505  17.809999889797638 18.760354829549296  17.809999889797638 18.760354829549296  C 17.809999889797638 18.760354829549296  24.555555555555557 18.760354829549296  24.555555555555557 18.760354829549296  C 24.93864605493016 18.760354829549296  25.306047245860107 18.608631351769773  25.57693311903212 18.33856233773039  C 25.84781899220414 18.068493323691005  26 17.70220140820125  26 17.32026612216197  C 26 16.938330836122695  25.84781899220414 16.572038920632938  25.57693311903212 16.301969906593555  Z M 15.267777336968317 15.88017741477465  L 9.677777502271866 15.88017741477465  L 10.732222663031685 10.119823271913159  L 16.322222497728138 10.119823271913159  L 15.267777336968317 15.88017741477465  Z " fill-rule="nonzero" fill="#8a8a8a" stroke="none" transform="matrix(1 0 0 1 397 893 )" />
  </g>
</svg>