<?xml version="1.0" encoding="utf-8"?>
<svg version="1.1" xmlns:xlink="http://www.w3.org/1999/xlink" width="12px" height="8px" xmlns="http://www.w3.org/2000/svg">
  <g transform="matrix(1 0 0 1 -47 -275 )">
    <path d="M 4.647702407002188 7.826644708329722  C 4.647702407002188 7.826644708329722  11.817651349380014 1.010083499465488  11.817651349380014 1.010083499465488  C 11.876009142778518 0.9545988409291393  11.921230309669797 0.8907309628577259  11.952832482372964 0.8182369766837133  C 11.98443465507613 0.7457429905097007  12 0.6701861190828964  12 0.591719395567883  C 12 0.5528665640529745  11.996296620850083 0.514486375413976  11.988329686360322 0.4763803415099246  C 11.980362751870558 0.4382736128021529  11.968500786096604 0.4010969335412694  11.952832482372964 0.3652018144520528  C 11.937230569035822 0.32930669536283624  11.91815920291143 0.2953428026122024  11.895453440311208 0.2630377625610355  C 11.872747677710986 0.23073272250986862  11.846597876944102 0.20082874424293395  11.817651349380014 0.17335529167027824  C 11.788771214057371 0.1458824704167389  11.757308566712302 0.12120680020836494  11.723316314125942 0.09962150761318656  C 11.689324061539583 0.07803558369889178  11.653562331066322 0.05994078572326627  11.61585217602723 0.045072375834272344  C 11.578075628746694 0.030203965945278417  11.539249274552724 0.018905567787392826  11.49914903963044 0.01132587905579151  C 11.459115196949602 0.003746190324190196  11.4184801995305 0  11.37758327255045 0  C 11.295059111354242 0  11.216084026519383 0.015044588482075785  11.139800632141988 0.045072375834272344  C 11.06358363000604 0.0751001631864689  10.995872989119388 0.1178706331339296  10.937515195720884 0.17335529167027824  C 10.937515195720884 0.17335529167027824  4.207634330172624 6.571552396636907  4.207634330172624 6.571552396636907  C 4.207634330172624 6.571552396636907  1.0624848042791148 3.5815203259079484  1.0624848042791148 3.5815203259079484  C 1.0041217020240225 3.526034404733367  0.9369404739687803 3.483262040828557  0.8606856309263312 3.4532374100719423  C 0.7844307878838819 3.423206466124164  0.704954162642175 3.4083961746265636  0.6224167274495502 3.4083961746265636  C 0.5815482813164813 3.4083961746265636  0.5409338663826017 3.4121417336316378  0.5008509603695599 3.419722053682355  C 0.46076732350763777 3.427302373733073  0.4219051169097032 3.4383734194167634  0.38414782397276925 3.4532374100719423  C 0.3463905310358353 3.4681077121548243  0.3106646529665371 3.486431758325456  0.2766836858740579 3.50801768223975  C 0.24270271878157862 3.529603606154045  0.21124737621542022 3.55404561069706  0.1823486506199854 3.5815203259079484  C 0.15345058909536075 3.608995041118837  0.12773792128652195 3.638899650704888  0.1050328227571116 3.6712027967987058  C 0.08232706015689106 3.7035059428925234  0.06280727372562511 3.7377035013085163  0.04716751762703623 3.7735979890786164  C 0.03152776152844734 3.8094924768487166  0.02012948598010738 3.846435490444241  0.012156576707999028 3.8845453757475945  C 0.004183667435890678 3.9226489478597846  0 3.961260908206793  0 4.000115570194446  C 0 4.07858229370946  0.015581942984230641 4.153906127263099  0.04716751762703623 4.226402010921383  C 0.07875375634065197 4.298891581388504  0.12398621243570311 4.36299375291747  0.1823486506199854 4.418479674092052  C 0.1823486506199854 4.418479674092052  3.7675662533430585 7.826644708329722  3.7675662533430585 7.826644708329722  C 3.7964663070801135 7.85411942354061  3.827922313717082 7.878792568472519  3.8619012885971316 7.900378492386813  C 3.8958802634771796 7.921964416301108  3.9316087978297185 7.940063633510548  3.969365426695842 7.954927624165728  C 4.007122055561966 7.969797926248609  4.04598160587666 7.981093800893491  4.086068563092633 7.988674120944209  C 4.126148879600504 7.996254440994926  4.166763958605194 8  4.207634330172624 8  C 4.248504701740052 8  4.289119780744742 7.996254440994926  4.329200097252613 7.988674120944209  C 4.369287054468587 7.981093800893491  4.408146604783281 7.969797926248609  4.445903233649404 7.954927624165728  C 4.483659862515529 7.940063633510548  4.5193883968680675 7.921964416301108  4.553367371748116 7.900378492386813  C 4.5873463466281645 7.878792568472519  4.618802353265133 7.85411942354061  4.647702407002188 7.826644708329722  Z " fill-rule="nonzero" fill="#ffffff" stroke="none" transform="matrix(1 0 0 1 47 275 )" />
  </g>
</svg>