<?xml version="1.0" encoding="utf-8"?>
<svg version="1.1" xmlns:xlink="http://www.w3.org/1999/xlink" width="54px" height="14px" xmlns="http://www.w3.org/2000/svg">
  <g transform="matrix(1 0 0 1 -334 -536 )">
    <path d="M 1.9784251826463426 1.8941677367033858  C 2.47887384251756 1.7049393821118723  3.030950594675211 1.6103264175170644  3.634905745467665 1.6103264175170644  C 4.251030303385299 1.6103264175170644  4.807983243193394 1.7037618061799638  5.3059980156940565 1.8906197202135566  C 5.8040127881947186 2.077484087548627  6.198524547902737 2.3554092740306842  6.489546315504645 2.7244035953233765  C 6.780561453852908 3.0933979166160688  6.9264363669162075 3.551089647275947  6.9264363669162075 4.0974859768872065  C 6.9264363669162075 4.5161497571496225  6.837308950106791 4.8823069068252325  6.659529178316948 5.195715347705615  C 6.481756050644547 5.509123788585999  6.242120362979658 5.782793058836356  5.940146117074051 6.0169628978847065  C 5.638171871168444 6.251132736933056  5.299182637578428 6.458112737943475  4.924145395508253 6.637865783604785  C 5.3430191272629965 6.836543605046763  5.729985666675005 7.0642978662799045  6.084314963470731 7.320977225113199  C 6.438650919247697 7.577591993184059  6.723574947736687 7.878468180344041  6.9390998466672675 8.223829154558358  C 7.15461808661661 8.569125538010239  7.262018580319293 8.974784342172928  7.262018580319293 9.44079881056971  C 7.262018580319293 10.020297314014243  7.110785654748733 10.521772515220304  6.807594480021647 10.945157802257214  C 6.504403305294559 11.368543089294125  6.082367865465325 11.694923258056559  5.54173356182917 11.924410353450023  C 5.001099258193013 12.153832858081056  4.370358771551846 12.268567952963439  3.6495174528727334 12.268567952963439  C 2.8726569194213947 12.268567952963439  2.211968021387661 12.158101709789541  1.6676828718318752 11.936946678380753  C 1.123397722276089 11.715791646971963  0.7094012186376076 11.39814116373621  0.42568774240101015 10.984185983645334  C 0.14198024141097118 10.570230803554459  0 10.073517561361678  0 9.494019057917146  C 0 9.018574511448161  0.09814183429653676 8.60510764560595  0.2941823757553892 8.253869027505576  C 0.49022357122132765 7.902630409405202  0.752506112213699 7.599866335606457  1.081266347975106 7.345576806109348  C 1.4100332427177522 7.091287276612236  1.7709386699460095 6.87554529469392  2.1630197528637143 6.698182063931878  C 1.8269511960094027 6.506544520099751  1.52010432976473 6.288953414662283  1.2424821863443674 6.045347029803338  C 0.9648600429240044 5.801721270603047  0.7442287309849092 5.519533671277064  0.5810588978082439 5.19902682976279  C 0.41789771536167075 4.878526427113076  0.336069270316587 4.50787613380114  0.336069270316587 4.086841927417719  C 0.336069270316587 3.5499080145706268  0.4846218667555471 3.097419694943179  0.7817263461711915 2.7296073528417923  C 1.0788328173356887 2.361801478478798  1.4779765227751251 2.083396091294899  1.9784251826463426 1.8941677367033858  Z M 1.8629926941462975 8.585726836520916  C 1.7144461026814908 8.831748892795785  1.6404076846757463 9.11437144752869  1.6404076846757463 9.433702777590053  C 1.6404076846757463 9.885442918479832  1.8052803144836012 10.258026285977785  2.1352575087940835 10.551327971886193  C 2.465241332358209 10.8446296577946  2.960332990460393 10.991282016624993  3.620294038062596 10.991282016624993  C 4.270512877201339 10.991282016624993  4.7663358341360516 10.84701065173816  5.107278794985118 10.55842400486585  C 5.448215096852944 10.269901948755976  5.61820149724903 9.890240219063621  5.61820149724903 9.419510711630735  C 5.61820149724903 9.114389118313941  5.532723871029627 8.846416424148476  5.361035446919816 8.615766709468136  C 5.189353681791245 8.385181585550228  4.958245354699972 8.178405838028164  4.668440515919545 7.995100358180712  C 4.378642336120358 7.811794878333261  4.05766725207274 7.643177747871454  3.704554884098494 7.48938974116375  C 3.704554884098494 7.48938974116375  3.474176964011906 7.393593295938366  3.474176964011906 7.393593295938366  C 3.0942719472006206 7.552096341682172  2.7679469365515357 7.728778106695641  2.495192567872283 7.923903493951477  C 2.2224381991930304 8.119093471969746  2.011545929728546 8.339769371008481  1.8629926941462975 8.585726836520916  Z M 4.803842337873185 3.231769953368926  C 4.499434204597023 3.0070624877739944  4.1049158156353585 2.8947083868351693  3.620294038062596 2.8947083868351693  C 3.147848326596253 2.8947083868351693  2.7596620342412566 3.007536249611276  2.4552539009650944 3.2334256943975133  C 2.1508391087076926 3.4593151391837504  1.998394516099937 3.7817082070914396  1.998394516099937 4.200378455092249  C 1.998394516099937 4.498408115513543  2.0724262899882393 4.753868926447163  2.2209795255704883 4.9667500168953165  C 2.3695327611527364 5.17963110734347  2.569954674446283 5.363417076631085  2.8220077568323263 5.518348313847402  C 3.0740608392183697 5.673279551063718  3.353390684323067 5.817090089590057  3.6602327049697845 5.949550584577954  C 3.957339176134282 5.821818049666027  4.2266791224554945 5.680605665174555  4.467773067556598 5.5256808812597145  C 4.708867012657701 5.370749644043398  4.901256678469329 5.185543111089743  5.044935510056823 4.970298033385145  C 5.188620985761759 4.755046502379072  5.260701722738342 4.497224057406326  5.260701722738342 4.1968304386024196  C 5.260701722738342 3.7781601906016107  5.108257130130586 3.456477418963858  4.803842337873185 3.231769953368926  Z M 9.198069811490935 10.437791444211665  C 9.198069811490935 10.437791444211665  10.871110309371335 10.437791444211665  10.871110309371335 10.437791444211665  C 10.871110309371335 10.437791444211665  10.973392261206818 10.6010002027438  10.973392261206818 10.6010002027438  C 10.88574591776264 10.94397134762193  10.77371347832854 11.311792727232769  10.637322990890231 11.704433331080626  C 10.500999004081532 12.09707393492848  10.352882273637798 12.490399281704853  10.19215297194913 12.8842670811651  C 10.03142367026046 13.278070289862915  9.869259952666622 13.649923986749585  9.706070172273835 14  C 9.706070172273835 14  8.449463335437901 14  8.449463335437901 14  C 8.549305692204623 13.619179303560529  8.646716242532428 13.218947538259972  8.74169748353928 12.799114685409204  C 8.836672072996791 12.379217241796004  8.924343565986188 11.965085324978775  9.004708216830522 11.557072379536393  C 9.085072867674857 11.14905943409401  9.149365573076903 10.776047550053695  9.198069811490935 10.437791444211665  Z M 19.495914133670063 4.054909779009259  C 19.7565257014215 4.85203023958087  19.88702083521241 5.811158422764116  19.88702083521241 6.932351152260593  C 19.88702083521241 7.772016857962129  19.820547569855005 8.52188096120888  19.68781455758997 9.181793606812192  C 19.55508154532494 9.841770872051766  19.344156040409445 10.401160397239252  19.055614683863983 10.860005406501319  C 18.767006826688917 11.318915006525815  18.391268548477736 11.668482753709577  17.928564986019662 11.908562546462122  C 17.46586142356159 12.148642339214662  16.9072017036246 12.268567952963439  16.252115089744745 12.268567952963439  C 15.426523774853148 12.268567952963439  14.74635670268741 12.057587930058405  14.211833679083613 11.635365276745286  C 13.677310655479813 11.213142623432168  13.280327581359362 10.603345624126195  13.020979525570489 9.806244509022099  C 12.761564969152005 9.009078832029402  12.63182105168215 8.051108778252138  12.63182105168215 6.932351152260593  C 12.63182105168215 5.818256881145672  12.750125746074549 4.862674289050356  12.986398484711824 4.065553828478746  C 13.222604722719492 3.268433367907135  13.605961395701328 2.6565177222961682  14.136826914404258 2.229573562208556  C 14.66775896346439 1.8026294021209428  15.372991630118607 1.58903831857809  16.252115089744745 1.58903831857809  C 17.080100427302245 1.58903831857809  17.7627188369367 1.800741544356014  18.299702354108415 2.2241332702574845  C 18.836685871280128 2.6475314638973484  19.235369066548238 3.2577893184376476  19.495914133670063 4.054909779009259  Z M 14.542545323351673 4.748428735554504  C 14.423245215310583 5.333856595918408  14.36379543609633 6.061889079210524  14.36379543609633 6.932351152260593  C 14.36379543609633 7.809866409523467  14.423929953297728 8.541476880343144  14.544493551005683 9.12691761843617  C 14.664990655515927 9.712358356529196  14.863238649255603 10.150920711434065  15.139677099305493 10.442995201730081  C 15.416049048725775 10.73513428278853  15.78695106344635 10.881293505440292  16.252115089744745 10.881293505440292  C 16.71481865220282 10.881293505440292  17.084969420874746 10.736529004374832  17.36260485252999 10.446779752652565  C 17.64024028418524 10.157030500930299  17.840675500577465 9.719217855076197  17.96363308379183 9.133777116983174  C 18.086590667006192 8.548336378890147  18.147740597095698 7.814581448559569  18.147740597095698 6.932351152260593  C 18.147740597095698 6.061889079210524  18.086854848709443 5.333856595918408  17.965094254532335 4.748428735554504  C 17.843333660355224 4.163007342928993  17.644334427998796 3.722576533474374  17.367962478578516 3.426910860309522  C 17.091524028528625 3.1312387194062774  16.719673108981453 2.983408799080895  16.252115089744745 2.983408799080895  C 15.782096606667718 2.983408799080895  15.409494411344296 3.1312387194062774  15.134319473256967 3.426910860309522  C 14.859144535169639 3.722576533474374  14.66191193202237 4.163007342928993  14.542545323351673 4.748428735554504  Z M 28.051068819337964 4.054909779009259  C 28.3116803870894 4.85203023958087  28.442175520880312 5.811158422764116  28.442175520880312 6.932351152260593  C 28.442175520880312 7.772016857962129  28.375702255522903 8.52188096120888  28.24296924325787 9.181793606812192  C 28.110236230992836 9.841770872051766  27.899377226706953 10.401160397239252  27.610769369531887 10.860005406501319  C 27.322228012986425 11.318915006525815  26.946910291059137 11.668482753709577  26.484206728601066 11.908562546462122  C 26.021503166142992 12.148642339214662  25.4623563892925 12.268567952963439  24.807269775412646 12.268567952963439  C 23.98167846052105 12.268567952963439  23.30151138835531 12.057587930058405  22.76698836475151 11.635365276745286  C 22.2323988702457 11.213142623432168  21.835482267027263 10.603345624126195  21.57613421123839 9.806244509022099  C 21.316786155449513 9.009078832029402  21.18697573735005 8.051108778252138  21.18697573735005 6.932351152260593  C 21.18697573735005 5.818256881145672  21.305346932372057 4.862674289050356  21.541553170379725 4.065553828478746  C 21.777825909017 3.268433367907135  22.16160313828273 2.6565177222961682  22.69246865698566 2.229573562208556  C 23.22333417568859 1.8026294021209428  23.928079844884493 1.58903831857809  24.807269775412646 1.58903831857809  C 25.635255112970146 1.58903831857809  26.3178735226046 1.800741544356014  26.854857039776313 2.2241332702574845  C 27.391840556948033 2.6475314638973484  27.79052375221614 3.2577893184376476  28.051068819337964 4.054909779009259  Z M 23.097700009019572 4.748428735554504  C 22.978333400348873 5.333856595918408  22.918463064850727 6.061889079210524  22.918463064850727 6.932351152260593  C 22.918463064850727 7.809866409523467  22.979084638965627 8.541476880343144  23.099648236673584 9.12691761843617  C 23.220211834381534 9.712358356529196  23.41845983555311 10.150920711434065  23.694831784973392 10.442995201730081  C 23.971270235023283 10.73513428278853  24.34210574911425 10.881293505440292  24.807269775412646 10.881293505440292  C 25.26997333787072 10.881293505440292  25.64019060717225 10.736529004374832  25.91775953819789 10.446779752652565  C 26.195394969853133 10.157030500930299  26.395763685615755 9.719217855076197  26.518787769459728 9.133777116983174  C 26.641745352674093 8.548336378890147  26.7033823396771 7.814581448559569  26.7033823396771 6.932351152260593  C 26.7033823396771 6.061889079210524  26.642496591290843 5.333856595918408  26.52073599711374 4.748428735554504  C 26.398975402936628 4.163007342928993  26.1995556142963 3.722576533474374  25.923117164246417 3.426910860309522  C 25.646745214826133 3.1312387194062774  25.274827794649347 2.983408799080895  24.807269775412646 2.983408799080895  C 24.33725129233562 2.983408799080895  23.964715597641803 3.1312387194062774  23.689474158924867 3.426910860309522  C 23.41429922083754 3.722576533474374  23.21700011706066 4.163007342928993  23.097700009019572 4.748428735554504  Z M 36.60622350500586 4.054909779009259  C 36.86676857212769 4.85203023958087  36.99684314963471 5.811158422764116  36.99684314963471 6.932351152260593  C 36.99684314963471 7.772016857962129  36.930856941190804 8.52188096120888  36.79812392892577 9.181793606812192  C 36.66539091666073 9.841770872051766  36.45446541174525 10.401160397239252  36.16592405519978 10.860005406501319  C 35.877316198024715 11.318915006525815  35.501577919813535 11.668482753709577  35.03887435735546 11.908562546462122  C 34.57617079489739 12.148642339214662  34.017511074960396 12.268567952963439  33.36242446108054 12.268567952963439  C 32.53689961709096 12.268567952963439  31.856732544925222 12.057587930058405  31.322143050419413 11.635365276745286  C 30.787620026815613 11.213142623432168  30.39063695269516 10.603345624126195  30.131288896906284 9.806244509022099  C 29.87194084111741 9.009078832029402  29.742617479931454 8.051108778252138  29.742617479931454 6.932351152260593  C 29.742617479931454 5.818256881145672  29.860501618039955 4.862674289050356  30.096707856047622 4.065553828478746  C 30.33291409405529 3.268433367907135  30.716691293593424 2.6565177222961682  31.247623342653558 2.229573562208556  C 31.778488861356486 1.8026294021209428  32.48330100145441 1.58903831857809  33.36242446108054 1.58903831857809  C 34.19040979863804 1.58903831857809  34.873028208272494 1.800741544356014  35.410011725444214 2.2241332702574845  C 35.94699524261593 2.6475314638973484  36.34561193725443 3.2577893184376476  36.60622350500586 4.054909779009259  Z M 31.65285469468747 4.748428735554504  C 31.533554586646382 5.333856595918408  31.473617750518624 6.061889079210524  31.473617750518624 6.932351152260593  C 31.473617750518624 7.809866409523467  31.53423932463353 8.541476880343144  31.65480292234148 9.12691761843617  C 31.775366520049438 9.712358356529196  31.97361452122101 10.150920711434065  32.24998647064129 10.442995201730081  C 32.52642492069118 10.73513428278853  32.897326935411755 10.881293505440292  33.36242446108054 10.881293505440292  C 33.82512802353862 10.881293505440292  34.195278792210544 10.736529004374832  34.472914223865786 10.446779752652565  C 34.750549655521034 10.157030500930299  34.95098487191326 9.719217855076197  35.07394245512763 9.133777116983174  C 35.196900038341994 8.548336378890147  35.25804996843149 7.814581448559569  35.25804996843149 6.932351152260593  C 35.25804996843149 6.061889079210524  35.197164220045245 5.333856595918408  35.075403625868134 4.748428735554504  C 34.95364303169102 4.163007342928993  34.754643799334595 3.722576533474374  34.478271849914314 3.426910860309522  C 34.20183339986442 3.1312387194062774  33.829982480317256 2.983408799080895  33.36242446108054 2.983408799080895  C 32.89240597800352 2.983408799080895  32.51980378268009 3.1312387194062774  32.24462884459277 3.426910860309522  C 31.96945390650544 3.722576533474374  31.77222130335817 4.163007342928993  31.65285469468747 4.748428735554504  Z M 45.85884369080906 9.7591741569237  L 45.85884369080906 6.82803946745962  L 47.635627311265445 6.82803946745962  L 47.635627311265445 9.7591741569237  L 45.85884369080906 9.7591741569237  Z M 52 10.135973508143543  L 52 0  L 53 0  L 53 10.135973508143543  L 52 10.135973508143543  Z M 43.914025435194375 13  L 43.914025435194375 11.731398256403324  L 54 11.731398256403324  L 54 13  L 43.914025435194375 13  Z M 43.914025435194375 12.105595728863959  L 43.914025435194375 9.167128471987565  L 45.69129611256426 9.167128471987565  L 45.69129611256426 12.105595728863959  L 43.914025435194375 12.105595728863959  Z M 45.04594570217372 7.330675136852065  C 44.07664893463347 7.35166677913368  43.178004493138786 7.365308571661002  42.35008568593848 7.371832128134081  C 42.35008568593848 7.371832128134081  42.12993596103544 5.986686490504832  42.12993596103544 5.986686490504832  C 42.97128765759589 5.980175851913548  43.888328307681576 5.969523551746535  44.88083340849644 5.954990876529026  C 45.87347151057051 5.940458201311517  46.88690882163514 5.905014669185411  47.9210426625778 5.848550381834155  C 48.955309445324474 5.791931078096753  49.95295658767024 5.705570045384054  50.91400739604943 5.589308643643982  C 50.91400739604943 5.589308643643982  51.03382339677099 6.824018382104481  51.03382339677099 6.824018382104481  C 50.05614766881045 6.982198488473038  49.055982658638776 7.100923124048979  48.03355280959682 7.180239237683313  C 47.01112296055487 7.259426169792785  46.01524246971397 7.3096189056126315  45.04594570217372 7.330675136852065  Z M 49.257039776314606 8.99540447387984  L 49.257039776314606 7.799722916807461  L 52.31429602236854 7.799722916807461  L 52.31429602236854 8.99540447387984  L 49.257039776314606 8.99540447387984  Z M 44.78585731036349 0.7772521457052105  C 45.30315693844705 0.5784903591594528  45.8976817232457 0.4792187605595729  46.569459727608916 0.4792187605595729  C 47.24462917489937 0.4792187605595729  47.83851416240233 0.5784903591594528  48.35062686028682 0.7772521457052105  C 48.86293903033254 0.975865376384756  49.26299174616633 1.2536896632605004  49.55073509515649 1.610799486382375  C 49.83841194351704 1.9677607536380368  49.98226752051953 2.382083122251871  49.98226752051953 2.853787929985808  C 49.98226752051953 3.325344181853532  49.83841194351704 3.7405140263136634  49.55073509515649 4.099141717915794  C 49.26299174616633 4.4577629417795315  48.86293903033254 4.734040803955062  48.35062686028682 4.927958369939853  C 47.83851416240233 5.121727380058431  47.24462917489937 5.218659187673177  46.569459727608916 5.218659187673177  C 45.8976817232457 5.218659187673177  45.30315693844705 5.121727380058431  44.78585731036349 4.927958369939853  C 44.268757154441154 4.734040803955062  43.866186570781444 4.4577629417795315  43.57844322179128 4.099141717915794  C 43.290766373430735 3.7405140263136634  43.14691079642825 3.325344181853532  43.14691079642825 2.853787929985808  C 43.14691079642825 2.382083122251871  43.290766373430735 1.9677607536380368  43.57844322179128 1.610799486382375  C 43.866186570781444 1.2536896632605004  44.268757154441154 0.975865376384756  44.78585731036349 0.7772521457052105  Z M 47.46954090376116 1.8780833952828275  C 47.21438229845484 1.7911909108162893  46.914326166149685 1.747752922889775  46.569459727608916 1.747752922889775  C 46.05555154245259 1.747752922889775  45.63792039443366 1.8427048807104849  45.31626228916749 2.0325403798067176  C 44.99473718516055 2.222369411164557  44.83407594480022 2.4960709767961307  44.83407594480022 2.853787929985808  C 44.83407594480022 3.20484571127567  44.99473718516055 3.4762074570482775  45.31626228916749 3.667702912752585  C 45.63792039443366 3.8592048217583694  46.05555154245259 3.9548557139960807  46.569459727608916 3.9548557139960807  C 47.08004294074 3.9548557139960807  47.49464939516896 3.8592048217583694  47.81291602778028 3.667702912752585  C 48.1311826603916 3.4762074570482775  48.29023180301254 3.20484571127567  48.29023180301254 2.853787929985808  C 48.29023180301254 2.615213070236735  48.217443162820544 2.4147174245096132  48.071543248850006 2.2522808677434614  C 47.92564333487946 2.089695755111097  47.724832510326706 1.9649758797493657  47.46954090376116 1.8780833952828275  Z " fill-rule="nonzero" fill="#ff3c26" stroke="none" transform="matrix(1 0 0 1 334 536 )" />
  </g>
</svg>