<?xml version="1.0" encoding="utf-8"?>
<svg version="1.1" xmlns:xlink="http://www.w3.org/1999/xlink" width="63px" height="14px" xmlns="http://www.w3.org/2000/svg">
  <g transform="matrix(1 0 0 1 -326 -338 )">
    <path d="M 7.287633885102239 10.664864499560723  L 7.287633885102239 12.12664729337028  L 0 12.12664729337028  L 0 10.870649455970804  C 0 10.870649455970804  2.7899123661148977 8.145772791782118  2.7899123661148977 8.145772791782118  C 3.3297410521391186 7.615943747307308  3.774356078269535 7.158719281872486  4.12278870496592 6.774346151246874  C 4.4712213316623055 6.389985956098048  4.730586696546753 6.024769169386637  4.901117818889971 5.678245590322362  C 5.071655635726022 5.331722011258089  5.1567984420642645 4.9549279439495235  5.1567984420642645 4.5480840710954915  C 5.1567984420642645 4.0489997098097374  5.007121533535936 3.6705413836921124  4.707762414800389 3.412718794350206  C 4.408409975581183 3.1548962050083  4.011883303633915 3.025984996958843  3.5186757546251215 3.025984996958843  C 3.0524639950820047 3.025984996958843  2.622076218943981 3.114684254251284  2.2270223953261925 3.2920862336960193  C 1.8319685717084042 3.469488213140755  1.4236631567786941 3.721396921937301  1.0016202531645568 4.0478137460296  C 1.0016202531645568 4.0478137460296  0.05545472249269718 2.9443806176927754  0.05545472249269718 2.9443806176927754  C 0.35235616860394353 2.700748390754091  0.6713411141370497 2.47722420367291  1.0124167478091528 2.273805501115091  C 1.353485672011928 2.070386798557272  1.7348022765221822 1.9076510800166155  2.1568451801363193 1.785834966547273  C 2.5788880837504564 1.6640188530779307  3.0603115281919426 1.6032303845374063  3.6001402142161636 1.6032303845374063  C 4.284737143036454 1.6032303845374063  4.873884592087847 1.720314177982129  5.36831158714703 1.9544840170304791  C 5.862745291675541 2.188653856078829  6.244545936473041 2.5143625205647684  6.513230769230769 2.9318442927620465  C 6.781915601988498 3.3493325326977175  6.916136319376825 3.833751066186875  6.916136319376825 4.3848753125633575  C 6.916136319376825 4.945461975704006  6.8008112797723195 5.461817104171771  6.570157740993184 5.933702777590052  C 6.339504202214049 6.405601357611287  6.009968181844115 6.872535313191652  5.581787731256086 7.334932756639859  C 5.1536139901373845 7.7973947908504995  4.644948962010102 8.298376884751764  4.056046738072054 8.837636007298777  C 4.056046738072054 8.837636007298777  2.19365141187926 10.590356153274314  2.19365141187926 10.590356153274314  L 2.19365141187926 10.664864499560723  L 7.287633885102239 10.664864499560723  Z M 15.514072054527752 4.054909779009259  C 15.776592562340252 4.85203023958087  15.90765335929893 5.811158422764116  15.90765335929893 6.932351152260593  C 15.90765335929893 7.772016857962129  15.841166846463837 8.52188096120888  15.707427458617332 9.181793606812192  C 15.573688070770828 9.841770872051766  15.3611633383984 10.401160397239252  15.070434274586173 10.860005406501319  C 14.77963820593963 11.318915006525815  14.40105109742043 11.668482753709577  13.934839337877314 11.908562546462122  C 13.468627578334194 12.148642339214662  12.905732126148672 12.268567952963439  12.245678675754625 12.268567952963439  C 11.413827765564143 12.268567952963439  10.728503698005417 12.057587930058405  10.189927945472249 11.635365276745286  C 9.651352192939083 11.213142623432168  9.251379309902173 10.603345624126195  8.990044790652385 9.806244509022099  C 8.728716950918939 9.009078832029402  8.597935735150925 8.051108778252138  8.597935735150925 6.932351152260593  C 8.597935735150925 5.818256881145672  8.71718431666299 4.862674289050356  8.955201557935736 4.065553828478746  C 9.193212104715645 3.268433367907135  9.579461966361368 2.6565177222961682  10.114352482960077 2.229573562208556  C 10.649310034346092 1.8026294021209428  11.359889742575461 1.58903831857809  12.245678675754625 1.58903831857809  C 13.079941759980526 1.58903831857809  13.767735750935675 1.800741544356014  14.30879065238559 2.2241332702574845  C 14.849845553835504 2.6475314638973484  15.251484541880933 3.2577893184376476  15.514072054527752 4.054909779009259  Z M 10.523147030185005 4.748428735554504  C 10.402942394223162 5.333856595918408  10.343041869522882 6.061889079210524  10.343041869522882 6.932351152260593  C 10.343041869522882 7.809866409523467  10.403632323862167 8.541476880343144  10.525110029211296 9.12691761843617  C 10.646520737214352 9.712358356529196  10.846271838105526 10.150920711434065  11.12480623174294 10.442995201730081  C 11.403273620546038 10.73513428278853  11.776987797247749 10.881293505440292  12.245678675754625 10.881293505440292  C 12.711890435297741 10.881293505440292  13.084847670037883 10.736529004374832  13.364588120740018 10.446779752652565  C 13.644328571442156 10.157030500930299  13.846283478407223 9.719217855076197  13.970173320350536 9.133777116983174  C 14.094063162293848 8.548336378890147  14.155676728334956 7.814581448559569  14.155676728334956 6.932351152260593  C 14.155676728334956 6.061889079210524  14.094329347010596 5.333856595918408  13.971645569620252 4.748428735554504  C 13.84896179222991 4.163007342928993  13.648453756865415 3.722576533474374  13.369986368062317 3.426910860309522  C 13.091451974424903 3.1312387194062774  12.716781698343933 2.983408799080895  12.245678675754625 2.983408799080895  C 11.772096534201557 2.983408799080895  11.39666928620603 3.1312387194062774  11.119407984420642 3.426910860309522  C 10.842146682635255 3.722576533474374  10.643418670981164 4.163007342928993  10.523147030185005 4.748428735554504  Z M 17.85838364167478 10.437791444211665  C 17.85838364167478 10.437791444211665  19.54459980525803 10.437791444211665  19.54459980525803 10.437791444211665  C 19.54459980525803 10.437791444211665  19.647166504381694 10.6010002027438  19.647166504381694 10.6010002027438  C 19.558855630401048 10.94397134762193  19.446464515931186 11.311792727232769  19.309039922103214 11.704433331080626  C 19.17161532827524 12.09707393492848  19.021461088928994 12.490399281704853  18.859513145082765 12.8842670811651  C 18.697565201236536 13.278070289862915  18.53459571073211 13.649923986749585  18.370235637779942 14  C 18.370235637779942 14  17.104101265822784 14  17.104101265822784 14  C 17.204673822300805 13.619179303560529  17.302802828988405 13.218947538259972  17.39855111976631 12.799114685409204  C 17.494232405709894 12.379217241796004  17.582615518809526 11.965085324978775  17.663555988315483 11.557072379536393  C 17.744563462655755 11.14905943409401  17.80933693415002 10.776047550053695  17.85838364167478 10.437791444211665  Z M 28.234305744888022 4.054909779009259  C 28.496893257534843 4.85203023958087  28.628377799415777 5.811158422764116  28.628377799415777 6.932351152260593  C 28.628377799415777 7.772016857962129  28.561400536824106 8.52188096120888  28.427661148977606 9.181793606812192  C 28.293921761131102 9.841770872051766  28.08146403359299 10.401160397239252  27.790667964946444 10.860005406501319  C 27.499938901134218 11.318915006525815  27.121775537537275 11.668482753709577  26.65556377799416 11.908562546462122  C 26.189352018451043 12.148642339214662  25.62596581650895 12.268567952963439  24.965912366114896 12.268567952963439  C 24.134061455924417 12.268567952963439  23.44873738836569 12.057587930058405  22.910161635832523 11.635365276745286  C 22.371518908418025 11.213142623432168  21.97159290180745 10.603345624126195  21.710278481012658 9.806244509022099  C 21.448964060217868 9.009078832029402  21.318169425511197 8.051108778252138  21.318169425511197 6.932351152260593  C 21.318169425511197 5.818256881145672  21.437438105478257 4.862674289050356  21.675435248296004 4.065553828478746  C 21.913499395948076 3.268433367907135  22.300186406478215 2.6565177222961682  22.835076923076922 2.229573562208556  C 23.369967439675634 1.8026294021209428  24.080056458054408 1.58903831857809  24.965912366114896 1.58903831857809  C 25.8001754503408 1.58903831857809  26.487969441295945 1.800741544356014  27.02902434274586 2.2241332702574845  C 27.570079244195774 2.6475314638973484  27.971785237075522 3.2577893184376476  28.234305744888022 4.054909779009259  Z M 23.24338072054528 4.748428735554504  C 23.123109079749117 5.333856595918408  23.06278481012658 6.061889079210524  23.06278481012658 6.932351152260593  C 23.06278481012658 7.809866409523467  23.123866014222436 8.541476880343144  23.245343719571565 9.12691761843617  C 23.366821424920694 9.712358356529196  23.566572533300114 10.150920711434065  23.84503992210321 10.442995201730081  C 24.123574315740626 10.73513428278853  24.49722148760802 10.881293505440292  24.965912366114896 10.881293505440292  C 25.432124125658017 10.881293505440292  25.805148365232473 10.736529004374832  26.08482181110029 10.446779752652565  C 26.36456226180243 10.157030500930299  26.56645016393318 9.719217855076197  26.690407010710807 9.133777116983174  C 26.81429685265412 8.548336378890147  26.876401168451803 7.814581448559569  26.876401168451803 6.932351152260593  C 26.876401168451803 6.061889079210524  26.815053787127443 5.333856595918408  26.6923700097371 4.748428735554504  C 26.569686232346754 4.163007342928993  26.368754452060003 3.722576533474374  26.090220058422588 3.426910860309522  C 25.81175266961949 3.1312387194062774  25.437015388704204 2.983408799080895  24.965912366114896 2.983408799080895  C 24.49233022456183 2.983408799080895  24.116969981400622 3.1312387194062774  23.839641674780914 3.426910860309522  C 23.562380372995527 3.722576533474374  23.36358535650712 4.163007342928993  23.24338072054528 4.748428735554504  Z M 36.854325219084714 4.054909779009259  C 37.11684572689721 4.85203023958087  37.24790652385589 5.811158422764116  37.24790652385589 6.932351152260593  C 37.24790652385589 7.772016857962129  37.1814200110208 8.52188096120888  37.047680623174294 9.181793606812192  C 36.91394123532779 9.841770872051766  36.70141650295536 10.401160397239252  36.41068743914314 10.860005406501319  C 36.119891370496596 11.318915006525815  35.74130426197739 11.668482753709577  35.275092502434276 11.908562546462122  C 34.808880742891155 12.148642339214662  34.24598529070563 12.268567952963439  33.58593184031159 12.268567952963439  C 32.75414790500244 12.268567952963439  32.06882383744371 12.057587930058405  31.53018111002921 11.635365276745286  C 30.991605357496045 11.213142623432168  30.591612376004136 10.603345624126195  30.330297955209346 9.806244509022099  C 30.068983534414556 9.009078832029402  29.93867964946446 8.051108778252138  29.93867964946446 6.932351152260593  C 29.93867964946446 5.818256881145672  30.05745757967495 4.862674289050356  30.295454722492696 4.065553828478746  C 30.533451865310447 3.268433367907135  30.920138845887596 2.6565177222961682  31.455096397273614 2.229573562208556  C 31.989986913872322 1.8026294021209428  32.700142907132424 1.58903831857809  33.58593184031159 1.58903831857809  C 34.42019492453748 1.58903831857809  35.10798891549264 1.800741544356014  35.64904381694255 2.2241332702574845  C 36.19009871839247 2.6475314638973484  36.5917377064379 3.2577893184376476  36.854325219084714 4.054909779009259  Z M 31.863400194741967 4.748428735554504  C 31.743195558780123 5.333856595918408  31.68280428432327 6.061889079210524  31.68280428432327 6.932351152260593  C 31.68280428432327 7.809866409523467  31.743885488419128 8.541476880343144  31.86536319376826 9.12691761843617  C 31.986840899117386 9.712358356529196  32.186592007496806 10.150920711434065  32.46505939629991 10.442995201730081  C 32.74359378993732 10.73513428278853  33.117307966639025 10.881293505440292  33.58593184031159 10.881293505440292  C 34.0521435998547 10.881293505440292  34.42510083459484 10.736529004374832  34.70484128529698 10.446779752652565  C 34.98458173599912 10.157030500930299  35.186536642964185 9.719217855076197  35.310426484907495 9.133777116983174  C 35.43431632685081 8.548336378890147  35.495929892891915 7.814581448559569  35.495929892891915 6.932351152260593  C 35.495929892891915 6.061889079210524  35.43458251156756 5.333856595918408  35.31189873417721 4.748428735554504  C 35.18921495678687 4.163007342928993  34.98870692142238 3.722576533474374  34.710239532619276 3.426910860309522  C 34.43170513898186 3.1312387194062774  34.05703486290089 2.983408799080895  33.58593184031159 2.983408799080895  C 33.112349698758514 2.983408799080895  32.736922450763 3.1312387194062774  32.4596611489776 3.426910860309522  C 32.182399847192215 3.722576533474374  31.983671835538125 4.163007342928993  31.863400194741967 4.748428735554504  Z M 45.4743446932814 4.054909779009259  C 45.73693220592822 4.85203023958087  45.86841674780916 5.811158422764116  45.86841674780916 6.932351152260593  C 45.86841674780916 7.772016857962129  45.801439485217486 8.52188096120888  45.66770009737099 9.181793606812192  C 45.53396070952448 9.841770872051766  45.32150298198637 10.401160397239252  45.03070691333983 10.860005406501319  C 44.7399778495276 11.318915006525815  44.36181448593066 11.668482753709577  43.89560272638754 11.908562546462122  C 43.42939096684442 12.148642339214662  42.86600476490232 12.268567952963439  42.205951314508276 12.268567952963439  C 41.374100404317794 12.268567952963439  40.68877633675906 12.057587930058405  40.1502005842259 11.635365276745286  C 39.61162483169274 11.213142623432168  39.211698855035145 10.603345624126195  38.950317429406034 9.806244509022099  C 38.689003008611245 9.009078832029402  38.55820837390458 8.051108778252138  38.55820837390458 6.932351152260593  C 38.55820837390458 5.818256881145672  38.67747705387164 4.862674289050356  38.91547419668938 4.065553828478746  C 39.15353834434145 3.268433367907135  39.539734605115015 2.6565177222961682  40.07462512171372 2.229573562208556  C 40.609582673099744 1.8026294021209428  41.32016238132911 1.58903831857809  42.205951314508276 1.58903831857809  C 43.04021439873418 1.58903831857809  43.72800838968933 1.800741544356014  44.26906329113924 2.2241332702574845  C 44.81011819258916 2.6475314638973484  45.2118241854689 3.2577893184376476  45.4743446932814 4.054909779009259  Z M 40.48341966893865 4.748428735554504  C 40.36321503297682 5.333856595918408  40.30331450827653 6.061889079210524  40.30331450827653 6.932351152260593  C 40.30331450827653 7.809866409523467  40.36397195996189 8.541476880343144  40.48538266796495 9.12691761843617  C 40.60686037331407 9.712358356529196  40.80654447685918 10.150920711434065  41.085078870496595 10.442995201730081  C 41.36354625929969 10.73513428278853  41.7372604360014 10.881293505440292  42.205951314508276 10.881293505440292  C 42.6721630740514 10.881293505440292  43.04512030879154 10.736529004374832  43.32486075949367 10.446779752652565  C 43.60453420536149 10.157030500930299  43.80648911232656 9.719217855076197  43.93044595910418 9.133777116983174  C 44.05433580104749 8.548336378890147  44.11594936708861 7.814581448559569  44.11594936708861 6.932351152260593  C 44.11594936708861 6.061889079210524  44.05460198576425 5.333856595918408  43.9319182083739 4.748428735554504  C 43.80923443098356 4.163007342928993  43.60879340045338 3.722576533474374  43.330259006815965 3.426910860309522  C 43.05179161801287 3.1312387194062774  42.67705433709759 2.983408799080895  42.205951314508276 2.983408799080895  C 41.73236917295521 2.983408799080895  41.356941924959685 3.1312387194062774  41.0796806231743 3.426910860309522  C 40.80241932138891 3.722576533474374  40.60369130973482 4.163007342928993  40.48341966893865 4.748428735554504  Z M 54.79711781888997 9.7591741569237  L 54.79711781888997 6.82803946745962  L 56.58737293086661 6.82803946745962  L 56.58737293086661 9.7591741569237  L 54.79711781888997 9.7591741569237  Z M 60 10.135973508143543  L 60 0  L 62 0  L 62 10.135973508143543  L 60 10.135973508143543  Z M 52.83755404089581 13  L 52.83755404089581 11.731398256403324  L 63 11.731398256403324  L 63 13  L 52.83755404089581 13  Z M 52.83755404089581 12.105595728863959  L 52.83755404089581 9.167128471987565  L 54.62829990262902 9.167128471987565  L 54.62829990262902 12.105595728863959  L 52.83755404089581 12.105595728863959  Z M 53.9780564751704 7.330675136852065  C 53.00147751909385 7.35166677913368  52.096443371736555 7.365308571661002  51.26224732229796 7.371832128134081  C 51.26224732229796 7.371832128134081  51.039937682570596 5.986686490504832  51.039937682570596 5.986686490504832  C 51.887601494036026 5.980175851913548  52.81166207894657 5.969523551746535  53.811692307692304 5.954990876529026  C 54.81192352098801 5.940458201311517  55.832977692155545 5.905014669185411  56.87495228821811 5.848550381834155  C 57.917060834043326 5.791931078096753  58.9223390659232 5.705570045384054  59.89060954235638 5.589308643643982  C 59.89060954235638 5.589308643643982  60.01133398247322 6.824018382104481  60.01133398247322 6.824018382104481  C 59.02617858732199 6.982198488473038  58.01849734702106 7.100923124048979  56.98831548198637 7.180239237683313  C 55.95813361695168 7.259426169792785  54.954702406128284 7.3096189056126315  53.9780564751704 7.330675136852065  Z M 58.22107887049659 8.99540447387984  L 58.22107887049659 7.799722916807461  L 61.301515092502434 7.799722916807461  L 61.301515092502434 8.99540447387984  L 58.22107887049659 8.99540447387984  Z M 53.71599610516066 0.7772521457052105  C 54.23721787518257 0.5784903591594528  54.83631735428584 0.4792187605595729  55.513121713729305 0.4792187605595729  C 56.19341026465129 0.4792187605595729  56.79173108587664 0.5784903591594528  57.30779357351509 0.7772521457052105  C 57.82399007082218 0.975865376384756  58.226652222987155 1.2536896632605004  58.51651022395326 1.610799486382375  C 58.80643522975369 1.9677607536380368  58.951805258033104 2.382083122251871  58.951805258033104 2.853787929985808  C 58.951805258033104 3.325344181853532  58.80643522975369 3.7405140263136634  58.51651022395326 4.099141717915794  C 58.226652222987155 4.4577629417795315  57.82399007082218 4.734040803955062  57.30779357351509 4.927958369939853  C 56.79173108587664 5.121727380058431  56.19341026465129 5.218659187673177  55.513121713729305 5.218659187673177  C 54.83631735428584 5.218659187673177  54.23721787518257 5.121727380058431  53.71599610516066 4.927958369939853  C 53.19490834480739 4.734040803955062  52.78928545958343 4.4577629417795315  52.49942745861733 4.099141717915794  C 52.20950245281691 3.7405140263136634  52.064623174294056 3.325344181853532  52.064623174294056 2.853787929985808  C 52.064623174294056 2.382083122251871  52.20950245281691 1.9677607536380368  52.49942745861733 1.610799486382375  C 52.78928545958343 1.2536896632605004  53.19490834480739 0.975865376384756  53.71599610516066 0.7772521457052105  Z M 56.42002726387537 1.8780833952828275  C 56.162934057783595 1.7911909108162893  55.86066991854689 1.747752922889775  55.513121713729305 1.747752922889775  C 54.995384135185915 1.747752922889775  54.57458649709789 1.8427048807104849  54.250422590068155 2.0325403798067176  C 53.92645969754138 2.222369411164557  53.76408958130477 2.4960709767961307  53.76408958130477 2.853787929985808  C 53.76408958130477 3.20484571127567  53.92645969754138 3.4762074570482775  54.250422590068155 3.667702912752585  C 54.57458649709789 3.8592048217583694  54.995384135185915 3.9548557139960807  55.513121713729305 3.9548557139960807  C 56.02757614525012 3.9548557139960807  56.4453261267078 3.8592048217583694  56.766005842259005 3.667702912752585  C 57.08668555781021 3.4762074570482775  57.2469406037001 3.20484571127567  57.2469406037001 2.853787929985808  C 57.2469406037001 2.615213070236735  57.173533078558606 2.4147174245096132  57.02659396299903 2.2522808677434614  C 56.879587842605126 2.089695755111097  56.67725447963577 1.9649758797493657  56.42002726387537 1.8780833952828275  Z " fill-rule="nonzero" fill="#ff3c26" stroke="none" transform="matrix(1 0 0 1 326 338 )" />
  </g>
</svg>