<?xml version="1.0" encoding="utf-8"?>
<svg version="1.1" xmlns:xlink="http://www.w3.org/1999/xlink" width="32px" height="32px" xmlns="http://www.w3.org/2000/svg">
  <g transform="matrix(1 0 0 1 -199 -84 )">
    <path d="M 23.583779590524752 15.964814906834075  C 23.583779590524752 15.964814906834075  31.909990296248157 7.614784288252939  31.909990296248157 7.614784288252939  C 31.909990296248157 7.614784288252939  24.3079761699552 0  24.3079761699552 0  C 24.3079761699552 0  15.97727535255359 8.354498226457862  15.97727535255359 8.354498226457862  C 15.97727535255359 8.354498226457862  7.663458135454478 0.03656257555592178  7.663458135454478 0.03656257555592178  C 7.663458135454478 0.03656257555592178  0.061413075255409004 7.651349749754616  0.061413075255409004 7.651349749754616  C 0.061413075255409004 7.651349749754616  8.379671395297683 15.973711037572496  8.379671395297683 15.973711037572496  C 8.379671395297683 15.973711037572496  0 24.37735056744173  0 24.37735056744173  C 0 24.37735056744173  7.602046008179608 31.992106733549708  7.602046008179608 31.992106733549708  C 7.602046008179608 31.992106733549708  15.986156599306664 23.58406775625679  15.986156599306664 23.58406775625679  C 15.986156599306664 23.58406775625679  24.397989680499478 32  24.397989680499478 32  C 24.397989680499478 32  32 24.385247647064222  32 24.385247647064222  C 32 24.385247647064222  23.583779590524752 15.964814906834075  23.583779590524752 15.964814906834075  Z " fill-rule="nonzero" fill="#6100ff" stroke="none" transform="matrix(1 0 0 1 199 84 )" />
  </g>
</svg>