<?xml version="1.0" encoding="utf-8"?>
<svg version="1.1" xmlns:xlink="http://www.w3.org/1999/xlink" width="33px" height="33px" xmlns="http://www.w3.org/2000/svg">
  <g transform="matrix(1 0 0 1 -131 -469 )">
    <path d="M 0 27.041666666666668  C 0 27.041666666666668  0 4.125  0 4.125  C 0 3.030982007582982  0.43459690610567736 1.9817719757556915  1.2081844409306846 1.2081844409306846  C 1.9817719757556915 0.43459690610567736  3.030982007582982 0  4.125 0  C 4.125 0  21.541666666666668 0  21.541666666666668 0  C 22.635684659083687 0  23.68489425381025 0.43459690610567736  24.458481788635257 1.2081844409306846  C 25.232069323460266 1.9817719757556915  25.666666666666668 3.030982007582982  25.666666666666668 4.125  C 25.666666666666668 4.125  25.666666666666668 20.166666666666668  25.666666666666668 20.166666666666668  L 33 20.166666666666668  C 33 20.166666666666668  33 27.041666666666668  33 27.041666666666668  C 32.99999999999999 28.6219149629275  32.372249921162926 30.137441317240395  31.25484561920166 31.25484561920166  C 30.137441317240395 32.372249921162926  28.6219149629275 33  27.041666666666668 33  C 27.041666666666668 33  5.958333333333334 33  5.958333333333334 33  C 4.3780850370725 32.99999999999999  2.8625595569610596 32.372249921162926  1.7451552549997966 31.25484561920166  C 0.6277509530385335 30.137441317240395  0 28.6219149629275  0 27.041666666666668  Z M 25.666666666666668 22.916666666666668  L 25.666666666666668 30.25  C 25.666666666666668 30.25  27.041666666666668 30.25  27.041666666666668 30.25  C 27.89256956179937 30.25  28.70862066745758 29.91197907924652  29.31029987335205 29.31029987335205  C 29.91197907924652 28.70862066745758  30.25 27.89256956179937  30.25 27.041666666666668  C 30.25 27.041666666666668  30.25 22.916666666666668  30.25 22.916666666666668  L 25.666666666666668 22.916666666666668  Z M 21.541666666666668 2.75  C 21.541666666666668 2.75  4.125 2.75  4.125 2.75  C 3.7603273267547292 2.7500000000000018  3.4105905219912533 2.8948654805620513  3.1527280012766523 3.1527280012766523  C 2.8948654805620513 3.4105905219912533  2.7500000000000018 3.7603273267547292  2.75 4.125  C 2.75 4.125  2.75 27.041666666666668  2.75 27.041666666666668  C 2.75 28.81266670425733  4.187333295742671 30.25  5.958333333333334 30.25  C 5.958333333333334 30.25  22.916666666666668 30.25  22.916666666666668 30.25  C 22.916666666666668 30.25  22.916666666666668 4.125  22.916666666666668 4.125  C 22.916666666666664 3.7603273267547292  22.77180031190316 3.4105905219912533  22.51393779118856 3.1527280012766523  C 22.25607527047396 2.8948654805620513  21.906339339911938 2.7500000000000018  21.541666666666668 2.75  Z M 17.875 7.333333333333334  C 17.875 7.333333333333334  7.791666666666667 7.333333333333334  7.791666666666667 7.333333333333334  C 7.426993993421396 7.333333333333334  7.07725718865792 7.478198813895384  6.819394667943319 7.736061334609985  C 6.561532147228719 7.993923855324587  6.416666666666669 8.343660660088062  6.416666666666667 8.708333333333334  C 6.416666666666669 9.073006006578606  6.561532147228719 9.422741937140623  6.819394667943319 9.680604457855225  C 7.07725718865792 9.938466978569826  7.426993993421396 10.083333333333334  7.791666666666667 10.083333333333334  C 7.791666666666667 10.083333333333334  17.875 10.083333333333334  17.875 10.083333333333334  C 18.23967267324527 10.08333333333333  18.589408603807293 9.938466978569826  18.847271124521892 9.680604457855225  C 19.105133645236492 9.422741937140623  19.25 9.073006006578606  19.25 8.708333333333334  C 19.25 8.343660660088062  19.105133645236492 7.993923855324587  18.847271124521892 7.736061334609985  C 18.589408603807293 7.478198813895384  18.23967267324527 7.333333333333334  17.875 7.333333333333334  Z M 6.819394667943319 17.01393779118856  C 6.561532147228719 16.75607527047396  6.416666666666667 16.406339339911938  6.416666666666667 16.041666666666668  C 6.416666666666667 15.676993993421396  6.561532147228719 15.327258062859375  6.819394667943319 15.069395542144775  C 7.07725718865792 14.811533021430176  7.426993993421396 14.666666666666668  7.791666666666667 14.666666666666668  C 7.791666666666667 14.666666666666668  17.875 14.666666666666668  17.875 14.666666666666668  C 18.23967267324527 14.666666682036468  18.589408603807293 14.811533021430176  18.847271124521892 15.069395542144775  C 19.105133645236492 15.327258062859375  19.25 15.676993993421396  19.25 16.041666666666668  C 19.25 16.406339339911938  19.105133645236492 16.75607527047396  18.847271124521892 17.01393779118856  C 18.589408603807293 17.27180031190316  18.23967267324527 17.416666651296865  17.875 17.416666666666668  C 17.875 17.416666666666668  7.791666666666667 17.416666666666668  7.791666666666667 17.416666666666668  C 7.426993993421396 17.416666666666664  7.07725718865792 17.27180031190316  6.819394667943319 17.01393779118856  Z M 13.291666666666668 22  C 13.291666666666668 22  7.791666666666667 22  7.791666666666667 22  C 7.426993993421396 22  7.07725718865792 22.14486635476351  6.819394667943319 22.40272887547811  C 6.561532147228719 22.66059139619271  6.416666666666669 23.01032732675473  6.416666666666667 23.375000000000004  C 6.416666666666669 23.739672673245273  6.561532147228719 24.08941035221021  6.819394667943319 24.34727287292481  C 7.07725718865792 24.605135393639408  7.426993993421396 24.750000000000004  7.791666666666667 24.750000000000004  C 7.791666666666667 24.750000000000004  13.291666666666668 24.750000000000004  13.291666666666668 24.750000000000004  C 13.65633933991194 24.750000000000004  14.006075270473959 24.605135393639408  14.26393779118856 24.34727287292481  C 14.52180031190316 24.08941035221021  14.666666666666668 23.739672673245273  14.666666666666668 23.375000000000004  C 14.666666666666668 23.01032732675473  14.52180031190316 22.66059139619271  14.26393779118856 22.40272887547811  C 14.006075270473959 22.14486635476351  13.65633933991194 22  13.291666666666668 22  Z " fill-rule="nonzero" fill="#fc4a36" stroke="none" transform="matrix(1 0 0 1 131 469 )" />
  </g>
</svg>