<?xml version="1.0" encoding="utf-8"?>
<svg version="1.1" xmlns:xlink="http://www.w3.org/1999/xlink" width="33px" height="33px" xmlns="http://www.w3.org/2000/svg">
  <g transform="matrix(1 0 0 1 -304 -277 )">
    <path d="M 0 0  L 0 15  L 15 15  L 15 0  L 0 0  Z M 3.664630714116191 11  L 3.664630714116191 3.666666666666667  L 10.993892142348573 3.666666666666667  L 10.993892142348573 11  L 3.664630714116191 11  Z M 0 18  L 0 33  L 15 33  L 15 18  L 0 18  Z M 3.664630714116191 29.333333333333336  L 3.664630714116191 22  L 10.993892142348573 22  L 10.993892142348573 29.333333333333336  L 3.664630714116191 29.333333333333336  Z M 33 0  L 18 0  L 18 15  L 33 15  L 33 0  Z M 29.317045712929527 3.666666666666667  L 29.317045712929527 11  L 21.987784284697145 11  L 21.987784284697145 3.666666666666667  L 29.317045712929527 3.666666666666667  Z M 18.341477143535236 22  L 18.341477143535236 18.333333333333336  L 22.00610785765143 18.333333333333336  L 22.00610785765143 22  L 18.341477143535236 22  Z M 22.00610785765143 25.666666666666668  L 22.00610785765143 22  L 25.67073857176762 22  L 25.67073857176762 25.666666666666668  L 22.00610785765143 25.666666666666668  Z M 18.341477143535236 29.333333333333336  L 18.341477143535236 25.666666666666668  L 22.00610785765143 25.666666666666668  L 22.00610785765143 29.333333333333336  L 18.341477143535236 29.333333333333336  Z M 25.67073857176762 29.333333333333336  L 25.67073857176762 25.666666666666668  L 29.33536928588381 25.666666666666668  L 29.33536928588381 29.333333333333336  L 25.67073857176762 29.333333333333336  Z M 29.33536928588381 33  L 29.33536928588381 29.333333333333336  L 33 29.333333333333336  L 33 33  L 29.33536928588381 33  Z M 22.00610785765143 33  L 22.00610785765143 29.333333333333336  L 25.67073857176762 29.333333333333336  L 25.67073857176762 33  L 22.00610785765143 33  Z M 25.67073857176762 22  L 25.67073857176762 18.333333333333336  L 29.33536928588381 18.333333333333336  L 29.33536928588381 22  L 25.67073857176762 22  Z M 29.33536928588381 25.666666666666668  L 29.33536928588381 22  L 33 22  L 33 25.666666666666668  L 29.33536928588381 25.666666666666668  Z " fill-rule="nonzero" fill="#fc4a36" stroke="none" transform="matrix(1 0 0 1 304 277 )" />
  </g>
</svg>