<?xml version="1.0" encoding="utf-8"?>
<svg version="1.1" xmlns:xlink="http://www.w3.org/1999/xlink" width="17px" height="17px" viewBox="55 526  17 17" xmlns="http://www.w3.org/2000/svg">
  <path d="M 55.5 529  A 2.5 2.5 0 0 1 58 526.5 L 69 526.5  A 2.5 2.5 0 0 1 71.5 529 L 71.5 540  A 2.5 2.5 0 0 1 69 542.5 L 58 542.5  A 2.5 2.5 0 0 1 55.5 540 L 55.5 529  Z " fill-rule="nonzero" fill="#ffffff" stroke="none" />
  <path d="M 55.5 529  A 2.5 2.5 0 0 1 58 526.5 L 69 526.5  A 2.5 2.5 0 0 1 71.5 529 L 71.5 540  A 2.5 2.5 0 0 1 69 542.5 L 58 542.5  A 2.5 2.5 0 0 1 55.5 540 L 55.5 529  Z " stroke-width="1" stroke="#aaaaaa" fill="none" />
  <path d="M 58.64285714285714 534.5  L 62.285714285714285 538.1428571428572  L 68.35714285714286 529.6428571428571  " stroke-width="3.6428571428571423" stroke="#aaaaaa" fill="none" />
</svg>