<?xml version="1.0" encoding="utf-8"?>
<svg version="1.1" xmlns:xlink="http://www.w3.org/1999/xlink" width="40px" height="40px" viewBox="107 1412  40 40" xmlns="http://www.w3.org/2000/svg">
  <path d="M 107.5 1415  A 2.5 2.5 0 0 1 110 1412.5 L 144 1412.5  A 2.5 2.5 0 0 1 146.5 1415 L 146.5 1449  A 2.5 2.5 0 0 1 144 1451.5 L 110 1451.5  A 2.5 2.5 0 0 1 107.5 1449 L 107.5 1415  Z " fill-rule="nonzero" fill="#ffffff" stroke="none" />
  <path d="M 107.5 1415  A 2.5 2.5 0 0 1 110 1412.5 L 144 1412.5  A 2.5 2.5 0 0 1 146.5 1415 L 146.5 1449  A 2.5 2.5 0 0 1 144 1451.5 L 110 1451.5  A 2.5 2.5 0 0 1 107.5 1449 L 107.5 1415  Z " stroke-width="1" stroke="#aaaaaa" fill="none" />
</svg>