<?xml version="1.0" encoding="utf-8"?>
<svg version="1.1" xmlns:xlink="http://www.w3.org/1999/xlink" width="147px" height="28px" xmlns="http://www.w3.org/2000/svg">
  <g transform="matrix(1 0 0 1 -81 -139 )">
    <path d="M 2.6751841245128483 1.6265103335607978  C 2.6751841245128483 1.6265103335607978  2.6751841245128483 0.5529488763346618  2.6751841245128483 0.5529488763346618  L 3.492631059153751 0.5529488763346618  C 3.492631059153751 0.5529488763346618  3.492631059153751 1.6265103335607978  3.492631059153751 1.6265103335607978  C 3.492631059153751 2.2989414525362695  3.370673134015364 2.9258580717308558  3.1267561289236685 3.507245034893366  C 2.88283116449221 4.088639766935206  2.538370500333457 4.594510344381737  2.0933791288011454 5.024857877072863  C 1.6485070052342135 5.455081281107227  1.12607758263945 5.783350144104784  0.5260896173700176 6.009676535574491  C 0.5260896173700176 6.009676535574491  0 5.239056978546477  0 5.239056978546477  C 0.5433545978974812 5.043763965155149  1.015607347708205 4.765010817569907  1.416762477831421 4.402797050235793  C 1.8179176079546369 4.040459154244916  2.1279094274173573 3.6205338506323557  2.346740832140077 3.1430310932747507  C 2.565699408635172 2.6654042072603823  2.6751841245128483 2.1598964434149712  2.6751841245128483 1.6265103335607978  Z M 2.854956046499252 1.6990761058444803  C 2.854956046499252 1.6990761058444803  2.854956046499252 0.5529488763346618  2.854956046499252 0.5529488763346618  L 3.65582936165631 0.5529488763346618  C 3.65582936165631 0.5529488763346618  3.65582936165631 1.6990761058444803  3.65582936165631 1.6990761058444803  C 3.65582936165631 2.0537720257638235  3.7197937872920015 2.3982208285319544  3.8477176728592237 2.732434722387817  C 3.975760788625442 3.0665322564662443  4.155839900264019 3.377355858155167  4.387961270425104 3.664895573577946  C 4.620209812358565 3.952318911882041  4.896611796710341 4.206713709444072  5.21716073875049 4.428074763889488  C 5.53770968079064 4.649303920798812  5.89216260313301 4.825860677625041  6.280528531100366 4.957752517116902  C 6.280528531100366 4.957752517116902  5.756294576943688 5.716740951950908  5.756294576943688 5.716740951950908  C 5.181511424475843 5.5059312495203905  4.675848990681848 5.20147322130715  4.239298996427038 4.803369347109723  C 3.8028761739446026 4.405273241791624  3.463018246733229 3.9398385020427393  3.2197212173566516 3.4070575670787235  C 2.97654341817907 2.8741602376547752  2.854956046499252 2.304831997191788  2.854956046499252 1.6990761058444803  Z M 7.429402373476664 6.391532492307224  L 7.429402373476664 0.009082929774404428  L 8.418070625101329 0.009082929774404428  L 8.418070625101329 6.391532492307224  L 7.429402373476664 6.391532492307224  Z M 8.148126205890252 3.5385247627479384  L 8.148126205890252 2.7264415869061724  L 10.009392794422862 2.7264415869061724  L 10.009392794422862 3.5385247627479384  L 8.148126205890252 3.5385247627479384  Z M 3.0904251540507395 6.903035507266598  C 3.622230536755365 6.752112453913898  4.253402377962979 6.676645924287356  4.9839293427209705 6.676645924287356  C 5.722269749701582 6.676645924287356  6.354545274178757 6.752112453913898  6.880762809509253 6.903035507266598  C 7.4071075521448915 7.053842183500613  7.812669740268721 7.272531905320827  8.097450226667146 7.559101828762484  C 8.382357884837944 7.845555375085457  8.524816741809847 8.191599971564315  8.524816741809847 8.597237196252673  C 8.524816741809847 8.999895194448706  8.382357884837944 9.344054623803117  8.097450226667146 9.629716819592035  C 7.812669740268721 9.915301430635164  7.4071075521448915 10.133542673086668  6.880762809509253 10.28444245448388  C 6.354545274178757 10.435342235881093  5.722269749701582 10.51078764386696  4.9839293427209705 10.51078764386696  C 4.253402377962979 10.51078764386696  3.622230536755365 10.435342235881093  3.0904251540507395 10.28444245448388  C 2.558739019311493 10.133542673086668  2.150450704019652 9.915301430635164  1.865550987422232 9.629716819592035  C 1.5806433292514324 9.344054623803117  1.43818447227953 8.999895194448706  1.43818447227953 8.597237196252673  C 1.43818447227953 8.191599971564315  1.5806433292514324 7.845555375085457  1.865550987422232 7.559101828762484  C 2.150450704019652 7.272531905320827  2.558739019311493 7.053842183500613  3.0904251540507395 6.903035507266598  Z M 6.361013374784811 7.581289748123419  C 5.976995307228582 7.490610235413295  5.517968244081082 7.445267769488155  4.9839293427209705 7.445267769488155  C 4.452863183696843 7.445267769488155  3.9957561691361247 7.490610235413295  3.6126124208397634 7.581289748123419  C 3.229468672543403 7.671961509295465  2.9336351860404783 7.802823001166441  2.725105103506998 7.973871197688489  C 2.5165829625468974 8.144795265553773  2.412316695399703 8.35258559650169  2.412316695399703 8.597237196252673  C 2.412316695399703 8.838909586852584  2.5165829625468974 9.046015528087194  2.725105103506998 9.218561089393482  C 2.9336351860404783 9.391029065953981  3.229468672543403 9.522613913323644  3.6126124208397634 9.613308946451175  C 3.9957561691361247 9.703848810087129  4.452863183696843 9.74911783582487  4.9839293427209705 9.74911783582487  C 5.517968244081082 9.74911783582487  5.976995307228582 9.703848810087129  6.361013374784811 9.613308946451175  C 6.74502348300128 9.522613913323644  7.040049771640818 9.391029065953981  7.246091956441295 9.218561089393482  C 7.452253371440768 9.046015528087194  7.555332773111324 8.838909586852584  7.555332773111324 8.597237196252673  C 7.555332773111324 8.35258559650169  7.452253371440768 8.144795265553773  7.246091956441295 7.973871197688489  C 7.040049771640818 7.802823001166441  6.74502348300128 7.671961509295465  6.361013374784811 7.581289748123419  Z M 20 10.530107736915939  L 20 0.004537025527586181  L 21 0.004537025527586181  L 21 10.530107736915939  L 20 10.530107736915939  Z M 17.398725577435016 5.02467142396899  L 17.398725577435016 4.22622596086768  L 19.47461235153395 4.22622596086768  L 19.47461235153395 5.02467142396899  L 17.398725577435016 5.02467142396899  Z M 16.776359786290566 9.991755474998795  L 16.776359786290566 0.23837585394253186  L 17.70180813922548 0.23837585394253186  L 17.70180813922548 9.991755474998795  L 16.776359786290566 9.991755474998795  Z M 11.409063158637299 7.939865703029672  L 11.409063158637299 7.127791405907139  C 11.409063158637299 7.127791405907139  12.110603913550896 7.127791405907139  12.110603913550896 7.127791405907139  C 12.640294990032649 7.127791405907139  13.121103354966133 7.1208148861570315  13.553027302778546 7.106873143396389  C 13.985110224189617 7.092815025684717  14.399306768047435 7.062875673375542  14.795621233816783 7.017047140925569  C 15.19209467318479 6.97110223135691  15.595918171963586 6.9061221974758755  16.007096420478383 6.82211486018554  C 16.007096420478383 6.82211486018554  16.10665639042936 7.625106227533669  16.10665639042936 7.625106227533669  C 15.6771170110641 7.71238759254083  15.25996979071848 7.779666807183628  14.85522986635116 7.826946151836245  C 14.4506489155825 7.8742254964888625  14.028024425833031 7.904898201526484  13.587357072225323 7.918956319238155  C 13.146689718617615 7.932898061998799  12.654443391584124 7.939865703029672  12.110603913550896 7.939865703029672  C 12.110603913550896 7.939865703029672  11.409063158637299 7.939865703029672  11.409063158637299 7.939865703029672  Z M 11.409063158637299 7.496373677387932  L 11.409063158637299 1.2877605586997496  L 15.413220517491673 1.2877605586997496  L 15.413220517491673 2.0791119251346393  L 12.388398515865463 2.0791119251346393  L 12.388398515865463 7.496373677387932  L 11.409063158637299 7.496373677387932  Z M 25.028375842962923 6.84157701274223  C 25.560213027493834 6.685929128140688  26.192127112667123 6.608102211815799  26.92410864676682 6.608102211815799  C 27.656169703198618 6.608102211815799  28.286526351670318 6.685929128140688  28.815184099760774 6.84157701274223  C 29.343921334650556 6.997232648881853  29.750686395762468 7.21998098586603  30.035482783074034 7.509824937024513  C 30.320358657184933 7.799552511064311  30.462794719886933 8.150191012365836  30.462794719886933 8.56174007676287  C 30.462794719886933 8.971846106507213  30.320358657184933 9.323334831881452  30.035482783074034 9.616212287640062  C 29.750686395762468 9.909089743398672  29.343921334650556 10.133347115827332  28.815184099760774 10.288979480011466  C 28.286526351670318 10.444689428941391  27.656169703198618 10.522543068130219  26.92410864676682 10.522543068130219  C 26.192127112667123 10.522543068130219  25.560213027493834 10.444689428941391  25.028375842962923 10.288979480011466  C 24.496697632030674 10.133347115827332  24.088423032386814 9.909014066190219  23.80354715827592 9.615981440940027  C 23.518591815132073 9.323026400435628  23.37611696841511 8.971499836457163  23.37611696841511 8.56139380671282  C 23.37611696841511 8.151163648311712  23.518591815132073 7.800876827529769  23.80354715827592 7.510544113282311  C 24.088423032386814 7.22021915057293  24.496697632030674 6.997232648881853  25.028375842962923 6.84157701274223  Z M 28.299045931191703 7.523098622276452  C 27.914972219322664 7.431573446241972  27.456661176958942 7.385815865510234  26.92410864676682 7.385815865510234  C 26.3915561165747 7.385815865510234  25.93371936558222 7.431573446241972  25.55059949530515 7.523098622276452  C 25.167479625028076 7.614616038102231  24.87163471474063 7.748271924768392  24.663064888807483 7.924052704077362  C 24.454574549673666 8.099701603191487  24.35033105902999 8.311799829750559  24.35033105902999 8.560346117843435  C 24.35033105902999 8.815518028774502  24.454574549673666 9.031700483521574  24.663064888807483 9.208901042868993  C 24.87163471474063 9.386101602216414  25.167479625028076 9.521209801103213  25.55059949530515 9.614232333251312  C 25.93371936558222 9.707177289324243  26.3915561165747 9.753654861352457  26.92410864676682 9.753654861352457  C 27.456661176958942 9.753654861352457  27.914972219322664 9.707177289324243  28.299045931191703 9.614232333251312  C 28.68304015626141 9.521209801103213  28.978052729252962 9.386101602216414  29.18407903090668 9.208901042868993  C 29.39026430615906 9.031700483521574  29.493356233129912 8.815518028774502  29.493356233129912 8.560346117843435  C 29.493356233129912 8.311799829750559  29.39026430615906 8.099701603191487  29.18407903090668 7.924052704077362  C 28.978052729252962 7.748271924768392  28.68304015626141 7.614616038102231  28.299045931191703 7.523098622276452  Z M 29.367453122660155 6.327712258467127  L 29.367453122660155 0.009082929774404428  L 30.356084988731617 0.009082929774404428  L 30.356084988731617 6.327712258467127  L 29.367453122660155 6.327712258467127  Z M 30.086158762297142 3.461785992425184  L 30.086158762297142 2.64971169530265  L 31.94742535082975 2.64971169530265  L 31.94742535082975 3.461785992425184  L 30.086158762297142 3.461785992425184  Z M 22.43409499599635 5.523983957422736  L 22.43409499599635 0.6673245374821475  L 23.410810593393915 0.6673245374821475  L 23.410810593393915 2.24930809409413  L 26.454462118802542 2.24930809409413  L 26.454462118802542 0.6673245374821475  L 27.423909701947863 0.6673245374821475  L 27.423909701947863 5.523983957422736  L 22.43409499599635 5.523983957422736  Z M 26.454462118802542 3.01338403504811  L 23.410810593393915 3.01338403504811  L 23.410810593393915 4.74373099002793  L 26.454462118802542 4.74373099002793  L 26.454462118802542 3.01338403504811  Z M 34.964260723527964 1.0817387576388695  C 35.400874321435346 0.8734737967195035  35.89868454675814 0.769341021458596  36.45770575473414 0.769341021458596  C 37.0168859363088 0.769341021458596  37.51355371211347 0.8734737967195035  37.94770325477437 1.0817387576388695  C 38.3819322842346 1.2898795899014714  38.72281062367654 1.5802064948306827  38.97032832392548 1.9527233568661675  C 39.21784602417442 2.325123824441719  39.34159741241787 2.7577112915191107  39.34159741241787 3.2504902321404563  C 39.34159741241787 3.7355108022303343  39.21784602417442 4.166223090742413  38.97032832392548 4.542619120702383  C 38.72281062367654 4.918898756202419  38.3819322842346 5.211172077545783  37.94770325477437 5.419437038465149  C 37.51355371211347 5.627577870727751  37.0168859363088 5.731648321541548  36.45770575473414 5.731648321541548  C 35.89868454675814 5.731648321541548  35.400874321435346 5.627577870727751  34.964260723527964 5.419437038465149  C 34.52764712562058 5.211172077545783  34.18478493850907 4.918898756202419  33.9356775200399 4.542619120702383  C 33.68664958837006 4.166223090742413  33.56213433447234 3.7355108022303343  33.56213433447234 3.2504902321404563  C 33.56213433447234 2.7577112915191107  33.68664958837006 2.325123824441719  33.9356775200399 1.9527233568661675  C 34.18478493850907 1.5802064948306827  34.52764712562058 1.2898795899014714  34.964260723527964 1.0817387576388695  Z M 37.44384521041122 1.8147125451229196  C 37.1576975830438 1.6772424595197786  36.828982305107566 1.6085131696773982  36.45770575473414 1.6085131696773982  C 36.086588177959385 1.6085131696773982  35.75597568123904 1.6772424595197786  35.465853767204244 1.8147125451229196  C 35.175731853169445 1.9520584933986722  34.94716695763732 2.143957165491082  34.78016801709874 2.390408700130137  C 34.61308958976082 2.6367361061124277  34.52955342302661 2.9234294992434062  34.52955342302661 3.2504902321404563  C 34.52955342302661 3.5728261337886638  34.61308958976082 3.859166736560156  34.78016801709874 4.109497439123696  C 34.94716695763732 4.359704013030472  35.175731853169445 4.553537951114247  35.465853767204244 4.691000276508684  C 35.75597568123904 4.828346224784438  36.086588177959385 4.897013198850332  36.45770575473414 4.897013198850332  C 36.828982305107566 4.897013198850332  37.1576975830438 4.828346224784438  37.44384521041122 4.691000276508684  C 37.72999283777864 4.553537951114247  37.95656478925289 4.359704013030472  38.12356372979147 4.109497439123696  C 38.2906421571294 3.859166736560156  38.3741874202519 3.5728261337886638  38.3741874202519 3.2504902321404563  C 38.3741874202519 2.9234294992434062  38.2906421571294 2.6367361061124277  38.12356372979147 2.390408700130137  C 37.95656478925289 2.143957165491082  37.72999283777864 1.9520584933986722  37.44384521041122 1.8147125451229196  Z M 41 10.54372769221793  L 41 0  L 42 0  L 42 10.54372769221793  L 41 10.54372769221793  Z M 35.278304433220754 8.2191635739128  C 34.50713658217364 8.233834600711461  33.798798551102365 8.241173918889094  33.15329716229813 8.241173918889094  C 33.15329716229813 8.241173918889094  33.01857055517671 7.428549141174172  33.01857055517671 7.428549141174172  C 33.6769485922759 7.428549141174172  34.40046877968315 7.422731093775665  35.18912344232085 7.4110935791639285  C 35.97769865369199 7.399456064552194  36.79015472697376 7.368420560003216  37.626500687488935 7.317991329296476  C 38.46284664800412 7.2675620985897345  39.271451324692485 7.183315057556693  40.05231642312686 7.0652408289172275  C 40.05231642312686 7.0652408289172275  40.13243741127927 7.776222028863448  40.13243741127927 7.776222028863448  C 39.32613696345232 7.926656301785923  38.508358650228246 8.034422575839127  37.67908690825519 8.0995228322607  C 36.849815166282134 8.164623088682273  36.04955180659996 8.20450030515519  35.278304433220754 8.2191635739128  Z M 54.902188516768916 5.375434105951025  L 54.902188516768916 0.004537025527586181  L 55.895477733650324 0.004537025527586181  L 55.895477733650324 5.375434105951025  L 54.902188516768916 5.375434105951025  Z M 51.49667356837081 0.996458659414867  C 51.49667356837081 0.996458659414867  51.49667356837081 0.5240486452342841  51.49667356837081 0.5240486452342841  C 51.49667356837081 0.5240486452342841  52.56972901426091 0.5240486452342841  52.56972901426091 0.5240486452342841  C 52.56972901426091 1.4035267105169698  52.36946705123402 2.181235092471861  51.96893985616568 2.857180727598357  C 51.568571634696006 3.533002268750587  50.994802658458156 4.100271686826645  50.24763939441568 4.558991478966314  C 49.500476130373215 5.017579373569892  48.60153316057028 5.370340114204112  47.550814962135505 5.617272660394063  C 47.550814962135505 5.617272660394063  47.20243238660765 4.825921293959174  47.20243238660765 4.825921293959174  C 48.13416087181224 4.61560037195888  48.91852608990743 4.326298421522269  49.555522497781595 3.9580176103054026  C 50.19251890565576 3.5896204393111004  50.67527240530938 3.154486756716434  51.003785768298286 2.652615036491536  C 51.332378618086516 2.150751085145966  51.49667356837081 1.5987000346111502  51.49667356837081 0.996458659414867  Z M 47.75851279620501 1.3133934211227267  L 47.75851279620501 0.5240486452342841  L 51.94175075153493 0.5240486452342841  L 51.94175075153493 1.3133934211227267  L 47.75851279620501 1.3133934211227267  Z M 52.1821228123805 2.288756243642203  L 52.1821228123805 1.5266868932346698  L 55.06326736079741 1.5266868932346698  L 55.06326736079741 2.288756243642203  L 52.1821228123805 2.288756243642203  Z M 52.08613772303168 4.297681893247354  L 52.08613772303168 3.540167325805871  L 55.00818872963677 3.540167325805871  L 55.00818872963677 4.297681893247354  L 52.08613772303168 4.297681893247354  Z M 48.95604321960166 6.639737088439654  L 48.95604321960166 5.859297667940974  L 55.895477733650324 5.859297667940974  L 55.895477733650324 8.44463864881114  L 49.96125780154527 8.44463864881114  L 49.96125780154527 10.11755804779795  L 48.98251370955665 10.11755804779795  L 48.98251370955665 7.703301107810483  L 54.90946562740946 7.703301107810483  L 54.90946562740946 6.639737088439654  L 48.95604321960166 6.639737088439654  Z M 48.98251370955665 10.429911390382063  L 48.98251370955665 9.652171100529932  L 56.24947278075972 9.652171100529932  L 56.24947278075972 10.429911390382063  L 48.98251370955665 10.429911390382063  Z M 67 10.530107736915939  L 67 0.004537025527586181  L 68 0.004537025527586181  L 68 10.530107736915939  L 67 10.530107736915939  Z M 62.2652509303687 4.580442464630988  L 62.2652509303687 3.784554072668512  L 64.33648035365768 3.784554072668512  L 64.33648035365768 4.580442464630988  L 62.2652509303687 4.580442464630988  Z M 64.03673616637356 9.990938632829444  L 64.03673616637356 0.250735031113569  L 64.96707837621425 0.250735031113569  L 64.96707837621425 9.990938632829444  L 64.03673616637356 9.990938632829444  Z M 60.20105301523614 2.979564993493167  C 60.20105301523614 2.979564993493167  60.20105301523614 1.639970471916611  60.20105301523614 1.639970471916611  L 60.962684511264044 1.639970471916611  C 60.962684511264044 1.639970471916611  60.962684511264044 2.979564993493167  60.962684511264044 2.979564993493167  C 60.962684511264044 3.552953097690011  60.90715262413012 4.11415633894574  60.79611144870194 4.663183249154619  C 60.68522923798923 5.212202425166667  60.52335370491313 5.725887489424811  60.31049166288167 6.204235910106773  C 60.09770910764953 6.682467936328802  59.83633076796104 7.113119010233676  59.52633750942126 7.496187224284059  C 59.216344250881484 7.879255438334441  58.864821502620465 8.191529097881697  58.47176592455814 8.433007526617132  C 58.47176592455814 8.433007526617132  57.8627445350508 7.712934518177276  57.8627445350508 7.712934518177276  C 58.36397979929817 7.412787506999918  58.78743660857715 7.015418797691406  59.13311883595932 6.520824401764582  C 59.47888055014082 6.026230005837758  59.74329617743619 5.4723561473080995  59.92635118494381 4.85919873364096  C 60.10948567925075 4.246049088853148  60.20105301523614 3.6195041619789143  60.20105301523614 2.979564993493167  Z M 60.40231060638876 2.979564993493167  C 60.40231060638876 2.979564993493167  60.40231060638876 1.639970471916611  60.40231060638876 1.639970471916611  L 61.159166498558804 1.639970471916611  C 61.159166498558804 1.639970471916611  61.159166498558804 2.979564993493167  61.159166498558804 2.979564993493167  C 61.159166498558804 3.5881061668095717  61.24755056056493 4.183740248867329  61.42432621752373 4.766469389981253  C 61.6010223876832 5.349190762215849  61.859032700771444 5.8751752457026996  62.19835609080547 6.344430886781109  C 62.53767948083949 6.813570133399585  62.9539852852673 7.188277628651848  63.447272011712684 7.468547771314634  C 63.447272011712684 7.468547771314634  62.847565323825236 8.179528971260854  62.847565323825236 8.179528971260854  C 62.32463051868828 7.865316057235077  61.88133750681069 7.441580326407086  61.51769154704194 6.908318345209677  C 61.154125074072525 6.374932235355504  60.877343457640265 5.769898953833197  60.68737322295557 5.093224015159779  C 60.497323501471556 4.416549076486361  60.40231060638876 3.7119991213238936  60.40231060638876 2.979564993493167  Z M 58.15783137152496 2.0309182371429806  L 58.15783137152496 1.232481652760901  L 63.08196105755724 1.232481652760901  L 63.08196105755724 2.0309182371429806  L 58.15783137152496 2.0309182371429806  Z M 70.12738668808547 1.8234403261280412  L 70.12738668808547 1.0295407672735482  L 76.96810719629511 1.0295407672735482  L 76.96810719629511 1.8234403261280412  L 70.12738668808547 1.8234403261280412  Z M 68.96050199687382 9.10055403208008  L 68.96050199687382 8.302081932821075  L 78.70478965066157 8.302081932821075  L 78.70478965066157 9.10055403208008  L 68.96050199687382 9.10055403208008  Z M 76.56142586814816 2.034185605820381  C 76.56142586814816 2.034185605820381  76.56142586814816 1.0295407672735482  76.56142586814816 1.0295407672735482  L 77.53086435490518 1.0295407672735482  C 77.53086435490518 1.0295407672735482  77.53086435490518 2.034185605820381  77.53086435490518 2.034185605820381  C 77.53086435490518 2.459203167055005  77.52490367331302 2.911190046052014  77.51298085550604 3.390143606941636  C 77.50105803769905 3.8689808080538226  77.46460761276815 4.39455014205158  77.40364226813182 4.966844325610539  C 77.3426769234955 5.539146278048825  77.23779496233159 6.186789989830696  77.0889981968112 6.909774455163736  C 77.0889981968112 6.909774455163736  76.10238572894248 6.797210052739592  76.10238572894248 6.797210052739592  C 76.33066794354832 5.778074103931116  76.46424963162431 4.884649166129716  76.50311801914077 4.116937805840168  C 76.54198640665724 3.349102351576353  76.56142586814816 2.654853098022963  76.56142586814816 2.034185605820381  Z M 69.82800635633338 3.8271008952285768  L 76.7816312361311 3.553254557953937  L 76.7816312361311 4.291502304661835  L 69.97907917323113 4.664452906004804  L 69.82800635633338 3.8271008952285768  Z M 72.75113073675794 8.593508134175204  L 72.75113073675794 5.579999797057846  L 73.73727019243502 5.579999797057846  L 73.73727019243502 8.593508134175204  L 72.75113073675794 8.593508134175204  Z M 81.17125714561523 5.841842105930731  L 81.17125714561523 5.052497330042288  L 88.57568083681822 5.052497330042288  L 88.57568083681822 5.841842105930731  L 81.17125714561523 5.841842105930731  Z M 79.9341483367223 9.106840165296385  L 79.9341483367223 8.30645026268325  L 89.70752624029564 8.30645026268325  L 89.70752624029564 9.106840165296385  L 79.9341483367223 9.106840165296385  Z M 81.17125714561523 5.401981476454905  L 81.17125714561523 0.9773605343466911  L 88.4676703221359 0.9773605343466911  L 88.4676703221359 1.7732666837476312  L 82.15524985365334 1.7732666837476312  L 82.15524985365334 5.401981476454905  L 81.17125714561523 5.401981476454905  Z M 90.89586021512031 5.630910373134517  L 90.89586021512031 4.896107569488662  L 100.66923811869363 4.896107569488662  L 100.66923811869363 5.630910373134517  L 90.89586021512031 5.630910373134517  Z M 92.0581057482986 7.170524681571077  L 92.0581057482986 6.4789967554623145  L 99.44988545976365 6.4789967554623145  L 99.44988545976365 8.723963155851964  L 93.06129183565116 8.723963155851964  L 93.06129183565116 9.958593458667027  L 92.08457623825359 9.958593458667027  L 92.08457623825359 8.061699488332094  L 98.47782721317603 8.061699488332094  L 98.47782721317603 7.170524681571077  L 92.0581057482986 7.170524681571077  Z M 92.08457623825359 10.398258756319747  L 92.08457623825359 9.699654490983026  L 99.79422014249771 9.699654490983026  L 99.79422014249771 10.398258756319747  L 92.08457623825359 10.398258756319747  Z M 92.1338058917369 1.0040943579544446  L 92.1338058917369 0.3125664318456828  L 99.41149870113476 0.3125664318456828  L 99.41149870113476 2.5053348418700105  L 93.1323528210561 2.5053348418700105  L 93.1323528210561 3.6430716817055258  L 92.16016722503227 3.6430716817055258  L 92.16016722503227 1.8501741497357946  L 98.43944045454714 1.8501741497357946  L 98.43944045454714 1.0040943579544446  L 92.1338058917369 1.0040943579544446  Z M 92.16016722503227 4.111308697847037  L 92.16016722503227 3.4126955537910866  L 99.60690731461004 3.4126955537910866  L 99.60690731461004 4.111308697847037  L 92.16016722503227 4.111308697847037  Z M 112.81167939129693 5.654376828064871  L 112.81167939129693 0.009082929774404428  L 113.80496860817833 0.009082929774404428  L 113.80496860817833 5.654376828064871  L 112.81167939129693 5.654376828064871  Z M 106.86396951534195 10.394414270892259  L 106.86396951534195 6.181692841976555  L 107.83617330414239 6.181692841976555  L 107.83617330414239 7.457271797889908  L 112.82825301078077 7.457271797889908  L 112.82825301078077 6.181692841976555  L 113.80496860817833 6.181692841976555  L 113.80496860817833 10.394414270892259  L 106.86396951534195 10.394414270892259  Z M 112.82825301078077 8.22388705254426  L 107.83617330414239 8.22388705254426  L 107.83617330414239 9.607715353334974  L 112.82825301078077 9.607715353334974  L 112.82825301078077 8.22388705254426  Z M 106.57341268024152 0.8142495833343903  C 106.9987393303078 0.6105930765451826  107.48129896318576 0.5087683694358969  108.02108468551867 0.5087683694358969  C 108.5657190315452 0.5087683694358969  109.04947803743373 0.6105930765451826  109.47234066778628 0.8142495833343903  C 109.89520329813885 1.0179060901235981  110.22796380391138 1.3014523414530277  110.47063289823308 1.6648841580817908  C 110.7133814793541 2.0283159747105537  110.83476132190943 2.4503546215953285  110.83476132190943 2.931007278012993  C 110.83476132190943 3.406810939842555  110.7133814793541 3.8283721474736243  110.47063289823308 4.195683166709369  C 110.22796380391138 4.562986417065786  109.89520329813885 4.848467917045333  109.47234066778628 5.052124423834541  C 109.04947803743373 5.255788699503078  108.5657190315452 5.3576145164522675  108.02108468551867 5.3576145164522675  C 107.48129896318576 5.3576145164522675  106.9987393303078 5.255788699503078  106.57341268024152 5.052124423834541  C 106.14816551697459 4.848467917045333  105.81420556712597 4.562986417065786  105.57153647280428 4.195683166709369  C 105.32886737848257 3.8283721474736243  105.20753539856413 3.406810939842555  105.20753539856413 2.931007278012993  C 105.20753539856413 2.4503546215953285  105.32886737848257 2.0283159747105537  105.57153647280428 1.6648841580817908  C 105.81420556712597 1.3014523414530277  106.14816551697459 1.0179060901235981  106.57341268024152 0.8142495833343903  Z M 108.97658750539905 1.517595084741033  C 108.69926275285988 1.3816999486679225  108.38075637638642 1.3137574486112416  108.02108468551867 1.3137574486112416  C 107.66626161834455 1.3137574486112416  107.34939017553708 1.3816999486679225  107.07047572254407 1.517595084741033  C 106.79164075635038 1.6533660921573796  106.57266443123827 1.843389577013852  106.41353455946872 2.087653253035888  C 106.2544841744985 2.3319246979372514  106.1749544871184 2.613039324719496  106.1749544871184 2.931007278012993  C 106.1749544871184 3.2471597760010122  106.2544841744985 3.527371860163819  106.41353455946872 3.7716355361858542  C 106.57266443123827 4.015906981087218  106.79164075635038 4.2064090150373  107.07047572254407 4.343149814434768  C 107.34939017553708 4.479890613832236  107.66626161834455 4.548265986133977  108.02108468551867 4.548265986133977  C 108.38075637638642 4.548265986133977  108.69926275285988 4.479890613832236  108.97658750539905 4.343149814434768  C 109.2540712315369 4.2064090150373  109.47309540151949 4.015906981087218  109.6336560179106 3.7716355361858542  C 109.79421663430172 3.527371860163819  109.8744919945595 3.2471597760010122  109.8744919945595 2.931007278012993  C 109.8744919945595 2.613039324719496  109.79421663430172 2.3319246979372514  109.6336560179106 2.087653253035888  C 109.47309540151949 1.843389577013852  109.2540712315369 1.6533660921573796  108.97658750539905 1.517595084741033  Z M 116.3898346932537 6.0118518217863475  L 116.3898346932537 5.225055238317508  C 116.3898346932537 5.225055238317508  117.15587793760744 5.225055238317508  117.15587793760744 5.225055238317508  C 117.86536509835702 5.225055238317508  118.47266350400226 5.219237190919001  118.9777935503513 5.2075996763072645  C 119.48252619823646 5.195962161695529  119.94315848965688 5.170744706712716  120.35966228266129 5.131952988450054  C 120.7761660756657 5.093161270187394  121.19703020108238 5.036492068667856  121.62227736434934 4.961934393875206  C 121.62227736434934 4.961934393875206  121.72601257653032 5.7512880484828806  121.72601257653032 5.7512880484828806  C 121.39296853704512 5.80559645144942  121.06826883485128 5.851000114640517  120.75191673896335 5.887487601502786  C 120.43556464307544 5.923850955372981  120.10291132189396 5.949792888700319  119.75397017127199 5.965309575571853  C 119.40502902065005 5.9808262624433866  119.01960065757953 5.992462356156573  118.59769186881894 6.00022069959234  C 118.17554461966036 6.007979043028107  117.69494827874637 6.0118518217863475  117.15587793760744 6.0118518217863475  C 117.15587793760744 6.0118518217863475  116.3898346932537 6.0118518217863475  116.3898346932537 6.0118518217863475  Z M 116.36336420329872 1.4274050547816977  L 116.36336420329872 0.638060278893255  L 121.00825296127661 0.638060278893255  L 121.00825296127661 3.6230768059949114  L 117.36655029065126 3.6230768059949114  L 117.36655029065126 5.698015733090479  L 116.3898346932537 5.698015733090479  L 116.3898346932537 2.8744587152239593  L 120.03059133949577 2.8744587152239593  L 120.03059133949577 1.4274050547816977  L 116.36336420329872 1.4274050547816977  Z M 123.81368826986694 6.484625863455445  L 123.81368826986694 0.016177026440825873  L 124.80686833008875 0.016177026440825873  L 124.80686833008875 6.484625863455445  L 123.81368826986694 6.484625863455445  Z M 121.72242859953985 2.359679452867953  L 121.72242859953985 1.5728739906798817  L 124.04499123157672 1.5728739906798817  L 124.04499123157672 2.359679452867953  L 121.72242859953985 2.359679452867953  Z M 121.72242859953985 4.540079807002012  L 121.72242859953985 3.7507172736751047  L 124.04499123157672 3.7507172736751047  L 124.04499123157672 4.540079807002012  L 121.72242859953985 4.540079807002012  Z M 117.59023047896507 7.836766015306911  L 117.59023047896507 7.04742123941847  L 124.80686833008875 7.04742123941847  L 124.80686833008875 10.5488418344956  L 123.81368826986694 10.5488418344956  L 123.81368826986694 7.836766015306911  L 117.59023047896507 7.836766015306911  Z M 134 10.534644762443525  L 134 0.009082929774404428  L 135 0.009082929774404428  L 135 10.534644762443525  L 134 10.534644762443525  Z M 134.9662969531431 5.141586398816847  L 134.9662969531431 4.332060294113917  L 136.95740538827965 4.332060294113917  L 136.95740538827965 5.141586398816847  L 134.9662969531431 5.141586398816847  Z M 126.84804328643227 2.476603306435042  L 126.84804328643227 1.6872496518273672  L 133.2052907564606 1.6872496518273672  L 133.2052907564606 2.476603306435042  L 126.84804328643227 2.476603306435042  Z M 128.72470096396964 3.6581655044000394  C 129.120538508943 3.450513452567662  129.5716119175701 3.3466911550199008  130.0779342659091 3.3466911550199008  C 130.5842566142481 3.3466911550199008  131.03494232485662 3.450513452567662  131.42998503736945 3.6581655044000394  C 131.82423288188897 3.865701179113733  132.1338370210995 4.149547884914676  132.35878086119902 4.509705708509111  C 132.58451955152543 4.869863532103547  132.69738481930364 5.287791227936382  132.69738481930364 5.763478529988508  C 132.69738481930364 6.23928219181807  132.58451955152543 6.659198616711398  132.35878086119902 7.023235608230319  C 132.1338370210995 7.387264830869912  131.82423288188897 7.67189721661665  131.42998503736945 7.877128672935887  C 131.03573719284995 8.082367880793205  130.58425792896045 8.184989383588576  130.07555101217432 8.184989383588576  C 129.57081836428915 8.184989383588576  129.120538508943 8.082367880793205  128.72470096396964 7.877128672935887  C 128.32886341899626 7.67189721661665  128.0168786377093 7.387264830869912  127.78875537893573 7.023235608230319  C 127.56142698815547 6.659198616711398  127.44776816709633 6.23928219181807  127.44776816709633 5.763478529988508  C 127.44776816709633 5.287791227936382  127.56142698815547 4.869863532103547  127.78875537893573 4.509705708509111  C 128.0168786377093 4.149547884914676  128.32886341899626 3.865701179113733  128.72470096396964 3.6581655044000394  Z M 130.93996259961162 4.35587301909432  C 130.68560914121855 4.218410693699883  130.39746711294984 4.14968252236803  130.07555101217432 4.14968252236803  C 129.75284007893825 4.14968252236803  129.46351679937 4.218410693699883  129.2075736405231 4.35587301909432  C 128.95163048167618 4.493218967370073  128.75132975240072 4.683181246289964  128.60666622937998 4.925753613004534  C 128.46200270635921 5.16820183372109  128.38968098285548 5.447442426460422  128.38968098285548 5.763478529988508  C 128.38968098285548 6.0796232590971995  128.46200270635921 6.359711838888187  128.60666622937998 6.603742760672855  C 128.75132975240072 6.847765930919442  128.95163048167618 7.038506129576424  129.2075736405231 7.175976215179565  C 129.46351679937 7.313322163455318  129.75284007893825 7.381998016240447  130.07555101217432 7.381998016240447  C 130.3990568134037 7.381998016240447  130.68760473246758 7.313322163455318  130.94116332286734 7.175976215179565  C 131.1947219132671 7.038506129576424  131.39382323399926 6.847765930919442  131.53848675702 6.603742760672855  C 131.68315028004073 6.359711838888187  131.7554901963211 6.0796232590971995  131.7554901963211 5.763478529988508  C 131.7554901963211 5.447442426460422  131.68315028004073 5.16820183372109  131.53848675702 4.925753613004534  C 131.39382323399926 4.683181246289964  131.19431605800472 4.493218967370073  130.93996259961162 4.35587301909432  Z M 129.56167784429212 2.045106430475823  L 129.56167784429212 0.1360042211968006  L 130.5548579045139 0.1360042211968006  L 130.5548579045139 2.045106430475823  L 129.56167784429212 2.045106430475823  Z M 143.0487836210556 2.655527256399654  L 143.0487836210556 1.8589019307409165  L 146.05928790749653 1.8589019307409165  L 146.05928790749653 2.655527256399654  L 143.0487836210556 2.655527256399654  Z M 143.0487836210556 4.906841941040231  L 143.0487836210556 4.1104030684853665  L 146.08313863762092 4.1104030684853665  L 146.08313863762092 4.906841941040231  L 143.0487836210556 4.906841941040231  Z M 138.37384039613224 5.850747461320494  L 138.37384039613224 0.9206255184537838  L 143.2896195977045 0.9206255184537838  L 143.2896195977045 5.850747461320494  L 138.37384039613224 5.850747461320494  Z M 142.32267352134187 5.072856233241417  L 142.32267352134187 1.6983391721482188  L 139.3384032187601 1.6983391721482188  L 139.3384032187601 5.072856233241417  L 142.32267352134187 5.072856233241417  Z M 145.75168444072062 7.697476667994247  L 145.75168444072062 0.016177026440825873  L 146.74484630816585 0.016177026440825873  L 146.74484630816585 7.697476667994247  L 145.75168444072062 7.697476667994247  Z M 139.8176919183231 10.30085032762474  L 139.8176919183231 9.506702164631749  L 147 9.506702164631749  L 147 10.30085032762474  L 139.8176919183231 10.30085032762474  Z M 139.8176919183231 9.869681964277108  L 139.8176919183231 7.007413730558776  L 140.80370402456396 7.007413730558776  L 140.80370402456396 9.869681964277108  L 139.8176919183231 9.869681964277108  Z M 7.929039693668296 22.831662020136935  L 7.929039693668296 17.46082709074812  L 8.922365296102909 17.46082709074812  L 8.922365296102909 22.831662020136935  L 7.929039693668296 22.831662020136935  Z M 4.523588419988292 18.452695452320008  C 4.523588419988292 18.452695452320008  4.523588419988292 17.980329831735588  4.523588419988292 17.980329831735588  C 4.523588419988292 17.980329831735588  5.596643865878395 17.980329831735588  5.596643865878395 17.980329831735588  C 5.596643865878395 18.859815596532606  5.3963728064632 19.637510660408648  4.9958456113948655 20.3134175205035  C 4.595437628759144 20.989246830535055  4.0216538353575375 21.556539589931596  3.274490571315065 22.015290422906084  C 2.5273273072725932 22.473886086388987  1.6283949262341695 22.82662121399917  0.5776934281997937 23.07349169586074  C 0.5776934281997937 23.07349169586074  0.2293290454485262 22.282255752775868  0.2293290454485262 22.282255752775868  C 1.1610463733643517 22.071927061896247  1.9454056930202546 21.782613978378098  2.5824100602341793 21.414325432964404  C 3.2194064681083407 21.045881718059125  3.702148561743824 20.610759133863496  4.030646041585965 20.10894949530823  C 4.3592706932004806 19.607062272007173  4.523588419988292 19.05497567191293  4.523588419988292 18.452695452320008  Z M 0.7854094550458965 18.769701243781725  L 0.7854094550458965 17.980329831735588  L 4.9686383139875225 17.980329831735588  L 4.9686383139875225 18.769701243781725  L 0.7854094550458965 18.769701243781725  Z M 5.208973989279876 19.745046308862737  L 5.208973989279876 18.982897049982117  L 8.0901913088032 18.982897049982117  L 8.0901913088032 19.745046308862737  L 5.208973989279876 19.745046308862737  Z M 5.113025285484268 21.753909807433264  L 5.113025285484268 20.99642187614948  L 8.035049002924458 20.99642187614948  L 8.035049002924458 21.753909807433264  L 5.113025285484268 21.753909807433264  Z M 1.9829034928893472 24.09595612390633  L 1.9829034928893472 23.31555221828458  L 8.922365296102909 23.31555221828458  L 8.922365296102909 25.900937592750907  L 2.988154460386157 25.900937592750907  L 2.988154460386157 27.57383035558002  L 2.009364886456035 27.57383035558002  L 2.009364886456035 25.159626687907945  L 7.9363168043088415 25.159626687907945  L 7.9363168043088415 24.09595612390633  L 1.9829034928893472 24.09595612390633  Z M 2.009364886456035 27.886183698164135  L 2.009364886456035 27.108443408312006  L 9.276323957659098 27.108443408312006  L 9.276323957659098 27.886183698164135  L 2.009364886456035 27.886183698164135  Z M 20 27.98638004469801  L 20 17.46082709074812  L 21 17.46082709074812  L 21 27.98638004469801  L 20 27.98638004469801  Z M 15.292083914491474 22.036705893693828  L 15.292083914491474 21.24080862301212  L 17.363313337780458 21.24080862301212  L 17.363313337780458 22.036705893693828  L 15.292083914491474 22.036705893693828  Z M 17.063578246884642 27.447210940611516  L 17.063578246884642 17.70696294529948  L 17.993911360337023 17.70696294529948  L 17.993911360337023 27.447210940611516  L 17.063578246884642 27.447210940611516  Z M 13.22800425240683 20.43584617999447  C 13.22800425240683 20.43584617999447  13.22800425240683 19.096251658417913  13.22800425240683 19.096251658417913  L 13.989517495386831 19.096251658417913  C 13.989517495386831 19.096251658417913  13.989517495386831 20.43584617999447  13.989517495386831 20.43584617999447  C 13.989517495386831 21.00918774028034  13.9339947046412 21.570388727173764  13.82295352921302 22.119446678217457  C 13.712071318500309 22.66850462926115  13.550204881812506 23.18217970496016  13.337342839781043 23.660481581731148  C 13.124560284548911 24.138705873756344  12.863172848472116 24.569370300422563  12.553179589932341 24.952477289504593  C 12.243265818191894 25.33550669384083  11.891733973542582 25.647780370729336  11.498598908680924 25.889297591837668  C 11.498598908680924 25.889297591837668  10.889632097503382 25.16917131108242  10.889632097503382 25.16917131108242  C 11.3909150467238 24.869078578012868  11.814358175887563 24.471735499069638  12.159960916470403 23.977141103142813  C 12.505722630651904 23.482546707215988  12.770129161558971 22.928637195079414  12.953184169066589 22.31541776910764  C 13.13639813240648 21.702275893199154  13.22800425240683 21.075754342327897  13.22800425240683 20.43584617999447  Z M 13.429143590511538 20.43584617999447  C 13.429143590511538 20.43584617999447  13.429143590511538 19.096251658417913  13.429143590511538 19.096251658417913  L 14.1861268321178 19.096251658417913  C 14.1861268321178 19.096251658417913  14.1861268321178 20.43584617999447  14.1861268321178 20.43584617999447  C 14.1861268321178 21.044410590583865  14.27447212787534 21.640056950245558  14.45116829803481 22.222786091359485  C 14.627943954993608 22.805437682410115  14.885954268081855 23.331409888293027  15.225198171316551 23.800712073282412  C 15.564521561350576 24.269859088780215  15.980827365778381 24.644553213929886  16.474114092223765 24.924784564219777  C 16.474114092223765 24.924784564219777  15.874516560995923 25.635836793919854  15.874516560995923 25.635836793919854  C 15.35150226905964 25.321623879894076  14.908170490933468 24.8978636632232  14.544524531164722 24.36455513811482  C 14.181037544994636 23.831169028260646  13.904265024950673 23.226134636898436  13.714215303466652 22.549451929345686  C 13.52416558198263 21.87284684122123  13.429143590511538 21.168311383342505  13.429143590511538 20.43584617999447  Z M 11.184718933977548 19.48715503004812  L 11.184718933977548 18.688700688227577  L 16.108794041680024 18.688700688227577  L 16.108794041680024 19.48715503004812  L 11.184718933977548 19.48715503004812  Z M 26.334280636573915 18.80601520544088  L 26.334280636573915 18.016634914675507  L 33.26966725782877 18.016634914675507  L 33.26966725782877 18.80601520544088  L 26.334280636573915 18.80601520544088  Z M 25.08918519875299 22.681300909941882  L 25.08918519875299 21.891929497895745  L 34.86255400593802 21.891929497895745  L 34.86255400593802 22.681300909941882  L 25.08918519875299 22.681300909941882  Z M 32.624169351235686 18.796586005616426  C 32.624169351235686 18.796586005616426  32.624169351235686 18.016634914675507  32.624169351235686 18.016634914675507  L 33.596236694211605 18.016634914675507  C 33.596236694211605 18.016634914675507  33.596236694211605 18.796586005616426  33.596236694211605 18.796586005616426  C 33.596236694211605 19.241449411872054  33.581886832976366 19.7320882343335  33.55319258477277 20.268500079908474  C 33.52449833656918 20.804834340737656  33.421009626295465 21.43798638733793  33.24272375568215 22.1679688788207  C 33.24272375568215 22.1679688788207  32.26850966506727 22.118398989348073  32.26850966506727 22.118398989348073  C 32.44512634842741 21.399510873735736  32.54853751509998 20.775001393245454  32.57874198806208 20.244873808031944  C 32.6090259456027 19.714746222818434  32.624169351235686 19.23198421161571  32.624169351235686 18.796586005616426  Z M 26.289217128932332 27.850802002024345  L 26.289217128932332 24.111325186897037  L 33.631885439961984 24.111325186897037  L 33.631885439961984 27.850802002024345  L 26.289217128932332 27.850802002024345  Z M 32.66446635140771 27.06573676880576  L 32.66446635140771 24.884404149152335  L 27.256636217486598 24.884404149152335  L 27.256636217486598 27.06573676880576  L 32.66446635140771 27.06573676880576  Z M 37.34655933753541 18.441641446876083  C 37.715133372264354 18.231700679725414  38.13687767984743 18.12673103315314  38.61180327544235 18.12673103315314  C 39.08688784463593 18.12673103315314  39.50745090091952 18.231700679725414  39.873481429135424 18.441641446876083  C 40.23959144415065 18.651582214026757  40.529078867335095 18.943256794083158  40.741940909366555 19.316665863353975  C 40.95480295139802 19.68991976313321  41.061233235108844 20.123030276947866  41.061233235108844 20.615995393213108  C 41.061233235108844 21.10081424990043  40.95444495877251 21.52996742144236  40.740867535547075 21.903454075458967  C 40.527369599120966 22.276785559983992  40.23784340968795 22.56721375514569  39.87228980226803 22.774749429859384  C 39.50689516844678 22.982207519827288  39.08601285025349 23.0859396602241  38.60965652780339 23.0859396602241  C 38.13520785300445 23.0859396602241  37.71393787232539 22.982169681223063  37.345840722859656 22.77463400650937  C 36.97782306019326 22.566943162304096  36.688616114903546 22.276477128538172  36.47821811035219 21.903223228758932  C 36.26782010580082 21.529891744233908  36.16261891825998 21.10081424990043  36.16261891825998 20.615995393213108  C 36.16261891825998 20.123030276947866  36.26782010580082 19.68991976313321  36.47821811035219 19.316665863353975  C 36.688616114903546 18.943256794083158  36.9780647896058 18.651582214026757  37.34655933753541 18.441641446876083  Z M 39.405981648810105 19.158624661023183  C 39.17142006588906 19.016414232424417  38.905978305587674 18.945313431472776  38.60965652780339 18.945313431472776  C 38.31333475001911 18.945313431472776  38.047854205702755 19.016414232424417  37.81321315374876 19.158624661023183  C 37.57857210179477 19.300679928800996  37.394760166405604 19.49650810179166  37.261780998573045 19.74609399773212  C 37.12880183074048 19.99575747841837  37.06231539591566 20.285373288111582  37.06231539591566 20.614947704343724  C 37.06231539591566 20.937617216930576  37.12880183074048 21.224559890508743  37.261780998573045 21.475775048769535  C 37.394760166405604 21.726912622284537  37.57857210179477 21.92358214929931  37.81321315374876 22.06579257789808  C 38.047854205702755 22.20784784567589  38.31333475001911 22.278881839467683  38.60965652780339 22.278881839467683  C 38.905978305587674 22.278881839467683  39.17142006588906 22.20784784567589  39.405981648810105 22.06579257789808  C 39.64062270076409 21.92358214929931  39.82518941430243 21.726912622284537  39.9596788046727 21.475775048769535  C 40.09432715975843 21.224559890508743  40.16165501050107 20.937617216930576  40.16165501050107 20.614947704343724  C 40.16165501050107 20.285373288111582  40.09432715975843 19.99575747841837  39.9596788046727 19.74609399773212  C 39.82518941430243 19.49650810179166  39.64062270076409 19.300679928800996  39.405981648810105 19.158624661023183  Z M 44.19812274059947 23.726929916463938  L 44.19812274059947 17.472467091661358  L 45.14217320760928 17.472467091661358  L 45.14217320760928 23.726929916463938  L 44.19812274059947 23.726929916463938  Z M 42.458465767258694 20.968613727514644  L 42.458465767258694 20.170159385694102  L 44.49261831183409 20.170159385694102  L 44.49261831183409 20.968613727514644  L 42.458465767258694 20.968613727514644  Z M 41.89487174092496 23.66793082716685  L 41.89487174092496 17.665765688062688  L 42.83236371196998 17.665765688062688  L 42.83236371196998 23.66793082716685  L 41.89487174092496 23.66793082716685  Z M 37.91193625597607 25.103069246399677  L 37.91193625597607 24.31369783435354  L 45.14217320760928 24.31369783435354  L 45.14217320760928 27.990917070225596  L 44.16080025940177 27.990917070225596  L 44.16080025940177 25.103069246399677  L 37.91193625597607 25.103069246399677  Z M 49.10484193942425 18.11322650120116  C 49.774904287295655 17.799711849887494  50.70516022357855 17.642956258355508  51.89561387007387 17.642956258355508  C 53.08614696783575 17.642956258355508  54.015609386370485 17.799711849887494  54.68400254698872 18.11322650120116  C 55.352395707606966 18.426741152514836  55.68658827271343 18.877390327602544  55.68658827271343 19.46516244251029  C 55.68658827271343 20.053012107481337  55.352395707606966 20.504814267499324  54.68400254698872 20.82057884175839  C 54.015609386370485 21.136265831271672  53.08614696783575 21.29410757456222  51.89561387007387 21.29410757456222  C 50.70516022357855 21.29410757456222  49.774904287295655 21.136265831271672  49.10484193942425 20.82057884175839  C 48.43493856515149 20.504814267499324  48.09998211662436 20.053012107481337  48.09998211662436 19.46516244251029  C 48.09998211662436 18.877390327602544  48.43493856515149 18.426741152514836  49.10484193942425 18.11322650120116  Z M 53.392997637414254 18.50111110829247  C 52.98126298130414 18.415614166426597  52.480743773373305 18.372866887704497  51.891438627843854 18.372866887704497  C 51.309446125721756 18.372866887704497  50.81135544027061 18.415614166426597  50.39715672891401 18.50111110829247  C 49.98295801755742 18.586530465412554  49.666686296788 18.7103141613907  49.44833975443464 18.872463540173666  C 49.23015218567995 19.034535334210847  49.121051703376054 19.232063964017563  49.121051703376054 19.465047019160277  C 49.121051703376054 19.698030074302988  49.23015218567995 19.896333268315214  49.44833975443464 20.059956722585685  C 49.666686296788 20.22365776160195  49.98295801755742 20.34744146625072  50.39715672891401 20.431309154466884  C 50.81135544027061 20.515176842683047  51.309446125721756 20.55711172726604  51.891438627843854 20.55711172726604  C 52.480743773373305 20.55711172726604  52.98126298130414 20.515176842683047  53.392997637414254 20.431309154466884  C 53.804811780323696 20.34744146625072  54.11981565644094 20.22365776160195  54.338003225195635 20.059956722585685  C 54.55627028074966 19.896333268315214  54.66540043291383 19.698030074302988  54.66540043291383 19.465047019160277  C 54.66540043291383 19.232063964017563  54.55627028074966 19.034535334210847  54.338003225195635 18.872463540173666  C 54.11981565644094 18.7103141613907  53.804811780323696 18.586530465412554  53.392997637414254 18.50111110829247  Z M 47.02251492240843 22.775335425328706  L 47.02251492240843 21.9976040141958  L 56.76680257619618 21.9976040141958  L 56.76680257619618 22.775335425328706  L 47.02251492240843 22.775335425328706  Z M 48.20132497868228 24.41331706413733  L 48.20132497868228 23.67200615929437  L 55.51633117288955 23.67200615929437  L 55.51633117288955 26.045127993079674  L 49.19986281161318 26.045127993079674  L 49.19986281161318 27.317226491054058  L 48.22779546863727 27.317226491054058  L 48.22779546863727 25.3398913244766  L 54.544263829913625 25.3398913244766  L 54.544263829913625 24.41331706413733  L 48.20132497868228 24.41331706413733  Z M 48.22779546863727 27.873496008381508  L 48.22779546863727 27.11577723039769  L 55.84147247630917 27.11577723039769  L 55.84147247630917 27.873496008381508  L 48.22779546863727 27.873496008381508  Z M 65.46628816615573 24.29135009804643  L 65.46628816615573 22.705513177287727  L 66.44777027102286 22.705513177287727  L 66.44777027102286 24.29135009804643  L 65.46628816615573 24.29135009804643  Z M 61.10253238499875 22.876464037381947  L 61.10253238499875 22.136902240227702  L 70.82356967028996 22.136902240227702  L 70.82356967028996 22.876464037381947  L 61.10253238499875 22.876464037381947  Z M 65.46914443208216 18.671245126217336  L 65.46914443208216 17.399031204892935  L 66.45039003085347 17.399031204892935  L 66.45039003085347 18.671245126217336  L 65.46914443208216 18.671245126217336  Z M 65.42253453842946 18.931347206120734  C 65.42253453842946 18.931347206120734  65.42253453842946 18.76516421825414  65.42253453842946 18.76516421825414  L 66.29360468210288 18.76516421825414  C 66.29360468210288 18.76516421825414  66.29360468210288 18.931347206120734  66.29360468210288 18.931347206120734  C 66.29360468210288 19.34641855554812  66.17800077962275 19.712263233493193  65.94677758897444 20.02888120527345  C 65.71555439832612 20.34542162699042  65.39697048935552 20.616846553713238  64.99103826299825 20.84315742476554  C 64.58534449703896 21.069313126326257  64.11844134740097 21.250237866189693  63.59034000690583 21.38593128886025  C 63.06239764000935 21.521469542039227  62.500123584896684 21.613367502892718  61.90350576042712 21.66162439973516  C 61.90350576042712 21.66162439973516  61.61151169597519 20.927301046927834  61.61151169597519 20.927301046927834  C 62.14358734090409 20.894560839124587  62.638832171529494 20.825699148849907  63.09722479712578 20.72072876527457  C 63.55561742272209 20.61575838169923  63.95956628110215 20.47844003202047  64.30906383931942 20.3087650716259  C 64.65872033560258 20.139012526485537  64.93170079877369 19.937838141959148  65.12802987080653 19.70524301054538  C 65.32435894283937 19.472570294385825  65.42253453842946 19.214604309472676  65.42253453842946 18.931347206120734  Z M 65.63307954203708 18.931347206120734  C 65.63307954203708 18.931347206120734  65.63307954203708 18.76516421825414  65.63307954203708 18.76516421825414  L 66.49689076784655 18.76516421825414  C 66.49689076784655 18.76516421825414  66.49689076784655 18.931347206120734  66.49689076784655 18.931347206120734  C 66.49689076784655 19.214604309472676  66.59504817066004 19.472570294385825  66.79137724269287 19.70524301054538  C 66.98778580152504 19.937838141959148  67.26075475207972 20.139012526485537  67.61025231029699 20.3087650716259  C 67.95982931978082 20.47844003202047  68.36455357419798 20.61575838169923  68.82445641344879 20.72072876527457  C 69.28451822629826 20.825699148849907  69.77899920903577 20.894560839124587  70.30789541752422 20.927301046927834  C 70.30789541752422 20.927301046927834  70.01602870250849 21.66162439973516  70.01602870250849 21.66162439973516  C 69.41933142677237 21.613367502892718  68.85697980362978 21.521469542039227  68.32895794993398 21.38593128886025  C 67.8010155830375 21.250237866189693  67.33534151180311 21.069313126326257  66.93195282749164 20.84315742476554  C 66.52856414318018 20.616846553713238  66.21122750538976 20.34542162699042  65.97992482794213 20.02888120527345  C 65.74870163729382 19.712263233493193  65.63307954203708 19.34641855554812  65.63307954203708 18.931347206120734  Z M 62.09129160050643 19.119291934825128  L 62.09129160050643 18.379960984370918  L 69.84017732387969 18.379960984370918  L 69.84017732387969 19.119291934825128  L 62.09129160050643 19.119291934825128  Z M 62.267506834667266 24.559478540135615  L 62.267506834667266 23.836209192772216  L 69.58251302887453 23.836209192772216  L 69.58251302887453 26.14532433961355  L 63.26605376398647 26.14532433961355  L 63.26605376398647 27.41311665876038  L 62.293977324622254 27.41311665876038  L 62.293977324622254 25.45836007519007  L 68.61045478228692 25.45836007519007  L 68.61045478228692 24.559478540135615  L 62.267506834667266 24.559478540135615  Z M 62.293977324622254 27.873496008381508  L 62.293977324622254 27.133934211227267  L 69.90752698285795 27.133934211227267  L 69.90752698285795 27.873496008381508  L 62.293977324622254 27.873496008381508  Z M 73.30744765245113 18.80601520544088  L 73.30744765245113 18.016634914675507  L 80.2428251773177 18.016634914675507  L 80.2428251773177 18.80601520544088  L 73.30744765245113 18.80601520544088  Z M 72.062224865194 22.681300909941882  L 72.062224865194 21.891929497895745  L 81.83560276876733 21.891929497895745  L 81.83560276876733 22.681300909941882  L 72.062224865194 22.681300909941882  Z M 79.5973272707246 18.796586005616426  C 79.5973272707246 18.796586005616426  79.5973272707246 18.016634914675507  79.5973272707246 18.016634914675507  L 80.56940371008882 18.016634914675507  C 80.56940371008882 18.016634914675507  80.56940371008882 18.796586005616426  80.56940371008882 18.796586005616426  C 80.56940371008882 19.241449411872054  80.55505384885358 19.7320882343335  80.52635960064998 20.268500079908474  C 80.4976653524464 20.804834340737656  80.3941378759241 21.43798638733793  80.21577251851146 22.1679688788207  C 80.21577251851146 22.1679688788207  79.24167668094448 22.118398989348073  79.24167668094448 22.118398989348073  C 79.41829336430463 21.399510873735736  79.52166576472862 20.775001393245454  79.55179075089137 20.244873808031944  C 79.58215419523135 19.714746222818434  79.5973272707246 19.23198421161571  79.5973272707246 18.796586005616426  Z M 73.26238414480954 27.850802002024345  L 73.26238414480954 24.111325186897037  L 80.60491601001469 24.111325186897037  L 80.60491601001469 27.850802002024345  L 73.26238414480954 27.850802002024345  Z M 79.63751511423703 27.06573676880576  L 79.63751511423703 24.884404149152335  L 74.22978504058722 24.884404149152335  L 74.22978504058722 27.06573676880576  L 79.63751511423703 27.06573676880576  Z M 90.40667464508616 23.24153033604684  L 90.40667464508616 17.429875875505132  L 91.39530651115763 17.429875875505132  L 91.39530651115763 23.24153033604684  L 90.40667464508616 23.24153033604684  Z M 90.97610855270894 20.766587350108196  L 90.97610855270894 19.956493007374412  L 92.9939239838963 19.956493007374412  L 92.9939239838963 20.766587350108196  L 90.97610855270894 20.766587350108196  Z M 84.5510202187341 24.505016476366116  L 84.5510202187341 23.77721010347513  L 91.39530651115763 23.77721010347513  L 91.39530651115763 26.12961788529202  L 85.54692919544611 26.12961788529202  L 85.54692919544611 27.401245811147106  L 84.57749070868908 27.401245811147106  L 84.57749070868908 25.42647659442772  L 90.42324826457 25.42647659442772  L 90.42324826457 24.505016476366116  L 84.5510202187341 24.505016476366116  Z M 84.57749070868908 27.873496008381508  L 84.57749070868908 27.12939718569968  L 91.78328566495836 27.12939718569968  L 91.78328566495836 27.873496008381508  L 84.57749070868908 27.873496008381508  Z M 83.05828470581538 19.165141640939524  L 83.05828470581538 18.411968767202517  L 89.42411916639955 18.411968767202517  L 89.42411916639955 19.165141640939524  L 83.05828470581538 19.165141640939524  Z M 84.35834052174903 20.093118738917457  C 84.82833800685098 19.785267669998937  85.45555924398029 19.63134543037689  86.24000121285178 19.63134543037689  C 87.01991246969418 19.63134543037689  87.64467558554905 19.785267669998937  88.11427563665437 20.093118738917457  C 88.583955174559 20.40089222309019  88.81879091054228 20.823339256377142  88.81879091054228 21.36044936466422  C 88.81879091054228 21.889878721848117  88.583955174559 22.308671121696165  88.11427563665437 22.616832529597847  C 87.64467558554905 22.924838768007945  87.01991246969418 23.078836684838446  86.24000121285178 23.078836684838446  C 85.45555924398029 23.078836684838446  84.82833800685098 22.924838768007945  84.35834052174903 22.616832529597847  C 83.88858149704507 22.308671121696165  83.6537160912015 21.889878721848117  83.6537160912015 21.36044936466422  C 83.6537160912015 20.823339256377142  83.88858149704507 20.40089222309019  84.35834052174903 20.093118738917457  Z M 87.42811687435722 20.619253883171275  C 87.1319540701716 20.436700063070617  86.73591096814229 20.3454253033351  86.24000121285178 20.3454253033351  C 85.74218380991009 20.3454253033351  85.34436886646432 20.436700063070617  85.04653687502552 20.619253883171275  C 84.74878437038606 20.801885288017722  84.59990420946197 21.04864029450553  84.59990420946197 21.359517099144853  C 84.59990420946197 21.672333487746418  84.74878437038606 21.919202027388152  85.04653687502552 22.10012658516848  C 85.34436886646432 22.281128727694597  85.74218380991009 22.371628940565852  86.24000121285178 22.371628940565852  C 86.73591096814229 22.371628940565852  87.1319540701716 22.281128727694597  87.42811687435722 22.10012658516848  C 87.7244386521415 21.919202027388152  87.87260279228181 21.672333487746418  87.87260279228181 21.359517099144853  C 87.87260279228181 21.04864029450553  87.7244386521415 20.801885288017722  87.42811687435722 20.619253883171275  Z M 85.74688600307172 18.93274116504017  L 85.74688600307172 17.35295065207851  L 86.7355178691432 17.35295065207851  L 86.7355178691432 18.93274116504017  L 85.74688600307172 18.93274116504017  Z M 101.45924124983138 18.42557984378528  C 101.45924124983138 18.42557984378528  101.45924124983138 17.8325346713986  101.45924124983138 17.8325346713986  L 102.32567223547146 17.8325346713986  C 102.32567223547146 17.8325346713986  102.32567223547146 18.42557984378528  102.32567223547146 18.42557984378528  C 102.32567223547146 18.82567761473525  102.24746736953509 19.203006985371992  102.09103999564363 19.557563273558415  C 101.93461262175218 19.91211956174483  101.71817202147719 20.2375406102312  101.44172160596426 20.533831725439562  C 101.16543016405 20.82996767115634  100.84490113812564 21.09321307778662  100.48014239869903 21.323558286254983  C 100.11538365927241 21.553903494723347  99.72105302340626 21.746691374015096  99.29715710019516 21.90193581447028  C 98.87326117698407 22.057102687520928  98.43728333134028 22.171809869986614  97.98922381199311 22.24605721446673  C 97.98922381199311 22.24605721446673  97.59183899268947 21.4687874967339  97.59183899268947 21.4687874967339  C 97.98473559715313 21.413160174765498  98.36924501180867 21.319599582694252  98.74537018587573 21.18809566693134  C 99.12141587314343 21.056591751168423  99.47384847343113 20.895104261828834  99.80267978361734 20.703628352033608  C 100.13159058060289 20.51223002698417  100.41988770939871 20.296274603862464  100.66756438324632 20.05576596710815  C 100.91516157029459 19.815257330353834  101.10903640300776 19.557480555803068  101.24916925841539 19.28244727943359  C 101.38922262702368 19.00725885091378  101.45924124983138 18.72163823943876  101.45924124983138 18.42557984378528  Z M 101.6324910614062 18.42557984378528  C 101.6324910614062 18.42557984378528  101.6324910614062 17.8325346713986  101.6324910614062 17.8325346713986  L 102.49175409306534 17.8325346713986  C 102.49175409306534 17.8325346713986  102.49175409306534 18.42557984378528  102.49175409306534 18.42557984378528  C 102.49175409306534 18.716905639310593  102.56297212441633 18.99896506933487  102.7054100614718 19.271748422758947  C 102.84792747644337 19.544454191437236  103.04423080498665 19.80106025830176  103.29429204728142 20.041568895056074  C 103.54427380277683 20.28207753181039  103.83252306893579 20.499270461107564  104.15904929747417 20.693151463339767  C 104.48557552601258 20.886877296080396  104.83685658039383 21.05069732207324  105.21290226766153 21.184606330273134  C 105.58894795492924 21.31843775372724  105.97104707541448 21.413160174765498  106.35917454298384 21.4687874967339  C 106.35917454298384 21.4687874967339  105.96177153090358 22.24605721446673  105.96177153090358 22.24605721446673  C 105.51840166165141 22.171809869986614  105.08605171149783 22.05590300260844  104.66469933033257 21.898331054462062  C 104.24326746236794 21.740603936824105  103.84893682650178 21.545445682274874  103.48171403182869 21.31285055086111  C 103.11457072395493 21.080177834701555  102.7927647569901 20.815770599104262  102.51631434147718 20.519634653387484  C 102.2399434127636 20.22334353817913  102.0235210052652 19.899122157263996  101.86701414457441 19.546970961514557  C 101.71066625748227 19.19474218101933  101.6324910614062 18.82094501460708  101.6324910614062 18.42557984378528  Z M 101.45662149000077 27.990917070225596  L 101.45662149000077 23.983773506409165  L 102.4381035948679 23.983773506409165  L 102.4381035948679 27.990917070225596  L 101.45662149000077 27.990917070225596  Z M 97.09739571021753 24.189058373773786  L 97.09739571021753 23.386075885144887  L 106.84168336400528 23.386075885144887  L 106.84168336400528 24.189058373773786  L 97.09739571021753 24.189058373773786  Z M 113.85157850183103 24.505016476366116  C 113.85157850183103 24.505016476366116  113.85157850183103 23.94129771360296  113.85157850183103 23.94129771360296  L 114.62036885545157 23.94129771360296  C 114.62036885545157 23.94129771360296  114.62036885545157 24.505016476366116  114.62036885545157 24.505016476366116  C 114.62036885545157 24.96213806436152  114.52434128668007 25.410416864191745  114.33230443074554 25.849849442289592  C 114.14034706161036 26.289126850895865  113.86355396809442 26.68340954630379  113.50189514277616 27.03269017582401  C 113.14023631745792 27.381815635852647  112.69940146238751 27.651644734182245  112.17940763329302 27.842189644369242  C 112.17940763329302 27.842189644369242  111.68592856798095 27.126715812491597  111.68592856798095 27.126715812491597  C 112.14296991798862 26.96379060359198  112.53228847943389 26.740194279556146  112.8538866330121 26.455928574508942  C 113.17556427338963 26.17166286946174  113.4222438267353 25.85920001689335  113.59393239960248 25.518531155425784  C 113.765700459269 25.177784709212432  113.85157850183103 24.839944170692743  113.85157850183103 24.505016476366116  Z M 114.06858194113214 24.505016476366116  C 114.06858194113214 24.505016476366116  114.06858194113214 23.94129771360296  114.06858194113214 23.94129771360296  L 114.80242397090146 23.94129771360296  C 114.80242397090146 23.94129771360296  114.80242397090146 24.505016476366116  114.80242397090146 24.505016476366116  C 114.80242397090146 24.855771181373843  114.87412540777838 25.20656989847026  115.01751716865942 25.557402188223776  C 115.16098841633978 25.908234477977288  115.37627747959154 26.227176419834045  115.66337893078452 26.514235123705927  C 115.95071884237552 26.80129382757781  116.30793088405989 27.030821725663113  116.73500624371142 27.202824193748874  C 116.73500624371142 27.202824193748874  116.32102961214733 27.93727184862545  116.32102961214733 27.93727184862545  C 115.80286394390468 27.73594284952743  115.37706527656424 27.4553656974012  115.04362380308237 27.09553375054858  C 114.71018232960051 26.73577938844175  114.46429631176939 26.33004976958138  114.30596129022678 25.87835900974376  C 114.14770575548347 25.42666824990614  114.06858194113214 24.968887833197723  114.06858194113214 24.505016476366116  Z M 117.83512344479605 24.505016476366116  C 117.83512344479605 24.505016476366116  117.83512344479605 23.94129771360296  117.83512344479605 23.94129771360296  L 118.56883812512918 23.94129771360296  C 118.56883812512918 23.94129771360296  118.56883812512918 24.505016476366116  118.56883812512918 24.505016476366116  C 118.56883812512918 24.9155880145852  118.4876916790933 25.345987571021826  118.32538238864969 25.796204220689447  C 118.16315258500539 26.246265700865486  117.91729623703455 26.66218694488186  117.58782903245368 27.043975027967964  C 117.25836182787282 27.425685526308282  116.83609536628163 27.72345191355029  116.32102961214733 27.93727184862545  C 116.32102961214733 27.93727184862545  115.9024320153265 27.202824193748874  115.9024320153265 27.202824193748874  C 116.32958686177737 27.010572453837003  116.68670317818797 26.761182167179623  116.97380462938096 26.454650038939526  C 117.26106505417262 26.14788515646206  117.47643164992154 25.82184089818709  117.61990289760189 25.476517056019645  C 117.76337414528226 25.13103804436062  117.83512344479605 24.80720396288949  117.83512344479605 24.505016476366116  Z M 118.03100507046297 24.505016476366116  C 118.03100507046297 24.505016476366116  118.03100507046297 23.94129771360296  118.03100507046297 23.94129771360296  L 118.80014108683895 23.94129771360296  C 118.80014108683895 23.94129771360296  118.80014108683895 24.505016476366116  118.80014108683895 24.505016476366116  C 118.80014108683895 24.863219178239653  118.88598945954071 25.21463222640544  119.0576780324079 25.559257840543275  C 119.22936660527508 25.903805869935326  119.475783891269 26.213094823155732  119.79690512405122 26.487119515171194  C 120.11882122482676 26.7612217745912  120.50829485126631 26.97441954035267  120.96533620127398 27.126715812491597  C 120.96533620127398 27.126715812491597  120.47172978652571 27.842189644369242  120.47172978652571 27.842189644369242  C 119.95189493102988 27.654670487244292  119.50916283940899 27.392595822982752  119.14352974518974 27.055961298931255  C 118.77797613776984 26.719171605388176  118.50116485147728 26.33031966877304  118.31310226444376 25.889413015187685  C 118.12503967741023 25.44858394634812  118.03100507046297 24.9871199363158  118.03100507046297 24.505016476366116  Z M 119.00641078794524 23.48208147620123  L 119.00641078794524 17.472467091661358  L 119.99959084816705 17.472467091661358  L 119.99959084816705 23.48208147620123  L 119.00641078794524 23.48208147620123  Z M 112.76768925747481 18.388227071975972  C 113.19309539434043 18.18069139726228  113.67563683444179 18.076921418261243  114.21534306997536 18.076921418261243  C 114.75997741600189 18.076921418261243  115.24373642189042 18.18069139726228  115.66659905224297 18.388227071975972  C 116.08946168259554 18.595762746689665  116.42227005100494 18.883942961125797  116.66501863212596 19.25277459976002  C 116.90768772644768 19.621528653648458  117.02901970636611 20.050143171329474  117.02901970636611 20.53860847638641  C 117.02901970636611 21.022186011823603  116.90768772644768 21.44718376935244  116.66501863212596 21.81361031554968  C 116.42227005100494 22.180036861746927  116.08946168259554 22.467017408611817  115.66659905224297 22.67455308332551  C 115.24373642189042 22.882088758039203  114.75997741600189 22.98585873704024  114.21534306997536 22.98585873704024  C 113.67563683444179 22.98585873704024  113.19309539434043 22.882088758039203  112.76768925747481 22.67455308332551  C 112.34244209420787 22.467017408611817  112.00848214435925 22.180036861746927  111.76581305003756 21.81361031554968  C 111.52314395571587 21.44718376935244  111.40179378302082 21.022186011823603  111.40179378302082 20.53860847638641  C 111.40179378302082 20.050143171329474  111.52314395571587 19.621528653648458  111.76581305003756 19.25277459976002  C 112.00848214435925 18.883942961125797  112.34244209420787 18.595762746689665  112.76768925747481 18.388227071975972  Z M 115.17084588985574 19.097299347287297  C 114.89352113731657 18.956718163667613  114.5750147608431 18.88642976552571  114.21534306997536 18.88642976552571  C 113.86361995244236 18.88642976552571  113.54830591080372 18.956718163667613  113.2693914578107 19.097299347287297  C 112.99055649161701 19.237958106982145  112.77078663099036 19.43114213842526  112.61006704100058 19.676848866441233  C 112.44950642460947 19.922555594457204  112.36921287157509 20.209809872929675  112.36921287157509 20.53860847638641  C 112.36921287157509 20.864226139948276  112.44950642460947 21.150659154233026  112.61006704100058 21.39791755982354  C 112.77078663099036 21.64525355015985  112.99055649161701 21.83805029082958  113.2693914578107 21.976303966758074  C 113.54830591080372 22.114557642686567  113.86361995244236 22.18368421186146  114.21534306997536 22.18368421186146  C 114.5750147608431 22.18368421186146  114.89352113731657 22.114557642686567  115.17084588985574 21.976303966758074  C 115.44832961599357 21.83805029082958  115.66735378597618 21.64525355015985  115.82791440236728 21.39791755982354  C 115.98855450555773 21.150659154233026  116.06887772845239 20.864226139948276  116.06887772845239 20.53860847638641  C 116.06887772845239 20.209809872929675  115.98855450555773 19.922555594457204  115.82791440236728 19.676848866441233  C 115.66735378597618 19.43114213842526  115.44832961599357 19.237958106982145  115.17084588985574 19.097299347287297  Z M 123.61576905322069 18.72117016445925  C 124.02273457243649 18.42053437285167  124.48654107698066 18.27022001466257  125.0071708004698 18.27022001466257  C 125.53256966085323 18.27022001466257  125.99715149036896 18.42053437285167  126.4009376086771 18.72117016445925  C 126.8047237269852 19.02180595606683  127.12069439638792 19.446850430919124  127.34881765516148 19.996296305691768  C 127.57614604594174 20.54574218046441  127.6898048670009 21.19309875585361  127.6898048670009 21.938365199479456  C 127.6898048670009 22.686812583000172  127.57614604594174 23.336492816323396  127.34881765516148 23.887412766583545  C 127.12069439638792 24.4382551320979  126.8047237269852 24.864074171155703  126.4009376086771 25.164865132254864  C 125.99715149036896 25.465500923862447  125.53256966085323 25.615815282051543  125.0071708004698 25.615815282051543  C 124.48654107698066 25.615815282051543  124.02273457243649 25.465500923862447  123.61576905322069 25.164865132254864  C 123.20959836646541 24.864074171155703  122.89285233655836 24.4382551320979  122.6655239457781 23.887412766583545  C 122.43740068700454 23.336492816323396  122.32333601068301 22.686812583000172  122.32333601068301 21.938365199479456  C 122.32333601068301 21.19309875585361  122.43740068700454 20.54574218046441  122.6655239457781 19.996296305691768  C 122.89285233655836 19.446850430919124  123.20959836646541 19.02180595606683  123.61576905322069 18.72117016445925  Z M 125.92044818585839 19.481224045601103  C 125.65814618966333 19.251111591370105  125.3537273826446 19.136054956735272  125.0071708004698 19.136054956735272  C 124.66299878674215 19.136054956735272  124.36014887574228 19.251111591370105  124.09864172977414 19.481224045601103  C 123.837134583806 19.711181347681766  123.63286614142501 20.03597918637954  123.48581804995712 20.455627966443515  C 123.33876995848922 20.875354331253284  123.26524882644215 21.369601069830175  123.26524882644215 21.938365199479456  C 123.26524882644215 22.50728449862031  123.33876995848922 23.00350546897395  123.48581804995712 23.427033416962413  C 123.63286614142501 23.850483780205085  123.837134583806 24.17796361639589  124.09864172977414 24.409472578709845  C 124.36014887574228 24.641059125769594  124.66299878674215 24.756852468664466  125.0071708004698 24.756852468664466  C 125.3537273826446 24.756852468664466  125.65814618966333 24.641059125769594  125.92044818585839 24.409472578709845  C 126.18275018205347 24.17796361639589  126.38742449746321 23.850483780205085  126.53447258893111 23.427033416962413  C 126.68231553062594 23.00350546897395  126.75624253570177 22.50728449862031  126.75624253570177 21.938365199479456  C 126.75624253570177 21.369601069830175  126.68231553062594 20.875354331253284  126.53447258893111 20.455627966443515  C 126.38742449746321 20.03597918637954  126.18275018205347 19.711181347681766  125.92044818585839 19.481224045601103  Z M 130 28  L 130 17.456290065220536  L 131 17.456290065220536  L 131 28  L 130 28  Z M 127.36670115456063 22.256418679810555  L 127.36670115456063 21.472161410042084  L 130.46185643052772 21.472161410042084  L 130.46185643052772 22.256418679810555  L 127.36670115456063 22.256418679810555  Z M 135.49328711295487 26.027787854419444  L 135.49328711295487 22.88030852280943  L 136.47453271172617 22.88030852280943  L 136.47453271172617 26.027787854419444  L 135.49328711295487 26.027787854419444  Z M 139.475503983228 26.027787854419444  L 139.475503983228 22.88030852280943  L 140.46391753598024 22.88030852280943  L 140.46391753598024 26.027787854419444  L 139.475503983228 26.027787854419444  Z M 133.1015737370562 26.643180763113232  L 133.1015737370562 25.840189395765105  L 142.87469694175712 25.840189395765105  L 142.87469694175712 26.643180763113232  L 133.1015737370562 26.643180763113232  Z M 135.94397676770052 18.464566299933285  C 136.5353485344798 18.239884673860068  137.2097718188205 18.127547875322488  137.9672682246449 18.127547875322488  C 138.72953369629806 18.127547875322488  139.40515646024764 18.239884673860068  139.99414365857976 18.464566299933285  C 140.58313085691188 18.689170341260706  141.04535029042694 19.0032668781678  141.38077889835932 19.40685589331331  C 141.717002374285 19.81028973896724  141.8851008585258 20.287734472507363  141.8851008585258 20.839197515988037  C 141.8851008585258 21.38274705412816  141.717002374285 21.85744299168603  141.38077889835932 22.26328192977694  C 141.04535029042694 22.669120867867854  140.58313085691188 22.983217404774944  139.99414365857976 23.205571523156966  C 139.40515646024764 23.427770472047413  138.72953369629806 23.538869764409526  137.9672682246449 23.538869764409526  C 137.2097718188205 23.538869764409526  136.5353485344798 23.427770472047413  135.94397676770052 23.205571523156966  C 135.35260500092124 22.983217404774944  134.88920435163945 22.669120867867854  134.5537757437071 22.26328192977694  C 134.21834713577474 21.85744299168603  134.0506181212431 21.38274705412816  134.0506181212431 20.839197515988037  C 134.0506181212431 20.287734472507363  134.21834713577474 19.81028973896724  134.5537757437071 19.40685589331331  C 134.88920435163945 19.0032668781678  135.35260500092124 18.689170341260706  135.94397676770052 18.464566299933285  Z M 139.50173796708717 19.135699807965988  C 139.05741429177579 18.974326276640912  138.54592231672788 18.893639285542147  137.9672682246449 18.893639285542147  C 137.39338323392346 18.893639285542147  136.88309070295162 18.974326276640912  136.4363824591931 19.135699807965988  C 135.98967421543458 19.29707333929106  135.63954470695975 19.522955499997938  135.38598611656002 19.813350295915026  C 135.13242752616026 20.103745091832117  135.00564792893184 20.445694344382687  135.00564792893184 20.839197515988037  C 135.00564792893184 21.224787182252832  135.13242752616026 21.56282582719539  135.38598611656002 21.85329819051702  C 135.63954470695975 22.14361540168832  135.98967421543458 22.37023427065523  136.4363824591931 22.533159479554847  C 136.88309070295162 22.695929518962885  137.39338323392346 22.777315379717454  137.9672682246449 22.777315379717454  C 138.54592231672788 22.777315379717454  139.05741429177579 22.695929518962885  139.50173796708717 22.533159479554847  C 139.94606164239855 22.37023427065523  140.29500993510663 22.14361540168832  140.5485685255064 21.85329819051702  C 140.80292198389947 21.56282582719539  140.93008924361365 21.224787182252832  140.93008924361365 20.839197515988037  C 140.93008924361365 20.445694344382687  140.80292198389947 20.103745091832117  140.5485685255064 19.813350295915026  C 140.29500993510663 19.522955499997938  139.94606164239855 19.29707333929106  139.50173796708717 19.135699807965988  Z " fill-rule="nonzero" fill="#55565d" stroke="none" transform="matrix(1 0 0 1 81 139 )" />
  </g>
</svg>