<?xml version="1.0" encoding="utf-8"?>
<svg version="1.1" xmlns:xlink="http://www.w3.org/1999/xlink" width="425px" height="49px" xmlns="http://www.w3.org/2000/svg">
  <g transform="matrix(1 0 0 1 -107 -972 )">
    <path d="M 33 24.68245629269422  L 33 0.03566053027671645  L 39 0.03566053027671645  L 39 24.68245629269422  L 33 24.68245629269422  Z M 17.081655746526128 5.411080236193122  C 17.081655746526128 5.411080236193122  17.081655746526128 2.0498726409632972  17.081655746526128 2.0498726409632972  C 17.081655746526128 2.0498726409632972  23.722602532782002 2.0498726409632972  23.722602532782002 2.0498726409632972  C 23.722602532782002 6.301818246986077  22.899501570759345 10.009934632386463  21.25328971032133 13.174134537455135  C 19.607077849883318 16.33833444252381  17.17676460442906 18.962245773769467  13.962349973958556 21.045892671066344  C 10.747935343488058 23.128986329934076  6.779877811144874 24.719055804718256  2.0581724087326596 25.816096445525066  C 2.0581724087326596 25.816096445525066  0 20.71724846590251  0 20.71724846590251  C 3.989165487787859 19.856900380222804  7.239118391084906 18.67537730284224  9.749845333977895 17.172672803056617  C 12.260572276870883 15.669415064841852  14.1100807255473 13.916322093988796  15.298388164236611 11.913453745513488  C 16.487229970660216 9.91058539703818  17.081655746526128 7.743149194146549  17.081655746526128 5.411080236193122  Z M 2.636024090491852 7  L 2.636024090491852 2  L 19.671195863295377 2  L 19.671195863295377 7  L 2.636024090491852 7  Z M 21.925723621170395 12  L 21.925723621170395 7  L 33.38749018050604 7  L 33.38749018050604 12  L 21.925723621170395 12  Z M 21.584290823916692 21  L 21.584290823916692 16  L 33.16564874842816 16  L 33.16564874842816 21  L 21.584290823916692 21  Z M 7.730941549192427 31  L 7.730941549192427 26  L 39 26  L 39 39  L 13.90784350963821 39  L 13.90784350963821 46.19254370730578  L 8 46.19254370730578  L 8 35  L 32.58217153972543 35  L 32.58217153972543 31  L 7.730941549192427 31  Z M 7.815899235446286 48  L 7.815899235446286 43  L 39.79761915038717 43  L 39.79761915038717 48  L 7.815899235446286 48  Z M 82 48.89382887576705  L 82 0.03566053027671645  L 87 0.03566053027671645  L 87 48.89382887576705  L 82 48.89382887576705  Z M 65.14736866336905 22.11064316313535  L 65.14736866336905 16.97603334491143  L 73.3110844462093 16.97603334491143  L 73.3110844462093 22.11064316313535  L 65.14736866336905 22.11064316313535  Z M 72 46.611554938057196  L 72 0.9361902280884566  L 78 0.9361902280884566  L 78 46.611554938057196  L 72 46.611554938057196  Z M 55.30438417025636 13.25710605534329  C 55.30438417025636 13.25710605534329  55.30438417025636 7.901644089382887  55.30438417025636 7.901644089382887  L 59.902567599842314 7.901644089382887  C 59.902567599842314 7.901644089382887  59.902567599842314 13.25710605534329  59.902567599842314 13.25710605534329  C 59.902567599842314 15.973150382484153  59.69491700852803 18.651063008124567  59.279650555502805 21.290754891744818  C 58.86459783046284 23.930557383477336  58.23284738078487 26.41389826970809  57.38436161059843 28.740766469839066  C 56.535662112426735 31.067413255877693  55.44458734003757 33.16681043177246  54.11116098790583 35.03910501331481  C 52.77752090778883 36.91139959485715  51.19810797594692 38.4381153547917  49.37290193742572 39.61925437073058  C 49.37290193742572 39.61925437073058  45.71788701754992 34.96444077804793  45.71788701754992 34.96444077804793  C 47.99960838922891 33.47612156569302  49.84095886841482 31.58081376929381  51.24192211738504 29.278511057080003  C 52.64288536635525 26.97642975895855  53.67003473848314 24.43857312199693  54.32339010655409 21.66498784300104  C 54.97738665858087 18.89140256400515  55.30438417025636 16.08878552462335  55.30438417025636 13.25710605534329  Z M 56.64347971213416 13.25710605534329  C 56.64347971213416 13.25710605534329  56.64347971213416 7.901644089382887  56.64347971213416 7.901644089382887  L 61.20702946279814 7.901644089382887  C 61.20702946279814 7.901644089382887  61.20702946279814 13.25710605534329  61.20702946279814 13.25710605534329  C 61.20702946279814 15.995281502592407  61.522604231185774 18.68922537913736  62.1537322709576 21.338876345953455  C 62.78528776669997 23.988416506789466  63.79011283515767 26.396267653201704  65.16820757187294 28.562463818455484  C 66.54672976455875 30.72843856961691  68.35931811302777 32.49062663382287  70.6059886683759 33.849036123654045  C 70.6059886683759 33.849036123654045  67.02022887693764 38.43354173902976  67.02022887693764 38.43354173902976  C 64.57906910342984 36.90981269492807  62.59783169926883 34.851563913341586  61.07654169652081 32.25890065995137  C 59.555465326215824 29.666237406561162  58.43641922620949 26.734138632753705  57.719373969492665 23.46260275558643  C 57.00211498479058 20.190513442122192  56.64347971213416 16.788682989518207  56.64347971213416 13.25710605534329  Z M 47.346795032271245 11  L 47.346795032271245 6  L 68.53114757872142 6  L 68.53114757872142 11  L 47.346795032271245 11  Z M 98.65569760850362 10  L 98.65569760850362 5  L 128.44459935025884 5  L 128.44459935025884 10  L 98.65569760850362 10  Z M 93.75009136085957 43  L 93.75009136085957 38  L 136.41856366341221 38  L 136.41856366341221 43  L 93.75009136085957 43  Z M 125.99147826187043 8.704208637258308  C 125.99147826187043 8.704208637258308  125.99147826187043 4.29820828991548  125.99147826187043 4.29820828991548  L 132.0143386193144 4.29820828991548  C 132.0143386193144 4.29820828991548  132.0143386193144 8.704208637258308  132.0143386193144 8.704208637258308  C 132.0143386193144 10.663921222375391  131.98868504486518 12.77129266934772  131.9373911942519 15.026455945351394  C 131.8860973436386 17.281619221355072  131.7149220974448 19.78221339015645  131.42382950193226 22.52813476901702  C 131.1331643623902 25.27405614787759  130.63410875244676 28.400892078593554  129.92668111175377 31.90867778163714  C 129.92668111175377 31.90867778163714  123.88682187941518 31.216539307629965  123.88682187941518 31.216539307629965  C 124.93599478824963 26.32721712590092  125.54906299240784 22.06114573609543  125.72602676657371 18.4183599629501  C 125.90299054073962 14.775020951375623  125.99147826187043 11.536994781264472  125.99147826187043 8.704208637258308  Z M 97.25217755371587 17.08139400254718  L 127.13918359360387 16.039032650225774  L 127.13918359360387 20.835880514067384  L 98.07448283998468 22.46420921616302  L 97.25217755371587 17.08139400254718  Z M 110 39.77233124927637  L 110 25.94394755123307  L 116 25.94394755123307  L 116 39.77233124927637  L 110 39.77233124927637  Z M 146.06724734765757 27  L 146.06724734765757 23  L 179.02740538036332 23  L 179.02740538036332 27  L 146.06724734765757 27  Z M 140.97472685261118 42  L 140.97472685261118 37  L 183.7105342667967 37  L 183.7105342667967 42  L 140.97472685261118 42  Z M 146 24.967943151557254  L 146 5  L 178.6356485757777 5  L 178.6356485757777 10  L 153 10  L 153 24.967943151557254  L 146 24.967943151557254  Z M 202.58442175050286 35.556385318976496  C 201.93320361451347 33.472738421679615  201.60758568497624 31.026145547273  201.60758568497624 28.216597198101194  C 201.60758568497624 25.98622082410704  201.76210812817382 23.792531518647966  202.07115356393678 21.63560842885261  C 202.37998527171447 19.478685339057254  202.91013297703498 17.457917669573852  203.66158786612684 15.573318281810815  C 204.41282902723344 13.688718894047774  205.45217971634253 12.026715067397172  206.7796217804289 10.587327775848095  C 208.10706384451532 9.147940484299019  209.77891924149625 8.017622185923841  211.79519485041277 7.19633553317124  C 213.81125682688625 6.3750709921477  216.2427933951494 5.964426305430126  219.08981563810164 5.964426305430126  C 219.82438630298392 5.964426305430126  220.6487226261373 5.999006211516122  221.5628217412948 6.068166029871484  C 222.47713458443758 6.137325848226844  223.2347862952821 6.249716075576123  223.83577921461313 6.405320134305893  C 223.83577921461313 6.405320134305893  223.83577921461313 11.462631700822044  223.83577921461313 11.462631700822044  C 223.19289632673593 11.272436673958378  222.48332672462055 11.127634689544822  221.70707981917744 11.028221604723862  C 220.930619185749 10.928808519902903  220.15415649816254 10.879095750839411  219.37769586473416 10.879095750839411  C 216.30540814699677 10.879095750839411  213.90935978742775 11.479940979986178  212.18951983034216 12.68157346300799  C 210.46967987325658 13.883228008291907  209.24448161805566 15.52576253170408  208.51397173712243 17.60921037397244  C 207.7834618561892 19.692658216240808  207.35975446145156 22.070008433691893  207.24284723601028 24.741215120991082  C 207.24284723601028 24.741215120991082  207.5435683393617 24.741215120991082  207.5435683393617 24.741215120991082  C 208.03620298546338 23.885448170050548  208.6602769985278 23.1182205890966  209.41579262379756 22.43959129327313  C 210.17130824906735 21.760961997449655  211.08967514043135 21.220648146012433  212.17090667380288 20.818658098876924  C 213.25192447918914 20.416668051741418  214.5146160402513 20.215670950561538  215.9589653058934 20.215670950561538  C 218.09620904362802 20.215670950561538  219.95581258066014 20.676028443442817  221.53780037580248 21.5967060321871  C 223.1200018989301 22.5174057821274  224.34317059815103 23.85098127740752  225.2072582246355 25.597371772606227  C 226.07134585111993 27.343518890384395  226.50337963242723 29.465708856382786  226.50337963242723 31.964093435220565  C 226.50337963242723 34.635543499940304  226.0149128731228 36.939581710817194  225.0379787812605 38.87605650109992  C 224.06125841738353 40.81253129138264  222.6753694404759 42.29937539912766  220.8802985701666 43.336662035428965  C 219.0854413323003 44.373948671730275  216.95246508414553 44.89255528540002  214.48138396595334 44.89255528540002  C 212.65297191211087 44.89255528540002  210.95814242870256 44.549016332631865  209.39688596150472 43.86184439041334  C 207.83562949430686 43.17467244819481  206.47269033609825 42.139433991181654  205.30810622606273 40.756237698274866  C 204.1435221160272 39.37304140536808  203.2356398864922 37.639811000048844  202.58442175050286 35.556385318976496  Z M 211.3944616615303 39.09640210721315  C 212.25021399213148 39.61493476778459  213.24572560327843 39.87424742387403  214.38102945704313 39.87424742387403  C 216.276123495783 39.87424742387403  217.80394094419648 39.23022882113291  218.9644642225119 37.942196364478406  C 220.1249875008273 36.6541639078239  220.70524684697125 34.67878216991577  220.70524684697125 32.01596329744124  C 220.70524684697125 29.846226287520263  220.19380590569727 28.132297294592846  219.1709210613398 26.87436320481649  C 218.14824994496766 25.616650430198565  216.60591332489145 24.987799583188604  214.543900691465 24.987799583188604  C 213.14122771415487 24.987799583188604  211.91605386999566 25.29902810576725  210.8683770570581 25.921355794836167  C 209.82070024412053 26.543904799063533  209.0087492522977 27.32840188774947  208.43254834931787 28.274950793099457  C 207.85656117432336 29.22149969844944  207.56856524604126 30.187578355657344  207.56856524604126 31.173078036355214  C 207.56856524604126 32.18469251001324  207.70846435265167 33.200509498333844  207.98822955602938 34.220533750144725  C 208.26778103142183 35.24055800195561  208.69138416569282 36.17854249545017  209.25903609257517 37.034575083941185  C 209.8269017474428 37.890386357273755  210.53870933092918 38.577648180950234  211.3944616615303 39.09640210721315  Z M 241.66840611988272 13.727683223341439  C 241.66840611988272 13.727683223341439  241.66840611988272 7.568035776311219  241.66840611988272 7.568035776311219  L 246.50670171470665 7.568035776311219  C 246.50670171470665 7.568035776311219  246.50670171470665 13.727683223341439  246.50670171470665 13.727683223341439  C 246.50670171470665 16.40942419559381  246.20801269920446 19.07346450613096  245.61065310785185 21.719795646636566  C 245.01329351649923 24.365684156825285  244.14803033832473 26.855180513117617  243.01486376441272 29.188245339817065  C 241.88148346251543 31.521310166516514  240.49944512440544 33.59462559337733  238.86872811295945 35.408272548338545  C 237.23801110151342 37.22147687298288  235.38374187868502 38.64791648575895  233.3059135654331 39.68763748986917  C 233.3059135654331 39.68763748986917  229.84100476802973 34.69455540118096  229.84100476802973 34.69455540118096  C 231.7128027430019 33.7612852074695  233.37802397363808 32.530014400254714  234.8366928232088 31.00075257612597  C 236.29578903320788 29.47149075199722  237.534856534001 27.753593223106257  238.55389427462356 25.846995484543243  C 239.5727182872608 23.94039774598023  240.34642185834193 21.95130871473204  240.87496223271552 19.879833854347574  C 241.40393006305968 17.80835899396311  241.66840611988272 15.757662233522925  241.66840611988272 13.727683223341439  Z M 242.92189581696752 13.727683223341439  C 242.92189581696752 13.727683223341439  242.92189581696752 7.568035776311219  242.92189581696752 7.568035776311219  L 247.74351050146325 7.568035776311219  C 247.74351050146325 7.568035776311219  247.74351050146325 13.727683223341439  247.74351050146325 13.727683223341439  C 247.74351050146325 15.604403910184741  247.99913896492552 17.51071790629161  248.51036765911897 19.44663945814519  C 249.0222375372682 21.38200777156963  249.77057569525974 23.252878298400052  250.75541762703475 25.059221952066693  C 251.74068691923807 26.865123173284267  252.9600051707459 28.491499513584362  254.41333091622712 29.938433483848556  C 255.8666566617084 31.38470360757135  257.52323877214604 32.562680596787445  259.3830681710275 33.47227046428158  C 259.3830681710275 33.47227046428158  256.0034472538508 38.465048627995834  256.0034472538508 38.465048627995834  C 253.91471909997685 37.44922926526137  252.06352156008379 36.07287712136918  250.44990259637493 34.336025240245455  C 248.83628363266604 32.59939457534626  247.468451565391 30.62062276805097  246.34639865562858 28.39976264906796  C 245.2243457458661 26.178902530084958  244.37297622432544 23.816472139984587  243.79228712919718 21.31233356489522  C 243.21202549003948 18.807641751376707  242.92189581696752 16.27940386495781  242.92189581696752 13.727683223341439  Z M 231.6202611050204 10  L 231.6202611050204 5  L 257.396376642697 5  L 257.396376642697 10  L 231.6202611050204 10  Z M 261 48.92928678939447  L 261 0.07142236887808266  L 267 0.07142236887808266  L 267 48.92928678939447  L 261 48.92928678939447  Z M 266.21955093619704 24.216235382656013  L 266.21955093619704 18.9926768553896  L 274.6471283915022 18.9926768553896  L 274.6471283915022 24.216235382656013  L 266.21955093619704 24.216235382656013  Z M 311 49  L 311 0  L 317 0  L 317 49  L 311 49  Z M 280.5892012902743 37.51133205974296  L 280.5892012902743 32.323636679402576  C 280.5892012902743 32.323636679402576  284.69495544179813 32.323636679402576  284.69495544179813 32.323636679402576  C 287.4558467398201 32.323636679402576  290.07588584964157 32.279346032786925  292.5550884401896 32.19082146578673  C 295.0347184867081 32.10229689878654  297.4909704942191 31.937114504016606  299.92379497184356 31.695221141600094  C 302.35640581702506 31.452885148866706  304.8540014347971 31.113498600735298  307.41655660200905 30.677072478869977  C 307.41655660200905 30.677072478869977  308.03365244890267 35.77612307514183  308.03365244890267 35.77612307514183  C 304.1043300326525 36.48431961114337  300.29020938901886 36.95076257834435  296.59128172811586 37.17539365520435  C 292.8921404347698 37.399360811322516  288.9266980845512 37.51133205974296  284.69495544179813 37.51133205974296  C 284.69495544179813 37.51133205974296  280.5892012902743 37.51133205974296  280.5892012902743 37.51133205974296  Z M 280.50330193972775 10  L 280.50330193972775 5  L 302 5  L 302 23  L 286 23  L 286 34.277266411948595  L 280 34.277266411948595  L 280 18  L 296.4412513704129 18  L 296.4412513704129 10  L 280.50330193972775 10  Z M 371 26.29842537918259  L 371 0.07142236887808266  L 377 0.07142236887808266  L 377 26.29842537918259  L 371 26.29842537918259  Z M 346 48  L 346 28.526600671529465  L 352.4929256480866 28.526600671529465  L 352.4929256480866 33  L 371.52936640164825 33  L 371.52936640164825 28.526600671529465  L 377 28.526600671529465  L 377 48  L 346 48  Z M 371.52936640164825 38  L 352.4929256480866 38  L 352.4929256480866 43  L 371.52936640164825 43  L 371.52936640164825 38  Z M 345.48170912428816 3.6201516730346186  C 347.3988166677997 2.6458281605031404  349.56598136804973 2.1586777816371425  351.98320398937625 2.1586777816371425  C 354.4111128188818 2.1586777816371425  356.5804111683795 2.6458281605031404  358.4911070634174 3.6201516730346186  C 360.4018029584553 4.594475185566097  361.91070514577456 5.9405743288775765  363.0177973831948 7.658504110223457  C 364.1227523407623 9.37643389156934  364.67522437363857 11.357199415034879  364.67522437363857 13.600743892555284  C 364.67522437363857 15.83211613529546  364.1227523407623 17.815812081198622  363.0177973831948 19.55200011578094  C 361.91070514577456 21.28763491193412  360.4018029584553 22.64267312982119  358.4911070634174 23.61699664235267  C 356.5804111683795 24.59087752456727  354.4111128188818 25.077761375477596  351.98320398937625 25.077761375477596  C 349.56598136804973 25.077761375477596  347.3988166677997 24.59087752456727  345.48170912428816 23.61699664235267  C 343.5667388606294 22.64267312982119  342.05570283297794 21.28763491193412  340.9486105955577 19.55200011578094  C 339.8415183581374 17.815812081198622  339.2879550418246 15.83211613529546  339.2879550418246 13.600743892555284  C 339.2879550418246 11.357199415034879  339.8415183581374 9.37643389156934  340.9486105955577 7.658504110223457  C 342.05570283297794 5.9405743288775765  343.5667388606294 4.594475185566097  345.48170912428816 3.6201516730346186  Z M 355.4551324660526 8.123205395391919  C 354.448490661949 7.616955528246028  353.2911970934298 7.363899502141947  351.98320398937625 7.363899502141947  C 350.6858970935017 7.363899502141947  349.52855460735697 7.616955528246028  348.5112265950743 8.123205395391919  C 347.49389858279164 8.62945526253781  346.69779097804314 9.350957222333783  346.122872442975 10.287657751534098  C 345.54795390790684 11.22380504230527  345.26050362134305 12.328203299123683  345.26050362134305 13.600743892555284  C 345.26050362134305 14.885456621833209  345.54795390790684 15.995816932917608  346.122872442975 16.93196422368878  C 346.69779097804314 17.868111514459954  347.49389858279164 18.58632456479255  348.5112265950743 19.08648836401528  C 349.52855460735697 19.586652163238014  350.6858970935017 19.836676508046775  351.98320398937625 19.836676508046775  C 353.2911970934298 19.836676508046775  354.448490661949 19.586652163238014  355.4551324660526 19.08648836401528  C 356.46177427015624 18.58632456479255  357.2579307925303 17.868111514459954  357.8435355357775 16.93196422368878  C 358.4291402790247 15.995816932917608  358.72194933860493 14.885456621833209  358.72194933860493 13.600743892555284  C 358.72194933860493 12.328203299123683  358.4291402790247 11.22380504230527  357.8435355357775 10.287657751534098  C 357.2579307925303 9.350957222333783  356.46177427015624 8.62945526253781  355.4551324660526 8.123205395391919  Z M 387.54264897575126 28.643814403149243  L 387.54264897575126 23.580424337154106  C 387.54264897575126 23.580424337154106  391.06589204167784 23.580424337154106  391.06589204167784 23.580424337154106  C 394.0516215495989 23.580424337154106  396.6184768818359 23.55391073541618  398.7664068277495 23.50079599397939  C 400.9143367736632 23.4476812525426  402.8773642095271 23.332586357573383  404.6555508556268 23.155537223573  C 406.4337375017265 22.978488089572615  408.21728769795453 22.724559194307105  410.0061607433177 22.393698622206784  C 410.0061607433177 22.393698622206784  410.62487087185593 27.43976496468681  410.62487087185593 27.43976496468681  C 409.2228389829594 27.687412447022304  407.84324709938267 27.89696808585666  406.4860973230549 28.06848442746324  C 405.1310848265798 28.239558151119684  403.6981008833408 28.360551195231885  402.1870696328013 28.43137084635869  C 400.6760383822617 28.502190497485497  399.0175310001964 28.55531901546936  397.21156009818054 28.590728841032767  C 395.40558919616467 28.62613866659617  393.35701725362424 28.643814403149243  391.06589204167784 28.643814403149243  C 391.06589204167784 28.643814403149243  387.54264897575126 28.643814403149243  387.54264897575126 28.643814403149243  Z M 387.4561136960719 8  L 387.4561136960719 3  L 408 3  L 408 18  L 393.5825082080898 18  L 393.5825082080898 26.869399096908648  L 387 26.869399096908648  L 387 14  L 402.04281155491867 14  L 402.04281155491867 8  L 387.4561136960719 8  Z M 418 30.1765080467755  L 418 0.08884740071784185  L 425 0.08884740071784185  L 425 30.1765080467755  L 418 30.1765080467755  Z M 410.90057060971503 12.018915711473891  L 410.90057060971503 6.955525645478755  L 420.0725764913401 6.955525645478755  L 420.0725764913401 12.018915711473891  L 410.90057060971503 12.018915711473891  Z M 410.90057060971503 22.328152136158387  L 410.90057060971503 17.28218710200301  L 420.0725764913401 17.28218710200301  L 420.0725764913401 22.328152136158387  L 410.90057060971503 22.328152136158387  Z M 392.8772138822466 37  L 392.8772138822466 32  L 425 32  L 425 48.96413685307398  L 418 48.96413685307398  L 418 37  L 392.8772138822466 37  Z " fill-rule="nonzero" fill="#26262c" stroke="none" transform="matrix(1 0 0 1 107 972 )" />
  </g>
</svg>