<?xml version="1.0" encoding="utf-8"?>
<svg version="1.1" xmlns:xlink="http://www.w3.org/1999/xlink" width="158px" height="1px" xmlns="http://www.w3.org/2000/svg">
  <g transform="matrix(1 0 0 1 -148 -259 )">
    <path d="M 0 0  C 0 0  157.71836007130125 0  157.71836007130125 0  C 157.7559120637529 0  157.7919713246259 0.012682085856795311  157.82651915524733 0.038055419921875  C 157.86106698586875 0.06342875398695469  157.89147694767476 0.09956985712051392  157.91776334113192 0.146453857421875  C 157.94404973458904 0.19333785772323608  157.96431158180224 0.24739718437194824  157.97858133843027 0.30865478515625  C 157.99285109505826 0.36991171911358833  158 0.43369586765766144  158 0.5  C 158 0.5663041323423386  157.99285109505826 0.6300882808864117  157.97858133843027 0.69134521484375  C 157.96431158180224 0.7526028156280518  157.94404973458904 0.8066621422767639  157.91776334113192 0.853546142578125  C 157.89147694767476 0.9004301428794861  157.86106698586875 0.9365712460130453  157.82651915524733 0.961944580078125  C 157.7919713246259 0.9873179141432047  157.7559120637529 1  157.71836007130125 1  C 157.71836007130125 1  0 1  0 1  C 0 1  0 0  0 0  Z " fill-rule="nonzero" fill="#b8b8c1" stroke="none" transform="matrix(1 0 0 1 148 259 )" />
  </g>
</svg>