<?xml version="1.0" encoding="utf-8"?>
<svg version="1.1" xmlns:xlink="http://www.w3.org/1999/xlink" width="219px" height="32px" xmlns="http://www.w3.org/2000/svg">
  <g transform="matrix(1 0 0 1 -54 -457 )">
    <path d="M 5.049096959172977 6.624699286975733  L 5.049096959172977 7.453912058036996  L 0 7.453912058036996  L 0 6.624699286975733  L 5.049096959172977 6.624699286975733  Z M 4.590078446976741 8.565531007128268  L 4.007490792178943 9.1653756284495  L 0.45901061034544943 5.548396904667184  L 1.0415982651432474 4.966115799563479  L 4.590078446976741 8.565531007128268  Z M 2.118498048675834 4.507379500083415  L 2.9482516451545093 4.507379500083415  L 2.9482516451545093 9.571137077755479  L 2.1008532158692543 9.571137077755479  L 2.118498048675834 4.507379500083415  Z M 4.590078446976741 5.548396904667184  L 1.0415982651432474 9.1653756284495  L 0.45901061034544943 8.565531007128268  L 4.007490792178943 4.966115799563479  L 4.590078446976741 5.548396904667184  Z M 17.51135869401674 7.091206494710313  L 17.51135869401674 5.36909741177028  L 18.53443502091609 5.36909741177028  L 18.53443502091609 7.091206494710313  L 17.51135869401674 7.091206494710313  Z M 12.95277702427557 6  L 12.95277702427557 5  L 23.110412615164066 5  L 23.110412615164066 6  L 12.95277702427557 6  Z M 14.273516070307855 3.8529173975749473  L 14.273516070307855 0.4343495467463764  L 21.79298444461138 0.4343495467463764  L 21.79298444461138 3.8529173975749473  L 14.273516070307855 3.8529173975749473  Z M 20.779651099731968 3.0344764952729935  L 20.779651099731968 1.2500737900650438  L 15.28198582602809 1.2500737900650438  L 15.28198582602809 3.0344764952729935  L 20.779651099731968 3.0344764952729935  Z M 14.181649153062313 7.512193869945874  L 14.181649153062313 6.720856379360894  L 21.806970720503745 6.720856379360894  L 21.806970720503745 9.24630679490508  L 15.222536251634763 9.24630679490508  L 15.222536251634763 10.611743824585961  L 14.20930167989018 10.611743824585961  L 14.20930167989018 8.493697489360905  L 20.793629473773542 8.493697489360905  L 20.793629473773542 7.512193869945874  L 14.181649153062313 7.512193869945874  Z M 14.20930167989018 11.172354835939267  L 14.20930167989018 10.363611774426486  L 22.145857395190607 10.363611774426486  L 22.145857395190607 11.172354835939267  L 14.20930167989018 11.172354835939267  Z M 32.60094630616619 8.36307673475754  L 32.60094630616619 0.06598954204750403  L 33.63645224435294 0.06598954204750403  L 33.63645224435294 8.36307673475754  L 32.60094630616619 8.36307673475754  Z M 30.175828790490762 4.384150585039225  L 30.175828790490762 3.5270762648703022  L 32.801353045817095 3.5270762648703022  L 32.801353045817095 4.384150585039225  L 30.175828790490762 4.384150585039225  Z M 29.13224716080007 1.3471153760726706  C 29.13224716080007 1.3471153760726706  29.13224716080007 0.9306136470653271  29.13224716080007 0.9306136470653271  C 29.13224716080007 0.9306136470653271  30.216839396073453 0.9306136470653271  30.216839396073453 0.9306136470653271  C 30.216839396073453 1.8959850677535934  30.002452769917344 2.7777165602674803  29.573668251294443 3.5757865922217866  C 29.144883732671538 4.373856624176093  28.54071874703681 5.0682814762751365  27.76117332525685 5.659053374649189  C 26.981696921204854 6.249894312390117  26.061530162825754 6.723320079091104  25.00068545849461 7.0793290089229215  C 25.00068545849461 7.0793290089229215  24.559477717971472 6.247083688298919  24.559477717971472 6.247083688298919  C 25.475046586924094 5.9416571693834905  26.27609745121879 5.546914254957261  26.962635990310815 5.062841494991654  C 27.64931262659198 4.578803254709484  28.182601066464365 4.022956854282637  28.562500013530567 3.3952867151229653  C 28.942329912002204 2.7674923174423918  29.13224716080007 2.0847556635725843  29.13224716080007 1.3471153760726706  Z M 25.120311577553636 1.777990126445076  L 25.120311577553636 0.9306136470653271  L 29.80100449842623 0.9306136470653271  L 29.80100449842623 1.777990126445076  L 25.120311577553636 1.777990126445076  Z M 26.533541787043603 11.048146660098775  L 26.533541787043603 10.200580646371355  L 33.92230959841062 10.200580646371355  L 33.92230959841062 11.048146660098775  L 26.533541787043603 11.048146660098775  Z M 26.533541787043603 10.626843394283762  L 26.533541787043603 7.523281629284636  L 27.568945001170125 7.523281629284636  L 27.568945001170125 10.626843394283762  L 26.533541787043603 10.626843394283762  Z M 37.992031416459795 0.754788950542394  C 38.690515146346065 0.4201861113770954  39.66021694051 0.25287040885125406  40.90113729281726 0.25287040885125406  C 42.14212666285249 0.25287040885125406  43.111038086738134 0.4201861113770954  43.80786471208795 0.754788950542394  C 44.50462225797659 1.089384879601267  44.85299510453283 1.5703691921789442  44.85299510453283 2.1977771174787195  C 44.85299510453283 2.8251850427784944  44.50462225797659 3.307433287858252  43.80786471208795 3.644492793252577  C 43.111038086738134 3.9814142816105287  42.14212666285249 4.149886131317688  40.90113729281726 4.149886131317688  C 39.66021694051 4.149886131317688  38.690515146346065 3.9814142816105287  37.992031416459795 3.644492793252577  C 37.29368572202945 3.307433287858252  36.94451466507735 2.8251850427784944  36.94451466507735 2.1977771174787195  C 36.94451466507735 1.5703691921789442  37.29368572202945 1.089384879601267  37.992031416459795 0.754788950542394  Z M 42.462060995360424 1.1687635549141222  C 42.0328621851701 1.077549641094008  41.51110621872139 1.0319197558955546  40.896791274884606 1.0319197558955546  C 40.29014057071198 1.0319197558955546  39.77093199427722 1.077549641094008  39.33917844782105 1.1687635549141222  C 38.90742490136488 1.2599843711284895  38.57776311273914 1.3920853461074878  38.3501828033645 1.5650798758944886  C 38.12267154258443 1.7380744056814894  38.00890976974007 1.9489057939021273  38.00890976974007 2.1975875831310483  C 38.00890976974007 2.44627626704205  38.12267154258443 2.6579510121578385  38.3501828033645 2.832622415003223  C 38.57776311273914 3.007300712530688  38.90742490136488 3.1394332919919763  39.33917844782105 3.2289703250415345  C 39.77093199427722 3.318507358091093  40.29014057071198 3.3632554103665417  40.896791274884606 3.3632554103665417  C 41.51110621872139 3.3632554103665417  42.0328621851701 3.318507358091093  42.462060995360424 3.2289703250415345  C 42.891328854145314 3.1394332919919763  43.21971298140537 3.007300712530688  43.44722424218545 2.832622415003223  C 43.67466646980426 2.6579510121578385  43.78838664989887 2.44627626704205  43.78838664989887 2.1975875831310483  C 43.78838664989887 1.9489057939021273  43.67466646980426 1.7380744056814894  43.44722424218545 1.5650798758944886  C 43.21971298140537 1.3920853461074878  42.891328854145314 1.2599843711284895  42.462060995360424 1.1687635549141222  Z M 35.821282379457266 6  L 35.821282379457266 5  L 45.97892192127115 5  L 45.97892192127115 6  L 35.821282379457266 6  Z M 37.05015450824401 7.47918330439315  L 37.05015450824401 6.687940580982005  L 44.675480026610835 6.687940580982005  L 44.675480026610835 9.220846014201255  L 38.09104160681646 9.220846014201255  L 38.09104160681646 10.578701669975292  L 37.077810985997274 10.578701669975292  L 37.077810985997274 8.46823670865708  L 43.66213877988063 8.46823670865708  L 43.66213877988063 7.47918330439315  L 37.05015450824401 7.47918330439315  Z M 37.077810985997274 11.172354835939267  L 37.077810985997274 10.363611774426486  L 45.01435879944691 10.363611774426486  L 45.01435879944691 11.172354835939267  L 37.077810985997274 11.172354835939267  Z M 56.44685133977504 4.006629753536247  L 56.44685133977504 3.1620015221977296  L 59.28231986865176 3.1620015221977296  L 59.28231986865176 4.006629753536247  L 56.44685133977504 4.006629753536247  Z M 58.69797010112853 8.299709084519487  L 58.69797010112853 0.07082266791311824  L 59.73347603931528 0.07082266791311824  L 59.73347603931528 8.299709084519487  L 58.69797010112853 8.299709084519487  Z M 52.55806610103848 11.048146660098775  L 52.55806610103848 10.200580646371355  L 60.045330482461026 10.200580646371355  L 60.045330482461026 11.048146660098775  L 52.55806610103848 11.048146660098775  Z M 52.55806610103848 10.628707148702528  L 52.55806610103848 7.573887300112832  L 53.5860099680224 7.573887300112832  L 53.5860099680224 10.628707148702528  L 52.55806610103848 10.628707148702528  Z M 53.35038467941542 2.3707272097286403  C 53.35038467941542 2.3707272097286403  53.35038467941542 1.461625711123988  53.35038467941542 1.461625711123988  L 54.19770013926741 1.461625711123988  C 54.19770013926741 1.461625711123988  54.19770013926741 2.3707272097286403  54.19770013926741 2.3707272097286403  C 54.19770013926741 3.0502770705887117  54.065958260556926 3.68952490797219  53.802473268471765 4.288467328523241  C 53.53905732498117 4.88738210864859  53.172108184090284 5.408987759486836  52.701619024279466 5.8533260810121135  C 52.23112986446864 6.297664402537391  51.68244238420974 6.6380805538252865  51.05556078136098 6.874568735322193  C 51.05556078136098 6.874568735322193  50.523932162286265 6.049810021431202  50.523932162286265 6.049810021431202  C 50.94339527497534 5.899443005318807  51.32505417410464 5.700495719929438  51.66891034127119 5.452966360614763  C 52.01276650843774 5.205443895982168  52.31142810176328 4.918511181786144  52.56490120196892 4.5921961206662525  C 52.818512399363705 4.265749952616413  53.01285088800972 3.9134932414223367  53.147907654858415 3.5354157761678326  C 53.28289537311254 3.1572140832411164  53.35038467941542 2.768989342641576  53.35038467941542 2.3707272097286403  Z M 53.55027779876519 2.3631458358217943  C 53.55027779876519 2.3631458358217943  53.55027779876519 1.461625711123988  53.55027779876519 1.461625711123988  L 54.387755454387815 1.461625711123988  C 54.387755454387815 1.461625711123988  54.387755454387815 2.3631458358217943  54.387755454387815 2.3631458358217943  C 54.387755454387815 2.844216771519305  54.50106362704375 3.3122290559610033  54.727677271527725 3.767153105253754  C 54.954359964606276 4.222090974759356  55.27301023092807 4.625914694489388  55.68363527784531 4.978625066509775  C 56.094467470546256 5.331218120964374  56.570832428082056 5.605046327327793  57.11271660001329 5.800130107432412  C 57.11271660001329 5.800130107432412  56.59081515925693 6.6102946765527255  56.59081515925693 6.6102946765527255  C 55.981885882330126 6.387055899182535  55.4491857908087 6.063692826273014  54.992713248762605 5.64019470705591  C 54.53637880390564 5.216600000592295  54.18185351768037 4.722343903163743  53.9291399365817 4.157435916166589  C 53.676564452672146 3.5925210190630095  53.55027779876519 2.9944319966555084  53.55027779876519 2.3631458358217943  Z M 50.848729837020535 1.8210776014823165  L 50.848729837020535 0.9785658370261271  L 56.84943483365305 0.9785658370261271  L 56.84943483365305 1.8210776014823165  L 50.848729837020535 1.8210776014823165  Z M 62.42073745483767 5.3043082539246935  L 62.42073745483767 4.463912956350832  C 62.42073745483767 4.463912956350832  63.290936674567796 4.463912956350832  63.290936674567796 4.463912956350832  C 64.04880120805227 4.463912956350832  64.71587378466423 4.45356311694294  65.29214360109205 4.4328609123907095  C 65.86848243524786 4.412158707838479  66.40788576556473 4.373653713065481  66.91034386906222 4.317371316543091  C 67.41280197255972 4.260957809234666  67.91874686031663 4.180547600021322  68.42817877926579 4.076125681015667  C 68.42817877926579 4.076125681015667  68.55111577380443 4.904074889759124  68.55111577380443 4.904074889759124  C 68.02331726823249 5.011726358058024  67.50286470589771 5.094556654666937  66.98977327316958 5.152522830498051  C 66.47681993763058 5.210523506732171  65.92523642905837 5.250298580608613  65.33501904346039 5.2718978804729275  C 64.74480165786241 5.293497180337242  64.0634392631681 5.3043082539246935  63.290936674567796 5.3043082539246935  C 63.290936674567796 5.3043082539246935  62.42073745483767 5.3043082539246935  62.42073745483767 5.3043082539246935  Z M 62.42073745483767 4.957270863338826  L 62.42073745483767 0.7054784310899508  L 67.38221079063754 0.7054784310899508  L 67.38221079063754 1.5384818891046377  L 63.44370315582601 1.5384818891046377  L 63.44370315582601 4.957270863338826  L 62.42073745483767 4.957270863338826  Z M 69.61137030865495 5.711112142142864  L 69.61137030865495 0.058408168140658176  L 70.64200870675712 0.058408168140658176  L 70.64200870675712 5.711112142142864  L 69.61137030865495 5.711112142142864  Z M 70.36060799654311 3.2805868457239766  L 70.36060799654311 2.4235125255550543  L 72.30079683129289 2.4235125255550543  L 72.30079683129289 3.2805868457239766  L 70.36060799654311 3.2805868457239766  Z M 63.50739997501716 7.110254696651264  L 63.50739997501716 6.284769434427532  L 70.64200870675712 6.284769434427532  L 70.64200870675712 9.059394339043385  L 64.54560044432215 9.059394339043385  L 64.54560044432215 10.792559592264235  L 63.53505645277042 10.792559592264235  L 63.53505645277042 8.265466545706898  L 69.62865955817614 8.265466545706898  L 69.62865955817614 7.110254696651264  L 63.50739997501716 7.110254696651264  Z M 63.53505645277042 11.148126028495305  L 63.53505645277042 10.310321033672949  L 71.04655185963021 10.310321033672949  L 71.04655185963021 11.148126028495305  L 63.53505645277042 11.148126028495305  Z M 81.04561705985772 8.493065708202  L 81.04561705985772 0.07082266791311824  L 82.07625545795989 0.07082266791311824  L 82.07625545795989 8.493065708202  L 81.04561705985772 8.493065708202  Z M 81.75684684546209 4.62151076643939  L 81.75684684546209 3.7547070164233487  L 83.73505938619722 3.7547070164233487  L 83.73505938619722 4.62151076643939  L 81.75684684546209 4.62151076643939  Z M 73.3856103183883 2.2668939762627973  L 73.3856103183883 1.4338905182481103  L 80.02150559050531 1.4338905182481103  L 80.02150559050531 2.2668939762627973  L 73.3856103183883 2.2668939762627973  Z M 75.29297486497036 3.14472230750171  C 75.69938800935209 2.970306223834142  76.16915479801462 2.8831017295996384  76.70226995276859 2.8831017295996384  C 77.23531608979458 2.8831017295996384  77.70372993344274 2.970306223834142  78.10751929296404 3.14472230750171  C 78.51130865248534 3.319138391169279  78.82608440369359 3.5630365821034164  79.05186948047604 3.8764196566861697  C 79.27765455725849 4.189795821162497  79.39055860889324 4.557386243606918  79.39055860889324 4.979193669552788  C 79.39055860889324 5.396060184312281  79.27765455725849 5.761207637345769  79.05186948047604 6.074639020976122  C 78.82608440369359 6.3880013960882875  78.51130865248534 6.6318600235782705  78.10751929296404 6.806241602986746  C 77.70372993344274 6.980554173877033  77.23531608979458 7.067735824657037  76.70226995276859 7.067735824657037  C 76.16915479801462 7.067735824657037  75.69938800935209 6.980554173877033  75.29297486497036 6.806241602986746  C 74.88676886637235 6.6318600235782705  74.5707333255625 6.3880013960882875  74.34487920018549 6.074639020976122  C 74.11916317199761 5.761207637345769  74.0063006976793 5.396060184312281  74.0063006976793 4.979193669552788  C 74.0063006976793 4.557386243606918  74.11916317199761 4.189795821162497  74.34487920018549 3.8764196566861697  C 74.5707333255625 3.5630365821034164  74.88676886637235 3.319138391169279  75.29297486497036 3.14472230750171  Z M 77.93465840515539 4.040809114232943  C 77.62173548362358 3.8063566377495164  77.21094233717749 3.6891281321291323  76.70226995276859 3.6891281321291323  C 76.19311422819769 3.6891281321291323  75.78081769290623 3.8063566377495164  75.46540905283653 4.040809114232943  C 75.15020755855055 4.275130468362078  74.99260971286839 4.588376343398726  74.99260971286839 4.980551999044431  C 74.99260971286839 5.365875235313803  75.15020755855055 5.675736824031178  75.46540905283653 5.910154796255512  C 75.78081769290623 6.144641776998032  76.19311422819769 6.261898956475214  76.70226995276859 6.261898956475214  C 77.21094233717749 6.261898956475214  77.62173548362358 6.144641776998032  77.93465840515539 5.910154796255512  C 78.24771942387633 5.675736824031178  78.40424959370415 5.365875235313803  78.40424959370415 4.980551999044431  C 78.40424959370415 4.588376343398726  78.24771942387633 4.275130468362078  77.93465840515539 4.040809114232943  Z M 76.18823875539572 1.8610693488409285  L 76.18823875539572 0.06870620103079045  L 77.21887715349789 0.06870620103079045  L 77.21887715349789 1.8610693488409285  L 76.18823875539572 1.8610693488409285  Z M 75.07992516406082 11.048146660098775  L 75.07992516406082 10.200580646371355  L 82.58075702328405 10.200580646371355  L 82.58075702328405 11.048146660098775  L 75.07992516406082 11.048146660098775  Z M 75.07992516406082 10.555420534269686  L 75.07992516406082 7.821482336287239  L 76.10786112919396 7.821482336287239  L 76.10786112919396 10.555420534269686  L 75.07992516406082 10.555420534269686  Z M 88.54821893365714 2.175285708221743  L 88.54821893365714 1.3424717845547276  L 97.58769917805598 1.3424717845547276  L 97.58769917805598 2.175285708221743  L 88.54821893365714 2.175285708221743  Z M 88.02021726409349 8.187915408451454  L 88.02021726409349 7.348120302978552  L 98.20808928701709 7.348120302978552  L 98.20808928701709 8.187915408451454  L 88.02021726409349 8.187915408451454  Z M 92.57879498290926 11.305376358946466  L 92.57879498290926 8.031296859159198  L 93.60176858574839 8.031296859159198  L 93.60176858574839 11.305376358946466  L 92.57879498290926 11.305376358946466  Z M 90.40845684214764 3.308922230700813  C 91.05329077091837 2.9838976011071963  91.9483840924865 2.821376710374735  93.09374279497338 2.821376710374735  C 94.23910149746025 2.821376710374735  95.133816517922 2.9838976011071963  95.77789088128584 3.308922230700813  C 96.4221724213 3.63394686029443  96.74431883989573 4.0975533657647665  96.74431883989573 4.699725273911683  C 96.74431883989573 5.292974568834038  96.4218614093917 5.752917699892103  95.77695846289302 6.079598503073517  C 95.13212453412231 6.406348314773116  94.23709850175226 6.5697343261511  93.09187795818774 6.5697343261511  C 91.9464502379729 6.5697343261511  91.0516262583968 6.406348314773116  90.4074137978438 6.079598503073517  C 89.76333943447996 5.752917699892103  89.44130191326538 5.292974568834038  89.44130191326538 4.699725273911683  C 89.44130191326538 4.0975533657647665  89.7636919928381 3.63394686029443  90.40845684214764 3.308922230700813  Z M 94.99883160852889 3.8909822123989026  C 94.54684716339658 3.7036272629364597  93.91150570328257 3.609934363860538  93.09281037658056 3.609934363860538  C 92.27404603215058 3.609934363860538  91.63863719023865 3.7036272629364597  91.18658369651178 3.8909822123989026  C 90.73459925137948 4.078206054931398  90.5086048990176 4.347185032413335  90.5086048990176 4.697956286666752  C 90.5086048990176 5.042289172652958  90.73459925137948 5.308886523342833  91.18658369651178 5.497759644781043  C 91.63863719023865 5.686701774737441  92.27404603215058 5.781176672665297  93.09281037658056 5.781176672665297  C 93.91150570328257 5.781176672665297  94.54684716339658 5.686701774737441  94.99883160852889 5.497759644781043  C 95.45095415085034 5.308886523342833  95.67701585414353 5.042289172652958  95.67701585414353 4.697956286666752  C 95.67701585414353 4.347185032413335  95.45095415085034 4.078206054931398  94.99883160852889 3.8909822123989026  Z M 92.57879498290926 1.8960068469283096  L 92.57879498290926 0  L 93.60176858574839 0  L 93.60176858574839 1.8960068469283096  L 92.57879498290926 1.8960068469283096  Z M 105.41560444504003 1.7896464888268515  C 105.41560444504003 1.7896464888268515  105.41560444504003 0.6437534118650476  105.41560444504003 0.6437534118650476  L 106.26696565249479 0.6437534118650476  C 106.26696565249479 0.6437534118650476  106.26696565249479 1.7896464888268515  106.26696565249479 1.7896464888268515  C 106.26696565249479 2.5073643225282303  106.13990650007362 3.1764877582528883  105.88581197795015 3.797036354069905  C 105.63171745582669 4.417584949886921  105.2726778052071 4.957515555143143  104.80867908981936 5.416828478325464  C 104.34537086037733 5.876072392989598  103.80093618090508 6.226460244306812  103.17536653221974 6.46798597050964  C 103.17536653221974 6.46798597050964  102.62664620989351 5.645470079732757  102.62664620989351 5.645470079732757  C 103.1933875054704 5.436998878465048  103.68562295991192 5.139475747500763  104.10335988860339 4.752889658433439  C 104.52178730324053 4.366144852859155  104.84493404675928 3.9179621059635203  105.0727905505122 3.408301406996384  C 105.30133752477751 2.898509601099299  105.41560444504003 2.3589571390777375  105.41560444504003 1.7896464888268515  Z M 105.60306795310241 1.8670712698505147  C 105.60306795310241 1.8670712698505147  105.60306795310241 0.6437534118650476  105.60306795310241 0.6437534118650476  L 106.43785107760678 0.6437534118650476  C 106.43785107760678 0.6437534118650476  106.43785107760678 1.8670712698505147  106.43785107760678 1.8670712698505147  C 106.43785107760678 2.2456594043093396  106.50447476084928 2.6133082233227936  106.63773629510577 2.970034817064804  C 106.77099782936227 3.3266303038768656  106.95881340191711 3.658401079111834  107.20116986359673 3.9653112657439373  C 107.44283585476397 4.272097255552517  107.73076323136162 4.543606242022529  108.0649527804881 4.779866713918633  C 108.39914232961459 5.016002958142524  108.76855363782403 5.204437102730578  109.17317154961356 5.345184494905771  C 109.17317154961356 5.345184494905771  108.62734330467524 6.15538065308403  108.62734330467524 6.15538065308403  C 108.02801162806053 5.930347685089669  107.50084199869143 5.605363235913995  107.04581947713129 5.180415968663654  C 106.59079695557114 4.7555377099315015  106.23658263495427 4.258769356935624  105.9831785833432 3.690107392925433  C 105.72977453173213 3.1213143219852935  105.60306795310241 2.513628765884607  105.60306795310241 1.8670712698505147  Z M 110.37148722140834 6.875611174234385  L 110.37148722140834 0.06327288306421759  L 111.40201499359951 0.06327288306421759  L 111.40201499359951 6.875611174234385  L 110.37148722140834 6.875611174234385  Z M 111.12029820935402 3.8304259883179714  L 111.12029820935402 2.9636538273598756  L 113.06018677377392 2.9636538273598756  L 113.06018677377392 3.8304259883179714  L 111.12029820935402 3.8304259883179714  Z M 105.84853104593877 7.421533273643176  C 106.40298187688197 7.260470122303948  107.06065736264554 7.179940158478355  107.82155997255785 7.179940158478355  C 108.59143877629774 7.179940158478355  109.2508455081821 7.260470122303948  109.79977251329298 7.421533273643176  C 110.34800909419137 7.582527416464217  110.7705783133049 7.815927351089674  111.06748223869607 8.121767921114225  C 111.36438616408725 8.427539482620588  111.51283054903142 8.79689679459906  111.51283054903142 9.229848895715635  C 111.51283054903142 9.659626666692992  111.36438616408725 10.026958700515001  111.06748223869607 10.331833182133623  C 110.7705783133049 10.63663865523406  110.34800909419137 10.86960892931356  109.79977251329298 11.030741089170975  C 109.2508455081821 11.191804240510203  108.59143877629774 11.272334204335795  107.82155997255785 11.272334204335795  C 107.06065736264554 11.272334204335795  106.40298187688197 11.191804240510203  105.84853104593877 11.030741089170975  C 105.29408021499556 10.86960892931356  104.8684010619986 10.63663865523406  104.5714971366074 10.331833182133623  C 104.27459321121623 10.026958700515001  104.12614882627207 9.659626666692992  104.12614882627207 9.229848895715635  C 104.12614882627207 8.79689679459906  104.27459321121623 8.427539482620588  104.5714971366074 8.121767921114225  C 104.8684010619986 7.815927351089674  105.29408021499556 7.582527416464217  105.84853104593877 7.421533273643176  Z M 109.25705759756458 8.145491303631063  C 108.85727299479508 8.048673995307544  108.3787726855506 8.000244815199075  107.82155997255785 8.000244815199075  C 107.26849011350603 8.000244815199075  106.79205780503891 8.048673995307544  106.39227320226941 8.145491303631063  C 105.9931790854456 8.242239611148568  105.68489255942956 8.381895113962463  105.4673931750957 8.564488568216078  C 105.24989379076185 8.746944005433319  105.14114155981669 8.968725074258964  105.14114155981669 9.229848895715635  C 105.14114155981669 9.487798371608742  105.24989379076185 9.708854789296048  105.4673931750957 9.892966400101084  C 105.68489255942956 10.07714701942431  105.9931790854456 10.217584536514483  106.39227320226941 10.314332844031988  C 106.79205780503891 10.411012143031305  107.26849011350603 10.45935820905836  107.82155997255785 10.45935820905836  C 108.3787726855506 10.45935820905836  108.85727299479508 10.411012143031305  109.25705759756458 10.314332844031988  C 109.65753265541316 10.217584536514483  109.96514565668276 10.07714701942431  110.17988314353376 9.892966400101084  C 110.39462063038475 9.708854789296048  110.50197838529901 9.487798371608742  110.50197838529901 9.229848895715635  C 110.50197838529901 8.968725074258964  110.39462063038475 8.746944005433319  110.17988314353376 8.564488568216078  C 109.96514565668276 8.381895113962463  109.65753265541316 8.242239611148568  109.25705759756458 8.145491303631063  Z M 122 11.29293027011606  L 122 0.058408168140658176  L 123 0.058408168140658176  L 123 11.29293027011606  L 122 11.29293027011606  Z M 120.76381173158559 5.416607354919848  L 120.76381173158559 4.56442933873243  L 122.92741749547699 4.56442933873243  L 122.92741749547699 5.416607354919848  L 120.76381173158559 5.416607354919848  Z M 120 10.718262127977145  L 120 0.30799331496561233  L 121 0.30799331496561233  L 121 10.718262127977145  L 120 10.718262127977145  Z M 114.5195005770516 8.528161151579107  L 114.5195005770516 7.6614521687369015  C 114.5195005770516 7.6614521687369015  115.2507220451462 7.6614521687369015  115.2507220451462 7.6614521687369015  C 115.80310147998554 7.6614521687369015  116.3043814669173 7.654024292124379  116.7545706794574 7.639118704769651  C 117.20475989199753 7.624075102306594  117.63665888189473 7.592103119579885  118.05025295664525 7.543245913905997  C 118.46315657631668 7.494181686533634  118.8839945493094 7.4248409241058075  119.31277906793231 7.3352003782789685  C 119.31277906793231 7.3352003782789685  119.41635652804366 8.192274698447891  119.41635652804366 8.192274698447891  C 118.96892919755311 8.285434624717055  118.53427289386383 8.357236109976565  118.11239311123144 8.407680484576149  C 117.69051332859902 8.458124859175733  117.24998974636765 8.490878852322634  116.79082437086653 8.505922454785694  C 116.33096850941978 8.520759034586256  115.81760143791223 8.528161151579107  115.2507220451462 8.528161151579107  C 115.2507220451462 8.528161151579107  114.5195005770516 8.528161151579107  114.5195005770516 8.528161151579107  Z M 114.5195005770516 8.05479911827042  L 114.5195005770516 1.42804654252825  L 118.69341619957348 1.42804654252825  L 118.69341619957348 2.2727063629247124  L 115.5407199690161 2.2727063629247124  L 115.5407199690161 8.05479911827042  L 114.5195005770516 8.05479911827042  Z M 128.71704035204587 7.355891211233069  C 129.27149118298905 7.18979051518792  129.93020854012548 7.106748311219348  130.6931826078749 7.106748311219348  C 131.45615667562427 7.106748311219348  132.1131427866399 7.18979051518792  132.66414124958786 7.355891211233069  C 133.2151397125358 7.522060915796405  133.63908761941198 7.759843785938723  133.9359915448032 8.069203728693427  C 134.23289547019436 8.378425654411757  134.3813398551385 8.752672822995649  134.3813398551385 9.191973615239352  C 134.3813398551385 9.629687242413443  134.23289547019436 10.004856879356453  133.9359915448032 10.317460160768562  C 133.63908761941198 10.630063442180672  133.2151397125358 10.869436099531198  132.66414124958786 11.035605804094534  C 132.1131427866399 11.201706500139682  131.45615667562427 11.284748704108257  130.6931826078749 11.284748704108257  C 129.93020854012548 11.284748704108257  129.27149118298905 11.201706500139682  128.71704035204587 11.035605804094534  C 128.16258952110263 10.869436099531198  127.73691036810568 10.62998033581143  127.4400064427145 10.317239037362945  C 127.14310251732333 10.004497738914461  126.99465813237916 9.629276584660156  126.99465813237916 9.191562957486063  C 126.99465813237916 8.753711313275598  127.14310251732333 8.379842287926365  127.4400064427145 8.069930277026167  C 127.73691036810568 7.760087274644154  128.16258952110263 7.522060915796405  128.71704035204587 7.355891211233069  Z M 132.12556690367168 8.083387215710818  C 131.72578230090218 7.985672804363041  131.24832392476378 7.936813986845132  130.6931826078749 7.936813986845132  C 130.138041290986 7.936813986845132  129.660567111146 7.985672804363041  129.2607825083765 8.083387215710818  C 128.8616883915527 8.181101627058595  128.55340186553667 8.323730619619372  128.3359024812028 8.511292594636375  C 128.11840309686895 8.698785561135193  128.00965086592376 8.92516151139822  128.00965086592376 9.190425751400037  C 128.00965086592376 9.462797776229037  128.11840309686895 9.693550816182285  128.3359024812028 9.882699956268898  C 128.55340186553667 10.07184909635551  128.8616883915527 10.216047947871145  129.2607825083765 10.315280515770343  C 129.660567111146 10.41458209218773  130.138041290986 10.46422292398192  130.6931826078749 10.46422292398192  C 131.24832392476378 10.46422292398192  131.72578230090218 10.41458209218773  132.12556690367168 10.315280515770343  C 132.52604196152026 10.216047947871145  132.83363915908828 10.07184909635551  133.04837664593927 9.882699956268898  C 133.26311413279026 9.693550816182285  133.3704876914061 9.462797776229037  133.3704876914061 9.190425751400037  C 133.3704876914061 8.92516151139822  133.26311413279026 8.698785561135193  133.04837664593927 8.511292594636375  C 132.83363915908828 8.323730619619372  132.52604196152026 8.181101627058595  132.12556690367168 8.083387215710818  Z M 133.23999652751542 6.807505165304553  L 133.23999652751542 0.06327288306421759  L 134.2705242997066 0.06327288306421759  L 134.2705242997066 6.807505165304553  L 133.23999652751542 6.807505165304553  Z M 133.9888075154611 3.748515561066091  L 133.9888075154611 2.881743400107995  L 135.92869607988098 2.881743400107995  L 135.92869607988098 3.748515561066091  L 133.9888075154611 3.748515561066091  Z M 126.01278995733217 5.949609529629056  L 126.01278995733217 0.7658451208232109  L 127.03089602008673 0.7658451208232109  L 127.03089602008673 2.454375035167506  L 130.2032836628044 2.454375035167506  L 130.2032836628044 0.7658451208232109  L 131.21413582653685 0.7658451208232109  L 131.21413582653685 5.949609529629056  L 126.01278995733217 5.949609529629056  Z M 130.2032836628044 3.269909744138502  L 127.03089602008673 3.269909744138502  L 127.03089602008673 5.116795605962039  L 130.2032836628044 5.116795605962039  L 130.2032836628044 3.269909744138502  Z M 141.54329294152566 5.2763519376431995  L 141.54329294152566 4.424110743339892  L 143.66441835558805 4.424110743339892  L 143.66441835558805 5.2763519376431995  L 141.54329294152566 5.2763519376431995  Z M 145 11.29293027011606  L 145 0.058408168140658176  L 146 0.058408168140658176  L 146 11.29293027011606  L 145 11.29293027011606  Z M 143 10.732729916516043  L 143 0.29848500852410986  L 144 0.29848500852410986  L 144 10.732729916516043  L 143 10.732729916516043  Z M 138.25490612925998 1.4721132783617914  C 138.61533368132373 1.1545897543852028  139.03445624276387 0.9958450517221465  139.51226443013257 0.9958450517221465  C 139.99904878046232 0.9958450517221465  140.42230734345716 1.1545897543852028  140.7820444404418 1.4721132783617914  C 141.14247199250553 1.7896298922319545  141.4210696446194 2.2410760911304837  141.61785480554843 2.8264309596459656  C 141.8146399664775 3.4116547212314994  141.91303634353437 4.105033309180866  141.91303634353437 4.906602014394739  C 141.91303634353437 5.708129258970058  141.8146399664775 6.402361121668219  141.61785480554843 6.9892686047211825  C 141.4210696446194 7.576245127141022  141.1421194341474 8.028913890449147  140.78100139613795 8.347313794842888  C 140.42057384407423 8.665713699236631  139.99731525021278 8.824940350974178  139.51122138582875 8.824940350974178  C 139.03341319846004 8.824940350974178  138.61464322624462 8.665713699236631  138.25490612925998 8.347313794842888  C 137.89447857719628 8.028913890449147  137.6158651213808 7.576245127141022  137.4190799604518 6.9892686047211825  C 137.22229479952273 6.402361121668219  137.12391422616741 5.708129258970058  137.12391422616741 4.906602014394739  C 137.12391422616741 4.105033309180866  137.22229479952273 3.4116547212314994  137.4190799604518 2.8264309596459656  C 137.6158651213808 2.2410760911304837  137.89447857719628 1.7896298922319545  138.25490612925998 1.4721132783617914  Z M 140.2848915963492 2.315004111513323  C 140.06670172606965 2.0761558664582447  139.80950514104697 1.956752605356912  139.51329167073487 1.956752605356912  C 139.22398296727985 1.956752605356912  138.97023303993058 2.0761558664582447  138.75204316965102 2.315004111513323  C 138.53385329937146 2.5538592512504823  138.36641266450326 2.8930539178329115  138.24972251514396 3.332582435101761  C 138.13234188755558 3.7719867246983987  138.0736534759159 4.296601449246749  138.0736534759159 4.906412480047067  C 138.0736534759159 5.508225556238888  138.13234188755558 6.03088829911679  138.24972251514396 6.474398549272514  C 138.36641266450326 6.917977807946425  138.53385329937146 7.260476538831343  138.75204316965102 7.501864247997797  C 138.97023303993058 7.743320965682437  139.22398296727985 7.864032797339411  139.51329167073487 7.864032797339411  C 139.80950514104697 7.864032797339411  140.06670172606965 7.743320965682437  140.2848915963492 7.501864247997797  C 140.50308146662877 7.260476538831343  140.67052210149694 6.917977807946425  140.78721225085627 6.474398549272514  C 140.90459287844462 6.03088829911679  140.96329709378588 5.508225556238888  140.96329709378588 4.906412480047067  C 140.96329709378588 4.296601449246749  140.90459287844462 3.7719867246983987  140.78721225085627 3.332582435101761  C 140.67052210149694 2.8930539178329115  140.50308146662877 2.5538592512504823  140.2848915963492 2.315004111513323  Z M 157 11.29293027011606  L 157 0.058408168140658176  L 158 0.058408168140658176  L 158 11.29293027011606  L 157 11.29293027011606  Z M 152.10340535130655 5.484018404574885  L 152.10340535130655 4.649056424967597  L 154.9319360551926 4.649056424967597  L 154.9319360551926 5.484018404574885  L 152.10340535130655 5.484018404574885  Z M 154 10.722273938336185  L 154 0.35013311826449717  L 155 0.35013311826449717  L 155 10.722273938336185  L 154 10.722273938336185  Z M 152.24115041421933 1.6685340406649891  C 152.24115041421933 1.6685340406649891  152.24115041421933 1.4812425161079517  152.24115041421933 1.4812425161079517  C 152.24115041421933 1.4812425161079517  153.23544029870294 1.4812425161079517  153.23544029870294 1.4812425161079517  C 153.23544029870294 2.4604567925852585  153.0949153893767 3.400394332626857  152.813892362937 4.3010713626433725  C 152.53355982244298 5.2017622128727385  152.08372227312947 6.038270637279629  151.46436687448895 6.810600892983182  C 150.84501147584842 7.5827931316503605  150.03094052211966 8.270027771224145  149.022157655562 8.872323937891963  C 149.022157655562 8.872323937891963  148.41834562955128 8.132634557047371  148.41834562955128 8.132634557047371  C 149.29870033260568 7.60590145299795  150.02057884987642 7.0081945224573525  150.5840058746472 6.339513271846548  C 151.14812332363047 5.6706940658967495  151.56551463894982 4.944176396754619  151.83618056140375 4.159963040802204  C 152.10615599791203 3.3756048194043684  152.24115041421933 2.5451413190800873  152.24115041421933 1.6685340406649891  Z M 148.90513124541178 2.3285874064297554  L 148.90513124541178 1.4812425161079517  L 152.6202180001563 1.4812425161079517  L 152.6202180001563 2.3285874064297554  L 148.90513124541178 2.3285874064297554  Z M 171.29202274607283 5.791032458744197  L 171.29202274607283 0.058408168140658176  L 172.32773413238002 0.058408168140658176  L 172.32773413238002 5.791032458744197  L 171.29202274607283 5.791032458744197  Z M 167.741610561722 1.11714703423168  C 167.741610561722 1.11714703423168  167.741610561722 0.6129224913105412  167.741610561722 0.6129224913105412  C 167.741610561722 0.6129224913105412  168.86018075537797 0.6129224913105412  168.86018075537797 0.6129224913105412  C 168.86018075537797 1.5516363872384153  168.65165347504657 2.3817108238919893  168.2346070323008 3.1031826963037843  C 167.81687010360938 3.824523400088252  167.21857236565015 4.430009568029504  166.43971742981586 4.919616706268157  C 165.6608624939816 5.409120347153875  164.72388423938787 5.785639182376465  163.62879204948246 6.049178240272298  C 163.62879204948246 6.049178240272298  163.26525950219207 5.204518419875836  163.26525950219207 5.204518419875836  C 164.23675680674762 4.980030609920544  165.05462694564133 4.671255851379406  165.71886318995334 4.278169295633109  C 166.3824089483197 3.8849585122146  166.88542021223884 3.4205086652734575  167.2278954383806 2.884839127786624  C 167.5703706645224 2.3491695902997902  167.741610561722 1.7599504915553563  167.741610561722 1.11714703423168  Z M 163.84525534993185 1.4554342557667306  L 163.84525534993185 0.6129224913105412  L 168.20560723991383 0.6129224913105412  L 168.20560723991383 1.4554342557667306  L 163.84525534993185 1.4554342557667306  Z M 168.45625394686624 2.4964832494084455  L 168.45625394686624 1.6830965963777222  L 171.45981064567647 1.6830965963777222  L 171.45981064567647 2.4964832494084455  L 168.45625394686624 2.4964832494084455  Z M 168.35681705656708 4.640716913670066  L 168.35681705656708 3.832163386504957  L 171.4018110609025 3.832163386504957  L 171.4018110609025 4.640716913670066  L 168.35681705656708 4.640716913670066  Z M 165.0932894668762 7.140485425104812  L 165.0932894668762 6.307545145206015  L 172.32773413238002 6.307545145206015  L 172.32773413238002 9.066944123892286  L 166.14143836632158 9.066944123892286  L 166.14143836632158 10.852515624244207  L 165.12126201866093 10.852515624244207  L 165.12126201866093 8.275701400481141  L 171.29927664509498 8.275701400481141  L 171.29927664509498 7.140485425104812  L 165.0932894668762 7.140485425104812  Z M 165.12126201866093 11.186001308971589  L 165.12126201866093 10.355840866171969  L 172.69645029378648 10.355840866171969  L 172.69645029378648 11.186001308971589  L 165.12126201866093 11.186001308971589  Z M 183 11.29293027011606  L 183 0.058408168140658176  L 184 0.058408168140658176  L 184 11.29293027011606  L 183 11.29293027011606  Z M 178.96769095580137 4.942518773278421  L 178.96769095580137 4.093025827016344  L 181.12611310557674 4.093025827016344  L 181.12611310557674 4.942518773278421  L 178.96769095580137 4.942518773278421  Z M 180 10.717409223412625  L 180 0.3211975411867022  L 181 0.3211975411867022  L 181 10.717409223412625  L 180 10.717409223412625  Z M 176.8154796607443 3.233803450907149  C 176.8154796607443 3.233803450907149  176.8154796607443 1.8039879211339682  176.8154796607443 1.8039879211339682  L 177.60882547972352 1.8039879211339682  C 177.60882547972352 1.8039879211339682  177.60882547972352 3.233803450907149  177.60882547972352 3.233803450907149  C 177.60882547972352 3.845815844183023  177.55117897032332 4.444806697176432  177.43586976970545 5.03081019023523  C 177.3198700908585 5.616827503506879  177.15105078366096 6.165104468469678  176.92940854538617 6.675620848383381  C 176.70776630711137 7.186068219778896  176.43537270362947 7.645741023771754  176.11223074443444 8.05460958392275  C 175.78908878523941 8.463478144073745  175.4224506253902 8.79678717378128  175.01230891863497 9.054529624119825  C 175.01230891863497 9.054529624119825  174.37845405593342 8.285936255255383  174.37845405593342 8.285936255255383  C 174.90045260302796 7.965604143201097  175.34166552914067 7.541498397348889  175.7020930812044 7.013592179338979  C 176.06252063326812 6.48568596132907  176.3380083669319 5.894490201962667  176.52857926238278 5.24002452100623  C 176.7198406283461 4.5855864187781155  176.8154796607443 3.9168519850267867  176.8154796607443 3.233803450907149  Z M 177.02573210647537 3.233803450907149  C 177.02573210647537 3.233803450907149  177.02573210647537 1.8039879211339682  177.02573210647537 1.8039879211339682  L 177.81389431133854 1.8039879211339682  C 177.81389431133854 1.8039879211339682  177.81389431133854 3.233803450907149  177.81389431133854 3.233803450907149  C 177.81389431133854 3.8833351307836357  177.90608665519676 4.519078927235592  178.09044328516956 5.141056002463946  C 178.27479991514238 5.763026167585875  178.54373104181602 6.324434463316713  178.8972538578892 6.825289804927696  C 179.25077667396243 7.326007129502305  179.684743664637 7.725958536646762  180.19914698979534 8.025105403801941  C 180.19914698979534 8.025105403801941  179.57461631102206 8.784032520935154  179.57461631102206 8.784032520935154  C 179.02914167390642 8.448656798705638  178.56686445079242 7.9963919372878225  178.18779408686106 7.4272193040733105  C 177.80872372292967 6.857908653822424  177.5201070024507 6.212099115111514  177.32194088506358 5.4897992021788555  C 177.12446525362216 4.767568266915694  177.02573210647537 4.01557389914601  177.02573210647537 3.233803450907149  Z M 174.68605730335597 2.2212793765899415  L 174.68605730335597 1.3690697713445783  L 179.81903635955456 1.3690697713445783  L 179.81903635955456 2.2212793765899415  L 174.68605730335597 2.2212793765899415  Z M 187.16326933988805 1.9998400803941525  L 187.16326933988805 1.1524636010144036  L 194.2941365452805 1.1524636010144036  L 194.2941365452805 1.9998400803941525  L 187.16326933988805 1.9998400803941525  Z M 185.94630530023676 10  L 185.94630530023676 9  L 196.10353394580974 9  L 196.10353394580974 10  L 185.94630530023676 10  Z M 193.8694910840062 2.2247541729639124  C 193.8694910840062 2.2247541729639124  193.8694910840062 1.1524636010144036  193.8694910840062 1.1524636010144036  L 194.88035905144017 1.1524636010144036  C 194.88035905144017 1.1524636010144036  194.88035905144017 2.2247541729639124  194.88035905144017 2.2247541729639124  C 194.88035905144017 2.678394700836814  194.8741392203274 3.160825107427476  194.8617106835837 3.6720384517807836  C 194.84928214683998 4.183120689204143  194.81130542947272 4.744074645437504  194.74778179894184 5.35491392475289  C 194.68425816841096 5.965766962583748  194.5748166128761 6.6570579580240645  194.41945989875674 7.428767167912625  C 194.41945989875674 7.428767167912625  193.39100241147167 7.308602391489118  193.39100241147167 7.308602391489118  C 193.62921603464363 6.220839474279103  193.76868323417054 5.267237198781057  193.80942121432614 4.447802536798784  C 193.849468720111 3.6282505264020357  193.8694910840062 2.8872247186352737  193.8694910840062 2.2247541729639124  Z M 186.85048247834948 4.138419303283584  L 194.09941913819603 3.8461257501167316  L 194.09941913819603 4.634114800559521  L 187.00790314972102 5.0321685197268735  L 186.85048247834948 4.138419303283584  Z M 189.89754676759097 9.225931852530431  L 189.89754676759097 6.009439205377247  L 190.92600425487606 6.009439205377247  L 190.92600425487606 9.225931852530431  L 189.89754676759097 9.225931852530431  Z M 198.6752070880251 6.2889076010183524  L 198.6752070880251 5.446332658446273  L 206.39332404017952 5.446332658446273  L 206.39332404017952 6.2889076010183524  L 198.6752070880251 6.2889076010183524  Z M 197.38573566555556 10  L 197.38573566555556 9  L 207.5729913441178 9  L 207.5729913441178 10  L 197.38573566555556 10  Z M 198.6752070880251 5.819367843721033  L 198.6752070880251 1.0967405027990866  L 206.28146544044375 1.0967405027990866  L 206.28146544044375 1.9462650381191084  L 199.70055124610022 1.9462650381191084  L 199.70055124610022 5.819367843721033  L 198.6752070880251 5.819367843721033  Z M 208.81170127713392 6  L 208.81170127713392 5.2794792543797735  L 219 5.2794792543797735  L 219 6  L 208.81170127713392 6  Z M 210.02348170266916 7.707003590293867  L 210.02348170266916 6.96898842952037  L 217.72919274908853 6.96898842952037  L 217.72919274908853 9.365050063721053  L 211.0695603172084 9.365050063721053  L 211.0695603172084 10.682945561194423  L 210.0514542544539 10.682945561194423  L 210.0514542544539 8.65827648125535  L 216.7152272561462 8.65827648125535  L 216.7152272561462 7.707003590293867  L 210.02348170266916 7.707003590293867  Z M 210.0514542544539 11.15216942791229  L 210.0514542544539 10.406572893231946  L 218.08752587856134 10.406572893231946  L 218.08752587856134 11.15216942791229  L 210.0514542544539 11.15216942791229  Z M 210.1021999402057 1.1252970111815395  L 210.1021999402057 0.3871870832342062  L 217.6887984878672 0.3871870832342062  L 217.6887984878672 2.7276203863934083  L 211.14309494062897 2.7276203863934083  L 211.14309494062897 3.941998540980386  L 210.13017249199044 3.941998540980386  L 210.13017249199044 2.02836499971866  L 216.67587603922868 2.02836499971866  L 216.67587603922868 1.1252970111815395  L 210.1021999402057 1.1252970111815395  Z M 210.13017249199044 4.4417690267312535  L 210.13017249199044 3.696109313935019  L 217.89282427517838 3.696109313935019  L 217.89282427517838 4.4417690267312535  L 210.13017249199044 4.4417690267312535  Z M 18.428068207477054 29.904634608379588  L 18.428068207477054 26.545075117792635  L 19.45113663252562 26.545075117792635  L 19.45113663252562 29.904634608379588  L 18.428068207477054 29.904634608379588  Z M 22.578467922057875 29.904634608379588  L 22.578467922057875 26.545075117792635  L 23.60900359609982 26.545075117792635  L 23.60900359609982 29.904634608379588  L 22.578467922057875 29.904634608379588  Z M 15.934591780646354 30  L 15.934591780646354 29.704328391949133  L 26.122471705420736 29.704328391949133  L 26.122471705420736 30  L 15.934591780646354 30  Z M 18.898070292266727 21.831924494254245  C 19.514525711668554 21.59219295867559  20.217566463596768 21.47231465860619  21.00719279498421 21.47231465860619  C 21.80172154571946 21.47231465860619  22.505938870883163 21.59219295867559  23.11983952315253 21.831924494254245  C 23.733878272611037 22.07172503835109  24.215791594929858 22.406976208997158  24.56558584862955 22.837720099229127  C 24.915587248112946 23.268325972424726  25.09059271674506 23.777908870997198  25.09059271674506 24.36647255848665  C 25.09059271674506 24.94661733015205  24.915587248112946 25.453309891619917  24.56558584862955 25.886538026809237  C 24.215791594929858 26.319697153480373  23.733878272611037 26.65495416995308  23.11983952315253 26.89227045366823  C 22.505938870883163 27.129448720347007  21.80172154571946 27.24802642424697  21.00719279498421 27.24802642424697  C 20.217566463596768 27.24802642424697  19.514525711668554 27.129448720347007  18.898070292266727 26.89227045366823  C 18.281683952326077 26.65495416995308  17.79852664410724 26.319697153480373  17.448594293218417 25.886538026809237  C 17.098730990924157 25.453309891619917  16.92380077507414 24.94661733015205  16.92380077507414 24.36647255848665  C 16.92380077507414 23.777908870997198  17.098730990924157 23.268325972424726  17.448594293218417 22.837720099229127  C 17.79852664410724 22.406976208997158  18.281683952326077 22.07172503835109  18.898070292266727 21.831924494254245  Z M 22.606748646023277 22.548301150335288  C 22.143716610959522 22.376058804141916  21.610529228350714 22.289965834459515  21.00719279498421 22.289965834459515  C 20.408965895882616 22.289965834459515  19.876988792841562 22.376058804141916  19.411263893456205 22.548301150335288  C 18.94574613985456 22.72054349652866  18.580662946947083 22.96167796880383  18.31600415962085 23.271658988222217  C 18.051552518078324 23.581570999122416  17.91932334828046 23.946493811999694  17.91932334828046 24.36647255848665  C 17.91932334828046 24.778032389149555  18.051552518078324 25.13885319009999  18.31600415962085 25.448903218036563  C 18.580662946947083 25.75881522893676  18.94574613985456 26.000731715488214  19.411263893456205 26.17463023526938  C 19.876988792841562 26.348390738014174  20.408965895882616 26.435271552375152  21.00719279498421 26.435271552375152  C 21.610529228350714 26.435271552375152  22.143716610959522 26.348390738014174  22.606748646023277 26.17463023526938  C 23.069849729681607 26.000731715488214  23.43365529209002 25.75881522893676  23.698175982227113 25.448903218036563  C 23.962765720958775 25.13885319009999  24.095062241687955 24.778032389149555  24.095062241687955 24.36647255848665  C 24.095062241687955 23.946493811999694  23.962765720958775 23.581570999122416  23.698175982227113 23.271658988222217  C 23.43365529209002 22.96167796880383  23.069849729681607 22.72054349652866  22.606748646023277 22.548301150335288  Z M 30.17365578152443 23.1594546544009  C 30.17365578152443 23.1594546544009  30.17365578152443 22.68340755116687  30.17365578152443 22.68340755116687  L 31.016103701291854 22.68340755116687  C 31.016103701291854 22.68340755116687  31.016103701291854 23.1594546544009  31.016103701291854 23.1594546544009  C 31.016103701291854 23.808261760260766  30.886875521696357 24.413806293922363  30.62843099984824 24.976078198712944  C 30.370055526594694 25.538281064136648  30.006838266237327 26.026920818324417  29.538765776369832 26.442000021717476  C 29.070900432286034 26.856941208074165  28.522692279530517 27.172062822245408  27.894153572145303 27.38736575884321  C 27.894153572145303 27.38736575884321  27.39411655251559 26.58484574174563  27.39411655251559 26.58484574174563  C 27.950776876751803 26.40087214797697  28.436590503232345 26.136820755047587  28.851565519007632 25.792750113769966  C 29.26647148618835 25.448748481010533  29.59050965724897 25.04896328660456  29.823682810183907 24.593376761706953  C 30.05699406030798 24.137790236809348  30.17365578152443 23.659826936384572  30.17365578152443 23.1594546544009  Z M 30.354284188656365 23.1594546544009  C 30.354284188656365 23.1594546544009  30.354284188656365 22.68340755116687  30.354284188656365 22.68340755116687  L 31.19662148251277 22.68340755116687  C 31.19662148251277 22.68340755116687  31.19662148251277 23.1594546544009  31.19662148251277 23.1594546544009  C 31.19662148251277 23.505181469266315  31.265396336598805 23.840432655336723  31.402938806552083 24.16525025937578  C 31.540412227910796 24.489860837860277  31.7338177425651 24.79028126230863  31.9831480042631 25.066517671610026  C 32.23261634771694 25.342754080911423  32.53017658972249 25.58453595920668  32.87582798948122 25.791834031089557  C 33.22154843783454 25.998994101360402  33.60096305700741 26.164674630543757  34.01407379159593 26.288887857857137  C 34.01407379159593 26.288887857857137  33.53609083751176 27.098957659803613  33.53609083751176 27.098957659803613  C 32.9074140329374 26.90525403463839  32.35372486633018 26.61667020603963  31.875019078098646 26.233196348699764  C 31.39624424127254 25.849653482841713  31.02304155714913 25.394607118495493  30.755413741989635 24.868012031482444  C 30.487993072613843 24.341416944469398  30.354284188656365 23.771894857301366  30.354284188656365 23.1594546544009  Z M 27.679555108481587 22.94910311754387  L 27.679555108481587 22.11606807047124  L 33.6802601051141 22.11606807047124  L 33.6802601051141 22.94910311754387  L 27.679555108481587 22.94910311754387  Z M 30.17365578152443 22.416353655298224  L 30.17365578152443 20.713071650893525  L 31.204183553715595 20.713071650893525  L 31.204183553715595 22.416353655298224  L 30.17365578152443 22.416353655298224  Z M 33.3392004214609 24.81096219283343  L 33.3392004214609 23.958752587588066  L 35.87089810054661 23.958752587588066  L 35.87089810054661 24.81096219283343  L 33.3392004214609 24.81096219283343  Z M 35.57788957152701 27.563853825582992  L 35.57788957152701 20.765446308966652  L 36.613395509713754 20.765446308966652  L 36.613395509713754 27.563853825582992  L 35.57788957152701 27.563853825582992  Z M 30.169199137680767 28.400300490913704  C 30.836059166853207 28.039806099945807  31.75207418170923 27.859558997007923  32.91724949130482 27.859558997007923  C 34.08256283635635 27.859558997007923  34.99734182889635 28.039806099945807  35.661578073208375 28.400300490913704  C 36.3260214324375 28.7607948818816  36.658238512927966 29.266840052753725  36.658238512927966 29.918407437643694  C 36.658238512927966 30.564868315582586  36.3260214324375 31.069183214314975  35.661578073208375 31.43133377887067  C 34.99734182889635 31.793484343426368  34.08256283635635 31.974539219296176  32.91724949130482 31.974539219296176  C 31.75207418170923 31.974539219296176  30.836059166853207 31.793484343426368  30.169199137680767 31.43133377887067  C 29.502339108508323 31.069183214314975  29.168911748450103 30.564868315582586  29.168911748450103 29.918407437643694  C 29.168911748450103 29.266840052753725  29.502339108508323 28.7607948818816  30.169199137680767 28.400300490913704  Z M 34.37501453182833 28.81683380897899  C 33.9715013666853 28.719119397631214  33.48557887369021 28.670260580113307  32.91724949130482 28.670260580113307  C 32.35223437972555 28.670260580113307  31.865899848425187 28.719119397631214  31.45824386020782 28.81683380897899  C 31.05058787199045 28.914479211808583  30.737594898699424 29.056300431437432  30.51926693123073 29.242275241384824  C 30.301008012356615 29.428181042814032  30.191885351289226 29.65355721790231  30.191885351289226 29.918407437643694  C 30.191885351289226 30.178082111067127  30.301008012356615 30.40172804486436  30.51926693123073 30.58935902839955  C 30.737594898699424 30.776990011934743  31.05058787199045 30.91961900449552  31.45824386020782 31.017264407325108  C 31.865899848425187 31.11484080163651  32.35223437972555 31.163648101843123  32.91724949130482 31.163648101843123  C 33.48557887369021 31.163648101843123  33.9715013666853 31.11484080163651  34.37501453182833 31.017264407325108  C 34.77859674556592 30.91961900449552  35.08952168721299 30.776990011934743  35.307780606087114 30.58935902839955  C 35.52603952496123 30.40172804486436  35.63517008787941 30.178082111067127  35.63517008787941 29.918407437643694  C 35.63517008787941 29.65355721790231  35.52603952496123 29.428181042814032  35.307780606087114 29.242275241384824  C 35.08952168721299 29.056300431437432  34.77859674556592 28.914479211808583  34.37501453182833 28.81683380897899  Z M 47 32  L 47 20.765446308966652  L 48 20.765446308966652  L 48 32  L 47 32  Z M 47.20344013027446 26.243652326879623  L 47.20344013027446 25.37956523584687  L 49.28014924106512 25.37956523584687  L 49.28014924106512 26.243652326879623  L 47.20344013027446 26.243652326879623  Z M 38.74095303031648 23.399184015146954  L 38.74095303031648 22.55670383974871  L 45.36826689247919 22.55670383974871  L 45.36826689247919 23.399184015146954  L 38.74095303031648 23.399184015146954  Z M 40.69793329798788 24.66034556455076  C 41.110629771875594 24.438693952250176  41.58087591890813 24.327870729677624  42.108674424480064 24.327870729677624  C 42.63654200951318 24.327870729677624  43.10606510633212 24.438693952250176  43.51724254200591 24.66034556455076  C 43.92841997767971 24.88185915981497  44.251356751120426 25.184823413464244  44.48604895770258 25.56919435069185  C 44.720879246040575 25.95363429643764  44.83828976021888 26.3996829618493  44.83828976021888 26.90737002336603  C 44.83828976021888 27.41526411043732  44.720879246040575 27.86350423589524  44.48604895770258 28.25208463103487  C 44.251356751120426 28.64059601765631  43.92855467954234 28.94439378746882  43.51765343824682 29.163492130869518  C 43.10682124554587 29.38252146575203  42.63640675205167 29.49204992255745  42.106398691453506 29.49204992255745  C 41.58011919322888 29.49204992255745  41.110629771875594 29.38252146575203  40.69793329798788 29.163492130869518  C 40.285167775505606 28.94439378746882  39.96005405760647 28.64059601765631  39.72259995354145 28.25208463103487  C 39.48528394666556 27.86350423589524  39.366629477453856 27.41526411043732  39.366629477453856 26.90737002336603  C 39.366629477453856 26.3996829618493  39.48528394666556 25.95363429643764  39.72259995354145 25.56919435069185  C 39.96005405760647 25.184823413464244  40.285167775505606 24.88185915981497  40.69793329798788 24.66034556455076  Z M 43.00663284602367 25.405026016550693  C 42.74176691291373 25.258316390204826  42.441692987226496 25.184945049846547  42.106398691453506 25.184945049846547  C 41.76965440606118 25.184945049846547  41.467875007868024 25.258316390204826  41.20107574497675 25.405026016550693  C 40.93420743349091 25.551597625860186  40.725309723037284 25.75432615850402  40.57437205723711 26.0132417382274  C 40.42357247319277 26.272019300914405  40.34817367661859 26.570062093475972  40.34817367661859 26.90737002336603  C 40.34817367661859 27.244815970292464  40.42357247319277 27.5438069898688  40.57437205723711 27.804309734661786  C 40.725309723037284 28.064743470936587  40.93420743349091 28.268311365570295  41.20107574497675 28.415020991916162  C 41.467875007868024 28.561661609743844  41.76965440606118 28.63497560238853  42.106398691453506 28.63497560238853  C 42.44314297684585 28.63497560238853  42.74363684268914 28.561661609743844  43.00788133844796 28.415020991916162  C 43.272125834206776 28.268311365570295  43.47964487233106 28.064743470936587  43.6304444563754 27.804309734661786  C 43.78138212217558 27.5438069898688  43.85684828511436 27.244815970292464  43.85684828511436 26.90737002336603  C 43.85684828511436 26.570062093475972  43.78138212217558 26.272019300914405  43.6304444563754 26.0132417382274  C 43.47964487233106 25.75432615850402  43.27170592491732 25.551597625860186  43.00663284602367 25.405026016550693  Z M 41.56958645826275 22.938647139364015  L 41.56958645826275 20.900931778493575  L 42.60509239644949 20.900931778493575  L 42.60509239644949 22.938647139364015  L 41.56958645826275 22.938647139364015  Z M 54.66428862451726 25.641027868459215  L 54.66428862451726 24.78395354829029  L 56.82333502050476 24.78395354829029  L 56.82333502050476 25.641027868459215  L 54.66428862451726 25.641027868459215  Z M 52.57319024344412 23.95970025932642  C 52.57319024344412 23.95970025932642  52.57319024344412 21.820520844336034  52.57319024344412 21.820520844336034  L 53.37669784253495 21.820520844336034  C 53.37669784253495 21.820520844336034  53.37669784253495 23.95970025932642  53.37669784253495 23.95970025932642  C 53.37669784253495 24.545986696564395  53.31714380783488 25.120667856850236  53.198036996248895 25.683767863859057  C 53.07893018466291 26.24686787086788  52.906378973781905 26.77688117775854  52.68038675121575 27.273803095530248  C 52.45446357724416 27.77079402182014  52.1790689835599 28.217438529667554  51.85420084036724 28.61374775544936  C 51.52953984295829 29.009987972712977  51.16323843776567 29.33192165617482  50.755306255170034 29.579520024007685  C 50.755306255170034 29.579520024007685  50.107986638728036 28.804008651453245  50.107986638728036 28.804008651453245  C 50.49472127319017 28.576146380486254  50.83982367951887 28.28742791278261  51.14328712879433 27.937836682596107  C 51.446888675258904 27.588107435373228  51.70602646104714 27.196884510650943  51.92069491473686 26.764208412758425  C 52.13529431983203 26.331394297829537  52.29769173733535 25.87618172074483  52.40789142683828 25.398581848729872  C 52.51809111634121 24.9210509852331  52.57319024344412 24.441440580735215  52.57319024344412 23.95970025932642  Z M 52.77049155573587 23.921066841459453  C 52.77049155573587 23.921066841459453  52.77049155573587 21.820520844336034  52.77049155573587 21.820520844336034  L 53.56436679871778 21.820520844336034  C 53.56436679871778 21.820520844336034  53.56436679871778 23.921066841459453  53.56436679871778 23.921066841459453  C 53.56436679871778 24.370925751893616  53.615734022137204 24.82178699794375  53.718476594609726 25.273647124556643  C 53.821288207960166 25.72543824265135  53.97181639738325 26.15657378784394  54.17005156336494 26.567029513064544  C 54.368355762507896 26.977416229766963  54.61078318651158 27.35220772347531  54.89733000791701 27.69137885250773  C 55.18380778072786 28.030342955985585  55.51230083623568 28.31122383599257  55.8828093287735 28.53404856225364  C 55.8828093287735 28.53404856225364  55.29172718438006 29.333883509425878  55.29172718438006 29.333883509425878  C 54.88690212680681 29.086216133074828  54.52736729868236 28.76971666219155  54.21313245385373 28.384379605709327  C 53.89903570621425 27.998973540708917  53.63513991048799 27.56397364189262  53.42143812168894 27.079404032935543  C 53.207667284295304 26.59469640694209  53.04568188966395 26.0837356208089  52.935482200161026 25.546513407087204  C 52.82548964872515 25.009153176329136  52.77049155573587 24.467329016820187  52.77049155573587 23.921066841459453  Z M 59 31.99513528507644  L 59 20.760581594043092  L 60 20.760581594043092  L 60 31.99513528507644  L 59 31.99513528507644  Z M 57 31.435061287708205  L 57 21.000721612542435  L 58 21.000721612542435  L 58 31.435061287708205  L 57 31.435061287708205  Z M 64.16507891784046 29.904634608379588  L 64.16507891784046 26.545075117792635  L 65.1881552447398 26.545075117792635  L 65.1881552447398 29.904634608379588  L 64.16507891784046 29.904634608379588  Z M 68.31548258334666 29.904634608379588  L 68.31548258334666 26.545075117792635  L 69.34602615923939 26.545075117792635  L 69.34602615923939 29.904634608379588  L 68.31548258334666 29.904634608379588  Z M 61.67160249100975 30  L 61.67160249100975 29.704328391949133  L 71.85947846485874 29.704328391949133  L 71.85947846485874 30  L 61.67160249100975 30  Z M 64.63508890448091 21.831924494254245  C 65.25154432388274 21.59219295867559  65.95458902673634 21.47231465860619  66.74421535812378 21.47231465860619  C 67.53874410885904 21.47231465860619  68.24295353217195 21.59219295867559  68.85685418444132 21.831924494254245  C 69.47089293389983 22.07172503835109  69.95283993168431 22.406976208997158  70.30270323397856 22.837720099229127  C 70.6526355848674 23.268325972424726  70.82760737803385 23.777908870997198  70.82760737803385 24.36647255848665  C 70.82760737803385 24.94661733015205  70.6526355848674 25.453309891619917  70.30270323397856 25.886538026809237  C 69.95283993168431 26.319697153480373  69.47089293389983 26.65495416995308  68.85685418444132 26.89227045366823  C 68.24295353217195 27.129448720347007  67.53874410885904 27.24802642424697  66.74421535812378 27.24802642424697  C 65.95458902673634 27.24802642424697  65.25154432388274 27.129448720347007  64.63508890448091 26.89227045366823  C 64.01870256454026 26.65495416995308  63.535537354470634 26.319697153480373  63.18560500358181 25.886538026809237  C 62.83574170128755 25.453309891619917  62.66081148543754 24.94661733015205  62.66081148543754 24.36647255848665  C 62.66081148543754 23.777908870997198  62.83574170128755 23.268325972424726  63.18560500358181 22.837720099229127  C 63.535537354470634 22.406976208997158  64.01870256454026 22.07172503835109  64.63508890448091 21.831924494254245  Z M 68.3437554054613 22.548301150335288  C 67.88072337039752 22.376058804141916  67.34755179149029 22.289965834459515  66.74421535812378 22.289965834459515  C 66.14598845902219 22.289965834459515  65.61400740505574 22.376058804141916  65.1482825056704 22.548301150335288  C 64.68276475206875 22.72054349652866  64.31767365731048 22.96167796880383  64.05301486998425 23.271658988222217  C 63.78856322844172 23.581570999122416  63.656341960494636 23.946493811999694  63.656341960494636 24.36647255848665  C 63.656341960494636 24.778032389149555  63.78856322844172 25.13885319009999  64.05301486998425 25.448903218036563  C 64.31767365731048 25.75881522893676  64.68276475206875 26.000731715488214  65.1482825056704 26.17463023526938  C 65.61400740505574 26.348390738014174  66.14598845902219 26.435271552375152  66.74421535812378 26.435271552375152  C 67.34755179149029 26.435271552375152  67.88072337039752 26.348390738014174  68.3437554054613 26.17463023526938  C 68.80685648911961 26.000731715488214  69.1706699533788 25.75881522893676  69.4351906435159 25.448903218036563  C 69.69978038224757 25.13885319009999  69.83208480482753 24.778032389149555  69.83208480482753 24.36647255848665  C 69.83208480482753 23.946493811999694  69.69978038224757 23.581570999122416  69.4351906435159 23.271658988222217  C 69.1706699533788 22.96167796880383  68.80685648911961 22.72054349652866  68.3437554054613 22.548301150335288  Z " fill-rule="nonzero" fill="#55565d" stroke="none" transform="matrix(1 0 0 1 54 457 )" />
  </g>
</svg>