<?xml version="1.0" encoding="utf-8"?>
<svg version="1.1" xmlns:xlink="http://www.w3.org/1999/xlink" width="609px" height="94px" xmlns="http://www.w3.org/2000/svg">
  <g transform="matrix(1 0 0 1 -107 -1256 )">
    <path d="M 14.040639489207047 20  L 14.040639489207047 22  L 0 22  L 0 20  L 14.040639489207047 20  Z M 12.764190749812034 25.161247333439288  L 11.144118230305828 26.923290908570404  L 1.2764267657551538 16.298415907459855  L 2.8964992852613594 14.587965161217719  L 12.764190749812034 25.161247333439288  Z M 6 13.240427281495032  L 9 13.240427281495032  L 9 28.11521516590672  L 6 28.11521516590672  L 6 13.240427281495032  Z M 12.764190749812034 16.298415907459855  L 2.8964992852613594 26.923290908570404  L 1.2764267657551538 25.161247333439288  L 11.144118230305828 14.587965161217719  L 12.764190749812034 16.298415907459855  Z M 48.695970066923266 20.830419078211545  L 48.695970066923266 15.771723647075198  L 51.5409631403557 15.771723647075198  L 51.5409631403557 20.830419078211545  L 48.695970066923266 20.830419078211545  Z M 36.01936624558822 17  L 36.01936624558822 14  L 64.2659419298398 14  L 64.2659419298398 17  L 36.01936624558822 17  Z M 40 12  L 40 2  L 60.60240879802891 2  L 60.60240879802891 12  L 40 12  Z M 57.78450922254232 9  L 57.78450922254232 4  L 42.49648113265345 4  L 42.49648113265345 9  L 57.78450922254232 9  Z M 39.43664079550205 22  L 39.43664079550205 20  L 60.64130214057891 20  L 60.64130214057891 28  L 42.33116245317612 28  L 42.33116245317612 31.17199748472126  L 39.51353754818776 31.17199748472126  L 39.51353754818776 25  L 57.82338059145245 25  L 57.82338059145245 22  L 39.43664079550205 22  Z M 39.51353754818776 33  L 39.51353754818776 31  L 61.583685633201284 31  L 61.583685633201284 33  L 39.51353754818776 33  Z M 91 24.566537908350274  L 91 0.19384427976454308  L 94 0.19384427976454308  L 94 24.566537908350274  L 91 24.566537908350274  Z M 83.913606088625 12.878442343552724  L 83.913606088625 10.360786528056513  L 91.21472148357357 10.360786528056513  L 91.21472148357357 12.878442343552724  L 83.913606088625 12.878442343552724  Z M 81.0115914197591 3.95715141721347  C 81.0115914197591 3.95715141721347  81.0115914197591 2.733677588254398  81.0115914197591 2.733677588254398  C 81.0115914197591 2.733677588254398  84.02764927949192 2.733677588254398  84.02764927949192 2.733677588254398  C 84.02764927949192 5.56945613652618  83.43147825059206 8.159542395785722  82.23910486318866 10.503873114651498  C 81.04673147578524 12.848203833517273  79.3666562417599 14.888076836558213  77.19887924694713 16.623469288031995  C 75.031294178145 18.359064542645967  72.47247428840586 19.749752732330116  69.52245408321103 20.79552896371108  C 69.52245408321103 20.79552896371108  68.29553392805765 18.350808334378076  68.29553392805765 18.350808334378076  C 70.84156790610399 17.453617935064003  73.0691477068139 16.294060623936954  74.97828912374104 14.872096891537982  C 76.88781456435852 13.45023456070911  78.3707947464694 11.817435759455247  79.42722606502336 9.973654725673711  C 80.48346537173215 8.129508682487026  81.0115914197591 6.123969761744466  81.0115914197591 3.95715141721347  Z M 69.8551130170327 6  L 69.8551130170327 3  L 82.871286481925 3  L 82.871286481925 6  L 69.8551130170327 6  Z M 73.78505455849113 33  L 73.78505455849113 30  L 94.33190203393639 30  L 94.33190203393639 33  L 73.78505455849113 33  Z M 73.78505455849113 31.21635247070855  L 73.78505455849113 22.09963978602362  L 76.66432651010322 22.09963978602362  L 76.66432651010322 31.21635247070855  L 73.78505455849113 31.21635247070855  Z M 105.64907366494984 2.2171925422182825  C 107.59143253025002 1.2342967021702176  110.28800053319904 0.7428068260005588  113.73877904714938 0.7428068260005588  C 117.18974948711035 0.7428068260005588  119.88411961106631 1.2342967021702176  121.82187036375143 2.2171925422182825  C 123.75942901875682 3.200068083828722  124.72819186602965 4.612959502025649  124.72819186602965 6.455970282593738  C 124.72819186602965 8.298981063161827  123.75942901875682 9.715585283083616  121.82187036375143 10.705697580179445  C 119.88411961106631 11.695404452230928  117.18974948711035 12.190290510745708  113.73877904714938 12.190290510745708  C 110.28800053319904 12.190290510745708  107.59143253025002 11.695404452230928  105.64907366494984 10.705697580179445  C 103.70709865167093 9.715585283083616  102.73611612343427 8.298981063161827  102.73611612343427 6.455970282593738  C 102.73611612343427 4.612959502025649  103.70709865167093 3.200068083828722  105.64907366494984 2.2171925422182825  Z M 118.07942989120777 3.4332429425602338  C 116.8859044327333 3.1653020707136483  115.4349940054855 3.0312642829431917  113.72669354522706 3.0312642829431917  C 112.03970597061003 3.0312642829431917  110.59587938134625 3.1653020707136483  109.39524965626948 3.4332429425602338  C 108.19461993119275 3.701204090189938  107.27788920391845 4.0892507041907455  106.64502889154785 4.59742213544006  C 106.01236059102244 5.105593566689375  105.69600935968813 5.724910769587499  105.69600935968813 6.4554135254474545  C 105.69600935968813 7.1859365344360215  106.01236059102244 7.80773109821365  106.64502889154785 8.320828344071968  C 107.27788920391845 8.833945843058896  108.19461993119275 9.22208529522643  109.39524965626948 9.485100329809507  C 110.59587938134625 9.748115364392586  112.03970597061003 9.879562767951716  113.72669354522706 9.879562767951716  C 115.4349940054855 9.879562767951716  116.8859044327333 9.748115364392586  118.07942989120777 9.485100329809507  C 119.27314736152738 9.22208529522643  120.18632514007248 8.833945843058896  120.8189934405979 8.320828344071968  C 121.4514697721954 7.80773109821365  121.76770534149959 7.1859365344360215  121.76770534149959 6.4554135254474545  C 121.76770534149959 5.724910769587499  121.4514697721954 5.105593566689375  120.8189934405979 4.59742213544006  C 120.18632514007248 4.0892507041907455  119.27314736152738 3.701204090189938  118.07942989120777 3.4332429425602338  Z M 99.61260716479212 17  L 99.61260716479212 15  L 127.85919383586362 15  L 127.85919383586362 17  L 99.61260716479212 17  Z M 103.02988171470595 22  L 103.02988171470595 20  L 124.23455404660272 20  L 124.23455404660272 27  L 105.92440337238001 27  L 105.92440337238001 31.074936155552418  L 103.1067894542116 31.074936155552418  L 103.1067894542116 25  L 121.41663249747627 25  L 121.41663249747627 22  L 103.02988171470595 22  Z M 103.1067894542116 33  L 103.1067894542116 31  L 125.17691556558525 31  L 125.17691556558525 33  L 103.1067894542116 33  Z M 156.96864139690865 11.769474901012725  L 156.96864139690865 9.28837947145583  L 164.85357442926448 9.28837947145583  L 164.85357442926448 11.769474901012725  L 156.96864139690865 11.769474901012725  Z M 164 24.38039543577599  L 164 0.20804158699478484  L 167 0.20804158699478484  L 167 24.38039543577599  L 164 24.38039543577599  Z M 146.15462217138096 33  L 146.15462217138096 30  L 166.9753710676656 30  L 166.9753710676656 33  L 146.15462217138096 33  Z M 146.15462217138096 31.221827249313677  L 146.15462217138096 22.248293944081446  L 149.0131510069664 22.248293944081446  L 149.0131510069664 31.221827249313677  L 146.15462217138096 31.221827249313677  Z M 148.35791904001823 6.964011178577881  C 148.35791904001823 6.964011178577881  148.35791904001823 4.293525526426715  148.35791904001823 4.293525526426715  L 150.7141524420724 4.293525526426715  C 150.7141524420724 4.293525526426715  150.7141524420724 6.964011178577881  150.7141524420724 6.964011178577881  C 150.7141524420724 8.96018889485434  150.34780173826104 10.837979417168308  149.6150968972571 12.597372777537021  C 148.88258406809834 14.356684944155234  147.86216385438803 15.88890154349258  146.55381728669494 17.19414536297308  C 145.24547071900184 18.499389182453587  143.71966854787092 19.49936162686178  141.97642244679835 20.194045660008943  C 141.97642244679835 20.194045660008943  140.49805793074125 17.771316937954154  140.49805793074125 17.771316937954154  C 141.66451014821908 17.329613828123996  142.72583558004442 16.745206177292722  143.6820383462747 16.018088684305866  C 144.63824111250494 15.29099144444762  145.46876581723214 14.448126596496799  146.1736293698588 13.489576104457116  C 146.87887694617578 12.530640485810713  147.41929767487636 11.495886396678115  147.79486649227752 10.385283842493008  C 148.1702432978335 9.274316369520779  148.35791904001823 8.13390619400963  148.35791904001823 6.964011178577881  Z M 148.9137862075251 6.9417408927265205  C 148.9137862075251 6.9417408927265205  148.9137862075251 4.293525526426715  148.9137862075251 4.293525526426715  L 151.24266242795517 4.293525526426715  C 151.24266242795517 4.293525526426715  151.24266242795517 6.9417408927265205  151.24266242795517 6.9417408927265205  C 151.24266242795517 8.354886766337959  151.55775227794356 9.729672851885447  152.18792446739903 11.066012246682902  C 152.81828866869964 12.402392238355606  153.70439831340272 13.588624415062576  154.8462734438712 14.624711132872463  C 155.98872460987522 15.66045323033285  157.31341072466654 16.46482358652539  158.82029410688628 17.03788219058271  C 158.82029410688628 17.03788219058271  157.3689791414953 19.41774061237363  157.3689791414953 19.41774061237363  C 155.67565526182213 18.761976703848696  154.1943111717009 17.81209767717698  152.9249423219015 16.568071951976737  C 151.6559574957924 15.323762501739866  150.67008580943994 13.871885215543497  149.96733434419295 12.212468003739357  C 149.26496690263625 10.553030493497591  148.9137862075251 8.796143990175556  148.9137862075251 6.9417408927265205  Z M 141.40126242349547 6  L 141.40126242349547 3  L 158.08815440043244 3  L 158.08815440043244 6  L 141.40126242349547 6  Z M 173.58095484016502 15.581405495903788  L 173.58095484016502 13.112744309280568  C 173.58095484016502 13.112744309280568  176.00082390325016 13.112744309280568  176.00082390325016 13.112744309280568  C 178.1083102086933 13.112744309280568  179.9633202505046 13.082341656019885  181.56582398659845 13.021528930147708  C 183.16851964870293 12.960716204275533  184.66850425218684 12.84760778212985  186.06575075917303 12.68227824234533  C 187.4629972661592 12.516563564626832  188.86993989923664 12.280358575062634  190.2865793450816 11.973619187983523  C 190.2865793450816 11.973619187983523  190.6284452340041 14.405719988667427  190.6284452340041 14.405719988667427  C 189.1607315815232 14.721946176795445  187.71344568900324 14.965260173084129  186.2866297870332 15.135535814588025  C 184.86019790875355 15.305912801025753  183.32634239861437 15.4227520805378  181.68505295647205 15.486200023889225  C 180.04376351432973 15.549647967240649  178.1490160331935 15.581405495903788  176.00082390325016 15.581405495903788  C 176.00082390325016 15.581405495903788  173.58095484016502 15.581405495903788  173.58095484016502 15.581405495903788  Z M 174 14.5619831610578  L 174 2  L 187.37792863697837 2  L 187.37792863697837 5  L 176.42564028263945 5  L 176.42564028263945 14.5619831610578  L 174 14.5619831610578  Z M 194 16.77639191754466  L 194 0.1715739939131834  L 197 0.1715739939131834  L 197 16.77639191754466  L 194 16.77639191754466  Z M 195.66032086709933 9.63672385931418  L 195.66032086709933 7.119068043817972  L 201.0556405034583 7.119068043817972  L 201.0556405034583 9.63672385931418  L 195.66032086709933 9.63672385931418  Z M 176.60276979354086 21  L 176.60276979354086 19  L 196.44284612974926 19  L 196.44284612974926 27  L 179.48982041366298 27  L 179.48982041366298 31.70314380227619  L 176.67967753304652 31.70314380227619  L 176.67967753304652 25  L 193.62490260698294 25  L 193.62490260698294 21  L 176.60276979354086 21  Z M 176.67967753304652 33  L 176.67967753304652 31  L 197.567808595958 31  L 197.567808595958 33  L 176.67967753304652 33  Z M 226 24.948380517843376  L 226 0.20804158699478484  L 229 0.20804158699478484  L 229 24.948380517843376  L 226 24.948380517843376  Z M 227.35123163875076 13.575687876415708  L 227.35123163875076 11.029451860743587  L 232.85228843011006 11.029451860743587  L 232.85228843011006 13.575687876415708  L 227.35123163875076 13.575687876415708  Z M 204.0723136251072 7  L 204.0723136251072 5  L 222.5255566420901 5  L 222.5255566420901 7  L 204.0723136251072 7  Z M 209.3763547614929 9.237621778286274  C 210.50651734107498 8.725274532512792  211.81285512324615 8.469111330698938  213.29535343030167 8.469111330698938  C 214.77765981134655 8.469111330698938  216.08023529436818 8.725274532512792  217.20310159550274 9.237621778286274  C 218.32596789663734 9.749969024059757  219.20130320479177 10.466419959928785  219.82917129502243 11.386982741515624  C 220.45703938525304 12.307525224664836  220.77100544664833 13.38732209059532  220.77100544664833 14.626381404311314  C 220.77100544664833 15.850926791417326  220.45703938525304 16.923547434703195  219.82917129502243 17.844252124117357  C 219.20130320479177 18.764754101009345  218.32596789663734 19.48108881926117  217.20310159550274 19.993334708773567  C 216.08023529436818 20.505377885763785  214.77765981134655 20.761473984930046  213.29535343030167 20.761473984930046  C 211.81285512324615 20.761473984930046  210.50651734107498 20.505377885763785  209.3763547614929 19.993334708773567  C 208.24676821744637 19.48108881926117  207.367929658756 18.764754101009345  206.7398695566802 17.844252124117357  C 206.11219347829473 16.923547434703195  205.7983430360123 15.850926791417326  205.7983430360123 14.626381404311314  C 205.7983430360123 13.38732209059532  206.11219347829473 12.307525224664836  206.7398695566802 11.386982741515624  C 207.367929658756 10.466419959928785  208.24676821744637 9.749969024059757  209.3763547614929 9.237621778286274  Z M 216.72240624995266 11.869876773059271  C 215.8522233311724 11.181172623389205  214.70988074584974 10.836813888129326  213.29535343030167 10.836813888129326  C 211.8794820318374 10.836813888129326  210.73295878986252 11.181172623389205  209.85586353049064 11.869876773059271  C 208.97934430665427 12.558195750813605  208.54109276318195 13.478355508733756  208.54109276318195 14.630371497193018  C 208.54109276318195 15.762258503734296  208.97934430665427 16.672476920591585  209.85586353049064 17.361079714000567  C 210.73295878986252 18.04988521993172  211.8794820318374 18.394328184645943  213.29535343030167 18.394328184645943  C 214.70988074584974 18.394328184645943  215.8522233311724 18.04988521993172  216.72240624995266 17.361079714000567  C 217.59297319242324 16.672476920591585  218.0282557194787 15.762258503734296  218.0282557194787 14.630371497193018  C 218.0282557194787 13.478355508733756  217.59297319242324 12.558195750813605  216.72240624995266 11.869876773059271  Z M 211.86592421021 5.466891212220228  L 211.86592421021 0.20182446552794694  L 214.73194605698728 0.20182446552794694  L 214.73194605698728 5.466891212220228  L 211.86592421021 5.466891212220228  Z M 208.7839014836212 33  L 208.7839014836212 30  L 229.6423791195433 30  L 229.6423791195433 33  L 208.7839014836212 33  Z M 208.7839014836212 31.006547819417204  L 208.7839014836212 22.975604362843765  L 211.64240834556676 22.975604362843765  L 211.64240834556676 31.006547819417204  L 208.7839014836212 31.006547819417204  Z M 246.23682799359452 7  L 246.23682799359452 4  L 271.3740127828132 4  L 271.3740127828132 7  L 246.23682799359452 7  Z M 244.7685493782326 24  L 244.7685493782326 22  L 273.09920719540366 22  L 273.09920719540366 24  L 244.7685493782326 24  Z M 257.44514221274767 33.209543054405245  L 257.44514221274767 23.591934523780147  L 260.289849628862 23.591934523780147  L 260.289849628862 33.209543054405245  L 257.44514221274767 33.209543054405245  Z M 251.40981834186263 9.719959052683638  C 253.20298666433462 8.765199203252388  255.69208179143507 8.287794086725784  258.877120375063 8.287794086725784  C 262.0621589586909 8.287794086725784  264.5502020977831 8.765199203252388  266.3412582041237 9.719959052683638  C 268.13289043183426 10.674718902114888  269.02872225340866 12.036563011934001  269.02872225340866 13.805442992115568  C 269.02872225340866 15.548112795949987  268.13202556310296 16.899195743433054  266.3386653146203 17.858820602778454  C 264.54549699214834 18.81864817464603  262.0565889843248 19.29859458306886  258.8719345960563 19.29859458306886  C 255.6867040864178 19.29859458306886  253.19835795143217 18.81864817464603  251.40691782140127 17.858820602778454  C 249.6158617150607 16.899195743433054  248.7203327177106 15.548112795949987  248.7203327177106 13.805442992115568  C 248.7203327177106 12.036563011934001  249.61684211707038 10.674718902114888  251.40981834186263 9.719959052683638  Z M 264.17483310316936 11.429760248921777  C 262.91794485163706 10.87940508487585  261.15117339405975 10.60418219384033  258.8745274855596 10.60418219384033  C 256.5976896510489 10.60418219384033  254.83073081669107 10.87940508487585  253.57365055331357 11.429760248921777  C 252.31676230178127 11.979730286360981  251.68831225343249 12.769856032714172  251.68831225343249 13.800246592083585  C 251.68831225343249 14.811724444668064  252.31676230178127 15.594854162319573  253.57365055331357 16.149668956544314  C 254.83073081669107 16.70468646329123  256.5976896510489 16.98220647595431  258.8745274855596 16.98220647595431  C 261.15117339405975 16.98220647595431  262.91794485163706 16.70468646329123  264.17483310316936 16.149668956544314  C 265.432105378392 15.594854162319573  266.0607427176868 14.811724444668064  266.0607427176868 13.800246592083585  C 266.0607427176868 12.769856032714172  265.432105378392 11.979730286360981  264.17483310316936 11.429760248921777  Z M 257.44514221274767 5.569520112851909  L 257.44514221274767 0  L 260.289849628862 0  L 260.289849628862 5.569520112851909  L 257.44514221274767 5.569520112851909  Z M 293.14202331976884 5.257086560928876  C 293.14202331976884 5.257086560928876  293.14202331976884 1.8910256473535774  293.14202331976884 1.8910256473535774  L 295.5095072254307 1.8910256473535774  C 295.5095072254307 1.8910256473535774  295.5095072254307 5.257086560928876  295.5095072254307 5.257086560928876  C 295.5095072254307 7.365382697426677  295.1561783495198 9.330932789867859  294.4495867332039 11.153794290080345  C 293.7429951168879 12.97665579029283  292.74456978708275 14.562701943232982  291.45427198949767 15.911933655081052  C 290.16589431036437 17.260962654406946  288.651918420873 18.29022696765126  286.9123206306933 18.999708788372068  C 286.9123206306933 18.999708788372068  285.3864271316217 16.583568359214972  285.3864271316217 16.583568359214972  C 286.9624337480889 15.97118420549108  288.3312528885222 15.09721000828349  289.49290489570535 13.961613371648227  C 290.6564770213401 12.825550505273767  291.5550905683854 11.50901368626784  292.18871892813667 10.011885383051878  C 292.8242673634224 8.51437195322919  293.14202331976884 6.929436596040854  293.14202331976884 5.257086560928876  Z M 293.6633259517779 5.484521855185887  C 293.6633259517779 5.484521855185887  293.6633259517779 1.8910256473535774  293.6633259517779 1.8910256473535774  L 295.9847091610161 1.8910256473535774  C 295.9847091610161 1.8910256473535774  295.9847091610161 5.484521855185887  295.9847091610161 5.484521855185887  C 295.9847091610161 6.596624500158685  296.16997775962193 7.676592906010706  296.54055435488317 8.724477275127862  C 296.9111309501444 9.771976517638294  297.4334126108106 10.746553169891012  298.10736277137175 11.648101843122816  C 298.77939285639843 12.54928568818552  299.5800676159782 13.346843335941179  300.5093892388916 14.040858472135984  C 301.43871086180496 14.734508689543663  302.46597792435995 15.288033989271074  303.5911482818021 15.701479453785703  C 303.5911482818021 15.701479453785703  302.0732971349188 18.081430668434336  302.0732971349188 18.081430668434336  C 300.4066624725519 17.420396324950904  298.94069761279945 16.465754505497358  297.67536101174863 15.217471907949484  C 296.4100244106978 13.969392022923786  295.4250174643249 12.510134985998397  294.72034592354345 10.839690466718459  C 294.015674382762 9.1688608208318  293.6633259517779 7.383784499786033  293.6633259517779 5.484521855185887  Z M 307 20.197107824313505  L 307 0.18586409400113918  L 309 0.18586409400113918  L 309 20.197107824313505  L 307 20.197107824313505  Z M 309.0057607739571 11.25187634068404  L 309.0057607739571 8.705733117869634  L 314.4002454120014 8.705733117869634  L 314.4002454120014 11.25187634068404  L 309.0057607739571 11.25187634068404  Z M 294.3459151003503 21.80075399132683  C 295.8877441233841 21.32763098426785  297.71662252900063 21.091074215530167  299.83255718396225 21.091074215530167  C 301.9734530354581 21.091074215530167  303.8071457282324 21.32763098426785  305.33361397532155 21.80075399132683  C 306.85816227562805 22.273674285863635  308.03325202193 22.95928659382592  308.85888896514115 23.857693268273035  C 309.6845259083522 24.755897230197977  310.09732330758055 25.840884334134742  310.09732330758055 27.112681131164678  C 310.09732330758055 28.375153333410662  309.6845259083522 29.454191182762816  308.85888896514115 30.349759972517518  C 308.03325202193 31.245126049750052  306.85816227562805 31.929476229858583  305.33361397532155 32.40280194943974  C 303.8071457282324 32.87592495649872  301.9734530354581 33.1124817252364  299.83255718396225 33.1124817252364  C 297.71662252900063 33.1124817252364  295.8877441233841 32.87592495649872  294.3459151003503 32.40280194943974  C 292.8040860773164 31.929476229858583  291.62034815870845 31.245126049750052  290.79471121549733 30.349759972517518  C 289.9690742722862 29.454191182762816  289.556276873058 28.375153333410662  289.556276873058 27.112681131164678  C 289.556276873058 25.840884334134742  289.9690742722862 24.755897230197977  290.79471121549733 23.857693268273035  C 291.62034815870845 22.95928659382592  292.8040860773164 22.273674285863635  294.3459151003503 21.80075399132683  Z M 303.8244204425426 23.927380704416247  C 302.7126906567589 23.64297986121591  301.3820665091339 23.50071914464728  299.83255718396225 23.50071914464728  C 298.2945683978318 23.50071914464728  296.9696949920945 23.64297986121591  295.85796520631084 23.927380704416247  C 294.7481555389789 24.21157885774892  293.8908656104685 24.621816897264733  293.2860385554031 25.15818516913473  C 292.6812115003377 25.694148015960373  292.3787909129149 26.345629905635708  292.3787909129149 27.112681131164678  C 292.3787909129149 27.870407716600678  292.6812115003377 28.51976094355714  293.2860385554031 29.060588800296934  C 293.8908656104685 29.601619369558907  294.7481555389789 30.014154576011293  295.85796520631084 30.298352729343964  C 296.9696949920945 30.58234817015446  298.2945683978318 30.724364739108932  299.83255718396225 30.724364739108932  C 301.3820665091339 30.724364739108932  302.7126906567589 30.58234817015446  303.8244204425426 30.298352729343964  C 304.93807026094345 30.014154576011293  305.7934872370767 29.601619369558907  306.390633947087 29.060588800296934  C 306.98778065709735 28.51976094355714  307.28632345500955 27.870407716600678  307.28632345500955 27.112681131164678  C 307.28632345500955 26.345629905635708  306.98778065709735 25.694148015960373  306.390633947087 25.15818516913473  C 305.7934872370767 24.621816897264733  304.93807026094345 24.21157885774892  303.8244204425426 23.927380704416247  Z M 341 33.17298266846593  L 341 0.1715739939131834  L 343 0.1715739939131834  L 343 33.17298266846593  L 341 33.17298266846593  Z M 335.8226545412586 15.911284105077053  L 335.8226545412586 13.408011182526513  L 341.83925687098395 13.408011182526513  L 341.83925687098395 15.911284105077053  L 335.8226545412586 15.911284105077053  Z M 334 31.484895000932863  L 334 0.9047303627114862  L 336 0.9047303627114862  L 336 31.484895000932863  L 334 31.484895000932863  Z M 318.4583372211161 25.05147338276363  L 318.4583372211161 22.50551574566465  C 318.4583372211161 22.50551574566465  320.4917339063655 22.50551574566465  320.4917339063655 22.50551574566465  C 322.0278027457132 22.50551574566465  323.4217731203317 22.483696358115363  324.67366914972405 22.43991119526085  C 325.9255651791164 22.39572061302562  327.1265993565018 22.301802913765915  328.2767308246436 22.158284872098864  C 329.4249422601683 22.01415870419255  330.5952177193125 21.81047021456081  331.7875911067159 21.54715111119447  C 331.7875911067159 21.54715111119447  332.0756215779844 24.06480692669068  332.0756215779844 24.06480692669068  C 330.8314058507299 24.338464210106352  329.6227040747172 24.54938107305616  328.4495315284929 24.697561423442437  C 327.2763589822685 24.845741773828717  326.0513413494881 24.94195662869774  324.774484209396 24.986147210932973  C 323.49570695085225 25.029729664097125  322.06812454652305 25.05147338276363  320.4917339063655 25.05147338276363  C 320.4917339063655 25.05147338276363  318.4583372211161 25.05147338276363  318.4583372211161 25.05147338276363  Z M 318 23.66097240991936  L 318 5  L 330.06525326730707 5  L 330.06525326730707 6.6760749410913425  L 321 6.6760749410913425  L 321 23.66097240991936  L 318 23.66097240991936  Z M 357.93916700637413 21.60793043299714  C 359.48099602940795 21.120009638364515  361.3127716937736 20.876073164206833  363.4344667040904 20.876073164206833  C 365.5561617144072 20.876073164206833  367.38312309161506 21.120009638364515  368.9153516940594 21.60793043299714  C 370.4475802965037 22.09605394015194  371.6265039279539 22.794541121195  372.452140871165 23.703285953036943  C 373.27777781437607 24.611625359834534  373.69057521360435 25.71097641754972  373.69057521360435 27.001422494765595  C 373.69057521360435 28.287206274589487  373.27777781437607 29.38926708310958  372.452140871165 30.30753922225765  C 371.6265039279539 31.225811361405725  370.4475802965037 31.928968542372893  368.9153516940594 32.41709204952769  C 367.38312309161506 32.90501284416032  365.5561617144072 33.148949318318  363.4344667040904 33.148949318318  C 361.3127716937736 33.148949318318  359.48099602940795 32.90501284416032  357.93916700637413 32.41709204952769  C 356.3973379833402 31.928968542372893  355.21360006473225 31.225567236446075  354.3879631215212 30.306889672253654  C 353.56232617831006 29.38821210806123  353.1495287790818 28.285999967439206  353.1495287790818 27.00021618761531  C 353.1495287790818 25.71402698274707  353.56232617831006 24.6157867207837  354.3879631215212 23.705420188764364  C 355.21360006473225 22.795256369267204  356.3973379833402 22.09605394015194  357.93916700637413 21.60793043299714  Z M 367.41767234856644 23.744949946150527  C 366.3059425627828 23.457913862816433  364.97821584557596 23.314391086357574  363.4344667040904 23.314391086357574  C 361.89071756260483 23.314391086357574  360.56294689811835 23.457913862816433  359.4512171123347 23.744949946150527  C 358.3414074450027 24.031986029484624  357.48411751649235 24.450958695131906  356.87929046142693 25.00192199674435  C 356.2744634063616 25.552682585834628  355.9720428189387 26.217661939732274  355.9720428189387 26.996875644737607  C 355.9720428189387 27.796968467672794  356.2744634063616 28.474805522535462  356.87929046142693 29.030431121539888  C 357.48411751649235 29.586056720544313  358.3414074450027 30.009640846871488  359.4512171123347 30.301136515075385  C 360.56294689811835 30.59283489580146  361.89071756260483 30.73865483919689  363.4344667040904 30.73865483919689  C 364.97821584557596 30.73865483919689  366.3059425627828 30.59283489580146  367.41767234856644 30.301136515075385  C 368.5313221669673 30.009640846871488  369.38669519582083 29.586056720544313  369.9838419058311 29.030431121539888  C 370.5809886158415 28.474805522535462  370.8795753610334 27.796968467672794  370.8795753610334 26.996875644737607  C 370.8795753610334 26.217661939732274  370.5809886158415 25.552682585834628  369.9838419058311 25.00192199674435  C 369.38669519582083 24.450958695131906  368.5313221669673 24.031986029484624  367.41767234856644 23.744949946150527  Z M 370 19.997046423082125  L 370 0.18586409400113918  L 373 0.18586409400113918  L 373 19.997046423082125  L 370 19.997046423082125  Z M 372.5990126799809 11.011264460631644  L 372.5990126799809 8.465121237817234  L 377.9934973180252 8.465121237817234  L 377.9934973180252 11.011264460631644  L 372.5990126799809 11.011264460631644  Z M 350 18  L 350 2.249670042418182  L 353.25029989147407 2.249670042418182  L 353.25029989147407 7.209726665804549  L 362.07214498012735 7.209726665804549  L 362.07214498012735 2.249670042418182  L 364 2.249670042418182  L 364 18  L 350 18  Z M 362.07214498012735 9.60535987340685  L 353.25029989147407 9.60535987340685  L 353.25029989147407 15.03058709251349  L 362.07214498012735 15.03058709251349  L 362.07214498012735 9.60535987340685  Z M 393.606691330544 15.499283816826898  L 393.606691330544 12.995825308560931  L 399.5051633723887 12.995825308560931  L 399.5051633723887 15.499283816826898  L 393.606691330544 15.499283816826898  Z M 404 33.17298266846593  L 404 0.1715739939131834  L 407 0.1715739939131834  L 407 33.17298266846593  L 404 33.17298266846593  Z M 398 31.527394129765874  L 398 0.8767997125395727  L 401 0.8767997125395727  L 401 31.527394129765874  L 398 31.527394129765874  Z M 384.4622732087641 4.324332755187762  C 385.4645580453249 3.3916074035065336  386.6300632504255 2.9252948394338056  387.9587627303687 2.9252948394338056  C 389.31242332101164 2.9252948394338056  390.48943000988777 3.3916074035065336  391.48979481383134 4.324332755187762  C 392.4920796503921 5.257037808431366  393.26681010764025 6.5831610176957955  393.81403459625113 8.302640943960023  C 394.36125908486207 10.02173574361753  394.63488188681475 12.058535345718795  394.63488188681475 14.413143417284546  C 394.63488188681475 16.767629698224546  394.36125908486207 18.806935794900394  393.81403459625113 20.530976526368473  C 393.26681010764025 22.255220060976754  392.49109924838245 23.58493455319437  391.4868942933699 24.520234272350983  C 390.4846094568092 25.455533991507604  389.30760268209855 25.923262280986645  387.95586220990737 25.923262280986645  C 386.6271627299642 25.923262280986645  385.46263801270766 25.455533991507604  384.4622732087641 24.520234272350983  C 383.4599883722033 23.58493455319437  382.6852139676754 22.255220060976754  382.1379894790646 20.530976526368473  C 381.59076499045364 18.806935794900394  381.3171861357807 16.767629698224546  381.3171861357807 14.413143417284546  C 381.3171861357807 12.058535345718795  381.59076499045364 10.02173574361753  382.1379894790646 8.302640943960023  C 382.6852139676754 6.5831610176957955  383.4599883722033 5.257037808431366  384.4622732087641 4.324332755187762  Z M 390.10730128847797 6.800324577570387  C 389.50055411496083 6.098707857721093  388.7853362141443 5.747960778235929  387.9616193035504 5.747960778235929  C 387.15710331997 5.747960778235929  386.45146996035487 6.098707857721093  385.84472278683774 6.800324577570387  C 385.2379756133206 7.501961550548292  384.77235302594744 8.498345883634178  384.44785850101675 9.789460903111424  C 384.12144387909296 11.080211003801546  383.95824185768396 12.621266757162326  383.95824185768396 14.41258666013826  C 383.95824185768396 16.180412571451733  384.12144387909296 17.715734378655572  384.44785850101675 19.018545738488008  C 384.77235302594744 20.321559810842622  385.2379756133206 21.32764983281707  385.84472278683774 22.036726228493528  C 386.45146996035487 22.746005336692157  387.15710331997 23.10059634218452  387.9616193035504 23.10059634218452  C 388.7853362141443 23.10059634218452  389.50055411496083 22.746005336692157  390.10730128847797 22.036726228493528  C 390.71404846199505 21.32764983281707  391.1796710493682 20.321559810842622  391.5041655742989 19.018545738488008  C 391.83058019622274 17.715734378655572  391.9938261649114 16.180412571451733  391.9938261649114 14.41258666013826  C 391.9938261649114 12.621266757162326  391.83058019622274 11.080211003801546  391.5041655742989 9.789460903111424  C 391.1796710493682 8.498345883634178  390.71404846199505 7.501961550548292  390.10730128847797 6.800324577570387  Z M 436 33.17298266846593  L 436 0.1715739939131834  L 439 0.1715739939131834  L 439 33.17298266846593  L 436 33.17298266846593  Z M 422.97248337418125 16.109304063438724  L 422.97248337418125 13.656603248342316  L 430.83812355074105 13.656603248342316  L 430.83812355074105 16.109304063438724  L 422.97248337418125 16.109304063438724  Z M 430 31.496679693862543  L 430 1.0285160349019604  L 432 1.0285160349019604  L 432 31.496679693862543  L 430 31.496679693862543  Z M 423.355527864199 4.901318744453405  C 423.355527864199 4.901318744453405  423.355527864199 4.351149891067108  423.355527864199 4.351149891067108  C 423.355527864199 4.351149891067108  426.120470967626 4.351149891067108  426.120470967626 4.351149891067108  C 426.120470967626 7.227591828219197  425.72969621977353 9.988658352091393  424.94822122844124 12.634397127764906  C 424.16866635556056 15.280176500313669  422.91774823897646 17.73741999700891  421.19543117152404 20.006140123138096  C 419.47311410407167 22.274454824222936  417.2093277532917 24.293206577970924  414.4040822476587 26.06245156755764  C 414.4040822476587 26.06245156755764  412.72498853149193 23.889614011326653  412.72498853149193 23.889614011326653  C 415.1730981851911 22.34233551818148  417.18051378801255 20.586571409718474  418.7473040075806 18.622320236049234  C 420.3160141739313 16.657663818571702  421.4767050918742 14.523518165466694  422.2293788214379 12.219891432356473  C 422.98013243254985 9.915839157000333  423.355527864199 7.476352624797757  423.355527864199 4.901318744453405  Z M 414.0786526413506 7  L 414.0786526413506 5  L 424.40964731550315 5  L 424.40964731550315 7  L 414.0786526413506 7  Z M 476 17.01115784756108  L 476 0.1715739939131834  L 479 0.1715739939131834  L 479 17.01115784756108  L 476 17.01115784756108  Z M 466.4595471784872 3.28161941305556  C 466.4595471784872 3.28161941305556  466.4595471784872 1.800459818224715  466.4595471784872 1.800459818224715  C 466.4595471784872 1.800459818224715  469.5700916896127 1.800459818224715  469.5700916896127 1.800459818224715  C 469.5700916896127 4.557931887512845  468.9902144580062 6.996275545182718  467.83048256927486 9.115599170392366  C 466.6688305620918 11.23453748775924  465.00507109899974 13.01315310608667  462.83921422263865 14.451374074662713  C 460.6733573462776 15.889291019764508  458.0677876793937 16.995315098230865  455.02253131568415 17.769461080799875  C 455.02253131568415 17.769461080799875  454.0116120403423 15.288272858385268  454.0116120403423 15.288272858385268  C 456.713173037942 14.628839916641597  458.98752424609853 13.721814063427004  460.834646952884 12.567122305922258  C 462.6798495412178 11.412065629630389  464.0786342888286 10.047744204240782  465.0309969039899 8.474214937873208  C 465.9833595191513 6.9006856715056335  466.4595471784872 5.169854568943859  466.4595471784872 3.28161941305556  Z M 455.62447720597487 5  L 455.62447720597487 2  L 467.74983931099325 2  L 467.74983931099325 5  L 455.62447720597487 5  Z M 468.4468431673129 7.333419545137309  L 468.4468431673129 4.944096251859559  L 476.79919946674414 4.944096251859559  L 476.79919946674414 7.333419545137309  L 468.4468431673129 7.333419545137309  Z M 468.17032688333035 13.63210593390582  L 468.17032688333035 11.25697994785831  L 476.6379129501809 11.25697994785831  L 476.6379129501809 13.63210593390582  L 468.17032688333035 13.63210593390582  Z M 459.09503783254615 21  L 459.09503783254615 19  L 479.2127401215499 19  L 479.2127401215499 27  L 462.0097532652504 27  L 462.0097532652504 31.879264646217358  L 459.1728245176461 31.879264646217358  L 459.1728245176461 25  L 476.3527829993737 25  L 476.3527829993737 21  L 459.09503783254615 21  Z M 459.1728245176461 33  L 459.1728245176461 31  L 480.2380741046391 31  L 480.2380741046391 33  L 459.1728245176461 33  Z M 509 33.17298266846593  L 509 0.1715739939131834  L 511 0.1715739939131834  L 511 33.17298266846593  L 509 33.17298266846593  Z M 497.67727758942027 14.518648896505361  L 497.67727758942027 12.023263366860512  L 503.67946521139834 12.023263366860512  L 503.67946521139834 14.518648896505361  L 497.67727758942027 14.518648896505361  Z M 502 31.482389593774588  L 502 0.9435177772359377  L 505 0.9435177772359377  L 505 31.482389593774588  L 502 31.482389593774588  Z M 491.6923612483712 9.49929763703975  C 491.6923612483712 9.49929763703975  491.6923612483712 5.2992145183310315  491.6923612483712 5.2992145183310315  L 493.8985146901901 5.2992145183310315  C 493.8985146901901 5.2992145183310315  493.8985146901901 9.49929763703975  493.8985146901901 9.49929763703975  C 493.8985146901901 11.29708404228763  493.73821001336484 13.056619672955769  493.4175556609617 14.778004933815987  C 493.0949812115654 16.499430791551458  492.62552478196136 18.109994376129677  492.0091771878547 19.609636242126182  C 491.39282959374805 21.109075395600506  490.63535149091484 22.459364257329526  489.7367512482218 23.660415652773075  C 488.83815100552874 24.86146704821663  487.81859557471523 25.840562322982507  486.67806452716303 26.597680770851984  C 486.67806452716303 26.597680770851984  484.9154270322532 24.339937749812687  484.9154270322532 24.339937749812687  C 486.36701203307774 23.398962170653224  487.5939466084323 22.15315154221236  488.59623144499307 20.60242702680825  C 489.5985162815538 19.05170251140414  490.3645986094133 17.315064968265336  490.8945423323795 15.392572030455801  C 491.42640613088025 13.470160105160714  491.6923612483712 11.505752706016185  491.6923612483712 9.49929763703975  Z M 492.2770358577329 9.49929763703975  C 492.2770358577329 9.49929763703975  492.2770358577329 5.2992145183310315  492.2770358577329 5.2992145183310315  L 494.46877459180445 5.2992145183310315  C 494.46877459180445 5.2992145183310315  494.46877459180445 9.49929763703975  494.46877459180445 9.49929763703975  C 494.46877459180445 11.40729694667693  494.7251450822595 13.27479434875455  495.2378080395811 15.101852007237841  C 495.7504709969028 16.928889367283507  496.49832056833765 18.578026235992844  497.4814045637193 20.049288801975106  C 498.464488559101 21.520145942913018  499.67127347837413 22.695003201399864  501.1017375195679 23.573747123668202  C 501.1017375195679 23.573747123668202  499.36502891969144 25.803095530247017  499.36502891969144 25.803095530247017  C 497.84816109319183 24.81792934619781  496.56265045905286 23.489401315782978  495.508523282641 21.81745670571535  C 494.45439610622907 20.14510667060337  493.6518044040752 18.248041150640073  493.10073972147813 16.12628515640039  C 492.5515951573328 14.00473178406485  492.2770358577329 11.795748328741404  492.2770358577329 9.49929763703975  Z M 485.7708168846748 7  L 485.7708168846748 4  L 500.04471754780246 4  L 500.04471754780246 7  L 485.7708168846748 7  Z M 520.4677215890038 6  L 520.4677215890038 4  L 540.2973934067389 4  L 540.2973934067389 6  L 520.4677215890038 6  Z M 517.083561314357 29  L 517.083561314357 27  L 545.3290053561559 27  L 545.3290053561559 29  L 517.083561314357 29  Z M 539.1165300007295 6.535215383081493  C 539.1165300007295 6.535215383081493  539.1165300007295 3.3853618279798106  539.1165300007295 3.3853618279798106  L 541.9275738005803 3.3853618279798106  C 541.9275738005803 3.3853618279798106  541.9275738005803 6.535215383081493  541.9275738005803 6.535215383081493  C 541.9275738005803 7.867784433708141  541.9102775578967 9.28492375306821  541.8757160105135 10.786612952106053  C 541.8411544631304 12.28791702453717  541.7355479751091 13.935719270972667  541.55890007103 15.730059653961614  C 541.382252166951 17.52444045258976  541.0779146906007 19.55510775169569  540.6458953348989 21.822003555743336  C 540.6458953348989 21.822003555743336  537.7859382127226 21.469019524999283  537.7859382127226 21.469019524999283  C 538.4483678771597 18.273715955694865  538.8362013224195 15.472509271419355  538.9494863905234 13.06541995184643  C 539.0608513723635 10.657985921305979  539.1165300007295 8.481222610991116  539.1165300007295 6.535215383081493  Z M 519.5979170288349 12.156606703395529  L 539.7559189733396 11.297994390967899  L 539.7559189733396 13.612712226643593  L 520.0356758821009 14.781995026697691  L 519.5979170288349 12.156606703395529  Z M 528.0712601893283 27.101174816808143  L 528.0712601893283 17.652727665795663  L 530.9312173115046 17.652727665795663  L 530.9312173115046 27.101174816808143  L 528.0712601893283 27.101174816808143  Z M 552.480370395467 19  L 552.480370395467 16  L 573.9430791802253 16  L 573.9430791802253 19  L 552.480370395467 19  Z M 548.8945800014765 29  L 548.8945800014765 27  L 577.2235238747386 27  L 577.2235238747386 29  L 548.8945800014765 29  Z M 552 17.094393040930534  L 552 4  L 573.6320203343847 4  L 573.6320203343847 6  L 555 6  L 555 17.094393040930534  L 552 17.094393040930534  Z M 580.6681556062765 18  L 580.6681556062765 16  L 609 16  L 609 18  L 580.6681556062765 18  Z M 584.0379011731759 23  L 584.0379011731759 21  L 605.4661113433557 21  L 605.4661113433557 28  L 586.9468595122371 28  L 586.9468595122371 31.381152586008618  L 584.1156878582758 31.381152586008618  L 584.1156878582758 26  L 602.6464538766805 26  L 602.6464538766805 23  L 584.0379011731759 23  Z M 584.1156878582758 33  L 584.1156878582758 31  L 606.4625719636705 31  L 606.4625719636705 33  L 584.1156878582758 33  Z M 584.2568025734488 4  L 584.2568025734488 2  L 605.3537820963978 2  L 605.3537820963978 8  L 587.1513462047627 8  L 587.1513462047627 11.579620714129884  L 584.3345892585487 11.579620714129884  L 584.3345892585487 6  L 602.5370251501839 6  L 602.5370251501839 4  L 584.2568025734488 4  Z M 584.3345892585487 13  L 584.3345892585487 11  L 605.9211414775509 11  L 605.9211414775509 13  L 584.3345892585487 13  Z M 51.24517597421702 87.84486416211504  L 51.24517597421702 77.97615815851586  L 54.0901470740096 77.97615815851586  L 54.0901470740096 87.84486416211504  L 51.24517597421702 87.84486416211504  Z M 62.78669846818834 87.84486416211504  L 62.78669846818834 77.97615815851586  L 65.65243465764745 77.97615815851586  L 65.65243465764745 87.84486416211504  L 62.78669846818834 87.84486416211504  Z M 44.311262074948075 89  L 44.311262074948075 87  L 72.64194186575902 87  L 72.64194186575902 89  L 44.311262074948075 89  Z M 52.55216807301569 64.13127820187185  C 54.26642081463995 63.427066816109544  56.2214519467143 63.074924309655685  58.41726215591499 63.074924309655685  C 60.62670512028836 63.074924309655685  62.585008093003864 63.427066816109544  64.29215648219129 64.13127820187185  C 65.99968889506904 64.83569230015632  67.339804024257 65.82049261392915  68.31251955166847 67.08580279148556  C 69.28581111461546 68.35070754399763  69.77247015752394 69.84760730855427  69.77247015752394 71.57651314055452  C 69.77247015752394 73.28068840732165  69.28581111461546 74.76909780663351  68.31251955166847 76.04170545375213  C 67.339804024257 77.3141103883486  65.99968889506904 78.29892787423717  64.29215648219129 78.99604445765043  C 62.585008093003864 79.69275561601933  60.62670512028836 80.04107762122547  58.41726215591499 80.04107762122547  C 56.2214519467143 80.04107762122547  54.26642081463995 79.69275561601933  52.55216807301569 78.99604445765043  C 50.83810742907115 78.29892787423717  49.494532996626994 77.3141103883486  48.52143344552518 76.04170545375213  C 47.548525906268544 74.76909780663351  47.06207612794591 73.28068840732165  47.06207612794591 71.57651314055452  C 47.06207612794591 69.84760730855427  47.548525906268544 68.35070754399763  48.52143344552518 67.08580279148556  C 49.494532996626994 65.82049261392915  50.83810742907115 64.83569230015632  52.55216807301569 64.13127820187185  Z M 62.86534212524282 66.23563462910991  C 61.577732493490174 65.72967273716688  60.095033333632806 65.47677463872482  58.41726215591499 65.47677463872482  C 56.753699683070835 65.47677463872482  55.27436609516215 65.72967273716688  53.97926808728233 66.23563462910991  C 52.684746114938015 66.74159652105294  51.66951477027751 67.44992903336124  50.93354581374017 68.36049827790276  C 50.19815289273836 69.2708648099221  49.830447119190865 70.3428255727491  49.830447119190865 71.57651314055452  C 49.830447119190865 72.78547014312682  50.19815289273836 73.84538124591872  50.93354581374017 74.7561532029824  C 51.66951477027751 75.66651973500174  52.684746114938015 76.37714941424663  53.97926808728233 76.8879763161038  C 55.27436609516215 77.39839779291664  56.753699683070835 77.65361018510201  58.41726215591499 77.65361018510201  C 60.095033333632806 77.65361018510201  61.577732493490174 77.39839779291664  62.86534212524282 76.8879763161038  C 64.15314376884064 76.37714941424663  65.16482225060649 75.66651973500174  65.90040718345348 74.7561532029824  C 66.63618412814564 73.84538124591872  67.00407719263912 72.78547014312682  67.00407719263912 71.57651314055452  C 67.00407719263912 70.3428255727491  66.63618412814564 69.2708648099221  65.90040718345348 68.36049827790276  C 65.16482225060649 67.44992903336124  64.15314376884064 66.74159652105294  62.86534212524282 66.23563462910991  Z M 83.90756333766383 68.03089804730264  C 83.90756333766383 68.03089804730264  83.90756333766383 66.63250968155268  83.90756333766383 66.63250968155268  L 86.25026097756502 66.63250968155268  C 86.25026097756502 66.63250968155268  86.25026097756502 68.03089804730264  86.25026097756502 68.03089804730264  C 86.25026097756502 69.936768920766  85.8909004233474 71.71555598839694  85.1722122324547 73.36722970871928  C 84.45371605340716 75.0187006259014  83.44367353487914 76.45407990382797  82.14204729593254 77.67337506379509  C 80.84099709252143 78.89226479871786  79.31652784581775 79.81793454034589  77.56867363213009 80.45038691660193  C 77.56867363213009 80.45038691660193  76.17815972822828 78.09298436637779  76.17815972822828 78.09298436637779  C 77.72613295863857 77.55256193468234  79.07709413912556 76.77691096795229  80.23106575833629 75.76620345919928  C 81.38484536570185 74.75569866296844  82.2859378139937 73.5813296544009  82.93435082831964 72.24304423751417  C 83.58314786633589 70.90475882062746  83.90756333766383 69.50074162562969  83.90756333766383 68.03089804730264  Z M 84.40985877119509 68.03089804730264  C 84.40985877119509 68.03089804730264  84.40985877119509 66.63250968155268  84.40985877119509 66.63250968155268  L 86.75224878013826 66.63250968155268  C 86.75224878013826 66.63250968155268  86.75224878013826 68.03089804730264  86.75224878013826 68.03089804730264  C 86.75224878013826 69.0464705659698  86.94349940177476 70.03127092505163  87.32598051685032 70.98542263691635  C 87.70826962008071 71.93896621121456  88.24609591425637 72.82145120803159  88.93943897075903 73.63289566035445  C 89.63316600803478 74.44434011267731  90.46062805087212 75.15457438016962  91.42182303924231 75.76351246632558  C 92.3832100394577 76.37204517274618  93.43829452839049 76.85873172722229  94.58708191361609 77.22360808245534  C 94.58708191361609 77.22360808245534  93.25789643856008 79.60318812567311  93.25789643856008 79.60318812567311  C 91.50965820118209 79.03418372675027  89.96994723102777 78.18646873024142  88.63875168293185 77.06001427430556  C 87.30736412299076 75.93335710584753  86.26955391919553 74.59665841058052  85.52532862498488 73.04978534247968  C 84.78167936630973 71.50291227437886  84.40985877119509 69.82994114332276  84.40985877119509 68.03089804730264  Z M 76.97191352084606 67  L 76.97191352084606 65  L 93.65880549778305 65  L 93.65880549778305 67  L 76.97191352084606 67  Z M 83.90756333766383 65.84803886243853  L 83.90756333766383 60.84464797449973  L 86.77327755348308 60.84464797449973  L 86.77327755348308 65.84803886243853  L 83.90756333766383 65.84803886243853  Z M 92.7103792541995 72.8822014414482  L 92.7103792541995 70.37883572603994  L 99.75057964946524 70.37883572603994  L 99.75057964946524 72.8822014414482  L 92.7103792541995 72.8822014414482  Z M 99 80.96882061265003  L 99 60.998498532589544  L 102 60.998498532589544  L 102 80.96882061265003  L 99 80.96882061265003  Z M 83.89517020478351 83.425882692059  C 85.74958919001645 82.36693041859081  88.2968638203695 81.83745455371077  91.5370088593819 81.83745455371077  C 94.7775377504156 81.83745455371077  97.32137522282137 82.36693041859081  99.16849792960686 83.425882692059  C 101.01619658609332 84.4848349655272  101.94003312499147 85.97134265496406  101.94003312499147 87.88532184807835  C 101.94003312499147 89.78430067702385  101.01619658609332 91.26572569205024  99.16849792960686 92.32954297543259  C 97.32137522282137 93.39336025881495  94.7775377504156 93.92520895668251  91.5370088593819 93.92520895668251  C 88.2968638203695 93.92520895668251  85.74958919001645 93.39336025881495  83.89517020478351 92.32954297543259  C 82.04075121955054 91.26572569205024  81.11354910870371 89.78430067702385  81.11354910870371 87.88532184807835  C 81.11354910870371 85.97134265496406  82.04075121955054 84.4848349655272  83.89517020478351 83.425882692059  Z M 95.59079383508426 84.64944931387579  C 94.46869558133037 84.36241323054169  93.1174316624536 84.21889045408284  91.5370088593819 84.21889045408284  C 89.9658024532094 84.21889045408284  88.61339272918237 84.36241323054169  87.47977402222175 84.64944931387579  C 86.34615531526111 84.93628268468771  85.47577759501347 85.35288251734745  84.86864639780602 85.89918352156792  C 84.26170721244374 86.44528181326622  83.95825652481798 87.10732432758803  83.95825652481798 87.88532184807835  C 83.95825652481798 88.64811620125968  84.26170721244374 89.30507613178905  84.86864639780602 89.85624214592367  C 85.47577759501347 90.40740816005831  86.34615531526111 90.82638082570558  87.47977402222175 91.1132141965175  C 88.61339272918237 91.39984485480726  89.9658024532094 91.54321629916417  91.5370088593819 91.54321629916417  C 93.1174316624536 91.54321629916417  94.46869558133037 91.39984485480726  95.59079383508426 91.1132141965175  C 96.71308410068332 90.82638082570558  97.57771099320873 90.40740816005831  98.184650178571 89.85624214592367  C 98.79158936393328 89.30507613178905  99.0950620251989 88.64811620125968  99.0950620251989 87.88532184807835  C 99.0950620251989 87.10732432758803  98.79158936393328 86.44528181326622  98.184650178571 85.89918352156792  C 97.57771099320873 85.35288251734745  96.71308410068332 84.93628268468771  95.59079383508426 84.64944931387579  Z M 129 94  L 129 60.998498532589544  L 132 60.998498532589544  L 132 94  L 129 94  Z M 131.2643609102153 77.0907287102089  L 131.2643609102153 74.55247288030017  L 137.03931912241396 74.55247288030017  L 137.03931912241396 77.0907287102089  L 131.2643609102153 77.0907287102089  Z M 107.73169130348282 68  L 107.73169130348282 66  L 126.16107094757912 66  L 126.16107094757912 68  L 107.73169130348282 68  Z M 113.17370492454165 72.43976509586786  C 114.32134032453077 71.7886634847349  115.62901111696368 71.46312026842801  117.09672476944456 71.46312026842801  C 118.56463051960515 71.46312026842801  119.87029063815643 71.7886634847349  121.0137018633863 72.43976509586786  C 122.15711308861617 73.09046128195646  123.0551427462664 73.98041877705121  123.70777997826883 75.1095084051573  C 124.36080119104435 76.23880074578557  124.6872989222525 77.54906870043231  124.6872989222525 79.04039944363771  C 124.6872989222525 80.53233832440962  124.36080119104435 81.84904369294226  123.70777997826883 82.99049860366493  C 123.0551427462664 84.13175080186541  122.15748767050813 85.02415675068966  121.01484449265897 85.6677581344292  C 119.87239332665497 86.31115680564659  118.56425439269162 86.63289664751251  117.09039636116523 86.63289664751251  C 115.6269067976091 86.63289664751251  114.32134032453077 86.31115680564659  113.17370492454165 85.6677581344292  C 112.02587751270737 85.02415675068966  111.12179416019333 84.13175080186541  110.4614765831358 82.99049860366493  C 109.80154302976862 81.84904369294226  109.4715860811388 80.53233832440962  109.4715860811388 79.04039944363771  C 109.4715860811388 77.54906870043231  109.80154302976862 76.23880074578557  110.4614765831358 75.1095084051573  C 111.12179416019333 73.98041877705121  112.02587751270737 73.09046128195646  113.17370492454165 72.43976509586786  Z M 119.59378722935348 74.62726392361766  C 118.85724223728064 74.19630439622668  118.02279008776684 73.98077608392423  117.09039636116523 73.98077608392423  C 116.15397047164957 73.98077608392423  115.31477570681108 74.19630439622668  114.57285446890795 74.62726392361766  C 113.83074121915965 75.0578180259643  113.24983388735026 75.65333309060556  112.83010311807033 76.413897606043  C 112.41075632956345 77.17405669643607  112.20108570347364 78.04955739958567  112.20108570347364 79.04039944363771  C 112.20108570347364 80.03164691273412  112.41075632956345 80.9099330327396  112.83010311807033 81.675159845569  C 113.24983388735026 82.44018394587623  113.83074121915965 83.03816463636274  114.57285446890795 83.46912416375372  C 115.31477570681108 83.89988097862255  116.15397047164957 84.1152408320163  117.09039636116523 84.1152408320163  C 118.02682225068091 84.1152408320163  118.86244217898488 83.89988097862255  119.59725906445118 83.46912416375372  C 120.33207594991747 83.03816463636274  120.90914943949595 82.44018394587623  121.32849622800282 81.675159845569  C 121.74822699728277 80.9099330327396  121.95808495723583 80.03164691273412  121.95808495723583 79.04039944363771  C 121.95808495723583 78.04955739958567  121.74822699728277 77.17405669643607  121.32849622800282 76.413897606043  C 120.90914943949595 75.65333309060556  120.33090825696186 75.0578180259643  119.59378722935348 74.62726392361766  Z M 115.5976171373608 67.3822759718818  L 115.5976171373608 61.39648709932488  L 118.47717474629104 61.39648709932488  L 118.47717474629104 67.3822759718818  L 115.5976171373608 67.3822759718818  Z M 152.0116519284521 75.32051936359895  L 152.0116519284521 72.80286354810274  L 158.01557546797898 72.80286354810274  L 158.01557546797898 75.32051936359895  L 152.0116519284521 75.32051936359895  Z M 146.1966797180706 70.38161951177136  C 146.1966797180706 70.38161951177136  146.1966797180706 64.0977799802371  146.1966797180706 64.0977799802371  L 148.43109126074788 64.0977799802371  C 148.43109126074788 64.0977799802371  148.43109126074788 70.38161951177136  148.43109126074788 70.38161951177136  C 148.43109126074788 72.10383592115791  148.26548209576004 73.79196182949757  147.93426726354144 75.44606810008598  C 147.60305243132288 77.1001743706744  147.12321824216065 78.65708845966572  146.49477411639447 80.1167965931201  C 145.8665220024735 81.57670743909667  145.10069868031042 82.88872568089845  144.1972982273226 84.0528840316325  C 143.2944738098703 85.21683966984438  142.27585483378672 86.16251986501354  141.14146807944545 86.88984007052258  C 141.14146807944545 86.88984007052258  139.34138750221632 84.61177541364391  139.34138750221632 84.61177541364391  C 140.41682765010418 83.94242999267837  141.37649598551138 83.09431949379892  142.22037379651024 82.06739525512606  C 143.06463563119942 81.04006559140886  143.78525166565163 79.89084825003714  144.382206406734 78.61986221247787  C 144.97896913597125 77.34847074987427  145.43056743395994 76.01128380468795  145.73701314586535 74.608334180644  C 146.04345885777076 73.20558726912223  146.1966797180706 71.79673170590969  146.1966797180706 70.38161951177136  Z M 146.74533953170385 70.26813384678714  C 146.74533953170385 70.26813384678714  146.74533953170385 64.0977799802371  146.74533953170385 64.0977799802371  L 148.95296520739328 64.0977799802371  C 148.95296520739328 64.0977799802371  148.95296520739328 70.26813384678714  148.95296520739328 70.26813384678714  C 148.95296520739328 71.5895943961875  149.09580830813496 72.91399930645977  149.38151710555854 74.24133842838513  C 149.66741789336868 75.56847483778834  150.08600998176436 76.83493550179158  150.63726667620662 78.0406491946271  C 151.18871533957676 79.24616017494046  151.862862833724 80.34711018770872  152.65969851516647 81.34342537924145  C 153.45634218476377 82.33913243320765  154.36982287336772 83.16422001822818  155.40014101015097 83.81876765162008  C 155.40014101015097 83.81876765162008  153.7564468277966 86.16828280893851  153.7564468277966 86.16828280893851  C 152.63070043481895 85.4407598909073  151.63089810455503 84.51104269518767  150.75706696071654 83.37911509177115  C 149.8836198405684 82.24698477583244  149.1497726277954 80.96917257305957  148.55550600962812 79.54574934674815  C 147.9610473796157 78.12192069539239  147.51059484386005 76.62097338612614  147.20414913195464 75.04288313331867  C 146.8982794341261 73.46438745546683  146.74533953170385 71.8727789869093  146.74533953170385 70.26813384678714  Z M 164 93.98570989991204  L 164 60.98420843250158  L 167 60.98420843250158  L 167 93.98570989991204  L 164 93.98570989991204  Z M 158 92.34049253264286  L 158 61.689619736843404  L 160 61.689619736843404  L 160 92.34049253264286  L 158 92.34049253264286  Z M 178.43165781262482 87.84486416211504  L 178.43165781262482 77.97615815851586  L 181.27665088605724 77.97615815851586  L 181.27665088605724 87.84486416211504  L 178.43165781262482 87.84486416211504  Z M 189.97319129341605 87.84486416211504  L 189.97319129341605 77.97615815851586  L 192.83894945651502 77.97615815851586  L 192.83894945651502 87.84486416211504  L 189.97319129341605 87.84486416211504  Z M 171.49774391335586 89  L 171.49774391335586 87  L 199.8284127173469 87  L 199.8284127173469 89  L 171.49774391335586 89  Z M 179.73867188506335 64.13127820187185  C 181.4529246266876 63.427066816109544  183.4079667455819 63.074924309655685  185.60377695478257 63.074924309655685  C 187.81321991915596 63.074924309655685  189.7715009182316 63.427066816109544  191.478649307419 64.13127820187185  C 193.1861817202968 64.83569230015632  194.52639049495775 65.82049261392915  195.49929803421435 67.08580279148556  C 196.47239758531617 68.35070754399763  196.95896298275167 69.84760730855427  196.95896298275167 71.57651314055452  C 196.95896298275167 73.28068840732165  196.47239758531617 74.76909780663351  195.49929803421435 76.04170545375213  C 194.52639049495775 77.3141103883486  193.1861817202968 78.29892787423717  191.478649307419 78.99604445765043  C 189.7715009182316 79.69275561601933  187.81321991915596 80.04107762122547  185.60377695478257 80.04107762122547  C 183.4079667455819 80.04107762122547  181.4529246266876 79.69275561601933  179.73867188506335 78.99604445765043  C 178.02461124111883 78.29892787423717  176.68101483503477 77.3141103883486  175.70791528393298 76.04170545375213  C 174.73500774467635 74.76909780663351  174.2485579663537 73.28068840732165  174.2485579663537 71.57651314055452  C 174.2485579663537 69.84760730855427  174.73500774467635 68.35070754399763  175.70791528393298 67.08580279148556  C 176.68101483503477 65.82049261392915  178.02461124111883 64.83569230015632  179.73867188506335 64.13127820187185  Z M 190.05181297683072 66.23563462910991  C 188.76420334507802 65.72967273716688  187.2815481325004 65.47677463872482  185.60377695478257 65.47677463872482  C 183.94021448193843 65.47677463872482  182.4608699072098 65.72967273716688  181.16577189933 66.23563462910991  C 179.87124992698568 66.74159652105294  178.8559966086853 67.44992903336124  178.12002765214797 68.36049827790276  C 177.38463473114615 69.2708648099221  177.0169509312385 70.3428255727491  177.0169509312385 71.57651314055452  C 177.0169509312385 72.78547014312682  177.38463473114615 73.84538124591872  178.12002765214797 74.7561532029824  C 178.8559966086853 75.66651973500174  179.87124992698568 76.37714941424663  181.16577189933 76.8879763161038  C 182.4608699072098 77.39839779291664  183.94021448193843 77.65361018510201  185.60377695478257 77.65361018510201  C 187.2815481325004 77.65361018510201  188.76420334507802 77.39839779291664  190.05181297683072 76.8879763161038  C 191.3396146204285 76.37714941424663  192.3513150758342 75.66651973500174  193.0869000086812 74.7561532029824  C 193.82267695337336 73.84538124591872  194.19059199150672 72.78547014312682  194.19059199150672 71.57651314055452  C 194.19059199150672 70.3428255727491  193.82267695337336 69.2708648099221  193.0869000086812 68.36049827790276  C 192.3513150758342 67.44992903336124  191.3396146204285 66.74159652105294  190.05181297683072 66.23563462910991  Z " fill-rule="nonzero" fill="#55565d" stroke="none" transform="matrix(1 0 0 1 107 1256 )" />
  </g>
</svg>