<?xml version="1.0" encoding="utf-8"?>
<svg version="1.1" xmlns:xlink="http://www.w3.org/1999/xlink" width="153px" height="17px" xmlns="http://www.w3.org/2000/svg">
  <g transform="matrix(1 0 0 1 -54 -360 )">
    <path d="M 11.723466561925397 8.563301162771465  L 11.723466561925397 0.012372020708248565  L 13.928744054350359 0.012372020708248565  L 13.928744054350359 8.563301162771465  L 11.723466561925397 8.563301162771465  Z M 6.149396068749406 1.8773135513323078  C 6.149396068749406 1.8773135513323078  6.149396068749406 0.7111803040076746  6.149396068749406 0.7111803040076746  C 6.149396068749406 0.7111803040076746  8.54013691180152 0.7111803040076746  8.54013691180152 0.7111803040076746  C 8.54013691180152 2.1863451060972103  8.243820565473364 3.4728344642973443  7.651184295715679 4.570618104831373  C 7.058548025957994 5.6684017453654025  6.183635257594462 6.5787383296751205  5.0264459906250805 7.301636232818936  C 3.8692567236557007 8.024342196099578  2.4407560120121548 8.575998952657354  0.7409420671437574 8.956604889263799  C 0.7409420671437574 8.956604889263799  0 7.187616814700871  0 7.187616814700871  C 1.4360995756036292 6.889128703342606  2.6060826207905663 6.479212533639145  3.509944320232042 5.957866074529847  C 4.413806019673518 5.436327675557377  5.0796290611970285 4.828111746894073  5.50741973912518 4.133239054565904  C 5.935402789437678 3.4383663622377356  6.149396068749406 2.6863987000100273  6.149396068749406 1.8773135513323078  Z M 0.9489686725770667 2.4618212342248467  L 0.9489686725770667 0.7111803040076746  L 7.081630510786336 0.7111803040076746  L 7.081630510786336 2.4618212342248467  L 0.9489686725770667 2.4618212342248467  Z M 7.893260503621343 3.8977137398898427  L 7.893260503621343 2.221375229494368  L 12.019496464982174 2.221375229494368  L 12.019496464982174 3.8977137398898427  L 7.893260503621343 3.8977137398898427  Z M 7.7703446966100085 7.16659843861129  L 7.7703446966100085 5.502631948924064  L 11.93963354943414 5.502631948924064  L 11.93963354943414 7.16659843861129  L 7.7703446966100085 7.16659843861129  Z M 2.7831389577092738 10.95749805653418  L 2.7831389577092738 9  L 13.928744054350359 9  L 13.928744054350359 13.763908185712632  L 5.006823663469756 13.763908185712632  L 5.006823663469756 16.02598455151425  L 2.813723724760663 16.02598455151425  L 2.813723724760663 12.130766304437717  L 11.729581754301154 12.130766304437717  L 11.729581754301154 10.95749805653418  L 2.7831389577092738 10.95749805653418  Z M 2.813723724760663 16.809745033824576  L 2.813723724760663 15  L 14.327142894139381 15  L 14.327142894139381 16.809745033824576  L 2.813723724760663 16.809745033824576  Z M 30 16.963165120164078  L 30 0.012372020708248565  L 32 0.012372020708248565  L 32 16.963165120164078  L 30 16.963165120164078  Z M 23.453052718812856 7.671039464761243  L 23.453052718812856 5.889644221703964  L 26.391990400635354 5.889644221703964  L 26.391990400635354 7.671039464761243  L 23.453052718812856 7.671039464761243  Z M 26 16.17135579483617  L 26 0.32480069137762785  L 28 0.32480069137762785  L 28 16.17135579483617  L 26 16.17135579483617  Z M 19.90957830129229 4.599404141649713  C 19.90957830129229 4.599404141649713  19.90957830129229 2.7413867248879407  19.90957830129229 2.7413867248879407  L 21.564924335943232 2.7413867248879407  C 21.564924335943232 2.7413867248879407  21.564924335943232 4.599404141649713  21.564924335943232 4.599404141649713  C 21.564924335943232 5.5417052347394  21.49017012307009 6.470776962002401  21.34067419998101 7.386588431829836  C 21.19125521896662 8.3024382759003  20.963825057082552 9.164005522143622  20.658370179815435 9.971286326270697  C 20.352838360473623 10.77849031326369  19.960051442413526 11.5068525987782  19.4800179556461 12.156424188292892  C 18.99990752680398 12.805995777807585  18.43131887134089 13.335672674111406  17.77424469747326 13.745455598008569  C 17.77424469747326 13.745455598008569  16.458439326317972 12.130520269934998  16.458439326317972 12.130520269934998  C 17.27985902012241 11.614164624832274  17.942745192629335 10.956608858734587  18.447091962258614 10.157850774905308  C 18.95143873188789 9.359169508210108  19.321212505853932 8.478688634162202  19.556420438359474 7.516424353694239  C 19.791859197089114 6.554160073226277  19.90957830129229 5.581823549359122  19.90957830129229 4.599404141649713  Z M 20.391652696368297 4.599404141649713  C 20.391652696368297 4.599404141649713  20.391652696368297 2.7413867248879407  20.391652696368297 2.7413867248879407  L 22.03453060660733 2.7413867248879407  C 22.03453060660733 2.7413867248879407  22.03453060660733 4.599404141649713  22.03453060660733 4.599404141649713  C 22.03453060660733 5.549383378450427  22.14813752322688 6.484016968272146  22.375343617544736 7.40328363022875  C 22.602703596011988 8.322511849294305  22.964440620656763 9.157888777641407  23.46055472587426 9.909426222729453  C 23.95682271524115 10.660886850683417  24.609354520689998 11.27225821989773  25.418155920615323 11.7435431449412  C 25.418155920615323 11.7435431449412  24.12728239569755 13.334085909459302  24.12728239569755 13.334085909459302  C 23.248464877234746 12.80544522068933  22.53521941173678 12.091358908710346  21.987555010747492 11.191863494268842  C 21.439967517437694 10.292368079827343  21.037110921435417 9.275109321567612  20.77897462901736 8.140086670305497  C 20.52076139452461 7.004872010532189  20.391652696368297 5.824645118812439  20.391652696368297 4.599404141649713  Z M 17.04484621161765 3.5669027770886057  L 17.04484621161765 1.7917989877437601  L 24.67121312833971 1.7917989877437601  L 24.67121312833971 3.5669027770886057  L 17.04484621161765 3.5669027770886057  Z M 35.516051139061304 3.2539117418415784  L 35.516051139061304 1.4912151209910849  L 46.24005576609318 1.4912151209910849  L 46.24005576609318 3.2539117418415784  L 35.516051139061304 3.2539117418415784  Z M 33.75003288990945 15  L 33.75003288990945 13  L 49.110682918828395 13  L 49.110682918828395 15  L 33.75003288990945 15  Z M 45.356932174273354 3.019827486395739  C 45.356932174273354 3.019827486395739  45.356932174273354 1.4912151209910849  45.356932174273354 1.4912151209910849  L 47.52516190295319 1.4912151209910849  C 47.52516190295319 1.4912151209910849  47.52516190295319 3.019827486395739  47.52516190295319 3.019827486395739  C 47.52516190295319 3.699727771028197  47.51592661615146 4.430856640385944  47.49746082993068 5.213260225938239  C 47.478995043709894 5.995663811490535  47.41737195508013 6.863216890462441  47.31257862069561 7.815883491291618  C 47.20793917046048 8.768550092120796  47.02827915088084 9.853370721144701  46.77360520023135 11.070357597710844  C 46.77360520023135 11.070357597710844  44.59925587658947 10.830227923055295  44.59925587658947 10.830227923055295  C 44.97695812376987 9.13393247225134  45.19766267726682 7.653866888033109  45.26136963596654 6.390043252452075  C 45.325076594666264 5.126027677007869  45.356932174273354 4.002630842479511  45.356932174273354 3.019827486395739  Z M 35.01078391933771 5.926197919251063  L 45.7701060936974 5.564562348037513  L 45.7701060936974 7.22877487222746  L 35.30681382239449 7.793705238260639  L 35.01078391933771 5.926197919251063  Z M 39.341704923127395 13.79856390281017  L 39.341704923127395 9.000961395325758  L 41.541096157664384 9.000961395325758  L 41.541096157664384 13.79856390281017  L 39.341704923127395 13.79856390281017  Z M 52.58420904515672 9.673549430192361  L 52.58420904515672 8  L 64.44986593693079 8  L 64.44986593693079 9.673549430192361  L 52.58420904515672 9.673549430192361  Z M 50.75090166694003 14.86413933409418  L 50.75090166694003 13  L 66.13579233604682 13  L 66.13579233604682 14.86413933409418  L 50.75090166694003 14.86413933409418  Z M 52.58420904515672 8.66234762400966  L 52.58420904515672 1.4549074579467076  L 64.30883348727998 1.4549074579467076  L 64.30883348727998 3.236337848790089  L 54.76490689824846 3.236337848790089  L 54.76490689824846 8.66234762400966  L 52.58420904515672 8.66234762400966  Z M 72.93039183018102 12.335888784134703  C 72.69595330122485 11.612990880990887  72.57873084659145 10.764172944972264  72.57873084659145 9.789431680973884  C 72.57873084659145 9.015627632853462  72.63435892614257 8.254551751367663  72.74561528301723 7.506231495724375  C 72.85679469781722 6.757911240081088  73.0476478717326 6.056828579239909  73.31817163180567 5.4029879753221195  C 73.58861844980404 4.749147371404329  73.96278469788331 4.172533798892896  74.44066384095441 3.6731545344779106  C 74.91854298402552 3.173775270062925  75.52041092693865 2.781624023687863  76.2462701461486 2.496687838039002  C 76.97205245767906 2.2117593238063447  77.84740562225379 2.0692907590267784  78.8723336297166 2.0692907590267784  C 79.13677906907421 2.0692907590267784  79.43354014540944 2.0812878693015118  79.76261582686612 2.105282091996229  C 80.09176845039752 2.1292763146909457  80.36452306630156 2.1682688425468184  80.58088051726072 2.222253924146943  C 80.58088051726072 2.222253924146943  80.58088051726072 3.9768314064076478  80.58088051726072 3.9768314064076478  C 80.34944267762494 3.910845376679437  80.09399762086339 3.8606079535155504  79.81454873490388 3.8261176995980746  C 79.53502290686964 3.7916274456805987  79.2554963393385 3.77438015845449  78.9759705113043 3.77438015845449  C 77.86994693291884 3.77438015845449  77.007369523474 3.9828366665258175  76.38822713892318 4.39972956879869  C 75.76908475437237 4.816630125325763  75.32801338250005 5.386489041611619  75.06502982536408 6.109317884847583  C 74.80204626822811 6.832146728083546  74.64951160612256 7.656941701484942  74.6074250049637 8.583686878711193  C 74.6074250049637 8.583686878711193  74.71568460217021 8.583686878711193  74.71568460217021 8.583686878711193  C 74.89303307476682 8.286788140629781  75.11769971947001 8.020607143155964  75.38968534456713 7.785164326237616  C 75.66167096966424 7.5497215093192676  75.99228305055529 7.362265683310436  76.38152640256904 7.222799748589953  C 76.77069281250809 7.083333813869472  77.22526177449046 7.013600125705024  77.74522751012162 7.013600125705024  C 78.5146352557061 7.013600125705024  79.18409252903766 7.173315990582202  79.75360813528889 7.492734745860831  C 80.32320068361483 7.812161189717671  80.76354141533437 8.274830239100568  81.07461296086878 8.880720819067466  C 81.38568450640318 9.486526961970096  81.5412166676738 10.222796950173619  81.5412166676738 11.089583436709175  C 81.5412166676738 12.016413050999697  81.36536863432421 12.815773246610048  81.01367236125378 13.487611439157114  C 80.66205303025806 14.159449631704181  80.16313299857131 14.6752935058198  79.51690748525998 15.035168461271274  C 78.87075887962811 15.395043416722748  78.10288743029238 15.574968160240825  77.2132982277432 15.574968160240825  C 76.55506988835991 15.574968160240825  75.94493127433293 15.455781176627381  75.3828789461417 15.217374584429118  C 74.82082661795047 14.978967992230853  74.33016852099537 14.619803629593635  73.91091824138257 14.1399192014423  C 73.49166796176979 13.660034773290965  73.1648303591372 13.058709938792456  72.93039183018102 12.335888784134703  Z M 76.10200619815092 13.564057873931095  C 76.41007703716733 13.743956960251795  76.76846121718023 13.833922575629765  77.17717060453553 13.833922575629765  C 77.85940445848188 13.833922575629765  78.40941873991073 13.61048755018897  78.82720712010429 13.163619146859855  C 79.24499550029782 12.71675074353074  79.45388886490966 12.031414222215675  79.45388886490966 11.107579103193899  C 79.45388886490966 10.354813201792744  79.26977012605101 9.76018477567507  78.90153158208234 9.323758662895516  C 78.53336998018835 8.887409332926032  77.97812879696092 8.669236590085843  77.23580424892741 8.669236590085843  C 76.73084197709575 8.669236590085843  76.28977939319843 8.777213832613127  75.91261574054091 8.993123439024792  C 75.53545208788339 9.209109828246532  75.24314973082717 9.48128228758655  75.03571740575444 9.809676805769199  C 74.82836202275641 10.138071323951847  74.72468348857485 10.4732414703301  74.72468348857485 10.815149522817116  C 74.72468348857485 11.16611780959643  74.77504716695461 11.518544111666843  74.87576264017058 11.872430076580823  C 74.97640117131186 12.226316041494805  75.1288982996494 12.551739233115367  75.33325299332706 12.848730131163268  C 75.53768462907941 13.1456442464011  75.79393535913451 13.384082021962326  76.10200619815092 13.564057873931095  Z M 87.00062620315778 4.76266560809805  C 87.00062620315778 4.76266560809805  87.00062620315778 2.625645065250831  87.00062620315778 2.625645065250831  L 88.74241261729439 2.625645065250831  C 88.74241261729439 2.625645065250831  88.74241261729439 4.76266560809805  88.74241261729439 4.76266560809805  C 88.74241261729439 5.693065537246833  88.63488457171361 6.617324420494415  88.41983511882667 7.535439305975951  C 88.20478566593972 8.453400625837345  87.8932909217969 9.31710344332652  87.48535095518858 10.126534097487554  C 87.07733404650556 10.935964751648585  86.57980024478596 11.655278267090095  85.9927421206654 12.284502720852148  C 85.40568399654484 12.91357360899406  84.7381470763266 13.408460821589838  83.99012888355591 13.769180353628078  C 83.99012888355591 13.769180353628078  82.7427617164907 12.03688656775666  82.7427617164907 12.03688656775666  C 83.41660898748069 11.713098949530234  84.01608863050971 11.285923363353678  84.54120941635517 10.755363138655948  C 85.06648405195484 10.22480291395822  85.51254835224036 9.628797648832784  85.87940193886448 8.967324964025208  C 86.2461785834139 8.30585227921763  86.5247118690031 7.615760166335606  86.71498640377759 6.897085214773647  C 86.90541482270149 6.178410263211691  87.00062620315778 5.466944040201831  87.00062620315778 4.76266560809805  Z M 87.4518824941083 4.76266560809805  C 87.4518824941083 4.76266560809805  87.4518824941083 2.625645065250831  87.4518824941083 2.625645065250831  L 89.18766378052676 2.625645065250831  C 89.18766378052676 2.625645065250831  89.18766378052676 4.76266560809805  89.18766378052676 4.76266560809805  C 89.18766378052676 5.413772785166135  89.27969002737319 6.075147028713415  89.46373235728282 6.746793281397311  C 89.64800551341655 7.418247594218034  89.91740725029351 8.067325123934712  90.2719503457325 8.694015779288444  C 90.6266472909257 9.320552937670053  91.06560186146852 9.884805953692533  91.58879912984176 10.38680345358011  C 92.11199639821501 10.888570639361488  92.70836595797257 11.297256533579317  93.3779045415699 11.612828528424222  C 93.3779045415699 11.612828528424222  92.16124101138631 13.345016870937329  92.16124101138631 13.345016870937329  C 91.40929887599167 12.992589745090681  90.74286776163015 12.515079817617881  90.16196493469498 11.91249855273822  C 89.58106210775978 11.30999403634462  89.08864256354076 10.623481368507479  88.68470351602629 9.852978878248068  C 88.28076446851179 9.082476387988658  87.97427144075716 8.262857681219142  87.76522336651098 7.39407491026977  C 87.55632917641422 6.525100199457225  87.4518824941083 5.647956442944547  87.4518824941083 4.76266560809805  Z M 83.38329399780734 3.482512942655353  L 83.38329399780734 1.6702930911857623  L 92.66269559137093 1.6702930911857623  L 92.66269559137093 3.482512942655353  L 83.38329399780734 3.482512942655353  Z M 94 16.975466845300122  L 94 0.02477918920260011  L 96 0.02477918920260011  L 96 16.975466845300122  L 94 16.975466845300122  Z M 95.83903833703093 8.401551051125555  L 95.83903833703093 6.589296051869862  L 98.87296622094078 6.589296051869862  L 98.87296622094078 8.401551051125555  L 95.83903833703093 8.401551051125555  Z M 112 17  L 112 0  L 114 0  L 114 17  L 112 17  Z M 101.01211246449874 13.014135612563885  L 101.01211246449874 11.214322929588647  C 101.01211246449874 11.214322929588647  102.49018395904731 11.214322929588647  102.49018395904731 11.214322929588647  C 103.48410482633524 11.214322929588647  104.42731890587098 11.198956786885258  105.31983183846825 11.16824418200764  C 106.2124986552149 11.137531577130023  107.09674937791887 11.0802233993527  107.97256618986368 10.996301212391868  C 108.84830609412901 10.912225459810898  109.74744051652696 10.794479106377553  110.66996037672325 10.643065962056932  C 110.66996037672325 10.643065962056932  110.89211488160495 12.412124332192064  110.89211488160495 12.412124332192064  C 109.47755881175492 12.657825171213005  108.1044753800468 12.81965232309906  106.77286142212171 12.897585553846408  C 105.44117055651712 12.975288444744546  104.01361131043845 13.014135612563885  102.49018395904731 13.014135612563885  C 102.49018395904731 13.014135612563885  101.01211246449874 13.014135612563885  101.01211246449874 13.014135612563885  Z M 100.98118869830199 3.248428687209514  L 100.98118869830199 1.48573206635902  L 108.95529389421708 1.48573206635902  L 108.95529389421708 7.903998991051787  L 103.23608774095527 7.903998991051787  L 103.23608774095527 11.892112836798493  L 101.01211246449874 11.892112836798493  L 101.01211246449874 6.16604641161779  L 106.71885049334864 6.16604641161779  L 106.71885049334864 3.248428687209514  L 100.98118869830199 3.248428687209514  Z M 133.7194015935636 9.123943498900081  L 133.7194015935636 0.02477918920260011  L 135.92492122823526 0.02477918920260011  L 135.92492122823526 9.123943498900081  L 133.7194015935636 9.123943498900081  Z M 124.73580096856898 16.77909616434278  L 124.73580096856898 9.896983906448998  L 126.89745323331118 9.896983906448998  L 126.89745323331118 11.607064291503333  L 133.75057190459336 11.607064291503333  L 133.75057190459336 9.896983906448998  L 135.92492122823526 9.896983906448998  L 135.92492122823526 16.77909616434278  L 124.73580096856898 16.77909616434278  Z M 133.75057190459336 13.29570452703485  L 126.89745323331118 13.29570452703485  L 126.89745323331118 15.022515258274202  L 133.75057190459336 15.022515258274202  L 133.75057190459336 13.29570452703485  Z M 124.37341528474374 1.2559709886038473  C 125.06357400040788 0.9179403822153753  125.84375329249791 0.748929026282274  126.71395343617544 0.748929026282274  C 127.58800061479744 0.748929026282274  128.3689480206166 0.9179403822153753  129.05679854283028 1.2559709886038473  C 129.7446490650439 1.5940015949923192  130.28785385247883 2.0610155834881385  130.68640705795013 2.657032038240791  C 131.08419084267445 3.253048492993444  131.2830807745099 3.940252858277407  131.2830807745099 4.7186254321110175  C 131.2830807745099 5.492774985714751  131.08419084267445 6.18099602817095  130.68640705795013 6.783346978944408  C 130.28785385247883 7.385505989854694  129.7446490650439 7.855621289937964  129.05679854283028 8.193651896326436  C 128.3689480206166 8.531528937094768  127.58800061479744 8.700447824145288  126.71395343617544 8.700447824145288  C 125.84375329249791 8.700447824145288  125.06357400040788 8.531528937094768  124.37341528474374 8.193651896326436  C 123.68402598982658 7.855621289937964  123.14005301987207 7.385505989854694  122.74149981440077 6.783346978944408  C 122.34294660892947 6.18099602817095  122.14366381505685 5.492774985714751  122.14366381505685 4.7186254321110175  C 122.14366381505685 3.940252858277407  122.34294660892947 3.253048492993444  122.74149981440077 2.657032038240791  C 123.14005301987207 2.0610155834881385  123.68402598982658 1.5940015949923192  124.37341528474374 1.2559709886038473  Z M 127.96384768777894 2.8182549330951554  C 127.60145663830164 2.6426172240853565  127.18483095363472 2.5548222762533284  126.71395343617544 2.5548222762533284  C 126.24692295366062 2.5548222762533284  125.8302796586485 2.6426172240853565  125.46404157422674 2.8182549330951554  C 125.09780348980499 2.9938926421049543  124.81120475209553 3.2442096485647816  124.604234079471 3.5691873831852994  C 124.39726340684645 3.8939731779426454  124.2937813036835 4.277131756838829  124.2937813036835 4.7186254321110175  C 124.2937813036835 5.164342093289073  124.39726340684645 5.549569139991823  124.604234079471 5.874354934749168  C 124.81120475209553 6.199140729506515  125.09780348980499 6.448316685744355  125.46404157422674 6.62184290180122  C 125.8302796586485 6.795369117858087  126.24692295366062 6.8821122578937795  126.71395343617544 6.8821122578937795  C 127.18483095363472 6.8821122578937795  127.60145663830164 6.795369117858087  127.96384768777894 6.62184290180122  C 128.32623873725623 6.448316685744355  128.6128550853109 6.199140729506515  128.8236727928799 5.874354934749168  C 129.0344905004489 5.549569139991823  129.13990176189776 5.164342093289073  129.13990176189776 4.7186254321110175  C 129.13990176189776 4.277131756838829  129.0344905004489 3.8939731779426454  128.8236727928799 3.5691873831852994  C 128.6128550853109 3.2442096485647816  128.32623873725623 2.9938926421049543  127.96384768777894 2.8182549330951554  Z M 139.51535363127044 9.937649894970145  L 139.51535363127044 8.18096354554326  C 139.51535363127044 8.18096354554326  140.78372113500401 8.18096354554326  140.78372113500401 8.18096354554326  C 141.8585837578556 8.18096354554326  142.78265167746093 8.17176494902194  143.55590645798983 8.153337385666319  C 144.32916123851874 8.134909822310698  145.03585111542975 8.094978940382603  145.67599830802564 8.033553730627368  C 146.31614550062156 7.972128520872132  146.95822357126363 7.884030740882056  147.6022178675944 7.769242379132966  C 147.6022178675944 7.769242379132966  147.82495351386814 9.51991845713624  147.82495351386814 9.51991845713624  C 147.32022203386538 9.605836971415902  146.82356895577774 9.67853994815435  146.33499503629977 9.738045617691329  C 145.84719053756874 9.797397725898666  145.3313163180027 9.839374904468205  144.78734506780847 9.863944987512198  C 144.2433738176142 9.888515070556194  143.6463111600707 9.906947413530187  142.996161635345 9.919232455052184  C 142.34601211061928 9.931517496574182  141.60852621130473 9.937649894970145  140.78372113500401 9.937649894970145  C 140.78372113500401 9.937649894970145  139.51535363127044 9.937649894970145  139.51535363127044 9.937649894970145  Z M 139.4842009305859 2.7454287202897834  L 139.4842009305859 0.995104120147538  L 146.90974387306738 0.995104120147538  L 146.90974387306738 6.191106783109214  L 141.68970295491232 6.191106783109214  L 141.68970295491232 9.322036421376469  L 139.51535363127044 9.322036421376469  L 139.51535363127044 4.551603152549662  L 144.73541215977073 4.551603152549662  L 144.73541215977073 2.7454287202897834  L 139.4842009305859 2.7454287202897834  Z M 150 10.469400750922112  L 150 0.03082460841231248  L 153 0.03082460841231248  L 153 10.469400750922112  L 150 10.469400750922112  Z M 147.9242054194974 4.169827899899105  L 147.9242054194974 2.413141550472221  L 151.22612753688244 2.413141550472221  L 151.22612753688244 4.169827899899105  L 147.9242054194974 4.169827899899105  Z M 147.9242054194974 7.746501761524339  L 147.9242054194974 5.995860831307167  L 151.22612753688244 5.995860831307167  L 151.22612753688244 7.746501761524339  L 147.9242054194974 7.746501761524339  Z M 141.43579699760878 13.023449775881176  L 141.43579699760878 11  L 153 11  L 153 16.987557683719544  L 150.79449797567355 16.987557683719544  L 150.79449797567355 13.023449775881176  L 141.43579699760878 13.023449775881176  Z " fill-rule="nonzero" fill="#26262c" stroke="none" transform="matrix(1 0 0 1 54 360 )" />
  </g>
</svg>