<?xml version="1.0" encoding="utf-8"?>
<svg version="1.1" xmlns:xlink="http://www.w3.org/1999/xlink" width="439px" height="3px" xmlns="http://www.w3.org/2000/svg">
  <g transform="matrix(1 0 0 1 -369 -668 )">
    <path d="M 0 0  C 0 0  438.2174688057041 0  438.2174688057041 0  C 438.3218063037185 0  438.4219962753847 0.03804625757038593  438.51798676679476 0.114166259765625  C 438.6139772582049 0.19028626196086407  438.6984707596786 0.29870957136154175  438.7715070047906 0.439361572265625  C 438.8445432499024 0.5800135731697083  438.9008404076657 0.7421915531158447  438.9404886555119 0.92596435546875  C 438.98013690335813 1.109735157340765  439 1.3010876029729843  439 1.5  C 439 1.6989123970270157  438.98013690335813 1.890264842659235  438.9404886555119 2.07403564453125  C 438.9008404076657 2.2578084468841553  438.8445432499024 2.4199864268302917  438.7715070047906 2.560638427734375  C 438.6984707596786 2.7012904286384583  438.6139772582049 2.809713738039136  438.51798676679476 2.885833740234375  C 438.4219962753847 2.961953742429614  438.3218063037185 3  438.2174688057041 3  C 438.2174688057041 3  0 3  0 3  C 0 3  0 0  0 0  Z " fill-rule="nonzero" fill="#b8b8c1" stroke="none" transform="matrix(1 0 0 1 369 668 )" />
  </g>
</svg>