<?xml version="1.0" encoding="utf-8"?>
<svg version="1.1" xmlns:xlink="http://www.w3.org/1999/xlink" width="420px" height="80px" xmlns="http://www.w3.org/2000/svg">
  <g transform="matrix(1 0 0 1 -181 -333 )">
    <path d="M 7.643383212893852 4.647172381602279  C 7.643383212893852 4.647172381602279  7.643383212893852 1.579853932384748  7.643383212893852 1.579853932384748  L 9.978945883296433 1.579853932384748  C 9.978945883296433 1.579853932384748  9.978945883296433 4.647172381602279  9.978945883296433 4.647172381602279  C 9.978945883296433 6.568404150103627  9.630494668615325 8.359594490659587  8.93358893978191 10.020700099695333  C 8.236660469977743 11.681827905529158  7.252487143809877 13.127172412519247  5.98108322514613 14.356736791636752  C 4.710020014954895 15.585946517449221  3.217364521827 16.5238575545851  1.5031131924857644 17.170504387355688  C 1.5031131924857644 17.170504387355688  0 14.968734224418508  0 14.968734224418508  C 1.5524417082785178 14.410754186157568  2.9017352791663003 13.614316621628307  4.04789279380406 12.579420143530838  C 5.1940503084418195 11.544169012128332  6.0797412211924495 10.344382430378158  6.704973806114506 8.980088837927859  C 7.330569738957634 7.615440592172521  7.643383212893852 6.171132695471346  7.643383212893852 4.647172381602279  Z M 8.157017275712148 4.854503159555658  C 8.157017275712148 4.854503159555658  8.157017275712148 1.579853932384748  8.157017275712148 1.579853932384748  L 10.445226747589457 1.579853932384748  C 10.445226747589457 1.579853932384748  10.445226747589457 4.854503159555658  10.445226747589457 4.854503159555658  C 10.445226747589457 5.867920073610923  10.627982249405719 6.852059510091299  10.993479065312068 7.806956349679478  C 11.359316538929836 8.761520732760697  11.873828286468628 9.64958816615762  12.537032201214585 10.471130210222704  C 13.200599463881614 11.292339748234404  13.990319419172403 12.019182026983062  14.906173539287115 12.651642182541394  C 15.82202765940183 13.283725487996605  16.834750294665742 13.788173364642976  17.94436723171533 14.165007191762577  C 17.94436723171533 14.165007191762577  16.446555934124824 16.333545577002596  16.446555934124824 16.333545577002596  C 14.804318355645268 15.731232141486831  13.359568544805281 14.861352060877573  12.112282846934393 13.723912420313496  C 10.865360496984579 12.586494976547497  9.894337847809226 11.256681434407827  9.199203478161861 9.734450191653497  C 8.504409766225914 8.211886393299357  8.157017275712148 6.585234277690822  8.157017275712148 4.854503159555658  Z M 22 18.26152140659207  L 22 0.025951227926869797  L 24 0.025951227926869797  L 24 18.26152140659207  L 22 18.26152140659207  Z M 23.280360588257864 10.110070750708395  L 23.280360588257864 7.789833105446206  L 28.59826512692246 7.789833105446206  L 28.59826512692246 10.110070750708395  L 23.280360588257864 10.110070750708395  Z M 8.829786154430684 19.722958592190277  C 10.349230105015328 19.29174986832542  12.152578222751366 19.07613121224959  14.239798122059916 19.07613121224959  C 16.34934214200452 19.07613121224959  18.155843640510735 19.29174986832542  19.65932231288358 19.722958592190277  C 21.16316443469969 20.15383481000175  22.321913543624916 20.778662586630933  23.135572076191846 21.597433796464237  C 23.94959395667984 22.415872500244163  24.35661926231385 23.404571347326616  24.35661926231385 24.56353484643621  C 24.35661926231385 25.71398626985345  23.94959395667984 26.697298925151763  23.135572076191846 27.513476627405815  C 22.321913543624916 28.32943265895761  21.16316443469969 28.95297906596191  19.65932231288358 29.384121298525372  C 18.155843640510735 29.815263531088835  16.34934214200452 30.03082183961989  14.239798122059916 30.03082183961989  C 12.152578222751366 30.03082183961989  10.349230105015328 29.815263531088835  8.829786154430684 29.384121298525372  C 7.310682912318551 28.95297906596191  6.144144868627578 28.32943265895761  5.3301456783492345 27.513476627405815  C 4.516123797861235 26.697298925151763  4.109098492227229 25.71398626985345  4.109098492227229 24.56353484643621  C 4.109098492227229 23.404571347326616  4.516123797861235 22.415872500244163  5.3301456783492345 21.597433796464237  C 6.144144868627578 20.778662586630933  7.310682912318551 20.15383481000175  8.829786154430684 19.722958592190277  Z M 18.174323927956603 21.660827851781196  C 17.07712944922452 21.401743529752274  15.765623554517378 21.272193627109015  14.239798122059916 21.272193627109015  C 12.722466239133839 21.272193627109015  11.416446197531785 21.401743529752274  10.321749773827896 21.660827851781196  C 9.227053350124008 21.91989002655847  8.38181481725851 22.293780003332692  7.786014581448566 22.782489136252828  C 7.190237035848278 23.27084361586792  6.892333415427722 23.864530275719112  6.892333415427722 24.56353484643621  C 6.892333415427722 25.25402739100738  7.190237035848278 25.8457586516777  7.786014581448566 26.338745969695662  C 8.38181481725851 26.831511617011373  9.227053350124008 27.20746832378184  10.321749773827896 27.466596989860502  C 11.416446197531785 27.725282314534653  12.722466239133839 27.85462238807106  14.239798122059916 27.85462238807106  C 15.765623554517378 27.85462238807106  17.07712944922452 27.725282314534653  18.174323927956603 27.466596989860502  C 19.271495665717943 27.20746832378184  20.114427918973767 26.831511617011373  20.703119875546555 26.338745969695662  C 21.292152489830766 25.8457586516777  21.586665066032353 25.25402739100738  21.586665066032353 24.56353484643621  C 21.586665066032353 23.864530275719112  21.292152489830766 23.27084361586792  20.703119875546555 22.782489136252828  C 20.114427918973767 22.293780003332692  19.271495665717943 21.91989002655847  18.174323927956603 21.660827851781196  Z M 55 30.086022105474115  L 55 0.01296293007881766  L 58 0.01296293007881766  L 58 30.086022105474115  L 55 30.086022105474115  Z M 49.710644506957195 14.35620406848283  L 49.710644506957195 12.074931316764799  L 55.64174957581128 12.074931316764799  L 55.64174957581128 14.35620406848283  L 49.710644506957195 14.35620406848283  Z M 48 28.547872785710844  L 48 0.6810738684072338  L 51 0.6810738684072338  L 51 28.547872785710844  L 48 28.547872785710844  Z M 32.597323310392284 22.685330580084777  L 32.597323310392284 20.365118302591828  C 32.597323310392284 20.365118302591828  34.601725467288276 20.365118302591828  34.601725467288276 20.365118302591828  C 36.11512854295042 20.365118302591828  37.48886672847466 20.34518538902009  38.72293515079584 20.3053518382754  C 39.9574577833989 20.26518578767062  41.14087648013553 20.17964478107298  42.27320352519081 20.048706116930198  C 43.40598478052797 19.917434946734026  44.559766205610245 19.73177770707393  45.73456120136681 19.491756743387256  C 45.73456120136681 19.491756743387256  46.019018258369606 21.78601779295334  46.019018258369606 21.78601779295334  C 44.79176288875457 22.035393121545226  43.599913687767085 22.227619449096082  42.443513903860456 22.362703290960702  C 41.287568330235715 22.497787132825323  40.08006978809438 22.585423432932814  38.821020206358064 22.625589483537585  C 37.56197062462176 22.66542303428228  36.15555254738321 22.685330580084777  34.601725467288276 22.685330580084777  C 34.601725467288276 22.685330580084777  32.597323310392284 22.685330580084777  32.597323310392284 22.685330580084777  Z M 33 21.41821050682266  L 33 4  L 44.03777290711907 4  L 44.03777290711907 5.94031978609897  L 36 5.94031978609897  L 36 21.41821050682266  L 33 21.41821050682266  Z M 71.50964526560836 19.54736289354923  C 73.02918007855382 19.102654651830537  74.83464889333463 18.880292033759428  76.92602470504805 18.880292033759428  C 79.01762772342462 18.880292033759428  80.81864671905805 19.102654651830537  82.32909742788792 19.54736289354923  C 83.83977524185873 19.99209328251958  85.0019611307499 20.62851710247437  85.81566509449725 21.456642677212898  C 86.62959616338553 22.284435745898033  87.0365563425341 23.286260035330958  87.0365563425341 24.46211450503677  C 87.0365563425341 25.63384601859204  86.62959616338553 26.638099519661292  85.81566509449725 27.474892250400174  C 85.0019611307499 28.311684981139067  83.83977524185873 28.952420330935237  82.32909742788792 29.397084228604193  C 80.81864671905805 29.841969796975402  79.01762772342462 30.064408766086338  76.92602470504805 30.064408766086338  C 74.83464889333463 30.064408766086338  73.02918007855382 29.841969796975402  71.50964526560836 29.397084228604193  C 69.99056466294478 28.952420330935237  68.82406580681948 28.31146876054348  68.0101347379312 27.47423268840008  C 67.19597661466307 26.63721828695894  66.78890562404317 25.632856675591892  66.78890562404317 24.461125162036627  C 66.78890562404317 23.28903899517632  67.19597661466307 22.28821950722791  68.0101347379312 21.45869746652089  C 68.82406580681948 20.629197573065518  69.99056466294478 19.99209328251958  71.50964526560836 19.54736289354923  Z M 80.854416946262 21.494567492218437  C 79.75706348377904 21.233066989262777  78.44760336273984 21.102331044314955  76.92602470504805 21.102331044314955  C 75.40444604735629 21.102331044314955  74.09634104452063 21.233066989262777  73.001712843729 21.494567492218437  C 71.90708464293736 21.756045823149233  71.06181347068751 22.137919785052553  70.4658996823071 22.640150583078178  C 69.87021299906762 23.142004580547106  69.5723744543714 23.747999513573028  69.5723744543714 24.458131765266955  C 69.5723744543714 25.187194367927148  69.87021299906762 25.804858524347352  70.4658996823071 26.31114583676855  C 71.06181347068751 26.817433149189753  71.90708464293736 27.20345657458061  73.001712843729 27.46923523786089  C 74.09634104452063 27.734792255212124  75.40444604735629 27.867585318149878  76.92602470504805 27.867585318149878  C 78.44760336273984 27.867585318149878  79.75706348377904 27.734792255212124  80.854416946262 27.46923523786089  C 81.95154330360403 27.20345657458061  82.79443636929417 26.817433149189753  83.38308294544765 26.31114583676855  C 83.97218373188304 25.804858524347352  84.26673209465689 25.187194367927148  84.26673209465689 24.458131765266955  C 84.26673209465689 23.747999513573028  83.97218373188304 23.142004580547106  83.38308294544765 22.640150583078178  C 82.79443636929417 22.137919785052553  81.95154330360403 21.756045823149233  80.854416946262 21.494567492218437  Z M 84 18.07917788133465  L 84 0.025951227926869797  L 87 0.025951227926869797  L 87 18.07917788133465  L 84 18.07917788133465  Z M 85.96045360656326 9.890817121214813  L 85.96045360656326 7.570604843721858  L 91.27835814522786 7.570604843721858  L 91.27835814522786 9.890817121214813  L 85.96045360656326 9.890817121214813  Z M 64 16  L 64 1.9066415356632784  L 66.88803026683976 1.9066415356632784  L 66.88803026683976 6.426594554554656  L 75.58417748229297 6.426594554554656  L 75.58417748229297 1.9066415356632784  L 79 1.9066415356632784  L 79 16  L 64 16  Z M 75.58417748229297 8.609668671566029  L 66.88803026683976 8.609668671566029  L 66.88803026683976 13.553517114365514  L 75.58417748229297 13.553517114365514  L 75.58417748229297 8.609668671566029  Z M 99.89788778150846 3.0906821646824847  C 101.14535520410098 2.4956394191985813  102.56767013359469 2.198117204167417  104.16487358495469 2.198117204167417  C 105.76253124659658 2.198117204167417  107.1815820346099 2.4956394191985813  108.42200929935534 3.0906821646824847  C 109.66266366924172 3.685370256861347  110.63660178193297 4.514875699516237  111.34379521121566 5.579209591046192  C 112.05098864049835 6.643210926976339  112.40456403547962 7.879175118626031  112.40456403547962 9.287114948972732  C 112.40456403547962 10.672888006372382  112.05098864049835 11.903494544978324  111.34379521121566 12.97891177343538  C 110.63660178193297 14.053996446292627  109.66266366924172 14.889063078702236  108.42200929935534 15.484105824186138  C 107.1815820346099 16.078793916365  105.76253124659658 16.37613806154728  104.16487358495469 16.37613806154728  C 102.56767013359469 16.37613806154728  101.14535520410098 16.078793916365  99.89788778150846 15.484105824186138  C 98.65042035891595 14.889063078702236  97.67081411002592 14.053996446292627  96.95907862868543 12.97891177343538  C 96.24757025248589 11.903494544978324  95.89181238420669 10.672888006372382  95.89181238420669 9.287114948972732  C 95.89181238420669 7.879175118626031  96.24757025248589 6.643210926976339  96.95907862868543 5.579209591046192  C 97.67081411002592 4.514875699516237  98.65042035891595 3.685370256861347  99.89788778150846 3.0906821646824847  Z M 106.9824148868892 5.184892986065485  C 106.16485023726798 4.792121312913653  105.22566372887876 4.595751913363994  104.16487358495469 4.595751913363994  C 103.10453765131254 4.595751913363994  102.15993051782583 4.792121312913653  101.33101076344069 5.184892986065485  C 100.50209100905555 5.577309981139064  99.84904845039235 6.125591901403091  99.3719086202821 6.829739143228962  C 98.8945416850309 7.533531731749793  98.65586692293317 8.352655712124017  98.65586692293317 9.287114948972732  C 98.65586692293317 10.20807466796761  98.8945416850309 11.026190675886161  99.3719086202821 11.74142125463913  C 99.84904845039235 12.456297180087061  100.50209100905555 13.010108431754992  101.33101076344069 13.402857932881956  C 102.15993051782583 13.795274927955536  103.10453765131254 13.99146628242952  104.16487358495469 13.99146628242952  C 105.22566372887876 13.99146628242952  106.16485023726798 13.795274927955536  106.9824148868892 13.402857932881956  C 107.79997953651039 13.010108431754992  108.44732796929397 12.456297180087061  108.92446779940421 11.74142125463913  C 109.40183473465541 11.026190675886161  109.640535486434 10.20807466796761  109.640535486434 9.287114948972732  C 109.640535486434 8.352655712124017  109.40183473465541 7.533531731749793  108.92446779940421 6.829739143228962  C 108.44732796929397 6.125591901403091  107.79997953651039 5.577309981139064  106.9824148868892 5.184892986065485  Z M 117 30.124936263479796  L 117 0  L 120 0  L 120 30.124936263479796  L 117 30.124936263479796  Z M 100.79515552348786 23.483324496893715  C 98.59181880621041 23.525241716318458  96.56799586029247 23.546211196825983  94.72370617799466 23.546211196825983  C 94.72370617799466 23.546211196825983  94.3387730147906 21.22442611764049  94.3387730147906 21.22442611764049  C 96.21985312078829 21.22442611764049  98.28705365623757 21.207803125073326  100.5403526923453 21.174553083325513  C 102.79342472483425 21.141303041577693  105.1147277913536 21.052630171437762  107.50428767853982 20.90854665513279  C 109.89384756572606 20.764463138827814  112.20414664197854 20.523757307304837  114.43518978036245 20.18640236833494  C 114.43518978036245 20.18640236833494  114.66410688936935 22.217777225324138  114.66410688936935 22.217777225324138  C 112.36039132414949 22.647589433674064  110.02388185779498 22.955493073826077  107.65453402358625 23.141493806459145  C 105.28518618937751 23.327494539092207  102.99871944742844 23.44142944330054  100.79515552348786 23.483324496893715  Z M 157 15.358383159860072  L 157 0.01296293007881766  L 160 0.01296293007881766  L 160 15.358383159860072  L 157 15.358383159860072  Z M 147.13335305248802 2.8470247411853347  C 147.13335305248802 2.8470247411853347  147.13335305248802 1.4972818435265258  147.13335305248802 1.4972818435265258  C 147.13335305248802 1.4972818435265258  150.19922575503116 1.4972818435265258  150.19922575503116 1.4972818435265258  C 150.19922575503116 4.01007631576277  149.62704871781148 6.232100264205317  148.48268530333053 8.163373507423877  C 147.33877609913145 10.094292196430247  145.6994361670233 11.71506196236184  143.5646839840448 13.025689939903755  C 141.42993180106632 14.335941067342548  138.8615233159151 15.343828897726032  135.85947132038717 16.04935045826875  C 135.85947132038717 16.04935045826875  134.8640925331647 13.788346554169067  134.8640925331647 13.788346554169067  C 137.52617391946356 13.187429634168229  139.76721739973553 12.36085263292077  141.58720713651883 11.30862174372972  C 143.40719687330215 10.256058398031715  144.78649258659823 9.012819304904097  145.72510219513796 7.578900104261531  C 146.6639389088186 6.145003100417046  147.13335305248802 4.567714384603287  147.13335305248802 2.8470247411853347  Z M 136.4528937034429 4  L 136.4528937034429 2  L 148.40500214724267 2  L 148.40500214724267 4  L 136.4528937034429 4  Z M 149.09177946394428 6.539303553263437  L 149.09177946394428 4.361962552099056  L 157.32362103084975 4.361962552099056  L 157.32362103084975 6.539303553263437  L 149.09177946394428 6.539303553263437  Z M 148.8175363515191 12.279091123563868  L 148.8175363515191 10.114763788016774  L 157.1662535132479 10.114763788016774  L 157.1662535132479 12.279091123563868  L 148.8175363515191 12.279091123563868  Z M 139.87440919886188 19  L 139.87440919886188 17  L 159.70136495328666 17  L 159.70136495328666 25  L 142.74645086155792 25  L 142.74645086155792 28.907308707994144  L 139.95003917016186 28.907308707994144  L 139.95003917016186 22  L 156.8841875068842 22  L 156.8841875068842 19  L 139.87440919886188 19  Z M 139.95003917016186 30  L 139.95003917016186 28  L 160.7127793735992 28  L 160.7127793735992 30  L 139.95003917016186 30  Z M 190 30.086022105474115  L 190 0.01296293007881766  L 192 0.01296293007881766  L 192 30.086022105474115  L 190 30.086022105474115  Z M 177.90071694391057 13.086978470374252  L 177.90071694391057 10.813011636195748  L 183.8185152961648 10.813011636195748  L 183.8185152961648 13.086978470374252  L 177.90071694391057 13.086978470374252  Z M 183 28.54553895094127  L 183 0.7163858031816256  L 186 0.7163858031816256  L 186 28.54553895094127  L 183 28.54553895094127  Z M 172.0030086149604 8.513042838551906  C 172.0030086149604 8.513042838551906  172.0030086149604 4.6856299197617455  172.0030086149604 4.6856299197617455  L 174.17909860361158 4.6856299197617455  C 174.17909860361158 4.6856299197617455  174.17909860361158 8.513042838551906  174.17909860361158 8.513042838551906  C 174.17909860361158 10.151294564828603  174.0204360689432 11.75473239698783  173.70317556771982 13.32338071187034  C 173.3863692513978 14.892006929047618  172.92386772832322 16.359678541213746  172.31569046537618 17.72638831459078  C 171.70774030757008 19.092765532368006  170.96094505131725 20.323197172096215  170.07525002691787 21.417677783668736  C 169.18955500251852 22.512158395241258  168.18520429320134 23.404368851090563  167.0621883558804 24.09430721890609  C 167.0621883558804 24.09430721890609  165.32212724300229 22.036955766220785  165.32212724300229 22.036955766220785  C 166.75422799799478 21.179392877142625  167.96410459593474 20.04405370768973  168.9517681027409 18.63092686218452  C 169.93965871468805 17.21780001667931  170.69513193553198 15.635303278023141  171.2181462426966 13.883424953259883  C 171.74138765500214 12.13156882529471  172.0030086149604 10.341440462796898  172.0030086149604 8.513042838551906  Z M 172.5780303039679 8.513042838551906  C 172.5780303039679 8.513042838551906  172.5780303039679 4.6856299197617455  172.5780303039679 4.6856299197617455  L 174.74047571016803 4.6856299197617455  C 174.74047571016803 4.6856299197617455  174.74047571016803 8.513042838551906  174.74047571016803 8.513042838551906  C 174.74047571016803 10.251731905170205  174.99300160161408 11.95354356819237  175.49807490721065 13.618483971375008  C 176.00292110766628 15.28340217775957  176.74009343077557 16.786214987721998  177.70958883087278 18.12694539080317  C 178.67908423096998 19.467343238284528  179.868529386478 20.537936081862426  181.2779200334648 21.338707918041813  C 181.2779200334648 21.338707918041813  179.56447235378639 23.370082775031015  179.56447235378639 23.370082775031015  C 178.07037291053794 22.472331592100222  176.80382144803053 21.26165807544882  175.76483299154842 19.73805241488479  C 174.7260716402072 18.214092101015726  173.93526702182933 16.48542558238056  173.3924949227302 14.552068614742225  C 172.84949571849015 12.618711647103888  172.5780303039679 10.605711775211123  172.5780303039679 8.513042838551906  Z M 166.16523249007133 6  L 166.16523249007133 4  L 180.23417445016355 4  L 180.23417445016355 6  L 166.16523249007133 6  Z M 200.36396196595848 6  L 200.36396196595848 3  L 219.9088777037003 3  L 219.9088777037003 6  L 200.36396196595848 6  Z M 197.03000570535374 26  L 197.03000570535374 24  L 224.87082757331876 24  L 224.87082757331876 26  L 197.03000570535374 26  Z M 218.74693105185187 5.811958873772517  C 218.74693105185187 5.811958873772517  218.74693105185187 2.941545049352995  218.74693105185187 2.941545049352995  L 221.51675529972908 2.941545049352995  C 221.51675529972908 2.941545049352995  221.51675529972908 5.811958873772517  221.51675529972908 5.811958873772517  C 221.51675529972908 7.026294763014301  221.49972478089433 8.317685845862897  221.46565958716013 9.686124591261818  C 221.43159439342588 11.05423088015378  221.3274503221947 12.555857548718802  221.15326362323378 14.190983787458682  C 220.97907692427287 15.826132222996643  220.67941417809027 17.6765428280877  220.25428056231772 19.742212729039245  C 220.25428056231772 19.742212729039245  217.43538779697852 19.42060015068455  217.43538779697852 19.42060015068455  C 218.08762269585233 16.508783154088903  218.46928466178375 13.956140474656332  218.58033719754508 11.762679445257621  C 218.6913897333064 9.568863861646724  218.74693105185187 7.585294565779894  218.74693105185187 5.811958873772517  Z M 199.50858958952392 10.934573986367361  L 219.3760892460889 10.152155879868392  L 219.3760892460889 12.261435156176672  L 199.94022620923178 13.32700830287087  L 199.50858958952392 10.934573986367361  Z M 207.86037353359413 24.552880383357728  L 207.86037353359413 15.942856563022419  L 210.6779148355286 15.942856563022419  L 210.6779148355286 24.552880383357728  L 207.86037353359413 24.552880383357728  Z M 231.91787755890067 17  L 231.91787755890067 15  L 253.07337381948062 15  L 253.07337381948062 17  L 231.91787755890067 17  Z M 228.38328096206374 26  L 228.38328096206374 24  L 256.3072178294161 24  L 256.3072178294161 26  L 228.38328096206374 26  Z M 232 15.434232789871157  L 232 3  L 252.76477234895972 3  L 252.76477234895972 5  L 234 5  L 234 15.434232789871157  L 232 15.434232789871157  Z M 259.70245775748657 16  L 259.70245775748657 14  L 287.62639462483895 14  L 287.62639462483895 16  L 259.70245775748657 16  Z M 263.0231592808532 21  L 263.0231592808532 19  L 284.142529885039 19  L 284.142529885039 25  L 265.88940524471764 25  L 265.88940524471764 28.453124167620075  L 263.0987892521531 28.453124167620075  L 263.0987892521531 23  L 281.36522060907436 23  L 281.36522060907436 21  L 263.0231592808532 21  Z M 263.0987892521531 30  L 263.0987892521531 28  L 285.12634326427917 28  L 285.12634326427917 30  L 263.0987892521531 30  Z M 263.23944540496257 3  L 263.23944540496257 1  L 284.0328534318136 1  L 284.0328534318136 8  L 266.0924366315889 8  L 266.0924366315889 10.408776233444359  L 263.31476350009217 10.408776233444359  L 263.31476350009217 6  L 281.25554415584895 6  L 281.25554415584895 3  L 263.23944540496257 3  Z M 263.31476350009217 12  L 263.31476350009217 10  L 284.59116375602866 10  L 284.59116375602866 12  L 263.31476350009217 12  Z M 322 16.15536236589963  L 322 0.025951227926869797  L 325 0.025951227926869797  L 325 16.15536236589963  L 322 16.15536236589963  Z M 305 30  L 305 17.661979548504444  L 308.1033522975497 17.661979548504444  L 308.1033522975497 22  L 322.36643717365934 22  L 322.36643717365934 17.661979548504444  L 325 17.661979548504444  L 325 30  L 305 30  Z M 322.36643717365934 24  L 308.1033522975497 24  L 308.1033522975497 28  L 322.36643717365934 28  L 322.36643717365934 24  Z M 304.49546480069006 2.326427380955401  C 305.71068380087945 1.7445516472719502  307.0894256091022 1.4536239126739912  308.6316705300534 1.4536239126739912  C 310.18776866155775 1.4536239126739912  311.56993724981066 1.7445516472719502  312.7781161936751 2.326427380955401  C 313.98629513753957 2.9083031146388514  314.9370394397468 3.718435261294365  315.6303797092374 4.756811880233688  C 316.32394708386886 5.795188499173011  316.67074663402695 7.001013204558081  316.67074663402695 8.374306508608552  C 316.67074663402695 9.733745542407299  316.32394708386886 10.938206135638925  315.6303797092374 11.987666190598196  C 314.9370394397468 13.037104048759389  313.98629513753957 13.852765477272381  312.7781161936751 14.434641210955832  C 311.56993724981066 15.016539141437363  310.18776866155775 15.307470047006477  308.6316705300534 15.307470047006477  C 307.0894256091022 15.307470047006477  305.71068380087945 15.016539141437363  304.49546480069006 14.434641210955832  C 303.28047290564166 13.852765477272381  302.3263016203599 13.037104048759389  301.6329613508694 11.987666190598196  C 300.9396210813788 10.938206135638925  300.5929582816118 9.733745542407299  300.5929582816118 8.374306508608552  C 300.5929582816118 7.001013204558081  300.9396210813788 5.795188499173011  301.6329613508694 4.756811880233688  C 302.3263016203599 3.718435261294365  303.28047290564166 2.9083031146388514  304.49546480069006 2.326427380955401  Z M 311.36167858685445 4.3359859564029515  C 310.56932215102825 3.9477141390512074  309.6593039325326 3.753592710317833  308.6316705300534 3.753592710317833  C 307.6178903381273 3.753592710317833  306.71254335867735 3.9477141390512074  305.9156449215545 4.3359859564029515  C 305.1189735895725 4.723903120449656  304.49332694639503 5.26682736289672  304.03867016991063 5.964723580102537  C 303.58424049856717 6.662641994106433  303.3570128203383 7.465826642055703  303.3570128203383 8.374306508608552  C 303.3570128203383 9.277599360002892  303.58424049856717 10.078205314753767  304.03867016991063 10.776101531959583  C 304.49332694639503 11.47401994596348  305.1189735895725 12.018311471535144  305.9156449215545 12.408999469813622  C 306.71254335867735 12.799687468092102  307.6178903381273 12.995045674668507  308.6316705300534 12.995045674668507  C 309.6593039325326 12.995045674668507  310.56932215102825 12.799687468092102  311.36167858685445 12.408999469813622  C 312.15448923296253 12.018311471535144  312.78027257576997 11.47401994596348  313.2390171940303 10.776101531959583  C 313.69776181229065 10.078205314753767  313.9271199844557 9.277599360002892  313.9271199844557 8.374306508608552  C 313.9271199844557 7.465826642055703  313.69776181229065 6.662641994106433  313.2390171940303 5.964723580102537  C 312.78027257576997 5.26682736289672  312.15448923296253 4.723903120449656  311.36167858685445 4.3359859564029515  Z M 332.5423848378677 17.176719490818137  L 332.5423848378677 14.928729252335737  C 332.5423848378677 14.928729252335737  334.73107982173553 14.928729252335737  334.73107982173553 14.928729252335737  C 336.7581859953058 14.928729252335737  338.4933242971493 14.912106259768574  339.9365530010037 14.878856218020754  C 341.3786462806756 14.845606176272938  342.6947385418768 14.773556304893473  343.88474937903226 14.662722824143014  C 345.0747602161877 14.551889343392553  346.27722914594966 14.389977339051017  347.4922210409981 14.176955411072017  C 347.4922210409981 14.176955411072017  347.78860736151523 16.432251567093946  347.78860736151523 16.432251567093946  C 346.83705296298604 16.587418432712624  345.9093395281465 16.717143184687192  345.00547639703814 16.82139314715082  C 344.1016132659298 16.925288443922803  343.15117520541133 16.999408253429486  342.15420048934857 17.043741644491007  C 341.15722577328586 17.08807503555253  340.05600187879867 17.12132101759021  338.85054819662554 17.14348771312097  C 337.6444131990296 17.165654408651733  336.2712807964182 17.176719490818137  334.73107982173553 17.176719490818137  C 334.73107982173553 17.176719490818137  332.5423848378677 17.176719490818137  332.5423848378677 17.176719490818137  Z M 332.4667548665678 4  L 332.4667548665678 2  L 345.7378656036475 2  L 345.7378656036475 11  L 335.3330008304322 11  L 335.3330008304322 16.28004495168708  L 332.5423848378677 16.28004495168708  L 332.5423848378677 9  L 342.94454668427363 9  L 342.94454668427363 4  L 332.4667548665678 4  Z M 353 18.52750246701556  L 353 0.046220075545216774  L 356 0.046220075545216774  L 356 18.52750246701556  L 353 18.52750246701556  Z M 347.77836742725674 6.741941293908438  L 347.77836742725674 4.493925687656804  L 354.41426066164775 4.493925687656804  L 354.41426066164775 6.741941293908438  L 347.77836742725674 6.741941293908438  Z M 347.77836742725674 12.97165659143432  L 347.77836742725674 10.716335067643158  L 354.41426066164775 10.716335067643158  L 354.41426066164775 12.97165659143432  L 347.77836742725674 12.97165659143432  Z M 335.97208708275735 23  L 335.97208708275735 21  L 356.5910523716821 21  L 356.5910523716821 30.139548098558855  L 353.7533950567627 30.139548098558855  L 353.7533950567627 23  L 335.97208708275735 23  Z M 383 30.09898503555293  L 383 0.025951227926869797  L 386 0.025951227926869797  L 386 30.09898503555293  L 383 30.09898503555293  Z M 385.61799129469455 14.690246853762421  L 385.61799129469455 12.377315126039761  L 391.30687253794184 12.377315126039761  L 391.30687253794184 14.690246853762421  L 385.61799129469455 14.690246853762421  Z M 362.42298081837794 7  L 362.42298081837794 5  L 380.5865450184589 5  L 380.5865450184589 7  L 362.42298081837794 7  Z M 367.7848598970561 10.45190144114297  C 368.91582431126574 9.858609864479034  370.20460547877167 9.56197472862829  371.6512407597403 9.56197472862829  C 373.0978760407088 9.56197472862829  374.38554949959035 9.858609864479034  375.5142429639127 10.45190144114297  C 376.6406653768256 11.044860511753523  377.5252486317129 11.855851099756215  378.1679453177115 12.884873452883173  C 378.8129130043584 13.913895806010132  379.1353851980104 15.107974936961092  379.1353851980104 16.467081514252882  C 379.1353851980104 17.826520548051626  378.8129130043584 19.026281762032568  378.1679453177115 20.066387452086623  C 377.5252486317129 21.106470945342608  376.6406653768256 21.91970633319043  375.5142429639127 22.506081922673964  C 374.38782055099983 23.092479659409157  373.09787979702986 23.385683953110217  371.64443146335515 23.385683953110217  C 370.2023381836833 23.385683953110217  368.91582431126574 23.092479659409157  367.7848598970561 22.506081922673964  C 366.6538954828465 21.91970633319043  365.76251039345516 21.106470945342608  365.1107296541021 20.066387452086623  C 364.4612199661585 19.026281762032568  364.13648047741805 17.826520548051626  364.13648047741805 16.467081514252882  C 364.13648047741805 15.107974936961092  364.4612199661585 13.913895806010132  365.1107296541021 12.884873452883173  C 365.76251039345516 11.855851099756215  366.6538954828465 11.044860511753523  367.7848598970561 10.45190144114297  Z M 374.1141788560332 12.445351483126627  C 373.3874546891959 12.052601981999665  372.56419175128525 11.856235778194373  371.64443146335515 11.856235778194373  C 370.7224002255378 11.856235778194373  369.89576228391434 12.052601981999665  369.1644961157803 12.445351483126627  C 368.4332299476463 12.837768478200207  367.8609421497163 13.380517846542755  367.4476177982285 14.073581751441523  C 367.03429344674066 14.76629095348883  366.8276599510156 15.564121218458348  366.8276599510156 16.467081514252882  C 366.8276599510156 17.37035216884914  367.03429344674066 18.17060525396625  367.4476177982285 18.8678364590653  C 367.8609421497163 19.56504551691269  368.4332299476463 20.110017513075498  369.1644961157803 20.502789186227332  C 369.89576228391434 20.89520618130091  370.7224002255378 21.09142290354413  371.64443146335515 21.09142290354413  C 372.568733752582 21.09142290354413  373.39315637847875 20.89520618130091  374.1176094939067 20.502789186227332  C 374.84206260933456 20.110017513075498  375.4109235257121 19.56504551691269  375.8242478772 18.8678364590653  C 376.23757222868784 18.17060525396625  376.44425770377455 17.37035216884914  376.44425770377455 16.467081514252882  C 376.44425770377455 15.564121218458348  376.23757222868784 14.76629095348883  375.8242478772 14.073581751441523  C 375.4109235257121 13.380517846542755  374.84090302287063 12.837768478200207  374.1141788560332 12.445351483126627  Z M 370.1762224122632 5.8431612299309235  L 370.1762224122632 0.388583489133716  L 373.0138797271826 0.388583489133716  L 373.0138797271826 5.8431612299309235  L 370.1762224122632 5.8431612299309235  Z M 408.71081034587314 7.58722073257044  L 408.71081034587314 5.311148373545476  L 417.31225116427584 5.311148373545476  L 417.31225116427584 7.58722073257044  L 408.71081034587314 7.58722073257044  Z M 408.71081034587314 14.019548402972088  L 408.71081034587314 11.744008767101048  L 417.38039610748837 11.744008767101048  L 417.38039610748837 14.019548402972088  L 408.71081034587314 14.019548402972088  Z M 395 17  L 395 3  L 409 3  L 409 17  L 395 17  Z M 406.63621006097674 14.493874952118336  L 406.63621006097674 4.852397634709197  L 398.1097234821717 4.852397634709197  L 398.1097234821717 14.493874952118336  L 406.63621006097674 14.493874952118336  Z M 416 21.99279047998356  L 416 0.046220075545216774  L 419 0.046220075545216774  L 419 21.99279047998356  L 416 21.99279047998356  Z M 399.47911976663744 30  L 399.47911976663744 28  L 420 28  L 420 30  L 399.47911976663744 30  Z M 399.47911976663744 28.19909132650602  L 399.47911976663744 20.02118208731079  L 402.2962972130399 20.02118208731079  L 402.2962972130399 28.19909132650602  L 399.47911976663744 28.19909132650602  Z M 23 65.2333200575341  L 23 49.88807740213748  L 26 49.88807740213748  L 26 65.2333200575341  L 23 65.2333200575341  Z M 12.924538342823691 52.721987006628595  C 12.924538342823691 52.721987006628595  12.924538342823691 51.372370947815966  12.924538342823691 51.372370947815966  C 12.924538342823691 51.372370947815966  15.990411045366843 51.372370947815966  15.990411045366843 51.372370947815966  C 15.990411045366843 53.88518741866459  15.418208018466286 56.10717331545328  14.273844603985332 58.03833577286714  C 13.129821796454697 59.96927665867159  11.490439529592964 61.59011311409027  9.355687346614472 62.900829779731666  C 7.22093516363598 64.21110310396854  4.652556932097627 65.21891775428335  1.6505526519994107 65.92426198817354  C 1.6505526519994107 65.92426198817354  0.6552258441386463 63.66358786507391  0.6552258441386463 63.66358786507391  C 3.3172753524695766 63.06264874827499  5.558301980057871 62.23603993822314  7.378314457811942 61.183786951326866  C 9.19830419459526 60.13109062302607  10.577567319268068 58.88788323960999  11.51613154738847 57.454141415166376  C 12.455059123429946 56.0201779200205  12.924538342823691 54.44278763403695  12.924538342823691 52.721987006628595  Z M 2.2440270144168473 53  L 2.2440270144168473 51  L 14.196109468535779 51  L 14.196109468535779 53  L 2.2440270144168473 53  Z M 14.882782826513932 56.41441802532211  L 14.882782826513932 54.23684871423462  L 23.114832310866287 54.23684871423462  L 23.114832310866287 56.41441802532211  L 14.882782826513932 56.41441802532211  Z M 14.608643672812194 62.1540280212379  L 14.608643672812194 59.98977678899851  L 22.95728286549845 59.98977678899851  L 22.95728286549845 62.1540280212379  L 14.608643672812194 62.1540280212379  Z M 5.665438551112421 68  L 5.665438551112421 66  L 25.49247227457974 66  L 25.49247227457974 74  L 8.537584172531878 74  L 8.537584172531878 78.78237244451435  L 5.741042532731528 78.78237244451435  L 5.741042532731528 71  L 22.675190869453832 71  L 22.675190869453832 68  L 5.665438551112421 68  Z M 5.741042532731528 79  L 5.741042532731528 77  L 26.50378273616885 77  L 26.50378273616885 79  L 5.741042532731528 79  Z M 55 79.96108584199432  L 55 49.88807740213748  L 58 49.88807740213748  L 58 79.96108584199432  L 55 79.96108584199432  Z M 43.6916683271185 62.96201683912522  L 43.6916683271185 60.688024637177485  L 49.60946667937273 60.688024637177485  L 49.60946667937273 62.96201683912522  L 43.6916683271185 62.96201683912522  Z M 49 78.42060268746147  L 49 50.591322700855656  L 52 50.591322700855656  L 52 78.42060268746147  L 49 78.42060268746147  Z M 37.79429786401951 58.38813194284135  C 37.79429786401951 58.38813194284135  37.79429786401951 54.56071902405118  37.79429786401951 54.56071902405118  L 39.97004998681952 54.56071902405118  C 39.97004998681952 54.56071902405118  39.97004998681952 58.38813194284135  39.97004998681952 58.38813194284135  C 39.97004998681952 60.026250686515255  39.811413441832 61.62968207763932  39.49415294060863 63.198419080621306  C 39.1773466242866 64.76715608360328  38.71487109089288 66.23479915702903  38.10669382794583 67.60137594780328  C 37.498743670139746 68.96773106787526  36.75192242420604 70.19820085835019  35.86622739980669 71.2927922557274  C 34.98075948054827 72.38716198240238  33.976382781550235 73.2793724877981  32.853139739088355 73.96942169096477  C 32.853139739088355 73.96942169096477  31.11323456429538 71.91191803166406  31.11323456429538 71.91191803166406  C 32.545471562068 71.0545102228939  33.75530907396446 69.9192442830561  34.742745475629725 68.5061174375509  C 35.73063608757687 67.09299059204568  36.48608331873992 65.51039198594118  37.00909762590454 63.75833648316468  C 37.532566092589946 62.006502551997585  37.79429786401951 60.21644097807971  37.79429786401951 58.38813194284135  Z M 38.368981687175825 58.38813194284135  C 38.368981687175825 58.38813194284135  38.368981687175825 54.56071902405118  38.368981687175825 54.56071902405118  L 40.531790948908004 54.56071902405118  C 40.531790948908004 54.56071902405118  40.531790948908004 58.38813194284135  40.531790948908004 58.38813194284135  C 40.531790948908004 60.126887401668185  40.78420607964383 61.82873414355874  41.289052280099455 63.49367454674138  C 41.79412558569602 65.15839337831461  42.5312979088053 66.66117110940866  43.50056620376157 68.0020344950926  C 44.47006160385879 69.34245453937206  45.659506759366806 70.41300918265682  47.068897406353614 71.21367018348508  C 47.068897406353614 71.21367018348508  45.3557616028455 73.24524798262816  45.3557616028455 73.24524798262816  C 43.861435054456116 72.34749679969737  42.59477283123848 71.13675332349486  41.55578437475635 69.61301468032806  C 40.5172501285561 68.089054366459  39.726471499859066 66.36038467685268  39.183472295619005 64.42700551241626  C 38.640473091378944 62.493848117774945  38.368981687175825 60.480889666692875  38.368981687175825 58.38813194284135  Z M 31.956339811364423 55  L 31.956339811364423 53  L 46.0251258333715 53  L 46.0251258333715 55  L 31.956339811364423 55  Z M 75.24080181878261 53  L 75.24080181878261 51  L 95.05619216522507 51  L 95.05619216522507 53  L 75.24080181878261 53  Z M 71.6833862821514 64  L 71.6833862821514 62  L 99.60729715982292 62  L 99.60729715982292 64  L 71.6833862821514 64  Z M 93.21191243210195 53.704531444618354  C 93.21191243210195 53.704531444618354  93.21191243210195 51.47609975621574  93.21191243210195 51.47609975621574  L 95.98924769774744 51.47609975621574  C 95.98924769774744 51.47609975621574  95.98924769774744 53.704531444618354  95.98924769774744 53.704531444618354  C 95.98924769774744 54.975569748205864  95.94824809421819 56.37739495523857  95.8662645279222 57.910000228309926  C 95.78428096162622 59.44238383067902  95.48859893227275 61.251389678108374  94.97921073052042 63.337053939487724  C 94.97921073052042 63.337053939487724  92.1957419001922 63.19542568385164  92.1957419001922 63.19542568385164  C 92.70036099550687 61.14145963924496  92.99582147171422 59.35714683784415  93.08211996589164 57.84249659437698  C 93.16864555886487 56.327846350909816  93.21191243210195 54.94852631890203  93.21191243210195 53.704531444618354  Z M 76 79  L 76 68  L 96 68  L 96 79  L 76 79  Z M 93.32704671830774 77  L 93.32704671830774 71  L 77.87610347853314 71  L 77.87610347853314 77  L 93.32704671830774 77  Z M 106.70445525010118 52.69040413393167  C 107.75752392075529 52.09057337064404  108.96250765670695 51.79066009472325  110.31943792983529 51.79066009472325  C 111.67682241324552 51.79066009472325  112.87843114548436 52.09057337064404  113.92423265467264 52.69040413393167  C 114.97026126900185 53.29023489721931  115.79736819238599 54.1235908402376  116.40554545533301 55.19047389529707  C 117.01372271828006 56.25691360895203  117.31780924316813 57.494372219851044  117.31780924316813 58.90284398060888  C 117.31780924316813 60.288040714001234  117.01269988220719 61.51419263269246  116.40247867299165 62.58129735845419  C 115.79248456891706 63.64795874281141  114.9652668848227 64.47775358613055  113.92082800648008 65.07071265674111  C 112.87684333841938 65.6634500566494  111.67432242929569 65.95982760064028  110.31330436515255 65.95982760064028  C 108.95773672286987 65.95982760064028  107.75410820664396 65.66334194635161  106.7024020653133 65.07038287574106  C 105.6509230291236 64.476980463726  104.824617471153 63.64707751010906  104.22348031529195 62.5806377964541  C 103.62234315943091 61.51397641209687  103.32176833788564 60.288040714001234  103.32176833788564 58.90284398060888  C 103.32176833788564 57.494372219851044  103.62234315943091 56.25691360895203  104.22348031529195 55.19047389529707  C 104.824617471153 54.1235908402376  105.651613684588 53.29023489721931  106.70445525010118 52.69040413393167  Z M 112.58851899660031 54.738927602923376  C 111.91834304539731 54.332612092641185  111.15993801596478 54.12946694706507  110.31330436515255 54.12946694706507  C 109.46667071434031 54.12946694706507  108.70815487343646 54.332612092641185  108.03775186785361 54.738927602923376  C 107.36734886227077 55.14479979657427  106.84217190401601 55.7043088622619  106.46223142449442 56.417411422091774  C 106.0822909449728 57.13073565262391  105.89232970261617 57.95820939460452  105.89232970261617 58.89985058383921  C 105.89232970261617 59.8217634769445  106.0822909449728 60.64159968716784  106.46223142449442 61.35935728219867  C 106.84217190401601 62.07689320652725  107.36734886227077 62.638806140855166  108.03775186785361 63.045121651137364  C 108.70815487343646 63.45099384478826  109.46667071434031 63.65394811276481  110.31330436515255 63.65394811276481  C 111.15993801596478 63.65394811276481  111.91834304539731 63.45099384478826  112.58851899660031 63.045121651137364  C 113.25892200218313 62.638806140855166  113.78625546943552 62.07689320652725  114.17051087049342 61.35935728219867  C 114.55522045645266 60.64159968716784  114.74758574428877 59.8217634769445  114.74758574428877 58.89985058383921  C 114.74758574428877 57.95820939460452  114.55522045645266 57.13073565262391  114.17051087049342 56.417411422091774  C 113.78625546943552 55.7043088622619  113.25892200218313 55.14479979657427  112.58851899660031 54.738927602923376  Z M 127 67.7912283327541  L 127 49.921334547603884  L 129 49.921334547603884  L 129 67.7912283327541  L 127 67.7912283327541  Z M 121.3099021921677 59.91032493575612  L 121.3099021921677 57.62902681626886  L 127.12176660524027 57.62902681626886  L 127.12176660524027 59.91032493575612  L 121.3099021921677 59.91032493575612  Z M 120 67.622659506191  L 120 50.47361625160768  L 123 50.47361625160768  L 123 67.622659506191  L 120 67.622659506191  Z M 108.31981787421736 71  L 108.31981787421736 69  L 129 69  L 129 79.97404877207313  L 126.1737150268622 79.97404877207313  L 126.1737150268622 71  L 108.31981787421736 71  Z M 140.299548398355 51.75207571771761  C 142.21401224941616 50.85631957110713  144.87188635308158 50.40844645244431  148.27318248592536 50.40844645244431  C 151.67470562238788 50.40844645244431  154.33031253248708 50.85631957110713  156.24000727711064 51.75207571771761  C 158.14970202173419 52.6478318643281  159.10453792203836 53.93540093600727  159.10453792203836 55.614749835743694  C 159.10453792203836 57.29432030708953  158.14970202173419 58.58518362142664  156.24000727711064 59.48736811930969  C 154.33031253248708 60.389330946490496  151.67470562238788 60.84030735589205  148.27318248592536 60.84030735589205  C 144.87188635308158 60.84030735589205  142.21401224941616 60.389330946490496  140.299548398355 59.48736811930969  C 138.3855387575757 58.58518362142664  137.42852033321245 57.29432030708953  137.42852033321245 55.614749835743694  C 137.42852033321245 53.93540093600727  138.3855387575757 52.6478318643281  140.299548398355 51.75207571771761  Z M 152.55142182118357 52.8603174522642  C 151.3750370894404 52.61604047550456  149.94498220963803 52.493905393441416  148.26125322241103 52.493905393441416  C 146.59841750206218 52.493905393441416  145.17530125791603 52.61604047550456  143.99187636832576 52.8603174522642  C 142.8084514787355 53.10437275832158  141.90481799082286 53.45804046111628  141.28097072695613 53.92132440049619  C 140.6575776733713 54.38438666917385  140.34586200964588 54.94875418290732  140.34586200964588 55.61442005474365  C 140.34586200964588 56.28008592657997  140.6575776733713 56.84666648090061  141.28097072695613 57.314162064530535  C 141.90481799082286 57.781879318862714  142.8084514787355 58.13554704643063  143.99187636832576 58.37516901276253  C 145.17530125791603 58.61479097909442  146.59841750206218 58.73460493504582  148.26125322241103 58.73460493504582  C 149.94498220963803 58.73460493504582  151.3750370894404 58.61479097909442  152.55142182118357 58.37516901276253  C 153.72803365806772 58.13554704643063  154.6280447326884 57.781879318862714  155.25143778627324 57.314162064530535  C 155.875057944999 56.84666648090061  156.1868583797538 56.28008592657997  156.1868583797538 55.61442005474365  C 156.1868583797538 54.94875418290732  155.875057944999 54.38438666917385  155.25143778627324 53.92132440049619  C 154.6280447326884 53.45804046111628  153.72803365806772 53.10437275832158  152.55142182118357 52.8603174522642  Z M 134.35004263545267 65  L 134.35004263545267 62  L 162.19086450341766 62  L 162.19086450341766 65  L 134.35004263545267 65  Z M 137.71807136766364 69  L 137.71807136766364 67  L 158.61808906539872 67  L 158.61808906539872 74  L 140.57103660460908 74  L 140.57103660460908 78.04921854586874  L 137.79370133896361 78.04921854586874  L 137.79370133896361 72  L 155.84075379975323 72  L 155.84075379975323 69  L 137.71807136766364 69  Z M 137.79370133896361 79  L 137.79370133896361 77  L 159.5470642180262 77  L 159.5470642180262 79  L 137.79370133896361 79  Z M 187.04653761758783 69.4038574229898  L 187.04653761758783 64.87289479225066  L 189.85077220292249 64.87289479225066  L 189.85077220292249 69.4038574229898  L 187.04653761758783 69.4038574229898  Z M 174.5786639571393 65  L 174.5786639571393 63  L 202.35305620082846 63  L 202.35305620082846 65  L 174.5786639571393 65  Z M 187.05469837737758 53.34641464633525  L 187.05469837737758 49.71151772826553  L 189.8582572310099 49.71151772826553  L 189.8582572310099 53.34641464633525  L 187.05469837737758 53.34641464633525  Z M 186.92152725265558 54.089563446059245  C 186.92152725265558 54.089563446059245  186.92152725265558 53.614754909297545  186.92152725265558 53.614754909297545  L 189.41029909172252 53.614754909297545  C 189.41029909172252 53.614754909297545  189.41029909172252 54.089563446059245  189.41029909172252 54.089563446059245  C 189.41029909172252 55.275481587280346  189.08000222749357 56.32075209569484  188.41936453992696 57.22537487220986  C 187.75872685236035 58.12977607711548  186.84848711244436 58.90527586775211  185.68868075142356 59.55187835647297  C 184.5295557058256 60.19803750378931  183.19554670685991 60.714965331970554  181.68668573401666 61.102660825315  C 180.17827897145528 61.48991297725494  178.57178167113338 61.752478579693474  176.8671593155061 61.89035542781475  C 176.8671593155061 61.89035542781475  176.03289055992911 59.7922887055081  176.03289055992911 59.7922887055081  C 177.5531066882974 59.69874525464167  178.9680919186557 59.501997568142585  180.27778513464511 59.202082186498764  C 181.5874783506345 58.90216680485494  182.74161794600613 58.50982866291562  183.74018239805548 58.02504306178828  C 184.73920095886453 57.54003578995867  185.5191451393534 56.96525183416899  186.08008534516154 56.30069431584395  C 186.64102555096963 55.63591512681665  186.92152725265558 54.898869455636216  186.92152725265558 54.089563446059245  Z M 187.5230844058202 54.089563446059245  C 187.5230844058202 54.089563446059245  187.5230844058202 53.614754909297545  187.5230844058202 53.614754909297545  L 189.99111647956158 53.614754909297545  C 189.99111647956158 53.614754909297545  189.99111647956158 54.089563446059245  189.99111647956158 54.089563446059245  C 189.99111647956158 54.898869455636216  190.27156620188583 55.63591512681665  190.83250640769396 56.30069431584395  C 191.393673718643 56.96525183416899  192.17358500594204 57.54003578995867  193.1721494579914 58.02504306178828  C 194.17094091365948 58.50982866291562  195.32729592627996 58.90216680485494  196.64130403842512 59.202082186498764  C 197.95576636085218 59.501997568142585  199.36856916867364 59.69874525464167  200.87970119292635 59.7922887055081  C 200.87970119292635 59.7922887055081  200.04579629288142 61.89035542781475  200.04579629288142 61.89035542781475  C 198.34094693363534 61.752478579693474  196.73422801037083 61.48991297725494  195.2255941426685 61.102660825315  C 193.71718738010713 60.714965331970554  192.38669003372317 60.19803750378931  191.2341509356904 59.55187835647297  C 190.08161183765765 58.90527586775211  189.17493572968505 58.12977607711548  188.5140709369775 57.22537487220986  C 187.8534332494109 56.32075209569484  187.5230844058202 55.275481587280346  187.5230844058202 54.089563446059245  Z M 177.40369028716123 54  L 177.40369028716123 52  L 199.54336378251338 52  L 199.54336378251338 54  L 177.40369028716123 54  Z M 177.9071623847636 70  L 177.9071623847636 68  L 198.8071800824987 68  L 198.8071800824987 74  L 180.7601536113899 74  L 180.7601536113899 78.32319045360109  L 177.98279235606358 78.32319045360109  L 177.98279235606358 72  L 196.02987080653406 72  L 196.02987080653406 70  L 177.9071623847636 70  Z M 177.98279235606358 79  L 177.98279235606358 77  L 199.73579137959413 77  L 199.73579137959413 79  L 177.98279235606358 79  Z M 209.44985043557466 53  L 209.44985043557466 51  L 229.26521479233628 51  L 229.26521479233628 53  L 209.44985043557466 53  Z M 205.89207104341142 64  L 205.89207104341142 62  L 233.8160079107638 62  L 233.8160079107638 64  L 205.89207104341142 64  Z M 227.42093505921318 53.704531444618354  C 227.42093505921318 53.704531444618354  227.42093505921318 51.47609975621574  227.42093505921318 51.47609975621574  L 230.19829631453948 51.47609975621574  C 230.19829631453948 51.47609975621574  230.19829631453948 53.704531444618354  230.19829631453948 53.704531444618354  C 230.19829631453948 54.975569748205864  230.15729671101022 56.37739495523857  230.07531314471424 57.910000228309926  C 229.9933295784183 59.44238383067902  229.69753678835457 61.251389678108374  229.1879214814613 63.337053939487724  C 229.1879214814613 63.337053939487724  226.40479051698424 63.19542568385164  226.40479051698424 63.19542568385164  C 226.90940961229893 61.14145963924496  227.20475932779604 59.35714683784415  227.29083071683252 57.84249659437698  C 227.3775834149467 56.327846350909816  227.42093505921318 54.94852631890203  227.42093505921318 53.704531444618354  Z M 210 79  L 210 68  L 230 68  L 230 79  L 210 79  Z M 227.53575746924864 77  L 227.53575746924864 71  L 212.08510011596346 71  L 212.08510011596346 77  L 227.53575746924864 77  Z M 258 66.40437238870526  L 258 49.7996453585861  L 261 49.7996453585861  L 261 66.40437238870526  L 258 66.40437238870526  Z M 259.9317387220255 59.33310671459484  L 259.9317387220255 57.01855144964117  L 265.6969256682751 57.01855144964117  L 265.6969256682751 59.33310671459484  L 259.9317387220255 59.33310671459484  Z M 241.57434348209742 70  L 241.57434348209742 68  L 261.1294471747361 68  L 261.1294471747361 74  L 244.41979770127458 74  L 244.41979770127458 78.28927374613458  L 241.6499734533974 78.28927374613458  L 241.6499734533974 72  L 258.35213789877145 72  L 258.35213789877145 70  L 241.57434348209742 70  Z M 241.6499734533974 79  L 241.6499734533974 77  L 262.23795904273817 77  L 262.23795904273817 79  L 241.6499734533974 79  Z M 237.30938487375823 54  L 237.30938487375823 52  L 255.49748333257014 52  L 255.49748333257014 54  L 237.30938487375823 54  Z M 241.0238300621401 57.408910682621304  C 242.36668001957423 56.52933619999696  244.15874069708653 56.0895583725054  246.40000346529078 56.0895583725054  C 248.62832134198337 56.0895583725054  250.41335881585445 56.52933619999696  251.7550732475839 57.408910682621304  C 253.09701478445427 58.28826349454339  253.7679740301208 59.495255018220405  253.7679740301208 61.029855327612054  C 253.7679740301208 62.54251063385176  253.09701478445427 63.73906034770333  251.7550732475839 64.6195215131367  C 250.41335881585445 65.49953933716556  248.62832134198337 65.9395333852527  246.40000346529078 65.9395333852527  C 244.15874069708653 65.9395333852527  242.36668001957423 65.49953933716556  241.0238300621401 64.6195215131367  C 239.68166142012876 63.73906034770333  239.0106174034329 62.54251063385176  239.0106174034329 61.029855327612054  C 239.0106174034329 59.495255018220405  239.68166142012876 58.28826349454339  241.0238300621401 57.408910682621304  Z M 249.7946196410206 58.91215395191793  C 248.9484402004903 58.390571608773186  247.81688848040656 58.129786580957436  246.40000346529078 58.129786580957436  C 244.97766802831453 58.129786580957436  243.84105390418375 58.390571608773186  242.99010535721578 58.91215395191793  C 242.13938391538875 59.433957965764925  241.71401202703422 60.1389722700158  241.71401202703422 61.027191711842434  C 241.71401202703422 61.92095282213262  242.13938391538875 62.62629150682329  242.99010535721578 63.14321881476708  C 243.84105390418375 63.66036779341314  244.97766802831453 63.91893983018815  246.40000346529078 63.91893983018815  C 247.81688848040656 63.91893983018815  248.9484402004903 63.66036779341314  249.7946196410206 63.14321881476708  C 250.64125329183287 62.62629150682329  251.06457940651947 61.92095282213262  251.06457940651947 61.027191711842434  C 251.06457940651947 60.1389722700158  250.64125329183287 59.433957965764925  249.7946196410206 58.91215395191793  Z M 244.99110286591923 54.093546185829055  L 244.99110286591923 49.5798590059386  L 247.81576534040911 49.5798590059386  L 247.81576534040911 54.093546185829055  L 244.99110286591923 54.093546185829055  Z M 289.88354642808963 52.644513839386505  C 289.88354642808963 52.644513839386505  289.88354642808963 50.950099061138864  289.88354642808963 50.950099061138864  L 292.35906352991844 50.950099061138864  C 292.35906352991844 50.950099061138864  292.35906352991844 52.644513839386505  292.35906352991844 52.644513839386505  C 292.35906352991844 53.787650327815  292.1356210558145 54.86573424391998  291.68868570183895 55.878752210166894  C 291.2417503478634 56.89177017641381  290.623348632792 57.82154460066057  289.833490302755 58.66809064411303  C 289.044086183 59.51419334616097  288.1282889660732 60.26632307939033  287.0861211391401 60.924452246442804  C 286.0439533122069 61.58258141349528  284.9172943525893 62.13340392575742  283.70616314341476 62.576959469915096  C 282.4950319342402 63.02029339291693  281.24938094668653 63.34802819996176  279.9692108914089 63.56016346990494  C 279.9692108914089 63.56016346990494  278.8338256933985 61.33939284781114  278.8338256933985 61.33939284781114  C 279.9563874204375 61.180457642187136  281.05498574802476 60.913141664840715  282.12962910250207 60.537416191232396  C 283.2040453518384 60.16169071762406  284.21099563837464 59.700297890939524  285.1505136674781 59.15322386295316  C 286.09025880172254 58.60637150566906  286.9139648839963 57.98935601103562  287.6216125235609 57.30218847745186  C 288.32903305798453 56.6150209438681  288.8829611514508 55.87851587372305  289.2833407383297 55.0927065126674  C 289.6834932200677 54.30645385975366  289.88354642808963 53.49039496982503  289.88354642808963 52.644513839386505  Z M 290.378545889732 52.644513839386505  C 290.378545889732 52.644513839386505  290.378545889732 50.950099061138864  290.378545889732 50.950099061138864  L 292.8335831230438 50.950099061138864  C 292.8335831230438 50.950099061138864  292.8335831230438 52.644513839386505  292.8335831230438 52.644513839386505  C 292.8335831230438 53.476873255173125  293.0370632126181 54.28275734095677  293.44402874706225 55.06213835073985  C 293.85122136126677 55.84129768982067  294.4120880142476 56.57445788086218  295.12654870651835 57.26162541444593  C 295.8407822936481 57.948792948029684  296.6643516255308 58.569344174593034  297.59728370706904 59.12328989525648  C 298.53021578860734 59.676792274515414  299.53387594398237 60.144849491637835  300.6082921933187 60.52744665792324  C 301.682708442655 60.9098221535064  302.77442021546995 61.180457642187136  303.8833558370967 61.33939284781114  C 303.8833558370967 61.33939284781114  302.7479186597245 63.56016346990494  302.7479186597245 63.56016346990494  C 301.48114760471833 63.34802819996176  300.24586203285094 63.0168657217384  299.0419980866645 62.566660155605895  C 297.83790703533697 62.11601124806887  296.71124807571937 61.55841623507107  295.6620400909391 60.893858716746024  C 294.6130592112998 60.22907952771873  293.69361359140026 59.47363028315504  292.90375526136336 58.627527581107096  C 292.1141240364674 57.780981537654654  291.4957743007577 56.854634735039994  291.04861184164116 55.84848846147017  C 290.60190359280654 54.84212051719808  290.378545889732 53.774128613163086  290.378545889732 52.644513839386505  Z M 289 79.97404877207313  L 289 68.52506716116905  L 292 68.52506716116905  L 292 79.97404877207313  L 289 79.97404877207313  Z M 277.4211306006215 69  L 277.4211306006215 66  L 305.2619524685865 66  L 305.2619524685865 69  L 277.4211306006215 69  Z M 325.2902242909458 70.01433278961747  C 325.2902242909458 70.01433278961747  325.2902242909458 68.40370775315131  325.2902242909458 68.40370775315131  L 327.4867681584331 68.40370775315131  C 327.4867681584331 68.40370775315131  327.4867681584331 70.01433278961747  327.4867681584331 70.01433278961747  C 327.4867681584331 71.32039446960434  327.2124036762288 72.60119104054783  326.6637269449873 73.85671269225598  C 326.11527731888674 75.11179100255961  325.3244399088412 76.2383129894394  324.29112897936045 77.23625764521145  C 323.25781804987975 78.23375895957899  321.99828989253575 79.0046992405207  320.51259323798007 79.54911326962642  C 320.51259323798007 79.54911326962642  319.10265305137415 77.50490232140456  319.10265305137415 77.50490232140456  C 320.4084854799675 77.03940172454851  321.52082422695395 76.40055508444613  322.43967609432025 75.58836735573983  C 323.3587550668275 74.77617962703354  324.0635537906723 73.88342861969528  324.5540925702928 72.91008901550225  C 325.0448584550543 71.93652774060695  325.2902242909458 70.97126905912212  325.2902242909458 70.01433278961747  Z M 325.91023411752036 70.01433278961747  C 325.91023411752036 70.01433278961747  325.91023411752036 68.40370775315131  325.91023411752036 68.40370775315131  L 328.006925631147 68.40370775315131  C 328.006925631147 68.40370775315131  328.006925631147 70.01433278961747  328.006925631147 70.01433278961747  C 328.006925631147 71.01648908963955  328.2117868793668 72.01877113848646  328.6214776247412 73.02114910921078  C 329.0313954752565 74.0235270799351  329.64650708454724 74.93478977095441  330.4667969450986 75.75495749630265  C 331.28776812107293 76.5751252216509  332.3083739544568 77.23091921618033  333.5285892677469 77.7223548392825  C 333.5285892677469 77.7223548392825  332.34579889184954 79.82077671035842  332.34579889184954 79.82077671035842  C 330.8653255540134 79.2455509986498  329.64875793304066 78.44390199257487  328.6960680088068 77.41581071585308  C 327.7433780845729 76.38794110983356  327.0408466050554 75.22871362737537  326.58846082921934 73.93816859926788  C 326.1363021585242 72.6476235711604  325.91023411752036 71.33967952342206  325.91023411752036 70.01433278961747  Z M 336.6717812708459 70.01433278961747  C 336.6717812708459 70.01433278961747  336.6717812708459 68.40370775315131  336.6717812708459 68.40370775315131  L 338.7681089289405 68.40370775315131  C 338.7681089289405 68.40370775315131  338.7681089289405 70.01433278961747  338.7681089289405 70.01433278961747  C 338.7681089289405 71.18739432738629  338.53626194026657 72.41710734577664  338.07252111042766 73.70344063054128  C 337.6090073857297 74.98933057390138  336.9065606772416 76.17767698537675  335.96522580701054 77.26850007990846  C 335.0238909367795 78.35910150373795  333.8174153322332 79.20986261014369  332.34579889184954 79.82077671035842  C 332.34579889184954 79.82077671035842  331.1498057580757 77.7223548392825  331.1498057580757 77.7223548392825  C 332.3702481765068 77.17306415382001  333.3905805091085 76.46052047765606  334.2108703696599 75.58471439697007  C 335.03161444049323 74.7082433041773  335.6469475712044 73.77668828053456  336.0568654217197 72.79004873148469  C 336.46678327223503 71.80296584103034  336.6717812708459 70.87772560825569  336.6717812708459 70.01433278961747  Z M 337.23144305846563 70.01433278961747  C 337.23144305846563 70.01433278961747  337.23144305846563 68.40370775315131  337.23144305846563 68.40370775315131  L 339.42897453382557 68.40370775315131  C 339.42897453382557 68.40370775315131  339.42897453382557 70.01433278961747  339.42897453382557 70.01433278961747  C 339.42897453382557 71.03776908068473  339.67425559868775 72.0418063611584  340.1647943783083 73.0264509729808  C 340.6553331579288 74.01087391410093  341.35938254648283 74.89455663758781  342.2768717830035 75.67748432906056  C 343.19663207093356 76.46063364168913  344.3094138607609 77.06977011529334  345.6152462893542 77.50490232140456  C 345.6152462893542 77.50490232140456  344.2049422472163 79.54911326962642  344.2049422472163 79.54911326962642  C 342.7196998029425 79.01334424926941  341.45475096973996 78.26455949423644  340.4100849862564 77.30274656837501  C 339.36564610791385 76.34049030110907  338.57475671850653 75.22948476792297  338.0374350412679 73.96975147196481  C 337.50011336402923 72.71023984670892  337.23144305846563 71.39177124661657  337.23144305846563 70.01433278961747  Z M 340 67.09166136057493  L 340 49.921334547603884  L 342 49.921334547603884  L 342 67.09166136057493  L 340 67.09166136057493  Z M 322.19339787849947 52.53779163421706  C 323.4088439838298 51.94483256360651  324.7875338126908 51.64834690931784  326.32955162850106 51.64834690931784  C 327.8856497600054 51.64834690931784  329.26781834825834 51.94483256360651  330.47599729212277 52.53779163421706  C 331.68417623598725 53.13075070482761  332.63505728858553 53.9541227460737  333.32862466321706 55.00792742788577  C 334.02196493270765 56.06151043899559  334.36862773247464 57.286123346655636  334.36862773247464 58.68173850396118  C 334.36862773247464 60.06338860521029  334.02196493270765 61.27766791243553  333.32862466321706 62.32460090157052  C 332.63505728858553 63.37153389070551  331.68417623598725 64.19147831031948  330.47599729212277 64.78443738093003  C 329.26781834825834 65.37739645154059  327.8856497600054 65.67388210582925  326.32955162850106 65.67388210582925  C 324.7875338126908 65.67388210582925  323.4088439838298 65.37739645154059  322.19339787849947 64.78443738093003  C 320.97840598345107 64.19147831031948  320.0242346981693 63.37153389070551  319.3308944286788 62.32460090157052  C 318.6375541591882 61.27766791243553  318.2908393800595 60.06338860521029  318.2908393800595 58.68173850396118  C 318.2908393800595 57.286123346655636  318.6375541591882 56.06151043899559  319.3308944286788 55.00792742788577  C 320.0242346981693 53.9541227460737  320.97840598345107 53.13075070482761  322.19339787849947 52.53779163421706  Z M 329.05955968530213 54.56371242082085  C 328.26720324947587 54.162051896193184  327.3571850309803 53.96122790150202  326.32955162850106 53.96122790150202  C 325.32462843554964 53.96122790150202  324.42373117372495 54.162051896193184  323.626832736602 54.56371242082085  C 322.83016140462 54.96559459137756  322.2022475171153 55.517548966929304  321.7430486885731 56.21956818983209  C 321.28430407031277 56.92158741273487  321.054893918786 57.74231392265621  321.054893918786 58.68173850396118  C 321.054893918786 59.612074685566505  321.28430407031277 60.43045472638007  321.7430486885731 61.13690731378155  C 322.2022475171153 61.84358157188528  322.83016140462 62.394429402370235  323.626832736602 62.789439905023066  C 324.42373117372495 63.18445040767591  325.32462843554964 63.38195489103275  326.32955162850106 63.38195489103275  C 327.3571850309803 63.38195489103275  328.26720324947587 63.18445040767591  329.05955968530213 62.789439905023066  C 329.8523703314102 62.394429402370235  330.47815367421765 61.84358157188528  330.93689829247796 61.13690731378155  C 331.3958700158792 60.43045472638007  331.6253649384354 59.612074685566505  331.6253649384354 58.68173850396118  C 331.6253649384354 57.74231392265621  331.3958700158792 56.92158741273487  330.93689829247796 56.21956818983209  C 330.47815367421765 55.517548966929304  329.8523703314102 54.96559459137756  329.05955968530213 54.56371242082085  Z M 353.18791158063055 53.48905761274071  C 354.3506702069614 52.63009820814762  355.6758316485162 52.20062861332163  357.1633451441994 52.20062861332163  C 358.66448474529494 52.20062861332163  359.99186140105417 52.63009820814762  361.1455360247917 53.48905761274071  C 362.29921064852914 54.3480170173338  363.2019839896798 55.56242980262607  363.85376472903283 57.13227515911933  C 364.5032744169764 58.7021205156126  364.82801390571683 60.551710731010324  364.82801390571683 62.681043427084155  C 364.82801390571683 64.81946452285763  364.5032744169764 66.67569376092399  363.85376472903283 68.24975076166727  C 363.2019839896798 69.8235860917083  362.29921064852914 71.04021191758773  361.1455360247917 71.89961466358533  C 359.99186140105417 72.75857406817842  358.66448474529494 73.18804366300441  357.1633451441994 73.18804366300441  C 355.6758316485162 73.18804366300441  354.3506702069614 72.75857406817842  353.18791158063055 71.89961466358533  C 352.0274239041869 71.04021191758773  351.1224352473096 69.8235860917083  350.472925559366 68.24975076166727  C 349.821144820013 66.67569376092399  349.4952457448086 64.81946452285763  349.4952457448086 62.681043427084155  C 349.4952457448086 60.551710731010324  349.821144820013 58.7021205156126  350.472925559366 57.13227515911933  C 351.1224352473096 55.56242980262607  352.0274239041869 54.3480170173338  353.18791158063055 53.48905761274071  Z M 359.77270910245255 55.66064013028886  C 359.0232748276095 55.00317597534316  358.153506807556 54.67444273352935  357.1633451441994 54.67444273352935  C 356.179996533549 54.67444273352935  355.3147110735494 55.00317597534316  354.5675477993547 55.66064013028886  C 353.82038452516 56.31766099337647  353.23676040407145 57.24565481822725  352.8166229998775 58.444651332695756  C 352.3964855956835 59.64386951786652  352.18642521840616 61.056003056657644  352.18642521840616 62.681043427084155  C 352.18642521840616 64.30652713891517  352.3964855956835 65.72430133992557  352.8166229998775 66.93438119132118  C 353.23676040407145 68.14423937201452  353.82038452516 69.07989604684539  354.5675477993547 69.74135022488527  C 355.3147110735494 70.40302607362742  356.179996533549 70.73386419618419  357.1633451441994 70.73386419618419  C 358.153506807556 70.73386419618419  359.0232748276095 70.40302607362742  359.77270910245255 69.74135022488527  C 360.5221433772956 69.07989604684539  361.1069271356092 68.14423937201452  361.5270645398032 66.93438119132118  C 361.94947294464555 65.72430133992557  362.1606929591479 64.30652713891517  362.1606929591479 62.681043427084155  C 362.1606929591479 61.056003056657644  361.94947294464555 59.64386951786652  361.5270645398032 58.444651332695756  C 361.1069271356092 57.24565481822725  360.5221433772956 56.31766099337647  359.77270910245255 55.66064013028886  Z M 371 80  L 371 49.87511447205868  L 374 49.87511447205868  L 374 80  L 371 80  Z M 363.9048604416018 63.58976765660159  L 363.9048604416018 61.34903260012024  L 372.74816123007923 61.34903260012024  L 372.74816123007923 63.58976765660159  L 363.9048604416018 63.58976765660159  Z M 387.12367746558533 74.36510815548414  L 387.12367746558533 65.3723100651698  L 389.9272363192176 65.3723100651698  L 389.9272363192176 74.36510815548414  L 387.12367746558533 74.36510815548414  Z M 398.50143995208 74.36510815548414  L 398.50143995208 65.3723100651698  L 401.32547867422926 65.3723100651698  L 401.32547867422926 74.36510815548414  L 398.50143995208 74.36510815548414  Z M 380.29021067730343 76  L 380.29021067730343 73  L 408.2134198335918 73  L 408.2134198335918 76  L 380.29021067730343 76  Z M 388.41136219343 52.7559037140951  C 390.1009958127994 52.113956211028764  392.0279194823444 51.79299392949282  394.19219492755684 51.79299392949282  C 396.3700962751373 51.79299392949282  398.3004470292789 52.113956211028764  399.98326759594215 52.7559037140951  C 401.6660881626054 53.397629546459164  402.98671511550555 54.295048223336565  403.9450825667409 55.44815969518089  C 404.90572106938566 56.600827825620684  405.3860024529308 57.96495563573532  405.3860024529308 59.54056433139439  C 405.3860024529308 61.09356301179474  404.90572106938566 62.449837119102945  403.9450825667409 63.609376942219825  C 402.98671511550555 64.76891676533671  401.6660881626054 65.66633544221412  399.98326759594215 66.30163292330562  C 398.3004470292789 66.93648706299261  396.3700962751373 67.25391361259865  394.19219492755684 67.25391361259865  C 392.0279194823444 67.25391361259865  390.1009958127994 66.93648706299261  388.41136219343 66.30163292330562  C 386.7217285740607 65.66633544221412  385.39772671896986 64.76891676533671  384.4393592677346 63.609376942219825  C 383.4809918164992 62.449837119102945  383.00176606069454 61.09356301179474  383.00176606069454 59.54056433139439  C 383.00176606069454 57.96495563573532  383.4809918164992 56.600827825620684  384.4393592677346 55.44815969518089  C 385.39772671896986 54.295048223336565  386.7217285740607 53.397629546459164  388.41136219343 52.7559037140951  Z M 398.57639419167765 54.673428022759964  C 397.3068979765022 54.21236079040261  395.8454923335082 53.98182653012042  394.19219492755684 53.98182653012042  C 392.5525235254956 53.98182653012042  391.0945448655761 54.21236079040261  389.8182355976946 54.673428022759964  C 388.54192632981307 55.134495255117315  387.54155630559933 55.779872857136965  386.81710319017145 56.60957227404293  C 386.0926500747436 57.4392716909489  385.73042265409094 58.41626955537911  385.73042265409094 59.54056433139439  C 385.73042265409094 60.642249092150955  386.0926500747436 61.60807379198683  386.81710319017145 62.43799483004863  C 387.54155630559933 63.267472576252345  388.54192632981307 63.91495505901495  389.8182355976946 64.38045565587099  C 391.0945448655761 64.84551291132252  392.5525235254956 65.07804394204987  394.19219492755684 65.07804394204987  C 395.8454923335082 65.07804394204987  397.3068979765022 64.84551291132252  398.57639419167765 64.38045565587099  C 399.84589040685296 63.91495505901495  400.8428855288761 63.267472576252345  401.567338644304 62.43799483004863  C 402.2940628111413 61.60807379198683  402.65739783889615 60.642249092150955  402.65739783889615 59.54056433139439  C 402.65739783889615 58.41626955537911  402.2940628111413 57.4392716909489  401.567338644304 56.60957227404293  C 400.8428855288761 55.779872857136965  399.84589040685296 55.134495255117315  398.57639419167765 54.673428022759964  Z " fill-rule="nonzero" fill="#55565d" stroke="none" transform="matrix(1 0 0 1 181 333 )" />
  </g>
</svg>