<?xml version="1.0" encoding="utf-8"?>
<svg version="1.1" xmlns:xlink="http://www.w3.org/1999/xlink" width="702px" height="3px" xmlns="http://www.w3.org/2000/svg">
  <g transform="matrix(1 0 0 1 -107 -895 )">
    <path d="M 0 0  C 0 0  700.7486631016043 0  700.7486631016043 0  C 700.9155080300919 0  701.0757206954898 0.03804625757038593  701.2292180188837 0.114166259765625  C 701.3827153422775 0.19028626196086407  701.5178279573904 0.29870957136154175  701.634619401738 0.439361572265625  C 701.7514108460855 0.5800135731697083  701.8414350026909 0.7421915531158447  701.9048360732787 0.92596435546875  C 701.9682371438665 1.109735157340765  702 1.3010876029729843  702 1.5  C 702 1.6989123970270157  701.9682371438665 1.890264842659235  701.9048360732787 2.07403564453125  C 701.8414350026909 2.2578084468841553  701.7514108460855 2.4199864268302917  701.634619401738 2.560638427734375  C 701.5178279573904 2.7012904286384583  701.3827153422775 2.809713738039136  701.2292180188837 2.885833740234375  C 701.0757206954898 2.961953742429614  700.9155080300919 3  700.7486631016043 3  C 700.7486631016043 3  0 3  0 3  C 0 3  0 0  0 0  Z " fill-rule="nonzero" fill="#b8b8c1" stroke="none" transform="matrix(1 0 0 1 107 895 )" />
  </g>
</svg>