<?xml version="1.0" encoding="utf-8"?>
<svg version="1.1" xmlns:xlink="http://www.w3.org/1999/xlink" width="65px" height="17px" xmlns="http://www.w3.org/2000/svg">
  <g transform="matrix(1 0 0 1 -55 -200 )">
    <path d="M 6.587122032195449 6.307245303988836  L 6.587122032195449 4.557599358037287  L 10.030633171337994 4.557599358037287  L 10.030633171337994 6.307245303988836  L 6.587122032195449 6.307245303988836  Z M 6.485087994647325 10.564533218874866  L 6.485087994647325 8.80270843571353  L 9.982153670779805 8.80270843571353  L 9.982153670779805 10.564533218874866  L 6.485087994647325 10.564533218874866  Z M 13 17  L 13 0  L 15 0  L 15 17  L 13 17  Z M 9 16.21824555073807  L 9 0.38751967254925135  L 11 0.38751967254925135  L 11 16.21824555073807  L 9 16.21824555073807  Z M 5.245738292744511 2.4836896682570586  C 5.245738292744511 2.4836896682570586  5.245738292744511 2.0444760311111385  5.245738292744511 2.0444760311111385  C 5.245738292744511 2.0444760311111385  7.297695946693458 2.0444760311111385  7.297695946693458 2.0444760311111385  C 7.297695946693458 3.618834322727782  7.109412498282957 5.097317593479599  6.732844391839924 6.479934518144363  C 6.356464180019019 7.86235894535956  5.724341780760147 9.13580186405828  4.836475312429036 10.300264788884258  C 3.9486088440979246 11.464804822845974  2.742705863360963 12.511328154158917  1.2187699990842438 13.439849171938599  C 1.2187699990842438 13.439849171938599  0 11.894247217850545  0 11.894247217850545  C 1.2625554941504085 11.114037016726591  2.27932439338427 10.254024987539424  3.050311939397051 9.314184348633859  C 3.8214873800319613 8.374343709728297  4.380138311553409 7.33997043739412  4.7262653051717995 6.21108360237294  C 5.072580193412318 5.082196767351759  5.245738292744511 3.839740017153219  5.245738292744511 2.4836896682570586  Z M 0.8858906179449054 3.812293295678156  L 0.8858906179449054 2.0444760311111385  L 5.981399230553016 2.0444760311111385  L 5.981399230553016 3.812293295678156  L 0.8858906179449054 3.812293295678156  Z M 20.665298899133948 2.9815238735068044  C 20.665298899133948 2.9815238735068044  20.665298899133948 2.0271330849252807  20.665298899133948 2.0271330849252807  L 22.415102646747293 2.0271330849252807  C 22.415102646747293 2.0271330849252807  22.415102646747293 2.9815238735068044  22.415102646747293 2.9815238735068044  C 22.415102646747293 3.984123224902337  22.238916023456525 4.927229022621617  21.88655050501575 5.810856344254579  C 21.534260117543333 6.694291168437974  21.013303394147314 7.460778972688592  20.323680133224006 8.110312459177516  C 19.634282399608235 8.759653448216874  18.77986527329071 9.244564850791878  17.76042546141146 9.565057820188235  C 17.76042546141146 9.565057820188235  16.71054665354612 7.852441884334741  16.71054665354612 7.852441884334741  C 17.59326443290405 7.577343097569234  18.327008724604635 7.1903000558652455  18.911779192641767 6.691310487257165  C 19.496775120785205 6.192320918649084  19.93527943687376 5.62267108540893  20.227288848047454 4.9823781649736345  C 20.51929825922115 4.341892747088774  20.665298899133948 3.6749499454793053  20.665298899133948 2.9815238735068044  Z M 21.099937061608163 2.9815238735068044  C 21.099937061608163 2.9815238735068044  21.099937061608163 2.0271330849252807  21.099937061608163 2.0271330849252807  L 22.837896190295208 2.0271330849252807  C 22.837896190295208 2.0271330849252807  22.837896190295208 2.9815238735068044  22.837896190295208 2.9815238735068044  C 22.837896190295208 3.621624296492532  22.979879641842867 4.24236998217159  23.263846578538804 4.843775595049257  C 23.547963844372685 5.444988710477356  23.97846184024196 5.980652382328867  24.55534012933866 6.450765233654937  C 25.132218418435365 6.920878084981007  25.84596960680113 7.287415001959803  26.69659261921638 7.550385571597712  C 26.69659261921638 7.550385571597712  25.688991445354496 9.25041729649927  25.688991445354496 9.25041729649927  C 24.689469941847825 8.942322064756512  23.848952313482155 8.47903237365506  23.167446691605583 7.8605317342324135  C 22.485865938760654 7.241800111639773  21.97088424418796 6.512266447605444  21.622502380701576 5.671954150259916  C 21.274120517215195 4.831641852914388  21.099937061608163 3.9348403665936784  21.099937061608163 2.9815238735068044  Z M 17.282615082240735 3.1957903336505824  L 17.282615082240735 1.4031218961952927  L 26.232648271787987 1.4031218961952927  L 26.232648271787987 3.1957903336505824  L 17.282615082240735 3.1957903336505824  Z M 20.689538649413045 12.569159248638213  L 20.689538649413045 8.831366596788943  L 22.83169432374048 8.831366596788943  L 22.83169432374048 12.569159248638213  L 20.689538649413045 12.569159248638213  Z M 29.120042939969267 8.635571079330916  L 29.120042939969267 6.80566113243384  L 32.08388141962333 6.80566113243384  L 32.08388141962333 8.635571079330916  L 29.120042939969267 8.635571079330916  Z M 28 17  L 28 0  L 30 0  L 30 17  L 28 17  Z M 19.917462174767582 13.66647071874527  C 18.80737543833394 13.680716562724847  17.785267536260704 13.687849777407308  16.851138065340532 13.687849777407308  C 16.851138065340532 13.687849777407308  16.592164977458104 11.901297195974877  16.592164977458104 11.901297195974877  C 17.54613755858127 11.901297195974877  18.596244985010447 11.896187475402733  19.742485240708913 11.885945868609141  C 20.888951023714913 11.875704261815553  22.060367277144366 11.837767108131859  23.256741527534356 11.772159221682415  C 24.453341170829432 11.706474329368401  25.608790144646477 11.595669370516331  26.723086029741435 11.439735128174823  C 26.723086029741435 11.439735128174823  26.886003300957206 13.034651679242582  26.886003300957206 13.034651679242582  C 25.723452636196907 13.25665583461503  24.548952787405863 13.413872119609294  23.362500125717983 13.506277590815122  C 22.17619786036927 13.598606056156381  21.027849569477116 13.651993861474944  19.917462174767582 13.66647071874527  Z M 41.205175584350414 6.362111758741454  L 41.205175584350414 4.594276869229127  L 45.60933520860451 4.594276869229127  L 45.60933520860451 6.362111758741454  L 41.205175584350414 6.362111758741454  Z M 45 12.56951174754443  L 45 0.018470942685751373  L 47 0.018470942685751373  L 47 12.56951174754443  L 45 12.56951174754443  Z M 36.2966003475639 16.69240945443537  L 36.2966003475639 15  L 47.557787924615795 15  L 47.557787924615795 16.69240945443537  L 36.2966003475639 16.69240945443537  Z M 36.2966003475639 15.91447961830589  L 36.2966003475639 11.343291427433954  L 38.44518153411933 11.343291427433954  L 38.44518153411933 15.91447961830589  L 36.2966003475639 15.91447961830589  Z M 34.09525598563163 9.854177423067114  L 34.09525598563163 1.133689357228612  L 36.225231572522866 1.133689357228612  L 36.225231572522866 3.8290546186687564  L 39.7443392501068 3.8290546186687564  L 39.7443392501068 1.133689357228612  L 41.85041055522884 1.133689357228612  L 41.85041055522884 9.854177423067114  L 34.09525598563163 9.854177423067114  Z M 39.7443392501068 5.516607882290248  L 36.225231572522866 5.516607882290248  L 36.225231572522866 8.098750495053611  L 39.7443392501068 8.098750495053611  L 39.7443392501068 5.516607882290248  Z M 50.637079182213796 4  L 50.637079182213796 2.2275463380547453  L 64.26117791661748 2.2275463380547453  L 64.26117791661748 4  L 50.637079182213796 4  Z M 49.97052905832202 15  L 49.97052905832202 13.447586522930054  L 65 13.447586522930054  L 65 15  L 49.97052905832202 15  Z M 56.384024632255056 14.146063105598305  L 56.384024632255056 11.079128747115211  L 58.52032251029432 11.079128747115211  L 58.52032251029432 14.146063105598305  L 56.384024632255056 14.146063105598305  Z M 54.474124989611724 5.215133192748476  C 55.30843759296514 4.95408773530112  56.2970970266407 4.823559782777733  57.44010530667512 4.823559782777733  C 58.58303845574118 4.823559782777733  59.570608960784064 4.95408773530112  60.40281695620621 5.215133192748476  C 61.23510014979794 5.475986135534404  61.87681159250227 5.850907724372033  62.32794170814478 6.339886702704496  C 62.77929731749421 6.828673149163671  63.00497737340993 7.4202595676562035  63.00497737340993 8.11464819572398  C 63.00497737340993 8.808998338071332  62.77929731749421 9.403734940148407  62.32794170814478 9.898874284375381  C 61.87681159250227 10.394090600043207  61.234806883656674 10.772101700656568  60.40192237351316 11.03291614051021  C 59.569188192507575 11.293807586228425  58.579851639299626 11.424260426191912  57.43391204187705 11.424260426191912  C 56.29503771233436 11.424260426191912  55.30843759296514 11.293807586228425  54.474124989611724 11.03291614051021  C 53.639812386258306 10.772101700656568  52.99709393321328 10.394090600043207  52.545963817570765 9.898874284375381  C 52.09475853735928 9.403734940148407  51.86915179797888 8.808998338071332  51.86915179797888 8.11464819572398  C 51.86915179797888 7.4202595676562035  52.09475853735928 6.828673149163671  52.545963817570765 6.339886702704496  C 52.99709393321328 5.850907724372033  53.639812386258306 5.475986135534404  54.474124989611724 5.215133192748476  Z M 59.27762976874773 6.708054185302454  C 58.777418029580545 6.589274652989451  58.16344086800128 6.52988361315526  57.435709809019826 6.52988361315526  C 56.717900338740485 6.52988361315526  56.10577107641704 6.589274652989451  55.599320778826865 6.708054185302454  C 55.093095974943616 6.826641211559962  54.7079642821318 7.002597469227947  54.44391562020783 7.235921297361856  C 54.179942122852836 7.469245125495767  54.047950955694866 7.763304170933589  54.047950955694866 8.118102685004905  C 54.047950955694866 8.464238194218733  54.179942122852836 8.755011168432143  54.44391562020783 8.990414103273887  C 54.7079642821318 9.2258940439802  55.093095974943616 9.402919554067662  55.599320778826865 9.52150658032517  C 56.10577107641704 9.640093606582678  56.717900338740485 9.69939515334739  57.435709809019826 9.69939515334739  C 58.16344086800128 9.69939515334739  58.777418029580545 9.640093606582678  59.27762976874773 9.52150658032517  C 59.77784150791491 9.402919554067662  60.159934966191294 9.2258940439802  60.42390846354628 8.990414103273887  C 60.68795712547025 8.755011168432143  60.81997634913922 8.464238194218733  60.81997634913922 8.118102685004905  C 60.81997634913922 7.763304170933589  60.68795712547025 7.469245125495767  60.42390846354628 7.235921297361856  C 60.159934966191294 7.002597469227947  59.77784150791491 6.826641211559962  59.27762976874773 6.708054185302454  Z M 56.384024632255056 3.3216853180058514  L 56.384024632255056 0.20876747720679867  L 58.52032251029432 0.20876747720679867  L 58.52032251029432 3.3216853180058514  L 56.384024632255056 3.3216853180058514  Z " fill-rule="nonzero" fill="#26262c" stroke="none" transform="matrix(1 0 0 1 55 200 )" />
  </g>
</svg>