<?xml version="1.0" encoding="utf-8"?>
<svg version="1.1" xmlns:xlink="http://www.w3.org/1999/xlink" width="180px" height="48px" xmlns="http://www.w3.org/2000/svg">
  <g transform="matrix(1 0 0 1 -110 -503 )">
    <path d="M 18.24126101223355 17.8086926230273  L 18.24126101223355 12.86851583445822  L 27.777138012935982 12.86851583445822  L 27.777138012935982 17.8086926230273  L 18.24126101223355 17.8086926230273  Z M 17.95870521594644 29.829270265058444  L 17.95870521594644 24.854706171426436  L 27.64288708831331 24.854706171426436  L 27.64288708831331 29.829270265058444  L 17.95870521594644 29.829270265058444  Z M 35 48  L 35 0  L 40 0  L 40 48  L 35 48  Z M 25 45.79269331973102  L 25 1.094173193080239  L 31 1.094173193080239  L 31 45.79269331973102  L 25 45.79269331973102  Z M 14.526659887600184 7.01277082801993  C 14.526659887600184 7.01277082801993  14.526659887600184 5.772638205490274  14.526659887600184 5.772638205490274  C 14.526659887600184 5.772638205490274  20.20900416007419 5.772638205490274  20.20900416007419 5.772638205490274  C 20.20900416007419 10.217885146525502  19.687603841398957 14.392426146295339  18.644799854325942 18.296285698289967  C 17.6025161908219 22.19960172807405  15.852023392874253 25.795205263223377  13.393316249803483 29.08310058037908  C 10.934609106732713 32.37121361744745  7.59518546776882 35.32610302350753  3.375055382079444 37.94780942665016  C 3.375055382079444 37.94780942665016  0 33.58375685040154  0 33.58375685040154  C 3.49630752226267 31.380810400169196  6.3119752432179785 28.95254114128778  8.447017678330296 26.29887345496619  C 10.582580437011584 23.6452057686446  12.129613785840212 20.724622411465752  13.088119306629599 17.537177230229478  C 14.047145150987957 14.3497320489932  14.526659887600184 10.84161887196203  14.526659887600184 7.01277082801993  Z M 2.453235557385892 11  L 2.453235557385892 6  L 16.56387479230066 6  L 16.56387479230066 11  L 2.453235557385892 11  Z M 57.22698156683247 8.418420348725094  C 57.22698156683247 8.418420348725094  57.22698156683247 5.723669886847851  57.22698156683247 5.723669886847851  L 62.072591944838656 5.723669886847851  C 62.072591944838656 5.723669886847851  62.072591944838656 8.418420348725094  62.072591944838656 8.418420348725094  C 62.072591944838656 11.249289105606598  61.584690526494995 13.912176063872801  60.60890909081285 16.40712379554234  C 59.63333571012 18.90152800500134  58.190686322254095 21.065728864061906  56.28096036892802 22.899705767089458  C 54.371858952761265 24.733139147906467  52.005780756805045 26.10230075517707  49.1827166623702 27.007222080531488  C 49.1827166623702 27.007222080531488  46.27535996366618 22.17160061459221  46.27535996366618 22.17160061459221  C 48.71980919881121 21.394851099019014  50.75171646813592 20.302023687148928  52.37108084116181 18.89311196402023  C 53.99106956525134 17.484200240891532  55.20538920980425 15.875777182331097  56.01403065613142 14.067891289337322  C 56.82267210245857 12.25946187413301  57.22698156683247 10.37632925782392  57.22698156683247 8.418420348725094  Z M 58.43059493983799 8.418420348725094  C 58.43059493983799 8.418420348725094  58.43059493983799 5.723669886847851  58.43059493983799 5.723669886847851  L 63.24340483466365 5.723669886847851  C 63.24340483466365 5.723669886847851  63.24340483466365 8.418420348725094  63.24340483466365 8.418420348725094  C 63.24340483466365 10.225762719508326  63.63658977741102 11.978456420249197  64.42295975595361 13.676542856609666  C 65.20974603057051 15.374085770759596  66.40189432682388 16.886547903046214  67.99940343509168 18.21392536561394  C 69.59691254335947 19.541302828181667  71.57345429575697 20.576230593768855  73.92902571475305 21.31873573157001  C 73.92902571475305 21.31873573157001  71.13874554098169 26.11882530776265  71.13874554098169 26.11882530776265  C 68.3708398389632 25.248909359312503  66.04325256041213 23.940797290320173  64.15600622290778 22.19444254371505  C 62.26855183041412 20.44743560933583  60.84244867621281 18.38757585206243  59.87769890040436 16.014929365439762  C 58.91294912459592 13.642282878817095  58.43059493983799 11.110137505676269  58.43059493983799 8.418420348725094  Z M 47.8595494585128 9  L 47.8595494585128 4  L 72.64425675264366 4  L 72.64425675264366 9  L 47.8595494585128 9  Z M 58 35.48939081968437  L 58 24.935623332109955  L 64 24.935623332109955  L 64 35.48939081968437  L 58 35.48939081968437  Z M 80.64011891068412 24.382788929875527  L 80.64011891068412 19.21598437393084  L 88.84767162357231 19.21598437393084  L 88.84767162357231 24.382788929875527  L 80.64011891068412 24.382788929875527  Z M 77 48  L 77 0  L 83 0  L 83 48  L 77 48  Z M 55.15604909935638 38.58768202939841  C 52.08196275230937 38.627905588870156  49.25151010041426 38.64804643032652  46.66469002709686 38.64804643032652  C 46.66469002709686 38.64804643032652  45.94753378373014 33.60366267098789  45.94753378373014 33.60366267098789  C 48.5893040083789 33.60366267098789  51.49729380464431 33.58923522466654  54.671497589655445 33.560317746661106  C 57.846325911825915 33.53140026865568  61.09024784439978 33.42428359943113  64.40328423009514 33.239037802397405  C 67.71694478075842 33.053574577040195  70.91664963132871 32.740713516751995  74.0023920823609 32.3004285971995  C 74.0023920823609 32.3004285971995  74.45354760265072 36.80372238844964  74.45354760265072 36.80372238844964  C 71.23417653100681 37.43055765067773  67.98171541127778 37.87446245536742  64.69615419429594 38.13537202112505  C 61.411009459484134 38.39606415855919  58.23096803855201 38.546806197105724  55.15604909935638 38.58768202939841  Z M 114.1066400797396 18  L 114.1066400797396 13  L 126.30277442382788 13  L 126.30277442382788 18  L 114.1066400797396 18  Z M 124 35.490386110713686  L 124 0.05215324993623917  L 130 0.05215324993623917  L 130 35.490386110713686  L 124 35.490386110713686  Z M 100.5136625009462 47  L 100.5136625009462 42  L 131.69848963739759 42  L 131.69848963739759 47  L 100.5136625009462 47  Z M 100 44.935001275216635  L 100 32.02811697157822  L 106 32.02811697157822  L 106 44.935001275216635  L 100 44.935001275216635  Z M 94 27  L 94 3.20100524393961  L 100.31602589314025 3.20100524393961  L 100.31602589314025 10.811448335064725  L 110.0612471541419 10.811448335064725  L 110.0612471541419 3.20100524393961  L 115 3.20100524393961  L 115 27  L 94 27  Z M 110.0612471541419 15.576304608819523  L 100.31602589314025 15.576304608819523  L 100.31602589314025 22.867060221327844  L 110.0612471541419 22.867060221327844  L 110.0612471541419 15.576304608819523  Z M 140.22575773536127 12  L 140.22575773536127 7  L 177.95403115370996 7  L 177.95403115370996 12  L 140.22575773536127 12  Z M 138.3799266230456 43  L 138.3799266230456 38  L 180 38  L 180 43  L 138.3799266230456 43  Z M 156.1403759047063 39.94182523933639  L 156.1403759047063 31.282245874207653  L 162.05627772081505 31.282245874207653  L 162.05627772081505 39.94182523933639  L 156.1403759047063 39.94182523933639  Z M 150.85142304815554 14.725081955995696  C 153.16182718051886 13.988012429085515  155.89965330454348 13.619462916078303  159.06490700310033 13.619462916078303  C 162.2299526466679 13.619462916078303  164.9647632760174 13.988012429085515  167.26933926334027 14.725081955995696  C 169.57412349174814 15.46160791209714  171.35117056385243 16.52021004528574  172.6004539610163 17.900856572342107  C 173.85036180229167 19.28095947999154  174.47532195713518 20.951321132205752  174.47532195713518 22.911947846750063  C 174.47532195713518 24.87246589573082  173.85036180229167 26.551722183948446  172.6004539610163 27.949762685295195  C 171.35117056385243 29.348020517769054  169.5733113701262 30.415345978324428  167.26686195742104 31.151763220264122  C 164.9608288407902 31.888397890527315  162.22112761652204 32.25673532101246  159.04775642365954 32.25673532101246  C 155.89395058800287 32.25673532101246  153.16182718051886 31.888397890527315  150.85142304815554 31.151763220264122  C 148.54101891579222 30.415345978324428  146.76118319966756 29.348020517769054  145.51189980250365 27.949762685295195  C 144.26240825730264 26.551722183948446  143.6376511328646 24.87246589573082  143.6376511328646 22.911947846750063  C 143.6376511328646 20.951321132205752  144.26240825730264 19.28095947999154  145.51189980250365 17.900856572342107  C 146.76118319966756 16.52021004528574  148.54101891579222 15.46160791209714  150.85142304815554 14.725081955995696  Z M 164.15343628268602 18.94038828791281  C 162.76823454345381 18.60501078491139  161.06799009600354 18.437318437144263  159.05273485574722 18.437318437144263  C 157.06495478420442 18.437318437144263  155.3698275962318 18.60501078491139  153.96734984905902 18.94038828791281  C 152.5654965459977 19.2752222444046  151.49897801205728 19.772039913114202  150.7677663328832 20.43083660431583  C 150.0367628017463 21.08963329551746  149.6712488003858 21.919917659106602  149.6712488003858 22.921701698837378  C 149.6712488003858 23.899025489558774  150.0367628017463 24.720031534396636  150.7677663328832 25.384698644538034  C 151.49897801205728 26.049583183002916  152.5654965459977 26.549419917367516  153.96734984905902 26.8842538738593  C 155.3698275962318 27.21908783035109  157.06495478420442 27.3865274918044  159.05273485574722 27.3865274918044  C 161.06799009600354 27.3865274918044  162.76823454345381 27.21908783035109  164.15343628268602 26.8842538738593  C 165.5386380219182 26.549419917367516  166.59674298329895 26.049583183002916  167.32774651443586 25.384698644538034  C 168.05895819360993 24.720031534396636  168.42454988992398 23.899025489558774  168.42454988992398 22.921701698837378  C 168.42454988992398 21.919917659106602  168.05895819360993 21.08963329551746  167.32774651443586 20.43083660431583  C 166.59674298329895 19.772039913114202  165.5386380219182 19.2752222444046  164.15343628268602 18.94038828791281  Z M 156.1403759047063 9.378876192016522  L 156.1403759047063 0.5894611121133139  L 162.05627772081505 0.5894611121133139  L 162.05627772081505 9.378876192016522  L 156.1403759047063 9.378876192016522  Z " fill-rule="nonzero" fill="#26262c" stroke="none" transform="matrix(1 0 0 1 110 503 )" />
  </g>
</svg>