<?xml version="1.0" encoding="utf-8"?>
<svg version="1.1" xmlns:xlink="http://www.w3.org/1999/xlink" width="541px" height="87px" xmlns="http://www.w3.org/2000/svg">
  <g transform="matrix(1 0 0 1 -107 -227 )">
    <path d="M 36.739870560869996 14.232834407861462  C 40.60262135105204 16.89863762092581  42.533993301568934 20.662931108346793  42.533993301568934 25.525721383492606  C 42.533993301568934 28.484534786706085  41.91938578511796 31.047814519232222  40.69016328897203 33.21555406770281  C 39.46115483483538 35.383293616173404  37.80053607506097 37.155593267301725  35.708310932635996 38.532473231686154  C 33.61587165251914 39.909353196070576  31.267489032458986 40.920067309120526  28.663155609211582 41.564582525070875  C 28.663155609211582 41.564582525070875  28.663155609211582 41.82813332557307  28.663155609211582 41.82813332557307  C 33.81347557994036 42.47264854152342  37.72744871839147 44.05445506545746  40.40506890087758 46.57359255229332  C 43.08247513703703 49.09294421400107  44.42117902057767 52.46186437453415  44.42117902057767 56.68035380017116  C 44.42117902057767 60.43002669168598  43.50680495251573 63.784182004364304  41.67806102642689 66.74278123270588  C 39.849102962646164 69.70159463591936  37.032462255928614 72.03055977894465  33.22814407313543 73.72969735130425  C 29.423975537951783 75.4286205572223  24.522435341162506 76.27808254332064  18.523517359080255 76.27808254332064  C 14.982680392623214 76.27808254332064  11.683262719280641 75.99245956634022  8.625274864140167 75.42122366978613  C 5.567287008999692 74.84998777323206  2.692196280657375 73.97856290114244  0 72.80695077764419  C 0 72.80695077764419  0 61.250365876017455  0 61.250365876017455  C 2.750714236938639 62.65638617079198  5.633124493946854 63.71827964916031  8.647234406964007 64.43607418450692  C 11.661322887075448 65.15365444919682  14.470576704566291 65.51244429418729  17.07499585943654 65.51244429418729  C 21.9326613673114 65.51244429418729  25.334494075581514 64.67028494325592  27.28048824329 62.98593175885568  C 29.226568142621336 61.30157857445544  30.19960101177351 58.93606998759016  30.19960101177351 55.88940714767777  C 30.19960101177351 54.10242013861927  29.745956913602832 52.59375596177971  28.83864824118191 51.363434636187826  C 27.931553515087657 50.13311331059594  26.358692840260026 49.19569508771723  24.12006545123811 48.551179871766884  C 21.881438062216187 47.90666465581654  18.757607172536893 47.584418254666055  14.748582541826936 47.584418254666055  C 14.748582541826936 47.584418254666055  10 47.584418254666055  10 47.584418254666055  L 10 37.17038541383202  C 10 37.17038541383202  14.83635947624883 37.17038541383202  14.83635947624883 37.17038541383202  C 18.78686615067753 37.17038541383202  21.793646201306384 36.7968061042864  23.856697905848343 36.04965696789296  C 25.919749610390298 35.302722102156245  27.324376614818334 34.277464308415766  28.070578632084608 32.97386366342761  C 28.816780649350882 31.670263018439446  29.189878452616426 30.18357408383377  29.189878452616426 28.513791112520984  C 29.189878452616426 26.22884752630467  28.487564998243712 24.441850555624214  27.08293808949829 23.15282012372352  C 25.67831118075287 21.864003962479547  23.33726646042065 21.219603400966434  20.059803545771178 21.219603400966434  C 18.011392046752395 21.219603400966434  16.14587537814901 21.475868663893184  14.463255453613328 21.988395406246042  C 12.780635529077644 22.50113641925562  11.266274152421397 23.11640052966411  9.920165295639853 23.834195065010725  C 8.57405643885831 24.551775329700618  7.388898561617154 25.247496539151097  6.364703432878003 25.92136635614826  C 6.364703432878003 25.92136635614826  0.0877769344218963 16.561867749683163  0.0877769344218963 16.561867749683163  C 2.6043975305993072 14.745526139577844  5.5526446984589946 13.23682508558011  8.932524753053535 12.035772633615386  C 12.312404807648077 10.834698821634367  16.34339472213876 10.234159664700437  21.025484545533658 10.234159664700437  C 27.638992629831 10.234159664700437  32.87711977068795 11.567052650598232  36.739870560869996 14.232834407861462  Z M 70.01171326690864 34.66572101426962  C 71.18228920933903 34.460667467986376  72.82106047063152 34.35813064941108  74.92805441601392 34.35813064941108  C 78.84923781358486 34.35813064941108  82.33882544927548 35.1050557450955  85.39679187151023 36.59892547656893  C 88.45497224007165 38.09300947869908  90.86194017697389 40.290116942307364  92.61769702177352 43.1902211434272  C 94.37345386657316 46.090325344547054  95.25132348617242 49.66429457342274  95.25132348617242 53.912138600106566  C 95.25132348617242 58.540520799760934  94.29296603374566 62.53178639502801  92.37625227708352 65.88592235917137  C 90.45953852042138 69.24027288132596  87.60640580398106 71.81093494199465  83.81685604141488 73.59792195105315  C 80.02709233252202 75.38469478523976  75.30841845272894 76.27808254332064  69.66080148721613 76.27808254332064  C 66.29547590652193 76.27808254332064  63.127710813341814 75.99245956634022  60.15750008398847 75.42122366978613  C 57.18728935463511 74.84998777323206  54.5902404402166 73.97856290114244  52.36638166278689 72.80695077764419  C 52.36638166278689 72.80695077764419  52.36638166278689 61.07455091141002  52.36638166278689 61.07455091141002  C 54.5902404402166 62.24616303490827  57.26048253627656 63.23478514402092  60.377095512226866 64.04042921185126  C 63.49349435048527 64.84607327968162  66.42709059636893 65.24889349368509  69.17791199783613 65.24889349368509  C 71.87008684558779 65.24889349368509  74.13793857564379 64.88999914744899  75.98145111332485 64.17220461210236  C 77.82517778869779 63.45462434741247  79.22253444532393 62.34150236610981  80.1735070178589 60.832848246677024  C 81.12447959039385 59.32419412724425  81.59995874830653 57.39804919822243  81.59995874830653 55.05439640991248  C 81.59995874830653 51.91988394173154  80.54646866476358 49.517727505565475  78.43947471938118 47.84794453425269  C 76.33269491169065 46.17816156293991  73.09921557277123 45.34328013469029  68.73903957310134 45.34328013469029  C 67.07103842118312 45.34328013469029  65.33710984265984 45.50440333526553  63.53726110941022 45.82666094324071  C 61.73762632248725 46.14891855121588  60.237971172358385 46.47118947328193  59.0382859950795 46.7934470812571  C 59.0382859950795 46.7934470812571  53.6390553565942 43.8934564809414  53.6390553565942 43.8934564809414  L 56.05340482449671 12  L 91 12  L 91 23  L 67.94891244218266 23  C 67.94891244218266 23  66.76356252993362 35.28087722307114  66.76356252993362 35.28087722307114  C 67.75862699091857 35.07582367678789  68.84135136648753 34.87077456055287  70.01171326690864 34.66572101426962  Z M 106.57600546418546 64.9413276497421  C 106.57600546418546 64.9413276497421  118.86639293671037 64.9413276497421  118.86639293671037 64.9413276497421  C 118.86639293671037 64.9413276497421  119.52488528443294 65.95181005929693  119.52488528443294 65.95181005929693  C 118.99813679808733 68.06105477211544  118.31782728327173 70.33143350919457  117.48393377615855 72.76293573420342  C 116.64982622703612 75.19443795921228  115.74261802136073 77.62583539562102  114.762322171968 80.05712344575797  C 113.78202632257526 82.48862567076682  112.79445916855448 84.80290585048259  111.79960874957881 87  C 111.79960874957881 87  102.14282324670343 87  102.14282324670343 87  C 102.72800419691397 84.62720697708478  103.29864057637484 82.1372231347299  103.8547122917369 79.53002184475358  C 104.41056996508969 76.92282055477726  104.92992821331707 74.35954082225112  105.41279880538066 71.84018916054337  C 105.89566939744425 69.3208374988356  106.28341498908017 67.0212177615138  106.57600546418546 64.9413276497421  Z M 170.7059537770949 25.4158063794685  C 172.31552251298945 30.352090053097648  173.1203032449974 36.30624076326  173.1203032449974 43.27827575122432  C 173.1203032449974 48.46332373013013  172.71791287899345 53.09182853436233  171.91312851104615 57.16375912963715  C 171.10834414309883 61.235689724911964  169.82081400105898 64.69233288617306  168.05050249099378 67.53372788519927  C 166.27997703460193 70.37533725066703  163.9608715723792 72.54320371403264  161.0931853388647 74.0372877161628  C 158.22528496765833 75.53115744763622  154.7429674884044 76.27808254332064  150.64627270507063 76.27808254332064  C 145.49586700271902 76.27808254332064  141.26734147819406 74.96718941635712  137.96066245121537 72.345418104863  C 134.65398342423669 69.72364679336887  132.2105111345544 65.94473271004172  130.63026577120021 61.00866321128447  C 129.050020407846 56.072593712527215  128.25990887319355 50.162461494059386  128.25990887319355 43.27827575122432  C 128.25990887319355 36.33538080629562  128.98420177237395 30.39590318212431  130.43281359640602 25.459833683367055  C 131.88121137842884 20.5237641846098  134.24419583528365 16.737489228941218  137.5217655317312 14.100997705321447  C 140.7991212818521 11.464527637502796  145.173953178994 10.146288963770067  150.64627270507063 10.146288963770067  C 155.76735513056448 10.146288963770067  159.98853069935203 11.457203546534707  163.30976420023106 14.07903922543219  C 166.63121203016718 16.700810536926316  169.0965991788922 20.479736880711243  170.7059537770949 25.4158063794685  Z M 142.54759821058838 31.01845551208339  C 142.00629515465982 34.299526427487216  141.7356462579675 38.38613087503169  141.7356462579675 43.27827575122432  C 141.7356462579675 48.170420627416945  142.00629515465982 52.24964236367957  142.54759821058838 55.51592908269369  C 143.0891153085262 58.782215801707814  144.00359376632088 61.23557612410782  145.29103463648119 62.87600449437379  C 146.57868954865074 64.51643286463975  148.3637673739254 65.33665385049542  150.64627270507063 65.33665385049542  C 152.8994547593581 65.33665385049542  154.67715794278075 64.52381538435196  155.97936752021587 62.89817140204535  C 157.281577097651 61.27231324486685  158.21072480064242 58.82615076903369  158.7667965160045 55.55964987514767  C 159.32265418935728 52.29336315613355  159.60057329032762 48.19956105359187  159.60057329032762 43.27827575122432  C 159.60057329032762 38.38613087503169  159.32265418935728 34.299526427487216  158.7667965160045 31.01845551208339  C 158.21072480064242 27.737598771551454  157.281577097651 25.269565554730047  155.97936752021587 23.61435279650473  C 154.67715794278075 21.959140038279404  152.8994547593581 21.131536532711536  150.64627270507063 21.131536532711536  C 148.3637673739254 21.131536532711536  146.57868954865074 21.959140038279404  145.29103463648119 23.61435279650473  C 144.00359376632088 25.269565554730047  143.0891153085262 27.737598771551454  142.54759821058838 31.01845551208339  Z M 222.10662994536992 25.4158063794685  C 223.7159845435726 30.352090053097648  224.5206854762798 36.30624076326  224.5206854762798 43.27827575122432  C 224.5206854762798 48.46332373013013  224.1183995000086 53.09182853436233  223.31382917407055 57.16375912963715  C 222.50904480612326 61.235689724911964  221.22138568391867 64.69233288617306  219.4508602275268 67.53372788519927  C 217.6805487174616 70.37533725066703  215.36154774065423 72.54320371403264  212.49386150713974 74.0372877161628  C 209.62596113593338 75.53115744763622  206.14355141863876 76.27808254332064  202.04664268897835 76.27808254332064  C 196.8964509329534 76.27808254332064  192.6680053990944 74.96718941635712  189.3613263721157 72.345418104863  C 186.05464734513706 69.72364679336887  183.61119955020413 65.94473271004172  182.03095418684993 61.00866321128447  C 180.45070882349575 56.072593712527215  179.66057279409387 50.162461494059386  179.66057279409387 43.27827575122432  C 179.66057279409387 36.33538080629562  180.38478579829098 30.39590318212431  181.83318358031374 25.459833683367055  C 183.28179540434584 20.5237641846098  185.64488425093336 16.737489228941218  188.92245394738094 14.100997705321447  C 192.19980969750185 11.464527637502796  196.57453749195886 10.146288963770067  202.04664268897835 10.146288963770067  C 207.1677251144722 10.146288963770067  211.38899253856994 11.457203546534707  214.71044036850606 14.07903922543219  C 218.0316738693851 16.700810536926316  220.49706120947533 20.479736880711243  222.10662994536992 25.4158063794685  Z M 193.94828662623812 31.01845551208339  C 193.40698357030956 34.299526427487216  193.1363346736172 38.38613087503169  193.1363346736172 43.27827575122432  C 193.1363346736172 48.170420627416945  193.40698357030956 52.24964236367957  193.94828662623812 55.51592908269369  C 194.48958968216667 58.782215801707814  195.40406813996134 61.23557612410782  196.69172305213087 62.87600449437379  C 197.97916392229118 64.51643286463975  199.7641373578331 65.33665385049542  202.04664268897835 65.33665385049542  C 204.30003888095771 65.33665385049542  206.07783411105578 64.52381538435196  207.3800436884909 62.89817140204535  C 208.68225326592602 61.27231324486685  209.6112965791847 58.82615076903369  210.16715425253753 55.55964987514767  C 210.72322596789957 52.29336315613355  211.00124945860264 48.19956105359187  211.00124945860264 43.27827575122432  C 211.00124945860264 38.38613087503169  210.72322596789957 34.299526427487216  210.16715425253753 31.01845551208339  C 209.6112965791847 27.737598771551454  208.68225326592602 25.269565554730047  207.3800436884909 23.61435279650473  C 206.07783411105578 21.959140038279404  204.30003888095771 21.131536532711536  202.04664268897835 21.131536532711536  C 199.7641373578331 21.131536532711536  197.97916392229118 21.959140038279404  196.69172305213087 23.61435279650473  C 195.40406813996134 25.269565554730047  194.48958968216667 27.737598771551454  193.94828662623812 31.01845551208339  Z M 273.507342855769 25.4158063794685  C 275.1166974539717 30.352090053097648  275.92134939718017 36.30624076326  275.92134939718017 43.27827575122432  C 275.92134939718017 48.46332373013013  275.51898352592553 53.09182853436233  274.7141991579783 57.16375912963715  C 273.90962883204026 61.235689724911964  272.622049604819 64.69233288617306  270.85152414842713 67.53372788519927  C 269.08121263836193 70.37533725066703  266.76213186225385 72.54320371403264  263.89423149104744 74.0372877161628  C 261.026545257533 75.53115744763622  257.5442275869138 76.27808254332064  253.4473188572534 76.27808254332064  C 248.29712710122843 76.27808254332064  244.0685770819541 74.96718941635712  240.76168410864875 72.345418104863  C 237.45500508167007 69.72364679336887  235.01153279198778 65.94473271004172  233.43128742863357 61.00866321128447  C 231.85125610728866 56.072593712527215  231.0612734571183 50.162461494059386  231.0612734571183 43.27827575122432  C 231.0612734571183 36.33538080629562  231.785461966566 30.39590318212431  233.23385974858877 25.459833683367055  C 234.68247157262087 20.5237641846098  237.04543143904365 16.737489228941218  240.32278718916456 14.100997705321447  C 243.60035688561214 11.464527637502796  247.97521366023386 10.146288963770067  253.4473188572534 10.146288963770067  C 258.56840128274723 10.146288963770067  262.7895768515348 11.457203546534707  266.1108103524138 14.07903922543219  C 269.4322581823499 16.700810536926316  271.89777411987444 20.479736880711243  273.507342855769 25.4158063794685  Z M 245.3489627945131 31.01845551208339  C 244.80744569657534 34.299526427487216  244.53666791540084 38.38613087503169  244.53666791540084 43.27827575122432  C 244.53666791540084 48.170420627416945  244.80744569657534 52.24964236367957  245.3489627945131 55.51592908269369  C 245.89026585044166 58.782215801707814  246.80463991850363 61.23557612410782  248.0920807886639 62.87600449437379  C 249.3797357008335 64.51643286463975  251.16481352610813 65.33665385049542  253.4473188572534 65.33665385049542  C 255.70050091154087 65.33665385049542  257.47820409496353 64.52381538435196  258.78041367239865 62.89817140204535  C 260.0826232498338 61.27231324486685  261.0117464580758 58.82615076903369  261.56781817343784 55.55964987514767  C 262.1238898887999 52.29336315613355  262.40196236900175 48.19956105359187  262.40196236900175 43.27827575122432  C 262.40196236900175 38.38613087503169  262.1238898887999 34.299526427487216  261.56781817343784 31.01845551208339  C 261.0117464580758 27.737598771551454  260.0826232498338 25.269565554730047  258.78041367239865 23.61435279650473  C 257.47820409496353 21.959140038279404  255.70050091154087 21.131536532711536  253.4473188572534 21.131536532711536  C 251.16481352610813 21.131536532711536  249.3797357008335 21.959140038279404  248.0920807886639 23.61435279650473  C 246.80463991850363 25.269565554730047  245.89026585044166 27.737598771551454  245.3489627945131 31.01845551208339  Z M 304 61  L 304 43  L 316 43  L 316 61  L 304 61  Z M 341 63  L 341 0  L 353 0  L 353 63  L 341 63  Z M 292.9871842203466 82  L 292.9871842203466 72  L 354.80904128818656 72  L 354.80904128818656 82  L 292.9871842203466 82  Z M 293 75  L 293 57  L 305 57  L 305 75  L 293 75  Z M 300.26330053572417 46.13650723233131  C 294.4331088938251 46.27235252985738  289.02104645123603 46.36372658775389  284.02710287423474 46.41065106835797  C 284.02710287423474 46.41065106835797  282.57622987865005 36.88273055332855  282.57622987865005 36.88273055332855  C 287.6431605369405 36.83580607272447  293.16846373685917 36.767360040703444  299.15212072461355 36.677367885464214  C 305.1357777123679 36.587375730224984  311.24261037471035 36.365711502616165  317.4726256007892 36.012385176232804  C 323.7037109412318 35.65884457919273  329.71197213928264 35.12210745568127  335.4974298623866 34.40217021376742  C 335.4974298623866 34.40217021376742  336.27763661980424 42.91928954733967  336.27763661980424 42.91928954733967  C 330.38301957698695 43.91284572443135  324.3642336740401 44.663188566399995  318.2213321104975 45.17035863811962  C 312.0795006613186 45.67752870983925  306.0934921776233 45.99959060546782  300.26330053572417 46.13650723233131  Z M 325.3231437892499 56  L 325.3231437892499 48  L 343.65231980670785 48  L 343.65231980670785 56  L 325.3231437892499 56  Z M 298.5311788276985 4.742872270128043  C 301.67197807228393 3.492367070126155  305.2772563229732 2.8671203129996226  309.3469823872338 2.8671203129996226  C 313.4289083676101 2.8671203129996226  317.0248841631246 3.492367070126155  320.13486193247 4.742872270128043  C 323.2469801219081 5.993398925931051  325.67841735662006 7.740748258116599  327.4292513308889 9.984916818430934  C 329.18008530515783 12.228164120284674  330.05552937047224 14.823407824099213  330.05552937047224 17.770650803419343  C 330.05552937047224 20.717036700112587  329.18008530515783 23.315556819699964  327.4292513308889 25.566217675549673  C 325.67841735662006 27.816878531399382  323.2469801219081 29.55255485414248  320.13486193247 30.77323409596669  C 317.0248841631246 31.992627809635398  313.4289083676101 32.60232275077322  309.3469823872338 32.60232275077322  C 305.2772563229732 32.60232275077322  301.67197807228393 31.992627809635398  298.5311788276985 30.77323409596669  C 295.3914496974768 29.55255485414248  292.94555194919235 27.816878531399382  291.1934337228678 25.566217675549673  C 289.44238561090697 23.315556819699964  288.5668617462918 20.717036700112587  288.5668617462918 17.770650803419343  C 288.5668617462918 14.823407824099213  289.44238561090697 12.228164120284674  291.1934337228678 9.984916818430934  C 292.94555194919235 7.740748258116599  295.3914496974768 5.993398925931051  298.5311788276985 4.742872270128043  Z M 314.24054341941087 12.317701860334221  C 312.85849760775494 11.848992748894867  311.2273095764147 11.614638169228984  309.3469823872338 11.614638169228984  C 306.5488585628601 11.614638169228984  304.276211220151 12.126461803063437  302.52901586435723 13.15010112059175  C 300.7816065622368 14.17371898231894  299.9078817221448 15.713901539434353  299.9078817221448 17.770650803419343  C 299.9078817221448 19.780475464075945  300.7816065622368 21.305625837886026  302.52901586435723 22.34610652252126  C 304.276211220151 23.38573012452961  306.5488585628601 23.905538668849687  309.3469823872338 23.905538668849687  C 312.13097963036057 23.905538668849687  314.38489269982495 23.38573012452961  316.1087579550208 22.34610652252126  C 317.833907270907 21.305625837886026  318.69648125907173 19.780475464075945  318.69648125907173 17.770650803419343  C 318.69648125907173 16.40576980424171  318.29935310199187 15.27294086117984  317.5050566489752 14.372162250106857  C 316.71097423796783 13.471233639995685  315.6228032730761 12.786410971773572  314.24054341941087 12.317701860334221  Z M 442 48  L 442 0  L 454 0  L 454 48  L 442 48  Z M 451.1456168932454 29  L 451.1456168932454 19  L 465.46157317143076 19  L 465.46157317143076 29  L 451.1456168932454 29  Z M 391 44  L 391 5  L 403 5  L 403 16  L 419 16  L 419 5  L 431 5  L 431 44  L 391 44  Z M 419 25  L 403 25  L 403 36  L 419 36  L 419 25  Z M 400 79  L 400 52  L 454.9373061190782 52  L 454.9373061190782 61  L 412 61  L 412 79  L 400 79  Z M 400.33179817811583 82  L 400.33179817811583 73  L 456.53617639044825 73  L 456.53617639044825 82  L 400.33179817811583 82  Z M 529 83  L 529 0  L 541 0  L 541 83  L 529 83  Z M 504.4315436953277 10.793432706927286  C 504.4315436953277 10.793432706927286  504.4315436953277 8.627990653303426  504.4315436953277 8.627990653303426  C 504.4315436953277 8.627990653303426  516.2849448388205 8.627990653303426  516.2849448388205 8.627990653303426  C 516.2849448388205 15.01085547273718  515.6695942511831 21.086214217959654  514.4388735566548 26.85406842152807  C 513.2081528621266 32.622136799968374  511.15980068632894 38.05970001795382  508.2938267888887 43.166754627230645  C 505.42785289144837 48.273809236507475  501.5323562572777 53.00965166665422  496.6073328677067 57.374271189770326  C 491.6823094781357 61.737819072248335  485.51906579068964 65.70678366108685  478.117618262778 69.28118641208695  C 478.117618262778 69.28118641208695  471.8505876430736 59.81241034540246  471.8505876430736 59.81241034540246  C 479.86204475506514 55.95217571071549  486.24895727102637 51.65324388900734  491.0113114126607 46.91558576169081  C 495.77366555429495 42.17771307636306  499.2014996304026 36.83012897490735  501.2947950785566 30.872862575910908  C 503.3859501066178 24.914739094287572  504.4315436953277 18.22159886974081  504.4315436953277 10.793432706927286  Z M 476.3101017161447 19  L 476.3101017161447 9  L 510.05965327206843 9  L 510.05965327206843 19  L 476.3101017161447 19  Z " fill-rule="nonzero" fill="#4c4c57" stroke="none" transform="matrix(1 0 0 1 107 227 )" />
  </g>
</svg>