<?xml version="1.0" encoding="utf-8"?>
<svg version="1.1" xmlns:xlink="http://www.w3.org/1999/xlink" width="189px" height="30px" xmlns="http://www.w3.org/2000/svg">
  <g transform="matrix(1 0 0 1 -55 -102 )">
    <path d="M 12.835185833649591 4.907873933745332  C 14.1846496032326 5.8271164210089  14.859380284651625 7.125148658050618  14.859380284651625 8.801972890859519  C 14.859380284651625 9.822253374726236  14.644665274283353 10.706142937666282  14.215232646239768 11.453639333690624  C 13.78587479442493 12.201135729714968  13.205732565963999 12.81227354044887  12.474807331364516 13.28705973506419  C 11.743807287109274 13.76184592967951  10.923392656441308 14.110368037627769  10.013560832053583 14.332614663817543  C 10.013560832053583 14.332614663817543  10.013560832053583 14.423494250197612  10.013560832053583 14.423494250197612  C 11.812840821827592 14.645740876387388  13.180199275001826 15.191191401881882  14.115634052247435 16.0598595007908  C 15.05099408669131 16.92860145310382  15.518674371329352 18.09029806018419  15.518674371329352 19.54494958626592  C 15.518674371329352 20.83794023851241  15.199235001895513 21.99454551874631  14.560357733816419 23.014752149208924  C 13.92140565608156 24.03503263307564  12.937403634695949 24.838124061705052  11.608353474718294 25.424033569415258  C 10.27935559458944 26.009869157662866  8.566987577596514 26.302787083903667  6.471247284410663 26.302787083903667  C 5.234245090953396 26.302787083903667  4.081583463852202 26.20429640218628  3.0132660800785422 26.007318506822802  C 1.9449486963048832 25.810340611459328  0.9405269815974933 25.509849276256016  0 25.105845095739376  C 0 25.105845095739376  0 21.120815819316363  0 21.120815819316363  C 0.9609704080987111 21.605650403721373  1.9679492224694184 21.97182056867597  3.020937713338627 22.219335925692043  C 4.073918716556857 22.466777396274765  5.0553401056617915 22.590498032478376  5.9652018806534315 22.590498032478376  C 7.66224214126036 22.590498032478376  8.850682773169883 22.300098256295147  9.5305217707612 21.71928681339851  C 10.210390718956436 21.138475370501876  10.550322719455071 20.322782754341436  10.550322719455071 19.272209361268196  C 10.550322719455071 18.656006944351475  10.39184077018657 18.135777917855073  10.074869718268728 17.711529184892353  C 9.75797340915262 17.287280451929632  9.208489735321894 16.96403278886801  8.42641842936045 16.741786162678235  C 7.644347123399001 16.519539536488463  6.553027274694035 16.40842008781588  5.152462292800907 16.40842008781588  C 5.152462292800907 16.40842008781588  3.450305292414334 16.40842008781588  3.450305292414334 16.40842008781588  L 3.450305292414334 12.817374280631732  C 3.450305292414334 12.817374280631732  5.183127432552734 12.817374280631732  5.183127432552734 12.817374280631732  C 6.563248987944645 12.817374280631732  7.613676769033099 12.688553829064274  8.334410174131861 12.430916195825159  C 9.055143579230622 12.173352449019395  9.545854307210101 11.819815278764057  9.806542257789262 11.370297814975036  C 10.067230208368422 10.920780351186016  10.197573063853058 10.408128994425438  10.197573063853058 9.83234176293827  C 10.197573063853058 9.044430181484369  9.952217716576824 8.428224329525591  9.461507022024357 7.983731077146041  C 8.97079632747189 7.5393117111998444  8.152945214453794 7.317104621022908  7.00795354926202 7.317104621022908  C 6.2923347446140525 7.317104621022908  5.640610806784036 7.405471953066615  5.052782404312235 7.582205312498635  C 4.464954001840434 7.759012558364007  3.9359072362433345 7.9711725964359  3.4656400016190982 8.218687953451974  C 2.9953727669948624 8.466129424034696  2.5813342479586727 8.706033289362447  2.2235285560331657 8.938402191775262  C 2.2235285560331657 8.938402191775262  0.030665139751826987 5.710988879201091  0.030665139751826987 5.710988879201091  C 0.9098542204866342 5.0846641860613255  1.9398333604597966 4.564422443303486  3.120604765854192 4.150266425384616  C 4.301376171248589 3.736103041942885  5.709614792022599 3.529020574034633  7.345317151766841 3.529020574034633  C 9.655766371604546 3.529020574034633  11.485722064066584 3.988638845033873  12.835185833649591 4.907873933745332  Z M 24.458805559049413 11.953696901472284  C 24.86774983468591 11.882988782064269  25.44025957291933 11.847631258417614  26.176344333875477 11.847631258417614  C 27.546221713063844 11.847631258417614  28.765319796512134 12.105191636239828  29.833629692634815 12.620319129851353  C 30.90201433155923 13.135520509896233  31.742895921345774 13.893143773209434  32.356274929972635 14.89317970463007  C 32.96965393859949 15.893215636050707  33.276340367627704 17.125618818421636  33.276340367627704 18.5903926207264  C 33.276340367627704 20.186386482676184  32.941535268720756 21.56268496380276  32.27192547203103 22.719283572128063  C 31.602315675341295 23.87595616597447  30.605565059061778 24.7623913593085  29.281674291732738 25.378593776225223  C 27.95770878160196 25.994722339737848  26.30922567017702 26.302787083903667  24.33621345856534 26.302787083903667  C 23.160526703017826 26.302787083903667  22.05385830632459 26.20429640218628  21.016206129156785 26.007318506822802  C 19.978553951988978 25.810340611459328  19.0712669929777 25.509849276256016  18.294355146518896 25.105845095739376  C 18.294355146518896 25.105845095739376  18.294355146518896 21.06018996945173  18.294355146518896 21.06018996945173  C 19.0712669929777 21.46419414996837  20.004124213227858 21.805098325524455  21.092922461757627 22.0829066247763  C 22.18164590063164 22.360714924028144  23.206506696328518 22.499618446098307  24.167514542682124 22.499618446098307  C 25.108034036628634 22.499618446098307  25.90031495526188 22.375861774982408  26.544351682843615 22.128346417966334  C 27.188463220081115 21.88090494738361  27.67663402988211 21.497069781417174  28.00885919847566 20.976844222992078  C 28.3410843670692 20.45661866456698  28.507194461053487 19.792430758007736  28.507194461053487 18.98427462410775  C 28.507194461053487 17.9034082557695  28.139154487320365 17.07507845019499  27.40306972636422 16.499291218707825  C 26.66705977506383 15.92350398722066  25.53743390619919 15.635613839548375  24.01419312258069 15.635613839548375  C 23.431471832908706 15.635613839548375  22.825718595679685 15.691173563884664  22.196935951346635 15.802296876979554  C 21.568228049815325 15.91342019007444  21.044318949308195 16.024548094235147  20.625205273696903 16.135671407330033  C 20.625205273696903 16.135671407330033  18.738967582987623 15.135674648600483  18.738967582987623 15.135674648600483  L 19.582427933142103 4  L 31.742860889835836 4  L 31.742860889835836 7.817157961060504  L 23.738159799579524 7.817157961060504  C 23.738159799579524 7.817157961060504  23.324054192527644 12.165819732093496  23.324054192527644 12.165819732093496  C 23.671682996827375 12.09511161268548  24.049936059641666 12.024405020880298  24.458805559049413 11.953696901472284  Z M 37.232652555879945 22.39356125853176  C 37.232652555879945 22.39356125853176  41.52633690395242 22.39356125853176  41.52633690395242 22.39356125853176  C 41.52633690395242 22.39356125853176  41.7563832139701 22.74200346872308  41.7563832139701 22.74200346872308  C 41.57236202373107 23.469329231763943  41.334693819849086 24.252218451446403  41.043370579840975 25.090667494552903  C 40.75197256360411 25.929116537659404  40.43503661005023 26.76752944676587  40.092567265253145 27.605904636468267  C 39.75009792045605 28.444353679574768  39.40508832321035 29.242381327752618  39.05753429513936 30  C 39.05753429513936 30  35.68390682740656 30  35.68390682740656 30  C 35.888341577110424 29.18179550933958  36.0876951366633 28.32318039128617  36.28196048639237 27.42414546370813  C 36.4761510598927 26.52511053613009  36.65759044790559 25.641220973190045  36.82628276195369 24.772479020877025  C 36.99497507600178 23.903737068564002  37.13043518102801 23.110764745349584  37.232652555879945 22.39356125853176  Z M 59.63664558941023 8.764071165333965  C 60.19895333633088 10.466237949344016  60.4801059395647 12.519393366641381  60.4801059395647 14.923543362491145  C 60.4801059395647 16.71149094142418  60.3395296379478 18.307527080814594  60.05837576448747 19.711641079185224  C 59.77722189102713 21.11575507755585  59.32741930905757 22.307700995232093  58.708955583729804 23.287492374206646  C 58.0904171156003 24.267357672643804  57.28023054931547 25.01489783242505  56.2783956174592 25.530099212469928  C 55.27648587594718 26.045226706081454  54.05992764382334 26.302787083903667  52.62873482672523 26.302787083903667  C 50.82942488634731 26.302787083903667  49.35217659774247 25.850754971157624  48.196978194602046 24.94669589822862  C 47.041779791461614 24.04263682529961  46.188145294696454 22.739563003462663  45.63608175740636 21.037470072856713  C 45.084018220116256 19.335377142250763  44.80799034571826 17.29740051519289  44.80799034571826 14.923543362491145  C 44.80799034571826 12.529441657343316  45.061024279073344 10.481345924870451  45.567101237931126 8.779252994264501  C 46.073103420560166 7.077160063658551  46.8986192474466 5.771548009979731  48.04364821718521 4.862413001834982  C 49.18860244412209 3.9532853922423437  50.716963310221566 3.4987203323345053  52.62873482672523 3.4987203323345053  C 54.41780059089961 3.4987203323345053  55.8924811500509 3.9507598436326576  57.05276420303821 4.854841112217997  C 58.2131221325353 5.758900185147005  59.074412652145334 7.061978234728015  59.63664558941023 8.764071165333965  Z M 49.799438191869136 10.69601914209772  C 49.61033231835621 11.827422906030073  49.515780300842614 13.236596853459204  49.515780300842614 14.923543362491145  C 49.515780300842614 16.610489871523086  49.61033231835621 18.01711805644123  49.799438191869136 19.143423821618512  C 49.988618841610815 20.269729586795798  50.30809467991617 21.115715904864764  50.75786607448234 21.68138086012889  C 51.20771224527724 22.24704581539302  51.831334627859334 22.52988063810187  52.62873482672523 22.52988063810187  C 53.41589084938758 22.52988063810187  54.036936878346694 22.249591511845505  54.491867765842514 21.68902462139495  C 54.946798653338334 21.128383877540294  55.271399237193016 20.28487957552886  55.46566458692208 19.158499956947473  C 55.65985516042242 18.03219419177019  55.756947045973966 16.620538294342026  55.756947045973966 14.923543362491145  C 55.756947045973966 13.236596853459204  55.65985516042242 11.827422906030073  55.46566458692208 10.69601914209772  C 55.271399237193016 9.564689231569467  54.946798653338334 8.7136432947345  54.491867765842514 8.142880274656804  C 54.036936878346694 7.572117254579105  53.41589084938758 7.286736735417771  52.62873482672523 7.286736735417771  C 51.831334627859334 7.286736735417771  51.20771224527724 7.572117254579105  50.75786607448234 8.142880274656804  C 50.30809467991617 8.7136432947345  49.988618841610815 9.564689231569467  49.799438191869136 10.69601914209772  Z M 77.5936285761089 8.764071165333965  C 78.1558615133738 10.466237949344016  78.43698623847853 12.519393366641381  78.43698623847853 14.923543362491145  C 78.43698623847853 16.71149094142418  78.29644640573312 18.307527080814594  78.01536730850154 19.711641079185224  C 77.73421343504121 21.11575507755585  77.28436579345772 22.307700995232093  76.66582732532822 23.287492374206646  C 76.04736360000045 24.267357672643804  75.23721353601414 25.01489783242505  74.23537860415789 25.530099212469928  C 73.23346886264585 26.045226706081454  72.0168784068812 26.302787083903667  70.58561084698135 26.302787083903667  C 68.78637564940516 26.302787083903667  67.30915530578343 25.850754971157624  66.15395690264302 24.94669589822862  C 64.9987584995026 24.04263682529961  64.14513256005283 22.739563003462663  63.59306902276273 21.037470072856713  C 63.04100548547264 19.335377142250763  62.76496905375922 17.29740051519289  62.76496905375922 14.923543362491145  C 62.76496905375922 12.529441657343316  63.01797507555821 10.481345924870451  63.523977258187244 8.779252994264501  C 64.03005421704503 7.077160063658551  64.85560651280296 5.771548009979731  66.00063548254158 4.862413001834982  C 67.14558970947847 3.9532853922423437  68.67391420698748 3.4987203323345053  70.58561084698135 3.4987203323345053  C 72.37467661115572 3.4987203323345053  73.84938926023978 3.9507598436326576  75.00974718973687 4.854841112217997  C 76.17003024272418 5.758900185147005  77.03132082918825 7.061978234728015  77.5936285761089 8.764071165333965  Z M 67.75642545722552 10.69601914209772  C 67.56731958371259 11.827422906030073  67.47276756619898 13.236596853459204  67.47276756619898 14.923543362491145  C 67.47276756619898 16.610489871523086  67.56731958371259 18.01711805644123  67.75642545722552 19.143423821618512  C 67.94553133073845 20.269729586795798  68.2650071690438 21.115715904864764  68.7148533398387 21.68138086012889  C 69.16462473440487 22.24704581539302  69.78821064811544 22.52988063810187  70.58561084698135 22.52988063810187  C 71.37284167929946 22.52988063810187  71.99391986504537 22.249591511845505  72.44885075254119 21.68902462139495  C 72.90378164003701 21.128383877540294  73.22834575502017 20.28487957552886  73.4225363285205 19.158499956947473  C 73.61680167824957 18.03219419177019  73.71393003267265 16.620538294342026  73.71393003267265 14.923543362491145  C 73.71393003267265 13.236596853459204  73.61680167824957 11.827422906030073  73.4225363285205 10.69601914209772  C 73.22834575502017 9.564689231569467  72.90378164003701 8.7136432947345  72.44885075254119 8.142880274656804  C 71.99391986504537 7.572117254579105  71.37284167929946 7.286736735417771  70.58561084698135 7.286736735417771  C 69.78821064811544 7.286736735417771  69.16462473440487 7.572117254579105  68.7148533398387 8.142880274656804  C 68.2650071690438 8.7136432947345  67.94553133073845 9.564689231569467  67.75642545722552 10.69601914209772  Z M 95.55062439878068 8.764071165333965  C 96.11285733604556 10.466237949344016  96.39396494651949 12.519393366641381  96.39396494651949 14.923543362491145  C 96.39396494651949 16.71149094142418  96.25339720221798 18.307527080814594  95.97224332875767 19.711641079185224  C 95.69116423152609 21.11575507755585  95.24134450149867 22.307700995232093  94.62280603336917 23.287492374206646  C 94.00434230804142 24.267357672643804  93.19416436592601 25.01489783242505  92.19225462441399 25.530099212469928  C 91.19041969255773 26.045226706081454  89.97386139357987 26.302787083903667  88.54259383368002 26.302787083903667  C 86.74335863610384 26.302787083903667  85.26610179018358 25.850754971157624  84.11082864424144 24.94669589822862  C 82.955630241101 24.04263682529961  82.10199574433584 22.739563003462663  81.54993220704574 21.037470072856713  C 80.99794344598439 19.335377142250763  80.7219605977733 17.29740051519289  80.7219605977733 14.923543362491145  C 80.7219605977733 12.529441657343316  80.97495806225689 10.481345924870451  81.48096024488592 8.779252994264501  C 81.98703720374371 7.077160063658551  82.8125444398877 5.771548009979731  83.95749866682459 4.862413001834982  C 85.10252763656321 3.9532853922423437  86.63089719368614 3.4987203323345053  88.54259383368002 3.4987203323345053  C 90.3316595978544 3.4987203323345053  91.80634015700569 3.9507598436326576  92.96662320999299 4.854841112217997  C 94.12698113949008 5.758900185147005  94.98831665186002 7.061978234728015  95.55062439878068 8.764071165333965  Z M 85.71340844392418 10.69601914209772  C 85.52422779418251 11.827422906030073  85.429630750482 13.236596853459204  85.429630750482 14.923543362491145  C 85.429630750482 16.610489871523086  85.52422779418251 18.01711805644123  85.71340844392418 19.143423821618512  C 85.90251431743711 20.269729586795798  86.22195368687096 21.115715904864764  86.67172508143712 21.68138086012889  C 87.12157125223203 22.24704581539302  87.74519363481411 22.52988063810187  88.54259383368002 22.52988063810187  C 89.32974985634237 22.52988063810187  89.95079588530149 22.249591511845505  90.40572677279731 21.68902462139495  C 90.86065766029313 21.128383877540294  91.18524968683239 20.28487957552886  91.37951503656147 19.158499956947473  C 91.57378038629054 18.03219419177019  91.67092585534442 16.620538294342026  91.67092585534442 14.923543362491145  C 91.67092585534442 13.236596853459204  91.57378038629054 11.827422906030073  91.37951503656147 10.69601914209772  C 91.18524968683239 9.564689231569467  90.86065766029313 8.7136432947345  90.40572677279731 8.142880274656804  C 89.95079588530149 7.572117254579105  89.32974985634237 7.286736735417771  88.54259383368002 7.286736735417771  C 87.74519363481411 7.286736735417771  87.12157125223203 7.572117254579105  86.67172508143712 8.142880274656804  C 86.22195368687096 8.7136432947345  85.90251431743711 9.564689231569467  85.71340844392418 10.69601914209772  Z M 106.39604613995803 21.036582246603466  L 106.39604613995803 14.764284243634744  L 110.5680454629793 14.764284243634744  L 110.5680454629793 21.036582246603466  L 106.39604613995803 21.036582246603466  Z M 119 21.7698168104405  L 119 0.006793984709377122  L 123 0.006793984709377122  L 123 21.7698168104405  L 119 21.7698168104405  Z M 102.35596639121165 28  L 102.35596639121165 25  L 123.95362070881194 25  L 123.95362070881194 28  L 102.35596639121165 28  Z M 102.35596639121165 25.835426888705907  L 102.35596639121165 19.70765008878967  L 106.5280684020178 19.70765008878967  L 106.5280684020178 25.835426888705907  L 102.35596639121165 25.835426888705907  Z M 104.8978998174711 15.909140424941832  C 102.86110458582799 15.955983630985305  100.97038406521924 15.987491926811687  99.22573464552747 16.003672782192403  C 99.22573464552747 16.003672782192403  98.71886773949142 12.718182949423639  98.71886773949142 12.718182949423639  C 100.48901541863542 12.702002094042921  102.4192969431911 12.67840001403567  104.50970576146388 12.64736823636697  C 106.60011457973665 12.616336458698271  108.73355519560121 12.539900518143504  110.9100300158025 12.418063853873381  C 113.08687868372054 12.296153303169907  115.18588305790097 12.111071536441816  117.20705035857868 11.862817315092215  C 117.20705035857868 11.862817315092215  117.47961796884104 14.799755016324024  117.47961796884104 14.799755016324024  C 115.42031552689564 15.142360594631498  113.31763431496042 15.401099505655171  111.17159291845475 15.575985737282629  C 109.02592536966584 15.750871968910086  106.93469504911424 15.861927794988905  104.8978998174711 15.909140424941832  Z M 113.65263248829618 19.514585928404845  L 113.65263248829618 16.695568464580596  L 120.05598603228796 16.695568464580596  L 120.05598603228796 19.514585928404845  L 113.65263248829618 19.514585928404845  Z M 104.29277781596122 1.6354731965958769  C 105.39002561120456 1.2042645069400533  106.64954056384832 0.9886621768964216  108.07131177668612 0.9886621768964216  C 109.49734506742757 0.9886621768964216  110.75361017898439 1.2042645069400533  111.84009039784996 1.6354731965958769  C 112.92731837900303 2.0666892848038105  113.77674839260848 2.669223537281586  114.38840758140113 3.4430747649761844  C 115.00006677019378 4.216608317339543  115.30590582443484 5.111519939344556  115.30590582443484 6.127810621868739  C 115.30590582443484 7.1438057586595125  115.00006677019378 8.039847179206884  114.38840758140113 8.815937129499888  C 113.77674839260848 9.59202707979289  112.92731837900303 10.190536156600855  111.84009039784996 10.611460033091962  C 110.75361017898439 11.031940624012206  109.49734506742757 11.242180258887318  108.07131177668612 11.242180258887318  C 106.64954056384832 11.242180258887318  105.39002561120456 11.031940624012206  104.29277781596122 10.611460033091962  C 103.1959038684346 10.190536156600855  102.34142203030933 9.59202707979289  101.7293141841442 8.815937129499888  C 101.11758018569577 8.039847179206884  100.8117132533256 7.1438057586595125  100.8117132533256 6.127810621868739  C 100.8117132533256 5.111519939344556  101.11758018569577 4.216608317339543  101.7293141841442 3.4430747649761844  C 102.34142203030933 2.669223537281586  103.1959038684346 2.0666892848038105  104.29277781596122 1.6354731965958769  Z M 109.78089224818606 4.247483400115248  C 109.29807032877207 4.0858595685844366  108.7282098150506 4.005047644561719  108.07131177668612 4.005047644561719  C 107.09377868462211 4.005047644561719  106.29982240408235 4.181538552780496  105.68943437775143 4.534517627790258  C 105.07897160861876 4.887489304247911  104.77373317095261 5.418586737735984  104.77373317095261 6.127810621868739  C 104.77373317095261 6.820853608302049  105.07897160861876 7.346767530305526  105.68943437775143 7.705553973283194  C 106.29982240408235 8.064044870527452  107.09377868462211 8.243289196155065  108.07131177668612 8.243289196155065  C 109.04390970450675 8.243289196155065  109.83132110955067 8.064044870527452  110.43355869408305 7.705553973283194  C 111.03624486913387 7.346767530305526  111.33758772267016 6.820853608302049  111.33758772267016 6.127810621868739  C 111.33758772267016 5.657162001462659  111.19884978979015 5.266531331441325  110.92135990139799 4.9559180172782265  C 110.6439447892346 4.645252979308856  110.2637889438288 4.409107231646059  109.78089224818606 4.247483400115248  Z M 154 16.77658895180555  L 154 0.02424611220179079  L 158 0.02424611220179079  L 158 16.77658895180555  L 154 16.77658895180555  Z M 157.60909721409126 9.922443444410733  L 157.60909721409126 6.522466302413633  L 162.61042020221888 6.522466302413633  L 162.61042020221888 9.922443444410733  L 157.60909721409126 9.922443444410733  Z M 136 15  L 136 1.676203282899635  L 140.84641167315618 1.676203282899635  L 140.84641167315618 5.3035865503059965  L 146.5498795048493 5.3035865503059965  L 146.5498795048493 1.676203282899635  L 150 1.676203282899635  L 150 15  L 136 15  Z M 146.5498795048493 8.485230305653213  L 140.84641167315618 8.485230305653213  L 140.84641167315618 12.137781333467117  L 146.5498795048493 12.137781333467117  L 146.5498795048493 8.485230305653213  Z M 139.85713466850996 27.462161338323387  L 139.85713466850996 18  L 158.93373540943767 18  L 158.93373540943767 21  L 144.02957897193227 21  L 144.02957897193227 27.462161338323387  L 139.85713466850996 27.462161338323387  Z M 139.85713466850996 28  L 139.85713466850996 25  L 159.49230561514736 25  L 159.49230561514736 28  L 139.85713466850996 28  Z M 184 28.732463141470323  L 184 0  L 189 0  L 189 28.732463141470323  L 184 28.732463141470323  Z M 176.2246982595507 3.7218733472163055  C 176.2246982595507 3.7218733472163055  176.2246982595507 2.9751691907942845  176.2246982595507 2.9751691907942845  C 176.2246982595507 2.9751691907942845  180.3657201008079 2.9751691907942845  180.3657201008079 2.9751691907942845  C 180.3657201008079 5.176157059564545  180.15074549625433 7.27110835102057  179.72078946803654 9.260023593630368  C 179.2908334398187 11.249012689644267  178.575235359919 13.124034488949594  177.57399863789271 14.885087802493327  C 176.57276191586644 16.64614111603706  175.2118582858142 18.279190229880765  173.49128634380142 19.78423144474839  C 171.77071440178864 21.288903128361497  169.61756642225572 22.657511607271328  167.03184815464888 23.890064280029982  C 167.03184815464888 23.890064280029982  164.84244189379095 20.62496908462154  164.84244189379095 20.62496908462154  C 167.64126887006898 19.29385369335017  169.8725562370129 17.81146341000253  171.53629918113285 16.177788193686485  C 173.20004212525276 14.544038991849334  174.3975664143181 12.700044474105983  175.12886556348835 10.64581468134859  C 175.8594169503711 8.591289342857783  176.2246982595507 6.2833099550830385  176.2246982595507 3.7218733472163055  Z M 166.40038673632412 6.254376595885306  L 166.40038673632412 3  L 178.19089550539914 3  L 178.19089550539914 6.254376595885306  L 166.40038673632412 6.254376595885306  Z " fill-rule="nonzero" fill="#4c4c57" stroke="none" transform="matrix(1 0 0 1 55 102 )" />
  </g>
</svg>