<?xml version="1.0" encoding="utf-8"?>
<svg version="1.1" xmlns:xlink="http://www.w3.org/1999/xlink" width="30px" height="17px" xmlns="http://www.w3.org/2000/svg">
  <g transform="matrix(1 0 0 1 -125 -23 )">
    <path d="M 10.387042825342267 9.93248208479862  L 10.387042825342267 0.012443185588215777  L 12.541550847164393 0.012443185588215777  L 12.541550847164393 9.93248208479862  L 10.387042825342267 9.93248208479862  Z M 11.952872515887938 5.740397535000995  L 11.952872515887938 3.9231989416760666  L 14.825642149456177 3.9231989416760666  L 14.825642149456177 5.740397535000995  L 11.952872515887938 5.740397535000995  Z M 0 9.034669232300445  L 0 0.9800859266140269  L 2.136411344736508 0.9800859266140269  L 2.136411344736508 3.2500684261163824  L 5.807458968177991 3.2500684261163824  L 5.807458968177991 0.9800859266140269  L 7.937918824465692 0.9800859266140269  L 7.937918824465692 9.034669232300445  L 0 9.034669232300445  Z M 5.807458968177991 4.956124344768098  L 2.136411344736508 4.956124344768098  L 2.136411344736508 7.304079440647602  L 5.807458968177991 7.304079440647602  L 5.807458968177991 4.956124344768098  Z M 1.8144081383144368 16.290209674208743  L 1.8144081383144368 10.732018446022161  L 12.656065097288382 10.732018446022161  L 12.656065097288382 12.468882705195409  L 3.9686739483973654 12.468882705195409  L 3.9686739483973654 16.290209674208743  L 1.8144081383144368 16.290209674208743  Z M 1.8144081383144368 16.803059269457897  L 1.8144081383144368 15  L 12.976718838306363 15  L 12.976718838306363 16.803059269457897  L 1.8144081383144368 16.803059269457897  Z M 27.839159871281762 17  L 27.839159871281762 0  L 30 0  L 30 17  L 27.839159871281762 17  Z M 22.921742540455128 2.170084516621326  C 22.921742540455128 2.170084516621326  22.921742540455128 1.7802567845531154  22.921742540455128 1.7802567845531154  C 22.921742540455128 1.7802567845531154  25.057877071775412 1.7802567845531154  25.057877071775412 1.7802567845531154  C 25.057877071775412 3.0623800842030016  24.92899477938187 4.286955853620985  24.671237932665136 5.453957517749321  C 24.4137078553376 6.620766684827235  23.991733983748745 7.722878116498573  23.405318277759196 8.760319902461681  C 22.818902571769645 9.79756919137437  22.03277990774328 10.758858359332235  21.04695447572692 11.644177974255193  C 20.06105342012347 12.529574560459398  18.837966113424297 13.33188491708906  17.377671537813864 14.051106014862983  C 17.377671537813864 14.051106014862983  16.24270192962019 12.30775578926415  16.24270192962019 12.30775578926415  C 17.851603544437204 11.519076716076457  19.145572386528123 10.629106534894987  20.124594872031466 9.63782886006237  C 21.103692913540502 8.646628225358304  21.814599202197062 7.5320884791155205  22.257321138164496 6.2942426680379535  C 22.700269843521127 5.056396856960387  22.921742540455128 3.6816809614180377  22.921742540455128 2.170084516621326  Z M 17.102709311311287 3.5356624477473293  L 17.102709311311287 1.7802567845531154  L 23.91757880531943 1.7802567845531154  L 23.91757880531943 3.5356624477473293  L 17.102709311311287 3.5356624477473293  Z " fill-rule="nonzero" fill="#ffffff" stroke="none" transform="matrix(1 0 0 1 125 23 )" />
  </g>
</svg>