<?xml version="1.0" encoding="utf-8"?>
<svg version="1.1" xmlns:xlink="http://www.w3.org/1999/xlink" width="83px" height="46px" xmlns="http://www.w3.org/2000/svg">
  <g transform="matrix(1 0 0 1 -366 -64 )">
    <path d="M 29 26.87612799416097  L 29 0.03366979629752505  L 35 0.03366979629752505  L 35 26.87612799416097  L 29 26.87612799416097  Z M 33.06961396062329 15.532840388826223  L 33.06961396062329 10.615714783358769  L 41.017609946828756 10.615714783358769  L 41.017609946828756 15.532840388826223  L 33.06961396062329 15.532840388826223  Z M 0 24  L 0 2.651997213190896  L 5.910738053771006 2.651997213190896  L 5.910738053771006 9  L 16.067303145292442 9  L 16.067303145292442 2.651997213190896  L 22 2.651997213190896  L 22 24  L 0 24  Z M 16.067303145292442 14  L 5.910738053771006 14  L 5.910738053771006 20  L 16.067303145292442 20  L 16.067303145292442 14  Z M 5 44.079390883153074  L 5 29  L 35.01511343583119 29  L 35.01511343583119 33  L 11 33  L 11 44.079390883153074  L 5 44.079390883153074  Z M 5.0198625160032755 45  L 5.0198625160032755 40  L 35.9022554526476 40  L 35.9022554526476 45  L 5.0198625160032755 45  Z M 77 46  L 77 0  L 83 0  L 83 46  L 77 46  Z M 63.416821028592516 5.871993397916528  C 63.416821028592516 5.871993397916528  63.416821028592516 4.817165417026077  63.416821028592516 4.817165417026077  C 63.416821028592516 4.817165417026077  69.32679323191198 4.817165417026077  69.32679323191198 4.817165417026077  C 69.32679323191198 8.286440227843416  68.97021888962318 11.5999981921509  68.25709161370688 14.75776740096875  C 67.54459173310069 17.91501573541487  66.37713068837152 20.89719960934908  64.75471390180044 23.704395030190433  C 63.13229711522935 26.511069576660063  60.9573577447564 29.112204972310753  58.22990738284449 31.507775695043463  C 55.50224779567493 33.903554693007784  52.11837291380723 36.07451212859392  48.078224587951695 38.02063980492336  C 48.078224587951695 38.02063980492336  44.93814200528252 33.30333919447946  44.93814200528252 33.30333919447946  C 49.38943647294293 31.16926640820688  52.969416936061144 28.76111180030408  55.67804581262039 26.078831033109942  C 58.386883727462056 23.396758727440115  60.35372445941187 20.38094529643023  61.57858848225511 17.031480160573288  C 62.804079900408446 13.682015024716343  63.416821028592516 9.962195542660572  63.416821028592516 5.871993397916528  Z M 47.317495761294566 10  L 47.317495761294566 5  L 66.17196802805043 5  L 66.17196802805043 10  L 47.317495761294566 10  Z " fill-rule="nonzero" fill="#ffffff" stroke="none" transform="matrix(1 0 0 1 366 64 )" />
  </g>
</svg>