<?xml version="1.0" encoding="utf-8"?>
<svg version="1.1" xmlns:xlink="http://www.w3.org/1999/xlink" width="20px" height="20px" xmlns="http://www.w3.org/2000/svg">
  <g transform="matrix(1 0 0 1 -55 -143 )">
    <path d="M 20 10  C 20 4.479999889026988  15.519970306993773 0  10 0  C 4.479990367001512 0  0 4.479999889026988  0 10  C 0 15.520000110973012  4.479990367001512 20  10 20  C 15.519970306993773 20  20 15.520000110973012  20 10  Z M 11.00001285897932 9  L 11.00001285897932 15  L 8.99998714102068 15  L 8.99998714102068 9  L 11.00001285897932 9  Z M 11.00001285897932 5  L 11.00001285897932 7  L 8.99998714102068 7  L 8.99998714102068 5  L 11.00001285897932 5  Z " fill-rule="nonzero" fill="#3578ff" stroke="none" transform="matrix(1 0 0 1 55 143 )" />
  </g>
</svg>