<?xml version="1.0" encoding="utf-8"?>
<svg version="1.1" xmlns:xlink="http://www.w3.org/1999/xlink" width="57px" height="56px" xmlns="http://www.w3.org/2000/svg">
  <g transform="matrix(1 0 0 1 -107 -344 )">
    <path d="M 57 28  C 57 12.54399968927557  44.23191537493226 0  28.5 0  C 12.767972545954308 0  0 12.54399968927557  0 28  C 0 43.456000310724434  12.767972545954308 56  28.5 56  C 44.23191537493226 56  57 43.456000310724434  57 28  Z M 31 25.2  L 31 42  L 26 42  L 26 25.2  L 31 25.2  Z M 31.350036648091063 14  L 31.350036648091063 19.599999999999998  L 25.64996335190894 19.599999999999998  L 25.64996335190894 14  L 31.350036648091063 14  Z " fill-rule="nonzero" fill="#3578ff" stroke="none" transform="matrix(1 0 0 1 107 344 )" />
  </g>
</svg>