<?xml version="1.0" encoding="utf-8"?>
<svg version="1.1" xmlns:xlink="http://www.w3.org/1999/xlink" width="48px" height="17px" xmlns="http://www.w3.org/2000/svg">
  <g transform="matrix(1 0 0 1 -55 -280 )">
    <path d="M 6.429305411653079 5.624262491414079  L 6.429305411653079 3.845312527518977  L 9.327039467942505 3.845312527518977  L 9.327039467942505 5.624262491414079  L 6.429305411653079 5.624262491414079  Z M 6.429305411653079 10.858345515067189  L 6.429305411653079 9.079448387608094  L 9.327039467942505 9.079448387608094  L 9.327039467942505 10.858345515067189  L 6.429305411653079 10.858345515067189  Z M 12 16.98765388611987  L 12 0  L 14 0  L 14 16.98765388611987  L 12 16.98765388611987  Z M 9 16.206467179767166  L 9 0.2948977614963279  L 11 0.2948977614963279  L 11 16.206467179767166  L 9 16.206467179767166  Z M 1.6869416316638657 1.99334260906321  C 2.2270109808467358 1.500678961962169  2.8548422244550418 1.2543546029341834  3.5704294547171544 1.2543546029341834  C 4.298969340007922 1.2543546029341834  4.932614602937326 1.500678961962169  5.471369909302279 1.99334260906321  C 6.010125215667231 2.486006256164251  6.425734700773605 3.1881766916465595  6.718201889144246 4.099825639761179  C 7.010669077514887 5.011282230225964  7.1569065654587805 6.097410023952518  7.1569065654587805 7.358213423977174  C 7.1569065654587805 8.618824466351997  7.010669077514887 9.707046041450184  6.718201889144246 10.622888744077915  C 6.425734700773605 11.538577546826291  6.0095630039228505 12.241694979107592  5.469681360756732 12.732242554465559  C 4.929799717590614 13.222867079763205  4.295587946355643 13.468183659451556  3.567048061064876 13.468183659451556  C 2.8514608308027634 13.468183659451556  2.224196129066908 13.222867079763205  1.6852530831183188 12.732242554465559  C 1.1464977767533662 12.241694979107592  0.7308882916469928 11.538577546826291  0.43842110327635164 10.622888744077915  C 0.146141654489347 9.707046041450184  0 8.618824466351997  0 7.358213423977174  C 0 6.097410023952518  0.146141654489347 5.011282230225964  0.43842110327635164 4.099825639761179  C 0.7308882916469928 3.1881766916465595  1.1470599884977477 2.486006256164251  1.6869416316638657 1.99334260906321  Z M 4.464440719763511 3.7818383557301116  C 4.219091165419844 3.4767370047134505  3.9218393533675417 3.324169147043801  3.572680852777884 3.324169147043801  C 3.2310311299284575 3.324169147043801  2.937435959979323 3.4767370047134505  2.691898699618904 3.7818383557301116  C 2.4465491452752373 4.086939706746772  2.2580798931006627 4.5377483312492295  2.1264884339705823 5.134292608182602  C 1.9948969748405012 5.730644527466141  1.9291001165889778 6.471761057675373  1.9291001165889778 7.357632223181106  C 1.9291001165889778 8.231961104127405  1.9948969748405012 8.970455075820285  2.1264884339705823 9.57311682136001  C 2.2580798931006627 10.175624667020378  2.4465491452752373 10.630502763455679  2.691898699618904 10.937758678384613  C 2.937435959979323 11.244783743494514  3.2310311299284575 11.398298666760597  3.572680852777884 11.398298666760597  C 3.9218393533675417 11.398298666760597  4.219091165419844 11.244783743494514  4.464440719763511 10.937758678384613  C 4.709977980123929 10.630502763455679  4.8985430993199355 10.175624667020378  5.0301345584500154 9.57311682136001  C 5.1619137319885695 8.970455075820285  5.227802152308619 8.231961104127405  5.227802152308619 7.357632223181106  C 5.227802152308619 6.471761057675373  5.1619137319885695 5.730644527466141  5.0301345584500154 5.134292608182602  C 4.8985430993199355 4.5377483312492295  4.709977980123929 4.086939706746772  4.464440719763511 3.7818383557301116  Z M 18.29168548277012 2.5537258493457085  L 18.29168548277012 1  L 28.83491385618604 1  L 28.83491385618604 2.5537258493457085  L 18.29168548277012 2.5537258493457085  Z M 16.42987810745431 8.703411472551473  L 16.42987810745431 7  L 31.444258429204083 7  L 31.444258429204083 8.703411472551473  L 16.42987810745431 8.703411472551473  Z M 27.521291832729503 2.130118529738107  C 27.521291832729503 2.130118529738107  27.521291832729503 0.7992919917575161  27.521291832729503 0.7992919917575161  L 29.631444741076244 0.7992919917575161  C 29.631444741076244 0.7992919917575161  29.631444741076244 2.130118529738107  29.631444741076244 2.130118529738107  C 29.631444741076244 2.8567060032098137  29.61136176653561 3.6395732246957504  29.571189767023448 4.478698110216806  C 29.531167941555577 5.317822995737861  29.38317480066865 6.299403993994258  29.127200320451855 7.423431198154247  C 29.127200320451855 7.423431198154247  26.998683909602143 7.381003540041212  26.998683909602143 7.381003540041212  C 27.25908856398631 6.260823764067701  27.41124995664277 5.285316685636415  27.455176349220913 4.454463798235263  C 27.49925291584335 3.623418484386833  27.521291832729503 2.848626431537188  27.521291832729503 2.130118529738107  Z M 18.213402137986748 16.803219500167316  L 18.213402137986748 10.626129378819634  L 29.59427948682947 10.626129378819634  L 29.59427948682947 16.803219500167316  L 18.213402137986748 16.803219500167316  Z M 27.496285846635146 15.061483999365963  L 27.496285846635146 12.349389739164128  L 20.311507488771877 12.349389739164128  L 20.311507488771877 15.061483999365963  L 27.496285846635146 15.061483999365963  Z M 39.2775683253929 2.395304602053576  C 39.2775683253929 2.395304602053576  39.2775683253929 1.8366649641592843  39.2775683253929 1.8366649641592843  L 41.14049710317789 1.8366649641592843  C 41.14049710317789 1.8366649641592843  41.14049710317789 2.395304602053576  41.14049710317789 2.395304602053576  C 41.14049710317789 2.9943497348271366  41.041463046217125 3.565890544369397  40.843381304140586 4.109917399038377  C 40.64552482942428 4.653751896057521  40.35549902767925 5.159781407133359  39.973301884892436 5.628013878370524  C 39.591330009465864 6.096053957559133  39.13197656360141 6.512829278320329  38.59524862991167 6.878335300022895  C 38.05874596358217 7.243841321725462  37.45278878149972 7.552889960416704  36.77737359270837 7.805473854770249  C 36.10195840391703 8.058057749123796  35.36496543729818 8.24380126441444  34.56640617272624 8.362686908892371  C 34.56640617272624 8.362686908892371  33.77686149632219 6.645467514397929  33.77686149632219 6.645467514397929  C 34.467144062353846 6.555052866018907  35.09874184604436 6.409344766963798  35.67166216497452 6.208316455027387  C 36.24458248390468 6.007095768241779  36.75412929740036 5.767006573045272  37.20030129635307 5.488067771535251  C 37.64654838442586 5.209128970025229  38.025479469374694 4.902581445164586  38.337094047696304 4.568431990700787  C 38.64863353689784 4.234090178587154  38.88328305946486 3.8814861197031476  39.0410426321808 3.5105937054192573  C 39.198727115776656 3.139701291135367  39.2775683253929 2.7679283727808697  39.2775683253929 2.395304602053576  Z M 39.88094300566833 2.395304602053576  C 39.88094300566833 2.395304602053576  39.88094300566833 1.8366649641592843  39.88094300566833 1.8366649641592843  L 41.737676142225126 1.8366649641592843  C 41.737676142225126 1.8366649641592843  41.737676142225126 2.395304602053576  41.737676142225126 2.395304602053576  C 41.737676142225126 2.7679283727808697  41.81651735184137 3.139701291135367  41.974201835437235 3.5105937054192573  C 42.13188631903309 3.8814861197031476  42.36653584160011 4.234090178587154  42.67815041992172 4.568431990700787  C 42.98976499824333 4.902581445164586  43.36869608319217 5.209128970025229  43.81494317126496 5.488067771535251  C 44.26111517021767 5.767006573045272  44.770661983713346 6.007095768241779  45.343582302643505 6.208316455027387  C 45.916502621573656 6.409344766963798  46.54810040526418 6.555052866018907  47.23838297129584 6.645467514397929  C 47.23838297129584 6.645467514397929  46.45469021122521 8.362686908892371  46.45469021122521 8.362686908892371  C 45.65613094665327 8.24380126441444  44.9181319805133 8.058057749123796  44.240689419046745 7.805473854770249  C 43.563397035820344 7.552889960416704  42.9563886396237 7.243841321725462  42.41966070593395 6.878335300022895  C 41.88315803960445 6.512829278320329  41.4248558078542 6.096053957559133  41.04476112686268 5.628013878370524  C 40.66459135675109 5.159781407133359  40.37558014764953 4.653751896057521  40.17772367293323 4.109917399038377  C 39.97986719821693 3.565890544369397  39.88094300566833 2.9943497348271366  39.88094300566833 2.395304602053576  Z M 39.38626273024085 17  L 39.38626273024085 10.703464308987478  L 41.52029592565159 10.703464308987478  L 41.52029592565159 17  L 39.38626273024085 17  Z M 33.00927224757144 11  L 33.00927224757144 9.461156413462724  L 48 9.461156413462724  L 48 11  L 33.00927224757144 11  Z M 34.36029153957871 3  L 34.36029153957871 1  L 46.612717731594714 1  L 46.612717731594714 3  L 34.36029153957871 3  Z " fill-rule="nonzero" fill="#26262c" stroke="none" transform="matrix(1 0 0 1 55 280 )" />
  </g>
</svg>