<?xml version="1.0" encoding="utf-8"?>
<svg version="1.1" xmlns:xlink="http://www.w3.org/1999/xlink" width="133px" height="48px" xmlns="http://www.w3.org/2000/svg">
  <g transform="matrix(1 0 0 1 -110 -737 )">
    <path d="M 17.81453374478874 15.880270563992696  L 17.81453374478874 10.857353018877111  L 25.843671859090694 10.857353018877111  L 25.843671859090694 15.880270563992696  L 17.81453374478874 15.880270563992696  Z M 17.81453374478874 30.658857924895592  L 17.81453374478874 25.63608956501109  L 25.843671859090694 25.63608956501109  L 25.843671859090694 30.658857924895592  L 17.81453374478874 30.658857924895592  Z M 34 47.965140384338454  L 34 0  L 39 0  L 39 47.965140384338454  L 34 47.965140384338454  Z M 25 45.759436742872  L 25 0.8326525030484553  L 30 0.8326525030484553  L 30 45.759436742872  L 25 45.759436742872  Z M 4.674234104401961 5.62826148441377  C 6.170676259429497 4.237211186716713  7.910291996927511 3.5417071141671066  9.893064947445449 3.5417071141671066  C 11.91172754627195 3.5417071141671066  13.667452962305509 4.237211186716713  15.16025412369173 5.62826148441377  C 16.653055285077954 7.019311782110826  17.804639900060195 9.001910658766757  18.615017734503848 11.57597827697274  C 19.4253955689475 14.14950276769684  19.830595275125372 17.216216538218873  19.830595275125372 20.776132020641434  C 19.830595275125372 24.33550437558211  19.4253955689475 27.408129999388755  18.615017734503848 29.994038806808234  C 17.804639900060195 32.57951307339188  16.65149749003623 34.56478582336261  15.155575437096777 35.9498613302557  C 13.659653384157327 37.335154107566694  11.902358268027095 38.02781268551028  9.883695669200595 38.02781268551028  C 7.900922718682657 38.02781268551028  6.162876774289557 37.335154107566694  4.6695554178070084 35.9498613302557  C 3.1767542564207853 34.56478582336261  2.0251696414385423 32.57951307339188  1.214791806994891 29.994038806808234  C 0.4049341676475656 27.408129999388755  0 24.33550437558211  0 20.776132020641434  C 0 17.216216538218873  0.4049341676475656 14.14950276769684  1.214791806994891 11.57597827697274  C 2.0251696414385423 9.001910658766757  3.178312051462509 7.019311782110826  4.674234104401961 5.62826148441377  Z M 12.370221161011393 10.678131827943844  C 11.690398437517484 9.816669189779155  10.86676320828923 9.385889356358968  9.89930319623872 9.385889356358968  C 8.952648755843434 9.385889356358968  8.139145472442706 9.816669189779155  7.458802646860713 10.678131827943844  C 6.778979923366803 11.539594466108534  6.256763037133086 12.812465876468412  5.8921450357934875 14.496826187809702  C 5.527527034453889 16.180643371669102  5.345214906381959 18.273207692259877  5.345214906381959 20.774490983099593  C 5.345214906381959 23.243184294006795  5.527527034453889 25.328343743492567  5.8921450357934875 27.029976907369438  C 6.256763037133086 28.73117553041048  6.778979923366803 30.015537214463095  7.458802646860713 30.883083327203614  C 8.139145472442706 31.74997762869039  8.952648755843434 32.18343152967698  9.89930319623872 32.18343152967698  C 10.86676320828923 32.18343152967698  11.690398437517484 31.74997762869039  12.370221161011393 30.883083327203614  C 13.050563986593387 30.015537214463095  13.573046504365653 28.73117553041048  13.93766450570525 27.029976907369438  C 14.302802632384994 25.328343743492567  14.485368463688463 23.243184294006795  14.485368463688463 20.774490983099593  C 14.485368463688463 18.273207692259877  14.302802632384994 16.180643371669102  13.93766450570525 14.496826187809702  C 13.573046504365653 12.812465876468412  13.050563986593387 11.539594466108534  12.370221161011393 10.678131827943844  Z M 50.68321185850887 8  L 50.68321185850887 3  L 79.89674047651549 3  L 79.89674047651549 8  L 50.68321185850887 8  Z M 45.52445392273798 24  L 45.52445392273798 20  L 87.12679939758632 20  L 87.12679939758632 24  L 45.52445392273798 24  Z M 76.25691278652134 6.014452319260538  C 76.25691278652134 6.014452319260538  76.25691278652134 2.2568244473153394  76.25691278652134 2.2568244473153394  L 82.10379480339877 2.2568244473153394  C 82.10379480339877 2.2568244473153394  82.10379480339877 6.014452319260538  82.10379480339877 6.014452319260538  C 82.10379480339877 8.06599342082771  82.04814822810908 10.276442046199765  81.93683831279414 12.645735840612158  C 81.8259445047269 15.015029635024549  81.41588017685272 17.786552453630847  80.70661755458535 20.960276324200226  C 80.70661755458535 20.960276324200226  74.80885333285593 20.84048058364578  74.80885333285593 20.84048058364578  C 75.53039122937874 17.677620039720566  75.95200508819768 14.923247112385173  76.07371780096628 12.57730954795839  C 76.1958466209826 10.230828661798117  76.25691278652134 8.04318051257559  76.25691278652134 6.014452319260538  Z M 51 47  L 51 30  L 82 30  L 82 47  L 51 47  Z M 76.18762536671821 42  L 76.18762536671821 34  L 56.279802000138744 34  L 56.279802000138744 42  L 76.18762536671821 42  Z M 108.83159556827616 6.763212994033626  C 108.83159556827616 6.763212994033626  108.83159556827616 5.1858775458615085  108.83159556827616 5.1858775458615085  L 113.99346072338874 5.1858775458615085  C 113.99346072338874 5.1858775458615085  113.99346072338874 6.763212994033626  113.99346072338874 6.763212994033626  C 113.99346072338874 8.454634545394267  113.71905385722661 10.068396831160651  113.1702023635562 11.604472656108358  C 112.62197504819645 13.140005353574178  111.81836188919459 14.56879456131772  110.75935730605613 15.890862715399127  C 109.70097690122833 17.212387644872845  108.42818506164558 18.389165021139753  106.94100141204693 19.421182023594056  C 105.45444194075893 20.453199026048363  103.77543558207215 21.32580694705893  101.90397266312945 22.038985001704233  C 100.03250974418677 22.75216305634954  97.99042506584705 23.276615334817244  95.77775043692895 23.612292448637284  C 95.77775043692895 23.612292448637284  93.59005372939274 18.763672981829444  93.59005372939274 18.763672981829444  C 95.50271167277211 18.508384562876913  97.25276386508126 18.09697345966249  98.84023058211692 17.529364108312624  C 100.42769729915254 16.961211580917965  101.83956659488017 16.28331267683371  103.07583484197829 15.495720766687766  C 104.31231114851332 14.708128856541823  105.36226602972572 13.842582903994124  106.22569809049183 12.899102091390457  C 107.0889220918211 11.955078151304905  107.73909681060053 10.9594902203383  108.17622229333429 9.912264580007314  C 108.61313971663115 8.86503893967633  108.83159556827616 7.815327170204808  108.83159556827616 6.763212994033626  Z M 110.50344624487266 6.763212994033626  C 110.50344624487266 6.763212994033626  110.50344624487266 5.1858775458615085  110.50344624487266 5.1858775458615085  L 115.64814431074878 5.1858775458615085  C 115.64814431074878 5.1858775458615085  115.64814431074878 6.763212994033626  115.64814431074878 6.763212994033626  C 115.64814431074878 7.815327170204808  115.86660016239378 8.86503893967633  116.30351758569067 9.912264580007314  C 116.74043500898753 10.9594902203383  117.39060972776697 11.955078151304905  118.2540417885331 12.899102091390457  C 119.11747384929923 13.842582903994124  120.16742873051163 14.708128856541823  121.40390503704664 15.495720766687766  C 122.6401732841448 16.28331267683371  124.05204257987239 16.961211580917965  125.63950929690805 17.529364108312624  C 127.22697601394367 18.09697345966249  128.97702820625284 18.508384562876913  130.8896861496322 18.763672981829444  C 130.8896861496322 18.763672981829444  128.71820412693654 23.612292448637284  128.71820412693654 23.612292448637284  C 126.50552949801845 23.276615334817244  124.46065736267228 22.75216305634954  122.58357693194202 22.038985001704233  C 120.70691262008553 21.32580694705893  119.02499352229066 20.453199026048363  117.537809872692 19.421182023594056  C 116.05125040140399 18.389165021139753  114.78137130092935 17.212387644872845  113.72819228901534 15.890862715399127  C 112.67480521766447 14.56879456131772  111.87400332577892 13.140005353574178  111.32577601041916 11.604472656108358  C 110.77754869505941 10.068396831160651  110.50344624487266 8.454634545394267  110.50344624487266 6.763212994033626  Z M 109 48  L 109 30.22154628419994  L 115 30.22154628419994  L 115 48  L 109 48  Z M 91.46319185264585 31  L 91.46319185264585 26  L 133 26  L 133 31  L 91.46319185264585 31  Z M 95.20664114091602 8  L 95.20664114091602 3  L 129.15607204796035 3  L 129.15607204796035 8  L 95.20664114091602 8  Z " fill-rule="nonzero" fill="#26262c" stroke="none" transform="matrix(1 0 0 1 110 737 )" />
  </g>
</svg>