<?xml version="1.0" encoding="utf-8"?>
<svg version="1.1" xmlns:xlink="http://www.w3.org/1999/xlink" width="273px" height="35px" xmlns="http://www.w3.org/2000/svg">
  <g transform="matrix(1 0 0 1 -536 -509 )">
    <path d="M 22 35  L 22 0  L 26 0  L 26 35  L 22 35  Z M 4.117870095521498 4.033435882168081  C 5.403637455465984 3.021329133560553  6.862907767240926 2.515258274202352  8.495717283787634 2.515258274202352  C 10.136281757642987 2.515258274202352  11.597420304326931 3.021329133560553  12.879132923839466 4.033435882168081  C 14.161200369015104 5.045542630775608  15.16702931356618 6.477325898284374  15.896576405017045 8.328826146644834  C 16.62651208268261 10.179947134886866  16.99147323737934 12.366389632333481  16.99147323737934 14.888147339519344  C 16.99147323737934 17.427212585440135  16.62651208268261 19.626708059645793  15.896576405017045 21.486627301146232  C 15.16702931356618 23.346365796448833  14.161200369015104 24.78226931810194  12.879132923839466 25.794339965927325  C 11.597420304326931 26.80604928288179  10.136281757642987 27.311897318844178  8.495717283787634 27.311897318844178  C 6.862907767240926 27.311897318844178  5.403637455465984 26.80604928288179  4.117870095521498 25.794339965927325  C 2.832102735577013 24.78226931810194  1.8242356204545274 23.346365796448833  1.0943167853012816 21.486627301146232  C 0.3647696938504175 19.626708059645793  0 17.427212585440135  0 14.888147339519344  C 0 12.366389632333481  0.3647696938504175 10.179947134886866  1.0943167853012816 8.328826146644834  C 1.8242356204545274 6.477325898284374  2.832102735577013 5.045542630775608  4.117870095521498 4.033435882168081  Z M 10.81408804703608 7.568310756049554  C 10.149587040266669 6.92452037970722  9.376796534093984 6.602614995286062  8.495717283787634 6.602614995286062  C 7.614638033481287 6.602614995286062  6.84167781822708 6.92452037970722  6.176805143282247 7.568310756049554  C 5.512304136512836 8.211685609966569  4.993224062307492 9.1502876529704  4.619572133490997 10.384103276600673  C 4.2459370849503 11.61752146857788  4.059130663143229 13.118848491332969  4.059130663143229 14.888147339519344  C 4.059130663143229 16.657843700121155  4.2459370849503 18.16577870049331  4.619572133490997 19.411915512992277  C 4.993224062307492 20.657943942382442  5.512304136512836 21.6071345789993  6.176805143282247 22.259506442382442  C 6.84167781822708 22.91169764033012  7.614638033481287 23.237814055806414  8.495717283787634 23.237814055806414  C 9.376796534093984 23.237814055806414  10.149587040266669 22.91169764033012  10.81408804703608 22.259506442382442  C 11.47860589631781 21.6071345789993  11.997686008286635 20.657943942382442  12.37132105682733 19.411915512992277  C 12.744972985643827 18.16577870049331  12.931801196979166 16.657843700121155  12.931801196979166 14.888147339519344  C 12.931801196979166 13.118848491332969  12.744972985643827 11.61752146857788  12.37132105682733 10.384103276600673  C 11.997686008286635 9.1502876529704  11.47860589631781 8.211685609966569  10.81408804703608 7.568310756049554  Z M 49.0756936626282 12.871450073603599  L 49.0756936626282 9.228692171554277  L 56.84194376248978 9.228692171554277  L 56.84194376248978 12.871450073603599  L 49.0756936626282 12.871450073603599  Z M 55 25.537719777038987  L 55 0.06347276666832068  L 59 0.06347276666832068  L 59 25.537719777038987  L 55 25.537719777038987  Z M 37.46775320789396 34  L 37.46775320789396 30  L 59.61646353451641 30  L 59.61646353451641 34  L 37.46775320789396 34  Z M 37.46775320789396 32.74669610810632  L 37.46775320789396 23.36273342265006  L 41.69312535872264 23.36273342265006  L 41.69312535872264 32.74669610810632  L 37.46775320789396 32.74669610810632  Z M 39.39126660181094 6.92866239931193  C 39.39126660181094 6.92866239931193  39.39126660181094 4.55626953803404  39.39126660181094 4.55626953803404  L 42.83353655047217 4.55626953803404  C 42.83353655047217 4.55626953803404  42.83353655047217 6.92866239931193  42.83353655047217 6.92866239931193  C 42.83353655047217 9.096737432598951  42.488864580962215 11.157303690569229  41.79954465951591 13.110372318430672  C 41.11022473806962 15.063440946292115  40.08739527879761 16.769918780185748  38.73105703696947 18.22983344084421  C 37.37505670276515 19.689585446077096  35.68651161213581 20.794707838550714  33.66535137395372 21.54517937776013  C 33.66535137395372 21.54517937776013  31.54087100829885 17.954109396450487  31.54087100829885 17.954109396450487  C 32.85108569027176 17.47315002309158  33.996972888806646 16.85110467424205  34.97857792008014 16.08796870606527  C 35.96018295135364 15.324832737888485  36.779699873584796 14.450267627131609  37.437088053268575 13.464248498982782  C 38.09498309438809 12.477831939180891  38.58511024793896 11.428399323947842  38.90746868312461 10.315916571560892  C 39.22999603435869 9.203433819173945  39.39126660181094 8.074350925704817  39.39126660181094 6.92866239931193  Z M 40.27011523884907 6.9162159479978165  C 40.27011523884907 6.9162159479978165  40.27011523884907 4.55626953803404  40.27011523884907 4.55626953803404  L 43.664511970074955 4.55626953803404  C 43.664511970074955 4.55626953803404  43.664511970074955 6.9162159479978165  43.664511970074955 6.9162159479978165  C 43.664511970074955 8.31483180362932  43.939849169709596 9.694840815418301  44.49046031514899 11.056294348235996  C 45.04157832202411 12.41736862093526  45.878456966667535 13.641891321753171  47.001136014024254 14.729858251046164  C 48.123984015192875 15.817463849468236  49.52198700720257 16.673292815818364  51.19510828395025 17.297300650027292  C 51.19510828395025 17.297300650027292  49.118269116906326 20.813237069749746  49.118269116906326 20.813237069749746  C 47.16840617891945 20.096007405328404  45.53691883735321 19.03922815978597  44.22383201610477 17.642906763261053  C 42.911083102480156 16.24627814665724  41.92391702106314 14.619818705910204  41.262305071608544 12.76356704543575  C 40.60086207596586 10.906917872545856  40.27011523884907 8.957809185512081  40.27011523884907 6.9162159479978165  Z M 32.72664188021936 6.142592500702956  L 32.72664188021936 3  L 50.23485970935039 3  L 50.23485970935039 6.142592500702956  L 32.72664188021936 6.142592500702956  Z M 91.11127880617109 12.314833192742189  L 91.11127880617109 8.634735936750525  L 97.64284073196698 8.634735936750525  L 97.64284073196698 12.314833192742189  L 91.11127880617109 12.314833192742189  Z M 97 20.79479481962983  L 97 0.051026315354206986  L 101 0.051026315354206986  L 101 20.79479481962983  L 97 20.79479481962983  Z M 83.79866417782331 22.430241982169733  C 85.46316888569046 21.90306916573887  87.43505352182407 21.639458145189305  89.71437080404296 21.639458145189305  C 92.00973847181254 21.639458145189305  93.98367804550293 21.90306916573887  95.63618725930526 22.430241982169733  C 97.28886550244647 22.9574147986006  98.56278321088796 23.716648126855596  99.4578853254751 24.70794257265254  C 100.35298744006225 25.69905635301403  100.80053959249676 26.89883879209464  100.80053959249676 28.30728262128054  C 100.80053959249676 30.424826412579186  99.81065922315285 32.063354094432796  97.8308919891464 33.2228452339602  C 95.85095572580106 34.382697704358534  93.14542681163252 34.96261929572107  89.71437080404296 34.96261929572107  C 86.28314591816847 34.96261929572107  83.57553744465385 34.382697704358534  81.59154644087657 33.2228452339602  C 79.60806222300805 32.063354094432796  78.6163303857405 30.424826412579186  78.6163303857405 28.30728262128054  C 78.6163303857405 26.89883879209464  79.06388253817501 25.69905635301403  79.95898465276215 24.70794257265254  C 80.85459362878504 23.716648126855596  82.13449722652605 22.9574147986006  83.79866417782331 22.430241982169733  Z M 93.46460707229637 25.44422666600506  C 92.44532594518235 25.200332447014713  91.19522596602181 25.078400238177938  89.71437080404296 25.078400238177938  C 88.23385354968794 25.078400238177938  86.98187763186837 25.200332447014713  85.9583727349835 25.44422666600506  C 84.93503679191055 25.68757888868903  84.15581206839744 26.044818579920896  83.62074440930954 26.515986040126368  C 83.08584570403355 26.986611544406642  82.81838464471657 27.583729828142832  82.81838464471657 28.30728262128054  C 82.81838464471657 29.005723403463506  83.08584570403355 29.594595767831816  83.62074440930954 30.07389305148944  C 84.15581206839744 30.55319033514706  84.93503679191055 30.914783562646797  85.9583727349835 31.158677781637145  C 86.98187763186837 31.40221066975657  88.23385354968794 31.52396665508857  89.71437080404296 31.52396665508857  C 91.19522596602181 31.52396665508857  92.44532594518235 31.40221066975657  93.46460707229637 31.158677781637145  C 94.48388819941042 30.914783562646797  95.2611209748523 30.55319033514706  95.79635758775213 30.07389305148944  C 96.33142524684004 29.594595767831816  96.59898804097355 29.005723403463506  96.59898804097355 28.30728262128054  C 96.59898804097355 27.583729828142832  96.33142524684004 26.986611544406642  95.79635758775213 26.515986040126368  C 95.2611209748523 26.044818579920896  94.48388819941042 25.68757888868903  93.46460707229637 25.44422666600506  Z M 81.24920266546852 5.914379993053144  C 81.24920266546852 5.914379993053144  81.24920266546852 3.5420284821118444  81.24920266546852 3.5420284821118444  L 84.69124059530535 3.5420284821118444  C 84.69124059530535 3.5420284821118444  84.69124059530535 5.914379993053144  84.69124059530535 5.914379993053144  C 84.69124059530535 8.107747702730363  84.34656862579538 10.189428960897054  83.65724870434909 12.159479978167022  C 82.96792878290279 14.129548924684496  81.94509932363079 15.859357393801998  80.58876108180264 17.34886451975719  C 79.23276074759833 18.8384078272569  77.55211623025858 19.958397280982773  75.54683734828829 20.708868820192198  C 75.54683734828829 20.708868820192198  73.4102146641563 17.142567690501  73.4102146641563 17.142567690501  C 74.7204293461292 16.662005748795153  75.86631654466407 16.02336227792285  76.84792157593758 15.226641194859326  C 77.82952660721106 14.429522680142743  78.64725512653108 13.529483662223573  79.30109527616472 12.526464215418715  C 79.95476647198645 11.523047336960792  80.44277562296807 10.456793857071528  80.76513405815372 9.327726227691493  C 81.08783036319971 8.198243075886138  81.24920266546852 7.060465951099093  81.24920266546852 5.914379993053144  Z M 82.12781928368226 5.90193354173903  C 82.12781928368226 5.90193354173903  82.12781928368226 3.5420284821118444  82.12781928368226 3.5420284821118444  L 85.52221601490814 3.5420284821118444  C 85.52221601490814 3.5420284821118444  85.52221601490814 5.90193354173903  85.52221601490814 5.90193354173903  C 85.52221601490814 7.300549397370532  85.7975145447387 8.678420306013166  86.3481256901781 10.035519939132305  C 86.89924369705322 11.392637663023702  87.73616101150071 12.610808968293595  88.85884005885742 13.690104037446865  C 89.98168806002604 14.769381096590251  91.37965238223168 15.621255533191915  93.05277365897936 16.245678889826163  C 93.05277365897936 16.245678889826163  90.97593449193543 19.786425511503662  90.97593449193543 19.786425511503662  C 89.02607155394855 19.06919584708232  87.39462288218638 18.012445191421047  86.08153606093795 16.616177905688154  C 84.76878714731333 15.21953119831208  83.78158239609225 13.593071919089796  83.11997044663765 11.736838187862848  C 82.45852745099496 9.880189014972956  82.12781928368226 7.935234421519129  82.12781928368226 5.90193354173903  Z M 74.58430725524848 6  L 74.58430725524848 2.2734001554772654  L 92.0925250843795 2.2734001554772654  L 92.0925250843795 6  L 74.58430725524848 6  Z M 106.14907620246093 30.79119734034635  L 106.14907620246093 27  L 135.70924117662724 27  L 135.70924117662724 30.79119734034635  L 106.14907620246093 30.79119734034635  Z M 118.77503791907161 28.02328850956847  L 118.77503791907161 19.390496038637757  L 122.97713084785174 19.390496038637757  L 122.97713084785174 28.02328850956847  L 118.77503791907161 28.02328850956847  Z M 110 20  L 110 2.3131378289419278  L 113.55345427586046 2.3131378289419278  L 113.55345427586046 8  L 128.2220323829155 8  L 128.2220323829155 2.3131378289419278  L 133 2.3131378289419278  L 133 20  L 110 20  Z M 128.2220323829155 12  L 113.55345427586046 12  L 113.55345427586046 17  L 128.2220323829155 17  L 128.2220323829155 12  Z M 160.60942407205218 21.867091748126832  L 160.60942407205218 16.862171058072413  L 164.8109756235754 16.862171058072413  L 164.8109756235754 21.867091748126832  L 160.60942407205218 21.867091748126832  Z M 151 12.208107973998908  L 151 0.556658231198002  L 155.95651856745516 0.556658231198002  L 155.95651856745516 3.128814568550588  L 169.53433751118308 3.128814568550588  L 169.53433751118308 0.556658231198002  L 173 0.556658231198002  L 173 12.208107973998908  L 151 12.208107973998908  Z M 169.53433751118308 7  L 155.95651856745516 7  L 155.95651856745516 9  L 169.53433751118308 9  L 169.53433751118308 7  Z M 147.98295964798865 17.89009907540647  L 147.98295964798865 15  L 177.4967595270782 15  L 177.4967595270782 17.89009907540647  L 147.98295964798865 17.89009907540647  Z M 151.4118111746385 23.709042491605885  L 151.4118111746385 20  L 173.85499205923367 20  L 173.85499205923367 29  L 155.62504100699002 29  L 155.62504100699002 32.451041201475384  L 151.47058927682082 32.451041201475384  L 151.47058927682082 25.82278899750244  L 169.7005789988685 25.82278899750244  L 169.7005789988685 23.709042491605885  L 151.4118111746385 23.709042491605885  Z M 151.47058927682082 34  L 151.47058927682082 31  L 174.75313692850136 31  L 174.75313692850136 34  L 151.47058927682082 34  Z M 203 35  L 203 0  L 207 0  L 207 35  L 203 35  Z M 198.18901035330884 16.461444946161862  L 198.18901035330884 12.806860847847302  L 204.49829824532574 12.806860847847302  L 204.49829824532574 16.461444946161862  L 198.18901035330884 16.461444946161862  Z M 181.78241790244783 26.844431763674557  L 181.78241790244783 23.11314279098232  C 181.78241790244783 23.11314279098232  184.41022443784303 23.11314279098232  184.41022443784303 23.11314279098232  C 186.23067087066073 23.11314279098232  187.9271938741878 23.09000649527372  189.4997893699683 23.043756926181377  C 191.07272277337267 22.997507357089034  192.61422759562916 22.90295620340334  194.12431123837993 22.760052266825454  C 195.63456375941567 22.61660634403648  197.1781868108223 22.397464268948013  198.7551749546586 22.10262326535338  C 198.7551749546586 22.10262326535338  199.12315681016327 25.78267917100845  199.12315681016327 25.78267917100845  C 197.5066340785554 26.06920970590607  195.92539452208052 26.288351770899233  194.3794932754202 26.440108172480524  C 192.83392993638375 26.59132257775543  191.25104223056442 26.696669520930183  189.6308026661484 26.756107444714598  C 188.0105631017324 26.815003377240284  186.27037448777116 26.844431763674557  184.41022443784303 26.844431763674557  C 184.41022443784303 26.844431763674557  181.78241790244783 26.844431763674557  181.78241790244783 26.844431763674557  Z M 181.72363980026552 7  L 181.72363980026552 3  L 196 3  L 196 16  L 185.9606902319225 16  L 185.9606902319225 24.229353776939742  L 181 24.229353776939742  L 181 13  L 192.22612656612708 13  L 192.22612656612708 7  L 181.72363980026552 7  Z M 225.91537587899438 27.846846623331512  L 225.91537587899438 19.694007509221127  L 230.11743013797044 19.694007509221127  L 230.11743013797044 27.846846623331512  L 225.91537587899438 27.846846623331512  Z M 221.8230665239614 3.1335698572586383  C 223.6490883570452 2.3490976807371524  225.71763919538142 1.956863328867497  228.02871934107787 1.956863328867497  C 230.34740218172945 1.956863328867497  232.4177028286997 2.3490976807371524  234.23966992135158 3.1335698572586383  C 236.06180589228836 3.918042033780124  237.49934014888333 5.019067350911362  238.55224248035205 6.436634744206819  C 239.6054827194446 7.853822715859094  240.13213599532676 9.519793695417556  240.13213599532676 11.43452587704064  C 240.13213599532676 13.358363370476274  239.6054827194446 15.03321013517425  238.55224248035205 16.459087976976132  C 237.49934014888333 17.884568306362574  236.06180589228836 18.98971920795498  234.23966992135158 19.774516614565243  C 232.4177028286997 20.559133355740048  230.34740218172945 20.951429894639343  228.02871934107787 20.951429894639343  C 225.71763919538142 20.951429894639343  223.6490883570452 20.559133355740048  221.8230665239614 19.774516614565243  C 219.9968756615387 18.98971920795498  218.557160337362 17.884568306362574  217.50392009826948 16.459087976976132  C 216.45101776680076 15.03321013517425  215.9245679605517 13.358363370476274  215.9245679605517 11.43452587704064  C 215.9245679605517 9.519793695417556  216.45101776680076 7.853822715859094  217.50392009826948 6.436634744206819  C 218.557160337362 5.019067350911362  219.9968756615387 3.918042033780124  221.8230665239614 3.1335698572586383  Z M 232.16259873548321 6.249317719446236  C 230.96591912694072 5.773489139463314  229.58796771229828 5.535569559536215  228.02871934107787 5.535569559536215  C 226.46896418394866 5.535569559536215  225.09058135930462 5.773489139463314  223.89356384313825 6.249317719446236  C 222.69688423459576 6.724730777003837  221.75996586274314 7.400302238655535  221.08281046470054 8.276063117153774  C 220.40582402046988 9.151823995652013  220.0673027400885 10.204666721455864  220.0673027400885 11.43452587704064  C 220.0673027400885 12.656490025781935  220.40582402046988 13.711652327791356  221.08281046470054 14.600059544484692  C 221.75996586274314 15.48846676117803  222.69688423459576 16.17059451252605  223.89356384313825 16.646405001736714  C 225.09058135930462 17.121836109685386  226.46896418394866 17.35953290659786  228.02871934107787 17.35953290659786  C 229.58796771229828 17.35953290659786  230.96591912694072 17.121836109685386  232.16259873548321 16.646405001736714  C 233.35961625164958 16.17059451252605  234.29669942333123 15.48846676117803  234.97385482137383 14.600059544484692  C 235.65084126560453 13.711652327791356  235.98932387618183 12.656490025781935  235.98932387618183 11.43452587704064  C 235.98932387618183 10.204666721455864  235.65084126560453 9.151823995652013  234.97385482137383 8.276063117153774  C 234.29669942333123 7.400302238655535  233.35961625164958 6.724730777003837  232.16259873548321 6.249317719446236  Z M 213.2894141623837 30.77875088903224  L 213.2894141623837 27  L 242.8496178063541 27  L 242.8496178063541 30.77875088903224  L 213.2894141623837 30.77875088903224  Z M 268 34.92412213235416  L 268 0.025513157677103493  L 273 0.025513157677103493  L 273 34.92412213235416  L 268 34.92412213235416  Z M 259.1552820685994 4.480391670388197  C 259.1552820685994 4.480391670388197  259.1552820685994 3.680097255991664  259.1552820685994 3.680097255991664  C 259.1552820685994 3.680097255991664  263.3343277941554 3.680097255991664  263.3343277941554 3.680097255991664  C 263.3343277941554 6.312131303600373  263.08171767672036 8.82600418000215  262.5765543136521 11.221695694602955  C 262.07308048870283 13.617007787560578  261.2477810712783 15.879509060375625  260.10060409882925 18.009229395127274  C 258.9551166644993 20.13851619744372  257.4176444532752 22.112002361621098  255.48822454889478 23.929646537322814  C 253.56049418263348 25.747110128351444  251.16874308560355 27.394018602741113  248.31296506459415 28.870391504986852  C 248.31296506459415 28.870391504986852  246.09316363191334 25.291643923981542  246.09316363191334 25.291643923981542  C 249.2398751322546 23.672547750593377  251.77096939400099 21.845622524148595  253.68636635857362 19.81082221009279  C 255.60058057093593 17.77591351292818  256.9901743911002 15.487873723049917  257.8552032558559 12.946749036537156  C 258.7219216587306 10.405606259252137  259.1552820685994 7.5834847143312  259.1552820685994 4.480391670388197  Z M 247.77522276923392 7.2837377396252005  L 247.77522276923392 4  L 261.1041628539845 4  L 261.1041628539845 7.2837377396252005  L 247.77522276923392 7.2837377396252005  Z " fill-rule="nonzero" fill="#3578ff" stroke="none" fill-opacity="0.6784313725490196" transform="matrix(1 0 0 1 536 509 )" />
  </g>
</svg>