<?xml version="1.0" encoding="utf-8"?>
<svg version="1.1" xmlns:xlink="http://www.w3.org/1999/xlink" width="98px" height="12px" xmlns="http://www.w3.org/2000/svg">
  <g transform="matrix(1 0 0 1 -208 -202 )">
    <path d="M 8 12  L 8 0  L 10 0  L 10 12  L 8 12  Z M 1.4782097778795122 1.3828923024576278  C 1.9397672917057378 1.0358842743636183  2.4636079164454605 0.8623742654408064  3.0497446659750485 0.8623742654408064  C 3.63866524633338 0.8623742654408064  4.163176519501975 1.0358842743636183  4.623278485480834 1.3828923024576278  C 5.083507824774653 1.729900330551637  5.444574625382732 2.2207974508403567  5.706463324877914 2.8555975359925148  C 5.968491516860424 3.490267589104068  6.099503213418224 4.2399050168000505  6.099503213418224 5.104507659263775  C 6.099503213418224 5.975044315008046  5.968491516860424 6.729157049021415  5.706463324877914 7.366843646107279  C 5.444574625382732 8.004468273068172  5.083507824774653 8.496778051920664  4.623278485480834 8.843773702603654  C 4.163176519501975 9.190645468416614  3.63866524633338 9.364079080746574  3.0497446659750485 9.364079080746574  C 2.4636079164454605 9.364079080746574  1.9397672917057378 9.190645468416614  1.4782097778795122 8.843773702603654  C 1.0166522640532867 8.496778051920664  0.654853812470856 8.004468273068172  0.3928316665184088 7.366843646107279  C 0.1309429670232268 6.729157049021415  0 5.975044315008046  0 5.104507659263775  C 0 4.2399050168000505  0.1309429670232268 3.490267589104068  0.3928316665184088 2.8555975359925148  C 0.654853812470856 2.2207974508403567  1.0166522640532867 1.729900330551637  1.4782097778795122 1.3828923024576278  Z M 3.8819803245770546 2.594849402074133  C 3.6434415016341886 2.3741212730424754  3.366029525059379 2.263753712669507  3.0497446659750485 2.263753712669507  C 2.7334598068907185 2.263753712669507  2.455986909107157 2.3741212730424754  2.2173146668192683 2.594849402074133  C 1.9787758438764027 2.8154350662742518  1.7924394069821767 3.137241481018423  1.6583079453557423 3.560263980548802  C 1.5241825433154923 3.98315021779813  1.4571238277950052 4.497890911314161  1.4571238277950052 5.104507659263775  C 1.4571238277950052 5.711260697184397  1.5241825433154923 6.228266983026278  1.6583079453557423 6.6555138901687805  C 1.7924394069821767 7.082723637388265  1.9787758438764027 7.408160427085474  2.2173146668192683 7.631830780245409  C 2.455986909107157 7.855439190970327  2.7334598068907185 7.9672505334193415  3.0497446659750485 7.9672505334193415  C 3.366029525059379 7.9672505334193415  3.6434415016341886 7.855439190970327  3.8819803245770546 7.631830780245409  C 4.120525193549983 7.408160427085474  4.30686164400033 7.082723637388265  4.44098704604058 6.6555138901687805  C 4.575118507667015 6.228266983026278  4.642185045069445 5.711260697184397  4.642185045069445 5.104507659263775  C 4.642185045069445 4.497890911314161  4.575118507667015 3.98315021779813  4.44098704604058 3.560263980548802  C 4.30686164400033 3.137241481018423  4.120525193549983 2.8154350662742518  3.8819803245770546 2.594849402074133  Z M 17.61691567376397 4.4130685966640915  L 17.61691567376397 3.164123030247181  L 20.40480032499633 3.164123030247181  L 20.40480032499633 4.4130685966640915  L 17.61691567376397 4.4130685966640915  Z M 19.595594022016577 8.755789637841938  L 19.595594022016577 0.021762091429138517  L 21.11657260319455 0.021762091429138517  L 21.11657260319455 8.755789637841938  L 19.595594022016577 8.755789637841938  Z M 13.449962690013217 11.75749799746227  L 13.449962690013217 10.513315989820729  L 21.400781781621276 10.513315989820729  L 21.400781781621276 11.75749799746227  L 13.449962690013217 11.75749799746227  Z M 13.449962690013217 11.227438665636452  L 13.449962690013217 8.010080030622877  L 14.966762949285048 8.010080030622877  L 14.966762949285048 11.227438665636452  L 13.449962690013217 11.227438665636452  Z M 14.140454677573157 2.3755413940498045  C 14.140454677573157 2.3755413940498045  14.140454677573157 1.5621495558973852  14.140454677573157 1.5621495558973852  L 15.37614132581052 1.5621495558973852  C 15.37614132581052 1.5621495558973852  15.37614132581052 2.3755413940498045  15.37614132581052 2.3755413940498045  C 15.37614132581052 3.118881405462498  15.252412926499256 3.825361265338021  15.004964749569815 4.494984794890517  C 14.757516572640377 5.1646083244430105  14.390347023158114 5.749686438920827  13.90345637224545 6.250228608289444  C 13.416687021505439 6.750715010083575  12.810542629997471 7.12961411607453  12.084997929111593 7.386918643803474  C 12.084997929111593 7.386918643803474  11.322363951697024 6.155694650211595  11.322363951697024 6.155694650211595  C 11.792697427277043 5.9907942936313985  12.204041549828025 5.7775216025972735  12.556412586695433 5.515874984936663  C 12.908783623562844 5.254228367276053  13.202969185389414 4.954377472159409  13.438954685788719 4.6163137710798114  C 13.675122136447007 4.278113807719162  13.851065217208856 3.91830833963926  13.966783629839604 3.53688568167802  C 14.082562679000556 3.1554630237167807  14.140454677573157 2.76834888881308  14.140454677573157 2.3755413940498045  Z M 14.45593880368941 2.371274039313537  C 14.45593880368941 2.371274039313537  14.45593880368941 1.5621495558973852  14.45593880368941 1.5621495558973852  L 15.674440194385882 1.5621495558973852  C 15.674440194385882 1.5621495558973852  15.674440194385882 2.371274039313537  15.674440194385882 2.371274039313537  C 15.674440194385882 2.850799475530052  15.773279189126521 3.323945422429132  15.970934472104764 3.79072949082377  C 16.16877170534199 4.2573835271778036  16.46918968034219 4.6772198817439445  16.872202671701015 5.050237114644399  C 17.27527631314616 5.423130462674823  17.777123541047075 5.716557536852011  18.377731178853935 5.930503080009357  C 18.377731178853935 5.930503080009357  17.6321991701715 7.13596699534277  17.6321991701715 7.13596699534277  C 16.9322483719198 6.890059681826881  16.34658624930628 6.527735369069475  15.875221749370942 6.048996604546646  C 15.40397854960826 5.570152507425339  15.049611238330359 5.012509270597784  14.812109512885117 4.376080129863685  C 14.574668437526205 3.7395146991585797  14.45593880368941 3.0712488636041426  14.45593880368941 2.371274039313537  Z M 11.748025290335155 2.1060317145267278  L 11.748025290335155 0.8705120116820608  L 18.03302656233091 0.8705120116820608  L 18.03302656233091 2.1060317145267278  L 11.748025290335155 2.1060317145267278  Z M 32.70661290477936 4.222228523225893  L 32.70661290477936 2.96048089260018  L 35.051276160193275 2.96048089260018  L 35.051276160193275 4.222228523225893  L 32.70661290477936 4.222228523225893  Z M 34.62142261818087 7.129643938158798  L 34.62142261818087 0.017494736692870966  L 36.14241508082697 0.017494736692870966  L 36.14241508082697 7.129643938158798  L 34.62142261818087 7.129643938158798  Z M 30.081571756141702 7.690368679601051  C 30.679086266658114 7.5096237139676125  31.386942289885564 7.419242792636332  32.20515875016927 7.419242792636332  C 33.02913688731732 7.419242792636332  33.737730580436946 7.5096237139676125  34.33093901616086 7.690368679601051  C 34.92420812908335 7.871113645234491  35.38151192185722 8.131422214921919  35.702830629657726 8.471294596338014  C 36.02414933745824 8.811105035319095  36.18480908448601 9.222459014432449  36.18480908448601 9.705354041581899  C 36.18480908448601 10.431369055741435  35.82946741343948 10.9931499752341  35.11878173969358 11.390689794500641  C 34.4080353887491 11.78835349863721  33.43681988109885 11.987183758532936  32.20515875016927 11.987183758532936  C 30.973436996265605 11.987183758532936  30.00147498013215 11.78835349863721  29.289273081340305 11.390689794500641  C 28.577253105695196 10.9931499752341  28.221246805137614 10.431369055741435  28.221246805137614 9.705354041581899  C 28.221246805137614 9.222459014432449  28.381906552165386 8.811105035319095  28.7032252599659 8.471294596338014  C 29.0247259180254 8.131422214921919  29.484178491573456 7.871113645234491  30.081571756141702 7.690368679601051  Z M 33.55139741056793 8.723734856916021  C 33.18550162134751 8.640113981833615  32.73674778267449 8.598308653089578  32.20515875016927 8.598308653089578  C 31.673691017836692 8.598308653089578  31.224263765286082 8.640113981833615  30.856851751019718 8.723734856916021  C 30.489500386839687 8.807169904693382  30.209778691219594 8.929652084544308  30.0177031212906 9.091195213757612  C 29.82568820144794 9.252552529510849  29.729676539129027 9.4572787982204  29.729676539129027 9.705354041581899  C 29.729676539129027 9.94481945261606  29.82568820144794 10.146718548970908  30.0177031212906 10.31104904622495  C 30.209778691219594 10.475379543478992  30.489500386839687 10.599354364336044  30.856851751019718 10.68297523941845  C 31.224263765286082 10.766472229630825  31.673691017836692 10.80821713888751  32.20515875016927 10.80821713888751  C 32.73674778267449 10.80821713888751  33.18550162134751 10.766472229630825  33.55139741056793 10.68297523941845  C 33.917293199788354 10.599354364336044  34.19629983712647 10.475379543478992  34.38843605714179 10.31104904622495  C 34.580511627070784 10.146718548970908  34.67655980958025 9.94481945261606  34.67655980958025 9.705354041581899  C 34.67655980958025 9.4572787982204  34.580511627070784 9.252552529510849  34.38843605714179 9.091195213757612  C 34.19629983712647 8.929652084544308  33.917293199788354 8.807169904693382  33.55139741056793 8.723734856916021  Z M 29.16638044401434 2.0277874261896494  C 29.16638044401434 2.0277874261896494  29.16638044401434 1.2144097652954895  29.16638044401434 1.2144097652954895  L 30.401983803442942 1.2144097652954895  C 30.401983803442942 1.2144097652954895  30.401983803442942 2.0277874261896494  30.401983803442942 2.0277874261896494  C 30.401983803442942 2.7797992123646957  30.278255404131674 3.4935185008789897  30.030807227202235 4.168964563942979  C 29.783359050272797 4.8444167741775415  29.416189500790537 5.437493963589256  28.92929884987787 5.948182121059608  C 28.442529499137862 6.458882683630938  27.839221210862053 6.842879067765522  27.119377509641954 7.100183595494467  C 27.119377509641954 7.100183595494467  26.352384751235594 5.877451779600343  26.352384751235594 5.877451779600343  C 26.82271822681561 5.712687685301196  27.234062349366592 5.493724209573548  27.586433386234003 5.220562695380341  C 27.93880442310141 4.947264918906082  28.232347994139364 4.638680112762368  28.467059842725796 4.294787731000702  C 28.701711041225906 3.9507590869579854  28.87689381337315 3.5851864652816667  28.9926122260039 3.1980775637799406  C 29.10845192525118 2.810826197446676  29.16638044401434 2.4207311832339746  29.16638044401434 2.0277874261896494  Z M 29.481781281321833 2.0235200714533814  C 29.481781281321833 2.0235200714533814  29.481781281321833 1.2144097652954895  29.481781281321833 1.2144097652954895  L 30.700282672018304 1.2144097652954895  C 30.700282672018304 1.2144097652954895  30.700282672018304 2.0235200714533814  30.700282672018304 2.0235200714533814  C 30.700282672018304 2.503045507669897  30.79910778529082 2.9754583906330856  30.996763068269058 3.44074969341679  C 31.194600301506284 3.9060471987509837  31.495032157974613 4.3237059319863755  31.89804514933343 4.693749955696068  C 32.30111879077858 5.063787804545229  32.80295213721137 5.355859039951514  33.40355977501823 5.569947047940399  C 33.40355977501823 5.569947047940399  32.65802776633579 6.783917318229827  32.65802776633579 6.783917318229827  C 31.958076968084097 6.538010004713938  31.372428726938704 6.175695494201502  30.901064227003367 5.696975281950223  C 30.42982102724068 5.218124982278427  30.075439834494652 4.660481800830787  29.83793810904941 4.024058807267262  C 29.600497033690502 3.3874933765621567  29.481781281321833 2.7206518016637014  29.481781281321833 2.0235200714533814  Z M 26.773853886499452 2.015183843596487  L 26.773853886499452 0.7794514818779197  L 33.058855158495206 0.7794514818779197  L 33.058855158495206 2.015183843596487  L 26.773853886499452 2.015183843596487  Z M 38.104796585498796 10.556981945261604  L 38.104796585498796 9.295234314635891  L 48.71613785827645 9.295234314635891  L 48.71613785827645 10.556981945261604  L 38.104796585498796 10.556981945261604  Z M 42.63719309915391 9.607984631852046  L 42.63719309915391 6.648170070390087  L 44.145636714613445 6.648170070390087  L 44.145636714613445 9.607984631852046  L 42.63719309915391 9.607984631852046  Z M 39.25862421619282 6.991203011249655  L 39.25862421619282 0.7930758270658038  L 40.76277845800119 0.7930758270658038  L 40.76277845800119 2.716178378263428  L 46.02842188104658 2.716178378263428  L 46.02842188104658 0.7930758270658038  L 47.52830063067193 0.7930758270658038  L 47.52830063067193 6.991203011249655  L 39.25862421619282 6.991203011249655  Z M 46.02842188104658 3.938499053668011  L 40.76277845800119 3.938499053668011  L 40.76277845800119 5.755513181305867  L 46.02842188104658 5.755513181305867  L 46.02842188104658 3.938499053668011  Z M 57.65466505150591 7.497288599357771  L 57.65466505150591 5.781315791339113  L 59.16291432641168 5.781315791339113  L 59.16291432641168 7.497288599357771  L 57.65466505150591 7.497288599357771  Z M 54.48887131199138 4.1856370196567685  L 54.48887131199138 0.19085425069645784  L 55.984391280624926 0.19085425069645784  L 55.984391280624926 1.0727364235030588  L 60.85848013221956 1.0727364235030588  L 60.85848013221956 0.19085425069645784  L 62.36255108521919 0.19085425069645784  L 62.36255108521919 4.1856370196567685  L 54.48887131199138 4.1856370196567685  Z M 60.85848013221956 2.212545455834296  L 55.984391280624926 2.212545455834296  L 55.984391280624926 3.032827441501088  L 60.85848013221956 3.032827441501088  L 60.85848013221956 2.212545455834296  Z M 53.12208807876515 6  L 53.12208807876515 5  L 63.71678547125884 5  L 63.71678547125884 6  L 53.12208807876515 6  Z M 54.35295785756254 8.128814568550588  L 54.35295785756254 6.993244536439098  L 62.40948432895567 6.993244536439098  L 62.40948432895567 9.928149655138192  L 55.86539933584257 9.928149655138192  L 55.86539933584257 11.126071269077274  L 54.37405768911517 11.126071269077274  L 54.37405768911517 8.853527656286552  L 60.918156563696385 8.853527656286552  L 60.918156563696385 8.128814568550588  L 54.35295785756254 8.128814568550588  Z M 54.37405768911517 11.887574341998  L 54.37405768911517 10.721806749792657  L 62.73189530766716 10.721806749792657  L 62.73189530766716 11.887574341998  L 54.37405768911517 11.887574341998  Z M 73 12  L 73 0  L 74 0  L 74 12  L 73 12  Z M 71.14477294734164 5.643923981541209  L 71.14477294734164 4.390923719261932  L 73.40964552396309 4.390923719261932  L 73.40964552396309 5.643923981541209  L 71.14477294734164 5.643923981541209  Z M 65.25522693934025 9.20380517611699  L 65.25522693934025 7.924506099765367  C 65.25522693934025 7.924506099765367  66.19854210589237 7.924506099765367  66.19854210589237 7.924506099765367  C 66.85203569716026 7.924506099765367  67.46104395483665 7.916573655522418  68.02556541486042 7.900716660405044  C 68.59020817505686 7.884859665287669  69.14356888048226 7.852442126881145  69.68565018813638 7.803446491483013  C 70.2277921187646 7.754265032241079  70.78191321414134 7.679130606496463  71.34801152218515 7.578042262406873  C 71.34801152218515 7.578042262406873  71.48010757287912 8.839775715774326  71.48010757287912 8.839775715774326  C 70.89981736153271 8.938014756310652  70.33219290536225 9.013149178594023  69.7772539963047 9.065179944850465  C 69.2224363874198 9.117024883801863  68.65422028789492 9.153143835747493  68.07259582887379 9.173522552473576  C 67.49097136985266 9.19371544362524  66.86628827766144 9.20380517611699  66.19854210589237 9.20380517611699  C 66.19854210589237 9.20380517611699  65.25522693934025 9.20380517611699  65.25522693934025 9.20380517611699  Z M 65.23412710778761 2.2844808642456633  L 65.23412710778761 1.0487485025270962  L 70.49567549773562 1.0487485025270962  L 70.49567549773562 5.466297112801355  L 66.75511957043372 5.466297112801355  L 66.75511957043372 8.307207009236484  L 65.25522693934025 8.307207009236484  L 65.25522693934025 4.2350305874346965  L 69.00425056219946 4.2350305874346965  L 69.00425056219946 2.2844808642456633  L 65.23412710778761 2.2844808642456633  Z M 81.09782723861338 9.54749027085652  L 81.09782723861338 6.752231146018672  L 82.60625697260478 6.752231146018672  L 82.60625697260478 9.54749027085652  L 81.09782723861338 9.54749027085652  Z M 79.62879311116563 1.0743668082029618  C 80.28428812817008 0.8054049191098809  81.02684483936768 0.6709245698974275  81.85646335320745 0.6709245698974275  C 82.6888110395952 0.6709245698974275  83.43199588722553 0.8054049191098809  84.08603535638261 1.0743668082029618  C 84.74013544851377 1.3433286972960423  85.25617338677863 1.7208230917410383  85.63413832628022 2.2068461980137664  C 86.01222456595447 2.6927392168659754  86.20127958806601 3.2639292670003046  86.20127958806601 3.9204088721282195  C 86.20127958806601 4.580010298449008  86.01222456595447 5.1542434749168855  85.63413832628022 5.643115877820389  C 85.25617338677863 6.1318519907528835  84.74013544851377 6.510760871298849  84.08603535638261 6.779834267850941  C 83.43199588722553 7.048845721968016  82.6888110395952 7.183347392447775  81.85646335320745 7.183347392447775  C 81.02684483936768 7.183347392447775  80.28428812817008 7.048845721968016  79.62879311116563 6.779834267850941  C 78.97323741696262 6.510760871298849  78.45641653136072 6.1318519907528835  78.07833029168648 5.643115877820389  C 77.70036535218489 5.1542434749168855  77.51138337045447 4.580010298449008  77.51138337045447 3.9204088721282195  C 77.51138337045447 3.2639292670003046  77.70036535218489 2.6927392168659754  78.07833029168648 2.2068461980137664  C 78.45641653136072 1.7208230917410383  78.97323741696262 1.3433286972960423  79.62879311116563 1.0743668082029618  Z M 83.34042005889141 2.1426232180958524  C 82.91084276351718 1.9794819906731362  82.4161935377481 1.8979095632695593  81.85646335320745 1.8979095632695593  C 81.29655124552004 1.8979095632695593  80.80174715462216 1.9794819906731362  80.37204855907527 2.1426232180958524  C 79.94247126370104 2.30562198068703  79.60614159175395 2.537246481824755  79.36306016681559 2.8375073544527223  C 79.12003939196354 3.1377682270806897  78.99851893233946 3.4987428759277246  78.99851893233946 3.9204088721282195  C 78.99851893233946 4.339368008839521  79.12003939196354 4.701137940957036  79.36306016681559 5.00573470096618  C 79.60614159175395 5.310331460975324  79.94247126370104 5.544203832866074  80.37204855907527 5.707338857738302  C 80.80174715462216 5.870343809034989  81.29655124552004 5.951839853690695  81.85646335320745 5.951839853690695  C 82.4161935377481 5.951839853690695  82.91084276351718 5.870343809034989  83.34042005889141 5.707338857738302  C 83.7701186544383 5.544203832866074  84.1065074852984 5.310331460975324  84.34958891023676 5.00573470096618  C 84.5926096850888 4.701137940957036  84.71411626324476 4.339368008839521  84.71411626324476 3.9204088721282195  C 84.71411626324476 3.4987428759277246  84.5926096850888 3.1377682270806897  84.34958891023676 2.8375073544527223  C 84.1065074852984 2.537246481824755  83.7701186544383 2.30562198068703  83.34042005889141 2.1426232180958524  Z M 76.56543072495825 10.552714590525339  L 76.56543072495825 9.290966959899626  L 87.17678587920403 9.290966959899626  L 87.17678587920403 10.552714590525339  L 76.56543072495825 10.552714590525339  Z M 96 11.973984731092854  L 96 0.008747368346435483  L 98 0.008747368346435483  L 98 11.973984731092854  L 96 11.973984731092854  Z M 93.03010125539465 1.536134286990239  C 93.03010125539465 1.536134286990239  93.03010125539465 1.2617476306257134  93.03010125539465 1.2617476306257134  C 93.03010125539465 1.2617476306257134  94.53027151585064 1.2617476306257134  94.53027151585064 1.2617476306257134  C 94.53027151585064 2.1641593040915565  94.43959096087399 3.026058576000737  94.2582502664392 3.84743852386387  C 94.07751607286768 4.668688384306484  93.78125474353581 5.4444031064145  93.36944762522076 6.174592935472209  C 92.95824700776897 6.904634124837848  92.40633390630391 7.581257952555806  91.71372163293658 8.204450241367821  C 91.02171586043254 8.82758061543478  90.16313854354999 9.39223494951124  89.13798745908508 9.898419944566921  C 89.13798745908508 9.898419944566921  88.34113566273813 8.671420773936529  88.34113566273813 8.671420773936529  C 89.47072440645037 8.11630208591773  90.37932234656445 7.489927722565233  91.06690074410335 6.792281900603243  C 91.75405456392572 6.0945989187182334  92.25288311475391 5.310128133617114  92.5634062969739 4.438885383955597  C 92.87453598005715 3.56763643174359  93.03010125539465 2.6000519020564115  93.03010125539465 1.536134286990239  Z M 88.94495176331473 2.49728151072864  L 88.94495176331473 1.2617476306257134  L 93.72969948604573 1.2617476306257134  L 93.72969948604573 2.49728151072864  L 88.94495176331473 2.49728151072864  Z " fill-rule="nonzero" fill="#3578ff" stroke="none" fill-opacity="0.6784313725490196" transform="matrix(1 0 0 1 208 202 )" />
  </g>
</svg>