<?xml version="1.0" encoding="utf-8"?>
<svg version="1.1" xmlns:xlink="http://www.w3.org/1999/xlink" width="702px" height="150px" xmlns="http://www.w3.org/2000/svg">
  <g transform="matrix(1 0 0 1 -59 -14 )">
    <path d="M 0 25  C 0 11.19288057088852  11.224860229662486 0  25.07142857142857 0  C 25.07142857142857 0  676.9285714285714 0  676.9285714285714 0  C 690.7751397703375 0  702 11.19288057088852  702 25  C 702 25  702 125  702 125  C 702 138.80711942911148  690.7751397703375 150  676.9285714285714 150  C 676.9285714285714 150  25.07142857142857 150  25.07142857142857 150  C 11.224860229662486 150  0 138.80711942911148  0 125  C 0 125  0 25  0 25  Z " fill-rule="nonzero" fill="#3578ff" stroke="none" transform="matrix(1 0 0 1 59 14 )" />
  </g>
</svg>