<?xml version="1.0" encoding="utf-8"?>
<svg version="1.1" xmlns:xlink="http://www.w3.org/1999/xlink" width="702px" height="151px" xmlns="http://www.w3.org/2000/svg">
  <g transform="matrix(1 0 0 1 -59 -14 )">
    <path d="M 0 25.166666666666664  C 0 11.267499774694443  11.224860229662486 0  25.07142857142857 0  C 25.07142857142857 0  676.9285714285714 0  676.9285714285714 0  C 690.7751397703375 0  702 11.267499774694443  702 25.166666666666664  C 702 25.166666666666664  702 125.83333333333334  702 125.83333333333334  C 702 139.73250022530556  690.7751397703375 151  676.9285714285714 151  C 676.9285714285714 151  25.07142857142857 151  25.07142857142857 151  C 11.224860229662486 151  0 139.73250022530556  0 125.83333333333334  C 0 125.83333333333334  0 25.166666666666664  0 25.166666666666664  Z " fill-rule="nonzero" fill="#aaaaaa" stroke="none" transform="matrix(1 0 0 1 59 14 )" />
  </g>
</svg>