<?xml version="1.0" encoding="utf-8"?>
<svg version="1.1" xmlns:xlink="http://www.w3.org/1999/xlink" width="252px" height="54px" xmlns="http://www.w3.org/2000/svg">
  <g transform="matrix(1 0 0 1 -15 -5 )">
    <path d="M 0 9  C 0 4.029437005519867  4.029437005519867 0  9 0  C 9 0  243 0  243 0  C 247.97056299448013 0  252 4.029437005519867  252 9  C 252 9  252 45  252 45  C 252 49.97056299448013  247.97056299448013 54  243 54  C 243 54  9 54  9 54  C 4.029437005519867 54  0 49.97056299448013  0 45  C 0 45  0 9  0 9  Z " fill-rule="nonzero" fill="#aaaaaa" stroke="none" transform="matrix(1 0 0 1 15 5 )" />
  </g>
</svg>