<?xml version="1.0" encoding="utf-8"?>
<svg version="1.1" xmlns:xlink="http://www.w3.org/1999/xlink" width="26px" height="27px" xmlns="http://www.w3.org/2000/svg">
  <g transform="matrix(1 0 0 1 -161 -200 )">
    <path d="M 18.616683809884794 19.150896477770786  C 18.902970957934194 18.67320807699895  18.753009719254596 18.05903726147983  18.275864465734152 17.78607245232272  C 18.275864465734152 17.78607245232272  13.681637388183633 15.056424401426591  13.681637388183633 15.056424401426591  C 13.681637388183633 15.056424401426591  13.681637388183633 8.873771930594188  13.681637388183633 8.873771930594188  C 13.681637388183633 8.327842312279977  13.245389935914204 7.891098267824248  12.70008105733569 7.891098267824248  C 12.70008105733569 7.891098267824248  12.618285454833662 7.891098267824248  12.618285454833662 7.891098267824248  C 12.07297657625515 7.891098267824248  11.636729123985724 8.327842312279977  11.636729123985724 8.873771930594188  C 11.636729123985724 8.873771930594188  11.636729123985724 15.315740393558771  11.636729123985724 15.315740393558771  C 11.636729123985724 15.793428794330609  11.88211780041094 16.24382155412395  12.304732178262135 16.489489888466583  C 12.304732178262135 16.489489888466583  17.28067640121431 19.478453931494897  17.28067640121431 19.478453931494897  C 17.744188945974614 19.751418740652  18.344029370595543 19.61493665130412  18.616683809884794 19.150896477770786  Z M 25.847256976756398 4.2265425835979995  C 25.764851405770973 4.06726556429644  25.651892551744684 3.9258135074757265  25.51484029304652 3.81027474411796  C 25.51484029304652 3.81027474411796  21.31596209456956 0.3163250323422905  21.31596209456956 0.3163250323422905  C 20.743387798470764 -0.16136336842954724  19.884526537151615 -0.09312235426180177  19.393748534242352 0.4937519864428485  C 18.916603280721908 1.0669780592340685  18.998398476937165 1.9268172701082131  19.57097277303596 2.418153938793481  C 19.57097277303596 2.418153938793481  23.756217937723367 5.912103691244076  23.756217937723367 5.912103691244076  C 24.32879223382216 6.389792092015914  25.187653495141316 6.321550752448764  25.67843149805058 5.734676411744114  C 25.794010119634585 5.597612670960028  25.881467805648917 5.439084263495568  25.935802790152515 5.268156491371036  C 25.990137774656112 5.097228719246503  26.01028441189162 4.917254050505507  25.99509075571339 4.738525356423225  C 25.97989709953516 4.559796662340943  25.929662547741824 4.38581960289956  25.847256976756398 4.2265425835979995  Z M 0.32156982238142556 5.734676411744114  C 0.7987150759018691 6.321550752448764  1.657576357535357 6.389792092015914  2.230150653634154 5.912103691244076  C 2.230150653634154 5.912103691244076  6.415396793409805 2.418153938793481  6.415396793409805 2.418153938793481  C 7.001603838897422 1.9268172701082131  7.08340033523034 1.0669780592340685  6.592622332321076 0.4937519864428485  C 6.479604251841043 0.35567957868478195  6.340326983967049 0.24144726343137868  6.182869449685198 0.15768079285842795  C 6.025411915403345 0.0739143222854772  5.852908200692163 0.02228122852288604  5.675363970439325 0.005776211866247901  C 5.497819740186488 -0.010728804790390237  5.318768429792897 0.00822295481713566  5.148596923021534 0.061532097022183284  C 4.978425416250171 0.11484123922723091  4.820520489135517 0.20144664673924728  4.684040830695179 0.3163250323422905  C 4.684040830695179 0.3163250323422905  0.48516230718880066 3.81027474411796  0.48516230718880066 3.81027474411796  C 0.3481100484906384 3.9258135074757265  0.23515152965093342 4.06726556429644  0.15274595866550922 4.2265425835979995  C 0.07034038768008505 4.38581960289956  0.020104213596369536 4.559796662340943  0.004910557418141655 4.738525356423225  C -0.010283098760086226 4.917254050505507  0.00986386572672327 5.097228719246503  0.06419885023032085 5.268156491371036  C 0.11853383473391843 5.439084263495568  0.20599120079742217 5.597612670960028  0.32156982238142556 5.734676411744114  Z M 17.69562975449278 3.3666121795406405  C 16.20691458827024 2.7493612349423238  14.611337876077787 2.4317125504122545  13.00000130011766 2.4318021660319853  C 9.745760316308626 2.431983152946617  6.624875651246439 3.726370507571972  4.323907588636772 6.030213913230105  C 2.0229395260271055 8.334057318888236  0.7303706087741639 11.45863839728404  0.730551389900786 14.716583770967413  C 0.7307321710274083 17.974529144650788  2.023647765122744 21.098966071110233  4.3248716258821425 23.40255338743673  C 6.6260954866415425 25.706140703763232  9.747124139734648 27.000180986914632  13.001365123543682 27  C 14.612701699503807 26.99991038438027  16.20824168337235 26.682085879664026  17.696888268388292 26.064669347443555  C 19.185534853404235 25.44725281522308  20.53813346982902 24.54233761111426  21.677457209877495 23.401590205198318  C 22.816780949925967 22.260842799282372  23.72051719430609 20.906600518431155  24.33706630450056 19.416190707769257  C 24.953615414695033 17.92578089710736  25.270902922337335 16.32838919870662  25.27081340861348 14.715218395064577  C 25.270723894889628 13.102047591422531  24.953260766974413 11.504690059959302  24.336546257436304 10.01434890857183  C 23.71983174789819 8.524007757184362  22.815945461814298 7.169869441443004  21.676495122808618 6.0292487785952575  C 20.537044783802934 4.88862811574751  19.184344920715326 3.9838631241389573  17.69562975449278 3.3666121795406405  Z M 22.542906533041243 14.715218395064577  C 22.542906533041243 19.983438990118373  18.262231756974007 24.268987874798654  13.00000130011766 24.268987874798654  C 7.737770843261316 24.268987874798654  3.457095742164666 19.983438990118373  3.457095742164666 14.715218395064577  C 3.457095742164666 9.44699780001078  7.737770843261316 5.161450216928116  13.00000130011766 5.161450216928116  C 18.262231756974007 5.161450216928116  22.542906533041243 9.44699780001078  22.542906533041243 14.715218395064577  Z " fill-rule="nonzero" fill="#ffffff" stroke="none" fill-opacity="0.9921568627450981" transform="matrix(1 0 0 1 161 200 )" />
  </g>
</svg>