<?xml version="1.0" encoding="utf-8"?>
<svg version="1.1" xmlns:xlink="http://www.w3.org/1999/xlink" width="68px" height="64px" xmlns="http://www.w3.org/2000/svg">
  <g transform="matrix(1 0 0 1 -412 -167 )">
    <path d="M 50.115531629865096 31.92962981366815  C 50.115531629865096 31.92962981366815  67.80872937952734 15.229568576505878  67.80872937952734 15.229568576505878  C 67.80872937952734 15.229568576505878  51.6544493611548 0  51.6544493611548 0  C 51.6544493611548 0  33.95171012417638 16.708996452915724  33.95171012417638 16.708996452915724  C 33.95171012417638 16.708996452915724  16.284848537840766 0.07312515111184356  16.284848537840766 0.07312515111184356  C 16.284848537840766 0.07312515111184356  0.13050278491774414 15.302699499509233  0.13050278491774414 15.302699499509233  C 0.13050278491774414 15.302699499509233  17.806801715007577 31.947422075144992  17.806801715007577 31.947422075144992  C 17.806801715007577 31.947422075144992  0 48.75470113488346  0 48.75470113488346  C 0 48.75470113488346  16.154347767381665 63.984213467099416  16.154347767381665 63.984213467099416  C 16.154347767381665 63.984213467099416  33.97058277352666 47.16813551251358  33.97058277352666 47.16813551251358  C 33.97058277352666 47.16813551251358  51.84572807106139 64  51.84572807106139 64  C 51.84572807106139 64  68 48.770495294128445  68 48.770495294128445  C 68 48.770495294128445  50.115531629865096 31.92962981366815  50.115531629865096 31.92962981366815  Z " fill-rule="nonzero" fill="#6100ff" stroke="none" transform="matrix(1 0 0 1 412 167 )" />
  </g>
</svg>