<?xml version="1.0" encoding="utf-8"?>
<svg version="1.1" xmlns:xlink="http://www.w3.org/1999/xlink" width="209px" height="67px" xmlns="http://www.w3.org/2000/svg">
  <g transform="matrix(1 0 0 1 -75 -369 )">
    <path d="M 0 60  L 0 52  L 66.56356503957599 52  L 66.56356503957599 60  L 0 60  Z M 28 56  L 28 39  L 39 39  L 39 56  L 28 56  Z M 7.530981494104173 13  L 7.530981494104173 5  L 59 5  L 59 27  L 19 27  L 19 38  L 8 38  L 8 20  L 48.62010439223287 20  L 48.62010439223287 13  L 7.530981494104173 13  Z M 7.645013856623745 42  L 7.645013856623745 34  L 60.75437530816111 34  L 60.75437530816111 42  L 7.645013856623745 42  Z M 79.8465585649082 14  L 79.8465585649082 7  L 126.39760550122645 7  L 126.39760550122645 14  L 79.8465585649082 14  Z M 73.03885882627519 59  L 73.03885882627519 51  L 139.53264768935196 51  L 139.53264768935196 59  L 73.03885882627519 59  Z M 120.86493617297518 14.303165335659799  C 120.86493617297518 14.303165335659799  120.86493617297518 7  120.86493617297518 7  L 131.37529579602554 7  C 131.37529579602554 7  131.37529579602554 14.303165335659799  131.37529579602554 14.303165335659799  C 131.37529579602554 17.486935903700534  131.33548460910401 20.71915661158787  131.25609482783938 23.99967787396819  C 131.17670504657474 27.279544297921838  130.96227131527883 30.792537885460707  130.6126034223465 34.53880500190144  C 130.26275910468766 38.2844172799155  129.63196538976996 42.503136123764065  128.72057071051327 47.19481019170973  C 128.72057071051327 47.19481019170973  118.15690984152597 46.35099657741092  118.15690984152597 46.35099657741092  C 119.07994839499864 41.98084261507897  119.72219587603966 37.94753935435681  120.08350760375467 34.25103908015122  C 120.44570145510218 30.55453880594563  120.66634542352438 27.07025038430726  120.74573520478901 23.798241728743037  C 120.82512498605361 20.526069436754803  120.86493617297518 17.361045338470014  120.86493617297518 14.303165335659799  Z M 196 49  L 196 0  L 207 0  L 207 49  L 196 49  Z M 158.1754852909582 67  L 158.1754852909582 59  L 209 59  L 209 67  L 158.1754852909582 67  Z M 158 62  L 158 44  L 168 44  L 168 62  L 158 62  Z M 156.96247814857577 6.515200322126032  C 159.9808776098783 5.0410694481145  163.36369090080902 4.303899067176699  167.11071233710933 4.303899067176699  C 170.86937764762558 4.303899067176699  174.25450457100013 5.0410694481145  177.26637639628862 6.515200322126032  C 180.27895392048313 7.988561900033275  182.6737016741915 10.025779760132151  184.45009219716746 12.627228597633268  C 186.22718841904947 15.22787535319917  187.11547753186713 18.2234139766906  187.11547753186713 21.613618772789298  C 187.11547753186713 24.926390169039273  186.22718841904947 27.89575135564867  184.45009219716746 30.52177258796949  C 182.6737016741915 33.14697534543962  180.27895392048313 35.20627738997523  177.26637639628862 36.69944746437599  C 174.25450457100013 38.1921263367741  170.86937764762558 38.93832628682639  167.11071233710933 38.93832628682639  C 163.36369090080902 38.93832628682639  159.9808776098783 38.1921263367741  156.96247814857577 36.69944746437599  C 153.9447843861793 35.20627738997523  151.54731289337636 33.14697534543962  149.7700403256345 30.52177258796949  C 147.99382630625172 27.89575135564867  147.1059471423515 24.926390169039273  147.1059471423515 21.613618772789298  C 147.1059471423515 18.2234139766906  147.99382630625172 15.22787535319917  149.7700403256345 12.627228597633268  C 151.54731289337636 10.025779760132151  153.9447843861793 7.988561900033275  156.96247814857577 6.515200322126032  Z M 172.05512973292963 13.81066595083104  C 170.584830984106 13.110819237916427  168.93667734069976 12.760919848779723  167.11071233710933 12.760919848779723  C 165.28474733351885 12.760919848779723  163.6390838261496 13.110819237916427  162.1737248119348 13.81066595083104  C 160.709071496626 14.510512663745653  159.55528746135127 15.513184679474813  158.7126972424314 16.8184193454578  C 157.86993059878506 18.122999173014115  157.4486501190912 19.721331410136763  157.4486501190912 21.613618772789298  C 157.4486501190912 23.46678019809213  157.86993059878506 25.046166469532245  158.7126972424314 26.351564771939245  C 159.55528746135127 27.65614459949556  160.709071496626 28.658272428977433  162.1737248119348 29.358119141892043  C 163.6390838261496 30.057965854806657  165.28474733351885 30.40786524394336  167.11071233710933 30.40786524394336  C 168.93667734069976 30.40786524394336  170.584830984106 30.057965854806657  172.05512973292963 29.358119141892043  C 173.52631068425242 28.658272428977433  174.6834048322657 27.65614459949556  175.52617147591204 26.351564771939245  C 176.36893811955838 25.046166469532245  176.79021859925223 23.46678019809213  176.79021859925223 21.613618772789298  C 176.79021859925223 19.721331410136763  176.36893811955838 18.122999173014115  175.52617147591204 16.8184193454578  C 174.6834048322657 15.513184679474813  173.52631068425242 14.510512663745653  172.05512973292963 13.81066595083104  Z " fill-rule="nonzero" fill="#4c4c57" stroke="none" transform="matrix(1 0 0 1 75 369 )" />
  </g>
</svg>