<?xml version="1.0" encoding="utf-8"?>
<svg version="1.1" xmlns:xlink="http://www.w3.org/1999/xlink" width="52px" height="18px" xmlns="http://www.w3.org/2000/svg">
  <g transform="matrix(1 0 0 1 -168 -739 )">
    <path d="M 0 16  L 0 14  L 16.49894095189394 14  L 16.49894095189394 16  L 0 16  Z M 7.047060088268536 15.10398714642087  L 7.047060088268536 10.715521542429496  L 9.392504438123407 10.715521542429496  L 9.392504438123407 15.10398714642087  L 7.047060088268536 15.10398714642087  Z M 1.9066933583592165 3.111090440150522  L 1.9066933583592165 1.2157287218299437  L 14.592700848691226 1.2157287218299437  L 14.592700848691226 7.180364466618747  L 4.27162767994375 7.180364466618747  L 4.27162767994375 10.421445182021902  L 1.9397809847839922 10.421445182021902  L 1.9397809847839922 5.318489704452243  L 12.260551983427131 5.318489704452243  L 12.260551983427131 3.111090440150522  L 1.9066933583592165 3.111090440150522  Z M 1.9397809847839922 11.38252082364382  L 1.9397809847839922 9.480613927529491  L 15.008637997309524 9.480613927529491  L 15.008637997309524 11.38252082364382  L 1.9397809847839922 11.38252082364382  Z M 19.934615038192558 3.6356179442729695  L 19.934615038192558 2  L 31.519816838429065 2  L 31.519816838429065 3.6356179442729695  L 19.934615038192558 3.6356179442729695  Z M 18.21874210072143 15.866424252674307  L 18.21874210072143 14  L 34.69184750869466 14  L 34.69184750869466 15.866424252674307  L 18.21874210072143 15.866424252674307  Z M 30.281221580756412 3.8255803137288065  C 30.281221580756412 3.8255803137288065  30.281221580756412 1.740712866263583  30.281221580756412 1.740712866263583  L 32.62032035842023 1.740712866263583  C 32.62032035842023 1.740712866263583  32.62032035842023 3.8255803137288065  32.62032035842023 3.8255803137288065  C 32.62032035842023 4.659778177323369  32.6103596240415 5.51704425486766  32.59055660314315 6.397378546361677  C 32.570753582244805 7.2777128378556935  32.51686794892916 8.227654007098009  32.42874451227131 9.247270728510424  C 32.340703589593346 10.26676273598368  32.18223833140361 11.417003112976197  31.95343093815101 12.69810156018773  C 31.95343093815101 12.69810156018773  29.5949932738097 12.484850534861106  29.5949932738097 12.484850534861106  C 29.82833886218519 11.288210998279672  29.99113360529362 10.186723514928016  30.083300162416432 9.18044902963934  C 30.17571425225747 8.174216090889391  30.231805889633154 7.2310799325345645  30.2516089105315 6.350953448057164  C 30.271411931429846 5.4706191565631475  30.281221580756412 4.6288126278355035  30.281221580756412 3.8255803137288065  Z M 49 13.241807957380239  L 49 0  L 51 0  L 51 13.241807957380239  L 49 13.241807957380239  Z M 39.49892061352153 18  L 39.49892061352153 16  L 52 16  L 52 18  L 39.49892061352153 18  Z M 39.49892061352153 16.84652657392922  L 39.49892061352153 11.911766944315252  L 41.8443649633764 11.911766944315252  L 41.8443649633764 16.84652657392922  L 39.49892061352153 16.84652657392922  Z M 39.144021825979074 1.778766225529576  C 39.88374715149291 1.3861903054442728  40.71379175563191 1.1898524375290684  41.63405457075865 1.1898524375290684  C 42.55860803906856 1.1898524375290684  43.38961153163925 1.3861903054442728  44.127109016581585 1.778766225529576  C 44.86477152948374 2.171342145614879  45.45032237909201 2.714694170899222  45.88392600319022 3.408819923047651  C 46.317694655248246 4.10294567519608  46.53464932287747 4.9023897476586615  46.53464932287747 5.807247050864657  C 46.53464932287747 6.694231687151177  46.317694655248246 7.48815467798666  45.88392600319022 8.188930700604626  C 45.45032237909201 8.889706723222591  44.86477152948374 9.43862145099573  44.127109016581585 9.835727876199737  C 43.38961153163925 10.232668040925859  42.55860803906856 10.431034628556933  41.63405457075865 10.431034628556933  C 40.71379175563191 10.431034628556933  39.88374715149291 10.232668040925859  39.144021825979074 9.835727876199737  C 38.404296500465236 9.43862145099573  37.8174985352286 8.889706723222591  37.383729883170574 8.188930700604626  C 36.95012625907236 7.48815467798666  36.73330873358766 6.694231687151177  36.73330873358766 5.807247050864657  C 36.73330873358766 4.9023897476586615  36.95012625907236 4.10294567519608  37.383729883170574 3.408819923047651  C 37.8174985352286 2.714694170899222  38.404296500465236 2.171342145614879  39.144021825979074 1.778766225529576  Z M 42.9645095401494 3.550530632954209  C 42.56927425276003 3.342708547355952  42.125829554769425 3.2387975138471945  41.63405457075865 3.2387975138471945  C 41.14227958674788 3.2387975138471945  40.69979377718896 3.342708547355952  40.30662130241126 3.550530632954209  C 39.91369636957329 3.758352718552466  39.60413704058886 4.052541919805188  39.37805257178719 4.433064141051118  C 39.15196810298553 4.813378555280432  39.038866629670196 5.271481728276553  39.038866629670196 5.807247050864657  C 39.038866629670196 6.334076039993024  39.15196810298553 6.7876651704077  39.37805257178719 7.16818739165363  C 39.60413704058886 7.548501805882943  39.91369636957329 7.8425943872781545  40.30662130241126 8.05041647287641  C 40.69979377718896 8.258238558474668  41.14227958674788 8.362149591983425  41.63405457075865 8.362149591983425  C 42.125829554769425 8.362149591983425  42.56927425276003 8.258238558474668  42.9645095401494 8.05041647287641  C 43.359744827538776 7.8425943872781545  43.6703176731195 7.548501805882943  43.896402141921165 7.16818739165363  C 44.122486610722824 6.7876651704077  44.235588084038156 6.334076039993024  44.235588084038156 5.807247050864657  C 44.235588084038156 5.271481728276553  44.122486610722824 4.813378555280432  43.896402141921165 4.433064141051118  C 43.6703176731195 4.052541919805188  43.359744827538776 3.758352718552466  42.9645095401494 3.550530632954209  Z " fill-rule="nonzero" fill="#ffffff" stroke="none" transform="matrix(1 0 0 1 168 739 )" />
  </g>
</svg>