<?xml version="1.0" encoding="utf-8"?>
<svg version="1.1" xmlns:xlink="http://www.w3.org/1999/xlink" width="900px" height="1800px" xmlns="http://www.w3.org/2000/svg">
  <defs>
    <mask fill="white" id="clip144">
      <path d="M 0 54.07725321888412  C 0 24.211210856621868  26.23819595159486 0  58.604651162790695 0  C 58.604651162790695 0  841.3953488372093 0  841.3953488372093 0  C 873.7618040484051 0  900 24.211210856621868  900 54.07725321888412  C 900 54.07725321888412  900 1745.9227467811158  900 1745.9227467811158  C 900 1775.7887891433782  873.7618040484051 1800  841.3953488372093 1800  C 841.3953488372093 1800  58.604651162790695 1800  58.604651162790695 1800  C 26.23819595159486 1800  0 1775.7887891433782  0 1745.9227467811158  C 0 1745.9227467811158  0 54.07725321888412  0 54.07725321888412  Z " fill-rule="evenodd" />
    </mask>
  </defs>
  <g>
    <path d="M 0 54.07725321888412  C 0 24.211210856621868  26.23819595159486 0  58.604651162790695 0  C 58.604651162790695 0  841.3953488372093 0  841.3953488372093 0  C 873.7618040484051 0  900 24.211210856621868  900 54.07725321888412  C 900 54.07725321888412  900 1745.9227467811158  900 1745.9227467811158  C 900 1775.7887891433782  873.7618040484051 1800  841.3953488372093 1800  C 841.3953488372093 1800  58.604651162790695 1800  58.604651162790695 1800  C 26.23819595159486 1800  0 1775.7887891433782  0 1745.9227467811158  C 0 1745.9227467811158  0 54.07725321888412  0 54.07725321888412  Z " fill-rule="nonzero" fill="#ffffff" stroke="none" />
    <path d="M 0 54.07725321888412  C 0 24.211210856621868  26.23819595159486 0  58.604651162790695 0  C 58.604651162790695 0  841.3953488372093 0  841.3953488372093 0  C 873.7618040484051 0  900 24.211210856621868  900 54.07725321888412  C 900 54.07725321888412  900 1745.9227467811158  900 1745.9227467811158  C 900 1775.7887891433782  873.7618040484051 1800  841.3953488372093 1800  C 841.3953488372093 1800  58.604651162790695 1800  58.604651162790695 1800  C 26.23819595159486 1800  0 1775.7887891433782  0 1745.9227467811158  C 0 1745.9227467811158  0 54.07725321888412  0 54.07725321888412  Z " stroke-width="2" stroke="#797979" fill="none" mask="url(#clip144)" />
  </g>
</svg>