<?xml version="1.0" encoding="utf-8"?>
<svg version="1.1" xmlns:xlink="http://www.w3.org/1999/xlink" width="181px" height="63px" xmlns="http://www.w3.org/2000/svg">
  <g transform="matrix(1 0 0 1 -65 -346 )">
    <path d="M 0 57  L 0 49  L 57.645958240015574 49  L 57.645958240015574 57  L 0 57  Z M 25 52.579343668210186  L 25 37.41018723575599  L 34 37.41018723575599  L 34 52.579343668210186  L 25 52.579343668210186  Z M 6.522046174319882 12  L 6.522046174319882 4  L 52 4  L 52 26  L 16 26  L 16 36.2218643044091  L 7 36.2218643044091  L 7 19  L 42.106406196144256 19  L 42.106406196144256 12  L 6.522046174319882 12  Z M 6.6208014739181715 40  L 6.6208014739181715 32  L 52.615033161613205 32  L 52.615033161613205 40  L 6.6208014739181715 40  Z M 69.14941196291093 14  L 69.14941196291093 6  L 109.46395500345449 6  L 109.46395500345449 14  L 69.14941196291093 14  Z M 63.25374855289861 55  L 63.25374855289861 48  L 120.83927862092203 48  L 120.83927862092203 55  L 63.25374855289861 55  Z M 104.6725045325766 13.449245017112945  C 104.6725045325766 13.449245017112945  104.6725045325766 5.829716126434467  104.6725045325766 5.829716126434467  L 113.77477769895036 5.829716126434467  C 113.77477769895036 5.829716126434467  113.77477769895036 13.449245017112945  113.77477769895036 13.449245017112945  C 113.77477769895036 16.44293973034528  113.74030006817141 19.482192037761727  113.67154623846376 22.56686128447755  C 113.60279240875612 25.650914787598147  113.41708664146157 28.95417741468693  113.11426420786945 32.47678679283269  C 112.81128898539936 35.99878042738323  112.26500351937015 39.96563545965875  111.4757095626933 44.377209583249446  C 111.4757095626933 44.377209583249446  102.32727598715886 43.583772901147576  102.32727598715886 43.583772901147576  C 103.12665387318064 39.4745236529847  103.6828586294889 35.68201461678327  103.99576495827557 32.206200926112345  C 104.30943523145213 28.730387235441412  104.50051924238235 25.454116033005334  104.56927307209 22.377451177773306  C 104.63802690179763 19.300632455456007  104.6725045325766 16.324565019755386  104.6725045325766 13.449245017112945  Z M 170 46.07429031608617  L 170 0  L 179 0  L 179 46.07429031608617  L 170 46.07429031608617  Z M 136.9845111849925 63  L 136.9845111849925 55  L 181 55  L 181 63  L 136.9845111849925 63  Z M 137 58.64469498691363  L 137 41.47235755989531  L 146 41.47235755989531  L 146 58.64469498691363  L 137 58.64469498691363  Z M 135.93401217651777 6.126233138715522  C 138.54803276262186 4.740110078077814  141.47764618682504 4.0469498691362995  144.72267432065448 4.0469498691362995  C 147.97778638382886 4.0469498691362995  150.90940348014846 4.740110078077814  153.51777094606814 6.126233138715522  C 156.12674956749976 7.511632831374572  158.20066987095055 9.427225744601873  159.73907506070483 11.873364203744714  C 161.27809140597105 14.318748466441011  162.04737527879402 17.135448963156836  162.04737527879402 20.32325347292128  C 162.04737527879402 23.438247472380212  161.27809140597105 26.23033336426666  159.73907506070483 28.69957720958325  C 158.20066987095055 31.168051444219348  156.12674956749976 33.104410083111034  153.51777094606814 34.508435675458024  C 150.90940348014846 35.91199939129505  147.97778638382886 36.61365009059795  144.72267432065448 36.61365009059795  C 141.47764618682504 36.61365009059795  138.54803276262186 35.91199939129505  135.93401217651777 34.508435675458024  C 133.3206027459256 33.104410083111034  131.24432360622546 31.168051444219348  129.70515454038204 28.69957720958325  C 128.16690220780652 26.23033336426666  127.39797336251495 23.438247472380212  127.39797336251495 20.32325347292128  C 127.39797336251495 17.135448963156836  128.16690220780652 14.318748466441011  129.70515454038204 11.873364203744714  C 131.24432360622546 9.427225744601873  133.3206027459256 7.511632831374572  135.93401217651777 6.126233138715522  Z M 149.00468173043188 12.986148580632172  C 147.73136080441714 12.328083761025894  146.30401243381178 11.999073887658547  144.72267432065448 11.999073887658547  C 143.14133620749718 11.999073887658547  141.71614436618697 12.328083761025894  140.44710139215405 12.986148580632172  C 139.17866957363302 13.64421340023845  138.17945947609846 14.587024400103182  137.44975215732097 15.814334608415544  C 136.71989204966553 17.041029073132673  136.35505106007423 18.5439384901286  136.35505106007423 20.32325347292128  C 136.35505106007423 22.065778395220956  136.71989204966553 23.550872948963157  137.44975215732097 24.778337024360784  C 138.17945947609846 26.005031489077915  139.17866957363302 26.94733079142654  140.44710139215405 27.605395611032815  C 141.71614436618697 28.263460430639093  143.14133620749718 28.59247030400644  144.72267432065448 28.59247030400644  C 146.30401243381178 28.59247030400644  147.73136080441714 28.263460430639093  149.00468173043188 27.605395611032815  C 150.27876666913727 26.94733079142654  151.28084341933058 26.005031489077915  152.01070352698602 24.778337024360784  C 152.74056363464146 23.550872948963157  153.1054046242328 22.065778395220956  153.1054046242328 20.32325347292128  C 153.1054046242328 18.5439384901286  152.74056363464146 17.041029073132673  152.01070352698602 15.814334608415544  C 151.28084341933058 14.587024400103182  150.27876666913727 13.64421340023845  149.00468173043188 12.986148580632172  Z " fill-rule="nonzero" fill="#4c4c57" stroke="none" transform="matrix(1 0 0 1 65 346 )" />
  </g>
</svg>