<?xml version="1.0" encoding="utf-8"?>
<svg version="1.1" xmlns:xlink="http://www.w3.org/1999/xlink" width="20px" height="34px" xmlns="http://www.w3.org/2000/svg">
  <g transform="matrix(1 0 0 1 -49 -58 )">
    <path d="M 19.113045984073565 5.1799009380610945  C 20.26722008596736 3.9932669286456632  20.26722008596736 2.046014098055835  19.113045984073565 0.889807117869861  C 17.931097322205883 -0.29660240889451844  16.01244286382441 -0.29660240889451844  14.83049420195673 0.889807117869861  C 14.83049420195673 0.889807117869861  0.8882862301882011 14.855621586834456  0.8882862301882011 14.855621586834456  C -0.2960953738533876 16.039590313625133  -0.2960953738533876 17.961746789048703  0.8882862301882011 19.145715515839385  C 0.8882862301882011 19.145715515839385  14.83049420195673 33.111530093617674  14.83049420195673 33.111530093617674  C 16.013153617079038 34.29615594630739  17.930386568951256 34.29615594630739  19.113045984073565 33.111530093617674  C 20.29565065066457 31.926904240927957  20.29565065066457 30.005839166856813  19.113045984073565 28.821213314167103  C 19.113045984073565 28.821213314167103  7.327909289157236 16.985403295810617  7.327909289157236 16.985403295810617  C 7.327909289157236 16.985403295810617  19.113045984073565 5.1799009380610945  19.113045984073565 5.1799009380610945  Z " fill-rule="nonzero" fill="#000000" stroke="none" transform="matrix(1 0 0 1 49 58 )" />
  </g>
</svg>