<?xml version="1.0" encoding="utf-8"?>
<svg version="1.1" xmlns:xlink="http://www.w3.org/1999/xlink" width="103px" height="36px" xmlns="http://www.w3.org/2000/svg">
  <g transform="matrix(1 0 0 1 -336 -1478 )">
    <path d="M 0 32  L 0 28  L 32.68059457778991 28  L 32.68059457778991 32  L 0 32  Z M 13.958599790224214 30.20797429284174  L 13.958599790224214 21.43104308485899  L 18.604383790898286 21.43104308485899  L 18.604383790898286 30.20797429284174  L 13.958599790224214 30.20797429284174  Z M 3.7767195367499866 6.222180880301044  L 3.7767195367499866 3  L 29 3  L 29 15  L 8.461108673734735 15  L 8.461108673734735 20.842890364043804  L 4 20.842890364043804  L 4 11  L 24.285324121019126 11  L 24.285324121019126 6.222180880301044  L 3.7767195367499866 6.222180880301044  Z M 3.842258489091369 22.76504164728764  L 3.842258489091369 19  L 29.728648340824634 19  L 29.728648340824634 22.76504164728764  L 3.842258489091369 22.76504164728764  Z M 39.485872094881415 7.271235888545939  L 39.485872094881415 4  L 62.43348335304219 4  L 62.43348335304219 7.271235888545939  L 39.485872094881415 7.271235888545939  Z M 36.08712377642899 31.732848505348613  L 36.08712377642899 27.862365227685935  L 68.71654410376057 27.862365227685935  L 68.71654410376057 31.732848505348613  L 36.08712377642899 31.732848505348613  Z M 59.980111977267505 7.651160627457613  C 59.980111977267505 7.651160627457613  59.980111977267505 3.481425732527166  59.980111977267505 3.481425732527166  L 64.61332686379392 3.481425732527166  C 64.61332686379392 3.481425732527166  64.61332686379392 7.651160627457613  64.61332686379392 7.651160627457613  C 64.61332686379392 9.319556354646737  64.59359694762067 11.03408850973532  64.55437173314893 12.794757092723353  C 64.5151465186772 14.555425675711387  64.40841151422508 16.455308014196017  64.23385932238355 18.494541457020848  C 64.0594705716945 20.53352547196736  63.74558746412639 22.834006225952393  63.29237281979911 25.39620312037546  C 63.29237281979911 25.39620312037546  58.62085206158459 24.969701069722213  58.62085206158459 24.969701069722213  C 59.08305582317452 22.576421996559343  59.40551464125467 20.37344702985603  59.588075321709475 18.36089805927868  C 59.77112630735614 16.348432181778783  59.882230896773365 14.462159865069129  59.921456111245085 12.701906896114329  C 59.96068132571681 10.941238313126295  59.980111977267505 9.257625255671007  59.980111977267505 7.651160627457613  Z M 97 26.483615914760477  L 97 0  L 102 0  L 102 26.483615914760477  L 97 26.483615914760477  Z M 78.23824659985995 36  L 78.23824659985995 32  L 103 32  L 103 36  L 78.23824659985995 36  Z M 78.23824659985995 33.69305314785844  L 78.23824659985995 23.823533888630504  L 82.88403060053402 23.823533888630504  L 82.88403060053402 33.69305314785844  L 78.23824659985995 33.69305314785844  Z M 77.53527400145855 3.557532451059152  C 79.00049916545711 2.7723806108885456  80.64462597750168 2.379704875058137  82.46745424592578 2.379704875058137  C 84.29878130815504 2.379704875058137  85.9448074569008 2.7723806108885456  87.40561978284428 3.557532451059152  C 88.8667589910928 4.342684291229758  90.02660009704763 5.429388341798444  90.8854688140114 6.817639846095302  C 91.74466441328018 8.20589135039216  92.17440154339192 9.804779495317323  92.17440154339192 11.614494101729314  C 92.17440154339192 13.388463374302354  91.74466441328018 14.97630935597332  90.8854688140114 16.377861401209252  C 90.02660009704763 17.779413446445183  88.8667589910928 18.87724290199146  87.40561978284428 19.671455752399474  C 85.9448074569008 20.465336081851717  84.29878130815504 20.862069257113866  82.46745424592578 20.862069257113866  C 80.64462597750168 20.862069257113866  79.00049916545711 20.465336081851717  77.53527400145855 19.671455752399474  C 76.07004883745999 18.87724290199146  74.90773748324126 17.779413446445183  74.04854188397249 16.377861401209252  C 73.18967316700872 14.97630935597332  72.7602076838371 13.388463374302354  72.7602076838371 11.614494101729314  C 72.7602076838371 9.804779495317323  73.18967316700872 8.20589135039216  74.04854188397249 6.817639846095302  C 74.90773748324126 5.429388341798444  76.07004883745999 4.342684291229758  77.53527400145855 3.557532451059152  Z M 85.102778512219 7.101061265908418  C 84.3199086160439 6.685417094711904  83.44154700271636 6.477595027694389  82.46745424592578 6.477595027694389  C 81.49336148913522 6.477595027694389  80.6168992125089 6.685417094711904  79.83811527208384 7.101061265908418  C 79.05982165511632 7.516705437104932  78.4466560611664 8.105083839610376  77.99883490180923 8.866128282102236  C 77.5510137424521 9.626757110560863  77.32698582415443 10.542963456553107  77.32698582415443 11.614494101729314  C 77.32698582415443 12.668152079986047  77.5510137424521 13.5753303408154  77.99883490180923 14.33637478330726  C 78.4466560611664 15.097003611765887  79.05982165511632 15.685188774556309  79.83811527208384 16.10083294575282  C 80.6168992125089 16.516477116949336  81.49336148913522 16.72429918396685  82.46745424592578 16.72429918396685  C 83.44154700271636 16.72429918396685  84.3199086160439 16.516477116949336  85.102778512219 16.10083294575282  C 85.8856484083941 15.685188774556309  86.50082154483286 15.097003611765887  86.94864270419 14.33637478330726  C 87.39646386354714 13.5753303408154  87.6204917818448 12.668152079986047  87.6204917818448 11.614494101729314  C 87.6204917818448 10.542963456553107  87.39646386354714 9.626757110560863  86.94864270419 8.866128282102236  C 86.50082154483286 8.105083839610376  85.8856484083941 7.516705437104932  85.102778512219 7.101061265908418  Z " fill-rule="nonzero" fill="#ffffff" stroke="none" transform="matrix(1 0 0 1 336 1478 )" />
  </g>
</svg>