<?xml version="1.0" encoding="utf-8"?>
<svg version="1.1" xmlns:xlink="http://www.w3.org/1999/xlink" width="303px" height="44px" xmlns="http://www.w3.org/2000/svg">
  <g transform="matrix(1 0 0 1 -44 -726 )">
    <path d="M 0 7.333333333333333  C 0 3.2832449674606323  3.249286527405242 0  7.257485029940121 0  C 7.257485029940121 0  295.7425149700599 0  295.7425149700599 0  C 299.7507134725948 0  303 3.2832449674606323  303 7.333333333333333  C 303 7.333333333333333  303 36.66666666666667  303 36.66666666666667  C 303 40.71675503253937  299.7507134725948 44  295.7425149700599 44  C 295.7425149700599 44  7.257485029940121 44  7.257485029940121 44  C 3.249286527405242 44  0 40.71675503253937  0 36.66666666666667  C 0 36.66666666666667  0 7.333333333333333  0 7.333333333333333  Z " fill-rule="nonzero" fill="#fc4a36" stroke="none" transform="matrix(1 0 0 1 44 726 )" />
  </g>
</svg>