<?xml version="1.0" encoding="utf-8"?>
<svg version="1.1" xmlns:xlink="http://www.w3.org/1999/xlink" width="10px" height="17px" xmlns="http://www.w3.org/2000/svg">
  <g transform="matrix(1 0 0 1 -24 -29 )">
    <path d="M 9.556522992036783 2.5899504690305473  C 10.13361004298368 1.9966334643228316  10.13361004298368 1.0230070490279175  9.556522992036783 0.4449035589349305  C 8.965548661102941 -0.14830120444725922  8.006221431912206 -0.14830120444725922  7.415247100978365 0.4449035589349305  C 7.415247100978365 0.4449035589349305  0.44414311509410054 7.427810793417228  0.44414311509410054 7.427810793417228  C -0.1480476869266938 8.019795156812567  -0.1480476869266938 8.980873394524352  0.44414311509410054 9.572857757919692  C 0.44414311509410054 9.572857757919692  7.415247100978365 16.555765046808837  7.415247100978365 16.555765046808837  C 8.006576808539519 17.148077973153693  8.965193284475628 17.148077973153693  9.556522992036783 16.555765046808837  C 10.147825325332285 15.963452120463979  10.147825325332285 15.002919583428406  9.556522992036783 14.410606657083552  C 9.556522992036783 14.410606657083552  3.663954644578618 8.492701647905308  3.663954644578618 8.492701647905308  C 3.663954644578618 8.492701647905308  9.556522992036783 2.5899504690305473  9.556522992036783 2.5899504690305473  Z " fill-rule="nonzero" fill="#000000" stroke="none" transform="matrix(1 0 0 1 24 29 )" />
  </g>
</svg>