<?xml version="1.0" encoding="utf-8"?>
<svg version="1.1" xmlns:xlink="http://www.w3.org/1999/xlink" width="91px" height="31px" xmlns="http://www.w3.org/2000/svg">
  <g transform="matrix(1 0 0 1 -33 -173 )">
    <path d="M 0 28  L 0 24  L 28.982222098571366 24  L 28.982222098571366 28  L 0 28  Z M 12.152968470578053 25.872375455785964  L 12.152968470578053 18.40818736997517  L 16.737547972666977 18.40818736997517  L 16.737547972666977 25.872375455785964  L 12.152968470578053 25.872375455785964  Z M 3.2790397892989462 6  L 3.2790397892989462 2  L 26 2  L 26 13  L 7.886123746682679 13  L 7.886123746682679 17.823457038677493  L 3.3286902437931136 17.823457038677493  L 3.3286902437931136 9  L 21.169519137287995 9  L 21.169519137287995 6  L 3.2790397892989462 6  Z M 3.3286902437931136 19.66821466120842  L 3.3286902437931136 16  L 26.452861976280673 16  L 26.452861976280673 19.66821466120842  L 3.3286902437931136 19.66821466120842  Z M 34.76572645649113 7  L 34.76572645649113 3  L 55.03436411775889 3  L 55.03436411775889 7  L 34.76572645649113 7  Z M 31.801608388473884 27  L 31.801608388473884 23.740939086862177  L 60.75344947239726 23.740939086862177  L 60.75344947239726 27  L 31.801608388473884 27  Z M 52.62540283129542 6.617882468738116  C 52.62540283129542 6.617882468738116  52.62540283129542 2.868590474912198  52.62540283129542 2.868590474912198  L 57.20168381549438 2.868590474912198  C 57.20168381549438 2.868590474912198  57.20168381549438 6.617882468738116  57.20168381549438 6.617882468738116  C 57.20168381549438 8.090970343503233  57.184349758030926 9.586475447152596  57.14978291547073 11.104328568552447  C 57.115216072910535 12.621878705008612  57.02185018990609 14.247293648496745  56.86960244705038 15.980641120282755  C 56.71727788768697 17.713685607125083  56.44262607879936 19.66563014681621  56.045798730414866 21.836404715567188  C 56.045798730414866 21.836404715567188  51.446310026693126 21.44598349104087  51.446310026693126 21.44598349104087  C 51.8482071959085 19.423971956230567  52.12784605129 17.557816716194942  52.285163597807056 15.847495693801312  C 52.44286522686267 14.13717467140768  52.53893508871157 12.525041222589927  52.57350193127177 11.011126770015435  C 52.60806877383196 9.497136605065656  52.62540283129542 8.032722470038363  52.62540283129542 6.617882468738116  Z M 85 22.671476187280497  L 85 0  L 90 0  L 90 22.671476187280497  L 85 22.671476187280497  Z M 68.8706658443885 31  L 68.8706658443885 27  L 91 27  L 91 31  L 68.8706658443885 31  Z M 68.8706658443885 28.85691340625909  L 68.8706658443885 20.40703308502785  L 73.45510469363182 20.40703308502785  L 73.45510469363182 28.85691340625909  L 68.8706658443885 28.85691340625909  Z M 68.3425144091885 3.0144956714314475  C 69.65674575358337 2.332435117784321  71.12964532044795 1.9913562848130997  72.76112355347823 1.9913562848130997  C 74.39767160733938 1.9913562848130997  75.87157854526801 2.332435117784321  77.18296771321658 3.0144956714314475  C 78.494664147196 3.696200282104948  79.53735336053315 4.638793620359651  80.31080569350354 5.842449052636288  C 81.08456529250479 7.045733372375736  81.47133232248761 8.431728854886696  81.47133232248761 10.000331073977138  C 81.47133232248761 11.533105899107722  81.08456529250479 12.90698943321058  80.31080569350354 14.122014182493345  C 79.53735336053315 15.336660234457138  78.494664147196 16.289471628197493  77.18296771321658 16.980341364114263  C 75.87157854526801 17.670983827462642  74.39767160733938 18.01624052077042  72.76112355347823 18.01624052077042  C 71.12964532044795 18.01624052077042  69.65674575358337 17.670983827462642  68.3425144091885 16.980341364114263  C 67.02859033082447 16.289471628197493  65.98471518324043 15.336660234457138  65.21087880207054 14.122014182493345  C 64.43750331994691 12.90698943321058  64.05091478446884 11.533105899107722  64.05091478446884 10.000331073977138  C 64.05091478446884 8.431728854886696  64.43750331994691 7.045733372375736  65.21087880207054 5.842449052636288  C 65.98471518324043 4.638793620359651  67.02859033082447 3.696200282104948  68.3425144091885 3.0144956714314475  Z M 74.91395600811768 6.390009619041227  C 74.27377808398873 6.066199945901631  73.55616094738602 5.904306198689126  72.76112355347823 5.904306198689126  C 71.96608615957041 5.904306198689126  71.24955324487853 6.066199945901631  70.61152611428739 6.390009619041227  C 69.9738062497271 6.713819292180824  69.4714409520716 7.177742165130137  69.1045715266089 7.78165671207749  C 68.73762528463847 8.385268274081158  68.55419694180527 9.124795130063278  68.55419694180527 10.000331073977138  C 68.55419694180527 10.857763972251583  68.73762528463847 11.588524784410442  69.1045715266089 12.192515043733083  C 69.4714409520716 12.79612660573675  69.9738062497271 13.25979769101941  70.61152611428739 13.583607364159004  C 71.24955324487853 13.907417037298602  71.96608615957041 14.069310784511107  72.76112355347823 14.069310784511107  C 73.55616094738602 14.069310784511107  74.27377808398873 13.907417037298602  74.91395600811768 13.583607364159004  C 75.55451804912427 13.25979769101941  76.05832459203913 12.79612660573675  76.42527083400955 12.192515043733083  C 76.79221707597996 11.588524784410442  76.97564541881317 10.857763972251583  76.97564541881317 10.000331073977138  C 76.97564541881317 9.124795130063278  76.79221707597996 8.385268274081158  76.42527083400955 7.78165671207749  C 76.05832459203913 7.177742165130137  75.55451804912427 6.713819292180824  74.91395600811768 6.390009619041227  Z " fill-rule="nonzero" fill="#4c4c57" stroke="none" transform="matrix(1 0 0 1 33 173 )" />
  </g>
</svg>