<?xml version="1.0" encoding="utf-8"?>
<svg version="1.1" xmlns:xlink="http://www.w3.org/1999/xlink" width="606px" height="87px" xmlns="http://www.w3.org/2000/svg">
  <g transform="matrix(1 0 0 1 -87 -1453 )">
    <path d="M 0 14.5  C 0 6.491870731115341  6.498573054810484 0  14.514970059880241 0  C 14.514970059880241 0  591.4850299401198 0  591.4850299401198 0  C 599.5014269451896 0  606 6.491870731115341  606 14.5  C 606 14.5  606 72.5  606 72.5  C 606 80.50812926888466  599.5014269451896 87  591.4850299401198 87  C 591.4850299401198 87  14.514970059880241 87  14.514970059880241 87  C 6.498573054810484 87  0 80.50812926888466  0 72.5  C 0 72.5  0 14.5  0 14.5  Z " fill-rule="nonzero" fill="#fc4a36" stroke="none" transform="matrix(1 0 0 1 87 1453 )" />
  </g>
</svg>