<?xml version="1.0" encoding="utf-8"?>
<svg version="1.1" xmlns:xlink="http://www.w3.org/1999/xlink" width="800px" height="75px" xmlns="http://www.w3.org/2000/svg">
  <g transform="matrix(1 0 0 1 -52 -1808 )">
    <path d="M 0 8.333333333333332  C 0 3.730960190296173  3.750494013282017 0  8.37696335078534 0  C 8.37696335078534 0  791.6230366492147 0  791.6230366492147 0  C 796.2495059867181 0  800 3.730960190296173  800 8.333333333333332  C 800 8.333333333333332  800 66.66666666666666  800 66.66666666666666  C 800 71.26903980970383  796.2495059867181 75  791.6230366492147 75  C 791.6230366492147 75  8.37696335078534 75  8.37696335078534 75  C 3.750494013282017 75  0 71.26903980970383  0 66.66666666666666  C 0 66.66666666666666  0 8.333333333333332  0 8.333333333333332  Z " fill-rule="nonzero" fill="#fc4a36" stroke="none" transform="matrix(1 0 0 1 52 1808 )" />
  </g>
</svg>