<?xml version="1.0" encoding="utf-8"?>
<svg version="1.1" xmlns:xlink="http://www.w3.org/1999/xlink" width="80px" height="18px" xmlns="http://www.w3.org/2000/svg">
  <g transform="matrix(1 0 0 1 -753 -106 )">
    <path d="M 15.174282921685114 2.636040687561035  C 16.841272910435993 4.323868051171303  17.777777777777775 6.613051503896713  17.77777777777778 9  C 17.777777777777775 11.386948496103287  16.841272910435993 13.676131948828697  15.174282921685114 15.363959312438965  C 13.50729293293423 17.051786676049232  11.246368885040283 18  8.88888888888889 18  C 6.5314088927374945 18  4.270484844843547 17.051786676049232  2.603494856092665 15.363959312438965  C 0.9365048673417833 13.676131948828697  0 11.386948496103287  0 9  C 0 6.613051503896713  0.9365048673417833 4.323868051171303  2.603494856092665 2.636040687561035  C 4.270484844843547 0.9482133239507675  6.5314088927374945 0  8.88888888888889 0  C 11.246368885040283 0  13.50729293293423 0.9482133239507675  15.174282921685114 2.636040687561035  Z M 46.28539191351997 2.636040687561035  C 47.95238190227085 4.323868051171303  48.8888888888889 6.613051503896713  48.88888888888889 9  C 48.88888888888889 11.386948496103287  47.95238190227085 13.676131948828697  46.28539191351997 15.363959312438965  C 44.618401924769096 17.051786676049232  42.35747999615139 18  40 18  C 37.64252000384861 18  35.38159807523092 17.051786676049232  33.714608086480034 15.363959312438965  C 32.047618097729156 13.676131948828697  31.11111111111111 11.386948496103287  31.11111111111111 9  C 31.11111111111111 6.613051503896713  32.047618097729156 4.323868051171303  33.714608086480034 2.636040687561035  C 35.38159807523092 0.9482133239507675  37.64252000384861 0  40 0  C 42.35747999615139 0  44.618401924769096 0.9482133239507675  46.28539191351997 2.636040687561035  Z M 77.39650302463109 2.636040687561035  C 79.06349301338197 4.323868051171303  80 6.613051503896713  80 9  C 80 11.386948496103287  79.06349301338197 13.676131948828697  77.39650302463109 15.363959312438965  C 75.7295130358802 17.051786676049232  73.46859110726251 18  71.11111111111111 18  C 68.75363111495972 18  66.49270918634203 17.051786676049232  64.82571919759116 15.363959312438965  C 63.15872920884027 13.676131948828697  62.22222222222222 11.386948496103287  62.22222222222222 9  C 62.22222222222222 6.613051503896713  63.15872920884027 4.323868051171303  64.82571919759116 2.636040687561035  C 66.49270918634203 0.9482133239507675  68.75363111495972 0  71.11111111111111 0  C 73.46859110726251 0  75.7295130358802 0.9482133239507675  77.39650302463109 2.636040687561035  Z " fill-rule="nonzero" fill="#ffffff" stroke="none" transform="matrix(1 0 0 1 753 106 )" />
  </g>
</svg>