<?xml version="1.0" encoding="utf-8"?>
<svg version="1.1" xmlns:xlink="http://www.w3.org/1999/xlink" width="56px" height="57px" xmlns="http://www.w3.org/2000/svg">
  <g transform="matrix(1 0 0 1 -330 -418 )">
    <path d="M 40.09747282129033 40.42967034196055  C 40.714091294012114 39.42121705144223  40.39109785685605 38.12463421867964  39.36340038773509 37.54837517712574  C 39.36340038773509 37.54837517712574  29.468142066857055 31.78578484745614  29.468142066857055 31.78578484745614  C 29.468142066857055 31.78578484745614  29.468142066857055 18.733518520143285  29.468142066857055 18.733518520143285  C 29.468142066857055 17.581000437035506  28.528532169661364 16.658985232073412  27.354020738876873 16.658985232073412  C 27.354020738876873 16.658985232073412  27.17784559502635 16.658985232073412  27.17784559502635 16.658985232073412  C 26.003334164241863 16.658985232073412  25.063724267046172 17.581000437035506  25.063724267046172 18.733518520143285  C 25.063724267046172 18.733518520143285  25.063724267046172 32.333229719735186  25.063724267046172 32.333229719735186  C 25.063724267046172 33.341683010253504  25.592253723962024 34.29251216981723  26.502500076256908 34.811145320096124  C 26.502500076256908 34.811145320096124  37.219918402615434 41.12118052204478  37.219918402615434 41.12118052204478  C 38.218253114406856 41.69743956359867  39.510217105898086 41.4093107083087  40.09747282129033 40.42967034196055  Z M 55.67101502685993 8.922701009817999  C 55.49352610473748 8.586449524625817  55.250230111450094 8.287828515782088  54.95504063117713 8.04391334869347  C 54.95504063117713 8.04391334869347  45.91130297291905 0.667797290500391  45.91130297291905 0.667797290500391  C 44.67806602747549 -0.34065600001793306  42.82821100309579 -0.19659163677491484  41.77115068913737 1.0423653047126802  C 40.74345322001642 2.2525092361608117  40.91962748878775 4.067725348006228  42.152864434231304 5.104991648564016  C 42.152864434231304 5.104991648564016  51.16723863509648 12.481107792626384  51.16723863509648 12.481107792626384  C 52.40047558054004 13.489561083144707  54.25033060491975 13.345496032947391  55.30739091887816 12.106539091459796  C 55.556329488443716 11.817182305360058  55.74469988908997 11.482511222935088  55.86172908648234 11.121663704005519  C 55.978758283874704 10.76081618507595  56.022151040997336 10.380869662178293  55.989426243074995 10.00355353022681  C 55.95670144515265 9.626237398275325  55.84850394898239 9.258952495010181  55.67101502685993 8.922701009817999  Z M 0.6926119251292242 12.106539091459796  C 1.7203093942501795 13.345496032947391  3.570164462383846 13.489561083144707  4.803401407827408 12.481107792626384  C 4.803401407827408 12.481107792626384  13.817777708882655 5.104991648564016  13.817777708882655 5.104991648564016  C 15.080377499163678 4.067725348006228  15.256554568188424 2.2525092361608117  14.199494254230009 1.0423653047126802  C 13.956070696273015 0.7508791105567618  13.656088888544415 0.5097220005773551  13.316949583937348 0.33288167381223677  C 12.977810279330281 0.15604134704711853  12.606263816875428 0.04703814910387053  12.223860859407779 0.012194225050967792  C 11.841457901940128 -0.022649699001934944  11.455808925707778 0.017359571280619726  11.089285680354074 0.12990109371349803  C 10.72276243500037 0.24244261614637638  10.382659515061114 0.4252762542272998  10.088703327651153 0.667797290500391  C 10.088703327651153 0.667797290500391  1.0449649693297245 8.04391334869347  1.0449649693297245 8.04391334869347  C 0.7497754890567597 8.287828515782088  0.5064802177097028 8.586449524625817  0.32899129558725065 8.922701009817999  C 0.15150237346479856 9.258952495010181  0.04330138313064208 9.626237398275325  0.010576585208305104 10.00355353022681  C -0.022148212714031872 10.380869662178293  0.021245249257557813 10.76081618507595  0.13827444664992183 11.121663704005519  C 0.2553036440422859 11.482511222935088  0.44367335556367854 11.817182305360058  0.6926119251292242 12.106539091459796  Z M 38.11366408659984 7.107292379030241  C 34.90720065165898 5.804207051544905  31.47057388693677 5.133615384203648  28.000002800253423 5.133804572734191  C 20.990868373587812 5.134186656220636  14.268962941146176 7.866782182651941  9.31303172937151 12.730451594596888  C 4.357100517596843 17.59412100654183  1.5731059265905067 24.190458838710754  1.57349530132477 31.06834351648676  C 1.573884676059033 37.94622819426277  4.358625955648987 44.54226170567716  9.315108117284614 49.40539048458865  C 14.271590278920247 54.26851926350015  20.99380583942847 57.00038208348645  28.002940266094082 57  C 31.473511352777432 56.99981081146946  34.91005901034044 56.328847968179616  38.11637473191324 55.02541306682528  C 41.32269045348605 53.72197816547095  44.2359797811702 51.81160162346344  46.68990783665922 49.403357099863115  C 49.14383589214824 46.995112576262784  51.09034472619773 44.13615665002133  52.418296655847364 40.98973593862399  C 53.746248585497 37.84331522722665  54.429637063495804 34.471043863936195  54.42944426470596 31.06546105624744  C 54.42925146591612 27.659878248558677  53.745484728867964 24.287679015469635  52.41717655447819 21.14140325142942  C 51.08886838008841 17.995127487389208  49.14203637929233 15.136391043046341  46.68783564912625 12.728414088145543  C 44.23363491896017 10.320437133244743  41.320127521540705 8.410377706515577  38.11366408659984 7.107292379030241  Z M 48.553952532704216 31.06546105624744  C 48.553952532704216 42.18726009024989  39.334037630405554 51.234529957908265  28.000002800253423 51.234529957908265  C 16.6659679701013 51.234529957908265  7.446052367739281 42.18726009024989  7.446052367739281 31.06546105624744  C 7.446052367739281 19.943662022244983  16.6659679701013 10.8963949024038  28.000002800253423 10.8963949024038  C 39.334037630405554 10.8963949024038  48.553952532704216 19.943662022244983  48.553952532704216 31.06546105624744  Z " fill-rule="nonzero" fill="#ffffff" stroke="none" fill-opacity="0.9921568627450981" transform="matrix(1 0 0 1 330 418 )" />
  </g>
</svg>