<?xml version="1.0" encoding="utf-8"?>
<svg version="1.1" xmlns:xlink="http://www.w3.org/1999/xlink" width="23px" height="40px" xmlns="http://www.w3.org/2000/svg">
  <g transform="matrix(1 0 0 1 -57 -93 )">
    <path d="M 21.980002881684598 6.094001103601288  C 23.307303098862466 4.697961092524309  23.307303098862466 2.4070754094774527  21.980002881684598 1.0468319033763072  C 20.620761920536765 -0.34894401046413936  18.414309293398073 -0.34894401046413936  17.05506833225024 1.0468319033763072  C 17.05506833225024 1.0468319033763072  1.0215291647164313 17.477201866864064  1.0215291647164313 17.477201866864064  C -0.34050967993139575 18.870106251323687  -0.34050967993139575 21.13146681064553  1.0215291647164313 22.524371195105157  C 1.0215291647164313 22.524371195105157  17.05506833225024 38.95474128660902  17.05506833225024 38.95474128660902  C 18.415126659640894 40.348418760361625  20.619944554293944 40.348418760361625  21.980002881684598 38.95474128660902  C 23.339998248264255 37.56106381285642  23.339998248264255 35.30098725512566  21.980002881684598 33.907309781373066  C 21.980002881684598 33.907309781373066  8.42709568253082 19.98282740683602  8.42709568253082 19.98282740683602  C 8.42709568253082 19.98282740683602  21.980002881684598 6.094001103601288  21.980002881684598 6.094001103601288  Z " fill-rule="nonzero" fill="#ffffff" stroke="none" fill-opacity="0.9921568627450981" transform="matrix(1 0 0 1 57 93 )" />
  </g>
</svg>